<?xml version="1.0" encoding="UTF-8" standalone="no"?>
<!DOCTYPE svg PUBLIC "-//W3C//DTD SVG 1.1//EN"
 "http://www.w3.org/Graphics/SVG/1.1/DTD/svg11.dtd">
<!-- Generated by graphviz version 2.43.0 (0)
 -->
<!-- Title: /home/runner/work/open62541pp/open62541pp/include/open62541pp/async.hpp Pages: 1 -->
<svg width="1313pt" height="511pt"
 viewBox="0.00 0.00 1313.21 511.00" xmlns="http://www.w3.org/2000/svg" xmlns:xlink="http://www.w3.org/1999/xlink">
<g id="graph0" class="graph" transform="scale(1 1) rotate(0) translate(4 507)">
<title>/home/runner/work/open62541pp/open62541pp/include/open62541pp/async.hpp</title>
<!-- Node1 -->
<g id="Node000001" class="node">
<title>Node1</title>
<g id="a_Node000001"><a xlink:title=" ">
<polygon fill="#999999" stroke="#666666" points="591.5,-503 398.5,-503 398.5,-462 591.5,-462 591.5,-503"/>
<text text-anchor="start" x="406.5" y="-491" font-family="Helvetica,sans-Serif" font-size="10.00">/home/runner/work/open62541pp</text>
<text text-anchor="start" x="406.5" y="-480" font-family="Helvetica,sans-Serif" font-size="10.00">/open62541pp/include/open62541pp</text>
<text text-anchor="middle" x="495" y="-469" font-family="Helvetica,sans-Serif" font-size="10.00">/async.hpp</text>
</a>
</g>
</g>
<!-- Node2 -->
<g id="Node000002" class="node">
<title>Node2</title>
<g id="a_Node000002"><a xlink:href="open62541pp_8hpp.html" target="_top" xlink:title=" ">
<polygon fill="white" stroke="#666666" points="355.5,-41 162.5,-41 162.5,0 355.5,0 355.5,-41"/>
<text text-anchor="start" x="170.5" y="-29" font-family="Helvetica,sans-Serif" font-size="10.00">/home/runner/work/open62541pp</text>
<text text-anchor="start" x="170.5" y="-18" font-family="Helvetica,sans-Serif" font-size="10.00">/open62541pp/include/open62541pp</text>
<text text-anchor="middle" x="259" y="-7" font-family="Helvetica,sans-Serif" font-size="10.00">/open62541pp.hpp</text>
</a>
</g>
</g>
<!-- Node1&#45;&gt;Node2 -->
<g id="edge1_Node000001_Node000002" class="edge">
<title>Node1&#45;&gt;Node2</title>
<g id="a_edge1_Node000001_Node000002"><a xlink:title=" ">
<path fill="none" stroke="#63b8ff" d="M388.32,-477.12C314.99,-471.23 216.53,-457.57 135,-426 66.22,-399.37 0,-403.25 0,-329.5 0,-329.5 0,-329.5 0,-173.5 0,-95.43 88.62,-56.68 162.19,-37.97"/>
<polygon fill="#63b8ff" stroke="#63b8ff" points="388.25,-480.62 398.49,-477.89 388.79,-473.64 388.25,-480.62"/>
</a>
</g>
</g>
<!-- Node3 -->
<g id="Node000003" class="node">
<title>Node3</title>
<g id="a_Node000003"><a xlink:href="attribute_8hpp.html" target="_top" xlink:title=" ">
<polygon fill="white" stroke="#666666" points="854.5,-349 661.5,-349 661.5,-308 854.5,-308 854.5,-349"/>
<text text-anchor="start" x="669.5" y="-337" font-family="Helvetica,sans-Serif" font-size="10.00">/home/runner/work/open62541pp</text>
<text text-anchor="start" x="669.5" y="-326" font-family="Helvetica,sans-Serif" font-size="10.00">/open62541pp/include/open62541pp</text>
<text text-anchor="middle" x="758" y="-315" font-family="Helvetica,sans-Serif" font-size="10.00">/services/attribute.hpp</text>
</a>
</g>
</g>
<!-- Node1&#45;&gt;Node3 -->
<g id="edge2_Node000001_Node000003" class="edge">
<title>Node1&#45;&gt;Node3</title>
<g id="a_edge2_Node000001_Node000003"><a xlink:title=" ">
<path fill="none" stroke="#63b8ff" d="M591.39,-458.87C616.15,-450.68 641.99,-439.91 664,-426 685.26,-412.56 685.48,-403.04 703,-385 714.62,-373.03 727.77,-359.75 738.3,-349.18"/>
<polygon fill="#63b8ff" stroke="#63b8ff" points="590.06,-455.62 581.6,-461.99 592.19,-462.29 590.06,-455.62"/>
</a>
</g>
</g>
<!-- Node7 -->
<g id="Node000007" class="node">
<title>Node7</title>
<g id="a_Node000007"><a xlink:href="async__hook_8hpp.html" target="_top" xlink:title=" ">
<polygon fill="white" stroke="#666666" points="366.5,-426 173.5,-426 173.5,-385 366.5,-385 366.5,-426"/>
<text text-anchor="start" x="181.5" y="-414" font-family="Helvetica,sans-Serif" font-size="10.00">/home/runner/work/open62541pp</text>
<text text-anchor="start" x="181.5" y="-403" font-family="Helvetica,sans-Serif" font-size="10.00">/open62541pp/include/open62541pp</text>
<text text-anchor="middle" x="270" y="-392" font-family="Helvetica,sans-Serif" font-size="10.00">/services/detail/async_hook.hpp</text>
</a>
</g>
</g>
<!-- Node1&#45;&gt;Node7 -->
<g id="edge10_Node000001_Node000007" class="edge">
<title>Node1&#45;&gt;Node7</title>
<g id="a_edge10_Node000001_Node000007"><a xlink:title=" ">
<path fill="none" stroke="#63b8ff" d="M426.93,-458.81C395.57,-448.36 358.73,-436.08 328.63,-426.04"/>
<polygon fill="#63b8ff" stroke="#63b8ff" points="425.88,-462.15 436.47,-461.99 428.09,-455.51 425.88,-462.15"/>
</a>
</g>
</g>
<!-- Node8 -->
<g id="Node000008" class="node">
<title>Node8</title>
<g id="a_Node000008"><a xlink:href="services_2monitoreditem_8hpp.html" target="_top" xlink:title=" ">
<polygon fill="white" stroke="#666666" points="221.5,-349 28.5,-349 28.5,-308 221.5,-308 221.5,-349"/>
<text text-anchor="start" x="36.5" y="-337" font-family="Helvetica,sans-Serif" font-size="10.00">/home/runner/work/open62541pp</text>
<text text-anchor="start" x="36.5" y="-326" font-family="Helvetica,sans-Serif" font-size="10.00">/open62541pp/include/open62541pp</text>
<text text-anchor="middle" x="125" y="-315" font-family="Helvetica,sans-Serif" font-size="10.00">/services/monitoreditem.hpp</text>
</a>
</g>
</g>
<!-- Node1&#45;&gt;Node8 -->
<g id="edge47_Node000001_Node000008" class="edge">
<title>Node1&#45;&gt;Node8</title>
<g id="a_edge47_Node000001_Node000008"><a xlink:title=" ">
<path fill="none" stroke="#63b8ff" d="M388.3,-474.67C305.36,-467.37 198.91,-452.99 165,-426 141.16,-407.03 131.38,-371.4 127.48,-349.14"/>
<polygon fill="#63b8ff" stroke="#63b8ff" points="388.03,-478.16 398.29,-475.53 388.63,-471.19 388.03,-478.16"/>
</a>
</g>
</g>
<!-- Node13 -->
<g id="Node000013" class="node">
<title>Node13</title>
<g id="a_Node000013"><a xlink:href="services_2subscription_8hpp.html" target="_top" xlink:title=" ">
<polygon fill="white" stroke="#666666" points="432.5,-349 239.5,-349 239.5,-308 432.5,-308 432.5,-349"/>
<text text-anchor="start" x="247.5" y="-337" font-family="Helvetica,sans-Serif" font-size="10.00">/home/runner/work/open62541pp</text>
<text text-anchor="start" x="247.5" y="-326" font-family="Helvetica,sans-Serif" font-size="10.00">/open62541pp/include/open62541pp</text>
<text text-anchor="middle" x="336" y="-315" font-family="Helvetica,sans-Serif" font-size="10.00">/services/subscription.hpp</text>
</a>
</g>
</g>
<!-- Node1&#45;&gt;Node13 -->
<g id="edge49_Node000001_Node000013" class="edge">
<title>Node1&#45;&gt;Node13</title>
<g id="a_edge49_Node000001_Node000013"><a xlink:title=" ">
<path fill="none" stroke="#63b8ff" d="M466.94,-454.68C435.36,-424.49 384.79,-376.15 356.63,-349.23"/>
<polygon fill="#63b8ff" stroke="#63b8ff" points="464.89,-457.56 474.54,-461.94 469.73,-452.5 464.89,-457.56"/>
</a>
</g>
</g>
<!-- Node14 -->
<g id="Node000014" class="node">
<title>Node14</title>
<g id="a_Node000014"><a xlink:href="async__transform_8hpp.html" target="_top" xlink:title=" ">
<polygon fill="white" stroke="#666666" points="908.5,-426 711.5,-426 711.5,-385 908.5,-385 908.5,-426"/>
<text text-anchor="start" x="719.5" y="-414" font-family="Helvetica,sans-Serif" font-size="10.00">/home/runner/work/open62541pp</text>
<text text-anchor="start" x="719.5" y="-403" font-family="Helvetica,sans-Serif" font-size="10.00">/open62541pp/include/open62541pp</text>
<text text-anchor="middle" x="810" y="-392" font-family="Helvetica,sans-Serif" font-size="10.00">/services/detail/async_transform.hpp</text>
</a>
</g>
</g>
<!-- Node1&#45;&gt;Node14 -->
<g id="edge25_Node000001_Node000014" class="edge">
<title>Node1&#45;&gt;Node14</title>
<g id="a_edge25_Node000001_Node000014"><a xlink:title=" ">
<path fill="none" stroke="#63b8ff" d="M586.91,-459.62C631.52,-448.99 684.69,-436.34 727.92,-426.04"/>
<polygon fill="#63b8ff" stroke="#63b8ff" points="585.86,-456.27 576.94,-461.99 587.48,-463.08 585.86,-456.27"/>
</a>
</g>
</g>
<!-- Node15 -->
<g id="Node000015" class="node">
<title>Node15</title>
<g id="a_Node000015"><a xlink:href="method_8hpp.html" target="_top" xlink:title=" ">
<polygon fill="white" stroke="#666666" points="1065.5,-349 872.5,-349 872.5,-308 1065.5,-308 1065.5,-349"/>
<text text-anchor="start" x="880.5" y="-337" font-family="Helvetica,sans-Serif" font-size="10.00">/home/runner/work/open62541pp</text>
<text text-anchor="start" x="880.5" y="-326" font-family="Helvetica,sans-Serif" font-size="10.00">/open62541pp/include/open62541pp</text>
<text text-anchor="middle" x="969" y="-315" font-family="Helvetica,sans-Serif" font-size="10.00">/services/method.hpp</text>
</a>
</g>
</g>
<!-- Node1&#45;&gt;Node15 -->
<g id="edge46_Node000001_Node000015" class="edge">
<title>Node1&#45;&gt;Node15</title>
<g id="a_edge46_Node000001_Node000015"><a xlink:title=" ">
<path fill="none" stroke="#63b8ff" d="M601.82,-478.51C710.05,-473.57 868.37,-460.51 918,-426 944.29,-407.72 958.1,-371.52 964.44,-349.03"/>
<polygon fill="#63b8ff" stroke="#63b8ff" points="601.35,-475.03 591.51,-478.97 601.66,-482.02 601.35,-475.03"/>
</a>
</g>
</g>
<!-- Node16 -->
<g id="Node000016" class="node">
<title>Node16</title>
<g id="a_Node000016"><a xlink:href="nodemanagement_8hpp.html" target="_top" xlink:title=" ">
<polygon fill="white" stroke="#666666" points="1276.5,-349 1083.5,-349 1083.5,-308 1276.5,-308 1276.5,-349"/>
<text text-anchor="start" x="1091.5" y="-337" font-family="Helvetica,sans-Serif" font-size="10.00">/home/runner/work/open62541pp</text>
<text text-anchor="start" x="1091.5" y="-326" font-family="Helvetica,sans-Serif" font-size="10.00">/open62541pp/include/open62541pp</text>
<text text-anchor="middle" x="1180" y="-315" font-family="Helvetica,sans-Serif" font-size="10.00">/services/nodemanagement.hpp</text>
</a>
</g>
</g>
<!-- Node1&#45;&gt;Node16 -->
<g id="edge48_Node000001_Node000016" class="edge">
<title>Node1&#45;&gt;Node16</title>
<g id="a_edge48_Node000001_Node000016"><a xlink:title=" ">
<path fill="none" stroke="#63b8ff" d="M602.12,-476.6C694.91,-470.41 832.07,-456.6 948,-426 1019.07,-407.24 1097.09,-371.37 1142.13,-349.04"/>
<polygon fill="#63b8ff" stroke="#63b8ff" points="601.63,-473.12 591.88,-477.26 602.08,-480.11 601.63,-473.12"/>
</a>
</g>
</g>
<!-- Node17 -->
<g id="Node000017" class="node">
<title>Node17</title>
<g id="a_Node000017"><a xlink:href="view_8hpp.html" target="_top" xlink:title=" ">
<polygon fill="white" stroke="#666666" points="643.5,-349 450.5,-349 450.5,-308 643.5,-308 643.5,-349"/>
<text text-anchor="start" x="458.5" y="-337" font-family="Helvetica,sans-Serif" font-size="10.00">/home/runner/work/open62541pp</text>
<text text-anchor="start" x="458.5" y="-326" font-family="Helvetica,sans-Serif" font-size="10.00">/open62541pp/include/open62541pp</text>
<text text-anchor="middle" x="547" y="-315" font-family="Helvetica,sans-Serif" font-size="10.00">/services/view.hpp</text>
</a>
</g>
</g>
<!-- Node1&#45;&gt;Node17 -->
<g id="edge50_Node000001_Node000017" class="edge">
<title>Node1&#45;&gt;Node17</title>
<g id="a_edge50_Node000001_Node000017"><a xlink:title=" ">
<path fill="none" stroke="#63b8ff" d="M469.13,-453.7C454.07,-433.99 440.32,-407.22 453,-385 461.93,-369.36 477.17,-357.69 492.82,-349.19"/>
<polygon fill="#63b8ff" stroke="#63b8ff" points="466.58,-456.11 475.6,-461.68 472.02,-451.7 466.58,-456.11"/>
</a>
</g>
</g>
<!-- Node18 -->
<g id="Node000018" class="node">
<title>Node18</title>
<g id="a_Node000018"><a xlink:href="client__service_8hpp.html" target="_top" xlink:title=" ">
<polygon fill="white" stroke="#666666" points="654.5,-426 461.5,-426 461.5,-385 654.5,-385 654.5,-426"/>
<text text-anchor="start" x="469.5" y="-414" font-family="Helvetica,sans-Serif" font-size="10.00">/home/runner/work/open62541pp</text>
<text text-anchor="start" x="469.5" y="-403" font-family="Helvetica,sans-Serif" font-size="10.00">/open62541pp/include/open62541pp</text>
<text text-anchor="middle" x="558" y="-392" font-family="Helvetica,sans-Serif" font-size="10.00">/services/detail/client_service.hpp</text>
</a>
</g>
</g>
<!-- Node1&#45;&gt;Node18 -->
<g id="edge39_Node000001_Node000018" class="edge">
<title>Node1&#45;&gt;Node18</title>
<g id="a_edge39_Node000001_Node000018"><a xlink:title=" ">
<path fill="none" stroke="#63b8ff" d="M518.14,-453.95C525.91,-444.7 534.41,-434.58 541.56,-426.07"/>
<polygon fill="#63b8ff" stroke="#63b8ff" points="515.3,-451.89 511.55,-461.79 520.66,-456.39 515.3,-451.89"/>
</a>
</g>
</g>
<!-- Node4 -->
<g id="Node000004" class="node">
<title>Node4</title>
<g id="a_Node000004"><a xlink:href="node_8hpp.html" target="_top" xlink:title=" ">
<polygon fill="white" stroke="#666666" points="1017.5,-195 824.5,-195 824.5,-154 1017.5,-154 1017.5,-195"/>
<text text-anchor="start" x="832.5" y="-183" font-family="Helvetica,sans-Serif" font-size="10.00">/home/runner/work/open62541pp</text>
<text text-anchor="start" x="832.5" y="-172" font-family="Helvetica,sans-Serif" font-size="10.00">/open62541pp/include/open62541pp</text>
<text text-anchor="middle" x="921" y="-161" font-family="Helvetica,sans-Serif" font-size="10.00">/node.hpp</text>
</a>
</g>
</g>
<!-- Node3&#45;&gt;Node4 -->
<g id="edge3_Node000003_Node000004" class="edge">
<title>Node3&#45;&gt;Node4</title>
<g id="a_edge3_Node000003_Node000004"><a xlink:title=" ">
<path fill="none" stroke="#63b8ff" d="M852.55,-303.9C869.22,-296.08 885.04,-285.71 897,-272 915.73,-250.53 920.28,-216.65 921.16,-195.27"/>
<polygon fill="#63b8ff" stroke="#63b8ff" points="850.97,-300.77 843.22,-307.99 853.78,-307.18 850.97,-300.77"/>
</a>
</g>
</g>
<!-- Node5 -->
<g id="Node000005" class="node">
<title>Node5</title>
<g id="a_Node000005"><a xlink:href="attribute__highlevel_8hpp.html" target="_top" xlink:title=" ">
<polygon fill="white" stroke="#666666" points="854.5,-272 661.5,-272 661.5,-231 854.5,-231 854.5,-272"/>
<text text-anchor="start" x="669.5" y="-260" font-family="Helvetica,sans-Serif" font-size="10.00">/home/runner/work/open62541pp</text>
<text text-anchor="start" x="669.5" y="-249" font-family="Helvetica,sans-Serif" font-size="10.00">/open62541pp/include/open62541pp</text>
<text text-anchor="middle" x="758" y="-238" font-family="Helvetica,sans-Serif" font-size="10.00">/services/attribute_highlevel.hpp</text>
</a>
</g>
</g>
<!-- Node3&#45;&gt;Node5 -->
<g id="edge5_Node000003_Node000005" class="edge">
<title>Node3&#45;&gt;Node5</title>
<g id="a_edge5_Node000003_Node000005"><a xlink:title=" ">
<path fill="none" stroke="#63b8ff" d="M758,-297.69C758,-289.08 758,-279.9 758,-272.07"/>
<polygon fill="#63b8ff" stroke="#63b8ff" points="754.5,-297.79 758,-307.79 761.5,-297.79 754.5,-297.79"/>
</a>
</g>
</g>
<!-- Node6 -->
<g id="Node000006" class="node">
<title>Node6</title>
<g id="a_Node000006"><a xlink:href="services_8hpp.html" target="_top" xlink:title=" ">
<polygon fill="white" stroke="#666666" points="691.5,-195 498.5,-195 498.5,-154 691.5,-154 691.5,-195"/>
<text text-anchor="start" x="506.5" y="-183" font-family="Helvetica,sans-Serif" font-size="10.00">/home/runner/work/open62541pp</text>
<text text-anchor="start" x="506.5" y="-172" font-family="Helvetica,sans-Serif" font-size="10.00">/open62541pp/include/open62541pp</text>
<text text-anchor="middle" x="595" y="-161" font-family="Helvetica,sans-Serif" font-size="10.00">/services/services.hpp</text>
</a>
</g>
</g>
<!-- Node3&#45;&gt;Node6 -->
<g id="edge9_Node000003_Node000006" class="edge">
<title>Node3&#45;&gt;Node6</title>
<g id="a_edge9_Node000003_Node000006"><a xlink:title=" ">
<path fill="none" stroke="#63b8ff" d="M663.45,-303.9C646.78,-296.08 630.96,-285.71 619,-272 600.27,-250.53 595.72,-216.65 594.84,-195.27"/>
<polygon fill="#63b8ff" stroke="#63b8ff" points="662.22,-307.18 672.78,-307.99 665.03,-300.77 662.22,-307.18"/>
</a>
</g>
</g>
<!-- Node4&#45;&gt;Node2 -->
<g id="edge4_Node000004_Node000002" class="edge">
<title>Node4&#45;&gt;Node2</title>
<g id="a_edge4_Node000004_Node000002"><a xlink:title=" ">
<path fill="none" stroke="#63b8ff" d="M854.35,-150.77C789.7,-129.38 688.52,-97.63 599,-77 517.7,-58.26 424.04,-43.47 355.64,-33.88"/>
<polygon fill="#63b8ff" stroke="#63b8ff" points="853.42,-154.15 864.01,-153.98 855.63,-147.5 853.42,-154.15"/>
</a>
</g>
</g>
<!-- Node5&#45;&gt;Node4 -->
<g id="edge6_Node000005_Node000004" class="edge">
<title>Node5&#45;&gt;Node4</title>
<g id="a_edge6_Node000005_Node000004"><a xlink:title=" ">
<path fill="none" stroke="#63b8ff" d="M809.68,-226.72C831.86,-216.51 857.47,-204.73 878.53,-195.04"/>
<polygon fill="#63b8ff" stroke="#63b8ff" points="808.02,-223.63 800.4,-230.99 810.95,-229.99 808.02,-223.63"/>
</a>
</g>
</g>
<!-- Node5&#45;&gt;Node6 -->
<g id="edge7_Node000005_Node000006" class="edge">
<title>Node5&#45;&gt;Node6</title>
<g id="a_edge7_Node000005_Node000006"><a xlink:title=" ">
<path fill="none" stroke="#63b8ff" d="M706.32,-226.72C684.14,-216.51 658.53,-204.73 637.47,-195.04"/>
<polygon fill="#63b8ff" stroke="#63b8ff" points="705.05,-229.99 715.6,-230.99 707.98,-223.63 705.05,-229.99"/>
</a>
</g>
</g>
<!-- Node6&#45;&gt;Node2 -->
<g id="edge8_Node000006_Node000002" class="edge">
<title>Node6&#45;&gt;Node2</title>
<g id="a_edge8_Node000006_Node000002"><a xlink:title=" ">
<path fill="none" stroke="#63b8ff" d="M597.36,-143.62C597.32,-122.14 593.43,-94.07 576,-77 545.31,-46.95 437.14,-32.98 355.63,-26.61"/>
<polygon fill="#63b8ff" stroke="#63b8ff" points="593.86,-143.77 597.1,-153.85 600.85,-143.95 593.86,-143.77"/>
</a>
</g>
</g>
<!-- Node7&#45;&gt;Node8 -->
<g id="edge11_Node000007_Node000008" class="edge">
<title>Node7&#45;&gt;Node8</title>
<g id="a_edge11_Node000007_Node000008"><a xlink:title=" ">
<path fill="none" stroke="#63b8ff" d="M223.24,-380.31C203.68,-370.2 181.26,-358.6 162.78,-349.04"/>
<polygon fill="#63b8ff" stroke="#63b8ff" points="221.79,-383.5 232.28,-384.99 225.01,-377.29 221.79,-383.5"/>
</a>
</g>
</g>
<!-- Node7&#45;&gt;Node13 -->
<g id="edge22_Node000007_Node000013" class="edge">
<title>Node7&#45;&gt;Node13</title>
<g id="a_edge22_Node000007_Node000013"><a xlink:title=" ">
<path fill="none" stroke="#63b8ff" d="M293.99,-377.23C302.2,-367.91 311.21,-357.67 318.78,-349.07"/>
<polygon fill="#63b8ff" stroke="#63b8ff" points="291.32,-374.98 287.34,-384.79 296.57,-379.6 291.32,-374.98"/>
</a>
</g>
</g>
<!-- Node8&#45;&gt;Node6 -->
<g id="edge20_Node000008_Node000006" class="edge">
<title>Node8&#45;&gt;Node6</title>
<g id="a_edge20_Node000008_Node000006"><a xlink:title=" ">
<path fill="none" stroke="#63b8ff" d="M195.27,-304.77C287.36,-274.99 447.35,-223.25 534.38,-195.11"/>
<polygon fill="#63b8ff" stroke="#63b8ff" points="193.92,-301.53 185.48,-307.94 196.07,-308.19 193.92,-301.53"/>
</a>
</g>
</g>
<!-- Node9 -->
<g id="Node000009" class="node">
<title>Node9</title>
<g id="a_Node000009"><a xlink:href="monitoreditem_8hpp.html" target="_top" xlink:title=" ">
<polygon fill="white" stroke="#666666" points="221.5,-272 28.5,-272 28.5,-231 221.5,-231 221.5,-272"/>
<text text-anchor="start" x="36.5" y="-260" font-family="Helvetica,sans-Serif" font-size="10.00">/home/runner/work/open62541pp</text>
<text text-anchor="start" x="36.5" y="-249" font-family="Helvetica,sans-Serif" font-size="10.00">/open62541pp/include/open62541pp</text>
<text text-anchor="middle" x="125" y="-238" font-family="Helvetica,sans-Serif" font-size="10.00">/monitoreditem.hpp</text>
</a>
</g>
</g>
<!-- Node8&#45;&gt;Node9 -->
<g id="edge12_Node000008_Node000009" class="edge">
<title>Node8&#45;&gt;Node9</title>
<g id="a_edge12_Node000008_Node000009"><a xlink:title=" ">
<path fill="none" stroke="#63b8ff" d="M125,-297.69C125,-289.08 125,-279.9 125,-272.07"/>
<polygon fill="#63b8ff" stroke="#63b8ff" points="121.5,-297.79 125,-307.79 128.5,-297.79 121.5,-297.79"/>
</a>
</g>
</g>
<!-- Node10 -->
<g id="Node000010" class="node">
<title>Node10</title>
<g id="a_Node000010"><a xlink:href="subscription_8hpp.html" target="_top" xlink:title=" ">
<polygon fill="white" stroke="#666666" points="351.5,-195 158.5,-195 158.5,-154 351.5,-154 351.5,-195"/>
<text text-anchor="start" x="166.5" y="-183" font-family="Helvetica,sans-Serif" font-size="10.00">/home/runner/work/open62541pp</text>
<text text-anchor="start" x="166.5" y="-172" font-family="Helvetica,sans-Serif" font-size="10.00">/open62541pp/include/open62541pp</text>
<text text-anchor="middle" x="255" y="-161" font-family="Helvetica,sans-Serif" font-size="10.00">/subscription.hpp</text>
</a>
</g>
</g>
<!-- Node8&#45;&gt;Node10 -->
<g id="edge21_Node000008_Node000010" class="edge">
<title>Node8&#45;&gt;Node10</title>
<g id="a_edge21_Node000008_Node000010"><a xlink:title=" ">
<path fill="none" stroke="#63b8ff" d="M192.13,-303.25C206.71,-295.26 220.8,-284.98 231,-272 248.5,-249.74 253.42,-216.4 254.71,-195.31"/>
<polygon fill="#63b8ff" stroke="#63b8ff" points="190.31,-300.25 183.02,-307.93 193.51,-306.47 190.31,-300.25"/>
</a>
</g>
</g>
<!-- Node9&#45;&gt;Node2 -->
<g id="edge13_Node000009_Node000002" class="edge">
<title>Node9&#45;&gt;Node2</title>
<g id="a_edge13_Node000009_Node000002"><a xlink:title=" ">
<path fill="none" stroke="#63b8ff" d="M119.66,-220.78C114.69,-183.62 111.98,-119.7 142,-77 153.31,-60.91 170.56,-49.33 188.37,-41.07"/>
<polygon fill="#63b8ff" stroke="#63b8ff" points="116.24,-221.58 121.17,-230.96 123.16,-220.55 116.24,-221.58"/>
</a>
</g>
</g>
<!-- Node9&#45;&gt;Node10 -->
<g id="edge14_Node000009_Node000010" class="edge">
<title>Node9&#45;&gt;Node10</title>
<g id="a_edge14_Node000009_Node000010"><a xlink:title=" ">
<path fill="none" stroke="#63b8ff" d="M167.61,-225.92C184.89,-215.95 204.59,-204.58 220.9,-195.17"/>
<polygon fill="#63b8ff" stroke="#63b8ff" points="165.73,-222.96 158.82,-230.99 169.23,-229.02 165.73,-222.96"/>
</a>
</g>
</g>
<!-- Node10&#45;&gt;Node2 -->
<g id="edge17_Node000010_Node000002" class="edge">
<title>Node10&#45;&gt;Node2</title>
<g id="a_edge17_Node000010_Node000002"><a xlink:title=" ">
<path fill="none" stroke="#63b8ff" d="M186.47,-148.92C173.52,-141.07 161.66,-130.94 154,-118 144.72,-102.32 144.6,-92.61 154,-77 163.63,-61.02 179.57,-49.4 196.16,-41.06"/>
<polygon fill="#63b8ff" stroke="#63b8ff" points="185.12,-152.18 195.56,-153.99 188.53,-146.06 185.12,-152.18"/>
</a>
</g>
</g>
<!-- Node11 -->
<g id="Node000011" class="node">
<title>Node11</title>
<g id="a_Node000011"><a xlink:href="client_8hpp.html" target="_top" xlink:title=" ">
<polygon fill="white" stroke="#666666" points="355.5,-118 162.5,-118 162.5,-77 355.5,-77 355.5,-118"/>
<text text-anchor="start" x="170.5" y="-106" font-family="Helvetica,sans-Serif" font-size="10.00">/home/runner/work/open62541pp</text>
<text text-anchor="start" x="170.5" y="-95" font-family="Helvetica,sans-Serif" font-size="10.00">/open62541pp/include/open62541pp</text>
<text text-anchor="middle" x="259" y="-84" font-family="Helvetica,sans-Serif" font-size="10.00">/client.hpp</text>
</a>
</g>
</g>
<!-- Node10&#45;&gt;Node11 -->
<g id="edge15_Node000010_Node000011" class="edge">
<title>Node10&#45;&gt;Node11</title>
<g id="a_edge15_Node000010_Node000011"><a xlink:title=" ">
<path fill="none" stroke="#63b8ff" d="M256.59,-143.69C257.05,-135.08 257.54,-125.9 257.96,-118.07"/>
<polygon fill="#63b8ff" stroke="#63b8ff" points="253.09,-143.62 256.05,-153.79 260.08,-144 253.09,-143.62"/>
</a>
</g>
</g>
<!-- Node12 -->
<g id="Node000012" class="node">
<title>Node12</title>
<g id="a_Node000012"><a xlink:href="server_8hpp.html" target="_top" xlink:title=" ">
<polygon fill="white" stroke="#666666" points="566.5,-118 373.5,-118 373.5,-77 566.5,-77 566.5,-118"/>
<text text-anchor="start" x="381.5" y="-106" font-family="Helvetica,sans-Serif" font-size="10.00">/home/runner/work/open62541pp</text>
<text text-anchor="start" x="381.5" y="-95" font-family="Helvetica,sans-Serif" font-size="10.00">/open62541pp/include/open62541pp</text>
<text text-anchor="middle" x="470" y="-84" font-family="Helvetica,sans-Serif" font-size="10.00">/server.hpp</text>
</a>
</g>
</g>
<!-- Node10&#45;&gt;Node12 -->
<g id="edge18_Node000010_Node000012" class="edge">
<title>Node10&#45;&gt;Node12</title>
<g id="a_edge18_Node000010_Node000012"><a xlink:title=" ">
<path fill="none" stroke="#63b8ff" d="M320.43,-150.67C350.31,-140.25 385.34,-128.03 413.98,-118.04"/>
<polygon fill="#63b8ff" stroke="#63b8ff" points="319.22,-147.39 310.93,-153.99 321.52,-154 319.22,-147.39"/>
</a>
</g>
</g>
<!-- Node11&#45;&gt;Node2 -->
<g id="edge16_Node000011_Node000002" class="edge">
<title>Node11&#45;&gt;Node2</title>
<g id="a_edge16_Node000011_Node000002"><a xlink:title=" ">
<path fill="none" stroke="#63b8ff" d="M259,-66.69C259,-58.08 259,-48.9 259,-41.07"/>
<polygon fill="#63b8ff" stroke="#63b8ff" points="255.5,-66.79 259,-76.79 262.5,-66.79 255.5,-66.79"/>
</a>
</g>
</g>
<!-- Node12&#45;&gt;Node2 -->
<g id="edge19_Node000012_Node000002" class="edge">
<title>Node12&#45;&gt;Node2</title>
<g id="a_edge19_Node000012_Node000002"><a xlink:title=" ">
<path fill="none" stroke="#63b8ff" d="M405.4,-73.54C376.16,-63.15 341.97,-50.99 313.98,-41.04"/>
<polygon fill="#63b8ff" stroke="#63b8ff" points="404.52,-76.94 415.11,-76.99 406.86,-70.34 404.52,-76.94"/>
</a>
</g>
</g>
<!-- Node13&#45;&gt;Node6 -->
<g id="edge23_Node000013_Node000006" class="edge">
<title>Node13&#45;&gt;Node6</title>
<g id="a_edge23_Node000013_Node000006"><a xlink:title=" ">
<path fill="none" stroke="#63b8ff" d="M378.16,-302.76C429.29,-272.75 514.45,-222.77 561.39,-195.23"/>
<polygon fill="#63b8ff" stroke="#63b8ff" points="376.18,-299.86 369.33,-307.94 379.73,-305.9 376.18,-299.86"/>
</a>
</g>
</g>
<!-- Node13&#45;&gt;Node10 -->
<g id="edge24_Node000013_Node000010" class="edge">
<title>Node13&#45;&gt;Node10</title>
<g id="a_edge24_Node000013_Node000010"><a xlink:title=" ">
<path fill="none" stroke="#63b8ff" d="M320.69,-298.76C304.6,-268.57 279.71,-221.87 265.64,-195.47"/>
<polygon fill="#63b8ff" stroke="#63b8ff" points="317.78,-300.76 325.58,-307.94 323.96,-297.47 317.78,-300.76"/>
</a>
</g>
</g>
<!-- Node14&#45;&gt;Node3 -->
<g id="edge27_Node000014_Node000003" class="edge">
<title>Node14&#45;&gt;Node3</title>
<g id="a_edge27_Node000014_Node000003"><a xlink:title=" ">
<path fill="none" stroke="#63b8ff" d="M790.51,-376.39C784.2,-367.3 777.35,-357.41 771.57,-349.07"/>
<polygon fill="#63b8ff" stroke="#63b8ff" points="787.76,-378.57 796.34,-384.79 793.52,-374.58 787.76,-378.57"/>
</a>
</g>
</g>
<!-- Node14&#45;&gt;Node4 -->
<g id="edge26_Node000014_Node000004" class="edge">
<title>Node14&#45;&gt;Node4</title>
<g id="a_edge26_Node000014_Node000004"><a xlink:title=" ">
<path fill="none" stroke="#63b8ff" d="M918.73,-399.33C1051.65,-391.88 1261.99,-375.97 1286,-349 1370.61,-253.95 1152.11,-206.49 1017.53,-186.9"/>
<polygon fill="#63b8ff" stroke="#63b8ff" points="918.3,-395.85 908.51,-399.9 918.68,-402.84 918.3,-395.85"/>
</a>
</g>
</g>
<!-- Node14&#45;&gt;Node8 -->
<g id="edge31_Node000014_Node000008" class="edge">
<title>Node14&#45;&gt;Node8</title>
<g id="a_edge31_Node000014_Node000008"><a xlink:title=" ">
<path fill="none" stroke="#63b8ff" d="M701.12,-389.35C688.61,-387.79 676.04,-386.3 664,-385 472.01,-364.21 422.42,-374.5 231,-349 227.94,-348.59 224.83,-348.16 221.7,-347.7"/>
<polygon fill="#63b8ff" stroke="#63b8ff" points="700.77,-392.83 711.13,-390.62 701.64,-385.89 700.77,-392.83"/>
</a>
</g>
</g>
<!-- Node14&#45;&gt;Node13 -->
<g id="edge35_Node000014_Node000013" class="edge">
<title>Node14&#45;&gt;Node13</title>
<g id="a_edge35_Node000014_Node000013"><a xlink:title=" ">
<path fill="none" stroke="#63b8ff" d="M701.29,-389.04C627.94,-378.39 529.03,-363.56 442,-349 438.95,-348.49 435.86,-347.97 432.74,-347.43"/>
<polygon fill="#63b8ff" stroke="#63b8ff" points="701.06,-392.55 711.46,-390.52 702.07,-385.62 701.06,-392.55"/>
</a>
</g>
</g>
<!-- Node14&#45;&gt;Node15 -->
<g id="edge28_Node000014_Node000015" class="edge">
<title>Node14&#45;&gt;Node15</title>
<g id="a_edge28_Node000014_Node000015"><a xlink:title=" ">
<path fill="none" stroke="#63b8ff" d="M860.41,-380.72C882.05,-370.51 907.03,-358.73 927.57,-349.04"/>
<polygon fill="#63b8ff" stroke="#63b8ff" points="858.91,-377.56 851.36,-384.99 861.9,-383.89 858.91,-377.56"/>
</a>
</g>
</g>
<!-- Node14&#45;&gt;Node16 -->
<g id="edge32_Node000014_Node000016" class="edge">
<title>Node14&#45;&gt;Node16</title>
<g id="a_edge32_Node000014_Node000016"><a xlink:title=" ">
<path fill="none" stroke="#63b8ff" d="M916.31,-382.95C969.05,-372.26 1032.27,-359.44 1083.59,-349.04"/>
<polygon fill="#63b8ff" stroke="#63b8ff" points="915.35,-379.57 906.25,-384.99 916.74,-386.43 915.35,-379.57"/>
</a>
</g>
</g>
<!-- Node14&#45;&gt;Node17 -->
<g id="edge36_Node000014_Node000017" class="edge">
<title>Node14&#45;&gt;Node17</title>
<g id="a_edge36_Node000014_Node000017"><a xlink:title=" ">
<path fill="none" stroke="#63b8ff" d="M731.85,-382.21C694.9,-371.68 651.17,-359.21 615.53,-349.04"/>
<polygon fill="#63b8ff" stroke="#63b8ff" points="731.01,-385.61 741.59,-384.99 732.93,-378.88 731.01,-385.61"/>
</a>
</g>
</g>
<!-- Node15&#45;&gt;Node4 -->
<g id="edge29_Node000015_Node000004" class="edge">
<title>Node15&#45;&gt;Node4</title>
<g id="a_edge29_Node000015_Node000004"><a xlink:title=" ">
<path fill="none" stroke="#63b8ff" d="M959.8,-298.37C950.26,-268.16 935.61,-221.76 927.31,-195.47"/>
<polygon fill="#63b8ff" stroke="#63b8ff" points="956.47,-299.46 962.82,-307.94 963.15,-297.35 956.47,-299.46"/>
</a>
</g>
</g>
<!-- Node15&#45;&gt;Node6 -->
<g id="edge30_Node000015_Node000006" class="edge">
<title>Node15&#45;&gt;Node6</title>
<g id="a_edge30_Node000015_Node000006"><a xlink:title=" ">
<path fill="none" stroke="#63b8ff" d="M862.37,-307.85C767.72,-293.5 728.95,-323.88 653,-272 638.8,-262.3 616.71,-220.32 604.29,-195.04"/>
<polygon fill="#63b8ff" stroke="#63b8ff" points="861.88,-311.32 872.32,-309.49 863.02,-304.41 861.88,-311.32"/>
</a>
</g>
</g>
<!-- Node16&#45;&gt;Node4 -->
<g id="edge33_Node000016_Node000004" class="edge">
<title>Node16&#45;&gt;Node4</title>
<g id="a_edge33_Node000016_Node000004"><a xlink:title=" ">
<path fill="none" stroke="#63b8ff" d="M1149.63,-301.5C1124.37,-280.69 1086.86,-251.67 1051,-231 1026.87,-217.09 998.58,-204.61 974.57,-195.02"/>
<polygon fill="#63b8ff" stroke="#63b8ff" points="1147.46,-304.24 1157.39,-307.94 1151.94,-298.86 1147.46,-304.24"/>
</a>
</g>
</g>
<!-- Node16&#45;&gt;Node6 -->
<g id="edge34_Node000016_Node000006" class="edge">
<title>Node16&#45;&gt;Node6</title>
<g id="a_edge34_Node000016_Node000006"><a xlink:title=" ">
<path fill="none" stroke="#63b8ff" d="M1112.41,-304.86C1048.77,-284.03 950.57,-253.1 864,-231 807.29,-216.52 743.11,-203.17 691.67,-193.19"/>
<polygon fill="#63b8ff" stroke="#63b8ff" points="1111.33,-308.19 1121.93,-307.99 1113.52,-301.54 1111.33,-308.19"/>
</a>
</g>
</g>
<!-- Node17&#45;&gt;Node4 -->
<g id="edge37_Node000017_Node000004" class="edge">
<title>Node17&#45;&gt;Node4</title>
<g id="a_edge37_Node000017_Node000004"><a xlink:title=" ">
<path fill="none" stroke="#63b8ff" d="M653.8,-308C749.3,-293.59 788.25,-324.17 864,-272 878.1,-262.29 899.76,-220.32 911.91,-195.04"/>
<polygon fill="#63b8ff" stroke="#63b8ff" points="653.05,-304.57 643.75,-309.65 654.19,-311.48 653.05,-304.57"/>
</a>
</g>
</g>
<!-- Node17&#45;&gt;Node6 -->
<g id="edge38_Node000017_Node000006" class="edge">
<title>Node17&#45;&gt;Node6</title>
<g id="a_edge38_Node000017_Node000006"><a xlink:title=" ">
<path fill="none" stroke="#63b8ff" d="M556.2,-298.37C565.74,-268.16 580.39,-221.76 588.69,-195.47"/>
<polygon fill="#63b8ff" stroke="#63b8ff" points="552.85,-297.35 553.18,-307.94 559.53,-299.46 552.85,-297.35"/>
</a>
</g>
</g>
<!-- Node18&#45;&gt;Node3 -->
<g id="edge40_Node000018_Node000003" class="edge">
<title>Node18&#45;&gt;Node3</title>
<g id="a_edge40_Node000018_Node000003"><a xlink:title=" ">
<path fill="none" stroke="#63b8ff" d="M619.59,-381.4C647.23,-371.04 679.47,-358.95 705.89,-349.04"/>
<polygon fill="#63b8ff" stroke="#63b8ff" points="618.16,-378.2 610.03,-384.99 620.62,-384.76 618.16,-378.2"/>
</a>
</g>
</g>
<!-- Node18&#45;&gt;Node8 -->
<g id="edge42_Node000018_Node000008" class="edge">
<title>Node18&#45;&gt;Node8</title>
<g id="a_edge42_Node000018_Node000008"><a xlink:title=" ">
<path fill="none" stroke="#63b8ff" d="M451.26,-386.77C387.33,-376.05 304.47,-361.99 231,-349 227.96,-348.46 224.87,-347.91 221.75,-347.36"/>
<polygon fill="#63b8ff" stroke="#63b8ff" points="450.92,-390.26 461.36,-388.46 452.07,-383.35 450.92,-390.26"/>
</a>
</g>
</g>
<!-- Node18&#45;&gt;Node13 -->
<g id="edge44_Node000018_Node000013" class="edge">
<title>Node18&#45;&gt;Node13</title>
<g id="a_edge44_Node000018_Node000013"><a xlink:title=" ">
<path fill="none" stroke="#63b8ff" d="M490.44,-381.67C459.59,-371.25 423.42,-359.03 393.84,-349.04"/>
<polygon fill="#63b8ff" stroke="#63b8ff" points="489.66,-385.11 500.25,-384.99 491.9,-378.47 489.66,-385.11"/>
</a>
</g>
</g>
<!-- Node18&#45;&gt;Node15 -->
<g id="edge41_Node000018_Node000015" class="edge">
<title>Node18&#45;&gt;Node15</title>
<g id="a_edge41_Node000018_Node000015"><a xlink:title=" ">
<path fill="none" stroke="#63b8ff" d="M664.87,-385.23C723.65,-374.6 797.86,-361.14 864,-349 866.74,-348.5 869.51,-347.99 872.31,-347.47"/>
<polygon fill="#63b8ff" stroke="#63b8ff" points="664.05,-381.82 654.83,-387.04 665.3,-388.71 664.05,-381.82"/>
</a>
</g>
</g>
<!-- Node18&#45;&gt;Node16 -->
<g id="edge43_Node000018_Node000016" class="edge">
<title>Node18&#45;&gt;Node16</title>
<g id="a_edge43_Node000018_Node000016"><a xlink:title=" ">
<path fill="none" stroke="#63b8ff" d="M664.91,-389.67C677.73,-388.02 690.66,-386.43 703,-385 868.01,-365.93 910.52,-372.19 1075,-349 1077.75,-348.61 1080.55,-348.2 1083.36,-347.77"/>
<polygon fill="#63b8ff" stroke="#63b8ff" points="664.12,-386.24 654.65,-390.99 665.02,-393.18 664.12,-386.24"/>
</a>
</g>
</g>
<!-- Node18&#45;&gt;Node17 -->
<g id="edge45_Node000018_Node000017" class="edge">
<title>Node18&#45;&gt;Node17</title>
<g id="a_edge45_Node000018_Node000017"><a xlink:title=" ">
<path fill="none" stroke="#63b8ff" d="M553.63,-374.69C552.36,-366.08 551.02,-356.9 549.87,-349.07"/>
<polygon fill="#63b8ff" stroke="#63b8ff" points="550.2,-375.41 555.11,-384.79 557.12,-374.39 550.2,-375.41"/>
</a>
</g>
</g>
</g>
</svg>
