<?xml version="1.0" encoding="UTF-8" standalone="no"?>
<!DOCTYPE svg PUBLIC "-//W3C//DTD SVG 1.1//EN"
 "http://www.w3.org/Graphics/SVG/1.1/DTD/svg11.dtd">
<!-- Generated by graphviz version 2.43.0 (0)
 -->
<!-- Title: /home/runner/work/open62541pp/open62541pp/include/open62541pp/async.h Pages: 1 -->
<svg width="1681pt" height="544pt"
 viewBox="0.00 0.00 1680.50 544.00" xmlns="http://www.w3.org/2000/svg" xmlns:xlink="http://www.w3.org/1999/xlink">
<g id="graph0" class="graph" transform="scale(1 1) rotate(0) translate(4 540)">
<title>/home/runner/work/open62541pp/open62541pp/include/open62541pp/async.h</title>
<!-- Node1 -->
<g id="Node000001" class="node">
<title>Node1</title>
<g id="a_Node000001"><a xlink:title=" ">
<polygon fill="#999999" stroke="#666666" points="289,-536 96,-536 96,-495 289,-495 289,-536"/>
<text text-anchor="start" x="104" y="-524" font-family="Helvetica,sans-Serif" font-size="10.00">/home/runner/work/open62541pp</text>
<text text-anchor="start" x="104" y="-513" font-family="Helvetica,sans-Serif" font-size="10.00">/open62541pp/include/open62541pp</text>
<text text-anchor="middle" x="192.5" y="-502" font-family="Helvetica,sans-Serif" font-size="10.00">/async.h</text>
</a>
</g>
</g>
<!-- Node2 -->
<g id="Node000002" class="node">
<title>Node2</title>
<g id="a_Node000002"><a xlink:title=" ">
<polygon fill="#e0e0e0" stroke="#999999" points="65,-459 0,-459 0,-440 65,-440 65,-459"/>
<text text-anchor="middle" x="32.5" y="-447" font-family="Helvetica,sans-Serif" font-size="10.00">functional</text>
</a>
</g>
</g>
<!-- Node1&#45;&gt;Node2 -->
<g id="edge1_Node000001_Node000002" class="edge">
<title>Node1&#45;&gt;Node2</title>
<g id="a_edge1_Node000001_Node000002"><a xlink:title=" ">
<path fill="none" stroke="#63b8ff" d="M143.63,-494.95C117.53,-484.51 86.19,-471.98 63.46,-462.88"/>
<polygon fill="#63b8ff" stroke="#63b8ff" points="64.56,-459.56 53.98,-459.09 61.96,-466.06 64.56,-459.56"/>
</a>
</g>
</g>
<!-- Node3 -->
<g id="Node000003" class="node">
<title>Node3</title>
<g id="a_Node000003"><a xlink:title=" ">
<polygon fill="#e0e0e0" stroke="#999999" points="129.5,-459 83.5,-459 83.5,-440 129.5,-440 129.5,-459"/>
<text text-anchor="middle" x="106.5" y="-447" font-family="Helvetica,sans-Serif" font-size="10.00">future</text>
</a>
</g>
</g>
<!-- Node1&#45;&gt;Node3 -->
<g id="edge2_Node000001_Node000003" class="edge">
<title>Node1&#45;&gt;Node3</title>
<g id="a_edge2_Node000001_Node000003"><a xlink:title=" ">
<path fill="none" stroke="#63b8ff" d="M166.23,-494.95C153.48,-485.46 138.4,-474.24 126.58,-465.44"/>
<polygon fill="#63b8ff" stroke="#63b8ff" points="128.38,-462.42 118.27,-459.26 124.2,-468.04 128.38,-462.42"/>
</a>
</g>
</g>
<!-- Node4 -->
<g id="Node000004" class="node">
<title>Node4</title>
<g id="a_Node000004"><a xlink:title=" ">
<polygon fill="#e0e0e0" stroke="#999999" points="189,-459 148,-459 148,-440 189,-440 189,-459"/>
<text text-anchor="middle" x="168.5" y="-447" font-family="Helvetica,sans-Serif" font-size="10.00">tuple</text>
</a>
</g>
</g>
<!-- Node1&#45;&gt;Node4 -->
<g id="edge3_Node000001_Node000004" class="edge">
<title>Node1&#45;&gt;Node4</title>
<g id="a_edge3_Node000001_Node000004"><a xlink:title=" ">
<path fill="none" stroke="#63b8ff" d="M185.17,-494.95C182.03,-486.58 178.38,-476.85 175.3,-468.64"/>
<polygon fill="#63b8ff" stroke="#63b8ff" points="178.57,-467.39 171.79,-459.26 172.02,-469.85 178.57,-467.39"/>
</a>
</g>
</g>
<!-- Node5 -->
<g id="Node000005" class="node">
<title>Node5</title>
<g id="a_Node000005"><a xlink:title=" ">
<polygon fill="#e0e0e0" stroke="#999999" points="410,-200.5 341,-200.5 341,-181.5 410,-181.5 410,-200.5"/>
<text text-anchor="middle" x="375.5" y="-188.5" font-family="Helvetica,sans-Serif" font-size="10.00">type_traits</text>
</a>
</g>
</g>
<!-- Node1&#45;&gt;Node5 -->
<g id="edge4_Node000001_Node000005" class="edge">
<title>Node1&#45;&gt;Node5</title>
<g id="a_edge4_Node000001_Node000005"><a xlink:title=" ">
<path fill="none" stroke="#63b8ff" d="M198.94,-494.91C206.35,-470.58 217.5,-427.7 217.5,-390 217.5,-390 217.5,-390 217.5,-322 217.5,-280.54 234.56,-269.61 265.5,-242 285.27,-224.36 312.31,-211.96 334.63,-203.91"/>
<polygon fill="#63b8ff" stroke="#63b8ff" points="335.87,-207.19 344.19,-200.63 333.6,-200.57 335.87,-207.19"/>
</a>
</g>
</g>
<!-- Node6 -->
<g id="Node000006" class="node">
<title>Node6</title>
<g id="a_Node000006"><a xlink:title=" ">
<polygon fill="#e0e0e0" stroke="#999999" points="295,-332.5 250,-332.5 250,-313.5 295,-313.5 295,-332.5"/>
<text text-anchor="middle" x="272.5" y="-320.5" font-family="Helvetica,sans-Serif" font-size="10.00">utility</text>
</a>
</g>
</g>
<!-- Node1&#45;&gt;Node6 -->
<g id="edge5_Node000001_Node000006" class="edge">
<title>Node1&#45;&gt;Node6</title>
<g id="a_edge5_Node000001_Node000006"><a xlink:title=" ">
<path fill="none" stroke="#63b8ff" d="M208.58,-494.91C216.35,-484.69 225.31,-471.7 231.5,-459 250.76,-419.51 263.16,-369.08 268.86,-342.43"/>
<polygon fill="#63b8ff" stroke="#63b8ff" points="272.3,-343.07 270.89,-332.57 265.44,-341.65 272.3,-343.07"/>
</a>
</g>
</g>
<!-- Node7 -->
<g id="Node000007" class="node">
<title>Node7</title>
<g id="a_Node000007"><a xlink:href="Builtin_8h.html" target="_top" xlink:title=" ">
<polygon fill="white" stroke="#666666" points="795.5,-459 639.5,-459 639.5,-440 795.5,-440 795.5,-459"/>
<text text-anchor="middle" x="717.5" y="-447" font-family="Helvetica,sans-Serif" font-size="10.00">open62541pp/types/Builtin.h</text>
</a>
</g>
</g>
<!-- Node1&#45;&gt;Node7 -->
<g id="edge6_Node000001_Node000007" class="edge">
<title>Node1&#45;&gt;Node7</title>
<g id="a_edge6_Node000001_Node000007"><a xlink:title=" ">
<path fill="none" stroke="#63b8ff" d="M289.1,-502.72C389.25,-490.52 544,-471.65 637.53,-460.25"/>
<polygon fill="#63b8ff" stroke="#63b8ff" points="638,-463.72 647.5,-459.03 637.15,-456.77 638,-463.72"/>
</a>
</g>
</g>
<!-- Node7&#45;&gt;Node6 -->
<g id="edge13_Node000007_Node000006" class="edge">
<title>Node7&#45;&gt;Node6</title>
<g id="a_edge13_Node000007_Node000006"><a xlink:title=" ">
<path fill="none" stroke="#63b8ff" d="M639.18,-442.8C554.39,-435.81 425.14,-422.57 379.5,-404 342.84,-389.08 307.52,-358.51 288.03,-339.78"/>
<polygon fill="#63b8ff" stroke="#63b8ff" points="290.28,-337.08 280.69,-332.56 285.37,-342.07 290.28,-337.08"/>
</a>
</g>
</g>
<!-- Node8 -->
<g id="Node000008" class="node">
<title>Node8</title>
<g id="a_Node000008"><a xlink:title=" ">
<polygon fill="#e0e0e0" stroke="#999999" points="347.5,-266.5 283.5,-266.5 283.5,-247.5 347.5,-247.5 347.5,-266.5"/>
<text text-anchor="middle" x="315.5" y="-254.5" font-family="Helvetica,sans-Serif" font-size="10.00">algorithm</text>
</a>
</g>
</g>
<!-- Node7&#45;&gt;Node8 -->
<g id="edge7_Node000007_Node000008" class="edge">
<title>Node7&#45;&gt;Node8</title>
<g id="a_edge7_Node000007_Node000008"><a xlink:title=" ">
<path fill="none" stroke="#63b8ff" d="M697.66,-439.85C679.41,-431.58 651.87,-418.28 629.5,-404 611.36,-392.42 610.33,-384.42 591.5,-374 549.8,-350.93 531.37,-362.51 490.5,-338 473.5,-327.81 474.52,-318.16 457.5,-308 426.18,-289.3 386.81,-276.13 357.48,-268.02"/>
<polygon fill="#63b8ff" stroke="#63b8ff" points="358.11,-264.57 347.55,-265.36 356.3,-271.33 358.11,-264.57"/>
</a>
</g>
</g>
<!-- Node9 -->
<g id="Node000009" class="node">
<title>Node9</title>
<g id="a_Node000009"><a xlink:title=" ">
<polygon fill="#e0e0e0" stroke="#999999" points="450.5,-398.5 408.5,-398.5 408.5,-379.5 450.5,-379.5 450.5,-398.5"/>
<text text-anchor="middle" x="429.5" y="-386.5" font-family="Helvetica,sans-Serif" font-size="10.00">array</text>
</a>
</g>
</g>
<!-- Node7&#45;&gt;Node9 -->
<g id="edge8_Node000007_Node000009" class="edge">
<title>Node7&#45;&gt;Node9</title>
<g id="a_edge8_Node000007_Node000009"><a xlink:title=" ">
<path fill="none" stroke="#63b8ff" d="M639.46,-440.52C587.61,-433.89 518.49,-422.49 459.5,-404 458.06,-403.55 456.6,-403.04 455.14,-402.5"/>
<polygon fill="#63b8ff" stroke="#63b8ff" points="456.26,-399.17 445.69,-398.51 453.54,-405.62 456.26,-399.17"/>
</a>
</g>
</g>
<!-- Node10 -->
<g id="Node000010" class="node">
<title>Node10</title>
<g id="a_Node000010"><a xlink:title=" ">
<polygon fill="#e0e0e0" stroke="#999999" points="987.5,-266.5 937.5,-266.5 937.5,-247.5 987.5,-247.5 987.5,-266.5"/>
<text text-anchor="middle" x="962.5" y="-254.5" font-family="Helvetica,sans-Serif" font-size="10.00">cstdint</text>
</a>
</g>
</g>
<!-- Node7&#45;&gt;Node10 -->
<g id="edge9_Node000007_Node000010" class="edge">
<title>Node7&#45;&gt;Node10</title>
<g id="a_edge9_Node000007_Node000010"><a xlink:title=" ">
<path fill="none" stroke="#63b8ff" d="M795.71,-446.34C870.79,-439.47 979.63,-415.72 1027.5,-338 1034.49,-326.65 1033.39,-319.96 1027.5,-308 1019.71,-292.18 1004.24,-279.96 990.35,-271.57"/>
<polygon fill="#63b8ff" stroke="#63b8ff" points="991.97,-268.46 981.54,-266.6 988.53,-274.56 991.97,-268.46"/>
</a>
</g>
</g>
<!-- Node11 -->
<g id="Node000011" class="node">
<title>Node11</title>
<g id="a_Node000011"><a xlink:title=" ">
<polygon fill="#e0e0e0" stroke="#999999" points="516.5,-398.5 468.5,-398.5 468.5,-379.5 516.5,-379.5 516.5,-398.5"/>
<text text-anchor="middle" x="492.5" y="-386.5" font-family="Helvetica,sans-Serif" font-size="10.00">iosfwd</text>
</a>
</g>
</g>
<!-- Node7&#45;&gt;Node11 -->
<g id="edge10_Node000007_Node000011" class="edge">
<title>Node7&#45;&gt;Node11</title>
<g id="a_edge10_Node000007_Node000011"><a xlink:title=" ">
<path fill="none" stroke="#63b8ff" d="M671.4,-439.94C632.36,-432.17 575.14,-419.57 526.5,-404 524.83,-403.46 523.12,-402.88 521.41,-402.27"/>
<polygon fill="#63b8ff" stroke="#63b8ff" points="522.31,-398.87 511.72,-398.55 519.8,-405.4 522.31,-398.87"/>
</a>
</g>
</g>
<!-- Node12 -->
<g id="Node000012" class="node">
<title>Node12</title>
<g id="a_Node000012"><a xlink:title=" ">
<polygon fill="#e0e0e0" stroke="#999999" points="1161.5,-332.5 1117.5,-332.5 1117.5,-313.5 1161.5,-313.5 1161.5,-332.5"/>
<text text-anchor="middle" x="1139.5" y="-320.5" font-family="Helvetica,sans-Serif" font-size="10.00">string</text>
</a>
</g>
</g>
<!-- Node7&#45;&gt;Node12 -->
<g id="edge11_Node000007_Node000012" class="edge">
<title>Node7&#45;&gt;Node12</title>
<g id="a_edge11_Node000007_Node000012"><a xlink:title=" ">
<path fill="none" stroke="#63b8ff" d="M795.51,-448.4C893.9,-446.8 1055.99,-438.74 1103.5,-404 1123.34,-389.49 1132.48,-361.47 1136.52,-342.75"/>
<polygon fill="#63b8ff" stroke="#63b8ff" points="1139.99,-343.21 1138.39,-332.74 1133.11,-341.92 1139.99,-343.21"/>
</a>
</g>
</g>
<!-- Node13 -->
<g id="Node000013" class="node">
<title>Node13</title>
<g id="a_Node000013"><a xlink:title=" ">
<polygon fill="#e0e0e0" stroke="#999999" points="1271,-266.5 1198,-266.5 1198,-247.5 1271,-247.5 1271,-266.5"/>
<text text-anchor="middle" x="1234.5" y="-254.5" font-family="Helvetica,sans-Serif" font-size="10.00">string_view</text>
</a>
</g>
</g>
<!-- Node7&#45;&gt;Node13 -->
<g id="edge12_Node000007_Node000013" class="edge">
<title>Node7&#45;&gt;Node13</title>
<g id="a_edge12_Node000007_Node000013"><a xlink:title=" ">
<path fill="none" stroke="#63b8ff" d="M795.75,-448.05C942.33,-446.38 1246.43,-438.72 1278.5,-404 1312.67,-367.01 1271.77,-304.38 1248.49,-274.64"/>
<polygon fill="#63b8ff" stroke="#63b8ff" points="1251.21,-272.43 1242.2,-266.85 1245.76,-276.83 1251.21,-272.43"/>
</a>
</g>
</g>
<!-- Node14 -->
<g id="Node000014" class="node">
<title>Node14</title>
<g id="a_Node000014"><a xlink:title=" ">
<polygon fill="#e0e0e0" stroke="#999999" points="582,-398.5 535,-398.5 535,-379.5 582,-379.5 582,-398.5"/>
<text text-anchor="middle" x="558.5" y="-386.5" font-family="Helvetica,sans-Serif" font-size="10.00">vector</text>
</a>
</g>
</g>
<!-- Node7&#45;&gt;Node14 -->
<g id="edge14_Node000007_Node000014" class="edge">
<title>Node7&#45;&gt;Node14</title>
<g id="a_edge14_Node000007_Node000014"><a xlink:title=" ">
<path fill="none" stroke="#63b8ff" d="M694.3,-439.97C669.94,-431.02 630.53,-416.53 596.5,-404 594.87,-403.4 593.19,-402.78 591.51,-402.16"/>
<polygon fill="#63b8ff" stroke="#63b8ff" points="592.4,-398.76 581.81,-398.59 589.98,-405.33 592.4,-398.76"/>
</a>
</g>
</g>
<!-- Node15 -->
<g id="Node000015" class="node">
<title>Node15</title>
<g id="a_Node000015"><a xlink:href="Common_8h.html" target="_top" xlink:title=" ">
<polygon fill="white" stroke="#666666" points="1018,-332.5 879,-332.5 879,-313.5 1018,-313.5 1018,-332.5"/>
<text text-anchor="middle" x="948.5" y="-320.5" font-family="Helvetica,sans-Serif" font-size="10.00">open62541pp/Common.h</text>
</a>
</g>
</g>
<!-- Node7&#45;&gt;Node15 -->
<g id="edge15_Node000007_Node000015" class="edge">
<title>Node7&#45;&gt;Node15</title>
<g id="a_edge15_Node000007_Node000015"><a xlink:title=" ">
<path fill="none" stroke="#63b8ff" d="M765.14,-439.99C795.09,-433.25 833.74,-421.92 864.5,-404 893.21,-387.27 919.81,-358.88 935.09,-340.8"/>
<polygon fill="#63b8ff" stroke="#63b8ff" points="937.98,-342.79 941.64,-332.85 932.58,-338.34 937.98,-342.79"/>
</a>
</g>
</g>
<!-- Node17 -->
<g id="Node000017" class="node">
<title>Node17</title>
<g id="a_Node000017"><a xlink:href="ErrorHandling_8h.html" target="_top" xlink:title=" ">
<polygon fill="white" stroke="#666666" points="843,-266.5 682,-266.5 682,-247.5 843,-247.5 843,-266.5"/>
<text text-anchor="middle" x="762.5" y="-254.5" font-family="Helvetica,sans-Serif" font-size="10.00">open62541pp/ErrorHandling.h</text>
</a>
</g>
</g>
<!-- Node7&#45;&gt;Node17 -->
<g id="edge20_Node000007_Node000017" class="edge">
<title>Node7&#45;&gt;Node17</title>
<g id="a_edge20_Node000007_Node000017"><a xlink:title=" ">
<path fill="none" stroke="#63b8ff" d="M753.79,-439.94C772.71,-433.44 794.2,-422.38 805.5,-404 831.48,-361.75 796.25,-302.98 775.6,-274.62"/>
<polygon fill="#63b8ff" stroke="#63b8ff" points="778.32,-272.41 769.5,-266.54 772.73,-276.63 778.32,-272.41"/>
</a>
</g>
</g>
<!-- Node20 -->
<g id="Node000020" class="node">
<title>Node20</title>
<g id="a_Node000020"><a xlink:href="common_8h.html" target="_top" xlink:title=" ">
<polygon fill="white" stroke="#666666" points="973.5,-206 845.5,-206 845.5,-176 973.5,-176 973.5,-206"/>
<text text-anchor="start" x="853.5" y="-194" font-family="Helvetica,sans-Serif" font-size="10.00">open62541pp/detail</text>
<text text-anchor="middle" x="909.5" y="-183" font-family="Helvetica,sans-Serif" font-size="10.00">/open62541/common.h</text>
</a>
</g>
</g>
<!-- Node7&#45;&gt;Node20 -->
<g id="edge58_Node000007_Node000020" class="edge">
<title>Node7&#45;&gt;Node20</title>
<g id="a_edge58_Node000007_Node000020"><a xlink:title=" ">
<path fill="none" stroke="#63b8ff" d="M795.62,-446.32C851.49,-442.27 927.31,-431.56 988.5,-404 991.15,-402.81 1149.25,-274.62 1150.5,-272 1156.22,-259.96 1158.92,-252.34 1150.5,-242 1129.74,-216.49 1046.81,-203.58 983.98,-197.34"/>
<polygon fill="#63b8ff" stroke="#63b8ff" points="983.98,-193.83 973.69,-196.36 983.31,-200.79 983.98,-193.83"/>
</a>
</g>
</g>
<!-- Node32 -->
<g id="Node000032" class="node">
<title>Node32</title>
<g id="a_Node000032"><a xlink:href="TypeWrapper_8h.html" target="_top" xlink:title=" ">
<polygon fill="white" stroke="#666666" points="796.5,-398.5 638.5,-398.5 638.5,-379.5 796.5,-379.5 796.5,-398.5"/>
<text text-anchor="middle" x="717.5" y="-386.5" font-family="Helvetica,sans-Serif" font-size="10.00">open62541pp/TypeWrapper.h</text>
</a>
</g>
</g>
<!-- Node7&#45;&gt;Node32 -->
<g id="edge39_Node000007_Node000032" class="edge">
<title>Node7&#45;&gt;Node32</title>
<g id="a_edge39_Node000007_Node000032"><a xlink:title=" ">
<path fill="none" stroke="#63b8ff" d="M717.5,-439.87C717.5,-431.75 717.5,-419.31 717.5,-408.89"/>
<polygon fill="#63b8ff" stroke="#63b8ff" points="721,-408.67 717.5,-398.67 714,-408.67 721,-408.67"/>
</a>
</g>
</g>
<!-- Node34 -->
<g id="Node000034" class="node">
<title>Node34</title>
<g id="a_Node000034"><a xlink:href="Wrapper_8h.html" target="_top" xlink:title=" ">
<polygon fill="white" stroke="#666666" points="448,-332.5 313,-332.5 313,-313.5 448,-313.5 448,-332.5"/>
<text text-anchor="middle" x="380.5" y="-320.5" font-family="Helvetica,sans-Serif" font-size="10.00">open62541pp/Wrapper.h</text>
</a>
</g>
</g>
<!-- Node7&#45;&gt;Node34 -->
<g id="edge57_Node000007_Node000034" class="edge">
<title>Node7&#45;&gt;Node34</title>
<g id="a_edge57_Node000007_Node000034"><a xlink:title=" ">
<path fill="none" stroke="#63b8ff" d="M639.17,-447.39C556.53,-444.55 433.62,-435.05 399.5,-404 382.54,-388.56 379.38,-361 379.39,-342.6"/>
<polygon fill="#63b8ff" stroke="#63b8ff" points="382.89,-342.63 379.7,-332.52 375.89,-342.41 382.89,-342.63"/>
</a>
</g>
</g>
<!-- Node38 -->
<g id="Node000038" class="node">
<title>Node38</title>
<g id="a_Node000038"><a xlink:href="string__utils_8h.html" target="_top" xlink:title=" ">
<polygon fill="white" stroke="#666666" points="1269,-404 1156,-404 1156,-374 1269,-374 1269,-404"/>
<text text-anchor="start" x="1164" y="-392" font-family="Helvetica,sans-Serif" font-size="10.00">open62541pp/detail</text>
<text text-anchor="middle" x="1212.5" y="-381" font-family="Helvetica,sans-Serif" font-size="10.00">/string_utils.h</text>
</a>
</g>
</g>
<!-- Node7&#45;&gt;Node38 -->
<g id="edge59_Node000007_Node000038" class="edge">
<title>Node7&#45;&gt;Node38</title>
<g id="a_edge59_Node000007_Node000038"><a xlink:title=" ">
<path fill="none" stroke="#63b8ff" d="M795.53,-442.43C880.79,-435.31 1021.29,-422.12 1141.5,-404 1142.98,-403.78 1144.47,-403.55 1145.97,-403.31"/>
<polygon fill="#63b8ff" stroke="#63b8ff" points="1146.72,-406.73 1156,-401.62 1145.56,-399.83 1146.72,-406.73"/>
</a>
</g>
</g>
<!-- Node15&#45;&gt;Node10 -->
<g id="edge16_Node000015_Node000010" class="edge">
<title>Node15&#45;&gt;Node10</title>
<g id="a_edge16_Node000015_Node000010"><a xlink:title=" ">
<path fill="none" stroke="#63b8ff" d="M950.39,-313.37C952.42,-304.07 955.72,-288.98 958.37,-276.9"/>
<polygon fill="#63b8ff" stroke="#63b8ff" points="961.83,-277.42 960.55,-266.91 955,-275.93 961.83,-277.42"/>
</a>
</g>
</g>
<!-- Node15&#45;&gt;Node13 -->
<g id="edge17_Node000015_Node000013" class="edge">
<title>Node15&#45;&gt;Node13</title>
<g id="a_edge17_Node000015_Node000013"><a xlink:title=" ">
<path fill="none" stroke="#63b8ff" d="M986.77,-313.44C1038.79,-301.8 1131.73,-281 1187.79,-268.45"/>
<polygon fill="#63b8ff" stroke="#63b8ff" points="1188.82,-271.81 1197.81,-266.21 1187.29,-264.98 1188.82,-271.81"/>
</a>
</g>
</g>
<!-- Node16 -->
<g id="Node000016" class="node">
<title>Node16</title>
<g id="a_Node000016"><a xlink:href="Bitmask_8h.html" target="_top" xlink:title=" ">
<polygon fill="white" stroke="#666666" points="1141,-266.5 1006,-266.5 1006,-247.5 1141,-247.5 1141,-266.5"/>
<text text-anchor="middle" x="1073.5" y="-254.5" font-family="Helvetica,sans-Serif" font-size="10.00">open62541pp/Bitmask.h</text>
</a>
</g>
</g>
<!-- Node15&#45;&gt;Node16 -->
<g id="edge18_Node000015_Node000016" class="edge">
<title>Node15&#45;&gt;Node16</title>
<g id="a_edge18_Node000015_Node000016"><a xlink:title=" ">
<path fill="none" stroke="#63b8ff" d="M965.36,-313.37C986.42,-302.59 1022.68,-284.02 1047.36,-271.38"/>
<polygon fill="#63b8ff" stroke="#63b8ff" points="1049.2,-274.37 1056.51,-266.7 1046.01,-268.14 1049.2,-274.37"/>
</a>
</g>
</g>
<!-- Node16&#45;&gt;Node5 -->
<g id="edge19_Node000016_Node000005" class="edge">
<title>Node16&#45;&gt;Node5</title>
<g id="a_edge19_Node000016_Node000005"><a xlink:title=" ">
<path fill="none" stroke="#63b8ff" d="M1030.85,-247.47C1019.71,-245.45 1007.68,-243.46 996.5,-242 781.83,-213.91 523.2,-199.18 420.6,-194.09"/>
<polygon fill="#63b8ff" stroke="#63b8ff" points="420.46,-190.58 410.3,-193.59 420.12,-197.57 420.46,-190.58"/>
</a>
</g>
</g>
<!-- Node18 -->
<g id="Node000018" class="node">
<title>Node18</title>
<g id="a_Node000018"><a xlink:title=" ">
<polygon fill="#e0e0e0" stroke="#999999" points="728,-200.5 691,-200.5 691,-181.5 728,-181.5 728,-200.5"/>
<text text-anchor="middle" x="709.5" y="-188.5" font-family="Helvetica,sans-Serif" font-size="10.00">new</text>
</a>
</g>
</g>
<!-- Node17&#45;&gt;Node18 -->
<g id="edge21_Node000017_Node000018" class="edge">
<title>Node17&#45;&gt;Node18</title>
<g id="a_edge21_Node000017_Node000018"><a xlink:title=" ">
<path fill="none" stroke="#63b8ff" d="M755.35,-247.37C747.18,-237.5 733.61,-221.11 723.34,-208.72"/>
<polygon fill="#63b8ff" stroke="#63b8ff" points="725.95,-206.37 716.87,-200.91 720.56,-210.84 725.95,-206.37"/>
</a>
</g>
</g>
<!-- Node19 -->
<g id="Node000019" class="node">
<title>Node19</title>
<g id="a_Node000019"><a xlink:title=" ">
<polygon fill="#e0e0e0" stroke="#999999" points="811,-200.5 746,-200.5 746,-181.5 811,-181.5 811,-200.5"/>
<text text-anchor="middle" x="778.5" y="-188.5" font-family="Helvetica,sans-Serif" font-size="10.00">stdexcept</text>
</a>
</g>
</g>
<!-- Node17&#45;&gt;Node19 -->
<g id="edge22_Node000017_Node000019" class="edge">
<title>Node17&#45;&gt;Node19</title>
<g id="a_edge22_Node000017_Node000019"><a xlink:title=" ">
<path fill="none" stroke="#63b8ff" d="M764.66,-247.37C766.98,-238.07 770.76,-222.98 773.78,-210.9"/>
<polygon fill="#63b8ff" stroke="#63b8ff" points="777.24,-211.46 776.27,-200.91 770.45,-209.76 777.24,-211.46"/>
</a>
</g>
</g>
<!-- Node17&#45;&gt;Node20 -->
<g id="edge23_Node000017_Node000020" class="edge">
<title>Node17&#45;&gt;Node20</title>
<g id="a_edge23_Node000017_Node000020"><a xlink:title=" ">
<path fill="none" stroke="#63b8ff" d="M782.33,-247.37C804.15,-237.87 839.86,-222.32 867.9,-210.11"/>
<polygon fill="#63b8ff" stroke="#63b8ff" points="869.31,-213.32 877.08,-206.12 866.51,-206.9 869.31,-213.32"/>
</a>
</g>
</g>
<!-- Node21 -->
<g id="Node000021" class="node">
<title>Node21</title>
<g id="a_Node000021"><a xlink:href="push__options_8h.html" target="_top" xlink:title=" ">
<polygon fill="white" stroke="#666666" points="634.5,-30 484.5,-30 484.5,0 634.5,0 634.5,-30"/>
<text text-anchor="start" x="492.5" y="-18" font-family="Helvetica,sans-Serif" font-size="10.00">open62541pp/detail</text>
<text text-anchor="middle" x="559.5" y="-7" font-family="Helvetica,sans-Serif" font-size="10.00">/open62541/push_options.h</text>
</a>
</g>
</g>
<!-- Node20&#45;&gt;Node21 -->
<g id="edge24_Node000020_Node000021" class="edge">
<title>Node20&#45;&gt;Node21</title>
<g id="a_edge24_Node000020_Node000021"><a xlink:title=" ">
<path fill="none" stroke="#63b8ff" d="M845.35,-179.8C836.99,-178.51 828.54,-177.21 820.5,-176 764.78,-167.62 608.09,-181.06 569.5,-140 544.56,-113.46 548.14,-68.09 553.48,-40.2"/>
<polygon fill="#63b8ff" stroke="#63b8ff" points="556.97,-40.62 555.64,-30.11 550.13,-39.16 556.97,-40.62"/>
</a>
</g>
</g>
<!-- Node22 -->
<g id="Node000022" class="node">
<title>Node22</title>
<g id="a_Node000022"><a target="_blank" xlink:href="open62541/nodeids_8h.html" xlink:title=" ">
<polygon fill="white" stroke="#666666" points="1015,-140 894,-140 894,-121 1015,-121 1015,-140"/>
<text text-anchor="middle" x="954.5" y="-128" font-family="Helvetica,sans-Serif" font-size="10.00">open62541/nodeids.h</text>
</a>
</g>
</g>
<!-- Node20&#45;&gt;Node22 -->
<g id="edge25_Node000020_Node000022" class="edge">
<title>Node20&#45;&gt;Node22</title>
<g id="a_edge25_Node000020_Node000022"><a xlink:title=" ">
<path fill="none" stroke="#63b8ff" d="M920.39,-175.84C926.79,-167.52 934.92,-156.96 941.63,-148.23"/>
<polygon fill="#63b8ff" stroke="#63b8ff" points="944.43,-150.33 947.76,-140.27 938.89,-146.06 944.43,-150.33"/>
</a>
</g>
</g>
<!-- Node23 -->
<g id="Node000023" class="node">
<title>Node23</title>
<g id="a_Node000023"><a target="_blank" xlink:href="open62541/statuscodes_8h.html" xlink:title=" ">
<polygon fill="white" stroke="#666666" points="1174,-140 1033,-140 1033,-121 1174,-121 1174,-140"/>
<text text-anchor="middle" x="1103.5" y="-128" font-family="Helvetica,sans-Serif" font-size="10.00">open62541/statuscodes.h</text>
</a>
</g>
</g>
<!-- Node20&#45;&gt;Node23 -->
<g id="edge26_Node000020_Node000023" class="edge">
<title>Node20&#45;&gt;Node23</title>
<g id="a_edge26_Node000020_Node000023"><a xlink:title=" ">
<path fill="none" stroke="#63b8ff" d="M955.97,-175.99C989.45,-165.89 1034.07,-152.44 1065.44,-142.98"/>
<polygon fill="#63b8ff" stroke="#63b8ff" points="1066.57,-146.29 1075.13,-140.05 1064.55,-139.59 1066.57,-146.29"/>
</a>
</g>
</g>
<!-- Node24 -->
<g id="Node000024" class="node">
<title>Node24</title>
<g id="a_Node000024"><a target="_blank" xlink:href="open62541/types_8h.html" xlink:title=" ">
<polygon fill="white" stroke="#666666" points="837.5,-140 727.5,-140 727.5,-121 837.5,-121 837.5,-140"/>
<text text-anchor="middle" x="782.5" y="-128" font-family="Helvetica,sans-Serif" font-size="10.00">open62541/types.h</text>
</a>
</g>
</g>
<!-- Node20&#45;&gt;Node24 -->
<g id="edge27_Node000020_Node000024" class="edge">
<title>Node20&#45;&gt;Node24</title>
<g id="a_edge27_Node000020_Node000024"><a xlink:title=" ">
<path fill="none" stroke="#63b8ff" d="M873.22,-175.99C851.38,-166.49 824.33,-154.02 805.39,-144.69"/>
<polygon fill="#63b8ff" stroke="#63b8ff" points="806.81,-141.49 796.3,-140.14 803.67,-147.75 806.81,-141.49"/>
</a>
</g>
</g>
<!-- Node27 -->
<g id="Node000027" class="node">
<title>Node27</title>
<g id="a_Node000027"><a xlink:href="pop__options_8h.html" target="_top" xlink:title=" ">
<polygon fill="white" stroke="#666666" points="935,-30 790,-30 790,0 935,0 935,-30"/>
<text text-anchor="start" x="798" y="-18" font-family="Helvetica,sans-Serif" font-size="10.00">open62541pp/detail</text>
<text text-anchor="middle" x="862.5" y="-7" font-family="Helvetica,sans-Serif" font-size="10.00">/open62541/pop_options.h</text>
</a>
</g>
</g>
<!-- Node20&#45;&gt;Node27 -->
<g id="edge38_Node000020_Node000027" class="edge">
<title>Node20&#45;&gt;Node27</title>
<g id="a_edge38_Node000020_Node000027"><a xlink:title=" ">
<path fill="none" stroke="#63b8ff" d="M901.53,-175.98C896.27,-166.17 889.62,-152.63 885.5,-140 874.49,-106.28 868.21,-65.57 865.07,-40.23"/>
<polygon fill="#63b8ff" stroke="#63b8ff" points="868.52,-39.59 863.88,-30.06 861.57,-40.4 868.52,-39.59"/>
</a>
</g>
</g>
<!-- Node28 -->
<g id="Node000028" class="node">
<title>Node28</title>
<g id="a_Node000028"><a target="_blank" xlink:href="open62541/types__generated_8h.html" xlink:title=" ">
<polygon fill="white" stroke="#666666" points="1356.5,-140 1192.5,-140 1192.5,-121 1356.5,-121 1356.5,-140"/>
<text text-anchor="middle" x="1274.5" y="-128" font-family="Helvetica,sans-Serif" font-size="10.00">open62541/types_generated.h</text>
</a>
</g>
</g>
<!-- Node20&#45;&gt;Node28 -->
<g id="edge33_Node000020_Node000028" class="edge">
<title>Node20&#45;&gt;Node28</title>
<g id="a_edge33_Node000020_Node000028"><a xlink:title=" ">
<path fill="none" stroke="#63b8ff" d="M973.91,-179.68C1040.88,-168.94 1145.02,-152.25 1211.46,-141.6"/>
<polygon fill="#63b8ff" stroke="#63b8ff" points="1212.07,-145.05 1221.39,-140.01 1210.96,-138.14 1212.07,-145.05"/>
</a>
</g>
</g>
<!-- Node29 -->
<g id="Node000029" class="node">
<title>Node29</title>
<g id="a_Node000029"><a target="_blank" xlink:href="open62541/util_8h.html" xlink:title=" ">
<polygon fill="white" stroke="#666666" points="1472.5,-140 1374.5,-140 1374.5,-121 1472.5,-121 1472.5,-140"/>
<text text-anchor="middle" x="1423.5" y="-128" font-family="Helvetica,sans-Serif" font-size="10.00">open62541/util.h</text>
</a>
</g>
</g>
<!-- Node20&#45;&gt;Node29 -->
<g id="edge34_Node000020_Node000029" class="edge">
<title>Node20&#45;&gt;Node29</title>
<g id="a_edge34_Node000020_Node000029"><a xlink:title=" ">
<path fill="none" stroke="#63b8ff" d="M973.78,-183.69C1060.16,-175.06 1218.75,-158.61 1364.45,-140.09"/>
<polygon fill="#63b8ff" stroke="#63b8ff" points="1364.99,-143.55 1374.47,-138.81 1364.11,-136.61 1364.99,-143.55"/>
</a>
</g>
</g>
<!-- Node30 -->
<g id="Node000030" class="node">
<title>Node30</title>
<g id="a_Node000030"><a target="_blank" xlink:href="open62541/accesscontrol_8h.html" xlink:title=" ">
<polygon fill="white" stroke="#666666" points="1672.5,-140 1490.5,-140 1490.5,-121 1672.5,-121 1672.5,-140"/>
<text text-anchor="middle" x="1581.5" y="-128" font-family="Helvetica,sans-Serif" font-size="10.00">open62541/plugin/accesscontrol.h</text>
</a>
</g>
</g>
<!-- Node20&#45;&gt;Node30 -->
<g id="edge35_Node000020_Node000030" class="edge">
<title>Node20&#45;&gt;Node30</title>
<g id="a_edge35_Node000020_Node000030"><a xlink:title=" ">
<path fill="none" stroke="#63b8ff" d="M973.63,-184.42C1090.69,-174.23 1339.83,-152.54 1480.09,-140.33"/>
<polygon fill="#63b8ff" stroke="#63b8ff" points="1480.75,-143.78 1490.41,-139.43 1480.15,-136.81 1480.75,-143.78"/>
</a>
</g>
</g>
<!-- Node31 -->
<g id="Node000031" class="node">
<title>Node31</title>
<g id="a_Node000031"><a target="_blank" xlink:href="open62541/log_8h.html" xlink:title=" ">
<polygon fill="white" stroke="#666666" points="709,-140 578,-140 578,-121 709,-121 709,-140"/>
<text text-anchor="middle" x="643.5" y="-128" font-family="Helvetica,sans-Serif" font-size="10.00">open62541/plugin/log.h</text>
</a>
</g>
</g>
<!-- Node20&#45;&gt;Node31 -->
<g id="edge36_Node000020_Node000031" class="edge">
<title>Node20&#45;&gt;Node31</title>
<g id="a_edge36_Node000020_Node000031"><a xlink:title=" ">
<path fill="none" stroke="#63b8ff" d="M845.79,-175.99C798.69,-165.63 735.51,-151.73 692.36,-142.25"/>
<polygon fill="#63b8ff" stroke="#63b8ff" points="692.91,-138.78 682.39,-140.05 691.41,-145.62 692.91,-138.78"/>
</a>
</g>
</g>
<!-- Node24&#45;&gt;Node20 -->
<g id="edge32_Node000024_Node000020" class="edge">
<title>Node24&#45;&gt;Node20</title>
<g id="a_edge32_Node000024_Node000020"><a xlink:title=" ">
<path fill="none" stroke="#63b8ff" d="M806.21,-140.14C825.83,-148.36 853.72,-161 875.65,-171.49"/>
<polygon fill="#63b8ff" stroke="#63b8ff" points="874.41,-174.78 884.94,-175.99 877.46,-168.48 874.41,-174.78"/>
</a>
</g>
</g>
<!-- Node25 -->
<g id="Node000025" class="node">
<title>Node25</title>
<g id="a_Node000025"><a xlink:href="config_8h.html" target="_top" xlink:title=" ">
<polygon fill="white" stroke="#666666" points="769.5,-85 657.5,-85 657.5,-66 769.5,-66 769.5,-85"/>
<text text-anchor="middle" x="713.5" y="-73" font-family="Helvetica,sans-Serif" font-size="10.00">open62541/config.h</text>
</a>
</g>
</g>
<!-- Node24&#45;&gt;Node25 -->
<g id="edge28_Node000024_Node000025" class="edge">
<title>Node24&#45;&gt;Node25</title>
<g id="a_edge28_Node000024_Node000025"><a xlink:title=" ">
<path fill="none" stroke="#63b8ff" d="M771.41,-120.98C761.01,-113 745.24,-100.88 732.78,-91.31"/>
<polygon fill="#63b8ff" stroke="#63b8ff" points="734.85,-88.49 724.79,-85.17 730.59,-94.04 734.85,-88.49"/>
</a>
</g>
</g>
<!-- Node25&#45;&gt;Node21 -->
<g id="edge29_Node000025_Node000021" class="edge">
<title>Node25&#45;&gt;Node21</title>
<g id="a_edge29_Node000025_Node000021"><a xlink:title=" ">
<path fill="none" stroke="#63b8ff" d="M691.11,-65.99C668.94,-57.57 634.35,-44.43 606.19,-33.73"/>
<polygon fill="#63b8ff" stroke="#63b8ff" points="607.11,-30.34 596.52,-30.06 604.63,-36.89 607.11,-30.34"/>
</a>
</g>
</g>
<!-- Node26 -->
<g id="Node000026" class="node">
<title>Node26</title>
<g id="a_Node000026"><a xlink:title=" ">
<polygon fill="#e0e0e0" stroke="#999999" points="769.5,-24.5 657.5,-24.5 657.5,-5.5 769.5,-5.5 769.5,-24.5"/>
<text text-anchor="middle" x="713.5" y="-12.5" font-family="Helvetica,sans-Serif" font-size="10.00">open62541/config.h</text>
</a>
</g>
</g>
<!-- Node25&#45;&gt;Node26 -->
<g id="edge30_Node000025_Node000026" class="edge">
<title>Node25&#45;&gt;Node26</title>
<g id="a_edge30_Node000025_Node000026"><a xlink:title=" ">
<path fill="none" stroke="#63b8ff" d="M713.5,-65.87C713.5,-57.75 713.5,-45.31 713.5,-34.89"/>
<polygon fill="#63b8ff" stroke="#63b8ff" points="717,-34.67 713.5,-24.67 710,-34.67 717,-34.67"/>
</a>
</g>
</g>
<!-- Node25&#45;&gt;Node27 -->
<g id="edge31_Node000025_Node000027" class="edge">
<title>Node25&#45;&gt;Node27</title>
<g id="a_edge31_Node000025_Node000027"><a xlink:title=" ">
<path fill="none" stroke="#63b8ff" d="M735.17,-65.99C756.61,-57.57 790.08,-44.43 817.33,-33.73"/>
<polygon fill="#63b8ff" stroke="#63b8ff" points="818.65,-36.98 826.68,-30.06 816.09,-30.46 818.65,-36.98"/>
</a>
</g>
</g>
<!-- Node31&#45;&gt;Node25 -->
<g id="edge37_Node000031_Node000025" class="edge">
<title>Node31&#45;&gt;Node25</title>
<g id="a_edge37_Node000031_Node000025"><a xlink:title=" ">
<path fill="none" stroke="#63b8ff" d="M654.75,-120.98C665.3,-113 681.3,-100.88 693.94,-91.31"/>
<polygon fill="#63b8ff" stroke="#63b8ff" points="696.19,-94 702.05,-85.17 691.96,-88.42 696.19,-94"/>
</a>
</g>
</g>
<!-- Node32&#45;&gt;Node5 -->
<g id="edge42_Node000032_Node000005" class="edge">
<title>Node32&#45;&gt;Node5</title>
<g id="a_edge42_Node000032_Node000005"><a xlink:title=" ">
<path fill="none" stroke="#63b8ff" d="M661.6,-379.43C622.8,-372.02 570.7,-359.09 528.5,-338 509.25,-328.38 509.24,-318.57 490.5,-308 450.81,-285.61 424.64,-306.18 394.5,-272 379.56,-255.06 375.83,-228.49 375.16,-210.67"/>
<polygon fill="#63b8ff" stroke="#63b8ff" points="378.66,-210.61 375.07,-200.65 371.66,-210.68 378.66,-210.61"/>
</a>
</g>
</g>
<!-- Node32&#45;&gt;Node6 -->
<g id="edge43_Node000032_Node000006" class="edge">
<title>Node32&#45;&gt;Node6</title>
<g id="a_edge43_Node000032_Node000006"><a xlink:title=" ">
<path fill="none" stroke="#63b8ff" d="M641.95,-379.48C526.96,-366.41 319.56,-342.48 303.5,-338 301.82,-337.53 300.11,-336.98 298.41,-336.38"/>
<polygon fill="#63b8ff" stroke="#63b8ff" points="299.47,-333.03 288.88,-332.52 296.83,-339.52 299.47,-333.03"/>
</a>
</g>
</g>
<!-- Node32&#45;&gt;Node10 -->
<g id="edge41_Node000032_Node000010" class="edge">
<title>Node32&#45;&gt;Node10</title>
<g id="a_edge41_Node000032_Node000010"><a xlink:title=" ">
<path fill="none" stroke="#63b8ff" d="M733.58,-379.47C775.28,-357.34 887.19,-297.96 937.45,-271.29"/>
<polygon fill="#63b8ff" stroke="#63b8ff" points="939.17,-274.34 946.37,-266.56 935.89,-268.16 939.17,-274.34"/>
</a>
</g>
</g>
<!-- Node32&#45;&gt;Node15 -->
<g id="edge44_Node000032_Node000015" class="edge">
<title>Node32&#45;&gt;Node15</title>
<g id="a_edge44_Node000032_Node000015"><a xlink:title=" ">
<path fill="none" stroke="#63b8ff" d="M748.65,-379.37C789.76,-367.98 862.19,-347.91 907.65,-335.32"/>
<polygon fill="#63b8ff" stroke="#63b8ff" points="908.77,-338.64 917.47,-332.6 906.9,-331.89 908.77,-338.64"/>
</a>
</g>
</g>
<!-- Node32&#45;&gt;Node17 -->
<g id="edge45_Node000032_Node000017" class="edge">
<title>Node32&#45;&gt;Node17</title>
<g id="a_edge45_Node000032_Node000017"><a xlink:title=" ">
<path fill="none" stroke="#63b8ff" d="M720.45,-379.47C727.67,-358.63 746.31,-304.77 756.17,-276.28"/>
<polygon fill="#63b8ff" stroke="#63b8ff" points="759.51,-277.33 759.48,-266.73 752.9,-275.04 759.51,-277.33"/>
</a>
</g>
</g>
<!-- Node32&#45;&gt;Node20 -->
<g id="edge48_Node000032_Node000020" class="edge">
<title>Node32&#45;&gt;Node20</title>
<g id="a_edge48_Node000032_Node000020"><a xlink:title=" ">
<path fill="none" stroke="#63b8ff" d="M726.54,-379.39C743,-363.96 779.34,-331.07 813.5,-308 841.52,-289.08 858.39,-297.57 880.5,-272 894.18,-256.17 901.6,-233.38 905.5,-216.16"/>
<polygon fill="#63b8ff" stroke="#63b8ff" points="908.95,-216.78 907.5,-206.28 902.08,-215.39 908.95,-216.78"/>
</a>
</g>
</g>
<!-- Node33 -->
<g id="Node000033" class="node">
<title>Node33</title>
<g id="a_Node000033"><a xlink:title=" ">
<polygon fill="#e0e0e0" stroke="#999999" points="455.5,-266.5 403.5,-266.5 403.5,-247.5 455.5,-247.5 455.5,-266.5"/>
<text text-anchor="middle" x="429.5" y="-254.5" font-family="Helvetica,sans-Serif" font-size="10.00">cassert</text>
</a>
</g>
</g>
<!-- Node32&#45;&gt;Node33 -->
<g id="edge40_Node000032_Node000033" class="edge">
<title>Node32&#45;&gt;Node33</title>
<g id="a_edge40_Node000032_Node000033"><a xlink:title=" ">
<path fill="none" stroke="#63b8ff" d="M684.82,-379.44C654.76,-370.94 609.39,-356.52 572.5,-338 551.35,-327.38 548.88,-320.03 528.5,-308 505.13,-294.21 477.48,-280.45 457.36,-270.86"/>
<polygon fill="#63b8ff" stroke="#63b8ff" points="458.67,-267.61 448.13,-266.51 455.68,-273.95 458.67,-267.61"/>
</a>
</g>
</g>
<!-- Node32&#45;&gt;Node34 -->
<g id="edge46_Node000032_Node000034" class="edge">
<title>Node32&#45;&gt;Node34</title>
<g id="a_edge46_Node000032_Node000034"><a xlink:title=" ">
<path fill="none" stroke="#63b8ff" d="M672.4,-379.44C611.11,-367.8 501.61,-347 435.55,-334.45"/>
<polygon fill="#63b8ff" stroke="#63b8ff" points="435.81,-330.94 425.33,-332.51 434.5,-337.82 435.81,-330.94"/>
</a>
</g>
</g>
<!-- Node35 -->
<g id="Node000035" class="node">
<title>Node35</title>
<g id="a_Node000035"><a xlink:href="types__handling_8h.html" target="_top" xlink:title=" ">
<polygon fill="white" stroke="#666666" points="694,-338 581,-338 581,-308 694,-308 694,-338"/>
<text text-anchor="start" x="589" y="-326" font-family="Helvetica,sans-Serif" font-size="10.00">open62541pp/detail</text>
<text text-anchor="middle" x="637.5" y="-315" font-family="Helvetica,sans-Serif" font-size="10.00">/types_handling.h</text>
</a>
</g>
</g>
<!-- Node32&#45;&gt;Node35 -->
<g id="edge49_Node000032_Node000035" class="edge">
<title>Node32&#45;&gt;Node35</title>
<g id="a_edge49_Node000032_Node000035"><a xlink:title=" ">
<path fill="none" stroke="#63b8ff" d="M706.71,-379.37C695.56,-370.44 677.73,-356.19 662.97,-344.38"/>
<polygon fill="#63b8ff" stroke="#63b8ff" points="665.14,-341.63 655.14,-338.12 660.77,-347.1 665.14,-341.63"/>
</a>
</g>
</g>
<!-- Node34&#45;&gt;Node5 -->
<g id="edge47_Node000034_Node000005" class="edge">
<title>Node34&#45;&gt;Node5</title>
<g id="a_edge47_Node000034_Node000005"><a xlink:title=" ">
<path fill="none" stroke="#63b8ff" d="M337.96,-313.5C314.95,-306.5 288.45,-294 274.5,-272 267.36,-260.74 267.47,-253.33 274.5,-242 286.97,-221.91 310.18,-209.64 331.21,-202.29"/>
<polygon fill="#63b8ff" stroke="#63b8ff" points="332.53,-205.55 340.98,-199.16 330.39,-198.88 332.53,-205.55"/>
</a>
</g>
</g>
<!-- Node35&#45;&gt;Node8 -->
<g id="edge50_Node000035_Node000008" class="edge">
<title>Node35&#45;&gt;Node8</title>
<g id="a_edge50_Node000035_Node000008"><a xlink:title=" ">
<path fill="none" stroke="#63b8ff" d="M580.67,-310.71C516.94,-298.04 415.02,-277.78 357.88,-266.42"/>
<polygon fill="#63b8ff" stroke="#63b8ff" points="358.25,-262.93 347.75,-264.41 356.88,-269.79 358.25,-262.93"/>
</a>
</g>
</g>
<!-- Node35&#45;&gt;Node17 -->
<g id="edge53_Node000035_Node000017" class="edge">
<title>Node35&#45;&gt;Node17</title>
<g id="a_edge53_Node000035_Node000017"><a xlink:title=" ">
<path fill="none" stroke="#63b8ff" d="M664.93,-307.95C686.37,-296.98 715.95,-281.83 736.9,-271.11"/>
<polygon fill="#63b8ff" stroke="#63b8ff" points="738.56,-274.19 745.86,-266.52 735.37,-267.96 738.56,-274.19"/>
</a>
</g>
</g>
<!-- Node35&#45;&gt;Node20 -->
<g id="edge54_Node000035_Node000020" class="edge">
<title>Node35&#45;&gt;Node20</title>
<g id="a_edge54_Node000035_Node000020"><a xlink:title=" ">
<path fill="none" stroke="#63b8ff" d="M694.01,-313.5C748.68,-304.47 826.91,-289.14 852.5,-272 873.3,-258.07 888.99,-233.8 898.59,-215.64"/>
<polygon fill="#63b8ff" stroke="#63b8ff" points="901.93,-216.79 903.29,-206.28 895.67,-213.65 901.93,-216.79"/>
</a>
</g>
</g>
<!-- Node35&#45;&gt;Node33 -->
<g id="edge51_Node000035_Node000033" class="edge">
<title>Node35&#45;&gt;Node33</title>
<g id="a_edge51_Node000035_Node000033"><a xlink:title=" ">
<path fill="none" stroke="#63b8ff" d="M584.81,-307.98C550.58,-298.55 505.11,-285.43 465.5,-272 463.84,-271.44 462.15,-270.84 460.44,-270.23"/>
<polygon fill="#63b8ff" stroke="#63b8ff" points="461.3,-266.82 450.71,-266.6 458.85,-273.38 461.3,-266.82"/>
</a>
</g>
</g>
<!-- Node36 -->
<g id="Node000036" class="node">
<title>Node36</title>
<g id="a_Node000036"><a xlink:title=" ">
<polygon fill="#e0e0e0" stroke="#999999" points="663.5,-266.5 605.5,-266.5 605.5,-247.5 663.5,-247.5 663.5,-266.5"/>
<text text-anchor="middle" x="634.5" y="-254.5" font-family="Helvetica,sans-Serif" font-size="10.00">memory</text>
</a>
</g>
</g>
<!-- Node35&#45;&gt;Node36 -->
<g id="edge52_Node000035_Node000036" class="edge">
<title>Node35&#45;&gt;Node36</title>
<g id="a_edge52_Node000035_Node000036"><a xlink:title=" ">
<path fill="none" stroke="#63b8ff" d="M636.83,-307.8C636.41,-298.7 635.85,-286.79 635.39,-276.9"/>
<polygon fill="#63b8ff" stroke="#63b8ff" points="638.88,-276.67 634.91,-266.84 631.89,-277 638.88,-276.67"/>
</a>
</g>
</g>
<!-- Node37 -->
<g id="Node000037" class="node">
<title>Node37</title>
<g id="a_Node000037"><a xlink:href="traits_8h.html" target="_top" xlink:title=" ">
<polygon fill="white" stroke="#666666" points="587,-272 474,-272 474,-242 587,-242 587,-272"/>
<text text-anchor="start" x="482" y="-260" font-family="Helvetica,sans-Serif" font-size="10.00">open62541pp/detail</text>
<text text-anchor="middle" x="530.5" y="-249" font-family="Helvetica,sans-Serif" font-size="10.00">/traits.h</text>
</a>
</g>
</g>
<!-- Node35&#45;&gt;Node37 -->
<g id="edge55_Node000035_Node000037" class="edge">
<title>Node35&#45;&gt;Node37</title>
<g id="a_edge55_Node000035_Node000037"><a xlink:title=" ">
<path fill="none" stroke="#63b8ff" d="M614.02,-307.95C598.97,-298.95 579.23,-287.14 562.72,-277.27"/>
<polygon fill="#63b8ff" stroke="#63b8ff" points="564.31,-274.14 553.93,-272.01 560.71,-280.15 564.31,-274.14"/>
</a>
</g>
</g>
<!-- Node37&#45;&gt;Node5 -->
<g id="edge56_Node000037_Node000005" class="edge">
<title>Node37&#45;&gt;Node5</title>
<g id="a_edge56_Node000037_Node000005"><a xlink:title=" ">
<path fill="none" stroke="#63b8ff" d="M496.48,-241.95C469.3,-230.73 431.57,-215.15 405.5,-204.39"/>
<polygon fill="#63b8ff" stroke="#63b8ff" points="406.71,-201.1 396.13,-200.52 404.04,-207.57 406.71,-201.1"/>
</a>
</g>
</g>
<!-- Node38&#45;&gt;Node12 -->
<g id="edge61_Node000038_Node000012" class="edge">
<title>Node38&#45;&gt;Node12</title>
<g id="a_edge61_Node000038_Node000012"><a xlink:title=" ">
<path fill="none" stroke="#63b8ff" d="M1196.3,-373.8C1184.7,-363.62 1169.08,-349.93 1157.16,-339.48"/>
<polygon fill="#63b8ff" stroke="#63b8ff" points="1159.41,-336.8 1149.59,-332.84 1154.8,-342.07 1159.41,-336.8"/>
</a>
</g>
</g>
<!-- Node38&#45;&gt;Node13 -->
<g id="edge62_Node000038_Node000013" class="edge">
<title>Node38&#45;&gt;Node13</title>
<g id="a_edge62_Node000038_Node000013"><a xlink:title=" ">
<path fill="none" stroke="#63b8ff" d="M1223.98,-373.66C1230.83,-364.16 1238.88,-351.07 1242.5,-338 1248.19,-317.45 1244.24,-292.94 1240.13,-276.52"/>
<polygon fill="#63b8ff" stroke="#63b8ff" points="1243.42,-275.28 1237.38,-266.58 1236.68,-277.15 1243.42,-275.28"/>
</a>
</g>
</g>
<!-- Node38&#45;&gt;Node20 -->
<g id="edge63_Node000038_Node000020" class="edge">
<title>Node38&#45;&gt;Node20</title>
<g id="a_edge63_Node000038_Node000020"><a xlink:title=" ">
<path fill="none" stroke="#63b8ff" d="M1228.82,-373.64C1258.74,-345.63 1316.2,-282.84 1280.5,-242 1261.3,-220.04 1086.59,-204.29 983.91,-196.84"/>
<polygon fill="#63b8ff" stroke="#63b8ff" points="984.12,-193.35 973.9,-196.12 983.62,-200.33 984.12,-193.35"/>
</a>
</g>
</g>
<!-- Node39 -->
<g id="Node000039" class="node">
<title>Node39</title>
<g id="a_Node000039"><a xlink:title=" ">
<polygon fill="#e0e0e0" stroke="#999999" points="1233,-332.5 1180,-332.5 1180,-313.5 1233,-313.5 1233,-332.5"/>
<text text-anchor="middle" x="1206.5" y="-320.5" font-family="Helvetica,sans-Serif" font-size="10.00">cstdarg</text>
</a>
</g>
</g>
<!-- Node38&#45;&gt;Node39 -->
<g id="edge60_Node000038_Node000039" class="edge">
<title>Node38&#45;&gt;Node39</title>
<g id="a_edge60_Node000038_Node000039"><a xlink:title=" ">
<path fill="none" stroke="#63b8ff" d="M1211.17,-373.8C1210.32,-364.7 1209.2,-352.79 1208.27,-342.9"/>
<polygon fill="#63b8ff" stroke="#63b8ff" points="1211.75,-342.47 1207.33,-332.84 1204.78,-343.13 1211.75,-342.47"/>
</a>
</g>
</g>
</g>
</svg>
