<?xml version="1.0" encoding="UTF-8" standalone="no"?>
<!DOCTYPE svg PUBLIC "-//W3C//DTD SVG 1.1//EN"
 "http://www.w3.org/Graphics/SVG/1.1/DTD/svg11.dtd">
<!-- Generated by graphviz version 2.43.0 (0)
 -->
<!-- Title: /home/runner/work/open62541pp/open62541pp/include/open62541pp/services/Attribute.h Pages: 1 -->
<svg width="1697pt" height="554pt"
 viewBox="0.00 0.00 1697.00 554.00" xmlns="http://www.w3.org/2000/svg" xmlns:xlink="http://www.w3.org/1999/xlink">
<g id="graph0" class="graph" transform="scale(1 1) rotate(0) translate(4 550)">
<title>/home/runner/work/open62541pp/open62541pp/include/open62541pp/services/Attribute.h</title>
<!-- Node1 -->
<g id="node1" class="node">
<title>Node1</title>
<g id="a_node1"><a xlink:title=" ">
<polygon fill="#bfbfbf" stroke="black" points="376.5,-504.5 376.5,-545.5 569.5,-545.5 569.5,-504.5 376.5,-504.5"/>
<text text-anchor="start" x="384.5" y="-533.5" font-family="Helvetica,sans-Serif" font-size="10.00">/home/runner/work/open62541pp</text>
<text text-anchor="start" x="384.5" y="-522.5" font-family="Helvetica,sans-Serif" font-size="10.00">/open62541pp/include/open62541pp</text>
<text text-anchor="middle" x="473" y="-511.5" font-family="Helvetica,sans-Serif" font-size="10.00">/services/Attribute.h</text>
</a>
</g>
</g>
<!-- Node2 -->
<g id="node2" class="node">
<title>Node2</title>
<g id="a_node2"><a xlink:title=" ">
<polygon fill="none" stroke="#bfbfbf" points="500,-112.5 500,-131.5 544,-131.5 544,-112.5 500,-112.5"/>
<text text-anchor="middle" x="522" y="-119.5" font-family="Helvetica,sans-Serif" font-size="10.00">string</text>
</a>
</g>
</g>
<!-- Node1&#45;&gt;Node2 -->
<g id="edge1" class="edge">
<title>Node1&#45;&gt;Node2</title>
<path fill="none" stroke="midnightblue" d="M464.95,-504.49C451.87,-470.32 428.59,-397.41 440,-336 454.1,-260.12 494.21,-176.41 512.59,-140.7"/>
<polygon fill="midnightblue" stroke="midnightblue" points="515.83,-142.07 517.35,-131.59 509.62,-138.83 515.83,-142.07"/>
</g>
<!-- Node3 -->
<g id="node3" class="node">
<title>Node3</title>
<g id="a_node3"><a xlink:title=" ">
<polygon fill="none" stroke="#bfbfbf" points="39.5,-56.5 39.5,-75.5 112.5,-75.5 112.5,-56.5 39.5,-56.5"/>
<text text-anchor="middle" x="76" y="-63.5" font-family="Helvetica,sans-Serif" font-size="10.00">string_view</text>
</a>
</g>
</g>
<!-- Node1&#45;&gt;Node3 -->
<g id="edge2" class="edge">
<title>Node1&#45;&gt;Node3</title>
<path fill="none" stroke="midnightblue" d="M376.43,-518.79C238.09,-508.63 0,-479.97 0,-403 0,-403 0,-403 0,-177 0,-137.28 33.96,-101.5 56.48,-82.15"/>
<polygon fill="midnightblue" stroke="midnightblue" points="58.98,-84.63 64.46,-75.57 54.52,-79.24 58.98,-84.63"/>
</g>
<!-- Node4 -->
<g id="node4" class="node">
<title>Node4</title>
<g id="a_node4"><a xlink:title=" ">
<polygon fill="none" stroke="#bfbfbf" points="449.5,-336.5 449.5,-355.5 496.5,-355.5 496.5,-336.5 449.5,-336.5"/>
<text text-anchor="middle" x="473" y="-343.5" font-family="Helvetica,sans-Serif" font-size="10.00">vector</text>
</a>
</g>
</g>
<!-- Node1&#45;&gt;Node4 -->
<g id="edge3" class="edge">
<title>Node1&#45;&gt;Node4</title>
<path fill="none" stroke="midnightblue" d="M473,-504.38C473,-470.08 473,-399.66 473,-365.88"/>
<polygon fill="midnightblue" stroke="midnightblue" points="476.5,-365.58 473,-355.58 469.5,-365.58 476.5,-365.58"/>
</g>
<!-- Node5 -->
<g id="node5" class="node">
<title>Node5</title>
<g id="a_node5"><a xlink:href="Common_8h.html" target="_top" xlink:title=" ">
<polygon fill="none" stroke="black" points="1164.5,-112.5 1164.5,-131.5 1303.5,-131.5 1303.5,-112.5 1164.5,-112.5"/>
<text text-anchor="middle" x="1234" y="-119.5" font-family="Helvetica,sans-Serif" font-size="10.00">open62541pp/Common.h</text>
</a>
</g>
</g>
<!-- Node1&#45;&gt;Node5 -->
<g id="edge4" class="edge">
<title>Node1&#45;&gt;Node5</title>
<path fill="none" stroke="midnightblue" d="M569.69,-524.47C857.53,-524.61 1689,-515.28 1689,-403 1689,-403 1689,-403 1689,-345 1689,-180.05 1444.48,-137.64 1313.95,-126.75"/>
<polygon fill="midnightblue" stroke="midnightblue" points="1313.84,-123.23 1303.6,-125.93 1313.29,-130.21 1313.84,-123.23"/>
</g>
<!-- Node14 -->
<g id="node14" class="node">
<title>Node14</title>
<g id="a_node14"><a xlink:href="Helper_8h.html" target="_top" xlink:title=" ">
<polygon fill="none" stroke="black" points="1042,-168.5 1042,-187.5 1168,-187.5 1168,-168.5 1042,-168.5"/>
<text text-anchor="middle" x="1105" y="-175.5" font-family="Helvetica,sans-Serif" font-size="10.00">open62541pp/Helper.h</text>
</a>
</g>
</g>
<!-- Node1&#45;&gt;Node14 -->
<g id="edge15" class="edge">
<title>Node1&#45;&gt;Node14</title>
<path fill="none" stroke="midnightblue" d="M569.86,-522.26C818.94,-517.31 1464.45,-501.32 1496,-468 1571.87,-387.86 1540.37,-287.34 1450,-224 1428.2,-208.72 1272.76,-193.14 1178.12,-184.92"/>
<polygon fill="midnightblue" stroke="midnightblue" points="1178.29,-181.42 1168.02,-184.05 1177.69,-188.4 1178.29,-181.42"/>
</g>
<!-- Node16 -->
<g id="node16" class="node">
<title>Node16</title>
<g id="a_node16"><a xlink:href="Builtin_8h.html" target="_top" xlink:title=" ">
<polygon fill="none" stroke="black" points="250,-280.5 250,-299.5 406,-299.5 406,-280.5 250,-280.5"/>
<text text-anchor="middle" x="328" y="-287.5" font-family="Helvetica,sans-Serif" font-size="10.00">open62541pp/types/Builtin.h</text>
</a>
</g>
</g>
<!-- Node1&#45;&gt;Node16 -->
<g id="edge22" class="edge">
<title>Node1&#45;&gt;Node16</title>
<path fill="none" stroke="midnightblue" d="M444.43,-504.33C431.74,-494.53 417.37,-481.83 407,-468 368.54,-416.72 343.58,-343.77 333.32,-309.78"/>
<polygon fill="midnightblue" stroke="midnightblue" points="336.58,-308.44 330.41,-299.83 329.86,-310.41 336.58,-308.44"/>
</g>
<!-- Node23 -->
<g id="node23" class="node">
<title>Node23</title>
<g id="a_node23"><a xlink:href="DataValue_8h.html" target="_top" xlink:title=" ">
<polygon fill="none" stroke="black" points="1312.5,-448.5 1312.5,-467.5 1487.5,-467.5 1487.5,-448.5 1312.5,-448.5"/>
<text text-anchor="middle" x="1400" y="-455.5" font-family="Helvetica,sans-Serif" font-size="10.00">open62541pp/types/DataValue.h</text>
</a>
</g>
</g>
<!-- Node1&#45;&gt;Node23 -->
<g id="edge41" class="edge">
<title>Node1&#45;&gt;Node23</title>
<path fill="none" stroke="midnightblue" d="M569.58,-517.23C747.22,-504.77 1123.89,-478.36 1302.33,-465.85"/>
<polygon fill="midnightblue" stroke="midnightblue" points="1302.77,-469.33 1312.5,-465.14 1302.28,-462.34 1302.77,-469.33"/>
</g>
<!-- Node28 -->
<g id="node28" class="node">
<title>Node28</title>
<g id="a_node28"><a xlink:href="Variant_8h.html" target="_top" xlink:title=" ">
<polygon fill="none" stroke="black" points="961.5,-392.5 961.5,-411.5 1120.5,-411.5 1120.5,-392.5 961.5,-392.5"/>
<text text-anchor="middle" x="1041" y="-399.5" font-family="Helvetica,sans-Serif" font-size="10.00">open62541pp/types/Variant.h</text>
</a>
</g>
</g>
<!-- Node1&#45;&gt;Node28 -->
<g id="edge85" class="edge">
<title>Node1&#45;&gt;Node28</title>
<path fill="none" stroke="midnightblue" d="M564.57,-504.49C685.83,-478.66 895.43,-434.01 990.96,-413.66"/>
<polygon fill="midnightblue" stroke="midnightblue" points="991.89,-417.04 1000.94,-411.53 990.43,-410.19 991.89,-417.04"/>
</g>
<!-- Node31 -->
<g id="node31" class="node">
<title>Node31</title>
<g id="a_node31"><a xlink:href="NodeId_8h.html" target="_top" xlink:title=" ">
<polygon fill="none" stroke="black" points="123.5,-336.5 123.5,-355.5 282.5,-355.5 282.5,-336.5 123.5,-336.5"/>
<text text-anchor="middle" x="203" y="-343.5" font-family="Helvetica,sans-Serif" font-size="10.00">open62541pp/types/NodeId.h</text>
</a>
</g>
</g>
<!-- Node1&#45;&gt;Node31 -->
<g id="edge77" class="edge">
<title>Node1&#45;&gt;Node31</title>
<path fill="none" stroke="midnightblue" d="M416.13,-504.47C392.08,-495.06 364.3,-482.62 341,-468 291.54,-436.95 242.16,-388.34 218.11,-363.23"/>
<polygon fill="midnightblue" stroke="midnightblue" points="220.37,-360.53 210.95,-355.67 215.29,-365.34 220.37,-360.53"/>
</g>
<!-- Node5&#45;&gt;Node3 -->
<g id="edge6" class="edge">
<title>Node5&#45;&gt;Node3</title>
<path fill="none" stroke="midnightblue" d="M1164.24,-112.78C1161.12,-112.5 1158.03,-112.24 1155,-112 756.6,-81.04 273.67,-70.44 123.11,-67.76"/>
<polygon fill="midnightblue" stroke="midnightblue" points="122.91,-64.25 112.85,-67.58 122.79,-71.25 122.91,-64.25"/>
</g>
<!-- Node6 -->
<g id="node6" class="node">
<title>Node6</title>
<g id="a_node6"><a xlink:title=" ">
<polygon fill="none" stroke="#bfbfbf" points="1143,-56.5 1143,-75.5 1193,-75.5 1193,-56.5 1143,-56.5"/>
<text text-anchor="middle" x="1168" y="-63.5" font-family="Helvetica,sans-Serif" font-size="10.00">cstdint</text>
</a>
</g>
</g>
<!-- Node5&#45;&gt;Node6 -->
<g id="edge5" class="edge">
<title>Node5&#45;&gt;Node6</title>
<path fill="none" stroke="midnightblue" d="M1223.4,-112.32C1213.54,-104.26 1198.65,-92.08 1186.78,-82.37"/>
<polygon fill="midnightblue" stroke="midnightblue" points="1188.75,-79.46 1178.8,-75.83 1184.32,-84.88 1188.75,-79.46"/>
</g>
<!-- Node7 -->
<g id="node7" class="node">
<title>Node7</title>
<g id="a_node7"><a xlink:title=" ">
<polygon fill="none" stroke="#bfbfbf" points="1183.5,-0.5 1183.5,-19.5 1224.5,-19.5 1224.5,-0.5 1183.5,-0.5"/>
<text text-anchor="middle" x="1204" y="-7.5" font-family="Helvetica,sans-Serif" font-size="10.00">tuple</text>
</a>
</g>
</g>
<!-- Node5&#45;&gt;Node7 -->
<g id="edge7" class="edge">
<title>Node5&#45;&gt;Node7</title>
<path fill="none" stroke="midnightblue" d="M1231.65,-112.37C1226.78,-94.54 1215.54,-53.3 1208.98,-29.27"/>
<polygon fill="midnightblue" stroke="midnightblue" points="1212.35,-28.32 1206.34,-19.59 1205.6,-30.16 1212.35,-28.32"/>
</g>
<!-- Node8 -->
<g id="node8" class="node">
<title>Node8</title>
<g id="a_node8"><a xlink:href="Traits_8h.html" target="_top" xlink:title=" ">
<polygon fill="none" stroke="black" points="991.5,-56.5 991.5,-75.5 1112.5,-75.5 1112.5,-56.5 991.5,-56.5"/>
<text text-anchor="middle" x="1052" y="-63.5" font-family="Helvetica,sans-Serif" font-size="10.00">open62541pp/Traits.h</text>
</a>
</g>
</g>
<!-- Node5&#45;&gt;Node8 -->
<g id="edge8" class="edge">
<title>Node5&#45;&gt;Node8</title>
<path fill="none" stroke="midnightblue" d="M1205.16,-112.44C1174.14,-103.24 1124.67,-88.56 1090.38,-78.39"/>
<polygon fill="midnightblue" stroke="midnightblue" points="1091.29,-75.01 1080.7,-75.52 1089.29,-81.72 1091.29,-75.01"/>
</g>
<!-- Node10 -->
<g id="node10" class="node">
<title>Node10</title>
<g id="a_node10"><a xlink:href="open62541_8h.html" target="_top" xlink:title=" ">
<polygon fill="none" stroke="black" points="799.5,-56.5 799.5,-75.5 948.5,-75.5 948.5,-56.5 799.5,-56.5"/>
<text text-anchor="middle" x="874" y="-63.5" font-family="Helvetica,sans-Serif" font-size="10.00">open62541pp/open62541.h</text>
</a>
</g>
</g>
<!-- Node5&#45;&gt;Node10 -->
<g id="edge11" class="edge">
<title>Node5&#45;&gt;Node10</title>
<path fill="none" stroke="midnightblue" d="M1176.96,-112.44C1112.84,-102.83 1008.85,-87.23 940.94,-77.04"/>
<polygon fill="midnightblue" stroke="midnightblue" points="941.18,-73.54 930.78,-75.52 940.15,-80.46 941.18,-73.54"/>
</g>
<!-- Node8&#45;&gt;Node7 -->
<g id="edge9" class="edge">
<title>Node8&#45;&gt;Node7</title>
<path fill="none" stroke="midnightblue" d="M1076.08,-56.44C1102.59,-47.03 1145.24,-31.87 1173.93,-21.68"/>
<polygon fill="midnightblue" stroke="midnightblue" points="1175.19,-24.95 1183.44,-18.3 1172.85,-18.35 1175.19,-24.95"/>
</g>
<!-- Node9 -->
<g id="node9" class="node">
<title>Node9</title>
<g id="a_node9"><a xlink:title=" ">
<polygon fill="none" stroke="#bfbfbf" points="600.5,-0.5 600.5,-19.5 669.5,-19.5 669.5,-0.5 600.5,-0.5"/>
<text text-anchor="middle" x="635" y="-7.5" font-family="Helvetica,sans-Serif" font-size="10.00">type_traits</text>
</a>
</g>
</g>
<!-- Node8&#45;&gt;Node9 -->
<g id="edge10" class="edge">
<title>Node8&#45;&gt;Node9</title>
<path fill="none" stroke="midnightblue" d="M991.38,-59.22C919.5,-52.03 795.86,-38.58 679.68,-19.98"/>
<polygon fill="midnightblue" stroke="midnightblue" points="679.97,-16.48 669.54,-18.34 678.85,-23.39 679.97,-16.48"/>
</g>
<!-- Node11 -->
<g id="node11" class="node">
<title>Node11</title>
<g id="a_node11"><a target="_blank" xlink:href="open62541/nodeids_8h.html.html" xlink:title=" ">
<polygon fill="none" stroke="black" points="998.5,-0.5 998.5,-19.5 1119.5,-19.5 1119.5,-0.5 998.5,-0.5"/>
<text text-anchor="middle" x="1059" y="-7.5" font-family="Helvetica,sans-Serif" font-size="10.00">open62541/nodeids.h</text>
</a>
</g>
</g>
<!-- Node10&#45;&gt;Node11 -->
<g id="edge12" class="edge">
<title>Node10&#45;&gt;Node11</title>
<path fill="none" stroke="midnightblue" d="M903.31,-56.44C934.84,-47.24 985.13,-32.56 1019.99,-22.39"/>
<polygon fill="midnightblue" stroke="midnightblue" points="1021.2,-25.68 1029.82,-19.52 1019.24,-18.96 1021.2,-25.68"/>
</g>
<!-- Node12 -->
<g id="node12" class="node">
<title>Node12</title>
<g id="a_node12"><a target="_blank" xlink:href="open62541/types_8h.html.html" xlink:title=" ">
<polygon fill="none" stroke="black" points="688,-0.5 688,-19.5 798,-19.5 798,-0.5 688,-0.5"/>
<text text-anchor="middle" x="743" y="-7.5" font-family="Helvetica,sans-Serif" font-size="10.00">open62541/types.h</text>
</a>
</g>
</g>
<!-- Node10&#45;&gt;Node12 -->
<g id="edge13" class="edge">
<title>Node10&#45;&gt;Node12</title>
<path fill="none" stroke="midnightblue" d="M853.24,-56.44C831.68,-47.56 797.74,-33.56 773.21,-23.45"/>
<polygon fill="midnightblue" stroke="midnightblue" points="774.24,-20.09 763.66,-19.52 771.57,-26.56 774.24,-20.09"/>
</g>
<!-- Node13 -->
<g id="node13" class="node">
<title>Node13</title>
<g id="a_node13"><a target="_blank" xlink:href="open62541/types__generated_8h.html.html" xlink:title=" ">
<polygon fill="none" stroke="black" points="816,-0.5 816,-19.5 980,-19.5 980,-0.5 816,-0.5"/>
<text text-anchor="middle" x="898" y="-7.5" font-family="Helvetica,sans-Serif" font-size="10.00">open62541/types_generated.h</text>
</a>
</g>
</g>
<!-- Node10&#45;&gt;Node13 -->
<g id="edge14" class="edge">
<title>Node10&#45;&gt;Node13</title>
<path fill="none" stroke="midnightblue" d="M877.96,-56.08C881.21,-48.77 885.92,-38.18 889.95,-29.1"/>
<polygon fill="midnightblue" stroke="midnightblue" points="893.25,-30.31 894.11,-19.75 886.85,-27.47 893.25,-30.31"/>
</g>
<!-- Node14&#45;&gt;Node2 -->
<g id="edge18" class="edge">
<title>Node14&#45;&gt;Node2</title>
<path fill="none" stroke="midnightblue" d="M1041.78,-171.14C918.01,-159.68 647.68,-134.64 554.41,-126"/>
<polygon fill="midnightblue" stroke="midnightblue" points="554.46,-122.49 544.18,-125.05 553.81,-129.46 554.46,-122.49"/>
</g>
<!-- Node14&#45;&gt;Node3 -->
<g id="edge19" class="edge">
<title>Node14&#45;&gt;Node3</title>
<path fill="none" stroke="midnightblue" d="M1062.86,-168.47C992.4,-154.53 846.05,-126.91 721,-112 497.98,-85.41 229.56,-72.9 122.95,-68.7"/>
<polygon fill="midnightblue" stroke="midnightblue" points="122.97,-65.2 112.84,-68.3 122.7,-72.19 122.97,-65.2"/>
</g>
<!-- Node14&#45;&gt;Node5 -->
<g id="edge20" class="edge">
<title>Node14&#45;&gt;Node5</title>
<path fill="none" stroke="midnightblue" d="M1125.44,-168.44C1146.67,-159.56 1180.1,-145.56 1204.25,-135.45"/>
<polygon fill="midnightblue" stroke="midnightblue" points="1205.78,-138.61 1213.66,-131.52 1203.08,-132.15 1205.78,-138.61"/>
</g>
<!-- Node14&#45;&gt;Node6 -->
<g id="edge17" class="edge">
<title>Node14&#45;&gt;Node6</title>
<path fill="none" stroke="midnightblue" d="M1098.2,-168.47C1088.75,-155.53 1074.01,-130.46 1085,-112 1095.47,-94.41 1115.48,-83.28 1133.22,-76.48"/>
<polygon fill="midnightblue" stroke="midnightblue" points="1134.49,-79.75 1142.77,-73.14 1132.18,-73.14 1134.49,-79.75"/>
</g>
<!-- Node14&#45;&gt;Node10 -->
<g id="edge21" class="edge">
<title>Node14&#45;&gt;Node10</title>
<path fill="none" stroke="midnightblue" d="M1086.87,-168.37C1046.48,-149.13 948.86,-102.65 901.16,-79.93"/>
<polygon fill="midnightblue" stroke="midnightblue" points="902.58,-76.73 892.04,-75.59 899.57,-83.05 902.58,-76.73"/>
</g>
<!-- Node15 -->
<g id="node15" class="node">
<title>Node15</title>
<g id="a_node15"><a xlink:title=" ">
<polygon fill="none" stroke="#bfbfbf" points="1094,-112.5 1094,-131.5 1146,-131.5 1146,-112.5 1094,-112.5"/>
<text text-anchor="middle" x="1120" y="-119.5" font-family="Helvetica,sans-Serif" font-size="10.00">cassert</text>
</a>
</g>
</g>
<!-- Node14&#45;&gt;Node15 -->
<g id="edge16" class="edge">
<title>Node14&#45;&gt;Node15</title>
<path fill="none" stroke="midnightblue" d="M1107.48,-168.08C1109.49,-160.85 1112.39,-150.41 1114.89,-141.4"/>
<polygon fill="midnightblue" stroke="midnightblue" points="1118.26,-142.32 1117.57,-131.75 1111.52,-140.45 1118.26,-142.32"/>
</g>
<!-- Node16&#45;&gt;Node3 -->
<g id="edge25" class="edge">
<title>Node16&#45;&gt;Node3</title>
<path fill="none" stroke="midnightblue" d="M293.51,-280.5C268.44,-273.29 234.41,-261.35 208,-244 150.2,-206.04 136.76,-190.57 100,-132 90.91,-117.51 84.51,-99.07 80.62,-85.53"/>
<polygon fill="midnightblue" stroke="midnightblue" points="83.91,-84.26 77.94,-75.51 77.14,-86.07 83.91,-84.26"/>
</g>
<!-- Node16&#45;&gt;Node6 -->
<g id="edge24" class="edge">
<title>Node16&#45;&gt;Node6</title>
<path fill="none" stroke="midnightblue" d="M330.19,-280.36C333.81,-267.27 341.96,-242.01 355,-224 400.92,-160.58 417.78,-139.76 491,-112 622.12,-62.28 981.83,-93.22 1121,-76 1124.77,-75.53 1128.69,-74.95 1132.58,-74.3"/>
<polygon fill="midnightblue" stroke="midnightblue" points="1133.51,-77.69 1142.73,-72.47 1132.27,-70.8 1133.51,-77.69"/>
</g>
<!-- Node16&#45;&gt;Node10 -->
<g id="edge40" class="edge">
<title>Node16&#45;&gt;Node10</title>
<path fill="none" stroke="midnightblue" d="M316.64,-280.19C306.66,-271.88 292.45,-258.55 284,-244 271,-221.62 271.59,-213.63 268,-188 262.76,-150.6 273.36,-130.99 306,-112 346.68,-88.34 640.77,-74.99 789.03,-69.69"/>
<polygon fill="midnightblue" stroke="midnightblue" points="789.57,-73.18 799.44,-69.33 789.32,-66.18 789.57,-73.18"/>
</g>
<!-- Node17 -->
<g id="node17" class="node">
<title>Node17</title>
<g id="a_node17"><a xlink:title=" ">
<polygon fill="none" stroke="#bfbfbf" points="364,-224.5 364,-243.5 406,-243.5 406,-224.5 364,-224.5"/>
<text text-anchor="middle" x="385" y="-231.5" font-family="Helvetica,sans-Serif" font-size="10.00">array</text>
</a>
</g>
</g>
<!-- Node16&#45;&gt;Node17 -->
<g id="edge23" class="edge">
<title>Node16&#45;&gt;Node17</title>
<path fill="none" stroke="midnightblue" d="M337.16,-280.32C345.5,-272.42 358.03,-260.55 368.18,-250.94"/>
<polygon fill="midnightblue" stroke="midnightblue" points="370.82,-253.25 375.68,-243.83 366.01,-248.17 370.82,-253.25"/>
</g>
<!-- Node18 -->
<g id="node18" class="node">
<title>Node18</title>
<g id="a_node18"><a xlink:href="TypeWrapper_8h.html" target="_top" xlink:title=" ">
<polygon fill="none" stroke="black" points="876,-224.5 876,-243.5 1034,-243.5 1034,-224.5 876,-224.5"/>
<text text-anchor="middle" x="955" y="-231.5" font-family="Helvetica,sans-Serif" font-size="10.00">open62541pp/TypeWrapper.h</text>
</a>
</g>
</g>
<!-- Node16&#45;&gt;Node18 -->
<g id="edge26" class="edge">
<title>Node16&#45;&gt;Node18</title>
<path fill="none" stroke="midnightblue" d="M406.14,-282.27C523.01,-272.21 742.7,-253.28 865.73,-242.69"/>
<polygon fill="midnightblue" stroke="midnightblue" points="866.21,-246.16 875.87,-241.81 865.61,-239.19 866.21,-246.16"/>
</g>
<!-- Node18&#45;&gt;Node5 -->
<g id="edge31" class="edge">
<title>Node18&#45;&gt;Node5</title>
<path fill="none" stroke="midnightblue" d="M1034.18,-225.04C1093.42,-217.82 1168.43,-205.59 1194,-188 1210.34,-176.76 1221.25,-156.44 1227.49,-141.51"/>
<polygon fill="midnightblue" stroke="midnightblue" points="1230.9,-142.38 1231.22,-131.79 1224.37,-139.87 1230.9,-142.38"/>
</g>
<!-- Node18&#45;&gt;Node6 -->
<g id="edge28" class="edge">
<title>Node18&#45;&gt;Node6</title>
<path fill="none" stroke="midnightblue" d="M962.01,-224.45C979.7,-203.27 1028.28,-147.53 1078,-112 1096.23,-98.97 1118.78,-87.71 1136.75,-79.7"/>
<polygon fill="midnightblue" stroke="midnightblue" points="1138.42,-82.79 1146.2,-75.6 1135.64,-76.37 1138.42,-82.79"/>
</g>
<!-- Node18&#45;&gt;Node9 -->
<g id="edge29" class="edge">
<title>Node18&#45;&gt;Node9</title>
<path fill="none" stroke="midnightblue" d="M909.17,-224.48C879.89,-217.65 841.93,-206.15 812,-188 774.34,-165.16 685.37,-67.55 649.94,-27.87"/>
<polygon fill="midnightblue" stroke="midnightblue" points="652.13,-25.06 642.86,-19.92 646.9,-29.72 652.13,-25.06"/>
</g>
<!-- Node18&#45;&gt;Node10 -->
<g id="edge39" class="edge">
<title>Node18&#45;&gt;Node10</title>
<path fill="none" stroke="midnightblue" d="M880.96,-224.49C858.7,-218.07 836.6,-207 823,-188 798.8,-154.19 834.97,-107.14 857.77,-82.88"/>
<polygon fill="midnightblue" stroke="midnightblue" points="860.41,-85.18 864.88,-75.57 855.4,-80.29 860.41,-85.18"/>
</g>
<!-- Node18&#45;&gt;Node14 -->
<g id="edge38" class="edge">
<title>Node18&#45;&gt;Node14</title>
<path fill="none" stroke="midnightblue" d="M978.77,-224.44C1003.89,-215.4 1043.71,-201.06 1071.9,-190.92"/>
<polygon fill="midnightblue" stroke="midnightblue" points="1073.12,-194.2 1081.34,-187.52 1070.75,-187.61 1073.12,-194.2"/>
</g>
<!-- Node18&#45;&gt;Node15 -->
<g id="edge27" class="edge">
<title>Node18&#45;&gt;Node15</title>
<path fill="none" stroke="midnightblue" d="M1034.13,-227.37C1090.37,-221.54 1158.98,-210.03 1177,-188 1191.8,-169.9 1167.49,-149.77 1146.18,-136.77"/>
<polygon fill="midnightblue" stroke="midnightblue" points="1147.77,-133.64 1137.36,-131.67 1144.26,-139.7 1147.77,-133.64"/>
</g>
<!-- Node19 -->
<g id="node19" class="node">
<title>Node19</title>
<g id="a_node19"><a xlink:title=" ">
<polygon fill="none" stroke="#bfbfbf" points="1262.5,-168.5 1262.5,-187.5 1307.5,-187.5 1307.5,-168.5 1262.5,-168.5"/>
<text text-anchor="middle" x="1285" y="-175.5" font-family="Helvetica,sans-Serif" font-size="10.00">utility</text>
</a>
</g>
</g>
<!-- Node18&#45;&gt;Node19 -->
<g id="edge30" class="edge">
<title>Node18&#45;&gt;Node19</title>
<path fill="none" stroke="midnightblue" d="M1021.32,-224.48C1080.9,-216.42 1170.63,-203.32 1248,-188 1249.46,-187.71 1250.95,-187.4 1252.45,-187.08"/>
<polygon fill="midnightblue" stroke="midnightblue" points="1253.39,-190.46 1262.37,-184.83 1251.84,-183.63 1253.39,-190.46"/>
</g>
<!-- Node20 -->
<g id="node20" class="node">
<title>Node20</title>
<g id="a_node20"><a xlink:href="Comparison_8h.html" target="_top" xlink:title=" ">
<polygon fill="none" stroke="black" points="832.5,-168.5 832.5,-187.5 985.5,-187.5 985.5,-168.5 832.5,-168.5"/>
<text text-anchor="middle" x="909" y="-175.5" font-family="Helvetica,sans-Serif" font-size="10.00">open62541pp/Comparison.h</text>
</a>
</g>
</g>
<!-- Node18&#45;&gt;Node20 -->
<g id="edge32" class="edge">
<title>Node18&#45;&gt;Node20</title>
<path fill="none" stroke="midnightblue" d="M947.4,-224.08C940.77,-216.3 930.98,-204.8 922.94,-195.37"/>
<polygon fill="midnightblue" stroke="midnightblue" points="925.6,-193.09 916.45,-187.75 920.27,-197.63 925.6,-193.09"/>
</g>
<!-- Node21 -->
<g id="node21" class="node">
<title>Node21</title>
<g id="a_node21"><a xlink:href="ErrorHandling_8h.html" target="_top" xlink:title=" ">
<polygon fill="none" stroke="black" points="538.5,-168.5 538.5,-187.5 699.5,-187.5 699.5,-168.5 538.5,-168.5"/>
<text text-anchor="middle" x="619" y="-175.5" font-family="Helvetica,sans-Serif" font-size="10.00">open62541pp/ErrorHandling.h</text>
</a>
</g>
</g>
<!-- Node18&#45;&gt;Node21 -->
<g id="edge34" class="edge">
<title>Node18&#45;&gt;Node21</title>
<path fill="none" stroke="midnightblue" d="M901.76,-224.44C842.04,-214.85 745.26,-199.29 681.87,-189.1"/>
<polygon fill="midnightblue" stroke="midnightblue" points="682.42,-185.65 671.99,-187.52 681.31,-192.56 682.42,-185.65"/>
</g>
<!-- Node20&#45;&gt;Node10 -->
<g id="edge33" class="edge">
<title>Node20&#45;&gt;Node10</title>
<path fill="none" stroke="midnightblue" d="M906.25,-168.37C900.58,-150.54 887.46,-109.3 879.81,-85.27"/>
<polygon fill="midnightblue" stroke="midnightblue" points="883.1,-84.06 876.73,-75.59 876.43,-86.18 883.1,-84.06"/>
</g>
<!-- Node21&#45;&gt;Node2 -->
<g id="edge36" class="edge">
<title>Node21&#45;&gt;Node2</title>
<path fill="none" stroke="midnightblue" d="M603.42,-168.32C588,-159.74 564.19,-146.49 546.29,-136.52"/>
<polygon fill="midnightblue" stroke="midnightblue" points="547.99,-133.46 537.55,-131.65 544.58,-139.58 547.99,-133.46"/>
</g>
<!-- Node21&#45;&gt;Node10 -->
<g id="edge37" class="edge">
<title>Node21&#45;&gt;Node10</title>
<path fill="none" stroke="midnightblue" d="M618.85,-168.38C619.12,-154.35 621.81,-126.7 638,-112 660.04,-91.98 730.87,-80.3 789.23,-73.88"/>
<polygon fill="midnightblue" stroke="midnightblue" points="789.65,-77.35 799.23,-72.81 788.91,-70.39 789.65,-77.35"/>
</g>
<!-- Node22 -->
<g id="node22" class="node">
<title>Node22</title>
<g id="a_node22"><a xlink:title=" ">
<polygon fill="none" stroke="#bfbfbf" points="647.5,-112.5 647.5,-131.5 712.5,-131.5 712.5,-112.5 647.5,-112.5"/>
<text text-anchor="middle" x="680" y="-119.5" font-family="Helvetica,sans-Serif" font-size="10.00">stdexcept</text>
</a>
</g>
</g>
<!-- Node21&#45;&gt;Node22 -->
<g id="edge35" class="edge">
<title>Node21&#45;&gt;Node22</title>
<path fill="none" stroke="midnightblue" d="M628.8,-168.32C637.82,-160.34 651.41,-148.31 662.32,-138.65"/>
<polygon fill="midnightblue" stroke="midnightblue" points="664.85,-141.08 670.02,-131.83 660.21,-135.84 664.85,-141.08"/>
</g>
<!-- Node23&#45;&gt;Node6 -->
<g id="edge42" class="edge">
<title>Node23&#45;&gt;Node6</title>
<path fill="none" stroke="midnightblue" d="M1487.84,-449.76C1521.76,-443.62 1559.44,-432.41 1589,-412 1659.88,-363.07 1671.59,-302.43 1636,-224 1604.76,-155.16 1576.86,-143.18 1508,-112 1454.12,-87.6 1279.12,-73.97 1203.43,-69.09"/>
<polygon fill="midnightblue" stroke="midnightblue" points="1203.63,-65.6 1193.43,-68.46 1203.19,-72.58 1203.63,-65.6"/>
</g>
<!-- Node23&#45;&gt;Node10 -->
<g id="edge46" class="edge">
<title>Node23&#45;&gt;Node10</title>
<path fill="none" stroke="midnightblue" d="M1415.12,-448.44C1428.3,-440.38 1447.24,-427.3 1460,-412 1477.83,-390.64 1479.94,-382.63 1488,-356 1512.93,-273.67 1499.16,-232.28 1442,-168 1413.64,-136.11 1403.98,-126.92 1364,-112 1354.63,-108.5 1096.64,-86.03 958.87,-74.23"/>
<polygon fill="midnightblue" stroke="midnightblue" points="959.02,-70.73 948.76,-73.36 958.43,-77.7 959.02,-70.73"/>
</g>
<!-- Node23&#45;&gt;Node18 -->
<g id="edge45" class="edge">
<title>Node23&#45;&gt;Node18</title>
<path fill="none" stroke="midnightblue" d="M1398.39,-448.22C1393.62,-423.12 1378.84,-351.84 1362,-336 1336.21,-311.74 1114.62,-266.03 1009.68,-245.48"/>
<polygon fill="midnightblue" stroke="midnightblue" points="1010.08,-241.99 999.6,-243.51 1008.74,-248.86 1010.08,-241.99"/>
</g>
<!-- Node23&#45;&gt;Node19 -->
<g id="edge44" class="edge">
<title>Node23&#45;&gt;Node19</title>
<path fill="none" stroke="midnightblue" d="M1408.69,-448.2C1432.46,-423.06 1495.64,-348.33 1479,-280 1472.37,-252.77 1471.8,-241.62 1450,-224 1411.64,-193 1353.59,-183.29 1317.56,-180.28"/>
<polygon fill="midnightblue" stroke="midnightblue" points="1317.79,-176.79 1307.57,-179.58 1317.3,-183.77 1317.79,-176.79"/>
</g>
<!-- Node24 -->
<g id="node24" class="node">
<title>Node24</title>
<g id="a_node24"><a xlink:title=" ">
<polygon fill="none" stroke="#bfbfbf" points="1297,-336.5 1297,-355.5 1353,-355.5 1353,-336.5 1297,-336.5"/>
<text text-anchor="middle" x="1325" y="-343.5" font-family="Helvetica,sans-Serif" font-size="10.00">optional</text>
</a>
</g>
</g>
<!-- Node23&#45;&gt;Node24 -->
<g id="edge43" class="edge">
<title>Node23&#45;&gt;Node24</title>
<path fill="none" stroke="midnightblue" d="M1393.52,-448.48C1386.75,-439.51 1375.9,-424.92 1367,-412 1355.96,-395.97 1343.97,-377.27 1335.63,-364.06"/>
<polygon fill="midnightblue" stroke="midnightblue" points="1338.56,-362.13 1330.28,-355.52 1332.63,-365.85 1338.56,-362.13"/>
</g>
<!-- Node25 -->
<g id="node25" class="node">
<title>Node25</title>
<g id="a_node25"><a xlink:href="DateTime_8h.html" target="_top" xlink:title=" ">
<polygon fill="none" stroke="black" points="1297.5,-280.5 1297.5,-299.5 1470.5,-299.5 1470.5,-280.5 1297.5,-280.5"/>
<text text-anchor="middle" x="1384" y="-287.5" font-family="Helvetica,sans-Serif" font-size="10.00">open62541pp/types/DateTime.h</text>
</a>
</g>
</g>
<!-- Node23&#45;&gt;Node25 -->
<g id="edge47" class="edge">
<title>Node23&#45;&gt;Node25</title>
<path fill="none" stroke="midnightblue" d="M1400.23,-448.44C1400.63,-428.57 1400.92,-377.84 1395,-336 1393.75,-327.13 1391.5,-317.46 1389.36,-309.37"/>
<polygon fill="midnightblue" stroke="midnightblue" points="1392.68,-308.22 1386.62,-299.53 1385.94,-310.1 1392.68,-308.22"/>
</g>
<!-- Node23&#45;&gt;Node28 -->
<g id="edge53" class="edge">
<title>Node23&#45;&gt;Node28</title>
<path fill="none" stroke="midnightblue" d="M1343.12,-448.44C1279.18,-438.83 1175.48,-423.23 1107.75,-413.04"/>
<polygon fill="midnightblue" stroke="midnightblue" points="1108.03,-409.54 1097.62,-411.52 1106.99,-416.47 1108.03,-409.54"/>
</g>
<!-- Node25&#45;&gt;Node6 -->
<g id="edge49" class="edge">
<title>Node25&#45;&gt;Node6</title>
<path fill="none" stroke="midnightblue" d="M1403.67,-280.42C1418.58,-272.91 1438.42,-260.61 1450,-244 1483.73,-195.6 1502.45,-156.74 1464,-112 1430.81,-73.38 1275.02,-67.52 1203.75,-66.89"/>
<polygon fill="midnightblue" stroke="midnightblue" points="1203.49,-63.39 1193.47,-66.83 1203.45,-70.39 1203.49,-63.39"/>
</g>
<!-- Node25&#45;&gt;Node10 -->
<g id="edge52" class="edge">
<title>Node25&#45;&gt;Node10</title>
<path fill="none" stroke="midnightblue" d="M1383.6,-280.12C1383.37,-267.15 1384.27,-242.56 1393,-224 1405.3,-197.86 1441.27,-192.52 1426,-168 1396.15,-120.09 1366.26,-127.57 1312,-112 1278.98,-102.52 1076.37,-84.17 958.62,-74.07"/>
<polygon fill="midnightblue" stroke="midnightblue" points="958.8,-70.58 948.54,-73.21 958.21,-77.55 958.8,-70.58"/>
</g>
<!-- Node25&#45;&gt;Node18 -->
<g id="edge51" class="edge">
<title>Node25&#45;&gt;Node18</title>
<path fill="none" stroke="midnightblue" d="M1316.02,-280.44C1238.99,-270.75 1113.66,-254.97 1032.78,-244.79"/>
<polygon fill="midnightblue" stroke="midnightblue" points="1033.02,-241.29 1022.66,-243.52 1032.14,-248.24 1033.02,-241.29"/>
</g>
<!-- Node26 -->
<g id="node26" class="node">
<title>Node26</title>
<g id="a_node26"><a xlink:title=" ">
<polygon fill="none" stroke="#bfbfbf" points="1288,-224.5 1288,-243.5 1338,-243.5 1338,-224.5 1288,-224.5"/>
<text text-anchor="middle" x="1313" y="-231.5" font-family="Helvetica,sans-Serif" font-size="10.00">chrono</text>
</a>
</g>
</g>
<!-- Node25&#45;&gt;Node26 -->
<g id="edge48" class="edge">
<title>Node25&#45;&gt;Node26</title>
<path fill="none" stroke="midnightblue" d="M1372.59,-280.32C1361.89,-272.18 1345.66,-259.84 1332.84,-250.09"/>
<polygon fill="midnightblue" stroke="midnightblue" points="1334.69,-247.1 1324.61,-243.83 1330.46,-252.67 1334.69,-247.1"/>
</g>
<!-- Node27 -->
<g id="node27" class="node">
<title>Node27</title>
<g id="a_node27"><a xlink:title=" ">
<polygon fill="none" stroke="#bfbfbf" points="1402.5,-224.5 1402.5,-243.5 1441.5,-243.5 1441.5,-224.5 1402.5,-224.5"/>
<text text-anchor="middle" x="1422" y="-231.5" font-family="Helvetica,sans-Serif" font-size="10.00">ratio</text>
</a>
</g>
</g>
<!-- Node25&#45;&gt;Node27 -->
<g id="edge50" class="edge">
<title>Node25&#45;&gt;Node27</title>
<path fill="none" stroke="midnightblue" d="M1390.27,-280.08C1395.64,-272.46 1403.52,-261.26 1410.08,-251.94"/>
<polygon fill="midnightblue" stroke="midnightblue" points="1412.95,-253.94 1415.84,-243.75 1407.22,-249.91 1412.95,-253.94"/>
</g>
<!-- Node28&#45;&gt;Node4 -->
<g id="edge58" class="edge">
<title>Node28&#45;&gt;Node4</title>
<path fill="none" stroke="midnightblue" d="M961.09,-397.9C856.95,-393.02 669.43,-381.35 511,-356 509.54,-355.77 508.04,-355.51 506.54,-355.23"/>
<polygon fill="midnightblue" stroke="midnightblue" points="507.11,-351.77 496.61,-353.16 505.69,-358.62 507.11,-351.77"/>
</g>
<!-- Node28&#45;&gt;Node5 -->
<g id="edge59" class="edge">
<title>Node28&#45;&gt;Node5</title>
<path fill="none" stroke="midnightblue" d="M1054.07,-392.21C1067.29,-383.26 1088.24,-368.91 1106,-356 1184.22,-299.13 1199.17,-278.59 1279,-224 1304.36,-206.66 1322.96,-214.79 1338,-188 1352.89,-161.47 1318.76,-144.3 1285.69,-134.32"/>
<polygon fill="midnightblue" stroke="midnightblue" points="1286.55,-130.92 1275.97,-131.57 1284.64,-137.66 1286.55,-130.92"/>
</g>
<!-- Node28&#45;&gt;Node6 -->
<g id="edge55" class="edge">
<title>Node28&#45;&gt;Node6</title>
<path fill="none" stroke="midnightblue" d="M1070.87,-392.41C1117.14,-379.26 1209.06,-353.8 1288,-336 1372.27,-317 1418.48,-361.64 1479,-300 1537.57,-240.35 1546.63,-168.48 1485,-112 1444.48,-74.86 1277.37,-68.25 1203.45,-67.16"/>
<polygon fill="midnightblue" stroke="midnightblue" points="1203.29,-63.66 1193.24,-67.04 1203.2,-70.66 1203.29,-63.66"/>
</g>
<!-- Node28&#45;&gt;Node10 -->
<g id="edge76" class="edge">
<title>Node28&#45;&gt;Node10</title>
<path fill="none" stroke="midnightblue" d="M961.41,-399.78C874.66,-396.8 732.43,-387.07 614,-356 583.67,-348.04 372.22,-270.2 355,-244 309.59,-174.89 268.79,-206.98 475,-112 529.17,-87.05 689.21,-75.35 789.37,-70.33"/>
<polygon fill="midnightblue" stroke="midnightblue" points="789.65,-73.82 799.47,-69.84 789.31,-66.83 789.65,-73.82"/>
</g>
<!-- Node28&#45;&gt;Node14 -->
<g id="edge61" class="edge">
<title>Node28&#45;&gt;Node14</title>
<path fill="none" stroke="midnightblue" d="M1043.51,-392.3C1052.95,-359.56 1086.44,-243.38 1099.62,-197.67"/>
<polygon fill="midnightblue" stroke="midnightblue" points="1103.03,-198.46 1102.44,-187.88 1096.31,-196.52 1103.03,-198.46"/>
</g>
<!-- Node28&#45;&gt;Node15 -->
<g id="edge54" class="edge">
<title>Node28&#45;&gt;Node15</title>
<path fill="none" stroke="midnightblue" d="M1048.52,-392.14C1072.65,-364.16 1151.25,-276.46 1232,-224 1266.06,-201.87 1293.64,-221.91 1316,-188 1372.42,-102.44 1402.46,-189.31 1156.36,-132.24"/>
<polygon fill="midnightblue" stroke="midnightblue" points="1156.89,-128.76 1146.35,-129.87 1155.28,-135.58 1156.89,-128.76"/>
</g>
<!-- Node28&#45;&gt;Node18 -->
<g id="edge75" class="edge">
<title>Node28&#45;&gt;Node18</title>
<path fill="none" stroke="midnightblue" d="M1036.38,-392.08C1022.72,-365.72 982.39,-287.88 964.15,-252.66"/>
<polygon fill="midnightblue" stroke="midnightblue" points="967.15,-250.84 959.44,-243.57 960.93,-254.06 967.15,-250.84"/>
</g>
<!-- Node28&#45;&gt;Node21 -->
<g id="edge60" class="edge">
<title>Node28&#45;&gt;Node21</title>
<path fill="none" stroke="midnightblue" d="M961.47,-396.99C837.96,-388.78 609.75,-364.97 567,-300 544.19,-265.34 579.85,-219.01 602.55,-194.98"/>
<polygon fill="midnightblue" stroke="midnightblue" points="605.15,-197.32 609.65,-187.73 600.15,-192.43 605.15,-197.32"/>
</g>
<!-- Node28&#45;&gt;Node24 -->
<g id="edge57" class="edge">
<title>Node28&#45;&gt;Node24</title>
<path fill="none" stroke="midnightblue" d="M1089.29,-392.42C1138.18,-383.64 1215.95,-369.41 1283,-356 1284.23,-355.75 1285.49,-355.5 1286.75,-355.24"/>
<polygon fill="midnightblue" stroke="midnightblue" points="1287.48,-358.67 1296.56,-353.2 1286.05,-351.81 1287.48,-358.67"/>
</g>
<!-- Node29 -->
<g id="node29" class="node">
<title>Node29</title>
<g id="a_node29"><a xlink:title=" ">
<polygon fill="none" stroke="#bfbfbf" points="576.5,-280.5 576.5,-299.5 629.5,-299.5 629.5,-280.5 576.5,-280.5"/>
<text text-anchor="middle" x="603" y="-287.5" font-family="Helvetica,sans-Serif" font-size="10.00">iterator</text>
</a>
</g>
</g>
<!-- Node28&#45;&gt;Node29 -->
<g id="edge56" class="edge">
<title>Node28&#45;&gt;Node29</title>
<path fill="none" stroke="midnightblue" d="M961.23,-393.59C903.68,-386.98 824.56,-375.3 757,-356 710.37,-342.68 659,-319.05 628.94,-304.25"/>
<polygon fill="midnightblue" stroke="midnightblue" points="630.12,-300.92 619.6,-299.6 626.99,-307.19 630.12,-300.92"/>
</g>
<!-- Node30 -->
<g id="node30" class="node">
<title>Node30</title>
<g id="a_node30"><a xlink:href="TypeConverter_8h.html" target="_top" xlink:title=" ">
<polygon fill="none" stroke="black" points="766,-336.5 766,-355.5 930,-355.5 930,-336.5 766,-336.5"/>
<text text-anchor="middle" x="848" y="-343.5" font-family="Helvetica,sans-Serif" font-size="10.00">open62541pp/TypeConverter.h</text>
</a>
</g>
</g>
<!-- Node28&#45;&gt;Node30 -->
<g id="edge62" class="edge">
<title>Node28&#45;&gt;Node30</title>
<path fill="none" stroke="midnightblue" d="M1010.42,-392.44C977.39,-383.2 924.61,-368.44 888.23,-358.26"/>
<polygon fill="midnightblue" stroke="midnightblue" points="889.01,-354.84 878.44,-355.52 887.13,-361.58 889.01,-354.84"/>
</g>
<!-- Node30&#45;&gt;Node2 -->
<g id="edge66" class="edge">
<title>Node30&#45;&gt;Node2</title>
<path fill="none" stroke="midnightblue" d="M836.41,-336.48C818.2,-323.33 781.49,-297.73 748,-280 654.7,-230.59 592.06,-272.67 529,-188 519.16,-174.78 518.23,-155.65 519.27,-141.56"/>
<polygon fill="midnightblue" stroke="midnightblue" points="522.75,-141.89 520.39,-131.56 515.8,-141.11 522.75,-141.89"/>
</g>
<!-- Node30&#45;&gt;Node5 -->
<g id="edge68" class="edge">
<title>Node30&#45;&gt;Node5</title>
<path fill="none" stroke="midnightblue" d="M876.33,-336.49C975.6,-306.56 1302.43,-206.88 1316,-188 1332.19,-165.47 1299.88,-146.69 1271.17,-135.2"/>
<polygon fill="midnightblue" stroke="midnightblue" points="1272.24,-131.86 1261.65,-131.59 1269.76,-138.41 1272.24,-131.86"/>
</g>
<!-- Node30&#45;&gt;Node8 -->
<g id="edge71" class="edge">
<title>Node30&#45;&gt;Node8</title>
<path fill="none" stroke="midnightblue" d="M843.07,-336.38C828.18,-309.14 786.9,-223.38 823,-168 857.85,-114.54 928.08,-89.18 981.62,-77.27"/>
<polygon fill="midnightblue" stroke="midnightblue" points="982.36,-80.69 991.42,-75.2 980.91,-73.84 982.36,-80.69"/>
</g>
<!-- Node30&#45;&gt;Node9 -->
<g id="edge67" class="edge">
<title>Node30&#45;&gt;Node9</title>
<path fill="none" stroke="midnightblue" d="M816.12,-336.49C787.73,-328.47 745.34,-315.41 710,-300 693.22,-292.68 691.02,-286.74 674,-280 613.06,-255.88 587.71,-276.85 531,-244 501.08,-226.67 490.51,-219.83 477,-188 463.8,-156.9 458.69,-141.59 475,-112 500.62,-65.52 557.63,-37.48 596.2,-23.12"/>
<polygon fill="midnightblue" stroke="midnightblue" points="597.83,-26.25 606.07,-19.59 595.47,-19.66 597.83,-26.25"/>
</g>
<!-- Node30&#45;&gt;Node10 -->
<g id="edge73" class="edge">
<title>Node30&#45;&gt;Node10</title>
<path fill="none" stroke="midnightblue" d="M827.91,-336.39C807.6,-327.59 775.38,-313.35 748,-300 730.85,-291.64 727.84,-286.78 710,-280 647.53,-256.26 620.72,-279.34 564,-244 507.1,-208.55 446.45,-162.09 491,-112 510.48,-90.1 682.49,-77.11 789.27,-71.08"/>
<polygon fill="midnightblue" stroke="midnightblue" points="789.6,-74.57 799.39,-70.52 789.21,-67.58 789.6,-74.57"/>
</g>
<!-- Node30&#45;&gt;Node14 -->
<g id="edge70" class="edge">
<title>Node30&#45;&gt;Node14</title>
<path fill="none" stroke="midnightblue" d="M870.13,-336.39C907.79,-321.13 985.81,-286.89 1043,-244 1061.8,-229.9 1079.96,-209.87 1091.71,-195.78"/>
<polygon fill="midnightblue" stroke="midnightblue" points="1094.54,-197.85 1098.15,-187.89 1089.11,-193.42 1094.54,-197.85"/>
</g>
<!-- Node30&#45;&gt;Node17 -->
<g id="edge63" class="edge">
<title>Node30&#45;&gt;Node17</title>
<path fill="none" stroke="midnightblue" d="M809.55,-336.45C775.55,-328.44 724.84,-315.43 682,-300 661.79,-292.72 658.51,-286.38 638,-280 596.99,-267.25 474.58,-248.23 416.39,-239.58"/>
<polygon fill="midnightblue" stroke="midnightblue" points="416.71,-236.09 406.31,-238.09 415.69,-243.01 416.71,-236.09"/>
</g>
<!-- Node30&#45;&gt;Node18 -->
<g id="edge72" class="edge">
<title>Node30&#45;&gt;Node18</title>
<path fill="none" stroke="midnightblue" d="M856.4,-336.37C874.29,-317.97 916.41,-274.67 939.39,-251.05"/>
<polygon fill="midnightblue" stroke="midnightblue" points="942.18,-253.2 946.64,-243.59 937.16,-248.32 942.18,-253.2"/>
</g>
<!-- Node30&#45;&gt;Node21 -->
<g id="edge69" class="edge">
<title>Node30&#45;&gt;Node21</title>
<path fill="none" stroke="midnightblue" d="M841,-336.3C830.13,-323.13 808.13,-297.77 786,-280 740.31,-243.32 680.14,-210.11 645.91,-192.42"/>
<polygon fill="midnightblue" stroke="midnightblue" points="647.06,-189.08 636.57,-187.64 643.88,-195.31 647.06,-189.08"/>
</g>
<!-- Node30&#45;&gt;Node25 -->
<g id="edge74" class="edge">
<title>Node30&#45;&gt;Node25</title>
<path fill="none" stroke="midnightblue" d="M930.28,-336.71C1027.13,-326.95 1187.62,-310.78 1289.49,-300.52"/>
<polygon fill="midnightblue" stroke="midnightblue" points="1289.86,-304 1299.46,-299.52 1289.16,-297.04 1289.86,-304"/>
</g>
<!-- Node30&#45;&gt;Node26 -->
<g id="edge64" class="edge">
<title>Node30&#45;&gt;Node26</title>
<path fill="none" stroke="midnightblue" d="M926.57,-336.48C983.81,-329.31 1062.92,-317.41 1131,-300 1186.12,-285.91 1248.06,-261.97 1283.61,-247.41"/>
<polygon fill="midnightblue" stroke="midnightblue" points="1285.01,-250.62 1292.91,-243.57 1282.33,-244.15 1285.01,-250.62"/>
</g>
<!-- Node30&#45;&gt;Node29 -->
<g id="edge65" class="edge">
<title>Node30&#45;&gt;Node29</title>
<path fill="none" stroke="midnightblue" d="M809.18,-336.44C762.61,-326.18 685.15,-309.11 639.59,-299.07"/>
<polygon fill="midnightblue" stroke="midnightblue" points="640.08,-295.59 629.56,-296.85 638.57,-302.42 640.08,-295.59"/>
</g>
<!-- Node31&#45;&gt;Node2 -->
<g id="edge79" class="edge">
<title>Node31&#45;&gt;Node2</title>
<path fill="none" stroke="midnightblue" d="M206.54,-336.13C212.22,-322.72 224.43,-297.07 241,-280 314.98,-203.77 434.02,-154.18 490.42,-133.7"/>
<polygon fill="midnightblue" stroke="midnightblue" points="491.63,-136.99 499.88,-130.33 489.28,-130.39 491.63,-136.99"/>
</g>
<!-- Node31&#45;&gt;Node3 -->
<g id="edge80" class="edge">
<title>Node31&#45;&gt;Node3</title>
<path fill="none" stroke="midnightblue" d="M136.22,-336.5C110.29,-330.18 82.06,-319.18 62,-300 39.74,-278.72 38,-265.8 38,-235 38,-235 38,-235 38,-177 38,-142.81 54.6,-105.76 65.86,-84.57"/>
<polygon fill="midnightblue" stroke="midnightblue" points="68.95,-86.22 70.72,-75.77 62.82,-82.83 68.95,-86.22"/>
</g>
<!-- Node31&#45;&gt;Node6 -->
<g id="edge78" class="edge">
<title>Node31&#45;&gt;Node6</title>
<path fill="none" stroke="midnightblue" d="M204.05,-336.42C205.95,-323.41 210.85,-298.27 222,-280 261.22,-215.74 439.52,-113.19 443,-112 585.79,-63.26 971.23,-94.23 1121,-76 1124.77,-75.54 1128.69,-74.96 1132.59,-74.31"/>
<polygon fill="midnightblue" stroke="midnightblue" points="1133.51,-77.7 1142.73,-72.49 1132.27,-70.81 1133.51,-77.7"/>
</g>
<!-- Node31&#45;&gt;Node10 -->
<g id="edge83" class="edge">
<title>Node31&#45;&gt;Node10</title>
<path fill="none" stroke="midnightblue" d="M156.71,-336.44C121.7,-327.45 81.75,-310.27 95,-280 139.15,-179.16 176.06,-155.91 277,-112 366.65,-73 646.89,-67.02 789.23,-66.59"/>
<polygon fill="midnightblue" stroke="midnightblue" points="789.24,-70.09 799.23,-66.57 789.22,-63.09 789.24,-70.09"/>
</g>
<!-- Node31&#45;&gt;Node16 -->
<g id="edge84" class="edge">
<title>Node31&#45;&gt;Node16</title>
<path fill="none" stroke="midnightblue" d="M222.81,-336.44C243.29,-327.6 275.48,-313.69 298.86,-303.59"/>
<polygon fill="midnightblue" stroke="midnightblue" points="300.49,-306.7 308.29,-299.52 297.72,-300.27 300.49,-306.7"/>
</g>
<!-- Node31&#45;&gt;Node18 -->
<g id="edge82" class="edge">
<title>Node31&#45;&gt;Node18</title>
<path fill="none" stroke="midnightblue" d="M245.73,-336.49C313.6,-323.18 450.3,-297.17 567,-280 668.93,-265 786.53,-251.96 865.3,-243.83"/>
<polygon fill="midnightblue" stroke="midnightblue" points="866.08,-247.27 875.67,-242.76 865.37,-240.3 866.08,-247.27"/>
</g>
<!-- Node32 -->
<g id="node32" class="node">
<title>Node32</title>
<g id="a_node32"><a xlink:title=" ">
<polygon fill="none" stroke="#bfbfbf" points="104.5,-280.5 104.5,-299.5 155.5,-299.5 155.5,-280.5 104.5,-280.5"/>
<text text-anchor="middle" x="130" y="-287.5" font-family="Helvetica,sans-Serif" font-size="10.00">variant</text>
</a>
</g>
</g>
<!-- Node31&#45;&gt;Node32 -->
<g id="edge81" class="edge">
<title>Node31&#45;&gt;Node32</title>
<path fill="none" stroke="midnightblue" d="M191.27,-336.32C180.16,-328.11 163.26,-315.6 150.02,-305.81"/>
<polygon fill="midnightblue" stroke="midnightblue" points="152.06,-302.97 141.94,-299.83 147.9,-308.59 152.06,-302.97"/>
</g>
</g>
</svg>
