<?xml version="1.0" encoding="UTF-8" standalone="no"?>
<!DOCTYPE svg PUBLIC "-//W3C//DTD SVG 1.1//EN"
 "http://www.w3.org/Graphics/SVG/1.1/DTD/svg11.dtd">
<!-- Generated by graphviz version 2.43.0 (0)
 -->
<!-- Title: /home/runner/work/open62541pp/open62541pp/include/open62541pp/types/Builtin.h Pages: 1 -->
<svg width="1168pt" height="346pt"
 viewBox="0.00 0.00 1168.00 346.00" xmlns="http://www.w3.org/2000/svg" xmlns:xlink="http://www.w3.org/1999/xlink">
<g id="graph0" class="graph" transform="scale(1 1) rotate(0) translate(4 342)">
<title>/home/runner/work/open62541pp/open62541pp/include/open62541pp/types/Builtin.h</title>
<!-- Node1 -->
<g id="Node000001" class="node">
<title>Node1</title>
<g id="a_Node000001"><a xlink:title=" ">
<polygon fill="#999999" stroke="#666666" points="599.5,-338 406.5,-338 406.5,-297 599.5,-297 599.5,-338"/>
<text text-anchor="start" x="414.5" y="-326" font-family="Helvetica,sans-Serif" font-size="10.00">/home/runner/work/open62541pp</text>
<text text-anchor="start" x="414.5" y="-315" font-family="Helvetica,sans-Serif" font-size="10.00">/open62541pp/include/open62541pp</text>
<text text-anchor="middle" x="503" y="-304" font-family="Helvetica,sans-Serif" font-size="10.00">/types/Builtin.h</text>
</a>
</g>
</g>
<!-- Node2 -->
<g id="Node000002" class="node">
<title>Node2</title>
<g id="a_Node000002"><a xlink:title=" ">
<polygon fill="#e0e0e0" stroke="#999999" points="211,-261 169,-261 169,-242 211,-242 211,-261"/>
<text text-anchor="middle" x="190" y="-249" font-family="Helvetica,sans-Serif" font-size="10.00">array</text>
</a>
</g>
</g>
<!-- Node1&#45;&gt;Node2 -->
<g id="edge1_Node000001_Node000002" class="edge">
<title>Node1&#45;&gt;Node2</title>
<g id="a_edge1_Node000001_Node000002"><a xlink:title=" ">
<path fill="none" stroke="#63b8ff" d="M406.3,-298.21C352.76,-287.83 285.07,-274.28 225,-261 223.73,-260.72 222.43,-260.43 221.13,-260.13"/>
<polygon fill="#63b8ff" stroke="#63b8ff" points="221.6,-256.65 211.07,-257.76 220,-263.46 221.6,-256.65"/>
</a>
</g>
</g>
<!-- Node3 -->
<g id="Node000003" class="node">
<title>Node3</title>
<g id="a_Node000003"><a xlink:title=" ">
<polygon fill="#e0e0e0" stroke="#999999" points="1160,-79.5 1110,-79.5 1110,-60.5 1160,-60.5 1160,-79.5"/>
<text text-anchor="middle" x="1135" y="-67.5" font-family="Helvetica,sans-Serif" font-size="10.00">cstdint</text>
</a>
</g>
</g>
<!-- Node1&#45;&gt;Node3 -->
<g id="edge2_Node000001_Node000003" class="edge">
<title>Node1&#45;&gt;Node3</title>
<g id="a_edge2_Node000001_Node000003"><a xlink:title=" ">
<path fill="none" stroke="#63b8ff" d="M599.57,-314.56C707.96,-308.3 885.45,-285.46 1014,-206 1053.21,-181.76 1064,-175 1094,-140 1107.56,-124.18 1119.26,-103.31 1126.66,-88.68"/>
<polygon fill="#63b8ff" stroke="#63b8ff" points="1129.8,-90.2 1131.05,-79.68 1123.52,-87.13 1129.8,-90.2"/>
</a>
</g>
</g>
<!-- Node4 -->
<g id="Node000004" class="node">
<title>Node4</title>
<g id="a_Node000004"><a xlink:title=" ">
<polygon fill="#e0e0e0" stroke="#999999" points="411,-261 363,-261 363,-242 411,-242 411,-261"/>
<text text-anchor="middle" x="387" y="-249" font-family="Helvetica,sans-Serif" font-size="10.00">iosfwd</text>
</a>
</g>
</g>
<!-- Node1&#45;&gt;Node4 -->
<g id="edge3_Node000001_Node000004" class="edge">
<title>Node1&#45;&gt;Node4</title>
<g id="a_edge3_Node000001_Node000004"><a xlink:title=" ">
<path fill="none" stroke="#63b8ff" d="M467.57,-296.95C449.41,-286.93 427.76,-274.99 411.47,-266"/>
<polygon fill="#63b8ff" stroke="#63b8ff" points="413.02,-262.86 402.57,-261.09 409.64,-268.99 413.02,-262.86"/>
</a>
</g>
</g>
<!-- Node5 -->
<g id="Node000005" class="node">
<title>Node5</title>
<g id="a_Node000005"><a xlink:title=" ">
<polygon fill="#e0e0e0" stroke="#999999" points="554,-140 510,-140 510,-121 554,-121 554,-140"/>
<text text-anchor="middle" x="532" y="-128" font-family="Helvetica,sans-Serif" font-size="10.00">string</text>
</a>
</g>
</g>
<!-- Node1&#45;&gt;Node5 -->
<g id="edge4_Node000001_Node000005" class="edge">
<title>Node1&#45;&gt;Node5</title>
<g id="a_edge4_Node000001_Node000005"><a xlink:title=" ">
<path fill="none" stroke="#63b8ff" d="M498.5,-296.71C493.09,-268.85 486.44,-216.91 501,-176 504.62,-165.84 511.21,-155.86 517.38,-147.94"/>
<polygon fill="#63b8ff" stroke="#63b8ff" points="520.08,-150.17 523.76,-140.23 514.69,-145.7 520.08,-150.17"/>
</a>
</g>
</g>
<!-- Node6 -->
<g id="Node000006" class="node">
<title>Node6</title>
<g id="a_Node000006"><a xlink:title=" ">
<polygon fill="#e0e0e0" stroke="#999999" points="1091.5,-79.5 1018.5,-79.5 1018.5,-60.5 1091.5,-60.5 1091.5,-79.5"/>
<text text-anchor="middle" x="1055" y="-67.5" font-family="Helvetica,sans-Serif" font-size="10.00">string_view</text>
</a>
</g>
</g>
<!-- Node1&#45;&gt;Node6 -->
<g id="edge5_Node000001_Node000006" class="edge">
<title>Node1&#45;&gt;Node6</title>
<g id="a_edge5_Node000001_Node000006"><a xlink:title=" ">
<path fill="none" stroke="#63b8ff" d="M599.96,-310.93C700.29,-301.43 858.5,-275.69 976,-206 1015.94,-182.31 1037.07,-181.94 1057,-140 1064.54,-124.13 1062.79,-103.8 1059.91,-89.33"/>
<polygon fill="#63b8ff" stroke="#63b8ff" points="1063.32,-88.52 1057.63,-79.58 1056.5,-90.11 1063.32,-88.52"/>
</a>
</g>
</g>
<!-- Node7 -->
<g id="Node000007" class="node">
<title>Node7</title>
<g id="a_Node000007"><a xlink:title=" ">
<polygon fill="#e0e0e0" stroke="#999999" points="552.5,-261 505.5,-261 505.5,-242 552.5,-242 552.5,-261"/>
<text text-anchor="middle" x="529" y="-249" font-family="Helvetica,sans-Serif" font-size="10.00">vector</text>
</a>
</g>
</g>
<!-- Node1&#45;&gt;Node7 -->
<g id="edge6_Node000001_Node000007" class="edge">
<title>Node1&#45;&gt;Node7</title>
<g id="a_edge6_Node000001_Node000007"><a xlink:title=" ">
<path fill="none" stroke="#63b8ff" d="M510.94,-296.95C514.34,-288.58 518.29,-278.85 521.63,-270.64"/>
<polygon fill="#63b8ff" stroke="#63b8ff" points="524.92,-271.84 525.44,-261.26 518.43,-269.21 524.92,-271.84"/>
</a>
</g>
</g>
<!-- Node8 -->
<g id="Node000008" class="node">
<title>Node8</title>
<g id="a_Node000008"><a xlink:title=" ">
<polygon fill="#e0e0e0" stroke="#999999" points="639,-261 571,-261 571,-242 639,-242 639,-261"/>
<text text-anchor="middle" x="605" y="-249" font-family="Helvetica,sans-Serif" font-size="10.00">filesystem</text>
</a>
</g>
</g>
<!-- Node1&#45;&gt;Node8 -->
<g id="edge7_Node000001_Node000008" class="edge">
<title>Node1&#45;&gt;Node8</title>
<g id="a_edge7_Node000001_Node000008"><a xlink:title=" ">
<path fill="none" stroke="#63b8ff" d="M534.16,-296.95C549.82,-287.12 568.45,-275.43 582.67,-266.51"/>
<polygon fill="#63b8ff" stroke="#63b8ff" points="584.7,-269.37 591.31,-261.09 580.98,-263.44 584.7,-269.37"/>
</a>
</g>
</g>
<!-- Node9 -->
<g id="Node000009" class="node">
<title>Node9</title>
<g id="a_Node000009"><a xlink:href="ErrorHandling_8h.html" target="_top" xlink:title=" ">
<polygon fill="white" stroke="#666666" points="448.5,-200.5 287.5,-200.5 287.5,-181.5 448.5,-181.5 448.5,-200.5"/>
<text text-anchor="middle" x="368" y="-188.5" font-family="Helvetica,sans-Serif" font-size="10.00">open62541pp/ErrorHandling.h</text>
</a>
</g>
</g>
<!-- Node1&#45;&gt;Node9 -->
<g id="edge8_Node000001_Node000009" class="edge">
<title>Node1&#45;&gt;Node9</title>
<g id="a_edge8_Node000001_Node000009"><a xlink:title=" ">
<path fill="none" stroke="#63b8ff" d="M481.61,-296.77C454.76,-272.01 409.26,-230.05 384.78,-207.47"/>
<polygon fill="#63b8ff" stroke="#63b8ff" points="387.06,-204.82 377.34,-200.61 382.32,-209.97 387.06,-204.82"/>
</a>
</g>
</g>
<!-- Node13 -->
<g id="Node000013" class="node">
<title>Node13</title>
<g id="a_Node000013"><a xlink:href="open62541_8h.html" target="_top" xlink:title=" ">
<polygon fill="white" stroke="#666666" points="454.5,-79.5 305.5,-79.5 305.5,-60.5 454.5,-60.5 454.5,-79.5"/>
<text text-anchor="middle" x="380" y="-67.5" font-family="Helvetica,sans-Serif" font-size="10.00">open62541pp/open62541.h</text>
</a>
</g>
</g>
<!-- Node1&#45;&gt;Node13 -->
<g id="edge42_Node000001_Node000013" class="edge">
<title>Node1&#45;&gt;Node13</title>
<g id="a_edge42_Node000001_Node000013"><a xlink:title=" ">
<path fill="none" stroke="#63b8ff" d="M406.28,-297.46C357.18,-282.04 302.79,-254.54 278,-206 268.57,-187.54 288.65,-121.47 289,-121 301.89,-103.42 322.91,-91.3 341.5,-83.39"/>
<polygon fill="#63b8ff" stroke="#63b8ff" points="342.94,-86.58 350.94,-79.64 340.36,-80.08 342.94,-86.58"/>
</a>
</g>
</g>
<!-- Node19 -->
<g id="Node000019" class="node">
<title>Node19</title>
<g id="a_Node000019"><a xlink:href="TypeWrapper_8h.html" target="_top" xlink:title=" ">
<polygon fill="white" stroke="#666666" points="832,-261 674,-261 674,-242 832,-242 832,-261"/>
<text text-anchor="middle" x="753" y="-249" font-family="Helvetica,sans-Serif" font-size="10.00">open62541pp/TypeWrapper.h</text>
</a>
</g>
</g>
<!-- Node1&#45;&gt;Node19 -->
<g id="edge19_Node000001_Node000019" class="edge">
<title>Node1&#45;&gt;Node19</title>
<g id="a_edge19_Node000001_Node000019"><a xlink:title=" ">
<path fill="none" stroke="#63b8ff" d="M579.37,-296.95C622.1,-286.01 673.83,-272.77 709.65,-263.6"/>
<polygon fill="#63b8ff" stroke="#63b8ff" points="710.95,-266.88 719.77,-261.01 709.21,-260.1 710.95,-266.88"/>
</a>
</g>
</g>
<!-- Node9&#45;&gt;Node5 -->
<g id="edge11_Node000009_Node000005" class="edge">
<title>Node9&#45;&gt;Node5</title>
<g id="a_edge11_Node000009_Node000005"><a xlink:title=" ">
<path fill="none" stroke="#63b8ff" d="M391.85,-181.49C420.46,-171.29 468.55,-154.13 500.28,-142.81"/>
<polygon fill="#63b8ff" stroke="#63b8ff" points="501.72,-146.02 509.96,-139.36 499.37,-139.42 501.72,-146.02"/>
</a>
</g>
</g>
<!-- Node10 -->
<g id="Node000010" class="node">
<title>Node10</title>
<g id="a_Node000010"><a xlink:title=" ">
<polygon fill="#e0e0e0" stroke="#999999" points="370.5,-140 305.5,-140 305.5,-121 370.5,-121 370.5,-140"/>
<text text-anchor="middle" x="338" y="-128" font-family="Helvetica,sans-Serif" font-size="10.00">functional</text>
</a>
</g>
</g>
<!-- Node9&#45;&gt;Node10 -->
<g id="edge9_Node000009_Node000010" class="edge">
<title>Node9&#45;&gt;Node10</title>
<g id="a_edge9_Node000009_Node000010"><a xlink:title=" ">
<path fill="none" stroke="#63b8ff" d="M363.57,-181.37C359.23,-172.9 352.48,-159.74 347.01,-149.07"/>
<polygon fill="#63b8ff" stroke="#63b8ff" points="350.12,-147.47 342.44,-140.17 343.89,-150.66 350.12,-147.47"/>
</a>
</g>
</g>
<!-- Node11 -->
<g id="Node000011" class="node">
<title>Node11</title>
<g id="a_Node000011"><a xlink:title=" ">
<polygon fill="#e0e0e0" stroke="#999999" points="453.5,-140 388.5,-140 388.5,-121 453.5,-121 453.5,-140"/>
<text text-anchor="middle" x="421" y="-128" font-family="Helvetica,sans-Serif" font-size="10.00">stdexcept</text>
</a>
</g>
</g>
<!-- Node9&#45;&gt;Node11 -->
<g id="edge10_Node000009_Node000011" class="edge">
<title>Node9&#45;&gt;Node11</title>
<g id="a_edge10_Node000009_Node000011"><a xlink:title=" ">
<path fill="none" stroke="#63b8ff" d="M375.82,-181.37C383.81,-172.55 396.39,-158.66 406.26,-147.77"/>
<polygon fill="#63b8ff" stroke="#63b8ff" points="409.03,-149.93 413.15,-140.17 403.84,-145.23 409.03,-149.93"/>
</a>
</g>
</g>
<!-- Node12 -->
<g id="Node000012" class="node">
<title>Node12</title>
<g id="a_Node000012"><a xlink:title=" ">
<polygon fill="#e0e0e0" stroke="#999999" points="808.5,-19 739.5,-19 739.5,0 808.5,0 808.5,-19"/>
<text text-anchor="middle" x="774" y="-7" font-family="Helvetica,sans-Serif" font-size="10.00">type_traits</text>
</a>
</g>
</g>
<!-- Node9&#45;&gt;Node12 -->
<g id="edge12_Node000009_Node000012" class="edge">
<title>Node9&#45;&gt;Node12</title>
<g id="a_edge12_Node000009_Node000012"><a xlink:title=" ">
<path fill="none" stroke="#63b8ff" d="M384.06,-181.43C414.18,-165.39 478.2,-131.5 501,-121 586.12,-81.8 689.29,-42.09 741.04,-22.69"/>
<polygon fill="#63b8ff" stroke="#63b8ff" points="742.53,-25.87 750.68,-19.09 740.09,-19.31 742.53,-25.87"/>
</a>
</g>
</g>
<!-- Node9&#45;&gt;Node13 -->
<g id="edge13_Node000009_Node000013" class="edge">
<title>Node9&#45;&gt;Node13</title>
<g id="a_edge13_Node000009_Node000013"><a xlink:title=" ">
<path fill="none" stroke="#63b8ff" d="M345.99,-181.36C319.72,-169.65 281.11,-147.19 296,-121 305.98,-103.45 324.82,-91.41 342.14,-83.55"/>
<polygon fill="#63b8ff" stroke="#63b8ff" points="343.67,-86.71 351.54,-79.61 340.96,-80.25 343.67,-86.71"/>
</a>
</g>
</g>
<!-- Node14 -->
<g id="Node000014" class="node">
<title>Node14</title>
<g id="a_Node000014"><a target="_blank" xlink:href="open62541/config_8h.html" xlink:title=" ">
<polygon fill="white" stroke="#666666" points="112,-19 0,-19 0,0 112,0 112,-19"/>
<text text-anchor="middle" x="56" y="-7" font-family="Helvetica,sans-Serif" font-size="10.00">open62541/config.h</text>
</a>
</g>
</g>
<!-- Node13&#45;&gt;Node14 -->
<g id="edge14_Node000013_Node000014" class="edge">
<title>Node13&#45;&gt;Node14</title>
<g id="a_edge14_Node000013_Node000014"><a xlink:title=" ">
<path fill="none" stroke="#63b8ff" d="M332.89,-60.49C274.7,-49.99 175.77,-32.12 113.26,-20.84"/>
<polygon fill="#63b8ff" stroke="#63b8ff" points="113.63,-17.35 103.17,-19.02 112.39,-24.24 113.63,-17.35"/>
</a>
</g>
</g>
<!-- Node15 -->
<g id="Node000015" class="node">
<title>Node15</title>
<g id="a_Node000015"><a target="_blank" xlink:href="open62541/nodeids_8h.html" xlink:title=" ">
<polygon fill="white" stroke="#666666" points="251.5,-19 130.5,-19 130.5,0 251.5,0 251.5,-19"/>
<text text-anchor="middle" x="191" y="-7" font-family="Helvetica,sans-Serif" font-size="10.00">open62541/nodeids.h</text>
</a>
</g>
</g>
<!-- Node13&#45;&gt;Node15 -->
<g id="edge15_Node000013_Node000015" class="edge">
<title>Node13&#45;&gt;Node15</title>
<g id="a_edge15_Node000013_Node000015"><a xlink:title=" ">
<path fill="none" stroke="#63b8ff" d="M352.52,-60.49C319.76,-50.36 264.88,-33.37 228.31,-22.05"/>
<polygon fill="#63b8ff" stroke="#63b8ff" points="229.1,-18.63 218.52,-19.02 227.03,-25.32 229.1,-18.63"/>
</a>
</g>
</g>
<!-- Node16 -->
<g id="Node000016" class="node">
<title>Node16</title>
<g id="a_Node000016"><a target="_blank" xlink:href="open62541/statuscodes_8h.html" xlink:title=" ">
<polygon fill="white" stroke="#666666" points="410.5,-19 269.5,-19 269.5,0 410.5,0 410.5,-19"/>
<text text-anchor="middle" x="340" y="-7" font-family="Helvetica,sans-Serif" font-size="10.00">open62541/statuscodes.h</text>
</a>
</g>
</g>
<!-- Node13&#45;&gt;Node16 -->
<g id="edge16_Node000013_Node000016" class="edge">
<title>Node13&#45;&gt;Node16</title>
<g id="a_edge16_Node000013_Node000016"><a xlink:title=" ">
<path fill="none" stroke="#63b8ff" d="M374.1,-60.37C368.25,-51.81 359.13,-38.47 351.79,-27.74"/>
<polygon fill="#63b8ff" stroke="#63b8ff" points="354.46,-25.45 345.93,-19.17 348.68,-29.4 354.46,-25.45"/>
</a>
</g>
</g>
<!-- Node17 -->
<g id="Node000017" class="node">
<title>Node17</title>
<g id="a_Node000017"><a target="_blank" xlink:href="open62541/types_8h.html" xlink:title=" ">
<polygon fill="white" stroke="#666666" points="539,-19 429,-19 429,0 539,0 539,-19"/>
<text text-anchor="middle" x="484" y="-7" font-family="Helvetica,sans-Serif" font-size="10.00">open62541/types.h</text>
</a>
</g>
</g>
<!-- Node13&#45;&gt;Node17 -->
<g id="edge17_Node000013_Node000017" class="edge">
<title>Node13&#45;&gt;Node17</title>
<g id="a_edge17_Node000013_Node000017"><a xlink:title=" ">
<path fill="none" stroke="#63b8ff" d="M395.35,-60.37C412.32,-50.82 439.9,-35.31 459.79,-24.12"/>
<polygon fill="#63b8ff" stroke="#63b8ff" points="461.59,-27.12 468.59,-19.17 458.16,-21.02 461.59,-27.12"/>
</a>
</g>
</g>
<!-- Node18 -->
<g id="Node000018" class="node">
<title>Node18</title>
<g id="a_Node000018"><a target="_blank" xlink:href="open62541/types__generated_8h.html" xlink:title=" ">
<polygon fill="white" stroke="#666666" points="721,-19 557,-19 557,0 721,0 721,-19"/>
<text text-anchor="middle" x="639" y="-7" font-family="Helvetica,sans-Serif" font-size="10.00">open62541/types_generated.h</text>
</a>
</g>
</g>
<!-- Node13&#45;&gt;Node18 -->
<g id="edge18_Node000013_Node000018" class="edge">
<title>Node13&#45;&gt;Node18</title>
<g id="a_edge18_Node000013_Node000018"><a xlink:title=" ">
<path fill="none" stroke="#63b8ff" d="M417.66,-60.49C463.6,-50.12 541.31,-32.57 591.36,-21.26"/>
<polygon fill="#63b8ff" stroke="#63b8ff" points="592.31,-24.63 601.29,-19.02 590.77,-17.81 592.31,-24.63"/>
</a>
</g>
</g>
<!-- Node19&#45;&gt;Node3 -->
<g id="edge21_Node000019_Node000003" class="edge">
<title>Node19&#45;&gt;Node3</title>
<g id="a_edge21_Node000019_Node000003"><a xlink:title=" ">
<path fill="none" stroke="#63b8ff" d="M832.04,-244.17C876.06,-238.36 930.91,-227.24 976,-206 1038.31,-176.64 1095.81,-116.37 1121.24,-87.34"/>
<polygon fill="#63b8ff" stroke="#63b8ff" points="1123.94,-89.58 1127.81,-79.72 1118.63,-85.01 1123.94,-89.58"/>
</a>
</g>
</g>
<!-- Node19&#45;&gt;Node9 -->
<g id="edge32_Node000019_Node000009" class="edge">
<title>Node19&#45;&gt;Node9</title>
<g id="a_edge32_Node000019_Node000009"><a xlink:title=" ">
<path fill="none" stroke="#63b8ff" d="M697.02,-241.99C627.3,-231.4 508.37,-213.33 434.21,-202.06"/>
<polygon fill="#63b8ff" stroke="#63b8ff" points="434.46,-198.56 424.05,-200.52 433.41,-205.48 434.46,-198.56"/>
</a>
</g>
</g>
<!-- Node19&#45;&gt;Node12 -->
<g id="edge22_Node000019_Node000012" class="edge">
<title>Node19&#45;&gt;Node12</title>
<g id="a_edge22_Node000019_Node000012"><a xlink:title=" ">
<path fill="none" stroke="#63b8ff" d="M753.75,-241.96C756.76,-207.48 768.09,-78.08 772.36,-29.28"/>
<polygon fill="#63b8ff" stroke="#63b8ff" points="775.85,-29.46 773.24,-19.19 768.88,-28.85 775.85,-29.46"/>
</a>
</g>
</g>
<!-- Node19&#45;&gt;Node13 -->
<g id="edge39_Node000019_Node000013" class="edge">
<title>Node19&#45;&gt;Node13</title>
<g id="a_edge39_Node000019_Node000013"><a xlink:title=" ">
<path fill="none" stroke="#63b8ff" d="M673.79,-244.79C618.53,-238.97 551.65,-227.59 534,-206 525.56,-195.68 529.57,-188.57 534,-176 543.19,-149.94 579.77,-142.97 563,-121 549.04,-102.71 495.79,-89.49 450.3,-81.25"/>
<polygon fill="#63b8ff" stroke="#63b8ff" points="450.89,-77.8 440.43,-79.52 449.68,-84.7 450.89,-77.8"/>
</a>
</g>
</g>
<!-- Node20 -->
<g id="Node000020" class="node">
<title>Node20</title>
<g id="a_Node000020"><a xlink:title=" ">
<polygon fill="#e0e0e0" stroke="#999999" points="833,-140 781,-140 781,-121 833,-121 833,-140"/>
<text text-anchor="middle" x="807" y="-128" font-family="Helvetica,sans-Serif" font-size="10.00">cassert</text>
</a>
</g>
</g>
<!-- Node19&#45;&gt;Node20 -->
<g id="edge20_Node000019_Node000020" class="edge">
<title>Node19&#45;&gt;Node20</title>
<g id="a_edge20_Node000019_Node000020"><a xlink:title=" ">
<path fill="none" stroke="#63b8ff" d="M759.99,-241.75C766.65,-233.09 776.56,-219.24 783,-206 791.89,-187.71 798.59,-165.34 802.62,-149.91"/>
<polygon fill="#63b8ff" stroke="#63b8ff" points="806.05,-150.62 805.08,-140.07 799.26,-148.92 806.05,-150.62"/>
</a>
</g>
</g>
<!-- Node21 -->
<g id="Node000021" class="node">
<title>Node21</title>
<g id="a_Node000021"><a xlink:title=" ">
<polygon fill="#e0e0e0" stroke="#999999" points="588.5,-200.5 543.5,-200.5 543.5,-181.5 588.5,-181.5 588.5,-200.5"/>
<text text-anchor="middle" x="566" y="-188.5" font-family="Helvetica,sans-Serif" font-size="10.00">utility</text>
</a>
</g>
</g>
<!-- Node19&#45;&gt;Node21 -->
<g id="edge23_Node000019_Node000021" class="edge">
<title>Node19&#45;&gt;Node21</title>
<g id="a_edge23_Node000019_Node000021"><a xlink:title=" ">
<path fill="none" stroke="#63b8ff" d="M718.41,-241.98C686.72,-233.84 638.69,-220.67 598,-206 596.61,-205.5 595.19,-204.97 593.77,-204.41"/>
<polygon fill="#63b8ff" stroke="#63b8ff" points="595.02,-201.14 584.44,-200.57 592.35,-207.61 595.02,-201.14"/>
</a>
</g>
</g>
<!-- Node22 -->
<g id="Node000022" class="node">
<title>Node22</title>
<g id="a_Node000022"><a xlink:href="Common_8h.html" target="_top" xlink:title=" ">
<polygon fill="white" stroke="#666666" points="1028.5,-140 889.5,-140 889.5,-121 1028.5,-121 1028.5,-140"/>
<text text-anchor="middle" x="959" y="-128" font-family="Helvetica,sans-Serif" font-size="10.00">open62541pp/Common.h</text>
</a>
</g>
</g>
<!-- Node19&#45;&gt;Node22 -->
<g id="edge24_Node000019_Node000022" class="edge">
<title>Node19&#45;&gt;Node22</title>
<g id="a_edge24_Node000019_Node000022"><a xlink:title=" ">
<path fill="none" stroke="#63b8ff" d="M832.01,-243.43C882.71,-237.07 941.95,-225.63 958,-206 970.64,-190.54 968.4,-166.63 964.63,-150.09"/>
<polygon fill="#63b8ff" stroke="#63b8ff" points="967.9,-148.77 961.94,-140.01 961.13,-150.57 967.9,-148.77"/>
</a>
</g>
</g>
<!-- Node25 -->
<g id="Node000025" class="node">
<title>Node25</title>
<g id="a_Node000025"><a xlink:href="helper_8h.html" target="_top" xlink:title=" ">
<polygon fill="white" stroke="#666666" points="948.5,-206 835.5,-206 835.5,-176 948.5,-176 948.5,-206"/>
<text text-anchor="start" x="843.5" y="-194" font-family="Helvetica,sans-Serif" font-size="10.00">open62541pp/detail</text>
<text text-anchor="middle" x="892" y="-183" font-family="Helvetica,sans-Serif" font-size="10.00">/helper.h</text>
</a>
</g>
</g>
<!-- Node19&#45;&gt;Node25 -->
<g id="edge33_Node000019_Node000025" class="edge">
<title>Node19&#45;&gt;Node25</title>
<g id="a_edge33_Node000019_Node000025"><a xlink:title=" ">
<path fill="none" stroke="#63b8ff" d="M773.21,-241.99C793.04,-233.65 823.9,-220.66 849.19,-210.02"/>
<polygon fill="#63b8ff" stroke="#63b8ff" points="850.72,-213.17 858.58,-206.06 848.01,-206.72 850.72,-213.17"/>
</a>
</g>
</g>
<!-- Node26 -->
<g id="Node000026" class="node">
<title>Node26</title>
<g id="a_Node000026"><a xlink:href="comparison_8h.html" target="_top" xlink:title=" ">
<polygon fill="white" stroke="#666666" points="741,-206 607,-206 607,-176 741,-176 741,-206"/>
<text text-anchor="start" x="615" y="-194" font-family="Helvetica,sans-Serif" font-size="10.00">open62541pp/overloads</text>
<text text-anchor="middle" x="674" y="-183" font-family="Helvetica,sans-Serif" font-size="10.00">/comparison.h</text>
</a>
</g>
</g>
<!-- Node19&#45;&gt;Node26 -->
<g id="edge40_Node000019_Node000026" class="edge">
<title>Node19&#45;&gt;Node26</title>
<g id="a_edge40_Node000019_Node000026"><a xlink:title=" ">
<path fill="none" stroke="#63b8ff" d="M741.34,-241.87C730.82,-234.08 714.94,-222.32 701.24,-212.17"/>
<polygon fill="#63b8ff" stroke="#63b8ff" points="703.18,-209.25 693.06,-206.11 699.01,-214.88 703.18,-209.25"/>
</a>
</g>
</g>
<!-- Node22&#45;&gt;Node3 -->
<g id="edge25_Node000022_Node000003" class="edge">
<title>Node22&#45;&gt;Node3</title>
<g id="a_edge25_Node000022_Node000003"><a xlink:title=" ">
<path fill="none" stroke="#63b8ff" d="M988.9,-120.95C1017.81,-112.5 1062.74,-98.84 1101,-85 1102.43,-84.48 1103.88,-83.94 1105.34,-83.39"/>
<polygon fill="#63b8ff" stroke="#63b8ff" points="1106.96,-86.51 1114.98,-79.58 1104.39,-80 1106.96,-86.51"/>
</a>
</g>
</g>
<!-- Node22&#45;&gt;Node6 -->
<g id="edge26_Node000022_Node000006" class="edge">
<title>Node22&#45;&gt;Node6</title>
<g id="a_edge26_Node000022_Node000006"><a xlink:title=" ">
<path fill="none" stroke="#63b8ff" d="M973.17,-120.87C988.69,-111.41 1013.83,-96.09 1032.15,-84.92"/>
<polygon fill="#63b8ff" stroke="#63b8ff" points="1034.06,-87.86 1040.78,-79.67 1030.42,-81.88 1034.06,-87.86"/>
</a>
</g>
</g>
<!-- Node22&#45;&gt;Node13 -->
<g id="edge31_Node000022_Node000013" class="edge">
<title>Node22&#45;&gt;Node13</title>
<g id="a_edge31_Node000022_Node000013"><a xlink:title=" ">
<path fill="none" stroke="#63b8ff" d="M889.33,-122.45C884.48,-121.96 879.67,-121.47 875,-121 731,-106.44 563.42,-89.52 464.84,-79.56"/>
<polygon fill="#63b8ff" stroke="#63b8ff" points="464.94,-76.06 454.64,-78.53 464.23,-83.02 464.94,-76.06"/>
</a>
</g>
</g>
<!-- Node23 -->
<g id="Node000023" class="node">
<title>Node23</title>
<g id="a_Node000023"><a xlink:title=" ">
<polygon fill="#e0e0e0" stroke="#999999" points="937.5,-19 896.5,-19 896.5,0 937.5,0 937.5,-19"/>
<text text-anchor="middle" x="917" y="-7" font-family="Helvetica,sans-Serif" font-size="10.00">tuple</text>
</a>
</g>
</g>
<!-- Node22&#45;&gt;Node23 -->
<g id="edge27_Node000022_Node000023" class="edge">
<title>Node22&#45;&gt;Node23</title>
<g id="a_edge27_Node000022_Node000023"><a xlink:title=" ">
<path fill="none" stroke="#63b8ff" d="M957.41,-120.58C954.73,-106.4 948.73,-77.96 940,-55 936.48,-45.75 931.55,-35.94 927.16,-27.89"/>
<polygon fill="#63b8ff" stroke="#63b8ff" points="930.16,-26.08 922.19,-19.09 924.06,-29.52 930.16,-26.08"/>
</a>
</g>
</g>
<!-- Node24 -->
<g id="Node000024" class="node">
<title>Node24</title>
<g id="a_Node000024"><a xlink:href="traits_8h.html" target="_top" xlink:title=" ">
<polygon fill="white" stroke="#666666" points="930.5,-85 817.5,-85 817.5,-55 930.5,-55 930.5,-85"/>
<text text-anchor="start" x="825.5" y="-73" font-family="Helvetica,sans-Serif" font-size="10.00">open62541pp/detail</text>
<text text-anchor="middle" x="874" y="-62" font-family="Helvetica,sans-Serif" font-size="10.00">/traits.h</text>
</a>
</g>
</g>
<!-- Node22&#45;&gt;Node24 -->
<g id="edge28_Node000022_Node000024" class="edge">
<title>Node22&#45;&gt;Node24</title>
<g id="a_edge28_Node000022_Node000024"><a xlink:title=" ">
<path fill="none" stroke="#63b8ff" d="M946.46,-120.87C935.03,-113 917.73,-101.09 902.89,-90.89"/>
<polygon fill="#63b8ff" stroke="#63b8ff" points="904.73,-87.9 894.51,-85.11 900.76,-93.67 904.73,-87.9"/>
</a>
</g>
</g>
<!-- Node24&#45;&gt;Node12 -->
<g id="edge30_Node000024_Node000012" class="edge">
<title>Node24&#45;&gt;Node12</title>
<g id="a_edge30_Node000024_Node000012"><a xlink:title=" ">
<path fill="none" stroke="#63b8ff" d="M850.05,-54.99C834.11,-45.66 813.27,-33.47 797.44,-24.21"/>
<polygon fill="#63b8ff" stroke="#63b8ff" points="799.17,-21.17 788.77,-19.14 795.63,-27.21 799.17,-21.17"/>
</a>
</g>
</g>
<!-- Node24&#45;&gt;Node23 -->
<g id="edge29_Node000024_Node000023" class="edge">
<title>Node24&#45;&gt;Node23</title>
<g id="a_edge29_Node000024_Node000023"><a xlink:title=" ">
<path fill="none" stroke="#63b8ff" d="M884.41,-54.84C890.46,-46.61 898.12,-36.18 904.5,-27.51"/>
<polygon fill="#63b8ff" stroke="#63b8ff" points="907.45,-29.4 910.56,-19.27 901.81,-25.25 907.45,-29.4"/>
</a>
</g>
</g>
<!-- Node25&#45;&gt;Node5 -->
<g id="edge35_Node000025_Node000005" class="edge">
<title>Node25&#45;&gt;Node5</title>
<g id="a_edge35_Node000025_Node000005"><a xlink:title=" ">
<path fill="none" stroke="#63b8ff" d="M835.35,-180.8C758.96,-168.38 625.43,-146.68 564.27,-136.74"/>
<polygon fill="#63b8ff" stroke="#63b8ff" points="564.49,-133.23 554.06,-135.08 563.37,-140.14 564.49,-133.23"/>
</a>
</g>
</g>
<!-- Node25&#45;&gt;Node6 -->
<g id="edge36_Node000025_Node000006" class="edge">
<title>Node25&#45;&gt;Node6</title>
<g id="a_edge36_Node000025_Node000006"><a xlink:title=" ">
<path fill="none" stroke="#63b8ff" d="M948.72,-183.75C979.2,-177.5 1015.12,-165 1038,-140 1050.35,-126.51 1054.09,-105.51 1055.06,-90.22"/>
<polygon fill="#63b8ff" stroke="#63b8ff" points="1058.57,-89.95 1055.36,-79.86 1051.57,-89.76 1058.57,-89.95"/>
</a>
</g>
</g>
<!-- Node25&#45;&gt;Node13 -->
<g id="edge38_Node000025_Node000013" class="edge">
<title>Node25&#45;&gt;Node13</title>
<g id="a_edge38_Node000025_Node000013"><a xlink:title=" ">
<path fill="none" stroke="#63b8ff" d="M886.09,-175.86C878.49,-159.6 863.62,-133.55 842,-121 779.85,-84.94 580.52,-74.85 464.99,-72.05"/>
<polygon fill="#63b8ff" stroke="#63b8ff" points="464.85,-68.55 454.77,-71.82 464.69,-75.55 464.85,-68.55"/>
</a>
</g>
</g>
<!-- Node25&#45;&gt;Node20 -->
<g id="edge34_Node000025_Node000020" class="edge">
<title>Node25&#45;&gt;Node20</title>
<g id="a_edge34_Node000025_Node000020"><a xlink:title=" ">
<path fill="none" stroke="#63b8ff" d="M871.42,-175.84C858.33,-166.83 841.41,-155.18 828.2,-146.09"/>
<polygon fill="#63b8ff" stroke="#63b8ff" points="829.96,-143.05 819.74,-140.27 825.99,-148.82 829.96,-143.05"/>
</a>
</g>
</g>
<!-- Node25&#45;&gt;Node22 -->
<g id="edge37_Node000025_Node000022" class="edge">
<title>Node25&#45;&gt;Node22</title>
<g id="a_edge37_Node000025_Node000022"><a xlink:title=" ">
<path fill="none" stroke="#63b8ff" d="M908.22,-175.84C918.24,-167.09 931.11,-155.85 941.38,-146.88"/>
<polygon fill="#63b8ff" stroke="#63b8ff" points="943.73,-149.48 948.96,-140.27 939.13,-144.21 943.73,-149.48"/>
</a>
</g>
</g>
<!-- Node26&#45;&gt;Node13 -->
<g id="edge41_Node000026_Node000013" class="edge">
<title>Node26&#45;&gt;Node13</title>
<g id="a_edge41_Node000026_Node000013"><a xlink:title=" ">
<path fill="none" stroke="#63b8ff" d="M662,-175.79C647.85,-159.98 622.84,-134.83 596,-121 555.38,-100.07 505.99,-87.8 464.69,-80.66"/>
<polygon fill="#63b8ff" stroke="#63b8ff" points="465.09,-77.17 454.65,-78.99 463.94,-84.08 465.09,-77.17"/>
</a>
</g>
</g>
</g>
</svg>
