<?xml version="1.0" encoding="UTF-8" standalone="no"?>
<!DOCTYPE svg PUBLIC "-//W3C//DTD SVG 1.1//EN"
 "http://www.w3.org/Graphics/SVG/1.1/DTD/svg11.dtd">
<!-- Generated by graphviz version 2.43.0 (0)
 -->
<!-- Title: /home/runner/work/open62541pp/open62541pp/include/open62541pp/types/Builtin.h Pages: 1 -->
<svg width="1321pt" height="434pt"
 viewBox="0.00 0.00 1320.78 434.00" xmlns="http://www.w3.org/2000/svg" xmlns:xlink="http://www.w3.org/1999/xlink">
<g id="graph0" class="graph" transform="scale(1 1) rotate(0) translate(4 430)">
<title>/home/runner/work/open62541pp/open62541pp/include/open62541pp/types/Builtin.h</title>
<!-- Node1 -->
<g id="Node000001" class="node">
<title>Node1</title>
<g id="a_Node000001"><a xlink:title=" ">
<polygon fill="#999999" stroke="#666666" points="598.78,-426 405.78,-426 405.78,-385 598.78,-385 598.78,-426"/>
<text text-anchor="start" x="413.78" y="-414" font-family="Helvetica,sans-Serif" font-size="10.00">/home/runner/work/open62541pp</text>
<text text-anchor="start" x="413.78" y="-403" font-family="Helvetica,sans-Serif" font-size="10.00">/open62541pp/include/open62541pp</text>
<text text-anchor="middle" x="502.28" y="-392" font-family="Helvetica,sans-Serif" font-size="10.00">/types/Builtin.h</text>
</a>
</g>
</g>
<!-- Node2 -->
<g id="Node000002" class="node">
<title>Node2</title>
<g id="a_Node000002"><a xlink:href="Client_8h.html" target="_top" xlink:title=" ">
<polygon fill="white" stroke="#666666" points="1062.78,-195 869.78,-195 869.78,-154 1062.78,-154 1062.78,-195"/>
<text text-anchor="start" x="877.78" y="-183" font-family="Helvetica,sans-Serif" font-size="10.00">/home/runner/work/open62541pp</text>
<text text-anchor="start" x="877.78" y="-172" font-family="Helvetica,sans-Serif" font-size="10.00">/open62541pp/include/open62541pp</text>
<text text-anchor="middle" x="966.28" y="-161" font-family="Helvetica,sans-Serif" font-size="10.00">/Client.h</text>
</a>
</g>
</g>
<!-- Node1&#45;&gt;Node2 -->
<g id="edge1_Node000001_Node000002" class="edge">
<title>Node1&#45;&gt;Node2</title>
<g id="a_edge1_Node000001_Node000002"><a xlink:title=" ">
<path fill="none" stroke="#63b8ff" d="M609.24,-400.85C672.09,-395.06 751.47,-381.24 815.28,-349 884.24,-314.16 935.22,-232.86 956,-195.24"/>
<polygon fill="#63b8ff" stroke="#63b8ff" points="608.57,-397.39 598.91,-401.74 609.17,-404.37 608.57,-397.39"/>
</a>
</g>
</g>
<!-- Node3 -->
<g id="Node000003" class="node">
<title>Node3</title>
<g id="a_Node000003"><a xlink:href="open62541pp_8h.html" target="_top" xlink:title=" ">
<polygon fill="white" stroke="#666666" points="601.78,-41 408.78,-41 408.78,0 601.78,0 601.78,-41"/>
<text text-anchor="start" x="416.78" y="-29" font-family="Helvetica,sans-Serif" font-size="10.00">/home/runner/work/open62541pp</text>
<text text-anchor="start" x="416.78" y="-18" font-family="Helvetica,sans-Serif" font-size="10.00">/open62541pp/include/open62541pp</text>
<text text-anchor="middle" x="505.28" y="-7" font-family="Helvetica,sans-Serif" font-size="10.00">/open62541pp.h</text>
</a>
</g>
</g>
<!-- Node1&#45;&gt;Node3 -->
<g id="edge9_Node000001_Node000003" class="edge">
<title>Node1&#45;&gt;Node3</title>
<g id="a_edge9_Node000001_Node000003"><a xlink:title=" ">
<path fill="none" stroke="#63b8ff" d="M395.38,-398.75C262.31,-390.59 49.15,-373.83 22.28,-349 -9.83,-319.34 3.28,-296.21 3.28,-252.5 3.28,-252.5 3.28,-252.5 3.28,-173.5 3.28,-106.78 57.36,-104.22 118.28,-77 168.7,-54.46 311.43,-38.15 408.71,-29.26"/>
<polygon fill="#63b8ff" stroke="#63b8ff" points="395.42,-402.26 405.61,-399.37 395.84,-395.27 395.42,-402.26"/>
</a>
</g>
</g>
<!-- Node4 -->
<g id="Node000004" class="node">
<title>Node4</title>
<g id="a_Node000004"><a xlink:href="Crypto_8h.html" target="_top" xlink:title=" ">
<polygon fill="white" stroke="#666666" points="224.78,-349 31.78,-349 31.78,-308 224.78,-308 224.78,-349"/>
<text text-anchor="start" x="39.78" y="-337" font-family="Helvetica,sans-Serif" font-size="10.00">/home/runner/work/open62541pp</text>
<text text-anchor="start" x="39.78" y="-326" font-family="Helvetica,sans-Serif" font-size="10.00">/open62541pp/include/open62541pp</text>
<text text-anchor="middle" x="128.28" y="-315" font-family="Helvetica,sans-Serif" font-size="10.00">/Crypto.h</text>
</a>
</g>
</g>
<!-- Node1&#45;&gt;Node4 -->
<g id="edge3_Node000001_Node000004" class="edge">
<title>Node1&#45;&gt;Node4</title>
<g id="a_edge3_Node000001_Node000004"><a xlink:title=" ">
<path fill="none" stroke="#63b8ff" d="M395.58,-383.1C341.87,-372.33 277.25,-359.37 225,-348.9"/>
<polygon fill="#63b8ff" stroke="#63b8ff" points="394.98,-386.55 405.48,-385.09 396.36,-379.69 394.98,-386.55"/>
</a>
</g>
</g>
<!-- Node5 -->
<g id="Node000005" class="node">
<title>Node5</title>
<g id="a_Node000005"><a xlink:href="Node_8h.html" target="_top" xlink:title=" ">
<polygon fill="white" stroke="#666666" points="352.28,-118 156.28,-118 156.28,-77 352.28,-77 352.28,-118"/>
<text text-anchor="start" x="164.28" y="-106" font-family="Helvetica,sans-Serif" font-size="10.00">/home/runner/work/open62541pp</text>
<text text-anchor="start" x="164.28" y="-95" font-family="Helvetica,sans-Serif" font-size="10.00">/open62541pp/include/open62541pp/</text>
<text text-anchor="middle" x="254.28" y="-84" font-family="Helvetica,sans-Serif" font-size="10.00">Node.h</text>
</a>
</g>
</g>
<!-- Node1&#45;&gt;Node5 -->
<g id="edge5_Node000001_Node000005" class="edge">
<title>Node1&#45;&gt;Node5</title>
<g id="a_edge5_Node000001_Node000005"><a xlink:title=" ">
<path fill="none" stroke="#63b8ff" d="M395.62,-386.24C329.74,-368.86 250.23,-335.47 209.28,-272 177.47,-222.71 216.9,-151.94 239.91,-118.05"/>
<polygon fill="#63b8ff" stroke="#63b8ff" points="395.09,-389.72 405.64,-388.79 396.82,-382.93 395.09,-389.72"/>
</a>
</g>
</g>
<!-- Node6 -->
<g id="Node000006" class="node">
<title>Node6</title>
<g id="a_Node000006"><a xlink:href="Server_8h.html" target="_top" xlink:title=" ">
<polygon fill="white" stroke="#666666" points="1312.78,-195 1119.78,-195 1119.78,-154 1312.78,-154 1312.78,-195"/>
<text text-anchor="start" x="1127.78" y="-183" font-family="Helvetica,sans-Serif" font-size="10.00">/home/runner/work/open62541pp</text>
<text text-anchor="start" x="1127.78" y="-172" font-family="Helvetica,sans-Serif" font-size="10.00">/open62541pp/include/open62541pp</text>
<text text-anchor="middle" x="1216.28" y="-161" font-family="Helvetica,sans-Serif" font-size="10.00">/Server.h</text>
</a>
</g>
</g>
<!-- Node1&#45;&gt;Node6 -->
<g id="edge7_Node000001_Node000006" class="edge">
<title>Node1&#45;&gt;Node6</title>
<g id="a_edge7_Node000001_Node000006"><a xlink:title=" ">
<path fill="none" stroke="#63b8ff" d="M609.16,-397.76C780.93,-384.73 1107.47,-350.16 1189.28,-272 1210.28,-251.93 1215.37,-216.98 1216.37,-195.1"/>
<polygon fill="#63b8ff" stroke="#63b8ff" points="608.8,-394.28 599.08,-398.52 609.32,-401.26 608.8,-394.28"/>
</a>
</g>
</g>
<!-- Node7 -->
<g id="Node000007" class="node">
<title>Node7</title>
<g id="a_Node000007"><a xlink:href="Attribute_8h.html" target="_top" xlink:title=" ">
<polygon fill="white" stroke="#666666" points="411.78,-272 218.78,-272 218.78,-231 411.78,-231 411.78,-272"/>
<text text-anchor="start" x="226.78" y="-260" font-family="Helvetica,sans-Serif" font-size="10.00">/home/runner/work/open62541pp</text>
<text text-anchor="start" x="226.78" y="-249" font-family="Helvetica,sans-Serif" font-size="10.00">/open62541pp/include/open62541pp</text>
<text text-anchor="middle" x="315.28" y="-238" font-family="Helvetica,sans-Serif" font-size="10.00">/services/Attribute.h</text>
</a>
</g>
</g>
<!-- Node1&#45;&gt;Node7 -->
<g id="edge10_Node000001_Node000007" class="edge">
<title>Node1&#45;&gt;Node7</title>
<g id="a_edge10_Node000001_Node000007"><a xlink:title=" ">
<path fill="none" stroke="#63b8ff" d="M470.22,-378.44C433.15,-348.31 372.94,-299.37 339.55,-272.23"/>
<polygon fill="#63b8ff" stroke="#63b8ff" points="468.25,-381.35 478.21,-384.94 472.66,-375.92 468.25,-381.35"/>
</a>
</g>
</g>
<!-- Node9 -->
<g id="Node000009" class="node">
<title>Node9</title>
<g id="a_Node000009"><a xlink:href="Composed_8h.html" target="_top" xlink:title=" ">
<polygon fill="white" stroke="#666666" points="661.78,-272 468.78,-272 468.78,-231 661.78,-231 661.78,-272"/>
<text text-anchor="start" x="476.78" y="-260" font-family="Helvetica,sans-Serif" font-size="10.00">/home/runner/work/open62541pp</text>
<text text-anchor="start" x="476.78" y="-249" font-family="Helvetica,sans-Serif" font-size="10.00">/open62541pp/include/open62541pp</text>
<text text-anchor="middle" x="565.28" y="-238" font-family="Helvetica,sans-Serif" font-size="10.00">/types/Composed.h</text>
</a>
</g>
</g>
<!-- Node1&#45;&gt;Node9 -->
<g id="edge14_Node000001_Node000009" class="edge">
<title>Node1&#45;&gt;Node9</title>
<g id="a_edge14_Node000001_Node000009"><a xlink:title=" ">
<path fill="none" stroke="#63b8ff" d="M514.35,-375.37C526.87,-345.16 546.11,-298.76 557,-272.47"/>
<polygon fill="#63b8ff" stroke="#63b8ff" points="510.98,-374.36 510.38,-384.94 517.45,-377.04 510.98,-374.36"/>
</a>
</g>
</g>
<!-- Node12 -->
<g id="Node000012" class="node">
<title>Node12</title>
<g id="a_Node000012"><a xlink:href="NodeId_8h.html" target="_top" xlink:title=" ">
<polygon fill="white" stroke="#666666" points="805.78,-349 612.78,-349 612.78,-308 805.78,-308 805.78,-349"/>
<text text-anchor="start" x="620.78" y="-337" font-family="Helvetica,sans-Serif" font-size="10.00">/home/runner/work/open62541pp</text>
<text text-anchor="start" x="620.78" y="-326" font-family="Helvetica,sans-Serif" font-size="10.00">/open62541pp/include/open62541pp</text>
<text text-anchor="middle" x="709.28" y="-315" font-family="Helvetica,sans-Serif" font-size="10.00">/types/NodeId.h</text>
</a>
</g>
</g>
<!-- Node1&#45;&gt;Node12 -->
<g id="edge23_Node000001_Node000012" class="edge">
<title>Node1&#45;&gt;Node12</title>
<g id="a_edge23_Node000001_Node000012"><a xlink:title=" ">
<path fill="none" stroke="#63b8ff" d="M565.65,-381.54C594.33,-371.15 627.88,-358.99 655.34,-349.04"/>
<polygon fill="#63b8ff" stroke="#63b8ff" points="564.33,-378.29 556.12,-384.99 566.72,-384.87 564.33,-378.29"/>
</a>
</g>
</g>
<!-- Node2&#45;&gt;Node3 -->
<g id="edge2_Node000002_Node000003" class="edge">
<title>Node2&#45;&gt;Node3</title>
<g id="a_edge2_Node000002_Node000003"><a xlink:title=" ">
<path fill="none" stroke="#63b8ff" d="M943.28,-146.42C922.64,-124.02 890.26,-93.32 855.28,-77 775.13,-39.61 674.63,-26.72 601.91,-22.59"/>
<polygon fill="#63b8ff" stroke="#63b8ff" points="940.79,-148.88 950.08,-153.96 945.99,-144.19 940.79,-148.88"/>
</a>
</g>
</g>
<!-- Node4&#45;&gt;Node3 -->
<g id="edge4_Node000004_Node000003" class="edge">
<title>Node4&#45;&gt;Node3</title>
<g id="a_edge4_Node000004_Node000003"><a xlink:title=" ">
<path fill="none" stroke="#63b8ff" d="M120.09,-297.81C107.7,-245.73 91.18,-137.66 147.28,-77 181.71,-39.77 314.8,-27.42 408.61,-23.38"/>
<polygon fill="#63b8ff" stroke="#63b8ff" points="116.75,-298.89 122.56,-307.75 123.54,-297.2 116.75,-298.89"/>
</a>
</g>
</g>
<!-- Node5&#45;&gt;Node3 -->
<g id="edge6_Node000005_Node000003" class="edge">
<title>Node5&#45;&gt;Node3</title>
<g id="a_edge6_Node000005_Node000003"><a xlink:title=" ">
<path fill="none" stroke="#63b8ff" d="M329.31,-74.08C364.48,-63.57 406,-51.16 439.88,-41.04"/>
<polygon fill="#63b8ff" stroke="#63b8ff" points="328.15,-70.77 319.57,-76.99 330.15,-77.48 328.15,-70.77"/>
</a>
</g>
</g>
<!-- Node6&#45;&gt;Node3 -->
<g id="edge8_Node000006_Node000003" class="edge">
<title>Node6&#45;&gt;Node3</title>
<g id="a_edge8_Node000006_Node000003"><a xlink:title=" ">
<path fill="none" stroke="#63b8ff" d="M1193.9,-146.25C1173.44,-123.44 1140.98,-92.26 1105.28,-77 1017.2,-39.35 748.11,-27.17 602.05,-23.28"/>
<polygon fill="#63b8ff" stroke="#63b8ff" points="1191.41,-148.71 1200.63,-153.92 1196.67,-144.09 1191.41,-148.71"/>
</a>
</g>
</g>
<!-- Node7&#45;&gt;Node5 -->
<g id="edge11_Node000007_Node000005" class="edge">
<title>Node7&#45;&gt;Node5</title>
<g id="a_edge11_Node000007_Node000005"><a xlink:title=" ">
<path fill="none" stroke="#63b8ff" d="M275.38,-224.45C266.07,-216.24 257.39,-206.31 252.28,-195 241.17,-170.41 244.83,-138.58 249.07,-118.35"/>
<polygon fill="#63b8ff" stroke="#63b8ff" points="273.34,-227.3 283.29,-230.94 277.78,-221.89 273.34,-227.3"/>
</a>
</g>
</g>
<!-- Node8 -->
<g id="Node000008" class="node">
<title>Node8</title>
<g id="a_Node000008"><a xlink:href="services_8h.html" target="_top" xlink:title=" ">
<polygon fill="white" stroke="#666666" points="601.78,-118 408.78,-118 408.78,-77 601.78,-77 601.78,-118"/>
<text text-anchor="start" x="416.78" y="-106" font-family="Helvetica,sans-Serif" font-size="10.00">/home/runner/work/open62541pp</text>
<text text-anchor="start" x="416.78" y="-95" font-family="Helvetica,sans-Serif" font-size="10.00">/open62541pp/include/open62541pp</text>
<text text-anchor="middle" x="505.28" y="-84" font-family="Helvetica,sans-Serif" font-size="10.00">/services/services.h</text>
</a>
</g>
</g>
<!-- Node7&#45;&gt;Node8 -->
<g id="edge12_Node000007_Node000008" class="edge">
<title>Node7&#45;&gt;Node8</title>
<g id="a_edge12_Node000007_Node000008"><a xlink:title=" ">
<path fill="none" stroke="#63b8ff" d="M334.98,-222.69C350.69,-201.93 374.15,-173.84 399.28,-154 417.29,-139.77 439.5,-127.49 458.93,-118.12"/>
<polygon fill="#63b8ff" stroke="#63b8ff" points="332.1,-220.7 328.95,-230.82 337.72,-224.88 332.1,-220.7"/>
</a>
</g>
</g>
<!-- Node8&#45;&gt;Node3 -->
<g id="edge13_Node000008_Node000003" class="edge">
<title>Node8&#45;&gt;Node3</title>
<g id="a_edge13_Node000008_Node000003"><a xlink:title=" ">
<path fill="none" stroke="#63b8ff" d="M505.28,-66.69C505.28,-58.08 505.28,-48.9 505.28,-41.07"/>
<polygon fill="#63b8ff" stroke="#63b8ff" points="501.78,-66.79 505.28,-76.79 508.78,-66.79 501.78,-66.79"/>
</a>
</g>
</g>
<!-- Node9&#45;&gt;Node2 -->
<g id="edge15_Node000009_Node000002" class="edge">
<title>Node9&#45;&gt;Node2</title>
<g id="a_edge15_Node000009_Node000002"><a xlink:title=" ">
<path fill="none" stroke="#63b8ff" d="M671.94,-230.55C733.33,-219.07 809.87,-204.75 869.51,-193.6"/>
<polygon fill="#63b8ff" stroke="#63b8ff" points="671.02,-227.16 661.84,-232.44 672.31,-234.04 671.02,-227.16"/>
</a>
</g>
</g>
<!-- Node9&#45;&gt;Node3 -->
<g id="edge17_Node000009_Node000003" class="edge">
<title>Node9&#45;&gt;Node3</title>
<g id="a_edge17_Node000009_Node000003"><a xlink:title=" ">
<path fill="none" stroke="#63b8ff" d="M467.53,-228.17C436.75,-219.03 408.37,-207.63 399.28,-195 368.63,-152.44 372.12,-121.87 399.28,-77 408.96,-61.01 424.93,-49.4 441.58,-41.07"/>
<polygon fill="#63b8ff" stroke="#63b8ff" points="466.57,-231.54 477.15,-230.94 468.5,-224.81 466.57,-231.54"/>
</a>
</g>
</g>
<!-- Node9&#45;&gt;Node5 -->
<g id="edge16_Node000009_Node000005" class="edge">
<title>Node9&#45;&gt;Node5</title>
<g id="a_edge16_Node000009_Node000005"><a xlink:title=" ">
<path fill="none" stroke="#63b8ff" d="M458.68,-229.98C427.79,-221.62 394.74,-210.24 366.28,-195 328.49,-174.77 292.34,-139.87 271.77,-118.04"/>
<polygon fill="#63b8ff" stroke="#63b8ff" points="458.06,-233.44 468.62,-232.59 459.84,-226.66 458.06,-233.44"/>
</a>
</g>
</g>
<!-- Node10 -->
<g id="Node000010" class="node">
<title>Node10</title>
<g id="a_Node000010"><a xlink:href="NodeManagement_8h.html" target="_top" xlink:title=" ">
<polygon fill="white" stroke="#666666" points="601.78,-195 408.78,-195 408.78,-154 601.78,-154 601.78,-195"/>
<text text-anchor="start" x="416.78" y="-183" font-family="Helvetica,sans-Serif" font-size="10.00">/home/runner/work/open62541pp</text>
<text text-anchor="start" x="416.78" y="-172" font-family="Helvetica,sans-Serif" font-size="10.00">/open62541pp/include/open62541pp</text>
<text text-anchor="middle" x="505.28" y="-161" font-family="Helvetica,sans-Serif" font-size="10.00">/services/NodeManagement.h</text>
</a>
</g>
</g>
<!-- Node9&#45;&gt;Node10 -->
<g id="edge18_Node000009_Node000010" class="edge">
<title>Node9&#45;&gt;Node10</title>
<g id="a_edge18_Node000009_Node000010"><a xlink:title=" ">
<path fill="none" stroke="#63b8ff" d="M543.24,-222.95C535.84,-213.7 527.74,-203.58 520.94,-195.07"/>
<polygon fill="#63b8ff" stroke="#63b8ff" points="540.53,-225.17 549.51,-230.79 546,-220.8 540.53,-225.17"/>
</a>
</g>
</g>
<!-- Node11 -->
<g id="Node000011" class="node">
<title>Node11</title>
<g id="a_Node000011"><a xlink:href="View_8h.html" target="_top" xlink:title=" ">
<polygon fill="white" stroke="#666666" points="812.78,-195 619.78,-195 619.78,-154 812.78,-154 812.78,-195"/>
<text text-anchor="start" x="627.78" y="-183" font-family="Helvetica,sans-Serif" font-size="10.00">/home/runner/work/open62541pp</text>
<text text-anchor="start" x="627.78" y="-172" font-family="Helvetica,sans-Serif" font-size="10.00">/open62541pp/include/open62541pp</text>
<text text-anchor="middle" x="716.28" y="-161" font-family="Helvetica,sans-Serif" font-size="10.00">/services/View.h</text>
</a>
</g>
</g>
<!-- Node9&#45;&gt;Node11 -->
<g id="edge21_Node000009_Node000011" class="edge">
<title>Node9&#45;&gt;Node11</title>
<g id="a_edge21_Node000009_Node000011"><a xlink:title=" ">
<path fill="none" stroke="#63b8ff" d="M613.7,-226.45C634.13,-216.3 657.6,-204.64 676.93,-195.04"/>
<polygon fill="#63b8ff" stroke="#63b8ff" points="611.96,-223.41 604.56,-230.99 615.07,-229.68 611.96,-223.41"/>
</a>
</g>
</g>
<!-- Node10&#45;&gt;Node5 -->
<g id="edge19_Node000010_Node000005" class="edge">
<title>Node10&#45;&gt;Node5</title>
<g id="a_edge19_Node000010_Node000005"><a xlink:title=" ">
<path fill="none" stroke="#63b8ff" d="M430.24,-151.08C395.07,-140.57 353.55,-128.16 319.68,-118.04"/>
<polygon fill="#63b8ff" stroke="#63b8ff" points="429.4,-154.48 439.99,-153.99 431.41,-147.77 429.4,-154.48"/>
</a>
</g>
</g>
<!-- Node10&#45;&gt;Node8 -->
<g id="edge20_Node000010_Node000008" class="edge">
<title>Node10&#45;&gt;Node8</title>
<g id="a_edge20_Node000010_Node000008"><a xlink:title=" ">
<path fill="none" stroke="#63b8ff" d="M505.28,-143.69C505.28,-135.08 505.28,-125.9 505.28,-118.07"/>
<polygon fill="#63b8ff" stroke="#63b8ff" points="501.78,-143.79 505.28,-153.79 508.78,-143.79 501.78,-143.79"/>
</a>
</g>
</g>
<!-- Node11&#45;&gt;Node8 -->
<g id="edge22_Node000011_Node000008" class="edge">
<title>Node11&#45;&gt;Node8</title>
<g id="a_edge22_Node000011_Node000008"><a xlink:title=" ">
<path fill="none" stroke="#63b8ff" d="M651.68,-150.54C622.44,-140.15 588.24,-127.99 560.26,-118.04"/>
<polygon fill="#63b8ff" stroke="#63b8ff" points="650.8,-153.94 661.39,-153.99 653.14,-147.34 650.8,-153.94"/>
</a>
</g>
</g>
<!-- Node12&#45;&gt;Node2 -->
<g id="edge24_Node000012_Node000002" class="edge">
<title>Node12&#45;&gt;Node2</title>
<g id="a_edge24_Node000012_Node000002"><a xlink:title=" ">
<path fill="none" stroke="#63b8ff" d="M785.03,-304.45C808.37,-295.86 833.6,-284.98 855.28,-272 891.43,-250.36 927.09,-216.53 947.88,-195.21"/>
<polygon fill="#63b8ff" stroke="#63b8ff" points="783.74,-301.2 775.51,-307.87 786.11,-307.79 783.74,-301.2"/>
</a>
</g>
</g>
<!-- Node12&#45;&gt;Node3 -->
<g id="edge31_Node000012_Node000003" class="edge">
<title>Node12&#45;&gt;Node3</title>
<g id="a_edge31_Node000012_Node000003"><a xlink:title=" ">
<path fill="none" stroke="#63b8ff" d="M746.81,-301.89C791.81,-267.95 857.07,-206.25 822.28,-154 773.6,-80.89 676.04,-48.05 601.94,-33.34"/>
<polygon fill="#63b8ff" stroke="#63b8ff" points="744.64,-299.15 738.68,-307.9 748.8,-304.78 744.64,-299.15"/>
</a>
</g>
</g>
<!-- Node12&#45;&gt;Node5 -->
<g id="edge25_Node000012_Node000005" class="edge">
<title>Node12&#45;&gt;Node5</title>
<g id="a_edge25_Node000012_Node000005"><a xlink:title=" ">
<path fill="none" stroke="#63b8ff" d="M602.72,-317.51C556.71,-309.8 503.62,-296.16 460.28,-272 438.04,-259.6 441.94,-244.37 420.28,-231 375.43,-203.31 347.98,-228.49 307.28,-195 282.63,-174.72 267.58,-139.83 260.1,-118.03"/>
<polygon fill="#63b8ff" stroke="#63b8ff" points="602.3,-320.98 612.73,-319.11 603.41,-314.07 602.3,-320.98"/>
</a>
</g>
</g>
<!-- Node12&#45;&gt;Node6 -->
<g id="edge26_Node000012_Node000006" class="edge">
<title>Node12&#45;&gt;Node6</title>
<g id="a_edge26_Node000012_Node000006"><a xlink:title=" ">
<path fill="none" stroke="#63b8ff" d="M816.21,-324.81C930.49,-320.12 1102.61,-307.25 1157.28,-272 1185.17,-254.02 1201.95,-217.72 1210.13,-195.13"/>
<polygon fill="#63b8ff" stroke="#63b8ff" points="815.88,-321.32 806.02,-325.22 816.15,-328.32 815.88,-321.32"/>
</a>
</g>
</g>
<!-- Node12&#45;&gt;Node7 -->
<g id="edge32_Node000012_Node000007" class="edge">
<title>Node12&#45;&gt;Node7</title>
<g id="a_edge32_Node000012_Node000007"><a xlink:title=" ">
<path fill="none" stroke="#63b8ff" d="M602.47,-307.17C543.04,-295.86 469.63,-281.88 411.91,-270.89"/>
<polygon fill="#63b8ff" stroke="#63b8ff" points="602.16,-310.67 612.64,-309.1 603.47,-303.8 602.16,-310.67"/>
</a>
</g>
</g>
<!-- Node12&#45;&gt;Node9 -->
<g id="edge35_Node000012_Node000009" class="edge">
<title>Node12&#45;&gt;Node9</title>
<g id="a_edge35_Node000012_Node000009"><a xlink:title=" ">
<path fill="none" stroke="#63b8ff" d="M662.84,-303.31C643.42,-293.2 621.15,-281.6 602.8,-272.04"/>
<polygon fill="#63b8ff" stroke="#63b8ff" points="661.33,-306.48 671.82,-307.99 664.57,-300.27 661.33,-306.48"/>
</a>
</g>
</g>
<!-- Node12&#45;&gt;Node10 -->
<g id="edge33_Node000012_Node000010" class="edge">
<title>Node12&#45;&gt;Node10</title>
<g id="a_edge33_Node000012_Node000010"><a xlink:title=" ">
<path fill="none" stroke="#63b8ff" d="M704.48,-297.9C699.58,-276.62 689.91,-248.68 671.28,-231 652.21,-212.91 627.08,-200.71 602.15,-192.48"/>
<polygon fill="#63b8ff" stroke="#63b8ff" points="701.07,-298.66 706.53,-307.73 707.92,-297.23 701.07,-298.66"/>
</a>
</g>
</g>
<!-- Node12&#45;&gt;Node11 -->
<g id="edge34_Node000012_Node000011" class="edge">
<title>Node12&#45;&gt;Node11</title>
<g id="a_edge34_Node000012_Node000011"><a xlink:title=" ">
<path fill="none" stroke="#63b8ff" d="M710.66,-297.58C712.05,-267.36 714.16,-221.53 715.36,-195.47"/>
<polygon fill="#63b8ff" stroke="#63b8ff" points="707.14,-297.79 710.18,-307.94 714.13,-298.11 707.14,-297.79"/>
</a>
</g>
</g>
<!-- Node13 -->
<g id="Node000013" class="node">
<title>Node13</title>
<g id="a_Node000013"><a xlink:href="Subscription_8h.html" target="_top" xlink:title=" ">
<polygon fill="white" stroke="#666666" points="1147.78,-272 954.78,-272 954.78,-231 1147.78,-231 1147.78,-272"/>
<text text-anchor="start" x="962.78" y="-260" font-family="Helvetica,sans-Serif" font-size="10.00">/home/runner/work/open62541pp</text>
<text text-anchor="start" x="962.78" y="-249" font-family="Helvetica,sans-Serif" font-size="10.00">/open62541pp/include/open62541pp</text>
<text text-anchor="middle" x="1051.28" y="-238" font-family="Helvetica,sans-Serif" font-size="10.00">/Subscription.h</text>
</a>
</g>
</g>
<!-- Node12&#45;&gt;Node13 -->
<g id="edge27_Node000012_Node000013" class="edge">
<title>Node12&#45;&gt;Node13</title>
<g id="a_edge27_Node000012_Node000013"><a xlink:title=" ">
<path fill="none" stroke="#63b8ff" d="M808.15,-305.82C856.77,-295.15 914.93,-282.4 962.17,-272.04"/>
<polygon fill="#63b8ff" stroke="#63b8ff" points="807.26,-302.43 798.24,-307.99 808.76,-309.27 807.26,-302.43"/>
</a>
</g>
</g>
<!-- Node13&#45;&gt;Node2 -->
<g id="edge28_Node000013_Node000002" class="edge">
<title>Node13&#45;&gt;Node2</title>
<g id="a_edge28_Node000013_Node000002"><a xlink:title=" ">
<path fill="none" stroke="#63b8ff" d="M1021.32,-224.07C1010.5,-214.52 998.5,-203.93 988.46,-195.07"/>
<polygon fill="#63b8ff" stroke="#63b8ff" points="1019.13,-226.8 1028.94,-230.79 1023.76,-221.55 1019.13,-226.8"/>
</a>
</g>
</g>
<!-- Node13&#45;&gt;Node3 -->
<g id="edge30_Node000013_Node000003" class="edge">
<title>Node13&#45;&gt;Node3</title>
<g id="a_edge30_Node000013_Node000003"><a xlink:title=" ">
<path fill="none" stroke="#63b8ff" d="M1068.23,-221.72C1077.79,-201.37 1085.44,-174.22 1072.28,-154 1026.14,-83.13 979.59,-100.25 898.28,-77 799.56,-48.78 682.62,-34.61 602.12,-27.69"/>
<polygon fill="#63b8ff" stroke="#63b8ff" points="1065.01,-220.32 1063.62,-230.82 1071.26,-223.48 1065.01,-220.32"/>
</a>
</g>
</g>
<!-- Node13&#45;&gt;Node6 -->
<g id="edge29_Node000013_Node000006" class="edge">
<title>Node13&#45;&gt;Node6</title>
<g id="a_edge29_Node000013_Node000006"><a xlink:title=" ">
<path fill="none" stroke="#63b8ff" d="M1103.59,-226.72C1126.05,-216.51 1151.97,-204.73 1173.29,-195.04"/>
<polygon fill="#63b8ff" stroke="#63b8ff" points="1101.85,-223.67 1094.2,-230.99 1104.75,-230.04 1101.85,-223.67"/>
</a>
</g>
</g>
</g>
</svg>
