<?xml version="1.0" encoding="UTF-8" standalone="no"?>
<!DOCTYPE svg PUBLIC "-//W3C//DTD SVG 1.1//EN"
 "http://www.w3.org/Graphics/SVG/1.1/DTD/svg11.dtd">
<!-- Generated by graphviz version 2.43.0 (0)
 -->
<!-- Title: /home/runner/work/open62541pp/open62541pp/include/open62541pp/services/detail/callbackadapter.hpp Pages: 1 -->
<svg width="834pt" height="522pt"
 viewBox="0.00 0.00 834.00 522.00" xmlns="http://www.w3.org/2000/svg" xmlns:xlink="http://www.w3.org/1999/xlink">
<g id="graph0" class="graph" transform="scale(1 1) rotate(0) translate(4 518)">
<title>/home/runner/work/open62541pp/open62541pp/include/open62541pp/services/detail/callbackadapter.hpp</title>
<!-- Node1 -->
<g id="Node000001" class="node">
<title>Node1</title>
<g id="a_Node000001"><a xlink:title=" ">
<polygon fill="#999999" stroke="#666666" points="509,-514 316,-514 316,-473 509,-473 509,-514"/>
<text text-anchor="start" x="324" y="-502" font-family="Helvetica,sans-Serif" font-size="10.00">/home/runner/work/open62541pp</text>
<text text-anchor="start" x="324" y="-491" font-family="Helvetica,sans-Serif" font-size="10.00">/open62541pp/include/open62541pp</text>
<text text-anchor="middle" x="412.5" y="-480" font-family="Helvetica,sans-Serif" font-size="10.00">/services/detail/callbackadapter.hpp</text>
</a>
</g>
</g>
<!-- Node2 -->
<g id="Node000002" class="node">
<title>Node2</title>
<g id="a_Node000002"><a xlink:href="monitoreditem__context_8hpp.html" target="_top" xlink:title=" ">
<polygon fill="white" stroke="#666666" points="615,-437 422,-437 422,-385 615,-385 615,-437"/>
<text text-anchor="start" x="430" y="-425" font-family="Helvetica,sans-Serif" font-size="10.00">/home/runner/work/open62541pp</text>
<text text-anchor="start" x="430" y="-414" font-family="Helvetica,sans-Serif" font-size="10.00">/open62541pp/include/open62541pp</text>
<text text-anchor="start" x="430" y="-403" font-family="Helvetica,sans-Serif" font-size="10.00">/services/detail/monitoreditem</text>
<text text-anchor="middle" x="518.5" y="-392" font-family="Helvetica,sans-Serif" font-size="10.00">_context.hpp</text>
</a>
</g>
</g>
<!-- Node1&#45;&gt;Node2 -->
<g id="edge1_Node000001_Node000002" class="edge">
<title>Node1&#45;&gt;Node2</title>
<g id="a_edge1_Node000001_Node000002"><a xlink:title=" ">
<path fill="none" stroke="#63b8ff" d="M446.69,-466.54C459.04,-457.16 472.95,-446.59 485.22,-437.28"/>
<polygon fill="#63b8ff" stroke="#63b8ff" points="444.28,-463.97 438.43,-472.81 448.51,-469.55 444.28,-463.97"/>
</a>
</g>
</g>
<!-- Node11 -->
<g id="Node000011" class="node">
<title>Node11</title>
<g id="a_Node000011"><a xlink:href="subscription__context_8hpp.html" target="_top" xlink:title=" ">
<polygon fill="white" stroke="#666666" points="404,-437 211,-437 211,-385 404,-385 404,-437"/>
<text text-anchor="start" x="219" y="-425" font-family="Helvetica,sans-Serif" font-size="10.00">/home/runner/work/open62541pp</text>
<text text-anchor="start" x="219" y="-414" font-family="Helvetica,sans-Serif" font-size="10.00">/open62541pp/include/open62541pp</text>
<text text-anchor="start" x="219" y="-403" font-family="Helvetica,sans-Serif" font-size="10.00">/services/detail/subscription</text>
<text text-anchor="middle" x="307.5" y="-392" font-family="Helvetica,sans-Serif" font-size="10.00">_context.hpp</text>
</a>
</g>
</g>
<!-- Node1&#45;&gt;Node11 -->
<g id="edge14_Node000001_Node000011" class="edge">
<title>Node1&#45;&gt;Node11</title>
<g id="a_edge14_Node000001_Node000011"><a xlink:title=" ">
<path fill="none" stroke="#63b8ff" d="M378.63,-466.54C366.4,-457.16 352.62,-446.59 340.47,-437.28"/>
<polygon fill="#63b8ff" stroke="#63b8ff" points="376.75,-469.5 386.81,-472.81 381.01,-463.95 376.75,-469.5"/>
</a>
</g>
</g>
<!-- Node3 -->
<g id="Node000003" class="node">
<title>Node3</title>
<g id="a_Node000003"><a xlink:href="client__context_8hpp.html" target="_top" xlink:title=" ">
<polygon fill="white" stroke="#666666" points="404,-349 211,-349 211,-308 404,-308 404,-349"/>
<text text-anchor="start" x="219" y="-337" font-family="Helvetica,sans-Serif" font-size="10.00">/home/runner/work/open62541pp</text>
<text text-anchor="start" x="219" y="-326" font-family="Helvetica,sans-Serif" font-size="10.00">/open62541pp/include/open62541pp</text>
<text text-anchor="middle" x="307.5" y="-315" font-family="Helvetica,sans-Serif" font-size="10.00">/detail/client_context.hpp</text>
</a>
</g>
</g>
<!-- Node2&#45;&gt;Node3 -->
<g id="edge2_Node000002_Node000003" class="edge">
<title>Node2&#45;&gt;Node3</title>
<g id="a_edge2_Node000002_Node000003"><a xlink:title=" ">
<path fill="none" stroke="#63b8ff" d="M443.5,-381.38C415.39,-370.66 384.12,-358.73 358.66,-349.02"/>
<polygon fill="#63b8ff" stroke="#63b8ff" points="442.3,-384.68 452.89,-384.97 444.8,-378.14 442.3,-384.68"/>
</a>
</g>
</g>
<!-- Node4 -->
<g id="Node000004" class="node">
<title>Node4</title>
<g id="a_Node000004"><a xlink:href="server__context_8hpp.html" target="_top" xlink:title=" ">
<polygon fill="white" stroke="#666666" points="826,-349 633,-349 633,-308 826,-308 826,-349"/>
<text text-anchor="start" x="641" y="-337" font-family="Helvetica,sans-Serif" font-size="10.00">/home/runner/work/open62541pp</text>
<text text-anchor="start" x="641" y="-326" font-family="Helvetica,sans-Serif" font-size="10.00">/open62541pp/include/open62541pp</text>
<text text-anchor="middle" x="729.5" y="-315" font-family="Helvetica,sans-Serif" font-size="10.00">/detail/server_context.hpp</text>
</a>
</g>
</g>
<!-- Node2&#45;&gt;Node4 -->
<g id="edge3_Node000002_Node000004" class="edge">
<title>Node2&#45;&gt;Node4</title>
<g id="a_edge3_Node000002_Node000004"><a xlink:title=" ">
<path fill="none" stroke="#63b8ff" d="M593.5,-381.38C621.61,-370.66 652.88,-358.73 678.34,-349.02"/>
<polygon fill="#63b8ff" stroke="#63b8ff" points="592.2,-378.14 584.11,-384.97 594.7,-384.68 592.2,-378.14"/>
</a>
</g>
</g>
<!-- Node5 -->
<g id="Node000005" class="node">
<title>Node5</title>
<g id="a_Node000005"><a xlink:href="services_2monitoreditem_8hpp.html" target="_top" xlink:title=" ">
<polygon fill="white" stroke="#666666" points="615,-349 422,-349 422,-308 615,-308 615,-349"/>
<text text-anchor="start" x="430" y="-337" font-family="Helvetica,sans-Serif" font-size="10.00">/home/runner/work/open62541pp</text>
<text text-anchor="start" x="430" y="-326" font-family="Helvetica,sans-Serif" font-size="10.00">/open62541pp/include/open62541pp</text>
<text text-anchor="middle" x="518.5" y="-315" font-family="Helvetica,sans-Serif" font-size="10.00">/services/monitoreditem.hpp</text>
</a>
</g>
</g>
<!-- Node2&#45;&gt;Node5 -->
<g id="edge4_Node000002_Node000005" class="edge">
<title>Node2&#45;&gt;Node5</title>
<g id="a_edge4_Node000002_Node000005"><a xlink:title=" ">
<path fill="none" stroke="#63b8ff" d="M518.5,-374.87C518.5,-366.05 518.5,-356.9 518.5,-349.15"/>
<polygon fill="#63b8ff" stroke="#63b8ff" points="515,-374.97 518.5,-384.97 522,-374.97 515,-374.97"/>
</a>
</g>
</g>
<!-- Node6 -->
<g id="Node000006" class="node">
<title>Node6</title>
<g id="a_Node000006"><a xlink:href="monitoreditem_8hpp.html" target="_top" xlink:title=" ">
<polygon fill="white" stroke="#666666" points="615,-272 422,-272 422,-231 615,-231 615,-272"/>
<text text-anchor="start" x="430" y="-260" font-family="Helvetica,sans-Serif" font-size="10.00">/home/runner/work/open62541pp</text>
<text text-anchor="start" x="430" y="-249" font-family="Helvetica,sans-Serif" font-size="10.00">/open62541pp/include/open62541pp</text>
<text text-anchor="middle" x="518.5" y="-238" font-family="Helvetica,sans-Serif" font-size="10.00">/monitoreditem.hpp</text>
</a>
</g>
</g>
<!-- Node5&#45;&gt;Node6 -->
<g id="edge5_Node000005_Node000006" class="edge">
<title>Node5&#45;&gt;Node6</title>
<g id="a_edge5_Node000005_Node000006"><a xlink:title=" ">
<path fill="none" stroke="#63b8ff" d="M518.5,-297.69C518.5,-289.08 518.5,-279.9 518.5,-272.07"/>
<polygon fill="#63b8ff" stroke="#63b8ff" points="515,-297.79 518.5,-307.79 522,-297.79 515,-297.79"/>
</a>
</g>
</g>
<!-- Node8 -->
<g id="Node000008" class="node">
<title>Node8</title>
<g id="a_Node000008"><a xlink:href="subscription_8hpp.html" target="_top" xlink:title=" ">
<polygon fill="white" stroke="#666666" points="490,-195 297,-195 297,-154 490,-154 490,-195"/>
<text text-anchor="start" x="305" y="-183" font-family="Helvetica,sans-Serif" font-size="10.00">/home/runner/work/open62541pp</text>
<text text-anchor="start" x="305" y="-172" font-family="Helvetica,sans-Serif" font-size="10.00">/open62541pp/include/open62541pp</text>
<text text-anchor="middle" x="393.5" y="-161" font-family="Helvetica,sans-Serif" font-size="10.00">/subscription.hpp</text>
</a>
</g>
</g>
<!-- Node5&#45;&gt;Node8 -->
<g id="edge13_Node000005_Node000008" class="edge">
<title>Node5&#45;&gt;Node8</title>
<g id="a_edge13_Node000005_Node000008"><a xlink:title=" ">
<path fill="none" stroke="#63b8ff" d="M450.23,-303.23C435.91,-295.27 422.23,-285.03 412.5,-272 395.74,-249.56 392.66,-216.27 392.61,-195.24"/>
<polygon fill="#63b8ff" stroke="#63b8ff" points="448.7,-306.38 459.19,-307.88 451.93,-300.17 448.7,-306.38"/>
</a>
</g>
</g>
<!-- Node10 -->
<g id="Node000010" class="node">
<title>Node10</title>
<g id="a_Node000010"><a xlink:href="services_8hpp.html" target="_top" xlink:title=" ">
<polygon fill="white" stroke="#666666" points="327,-272 134,-272 134,-231 327,-231 327,-272"/>
<text text-anchor="start" x="142" y="-260" font-family="Helvetica,sans-Serif" font-size="10.00">/home/runner/work/open62541pp</text>
<text text-anchor="start" x="142" y="-249" font-family="Helvetica,sans-Serif" font-size="10.00">/open62541pp/include/open62541pp</text>
<text text-anchor="middle" x="230.5" y="-238" font-family="Helvetica,sans-Serif" font-size="10.00">/services/services.hpp</text>
</a>
</g>
</g>
<!-- Node5&#45;&gt;Node10 -->
<g id="edge11_Node000005_Node000010" class="edge">
<title>Node5&#45;&gt;Node10</title>
<g id="a_edge11_Node000005_Node000010"><a xlink:title=" ">
<path fill="none" stroke="#63b8ff" d="M433.7,-305.42C393.07,-294.84 344.82,-282.27 305.54,-272.04"/>
<polygon fill="#63b8ff" stroke="#63b8ff" points="433.02,-308.86 443.58,-307.99 434.79,-302.08 433.02,-308.86"/>
</a>
</g>
</g>
<!-- Node7 -->
<g id="Node000007" class="node">
<title>Node7</title>
<g id="a_Node000007"><a xlink:href="open62541pp_8hpp.html" target="_top" xlink:title=" ">
<polygon fill="white" stroke="#666666" points="514,-41 321,-41 321,0 514,0 514,-41"/>
<text text-anchor="start" x="329" y="-29" font-family="Helvetica,sans-Serif" font-size="10.00">/home/runner/work/open62541pp</text>
<text text-anchor="start" x="329" y="-18" font-family="Helvetica,sans-Serif" font-size="10.00">/open62541pp/include/open62541pp</text>
<text text-anchor="middle" x="417.5" y="-7" font-family="Helvetica,sans-Serif" font-size="10.00">/open62541pp.hpp</text>
</a>
</g>
</g>
<!-- Node6&#45;&gt;Node7 -->
<g id="edge6_Node000006_Node000007" class="edge">
<title>Node6&#45;&gt;Node7</title>
<g id="a_edge6_Node000006_Node000007"><a xlink:title=" ">
<path fill="none" stroke="#63b8ff" d="M517.08,-220.33C514.14,-183.9 505.12,-121.92 477.5,-77 469.03,-63.22 456.2,-50.71 444.58,-41.07"/>
<polygon fill="#63b8ff" stroke="#63b8ff" points="513.62,-221.04 517.81,-230.77 520.6,-220.55 513.62,-221.04"/>
</a>
</g>
</g>
<!-- Node6&#45;&gt;Node8 -->
<g id="edge7_Node000006_Node000008" class="edge">
<title>Node6&#45;&gt;Node8</title>
<g id="a_edge7_Node000006_Node000008"><a xlink:title=" ">
<path fill="none" stroke="#63b8ff" d="M477.07,-225.64C460.56,-215.74 441.83,-204.5 426.29,-195.17"/>
<polygon fill="#63b8ff" stroke="#63b8ff" points="475.61,-228.85 485.98,-230.99 479.21,-222.84 475.61,-228.85"/>
</a>
</g>
</g>
<!-- Node8&#45;&gt;Node7 -->
<g id="edge10_Node000008_Node000007" class="edge">
<title>Node8&#45;&gt;Node7</title>
<g id="a_edge10_Node000008_Node000007"><a xlink:title=" ">
<path fill="none" stroke="#63b8ff" d="M436.13,-147.68C445.94,-139.51 455.07,-129.54 460.5,-118 468.25,-101.51 466.4,-94.24 460.5,-77 455.92,-63.62 446.67,-50.97 437.91,-41.14"/>
<polygon fill="#63b8ff" stroke="#63b8ff" points="433.94,-144.95 428.18,-153.85 438.23,-150.48 433.94,-144.95"/>
</a>
</g>
</g>
<!-- Node9 -->
<g id="Node000009" class="node">
<title>Node9</title>
<g id="a_Node000009"><a xlink:href="client_8hpp.html" target="_top" xlink:title=" ">
<polygon fill="white" stroke="#666666" points="452,-118 259,-118 259,-77 452,-77 452,-118"/>
<text text-anchor="start" x="267" y="-106" font-family="Helvetica,sans-Serif" font-size="10.00">/home/runner/work/open62541pp</text>
<text text-anchor="start" x="267" y="-95" font-family="Helvetica,sans-Serif" font-size="10.00">/open62541pp/include/open62541pp</text>
<text text-anchor="middle" x="355.5" y="-84" font-family="Helvetica,sans-Serif" font-size="10.00">/client.hpp</text>
</a>
</g>
</g>
<!-- Node8&#45;&gt;Node9 -->
<g id="edge8_Node000008_Node000009" class="edge">
<title>Node8&#45;&gt;Node9</title>
<g id="a_edge8_Node000008_Node000009"><a xlink:title=" ">
<path fill="none" stroke="#63b8ff" d="M378.97,-144.83C374.44,-135.89 369.55,-126.24 365.42,-118.07"/>
<polygon fill="#63b8ff" stroke="#63b8ff" points="375.87,-146.46 383.52,-153.79 382.12,-143.29 375.87,-146.46"/>
</a>
</g>
</g>
<!-- Node9&#45;&gt;Node7 -->
<g id="edge9_Node000009_Node000007" class="edge">
<title>Node9&#45;&gt;Node7</title>
<g id="a_edge9_Node000009_Node000007"><a xlink:title=" ">
<path fill="none" stroke="#63b8ff" d="M378.27,-68.95C385.92,-59.7 394.28,-49.58 401.32,-41.07"/>
<polygon fill="#63b8ff" stroke="#63b8ff" points="375.46,-66.86 371.79,-76.79 380.86,-71.32 375.46,-66.86"/>
</a>
</g>
</g>
<!-- Node10&#45;&gt;Node7 -->
<g id="edge12_Node000010_Node000007" class="edge">
<title>Node10&#45;&gt;Node7</title>
<g id="a_edge12_Node000010_Node000007"><a xlink:title=" ">
<path fill="none" stroke="#63b8ff" d="M224.79,-220.42C219.44,-182.6 216.53,-117.73 249.5,-77 267.28,-55.03 293.98,-41.69 320.89,-33.6"/>
<polygon fill="#63b8ff" stroke="#63b8ff" points="221.41,-221.44 226.42,-230.77 228.32,-220.35 221.41,-221.44"/>
</a>
</g>
</g>
<!-- Node11&#45;&gt;Node3 -->
<g id="edge15_Node000011_Node000003" class="edge">
<title>Node11&#45;&gt;Node3</title>
<g id="a_edge15_Node000011_Node000003"><a xlink:title=" ">
<path fill="none" stroke="#63b8ff" d="M307.5,-374.87C307.5,-366.05 307.5,-356.9 307.5,-349.15"/>
<polygon fill="#63b8ff" stroke="#63b8ff" points="304,-374.97 307.5,-384.97 311,-374.97 304,-374.97"/>
</a>
</g>
</g>
<!-- Node12 -->
<g id="Node000012" class="node">
<title>Node12</title>
<g id="a_Node000012"><a xlink:href="services_2subscription_8hpp.html" target="_top" xlink:title=" ">
<polygon fill="white" stroke="#666666" points="193,-349 0,-349 0,-308 193,-308 193,-349"/>
<text text-anchor="start" x="8" y="-337" font-family="Helvetica,sans-Serif" font-size="10.00">/home/runner/work/open62541pp</text>
<text text-anchor="start" x="8" y="-326" font-family="Helvetica,sans-Serif" font-size="10.00">/open62541pp/include/open62541pp</text>
<text text-anchor="middle" x="96.5" y="-315" font-family="Helvetica,sans-Serif" font-size="10.00">/services/subscription.hpp</text>
</a>
</g>
</g>
<!-- Node11&#45;&gt;Node12 -->
<g id="edge16_Node000011_Node000012" class="edge">
<title>Node11&#45;&gt;Node12</title>
<g id="a_edge16_Node000011_Node000012"><a xlink:title=" ">
<path fill="none" stroke="#63b8ff" d="M232.5,-381.38C204.39,-370.66 173.12,-358.73 147.66,-349.02"/>
<polygon fill="#63b8ff" stroke="#63b8ff" points="231.3,-384.68 241.89,-384.97 233.8,-378.14 231.3,-384.68"/>
</a>
</g>
</g>
<!-- Node12&#45;&gt;Node8 -->
<g id="edge18_Node000012_Node000008" class="edge">
<title>Node12&#45;&gt;Node8</title>
<g id="a_edge18_Node000012_Node000008"><a xlink:title=" ">
<path fill="none" stroke="#63b8ff" d="M97.35,-297.53C99.6,-276 106.2,-247.91 124.5,-231 149.5,-207.9 230.26,-193.31 296.82,-184.91"/>
<polygon fill="#63b8ff" stroke="#63b8ff" points="93.84,-297.54 96.54,-307.79 100.81,-298.09 93.84,-297.54"/>
</a>
</g>
</g>
<!-- Node12&#45;&gt;Node10 -->
<g id="edge17_Node000012_Node000010" class="edge">
<title>Node12&#45;&gt;Node10</title>
<g id="a_edge17_Node000012_Node000010"><a xlink:title=" ">
<path fill="none" stroke="#63b8ff" d="M140.42,-302.92C158.24,-292.95 178.54,-281.58 195.35,-272.17"/>
<polygon fill="#63b8ff" stroke="#63b8ff" points="138.37,-300.05 131.36,-307.99 141.79,-306.16 138.37,-300.05"/>
</a>
</g>
</g>
</g>
</svg>
