<?xml version="1.0" encoding="UTF-8" standalone="no"?>
<!DOCTYPE svg PUBLIC "-//W3C//DTD SVG 1.1//EN"
 "http://www.w3.org/Graphics/SVG/1.1/DTD/svg11.dtd">
<!-- Generated by graphviz version 2.43.0 (0)
 -->
<!-- Title: /home/runner/work/open62541pp/open62541pp/include/open62541pp/services/detail/CallbackAdapter.h Pages: 1 -->
<svg width="917pt" height="511pt"
 viewBox="0.00 0.00 917.00 511.00" xmlns="http://www.w3.org/2000/svg" xmlns:xlink="http://www.w3.org/1999/xlink">
<g id="graph0" class="graph" transform="scale(1 1) rotate(0) translate(4 507)">
<title>/home/runner/work/open62541pp/open62541pp/include/open62541pp/services/detail/CallbackAdapter.h</title>
<!-- Node1 -->
<g id="Node000001" class="node">
<title>Node1</title>
<g id="a_Node000001"><a xlink:title=" ">
<polygon fill="#999999" stroke="#666666" points="786,-503 593,-503 593,-462 786,-462 786,-503"/>
<text text-anchor="start" x="601" y="-491" font-family="Helvetica,sans-Serif" font-size="10.00">/home/runner/work/open62541pp</text>
<text text-anchor="start" x="601" y="-480" font-family="Helvetica,sans-Serif" font-size="10.00">/open62541pp/include/open62541pp</text>
<text text-anchor="middle" x="689.5" y="-469" font-family="Helvetica,sans-Serif" font-size="10.00">/services/detail/CallbackAdapter.h</text>
</a>
</g>
</g>
<!-- Node2 -->
<g id="Node000002" class="node">
<title>Node2</title>
<g id="a_Node000002"><a xlink:href="MonitoredItemContext_8h.html" target="_top" xlink:title=" ">
<polygon fill="white" stroke="#666666" points="909,-426 696,-426 696,-385 909,-385 909,-426"/>
<text text-anchor="start" x="704" y="-414" font-family="Helvetica,sans-Serif" font-size="10.00">/home/runner/work/open62541pp</text>
<text text-anchor="start" x="704" y="-403" font-family="Helvetica,sans-Serif" font-size="10.00">/open62541pp/include/open62541pp</text>
<text text-anchor="middle" x="802.5" y="-392" font-family="Helvetica,sans-Serif" font-size="10.00">/services/detail/MonitoredItemContext.h</text>
</a>
</g>
</g>
<!-- Node1&#45;&gt;Node2 -->
<g id="edge1_Node000001_Node000002" class="edge">
<title>Node1&#45;&gt;Node2</title>
<g id="a_edge1_Node000001_Node000002"><a xlink:title=" ">
<path fill="none" stroke="#63b8ff" d="M727.36,-456.37C742.19,-446.53 758.94,-435.41 772.86,-426.17"/>
<polygon fill="#63b8ff" stroke="#63b8ff" points="725.29,-453.54 718.89,-461.99 729.16,-459.38 725.29,-453.54"/>
</a>
</g>
</g>
<!-- Node15 -->
<g id="Node000015" class="node">
<title>Node15</title>
<g id="a_Node000015"><a xlink:href="SubscriptionContext_8h.html" target="_top" xlink:title=" ">
<polygon fill="white" stroke="#666666" points="678,-426 477,-426 477,-385 678,-385 678,-426"/>
<text text-anchor="start" x="485" y="-414" font-family="Helvetica,sans-Serif" font-size="10.00">/home/runner/work/open62541pp</text>
<text text-anchor="start" x="485" y="-403" font-family="Helvetica,sans-Serif" font-size="10.00">/open62541pp/include/open62541pp</text>
<text text-anchor="middle" x="577.5" y="-392" font-family="Helvetica,sans-Serif" font-size="10.00">/services/detail/SubscriptionContext.h</text>
</a>
</g>
</g>
<!-- Node1&#45;&gt;Node15 -->
<g id="edge23_Node000001_Node000015" class="edge">
<title>Node1&#45;&gt;Node15</title>
<g id="a_edge23_Node000001_Node000015"><a xlink:title=" ">
<path fill="none" stroke="#63b8ff" d="M651.97,-456.37C637.28,-446.53 620.67,-435.41 606.88,-426.17"/>
<polygon fill="#63b8ff" stroke="#63b8ff" points="650.11,-459.33 660.37,-461.99 654,-453.52 650.11,-459.33"/>
</a>
</g>
</g>
<!-- Node3 -->
<g id="Node000003" class="node">
<title>Node3</title>
<g id="a_Node000003"><a xlink:href="ClientContext_8h.html" target="_top" xlink:title=" ">
<polygon fill="white" stroke="#666666" points="674,-349 481,-349 481,-308 674,-308 674,-349"/>
<text text-anchor="start" x="489" y="-337" font-family="Helvetica,sans-Serif" font-size="10.00">/home/runner/work/open62541pp</text>
<text text-anchor="start" x="489" y="-326" font-family="Helvetica,sans-Serif" font-size="10.00">/open62541pp/include/open62541pp</text>
<text text-anchor="middle" x="577.5" y="-315" font-family="Helvetica,sans-Serif" font-size="10.00">/detail/ClientContext.h</text>
</a>
</g>
</g>
<!-- Node2&#45;&gt;Node3 -->
<g id="edge2_Node000002_Node000003" class="edge">
<title>Node2&#45;&gt;Node3</title>
<g id="a_edge2_Node000002_Node000003"><a xlink:title=" ">
<path fill="none" stroke="#63b8ff" d="M734.43,-381.81C703.07,-371.36 666.23,-359.08 636.13,-349.04"/>
<polygon fill="#63b8ff" stroke="#63b8ff" points="733.38,-385.15 743.97,-384.99 735.59,-378.51 733.38,-385.15"/>
</a>
</g>
</g>
<!-- Node13 -->
<g id="Node000013" class="node">
<title>Node13</title>
<g id="a_Node000013"><a xlink:href="ServerContext_8h.html" target="_top" xlink:title=" ">
<polygon fill="white" stroke="#666666" points="883,-41 690,-41 690,0 883,0 883,-41"/>
<text text-anchor="start" x="698" y="-29" font-family="Helvetica,sans-Serif" font-size="10.00">/home/runner/work/open62541pp</text>
<text text-anchor="start" x="698" y="-18" font-family="Helvetica,sans-Serif" font-size="10.00">/open62541pp/include/open62541pp</text>
<text text-anchor="middle" x="786.5" y="-7" font-family="Helvetica,sans-Serif" font-size="10.00">/detail/ServerContext.h</text>
</a>
</g>
</g>
<!-- Node2&#45;&gt;Node13 -->
<g id="edge22_Node000002_Node000013" class="edge">
<title>Node2&#45;&gt;Node13</title>
<g id="a_edge22_Node000002_Node000013"><a xlink:title=" ">
<path fill="none" stroke="#63b8ff" d="M820.03,-375.73C836.46,-345.99 858.5,-297.67 858.5,-252.5 858.5,-252.5 858.5,-252.5 858.5,-173.5 858.5,-129.7 858.67,-115.88 838.5,-77 831.51,-63.52 820.3,-50.95 810.08,-41.2"/>
<polygon fill="#63b8ff" stroke="#63b8ff" points="816.83,-374.28 814.93,-384.71 822.91,-377.74 816.83,-374.28"/>
</a>
</g>
</g>
<!-- Node4 -->
<g id="Node000004" class="node">
<title>Node4</title>
<g id="a_Node000004"><a xlink:href="ClientService_8h.html" target="_top" xlink:title=" ">
<polygon fill="white" stroke="#666666" points="618,-272 425,-272 425,-231 618,-231 618,-272"/>
<text text-anchor="start" x="433" y="-260" font-family="Helvetica,sans-Serif" font-size="10.00">/home/runner/work/open62541pp</text>
<text text-anchor="start" x="433" y="-249" font-family="Helvetica,sans-Serif" font-size="10.00">/open62541pp/include/open62541pp</text>
<text text-anchor="middle" x="521.5" y="-238" font-family="Helvetica,sans-Serif" font-size="10.00">/services/detail/ClientService.h</text>
</a>
</g>
</g>
<!-- Node3&#45;&gt;Node4 -->
<g id="edge3_Node000003_Node000004" class="edge">
<title>Node3&#45;&gt;Node4</title>
<g id="a_edge3_Node000003_Node000004"><a xlink:title=" ">
<path fill="none" stroke="#63b8ff" d="M556.72,-299.67C549.87,-290.5 542.4,-280.5 536.12,-272.07"/>
<polygon fill="#63b8ff" stroke="#63b8ff" points="554,-301.88 562.79,-307.79 559.61,-297.69 554,-301.88"/>
</a>
</g>
</g>
<!-- Node5 -->
<g id="Node000005" class="node">
<title>Node5</title>
<g id="a_Node000005"><a xlink:href="Attribute_8h.html" target="_top" xlink:title=" ">
<polygon fill="white" stroke="#666666" points="196,-195 3,-195 3,-154 196,-154 196,-195"/>
<text text-anchor="start" x="11" y="-183" font-family="Helvetica,sans-Serif" font-size="10.00">/home/runner/work/open62541pp</text>
<text text-anchor="start" x="11" y="-172" font-family="Helvetica,sans-Serif" font-size="10.00">/open62541pp/include/open62541pp</text>
<text text-anchor="middle" x="99.5" y="-161" font-family="Helvetica,sans-Serif" font-size="10.00">/services/Attribute.h</text>
</a>
</g>
</g>
<!-- Node4&#45;&gt;Node5 -->
<g id="edge4_Node000004_Node000005" class="edge">
<title>Node4&#45;&gt;Node5</title>
<g id="a_edge4_Node000004_Node000005"><a xlink:title=" ">
<path fill="none" stroke="#63b8ff" d="M414.58,-232.06C353.1,-221.39 274.42,-207.61 204.5,-195 201.76,-194.51 198.99,-194 196.18,-193.49"/>
<polygon fill="#63b8ff" stroke="#63b8ff" points="414.24,-235.56 424.69,-233.82 415.43,-228.66 414.24,-235.56"/>
</a>
</g>
</g>
<!-- Node10 -->
<g id="Node000010" class="node">
<title>Node10</title>
<g id="a_Node000010"><a xlink:href="Method_8h.html" target="_top" xlink:title=" ">
<polygon fill="white" stroke="#666666" points="407,-195 214,-195 214,-154 407,-154 407,-195"/>
<text text-anchor="start" x="222" y="-183" font-family="Helvetica,sans-Serif" font-size="10.00">/home/runner/work/open62541pp</text>
<text text-anchor="start" x="222" y="-172" font-family="Helvetica,sans-Serif" font-size="10.00">/open62541pp/include/open62541pp</text>
<text text-anchor="middle" x="310.5" y="-161" font-family="Helvetica,sans-Serif" font-size="10.00">/services/Method.h</text>
</a>
</g>
</g>
<!-- Node4&#45;&gt;Node10 -->
<g id="edge11_Node000004_Node000010" class="edge">
<title>Node4&#45;&gt;Node10</title>
<g id="a_edge11_Node000004_Node000010"><a xlink:title=" ">
<path fill="none" stroke="#63b8ff" d="M456.9,-227.54C427.66,-217.15 393.47,-204.99 365.48,-195.04"/>
<polygon fill="#63b8ff" stroke="#63b8ff" points="456.02,-230.94 466.61,-230.99 458.36,-224.34 456.02,-230.94"/>
</a>
</g>
</g>
<!-- Node11 -->
<g id="Node000011" class="node">
<title>Node11</title>
<g id="a_Node000011"><a xlink:href="NodeManagement_8h.html" target="_top" xlink:title=" ">
<polygon fill="white" stroke="#666666" points="829,-195 636,-195 636,-154 829,-154 829,-195"/>
<text text-anchor="start" x="644" y="-183" font-family="Helvetica,sans-Serif" font-size="10.00">/home/runner/work/open62541pp</text>
<text text-anchor="start" x="644" y="-172" font-family="Helvetica,sans-Serif" font-size="10.00">/open62541pp/include/open62541pp</text>
<text text-anchor="middle" x="732.5" y="-161" font-family="Helvetica,sans-Serif" font-size="10.00">/services/NodeManagement.h</text>
</a>
</g>
</g>
<!-- Node4&#45;&gt;Node11 -->
<g id="edge14_Node000004_Node000011" class="edge">
<title>Node4&#45;&gt;Node11</title>
<g id="a_edge14_Node000004_Node000011"><a xlink:title=" ">
<path fill="none" stroke="#63b8ff" d="M586.1,-227.54C615.34,-217.15 649.53,-204.99 677.52,-195.04"/>
<polygon fill="#63b8ff" stroke="#63b8ff" points="584.64,-224.34 576.39,-230.99 586.98,-230.94 584.64,-224.34"/>
</a>
</g>
</g>
<!-- Node14 -->
<g id="Node000014" class="node">
<title>Node14</title>
<g id="a_Node000014"><a xlink:href="View_8h.html" target="_top" xlink:title=" ">
<polygon fill="white" stroke="#666666" points="618,-195 425,-195 425,-154 618,-154 618,-195"/>
<text text-anchor="start" x="433" y="-183" font-family="Helvetica,sans-Serif" font-size="10.00">/home/runner/work/open62541pp</text>
<text text-anchor="start" x="433" y="-172" font-family="Helvetica,sans-Serif" font-size="10.00">/open62541pp/include/open62541pp</text>
<text text-anchor="middle" x="521.5" y="-161" font-family="Helvetica,sans-Serif" font-size="10.00">/services/View.h</text>
</a>
</g>
</g>
<!-- Node4&#45;&gt;Node14 -->
<g id="edge19_Node000004_Node000014" class="edge">
<title>Node4&#45;&gt;Node14</title>
<g id="a_edge19_Node000004_Node000014"><a xlink:title=" ">
<path fill="none" stroke="#63b8ff" d="M521.5,-220.69C521.5,-212.08 521.5,-202.9 521.5,-195.07"/>
<polygon fill="#63b8ff" stroke="#63b8ff" points="518,-220.79 521.5,-230.79 525,-220.79 518,-220.79"/>
</a>
</g>
</g>
<!-- Node6 -->
<g id="Node000006" class="node">
<title>Node6</title>
<g id="a_Node000006"><a xlink:href="Node_8h.html" target="_top" xlink:title=" ">
<polygon fill="white" stroke="#666666" points="407.5,-118 211.5,-118 211.5,-77 407.5,-77 407.5,-118"/>
<text text-anchor="start" x="219.5" y="-106" font-family="Helvetica,sans-Serif" font-size="10.00">/home/runner/work/open62541pp</text>
<text text-anchor="start" x="219.5" y="-95" font-family="Helvetica,sans-Serif" font-size="10.00">/open62541pp/include/open62541pp/</text>
<text text-anchor="middle" x="309.5" y="-84" font-family="Helvetica,sans-Serif" font-size="10.00">Node.h</text>
</a>
</g>
</g>
<!-- Node5&#45;&gt;Node6 -->
<g id="edge5_Node000005_Node000006" class="edge">
<title>Node5&#45;&gt;Node6</title>
<g id="a_edge5_Node000005_Node000006"><a xlink:title=" ">
<path fill="none" stroke="#63b8ff" d="M163.79,-150.54C192.89,-140.15 226.93,-127.99 254.78,-118.04"/>
<polygon fill="#63b8ff" stroke="#63b8ff" points="162.37,-147.33 154.13,-153.99 164.72,-153.92 162.37,-147.33"/>
</a>
</g>
</g>
<!-- Node8 -->
<g id="Node000008" class="node">
<title>Node8</title>
<g id="a_Node000008"><a xlink:href="Attribute__highlevel_8h.html" target="_top" xlink:title=" ">
<polygon fill="white" stroke="#666666" points="193,-118 0,-118 0,-77 193,-77 193,-118"/>
<text text-anchor="start" x="8" y="-106" font-family="Helvetica,sans-Serif" font-size="10.00">/home/runner/work/open62541pp</text>
<text text-anchor="start" x="8" y="-95" font-family="Helvetica,sans-Serif" font-size="10.00">/open62541pp/include/open62541pp</text>
<text text-anchor="middle" x="96.5" y="-84" font-family="Helvetica,sans-Serif" font-size="10.00">/services/Attribute_highlevel.h</text>
</a>
</g>
</g>
<!-- Node5&#45;&gt;Node8 -->
<g id="edge7_Node000005_Node000008" class="edge">
<title>Node5&#45;&gt;Node8</title>
<g id="a_edge7_Node000005_Node000008"><a xlink:title=" ">
<path fill="none" stroke="#63b8ff" d="M91.69,-143.69C91.05,-135.08 90.89,-125.9 91.27,-118.07"/>
<polygon fill="#63b8ff" stroke="#63b8ff" points="88.22,-144.19 92.69,-153.79 95.18,-143.5 88.22,-144.19"/>
</a>
</g>
</g>
<!-- Node9 -->
<g id="Node000009" class="node">
<title>Node9</title>
<g id="a_Node000009"><a xlink:href="services_8h.html" target="_top" xlink:title=" ">
<polygon fill="white" stroke="#666666" points="619,-118 426,-118 426,-77 619,-77 619,-118"/>
<text text-anchor="start" x="434" y="-106" font-family="Helvetica,sans-Serif" font-size="10.00">/home/runner/work/open62541pp</text>
<text text-anchor="start" x="434" y="-95" font-family="Helvetica,sans-Serif" font-size="10.00">/open62541pp/include/open62541pp</text>
<text text-anchor="middle" x="522.5" y="-84" font-family="Helvetica,sans-Serif" font-size="10.00">/services/services.h</text>
</a>
</g>
</g>
<!-- Node5&#45;&gt;Node9 -->
<g id="edge9_Node000005_Node000009" class="edge">
<title>Node5&#45;&gt;Node9</title>
<g id="a_edge9_Node000005_Node000009"><a xlink:title=" ">
<path fill="none" stroke="#63b8ff" d="M206.13,-153.72C300.25,-137.08 325.51,-134.09 416.5,-118 419.54,-117.46 422.63,-116.91 425.75,-116.36"/>
<polygon fill="#63b8ff" stroke="#63b8ff" points="205.42,-150.29 196.18,-155.49 206.64,-157.19 205.42,-150.29"/>
</a>
</g>
</g>
<!-- Node7 -->
<g id="Node000007" class="node">
<title>Node7</title>
<g id="a_Node000007"><a xlink:href="open62541pp_8h.html" target="_top" xlink:title=" ">
<polygon fill="white" stroke="#666666" points="566,-41 373,-41 373,0 566,0 566,-41"/>
<text text-anchor="start" x="381" y="-29" font-family="Helvetica,sans-Serif" font-size="10.00">/home/runner/work/open62541pp</text>
<text text-anchor="start" x="381" y="-18" font-family="Helvetica,sans-Serif" font-size="10.00">/open62541pp/include/open62541pp</text>
<text text-anchor="middle" x="469.5" y="-7" font-family="Helvetica,sans-Serif" font-size="10.00">/open62541pp.h</text>
</a>
</g>
</g>
<!-- Node6&#45;&gt;Node7 -->
<g id="edge6_Node000006_Node000007" class="edge">
<title>Node6&#45;&gt;Node7</title>
<g id="a_edge6_Node000006_Node000007"><a xlink:title=" ">
<path fill="none" stroke="#63b8ff" d="M360.23,-72.72C382,-62.51 407.14,-50.73 427.81,-41.04"/>
<polygon fill="#63b8ff" stroke="#63b8ff" points="358.69,-69.58 351.12,-76.99 361.66,-75.92 358.69,-69.58"/>
</a>
</g>
</g>
<!-- Node8&#45;&gt;Node5 -->
<g id="edge8_Node000008_Node000005" class="edge">
<title>Node8&#45;&gt;Node5</title>
<g id="a_edge8_Node000008_Node000005"><a xlink:title=" ">
<path fill="none" stroke="#63b8ff" d="M104.3,-128.16C104.94,-136.77 105.11,-145.96 104.74,-153.79"/>
<polygon fill="#63b8ff" stroke="#63b8ff" points="107.77,-127.68 103.29,-118.07 100.81,-128.37 107.77,-127.68"/>
</a>
</g>
</g>
<!-- Node9&#45;&gt;Node7 -->
<g id="edge10_Node000009_Node000007" class="edge">
<title>Node9&#45;&gt;Node7</title>
<g id="a_edge10_Node000009_Node000007"><a xlink:title=" ">
<path fill="none" stroke="#63b8ff" d="M502.64,-68.39C496.21,-59.3 489.22,-49.41 483.33,-41.07"/>
<polygon fill="#63b8ff" stroke="#63b8ff" points="499.95,-70.65 508.57,-76.79 505.66,-66.61 499.95,-70.65"/>
</a>
</g>
</g>
<!-- Node10&#45;&gt;Node6 -->
<g id="edge12_Node000010_Node000006" class="edge">
<title>Node10&#45;&gt;Node6</title>
<g id="a_edge12_Node000010_Node000006"><a xlink:title=" ">
<path fill="none" stroke="#63b8ff" d="M310.1,-143.69C309.99,-135.08 309.87,-125.9 309.76,-118.07"/>
<polygon fill="#63b8ff" stroke="#63b8ff" points="306.6,-143.84 310.24,-153.79 313.6,-143.75 306.6,-143.84"/>
</a>
</g>
</g>
<!-- Node10&#45;&gt;Node9 -->
<g id="edge13_Node000010_Node000009" class="edge">
<title>Node10&#45;&gt;Node9</title>
<g id="a_edge13_Node000010_Node000009"><a xlink:title=" ">
<path fill="none" stroke="#63b8ff" d="M375.4,-150.54C404.78,-140.15 439.14,-127.99 467.26,-118.04"/>
<polygon fill="#63b8ff" stroke="#63b8ff" points="373.91,-147.36 365.65,-153.99 376.24,-153.95 373.91,-147.36"/>
</a>
</g>
</g>
<!-- Node11&#45;&gt;Node6 -->
<g id="edge15_Node000011_Node000006" class="edge">
<title>Node11&#45;&gt;Node6</title>
<g id="a_edge15_Node000011_Node000006"><a xlink:title=" ">
<path fill="none" stroke="#63b8ff" d="M625.79,-153.89C531.63,-137.22 506.65,-133.94 416.5,-118 413.62,-117.49 410.69,-116.97 407.74,-116.44"/>
<polygon fill="#63b8ff" stroke="#63b8ff" points="625.29,-157.35 635.75,-155.65 626.51,-150.46 625.29,-157.35"/>
</a>
</g>
</g>
<!-- Node11&#45;&gt;Node9 -->
<g id="edge18_Node000011_Node000009" class="edge">
<title>Node11&#45;&gt;Node9</title>
<g id="a_edge18_Node000011_Node000009"><a xlink:title=" ">
<path fill="none" stroke="#63b8ff" d="M668.21,-150.54C639.11,-140.15 605.07,-127.99 577.22,-118.04"/>
<polygon fill="#63b8ff" stroke="#63b8ff" points="667.28,-153.92 677.87,-153.99 669.63,-147.33 667.28,-153.92"/>
</a>
</g>
</g>
<!-- Node12 -->
<g id="Node000012" class="node">
<title>Node12</title>
<g id="a_Node000012"><a xlink:href="NodeContext_8h.html" target="_top" xlink:title=" ">
<polygon fill="white" stroke="#666666" points="830,-118 637,-118 637,-77 830,-77 830,-118"/>
<text text-anchor="start" x="645" y="-106" font-family="Helvetica,sans-Serif" font-size="10.00">/home/runner/work/open62541pp</text>
<text text-anchor="start" x="645" y="-95" font-family="Helvetica,sans-Serif" font-size="10.00">/open62541pp/include/open62541pp</text>
<text text-anchor="middle" x="733.5" y="-84" font-family="Helvetica,sans-Serif" font-size="10.00">/detail/NodeContext.h</text>
</a>
</g>
</g>
<!-- Node11&#45;&gt;Node12 -->
<g id="edge16_Node000011_Node000012" class="edge">
<title>Node11&#45;&gt;Node12</title>
<g id="a_edge16_Node000011_Node000012"><a xlink:title=" ">
<path fill="none" stroke="#63b8ff" d="M732.9,-143.69C733.01,-135.08 733.13,-125.9 733.24,-118.07"/>
<polygon fill="#63b8ff" stroke="#63b8ff" points="729.4,-143.75 732.76,-153.79 736.4,-143.84 729.4,-143.75"/>
</a>
</g>
</g>
<!-- Node12&#45;&gt;Node13 -->
<g id="edge17_Node000012_Node000013" class="edge">
<title>Node12&#45;&gt;Node13</title>
<g id="a_edge17_Node000012_Node000013"><a xlink:title=" ">
<path fill="none" stroke="#63b8ff" d="M753.36,-68.39C759.79,-59.3 766.78,-49.41 772.67,-41.07"/>
<polygon fill="#63b8ff" stroke="#63b8ff" points="750.34,-66.61 747.43,-76.79 756.05,-70.65 750.34,-66.61"/>
</a>
</g>
</g>
<!-- Node14&#45;&gt;Node6 -->
<g id="edge20_Node000014_Node000006" class="edge">
<title>Node14&#45;&gt;Node6</title>
<g id="a_edge20_Node000014_Node000006"><a xlink:title=" ">
<path fill="none" stroke="#63b8ff" d="M456.6,-150.54C427.22,-140.15 392.86,-127.99 364.74,-118.04"/>
<polygon fill="#63b8ff" stroke="#63b8ff" points="455.76,-153.95 466.35,-153.99 458.09,-147.36 455.76,-153.95"/>
</a>
</g>
</g>
<!-- Node14&#45;&gt;Node9 -->
<g id="edge21_Node000014_Node000009" class="edge">
<title>Node14&#45;&gt;Node9</title>
<g id="a_edge21_Node000014_Node000009"><a xlink:title=" ">
<path fill="none" stroke="#63b8ff" d="M521.9,-143.69C522.01,-135.08 522.13,-125.9 522.24,-118.07"/>
<polygon fill="#63b8ff" stroke="#63b8ff" points="518.4,-143.75 521.76,-153.79 525.4,-143.84 518.4,-143.75"/>
</a>
</g>
</g>
<!-- Node15&#45;&gt;Node3 -->
<g id="edge24_Node000015_Node000003" class="edge">
<title>Node15&#45;&gt;Node3</title>
<g id="a_edge24_Node000015_Node000003"><a xlink:title=" ">
<path fill="none" stroke="#63b8ff" d="M577.5,-374.69C577.5,-366.08 577.5,-356.9 577.5,-349.07"/>
<polygon fill="#63b8ff" stroke="#63b8ff" points="574,-374.79 577.5,-384.79 581,-374.79 574,-374.79"/>
</a>
</g>
</g>
</g>
</svg>
