<?xml version="1.0" encoding="UTF-8" standalone="no"?>
<!DOCTYPE svg PUBLIC "-//W3C//DTD SVG 1.1//EN"
 "http://www.w3.org/Graphics/SVG/1.1/DTD/svg11.dtd">
<!-- Generated by graphviz version 2.43.0 (0)
 -->
<!-- Title: opcua::XmlElement Pages: 1 -->
<svg width="554pt" height="86pt"
 viewBox="0.00 0.00 554.00 86.00" xmlns="http://www.w3.org/2000/svg" xmlns:xlink="http://www.w3.org/1999/xlink">
<g id="graph0" class="graph" transform="scale(1 1) rotate(0) translate(4 82)">
<title>opcua::XmlElement</title>
<!-- Node1 -->
<g id="Node000001" class="node">
<title>Node1</title>
<g id="a_Node000001"><a xlink:title="UA_XmlElement wrapper class.">
<polygon fill="#999999" stroke="#666666" points="546,-48.5 434,-48.5 434,-29.5 546,-29.5 546,-48.5"/>
<text text-anchor="middle" x="490" y="-36.5" font-family="Helvetica,sans-Serif" font-size="10.00">opcua::XmlElement</text>
</a>
</g>
</g>
<!-- Node2 -->
<g id="Node000002" class="node">
<title>Node2</title>
<g id="a_Node000002"><a xlink:href="classopcua_1_1Wrapper.html" target="_top" xlink:title="Template base class to wrap (native) objects.">
<polygon fill="white" stroke="#666666" points="398,-78 214,-78 214,-48 398,-48 398,-78"/>
<text text-anchor="start" x="222" y="-66" font-family="Helvetica,sans-Serif" font-size="10.00">WrapperNative&lt; UA_XmlElement,</text>
<text text-anchor="middle" x="306" y="-55" font-family="Helvetica,sans-Serif" font-size="10.00"> UA_TYPES_XMLELEMENT &gt;</text>
</a>
</g>
</g>
<!-- Node2&#45;&gt;Node1 -->
<g id="edge1_Node000001_Node000002" class="edge">
<title>Node2&#45;&gt;Node1</title>
<g id="a_edge1_Node000001_Node000002"><a xlink:title=" ">
<path fill="none" stroke="#63b8ff" d="M408.42,-49.63C417.04,-48.49 425.54,-47.37 433.59,-46.31"/>
<polygon fill="#63b8ff" stroke="#63b8ff" points="407.72,-46.19 398.27,-50.96 408.64,-53.13 407.72,-46.19"/>
</a>
</g>
</g>
<!-- Node3 -->
<g id="Node000003" class="node">
<title>Node3</title>
<g id="a_Node000003"><a xlink:title=" ">
<polygon fill="white" stroke="#666666" points="178,-78 0,-78 0,-48 178,-48 178,-78"/>
<text text-anchor="start" x="8" y="-66" font-family="Helvetica,sans-Serif" font-size="10.00">opcua::detail::WrapperDestructor</text>
<text text-anchor="middle" x="89" y="-55" font-family="Helvetica,sans-Serif" font-size="10.00">Mixin&lt; WrapperType, Clear &gt;</text>
</a>
</g>
</g>
<!-- Node3&#45;&gt;Node2 -->
<g id="edge2_Node000002_Node000003" class="edge">
<title>Node3&#45;&gt;Node2</title>
<g id="a_edge2_Node000002_Node000003"><a xlink:title=" ">
<path fill="none" stroke="#63b8ff" d="M188.11,-63C196.71,-63 205.39,-63 213.93,-63"/>
<polygon fill="#63b8ff" stroke="#63b8ff" points="188.07,-59.5 178.07,-63 188.07,-66.5 188.07,-59.5"/>
</a>
</g>
</g>
<!-- Node4 -->
<g id="Node000004" class="node">
<title>Node4</title>
<g id="a_Node000004"><a xlink:title=" ">
<polygon fill="white" stroke="#666666" points="382.5,-30 229.5,-30 229.5,0 382.5,0 382.5,-30"/>
<text text-anchor="start" x="237.5" y="-18" font-family="Helvetica,sans-Serif" font-size="10.00">opcua::detail::StringLike</text>
<text text-anchor="middle" x="306" y="-7" font-family="Helvetica,sans-Serif" font-size="10.00">Mixin&lt; XmlElement, char &gt;</text>
</a>
</g>
</g>
<!-- Node4&#45;&gt;Node1 -->
<g id="edge3_Node000001_Node000004" class="edge">
<title>Node4&#45;&gt;Node1</title>
<g id="a_edge3_Node000001_Node000004"><a xlink:title=" ">
<path fill="none" stroke="#63b8ff" d="M392.74,-26.31C406.73,-28.15 420.89,-30.02 433.88,-31.73"/>
<polygon fill="#63b8ff" stroke="#63b8ff" points="392.98,-22.81 382.6,-24.97 392.06,-29.75 392.98,-22.81"/>
</a>
</g>
</g>
</g>
</svg>
