<?xml version="1.0" encoding="UTF-8" standalone="no"?>
<!DOCTYPE svg PUBLIC "-//W3C//DTD SVG 1.1//EN"
 "http://www.w3.org/Graphics/SVG/1.1/DTD/svg11.dtd">
<!-- Generated by graphviz version 2.43.0 (0)
 -->
<!-- Title: opcua::ua::IssuedIdentityToken Pages: 1 -->
<svg width="186pt" height="181pt"
 viewBox="0.00 0.00 186.00 181.00" xmlns="http://www.w3.org/2000/svg" xmlns:xlink="http://www.w3.org/1999/xlink">
<g id="graph0" class="graph" transform="scale(1 1) rotate(0) translate(4 177)">
<title>opcua::ua::IssuedIdentityToken</title>
<!-- Node1 -->
<g id="Node000001" class="node">
<title>Node1</title>
<g id="a_Node000001"><a xlink:title="UA_IssuedIdentityToken wrapper class.">
<polygon fill="#999999" stroke="#666666" points="158.5,-30 19.5,-30 19.5,0 158.5,0 158.5,-30"/>
<text text-anchor="start" x="27.5" y="-18" font-family="Helvetica,sans-Serif" font-size="10.00">opcua::ua::IssuedIdentity</text>
<text text-anchor="middle" x="89" y="-7" font-family="Helvetica,sans-Serif" font-size="10.00">Token</text>
</a>
</g>
</g>
<!-- Node2 -->
<g id="Node000002" class="node">
<title>Node2</title>
<g id="a_Node000002"><a xlink:href="classopcua_1_1Wrapper.html" target="_top" xlink:title="Template base class to wrap (native) objects.">
<polygon fill="white" stroke="#666666" points="165,-107 13,-107 13,-66 165,-66 165,-107"/>
<text text-anchor="start" x="21" y="-95" font-family="Helvetica,sans-Serif" font-size="10.00">WrapperNative&lt; UA_Issued</text>
<text text-anchor="start" x="21" y="-84" font-family="Helvetica,sans-Serif" font-size="10.00">IdentityToken, UA_TYPES</text>
<text text-anchor="middle" x="89" y="-73" font-family="Helvetica,sans-Serif" font-size="10.00">_ISSUEDIDENTITYTOKEN &gt;</text>
</a>
</g>
</g>
<!-- Node2&#45;&gt;Node1 -->
<g id="edge1_Node000001_Node000002" class="edge">
<title>Node2&#45;&gt;Node1</title>
<g id="a_edge1_Node000001_Node000002"><a xlink:title=" ">
<path fill="none" stroke="#63b8ff" d="M89,-55.66C89,-46.76 89,-37.42 89,-30.04"/>
<polygon fill="#63b8ff" stroke="#63b8ff" points="85.5,-55.77 89,-65.77 92.5,-55.77 85.5,-55.77"/>
</a>
</g>
</g>
<!-- Node3 -->
<g id="Node000003" class="node">
<title>Node3</title>
<g id="a_Node000003"><a xlink:title=" ">
<polygon fill="white" stroke="#666666" points="178,-173 0,-173 0,-143 178,-143 178,-173"/>
<text text-anchor="start" x="8" y="-161" font-family="Helvetica,sans-Serif" font-size="10.00">opcua::detail::WrapperDestructor</text>
<text text-anchor="middle" x="89" y="-150" font-family="Helvetica,sans-Serif" font-size="10.00">Mixin&lt; WrapperType, Clear &gt;</text>
</a>
</g>
</g>
<!-- Node3&#45;&gt;Node2 -->
<g id="edge2_Node000002_Node000003" class="edge">
<title>Node3&#45;&gt;Node2</title>
<g id="a_edge2_Node000002_Node000003"><a xlink:title=" ">
<path fill="none" stroke="#63b8ff" d="M89,-132.91C89,-124.47 89,-115.1 89,-107.07"/>
<polygon fill="#63b8ff" stroke="#63b8ff" points="85.5,-132.94 89,-142.94 92.5,-132.94 85.5,-132.94"/>
</a>
</g>
</g>
</g>
</svg>
