<?xml version="1.0" encoding="UTF-8" standalone="no"?>
<!DOCTYPE svg PUBLIC "-//W3C//DTD SVG 1.1//EN"
 "http://www.w3.org/Graphics/SVG/1.1/DTD/svg11.dtd">
<!-- Generated by graphviz version 2.43.0 (0)
 -->
<!-- Title: opcua::ua::CreateMonitoredItemsResponse Pages: 1 -->
<svg width="676pt" height="49pt"
 viewBox="0.00 0.00 676.00 49.00" xmlns="http://www.w3.org/2000/svg" xmlns:xlink="http://www.w3.org/1999/xlink">
<g id="graph0" class="graph" transform="scale(1 1) rotate(0) translate(4 45)">
<title>opcua::ua::CreateMonitoredItemsResponse</title>
<!-- Node1 -->
<g id="Node000001" class="node">
<title>Node1</title>
<g id="a_Node000001"><a xlink:title="UA_CreateMonitoredItemsResponse wrapper class.">
<polygon fill="#999999" stroke="#666666" points="668,-35.5 516,-35.5 516,-5.5 668,-5.5 668,-35.5"/>
<text text-anchor="start" x="524" y="-23.5" font-family="Helvetica,sans-Serif" font-size="10.00">opcua::ua::CreateMonitored</text>
<text text-anchor="middle" x="592" y="-12.5" font-family="Helvetica,sans-Serif" font-size="10.00">ItemsResponse</text>
</a>
</g>
</g>
<!-- Node2 -->
<g id="Node000002" class="node">
<title>Node2</title>
<g id="a_Node000002"><a xlink:href="classopcua_1_1Wrapper.html" target="_top" xlink:title="Template base class to wrap (native) objects.">
<polygon fill="white" stroke="#666666" points="480,-41 214,-41 214,0 480,0 480,-41"/>
<text text-anchor="start" x="222" y="-29" font-family="Helvetica,sans-Serif" font-size="10.00">WrapperNative&lt; UA_Create</text>
<text text-anchor="start" x="222" y="-18" font-family="Helvetica,sans-Serif" font-size="10.00">MonitoredItemsResponse,</text>
<text text-anchor="middle" x="347" y="-7" font-family="Helvetica,sans-Serif" font-size="10.00"> UA_TYPES_CREATEMONITOREDITEMSRESPONSE &gt;</text>
</a>
</g>
</g>
<!-- Node2&#45;&gt;Node1 -->
<g id="edge1_Node000001_Node000002" class="edge">
<title>Node2&#45;&gt;Node1</title>
<g id="a_edge1_Node000001_Node000002"><a xlink:title=" ">
<path fill="none" stroke="#63b8ff" d="M490.17,-20.5C498.98,-20.5 507.64,-20.5 515.96,-20.5"/>
<polygon fill="#63b8ff" stroke="#63b8ff" points="490.17,-17 480.17,-20.5 490.17,-24 490.17,-17"/>
</a>
</g>
</g>
<!-- Node3 -->
<g id="Node000003" class="node">
<title>Node3</title>
<g id="a_Node000003"><a xlink:title=" ">
<polygon fill="white" stroke="#666666" points="178,-35.5 0,-35.5 0,-5.5 178,-5.5 178,-35.5"/>
<text text-anchor="start" x="8" y="-23.5" font-family="Helvetica,sans-Serif" font-size="10.00">opcua::detail::WrapperDestructor</text>
<text text-anchor="middle" x="89" y="-12.5" font-family="Helvetica,sans-Serif" font-size="10.00">Mixin&lt; WrapperType, Clear &gt;</text>
</a>
</g>
</g>
<!-- Node3&#45;&gt;Node2 -->
<g id="edge2_Node000002_Node000003" class="edge">
<title>Node3&#45;&gt;Node2</title>
<g id="a_edge2_Node000002_Node000003"><a xlink:title=" ">
<path fill="none" stroke="#63b8ff" d="M188.25,-20.5C196.64,-20.5 205.22,-20.5 213.83,-20.5"/>
<polygon fill="#63b8ff" stroke="#63b8ff" points="188.1,-17 178.1,-20.5 188.1,-24 188.1,-17"/>
</a>
</g>
</g>
</g>
</svg>
