<?xml version="1.0" encoding="UTF-8" standalone="no"?>
<!DOCTYPE svg PUBLIC "-//W3C//DTD SVG 1.1//EN"
 "http://www.w3.org/Graphics/SVG/1.1/DTD/svg11.dtd">
<!-- Generated by graphviz version 2.43.0 (0)
 -->
<!-- Title: opcua::TranslateBrowsePathsToNodeIdsRequest Pages: 1 -->
<svg width="628pt" height="60pt"
 viewBox="0.00 0.00 628.00 60.00" xmlns="http://www.w3.org/2000/svg" xmlns:xlink="http://www.w3.org/1999/xlink">
<g id="graph0" class="graph" transform="scale(1 1) rotate(0) translate(4 56)">
<title>opcua::TranslateBrowsePathsToNodeIdsRequest</title>
<!-- Node1 -->
<g id="Node000001" class="node">
<title>Node1</title>
<g id="a_Node000001"><a xlink:title="UA_TranslateBrowsePathsToNodeIdsRequest wrapper class.">
<polygon fill="#999999" stroke="#666666" points="620,-41 462,-41 462,-11 620,-11 620,-41"/>
<text text-anchor="start" x="470" y="-29" font-family="Helvetica,sans-Serif" font-size="10.00">opcua::TranslateBrowsePaths</text>
<text text-anchor="middle" x="541" y="-18" font-family="Helvetica,sans-Serif" font-size="10.00">ToNodeIdsRequest</text>
</a>
</g>
</g>
<!-- Node2 -->
<g id="Node000002" class="node">
<title>Node2</title>
<g id="a_Node000002"><a xlink:href="classopcua_1_1TypeWrapper.html" target="_top" xlink:title=" ">
<polygon fill="white" stroke="#666666" points="426,-52 158,-52 158,0 426,0 426,-52"/>
<text text-anchor="start" x="166" y="-40" font-family="Helvetica,sans-Serif" font-size="10.00">opcua::TypeWrapper</text>
<text text-anchor="start" x="166" y="-29" font-family="Helvetica,sans-Serif" font-size="10.00">&lt; UA_TranslateBrowsePathsTo</text>
<text text-anchor="start" x="166" y="-18" font-family="Helvetica,sans-Serif" font-size="10.00">NodeIdsRequest, UA_TYPES</text>
<text text-anchor="middle" x="292" y="-7" font-family="Helvetica,sans-Serif" font-size="10.00">_TRANSLATEBROWSEPATHSTONODEIDSREQUEST &gt;</text>
</a>
</g>
</g>
<!-- Node2&#45;&gt;Node1 -->
<g id="edge1_Node000001_Node000002" class="edge">
<title>Node2&#45;&gt;Node1</title>
<g id="a_edge1_Node000001_Node000002"><a xlink:title=" ">
<path fill="none" stroke="#63b8ff" d="M436.5,-26C445.19,-26 453.73,-26 461.97,-26"/>
<polygon fill="#63b8ff" stroke="#63b8ff" points="436.26,-22.5 426.26,-26 436.26,-29.5 436.26,-22.5"/>
</a>
</g>
</g>
<!-- Node3 -->
<g id="Node000003" class="node">
<title>Node3</title>
<g id="a_Node000003"><a xlink:href="classopcua_1_1Wrapper.html" target="_top" xlink:title="Template base class to wrap native objects.">
<polygon fill="white" stroke="#666666" points="122,-35.5 0,-35.5 0,-16.5 122,-16.5 122,-35.5"/>
<text text-anchor="middle" x="61" y="-23.5" font-family="Helvetica,sans-Serif" font-size="10.00">opcua::Wrapper&lt; T &gt;</text>
</a>
</g>
</g>
<!-- Node3&#45;&gt;Node2 -->
<g id="edge2_Node000002_Node000003" class="edge">
<title>Node3&#45;&gt;Node2</title>
<g id="a_edge2_Node000002_Node000003"><a xlink:title=" ">
<path fill="none" stroke="#63b8ff" d="M132.3,-26C140.46,-26 148.98,-26 157.64,-26"/>
<polygon fill="#63b8ff" stroke="#63b8ff" points="132.17,-22.5 122.17,-26 132.17,-29.5 132.17,-22.5"/>
</a>
</g>
</g>
</g>
</svg>
