<?xml version="1.0" encoding="UTF-8" standalone="no"?>
<!DOCTYPE svg PUBLIC "-//W3C//DTD SVG 1.1//EN"
 "http://www.w3.org/Graphics/SVG/1.1/DTD/svg11.dtd">
<!-- Generated by graphviz version 2.43.0 (0)
 -->
<!-- Title: opcua::ua::UnregisterNodesRequest Pages: 1 -->
<svg width="237pt" height="170pt"
 viewBox="0.00 0.00 237.00 170.00" xmlns="http://www.w3.org/2000/svg" xmlns:xlink="http://www.w3.org/1999/xlink">
<g id="graph0" class="graph" transform="scale(1 1) rotate(0) translate(4 166)">
<title>opcua::ua::UnregisterNodesRequest</title>
<!-- Node1 -->
<g id="Node000001" class="node">
<title>Node1</title>
<g id="a_Node000001"><a xlink:title="UA_UnregisterNodesRequest wrapper class.">
<polygon fill="#999999" stroke="#666666" points="190.5,-30 38.5,-30 38.5,0 190.5,0 190.5,-30"/>
<text text-anchor="start" x="46.5" y="-18" font-family="Helvetica,sans-Serif" font-size="10.00">opcua::ua::UnregisterNodes</text>
<text text-anchor="middle" x="114.5" y="-7" font-family="Helvetica,sans-Serif" font-size="10.00">Request</text>
</a>
</g>
</g>
<!-- Node2 -->
<g id="Node000002" class="node">
<title>Node2</title>
<g id="a_Node000002"><a xlink:href="classopcua_1_1TypeWrapper.html" target="_top" xlink:title=" ">
<polygon fill="white" stroke="#666666" points="229,-107 0,-107 0,-66 229,-66 229,-107"/>
<text text-anchor="start" x="8" y="-95" font-family="Helvetica,sans-Serif" font-size="10.00">opcua::TypeWrapper</text>
<text text-anchor="start" x="8" y="-84" font-family="Helvetica,sans-Serif" font-size="10.00">&lt; UA_UnregisterNodesRequest,</text>
<text text-anchor="middle" x="114.5" y="-73" font-family="Helvetica,sans-Serif" font-size="10.00"> UA_TYPES_UNREGISTERNODESREQUEST &gt;</text>
</a>
</g>
</g>
<!-- Node2&#45;&gt;Node1 -->
<g id="edge1_Node000001_Node000002" class="edge">
<title>Node2&#45;&gt;Node1</title>
<g id="a_edge1_Node000001_Node000002"><a xlink:title=" ">
<path fill="none" stroke="#63b8ff" d="M114.5,-55.66C114.5,-46.76 114.5,-37.42 114.5,-30.04"/>
<polygon fill="#63b8ff" stroke="#63b8ff" points="111,-55.77 114.5,-65.77 118,-55.77 111,-55.77"/>
</a>
</g>
</g>
<!-- Node3 -->
<g id="Node000003" class="node">
<title>Node3</title>
<g id="a_Node000003"><a xlink:href="classopcua_1_1Wrapper.html" target="_top" xlink:title="Template base class to wrap native objects.">
<polygon fill="white" stroke="#666666" points="175.5,-162 53.5,-162 53.5,-143 175.5,-143 175.5,-162"/>
<text text-anchor="middle" x="114.5" y="-150" font-family="Helvetica,sans-Serif" font-size="10.00">opcua::Wrapper&lt; T &gt;</text>
</a>
</g>
</g>
<!-- Node3&#45;&gt;Node2 -->
<g id="edge2_Node000002_Node000003" class="edge">
<title>Node3&#45;&gt;Node2</title>
<g id="a_edge2_Node000002_Node000003"><a xlink:title=" ">
<path fill="none" stroke="#63b8ff" d="M114.5,-132.63C114.5,-124.56 114.5,-115.15 114.5,-107.01"/>
<polygon fill="#63b8ff" stroke="#63b8ff" points="111,-132.87 114.5,-142.87 118,-132.87 111,-132.87"/>
</a>
</g>
</g>
</g>
</svg>
