<?xml version="1.0" encoding="UTF-8" standalone="no"?>
<!DOCTYPE svg PUBLIC "-//W3C//DTD SVG 1.1//EN"
 "http://www.w3.org/Graphics/SVG/1.1/DTD/svg11.dtd">
<!-- Generated by graphviz version 2.43.0 (0)
 -->
<!-- Title: opcua::ua::ContentFilterElement Pages: 1 -->
<svg width="219pt" height="181pt"
 viewBox="0.00 0.00 219.00 181.00" xmlns="http://www.w3.org/2000/svg" xmlns:xlink="http://www.w3.org/1999/xlink">
<g id="graph0" class="graph" transform="scale(1 1) rotate(0) translate(4 177)">
<title>opcua::ua::ContentFilterElement</title>
<!-- Node1 -->
<g id="Node000001" class="node">
<title>Node1</title>
<g id="a_Node000001"><a xlink:title="UA_ContentFilterElement wrapper class.">
<polygon fill="#999999" stroke="#666666" points="172,-30 39,-30 39,0 172,0 172,-30"/>
<text text-anchor="start" x="47" y="-18" font-family="Helvetica,sans-Serif" font-size="10.00">opcua::ua::ContentFilter</text>
<text text-anchor="middle" x="105.5" y="-7" font-family="Helvetica,sans-Serif" font-size="10.00">Element</text>
</a>
</g>
</g>
<!-- Node2 -->
<g id="Node000002" class="node">
<title>Node2</title>
<g id="a_Node000002"><a xlink:href="classopcua_1_1TypeWrapper.html" target="_top" xlink:title=" ">
<polygon fill="white" stroke="#666666" points="211,-107 0,-107 0,-66 211,-66 211,-107"/>
<text text-anchor="start" x="8" y="-95" font-family="Helvetica,sans-Serif" font-size="10.00">opcua::TypeWrapper</text>
<text text-anchor="start" x="8" y="-84" font-family="Helvetica,sans-Serif" font-size="10.00">&lt; UA_ContentFilterElement,</text>
<text text-anchor="middle" x="105.5" y="-73" font-family="Helvetica,sans-Serif" font-size="10.00"> UA_TYPES_CONTENTFILTERELEMENT &gt;</text>
</a>
</g>
</g>
<!-- Node2&#45;&gt;Node1 -->
<g id="edge1_Node000001_Node000002" class="edge">
<title>Node2&#45;&gt;Node1</title>
<g id="a_edge1_Node000001_Node000002"><a xlink:title=" ">
<path fill="none" stroke="#63b8ff" d="M105.5,-55.66C105.5,-46.76 105.5,-37.42 105.5,-30.04"/>
<polygon fill="#63b8ff" stroke="#63b8ff" points="102,-55.77 105.5,-65.77 109,-55.77 102,-55.77"/>
</a>
</g>
</g>
<!-- Node3 -->
<g id="Node000003" class="node">
<title>Node3</title>
<g id="a_Node000003"><a xlink:href="classopcua_1_1Wrapper.html" target="_top" xlink:title=" ">
<polygon fill="white" stroke="#666666" points="174,-173 37,-173 37,-143 174,-143 174,-173"/>
<text text-anchor="start" x="45" y="-161" font-family="Helvetica,sans-Serif" font-size="10.00">opcua::Wrapper&lt; UA</text>
<text text-anchor="middle" x="105.5" y="-150" font-family="Helvetica,sans-Serif" font-size="10.00">_ContentFilterElement &gt;</text>
</a>
</g>
</g>
<!-- Node3&#45;&gt;Node2 -->
<g id="edge2_Node000002_Node000003" class="edge">
<title>Node3&#45;&gt;Node2</title>
<g id="a_edge2_Node000002_Node000003"><a xlink:title=" ">
<path fill="none" stroke="#63b8ff" d="M105.5,-132.91C105.5,-124.47 105.5,-115.1 105.5,-107.07"/>
<polygon fill="#63b8ff" stroke="#63b8ff" points="102,-132.94 105.5,-142.94 109,-132.94 102,-132.94"/>
</a>
</g>
</g>
</g>
</svg>
