<?xml version="1.0" encoding="UTF-8" standalone="no"?>
<!DOCTYPE svg PUBLIC "-//W3C//DTD SVG 1.1//EN"
 "http://www.w3.org/Graphics/SVG/1.1/DTD/svg11.dtd">
<!-- Generated by graphviz version 2.43.0 (0)
 -->
<!-- Title: opcua::UnregisterNodesRequest Pages: 1 -->
<svg width="237pt" height="159pt"
 viewBox="0.00 0.00 237.00 159.00" xmlns="http://www.w3.org/2000/svg" xmlns:xlink="http://www.w3.org/1999/xlink">
<g id="graph0" class="graph" transform="scale(1 1) rotate(0) translate(4 155)">
<title>opcua::UnregisterNodesRequest</title>
<!-- Node1 -->
<g id="Node000001" class="node">
<title>Node1</title>
<g id="a_Node000001"><a xlink:title="UA_UnregisterNodesRequest wrapper class.">
<polygon fill="#999999" stroke="#666666" points="201,-19 28,-19 28,0 201,0 201,-19"/>
<text text-anchor="middle" x="114.5" y="-7" font-family="Helvetica,sans-Serif" font-size="10.00">opcua::UnregisterNodesRequest</text>
</a>
</g>
</g>
<!-- Node2 -->
<g id="Node000002" class="node">
<title>Node2</title>
<g id="a_Node000002"><a xlink:href="classopcua_1_1TypeWrapper.html" target="_top" xlink:title=" ">
<polygon fill="white" stroke="#666666" points="229,-96 0,-96 0,-55 229,-55 229,-96"/>
<text text-anchor="start" x="8" y="-84" font-family="Helvetica,sans-Serif" font-size="10.00">opcua::TypeWrapper</text>
<text text-anchor="start" x="8" y="-73" font-family="Helvetica,sans-Serif" font-size="10.00">&lt; UA_UnregisterNodesRequest,</text>
<text text-anchor="middle" x="114.5" y="-62" font-family="Helvetica,sans-Serif" font-size="10.00"> UA_TYPES_UNREGISTERNODESREQUEST &gt;</text>
</a>
</g>
</g>
<!-- Node2&#45;&gt;Node1 -->
<g id="edge1_Node000001_Node000002" class="edge">
<title>Node2&#45;&gt;Node1</title>
<g id="a_edge1_Node000001_Node000002"><a xlink:title=" ">
<path fill="none" stroke="#63b8ff" d="M114.5,-44.74C114.5,-35.45 114.5,-25.9 114.5,-19.26"/>
<polygon fill="#63b8ff" stroke="#63b8ff" points="111,-44.95 114.5,-54.95 118,-44.95 111,-44.95"/>
</a>
</g>
</g>
<!-- Node3 -->
<g id="Node000003" class="node">
<title>Node3</title>
<g id="a_Node000003"><a xlink:href="classopcua_1_1Wrapper.html" target="_top" xlink:title="Template base class to wrap native objects.">
<polygon fill="white" stroke="#666666" points="175.5,-151 53.5,-151 53.5,-132 175.5,-132 175.5,-151"/>
<text text-anchor="middle" x="114.5" y="-139" font-family="Helvetica,sans-Serif" font-size="10.00">opcua::Wrapper&lt; T &gt;</text>
</a>
</g>
</g>
<!-- Node3&#45;&gt;Node2 -->
<g id="edge2_Node000002_Node000003" class="edge">
<title>Node3&#45;&gt;Node2</title>
<g id="a_edge2_Node000002_Node000003"><a xlink:title=" ">
<path fill="none" stroke="#63b8ff" d="M114.5,-121.63C114.5,-113.56 114.5,-104.15 114.5,-96.01"/>
<polygon fill="#63b8ff" stroke="#63b8ff" points="111,-121.87 114.5,-131.87 118,-121.87 111,-121.87"/>
</a>
</g>
</g>
</g>
</svg>
