<?xml version="1.0" encoding="UTF-8" standalone="no"?>
<!DOCTYPE svg PUBLIC "-//W3C//DTD SVG 1.1//EN"
 "http://www.w3.org/Graphics/SVG/1.1/DTD/svg11.dtd">
<!-- Generated by graphviz version 2.43.0 (0)
 -->
<!-- Title: opcua::ua::MonitoringParameters Pages: 1 -->
<svg width="224pt" height="159pt"
 viewBox="0.00 0.00 224.00 159.00" xmlns="http://www.w3.org/2000/svg" xmlns:xlink="http://www.w3.org/1999/xlink">
<g id="graph0" class="graph" transform="scale(1 1) rotate(0) translate(4 155)">
<title>opcua::ua::MonitoringParameters</title>
<!-- Node1 -->
<g id="Node000001" class="node">
<title>Node1</title>
<g id="a_Node000001"><a xlink:title="UA_MonitoringParameters wrapper class.">
<polygon fill="#999999" stroke="#666666" points="197,-19 19,-19 19,0 197,0 197,-19"/>
<text text-anchor="middle" x="108" y="-7" font-family="Helvetica,sans-Serif" font-size="10.00">opcua::ua::MonitoringParameters</text>
</a>
</g>
</g>
<!-- Node2 -->
<g id="Node000002" class="node">
<title>Node2</title>
<g id="a_Node000002"><a xlink:href="classopcua_1_1TypeWrapper.html" target="_top" xlink:title=" ">
<polygon fill="white" stroke="#666666" points="216,-96 0,-96 0,-55 216,-55 216,-96"/>
<text text-anchor="start" x="8" y="-84" font-family="Helvetica,sans-Serif" font-size="10.00">opcua::TypeWrapper</text>
<text text-anchor="start" x="8" y="-73" font-family="Helvetica,sans-Serif" font-size="10.00">&lt; UA_MonitoringParameters,</text>
<text text-anchor="middle" x="108" y="-62" font-family="Helvetica,sans-Serif" font-size="10.00"> UA_TYPES_MONITORINGPARAMETERS &gt;</text>
</a>
</g>
</g>
<!-- Node2&#45;&gt;Node1 -->
<g id="edge1_Node000001_Node000002" class="edge">
<title>Node2&#45;&gt;Node1</title>
<g id="a_edge1_Node000001_Node000002"><a xlink:title=" ">
<path fill="none" stroke="#63b8ff" d="M108,-44.74C108,-35.45 108,-25.9 108,-19.26"/>
<polygon fill="#63b8ff" stroke="#63b8ff" points="104.5,-44.95 108,-54.95 111.5,-44.95 104.5,-44.95"/>
</a>
</g>
</g>
<!-- Node3 -->
<g id="Node000003" class="node">
<title>Node3</title>
<g id="a_Node000003"><a xlink:href="classopcua_1_1Wrapper.html" target="_top" xlink:title="Template base class to wrap native objects.">
<polygon fill="white" stroke="#666666" points="169,-151 47,-151 47,-132 169,-132 169,-151"/>
<text text-anchor="middle" x="108" y="-139" font-family="Helvetica,sans-Serif" font-size="10.00">opcua::Wrapper&lt; T &gt;</text>
</a>
</g>
</g>
<!-- Node3&#45;&gt;Node2 -->
<g id="edge2_Node000002_Node000003" class="edge">
<title>Node3&#45;&gt;Node2</title>
<g id="a_edge2_Node000002_Node000003"><a xlink:title=" ">
<path fill="none" stroke="#63b8ff" d="M108,-121.63C108,-113.56 108,-104.15 108,-96.01"/>
<polygon fill="#63b8ff" stroke="#63b8ff" points="104.5,-121.87 108,-131.87 111.5,-121.87 104.5,-121.87"/>
</a>
</g>
</g>
</g>
</svg>
