<?xml version="1.0" encoding="UTF-8" standalone="no"?>
<!DOCTYPE svg PUBLIC "-//W3C//DTD SVG 1.1//EN"
 "http://www.w3.org/Graphics/SVG/1.1/DTD/svg11.dtd">
<!-- Generated by graphviz version 2.43.0 (0)
 -->
<!-- Title: opcua::ua::DeleteSubscriptionsResponse Pages: 1 -->
<svg width="678pt" height="49pt"
 viewBox="0.00 0.00 678.00 49.00" xmlns="http://www.w3.org/2000/svg" xmlns:xlink="http://www.w3.org/1999/xlink">
<g id="graph0" class="graph" transform="scale(1 1) rotate(0) translate(4 45)">
<title>opcua::ua::DeleteSubscriptionsResponse</title>
<!-- Node1 -->
<g id="Node000001" class="node">
<title>Node1</title>
<g id="a_Node000001"><a xlink:title="UA_DeleteSubscriptionsResponse wrapper class.">
<polygon fill="#999999" stroke="#666666" points="670,-35.5 503,-35.5 503,-5.5 670,-5.5 670,-35.5"/>
<text text-anchor="start" x="511" y="-23.5" font-family="Helvetica,sans-Serif" font-size="10.00">opcua::ua::DeleteSubscriptions</text>
<text text-anchor="middle" x="586.5" y="-12.5" font-family="Helvetica,sans-Serif" font-size="10.00">Response</text>
</a>
</g>
</g>
<!-- Node2 -->
<g id="Node000002" class="node">
<title>Node2</title>
<g id="a_Node000002"><a xlink:href="classopcua_1_1Wrapper.html" target="_top" xlink:title="Template base class to wrap (native) objects.">
<polygon fill="white" stroke="#666666" points="467,-41 214,-41 214,0 467,0 467,-41"/>
<text text-anchor="start" x="222" y="-29" font-family="Helvetica,sans-Serif" font-size="10.00">WrapperNative&lt; UA_Delete</text>
<text text-anchor="start" x="222" y="-18" font-family="Helvetica,sans-Serif" font-size="10.00">SubscriptionsResponse,</text>
<text text-anchor="middle" x="340.5" y="-7" font-family="Helvetica,sans-Serif" font-size="10.00"> UA_TYPES_DELETESUBSCRIPTIONSRESPONSE &gt;</text>
</a>
</g>
</g>
<!-- Node2&#45;&gt;Node1 -->
<g id="edge1_Node000001_Node000002" class="edge">
<title>Node2&#45;&gt;Node1</title>
<g id="a_edge1_Node000001_Node000002"><a xlink:title=" ">
<path fill="none" stroke="#63b8ff" d="M477.3,-20.5C485.98,-20.5 494.57,-20.5 502.88,-20.5"/>
<polygon fill="#63b8ff" stroke="#63b8ff" points="477.07,-17 467.07,-20.5 477.07,-24 477.07,-17"/>
</a>
</g>
</g>
<!-- Node3 -->
<g id="Node000003" class="node">
<title>Node3</title>
<g id="a_Node000003"><a xlink:title=" ">
<polygon fill="white" stroke="#666666" points="178,-35.5 0,-35.5 0,-5.5 178,-5.5 178,-35.5"/>
<text text-anchor="start" x="8" y="-23.5" font-family="Helvetica,sans-Serif" font-size="10.00">opcua::detail::WrapperDestructor</text>
<text text-anchor="middle" x="89" y="-12.5" font-family="Helvetica,sans-Serif" font-size="10.00">Mixin&lt; WrapperType, Clear &gt;</text>
</a>
</g>
</g>
<!-- Node3&#45;&gt;Node2 -->
<g id="edge2_Node000002_Node000003" class="edge">
<title>Node3&#45;&gt;Node2</title>
<g id="a_edge2_Node000002_Node000003"><a xlink:title=" ">
<path fill="none" stroke="#63b8ff" d="M188.39,-20.5C196.72,-20.5 205.21,-20.5 213.72,-20.5"/>
<polygon fill="#63b8ff" stroke="#63b8ff" points="188.32,-17 178.32,-20.5 188.32,-24 188.32,-17"/>
</a>
</g>
</g>
</g>
</svg>
