<?xml version="1.0" encoding="UTF-8" standalone="no"?>
<!DOCTYPE svg PUBLIC "-//W3C//DTD SVG 1.1//EN"
 "http://www.w3.org/Graphics/SVG/1.1/DTD/svg11.dtd">
<!-- Generated by graphviz version 2.43.0 (0)
 -->
<!-- Title: opcua::ua::ModifySubscriptionRequest Pages: 1 -->
<svg width="647pt" height="49pt"
 viewBox="0.00 0.00 647.00 49.00" xmlns="http://www.w3.org/2000/svg" xmlns:xlink="http://www.w3.org/1999/xlink">
<g id="graph0" class="graph" transform="scale(1 1) rotate(0) translate(4 45)">
<title>opcua::ua::ModifySubscriptionRequest</title>
<!-- Node1 -->
<g id="Node000001" class="node">
<title>Node1</title>
<g id="a_Node000001"><a xlink:title="UA_ModifySubscriptionRequest wrapper class.">
<polygon fill="#999999" stroke="#666666" points="639,-35.5 476,-35.5 476,-5.5 639,-5.5 639,-35.5"/>
<text text-anchor="start" x="484" y="-23.5" font-family="Helvetica,sans-Serif" font-size="10.00">opcua::ua::ModifySubscription</text>
<text text-anchor="middle" x="557.5" y="-12.5" font-family="Helvetica,sans-Serif" font-size="10.00">Request</text>
</a>
</g>
</g>
<!-- Node2 -->
<g id="Node000002" class="node">
<title>Node2</title>
<g id="a_Node000002"><a xlink:href="classopcua_1_1Wrapper.html" target="_top" xlink:title="Template base class to wrap (native) objects.">
<polygon fill="white" stroke="#666666" points="440,-41 214,-41 214,0 440,0 440,-41"/>
<text text-anchor="start" x="222" y="-29" font-family="Helvetica,sans-Serif" font-size="10.00">WrapperNative&lt; UA_Modify</text>
<text text-anchor="start" x="222" y="-18" font-family="Helvetica,sans-Serif" font-size="10.00">SubscriptionRequest, UA</text>
<text text-anchor="middle" x="327" y="-7" font-family="Helvetica,sans-Serif" font-size="10.00">_TYPES_MODIFYSUBSCRIPTIONREQUEST &gt;</text>
</a>
</g>
</g>
<!-- Node2&#45;&gt;Node1 -->
<g id="edge1_Node000001_Node000002" class="edge">
<title>Node2&#45;&gt;Node1</title>
<g id="a_edge1_Node000001_Node000002"><a xlink:title=" ">
<path fill="none" stroke="#63b8ff" d="M450.33,-20.5C458.91,-20.5 467.43,-20.5 475.7,-20.5"/>
<polygon fill="#63b8ff" stroke="#63b8ff" points="450.24,-17 440.24,-20.5 450.24,-24 450.24,-17"/>
</a>
</g>
</g>
<!-- Node3 -->
<g id="Node000003" class="node">
<title>Node3</title>
<g id="a_Node000003"><a xlink:title=" ">
<polygon fill="white" stroke="#666666" points="178,-35.5 0,-35.5 0,-5.5 178,-5.5 178,-35.5"/>
<text text-anchor="start" x="8" y="-23.5" font-family="Helvetica,sans-Serif" font-size="10.00">opcua::detail::WrapperDestructor</text>
<text text-anchor="middle" x="89" y="-12.5" font-family="Helvetica,sans-Serif" font-size="10.00">Mixin&lt; WrapperType, Clear &gt;</text>
</a>
</g>
</g>
<!-- Node3&#45;&gt;Node2 -->
<g id="edge2_Node000002_Node000003" class="edge">
<title>Node3&#45;&gt;Node2</title>
<g id="a_edge2_Node000002_Node000003"><a xlink:title=" ">
<path fill="none" stroke="#63b8ff" d="M188.41,-20.5C196.83,-20.5 205.4,-20.5 213.92,-20.5"/>
<polygon fill="#63b8ff" stroke="#63b8ff" points="188.21,-17 178.21,-20.5 188.21,-24 188.21,-17"/>
</a>
</g>
</g>
</g>
</svg>
