<?xml version="1.0" encoding="UTF-8" standalone="no"?>
<!DOCTYPE svg PUBLIC "-//W3C//DTD SVG 1.1//EN"
 "http://www.w3.org/Graphics/SVG/1.1/DTD/svg11.dtd">
<!-- Generated by graphviz version 2.43.0 (0)
 -->
<!-- Title: opcua::String Pages: 1 -->
<svg width="416pt" height="98pt"
 viewBox="0.00 0.00 416.00 97.50" xmlns="http://www.w3.org/2000/svg" xmlns:xlink="http://www.w3.org/1999/xlink">
<g id="graph0" class="graph" transform="scale(1 1) rotate(0) translate(4 93.5)">
<title>opcua::String</title>
<!-- Node1 -->
<g id="Node000001" class="node">
<title>Node1</title>
<g id="a_Node000001"><a xlink:title="UA_String wrapper class.">
<polygon fill="#999999" stroke="#666666" points="408,-51.5 328,-51.5 328,-32.5 408,-32.5 408,-51.5"/>
<text text-anchor="middle" x="368" y="-39.5" font-family="Helvetica,sans-Serif" font-size="10.00">opcua::String</text>
</a>
</g>
</g>
<!-- Node2 -->
<g id="Node000002" class="node">
<title>Node2</title>
<g id="a_Node000002"><a xlink:href="classopcua_1_1TypeWrapper.html" target="_top" xlink:title=" ">
<polygon fill="white" stroke="#666666" points="290.5,-89.5 159.5,-89.5 159.5,-48.5 290.5,-48.5 290.5,-89.5"/>
<text text-anchor="start" x="167.5" y="-77.5" font-family="Helvetica,sans-Serif" font-size="10.00">opcua::TypeWrapper</text>
<text text-anchor="start" x="167.5" y="-66.5" font-family="Helvetica,sans-Serif" font-size="10.00">&lt; UA_String, UA_TYPES</text>
<text text-anchor="middle" x="225" y="-55.5" font-family="Helvetica,sans-Serif" font-size="10.00">_STRING &gt;</text>
</a>
</g>
</g>
<!-- Node2&#45;&gt;Node1 -->
<g id="edge1_Node000001_Node000002" class="edge">
<title>Node2&#45;&gt;Node1</title>
<g id="a_edge1_Node000001_Node000002"><a xlink:title=" ">
<path fill="none" stroke="#63b8ff" d="M300.78,-54.68C310.05,-52.91 319.21,-51.15 327.63,-49.54"/>
<polygon fill="#63b8ff" stroke="#63b8ff" points="299.89,-51.29 290.72,-56.61 301.2,-58.16 299.89,-51.29"/>
</a>
</g>
</g>
<!-- Node3 -->
<g id="Node000003" class="node">
<title>Node3</title>
<g id="a_Node000003"><a xlink:href="classopcua_1_1Wrapper.html" target="_top" xlink:title="Template base class to wrap native objects.">
<polygon fill="white" stroke="#666666" points="122,-78.5 0,-78.5 0,-59.5 122,-59.5 122,-78.5"/>
<text text-anchor="middle" x="61" y="-66.5" font-family="Helvetica,sans-Serif" font-size="10.00">opcua::Wrapper&lt; T &gt;</text>
</a>
</g>
</g>
<!-- Node3&#45;&gt;Node2 -->
<g id="edge2_Node000002_Node000003" class="edge">
<title>Node3&#45;&gt;Node2</title>
<g id="a_edge2_Node000002_Node000003"><a xlink:title=" ">
<path fill="none" stroke="#63b8ff" d="M132.33,-69C141.29,-69 150.42,-69 159.28,-69"/>
<polygon fill="#63b8ff" stroke="#63b8ff" points="132.32,-65.5 122.32,-69 132.32,-72.5 132.32,-65.5"/>
</a>
</g>
</g>
<!-- Node4 -->
<g id="Node000004" class="node">
<title>Node4</title>
<g id="a_Node000004"><a xlink:title=" ">
<polygon fill="white" stroke="#666666" points="292,-30 158,-30 158,0 292,0 292,-30"/>
<text text-anchor="start" x="166" y="-18" font-family="Helvetica,sans-Serif" font-size="10.00">opcua::detail::StringLike</text>
<text text-anchor="middle" x="225" y="-7" font-family="Helvetica,sans-Serif" font-size="10.00">Mixin&lt; String, char &gt;</text>
</a>
</g>
</g>
<!-- Node4&#45;&gt;Node1 -->
<g id="edge3_Node000001_Node000004" class="edge">
<title>Node4&#45;&gt;Node1</title>
<g id="a_edge3_Node000001_Node000004"><a xlink:title=" ">
<path fill="none" stroke="#63b8ff" d="M302.34,-29.62C311.15,-31.3 319.83,-32.97 327.84,-34.5"/>
<polygon fill="#63b8ff" stroke="#63b8ff" points="302.85,-26.15 292.37,-27.71 301.53,-33.03 302.85,-26.15"/>
</a>
</g>
</g>
</g>
</svg>
