<?xml version="1.0" encoding="UTF-8" standalone="no"?>
<!DOCTYPE svg PUBLIC "-//W3C//DTD SVG 1.1//EN"
 "http://www.w3.org/Graphics/SVG/1.1/DTD/svg11.dtd">
<!-- Generated by graphviz version 2.43.0 (0)
 -->
<!-- Title: opcua::Guid Pages: 1 -->
<svg width="226pt" height="163pt"
 viewBox="0.00 0.00 225.50 163.00" xmlns="http://www.w3.org/2000/svg" xmlns:xlink="http://www.w3.org/1999/xlink">
<g id="graph0" class="graph" transform="scale(1 1) rotate(0) translate(4 159)">
<title>opcua::Guid</title>
<!-- Node1 -->
<g id="node1" class="node">
<title>Node1</title>
<g id="a_node1"><a xlink:title="UA_Guid wrapper class.">
<polygon fill="#bfbfbf" stroke="black" points="92,-0.5 92,-19.5 166,-19.5 166,-0.5 92,-0.5"/>
<text text-anchor="middle" x="129" y="-7.5" font-family="Helvetica,sans-Serif" font-size="10.00">opcua::Guid</text>
</a>
</g>
</g>
<!-- Node2 -->
<g id="node2" class="node">
<title>Node2</title>
<g id="a_node2"><a xlink:href="classopcua_1_1TypeWrapper.html" target="_top" xlink:title=" ">
<polygon fill="none" stroke="black" points="71,-57.5 71,-87.5 187,-87.5 187,-57.5 71,-57.5"/>
<text text-anchor="start" x="79" y="-75.5" font-family="Helvetica,sans-Serif" font-size="10.00">opcua::TypeWrapper</text>
<text text-anchor="middle" x="129" y="-64.5" font-family="Helvetica,sans-Serif" font-size="10.00">&lt; UA_Guid &gt;</text>
</a>
</g>
</g>
<!-- Node2&#45;&gt;Node1 -->
<g id="edge1" class="edge">
<title>Node2&#45;&gt;Node1</title>
<path fill="none" stroke="midnightblue" d="M129,-47.35C129,-37.51 129,-26.78 129,-19.54"/>
<polygon fill="midnightblue" stroke="midnightblue" points="125.5,-47.47 129,-57.47 132.5,-47.47 125.5,-47.47"/>
</g>
<!-- Node3 -->
<g id="node3" class="node">
<title>Node3</title>
<g id="a_node3"><a xlink:href="classopcua_1_1TypeWrapperBase.html" target="_top" xlink:title=" ">
<polygon fill="none" stroke="black" points="0,-135.5 0,-154.5 140,-154.5 140,-135.5 0,-135.5"/>
<text text-anchor="middle" x="70" y="-142.5" font-family="Helvetica,sans-Serif" font-size="10.00">opcua::TypeWrapperBase</text>
</a>
</g>
</g>
<!-- Node3&#45;&gt;Node2 -->
<g id="edge2" class="edge">
<title>Node3&#45;&gt;Node2</title>
<path fill="none" stroke="midnightblue" d="M83.9,-127.39C94.03,-115.28 107.62,-99.05 117.22,-87.58"/>
<polygon fill="midnightblue" stroke="midnightblue" points="80.97,-125.44 77.23,-135.36 86.34,-129.93 80.97,-125.44"/>
</g>
<!-- Node4 -->
<g id="node4" class="node">
<title>Node4</title>
<g id="a_node4"><a xlink:href="open62541/structUA__Guid.html" xlink:title=" ">
<polygon fill="none" stroke="black" points="158.5,-135.5 158.5,-154.5 217.5,-154.5 217.5,-135.5 158.5,-135.5"/>
<text text-anchor="middle" x="188" y="-142.5" font-family="Helvetica,sans-Serif" font-size="10.00">UA_Guid</text>
</a>
</g>
</g>
<!-- Node4&#45;&gt;Node2 -->
<g id="edge3" class="edge">
<title>Node4&#45;&gt;Node2</title>
<path fill="none" stroke="#9a32cd" stroke-dasharray="5,2" d="M174.1,-127.39C163.97,-115.28 150.38,-99.05 140.78,-87.58"/>
<polygon fill="#9a32cd" stroke="#9a32cd" points="171.66,-129.93 180.77,-135.36 177.03,-125.44 171.66,-129.93"/>
<text text-anchor="middle" x="178.5" y="-109" font-family="Helvetica,sans-Serif" font-size="10.00"> data_</text>
</g>
</g>
</svg>
