<?xml version="1.0" encoding="UTF-8" standalone="no"?>
<!DOCTYPE svg PUBLIC "-//W3C//DTD SVG 1.1//EN"
 "http://www.w3.org/Graphics/SVG/1.1/DTD/svg11.dtd">
<!-- Generated by graphviz version 2.43.0 (0)
 -->
<!-- Title: opcua::String Pages: 1 -->
<svg width="490pt" height="86pt"
 viewBox="0.00 0.00 490.00 86.00" xmlns="http://www.w3.org/2000/svg" xmlns:xlink="http://www.w3.org/1999/xlink">
<g id="graph0" class="graph" transform="scale(1 1) rotate(0) translate(4 82)">
<title>opcua::String</title>
<!-- Node1 -->
<g id="Node000001" class="node">
<title>Node1</title>
<g id="a_Node000001"><a xlink:title="UA_String wrapper class.">
<polygon fill="#999999" stroke="#666666" points="482,-48.5 402,-48.5 402,-29.5 482,-29.5 482,-48.5"/>
<text text-anchor="middle" x="442" y="-36.5" font-family="Helvetica,sans-Serif" font-size="10.00">opcua::String</text>
</a>
</g>
</g>
<!-- Node2 -->
<g id="Node000002" class="node">
<title>Node2</title>
<g id="a_Node000002"><a xlink:href="classopcua_1_1Wrapper.html" target="_top" xlink:title="Template base class to wrap (native) objects.">
<polygon fill="white" stroke="#666666" points="366,-78 214,-78 214,-48 366,-48 366,-78"/>
<text text-anchor="start" x="222" y="-66" font-family="Helvetica,sans-Serif" font-size="10.00">WrapperNative&lt; UA_String,</text>
<text text-anchor="middle" x="290" y="-55" font-family="Helvetica,sans-Serif" font-size="10.00"> UA_TYPES_STRING &gt;</text>
</a>
</g>
</g>
<!-- Node2&#45;&gt;Node1 -->
<g id="edge1_Node000001_Node000002" class="edge">
<title>Node2&#45;&gt;Node1</title>
<g id="a_edge1_Node000001_Node000002"><a xlink:title=" ">
<path fill="none" stroke="#63b8ff" d="M376.46,-49.33C385.29,-47.91 393.92,-46.53 401.85,-45.26"/>
<polygon fill="#63b8ff" stroke="#63b8ff" points="375.76,-45.89 366.44,-50.93 376.87,-52.81 375.76,-45.89"/>
</a>
</g>
</g>
<!-- Node3 -->
<g id="Node000003" class="node">
<title>Node3</title>
<g id="a_Node000003"><a xlink:title=" ">
<polygon fill="white" stroke="#666666" points="178,-78 0,-78 0,-48 178,-48 178,-78"/>
<text text-anchor="start" x="8" y="-66" font-family="Helvetica,sans-Serif" font-size="10.00">opcua::detail::WrapperDestructor</text>
<text text-anchor="middle" x="89" y="-55" font-family="Helvetica,sans-Serif" font-size="10.00">Mixin&lt; WrapperType, Clear &gt;</text>
</a>
</g>
</g>
<!-- Node3&#45;&gt;Node2 -->
<g id="edge2_Node000002_Node000003" class="edge">
<title>Node3&#45;&gt;Node2</title>
<g id="a_edge2_Node000002_Node000003"><a xlink:title=" ">
<path fill="none" stroke="#63b8ff" d="M188.28,-63C196.92,-63 205.58,-63 213.98,-63"/>
<polygon fill="#63b8ff" stroke="#63b8ff" points="188.15,-59.5 178.15,-63 188.15,-66.5 188.15,-59.5"/>
</a>
</g>
</g>
<!-- Node4 -->
<g id="Node000004" class="node">
<title>Node4</title>
<g id="a_Node000004"><a xlink:title=" ">
<polygon fill="white" stroke="#666666" points="357,-30 223,-30 223,0 357,0 357,-30"/>
<text text-anchor="start" x="231" y="-18" font-family="Helvetica,sans-Serif" font-size="10.00">opcua::detail::StringLike</text>
<text text-anchor="middle" x="290" y="-7" font-family="Helvetica,sans-Serif" font-size="10.00">Mixin&lt; String, char &gt;</text>
</a>
</g>
</g>
<!-- Node4&#45;&gt;Node1 -->
<g id="edge3_Node000001_Node000004" class="edge">
<title>Node4&#45;&gt;Node1</title>
<g id="a_edge3_Node000001_Node000004"><a xlink:title=" ">
<path fill="none" stroke="#63b8ff" d="M367.26,-27.2C379.23,-29.12 391.15,-31.02 401.82,-32.73"/>
<polygon fill="#63b8ff" stroke="#63b8ff" points="367.66,-23.72 357.23,-25.6 366.55,-30.63 367.66,-23.72"/>
</a>
</g>
</g>
</g>
</svg>
