<?xml version="1.0" encoding="UTF-8" standalone="no"?>
<!DOCTYPE svg PUBLIC "-//W3C//DTD SVG 1.1//EN"
 "http://www.w3.org/Graphics/SVG/1.1/DTD/svg11.dtd">
<!-- Generated by graphviz version 2.43.0 (0)
 -->
<!-- Title: opcua::ua::TranslateBrowsePathsToNodeIdsResponse Pages: 1 -->
<svg width="668pt" height="60pt"
 viewBox="0.00 0.00 668.00 60.00" xmlns="http://www.w3.org/2000/svg" xmlns:xlink="http://www.w3.org/1999/xlink">
<g id="graph0" class="graph" transform="scale(1 1) rotate(0) translate(4 56)">
<title>opcua::ua::TranslateBrowsePathsToNodeIdsResponse</title>
<!-- Node1 -->
<g id="Node000001" class="node">
<title>Node1</title>
<g id="a_Node000001"><a xlink:title="UA_TranslateBrowsePathsToNodeIdsResponse wrapper class.">
<polygon fill="#999999" stroke="#666666" points="660,-41 510,-41 510,-11 660,-11 660,-41"/>
<text text-anchor="start" x="518" y="-29" font-family="Helvetica,sans-Serif" font-size="10.00">opcua::ua::TranslateBrowse</text>
<text text-anchor="middle" x="585" y="-18" font-family="Helvetica,sans-Serif" font-size="10.00">PathsToNodeIdsResponse</text>
</a>
</g>
</g>
<!-- Node2 -->
<g id="Node000002" class="node">
<title>Node2</title>
<g id="a_Node000002"><a xlink:href="classopcua_1_1TypeWrapper.html" target="_top" xlink:title=" ">
<polygon fill="white" stroke="#666666" points="474,-52 200,-52 200,0 474,0 474,-52"/>
<text text-anchor="start" x="208" y="-40" font-family="Helvetica,sans-Serif" font-size="10.00">opcua::TypeWrapper</text>
<text text-anchor="start" x="208" y="-29" font-family="Helvetica,sans-Serif" font-size="10.00">&lt; UA_TranslateBrowsePathsTo</text>
<text text-anchor="start" x="208" y="-18" font-family="Helvetica,sans-Serif" font-size="10.00">NodeIdsResponse, UA_TYPES</text>
<text text-anchor="middle" x="337" y="-7" font-family="Helvetica,sans-Serif" font-size="10.00">_TRANSLATEBROWSEPATHSTONODEIDSRESPONSE &gt;</text>
</a>
</g>
</g>
<!-- Node2&#45;&gt;Node1 -->
<g id="edge1_Node000001_Node000002" class="edge">
<title>Node2&#45;&gt;Node1</title>
<g id="a_edge1_Node000001_Node000002"><a xlink:title=" ">
<path fill="none" stroke="#63b8ff" d="M484.55,-26C493.21,-26 501.71,-26 509.88,-26"/>
<polygon fill="#63b8ff" stroke="#63b8ff" points="484.31,-22.5 474.31,-26 484.31,-29.5 484.31,-22.5"/>
</a>
</g>
</g>
<!-- Node3 -->
<g id="Node000003" class="node">
<title>Node3</title>
<g id="a_Node000003"><a xlink:href="classopcua_1_1Wrapper.html" target="_top" xlink:title=" ">
<polygon fill="white" stroke="#666666" points="164,-46.5 0,-46.5 0,-5.5 164,-5.5 164,-46.5"/>
<text text-anchor="start" x="8" y="-34.5" font-family="Helvetica,sans-Serif" font-size="10.00">opcua::Wrapper&lt; UA</text>
<text text-anchor="start" x="8" y="-23.5" font-family="Helvetica,sans-Serif" font-size="10.00">_TranslateBrowsePathsToNode</text>
<text text-anchor="middle" x="82" y="-12.5" font-family="Helvetica,sans-Serif" font-size="10.00">IdsResponse &gt;</text>
</a>
</g>
</g>
<!-- Node3&#45;&gt;Node2 -->
<g id="edge2_Node000002_Node000003" class="edge">
<title>Node3&#45;&gt;Node2</title>
<g id="a_edge2_Node000002_Node000003"><a xlink:title=" ">
<path fill="none" stroke="#63b8ff" d="M174.13,-26C182.45,-26 191,-26 199.61,-26"/>
<polygon fill="#63b8ff" stroke="#63b8ff" points="174.09,-22.5 164.09,-26 174.09,-29.5 174.09,-22.5"/>
</a>
</g>
</g>
</g>
</svg>
