<?xml version="1.0" encoding="UTF-8" standalone="no"?>
<!DOCTYPE svg PUBLIC "-//W3C//DTD SVG 1.1//EN"
 "http://www.w3.org/Graphics/SVG/1.1/DTD/svg11.dtd">
<!-- Generated by graphviz version 2.43.0 (0)
 -->
<!-- Title: opcua::Variant Pages: 1 -->
<svg width="320pt" height="386pt"
 viewBox="0.00 0.00 320.00 386.00" xmlns="http://www.w3.org/2000/svg" xmlns:xlink="http://www.w3.org/1999/xlink">
<g id="graph0" class="graph" transform="scale(1 1) rotate(0) translate(4 382)">
<title>opcua::Variant</title>
<!-- Node1 -->
<g id="node1" class="node">
<title>Node1</title>
<g id="a_node1"><a xlink:title=" ">
<polygon fill="#bfbfbf" stroke="black" points="43,-0.5 43,-19.5 129,-19.5 129,-0.5 43,-0.5"/>
<text text-anchor="middle" x="86" y="-7.5" font-family="Helvetica,sans-Serif" font-size="10.00">opcua::Variant</text>
</a>
</g>
</g>
<!-- Node2 -->
<g id="node2" class="node">
<title>Node2</title>
<g id="a_node2"><a xlink:href="classopcua_1_1TypeWrapper.html" target="_top" xlink:title=" ">
<polygon fill="none" stroke="black" points="28,-57.5 28,-87.5 144,-87.5 144,-57.5 28,-57.5"/>
<text text-anchor="start" x="36" y="-75.5" font-family="Helvetica,sans-Serif" font-size="10.00">opcua::TypeWrapper</text>
<text text-anchor="middle" x="86" y="-64.5" font-family="Helvetica,sans-Serif" font-size="10.00">&lt; UA_Variant &gt;</text>
</a>
</g>
</g>
<!-- Node2&#45;&gt;Node1 -->
<g id="edge1" class="edge">
<title>Node2&#45;&gt;Node1</title>
<path fill="none" stroke="midnightblue" d="M86,-47.35C86,-37.51 86,-26.78 86,-19.54"/>
<polygon fill="midnightblue" stroke="midnightblue" points="82.5,-47.47 86,-57.47 89.5,-47.47 82.5,-47.47"/>
</g>
<!-- Node3 -->
<g id="node3" class="node">
<title>Node3</title>
<g id="a_node3"><a xlink:href="classopcua_1_1TypeWrapperBase.html" target="_top" xlink:title=" ">
<polygon fill="none" stroke="black" points="0,-135.5 0,-154.5 140,-154.5 140,-135.5 0,-135.5"/>
<text text-anchor="middle" x="70" y="-142.5" font-family="Helvetica,sans-Serif" font-size="10.00">opcua::TypeWrapperBase</text>
</a>
</g>
</g>
<!-- Node3&#45;&gt;Node2 -->
<g id="edge2" class="edge">
<title>Node3&#45;&gt;Node2</title>
<path fill="none" stroke="midnightblue" d="M74.18,-125.6C76.87,-113.72 80.33,-98.49 82.81,-87.58"/>
<polygon fill="midnightblue" stroke="midnightblue" points="70.76,-124.83 71.96,-135.36 77.59,-126.38 70.76,-124.83"/>
</g>
<!-- Node4 -->
<g id="node4" class="node">
<title>Node4</title>
<g id="a_node4"><a xlink:href="open62541/structUA__Variant.html" xlink:title=" ">
<polygon fill="none" stroke="black" points="158.5,-135.5 158.5,-154.5 229.5,-154.5 229.5,-135.5 158.5,-135.5"/>
<text text-anchor="middle" x="194" y="-142.5" font-family="Helvetica,sans-Serif" font-size="10.00">UA_Variant</text>
</a>
</g>
</g>
<!-- Node4&#45;&gt;Node2 -->
<g id="edge3" class="edge">
<title>Node4&#45;&gt;Node2</title>
<path fill="none" stroke="#9a32cd" stroke-dasharray="5,2" d="M172.25,-129.8C153.42,-117.51 126.34,-99.83 107.56,-87.58"/>
<polygon fill="#9a32cd" stroke="#9a32cd" points="170.47,-132.82 180.76,-135.36 174.3,-126.96 170.47,-132.82"/>
<text text-anchor="middle" x="164.5" y="-109" font-family="Helvetica,sans-Serif" font-size="10.00"> data_</text>
</g>
<!-- Node5 -->
<g id="node5" class="node">
<title>Node5</title>
<g id="a_node5"><a xlink:href="open62541/structUA__DataType.html" xlink:title=" ">
<polygon fill="none" stroke="black" points="153,-202.5 153,-221.5 235,-221.5 235,-202.5 153,-202.5"/>
<text text-anchor="middle" x="194" y="-209.5" font-family="Helvetica,sans-Serif" font-size="10.00">UA_DataType</text>
</a>
</g>
</g>
<!-- Node5&#45;&gt;Node4 -->
<g id="edge4" class="edge">
<title>Node5&#45;&gt;Node4</title>
<path fill="none" stroke="#9a32cd" stroke-dasharray="5,2" d="M194,-192.04C194,-179.67 194,-164.12 194,-154.63"/>
<polygon fill="#9a32cd" stroke="#9a32cd" points="190.5,-192.23 194,-202.23 197.5,-192.23 190.5,-192.23"/>
<text text-anchor="middle" x="206.5" y="-176" font-family="Helvetica,sans-Serif" font-size="10.00"> type</text>
</g>
<!-- Node6 -->
<g id="node6" class="node">
<title>Node6</title>
<g id="a_node6"><a xlink:href="open62541/structUA__NodeId.html" xlink:title=" ">
<polygon fill="none" stroke="black" points="100.5,-280.5 100.5,-299.5 171.5,-299.5 171.5,-280.5 100.5,-280.5"/>
<text text-anchor="middle" x="136" y="-287.5" font-family="Helvetica,sans-Serif" font-size="10.00">UA_NodeId</text>
</a>
</g>
</g>
<!-- Node6&#45;&gt;Node5 -->
<g id="edge5" class="edge">
<title>Node6&#45;&gt;Node5</title>
<path fill="none" stroke="#9a32cd" stroke-dasharray="5,2" d="M133.36,-270.23C132.96,-260.45 134.1,-248.73 140,-240 145.69,-231.58 154.82,-225.66 163.97,-221.56"/>
<polygon fill="#9a32cd" stroke="#9a32cd" points="129.88,-270.57 134.3,-280.2 136.85,-269.91 129.88,-270.57"/>
<text text-anchor="middle" x="182.5" y="-254" font-family="Helvetica,sans-Serif" font-size="10.00"> typeId</text>
<text text-anchor="middle" x="182.5" y="-243" font-family="Helvetica,sans-Serif" font-size="10.00">binaryEncodingId</text>
</g>
<!-- Node7 -->
<g id="node7" class="node">
<title>Node7</title>
<g id="a_node7"><a xlink:href="open62541/structUA__String.html" xlink:title=" ">
<polygon fill="none" stroke="black" points="63.5,-358.5 63.5,-377.5 128.5,-377.5 128.5,-358.5 63.5,-358.5"/>
<text text-anchor="middle" x="96" y="-365.5" font-family="Helvetica,sans-Serif" font-size="10.00">UA_String</text>
</a>
</g>
</g>
<!-- Node7&#45;&gt;Node6 -->
<g id="edge6" class="edge">
<title>Node7&#45;&gt;Node6</title>
<path fill="none" stroke="#9a32cd" stroke-dasharray="5,2" d="M95.51,-348.33C96.01,-338.72 97.84,-327.15 103,-318 107.22,-310.52 114.39,-304.28 120.97,-299.68"/>
<polygon fill="#9a32cd" stroke="#9a32cd" points="92.01,-348.4 95.41,-358.43 99.01,-348.47 92.01,-348.4"/>
<text text-anchor="middle" x="128.5" y="-332" font-family="Helvetica,sans-Serif" font-size="10.00"> string</text>
<text text-anchor="middle" x="128.5" y="-321" font-family="Helvetica,sans-Serif" font-size="10.00">byteString</text>
</g>
<!-- Node8 -->
<g id="node8" class="node">
<title>Node8</title>
<g id="a_node8"><a xlink:href="open62541/structUA__Guid.html" xlink:title=" ">
<polygon fill="none" stroke="black" points="146.5,-358.5 146.5,-377.5 205.5,-377.5 205.5,-358.5 146.5,-358.5"/>
<text text-anchor="middle" x="176" y="-365.5" font-family="Helvetica,sans-Serif" font-size="10.00">UA_Guid</text>
</a>
</g>
</g>
<!-- Node8&#45;&gt;Node6 -->
<g id="edge7" class="edge">
<title>Node8&#45;&gt;Node6</title>
<path fill="none" stroke="#9a32cd" stroke-dasharray="5,2" d="M168.76,-348.98C164.76,-339.56 159.51,-327.96 154,-318 150.51,-311.69 146.01,-304.94 142.38,-299.77"/>
<polygon fill="#9a32cd" stroke="#9a32cd" points="165.63,-350.56 172.68,-358.47 172.1,-347.89 165.63,-350.56"/>
<text text-anchor="middle" x="176.5" y="-326.5" font-family="Helvetica,sans-Serif" font-size="10.00"> guid</text>
</g>
<!-- Node9 -->
<g id="node9" class="node">
<title>Node9</title>
<g id="a_node9"><a xlink:href="open62541/structUA__DataTypeMember.html" xlink:title=" ">
<polygon fill="none" stroke="black" points="190,-280.5 190,-299.5 312,-299.5 312,-280.5 190,-280.5"/>
<text text-anchor="middle" x="251" y="-287.5" font-family="Helvetica,sans-Serif" font-size="10.00">UA_DataTypeMember</text>
</a>
</g>
</g>
<!-- Node9&#45;&gt;Node5 -->
<g id="edge8" class="edge">
<title>Node9&#45;&gt;Node5</title>
<path fill="none" stroke="#9a32cd" stroke-dasharray="5,2" d="M245.27,-270.79C241.62,-261.02 236.21,-249.14 229,-240 223.3,-232.77 215.25,-226.38 208.31,-221.64"/>
<polygon fill="#9a32cd" stroke="#9a32cd" points="241.99,-272.02 248.54,-280.34 248.61,-269.75 241.99,-272.02"/>
<text text-anchor="middle" x="266" y="-248.5" font-family="Helvetica,sans-Serif" font-size="10.00"> members</text>
</g>
</g>
</svg>
