<?xml version="1.0" encoding="UTF-8" standalone="no"?>
<!DOCTYPE svg PUBLIC "-//W3C//DTD SVG 1.1//EN"
 "http://www.w3.org/Graphics/SVG/1.1/DTD/svg11.dtd">
<!-- Generated by graphviz version 2.43.0 (0)
 -->
<!-- Title: opcua::ua::NodeAttributes Pages: 1 -->
<svg width="205pt" height="159pt"
 viewBox="0.00 0.00 205.00 159.00" xmlns="http://www.w3.org/2000/svg" xmlns:xlink="http://www.w3.org/1999/xlink">
<g id="graph0" class="graph" transform="scale(1 1) rotate(0) translate(4 155)">
<title>opcua::ua::NodeAttributes</title>
<!-- Node1 -->
<g id="Node000001" class="node">
<title>Node1</title>
<g id="a_Node000001"><a xlink:title="UA_NodeAttributes wrapper class.">
<polygon fill="#999999" stroke="#666666" points="170,-19 27,-19 27,0 170,0 170,-19"/>
<text text-anchor="middle" x="98.5" y="-7" font-family="Helvetica,sans-Serif" font-size="10.00">opcua::ua::NodeAttributes</text>
</a>
</g>
</g>
<!-- Node2 -->
<g id="Node000002" class="node">
<title>Node2</title>
<g id="a_Node000002"><a xlink:href="classopcua_1_1Wrapper.html" target="_top" xlink:title="Template base class to wrap (native) objects.">
<polygon fill="white" stroke="#666666" points="197,-85 0,-85 0,-55 197,-55 197,-85"/>
<text text-anchor="start" x="8" y="-73" font-family="Helvetica,sans-Serif" font-size="10.00">WrapperNative&lt; UA_NodeAttributes,</text>
<text text-anchor="middle" x="98.5" y="-62" font-family="Helvetica,sans-Serif" font-size="10.00"> UA_TYPES_NODEATTRIBUTES &gt;</text>
</a>
</g>
</g>
<!-- Node2&#45;&gt;Node1 -->
<g id="edge1_Node000001_Node000002" class="edge">
<title>Node2&#45;&gt;Node1</title>
<g id="a_edge1_Node000001_Node000002"><a xlink:title=" ">
<path fill="none" stroke="#63b8ff" d="M98.5,-44.75C98.5,-35.72 98.5,-26.03 98.5,-19.27"/>
<polygon fill="#63b8ff" stroke="#63b8ff" points="95,-44.84 98.5,-54.84 102,-44.84 95,-44.84"/>
</a>
</g>
</g>
<!-- Node3 -->
<g id="Node000003" class="node">
<title>Node3</title>
<g id="a_Node000003"><a xlink:title=" ">
<polygon fill="white" stroke="#666666" points="187.5,-151 9.5,-151 9.5,-121 187.5,-121 187.5,-151"/>
<text text-anchor="start" x="17.5" y="-139" font-family="Helvetica,sans-Serif" font-size="10.00">opcua::detail::WrapperDestructor</text>
<text text-anchor="middle" x="98.5" y="-128" font-family="Helvetica,sans-Serif" font-size="10.00">Mixin&lt; WrapperType, Clear &gt;</text>
</a>
</g>
</g>
<!-- Node3&#45;&gt;Node2 -->
<g id="edge2_Node000002_Node000003" class="edge">
<title>Node3&#45;&gt;Node2</title>
<g id="a_edge2_Node000002_Node000003"><a xlink:title=" ">
<path fill="none" stroke="#63b8ff" d="M98.5,-110.54C98.5,-101.96 98.5,-92.61 98.5,-85.16"/>
<polygon fill="#63b8ff" stroke="#63b8ff" points="95,-110.8 98.5,-120.8 102,-110.8 95,-110.8"/>
</a>
</g>
</g>
</g>
</svg>
