<?xml version="1.0" encoding="UTF-8" standalone="no"?>
<!DOCTYPE svg PUBLIC "-//W3C//DTD SVG 1.1//EN"
 "http://www.w3.org/Graphics/SVG/1.1/DTD/svg11.dtd">
<!-- Generated by graphviz version 2.43.0 (0)
 -->
<!-- Title: opcua::ua::DeleteSubscriptionsResponse Pages: 1 -->
<svg width="622pt" height="49pt"
 viewBox="0.00 0.00 622.00 49.00" xmlns="http://www.w3.org/2000/svg" xmlns:xlink="http://www.w3.org/1999/xlink">
<g id="graph0" class="graph" transform="scale(1 1) rotate(0) translate(4 45)">
<title>opcua::ua::DeleteSubscriptionsResponse</title>
<!-- Node1 -->
<g id="Node000001" class="node">
<title>Node1</title>
<g id="a_Node000001"><a xlink:title="UA_DeleteSubscriptionsResponse wrapper class.">
<polygon fill="#999999" stroke="#666666" points="614,-35.5 447,-35.5 447,-5.5 614,-5.5 614,-35.5"/>
<text text-anchor="start" x="455" y="-23.5" font-family="Helvetica,sans-Serif" font-size="10.00">opcua::ua::DeleteSubscriptions</text>
<text text-anchor="middle" x="530.5" y="-12.5" font-family="Helvetica,sans-Serif" font-size="10.00">Response</text>
</a>
</g>
</g>
<!-- Node2 -->
<g id="Node000002" class="node">
<title>Node2</title>
<g id="a_Node000002"><a xlink:href="classopcua_1_1TypeWrapper.html" target="_top" xlink:title=" ">
<polygon fill="white" stroke="#666666" points="411,-41 158,-41 158,0 411,0 411,-41"/>
<text text-anchor="start" x="166" y="-29" font-family="Helvetica,sans-Serif" font-size="10.00">opcua::TypeWrapper</text>
<text text-anchor="start" x="166" y="-18" font-family="Helvetica,sans-Serif" font-size="10.00">&lt; UA_DeleteSubscriptionsResponse,</text>
<text text-anchor="middle" x="284.5" y="-7" font-family="Helvetica,sans-Serif" font-size="10.00"> UA_TYPES_DELETESUBSCRIPTIONSRESPONSE &gt;</text>
</a>
</g>
</g>
<!-- Node2&#45;&gt;Node1 -->
<g id="edge1_Node000001_Node000002" class="edge">
<title>Node2&#45;&gt;Node1</title>
<g id="a_edge1_Node000001_Node000002"><a xlink:title=" ">
<path fill="none" stroke="#63b8ff" d="M421.3,-20.5C429.98,-20.5 438.57,-20.5 446.88,-20.5"/>
<polygon fill="#63b8ff" stroke="#63b8ff" points="421.07,-17 411.07,-20.5 421.07,-24 421.07,-17"/>
</a>
</g>
</g>
<!-- Node3 -->
<g id="Node000003" class="node">
<title>Node3</title>
<g id="a_Node000003"><a xlink:href="classopcua_1_1Wrapper.html" target="_top" xlink:title="Template base class to wrap native objects.">
<polygon fill="white" stroke="#666666" points="122,-30 0,-30 0,-11 122,-11 122,-30"/>
<text text-anchor="middle" x="61" y="-18" font-family="Helvetica,sans-Serif" font-size="10.00">opcua::Wrapper&lt; T &gt;</text>
</a>
</g>
</g>
<!-- Node3&#45;&gt;Node2 -->
<g id="edge2_Node000002_Node000003" class="edge">
<title>Node3&#45;&gt;Node2</title>
<g id="a_edge2_Node000002_Node000003"><a xlink:title=" ">
<path fill="none" stroke="#63b8ff" d="M132.37,-20.5C140.53,-20.5 149.03,-20.5 157.66,-20.5"/>
<polygon fill="#63b8ff" stroke="#63b8ff" points="132.23,-17 122.23,-20.5 132.23,-24 132.23,-17"/>
</a>
</g>
</g>
</g>
</svg>
