<?xml version="1.0" encoding="UTF-8" standalone="no"?>
<!DOCTYPE svg PUBLIC "-//W3C//DTD SVG 1.1//EN"
 "http://www.w3.org/Graphics/SVG/1.1/DTD/svg11.dtd">
<!-- Generated by graphviz version 2.43.0 (0)
 -->
<!-- Title: opcua::TranslateBrowsePathsToNodeIdsResponse Pages: 1 -->
<svg width="634pt" height="60pt"
 viewBox="0.00 0.00 634.00 60.00" xmlns="http://www.w3.org/2000/svg" xmlns:xlink="http://www.w3.org/1999/xlink">
<g id="graph0" class="graph" transform="scale(1 1) rotate(0) translate(4 56)">
<title>opcua::TranslateBrowsePathsToNodeIdsResponse</title>
<!-- Node1 -->
<g id="Node000001" class="node">
<title>Node1</title>
<g id="a_Node000001"><a xlink:title="UA_TranslateBrowsePathsToNodeIdsResponse wrapper class.">
<polygon fill="#999999" stroke="#666666" points="626,-41 468,-41 468,-11 626,-11 626,-41"/>
<text text-anchor="start" x="476" y="-29" font-family="Helvetica,sans-Serif" font-size="10.00">opcua::TranslateBrowsePaths</text>
<text text-anchor="middle" x="547" y="-18" font-family="Helvetica,sans-Serif" font-size="10.00">ToNodeIdsResponse</text>
</a>
</g>
</g>
<!-- Node2 -->
<g id="Node000002" class="node">
<title>Node2</title>
<g id="a_Node000002"><a xlink:href="classopcua_1_1TypeWrapper.html" target="_top" xlink:title=" ">
<polygon fill="white" stroke="#666666" points="432,-52 158,-52 158,0 432,0 432,-52"/>
<text text-anchor="start" x="166" y="-40" font-family="Helvetica,sans-Serif" font-size="10.00">opcua::TypeWrapper</text>
<text text-anchor="start" x="166" y="-29" font-family="Helvetica,sans-Serif" font-size="10.00">&lt; UA_TranslateBrowsePathsTo</text>
<text text-anchor="start" x="166" y="-18" font-family="Helvetica,sans-Serif" font-size="10.00">NodeIdsResponse, UA_TYPES</text>
<text text-anchor="middle" x="295" y="-7" font-family="Helvetica,sans-Serif" font-size="10.00">_TRANSLATEBROWSEPATHSTONODEIDSRESPONSE &gt;</text>
</a>
</g>
</g>
<!-- Node2&#45;&gt;Node1 -->
<g id="edge1_Node000001_Node000002" class="edge">
<title>Node2&#45;&gt;Node1</title>
<g id="a_edge1_Node000001_Node000002"><a xlink:title=" ">
<path fill="none" stroke="#63b8ff" d="M442.51,-26C451.13,-26 459.61,-26 467.78,-26"/>
<polygon fill="#63b8ff" stroke="#63b8ff" points="442.34,-22.5 432.34,-26 442.34,-29.5 442.34,-22.5"/>
</a>
</g>
</g>
<!-- Node3 -->
<g id="Node000003" class="node">
<title>Node3</title>
<g id="a_Node000003"><a xlink:href="classopcua_1_1Wrapper.html" target="_top" xlink:title="Template base class to wrap native objects.">
<polygon fill="white" stroke="#666666" points="122,-35.5 0,-35.5 0,-16.5 122,-16.5 122,-35.5"/>
<text text-anchor="middle" x="61" y="-23.5" font-family="Helvetica,sans-Serif" font-size="10.00">opcua::Wrapper&lt; T &gt;</text>
</a>
</g>
</g>
<!-- Node3&#45;&gt;Node2 -->
<g id="edge2_Node000002_Node000003" class="edge">
<title>Node3&#45;&gt;Node2</title>
<g id="a_edge2_Node000002_Node000003"><a xlink:title=" ">
<path fill="none" stroke="#63b8ff" d="M132.2,-26C140.37,-26 148.91,-26 157.61,-26"/>
<polygon fill="#63b8ff" stroke="#63b8ff" points="132.05,-22.5 122.05,-26 132.05,-29.5 132.05,-22.5"/>
</a>
</g>
</g>
</g>
</svg>
