<?xml version="1.0" encoding="UTF-8" standalone="no"?>
<!DOCTYPE svg PUBLIC "-//W3C//DTD SVG 1.1//EN"
 "http://www.w3.org/Graphics/SVG/1.1/DTD/svg11.dtd">
<!-- Generated by graphviz version 2.43.0 (0)
 -->
<!-- Title: opcua::ua::SetTriggeringResponse Pages: 1 -->
<svg width="275pt" height="170pt"
 viewBox="0.00 0.00 275.00 170.00" xmlns="http://www.w3.org/2000/svg" xmlns:xlink="http://www.w3.org/1999/xlink">
<g id="graph0" class="graph" transform="scale(1 1) rotate(0) translate(4 166)">
<title>opcua::ua::SetTriggeringResponse</title>
<!-- Node1 -->
<g id="Node000001" class="node">
<title>Node1</title>
<g id="a_Node000001"><a xlink:title="UA_SetTriggeringResponse wrapper class.">
<polygon fill="#999999" stroke="#666666" points="200.5,-30 66.5,-30 66.5,0 200.5,0 200.5,-30"/>
<text text-anchor="start" x="74.5" y="-18" font-family="Helvetica,sans-Serif" font-size="10.00">opcua::ua::SetTriggering</text>
<text text-anchor="middle" x="133.5" y="-7" font-family="Helvetica,sans-Serif" font-size="10.00">Response</text>
</a>
</g>
</g>
<!-- Node2 -->
<g id="Node000002" class="node">
<title>Node2</title>
<g id="a_Node000002"><a xlink:href="classopcua_1_1Wrapper.html" target="_top" xlink:title="Template base class to wrap (native) objects.">
<polygon fill="white" stroke="#666666" points="267,-96 0,-96 0,-66 267,-66 267,-96"/>
<text text-anchor="start" x="8" y="-84" font-family="Helvetica,sans-Serif" font-size="10.00">WrapperNative&lt; UA_SetTriggering</text>
<text text-anchor="middle" x="133.5" y="-73" font-family="Helvetica,sans-Serif" font-size="10.00">Response, UA_TYPES_SETTRIGGERINGRESPONSE &gt;</text>
</a>
</g>
</g>
<!-- Node2&#45;&gt;Node1 -->
<g id="edge1_Node000001_Node000002" class="edge">
<title>Node2&#45;&gt;Node1</title>
<g id="a_edge1_Node000001_Node000002"><a xlink:title=" ">
<path fill="none" stroke="#63b8ff" d="M133.5,-55.54C133.5,-46.96 133.5,-37.61 133.5,-30.16"/>
<polygon fill="#63b8ff" stroke="#63b8ff" points="130,-55.8 133.5,-65.8 137,-55.8 130,-55.8"/>
</a>
</g>
</g>
<!-- Node3 -->
<g id="Node000003" class="node">
<title>Node3</title>
<g id="a_Node000003"><a xlink:title=" ">
<polygon fill="white" stroke="#666666" points="222.5,-162 44.5,-162 44.5,-132 222.5,-132 222.5,-162"/>
<text text-anchor="start" x="52.5" y="-150" font-family="Helvetica,sans-Serif" font-size="10.00">opcua::detail::WrapperDestructor</text>
<text text-anchor="middle" x="133.5" y="-139" font-family="Helvetica,sans-Serif" font-size="10.00">Mixin&lt; WrapperType, Clear &gt;</text>
</a>
</g>
</g>
<!-- Node3&#45;&gt;Node2 -->
<g id="edge2_Node000002_Node000003" class="edge">
<title>Node3&#45;&gt;Node2</title>
<g id="a_edge2_Node000002_Node000003"><a xlink:title=" ">
<path fill="none" stroke="#63b8ff" d="M133.5,-121.54C133.5,-112.96 133.5,-103.61 133.5,-96.16"/>
<polygon fill="#63b8ff" stroke="#63b8ff" points="130,-121.8 133.5,-131.8 137,-121.8 130,-121.8"/>
</a>
</g>
</g>
</g>
</svg>
