<?xml version="1.0" encoding="UTF-8" standalone="no"?>
<!DOCTYPE svg PUBLIC "-//W3C//DTD SVG 1.1//EN"
 "http://www.w3.org/Graphics/SVG/1.1/DTD/svg11.dtd">
<!-- Generated by graphviz version 2.43.0 (0)
 -->
<!-- Title: opcua::ua::MonitoredItemCreateResult Pages: 1 -->
<svg width="592pt" height="49pt"
 viewBox="0.00 0.00 592.00 49.00" xmlns="http://www.w3.org/2000/svg" xmlns:xlink="http://www.w3.org/1999/xlink">
<g id="graph0" class="graph" transform="scale(1 1) rotate(0) translate(4 45)">
<title>opcua::ua::MonitoredItemCreateResult</title>
<!-- Node1 -->
<g id="Node000001" class="node">
<title>Node1</title>
<g id="a_Node000001"><a xlink:title="UA_MonitoredItemCreateResult wrapper class.">
<polygon fill="#999999" stroke="#666666" points="584,-35.5 442,-35.5 442,-5.5 584,-5.5 584,-35.5"/>
<text text-anchor="start" x="450" y="-23.5" font-family="Helvetica,sans-Serif" font-size="10.00">opcua::ua::MonitoredItem</text>
<text text-anchor="middle" x="513" y="-12.5" font-family="Helvetica,sans-Serif" font-size="10.00">CreateResult</text>
</a>
</g>
</g>
<!-- Node2 -->
<g id="Node000002" class="node">
<title>Node2</title>
<g id="a_Node000002"><a xlink:href="classopcua_1_1Wrapper.html" target="_top" xlink:title="Template base class to wrap (native) objects.">
<polygon fill="white" stroke="#666666" points="406,-41 214,-41 214,0 406,0 406,-41"/>
<text text-anchor="start" x="222" y="-29" font-family="Helvetica,sans-Serif" font-size="10.00">WrapperNative&lt; UA_Monitored</text>
<text text-anchor="start" x="222" y="-18" font-family="Helvetica,sans-Serif" font-size="10.00">ItemCreateResult, UA_TYPES</text>
<text text-anchor="middle" x="310" y="-7" font-family="Helvetica,sans-Serif" font-size="10.00">_MONITOREDITEMCREATERESULT &gt;</text>
</a>
</g>
</g>
<!-- Node2&#45;&gt;Node1 -->
<g id="edge1_Node000001_Node000002" class="edge">
<title>Node2&#45;&gt;Node1</title>
<g id="a_edge1_Node000001_Node000002"><a xlink:title=" ">
<path fill="none" stroke="#63b8ff" d="M416.31,-20.5C424.92,-20.5 433.48,-20.5 441.74,-20.5"/>
<polygon fill="#63b8ff" stroke="#63b8ff" points="416.2,-17 406.2,-20.5 416.2,-24 416.2,-17"/>
</a>
</g>
</g>
<!-- Node3 -->
<g id="Node000003" class="node">
<title>Node3</title>
<g id="a_Node000003"><a xlink:title=" ">
<polygon fill="white" stroke="#666666" points="178,-35.5 0,-35.5 0,-5.5 178,-5.5 178,-35.5"/>
<text text-anchor="start" x="8" y="-23.5" font-family="Helvetica,sans-Serif" font-size="10.00">opcua::detail::WrapperDestructor</text>
<text text-anchor="middle" x="89" y="-12.5" font-family="Helvetica,sans-Serif" font-size="10.00">Mixin&lt; WrapperType, Clear &gt;</text>
</a>
</g>
</g>
<!-- Node3&#45;&gt;Node2 -->
<g id="edge2_Node000002_Node000003" class="edge">
<title>Node3&#45;&gt;Node2</title>
<g id="a_edge2_Node000002_Node000003"><a xlink:title=" ">
<path fill="none" stroke="#63b8ff" d="M188.41,-20.5C196.88,-20.5 205.44,-20.5 213.88,-20.5"/>
<polygon fill="#63b8ff" stroke="#63b8ff" points="188.13,-17 178.13,-20.5 188.13,-24 188.13,-17"/>
</a>
</g>
</g>
</g>
</svg>
