<?xml version="1.0" encoding="UTF-8" standalone="no"?>
<!DOCTYPE svg PUBLIC "-//W3C//DTD SVG 1.1//EN"
 "http://www.w3.org/Graphics/SVG/1.1/DTD/svg11.dtd">
<!-- Generated by graphviz version 2.43.0 (0)
 -->
<!-- Title: opcua::ua::CreateMonitoredItemsResponse Pages: 1 -->
<svg width="688pt" height="49pt"
 viewBox="0.00 0.00 688.00 49.00" xmlns="http://www.w3.org/2000/svg" xmlns:xlink="http://www.w3.org/1999/xlink">
<g id="graph0" class="graph" transform="scale(1 1) rotate(0) translate(4 45)">
<title>opcua::ua::CreateMonitoredItemsResponse</title>
<!-- Node1 -->
<g id="Node000001" class="node">
<title>Node1</title>
<g id="a_Node000001"><a xlink:title="UA_CreateMonitoredItemsResponse wrapper class.">
<polygon fill="#999999" stroke="#666666" points="680,-35.5 528,-35.5 528,-5.5 680,-5.5 680,-35.5"/>
<text text-anchor="start" x="536" y="-23.5" font-family="Helvetica,sans-Serif" font-size="10.00">opcua::ua::CreateMonitored</text>
<text text-anchor="middle" x="604" y="-12.5" font-family="Helvetica,sans-Serif" font-size="10.00">ItemsResponse</text>
</a>
</g>
</g>
<!-- Node2 -->
<g id="Node000002" class="node">
<title>Node2</title>
<g id="a_Node000002"><a xlink:href="classopcua_1_1TypeWrapper.html" target="_top" xlink:title=" ">
<polygon fill="white" stroke="#666666" points="492,-41 226,-41 226,0 492,0 492,-41"/>
<text text-anchor="start" x="234" y="-29" font-family="Helvetica,sans-Serif" font-size="10.00">opcua::TypeWrapper</text>
<text text-anchor="start" x="234" y="-18" font-family="Helvetica,sans-Serif" font-size="10.00">&lt; UA_CreateMonitoredItemsResponse,</text>
<text text-anchor="middle" x="359" y="-7" font-family="Helvetica,sans-Serif" font-size="10.00"> UA_TYPES_CREATEMONITOREDITEMSRESPONSE &gt;</text>
</a>
</g>
</g>
<!-- Node2&#45;&gt;Node1 -->
<g id="edge1_Node000001_Node000002" class="edge">
<title>Node2&#45;&gt;Node1</title>
<g id="a_edge1_Node000001_Node000002"><a xlink:title=" ">
<path fill="none" stroke="#63b8ff" d="M502.17,-20.5C510.98,-20.5 519.64,-20.5 527.96,-20.5"/>
<polygon fill="#63b8ff" stroke="#63b8ff" points="502.17,-17 492.17,-20.5 502.17,-24 502.17,-17"/>
</a>
</g>
</g>
<!-- Node3 -->
<g id="Node000003" class="node">
<title>Node3</title>
<g id="a_Node000003"><a xlink:href="classopcua_1_1Wrapper.html" target="_top" xlink:title=" ">
<polygon fill="white" stroke="#666666" points="190,-35.5 0,-35.5 0,-5.5 190,-5.5 190,-35.5"/>
<text text-anchor="start" x="8" y="-23.5" font-family="Helvetica,sans-Serif" font-size="10.00">opcua::Wrapper&lt; UA</text>
<text text-anchor="middle" x="95" y="-12.5" font-family="Helvetica,sans-Serif" font-size="10.00">_CreateMonitoredItemsResponse &gt;</text>
</a>
</g>
</g>
<!-- Node3&#45;&gt;Node2 -->
<g id="edge2_Node000002_Node000003" class="edge">
<title>Node3&#45;&gt;Node2</title>
<g id="a_edge2_Node000002_Node000003"><a xlink:title=" ">
<path fill="none" stroke="#63b8ff" d="M200.36,-20.5C208.75,-20.5 217.29,-20.5 225.84,-20.5"/>
<polygon fill="#63b8ff" stroke="#63b8ff" points="200.22,-17 190.22,-20.5 200.22,-24 200.22,-17"/>
</a>
</g>
</g>
</g>
</svg>
