<?xml version="1.0" encoding="UTF-8" standalone="no"?>
<!DOCTYPE svg PUBLIC "-//W3C//DTD SVG 1.1//EN"
 "http://www.w3.org/Graphics/SVG/1.1/DTD/svg11.dtd">
<!-- Generated by graphviz version 2.43.0 (0)
 -->
<!-- Title: opcua::ua::SetMonitoringModeResponse Pages: 1 -->
<svg width="591pt" height="49pt"
 viewBox="0.00 0.00 591.00 49.00" xmlns="http://www.w3.org/2000/svg" xmlns:xlink="http://www.w3.org/1999/xlink">
<g id="graph0" class="graph" transform="scale(1 1) rotate(0) translate(4 45)">
<title>opcua::ua::SetMonitoringModeResponse</title>
<!-- Node1 -->
<g id="Node000001" class="node">
<title>Node1</title>
<g id="a_Node000001"><a xlink:title="UA_SetMonitoringModeResponse wrapper class.">
<polygon fill="#999999" stroke="#666666" points="583,-35.5 445,-35.5 445,-5.5 583,-5.5 583,-35.5"/>
<text text-anchor="start" x="453" y="-23.5" font-family="Helvetica,sans-Serif" font-size="10.00">opcua::ua::SetMonitoring</text>
<text text-anchor="middle" x="514" y="-12.5" font-family="Helvetica,sans-Serif" font-size="10.00">ModeResponse</text>
</a>
</g>
</g>
<!-- Node2 -->
<g id="Node000002" class="node">
<title>Node2</title>
<g id="a_Node000002"><a xlink:href="classopcua_1_1TypeWrapper.html" target="_top" xlink:title=" ">
<polygon fill="white" stroke="#666666" points="409,-41 158,-41 158,0 409,0 409,-41"/>
<text text-anchor="start" x="166" y="-29" font-family="Helvetica,sans-Serif" font-size="10.00">opcua::TypeWrapper</text>
<text text-anchor="start" x="166" y="-18" font-family="Helvetica,sans-Serif" font-size="10.00">&lt; UA_SetMonitoringModeResponse,</text>
<text text-anchor="middle" x="283.5" y="-7" font-family="Helvetica,sans-Serif" font-size="10.00"> UA_TYPES_SETMONITORINGMODERESPONSE &gt;</text>
</a>
</g>
</g>
<!-- Node2&#45;&gt;Node1 -->
<g id="edge1_Node000001_Node000002" class="edge">
<title>Node2&#45;&gt;Node1</title>
<g id="a_edge1_Node000001_Node000002"><a xlink:title=" ">
<path fill="none" stroke="#63b8ff" d="M419.37,-20.5C428.06,-20.5 436.58,-20.5 444.73,-20.5"/>
<polygon fill="#63b8ff" stroke="#63b8ff" points="419.11,-17 409.11,-20.5 419.11,-24 419.11,-17"/>
</a>
</g>
</g>
<!-- Node3 -->
<g id="Node000003" class="node">
<title>Node3</title>
<g id="a_Node000003"><a xlink:href="classopcua_1_1Wrapper.html" target="_top" xlink:title="Template base class to wrap native objects.">
<polygon fill="white" stroke="#666666" points="122,-30 0,-30 0,-11 122,-11 122,-30"/>
<text text-anchor="middle" x="61" y="-18" font-family="Helvetica,sans-Serif" font-size="10.00">opcua::Wrapper&lt; T &gt;</text>
</a>
</g>
</g>
<!-- Node3&#45;&gt;Node2 -->
<g id="edge2_Node000002_Node000003" class="edge">
<title>Node3&#45;&gt;Node2</title>
<g id="a_edge2_Node000002_Node000003"><a xlink:title=" ">
<path fill="none" stroke="#63b8ff" d="M132.46,-20.5C140.68,-20.5 149.24,-20.5 157.91,-20.5"/>
<polygon fill="#63b8ff" stroke="#63b8ff" points="132.25,-17 122.25,-20.5 132.25,-24 132.25,-17"/>
</a>
</g>
</g>
</g>
</svg>
