<?xml version="1.0" encoding="UTF-8" standalone="no"?>
<!DOCTYPE svg PUBLIC "-//W3C//DTD SVG 1.1//EN"
 "http://www.w3.org/Graphics/SVG/1.1/DTD/svg11.dtd">
<!-- Generated by graphviz version 2.43.0 (0)
 -->
<!-- Title: opcua::ByteString Pages: 1 -->
<svg width="459pt" height="98pt"
 viewBox="0.00 0.00 459.00 97.50" xmlns="http://www.w3.org/2000/svg" xmlns:xlink="http://www.w3.org/1999/xlink">
<g id="graph0" class="graph" transform="scale(1 1) rotate(0) translate(4 93.5)">
<title>opcua::ByteString</title>
<!-- Node1 -->
<g id="Node000001" class="node">
<title>Node1</title>
<g id="a_Node000001"><a xlink:title="UA_ByteString wrapper class.">
<polygon fill="#999999" stroke="#666666" points="451,-51.5 348,-51.5 348,-32.5 451,-32.5 451,-51.5"/>
<text text-anchor="middle" x="399.5" y="-39.5" font-family="Helvetica,sans-Serif" font-size="10.00">opcua::ByteString</text>
</a>
</g>
</g>
<!-- Node2 -->
<g id="Node000002" class="node">
<title>Node2</title>
<g id="a_Node000002"><a xlink:href="classopcua_1_1TypeWrapper.html" target="_top" xlink:title=" ">
<polygon fill="white" stroke="#666666" points="298,-89.5 169,-89.5 169,-48.5 298,-48.5 298,-89.5"/>
<text text-anchor="start" x="177" y="-77.5" font-family="Helvetica,sans-Serif" font-size="10.00">opcua::TypeWrapper</text>
<text text-anchor="start" x="177" y="-66.5" font-family="Helvetica,sans-Serif" font-size="10.00">&lt; UA_ByteString, UA</text>
<text text-anchor="middle" x="233.5" y="-55.5" font-family="Helvetica,sans-Serif" font-size="10.00">_TYPES_BYTESTRING &gt;</text>
</a>
</g>
</g>
<!-- Node2&#45;&gt;Node1 -->
<g id="edge1_Node000001_Node000002" class="edge">
<title>Node2&#45;&gt;Node1</title>
<g id="a_edge1_Node000001_Node000002"><a xlink:title=" ">
<path fill="none" stroke="#63b8ff" d="M308.51,-56.82C321.86,-54.62 335.5,-52.37 347.99,-50.32"/>
<polygon fill="#63b8ff" stroke="#63b8ff" points="307.67,-53.41 298.38,-58.48 308.81,-60.31 307.67,-53.41"/>
</a>
</g>
</g>
<!-- Node3 -->
<g id="Node000003" class="node">
<title>Node3</title>
<g id="a_Node000003"><a xlink:href="classopcua_1_1Wrapper.html" target="_top" xlink:title=" ">
<polygon fill="white" stroke="#666666" points="119,-84 0,-84 0,-54 119,-54 119,-84"/>
<text text-anchor="start" x="8" y="-72" font-family="Helvetica,sans-Serif" font-size="10.00">opcua::Wrapper&lt; UA</text>
<text text-anchor="middle" x="59.5" y="-61" font-family="Helvetica,sans-Serif" font-size="10.00">_ByteString &gt;</text>
</a>
</g>
</g>
<!-- Node3&#45;&gt;Node2 -->
<g id="edge2_Node000002_Node000003" class="edge">
<title>Node3&#45;&gt;Node2</title>
<g id="a_edge2_Node000002_Node000003"><a xlink:title=" ">
<path fill="none" stroke="#63b8ff" d="M129.47,-69C142.44,-69 155.95,-69 168.76,-69"/>
<polygon fill="#63b8ff" stroke="#63b8ff" points="129.21,-65.5 119.21,-69 129.21,-72.5 129.21,-65.5"/>
</a>
</g>
</g>
<!-- Node4 -->
<g id="Node000004" class="node">
<title>Node4</title>
<g id="a_Node000004"><a xlink:title=" ">
<polygon fill="white" stroke="#666666" points="312,-30 155,-30 155,0 312,0 312,-30"/>
<text text-anchor="start" x="163" y="-18" font-family="Helvetica,sans-Serif" font-size="10.00">opcua::detail::StringLike</text>
<text text-anchor="middle" x="233.5" y="-7" font-family="Helvetica,sans-Serif" font-size="10.00">Mixin&lt; ByteString, uint8_t &gt;</text>
</a>
</g>
</g>
<!-- Node4&#45;&gt;Node1 -->
<g id="edge3_Node000001_Node000004" class="edge">
<title>Node4&#45;&gt;Node1</title>
<g id="a_edge3_Node000001_Node000004"><a xlink:title=" ">
<path fill="none" stroke="#63b8ff" d="M322.1,-29.42C330.87,-30.87 339.56,-32.3 347.76,-33.65"/>
<polygon fill="#63b8ff" stroke="#63b8ff" points="322.61,-25.96 312.18,-27.79 321.48,-32.87 322.61,-25.96"/>
</a>
</g>
</g>
</g>
</svg>
