<?xml version="1.0" encoding="UTF-8" standalone="no"?>
<!DOCTYPE svg PUBLIC "-//W3C//DTD SVG 1.1//EN"
 "http://www.w3.org/Graphics/SVG/1.1/DTD/svg11.dtd">
<!-- Generated by graphviz version 2.43.0 (0)
 -->
<!-- Title: opcua::ByteString Pages: 1 -->
<svg width="232pt" height="174pt"
 viewBox="0.00 0.00 231.50 174.00" xmlns="http://www.w3.org/2000/svg" xmlns:xlink="http://www.w3.org/1999/xlink">
<g id="graph0" class="graph" transform="scale(1 1) rotate(0) translate(4 170)">
<title>opcua::ByteString</title>
<!-- Node1 -->
<g id="node1" class="node">
<title>Node1</title>
<g id="a_node1"><a xlink:title="UA_ByteString wrapper class.">
<polygon fill="#bfbfbf" stroke="black" points="78.5,-0.5 78.5,-19.5 181.5,-19.5 181.5,-0.5 78.5,-0.5"/>
<text text-anchor="middle" x="130" y="-7.5" font-family="Helvetica,sans-Serif" font-size="10.00">opcua::ByteString</text>
</a>
</g>
</g>
<!-- Node2 -->
<g id="node2" class="node">
<title>Node2</title>
<g id="a_node2"><a xlink:href="classopcua_1_1TypeWrapper.html" target="_top" xlink:title=" ">
<polygon fill="none" stroke="black" points="66.5,-57.5 66.5,-98.5 193.5,-98.5 193.5,-57.5 66.5,-57.5"/>
<text text-anchor="start" x="74.5" y="-86.5" font-family="Helvetica,sans-Serif" font-size="10.00">opcua::TypeWrapper</text>
<text text-anchor="start" x="74.5" y="-75.5" font-family="Helvetica,sans-Serif" font-size="10.00">&lt; UA_ByteString, Type</text>
<text text-anchor="middle" x="130" y="-64.5" font-family="Helvetica,sans-Serif" font-size="10.00">::ByteString &gt;</text>
</a>
</g>
</g>
<!-- Node2&#45;&gt;Node1 -->
<g id="edge1" class="edge">
<title>Node2&#45;&gt;Node1</title>
<path fill="none" stroke="midnightblue" d="M130,-47.12C130,-37.17 130,-26.84 130,-19.79"/>
<polygon fill="midnightblue" stroke="midnightblue" points="126.5,-47.2 130,-57.2 133.5,-47.2 126.5,-47.2"/>
</g>
<!-- Node3 -->
<g id="node3" class="node">
<title>Node3</title>
<g id="a_node3"><a xlink:href="classopcua_1_1TypeWrapperBase.html" target="_top" xlink:title=" ">
<polygon fill="none" stroke="black" points="0,-146.5 0,-165.5 140,-165.5 140,-146.5 0,-146.5"/>
<text text-anchor="middle" x="70" y="-153.5" font-family="Helvetica,sans-Serif" font-size="10.00">opcua::TypeWrapperBase</text>
</a>
</g>
</g>
<!-- Node3&#45;&gt;Node2 -->
<g id="edge2" class="edge">
<title>Node3&#45;&gt;Node2</title>
<path fill="none" stroke="midnightblue" d="M83.23,-138.24C92.46,-126.56 104.79,-110.93 114.48,-98.66"/>
<polygon fill="midnightblue" stroke="midnightblue" points="80.33,-136.26 76.88,-146.28 85.83,-140.6 80.33,-136.26"/>
</g>
<!-- Node4 -->
<g id="node4" class="node">
<title>Node4</title>
<g id="a_node4"><a xlink:href="open62541/structUA__String.html" xlink:title=" ">
<polygon fill="none" stroke="black" points="158.5,-146.5 158.5,-165.5 223.5,-165.5 223.5,-146.5 158.5,-146.5"/>
<text text-anchor="middle" x="191" y="-153.5" font-family="Helvetica,sans-Serif" font-size="10.00">UA_String</text>
</a>
</g>
</g>
<!-- Node4&#45;&gt;Node2 -->
<g id="edge3" class="edge">
<title>Node4&#45;&gt;Node2</title>
<path fill="none" stroke="#9a32cd" stroke-dasharray="5,2" d="M177.55,-138.24C168.17,-126.56 155.63,-110.93 145.78,-98.66"/>
<polygon fill="#9a32cd" stroke="#9a32cd" points="175.01,-140.67 184,-146.28 180.47,-136.29 175.01,-140.67"/>
<text text-anchor="middle" x="182.5" y="-120" font-family="Helvetica,sans-Serif" font-size="10.00"> data_</text>
</g>
</g>
</svg>
