<?xml version="1.0" encoding="UTF-8" standalone="no"?>
<!DOCTYPE svg PUBLIC "-//W3C//DTD SVG 1.1//EN"
 "http://www.w3.org/Graphics/SVG/1.1/DTD/svg11.dtd">
<!-- Generated by graphviz version 2.43.0 (0)
 -->
<!-- Title: opcua::ua::ModifyMonitoredItemsRequest Pages: 1 -->
<svg width="676pt" height="49pt"
 viewBox="0.00 0.00 676.00 49.00" xmlns="http://www.w3.org/2000/svg" xmlns:xlink="http://www.w3.org/1999/xlink">
<g id="graph0" class="graph" transform="scale(1 1) rotate(0) translate(4 45)">
<title>opcua::ua::ModifyMonitoredItemsRequest</title>
<!-- Node1 -->
<g id="Node000001" class="node">
<title>Node1</title>
<g id="a_Node000001"><a xlink:title="UA_ModifyMonitoredItemsRequest wrapper class.">
<polygon fill="#999999" stroke="#666666" points="668,-35.5 516,-35.5 516,-5.5 668,-5.5 668,-35.5"/>
<text text-anchor="start" x="524" y="-23.5" font-family="Helvetica,sans-Serif" font-size="10.00">opcua::ua::ModifyMonitored</text>
<text text-anchor="middle" x="592" y="-12.5" font-family="Helvetica,sans-Serif" font-size="10.00">ItemsRequest</text>
</a>
</g>
</g>
<!-- Node2 -->
<g id="Node000002" class="node">
<title>Node2</title>
<g id="a_Node000002"><a xlink:href="classopcua_1_1TypeWrapper.html" target="_top" xlink:title=" ">
<polygon fill="white" stroke="#666666" points="480,-41 219,-41 219,0 480,0 480,-41"/>
<text text-anchor="start" x="227" y="-29" font-family="Helvetica,sans-Serif" font-size="10.00">opcua::TypeWrapper</text>
<text text-anchor="start" x="227" y="-18" font-family="Helvetica,sans-Serif" font-size="10.00">&lt; UA_ModifyMonitoredItemsRequest,</text>
<text text-anchor="middle" x="349.5" y="-7" font-family="Helvetica,sans-Serif" font-size="10.00"> UA_TYPES_MODIFYMONITOREDITEMSREQUEST &gt;</text>
</a>
</g>
</g>
<!-- Node2&#45;&gt;Node1 -->
<g id="edge1_Node000001_Node000002" class="edge">
<title>Node2&#45;&gt;Node1</title>
<g id="a_edge1_Node000001_Node000002"><a xlink:title=" ">
<path fill="none" stroke="#63b8ff" d="M490.51,-20.5C499.19,-20.5 507.74,-20.5 515.96,-20.5"/>
<polygon fill="#63b8ff" stroke="#63b8ff" points="490.25,-17 480.25,-20.5 490.25,-24 490.25,-17"/>
</a>
</g>
</g>
<!-- Node3 -->
<g id="Node000003" class="node">
<title>Node3</title>
<g id="a_Node000003"><a xlink:href="classopcua_1_1Wrapper.html" target="_top" xlink:title=" ">
<polygon fill="white" stroke="#666666" points="183,-35.5 0,-35.5 0,-5.5 183,-5.5 183,-35.5"/>
<text text-anchor="start" x="8" y="-23.5" font-family="Helvetica,sans-Serif" font-size="10.00">opcua::Wrapper&lt; UA</text>
<text text-anchor="middle" x="91.5" y="-12.5" font-family="Helvetica,sans-Serif" font-size="10.00">_ModifyMonitoredItemsRequest &gt;</text>
</a>
</g>
</g>
<!-- Node3&#45;&gt;Node2 -->
<g id="edge2_Node000002_Node000003" class="edge">
<title>Node3&#45;&gt;Node2</title>
<g id="a_edge2_Node000002_Node000003"><a xlink:title=" ">
<path fill="none" stroke="#63b8ff" d="M193.32,-20.5C201.77,-20.5 210.37,-20.5 218.99,-20.5"/>
<polygon fill="#63b8ff" stroke="#63b8ff" points="193.12,-17 183.12,-20.5 193.12,-24 193.12,-17"/>
</a>
</g>
</g>
</g>
</svg>
