<?xml version="1.0" encoding="UTF-8" standalone="no"?>
<!DOCTYPE svg PUBLIC "-//W3C//DTD SVG 1.1//EN"
 "http://www.w3.org/Graphics/SVG/1.1/DTD/svg11.dtd">
<!-- Generated by graphviz version 2.43.0 (0)
 -->
<!-- Title: opcua::IssuedIdentityToken Pages: 1 -->
<svg width="208pt" height="170pt"
 viewBox="0.00 0.00 208.00 170.00" xmlns="http://www.w3.org/2000/svg" xmlns:xlink="http://www.w3.org/1999/xlink">
<g id="graph0" class="graph" transform="scale(1 1) rotate(0) translate(4 166)">
<title>opcua::IssuedIdentityToken</title>
<!-- Node1 -->
<g id="Node000001" class="node">
<title>Node1</title>
<g id="a_Node000001"><a xlink:title="UA_IssuedIdentityToken wrapper class.">
<polygon fill="#999999" stroke="#666666" points="174.5,-19 25.5,-19 25.5,0 174.5,0 174.5,-19"/>
<text text-anchor="middle" x="100" y="-7" font-family="Helvetica,sans-Serif" font-size="10.00">opcua::IssuedIdentityToken</text>
</a>
</g>
</g>
<!-- Node2 -->
<g id="Node000002" class="node">
<title>Node2</title>
<g id="a_Node000002"><a xlink:href="classopcua_1_1TypeWrapper.html" target="_top" xlink:title=" ">
<polygon fill="white" stroke="#666666" points="200,-96 0,-96 0,-55 200,-55 200,-96"/>
<text text-anchor="start" x="8" y="-84" font-family="Helvetica,sans-Serif" font-size="10.00">opcua::TypeWrapper</text>
<text text-anchor="start" x="8" y="-73" font-family="Helvetica,sans-Serif" font-size="10.00">&lt; UA_IssuedIdentityToken,</text>
<text text-anchor="middle" x="100" y="-62" font-family="Helvetica,sans-Serif" font-size="10.00"> UA_TYPES_ISSUEDIDENTITYTOKEN &gt;</text>
</a>
</g>
</g>
<!-- Node2&#45;&gt;Node1 -->
<g id="edge1_Node000001_Node000002" class="edge">
<title>Node2&#45;&gt;Node1</title>
<g id="a_edge1_Node000001_Node000002"><a xlink:title=" ">
<path fill="none" stroke="#63b8ff" d="M100,-44.74C100,-35.45 100,-25.9 100,-19.26"/>
<polygon fill="#63b8ff" stroke="#63b8ff" points="96.5,-44.95 100,-54.95 103.5,-44.95 96.5,-44.95"/>
</a>
</g>
</g>
<!-- Node3 -->
<g id="Node000003" class="node">
<title>Node3</title>
<g id="a_Node000003"><a xlink:href="classopcua_1_1Wrapper.html" target="_top" xlink:title=" ">
<polygon fill="white" stroke="#666666" points="165,-162 35,-162 35,-132 165,-132 165,-162"/>
<text text-anchor="start" x="43" y="-150" font-family="Helvetica,sans-Serif" font-size="10.00">opcua::Wrapper&lt; UA</text>
<text text-anchor="middle" x="100" y="-139" font-family="Helvetica,sans-Serif" font-size="10.00">_IssuedIdentityToken &gt;</text>
</a>
</g>
</g>
<!-- Node3&#45;&gt;Node2 -->
<g id="edge2_Node000002_Node000003" class="edge">
<title>Node3&#45;&gt;Node2</title>
<g id="a_edge2_Node000002_Node000003"><a xlink:title=" ">
<path fill="none" stroke="#63b8ff" d="M100,-121.91C100,-113.47 100,-104.1 100,-96.07"/>
<polygon fill="#63b8ff" stroke="#63b8ff" points="96.5,-121.94 100,-131.94 103.5,-121.94 96.5,-121.94"/>
</a>
</g>
</g>
</g>
</svg>
