<?xml version="1.0" encoding="UTF-8" standalone="no"?>
<!DOCTYPE svg PUBLIC "-//W3C//DTD SVG 1.1//EN"
 "http://www.w3.org/Graphics/SVG/1.1/DTD/svg11.dtd">
<!-- Generated by graphviz version 2.43.0 (0)
 -->
<!-- Title: /home/runner/work/open62541pp/open62541pp/include/open62541pp/detail/client_utils.hpp Pages: 1 -->
<svg width="800pt" height="181pt"
 viewBox="0.00 0.00 799.50 181.00" xmlns="http://www.w3.org/2000/svg" xmlns:xlink="http://www.w3.org/1999/xlink">
<g id="graph0" class="graph" transform="scale(1 1) rotate(0) translate(4 177)">
<title>/home/runner/work/open62541pp/open62541pp/include/open62541pp/detail/client_utils.hpp</title>
<!-- Node1 -->
<g id="Node000001" class="node">
<title>Node1</title>
<g id="a_Node000001"><a xlink:title=" ">
<polygon fill="#999999" stroke="#666666" points="460.5,-173 267.5,-173 267.5,-132 460.5,-132 460.5,-173"/>
<text text-anchor="start" x="275.5" y="-161" font-family="Helvetica,sans-Serif" font-size="10.00">/home/runner/work/open62541pp</text>
<text text-anchor="start" x="275.5" y="-150" font-family="Helvetica,sans-Serif" font-size="10.00">/open62541pp/include/open62541pp</text>
<text text-anchor="middle" x="364" y="-139" font-family="Helvetica,sans-Serif" font-size="10.00">/detail/client_utils.hpp</text>
</a>
</g>
</g>
<!-- Node2 -->
<g id="Node000002" class="node">
<title>Node2</title>
<g id="a_Node000002"><a xlink:href="client_8h.html" target="_top" xlink:title=" ">
<polygon fill="white" stroke="#666666" points="420.5,-96 307.5,-96 307.5,-66 420.5,-66 420.5,-96"/>
<text text-anchor="start" x="315.5" y="-84" font-family="Helvetica,sans-Serif" font-size="10.00">open62541pp/detail</text>
<text text-anchor="middle" x="364" y="-73" font-family="Helvetica,sans-Serif" font-size="10.00">/open62541/client.h</text>
</a>
</g>
</g>
<!-- Node1&#45;&gt;Node2 -->
<g id="edge1_Node000001_Node000002" class="edge">
<title>Node1&#45;&gt;Node2</title>
<g id="a_edge1_Node000001_Node000002"><a xlink:title=" ">
<path fill="none" stroke="#63b8ff" d="M364,-131.77C364,-123.85 364,-114.63 364,-106.3"/>
<polygon fill="#63b8ff" stroke="#63b8ff" points="367.5,-106.04 364,-96.04 360.5,-106.04 367.5,-106.04"/>
</a>
</g>
</g>
<!-- Node3 -->
<g id="Node000003" class="node">
<title>Node3</title>
<g id="a_Node000003"><a xlink:href="push__options_8h.html" target="_top" xlink:title=" ">
<polygon fill="white" stroke="#666666" points="150,-30 0,-30 0,0 150,0 150,-30"/>
<text text-anchor="start" x="8" y="-18" font-family="Helvetica,sans-Serif" font-size="10.00">open62541pp/detail</text>
<text text-anchor="middle" x="75" y="-7" font-family="Helvetica,sans-Serif" font-size="10.00">/open62541/push_options.h</text>
</a>
</g>
</g>
<!-- Node2&#45;&gt;Node3 -->
<g id="edge2_Node000002_Node000003" class="edge">
<title>Node2&#45;&gt;Node3</title>
<g id="a_edge2_Node000002_Node000003"><a xlink:title=" ">
<path fill="none" stroke="#63b8ff" d="M307.25,-67.43C261.8,-57.37 197.72,-43.18 148.38,-32.25"/>
<polygon fill="#63b8ff" stroke="#63b8ff" points="148.92,-28.79 138.4,-30.04 147.41,-35.62 148.92,-28.79"/>
</a>
</g>
</g>
<!-- Node4 -->
<g id="Node000004" class="node">
<title>Node4</title>
<g id="a_Node000004"><a xlink:title=" ">
<polygon fill="#e0e0e0" stroke="#999999" points="278,-24.5 168,-24.5 168,-5.5 278,-5.5 278,-24.5"/>
<text text-anchor="middle" x="223" y="-12.5" font-family="Helvetica,sans-Serif" font-size="10.00">open62541/client.h</text>
</a>
</g>
</g>
<!-- Node2&#45;&gt;Node4 -->
<g id="edge3_Node000002_Node000004" class="edge">
<title>Node2&#45;&gt;Node4</title>
<g id="a_edge3_Node000002_Node000004"><a xlink:title=" ">
<path fill="none" stroke="#63b8ff" d="M333.06,-65.95C308.55,-54.83 274.61,-39.42 250.92,-28.67"/>
<polygon fill="#63b8ff" stroke="#63b8ff" points="252.32,-25.46 241.76,-24.52 249.42,-31.84 252.32,-25.46"/>
</a>
</g>
</g>
<!-- Node5 -->
<g id="Node000005" class="node">
<title>Node5</title>
<g id="a_Node000005"><a target="_blank" xlink:href="open62541/client__config__default_8h.html" xlink:title=" ">
<polygon fill="white" stroke="#666666" points="431.5,-30 296.5,-30 296.5,0 431.5,0 431.5,-30"/>
<text text-anchor="start" x="304.5" y="-18" font-family="Helvetica,sans-Serif" font-size="10.00">open62541/client_config</text>
<text text-anchor="middle" x="364" y="-7" font-family="Helvetica,sans-Serif" font-size="10.00">_default.h</text>
</a>
</g>
</g>
<!-- Node2&#45;&gt;Node5 -->
<g id="edge4_Node000002_Node000005" class="edge">
<title>Node2&#45;&gt;Node5</title>
<g id="a_edge4_Node000002_Node000005"><a xlink:title=" ">
<path fill="none" stroke="#63b8ff" d="M358.28,-65.8C357.3,-58.26 357.02,-48.78 357.43,-40.13"/>
<polygon fill="#63b8ff" stroke="#63b8ff" points="360.92,-40.43 358.29,-30.16 353.95,-39.83 360.92,-40.43"/>
</a>
</g>
</g>
<!-- Node6 -->
<g id="Node000006" class="node">
<title>Node6</title>
<g id="a_Node000006"><a target="_blank" xlink:href="open62541/client__subscriptions_8h.html" xlink:title=" ">
<polygon fill="white" stroke="#666666" points="628.5,-24.5 449.5,-24.5 449.5,-5.5 628.5,-5.5 628.5,-24.5"/>
<text text-anchor="middle" x="539" y="-12.5" font-family="Helvetica,sans-Serif" font-size="10.00">open62541/client_subscriptions.h</text>
</a>
</g>
</g>
<!-- Node2&#45;&gt;Node6 -->
<g id="edge6_Node000002_Node000006" class="edge">
<title>Node2&#45;&gt;Node6</title>
<g id="a_edge6_Node000002_Node000006"><a xlink:title=" ">
<path fill="none" stroke="#63b8ff" d="M396.71,-65.95C426.44,-54.53 470.11,-38.6 501.29,-27.82"/>
<polygon fill="#63b8ff" stroke="#63b8ff" points="502.62,-31.07 510.95,-24.52 500.35,-24.45 502.62,-31.07"/>
</a>
</g>
</g>
<!-- Node7 -->
<g id="Node000007" class="node">
<title>Node7</title>
<g id="a_Node000007"><a xlink:href="pop__options_8h.html" target="_top" xlink:title=" ">
<polygon fill="white" stroke="#666666" points="791.5,-30 646.5,-30 646.5,0 791.5,0 791.5,-30"/>
<text text-anchor="start" x="654.5" y="-18" font-family="Helvetica,sans-Serif" font-size="10.00">open62541pp/detail</text>
<text text-anchor="middle" x="719" y="-7" font-family="Helvetica,sans-Serif" font-size="10.00">/open62541/pop_options.h</text>
</a>
</g>
</g>
<!-- Node2&#45;&gt;Node7 -->
<g id="edge8_Node000002_Node000007" class="edge">
<title>Node2&#45;&gt;Node7</title>
<g id="a_edge8_Node000002_Node000007"><a xlink:title=" ">
<path fill="none" stroke="#63b8ff" d="M420.64,-69.79C478.83,-59.3 570.01,-42.86 636.27,-30.91"/>
<polygon fill="#63b8ff" stroke="#63b8ff" points="637.05,-34.33 646.27,-29.11 635.81,-27.44 637.05,-34.33"/>
</a>
</g>
</g>
<!-- Node5&#45;&gt;Node2 -->
<g id="edge5_Node000005_Node000002" class="edge">
<title>Node5&#45;&gt;Node2</title>
<g id="a_edge5_Node000005_Node000002"><a xlink:title=" ">
<path fill="none" stroke="#63b8ff" d="M369.71,-30.16C370.69,-37.7 370.98,-47.17 370.57,-55.83"/>
<polygon fill="#63b8ff" stroke="#63b8ff" points="367.08,-55.54 369.72,-65.8 374.05,-56.13 367.08,-55.54"/>
</a>
</g>
</g>
<!-- Node6&#45;&gt;Node2 -->
<g id="edge7_Node000006_Node000002" class="edge">
<title>Node6&#45;&gt;Node2</title>
<g id="a_edge7_Node000006_Node000002"><a xlink:title=" ">
<path fill="none" stroke="#63b8ff" d="M520.47,-24.52C496.12,-34.19 452.71,-50.23 417.72,-62.58"/>
<polygon fill="#63b8ff" stroke="#63b8ff" points="416.38,-59.34 408.1,-65.95 418.7,-65.94 416.38,-59.34"/>
</a>
</g>
</g>
</g>
</svg>
