<?xml version="1.0" encoding="UTF-8" standalone="no"?>
<!DOCTYPE svg PUBLIC "-//W3C//DTD SVG 1.1//EN"
 "http://www.w3.org/Graphics/SVG/1.1/DTD/svg11.dtd">
<!-- Generated by graphviz version 2.43.0 (0)
 -->
<!-- Title: /home/runner/work/open62541pp/open62541pp/include/open62541pp/client.hpp Pages: 1 -->
<svg width="940pt" height="511pt"
 viewBox="0.00 0.00 939.50 511.00" xmlns="http://www.w3.org/2000/svg" xmlns:xlink="http://www.w3.org/1999/xlink">
<g id="graph0" class="graph" transform="scale(1 1) rotate(0) translate(4 507)">
<title>/home/runner/work/open62541pp/open62541pp/include/open62541pp/client.hpp</title>
<!-- Node1 -->
<g id="Node000001" class="node">
<title>Node1</title>
<g id="a_Node000001"><a xlink:title=" ">
<polygon fill="#999999" stroke="#666666" points="345.5,-503 152.5,-503 152.5,-462 345.5,-462 345.5,-503"/>
<text text-anchor="start" x="160.5" y="-491" font-family="Helvetica,sans-Serif" font-size="10.00">/home/runner/work/open62541pp</text>
<text text-anchor="start" x="160.5" y="-480" font-family="Helvetica,sans-Serif" font-size="10.00">/open62541pp/include/open62541pp</text>
<text text-anchor="middle" x="249" y="-469" font-family="Helvetica,sans-Serif" font-size="10.00">/client.hpp</text>
</a>
</g>
</g>
<!-- Node2 -->
<g id="Node000002" class="node">
<title>Node2</title>
<g id="a_Node000002"><a xlink:href="client__context_8hpp.html" target="_top" xlink:title=" ">
<polygon fill="white" stroke="#666666" points="345.5,-426 152.5,-426 152.5,-385 345.5,-385 345.5,-426"/>
<text text-anchor="start" x="160.5" y="-414" font-family="Helvetica,sans-Serif" font-size="10.00">/home/runner/work/open62541pp</text>
<text text-anchor="start" x="160.5" y="-403" font-family="Helvetica,sans-Serif" font-size="10.00">/open62541pp/include/open62541pp</text>
<text text-anchor="middle" x="249" y="-392" font-family="Helvetica,sans-Serif" font-size="10.00">/detail/client_context.hpp</text>
</a>
</g>
</g>
<!-- Node1&#45;&gt;Node2 -->
<g id="edge1_Node000001_Node000002" class="edge">
<title>Node1&#45;&gt;Node2</title>
<g id="a_edge1_Node000001_Node000002"><a xlink:title=" ">
<path fill="none" stroke="#63b8ff" d="M249,-451.69C249,-443.08 249,-433.9 249,-426.07"/>
<polygon fill="#63b8ff" stroke="#63b8ff" points="245.5,-451.79 249,-461.79 252.5,-451.79 245.5,-451.79"/>
</a>
</g>
</g>
<!-- Node3 -->
<g id="Node000003" class="node">
<title>Node3</title>
<g id="a_Node000003"><a xlink:href="client__services_8hpp.html" target="_top" xlink:title=" ">
<polygon fill="white" stroke="#666666" points="470.5,-349 277.5,-349 277.5,-308 470.5,-308 470.5,-349"/>
<text text-anchor="start" x="285.5" y="-337" font-family="Helvetica,sans-Serif" font-size="10.00">/home/runner/work/open62541pp</text>
<text text-anchor="start" x="285.5" y="-326" font-family="Helvetica,sans-Serif" font-size="10.00">/open62541pp/include/open62541pp</text>
<text text-anchor="middle" x="374" y="-315" font-family="Helvetica,sans-Serif" font-size="10.00">/services/detail/client_services.hpp</text>
</a>
</g>
</g>
<!-- Node1&#45;&gt;Node3 -->
<g id="edge21_Node000001_Node000003" class="edge">
<title>Node1&#45;&gt;Node3</title>
<g id="a_edge21_Node000001_Node000003"><a xlink:title=" ">
<path fill="none" stroke="#63b8ff" d="M316.09,-457.29C330.44,-449.31 344.2,-439.04 354,-426 370.86,-403.57 374.32,-370.27 374.64,-349.24"/>
<polygon fill="#63b8ff" stroke="#63b8ff" points="314.37,-454.25 307.12,-461.97 317.6,-460.46 314.37,-454.25"/>
</a>
</g>
</g>
<!-- Node6 -->
<g id="Node000006" class="node">
<title>Node6</title>
<g id="a_Node000006"><a xlink:href="open62541pp_8hpp.html" target="_top" xlink:title=" ">
<polygon fill="white" stroke="#666666" points="470.5,-41 277.5,-41 277.5,0 470.5,0 470.5,-41"/>
<text text-anchor="start" x="285.5" y="-29" font-family="Helvetica,sans-Serif" font-size="10.00">/home/runner/work/open62541pp</text>
<text text-anchor="start" x="285.5" y="-18" font-family="Helvetica,sans-Serif" font-size="10.00">/open62541pp/include/open62541pp</text>
<text text-anchor="middle" x="374" y="-7" font-family="Helvetica,sans-Serif" font-size="10.00">/open62541pp.hpp</text>
</a>
</g>
</g>
<!-- Node1&#45;&gt;Node6 -->
<g id="edge20_Node000001_Node000006" class="edge">
<title>Node1&#45;&gt;Node6</title>
<g id="a_edge20_Node000001_Node000006"><a xlink:title=" ">
<path fill="none" stroke="#63b8ff" d="M142.46,-459.99C74.84,-439.41 0,-400.58 0,-329.5 0,-329.5 0,-329.5 0,-173.5 0,-113.66 166.38,-66.03 277.2,-40.93"/>
<polygon fill="#63b8ff" stroke="#63b8ff" points="141.79,-463.44 152.37,-462.89 143.76,-456.72 141.79,-463.44"/>
</a>
</g>
</g>
<!-- Node2&#45;&gt;Node3 -->
<g id="edge2_Node000002_Node000003" class="edge">
<title>Node2&#45;&gt;Node3</title>
<g id="a_edge2_Node000002_Node000003"><a xlink:title=" ">
<path fill="none" stroke="#63b8ff" d="M290.43,-379.64C306.94,-369.74 325.67,-358.5 341.21,-349.17"/>
<polygon fill="#63b8ff" stroke="#63b8ff" points="288.29,-376.84 281.52,-384.99 291.89,-382.85 288.29,-376.84"/>
</a>
</g>
</g>
<!-- Node4 -->
<g id="Node000004" class="node">
<title>Node4</title>
<g id="a_Node000004"><a xlink:href="attribute_8hpp.html" target="_top" xlink:title=" ">
<polygon fill="white" stroke="#666666" points="302.5,-272 109.5,-272 109.5,-231 302.5,-231 302.5,-272"/>
<text text-anchor="start" x="117.5" y="-260" font-family="Helvetica,sans-Serif" font-size="10.00">/home/runner/work/open62541pp</text>
<text text-anchor="start" x="117.5" y="-249" font-family="Helvetica,sans-Serif" font-size="10.00">/open62541pp/include/open62541pp</text>
<text text-anchor="middle" x="206" y="-238" font-family="Helvetica,sans-Serif" font-size="10.00">/services/attribute.hpp</text>
</a>
</g>
</g>
<!-- Node3&#45;&gt;Node4 -->
<g id="edge3_Node000003_Node000004" class="edge">
<title>Node3&#45;&gt;Node4</title>
<g id="a_edge3_Node000003_Node000004"><a xlink:title=" ">
<path fill="none" stroke="#63b8ff" d="M321.04,-303.86C298.11,-293.62 271.57,-281.77 249.77,-272.04"/>
<polygon fill="#63b8ff" stroke="#63b8ff" points="319.74,-307.11 330.3,-307.99 322.59,-300.72 319.74,-307.11"/>
</a>
</g>
</g>
<!-- Node9 -->
<g id="Node000009" class="node">
<title>Node9</title>
<g id="a_Node000009"><a xlink:href="method_8hpp.html" target="_top" xlink:title=" ">
<polygon fill="white" stroke="#666666" points="470.5,-195 277.5,-195 277.5,-154 470.5,-154 470.5,-195"/>
<text text-anchor="start" x="285.5" y="-183" font-family="Helvetica,sans-Serif" font-size="10.00">/home/runner/work/open62541pp</text>
<text text-anchor="start" x="285.5" y="-172" font-family="Helvetica,sans-Serif" font-size="10.00">/open62541pp/include/open62541pp</text>
<text text-anchor="middle" x="374" y="-161" font-family="Helvetica,sans-Serif" font-size="10.00">/services/method.hpp</text>
</a>
</g>
</g>
<!-- Node3&#45;&gt;Node9 -->
<g id="edge11_Node000003_Node000009" class="edge">
<title>Node3&#45;&gt;Node9</title>
<g id="a_edge11_Node000003_Node000009"><a xlink:title=" ">
<path fill="none" stroke="#63b8ff" d="M374,-297.58C374,-267.36 374,-221.53 374,-195.47"/>
<polygon fill="#63b8ff" stroke="#63b8ff" points="370.5,-297.94 374,-307.94 377.5,-297.94 370.5,-297.94"/>
</a>
</g>
</g>
<!-- Node10 -->
<g id="Node000010" class="node">
<title>Node10</title>
<g id="a_Node000010"><a xlink:href="nodemanagement_8hpp.html" target="_top" xlink:title=" ">
<polygon fill="white" stroke="#666666" points="681.5,-195 488.5,-195 488.5,-154 681.5,-154 681.5,-195"/>
<text text-anchor="start" x="496.5" y="-183" font-family="Helvetica,sans-Serif" font-size="10.00">/home/runner/work/open62541pp</text>
<text text-anchor="start" x="496.5" y="-172" font-family="Helvetica,sans-Serif" font-size="10.00">/open62541pp/include/open62541pp</text>
<text text-anchor="middle" x="585" y="-161" font-family="Helvetica,sans-Serif" font-size="10.00">/services/nodemanagement.hpp</text>
</a>
</g>
</g>
<!-- Node3&#45;&gt;Node10 -->
<g id="edge14_Node000003_Node000010" class="edge">
<title>Node3&#45;&gt;Node10</title>
<g id="a_edge14_Node000003_Node000010"><a xlink:title=" ">
<path fill="none" stroke="#63b8ff" d="M409.38,-302.01C451.15,-271.93 519.69,-222.55 557.62,-195.23"/>
<polygon fill="#63b8ff" stroke="#63b8ff" points="407.22,-299.25 401.15,-307.94 411.31,-304.93 407.22,-299.25"/>
</a>
</g>
</g>
<!-- Node11 -->
<g id="Node000011" class="node">
<title>Node11</title>
<g id="a_Node000011"><a xlink:href="view_8hpp.html" target="_top" xlink:title=" ">
<polygon fill="white" stroke="#666666" points="931.5,-195 738.5,-195 738.5,-154 931.5,-154 931.5,-195"/>
<text text-anchor="start" x="746.5" y="-183" font-family="Helvetica,sans-Serif" font-size="10.00">/home/runner/work/open62541pp</text>
<text text-anchor="start" x="746.5" y="-172" font-family="Helvetica,sans-Serif" font-size="10.00">/open62541pp/include/open62541pp</text>
<text text-anchor="middle" x="835" y="-161" font-family="Helvetica,sans-Serif" font-size="10.00">/services/view.hpp</text>
</a>
</g>
</g>
<!-- Node3&#45;&gt;Node11 -->
<g id="edge17_Node000003_Node000011" class="edge">
<title>Node3&#45;&gt;Node11</title>
<g id="a_edge17_Node000003_Node000011"><a xlink:title=" ">
<path fill="none" stroke="#63b8ff" d="M442.93,-304.77C533.25,-274.99 690.17,-223.25 775.54,-195.11"/>
<polygon fill="#63b8ff" stroke="#63b8ff" points="441.73,-301.48 433.32,-307.94 443.92,-308.13 441.73,-301.48"/>
</a>
</g>
</g>
<!-- Node5 -->
<g id="Node000005" class="node">
<title>Node5</title>
<g id="a_Node000005"><a xlink:href="node_8hpp.html" target="_top" xlink:title=" ">
<polygon fill="white" stroke="#666666" points="681.5,-118 488.5,-118 488.5,-77 681.5,-77 681.5,-118"/>
<text text-anchor="start" x="496.5" y="-106" font-family="Helvetica,sans-Serif" font-size="10.00">/home/runner/work/open62541pp</text>
<text text-anchor="start" x="496.5" y="-95" font-family="Helvetica,sans-Serif" font-size="10.00">/open62541pp/include/open62541pp</text>
<text text-anchor="middle" x="585" y="-84" font-family="Helvetica,sans-Serif" font-size="10.00">/node.hpp</text>
</a>
</g>
</g>
<!-- Node4&#45;&gt;Node5 -->
<g id="edge4_Node000004_Node000005" class="edge">
<title>Node4&#45;&gt;Node5</title>
<g id="a_edge4_Node000004_Node000005"><a xlink:title=" ">
<path fill="none" stroke="#63b8ff" d="M313.09,-245.68C448.28,-238.48 666.29,-222.7 691,-195 703.13,-181.4 700.43,-169.59 691,-154 681.32,-138.01 665.35,-126.4 648.7,-118.07"/>
<polygon fill="#63b8ff" stroke="#63b8ff" points="312.5,-242.21 302.7,-246.23 312.87,-249.2 312.5,-242.21"/>
</a>
</g>
</g>
<!-- Node7 -->
<g id="Node000007" class="node">
<title>Node7</title>
<g id="a_Node000007"><a xlink:href="attribute__highlevel_8hpp.html" target="_top" xlink:title=" ">
<polygon fill="white" stroke="#666666" points="259.5,-195 66.5,-195 66.5,-154 259.5,-154 259.5,-195"/>
<text text-anchor="start" x="74.5" y="-183" font-family="Helvetica,sans-Serif" font-size="10.00">/home/runner/work/open62541pp</text>
<text text-anchor="start" x="74.5" y="-172" font-family="Helvetica,sans-Serif" font-size="10.00">/open62541pp/include/open62541pp</text>
<text text-anchor="middle" x="163" y="-161" font-family="Helvetica,sans-Serif" font-size="10.00">/services/attribute_highlevel.hpp</text>
</a>
</g>
</g>
<!-- Node4&#45;&gt;Node7 -->
<g id="edge6_Node000004_Node000007" class="edge">
<title>Node4&#45;&gt;Node7</title>
<g id="a_edge6_Node000004_Node000007"><a xlink:title=" ">
<path fill="none" stroke="#63b8ff" d="M189.72,-222.11C184.55,-213.09 178.95,-203.33 174.22,-195.07"/>
<polygon fill="#63b8ff" stroke="#63b8ff" points="186.69,-223.86 194.7,-230.79 192.76,-220.38 186.69,-223.86"/>
</a>
</g>
</g>
<!-- Node8 -->
<g id="Node000008" class="node">
<title>Node8</title>
<g id="a_Node000008"><a xlink:href="services_8hpp.html" target="_top" xlink:title=" ">
<polygon fill="white" stroke="#666666" points="470.5,-118 277.5,-118 277.5,-77 470.5,-77 470.5,-118"/>
<text text-anchor="start" x="285.5" y="-106" font-family="Helvetica,sans-Serif" font-size="10.00">/home/runner/work/open62541pp</text>
<text text-anchor="start" x="285.5" y="-95" font-family="Helvetica,sans-Serif" font-size="10.00">/open62541pp/include/open62541pp</text>
<text text-anchor="middle" x="374" y="-84" font-family="Helvetica,sans-Serif" font-size="10.00">/services/services.hpp</text>
</a>
</g>
</g>
<!-- Node4&#45;&gt;Node8 -->
<g id="edge10_Node000004_Node000008" class="edge">
<title>Node4&#45;&gt;Node8</title>
<g id="a_edge10_Node000004_Node000008"><a xlink:title=" ">
<path fill="none" stroke="#63b8ff" d="M99.9,-229.43C83.01,-221.39 67.63,-210.3 57,-195 46.6,-180.03 45.28,-167.95 57,-154 84.76,-120.95 194.48,-107.58 277.11,-102.17"/>
<polygon fill="#63b8ff" stroke="#63b8ff" points="98.86,-232.79 109.42,-233.59 101.66,-226.38 98.86,-232.79"/>
</a>
</g>
</g>
<!-- Node5&#45;&gt;Node6 -->
<g id="edge5_Node000005_Node000006" class="edge">
<title>Node5&#45;&gt;Node6</title>
<g id="a_edge5_Node000005_Node000006"><a xlink:title=" ">
<path fill="none" stroke="#63b8ff" d="M520.4,-73.54C491.16,-63.15 456.97,-50.99 428.98,-41.04"/>
<polygon fill="#63b8ff" stroke="#63b8ff" points="519.52,-76.94 530.11,-76.99 521.86,-70.34 519.52,-76.94"/>
</a>
</g>
</g>
<!-- Node7&#45;&gt;Node5 -->
<g id="edge7_Node000007_Node000005" class="edge">
<title>Node7&#45;&gt;Node5</title>
<g id="a_edge7_Node000007_Node000005"><a xlink:title=" ">
<path fill="none" stroke="#63b8ff" d="M269.59,-153.73C363.31,-137.12 388.44,-134.05 479,-118 482.04,-117.46 485.13,-116.91 488.25,-116.35"/>
<polygon fill="#63b8ff" stroke="#63b8ff" points="268.91,-150.29 259.68,-155.49 270.14,-157.19 268.91,-150.29"/>
</a>
</g>
</g>
<!-- Node7&#45;&gt;Node8 -->
<g id="edge8_Node000007_Node000008" class="edge">
<title>Node7&#45;&gt;Node8</title>
<g id="a_edge8_Node000007_Node000008"><a xlink:title=" ">
<path fill="none" stroke="#63b8ff" d="M227.6,-150.54C256.84,-140.15 291.03,-127.99 319.02,-118.04"/>
<polygon fill="#63b8ff" stroke="#63b8ff" points="226.14,-147.34 217.89,-153.99 228.48,-153.94 226.14,-147.34"/>
</a>
</g>
</g>
<!-- Node8&#45;&gt;Node6 -->
<g id="edge9_Node000008_Node000006" class="edge">
<title>Node8&#45;&gt;Node6</title>
<g id="a_edge9_Node000008_Node000006"><a xlink:title=" ">
<path fill="none" stroke="#63b8ff" d="M374,-66.69C374,-58.08 374,-48.9 374,-41.07"/>
<polygon fill="#63b8ff" stroke="#63b8ff" points="370.5,-66.79 374,-76.79 377.5,-66.79 370.5,-66.79"/>
</a>
</g>
</g>
<!-- Node9&#45;&gt;Node5 -->
<g id="edge12_Node000009_Node000005" class="edge">
<title>Node9&#45;&gt;Node5</title>
<g id="a_edge12_Node000009_Node000005"><a xlink:title=" ">
<path fill="none" stroke="#63b8ff" d="M438.6,-150.54C467.84,-140.15 502.03,-127.99 530.02,-118.04"/>
<polygon fill="#63b8ff" stroke="#63b8ff" points="437.14,-147.34 428.89,-153.99 439.48,-153.94 437.14,-147.34"/>
</a>
</g>
</g>
<!-- Node9&#45;&gt;Node8 -->
<g id="edge13_Node000009_Node000008" class="edge">
<title>Node9&#45;&gt;Node8</title>
<g id="a_edge13_Node000009_Node000008"><a xlink:title=" ">
<path fill="none" stroke="#63b8ff" d="M374,-143.69C374,-135.08 374,-125.9 374,-118.07"/>
<polygon fill="#63b8ff" stroke="#63b8ff" points="370.5,-143.79 374,-153.79 377.5,-143.79 370.5,-143.79"/>
</a>
</g>
</g>
<!-- Node10&#45;&gt;Node5 -->
<g id="edge15_Node000010_Node000005" class="edge">
<title>Node10&#45;&gt;Node5</title>
<g id="a_edge15_Node000010_Node000005"><a xlink:title=" ">
<path fill="none" stroke="#63b8ff" d="M585,-143.69C585,-135.08 585,-125.9 585,-118.07"/>
<polygon fill="#63b8ff" stroke="#63b8ff" points="581.5,-143.79 585,-153.79 588.5,-143.79 581.5,-143.79"/>
</a>
</g>
</g>
<!-- Node10&#45;&gt;Node8 -->
<g id="edge16_Node000010_Node000008" class="edge">
<title>Node10&#45;&gt;Node8</title>
<g id="a_edge16_Node000010_Node000008"><a xlink:title=" ">
<path fill="none" stroke="#63b8ff" d="M520.4,-150.54C491.16,-140.15 456.97,-127.99 428.98,-118.04"/>
<polygon fill="#63b8ff" stroke="#63b8ff" points="519.52,-153.94 530.11,-153.99 521.86,-147.34 519.52,-153.94"/>
</a>
</g>
</g>
<!-- Node11&#45;&gt;Node5 -->
<g id="edge18_Node000011_Node000005" class="edge">
<title>Node11&#45;&gt;Node5</title>
<g id="a_edge18_Node000011_Node000005"><a xlink:title=" ">
<path fill="none" stroke="#63b8ff" d="M760.27,-151.08C725.23,-140.57 683.88,-128.16 650.14,-118.04"/>
<polygon fill="#63b8ff" stroke="#63b8ff" points="759.38,-154.47 769.97,-153.99 761.4,-147.76 759.38,-154.47"/>
</a>
</g>
</g>
<!-- Node11&#45;&gt;Node8 -->
<g id="edge19_Node000011_Node000008" class="edge">
<title>Node11&#45;&gt;Node8</title>
<g id="a_edge19_Node000011_Node000008"><a xlink:title=" ">
<path fill="none" stroke="#63b8ff" d="M727.92,-157.63C657.17,-146.95 562.45,-132.25 479,-118 476.26,-117.53 473.48,-117.05 470.67,-116.56"/>
<polygon fill="#63b8ff" stroke="#63b8ff" points="727.76,-161.15 738.17,-159.18 728.81,-154.23 727.76,-161.15"/>
</a>
</g>
</g>
</g>
</svg>
