<?xml version="1.0" encoding="UTF-8" standalone="no"?>
<!DOCTYPE svg PUBLIC "-//W3C//DTD SVG 1.1//EN"
 "http://www.w3.org/Graphics/SVG/1.1/DTD/svg11.dtd">
<!-- Generated by graphviz version 2.43.0 (0)
 -->
<!-- Title: /home/runner/work/open62541pp/open62541pp/include/open62541pp/Common.h Pages: 1 -->
<svg width="1510pt" height="674pt"
 viewBox="0.00 0.00 1510.16 674.00" xmlns="http://www.w3.org/2000/svg" xmlns:xlink="http://www.w3.org/1999/xlink">
<g id="graph0" class="graph" transform="scale(1 1) rotate(0) translate(4 670)">
<title>/home/runner/work/open62541pp/open62541pp/include/open62541pp/Common.h</title>
<!-- Node1 -->
<g id="node1" class="node">
<title>Node1</title>
<g id="a_node1"><a xlink:title=" ">
<polygon fill="#bfbfbf" stroke="black" points="856.5,-624.5 856.5,-665.5 1049.5,-665.5 1049.5,-624.5 856.5,-624.5"/>
<text text-anchor="start" x="864.5" y="-653.5" font-family="Helvetica,sans-Serif" font-size="10.00">/home/runner/work/open62541pp</text>
<text text-anchor="start" x="864.5" y="-642.5" font-family="Helvetica,sans-Serif" font-size="10.00">/open62541pp/include/open62541pp</text>
<text text-anchor="middle" x="953" y="-631.5" font-family="Helvetica,sans-Serif" font-size="10.00">/Common.h</text>
</a>
</g>
</g>
<!-- Node2 -->
<g id="node2" class="node">
<title>Node2</title>
<g id="a_node2"><a xlink:href="Helper_8h.html" target="_top" xlink:title=" ">
<polygon fill="none" stroke="black" points="321.5,-546.5 321.5,-587.5 514.5,-587.5 514.5,-546.5 321.5,-546.5"/>
<text text-anchor="start" x="329.5" y="-575.5" font-family="Helvetica,sans-Serif" font-size="10.00">/home/runner/work/open62541pp</text>
<text text-anchor="start" x="329.5" y="-564.5" font-family="Helvetica,sans-Serif" font-size="10.00">/open62541pp/include/open62541pp</text>
<text text-anchor="middle" x="418" y="-553.5" font-family="Helvetica,sans-Serif" font-size="10.00">/Helper.h</text>
</a>
</g>
</g>
<!-- Node1&#45;&gt;Node2 -->
<g id="edge1" class="edge">
<title>Node1&#45;&gt;Node2</title>
<path fill="none" stroke="midnightblue" d="M846.33,-628.85C749.6,-615.11 608.24,-595.02 514.73,-581.74"/>
<polygon fill="midnightblue" stroke="midnightblue" points="846.03,-632.34 856.43,-630.28 847.02,-625.41 846.03,-632.34"/>
</g>
<!-- Node3 -->
<g id="node3" class="node">
<title>Node3</title>
<g id="a_node3"><a xlink:href="open62541pp_8h.html" target="_top" xlink:title=" ">
<polygon fill="none" stroke="black" points="920.5,-0.5 920.5,-41.5 1113.5,-41.5 1113.5,-0.5 920.5,-0.5"/>
<text text-anchor="start" x="928.5" y="-29.5" font-family="Helvetica,sans-Serif" font-size="10.00">/home/runner/work/open62541pp</text>
<text text-anchor="start" x="928.5" y="-18.5" font-family="Helvetica,sans-Serif" font-size="10.00">/open62541pp/include/open62541pp</text>
<text text-anchor="middle" x="1017" y="-7.5" font-family="Helvetica,sans-Serif" font-size="10.00">/open62541pp.h</text>
</a>
</g>
</g>
<!-- Node1&#45;&gt;Node3 -->
<g id="edge45" class="edge">
<title>Node1&#45;&gt;Node3</title>
<path fill="none" stroke="midnightblue" d="M1059.91,-635.82C1219.64,-620.61 1502,-580.87 1502,-490 1502,-490 1502,-490 1502,-176 1502,-130.04 1504.6,-107.06 1469,-78 1416.25,-34.93 1229.85,-24.47 1113.54,-22.23"/>
<polygon fill="midnightblue" stroke="midnightblue" points="1059.2,-632.37 1049.57,-636.79 1059.85,-639.34 1059.2,-632.37"/>
</g>
<!-- Node4 -->
<g id="node4" class="node">
<title>Node4</title>
<g id="a_node4"><a xlink:href="TypeConverter_8h.html" target="_top" xlink:title=" ">
<polygon fill="none" stroke="black" points="897.5,-312.5 897.5,-353.5 1090.5,-353.5 1090.5,-312.5 897.5,-312.5"/>
<text text-anchor="start" x="905.5" y="-341.5" font-family="Helvetica,sans-Serif" font-size="10.00">/home/runner/work/open62541pp</text>
<text text-anchor="start" x="905.5" y="-330.5" font-family="Helvetica,sans-Serif" font-size="10.00">/open62541pp/include/open62541pp</text>
<text text-anchor="middle" x="994" y="-319.5" font-family="Helvetica,sans-Serif" font-size="10.00">/TypeConverter.h</text>
</a>
</g>
</g>
<!-- Node1&#45;&gt;Node4 -->
<g id="edge46" class="edge">
<title>Node1&#45;&gt;Node4</title>
<path fill="none" stroke="midnightblue" d="M956.96,-614.06C965.29,-551.1 984.42,-406.44 991.39,-353.7"/>
<polygon fill="midnightblue" stroke="midnightblue" points="953.47,-613.76 955.63,-624.14 960.41,-614.68 953.47,-613.76"/>
</g>
<!-- Node5 -->
<g id="node5" class="node">
<title>Node5</title>
<g id="a_node5"><a xlink:href="Node_8h.html" target="_top" xlink:title=" ">
<polygon fill="none" stroke="black" points="801,-78.5 801,-119.5 997,-119.5 997,-78.5 801,-78.5"/>
<text text-anchor="start" x="809" y="-107.5" font-family="Helvetica,sans-Serif" font-size="10.00">/home/runner/work/open62541pp</text>
<text text-anchor="start" x="809" y="-96.5" font-family="Helvetica,sans-Serif" font-size="10.00">/open62541pp/include/open62541pp/</text>
<text text-anchor="middle" x="899" y="-85.5" font-family="Helvetica,sans-Serif" font-size="10.00">Node.h</text>
</a>
</g>
</g>
<!-- Node1&#45;&gt;Node5 -->
<g id="edge44" class="edge">
<title>Node1&#45;&gt;Node5</title>
<path fill="none" stroke="midnightblue" d="M846.46,-644.69C644.57,-643.26 219.79,-626.21 146,-510 93.07,-426.65 44.81,-404.78 235,-234 317.25,-160.14 636.8,-122.5 800.75,-107.71"/>
<polygon fill="midnightblue" stroke="midnightblue" points="846.47,-648.19 856.49,-644.75 846.51,-641.19 846.47,-648.19"/>
</g>
<!-- Node8 -->
<g id="node8" class="node">
<title>Node8</title>
<g id="a_node8"><a xlink:href="Variant_8h.html" target="_top" xlink:title=" ">
<polygon fill="none" stroke="black" points="924.5,-234.5 924.5,-275.5 1117.5,-275.5 1117.5,-234.5 924.5,-234.5"/>
<text text-anchor="start" x="932.5" y="-263.5" font-family="Helvetica,sans-Serif" font-size="10.00">/home/runner/work/open62541pp</text>
<text text-anchor="start" x="932.5" y="-252.5" font-family="Helvetica,sans-Serif" font-size="10.00">/open62541pp/include/open62541pp</text>
<text text-anchor="middle" x="1021" y="-241.5" font-family="Helvetica,sans-Serif" font-size="10.00">/types/Variant.h</text>
</a>
</g>
</g>
<!-- Node1&#45;&gt;Node8 -->
<g id="edge47" class="edge">
<title>Node1&#45;&gt;Node8</title>
<path fill="none" stroke="midnightblue" d="M1059.77,-627.12C1185.95,-604.08 1379,-557.76 1379,-490 1379,-490 1379,-490 1379,-410 1379,-359.61 1363.18,-341.03 1322,-312 1289.63,-289.19 1192.98,-273.96 1117.83,-265.21"/>
<polygon fill="midnightblue" stroke="midnightblue" points="1058.89,-623.72 1049.67,-628.94 1060.13,-630.61 1058.89,-623.72"/>
</g>
<!-- Node12 -->
<g id="node12" class="node">
<title>Node12</title>
<g id="a_node12"><a xlink:href="TypeWrapper_8h.html" target="_top" xlink:title=" ">
<polygon fill="none" stroke="black" points="734.5,-468.5 734.5,-509.5 927.5,-509.5 927.5,-468.5 734.5,-468.5"/>
<text text-anchor="start" x="742.5" y="-497.5" font-family="Helvetica,sans-Serif" font-size="10.00">/home/runner/work/open62541pp</text>
<text text-anchor="start" x="742.5" y="-486.5" font-family="Helvetica,sans-Serif" font-size="10.00">/open62541pp/include/open62541pp</text>
<text text-anchor="middle" x="831" y="-475.5" font-family="Helvetica,sans-Serif" font-size="10.00">/TypeWrapper.h</text>
</a>
</g>
</g>
<!-- Node1&#45;&gt;Node12 -->
<g id="edge48" class="edge">
<title>Node1&#45;&gt;Node12</title>
<path fill="none" stroke="midnightblue" d="M931.1,-616.36C906.8,-585.68 868.18,-536.94 846.71,-509.83"/>
<polygon fill="midnightblue" stroke="midnightblue" points="928.6,-618.83 937.55,-624.5 934.08,-614.48 928.6,-618.83"/>
</g>
<!-- Node2&#45;&gt;Node3 -->
<g id="edge2" class="edge">
<title>Node2&#45;&gt;Node3</title>
<path fill="none" stroke="midnightblue" d="M396.5,-538.1C376.02,-511.55 347.5,-474.67 342,-468 299.11,-416.01 268.54,-415.95 242,-354 206.03,-270.05 220.85,-206.43 297,-156 398.1,-89.04 748.28,-47.47 920.22,-30.63"/>
<polygon fill="midnightblue" stroke="midnightblue" points="393.95,-540.53 402.83,-546.31 399.5,-536.25 393.95,-540.53"/>
</g>
<!-- Node2&#45;&gt;Node4 -->
<g id="edge3" class="edge">
<title>Node2&#45;&gt;Node4</title>
<path fill="none" stroke="midnightblue" d="M524.59,-560.6C666.88,-552.47 904.73,-535.29 936,-510 948.54,-499.86 977.01,-397.64 988.77,-353.8"/>
<polygon fill="midnightblue" stroke="midnightblue" points="524.3,-557.11 514.51,-561.17 524.69,-564.1 524.3,-557.11"/>
</g>
<!-- Node6 -->
<g id="node6" class="node">
<title>Node6</title>
<g id="a_node6"><a xlink:href="Node_8cpp.html" target="_top" xlink:title=" ">
<polygon fill="none" stroke="black" points="0,-6 0,-36 178,-36 178,-6 0,-6"/>
<text text-anchor="start" x="8" y="-24" font-family="Helvetica,sans-Serif" font-size="10.00">/home/runner/work/open62541pp</text>
<text text-anchor="middle" x="89" y="-13" font-family="Helvetica,sans-Serif" font-size="10.00">/open62541pp/src/Node.cpp</text>
</a>
</g>
</g>
<!-- Node2&#45;&gt;Node6 -->
<g id="edge40" class="edge">
<title>Node2&#45;&gt;Node6</title>
<path fill="none" stroke="midnightblue" d="M311.08,-564.62C202.74,-556.88 51,-525.74 51,-412 51,-412 51,-412 51,-176 51,-123.13 72.38,-62.94 83.06,-36.15"/>
<polygon fill="midnightblue" stroke="midnightblue" points="310.89,-568.12 321.1,-565.28 311.35,-561.13 310.89,-568.12"/>
</g>
<!-- Node7 -->
<g id="node7" class="node">
<title>Node7</title>
<g id="a_node7"><a xlink:href="Server_8cpp.html" target="_top" xlink:title=" ">
<polygon fill="none" stroke="black" points="322,-6 322,-36 500,-36 500,-6 322,-6"/>
<text text-anchor="start" x="330" y="-24" font-family="Helvetica,sans-Serif" font-size="10.00">/home/runner/work/open62541pp</text>
<text text-anchor="middle" x="411" y="-13" font-family="Helvetica,sans-Serif" font-size="10.00">/open62541pp/src/Server.cpp</text>
</a>
</g>
</g>
<!-- Node2&#45;&gt;Node7 -->
<g id="edge41" class="edge">
<title>Node2&#45;&gt;Node7</title>
<path fill="none" stroke="midnightblue" d="M311.33,-556.17C245.45,-547.87 169.21,-533.48 146,-510 114.81,-478.45 127,-456.37 127,-412 127,-412 127,-412 127,-176 127,-85.98 238.63,-48.3 321.92,-32.72"/>
<polygon fill="midnightblue" stroke="midnightblue" points="311.03,-559.66 321.38,-557.4 311.88,-552.71 311.03,-559.66"/>
</g>
<!-- Node2&#45;&gt;Node8 -->
<g id="edge16" class="edge">
<title>Node2&#45;&gt;Node8</title>
<path fill="none" stroke="midnightblue" d="M457.21,-540.86C533.83,-492.4 709.7,-384.48 867,-312 896.97,-298.19 931.4,-285.4 960.09,-275.53"/>
<polygon fill="midnightblue" stroke="midnightblue" points="454.94,-538.16 448.36,-546.47 458.68,-544.07 454.94,-538.16"/>
</g>
<!-- Node2&#45;&gt;Node12 -->
<g id="edge17" class="edge">
<title>Node2&#45;&gt;Node12</title>
<path fill="none" stroke="midnightblue" d="M524.41,-546.42C589.21,-534.49 671.35,-519.38 734.3,-507.79"/>
<polygon fill="midnightblue" stroke="midnightblue" points="523.77,-542.98 514.57,-548.23 525.04,-549.86 523.77,-542.98"/>
</g>
<!-- Node15 -->
<g id="node15" class="node">
<title>Node15</title>
<g id="a_node15"><a xlink:href="NodeId_8cpp.html" target="_top" xlink:title=" ">
<polygon fill="none" stroke="black" points="553.5,-162 553.5,-192 744.5,-192 744.5,-162 553.5,-162"/>
<text text-anchor="start" x="561.5" y="-180" font-family="Helvetica,sans-Serif" font-size="10.00">/home/runner/work/open62541pp</text>
<text text-anchor="middle" x="649" y="-169" font-family="Helvetica,sans-Serif" font-size="10.00">/open62541pp/src/types/NodeId.cpp</text>
</a>
</g>
</g>
<!-- Node2&#45;&gt;Node15 -->
<g id="edge43" class="edge">
<title>Node2&#45;&gt;Node15</title>
<path fill="none" stroke="midnightblue" d="M406.31,-536.77C398.15,-517.05 386.67,-490.6 375,-468 321.84,-365.03 184.12,-321.58 260,-234 297.19,-191.07 450.56,-180.29 553.24,-178.01"/>
<polygon fill="midnightblue" stroke="midnightblue" points="403.12,-538.21 410.15,-546.14 409.6,-535.56 403.12,-538.21"/>
</g>
<!-- Node16 -->
<g id="node16" class="node">
<title>Node16</title>
<g id="a_node16"><a xlink:href="Builtin_8cpp.html" target="_top" xlink:title=" ">
<polygon fill="none" stroke="black" points="269,-240 269,-270 457,-270 457,-240 269,-240"/>
<text text-anchor="start" x="277" y="-258" font-family="Helvetica,sans-Serif" font-size="10.00">/home/runner/work/open62541pp</text>
<text text-anchor="middle" x="363" y="-247" font-family="Helvetica,sans-Serif" font-size="10.00">/open62541pp/src/types/Builtin.cpp</text>
</a>
</g>
</g>
<!-- Node2&#45;&gt;Node16 -->
<g id="edge42" class="edge">
<title>Node2&#45;&gt;Node16</title>
<path fill="none" stroke="midnightblue" d="M420.09,-536.41C421.91,-501.18 422.9,-440.71 413,-390 404.1,-344.43 381.53,-293.93 370,-270.02"/>
<polygon fill="midnightblue" stroke="midnightblue" points="416.59,-536.32 419.51,-546.5 423.58,-536.72 416.59,-536.32"/>
</g>
<!-- Node19 -->
<g id="node19" class="node">
<title>Node19</title>
<g id="a_node19"><a xlink:href="Helper_8cpp.html" target="_top" xlink:title=" ">
<polygon fill="none" stroke="black" points="155,-474 155,-504 333,-504 333,-474 155,-474"/>
<text text-anchor="start" x="163" y="-492" font-family="Helvetica,sans-Serif" font-size="10.00">/home/runner/work/open62541pp</text>
<text text-anchor="middle" x="244" y="-481" font-family="Helvetica,sans-Serif" font-size="10.00">/open62541pp/src/Helper.cpp</text>
</a>
</g>
</g>
<!-- Node2&#45;&gt;Node19 -->
<g id="edge39" class="edge">
<title>Node2&#45;&gt;Node19</title>
<path fill="none" stroke="midnightblue" d="M363.7,-542.28C335.02,-529.76 300.79,-514.81 276.3,-504.11"/>
<polygon fill="midnightblue" stroke="midnightblue" points="362.63,-545.63 373.19,-546.43 365.43,-539.22 362.63,-545.63"/>
</g>
<!-- Node4&#45;&gt;Node3 -->
<g id="edge8" class="edge">
<title>Node4&#45;&gt;Node3</title>
<path fill="none" stroke="midnightblue" d="M1100.11,-310.57C1117,-302.48 1132.38,-291.34 1143,-276 1195.27,-200.51 1140.21,-150.61 1084,-78 1073.33,-64.21 1058.72,-51.51 1045.87,-41.7"/>
<polygon fill="midnightblue" stroke="midnightblue" points="1098.34,-307.53 1090.6,-314.76 1101.16,-313.93 1098.34,-307.53"/>
</g>
<!-- Node4&#45;&gt;Node5 -->
<g id="edge4" class="edge">
<title>Node4&#45;&gt;Node5</title>
<path fill="none" stroke="midnightblue" d="M1090.31,-307.8C1104.82,-299.99 1117.93,-289.65 1127,-276 1137.33,-260.45 1130.61,-252.31 1127,-234 1119.75,-197.24 1122.92,-180.98 1095,-156 1068.1,-131.93 1031.52,-118.15 997.24,-110.28"/>
<polygon fill="midnightblue" stroke="midnightblue" points="1088.53,-304.78 1081.12,-312.35 1091.63,-311.05 1088.53,-304.78"/>
</g>
<!-- Node4&#45;&gt;Node8 -->
<g id="edge9" class="edge">
<title>Node4&#45;&gt;Node8</title>
<path fill="none" stroke="midnightblue" d="M1004.34,-302.88C1007.6,-293.72 1011.11,-283.83 1014.07,-275.51"/>
<polygon fill="midnightblue" stroke="midnightblue" points="1001,-301.83 1000.95,-312.43 1007.6,-304.18 1001,-301.83"/>
</g>
<!-- Node5&#45;&gt;Node3 -->
<g id="edge5" class="edge">
<title>Node5&#45;&gt;Node3</title>
<path fill="none" stroke="midnightblue" d="M937.94,-72.92C953.8,-62.7 971.86,-51.07 986.72,-41.51"/>
<polygon fill="midnightblue" stroke="midnightblue" points="935.9,-70.07 929.39,-78.43 939.69,-75.96 935.9,-70.07"/>
</g>
<!-- Node5&#45;&gt;Node6 -->
<g id="edge6" class="edge">
<title>Node5&#45;&gt;Node6</title>
<path fill="none" stroke="midnightblue" d="M790.93,-87.86C629.42,-72.71 328.05,-44.43 178.26,-30.38"/>
<polygon fill="midnightblue" stroke="midnightblue" points="790.61,-91.35 800.89,-88.79 791.26,-84.38 790.61,-91.35"/>
</g>
<!-- Node5&#45;&gt;Node7 -->
<g id="edge7" class="edge">
<title>Node5&#45;&gt;Node7</title>
<path fill="none" stroke="midnightblue" d="M790.9,-81.16C703.61,-67.57 582.25,-48.67 500.38,-35.92"/>
<polygon fill="midnightblue" stroke="midnightblue" points="790.41,-84.63 800.83,-82.71 791.49,-77.71 790.41,-84.63"/>
</g>
<!-- Node8&#45;&gt;Node3 -->
<g id="edge11" class="edge">
<title>Node8&#45;&gt;Node3</title>
<path fill="none" stroke="midnightblue" d="M1068.29,-228.45C1079.01,-220.23 1089,-210.07 1095,-198 1103.31,-181.29 1099.86,-174.02 1095,-156 1083.01,-111.56 1052.23,-66.7 1033.12,-41.81"/>
<polygon fill="midnightblue" stroke="midnightblue" points="1066.12,-225.69 1060,-234.34 1070.18,-231.4 1066.12,-225.69"/>
</g>
<!-- Node8&#45;&gt;Node5 -->
<g id="edge10" class="edge">
<title>Node8&#45;&gt;Node5</title>
<path fill="none" stroke="midnightblue" d="M1056.73,-227.45C1065.32,-219.08 1073.35,-209.08 1078,-198 1085.22,-180.79 1089.05,-171.04 1078,-156 1059.01,-130.16 1028.13,-115.91 997.32,-108.16"/>
<polygon fill="midnightblue" stroke="midnightblue" points="1054.16,-225.06 1049.11,-234.38 1058.87,-230.24 1054.16,-225.06"/>
</g>
<!-- Node9 -->
<g id="node9" class="node">
<title>Node9</title>
<g id="a_node9"><a xlink:href="DataValue_8h.html" target="_top" xlink:title=" ">
<polygon fill="none" stroke="black" points="1239.5,-156.5 1239.5,-197.5 1432.5,-197.5 1432.5,-156.5 1239.5,-156.5"/>
<text text-anchor="start" x="1247.5" y="-185.5" font-family="Helvetica,sans-Serif" font-size="10.00">/home/runner/work/open62541pp</text>
<text text-anchor="start" x="1247.5" y="-174.5" font-family="Helvetica,sans-Serif" font-size="10.00">/open62541pp/include/open62541pp</text>
<text text-anchor="middle" x="1336" y="-163.5" font-family="Helvetica,sans-Serif" font-size="10.00">/types/DataValue.h</text>
</a>
</g>
</g>
<!-- Node8&#45;&gt;Node9 -->
<g id="edge12" class="edge">
<title>Node8&#45;&gt;Node9</title>
<path fill="none" stroke="midnightblue" d="M1111.93,-232.06C1157.16,-221.15 1211.38,-208.07 1255.15,-197.51"/>
<polygon fill="midnightblue" stroke="midnightblue" points="1111.02,-228.68 1102.12,-234.43 1112.66,-235.49 1111.02,-228.68"/>
</g>
<!-- Node11 -->
<g id="node11" class="node">
<title>Node11</title>
<g id="a_node11"><a xlink:href="Variant_8cpp.html" target="_top" xlink:title=" ">
<polygon fill="none" stroke="black" points="877.5,-162 877.5,-192 1068.5,-192 1068.5,-162 877.5,-162"/>
<text text-anchor="start" x="885.5" y="-180" font-family="Helvetica,sans-Serif" font-size="10.00">/home/runner/work/open62541pp</text>
<text text-anchor="middle" x="973" y="-169" font-family="Helvetica,sans-Serif" font-size="10.00">/open62541pp/src/types/Variant.cpp</text>
</a>
</g>
</g>
<!-- Node8&#45;&gt;Node11 -->
<g id="edge15" class="edge">
<title>Node8&#45;&gt;Node11</title>
<path fill="none" stroke="midnightblue" d="M1003.09,-225.64C995.89,-214.25 987.92,-201.62 981.98,-192.23"/>
<polygon fill="midnightblue" stroke="midnightblue" points="1000.34,-227.84 1008.64,-234.43 1006.26,-224.1 1000.34,-227.84"/>
</g>
<!-- Node9&#45;&gt;Node5 -->
<g id="edge13" class="edge">
<title>Node9&#45;&gt;Node5</title>
<path fill="none" stroke="midnightblue" d="M1229.01,-157.39C1158.28,-145.09 1066.24,-129.09 997.34,-117.1"/>
<polygon fill="midnightblue" stroke="midnightblue" points="1228.83,-160.92 1239.29,-159.18 1230.03,-154.02 1228.83,-160.92"/>
</g>
<!-- Node10 -->
<g id="node10" class="node">
<title>Node10</title>
<g id="a_node10"><a xlink:href="DataValue_8cpp.html" target="_top" xlink:title=" ">
<polygon fill="none" stroke="black" points="1230,-84 1230,-114 1436,-114 1436,-84 1230,-84"/>
<text text-anchor="start" x="1238" y="-102" font-family="Helvetica,sans-Serif" font-size="10.00">/home/runner/work/open62541pp</text>
<text text-anchor="middle" x="1333" y="-91" font-family="Helvetica,sans-Serif" font-size="10.00">/open62541pp/src/types/DataValue.cpp</text>
</a>
</g>
</g>
<!-- Node9&#45;&gt;Node10 -->
<g id="edge14" class="edge">
<title>Node9&#45;&gt;Node10</title>
<path fill="none" stroke="midnightblue" d="M1334.83,-146.28C1334.39,-135.25 1333.92,-123.25 1333.56,-114.23"/>
<polygon fill="midnightblue" stroke="midnightblue" points="1331.34,-146.57 1335.23,-156.43 1338.33,-146.3 1331.34,-146.57"/>
</g>
<!-- Node12&#45;&gt;Node3 -->
<g id="edge19" class="edge">
<title>Node12&#45;&gt;Node3</title>
<path fill="none" stroke="midnightblue" d="M937.88,-483.87C1118.34,-473.95 1464,-440.98 1464,-334 1464,-334 1464,-334 1464,-176 1464,-131.63 1477.32,-108.39 1445,-78 1398.6,-34.36 1225.08,-23.99 1113.74,-21.94"/>
<polygon fill="midnightblue" stroke="midnightblue" points="937.63,-480.37 927.83,-484.4 938,-487.36 937.63,-480.37"/>
</g>
<!-- Node12&#45;&gt;Node4 -->
<g id="edge20" class="edge">
<title>Node12&#45;&gt;Node4</title>
<path fill="none" stroke="midnightblue" d="M859.04,-461.51C891.52,-430.82 944.27,-380.98 973.27,-353.59"/>
<polygon fill="midnightblue" stroke="midnightblue" points="856.51,-459.08 851.64,-468.5 861.32,-464.17 856.51,-459.08"/>
</g>
<!-- Node12&#45;&gt;Node5 -->
<g id="edge18" class="edge">
<title>Node12&#45;&gt;Node5</title>
<path fill="none" stroke="midnightblue" d="M830.45,-458.24C830.2,-399.15 833.79,-263.43 868,-156 872.08,-143.19 879.23,-129.98 885.63,-119.61"/>
<polygon fill="midnightblue" stroke="midnightblue" points="826.95,-458.39 830.54,-468.36 833.95,-458.33 826.95,-458.39"/>
</g>
<!-- Node12&#45;&gt;Node6 -->
<g id="edge38" class="edge">
<title>Node12&#45;&gt;Node6</title>
<path fill="none" stroke="midnightblue" d="M758.49,-465.27C729.73,-455.73 696.53,-444.06 667,-432 592.65,-401.64 556.69,-414.61 504,-354 467.3,-311.78 501.29,-277.41 466,-234 377.3,-124.9 216.66,-61.98 136.77,-36.05"/>
<polygon fill="midnightblue" stroke="midnightblue" points="757.47,-468.62 768.06,-468.43 759.66,-461.97 757.47,-468.62"/>
</g>
<!-- Node12&#45;&gt;Node8 -->
<g id="edge37" class="edge">
<title>Node12&#45;&gt;Node8</title>
<path fill="none" stroke="midnightblue" d="M839.02,-458.79C852.17,-411.68 877.86,-323.05 888,-312 903,-295.67 923.52,-283.93 943.95,-275.57"/>
<polygon fill="midnightblue" stroke="midnightblue" points="835.64,-457.87 836.34,-468.44 842.39,-459.74 835.64,-457.87"/>
</g>
<!-- Node12&#45;&gt;Node9 -->
<g id="edge31" class="edge">
<title>Node12&#45;&gt;Node9</title>
<path fill="none" stroke="midnightblue" d="M938.06,-482.61C1049.2,-475.57 1214.55,-460.61 1271,-432 1342.2,-395.91 1352.43,-355.46 1360,-276 1361.77,-257.42 1363.75,-252.29 1360,-234 1357.41,-221.36 1351.83,-208.05 1346.71,-197.58"/>
<polygon fill="midnightblue" stroke="midnightblue" points="937.58,-479.13 927.82,-483.25 938.02,-486.12 937.58,-479.13"/>
</g>
<!-- Node13 -->
<g id="node13" class="node">
<title>Node13</title>
<g id="a_node13"><a xlink:href="Builtin_8h.html" target="_top" xlink:title=" ">
<polygon fill="none" stroke="black" points="513.5,-312.5 513.5,-353.5 706.5,-353.5 706.5,-312.5 513.5,-312.5"/>
<text text-anchor="start" x="521.5" y="-341.5" font-family="Helvetica,sans-Serif" font-size="10.00">/home/runner/work/open62541pp</text>
<text text-anchor="start" x="521.5" y="-330.5" font-family="Helvetica,sans-Serif" font-size="10.00">/open62541pp/include/open62541pp</text>
<text text-anchor="middle" x="610" y="-319.5" font-family="Helvetica,sans-Serif" font-size="10.00">/types/Builtin.h</text>
</a>
</g>
</g>
<!-- Node12&#45;&gt;Node13 -->
<g id="edge21" class="edge">
<title>Node12&#45;&gt;Node13</title>
<path fill="none" stroke="midnightblue" d="M777.32,-464.05C758.89,-454.96 738.51,-443.9 721,-432 686.14,-408.3 650.39,-374.74 629.19,-353.69"/>
<polygon fill="midnightblue" stroke="midnightblue" points="775.94,-467.27 786.47,-468.49 778.99,-460.98 775.94,-467.27"/>
</g>
<!-- Node14 -->
<g id="node14" class="node">
<title>Node14</title>
<g id="a_node14"><a xlink:href="NodeId_8h.html" target="_top" xlink:title=" ">
<polygon fill="none" stroke="black" points="627.5,-234.5 627.5,-275.5 820.5,-275.5 820.5,-234.5 627.5,-234.5"/>
<text text-anchor="start" x="635.5" y="-263.5" font-family="Helvetica,sans-Serif" font-size="10.00">/home/runner/work/open62541pp</text>
<text text-anchor="start" x="635.5" y="-252.5" font-family="Helvetica,sans-Serif" font-size="10.00">/open62541pp/include/open62541pp</text>
<text text-anchor="middle" x="724" y="-241.5" font-family="Helvetica,sans-Serif" font-size="10.00">/types/NodeId.h</text>
</a>
</g>
</g>
<!-- Node12&#45;&gt;Node14 -->
<g id="edge36" class="edge">
<title>Node12&#45;&gt;Node14</title>
<path fill="none" stroke="midnightblue" d="M817.63,-459.02C795.54,-411.12 751.99,-316.69 733.1,-275.73"/>
<polygon fill="midnightblue" stroke="midnightblue" points="814.51,-460.6 821.88,-468.22 820.87,-457.67 814.51,-460.6"/>
</g>
<!-- Node17 -->
<g id="node17" class="node">
<title>Node17</title>
<g id="a_node17"><a xlink:href="DateTime_8h.html" target="_top" xlink:title=" ">
<polygon fill="none" stroke="black" points="1068.5,-390.5 1068.5,-431.5 1261.5,-431.5 1261.5,-390.5 1068.5,-390.5"/>
<text text-anchor="start" x="1076.5" y="-419.5" font-family="Helvetica,sans-Serif" font-size="10.00">/home/runner/work/open62541pp</text>
<text text-anchor="start" x="1076.5" y="-408.5" font-family="Helvetica,sans-Serif" font-size="10.00">/open62541pp/include/open62541pp</text>
<text text-anchor="middle" x="1165" y="-397.5" font-family="Helvetica,sans-Serif" font-size="10.00">/types/DateTime.h</text>
</a>
</g>
</g>
<!-- Node12&#45;&gt;Node17 -->
<g id="edge32" class="edge">
<title>Node12&#45;&gt;Node17</title>
<path fill="none" stroke="midnightblue" d="M926.81,-466.2C974.89,-455.26 1032.67,-442.11 1079.28,-431.51"/>
<polygon fill="midnightblue" stroke="midnightblue" points="925.99,-462.8 917.01,-468.43 927.54,-469.62 925.99,-462.8"/>
</g>
<!-- Node13&#45;&gt;Node3 -->
<g id="edge23" class="edge">
<title>Node13&#45;&gt;Node3</title>
<path fill="none" stroke="midnightblue" d="M592.02,-304.02C586.44,-295.13 580.36,-285.22 575,-276 546.62,-227.14 500.05,-201.9 533,-156 578.03,-93.27 792.45,-53.2 920.3,-34.46"/>
<polygon fill="midnightblue" stroke="midnightblue" points="589.07,-305.91 597.38,-312.49 594.99,-302.17 589.07,-305.91"/>
</g>
<!-- Node13&#45;&gt;Node5 -->
<g id="edge22" class="edge">
<title>Node13&#45;&gt;Node5</title>
<path fill="none" stroke="midnightblue" d="M602.53,-302.45C596.72,-282.33 587.53,-255.54 575,-234 564.38,-215.75 551.35,-217.79 544,-198 537.5,-180.5 531.87,-170.19 544,-156 576.48,-117.99 707.4,-105.63 800.79,-101.69"/>
<polygon fill="midnightblue" stroke="midnightblue" points="599.22,-303.59 605.26,-312.3 605.96,-301.72 599.22,-303.59"/>
</g>
<!-- Node13&#45;&gt;Node7 -->
<g id="edge29" class="edge">
<title>Node13&#45;&gt;Node7</title>
<path fill="none" stroke="midnightblue" d="M575.22,-306.27C544.27,-281.67 499.85,-241.9 473,-198 439.36,-143 420.56,-67.16 413.85,-36.11"/>
<polygon fill="midnightblue" stroke="midnightblue" points="573.14,-309.09 583.18,-312.5 577.46,-303.58 573.14,-309.09"/>
</g>
<!-- Node13&#45;&gt;Node14 -->
<g id="edge24" class="edge">
<title>Node13&#45;&gt;Node14</title>
<path fill="none" stroke="midnightblue" d="M648.05,-306.64C663.27,-296.49 680.53,-284.98 694.74,-275.51"/>
<polygon fill="midnightblue" stroke="midnightblue" points="645.74,-303.97 639.36,-312.43 649.62,-309.79 645.74,-303.97"/>
</g>
<!-- Node13&#45;&gt;Node16 -->
<g id="edge30" class="edge">
<title>Node13&#45;&gt;Node16</title>
<path fill="none" stroke="midnightblue" d="M536.61,-309.42C495.18,-296.67 444.67,-281.13 408.85,-270.11"/>
<polygon fill="midnightblue" stroke="midnightblue" points="535.8,-312.83 546.39,-312.43 537.86,-306.14 535.8,-312.83"/>
</g>
<!-- Node14&#45;&gt;Node3 -->
<g id="edge26" class="edge">
<title>Node14&#45;&gt;Node3</title>
<path fill="none" stroke="midnightblue" d="M739.92,-225.46C744.45,-216.78 749.18,-207.12 753,-198 774.63,-146.26 750.98,-116.24 792,-78 811.07,-60.23 868.42,-46.11 920.44,-36.49"/>
<polygon fill="midnightblue" stroke="midnightblue" points="736.76,-223.95 735.14,-234.42 742.94,-227.25 736.76,-223.95"/>
</g>
<!-- Node14&#45;&gt;Node5 -->
<g id="edge25" class="edge">
<title>Node14&#45;&gt;Node5</title>
<path fill="none" stroke="midnightblue" d="M753.59,-227.81C775.93,-208.05 807.36,-180.29 835,-156 848.75,-143.91 864.2,-130.4 876.47,-119.67"/>
<polygon fill="midnightblue" stroke="midnightblue" points="751.26,-225.2 746.09,-234.45 755.9,-230.44 751.26,-225.2"/>
</g>
<!-- Node14&#45;&gt;Node11 -->
<g id="edge28" class="edge">
<title>Node14&#45;&gt;Node11</title>
<path fill="none" stroke="midnightblue" d="M797.72,-231.5C839.54,-218.73 890.59,-203.15 926.78,-192.11"/>
<polygon fill="midnightblue" stroke="midnightblue" points="796.67,-228.16 788.12,-234.43 798.71,-234.86 796.67,-228.16"/>
</g>
<!-- Node14&#45;&gt;Node15 -->
<g id="edge27" class="edge">
<title>Node14&#45;&gt;Node15</title>
<path fill="none" stroke="midnightblue" d="M697.35,-226.99C685.76,-215.25 672.67,-201.99 663.04,-192.23"/>
<polygon fill="midnightblue" stroke="midnightblue" points="695.17,-229.77 704.69,-234.43 700.15,-224.85 695.17,-229.77"/>
</g>
<!-- Node17&#45;&gt;Node4 -->
<g id="edge33" class="edge">
<title>Node17&#45;&gt;Node4</title>
<path fill="none" stroke="midnightblue" d="M1111.74,-386.33C1088.01,-375.78 1060.4,-363.51 1037.89,-353.51"/>
<polygon fill="midnightblue" stroke="midnightblue" points="1110.4,-389.57 1120.96,-390.43 1113.25,-383.17 1110.4,-389.57"/>
</g>
<!-- Node17&#45;&gt;Node9 -->
<g id="edge34" class="edge">
<title>Node17&#45;&gt;Node9</title>
<path fill="none" stroke="midnightblue" d="M1270.98,-390.9C1290.67,-382.65 1309.09,-370.86 1322,-354 1357.51,-307.65 1347.93,-232.82 1340.69,-197.57"/>
<polygon fill="midnightblue" stroke="midnightblue" points="1269.6,-387.68 1261.54,-394.56 1272.13,-394.21 1269.6,-387.68"/>
</g>
<!-- Node18 -->
<g id="node18" class="node">
<title>Node18</title>
<g id="a_node18"><a xlink:href="DateTime_8cpp.html" target="_top" xlink:title=" ">
<polygon fill="none" stroke="black" points="1109,-318 1109,-348 1313,-348 1313,-318 1109,-318"/>
<text text-anchor="start" x="1117" y="-336" font-family="Helvetica,sans-Serif" font-size="10.00">/home/runner/work/open62541pp</text>
<text text-anchor="middle" x="1211" y="-325" font-family="Helvetica,sans-Serif" font-size="10.00">/open62541pp/src/types/DateTime.cpp</text>
</a>
</g>
</g>
<!-- Node17&#45;&gt;Node18 -->
<g id="edge35" class="edge">
<title>Node17&#45;&gt;Node18</title>
<path fill="none" stroke="midnightblue" d="M1182.16,-381.64C1189.06,-370.25 1196.71,-357.62 1202.39,-348.23"/>
<polygon fill="midnightblue" stroke="midnightblue" points="1179.03,-380.06 1176.85,-390.43 1185.02,-383.69 1179.03,-380.06"/>
</g>
</g>
</svg>
