<?xml version="1.0" encoding="UTF-8" standalone="no"?>
<!DOCTYPE svg PUBLIC "-//W3C//DTD SVG 1.1//EN"
 "http://www.w3.org/Graphics/SVG/1.1/DTD/svg11.dtd">
<!-- Generated by graphviz version 2.43.0 (0)
 -->
<!-- Title: /home/runner/work/open62541pp/open62541pp/include/open62541pp/Common.h Pages: 1 -->
<svg width="744pt" height="173pt"
 viewBox="0.00 0.00 744.00 173.00" xmlns="http://www.w3.org/2000/svg" xmlns:xlink="http://www.w3.org/1999/xlink">
<g id="graph0" class="graph" transform="scale(1 1) rotate(0) translate(4 169)">
<title>/home/runner/work/open62541pp/open62541pp/include/open62541pp/Common.h</title>
<!-- Node1 -->
<g id="node1" class="node">
<title>Node1</title>
<g id="a_node1"><a xlink:title=" ">
<polygon fill="#bfbfbf" stroke="black" points="73.5,-123.5 73.5,-164.5 266.5,-164.5 266.5,-123.5 73.5,-123.5"/>
<text text-anchor="start" x="81.5" y="-152.5" font-family="Helvetica,sans-Serif" font-size="10.00">/home/runner/work/open62541pp</text>
<text text-anchor="start" x="81.5" y="-141.5" font-family="Helvetica,sans-Serif" font-size="10.00">/open62541pp/include/open62541pp</text>
<text text-anchor="middle" x="170" y="-130.5" font-family="Helvetica,sans-Serif" font-size="10.00">/Common.h</text>
</a>
</g>
</g>
<!-- Node2 -->
<g id="node2" class="node">
<title>Node2</title>
<g id="a_node2"><a xlink:title=" ">
<polygon fill="none" stroke="#bfbfbf" points="0,-62 0,-81 50,-81 50,-62 0,-62"/>
<text text-anchor="middle" x="25" y="-69" font-family="Helvetica,sans-Serif" font-size="10.00">cstdint</text>
</a>
</g>
</g>
<!-- Node1&#45;&gt;Node2 -->
<g id="edge1" class="edge">
<title>Node1&#45;&gt;Node2</title>
<path fill="none" stroke="midnightblue" d="M129.61,-123.36C104.79,-111.29 73.68,-96.17 51.86,-85.56"/>
<polygon fill="midnightblue" stroke="midnightblue" points="53.36,-82.4 42.84,-81.17 50.3,-88.69 53.36,-82.4"/>
</g>
<!-- Node3 -->
<g id="node3" class="node">
<title>Node3</title>
<g id="a_node3"><a xlink:title=" ">
<polygon fill="none" stroke="#bfbfbf" points="68.5,-62 68.5,-81 141.5,-81 141.5,-62 68.5,-62"/>
<text text-anchor="middle" x="105" y="-69" font-family="Helvetica,sans-Serif" font-size="10.00">string_view</text>
</a>
</g>
</g>
<!-- Node1&#45;&gt;Node3 -->
<g id="edge2" class="edge">
<title>Node1&#45;&gt;Node3</title>
<path fill="none" stroke="midnightblue" d="M151.89,-123.36C141.82,-112.43 129.42,-98.99 119.91,-88.67"/>
<polygon fill="midnightblue" stroke="midnightblue" points="122.35,-86.15 113,-81.17 117.2,-90.9 122.35,-86.15"/>
</g>
<!-- Node4 -->
<g id="node4" class="node">
<title>Node4</title>
<g id="a_node4"><a xlink:title=" ">
<polygon fill="none" stroke="#bfbfbf" points="155.5,-0.5 155.5,-19.5 196.5,-19.5 196.5,-0.5 155.5,-0.5"/>
<text text-anchor="middle" x="176" y="-7.5" font-family="Helvetica,sans-Serif" font-size="10.00">tuple</text>
</a>
</g>
</g>
<!-- Node1&#45;&gt;Node4 -->
<g id="edge3" class="edge">
<title>Node1&#45;&gt;Node4</title>
<path fill="none" stroke="midnightblue" d="M170.9,-123.24C172.04,-98.03 174.01,-54.74 175.14,-29.93"/>
<polygon fill="midnightblue" stroke="midnightblue" points="178.65,-29.83 175.61,-19.69 171.65,-29.52 178.65,-29.83"/>
</g>
<!-- Node5 -->
<g id="node5" class="node">
<title>Node5</title>
<g id="a_node5"><a xlink:href="traits_8h.html" target="_top" xlink:title=" ">
<polygon fill="none" stroke="black" points="198.5,-56.5 198.5,-86.5 311.5,-86.5 311.5,-56.5 198.5,-56.5"/>
<text text-anchor="start" x="206.5" y="-74.5" font-family="Helvetica,sans-Serif" font-size="10.00">open62541pp/detail</text>
<text text-anchor="middle" x="255" y="-63.5" font-family="Helvetica,sans-Serif" font-size="10.00">/traits.h</text>
</a>
</g>
</g>
<!-- Node1&#45;&gt;Node5 -->
<g id="edge4" class="edge">
<title>Node1&#45;&gt;Node5</title>
<path fill="none" stroke="midnightblue" d="M193.68,-123.36C204.98,-113.99 218.51,-102.76 229.99,-93.25"/>
<polygon fill="midnightblue" stroke="midnightblue" points="232.45,-95.75 237.92,-86.67 227.98,-90.36 232.45,-95.75"/>
</g>
<!-- Node7 -->
<g id="node7" class="node">
<title>Node7</title>
<g id="a_node7"><a xlink:href="open62541_8h.html" target="_top" xlink:title=" ">
<polygon fill="none" stroke="black" points="377.5,-62 377.5,-81 526.5,-81 526.5,-62 377.5,-62"/>
<text text-anchor="middle" x="452" y="-69" font-family="Helvetica,sans-Serif" font-size="10.00">open62541pp/open62541.h</text>
</a>
</g>
</g>
<!-- Node1&#45;&gt;Node7 -->
<g id="edge7" class="edge">
<title>Node1&#45;&gt;Node7</title>
<path fill="none" stroke="midnightblue" d="M248.18,-123.46C299.79,-110.55 365.51,-94.12 408.16,-83.46"/>
<polygon fill="midnightblue" stroke="midnightblue" points="409.1,-86.83 417.95,-81.01 407.4,-80.04 409.1,-86.83"/>
</g>
<!-- Node5&#45;&gt;Node4 -->
<g id="edge5" class="edge">
<title>Node5&#45;&gt;Node4</title>
<path fill="none" stroke="midnightblue" d="M236.28,-56.4C224.09,-47.22 208.21,-35.26 195.81,-25.92"/>
<polygon fill="midnightblue" stroke="midnightblue" points="197.59,-22.88 187.5,-19.66 193.38,-28.47 197.59,-22.88"/>
</g>
<!-- Node6 -->
<g id="node6" class="node">
<title>Node6</title>
<g id="a_node6"><a xlink:title=" ">
<polygon fill="none" stroke="#bfbfbf" points="217.5,-0.5 217.5,-19.5 286.5,-19.5 286.5,-0.5 217.5,-0.5"/>
<text text-anchor="middle" x="252" y="-7.5" font-family="Helvetica,sans-Serif" font-size="10.00">type_traits</text>
</a>
</g>
</g>
<!-- Node5&#45;&gt;Node6 -->
<g id="edge6" class="edge">
<title>Node5&#45;&gt;Node6</title>
<path fill="none" stroke="midnightblue" d="M254.29,-56.4C253.89,-48.47 253.38,-38.46 252.95,-29.86"/>
<polygon fill="midnightblue" stroke="midnightblue" points="256.44,-29.47 252.44,-19.66 249.44,-29.82 256.44,-29.47"/>
</g>
<!-- Node8 -->
<g id="node8" class="node">
<title>Node8</title>
<g id="a_node8"><a target="_blank" xlink:href="open62541/nodeids_8h.html.html" xlink:title=" ">
<polygon fill="none" stroke="black" points="304.5,-0.5 304.5,-19.5 425.5,-19.5 425.5,-0.5 304.5,-0.5"/>
<text text-anchor="middle" x="365" y="-7.5" font-family="Helvetica,sans-Serif" font-size="10.00">open62541/nodeids.h</text>
</a>
</g>
</g>
<!-- Node7&#45;&gt;Node8 -->
<g id="edge8" class="edge">
<title>Node7&#45;&gt;Node8</title>
<path fill="none" stroke="midnightblue" d="M439.54,-61.98C425.58,-52.43 402.74,-36.81 386.01,-25.37"/>
<polygon fill="midnightblue" stroke="midnightblue" points="387.67,-22.27 377.44,-19.51 383.72,-28.04 387.67,-22.27"/>
</g>
<!-- Node9 -->
<g id="node9" class="node">
<title>Node9</title>
<g id="a_node9"><a target="_blank" xlink:href="open62541/types_8h.html.html" xlink:title=" ">
<polygon fill="none" stroke="black" points="444,-0.5 444,-19.5 554,-19.5 554,-0.5 444,-0.5"/>
<text text-anchor="middle" x="499" y="-7.5" font-family="Helvetica,sans-Serif" font-size="10.00">open62541/types.h</text>
</a>
</g>
</g>
<!-- Node7&#45;&gt;Node9 -->
<g id="edge9" class="edge">
<title>Node7&#45;&gt;Node9</title>
<path fill="none" stroke="midnightblue" d="M458.73,-61.98C465.78,-53.05 477.03,-38.81 485.85,-27.64"/>
<polygon fill="midnightblue" stroke="midnightblue" points="488.83,-29.53 492.28,-19.51 483.33,-25.19 488.83,-29.53"/>
</g>
<!-- Node10 -->
<g id="node10" class="node">
<title>Node10</title>
<g id="a_node10"><a target="_blank" xlink:href="open62541/types__generated_8h.html.html" xlink:title=" ">
<polygon fill="none" stroke="black" points="572,-0.5 572,-19.5 736,-19.5 736,-0.5 572,-0.5"/>
<text text-anchor="middle" x="654" y="-7.5" font-family="Helvetica,sans-Serif" font-size="10.00">open62541/types_generated.h</text>
</a>
</g>
</g>
<!-- Node7&#45;&gt;Node10 -->
<g id="edge10" class="edge">
<title>Node7&#45;&gt;Node10</title>
<path fill="none" stroke="midnightblue" d="M480.94,-61.98C516.27,-51.57 576.13,-33.94 615.36,-22.38"/>
<polygon fill="midnightblue" stroke="midnightblue" points="616.51,-25.69 625.11,-19.51 614.53,-18.98 616.51,-25.69"/>
</g>
</g>
</svg>
