<?xml version="1.0" encoding="UTF-8" standalone="no"?>
<!DOCTYPE svg PUBLIC "-//W3C//DTD SVG 1.1//EN"
 "http://www.w3.org/Graphics/SVG/1.1/DTD/svg11.dtd">
<!-- Generated by graphviz version 2.43.0 (0)
 -->
<!-- Title: /home/runner/work/open62541pp/open62541pp/include/open62541pp/types/Composed.h Pages: 1 -->
<svg width="1587pt" height="464pt"
 viewBox="0.00 0.00 1586.93 464.00" xmlns="http://www.w3.org/2000/svg" xmlns:xlink="http://www.w3.org/1999/xlink">
<g id="graph0" class="graph" transform="scale(1 1) rotate(0) translate(4 460)">
<title>/home/runner/work/open62541pp/open62541pp/include/open62541pp/types/Composed.h</title>
<!-- Node1 -->
<g id="node1" class="node">
<title>Node1</title>
<g id="a_node1"><a xlink:title=" ">
<polygon fill="#bfbfbf" stroke="black" points="933.5,-414.5 933.5,-455.5 1126.5,-455.5 1126.5,-414.5 933.5,-414.5"/>
<text text-anchor="start" x="941.5" y="-443.5" font-family="Helvetica,sans-Serif" font-size="10.00">/home/runner/work/open62541pp</text>
<text text-anchor="start" x="941.5" y="-432.5" font-family="Helvetica,sans-Serif" font-size="10.00">/open62541pp/include/open62541pp</text>
<text text-anchor="middle" x="1030" y="-421.5" font-family="Helvetica,sans-Serif" font-size="10.00">/types/Composed.h</text>
</a>
</g>
</g>
<!-- Node2 -->
<g id="node2" class="node">
<title>Node2</title>
<g id="a_node2"><a xlink:href="TypeConverter_8h.html" target="_top" xlink:title=" ">
<polygon fill="none" stroke="black" points="448,-358.5 448,-377.5 612,-377.5 612,-358.5 448,-358.5"/>
<text text-anchor="middle" x="530" y="-365.5" font-family="Helvetica,sans-Serif" font-size="10.00">open62541pp/TypeConverter.h</text>
</a>
</g>
</g>
<!-- Node1&#45;&gt;Node2 -->
<g id="edge1" class="edge">
<title>Node1&#45;&gt;Node2</title>
<path fill="none" stroke="midnightblue" d="M933.3,-421.43C837.72,-409 693.46,-390.25 605.87,-378.86"/>
<polygon fill="midnightblue" stroke="midnightblue" points="606.1,-375.36 595.73,-377.55 605.2,-382.31 606.1,-375.36"/>
</g>
<!-- Node6 -->
<g id="node6" class="node">
<title>Node6</title>
<g id="a_node6"><a xlink:title=" ">
<polygon fill="none" stroke="#bfbfbf" points="1118,-123.5 1118,-142.5 1162,-142.5 1162,-123.5 1118,-123.5"/>
<text text-anchor="middle" x="1140" y="-130.5" font-family="Helvetica,sans-Serif" font-size="10.00">string</text>
</a>
</g>
</g>
<!-- Node1&#45;&gt;Node6 -->
<g id="edge67" class="edge">
<title>Node1&#45;&gt;Node6</title>
<path fill="none" stroke="midnightblue" d="M1030.3,-414.35C1031.61,-378.71 1038.01,-301.9 1068,-246 1078.7,-226.06 1090.97,-228.5 1104,-210 1116.71,-191.96 1126.96,-168.74 1133.22,-152.73"/>
<polygon fill="midnightblue" stroke="midnightblue" points="1136.66,-153.55 1136.91,-142.96 1130.11,-151.08 1136.66,-153.55"/>
</g>
<!-- Node8 -->
<g id="node8" class="node">
<title>Node8</title>
<g id="a_node8"><a xlink:title=" ">
<polygon fill="none" stroke="#bfbfbf" points="878.5,-302.5 878.5,-321.5 925.5,-321.5 925.5,-302.5 878.5,-302.5"/>
<text text-anchor="middle" x="902" y="-309.5" font-family="Helvetica,sans-Serif" font-size="10.00">vector</text>
</a>
</g>
</g>
<!-- Node1&#45;&gt;Node8 -->
<g id="edge68" class="edge">
<title>Node1&#45;&gt;Node8</title>
<path fill="none" stroke="midnightblue" d="M1009.15,-414.29C983.8,-390.33 941.55,-350.39 918.4,-328.51"/>
<polygon fill="midnightblue" stroke="midnightblue" points="920.74,-325.9 911.07,-321.57 915.93,-330.99 920.74,-325.9"/>
</g>
<!-- Node20 -->
<g id="node20" class="node">
<title>Node20</title>
<g id="a_node20"><a xlink:href="TypeWrapper_8h.html" target="_top" xlink:title=" ">
<polygon fill="none" stroke="black" points="534,-246.5 534,-265.5 692,-265.5 692,-246.5 534,-246.5"/>
<text text-anchor="middle" x="613" y="-253.5" font-family="Helvetica,sans-Serif" font-size="10.00">open62541pp/TypeWrapper.h</text>
</a>
</g>
</g>
<!-- Node1&#45;&gt;Node20 -->
<g id="edge49" class="edge">
<title>Node1&#45;&gt;Node20</title>
<path fill="none" stroke="midnightblue" d="M1021.89,-414.41C1008.44,-384.63 978.5,-328.62 934,-302 896.02,-279.28 783.55,-267.5 702.46,-261.78"/>
<polygon fill="midnightblue" stroke="midnightblue" points="702.45,-258.27 692.23,-261.08 701.97,-265.26 702.45,-258.27"/>
</g>
<!-- Node27 -->
<g id="node27" class="node">
<title>Node27</title>
<g id="a_node27"><a xlink:href="Builtin_8h.html" target="_top" xlink:title=" ">
<polygon fill="none" stroke="black" points="1096,-302.5 1096,-321.5 1252,-321.5 1252,-302.5 1096,-302.5"/>
<text text-anchor="middle" x="1174" y="-309.5" font-family="Helvetica,sans-Serif" font-size="10.00">open62541pp/types/Builtin.h</text>
</a>
</g>
</g>
<!-- Node1&#45;&gt;Node27 -->
<g id="edge50" class="edge">
<title>Node1&#45;&gt;Node27</title>
<path fill="none" stroke="midnightblue" d="M1053.46,-414.29C1082.1,-390.22 1129.92,-350.04 1155.89,-328.22"/>
<polygon fill="midnightblue" stroke="midnightblue" points="1158.39,-330.69 1163.8,-321.57 1153.89,-325.33 1158.39,-330.69"/>
</g>
<!-- Node28 -->
<g id="node28" class="node">
<title>Node28</title>
<g id="a_node28"><a xlink:href="NodeId_8h.html" target="_top" xlink:title=" ">
<polygon fill="none" stroke="black" points="1173.5,-358.5 1173.5,-377.5 1332.5,-377.5 1332.5,-358.5 1173.5,-358.5"/>
<text text-anchor="middle" x="1253" y="-365.5" font-family="Helvetica,sans-Serif" font-size="10.00">open62541pp/types/NodeId.h</text>
</a>
</g>
</g>
<!-- Node1&#45;&gt;Node28 -->
<g id="edge57" class="edge">
<title>Node1&#45;&gt;Node28</title>
<path fill="none" stroke="midnightblue" d="M1096.91,-414.5C1134.99,-403.4 1181.39,-389.87 1213.66,-380.47"/>
<polygon fill="midnightblue" stroke="midnightblue" points="1214.99,-383.73 1223.61,-377.57 1213.03,-377.01 1214.99,-383.73"/>
</g>
<!-- Node31 -->
<g id="node31" class="node">
<title>Node31</title>
<g id="a_node31"><a xlink:title=" ">
<polygon fill="none" stroke="#bfbfbf" points="1350.5,-358.5 1350.5,-377.5 1433.5,-377.5 1433.5,-358.5 1350.5,-358.5"/>
<text text-anchor="middle" x="1392" y="-365.5" font-family="Helvetica,sans-Serif" font-size="10.00">initializer_list</text>
</a>
</g>
</g>
<!-- Node1&#45;&gt;Node31 -->
<g id="edge66" class="edge">
<title>Node1&#45;&gt;Node31</title>
<path fill="none" stroke="midnightblue" d="M1126.63,-416.67C1185.73,-406.07 1263.17,-392.17 1340.36,-378.29"/>
<polygon fill="midnightblue" stroke="midnightblue" points="1341.04,-381.73 1350.26,-376.52 1339.8,-374.84 1341.04,-381.73"/>
</g>
<!-- Node3 -->
<g id="node3" class="node">
<title>Node3</title>
<g id="a_node3"><a xlink:title=" ">
<polygon fill="none" stroke="#bfbfbf" points="1077,-246.5 1077,-265.5 1119,-265.5 1119,-246.5 1077,-246.5"/>
<text text-anchor="middle" x="1098" y="-253.5" font-family="Helvetica,sans-Serif" font-size="10.00">array</text>
</a>
</g>
</g>
<!-- Node2&#45;&gt;Node3 -->
<g id="edge2" class="edge">
<title>Node2&#45;&gt;Node3</title>
<path fill="none" stroke="midnightblue" d="M612.1,-360.83C672.29,-354.8 755.46,-343.29 826,-322 846.18,-315.91 848.96,-308.52 869,-302 937.84,-279.59 1022.14,-266.54 1066.79,-260.7"/>
<polygon fill="midnightblue" stroke="midnightblue" points="1067.25,-264.17 1076.73,-259.44 1066.37,-257.23 1067.25,-264.17"/>
</g>
<!-- Node4 -->
<g id="node4" class="node">
<title>Node4</title>
<g id="a_node4"><a xlink:title=" ">
<polygon fill="none" stroke="#bfbfbf" points="66,-246.5 66,-265.5 116,-265.5 116,-246.5 66,-246.5"/>
<text text-anchor="middle" x="91" y="-253.5" font-family="Helvetica,sans-Serif" font-size="10.00">chrono</text>
</a>
</g>
</g>
<!-- Node2&#45;&gt;Node4 -->
<g id="edge3" class="edge">
<title>Node2&#45;&gt;Node4</title>
<path fill="none" stroke="midnightblue" d="M447.97,-364.14C328.69,-359.16 118.91,-346.93 95,-322 83.4,-309.91 83.89,-290.03 86.36,-275.43"/>
<polygon fill="midnightblue" stroke="midnightblue" points="89.81,-276.03 88.47,-265.52 82.97,-274.57 89.81,-276.03"/>
</g>
<!-- Node5 -->
<g id="node5" class="node">
<title>Node5</title>
<g id="a_node5"><a xlink:title=" ">
<polygon fill="none" stroke="#bfbfbf" points="104.5,-302.5 104.5,-321.5 157.5,-321.5 157.5,-302.5 104.5,-302.5"/>
<text text-anchor="middle" x="131" y="-309.5" font-family="Helvetica,sans-Serif" font-size="10.00">iterator</text>
</a>
</g>
</g>
<!-- Node2&#45;&gt;Node5 -->
<g id="edge4" class="edge">
<title>Node2&#45;&gt;Node5</title>
<path fill="none" stroke="midnightblue" d="M447.85,-359.89C376.16,-352.99 269.19,-341.01 167.78,-322.14"/>
<polygon fill="midnightblue" stroke="midnightblue" points="168.15,-318.65 157.67,-320.24 166.85,-325.53 168.15,-318.65"/>
</g>
<!-- Node2&#45;&gt;Node6 -->
<g id="edge5" class="edge">
<title>Node2&#45;&gt;Node6</title>
<path fill="none" stroke="midnightblue" d="M572.78,-358.43C661.77,-339.6 871.93,-289.82 1033,-210 1066.94,-193.18 1101.93,-166.15 1122.28,-149.27"/>
<polygon fill="midnightblue" stroke="midnightblue" points="1124.67,-151.84 1130.07,-142.72 1120.16,-146.48 1124.67,-151.84"/>
</g>
<!-- Node7 -->
<g id="node7" class="node">
<title>Node7</title>
<g id="a_node7"><a xlink:title=" ">
<polygon fill="none" stroke="#bfbfbf" points="185.5,-0.5 185.5,-19.5 254.5,-19.5 254.5,-0.5 185.5,-0.5"/>
<text text-anchor="middle" x="220" y="-7.5" font-family="Helvetica,sans-Serif" font-size="10.00">type_traits</text>
</a>
</g>
</g>
<!-- Node2&#45;&gt;Node7 -->
<g id="edge6" class="edge">
<title>Node2&#45;&gt;Node7</title>
<path fill="none" stroke="midnightblue" d="M447.84,-367C329.33,-365.71 117.35,-358.21 51,-322 18.77,-304.41 0,-293.72 0,-257 0,-257 0,-257 0,-132 0,-52.93 110.46,-25.16 174.84,-15.69"/>
<polygon fill="midnightblue" stroke="midnightblue" points="175.71,-19.11 185.14,-14.28 174.76,-12.17 175.71,-19.11"/>
</g>
<!-- Node2&#45;&gt;Node8 -->
<g id="edge7" class="edge">
<title>Node2&#45;&gt;Node8</title>
<path fill="none" stroke="midnightblue" d="M609.98,-358.47C677.87,-350.69 777.7,-337.99 864,-322 865.46,-321.73 866.94,-321.44 868.44,-321.14"/>
<polygon fill="midnightblue" stroke="midnightblue" points="869.33,-324.52 878.36,-318.98 867.84,-317.68 869.33,-324.52"/>
</g>
<!-- Node9 -->
<g id="node9" class="node">
<title>Node9</title>
<g id="a_node9"><a xlink:href="Common_8h.html" target="_top" xlink:title=" ">
<polygon fill="none" stroke="black" points="362.5,-123.5 362.5,-142.5 501.5,-142.5 501.5,-123.5 362.5,-123.5"/>
<text text-anchor="middle" x="432" y="-130.5" font-family="Helvetica,sans-Serif" font-size="10.00">open62541pp/Common.h</text>
</a>
</g>
</g>
<!-- Node2&#45;&gt;Node9 -->
<g id="edge8" class="edge">
<title>Node2&#45;&gt;Node9</title>
<path fill="none" stroke="midnightblue" d="M520.51,-358.27C497.3,-336.19 438.03,-275.2 417,-210 410.76,-190.66 417.12,-167.67 423.37,-152.07"/>
<polygon fill="midnightblue" stroke="midnightblue" points="426.71,-153.16 427.53,-142.6 420.3,-150.35 426.71,-153.16"/>
</g>
<!-- Node13 -->
<g id="node13" class="node">
<title>Node13</title>
<g id="a_node13"><a xlink:href="traits_8h.html" target="_top" xlink:title=" ">
<polygon fill="none" stroke="black" points="248.5,-56.5 248.5,-86.5 361.5,-86.5 361.5,-56.5 248.5,-56.5"/>
<text text-anchor="start" x="256.5" y="-74.5" font-family="Helvetica,sans-Serif" font-size="10.00">open62541pp/detail</text>
<text text-anchor="middle" x="305" y="-63.5" font-family="Helvetica,sans-Serif" font-size="10.00">/traits.h</text>
</a>
</g>
</g>
<!-- Node2&#45;&gt;Node13 -->
<g id="edge41" class="edge">
<title>Node2&#45;&gt;Node13</title>
<path fill="none" stroke="midnightblue" d="M447.69,-366.95C335.54,-365.5 141.83,-357.69 82,-322 52.04,-304.13 38,-291.89 38,-257 38,-257 38,-257 38,-193.5 38,-105.83 158.9,-81.36 237.99,-74.73"/>
<polygon fill="midnightblue" stroke="midnightblue" points="238.67,-78.19 248.38,-73.94 238.14,-71.21 238.67,-78.19"/>
</g>
<!-- Node14 -->
<g id="node14" class="node">
<title>Node14</title>
<g id="a_node14"><a xlink:href="open62541_8h.html" target="_top" xlink:title=" ">
<polygon fill="none" stroke="black" points="759.5,-62 759.5,-81 908.5,-81 908.5,-62 759.5,-62"/>
<text text-anchor="middle" x="834" y="-69" font-family="Helvetica,sans-Serif" font-size="10.00">open62541pp/open62541.h</text>
</a>
</g>
</g>
<!-- Node2&#45;&gt;Node14 -->
<g id="edge42" class="edge">
<title>Node2&#45;&gt;Node14</title>
<path fill="none" stroke="midnightblue" d="M598.54,-358.49C647.76,-351.37 715.32,-339.52 773,-322 788.05,-317.43 1024.35,-223.14 1033,-210 1075.61,-145.25 953.34,-102.4 881.79,-83.52"/>
<polygon fill="midnightblue" stroke="midnightblue" points="882.61,-80.12 872.05,-81.01 880.86,-86.9 882.61,-80.12"/>
</g>
<!-- Node18 -->
<g id="node18" class="node">
<title>Node18</title>
<g id="a_node18"><a xlink:href="ErrorHandling_8h.html" target="_top" xlink:title=" ">
<polygon fill="none" stroke="black" points="862.5,-185 862.5,-204 1023.5,-204 1023.5,-185 862.5,-185"/>
<text text-anchor="middle" x="943" y="-192" font-family="Helvetica,sans-Serif" font-size="10.00">open62541pp/ErrorHandling.h</text>
</a>
</g>
</g>
<!-- Node2&#45;&gt;Node18 -->
<g id="edge19" class="edge">
<title>Node2&#45;&gt;Node18</title>
<path fill="none" stroke="midnightblue" d="M549.54,-358.44C595.49,-338.36 714.03,-286.85 814,-246 846.97,-232.53 884.96,-217.74 911.13,-207.67"/>
<polygon fill="midnightblue" stroke="midnightblue" points="912.47,-210.91 920.55,-204.06 909.96,-204.38 912.47,-210.91"/>
</g>
<!-- Node2&#45;&gt;Node20 -->
<g id="edge23" class="edge">
<title>Node2&#45;&gt;Node20</title>
<path fill="none" stroke="midnightblue" d="M536.51,-358.37C550.27,-340.14 582.5,-297.43 600.42,-273.68"/>
<polygon fill="midnightblue" stroke="midnightblue" points="603.29,-275.68 606.52,-265.59 597.7,-271.47 603.29,-275.68"/>
</g>
<!-- Node23 -->
<g id="node23" class="node">
<title>Node23</title>
<g id="a_node23"><a xlink:href="helper_8h.html" target="_top" xlink:title=" ">
<polygon fill="none" stroke="black" points="438.5,-179.5 438.5,-209.5 551.5,-209.5 551.5,-179.5 438.5,-179.5"/>
<text text-anchor="start" x="446.5" y="-197.5" font-family="Helvetica,sans-Serif" font-size="10.00">open62541pp/detail</text>
<text text-anchor="middle" x="495" y="-186.5" font-family="Helvetica,sans-Serif" font-size="10.00">/helper.h</text>
</a>
</g>
</g>
<!-- Node2&#45;&gt;Node23 -->
<g id="edge40" class="edge">
<title>Node2&#45;&gt;Node23</title>
<path fill="none" stroke="midnightblue" d="M528.22,-358.26C523.03,-332.87 507.85,-258.44 499.93,-219.65"/>
<polygon fill="midnightblue" stroke="midnightblue" points="503.33,-218.82 497.9,-209.72 496.47,-220.22 503.33,-218.82"/>
</g>
<!-- Node25 -->
<g id="node25" class="node">
<title>Node25</title>
<g id="a_node25"><a xlink:href="DateTime_8h.html" target="_top" xlink:title=" ">
<polygon fill="none" stroke="black" points="175.5,-302.5 175.5,-321.5 348.5,-321.5 348.5,-302.5 175.5,-302.5"/>
<text text-anchor="middle" x="262" y="-309.5" font-family="Helvetica,sans-Serif" font-size="10.00">open62541pp/types/DateTime.h</text>
</a>
</g>
</g>
<!-- Node2&#45;&gt;Node25 -->
<g id="edge43" class="edge">
<title>Node2&#45;&gt;Node25</title>
<path fill="none" stroke="midnightblue" d="M487.53,-358.44C440.59,-348.98 364.92,-333.74 314.35,-323.55"/>
<polygon fill="midnightblue" stroke="midnightblue" points="314.76,-320.06 304.27,-321.52 313.38,-326.92 314.76,-320.06"/>
</g>
<!-- Node10 -->
<g id="node10" class="node">
<title>Node10</title>
<g id="a_node10"><a xlink:title=" ">
<polygon fill="none" stroke="#bfbfbf" points="380,-62 380,-81 430,-81 430,-62 380,-62"/>
<text text-anchor="middle" x="405" y="-69" font-family="Helvetica,sans-Serif" font-size="10.00">cstdint</text>
</a>
</g>
</g>
<!-- Node9&#45;&gt;Node10 -->
<g id="edge9" class="edge">
<title>Node9&#45;&gt;Node10</title>
<path fill="none" stroke="midnightblue" d="M428.13,-123.48C424.2,-114.82 418,-101.15 413.01,-90.15"/>
<polygon fill="midnightblue" stroke="midnightblue" points="416.18,-88.67 408.86,-81.01 409.81,-91.56 416.18,-88.67"/>
</g>
<!-- Node11 -->
<g id="node11" class="node">
<title>Node11</title>
<g id="a_node11"><a xlink:title=" ">
<polygon fill="none" stroke="#bfbfbf" points="1122.5,-62 1122.5,-81 1195.5,-81 1195.5,-62 1122.5,-62"/>
<text text-anchor="middle" x="1159" y="-69" font-family="Helvetica,sans-Serif" font-size="10.00">string_view</text>
</a>
</g>
</g>
<!-- Node9&#45;&gt;Node11 -->
<g id="edge10" class="edge">
<title>Node9&#45;&gt;Node11</title>
<path fill="none" stroke="midnightblue" d="M501.71,-126.29C648.82,-114.25 987.68,-86.52 1112.09,-76.34"/>
<polygon fill="midnightblue" stroke="midnightblue" points="1112.73,-79.8 1122.41,-75.49 1112.16,-72.82 1112.73,-79.8"/>
</g>
<!-- Node12 -->
<g id="node12" class="node">
<title>Node12</title>
<g id="a_node12"><a xlink:title=" ">
<polygon fill="none" stroke="#bfbfbf" points="360.5,-0.5 360.5,-19.5 401.5,-19.5 401.5,-0.5 360.5,-0.5"/>
<text text-anchor="middle" x="381" y="-7.5" font-family="Helvetica,sans-Serif" font-size="10.00">tuple</text>
</a>
</g>
</g>
<!-- Node9&#45;&gt;Node12 -->
<g id="edge11" class="edge">
<title>Node9&#45;&gt;Node12</title>
<path fill="none" stroke="midnightblue" d="M435.54,-123.5C441.05,-108.87 449.96,-78.37 439,-56 432.48,-42.68 419.9,-32.18 408.13,-24.68"/>
<polygon fill="midnightblue" stroke="midnightblue" points="409.78,-21.59 399.39,-19.53 406.23,-27.62 409.78,-21.59"/>
</g>
<!-- Node9&#45;&gt;Node13 -->
<g id="edge12" class="edge">
<title>Node9&#45;&gt;Node13</title>
<path fill="none" stroke="midnightblue" d="M413.8,-123.48C395.72,-115 367.41,-101.74 344.19,-90.86"/>
<polygon fill="midnightblue" stroke="midnightblue" points="345.47,-87.6 334.93,-86.52 342.5,-93.93 345.47,-87.6"/>
</g>
<!-- Node9&#45;&gt;Node14 -->
<g id="edge15" class="edge">
<title>Node9&#45;&gt;Node14</title>
<path fill="none" stroke="midnightblue" d="M489.6,-123.48C562.73,-112.65 688.72,-94 766.36,-82.51"/>
<polygon fill="midnightblue" stroke="midnightblue" points="767.13,-85.94 776.51,-81.01 766.11,-79.01 767.13,-85.94"/>
</g>
<!-- Node13&#45;&gt;Node7 -->
<g id="edge14" class="edge">
<title>Node13&#45;&gt;Node7</title>
<path fill="none" stroke="midnightblue" d="M284.86,-56.4C271.61,-47.13 254.32,-35.03 240.92,-25.65"/>
<polygon fill="midnightblue" stroke="midnightblue" points="242.57,-22.53 232.37,-19.66 238.55,-28.26 242.57,-22.53"/>
</g>
<!-- Node13&#45;&gt;Node12 -->
<g id="edge13" class="edge">
<title>Node13&#45;&gt;Node12</title>
<path fill="none" stroke="midnightblue" d="M323.01,-56.4C334.74,-47.22 350.02,-35.26 361.94,-25.92"/>
<polygon fill="midnightblue" stroke="midnightblue" points="364.22,-28.58 369.94,-19.66 359.91,-23.07 364.22,-28.58"/>
</g>
<!-- Node15 -->
<g id="node15" class="node">
<title>Node15</title>
<g id="a_node15"><a target="_blank" xlink:href="open62541/nodeids_8h.html.html" xlink:title=" ">
<polygon fill="none" stroke="black" points="773.5,-0.5 773.5,-19.5 894.5,-19.5 894.5,-0.5 773.5,-0.5"/>
<text text-anchor="middle" x="834" y="-7.5" font-family="Helvetica,sans-Serif" font-size="10.00">open62541/nodeids.h</text>
</a>
</g>
</g>
<!-- Node14&#45;&gt;Node15 -->
<g id="edge16" class="edge">
<title>Node14&#45;&gt;Node15</title>
<path fill="none" stroke="midnightblue" d="M834,-61.98C834,-53.58 834,-40.48 834,-29.66"/>
<polygon fill="midnightblue" stroke="midnightblue" points="837.5,-29.51 834,-19.51 830.5,-29.51 837.5,-29.51"/>
</g>
<!-- Node16 -->
<g id="node16" class="node">
<title>Node16</title>
<g id="a_node16"><a target="_blank" xlink:href="open62541/types_8h.html.html" xlink:title=" ">
<polygon fill="none" stroke="black" points="913,-0.5 913,-19.5 1023,-19.5 1023,-0.5 913,-0.5"/>
<text text-anchor="middle" x="968" y="-7.5" font-family="Helvetica,sans-Serif" font-size="10.00">open62541/types.h</text>
</a>
</g>
</g>
<!-- Node14&#45;&gt;Node16 -->
<g id="edge17" class="edge">
<title>Node14&#45;&gt;Node16</title>
<path fill="none" stroke="midnightblue" d="M853.2,-61.98C875.79,-51.95 913.5,-35.2 939.5,-23.65"/>
<polygon fill="midnightblue" stroke="midnightblue" points="941.12,-26.77 948.84,-19.51 938.28,-20.37 941.12,-26.77"/>
</g>
<!-- Node17 -->
<g id="node17" class="node">
<title>Node17</title>
<g id="a_node17"><a target="_blank" xlink:href="open62541/types__generated_8h.html.html" xlink:title=" ">
<polygon fill="none" stroke="black" points="591,-0.5 591,-19.5 755,-19.5 755,-0.5 591,-0.5"/>
<text text-anchor="middle" x="673" y="-7.5" font-family="Helvetica,sans-Serif" font-size="10.00">open62541/types_generated.h</text>
</a>
</g>
</g>
<!-- Node14&#45;&gt;Node17 -->
<g id="edge18" class="edge">
<title>Node14&#45;&gt;Node17</title>
<path fill="none" stroke="midnightblue" d="M810.93,-61.98C783.32,-51.77 736.88,-34.61 705.6,-23.05"/>
<polygon fill="midnightblue" stroke="midnightblue" points="706.62,-19.69 696.02,-19.51 704.19,-26.26 706.62,-19.69"/>
</g>
<!-- Node18&#45;&gt;Node6 -->
<g id="edge21" class="edge">
<title>Node18&#45;&gt;Node6</title>
<path fill="none" stroke="midnightblue" d="M971.23,-184.98C1007.4,-174.05 1069.97,-155.15 1107.91,-143.69"/>
<polygon fill="midnightblue" stroke="midnightblue" points="1109.36,-146.91 1117.92,-140.67 1107.34,-140.21 1109.36,-146.91"/>
</g>
<!-- Node18&#45;&gt;Node14 -->
<g id="edge22" class="edge">
<title>Node18&#45;&gt;Node14</title>
<path fill="none" stroke="midnightblue" d="M944.63,-184.79C946.81,-170.51 949.01,-141.82 936,-123 922.95,-104.13 900.76,-91.99 880.4,-84.35"/>
<polygon fill="midnightblue" stroke="midnightblue" points="881.5,-81.03 870.9,-81.06 879.2,-87.64 881.5,-81.03"/>
</g>
<!-- Node19 -->
<g id="node19" class="node">
<title>Node19</title>
<g id="a_node19"><a xlink:title=" ">
<polygon fill="none" stroke="#bfbfbf" points="862.5,-123.5 862.5,-142.5 927.5,-142.5 927.5,-123.5 862.5,-123.5"/>
<text text-anchor="middle" x="895" y="-130.5" font-family="Helvetica,sans-Serif" font-size="10.00">stdexcept</text>
</a>
</g>
</g>
<!-- Node18&#45;&gt;Node19 -->
<g id="edge20" class="edge">
<title>Node18&#45;&gt;Node19</title>
<path fill="none" stroke="midnightblue" d="M936.12,-184.98C928.85,-175.96 917.2,-161.52 908.16,-150.31"/>
<polygon fill="midnightblue" stroke="midnightblue" points="910.87,-148.09 901.86,-142.51 905.42,-152.49 910.87,-148.09"/>
</g>
<!-- Node20&#45;&gt;Node7 -->
<g id="edge26" class="edge">
<title>Node20&#45;&gt;Node7</title>
<path fill="none" stroke="midnightblue" d="M533.88,-251.66C484.51,-246.91 420.91,-235.77 370,-210 298.74,-173.94 279.44,-155.87 239,-87 228.58,-69.26 223.84,-45.94 221.71,-29.84"/>
<polygon fill="midnightblue" stroke="midnightblue" points="225.15,-29.12 220.57,-19.57 218.19,-29.9 225.15,-29.12"/>
</g>
<!-- Node20&#45;&gt;Node9 -->
<g id="edge28" class="edge">
<title>Node20&#45;&gt;Node9</title>
<path fill="none" stroke="midnightblue" d="M540.2,-246.43C495,-239.45 442.96,-227.78 429,-210 416.29,-193.81 420.17,-169.16 425.15,-152.36"/>
<polygon fill="midnightblue" stroke="midnightblue" points="428.56,-153.21 428.42,-142.61 421.92,-150.98 428.56,-153.21"/>
</g>
<!-- Node20&#45;&gt;Node10 -->
<g id="edge25" class="edge">
<title>Node20&#45;&gt;Node10</title>
<path fill="none" stroke="midnightblue" d="M533.8,-247.46C496.5,-241.32 452.51,-230.19 417,-210 381.2,-189.65 368.32,-181.22 353,-143 344.34,-121.41 364.6,-100.45 382.3,-87.07"/>
<polygon fill="midnightblue" stroke="midnightblue" points="384.52,-89.79 390.65,-81.15 380.47,-84.08 384.52,-89.79"/>
</g>
<!-- Node20&#45;&gt;Node14 -->
<g id="edge37" class="edge">
<title>Node20&#45;&gt;Node14</title>
<path fill="none" stroke="midnightblue" d="M692.02,-246.68C741.23,-239.8 798.26,-228.17 815,-210 844.98,-177.46 841.73,-120.85 837.49,-91.45"/>
<polygon fill="midnightblue" stroke="midnightblue" points="840.9,-90.6 835.83,-81.3 833.99,-91.74 840.9,-90.6"/>
</g>
<!-- Node20&#45;&gt;Node18 -->
<g id="edge29" class="edge">
<title>Node20&#45;&gt;Node18</title>
<path fill="none" stroke="midnightblue" d="M660.28,-246.48C719.83,-235.74 822.06,-217.31 885.9,-205.79"/>
<polygon fill="midnightblue" stroke="midnightblue" points="886.59,-209.23 895.81,-204.01 885.34,-202.34 886.59,-209.23"/>
</g>
<!-- Node21 -->
<g id="node21" class="node">
<title>Node21</title>
<g id="a_node21"><a xlink:title=" ">
<polygon fill="none" stroke="#bfbfbf" points="634,-123.5 634,-142.5 686,-142.5 686,-123.5 634,-123.5"/>
<text text-anchor="middle" x="660" y="-130.5" font-family="Helvetica,sans-Serif" font-size="10.00">cassert</text>
</a>
</g>
</g>
<!-- Node20&#45;&gt;Node21 -->
<g id="edge24" class="edge">
<title>Node20&#45;&gt;Node21</title>
<path fill="none" stroke="midnightblue" d="M607.91,-246.06C600.24,-231.3 587.75,-201.28 599,-179 605.81,-165.52 618.77,-155.08 631,-147.67"/>
<polygon fill="midnightblue" stroke="midnightblue" points="633.07,-150.52 640.09,-142.59 629.66,-144.41 633.07,-150.52"/>
</g>
<!-- Node22 -->
<g id="node22" class="node">
<title>Node22</title>
<g id="a_node22"><a xlink:title=" ">
<polygon fill="none" stroke="#bfbfbf" points="608.5,-185 608.5,-204 653.5,-204 653.5,-185 608.5,-185"/>
<text text-anchor="middle" x="631" y="-192" font-family="Helvetica,sans-Serif" font-size="10.00">utility</text>
</a>
</g>
</g>
<!-- Node20&#45;&gt;Node22 -->
<g id="edge27" class="edge">
<title>Node20&#45;&gt;Node22</title>
<path fill="none" stroke="midnightblue" d="M615.58,-246.48C618.15,-237.99 622.17,-224.7 625.46,-213.82"/>
<polygon fill="midnightblue" stroke="midnightblue" points="628.88,-214.59 628.43,-204.01 622.18,-212.57 628.88,-214.59"/>
</g>
<!-- Node20&#45;&gt;Node23 -->
<g id="edge30" class="edge">
<title>Node20&#45;&gt;Node23</title>
<path fill="none" stroke="midnightblue" d="M596.09,-246.48C579.44,-238.08 553.45,-224.97 531.99,-214.15"/>
<polygon fill="midnightblue" stroke="midnightblue" points="533.32,-210.9 522.81,-209.52 530.16,-217.15 533.32,-210.9"/>
</g>
<!-- Node24 -->
<g id="node24" class="node">
<title>Node24</title>
<g id="a_node24"><a xlink:href="comparison_8h.html" target="_top" xlink:title=" ">
<polygon fill="none" stroke="black" points="672,-179.5 672,-209.5 806,-209.5 806,-179.5 672,-179.5"/>
<text text-anchor="start" x="680" y="-197.5" font-family="Helvetica,sans-Serif" font-size="10.00">open62541pp/overloads</text>
<text text-anchor="middle" x="739" y="-186.5" font-family="Helvetica,sans-Serif" font-size="10.00">/comparison.h</text>
</a>
</g>
</g>
<!-- Node20&#45;&gt;Node24 -->
<g id="edge38" class="edge">
<title>Node20&#45;&gt;Node24</title>
<path fill="none" stroke="midnightblue" d="M631.05,-246.48C648.99,-238 677.09,-224.74 700.11,-213.86"/>
<polygon fill="midnightblue" stroke="midnightblue" points="701.76,-216.96 709.3,-209.52 698.77,-210.63 701.76,-216.96"/>
</g>
<!-- Node23&#45;&gt;Node6 -->
<g id="edge33" class="edge">
<title>Node23&#45;&gt;Node6</title>
<path fill="none" stroke="midnightblue" d="M551.6,-185.03C566.96,-182.89 583.6,-180.71 599,-179 791.49,-157.59 1023.54,-141.56 1107.61,-136.06"/>
<polygon fill="midnightblue" stroke="midnightblue" points="1108.05,-139.54 1117.8,-135.4 1107.59,-132.56 1108.05,-139.54"/>
</g>
<!-- Node23&#45;&gt;Node9 -->
<g id="edge35" class="edge">
<title>Node23&#45;&gt;Node9</title>
<path fill="none" stroke="midnightblue" d="M480.07,-179.4C470.63,-170.49 458.42,-158.95 448.67,-149.74"/>
<polygon fill="midnightblue" stroke="midnightblue" points="450.84,-146.98 441.17,-142.66 446.03,-152.07 450.84,-146.98"/>
</g>
<!-- Node23&#45;&gt;Node10 -->
<g id="edge32" class="edge">
<title>Node23&#45;&gt;Node10</title>
<path fill="none" stroke="midnightblue" d="M503.65,-179.46C511.69,-164.42 520.92,-140.37 510,-123 494.74,-98.73 464.19,-85.85 439.95,-79.19"/>
<polygon fill="midnightblue" stroke="midnightblue" points="440.57,-75.74 430.02,-76.7 438.87,-82.53 440.57,-75.74"/>
</g>
<!-- Node23&#45;&gt;Node11 -->
<g id="edge34" class="edge">
<title>Node23&#45;&gt;Node11</title>
<path fill="none" stroke="midnightblue" d="M521.39,-179.45C540.26,-169.37 566.24,-155.44 589,-143 605.06,-134.22 607.52,-128.42 625,-123 670.97,-108.75 990.91,-84.58 1112.37,-75.81"/>
<polygon fill="midnightblue" stroke="midnightblue" points="1112.75,-79.29 1122.48,-75.08 1112.25,-72.31 1112.75,-79.29"/>
</g>
<!-- Node23&#45;&gt;Node14 -->
<g id="edge36" class="edge">
<title>Node23&#45;&gt;Node14</title>
<path fill="none" stroke="midnightblue" d="M510.17,-179.26C528.24,-163.1 560.02,-137.17 592,-123 641.73,-100.96 701.53,-88.37 749.24,-81.27"/>
<polygon fill="midnightblue" stroke="midnightblue" points="749.83,-84.72 759.23,-79.84 748.84,-77.79 749.83,-84.72"/>
</g>
<!-- Node23&#45;&gt;Node21 -->
<g id="edge31" class="edge">
<title>Node23&#45;&gt;Node21</title>
<path fill="none" stroke="midnightblue" d="M534.1,-179.4C562.16,-169.28 599.57,-155.79 626.31,-146.15"/>
<polygon fill="midnightblue" stroke="midnightblue" points="627.77,-149.34 635.99,-142.66 625.4,-142.76 627.77,-149.34"/>
</g>
<!-- Node24&#45;&gt;Node14 -->
<g id="edge39" class="edge">
<title>Node24&#45;&gt;Node14</title>
<path fill="none" stroke="midnightblue" d="M750.27,-179.14C767.96,-156.61 802.17,-113.04 820.92,-89.16"/>
<polygon fill="midnightblue" stroke="midnightblue" points="823.86,-91.08 827.29,-81.05 818.36,-86.76 823.86,-91.08"/>
</g>
<!-- Node25&#45;&gt;Node4 -->
<g id="edge44" class="edge">
<title>Node25&#45;&gt;Node4</title>
<path fill="none" stroke="midnightblue" d="M234.9,-302.44C205.42,-293.13 158.18,-278.21 125.92,-268.03"/>
<polygon fill="midnightblue" stroke="midnightblue" points="126.61,-264.58 116.02,-264.9 124.5,-271.25 126.61,-264.58"/>
</g>
<!-- Node25&#45;&gt;Node10 -->
<g id="edge45" class="edge">
<title>Node25&#45;&gt;Node10</title>
<path fill="none" stroke="midnightblue" d="M234.75,-302.43C216.86,-295.42 194.36,-283.73 181,-266 142.59,-215.04 127.02,-171.92 168,-123 226.55,-53.09 282.47,-112.6 370,-87 372.29,-86.33 374.63,-85.56 376.97,-84.73"/>
<polygon fill="midnightblue" stroke="midnightblue" points="378.31,-87.96 386.38,-81.09 375.79,-81.43 378.31,-87.96"/>
</g>
<!-- Node25&#45;&gt;Node14 -->
<g id="edge48" class="edge">
<title>Node25&#45;&gt;Node14</title>
<path fill="none" stroke="midnightblue" d="M263.21,-302.39C268,-271.86 288.61,-168.23 353,-123 414.93,-79.51 628.1,-72.22 748.84,-71.72"/>
<polygon fill="midnightblue" stroke="midnightblue" points="749.16,-75.22 759.15,-71.7 749.15,-68.22 749.16,-75.22"/>
</g>
<!-- Node25&#45;&gt;Node20 -->
<g id="edge47" class="edge">
<title>Node25&#45;&gt;Node20</title>
<path fill="none" stroke="midnightblue" d="M317.62,-302.44C380.13,-292.83 481.52,-277.23 547.73,-267.04"/>
<polygon fill="midnightblue" stroke="midnightblue" points="548.29,-270.5 557.64,-265.52 547.23,-263.58 548.29,-270.5"/>
</g>
<!-- Node26 -->
<g id="node26" class="node">
<title>Node26</title>
<g id="a_node26"><a xlink:title=" ">
<polygon fill="none" stroke="#bfbfbf" points="190.5,-246.5 190.5,-265.5 229.5,-265.5 229.5,-246.5 190.5,-246.5"/>
<text text-anchor="middle" x="210" y="-253.5" font-family="Helvetica,sans-Serif" font-size="10.00">ratio</text>
</a>
</g>
</g>
<!-- Node25&#45;&gt;Node26 -->
<g id="edge46" class="edge">
<title>Node25&#45;&gt;Node26</title>
<path fill="none" stroke="midnightblue" d="M253.41,-302.08C245.84,-294.22 234.62,-282.57 225.49,-273.08"/>
<polygon fill="midnightblue" stroke="midnightblue" points="227.88,-270.53 218.43,-265.75 222.84,-275.38 227.88,-270.53"/>
</g>
<!-- Node27&#45;&gt;Node3 -->
<g id="edge51" class="edge">
<title>Node27&#45;&gt;Node3</title>
<path fill="none" stroke="midnightblue" d="M1161.79,-302.32C1150.22,-294.11 1132.62,-281.6 1118.84,-271.81"/>
<polygon fill="midnightblue" stroke="midnightblue" points="1120.61,-268.77 1110.43,-265.83 1116.56,-274.48 1120.61,-268.77"/>
</g>
<!-- Node27&#45;&gt;Node6 -->
<g id="edge53" class="edge">
<title>Node27&#45;&gt;Node6</title>
<path fill="none" stroke="midnightblue" d="M1172.36,-302.46C1167.17,-275.43 1151,-191.24 1143.67,-153.11"/>
<polygon fill="midnightblue" stroke="midnightblue" points="1147.03,-152.03 1141.7,-142.87 1140.15,-153.35 1147.03,-152.03"/>
</g>
<!-- Node27&#45;&gt;Node10 -->
<g id="edge52" class="edge">
<title>Node27&#45;&gt;Node10</title>
<path fill="none" stroke="midnightblue" d="M1095.76,-306.79C935.31,-297.99 579.5,-277.5 525,-266 453.33,-250.88 421.38,-262.21 370,-210 341.95,-181.49 330.43,-159.4 347,-123 353.9,-107.84 367.84,-95.47 380.33,-86.76"/>
<polygon fill="midnightblue" stroke="midnightblue" points="382.58,-89.48 389.04,-81.08 378.75,-83.61 382.58,-89.48"/>
</g>
<!-- Node27&#45;&gt;Node11 -->
<g id="edge54" class="edge">
<title>Node27&#45;&gt;Node11</title>
<path fill="none" stroke="midnightblue" d="M1186.78,-302.37C1197.39,-294.36 1211.73,-281.38 1218,-266 1241.99,-207.15 1244.58,-180.73 1218,-123 1210.9,-107.58 1196.51,-95.11 1183.71,-86.42"/>
<polygon fill="midnightblue" stroke="midnightblue" points="1185.54,-83.43 1175.22,-81.01 1181.78,-89.34 1185.54,-83.43"/>
</g>
<!-- Node27&#45;&gt;Node14 -->
<g id="edge56" class="edge">
<title>Node27&#45;&gt;Node14</title>
<path fill="none" stroke="midnightblue" d="M1177.27,-302.49C1187.92,-273.18 1218.3,-175.29 1171,-123 1138.23,-86.78 1007.51,-76.27 918.84,-73.38"/>
<polygon fill="midnightblue" stroke="midnightblue" points="918.89,-69.88 908.79,-73.08 918.68,-76.88 918.89,-69.88"/>
</g>
<!-- Node27&#45;&gt;Node20 -->
<g id="edge55" class="edge">
<title>Node27&#45;&gt;Node20</title>
<path fill="none" stroke="midnightblue" d="M1095.7,-303.33C1091.07,-302.88 1086.47,-302.43 1082,-302 949.83,-289.19 796.7,-274.53 702.33,-265.52"/>
<polygon fill="midnightblue" stroke="midnightblue" points="702.54,-262.03 692.25,-264.56 701.87,-268.99 702.54,-262.03"/>
</g>
<!-- Node28&#45;&gt;Node6 -->
<g id="edge59" class="edge">
<title>Node28&#45;&gt;Node6</title>
<path fill="none" stroke="midnightblue" d="M1256.36,-358.37C1260.78,-345.7 1267.28,-321.48 1261,-302 1240.31,-237.86 1185.02,-177.56 1156.91,-149.87"/>
<polygon fill="midnightblue" stroke="midnightblue" points="1159.07,-147.09 1149.44,-142.66 1154.2,-152.12 1159.07,-147.09"/>
</g>
<!-- Node28&#45;&gt;Node10 -->
<g id="edge58" class="edge">
<title>Node28&#45;&gt;Node10</title>
<path fill="none" stroke="midnightblue" d="M1195.31,-358.48C1144.2,-350.51 1067.71,-337.5 1002,-322 971.34,-314.77 965.01,-307.57 934,-302 707.74,-261.33 633.77,-345.33 418,-266 349.44,-240.79 304.18,-188.25 337,-123 345.18,-106.73 361.37,-94.38 375.89,-85.97"/>
<polygon fill="midnightblue" stroke="midnightblue" points="377.96,-88.83 385.1,-81.01 374.64,-82.67 377.96,-88.83"/>
</g>
<!-- Node28&#45;&gt;Node11 -->
<g id="edge60" class="edge">
<title>Node28&#45;&gt;Node11</title>
<path fill="none" stroke="midnightblue" d="M1324.36,-358.47C1411.99,-347.7 1550.19,-329.67 1559,-322 1581.7,-302.24 1578,-287.1 1578,-257 1578,-257 1578,-257 1578,-193.5 1578,-116.76 1315.28,-85.68 1205.91,-76.07"/>
<polygon fill="midnightblue" stroke="midnightblue" points="1206.08,-72.57 1195.82,-75.21 1205.48,-79.55 1206.08,-72.57"/>
</g>
<!-- Node28&#45;&gt;Node14 -->
<g id="edge64" class="edge">
<title>Node28&#45;&gt;Node14</title>
<path fill="none" stroke="midnightblue" d="M1262.59,-358.34C1280.67,-341.02 1318,-300.03 1318,-257 1318,-257 1318,-257 1318,-193.5 1318,-112.17 1057.53,-85.05 918.75,-76.37"/>
<polygon fill="midnightblue" stroke="midnightblue" points="918.76,-72.86 908.56,-75.75 918.33,-79.85 918.76,-72.86"/>
</g>
<!-- Node28&#45;&gt;Node20 -->
<g id="edge63" class="edge">
<title>Node28&#45;&gt;Node20</title>
<path fill="none" stroke="midnightblue" d="M1221.7,-358.5C1160.12,-341.8 1027.3,-306 1006,-302 902.6,-282.58 782.21,-270.29 702.2,-263.55"/>
<polygon fill="midnightblue" stroke="midnightblue" points="702.42,-260.05 692.16,-262.71 701.84,-267.03 702.42,-260.05"/>
</g>
<!-- Node28&#45;&gt;Node27 -->
<g id="edge65" class="edge">
<title>Node28&#45;&gt;Node27</title>
<path fill="none" stroke="midnightblue" d="M1240.31,-358.32C1228.1,-349.98 1209.42,-337.21 1195,-327.35"/>
<polygon fill="midnightblue" stroke="midnightblue" points="1196.89,-324.41 1186.66,-321.65 1192.94,-330.19 1196.89,-324.41"/>
</g>
<!-- Node29 -->
<g id="node29" class="node">
<title>Node29</title>
<g id="a_node29"><a xlink:title=" ">
<polygon fill="none" stroke="#bfbfbf" points="1346.5,-302.5 1346.5,-321.5 1397.5,-321.5 1397.5,-302.5 1346.5,-302.5"/>
<text text-anchor="middle" x="1372" y="-309.5" font-family="Helvetica,sans-Serif" font-size="10.00">variant</text>
</a>
</g>
</g>
<!-- Node28&#45;&gt;Node29 -->
<g id="edge61" class="edge">
<title>Node28&#45;&gt;Node29</title>
<path fill="none" stroke="midnightblue" d="M1271.86,-358.44C1291.27,-349.64 1321.73,-335.81 1343.96,-325.72"/>
<polygon fill="midnightblue" stroke="midnightblue" points="1345.57,-328.84 1353.23,-321.52 1342.68,-322.46 1345.57,-328.84"/>
</g>
<!-- Node30 -->
<g id="node30" class="node">
<title>Node30</title>
<g id="a_node30"><a xlink:href="NodeIds_8h.html" target="_top" xlink:title=" ">
<polygon fill="none" stroke="black" points="1416,-302.5 1416,-321.5 1550,-321.5 1550,-302.5 1416,-302.5"/>
<text text-anchor="middle" x="1483" y="-309.5" font-family="Helvetica,sans-Serif" font-size="10.00">open62541pp/NodeIds.h</text>
</a>
</g>
</g>
<!-- Node28&#45;&gt;Node30 -->
<g id="edge62" class="edge">
<title>Node28&#45;&gt;Node30</title>
<path fill="none" stroke="midnightblue" d="M1289.44,-358.44C1329.4,-349.06 1393.59,-333.99 1436.98,-323.8"/>
<polygon fill="midnightblue" stroke="midnightblue" points="1437.79,-327.21 1446.73,-321.52 1436.19,-320.39 1437.79,-327.21"/>
</g>
</g>
</svg>
