<?xml version="1.0" encoding="UTF-8" standalone="no"?>
<!DOCTYPE svg PUBLIC "-//W3C//DTD SVG 1.1//EN"
 "http://www.w3.org/Graphics/SVG/1.1/DTD/svg11.dtd">
<!-- Generated by graphviz version 2.43.0 (0)
 -->
<!-- Title: /home/runner/work/open62541pp/open62541pp/include/open62541pp/types/Composed.h Pages: 1 -->
<svg width="808pt" height="280pt"
 viewBox="0.00 0.00 808.39 280.00" xmlns="http://www.w3.org/2000/svg" xmlns:xlink="http://www.w3.org/1999/xlink">
<g id="graph0" class="graph" transform="scale(1 1) rotate(0) translate(4 276)">
<title>/home/runner/work/open62541pp/open62541pp/include/open62541pp/types/Composed.h</title>
<!-- Node1 -->
<g id="Node000001" class="node">
<title>Node1</title>
<g id="a_Node000001"><a xlink:title=" ">
<polygon fill="#999999" stroke="#666666" points="315.39,-272 122.39,-272 122.39,-231 315.39,-231 315.39,-272"/>
<text text-anchor="start" x="130.39" y="-260" font-family="Helvetica,sans-Serif" font-size="10.00">/home/runner/work/open62541pp</text>
<text text-anchor="start" x="130.39" y="-249" font-family="Helvetica,sans-Serif" font-size="10.00">/open62541pp/include/open62541pp</text>
<text text-anchor="middle" x="218.89" y="-238" font-family="Helvetica,sans-Serif" font-size="10.00">/types/Composed.h</text>
</a>
</g>
</g>
<!-- Node2 -->
<g id="Node000002" class="node">
<title>Node2</title>
<g id="a_Node000002"><a xlink:href="AccessControl_8h.html" target="_top" xlink:title=" ">
<polygon fill="white" stroke="#666666" points="215.39,-118 22.39,-118 22.39,-77 215.39,-77 215.39,-118"/>
<text text-anchor="start" x="30.39" y="-106" font-family="Helvetica,sans-Serif" font-size="10.00">/home/runner/work/open62541pp</text>
<text text-anchor="start" x="30.39" y="-95" font-family="Helvetica,sans-Serif" font-size="10.00">/open62541pp/include/open62541pp</text>
<text text-anchor="middle" x="118.89" y="-84" font-family="Helvetica,sans-Serif" font-size="10.00">/AccessControl.h</text>
</a>
</g>
</g>
<!-- Node1&#45;&gt;Node2 -->
<g id="edge1_Node000001_Node000002" class="edge">
<title>Node1&#45;&gt;Node2</title>
<g id="a_edge1_Node000001_Node000002"><a xlink:title=" ">
<path fill="none" stroke="#63b8ff" d="M173.59,-225.27C162.12,-216.96 150.82,-206.78 142.89,-195 127.19,-171.65 121.76,-138.91 119.88,-118.21"/>
<polygon fill="#63b8ff" stroke="#63b8ff" points="171.7,-228.22 181.93,-230.98 175.66,-222.44 171.7,-228.22"/>
</a>
</g>
</g>
<!-- Node3 -->
<g id="Node000003" class="node">
<title>Node3</title>
<g id="a_Node000003"><a xlink:href="open62541pp_8h.html" target="_top" xlink:title=" ">
<polygon fill="white" stroke="#666666" points="321.39,-41 128.39,-41 128.39,0 321.39,0 321.39,-41"/>
<text text-anchor="start" x="136.39" y="-29" font-family="Helvetica,sans-Serif" font-size="10.00">/home/runner/work/open62541pp</text>
<text text-anchor="start" x="136.39" y="-18" font-family="Helvetica,sans-Serif" font-size="10.00">/open62541pp/include/open62541pp</text>
<text text-anchor="middle" x="224.89" y="-7" font-family="Helvetica,sans-Serif" font-size="10.00">/open62541pp.h</text>
</a>
</g>
</g>
<!-- Node1&#45;&gt;Node3 -->
<g id="edge5_Node000001_Node000003" class="edge">
<title>Node1&#45;&gt;Node3</title>
<g id="a_edge5_Node000001_Node000003"><a xlink:title=" ">
<path fill="none" stroke="#63b8ff" d="M150.9,-227.23C73.51,-197.03 -36.22,-140.63 12.89,-77 27.6,-57.95 79.54,-44.18 128.32,-35.11"/>
<polygon fill="#63b8ff" stroke="#63b8ff" points="150.05,-230.65 160.64,-230.96 152.55,-224.11 150.05,-230.65"/>
</a>
</g>
</g>
<!-- Node4 -->
<g id="Node000004" class="node">
<title>Node4</title>
<g id="a_Node000004"><a xlink:href="Node_8h.html" target="_top" xlink:title=" ">
<polygon fill="white" stroke="#666666" points="429.89,-118 233.89,-118 233.89,-77 429.89,-77 429.89,-118"/>
<text text-anchor="start" x="241.89" y="-106" font-family="Helvetica,sans-Serif" font-size="10.00">/home/runner/work/open62541pp</text>
<text text-anchor="start" x="241.89" y="-95" font-family="Helvetica,sans-Serif" font-size="10.00">/open62541pp/include/open62541pp/</text>
<text text-anchor="middle" x="331.89" y="-84" font-family="Helvetica,sans-Serif" font-size="10.00">Node.h</text>
</a>
</g>
</g>
<!-- Node1&#45;&gt;Node4 -->
<g id="edge3_Node000001_Node000004" class="edge">
<title>Node1&#45;&gt;Node4</title>
<g id="a_edge3_Node000001_Node000004"><a xlink:title=" ">
<path fill="none" stroke="#63b8ff" d="M192.32,-223.23C175.97,-203.04 160.77,-175.43 175.89,-154 185.47,-140.44 218.15,-127.81 251.15,-118.05"/>
<polygon fill="#63b8ff" stroke="#63b8ff" points="189.67,-225.51 198.83,-230.84 195,-220.97 189.67,-225.51"/>
</a>
</g>
</g>
<!-- Node5 -->
<g id="Node000005" class="node">
<title>Node5</title>
<g id="a_Node000005"><a xlink:href="Attribute_8h.html" target="_top" xlink:title=" ">
<polygon fill="white" stroke="#666666" points="378.39,-195 185.39,-195 185.39,-154 378.39,-154 378.39,-195"/>
<text text-anchor="start" x="193.39" y="-183" font-family="Helvetica,sans-Serif" font-size="10.00">/home/runner/work/open62541pp</text>
<text text-anchor="start" x="193.39" y="-172" font-family="Helvetica,sans-Serif" font-size="10.00">/open62541pp/include/open62541pp</text>
<text text-anchor="middle" x="281.89" y="-161" font-family="Helvetica,sans-Serif" font-size="10.00">/services/Attribute.h</text>
</a>
</g>
</g>
<!-- Node1&#45;&gt;Node5 -->
<g id="edge6_Node000001_Node000005" class="edge">
<title>Node1&#45;&gt;Node5</title>
<g id="a_edge6_Node000001_Node000005"><a xlink:title=" ">
<path fill="none" stroke="#63b8ff" d="M242.03,-222.95C249.8,-213.7 258.3,-203.58 265.45,-195.07"/>
<polygon fill="#63b8ff" stroke="#63b8ff" points="239.2,-220.89 235.45,-230.79 244.56,-225.39 239.2,-220.89"/>
</a>
</g>
</g>
<!-- Node7 -->
<g id="Node000007" class="node">
<title>Node7</title>
<g id="a_Node000007"><a xlink:href="NodeManagement_8h.html" target="_top" xlink:title=" ">
<polygon fill="white" stroke="#666666" points="589.39,-195 396.39,-195 396.39,-154 589.39,-154 589.39,-195"/>
<text text-anchor="start" x="404.39" y="-183" font-family="Helvetica,sans-Serif" font-size="10.00">/home/runner/work/open62541pp</text>
<text text-anchor="start" x="404.39" y="-172" font-family="Helvetica,sans-Serif" font-size="10.00">/open62541pp/include/open62541pp</text>
<text text-anchor="middle" x="492.89" y="-161" font-family="Helvetica,sans-Serif" font-size="10.00">/services/NodeManagement.h</text>
</a>
</g>
</g>
<!-- Node1&#45;&gt;Node7 -->
<g id="edge10_Node000001_Node000007" class="edge">
<title>Node1&#45;&gt;Node7</title>
<g id="a_edge10_Node000001_Node000007"><a xlink:title=" ">
<path fill="none" stroke="#63b8ff" d="M299.82,-228.35C338.42,-217.78 384.21,-205.25 421.5,-195.04"/>
<polygon fill="#63b8ff" stroke="#63b8ff" points="298.89,-224.97 290.17,-230.99 300.74,-231.73 298.89,-224.97"/>
</a>
</g>
</g>
<!-- Node8 -->
<g id="Node000008" class="node">
<title>Node8</title>
<g id="a_Node000008"><a xlink:href="View_8h.html" target="_top" xlink:title=" ">
<polygon fill="white" stroke="#666666" points="800.39,-195 607.39,-195 607.39,-154 800.39,-154 800.39,-195"/>
<text text-anchor="start" x="615.39" y="-183" font-family="Helvetica,sans-Serif" font-size="10.00">/home/runner/work/open62541pp</text>
<text text-anchor="start" x="615.39" y="-172" font-family="Helvetica,sans-Serif" font-size="10.00">/open62541pp/include/open62541pp</text>
<text text-anchor="middle" x="703.89" y="-161" font-family="Helvetica,sans-Serif" font-size="10.00">/services/View.h</text>
</a>
</g>
</g>
<!-- Node1&#45;&gt;Node8 -->
<g id="edge13_Node000001_Node000008" class="edge">
<title>Node1&#45;&gt;Node8</title>
<g id="a_edge13_Node000001_Node000008"><a xlink:title=" ">
<path fill="none" stroke="#63b8ff" d="M325.59,-236.04C401.85,-225.43 506.83,-210.27 598.89,-195 601.64,-194.55 604.42,-194.08 607.23,-193.6"/>
<polygon fill="#63b8ff" stroke="#63b8ff" points="324.92,-232.6 315.5,-237.44 325.88,-239.53 324.92,-232.6"/>
</a>
</g>
</g>
<!-- Node2&#45;&gt;Node3 -->
<g id="edge2_Node000002_Node000003" class="edge">
<title>Node2&#45;&gt;Node3</title>
<g id="a_edge2_Node000002_Node000003"><a xlink:title=" ">
<path fill="none" stroke="#63b8ff" d="M154.8,-71.09C168.61,-61.32 184.16,-50.32 197.09,-41.17"/>
<polygon fill="#63b8ff" stroke="#63b8ff" points="152.61,-68.36 146.47,-76.99 156.65,-74.07 152.61,-68.36"/>
</a>
</g>
</g>
<!-- Node4&#45;&gt;Node3 -->
<g id="edge4_Node000004_Node000003" class="edge">
<title>Node4&#45;&gt;Node3</title>
<g id="a_edge4_Node000004_Node000003"><a xlink:title=" ">
<path fill="none" stroke="#63b8ff" d="M295.65,-71.09C281.71,-61.32 266.02,-50.32 252.96,-41.17"/>
<polygon fill="#63b8ff" stroke="#63b8ff" points="293.86,-74.12 304.06,-76.99 297.88,-68.38 293.86,-74.12"/>
</a>
</g>
</g>
<!-- Node5&#45;&gt;Node4 -->
<g id="edge7_Node000005_Node000004" class="edge">
<title>Node5&#45;&gt;Node4</title>
<g id="a_edge7_Node000005_Node000004"><a xlink:title=" ">
<path fill="none" stroke="#63b8ff" d="M300.63,-145.39C306.7,-136.3 313.29,-126.41 318.85,-118.07"/>
<polygon fill="#63b8ff" stroke="#63b8ff" points="297.67,-143.53 295.03,-153.79 303.49,-147.42 297.67,-143.53"/>
</a>
</g>
</g>
<!-- Node6 -->
<g id="Node000006" class="node">
<title>Node6</title>
<g id="a_Node000006"><a xlink:href="services_8h.html" target="_top" xlink:title=" ">
<polygon fill="white" stroke="#666666" points="641.39,-118 448.39,-118 448.39,-77 641.39,-77 641.39,-118"/>
<text text-anchor="start" x="456.39" y="-106" font-family="Helvetica,sans-Serif" font-size="10.00">/home/runner/work/open62541pp</text>
<text text-anchor="start" x="456.39" y="-95" font-family="Helvetica,sans-Serif" font-size="10.00">/open62541pp/include/open62541pp</text>
<text text-anchor="middle" x="544.89" y="-84" font-family="Helvetica,sans-Serif" font-size="10.00">/services/services.h</text>
</a>
</g>
</g>
<!-- Node5&#45;&gt;Node6 -->
<g id="edge8_Node000005_Node000006" class="edge">
<title>Node5&#45;&gt;Node6</title>
<g id="a_edge8_Node000005_Node000006"><a xlink:title=" ">
<path fill="none" stroke="#63b8ff" d="M360.04,-151.21C397,-140.68 440.72,-128.21 476.37,-118.04"/>
<polygon fill="#63b8ff" stroke="#63b8ff" points="358.96,-147.88 350.31,-153.99 360.88,-154.61 358.96,-147.88"/>
</a>
</g>
</g>
<!-- Node6&#45;&gt;Node3 -->
<g id="edge9_Node000006_Node000003" class="edge">
<title>Node6&#45;&gt;Node3</title>
<g id="a_edge9_Node000006_Node000003"><a xlink:title=" ">
<path fill="none" stroke="#63b8ff" d="M451.81,-74.68C406.43,-64.05 352.29,-51.36 308.27,-41.04"/>
<polygon fill="#63b8ff" stroke="#63b8ff" points="451.12,-78.12 461.65,-76.99 452.72,-71.3 451.12,-78.12"/>
</a>
</g>
</g>
<!-- Node7&#45;&gt;Node4 -->
<g id="edge11_Node000007_Node000004" class="edge">
<title>Node7&#45;&gt;Node4</title>
<g id="a_edge11_Node000007_Node000004"><a xlink:title=" ">
<path fill="none" stroke="#63b8ff" d="M441.85,-149.72C419.94,-139.51 394.64,-127.73 373.84,-118.04"/>
<polygon fill="#63b8ff" stroke="#63b8ff" points="440.47,-152.94 451.01,-153.99 443.43,-146.6 440.47,-152.94"/>
</a>
</g>
</g>
<!-- Node7&#45;&gt;Node6 -->
<g id="edge12_Node000007_Node000006" class="edge">
<title>Node7&#45;&gt;Node6</title>
<g id="a_edge12_Node000007_Node000006"><a xlink:title=" ">
<path fill="none" stroke="#63b8ff" d="M512.38,-145.39C518.69,-136.3 525.54,-126.41 531.32,-118.07"/>
<polygon fill="#63b8ff" stroke="#63b8ff" points="509.38,-143.58 506.56,-153.79 515.13,-147.57 509.38,-143.58"/>
</a>
</g>
</g>
<!-- Node8&#45;&gt;Node4 -->
<g id="edge14_Node000008_Node000004" class="edge">
<title>Node8&#45;&gt;Node4</title>
<g id="a_edge14_Node000008_Node000004"><a xlink:title=" ">
<path fill="none" stroke="#63b8ff" d="M597.01,-151.95C543.99,-141.26 480.42,-128.44 428.82,-118.04"/>
<polygon fill="#63b8ff" stroke="#63b8ff" points="596.63,-155.44 607.13,-153.99 598.02,-148.58 596.63,-155.44"/>
</a>
</g>
</g>
<!-- Node8&#45;&gt;Node6 -->
<g id="edge15_Node000008_Node000006" class="edge">
<title>Node8&#45;&gt;Node6</title>
<g id="a_edge15_Node000008_Node000006"><a xlink:title=" ">
<path fill="none" stroke="#63b8ff" d="M653.49,-149.72C631.84,-139.51 606.86,-127.73 586.32,-118.04"/>
<polygon fill="#63b8ff" stroke="#63b8ff" points="652,-152.89 662.53,-153.99 654.98,-146.56 652,-152.89"/>
</a>
</g>
</g>
</g>
</svg>
