<?xml version="1.0" encoding="UTF-8" standalone="no"?>
<!DOCTYPE svg PUBLIC "-//W3C//DTD SVG 1.1//EN"
 "http://www.w3.org/Graphics/SVG/1.1/DTD/svg11.dtd">
<!-- Generated by graphviz version 2.43.0 (0)
 -->
<!-- Title: /home/runner/work/open62541pp/open62541pp/include/open62541pp/overloads/comparison.h Pages: 1 -->
<svg width="1733pt" height="742pt"
 viewBox="0.00 0.00 1733.00 742.00" xmlns="http://www.w3.org/2000/svg" xmlns:xlink="http://www.w3.org/1999/xlink">
<g id="graph0" class="graph" transform="scale(1 1) rotate(0) translate(4 738)">
<title>/home/runner/work/open62541pp/open62541pp/include/open62541pp/overloads/comparison.h</title>
<!-- Node1 -->
<g id="Node000001" class="node">
<title>Node1</title>
<g id="a_Node000001"><a xlink:title=" ">
<polygon fill="#999999" stroke="#666666" points="441.5,-734 248.5,-734 248.5,-693 441.5,-693 441.5,-734"/>
<text text-anchor="start" x="256.5" y="-722" font-family="Helvetica,sans-Serif" font-size="10.00">/home/runner/work/open62541pp</text>
<text text-anchor="start" x="256.5" y="-711" font-family="Helvetica,sans-Serif" font-size="10.00">/open62541pp/include/open62541pp</text>
<text text-anchor="middle" x="345" y="-700" font-family="Helvetica,sans-Serif" font-size="10.00">/overloads/comparison.h</text>
</a>
</g>
</g>
<!-- Node2 -->
<g id="Node000002" class="node">
<title>Node2</title>
<g id="a_Node000002"><a xlink:href="TypeWrapper_8h.html" target="_top" xlink:title=" ">
<polygon fill="white" stroke="#666666" points="786.5,-657 593.5,-657 593.5,-616 786.5,-616 786.5,-657"/>
<text text-anchor="start" x="601.5" y="-645" font-family="Helvetica,sans-Serif" font-size="10.00">/home/runner/work/open62541pp</text>
<text text-anchor="start" x="601.5" y="-634" font-family="Helvetica,sans-Serif" font-size="10.00">/open62541pp/include/open62541pp</text>
<text text-anchor="middle" x="690" y="-623" font-family="Helvetica,sans-Serif" font-size="10.00">/TypeWrapper.h</text>
</a>
</g>
</g>
<!-- Node1&#45;&gt;Node2 -->
<g id="edge1_Node000001_Node000002" class="edge">
<title>Node1&#45;&gt;Node2</title>
<g id="a_edge1_Node000001_Node000002"><a xlink:title=" ">
<path fill="none" stroke="#63b8ff" d="M444.74,-690.82C493.79,-680.15 552.45,-667.4 600.11,-657.04"/>
<polygon fill="#63b8ff" stroke="#63b8ff" points="443.77,-687.45 434.74,-692.99 445.26,-694.29 443.77,-687.45"/>
</a>
</g>
</g>
<!-- Node5 -->
<g id="Node000005" class="node">
<title>Node5</title>
<g id="a_Node000005"><a xlink:href="open62541pp_8h.html" target="_top" xlink:title=" ">
<polygon fill="white" stroke="#666666" points="1055.5,-41 862.5,-41 862.5,0 1055.5,0 1055.5,-41"/>
<text text-anchor="start" x="870.5" y="-29" font-family="Helvetica,sans-Serif" font-size="10.00">/home/runner/work/open62541pp</text>
<text text-anchor="start" x="870.5" y="-18" font-family="Helvetica,sans-Serif" font-size="10.00">/open62541pp/include/open62541pp</text>
<text text-anchor="middle" x="959" y="-7" font-family="Helvetica,sans-Serif" font-size="10.00">/open62541pp.h</text>
</a>
</g>
</g>
<!-- Node1&#45;&gt;Node5 -->
<g id="edge68_Node000001_Node000005" class="edge">
<title>Node1&#45;&gt;Node5</title>
<g id="a_edge68_Node000001_Node000005"><a xlink:title=" ">
<path fill="none" stroke="#63b8ff" d="M238.44,-708.84C137.09,-698.98 0,-666.12 0,-560.5 0,-560.5 0,-560.5 0,-173.5 0,-116.35 33.69,-102.17 85,-77 153.34,-43.48 649.55,-28.44 862.43,-23.48"/>
<polygon fill="#63b8ff" stroke="#63b8ff" points="238.16,-712.33 248.44,-709.75 238.8,-705.36 238.16,-712.33"/>
</a>
</g>
</g>
<!-- Node3 -->
<g id="Node000003" class="node">
<title>Node3</title>
<g id="a_Node000003"><a xlink:href="TypeConverter_8h.html" target="_top" xlink:title=" ">
<polygon fill="white" stroke="#666666" points="585.5,-503 392.5,-503 392.5,-462 585.5,-462 585.5,-503"/>
<text text-anchor="start" x="400.5" y="-491" font-family="Helvetica,sans-Serif" font-size="10.00">/home/runner/work/open62541pp</text>
<text text-anchor="start" x="400.5" y="-480" font-family="Helvetica,sans-Serif" font-size="10.00">/open62541pp/include/open62541pp</text>
<text text-anchor="middle" x="489" y="-469" font-family="Helvetica,sans-Serif" font-size="10.00">/TypeConverter.h</text>
</a>
</g>
</g>
<!-- Node2&#45;&gt;Node3 -->
<g id="edge2_Node000002_Node000003" class="edge">
<title>Node2&#45;&gt;Node3</title>
<g id="a_edge2_Node000002_Node000003"><a xlink:title=" ">
<path fill="none" stroke="#63b8ff" d="M656.04,-609.82C616.24,-579.72 551.14,-530.49 515.08,-503.23"/>
<polygon fill="#63b8ff" stroke="#63b8ff" points="654.05,-612.7 664.13,-615.94 658.27,-607.12 654.05,-612.7"/>
</a>
</g>
</g>
<!-- Node2&#45;&gt;Node5 -->
<g id="edge39_Node000002_Node000005" class="edge">
<title>Node2&#45;&gt;Node5</title>
<g id="a_edge39_Node000002_Node000005"><a xlink:title=" ">
<path fill="none" stroke="#63b8ff" d="M796.91,-630.89C1061.38,-618.05 1725,-576.57 1725,-483.5 1725,-483.5 1725,-483.5 1725,-173.5 1725,-120.25 1700.52,-102.9 1654,-77 1603.01,-48.6 1234.34,-31.49 1055.63,-24.78"/>
<polygon fill="#63b8ff" stroke="#63b8ff" points="796.73,-627.39 786.91,-631.37 797.06,-634.38 796.73,-627.39"/>
</a>
</g>
</g>
<!-- Node7 -->
<g id="Node000007" class="node">
<title>Node7</title>
<g id="a_Node000007"><a xlink:href="Composed_8h.html" target="_top" xlink:title=" ">
<polygon fill="white" stroke="#666666" points="1180.5,-272 987.5,-272 987.5,-231 1180.5,-231 1180.5,-272"/>
<text text-anchor="start" x="995.5" y="-260" font-family="Helvetica,sans-Serif" font-size="10.00">/home/runner/work/open62541pp</text>
<text text-anchor="start" x="995.5" y="-249" font-family="Helvetica,sans-Serif" font-size="10.00">/open62541pp/include/open62541pp</text>
<text text-anchor="middle" x="1084" y="-238" font-family="Helvetica,sans-Serif" font-size="10.00">/types/Composed.h</text>
</a>
</g>
</g>
<!-- Node2&#45;&gt;Node7 -->
<g id="edge59_Node000002_Node000007" class="edge">
<title>Node2&#45;&gt;Node7</title>
<g id="a_edge59_Node000002_Node000007"><a xlink:title=" ">
<path fill="none" stroke="#63b8ff" d="M796.91,-629.49C965.47,-617.05 1274,-580.97 1274,-483.5 1274,-483.5 1274,-483.5 1274,-404.5 1274,-336.91 1199.78,-294.43 1144.12,-272.08"/>
<polygon fill="#63b8ff" stroke="#63b8ff" points="796.49,-626.01 786.76,-630.22 796.99,-632.99 796.49,-626.01"/>
</a>
</g>
</g>
<!-- Node11 -->
<g id="Node000011" class="node">
<title>Node11</title>
<g id="a_Node000011"><a xlink:href="ExtensionObject_8h.html" target="_top" xlink:title=" ">
<polygon fill="white" stroke="#666666" points="1495.5,-426 1302.5,-426 1302.5,-385 1495.5,-385 1495.5,-426"/>
<text text-anchor="start" x="1310.5" y="-414" font-family="Helvetica,sans-Serif" font-size="10.00">/home/runner/work/open62541pp</text>
<text text-anchor="start" x="1310.5" y="-403" font-family="Helvetica,sans-Serif" font-size="10.00">/open62541pp/include/open62541pp</text>
<text text-anchor="middle" x="1399" y="-392" font-family="Helvetica,sans-Serif" font-size="10.00">/types/ExtensionObject.h</text>
</a>
</g>
</g>
<!-- Node2&#45;&gt;Node11 -->
<g id="edge65_Node000002_Node000011" class="edge">
<title>Node2&#45;&gt;Node11</title>
<g id="a_edge65_Node000002_Node000011"><a xlink:title=" ">
<path fill="none" stroke="#63b8ff" d="M796.97,-630.65C957.7,-622.6 1247.16,-604.88 1288,-580 1347.09,-544.01 1380.27,-463.3 1392.95,-426.04"/>
<polygon fill="#63b8ff" stroke="#63b8ff" points="796.38,-627.18 786.57,-631.17 796.73,-634.17 796.38,-627.18"/>
</a>
</g>
</g>
<!-- Node16 -->
<g id="Node000016" class="node">
<title>Node16</title>
<g id="a_Node000016"><a xlink:href="Variant_8h.html" target="_top" xlink:title=" ">
<polygon fill="white" stroke="#666666" points="585.5,-426 392.5,-426 392.5,-385 585.5,-385 585.5,-426"/>
<text text-anchor="start" x="400.5" y="-414" font-family="Helvetica,sans-Serif" font-size="10.00">/home/runner/work/open62541pp</text>
<text text-anchor="start" x="400.5" y="-403" font-family="Helvetica,sans-Serif" font-size="10.00">/open62541pp/include/open62541pp</text>
<text text-anchor="middle" x="489" y="-392" font-family="Helvetica,sans-Serif" font-size="10.00">/types/Variant.h</text>
</a>
</g>
</g>
<!-- Node2&#45;&gt;Node16 -->
<g id="edge67_Node000002_Node000016" class="edge">
<title>Node2&#45;&gt;Node16</title>
<g id="a_edge67_Node000002_Node000016"><a xlink:title=" ">
<path fill="none" stroke="#63b8ff" d="M679.84,-606.2C665.63,-568.78 636.68,-503.87 594,-462 578.69,-446.98 558.49,-435.01 539.9,-426.08"/>
<polygon fill="#63b8ff" stroke="#63b8ff" points="676.71,-607.82 683.46,-615.98 683.27,-605.39 676.71,-607.82"/>
</a>
</g>
</g>
<!-- Node17 -->
<g id="Node000017" class="node">
<title>Node17</title>
<g id="a_Node000017"><a xlink:href="Attribute_8h.html" target="_top" xlink:title=" ">
<polygon fill="white" stroke="#666666" points="566.5,-272 373.5,-272 373.5,-231 566.5,-231 566.5,-272"/>
<text text-anchor="start" x="381.5" y="-260" font-family="Helvetica,sans-Serif" font-size="10.00">/home/runner/work/open62541pp</text>
<text text-anchor="start" x="381.5" y="-249" font-family="Helvetica,sans-Serif" font-size="10.00">/open62541pp/include/open62541pp</text>
<text text-anchor="middle" x="470" y="-238" font-family="Helvetica,sans-Serif" font-size="10.00">/services/Attribute.h</text>
</a>
</g>
</g>
<!-- Node2&#45;&gt;Node17 -->
<g id="edge40_Node000002_Node000017" class="edge">
<title>Node2&#45;&gt;Node17</title>
<g id="a_edge40_Node000002_Node000017"><a xlink:title=" ">
<path fill="none" stroke="#63b8ff" d="M687.51,-605.78C685.3,-586.4 681.25,-560.75 674,-539 649.61,-465.83 641.2,-446 594,-385 579.36,-366.08 570.77,-366.05 554,-349 529.08,-323.66 502.5,-292.3 486.06,-272.34"/>
<polygon fill="#63b8ff" stroke="#63b8ff" points="684.04,-606.26 688.56,-615.84 691.01,-605.53 684.04,-606.26"/>
</a>
</g>
</g>
<!-- Node18 -->
<g id="Node000018" class="node">
<title>Node18</title>
<g id="a_Node000018"><a xlink:href="DataValue_8h.html" target="_top" xlink:title=" ">
<polygon fill="white" stroke="#666666" points="433.5,-349 240.5,-349 240.5,-308 433.5,-308 433.5,-349"/>
<text text-anchor="start" x="248.5" y="-337" font-family="Helvetica,sans-Serif" font-size="10.00">/home/runner/work/open62541pp</text>
<text text-anchor="start" x="248.5" y="-326" font-family="Helvetica,sans-Serif" font-size="10.00">/open62541pp/include/open62541pp</text>
<text text-anchor="middle" x="337" y="-315" font-family="Helvetica,sans-Serif" font-size="10.00">/types/DataValue.h</text>
</a>
</g>
</g>
<!-- Node2&#45;&gt;Node18 -->
<g id="edge60_Node000002_Node000018" class="edge">
<title>Node2&#45;&gt;Node18</title>
<g id="a_edge60_Node000002_Node000018"><a xlink:title=" ">
<path fill="none" stroke="#63b8ff" d="M583.2,-631.75C431.98,-625.4 170.25,-610.17 139,-580 76.29,-519.46 64.47,-453.79 118,-385 133.54,-365.03 189.02,-351.1 240.25,-342.18"/>
<polygon fill="#63b8ff" stroke="#63b8ff" points="583.3,-635.26 593.44,-632.18 583.59,-628.27 583.3,-635.26"/>
</a>
</g>
</g>
<!-- Node19 -->
<g id="Node000019" class="node">
<title>Node19</title>
<g id="a_Node000019"><a xlink:href="Builtin_8h.html" target="_top" xlink:title=" ">
<polygon fill="white" stroke="#666666" points="949.5,-426 756.5,-426 756.5,-385 949.5,-385 949.5,-426"/>
<text text-anchor="start" x="764.5" y="-414" font-family="Helvetica,sans-Serif" font-size="10.00">/home/runner/work/open62541pp</text>
<text text-anchor="start" x="764.5" y="-403" font-family="Helvetica,sans-Serif" font-size="10.00">/open62541pp/include/open62541pp</text>
<text text-anchor="middle" x="853" y="-392" font-family="Helvetica,sans-Serif" font-size="10.00">/types/Builtin.h</text>
</a>
</g>
</g>
<!-- Node2&#45;&gt;Node19 -->
<g id="edge41_Node000002_Node000019" class="edge">
<title>Node2&#45;&gt;Node19</title>
<g id="a_edge41_Node000002_Node000019"><a xlink:title=" ">
<path fill="none" stroke="#63b8ff" d="M717.07,-608.61C725.43,-599.79 734.41,-589.75 742,-580 783.05,-527.22 823.36,-458.97 842.1,-426.01"/>
<polygon fill="#63b8ff" stroke="#63b8ff" points="714.37,-606.37 709.95,-616 719.41,-611.23 714.37,-606.37"/>
</a>
</g>
</g>
<!-- Node20 -->
<g id="Node000020" class="node">
<title>Node20</title>
<g id="a_Node000020"><a xlink:href="NodeId_8h.html" target="_top" xlink:title=" ">
<polygon fill="white" stroke="#666666" points="911.5,-349 718.5,-349 718.5,-308 911.5,-308 911.5,-349"/>
<text text-anchor="start" x="726.5" y="-337" font-family="Helvetica,sans-Serif" font-size="10.00">/home/runner/work/open62541pp</text>
<text text-anchor="start" x="726.5" y="-326" font-family="Helvetica,sans-Serif" font-size="10.00">/open62541pp/include/open62541pp</text>
<text text-anchor="middle" x="815" y="-315" font-family="Helvetica,sans-Serif" font-size="10.00">/types/NodeId.h</text>
</a>
</g>
</g>
<!-- Node2&#45;&gt;Node20 -->
<g id="edge66_Node000002_Node000020" class="edge">
<title>Node2&#45;&gt;Node20</title>
<g id="a_edge66_Node000002_Node000020"><a xlink:title=" ">
<path fill="none" stroke="#63b8ff" d="M697.62,-606C699.73,-597.61 702,-588.46 704,-580 724.41,-493.63 700.49,-460.58 747,-385 755.79,-370.72 769.58,-358.47 782.45,-349.14"/>
<polygon fill="#63b8ff" stroke="#63b8ff" points="694.21,-605.2 695.13,-615.76 700.99,-606.93 694.21,-605.2"/>
</a>
</g>
</g>
<!-- Node22 -->
<g id="Node000022" class="node">
<title>Node22</title>
<g id="a_Node000022"><a xlink:href="DateTime_8h.html" target="_top" xlink:title=" ">
<polygon fill="white" stroke="#666666" points="341.5,-580 148.5,-580 148.5,-539 341.5,-539 341.5,-580"/>
<text text-anchor="start" x="156.5" y="-568" font-family="Helvetica,sans-Serif" font-size="10.00">/home/runner/work/open62541pp</text>
<text text-anchor="start" x="156.5" y="-557" font-family="Helvetica,sans-Serif" font-size="10.00">/open62541pp/include/open62541pp</text>
<text text-anchor="middle" x="245" y="-546" font-family="Helvetica,sans-Serif" font-size="10.00">/types/DateTime.h</text>
</a>
</g>
</g>
<!-- Node2&#45;&gt;Node22 -->
<g id="edge61_Node000002_Node000022" class="edge">
<title>Node2&#45;&gt;Node22</title>
<g id="a_edge61_Node000002_Node000022"><a xlink:title=" ">
<path fill="none" stroke="#63b8ff" d="M583.23,-617.51C509.77,-605.12 412.97,-588.81 341.75,-576.81"/>
<polygon fill="#63b8ff" stroke="#63b8ff" points="583,-621.02 593.44,-619.23 584.16,-614.11 583,-621.02"/>
</a>
</g>
</g>
<!-- Node4 -->
<g id="Node000004" class="node">
<title>Node4</title>
<g id="a_Node000004"><a xlink:href="Node_8h.html" target="_top" xlink:title=" ">
<polygon fill="white" stroke="#666666" points="731,-195 535,-195 535,-154 731,-154 731,-195"/>
<text text-anchor="start" x="543" y="-183" font-family="Helvetica,sans-Serif" font-size="10.00">/home/runner/work/open62541pp</text>
<text text-anchor="start" x="543" y="-172" font-family="Helvetica,sans-Serif" font-size="10.00">/open62541pp/include/open62541pp/</text>
<text text-anchor="middle" x="633" y="-161" font-family="Helvetica,sans-Serif" font-size="10.00">Node.h</text>
</a>
</g>
</g>
<!-- Node3&#45;&gt;Node4 -->
<g id="edge3_Node000003_Node000004" class="edge">
<title>Node3&#45;&gt;Node4</title>
<g id="a_edge3_Node000003_Node000004"><a xlink:title=" ">
<path fill="none" stroke="#63b8ff" d="M557.64,-457.04C571.57,-449.13 584.77,-438.94 594,-426 620.51,-388.82 629.67,-247.34 632.19,-195.06"/>
<polygon fill="#63b8ff" stroke="#63b8ff" points="555.61,-454.15 548.41,-461.91 558.88,-460.34 555.61,-454.15"/>
</a>
</g>
</g>
<!-- Node3&#45;&gt;Node5 -->
<g id="edge8_Node000003_Node000005" class="edge">
<title>Node3&#45;&gt;Node5</title>
<g id="a_edge8_Node000003_Node000005"><a xlink:title=" ">
<path fill="none" stroke="#63b8ff" d="M434.38,-457.22C417.22,-448.48 398.67,-437.82 383,-426 362.92,-410.85 365.65,-397.79 344,-385 289.8,-352.97 253.1,-391.87 207,-349 173.81,-318.13 174,-297.83 174,-252.5 174,-252.5 174,-252.5 174,-173.5 174,-119.45 200.5,-102.78 248,-77 300.68,-48.41 680.4,-31.32 862.32,-24.69"/>
<polygon fill="#63b8ff" stroke="#63b8ff" points="433.23,-460.56 443.74,-461.87 436.35,-454.29 433.23,-460.56"/>
</a>
</g>
</g>
<!-- Node6 -->
<g id="Node000006" class="node">
<title>Node6</title>
<g id="a_Node000006"><a xlink:href="TypeConverterNative_8h.html" target="_top" xlink:title=" ">
<polygon fill="white" stroke="#666666" points="335.5,-426 142.5,-426 142.5,-385 335.5,-385 335.5,-426"/>
<text text-anchor="start" x="150.5" y="-414" font-family="Helvetica,sans-Serif" font-size="10.00">/home/runner/work/open62541pp</text>
<text text-anchor="start" x="150.5" y="-403" font-family="Helvetica,sans-Serif" font-size="10.00">/open62541pp/include/open62541pp</text>
<text text-anchor="middle" x="239" y="-392" font-family="Helvetica,sans-Serif" font-size="10.00">/TypeConverterNative.h</text>
</a>
</g>
</g>
<!-- Node3&#45;&gt;Node6 -->
<g id="edge5_Node000003_Node000006" class="edge">
<title>Node3&#45;&gt;Node6</title>
<g id="a_edge5_Node000003_Node000006"><a xlink:title=" ">
<path fill="none" stroke="#63b8ff" d="M408.03,-459.08C372.24,-448.57 330.97,-436.16 298.13,-426.04"/>
<polygon fill="#63b8ff" stroke="#63b8ff" points="407.38,-462.54 417.96,-461.99 409.35,-455.82 407.38,-462.54"/>
</a>
</g>
</g>
<!-- Node3&#45;&gt;Node7 -->
<g id="edge9_Node000003_Node000007" class="edge">
<title>Node3&#45;&gt;Node7</title>
<g id="a_edge9_Node000003_Node000007"><a xlink:title=" ">
<path fill="none" stroke="#63b8ff" d="M548.13,-458.18C611.73,-433.31 708.87,-396 747,-385 822.87,-363.1 853.62,-390.18 921,-349 940.96,-336.8 935.35,-322.12 954,-308 974.05,-292.81 998.89,-280.89 1021.46,-272.05"/>
<polygon fill="#63b8ff" stroke="#63b8ff" points="546.64,-455 538.61,-461.9 549.2,-461.52 546.64,-455"/>
</a>
</g>
</g>
<!-- Node3&#45;&gt;Node11 -->
<g id="edge17_Node000003_Node000011" class="edge">
<title>Node3&#45;&gt;Node11</title>
<g id="a_edge17_Node000003_Node000011"><a xlink:title=" ">
<path fill="none" stroke="#63b8ff" d="M595.72,-472.7C774.29,-457.99 1130.89,-428.6 1302.44,-414.46"/>
<polygon fill="#63b8ff" stroke="#63b8ff" points="595.2,-469.24 585.52,-473.54 595.78,-476.21 595.2,-469.24"/>
</a>
</g>
</g>
<!-- Node3&#45;&gt;Node16 -->
<g id="edge29_Node000003_Node000016" class="edge">
<title>Node3&#45;&gt;Node16</title>
<g id="a_edge29_Node000003_Node000016"><a xlink:title=" ">
<path fill="none" stroke="#63b8ff" d="M489,-451.69C489,-443.08 489,-433.9 489,-426.07"/>
<polygon fill="#63b8ff" stroke="#63b8ff" points="485.5,-451.79 489,-461.79 492.5,-451.79 485.5,-451.79"/>
</a>
</g>
</g>
<!-- Node4&#45;&gt;Node5 -->
<g id="edge4_Node000004_Node000005" class="edge">
<title>Node4&#45;&gt;Node5</title>
<g id="a_edge4_Node000004_Node000005"><a xlink:title=" ">
<path fill="none" stroke="#63b8ff" d="M677.48,-149C715,-128.72 770.36,-99.65 820,-77 848.25,-64.11 880.41,-51.16 906.68,-41.01"/>
<polygon fill="#63b8ff" stroke="#63b8ff" points="675.46,-146.12 668.34,-153.96 678.8,-152.27 675.46,-146.12"/>
</a>
</g>
</g>
<!-- Node6&#45;&gt;Node3 -->
<g id="edge6_Node000006_Node000003" class="edge">
<title>Node6&#45;&gt;Node3</title>
<g id="a_edge6_Node000006_Node000003"><a xlink:title=" ">
<path fill="none" stroke="#63b8ff" d="M320.09,-428.95C355.88,-439.47 397.16,-451.87 429.97,-461.99"/>
<polygon fill="#63b8ff" stroke="#63b8ff" points="320.73,-425.49 310.15,-426.04 318.76,-432.21 320.73,-425.49"/>
</a>
</g>
</g>
<!-- Node6&#45;&gt;Node5 -->
<g id="edge7_Node000006_Node000005" class="edge">
<title>Node6&#45;&gt;Node5</title>
<g id="a_edge7_Node000006_Node000005"><a xlink:title=" ">
<path fill="none" stroke="#63b8ff" d="M191.25,-379.11C179.55,-370.89 168.09,-360.79 160,-349 135.01,-312.55 136,-296.7 136,-252.5 136,-252.5 136,-252.5 136,-173.5 136,-129.3 126.15,-105.41 160,-77 212.69,-32.78 661.29,-23.76 862.28,-21.95"/>
<polygon fill="#63b8ff" stroke="#63b8ff" points="189.5,-382.14 199.77,-384.76 193.37,-376.31 189.5,-382.14"/>
</a>
</g>
</g>
<!-- Node7&#45;&gt;Node4 -->
<g id="edge12_Node000007_Node000004" class="edge">
<title>Node7&#45;&gt;Node4</title>
<g id="a_edge12_Node000007_Node000004"><a xlink:title=" ">
<path fill="none" stroke="#63b8ff" d="M977.35,-232.76C902.74,-220.36 803.82,-203.91 731.15,-191.82"/>
<polygon fill="#63b8ff" stroke="#63b8ff" points="976.81,-236.22 987.25,-234.41 977.96,-229.32 976.81,-236.22"/>
</a>
</g>
</g>
<!-- Node7&#45;&gt;Node5 -->
<g id="edge13_Node000007_Node000005" class="edge">
<title>Node7&#45;&gt;Node5</title>
<g id="a_edge13_Node000007_Node000005"><a xlink:title=" ">
<path fill="none" stroke="#63b8ff" d="M1088.69,-220.64C1092.85,-183.59 1094.38,-120.06 1065,-77 1054.17,-61.13 1037.33,-49.48 1020.23,-41.08"/>
<polygon fill="#63b8ff" stroke="#63b8ff" points="1085.19,-220.43 1087.41,-230.79 1092.14,-221.31 1085.19,-220.43"/>
</a>
</g>
</g>
<!-- Node8 -->
<g id="Node000008" class="node">
<title>Node8</title>
<g id="a_Node000008"><a xlink:href="Client_8h.html" target="_top" xlink:title=" ">
<polygon fill="white" stroke="#666666" points="1305.5,-118 1112.5,-118 1112.5,-77 1305.5,-77 1305.5,-118"/>
<text text-anchor="start" x="1120.5" y="-106" font-family="Helvetica,sans-Serif" font-size="10.00">/home/runner/work/open62541pp</text>
<text text-anchor="start" x="1120.5" y="-95" font-family="Helvetica,sans-Serif" font-size="10.00">/open62541pp/include/open62541pp</text>
<text text-anchor="middle" x="1209" y="-84" font-family="Helvetica,sans-Serif" font-size="10.00">/Client.h</text>
</a>
</g>
</g>
<!-- Node7&#45;&gt;Node8 -->
<g id="edge10_Node000007_Node000008" class="edge">
<title>Node7&#45;&gt;Node8</title>
<g id="a_edge10_Node000007_Node000008"><a xlink:title=" ">
<path fill="none" stroke="#63b8ff" d="M1110.41,-223.46C1118.8,-214.57 1127.97,-204.53 1136,-195 1157.66,-169.3 1180.76,-138.03 1195.04,-118.19"/>
<polygon fill="#63b8ff" stroke="#63b8ff" points="1107.66,-221.27 1103.29,-230.93 1112.73,-226.1 1107.66,-221.27"/>
</a>
</g>
</g>
<!-- Node9 -->
<g id="Node000009" class="node">
<title>Node9</title>
<g id="a_Node000009"><a xlink:href="View_8h.html" target="_top" xlink:title=" ">
<polygon fill="white" stroke="#666666" points="1055.5,-195 862.5,-195 862.5,-154 1055.5,-154 1055.5,-195"/>
<text text-anchor="start" x="870.5" y="-183" font-family="Helvetica,sans-Serif" font-size="10.00">/home/runner/work/open62541pp</text>
<text text-anchor="start" x="870.5" y="-172" font-family="Helvetica,sans-Serif" font-size="10.00">/open62541pp/include/open62541pp</text>
<text text-anchor="middle" x="959" y="-161" font-family="Helvetica,sans-Serif" font-size="10.00">/services/View.h</text>
</a>
</g>
</g>
<!-- Node7&#45;&gt;Node9 -->
<g id="edge14_Node000007_Node000009" class="edge">
<title>Node7&#45;&gt;Node9</title>
<g id="a_edge14_Node000007_Node000009"><a xlink:title=" ">
<path fill="none" stroke="#63b8ff" d="M1042.57,-225.64C1026.06,-215.74 1007.33,-204.5 991.79,-195.17"/>
<polygon fill="#63b8ff" stroke="#63b8ff" points="1041.11,-228.85 1051.48,-230.99 1044.71,-222.84 1041.11,-228.85"/>
</a>
</g>
</g>
<!-- Node8&#45;&gt;Node5 -->
<g id="edge11_Node000008_Node000005" class="edge">
<title>Node8&#45;&gt;Node5</title>
<g id="a_edge11_Node000008_Node000005"><a xlink:title=" ">
<path fill="none" stroke="#63b8ff" d="M1134.27,-74.08C1099.23,-63.57 1057.88,-51.16 1024.14,-41.04"/>
<polygon fill="#63b8ff" stroke="#63b8ff" points="1133.38,-77.47 1143.97,-76.99 1135.4,-70.76 1133.38,-77.47"/>
</a>
</g>
</g>
<!-- Node10 -->
<g id="Node000010" class="node">
<title>Node10</title>
<g id="a_Node000010"><a xlink:href="services_8h.html" target="_top" xlink:title=" ">
<polygon fill="white" stroke="#666666" points="1055.5,-118 862.5,-118 862.5,-77 1055.5,-77 1055.5,-118"/>
<text text-anchor="start" x="870.5" y="-106" font-family="Helvetica,sans-Serif" font-size="10.00">/home/runner/work/open62541pp</text>
<text text-anchor="start" x="870.5" y="-95" font-family="Helvetica,sans-Serif" font-size="10.00">/open62541pp/include/open62541pp</text>
<text text-anchor="middle" x="959" y="-84" font-family="Helvetica,sans-Serif" font-size="10.00">/services/services.h</text>
</a>
</g>
</g>
<!-- Node9&#45;&gt;Node10 -->
<g id="edge15_Node000009_Node000010" class="edge">
<title>Node9&#45;&gt;Node10</title>
<g id="a_edge15_Node000009_Node000010"><a xlink:title=" ">
<path fill="none" stroke="#63b8ff" d="M959,-143.69C959,-135.08 959,-125.9 959,-118.07"/>
<polygon fill="#63b8ff" stroke="#63b8ff" points="955.5,-143.79 959,-153.79 962.5,-143.79 955.5,-143.79"/>
</a>
</g>
</g>
<!-- Node10&#45;&gt;Node5 -->
<g id="edge16_Node000010_Node000005" class="edge">
<title>Node10&#45;&gt;Node5</title>
<g id="a_edge16_Node000010_Node000005"><a xlink:title=" ">
<path fill="none" stroke="#63b8ff" d="M959,-66.69C959,-58.08 959,-48.9 959,-41.07"/>
<polygon fill="#63b8ff" stroke="#63b8ff" points="955.5,-66.79 959,-76.79 962.5,-66.79 955.5,-66.79"/>
</a>
</g>
</g>
<!-- Node11&#45;&gt;Node5 -->
<g id="edge18_Node000011_Node000005" class="edge">
<title>Node11&#45;&gt;Node5</title>
<g id="a_edge18_Node000011_Node000005"><a xlink:title=" ">
<path fill="none" stroke="#63b8ff" d="M1505.61,-391.65C1587.61,-375.11 1687,-337.52 1687,-252.5 1687,-252.5 1687,-252.5 1687,-173.5 1687,-118.91 1659.06,-102.9 1611,-77 1563.34,-51.32 1225.14,-33.11 1055.52,-25.48"/>
<polygon fill="#63b8ff" stroke="#63b8ff" points="1504.86,-388.23 1495.7,-393.56 1506.18,-395.1 1504.86,-388.23"/>
</a>
</g>
</g>
<!-- Node12 -->
<g id="Node000012" class="node">
<title>Node12</title>
<g id="a_Node000012"><a xlink:href="services_2MonitoredItem_8h.html" target="_top" xlink:title=" ">
<polygon fill="white" stroke="#666666" points="1495.5,-349 1302.5,-349 1302.5,-308 1495.5,-308 1495.5,-349"/>
<text text-anchor="start" x="1310.5" y="-337" font-family="Helvetica,sans-Serif" font-size="10.00">/home/runner/work/open62541pp</text>
<text text-anchor="start" x="1310.5" y="-326" font-family="Helvetica,sans-Serif" font-size="10.00">/open62541pp/include/open62541pp</text>
<text text-anchor="middle" x="1399" y="-315" font-family="Helvetica,sans-Serif" font-size="10.00">/services/MonitoredItem.h</text>
</a>
</g>
</g>
<!-- Node11&#45;&gt;Node12 -->
<g id="edge19_Node000011_Node000012" class="edge">
<title>Node11&#45;&gt;Node12</title>
<g id="a_edge19_Node000011_Node000012"><a xlink:title=" ">
<path fill="none" stroke="#63b8ff" d="M1399,-374.69C1399,-366.08 1399,-356.9 1399,-349.07"/>
<polygon fill="#63b8ff" stroke="#63b8ff" points="1395.5,-374.79 1399,-384.79 1402.5,-374.79 1395.5,-374.79"/>
</a>
</g>
</g>
<!-- Node12&#45;&gt;Node10 -->
<g id="edge28_Node000012_Node000010" class="edge">
<title>Node12&#45;&gt;Node10</title>
<g id="a_edge28_Node000012_Node000010"><a xlink:title=" ">
<path fill="none" stroke="#63b8ff" d="M1352.58,-303.34C1265.03,-257.77 1077.11,-159.97 996.73,-118.14"/>
<polygon fill="#63b8ff" stroke="#63b8ff" points="1351,-306.46 1361.49,-307.98 1354.23,-300.25 1351,-306.46"/>
</a>
</g>
</g>
<!-- Node13 -->
<g id="Node000013" class="node">
<title>Node13</title>
<g id="a_Node000013"><a xlink:href="MonitoredItem_8h.html" target="_top" xlink:title=" ">
<polygon fill="white" stroke="#666666" points="1620.5,-272 1427.5,-272 1427.5,-231 1620.5,-231 1620.5,-272"/>
<text text-anchor="start" x="1435.5" y="-260" font-family="Helvetica,sans-Serif" font-size="10.00">/home/runner/work/open62541pp</text>
<text text-anchor="start" x="1435.5" y="-249" font-family="Helvetica,sans-Serif" font-size="10.00">/open62541pp/include/open62541pp</text>
<text text-anchor="middle" x="1524" y="-238" font-family="Helvetica,sans-Serif" font-size="10.00">/MonitoredItem.h</text>
</a>
</g>
</g>
<!-- Node12&#45;&gt;Node13 -->
<g id="edge20_Node000012_Node000013" class="edge">
<title>Node12&#45;&gt;Node13</title>
<g id="a_edge20_Node000012_Node000013"><a xlink:title=" ">
<path fill="none" stroke="#63b8ff" d="M1440.43,-302.64C1456.94,-292.74 1475.67,-281.5 1491.21,-272.17"/>
<polygon fill="#63b8ff" stroke="#63b8ff" points="1438.29,-299.84 1431.52,-307.99 1441.89,-305.85 1438.29,-299.84"/>
</a>
</g>
</g>
<!-- Node14 -->
<g id="Node000014" class="node">
<title>Node14</title>
<g id="a_Node000014"><a xlink:href="Subscription_8h.html" target="_top" xlink:title=" ">
<polygon fill="white" stroke="#666666" points="1511.5,-195 1318.5,-195 1318.5,-154 1511.5,-154 1511.5,-195"/>
<text text-anchor="start" x="1326.5" y="-183" font-family="Helvetica,sans-Serif" font-size="10.00">/home/runner/work/open62541pp</text>
<text text-anchor="start" x="1326.5" y="-172" font-family="Helvetica,sans-Serif" font-size="10.00">/open62541pp/include/open62541pp</text>
<text text-anchor="middle" x="1415" y="-161" font-family="Helvetica,sans-Serif" font-size="10.00">/Subscription.h</text>
</a>
</g>
</g>
<!-- Node12&#45;&gt;Node14 -->
<g id="edge27_Node000012_Node000014" class="edge">
<title>Node12&#45;&gt;Node14</title>
<g id="a_edge27_Node000012_Node000014"><a xlink:title=" ">
<path fill="none" stroke="#63b8ff" d="M1402.11,-297.98C1405.29,-267.76 1410.14,-221.64 1412.9,-195.47"/>
<polygon fill="#63b8ff" stroke="#63b8ff" points="1398.63,-297.63 1401.06,-307.94 1405.59,-298.36 1398.63,-297.63"/>
</a>
</g>
</g>
<!-- Node13&#45;&gt;Node5 -->
<g id="edge26_Node000013_Node000005" class="edge">
<title>Node13&#45;&gt;Node5</title>
<g id="a_edge26_Node000013_Node000005"><a xlink:title=" ">
<path fill="none" stroke="#63b8ff" d="M1539.14,-221.88C1556.97,-183.74 1579.92,-116.49 1544,-77 1511.84,-41.65 1213.36,-28.31 1055.64,-23.71"/>
<polygon fill="#63b8ff" stroke="#63b8ff" points="1535.97,-220.39 1534.75,-230.91 1542.27,-223.44 1535.97,-220.39"/>
</a>
</g>
</g>
<!-- Node13&#45;&gt;Node14 -->
<g id="edge21_Node000013_Node000014" class="edge">
<title>Node13&#45;&gt;Node14</title>
<g id="a_edge21_Node000013_Node000014"><a xlink:title=" ">
<path fill="none" stroke="#63b8ff" d="M1487.07,-225.09C1472.87,-215.32 1456.89,-204.32 1443.59,-195.17"/>
<polygon fill="#63b8ff" stroke="#63b8ff" points="1485.42,-228.21 1495.65,-230.99 1489.39,-222.44 1485.42,-228.21"/>
</a>
</g>
</g>
<!-- Node14&#45;&gt;Node5 -->
<g id="edge25_Node000014_Node000005" class="edge">
<title>Node14&#45;&gt;Node5</title>
<g id="a_edge25_Node000014_Node000005"><a xlink:title=" ">
<path fill="none" stroke="#63b8ff" d="M1492.08,-149.08C1505.57,-141.3 1517.87,-131.16 1526,-118 1535.58,-102.5 1538.24,-90.5 1526,-77 1495.08,-42.91 1209.4,-29.05 1055.76,-24.03"/>
<polygon fill="#63b8ff" stroke="#63b8ff" points="1490.27,-146.08 1483.08,-153.86 1493.55,-152.26 1490.27,-146.08"/>
</a>
</g>
</g>
<!-- Node14&#45;&gt;Node8 -->
<g id="edge22_Node000014_Node000008" class="edge">
<title>Node14&#45;&gt;Node8</title>
<g id="a_edge22_Node000014_Node000008"><a xlink:title=" ">
<path fill="none" stroke="#63b8ff" d="M1351.93,-150.54C1323.39,-140.15 1290,-127.99 1262.68,-118.04"/>
<polygon fill="#63b8ff" stroke="#63b8ff" points="1350.82,-153.86 1361.41,-153.99 1353.21,-147.28 1350.82,-153.86"/>
</a>
</g>
</g>
<!-- Node15 -->
<g id="Node000015" class="node">
<title>Node15</title>
<g id="a_Node000015"><a xlink:href="Server_8h.html" target="_top" xlink:title=" ">
<polygon fill="white" stroke="#666666" points="1516.5,-118 1323.5,-118 1323.5,-77 1516.5,-77 1516.5,-118"/>
<text text-anchor="start" x="1331.5" y="-106" font-family="Helvetica,sans-Serif" font-size="10.00">/home/runner/work/open62541pp</text>
<text text-anchor="start" x="1331.5" y="-95" font-family="Helvetica,sans-Serif" font-size="10.00">/open62541pp/include/open62541pp</text>
<text text-anchor="middle" x="1420" y="-84" font-family="Helvetica,sans-Serif" font-size="10.00">/Server.h</text>
</a>
</g>
</g>
<!-- Node14&#45;&gt;Node15 -->
<g id="edge23_Node000014_Node000015" class="edge">
<title>Node14&#45;&gt;Node15</title>
<g id="a_edge23_Node000014_Node000015"><a xlink:title=" ">
<path fill="none" stroke="#63b8ff" d="M1416.99,-143.69C1417.56,-135.08 1418.17,-125.9 1418.7,-118.07"/>
<polygon fill="#63b8ff" stroke="#63b8ff" points="1413.49,-143.58 1416.31,-153.79 1420.47,-144.05 1413.49,-143.58"/>
</a>
</g>
</g>
<!-- Node15&#45;&gt;Node5 -->
<g id="edge24_Node000015_Node000005" class="edge">
<title>Node15&#45;&gt;Node5</title>
<g id="a_edge24_Node000015_Node000005"><a xlink:title=" ">
<path fill="none" stroke="#63b8ff" d="M1313.2,-76.71C1220.45,-60.97 1124.97,-46.23 1055.83,-35.82"/>
<polygon fill="#63b8ff" stroke="#63b8ff" points="1312.88,-80.21 1323.33,-78.44 1314.06,-73.31 1312.88,-80.21"/>
</a>
</g>
</g>
<!-- Node16&#45;&gt;Node4 -->
<g id="edge30_Node000016_Node000004" class="edge">
<title>Node16&#45;&gt;Node4</title>
<g id="a_edge30_Node000016_Node000004"><a xlink:title=" ">
<path fill="none" stroke="#63b8ff" d="M480.56,-375.06C473.26,-354.1 460.88,-326.49 442,-308 414.72,-281.28 384.58,-304.16 364,-272 354.18,-256.65 352.49,-245.13 364,-231 385.57,-204.52 467.23,-190.3 534.98,-182.91"/>
<polygon fill="#63b8ff" stroke="#63b8ff" points="477.29,-376.33 483.73,-384.74 483.94,-374.15 477.29,-376.33"/>
</a>
</g>
</g>
<!-- Node16&#45;&gt;Node5 -->
<g id="edge31_Node000016_Node000005" class="edge">
<title>Node16&#45;&gt;Node5</title>
<g id="a_edge31_Node000016_Node000005"><a xlink:title=" ">
<path fill="none" stroke="#63b8ff" d="M382.41,-384.33C313.9,-370.92 236.64,-354.74 231,-349 200.36,-317.82 212,-296.21 212,-252.5 212,-252.5 212,-252.5 212,-173.5 212,-42.23 660.55,-23.13 862.49,-21.18"/>
<polygon fill="#63b8ff" stroke="#63b8ff" points="381.96,-387.81 392.44,-386.29 383.3,-380.94 381.96,-387.81"/>
</a>
</g>
</g>
<!-- Node16&#45;&gt;Node17 -->
<g id="edge32_Node000016_Node000017" class="edge">
<title>Node16&#45;&gt;Node17</title>
<g id="a_edge32_Node000016_Node000017"><a xlink:title=" ">
<path fill="none" stroke="#63b8ff" d="M485.31,-374.98C481.53,-344.76 475.77,-298.64 472.5,-272.47"/>
<polygon fill="#63b8ff" stroke="#63b8ff" points="481.84,-375.45 486.55,-384.94 488.79,-374.58 481.84,-375.45"/>
</a>
</g>
</g>
<!-- Node16&#45;&gt;Node18 -->
<g id="edge35_Node000016_Node000018" class="edge">
<title>Node16&#45;&gt;Node18</title>
<g id="a_edge35_Node000016_Node000018"><a xlink:title=" ">
<path fill="none" stroke="#63b8ff" d="M440.26,-380.45C419.69,-370.3 396.07,-358.64 376.61,-349.04"/>
<polygon fill="#63b8ff" stroke="#63b8ff" points="438.94,-383.7 449.46,-384.99 442.04,-377.43 438.94,-383.7"/>
</a>
</g>
</g>
<!-- Node17&#45;&gt;Node4 -->
<g id="edge33_Node000017_Node000004" class="edge">
<title>Node17&#45;&gt;Node4</title>
<g id="a_edge33_Node000017_Node000004"><a xlink:title=" ">
<path fill="none" stroke="#63b8ff" d="M521.68,-226.72C543.86,-216.51 569.47,-204.73 590.53,-195.04"/>
<polygon fill="#63b8ff" stroke="#63b8ff" points="520.02,-223.63 512.4,-230.99 522.95,-229.99 520.02,-223.63"/>
</a>
</g>
</g>
<!-- Node17&#45;&gt;Node10 -->
<g id="edge34_Node000017_Node000010" class="edge">
<title>Node17&#45;&gt;Node10</title>
<g id="a_edge34_Node000017_Node000010"><a xlink:title=" ">
<path fill="none" stroke="#63b8ff" d="M478.99,-221.28C487.43,-199.05 502.35,-169.7 526,-154 579.51,-118.47 751.98,-105.66 862.43,-101.06"/>
<polygon fill="#63b8ff" stroke="#63b8ff" points="475.61,-220.32 475.56,-230.91 482.21,-222.67 475.61,-220.32"/>
</a>
</g>
</g>
<!-- Node18&#45;&gt;Node4 -->
<g id="edge36_Node000018_Node000004" class="edge">
<title>Node18&#45;&gt;Node4</title>
<g id="a_edge36_Node000018_Node000004"><a xlink:title=" ">
<path fill="none" stroke="#63b8ff" d="M325.39,-297.94C319.25,-276.92 315.77,-249.29 331,-231 356.72,-200.13 456.87,-186.37 534.87,-180.27"/>
<polygon fill="#63b8ff" stroke="#63b8ff" points="322.13,-299.23 328.54,-307.66 328.78,-297.06 322.13,-299.23"/>
</a>
</g>
</g>
<!-- Node18&#45;&gt;Node5 -->
<g id="edge37_Node000018_Node000005" class="edge">
<title>Node18&#45;&gt;Node5</title>
<g id="a_edge37_Node000018_Node000005"><a xlink:title=" ">
<path fill="none" stroke="#63b8ff" d="M320.53,-298.72C311.27,-278.37 303.93,-251.22 317,-231 377.15,-137.95 698.41,-68.11 862.45,-37.92"/>
<polygon fill="#63b8ff" stroke="#63b8ff" points="317.45,-300.39 325.01,-307.82 323.74,-297.3 317.45,-300.39"/>
</a>
</g>
</g>
<!-- Node18&#45;&gt;Node17 -->
<g id="edge38_Node000018_Node000017" class="edge">
<title>Node18&#45;&gt;Node17</title>
<g id="a_edge38_Node000018_Node000017"><a xlink:title=" ">
<path fill="none" stroke="#63b8ff" d="M380.59,-302.92C398.28,-292.95 418.43,-281.58 435.11,-272.17"/>
<polygon fill="#63b8ff" stroke="#63b8ff" points="378.59,-300.03 371.6,-307.99 382.03,-306.13 378.59,-300.03"/>
</a>
</g>
</g>
<!-- Node19&#45;&gt;Node4 -->
<g id="edge43_Node000019_Node000004" class="edge">
<title>Node19&#45;&gt;Node4</title>
<g id="a_edge43_Node000019_Node000004"><a xlink:title=" ">
<path fill="none" stroke="#63b8ff" d="M768.46,-381.43C747.72,-373.3 726.48,-362.67 709,-349 676.07,-323.26 671.96,-310.2 655,-272 643.77,-246.72 637.97,-215.07 635.2,-195.06"/>
<polygon fill="#63b8ff" stroke="#63b8ff" points="767.35,-384.75 777.94,-384.99 769.81,-378.2 767.35,-384.75"/>
</a>
</g>
</g>
<!-- Node19&#45;&gt;Node5 -->
<g id="edge44_Node000019_Node000005" class="edge">
<title>Node19&#45;&gt;Node5</title>
<g id="a_edge44_Node000019_Node000005"><a xlink:title=" ">
<path fill="none" stroke="#63b8ff" d="M960,-401.4C1118.3,-395.79 1406.75,-381.4 1505,-349 1578.17,-324.87 1649,-329.54 1649,-252.5 1649,-252.5 1649,-252.5 1649,-173.5 1649,-116.93 1616.29,-102.91 1566,-77 1479.52,-32.43 1204.12,-23.26 1055.8,-21.62"/>
<polygon fill="#63b8ff" stroke="#63b8ff" points="959.64,-397.91 949.77,-401.75 959.88,-404.9 959.64,-397.91"/>
</a>
</g>
</g>
<!-- Node19&#45;&gt;Node7 -->
<g id="edge46_Node000019_Node000007" class="edge">
<title>Node19&#45;&gt;Node7</title>
<g id="a_edge46_Node000019_Node000007"><a xlink:title=" ">
<path fill="none" stroke="#63b8ff" d="M900.84,-379.94C917.91,-370.73 937.09,-359.85 954,-349 992.32,-324.41 1034.2,-292.3 1059.79,-272.03"/>
<polygon fill="#63b8ff" stroke="#63b8ff" points="898.77,-377.08 891.6,-384.88 902.07,-383.25 898.77,-377.08"/>
</a>
</g>
</g>
<!-- Node19&#45;&gt;Node8 -->
<g id="edge42_Node000019_Node000008" class="edge">
<title>Node19&#45;&gt;Node8</title>
<g id="a_edge42_Node000019_Node000008"><a xlink:title=" ">
<path fill="none" stroke="#63b8ff" d="M960.18,-392.65C1041.58,-377.96 1150.22,-345.15 1215,-272 1250.17,-232.28 1243.75,-205.95 1233,-154 1230.43,-141.56 1224.92,-128.48 1219.84,-118.15"/>
<polygon fill="#63b8ff" stroke="#63b8ff" points="959.15,-389.28 949.89,-394.44 960.34,-396.18 959.15,-389.28"/>
</a>
</g>
</g>
<!-- Node19&#45;&gt;Node17 -->
<g id="edge45_Node000019_Node000017" class="edge">
<title>Node19&#45;&gt;Node17</title>
<g id="a_edge45_Node000019_Node000017"><a xlink:title=" ">
<path fill="none" stroke="#63b8ff" d="M746.66,-383.05C711.42,-374.37 672.43,-363.03 638,-349 586.29,-327.93 531,-293.61 498.52,-272.08"/>
<polygon fill="#63b8ff" stroke="#63b8ff" points="745.95,-386.48 756.5,-385.42 747.6,-379.67 745.95,-386.48"/>
</a>
</g>
</g>
<!-- Node19&#45;&gt;Node20 -->
<g id="edge47_Node000019_Node000020" class="edge">
<title>Node19&#45;&gt;Node20</title>
<g id="a_edge47_Node000019_Node000020"><a xlink:title=" ">
<path fill="none" stroke="#63b8ff" d="M838.47,-375.83C833.94,-366.89 829.05,-357.24 824.92,-349.07"/>
<polygon fill="#63b8ff" stroke="#63b8ff" points="835.37,-377.46 843.02,-384.79 841.62,-374.29 835.37,-377.46"/>
</a>
</g>
</g>
<!-- Node20&#45;&gt;Node4 -->
<g id="edge49_Node000020_Node000004" class="edge">
<title>Node20&#45;&gt;Node4</title>
<g id="a_edge49_Node000020_Node000004"><a xlink:title=" ">
<path fill="none" stroke="#63b8ff" d="M741.89,-304.05C723.59,-295.87 704.94,-285.31 690,-272 666.02,-250.65 649.28,-216.73 640.4,-195.32"/>
<polygon fill="#63b8ff" stroke="#63b8ff" points="740.54,-307.28 751.11,-307.99 743.29,-300.84 740.54,-307.28"/>
</a>
</g>
</g>
<!-- Node20&#45;&gt;Node5 -->
<g id="edge52_Node000020_Node000005" class="edge">
<title>Node20&#45;&gt;Node5</title>
<g id="a_edge52_Node000020_Node000005"><a xlink:title=" ">
<path fill="none" stroke="#63b8ff" d="M872.56,-302.35C884.35,-294.41 895.21,-284.39 902,-272 910.76,-256.02 910.15,-247.3 902,-231 890.07,-207.15 865.93,-218.85 854,-195 830.55,-148.09 826.93,-121.92 854,-77 863.63,-61.02 879.57,-49.4 896.16,-41.06"/>
<polygon fill="#63b8ff" stroke="#63b8ff" points="870.51,-299.51 863.87,-307.77 874.21,-305.45 870.51,-299.51"/>
</a>
</g>
</g>
<!-- Node20&#45;&gt;Node7 -->
<g id="edge58_Node000020_Node000007" class="edge">
<title>Node20&#45;&gt;Node7</title>
<g id="a_edge58_Node000020_Node000007"><a xlink:title=" ">
<path fill="none" stroke="#63b8ff" d="M894.93,-305.21C932.73,-294.68 977.45,-282.21 1013.91,-272.04"/>
<polygon fill="#63b8ff" stroke="#63b8ff" points="893.67,-301.93 884.97,-307.99 895.55,-308.68 893.67,-301.93"/>
</a>
</g>
</g>
<!-- Node20&#45;&gt;Node8 -->
<g id="edge48_Node000020_Node000008" class="edge">
<title>Node20&#45;&gt;Node8</title>
<g id="a_edge48_Node000020_Node000008"><a xlink:title=" ">
<path fill="none" stroke="#63b8ff" d="M922.1,-325.79C1019.7,-321.8 1153.96,-309.43 1190,-272 1230.25,-230.2 1220.91,-153.85 1213.65,-118.03"/>
<polygon fill="#63b8ff" stroke="#63b8ff" points="921.74,-322.3 911.88,-326.18 922.01,-329.29 921.74,-322.3"/>
</a>
</g>
</g>
<!-- Node20&#45;&gt;Node9 -->
<g id="edge57_Node000020_Node000009" class="edge">
<title>Node20&#45;&gt;Node9</title>
<g id="a_edge57_Node000020_Node000009"><a xlink:title=" ">
<path fill="none" stroke="#63b8ff" d="M893.28,-303.6C908.93,-295.71 923.94,-285.39 935,-272 953.15,-250.04 957.87,-216.3 958.94,-195.09"/>
<polygon fill="#63b8ff" stroke="#63b8ff" points="891.57,-300.54 884.02,-307.98 894.56,-306.87 891.57,-300.54"/>
</a>
</g>
</g>
<!-- Node20&#45;&gt;Node14 -->
<g id="edge51_Node000020_Node000014" class="edge">
<title>Node20&#45;&gt;Node14</title>
<g id="a_edge51_Node000020_Node000014"><a xlink:title=" ">
<path fill="none" stroke="#63b8ff" d="M921.67,-322.38C1043.13,-315.31 1233.24,-300.12 1299,-272 1339.71,-254.6 1377.22,-218.12 1398.02,-195.33"/>
<polygon fill="#63b8ff" stroke="#63b8ff" points="921.38,-318.89 911.6,-322.95 921.78,-325.88 921.38,-318.89"/>
</a>
</g>
</g>
<!-- Node20&#45;&gt;Node15 -->
<g id="edge50_Node000020_Node000015" class="edge">
<title>Node20&#45;&gt;Node15</title>
<g id="a_edge50_Node000020_Node000015"><a xlink:title=" ">
<path fill="none" stroke="#63b8ff" d="M921.88,-321.54C1023.01,-314.33 1166.34,-299.56 1215,-272 1273.58,-238.81 1257.65,-196.34 1310,-154 1328.04,-139.4 1350.55,-127.21 1370.5,-118.01"/>
<polygon fill="#63b8ff" stroke="#63b8ff" points="921.35,-318.07 911.62,-322.25 921.84,-325.05 921.35,-318.07"/>
</a>
</g>
</g>
<!-- Node20&#45;&gt;Node17 -->
<g id="edge53_Node000020_Node000017" class="edge">
<title>Node20&#45;&gt;Node17</title>
<g id="a_edge53_Node000020_Node000017"><a xlink:title=" ">
<path fill="none" stroke="#63b8ff" d="M715.26,-305.82C666.21,-295.15 607.55,-282.4 559.89,-272.04"/>
<polygon fill="#63b8ff" stroke="#63b8ff" points="714.74,-309.29 725.26,-307.99 716.23,-302.45 714.74,-309.29"/>
</a>
</g>
</g>
<!-- Node21 -->
<g id="Node000021" class="node">
<title>Node21</title>
<g id="a_Node000021"><a xlink:href="NodeManagement_8h.html" target="_top" xlink:title=" ">
<polygon fill="white" stroke="#666666" points="892.5,-272 699.5,-272 699.5,-231 892.5,-231 892.5,-272"/>
<text text-anchor="start" x="707.5" y="-260" font-family="Helvetica,sans-Serif" font-size="10.00">/home/runner/work/open62541pp</text>
<text text-anchor="start" x="707.5" y="-249" font-family="Helvetica,sans-Serif" font-size="10.00">/open62541pp/include/open62541pp</text>
<text text-anchor="middle" x="796" y="-238" font-family="Helvetica,sans-Serif" font-size="10.00">/services/NodeManagement.h</text>
</a>
</g>
</g>
<!-- Node20&#45;&gt;Node21 -->
<g id="edge54_Node000020_Node000021" class="edge">
<title>Node20&#45;&gt;Node21</title>
<g id="a_edge54_Node000020_Node000021"><a xlink:title=" ">
<path fill="none" stroke="#63b8ff" d="M807.52,-297.98C805.32,-289.28 802.96,-279.98 800.96,-272.07"/>
<polygon fill="#63b8ff" stroke="#63b8ff" points="804.16,-298.96 810.01,-307.79 810.94,-297.24 804.16,-298.96"/>
</a>
</g>
</g>
<!-- Node21&#45;&gt;Node4 -->
<g id="edge55_Node000021_Node000004" class="edge">
<title>Node21&#45;&gt;Node4</title>
<g id="a_edge55_Node000021_Node000004"><a xlink:title=" ">
<path fill="none" stroke="#63b8ff" d="M744.32,-226.72C722.14,-216.51 696.53,-204.73 675.47,-195.04"/>
<polygon fill="#63b8ff" stroke="#63b8ff" points="743.05,-229.99 753.6,-230.99 745.98,-223.63 743.05,-229.99"/>
</a>
</g>
</g>
<!-- Node21&#45;&gt;Node10 -->
<g id="edge56_Node000021_Node000010" class="edge">
<title>Node21&#45;&gt;Node10</title>
<g id="a_edge56_Node000021_Node000010"><a xlink:title=" ">
<path fill="none" stroke="#63b8ff" d="M808.18,-221.68C818.1,-200.86 833.78,-173.14 854,-154 869.72,-139.12 890.21,-127.11 908.91,-118.12"/>
<polygon fill="#63b8ff" stroke="#63b8ff" points="804.89,-220.44 803.9,-230.99 811.25,-223.37 804.89,-220.44"/>
</a>
</g>
</g>
<!-- Node22&#45;&gt;Node3 -->
<g id="edge62_Node000022_Node000003" class="edge">
<title>Node22&#45;&gt;Node3</title>
<g id="a_edge62_Node000022_Node000003"><a xlink:title=" ">
<path fill="none" stroke="#63b8ff" d="M318.38,-535.94C352.48,-525.46 392.64,-513.12 425.42,-503.04"/>
<polygon fill="#63b8ff" stroke="#63b8ff" points="317,-532.71 308.47,-538.99 319.06,-539.4 317,-532.71"/>
</a>
</g>
</g>
<!-- Node22&#45;&gt;Node5 -->
<g id="edge63_Node000022_Node000005" class="edge">
<title>Node22&#45;&gt;Node5</title>
<g id="a_edge63_Node000022_Node000005"><a xlink:title=" ">
<path fill="none" stroke="#63b8ff" d="M185.96,-534.31C137.21,-509.97 76,-467.3 76,-406.5 76,-406.5 76,-406.5 76,-173.5 76,-123.91 89.88,-103.17 132,-77 192.69,-39.29 657.05,-26.69 862.14,-22.93"/>
<polygon fill="#63b8ff" stroke="#63b8ff" points="184.68,-537.58 195.21,-538.79 187.73,-531.28 184.68,-537.58"/>
</a>
</g>
</g>
<!-- Node22&#45;&gt;Node18 -->
<g id="edge64_Node000022_Node000018" class="edge">
<title>Node22&#45;&gt;Node18</title>
<g id="a_edge64_Node000022_Node000018"><a xlink:title=" ">
<path fill="none" stroke="#63b8ff" d="M207.46,-532.69C161.66,-498.03 94.78,-435.01 133,-385 146.74,-367.03 194.53,-353.5 240.4,-344.3"/>
<polygon fill="#63b8ff" stroke="#63b8ff" points="205.62,-535.69 215.74,-538.83 209.79,-530.06 205.62,-535.69"/>
</a>
</g>
</g>
</g>
</svg>
