<?xml version="1.0" encoding="UTF-8" standalone="no"?>
<!DOCTYPE svg PUBLIC "-//W3C//DTD SVG 1.1//EN"
 "http://www.w3.org/Graphics/SVG/1.1/DTD/svg11.dtd">
<!-- Generated by graphviz version 2.43.0 (0)
 -->
<!-- Title: /home/runner/work/open62541pp/open62541pp/include/open62541pp/Config.h Pages: 1 -->
<svg width="1249pt" height="434pt"
 viewBox="0.00 0.00 1248.98 434.00" xmlns="http://www.w3.org/2000/svg" xmlns:xlink="http://www.w3.org/1999/xlink">
<g id="graph0" class="graph" transform="scale(1 1) rotate(0) translate(4 430)">
<title>/home/runner/work/open62541pp/open62541pp/include/open62541pp/Config.h</title>
<!-- Node1 -->
<g id="Node000001" class="node">
<title>Node1</title>
<g id="a_Node000001"><a xlink:title=" ">
<polygon fill="#999999" stroke="#666666" points="464.78,-426 271.78,-426 271.78,-385 464.78,-385 464.78,-426"/>
<text text-anchor="start" x="279.78" y="-414" font-family="Helvetica,sans-Serif" font-size="10.00">/home/runner/work/open62541pp</text>
<text text-anchor="start" x="279.78" y="-403" font-family="Helvetica,sans-Serif" font-size="10.00">/open62541pp/include/open62541pp</text>
<text text-anchor="middle" x="368.28" y="-392" font-family="Helvetica,sans-Serif" font-size="10.00">/Config.h</text>
</a>
</g>
</g>
<!-- Node2 -->
<g id="Node000002" class="node">
<title>Node2</title>
<g id="a_Node000002"><a xlink:href="Client_8h.html" target="_top" xlink:title=" ">
<polygon fill="white" stroke="#666666" points="350.78,-118 157.78,-118 157.78,-77 350.78,-77 350.78,-118"/>
<text text-anchor="start" x="165.78" y="-106" font-family="Helvetica,sans-Serif" font-size="10.00">/home/runner/work/open62541pp</text>
<text text-anchor="start" x="165.78" y="-95" font-family="Helvetica,sans-Serif" font-size="10.00">/open62541pp/include/open62541pp</text>
<text text-anchor="middle" x="254.28" y="-84" font-family="Helvetica,sans-Serif" font-size="10.00">/Client.h</text>
</a>
</g>
</g>
<!-- Node1&#45;&gt;Node2 -->
<g id="edge1_Node000001_Node000002" class="edge">
<title>Node1&#45;&gt;Node2</title>
<g id="a_edge1_Node000001_Node000002"><a xlink:title=" ">
<path fill="none" stroke="#63b8ff" d="M351.06,-376.11C346.26,-367.56 341.26,-358.05 337.28,-349 300.64,-265.77 270.92,-161 259.42,-118.14"/>
<polygon fill="#63b8ff" stroke="#63b8ff" points="348.12,-378.01 356.15,-384.93 354.19,-374.52 348.12,-378.01"/>
</a>
</g>
</g>
<!-- Node3 -->
<g id="Node000003" class="node">
<title>Node3</title>
<g id="a_Node000003"><a xlink:href="open62541pp_8h.html" target="_top" xlink:title=" ">
<polygon fill="white" stroke="#666666" points="623.78,-41 430.78,-41 430.78,0 623.78,0 623.78,-41"/>
<text text-anchor="start" x="438.78" y="-29" font-family="Helvetica,sans-Serif" font-size="10.00">/home/runner/work/open62541pp</text>
<text text-anchor="start" x="438.78" y="-18" font-family="Helvetica,sans-Serif" font-size="10.00">/open62541pp/include/open62541pp</text>
<text text-anchor="middle" x="527.28" y="-7" font-family="Helvetica,sans-Serif" font-size="10.00">/open62541pp.h</text>
</a>
</g>
</g>
<!-- Node1&#45;&gt;Node3 -->
<g id="edge16_Node000001_Node000003" class="edge">
<title>Node1&#45;&gt;Node3</title>
<g id="a_edge16_Node000001_Node000003"><a xlink:title=" ">
<path fill="none" stroke="#63b8ff" d="M265.54,-382.57C157.9,-356.55 4.28,-309.45 4.28,-252.5 4.28,-252.5 4.28,-252.5 4.28,-173.5 4.28,-144.27 -34.05,-142.85 125.28,-77 178.83,-54.87 329.55,-38.26 430.45,-29.22"/>
<polygon fill="#63b8ff" stroke="#63b8ff" points="264.95,-386.03 275.49,-384.94 266.57,-379.22 264.95,-386.03"/>
</a>
</g>
</g>
<!-- Node4 -->
<g id="Node000004" class="node">
<title>Node4</title>
<g id="a_Node000004"><a xlink:href="Crypto_8h.html" target="_top" xlink:title=" ">
<polygon fill="white" stroke="#666666" points="225.78,-195 32.78,-195 32.78,-154 225.78,-154 225.78,-195"/>
<text text-anchor="start" x="40.78" y="-183" font-family="Helvetica,sans-Serif" font-size="10.00">/home/runner/work/open62541pp</text>
<text text-anchor="start" x="40.78" y="-172" font-family="Helvetica,sans-Serif" font-size="10.00">/open62541pp/include/open62541pp</text>
<text text-anchor="middle" x="129.28" y="-161" font-family="Helvetica,sans-Serif" font-size="10.00">/Crypto.h</text>
</a>
</g>
</g>
<!-- Node1&#45;&gt;Node4 -->
<g id="edge3_Node000001_Node000004" class="edge">
<title>Node1&#45;&gt;Node4</title>
<g id="a_edge3_Node000001_Node000004"><a xlink:title=" ">
<path fill="none" stroke="#63b8ff" d="M293.73,-380.95C275,-372.77 255.82,-362.23 240.28,-349 188.42,-304.84 152.27,-230.33 137.18,-195.09"/>
<polygon fill="#63b8ff" stroke="#63b8ff" points="292.6,-384.26 303.17,-384.89 295.3,-377.81 292.6,-384.26"/>
</a>
</g>
</g>
<!-- Node5 -->
<g id="Node000005" class="node">
<title>Node5</title>
<g id="a_Node000005"><a xlink:href="MonitoredItem_8h.html" target="_top" xlink:title=" ">
<polygon fill="white" stroke="#666666" points="675.78,-272 482.78,-272 482.78,-231 675.78,-231 675.78,-272"/>
<text text-anchor="start" x="490.78" y="-260" font-family="Helvetica,sans-Serif" font-size="10.00">/home/runner/work/open62541pp</text>
<text text-anchor="start" x="490.78" y="-249" font-family="Helvetica,sans-Serif" font-size="10.00">/open62541pp/include/open62541pp</text>
<text text-anchor="middle" x="579.28" y="-238" font-family="Helvetica,sans-Serif" font-size="10.00">/MonitoredItem.h</text>
</a>
</g>
</g>
<!-- Node1&#45;&gt;Node5 -->
<g id="edge5_Node000001_Node000005" class="edge">
<title>Node1&#45;&gt;Node5</title>
<g id="a_edge5_Node000001_Node000005"><a xlink:title=" ">
<path fill="none" stroke="#63b8ff" d="M366.83,-374.75C367.44,-353.58 371.79,-325.84 388.28,-308 412.54,-281.76 448.41,-267.66 482.52,-260.18"/>
<polygon fill="#63b8ff" stroke="#63b8ff" points="363.33,-374.83 366.81,-384.84 370.33,-374.85 363.33,-374.83"/>
</a>
</g>
</g>
<!-- Node6 -->
<g id="Node000006" class="node">
<title>Node6</title>
<g id="a_Node000006"><a xlink:href="Subscription_8h.html" target="_top" xlink:title=" ">
<polygon fill="white" stroke="#666666" points="561.78,-195 368.78,-195 368.78,-154 561.78,-154 561.78,-195"/>
<text text-anchor="start" x="376.78" y="-183" font-family="Helvetica,sans-Serif" font-size="10.00">/home/runner/work/open62541pp</text>
<text text-anchor="start" x="376.78" y="-172" font-family="Helvetica,sans-Serif" font-size="10.00">/open62541pp/include/open62541pp</text>
<text text-anchor="middle" x="465.28" y="-161" font-family="Helvetica,sans-Serif" font-size="10.00">/Subscription.h</text>
</a>
</g>
</g>
<!-- Node1&#45;&gt;Node6 -->
<g id="edge15_Node000001_Node000006" class="edge">
<title>Node1&#45;&gt;Node6</title>
<g id="a_edge15_Node000001_Node000006"><a xlink:title=" ">
<path fill="none" stroke="#63b8ff" d="M362.09,-374.58C359.32,-355.12 358.09,-329.46 365.28,-308 380.75,-261.82 419.38,-218.87 443.84,-195.01"/>
<polygon fill="#63b8ff" stroke="#63b8ff" points="358.67,-375.39 363.74,-384.69 365.58,-374.26 358.67,-375.39"/>
</a>
</g>
</g>
<!-- Node7 -->
<g id="Node000007" class="node">
<title>Node7</title>
<g id="a_Node000007"><a xlink:href="Server_8h.html" target="_top" xlink:title=" ">
<polygon fill="white" stroke="#666666" points="561.78,-118 368.78,-118 368.78,-77 561.78,-77 561.78,-118"/>
<text text-anchor="start" x="376.78" y="-106" font-family="Helvetica,sans-Serif" font-size="10.00">/home/runner/work/open62541pp</text>
<text text-anchor="start" x="376.78" y="-95" font-family="Helvetica,sans-Serif" font-size="10.00">/open62541pp/include/open62541pp</text>
<text text-anchor="middle" x="465.28" y="-84" font-family="Helvetica,sans-Serif" font-size="10.00">/Server.h</text>
</a>
</g>
</g>
<!-- Node1&#45;&gt;Node7 -->
<g id="edge14_Node000001_Node000007" class="edge">
<title>Node1&#45;&gt;Node7</title>
<g id="a_edge14_Node000001_Node000007"><a xlink:title=" ">
<path fill="none" stroke="#63b8ff" d="M357.49,-375.26C341.16,-325.6 316.34,-223.42 359.28,-154 369.17,-138.01 385.31,-126.39 402.06,-118.05"/>
<polygon fill="#63b8ff" stroke="#63b8ff" points="354.19,-376.41 360.72,-384.75 360.81,-374.15 354.19,-376.41"/>
</a>
</g>
</g>
<!-- Node8 -->
<g id="Node000008" class="node">
<title>Node8</title>
<g id="a_Node000008"><a xlink:href="Node_8h.html" target="_top" xlink:title=" ">
<polygon fill="white" stroke="#666666" points="1182.28,-272 986.28,-272 986.28,-231 1182.28,-231 1182.28,-272"/>
<text text-anchor="start" x="994.28" y="-260" font-family="Helvetica,sans-Serif" font-size="10.00">/home/runner/work/open62541pp</text>
<text text-anchor="start" x="994.28" y="-249" font-family="Helvetica,sans-Serif" font-size="10.00">/open62541pp/include/open62541pp/</text>
<text text-anchor="middle" x="1084.28" y="-238" font-family="Helvetica,sans-Serif" font-size="10.00">Node.h</text>
</a>
</g>
</g>
<!-- Node1&#45;&gt;Node8 -->
<g id="edge12_Node000001_Node000008" class="edge">
<title>Node1&#45;&gt;Node8</title>
<g id="a_edge12_Node000001_Node000008"><a xlink:title=" ">
<path fill="none" stroke="#63b8ff" d="M475.35,-401.48C700.98,-394.6 1206.76,-376.21 1232.28,-349 1244.75,-335.71 1242.66,-322.98 1232.28,-308 1220.24,-290.63 1202.06,-278.69 1182.51,-270.48"/>
<polygon fill="#63b8ff" stroke="#63b8ff" points="475.04,-397.99 465.15,-401.79 475.25,-404.99 475.04,-397.99"/>
</a>
</g>
</g>
<!-- Node9 -->
<g id="Node000009" class="node">
<title>Node9</title>
<g id="a_Node000009"><a xlink:href="Method_8h.html" target="_top" xlink:title=" ">
<polygon fill="white" stroke="#666666" points="1222.78,-349 1029.78,-349 1029.78,-308 1222.78,-308 1222.78,-349"/>
<text text-anchor="start" x="1037.78" y="-337" font-family="Helvetica,sans-Serif" font-size="10.00">/home/runner/work/open62541pp</text>
<text text-anchor="start" x="1037.78" y="-326" font-family="Helvetica,sans-Serif" font-size="10.00">/open62541pp/include/open62541pp</text>
<text text-anchor="middle" x="1126.28" y="-315" font-family="Helvetica,sans-Serif" font-size="10.00">/services/Method.h</text>
</a>
</g>
</g>
<!-- Node1&#45;&gt;Node9 -->
<g id="edge17_Node000001_Node000009" class="edge">
<title>Node1&#45;&gt;Node9</title>
<g id="a_edge17_Node000001_Node000009"><a xlink:title=" ">
<path fill="none" stroke="#63b8ff" d="M475.18,-398.67C604.8,-390.84 829.71,-374.86 1021.28,-349 1024.04,-348.63 1026.83,-348.23 1029.65,-347.82"/>
<polygon fill="#63b8ff" stroke="#63b8ff" points="474.64,-395.19 464.86,-399.28 475.06,-402.18 474.64,-395.19"/>
</a>
</g>
</g>
<!-- Node11 -->
<g id="Node000011" class="node">
<title>Node11</title>
<g id="a_Node000011"><a xlink:href="services_2MonitoredItem_8h.html" target="_top" xlink:title=" ">
<polygon fill="white" stroke="#666666" points="800.78,-349 607.78,-349 607.78,-308 800.78,-308 800.78,-349"/>
<text text-anchor="start" x="615.78" y="-337" font-family="Helvetica,sans-Serif" font-size="10.00">/home/runner/work/open62541pp</text>
<text text-anchor="start" x="615.78" y="-326" font-family="Helvetica,sans-Serif" font-size="10.00">/open62541pp/include/open62541pp</text>
<text text-anchor="middle" x="704.28" y="-315" font-family="Helvetica,sans-Serif" font-size="10.00">/services/MonitoredItem.h</text>
</a>
</g>
</g>
<!-- Node1&#45;&gt;Node11 -->
<g id="edge21_Node000001_Node000011" class="edge">
<title>Node1&#45;&gt;Node11</title>
<g id="a_edge21_Node000001_Node000011"><a xlink:title=" ">
<path fill="none" stroke="#63b8ff" d="M465.72,-382.75C513.43,-372.1 570.42,-359.38 616.73,-349.04"/>
<polygon fill="#63b8ff" stroke="#63b8ff" points="464.68,-379.4 455.68,-384.99 466.21,-386.23 464.68,-379.4"/>
</a>
</g>
</g>
<!-- Node12 -->
<g id="Node000012" class="node">
<title>Node12</title>
<g id="a_Node000012"><a xlink:href="NodeManagement_8h.html" target="_top" xlink:title=" ">
<polygon fill="white" stroke="#666666" points="1011.78,-349 818.78,-349 818.78,-308 1011.78,-308 1011.78,-349"/>
<text text-anchor="start" x="826.78" y="-337" font-family="Helvetica,sans-Serif" font-size="10.00">/home/runner/work/open62541pp</text>
<text text-anchor="start" x="826.78" y="-326" font-family="Helvetica,sans-Serif" font-size="10.00">/open62541pp/include/open62541pp</text>
<text text-anchor="middle" x="915.28" y="-315" font-family="Helvetica,sans-Serif" font-size="10.00">/services/NodeManagement.h</text>
</a>
</g>
</g>
<!-- Node1&#45;&gt;Node12 -->
<g id="edge25_Node000001_Node000012" class="edge">
<title>Node1&#45;&gt;Node12</title>
<g id="a_edge25_Node000001_Node000012"><a xlink:title=" ">
<path fill="none" stroke="#63b8ff" d="M475.26,-392.85C564.93,-382.66 696.22,-366.74 810.28,-349 813.03,-348.57 815.81,-348.13 818.63,-347.67"/>
<polygon fill="#63b8ff" stroke="#63b8ff" points="474.62,-389.4 465.08,-394 475.41,-396.35 474.62,-389.4"/>
</a>
</g>
</g>
<!-- Node13 -->
<g id="Node000013" class="node">
<title>Node13</title>
<g id="a_Node000013"><a xlink:href="services_2Subscription_8h.html" target="_top" xlink:title=" ">
<polygon fill="white" stroke="#666666" points="589.78,-349 396.78,-349 396.78,-308 589.78,-308 589.78,-349"/>
<text text-anchor="start" x="404.78" y="-337" font-family="Helvetica,sans-Serif" font-size="10.00">/home/runner/work/open62541pp</text>
<text text-anchor="start" x="404.78" y="-326" font-family="Helvetica,sans-Serif" font-size="10.00">/open62541pp/include/open62541pp</text>
<text text-anchor="middle" x="493.28" y="-315" font-family="Helvetica,sans-Serif" font-size="10.00">/services/Subscription.h</text>
</a>
</g>
</g>
<!-- Node1&#45;&gt;Node13 -->
<g id="edge28_Node000001_Node000013" class="edge">
<title>Node1&#45;&gt;Node13</title>
<g id="a_edge28_Node000001_Node000013"><a xlink:title=" ">
<path fill="none" stroke="#63b8ff" d="M409.71,-379.64C426.22,-369.74 444.95,-358.5 460.49,-349.17"/>
<polygon fill="#63b8ff" stroke="#63b8ff" points="407.57,-376.84 400.8,-384.99 411.17,-382.85 407.57,-376.84"/>
</a>
</g>
</g>
<!-- Node2&#45;&gt;Node3 -->
<g id="edge2_Node000002_Node000003" class="edge">
<title>Node2&#45;&gt;Node3</title>
<g id="a_edge2_Node000002_Node000003"><a xlink:title=" ">
<path fill="none" stroke="#63b8ff" d="M335.4,-74.21C373.76,-63.68 419.15,-51.21 456.15,-41.04"/>
<polygon fill="#63b8ff" stroke="#63b8ff" points="334.01,-70.97 325.29,-76.99 335.86,-77.72 334.01,-70.97"/>
</a>
</g>
</g>
<!-- Node4&#45;&gt;Node3 -->
<g id="edge4_Node000004_Node000003" class="edge">
<title>Node4&#45;&gt;Node3</title>
<g id="a_edge4_Node000004_Node000003"><a xlink:title=" ">
<path fill="none" stroke="#63b8ff" d="M126.78,-143.47C126.75,-121.92 130.61,-93.82 148.28,-77 187.71,-39.45 331.77,-27.23 430.47,-23.3"/>
<polygon fill="#63b8ff" stroke="#63b8ff" points="123.29,-143.86 127.08,-153.75 130.29,-143.65 123.29,-143.86"/>
</a>
</g>
</g>
<!-- Node5&#45;&gt;Node3 -->
<g id="edge11_Node000005_Node000003" class="edge">
<title>Node5&#45;&gt;Node3</title>
<g id="a_edge11_Node000005_Node000003"><a xlink:title=" ">
<path fill="none" stroke="#63b8ff" d="M588.3,-220.94C597.53,-185.21 607.84,-124.02 587.28,-77 581.03,-62.7 569.07,-50.44 557.47,-41.11"/>
<polygon fill="#63b8ff" stroke="#63b8ff" points="584.88,-220.17 585.63,-230.74 591.64,-222.01 584.88,-220.17"/>
</a>
</g>
</g>
<!-- Node5&#45;&gt;Node6 -->
<g id="edge6_Node000005_Node000006" class="edge">
<title>Node5&#45;&gt;Node6</title>
<g id="a_edge6_Node000005_Node000006"><a xlink:title=" ">
<path fill="none" stroke="#63b8ff" d="M541.08,-225.37C526.12,-215.53 509.22,-204.41 495.18,-195.17"/>
<polygon fill="#63b8ff" stroke="#63b8ff" points="539.35,-228.42 549.63,-230.99 543.19,-222.57 539.35,-228.42"/>
</a>
</g>
</g>
<!-- Node6&#45;&gt;Node2 -->
<g id="edge7_Node000006_Node000002" class="edge">
<title>Node6&#45;&gt;Node2</title>
<g id="a_edge7_Node000006_Node000002"><a xlink:title=" ">
<path fill="none" stroke="#63b8ff" d="M400.68,-150.54C371.44,-140.15 337.25,-127.99 309.26,-118.04"/>
<polygon fill="#63b8ff" stroke="#63b8ff" points="399.8,-153.94 410.39,-153.99 402.14,-147.34 399.8,-153.94"/>
</a>
</g>
</g>
<!-- Node6&#45;&gt;Node3 -->
<g id="edge10_Node000006_Node000003" class="edge">
<title>Node6&#45;&gt;Node3</title>
<g id="a_edge10_Node000006_Node000003"><a xlink:title=" ">
<path fill="none" stroke="#63b8ff" d="M537.85,-149.12C551.16,-141.29 563.34,-131.12 571.28,-118 586.63,-92.64 565.27,-61.01 547.3,-41.03"/>
<polygon fill="#63b8ff" stroke="#63b8ff" points="536.1,-146.09 528.98,-153.93 539.44,-152.24 536.1,-146.09"/>
</a>
</g>
</g>
<!-- Node6&#45;&gt;Node7 -->
<g id="edge8_Node000006_Node000007" class="edge">
<title>Node6&#45;&gt;Node7</title>
<g id="a_edge8_Node000006_Node000007"><a xlink:title=" ">
<path fill="none" stroke="#63b8ff" d="M465.28,-143.69C465.28,-135.08 465.28,-125.9 465.28,-118.07"/>
<polygon fill="#63b8ff" stroke="#63b8ff" points="461.78,-143.79 465.28,-153.79 468.78,-143.79 461.78,-143.79"/>
</a>
</g>
</g>
<!-- Node7&#45;&gt;Node3 -->
<g id="edge9_Node000007_Node000003" class="edge">
<title>Node7&#45;&gt;Node3</title>
<g id="a_edge9_Node000007_Node000003"><a xlink:title=" ">
<path fill="none" stroke="#63b8ff" d="M488.05,-68.95C495.7,-59.7 504.06,-49.58 511.1,-41.07"/>
<polygon fill="#63b8ff" stroke="#63b8ff" points="485.24,-66.86 481.57,-76.79 490.64,-71.32 485.24,-66.86"/>
</a>
</g>
</g>
<!-- Node8&#45;&gt;Node3 -->
<g id="edge13_Node000008_Node000003" class="edge">
<title>Node8&#45;&gt;Node3</title>
<g id="a_edge13_Node000008_Node000003"><a xlink:title=" ">
<path fill="none" stroke="#63b8ff" d="M1027.52,-227.16C917.57,-181.96 677.42,-83.23 575.04,-41.14"/>
<polygon fill="#63b8ff" stroke="#63b8ff" points="1026.21,-230.41 1036.79,-230.98 1028.87,-223.94 1026.21,-230.41"/>
</a>
</g>
</g>
<!-- Node9&#45;&gt;Node8 -->
<g id="edge18_Node000009_Node000008" class="edge">
<title>Node9&#45;&gt;Node8</title>
<g id="a_edge18_Node000009_Node000008"><a xlink:title=" ">
<path fill="none" stroke="#63b8ff" d="M1110.22,-298.83C1105.22,-289.89 1099.81,-280.24 1095.24,-272.07"/>
<polygon fill="#63b8ff" stroke="#63b8ff" points="1107.31,-300.78 1115.24,-307.79 1113.41,-297.36 1107.31,-300.78"/>
</a>
</g>
</g>
<!-- Node10 -->
<g id="Node000010" class="node">
<title>Node10</title>
<g id="a_Node000010"><a xlink:href="services_8h.html" target="_top" xlink:title=" ">
<polygon fill="white" stroke="#666666" points="925.78,-272 732.78,-272 732.78,-231 925.78,-231 925.78,-272"/>
<text text-anchor="start" x="740.78" y="-260" font-family="Helvetica,sans-Serif" font-size="10.00">/home/runner/work/open62541pp</text>
<text text-anchor="start" x="740.78" y="-249" font-family="Helvetica,sans-Serif" font-size="10.00">/open62541pp/include/open62541pp</text>
<text text-anchor="middle" x="829.28" y="-238" font-family="Helvetica,sans-Serif" font-size="10.00">/services/services.h</text>
</a>
</g>
</g>
<!-- Node9&#45;&gt;Node10 -->
<g id="edge19_Node000009_Node000010" class="edge">
<title>Node9&#45;&gt;Node10</title>
<g id="a_edge19_Node000009_Node000010"><a xlink:title=" ">
<path fill="none" stroke="#63b8ff" d="M1039.09,-305.48C997.14,-294.89 947.26,-282.29 906.67,-272.04"/>
<polygon fill="#63b8ff" stroke="#63b8ff" points="1038.47,-308.94 1049.02,-307.99 1040.18,-302.15 1038.47,-308.94"/>
</a>
</g>
</g>
<!-- Node10&#45;&gt;Node3 -->
<g id="edge20_Node000010_Node000003" class="edge">
<title>Node10&#45;&gt;Node3</title>
<g id="a_edge20_Node000010_Node000003"><a xlink:title=" ">
<path fill="none" stroke="#63b8ff" d="M796.97,-224.56C753.93,-190.19 675.19,-127.97 606.28,-77 589.84,-64.84 571.13,-51.67 556.04,-41.2"/>
<polygon fill="#63b8ff" stroke="#63b8ff" points="794.84,-227.34 804.83,-230.85 799.21,-221.87 794.84,-227.34"/>
</a>
</g>
</g>
<!-- Node11&#45;&gt;Node5 -->
<g id="edge22_Node000011_Node000005" class="edge">
<title>Node11&#45;&gt;Node5</title>
<g id="a_edge22_Node000011_Node000005"><a xlink:title=" ">
<path fill="none" stroke="#63b8ff" d="M662.85,-302.64C646.34,-292.74 627.61,-281.5 612.07,-272.17"/>
<polygon fill="#63b8ff" stroke="#63b8ff" points="661.39,-305.85 671.76,-307.99 664.99,-299.84 661.39,-305.85"/>
</a>
</g>
</g>
<!-- Node11&#45;&gt;Node6 -->
<g id="edge23_Node000011_Node000006" class="edge">
<title>Node11&#45;&gt;Node6</title>
<g id="a_edge23_Node000011_Node000006"><a xlink:title=" ">
<path fill="none" stroke="#63b8ff" d="M706.26,-297.6C705.99,-276.36 701.97,-248.59 685.28,-231 667.9,-212.67 612.71,-198.78 561.97,-189.48"/>
<polygon fill="#63b8ff" stroke="#63b8ff" points="702.76,-297.68 706.12,-307.73 709.76,-297.78 702.76,-297.68"/>
</a>
</g>
</g>
<!-- Node11&#45;&gt;Node10 -->
<g id="edge24_Node000011_Node000010" class="edge">
<title>Node11&#45;&gt;Node10</title>
<g id="a_edge24_Node000011_Node000010"><a xlink:title=" ">
<path fill="none" stroke="#63b8ff" d="M745.71,-302.64C762.22,-292.74 780.95,-281.5 796.49,-272.17"/>
<polygon fill="#63b8ff" stroke="#63b8ff" points="743.57,-299.84 736.8,-307.99 747.17,-305.85 743.57,-299.84"/>
</a>
</g>
</g>
<!-- Node12&#45;&gt;Node8 -->
<g id="edge26_Node000012_Node000008" class="edge">
<title>Node12&#45;&gt;Node8</title>
<g id="a_edge26_Node000012_Node000008"><a xlink:title=" ">
<path fill="none" stroke="#63b8ff" d="M968.55,-303.86C991.63,-293.62 1018.32,-281.77 1040.25,-272.04"/>
<polygon fill="#63b8ff" stroke="#63b8ff" points="966.96,-300.73 959.24,-307.99 969.8,-307.13 966.96,-300.73"/>
</a>
</g>
</g>
<!-- Node12&#45;&gt;Node10 -->
<g id="edge27_Node000012_Node000010" class="edge">
<title>Node12&#45;&gt;Node10</title>
<g id="a_edge27_Node000012_Node000010"><a xlink:title=" ">
<path fill="none" stroke="#63b8ff" d="M884.97,-301.07C874.03,-291.52 861.88,-280.93 851.72,-272.07"/>
<polygon fill="#63b8ff" stroke="#63b8ff" points="882.85,-303.86 892.68,-307.79 887.45,-298.58 882.85,-303.86"/>
</a>
</g>
</g>
<!-- Node13&#45;&gt;Node6 -->
<g id="edge29_Node000013_Node000006" class="edge">
<title>Node13&#45;&gt;Node6</title>
<g id="a_edge29_Node000013_Node000006"><a xlink:title=" ">
<path fill="none" stroke="#63b8ff" d="M481.78,-298.12C478.91,-289.79 476.13,-280.64 474.28,-272 468.67,-245.84 466.55,-214.95 465.76,-195.3"/>
<polygon fill="#63b8ff" stroke="#63b8ff" points="478.57,-299.56 485.26,-307.79 485.16,-297.19 478.57,-299.56"/>
</a>
</g>
</g>
<!-- Node13&#45;&gt;Node10 -->
<g id="edge30_Node000013_Node000010" class="edge">
<title>Node13&#45;&gt;Node10</title>
<g id="a_edge30_Node000013_Node000010"><a xlink:title=" ">
<path fill="none" stroke="#63b8ff" d="M590.72,-305.75C638.43,-295.1 695.42,-282.38 741.73,-272.04"/>
<polygon fill="#63b8ff" stroke="#63b8ff" points="589.68,-302.4 580.68,-307.99 591.21,-309.23 589.68,-302.4"/>
</a>
</g>
</g>
</g>
</svg>
