<?xml version="1.0" encoding="UTF-8" standalone="no"?>
<!DOCTYPE svg PUBLIC "-//W3C//DTD SVG 1.1//EN"
 "http://www.w3.org/Graphics/SVG/1.1/DTD/svg11.dtd">
<!-- Generated by graphviz version 2.43.0 (0)
 -->
<!-- Title: /home/runner/work/open62541pp/open62541pp/include/open62541pp/Crypto.h Pages: 1 -->
<svg width="1499pt" height="401pt"
 viewBox="0.00 0.00 1498.52 401.00" xmlns="http://www.w3.org/2000/svg" xmlns:xlink="http://www.w3.org/1999/xlink">
<g id="graph0" class="graph" transform="scale(1 1) rotate(0) translate(4 397)">
<title>/home/runner/work/open62541pp/open62541pp/include/open62541pp/Crypto.h</title>
<!-- Node1 -->
<g id="Node000001" class="node">
<title>Node1</title>
<g id="a_Node000001"><a xlink:title=" ">
<polygon fill="#999999" stroke="#666666" points="1090.02,-393 897.02,-393 897.02,-352 1090.02,-352 1090.02,-393"/>
<text text-anchor="start" x="905.02" y="-381" font-family="Helvetica,sans-Serif" font-size="10.00">/home/runner/work/open62541pp</text>
<text text-anchor="start" x="905.02" y="-370" font-family="Helvetica,sans-Serif" font-size="10.00">/open62541pp/include/open62541pp</text>
<text text-anchor="middle" x="993.52" y="-359" font-family="Helvetica,sans-Serif" font-size="10.00">/Crypto.h</text>
</a>
</g>
</g>
<!-- Node2 -->
<g id="Node000002" class="node">
<title>Node2</title>
<g id="a_Node000002"><a xlink:title=" ">
<polygon fill="#e0e0e0" stroke="#999999" points="706.02,-316 653.02,-316 653.02,-297 706.02,-297 706.02,-316"/>
<text text-anchor="middle" x="679.52" y="-304" font-family="Helvetica,sans-Serif" font-size="10.00">cstddef</text>
</a>
</g>
</g>
<!-- Node1&#45;&gt;Node2 -->
<g id="edge1_Node000001_Node000002" class="edge">
<title>Node1&#45;&gt;Node2</title>
<g id="a_edge1_Node000001_Node000002"><a xlink:title=" ">
<path fill="none" stroke="#63b8ff" d="M896.86,-353.06C845.94,-343.14 782.21,-330.41 716.39,-316.13"/>
<polygon fill="#63b8ff" stroke="#63b8ff" points="716.75,-312.62 706.24,-313.92 715.26,-319.46 716.75,-312.62"/>
</a>
</g>
</g>
<!-- Node3 -->
<g id="Node000003" class="node">
<title>Node3</title>
<g id="a_Node000003"><a xlink:href="Config_8h.html" target="_top" xlink:title=" ">
<polygon fill="white" stroke="#666666" points="1446.02,-316 1321.02,-316 1321.02,-297 1446.02,-297 1446.02,-316"/>
<text text-anchor="middle" x="1383.52" y="-304" font-family="Helvetica,sans-Serif" font-size="10.00">open62541pp/Config.h</text>
</a>
</g>
</g>
<!-- Node1&#45;&gt;Node3 -->
<g id="edge2_Node000001_Node000003" class="edge">
<title>Node1&#45;&gt;Node3</title>
<g id="a_edge2_Node000001_Node000003"><a xlink:title=" ">
<path fill="none" stroke="#63b8ff" d="M1090.18,-355.64C1162.51,-343.77 1259.3,-327.89 1321.54,-317.67"/>
<polygon fill="#63b8ff" stroke="#63b8ff" points="1322.3,-321.09 1331.6,-316.02 1321.17,-314.19 1322.3,-321.09"/>
</a>
</g>
</g>
<!-- Node10 -->
<g id="Node000010" class="node">
<title>Node10</title>
<g id="a_Node000010"><a xlink:href="Span_8h.html" target="_top" xlink:title=" ">
<polygon fill="white" stroke="#666666" points="1257.02,-200.5 1138.02,-200.5 1138.02,-181.5 1257.02,-181.5 1257.02,-200.5"/>
<text text-anchor="middle" x="1197.52" y="-188.5" font-family="Helvetica,sans-Serif" font-size="10.00">open62541pp/Span.h</text>
</a>
</g>
</g>
<!-- Node1&#45;&gt;Node10 -->
<g id="edge9_Node000001_Node000010" class="edge">
<title>Node1&#45;&gt;Node10</title>
<g id="a_edge9_Node000001_Node000010"><a xlink:title=" ">
<path fill="none" stroke="#63b8ff" d="M1015.74,-351.95C1056.64,-315.96 1143.04,-239.94 1180.07,-207.36"/>
<polygon fill="#63b8ff" stroke="#63b8ff" points="1182.39,-209.98 1187.58,-200.75 1177.77,-204.72 1182.39,-209.98"/>
</a>
</g>
</g>
<!-- Node20 -->
<g id="Node000020" class="node">
<title>Node20</title>
<g id="a_Node000020"><a xlink:href="Builtin_8h.html" target="_top" xlink:title=" ">
<polygon fill="white" stroke="#666666" points="880.52,-316 724.52,-316 724.52,-297 880.52,-297 880.52,-316"/>
<text text-anchor="middle" x="802.52" y="-304" font-family="Helvetica,sans-Serif" font-size="10.00">open62541pp/types/Builtin.h</text>
</a>
</g>
</g>
<!-- Node1&#45;&gt;Node20 -->
<g id="edge19_Node000001_Node000020" class="edge">
<title>Node1&#45;&gt;Node20</title>
<g id="a_edge19_Node000001_Node000020"><a xlink:title=" ">
<path fill="none" stroke="#63b8ff" d="M935.18,-351.95C903.23,-341.24 864.71,-328.34 837.42,-319.19"/>
<polygon fill="#63b8ff" stroke="#63b8ff" points="838.51,-315.87 827.92,-316.01 836.29,-322.5 838.51,-315.87"/>
</a>
</g>
</g>
<!-- Node4 -->
<g id="Node000004" class="node">
<title>Node4</title>
<g id="a_Node000004"><a xlink:href="open62541_8h.html" target="_top" xlink:title=" ">
<polygon fill="white" stroke="#666666" points="1004.02,-74 855.02,-74 855.02,-55 1004.02,-55 1004.02,-74"/>
<text text-anchor="middle" x="929.52" y="-62" font-family="Helvetica,sans-Serif" font-size="10.00">open62541pp/open62541.h</text>
</a>
</g>
</g>
<!-- Node3&#45;&gt;Node4 -->
<g id="edge3_Node000003_Node000004" class="edge">
<title>Node3&#45;&gt;Node4</title>
<g id="a_edge3_Node000003_Node000004"><a xlink:title=" ">
<path fill="none" stroke="#63b8ff" d="M1390.13,-296.73C1412.05,-266.51 1478.24,-165.45 1427.52,-110 1400.26,-80.19 1149.33,-70.2 1014.43,-66.97"/>
<polygon fill="#63b8ff" stroke="#63b8ff" points="1014.2,-63.47 1004.13,-66.73 1014.04,-70.47 1014.2,-63.47"/>
</a>
</g>
</g>
<!-- Node5 -->
<g id="Node000005" class="node">
<title>Node5</title>
<g id="a_Node000005"><a target="_blank" xlink:href="open62541/config_8h.html" xlink:title=" ">
<polygon fill="white" stroke="#666666" points="701.52,-19 589.52,-19 589.52,0 701.52,0 701.52,-19"/>
<text text-anchor="middle" x="645.52" y="-7" font-family="Helvetica,sans-Serif" font-size="10.00">open62541/config.h</text>
</a>
</g>
</g>
<!-- Node4&#45;&gt;Node5 -->
<g id="edge4_Node000004_Node000005" class="edge">
<title>Node4&#45;&gt;Node5</title>
<g id="a_edge4_Node000004_Node000005"><a xlink:title=" ">
<path fill="none" stroke="#63b8ff" d="M883.89,-54.98C834.25,-45.72 754.86,-30.9 701.49,-20.94"/>
<polygon fill="#63b8ff" stroke="#63b8ff" points="701.98,-17.48 691.51,-19.08 700.7,-24.36 701.98,-17.48"/>
</a>
</g>
</g>
<!-- Node6 -->
<g id="Node000006" class="node">
<title>Node6</title>
<g id="a_Node000006"><a target="_blank" xlink:href="open62541/nodeids_8h.html" xlink:title=" ">
<polygon fill="white" stroke="#666666" points="841.02,-19 720.02,-19 720.02,0 841.02,0 841.02,-19"/>
<text text-anchor="middle" x="780.52" y="-7" font-family="Helvetica,sans-Serif" font-size="10.00">open62541/nodeids.h</text>
</a>
</g>
</g>
<!-- Node4&#45;&gt;Node6 -->
<g id="edge5_Node000004_Node000006" class="edge">
<title>Node4&#45;&gt;Node6</title>
<g id="a_edge5_Node000004_Node000006"><a xlink:title=" ">
<path fill="none" stroke="#63b8ff" d="M905.58,-54.98C880.97,-46.23 842.4,-32.51 814.61,-22.62"/>
<polygon fill="#63b8ff" stroke="#63b8ff" points="815.49,-19.22 804.9,-19.17 813.15,-25.82 815.49,-19.22"/>
</a>
</g>
</g>
<!-- Node7 -->
<g id="Node000007" class="node">
<title>Node7</title>
<g id="a_Node000007"><a target="_blank" xlink:href="open62541/statuscodes_8h.html" xlink:title=" ">
<polygon fill="white" stroke="#666666" points="1000.02,-19 859.02,-19 859.02,0 1000.02,0 1000.02,-19"/>
<text text-anchor="middle" x="929.52" y="-7" font-family="Helvetica,sans-Serif" font-size="10.00">open62541/statuscodes.h</text>
</a>
</g>
</g>
<!-- Node4&#45;&gt;Node7 -->
<g id="edge6_Node000004_Node000007" class="edge">
<title>Node4&#45;&gt;Node7</title>
<g id="a_edge6_Node000004_Node000007"><a xlink:title=" ">
<path fill="none" stroke="#63b8ff" d="M929.52,-54.75C929.52,-47.8 929.52,-37.85 929.52,-29.13"/>
<polygon fill="#63b8ff" stroke="#63b8ff" points="933.02,-29.09 929.52,-19.09 926.02,-29.09 933.02,-29.09"/>
</a>
</g>
</g>
<!-- Node8 -->
<g id="Node000008" class="node">
<title>Node8</title>
<g id="a_Node000008"><a target="_blank" xlink:href="open62541/types_8h.html" xlink:title=" ">
<polygon fill="white" stroke="#666666" points="1128.52,-19 1018.52,-19 1018.52,0 1128.52,0 1128.52,-19"/>
<text text-anchor="middle" x="1073.52" y="-7" font-family="Helvetica,sans-Serif" font-size="10.00">open62541/types.h</text>
</a>
</g>
</g>
<!-- Node4&#45;&gt;Node8 -->
<g id="edge7_Node000004_Node000008" class="edge">
<title>Node4&#45;&gt;Node8</title>
<g id="a_edge7_Node000004_Node000008"><a xlink:title=" ">
<path fill="none" stroke="#63b8ff" d="M952.66,-54.98C976.35,-46.27 1013.39,-32.63 1040.23,-22.75"/>
<polygon fill="#63b8ff" stroke="#63b8ff" points="1041.79,-25.91 1049.97,-19.17 1039.37,-19.34 1041.79,-25.91"/>
</a>
</g>
</g>
<!-- Node9 -->
<g id="Node000009" class="node">
<title>Node9</title>
<g id="a_Node000009"><a target="_blank" xlink:href="open62541/types__generated_8h.html" xlink:title=" ">
<polygon fill="white" stroke="#666666" points="1310.52,-19 1146.52,-19 1146.52,0 1310.52,0 1310.52,-19"/>
<text text-anchor="middle" x="1228.52" y="-7" font-family="Helvetica,sans-Serif" font-size="10.00">open62541/types_generated.h</text>
</a>
</g>
</g>
<!-- Node4&#45;&gt;Node9 -->
<g id="edge8_Node000004_Node000009" class="edge">
<title>Node4&#45;&gt;Node9</title>
<g id="a_edge8_Node000004_Node000009"><a xlink:title=" ">
<path fill="none" stroke="#63b8ff" d="M977.56,-54.98C1029.94,-45.7 1113.76,-30.84 1169.95,-20.88"/>
<polygon fill="#63b8ff" stroke="#63b8ff" points="1170.87,-24.27 1180.11,-19.08 1169.65,-17.38 1170.87,-24.27"/>
</a>
</g>
</g>
<!-- Node11 -->
<g id="Node000011" class="node">
<title>Node11</title>
<g id="a_Node000011"><a xlink:title=" ">
<polygon fill="#e0e0e0" stroke="#999999" points="901.52,-134.5 837.52,-134.5 837.52,-115.5 901.52,-115.5 901.52,-134.5"/>
<text text-anchor="middle" x="869.52" y="-122.5" font-family="Helvetica,sans-Serif" font-size="10.00">algorithm</text>
</a>
</g>
</g>
<!-- Node10&#45;&gt;Node11 -->
<g id="edge10_Node000010_Node000011" class="edge">
<title>Node10&#45;&gt;Node11</title>
<g id="a_edge10_Node000010_Node000011"><a xlink:title=" ">
<path fill="none" stroke="#63b8ff" d="M1153.63,-181.44C1090.3,-169.08 974.07,-146.4 911.7,-134.23"/>
<polygon fill="#63b8ff" stroke="#63b8ff" points="912.29,-130.78 901.81,-132.3 910.95,-137.65 912.29,-130.78"/>
</a>
</g>
</g>
<!-- Node12 -->
<g id="Node000012" class="node">
<title>Node12</title>
<g id="a_Node000012"><a xlink:title=" ">
<polygon fill="#e0e0e0" stroke="#999999" points="819.52,-134.5 767.52,-134.5 767.52,-115.5 819.52,-115.5 819.52,-134.5"/>
<text text-anchor="middle" x="793.52" y="-122.5" font-family="Helvetica,sans-Serif" font-size="10.00">cassert</text>
</a>
</g>
</g>
<!-- Node10&#45;&gt;Node12 -->
<g id="edge11_Node000010_Node000012" class="edge">
<title>Node10&#45;&gt;Node12</title>
<g id="a_edge11_Node000010_Node000012"><a xlink:title=" ">
<path fill="none" stroke="#63b8ff" d="M1137.85,-186.44C1064.15,-181.01 935.42,-168.16 828.52,-140 826.36,-139.43 824.16,-138.77 821.96,-138.04"/>
<polygon fill="#63b8ff" stroke="#63b8ff" points="823.09,-134.72 812.49,-134.57 820.68,-141.3 823.09,-134.72"/>
</a>
</g>
</g>
<!-- Node13 -->
<g id="Node000013" class="node">
<title>Node13</title>
<g id="a_Node000013"><a xlink:title=" ">
<polygon fill="#e0e0e0" stroke="#999999" points="1490.52,-74 1440.52,-74 1440.52,-55 1490.52,-55 1490.52,-74"/>
<text text-anchor="middle" x="1465.52" y="-62" font-family="Helvetica,sans-Serif" font-size="10.00">cstdint</text>
</a>
</g>
</g>
<!-- Node10&#45;&gt;Node13 -->
<g id="edge12_Node000010_Node000013" class="edge">
<title>Node10&#45;&gt;Node13</title>
<g id="a_edge12_Node000010_Node000013"><a xlink:title=" ">
<path fill="none" stroke="#63b8ff" d="M1257.18,-182.9C1316.17,-174.86 1401.31,-160.2 1427.52,-140 1445.54,-126.11 1455.74,-101.32 1460.94,-84.17"/>
<polygon fill="#63b8ff" stroke="#63b8ff" points="1464.41,-84.76 1463.67,-74.2 1457.65,-82.92 1464.41,-84.76"/>
</a>
</g>
</g>
<!-- Node14 -->
<g id="Node000014" class="node">
<title>Node14</title>
<g id="a_Node000014"><a xlink:title=" ">
<polygon fill="#e0e0e0" stroke="#999999" points="1285.02,-134.5 1202.02,-134.5 1202.02,-115.5 1285.02,-115.5 1285.02,-134.5"/>
<text text-anchor="middle" x="1243.52" y="-122.5" font-family="Helvetica,sans-Serif" font-size="10.00">initializer_list</text>
</a>
</g>
</g>
<!-- Node10&#45;&gt;Node14 -->
<g id="edge13_Node000010_Node000014" class="edge">
<title>Node10&#45;&gt;Node14</title>
<g id="a_edge13_Node000010_Node000014"><a xlink:title=" ">
<path fill="none" stroke="#63b8ff" d="M1203.73,-181.37C1210.75,-171.59 1222.38,-155.42 1231.25,-143.08"/>
<polygon fill="#63b8ff" stroke="#63b8ff" points="1234.13,-145.07 1237.12,-134.91 1228.45,-140.98 1234.13,-145.07"/>
</a>
</g>
</g>
<!-- Node15 -->
<g id="Node000015" class="node">
<title>Node15</title>
<g id="a_Node000015"><a xlink:title=" ">
<polygon fill="#e0e0e0" stroke="#999999" points="1356.02,-134.5 1303.02,-134.5 1303.02,-115.5 1356.02,-115.5 1356.02,-134.5"/>
<text text-anchor="middle" x="1329.52" y="-122.5" font-family="Helvetica,sans-Serif" font-size="10.00">iterator</text>
</a>
</g>
</g>
<!-- Node10&#45;&gt;Node15 -->
<g id="edge14_Node000010_Node000015" class="edge">
<title>Node10&#45;&gt;Node15</title>
<g id="a_edge14_Node000010_Node000015"><a xlink:title=" ">
<path fill="none" stroke="#63b8ff" d="M1215.33,-181.37C1237.67,-170.54 1276.2,-151.85 1302.26,-139.22"/>
<polygon fill="#63b8ff" stroke="#63b8ff" points="1304.11,-142.21 1311.58,-134.7 1301.06,-135.91 1304.11,-142.21"/>
</a>
</g>
</g>
<!-- Node16 -->
<g id="Node000016" class="node">
<title>Node16</title>
<g id="a_Node000016"><a xlink:title=" ">
<polygon fill="#e0e0e0" stroke="#999999" points="1418.52,-134.5 1374.52,-134.5 1374.52,-115.5 1418.52,-115.5 1418.52,-134.5"/>
<text text-anchor="middle" x="1396.52" y="-122.5" font-family="Helvetica,sans-Serif" font-size="10.00">limits</text>
</a>
</g>
</g>
<!-- Node10&#45;&gt;Node16 -->
<g id="edge15_Node000010_Node000016" class="edge">
<title>Node10&#45;&gt;Node16</title>
<g id="a_edge15_Node000010_Node000016"><a xlink:title=" ">
<path fill="none" stroke="#63b8ff" d="M1230.23,-181.47C1264.18,-172.33 1318.64,-156.84 1364.52,-140 1365.91,-139.49 1367.33,-138.95 1368.75,-138.39"/>
<polygon fill="#63b8ff" stroke="#63b8ff" points="1370.17,-141.59 1378.07,-134.53 1367.49,-135.13 1370.17,-141.59"/>
</a>
</g>
</g>
<!-- Node17 -->
<g id="Node000017" class="node">
<title>Node17</title>
<g id="a_Node000017"><a xlink:title=" ">
<polygon fill="#e0e0e0" stroke="#999999" points="455.02,-74 386.02,-74 386.02,-55 455.02,-55 455.02,-74"/>
<text text-anchor="middle" x="420.52" y="-62" font-family="Helvetica,sans-Serif" font-size="10.00">type_traits</text>
</a>
</g>
</g>
<!-- Node10&#45;&gt;Node17 -->
<g id="edge16_Node000010_Node000017" class="edge">
<title>Node10&#45;&gt;Node17</title>
<g id="a_edge16_Node000010_Node000017"><a xlink:title=" ">
<path fill="none" stroke="#63b8ff" d="M1195.67,-181.35C1191.5,-164.3 1179.64,-126.53 1153.52,-110 1095.53,-73.29 616.49,-66.85 465.75,-65.73"/>
<polygon fill="#63b8ff" stroke="#63b8ff" points="465.5,-62.23 455.48,-65.66 465.45,-69.23 465.5,-62.23"/>
</a>
</g>
</g>
<!-- Node18 -->
<g id="Node000018" class="node">
<title>Node18</title>
<g id="a_Node000018"><a xlink:title=" ">
<polygon fill="#e0e0e0" stroke="#999999" points="1145.02,-134.5 1100.02,-134.5 1100.02,-115.5 1145.02,-115.5 1145.02,-134.5"/>
<text text-anchor="middle" x="1122.52" y="-122.5" font-family="Helvetica,sans-Serif" font-size="10.00">utility</text>
</a>
</g>
</g>
<!-- Node10&#45;&gt;Node18 -->
<g id="edge17_Node000010_Node000018" class="edge">
<title>Node10&#45;&gt;Node18</title>
<g id="a_edge17_Node000010_Node000018"><a xlink:title=" ">
<path fill="none" stroke="#63b8ff" d="M1187.41,-181.37C1175.51,-171.21 1155.52,-154.16 1140.87,-141.65"/>
<polygon fill="#63b8ff" stroke="#63b8ff" points="1142.84,-138.73 1132.96,-134.91 1138.3,-144.06 1142.84,-138.73"/>
</a>
</g>
</g>
<!-- Node19 -->
<g id="Node000019" class="node">
<title>Node19</title>
<g id="a_Node000019"><a xlink:title=" ">
<polygon fill="#e0e0e0" stroke="#999999" points="1043.02,-134.5 996.02,-134.5 996.02,-115.5 1043.02,-115.5 1043.02,-134.5"/>
<text text-anchor="middle" x="1019.52" y="-122.5" font-family="Helvetica,sans-Serif" font-size="10.00">vector</text>
</a>
</g>
</g>
<!-- Node10&#45;&gt;Node19 -->
<g id="edge18_Node000010_Node000019" class="edge">
<title>Node10&#45;&gt;Node19</title>
<g id="a_edge18_Node000010_Node000019"><a xlink:title=" ">
<path fill="none" stroke="#63b8ff" d="M1173.52,-181.37C1142.43,-170.19 1088.06,-150.64 1052.95,-138.02"/>
<polygon fill="#63b8ff" stroke="#63b8ff" points="1053.74,-134.58 1043.15,-134.49 1051.38,-141.17 1053.74,-134.58"/>
</a>
</g>
</g>
<!-- Node20&#45;&gt;Node4 -->
<g id="edge57_Node000020_Node000004" class="edge">
<title>Node20&#45;&gt;Node4</title>
<g id="a_edge57_Node000020_Node000004"><a xlink:title=" ">
<path fill="none" stroke="#63b8ff" d="M880.53,-302.26C945.52,-297.73 1030.83,-286.89 1052.52,-261 1063.58,-247.8 1127.63,-217.9 1051.52,-110 1040.24,-94 1022.56,-83.73 1004.14,-77.15"/>
<polygon fill="#63b8ff" stroke="#63b8ff" points="1005.06,-73.77 994.46,-74.03 1002.91,-80.43 1005.06,-73.77"/>
</a>
</g>
</g>
<!-- Node20&#45;&gt;Node13 -->
<g id="edge21_Node000020_Node000013" class="edge">
<title>Node20&#45;&gt;Node13</title>
<g id="a_edge21_Node000020_Node000013"><a xlink:title=" ">
<path fill="none" stroke="#63b8ff" d="M880.87,-302.82C991.59,-296.57 1198.22,-275.68 1358.52,-206 1404.34,-186.08 1422.25,-181.86 1449.52,-140 1460.45,-123.23 1464.05,-100.27 1465.17,-84.28"/>
<polygon fill="#63b8ff" stroke="#63b8ff" points="1468.67,-84.21 1465.61,-74.07 1461.68,-83.9 1468.67,-84.21"/>
</a>
</g>
</g>
<!-- Node20&#45;&gt;Node19 -->
<g id="edge25_Node000020_Node000019" class="edge">
<title>Node20&#45;&gt;Node19</title>
<g id="a_edge25_Node000020_Node000019"><a xlink:title=" ">
<path fill="none" stroke="#63b8ff" d="M796.9,-296.65C789.23,-283.32 777.79,-257.96 790.52,-242 835.44,-185.7 886.55,-242.69 948.52,-206 974.92,-190.37 996.82,-161.6 1009.03,-143.15"/>
<polygon fill="#63b8ff" stroke="#63b8ff" points="1012.07,-144.89 1014.5,-134.58 1006.17,-141.12 1012.07,-144.89"/>
</a>
</g>
</g>
<!-- Node21 -->
<g id="Node000021" class="node">
<title>Node21</title>
<g id="a_Node000021"><a xlink:title=" ">
<polygon fill="#e0e0e0" stroke="#999999" points="677.52,-261 635.52,-261 635.52,-242 677.52,-242 677.52,-261"/>
<text text-anchor="middle" x="656.52" y="-249" font-family="Helvetica,sans-Serif" font-size="10.00">array</text>
</a>
</g>
</g>
<!-- Node20&#45;&gt;Node21 -->
<g id="edge20_Node000020_Node000021" class="edge">
<title>Node20&#45;&gt;Node21</title>
<g id="a_edge20_Node000020_Node000021"><a xlink:title=" ">
<path fill="none" stroke="#63b8ff" d="M779.07,-296.98C754.08,-287.92 714.44,-273.53 687.04,-263.58"/>
<polygon fill="#63b8ff" stroke="#63b8ff" points="688.15,-260.26 677.55,-260.13 685.76,-266.84 688.15,-260.26"/>
</a>
</g>
</g>
<!-- Node22 -->
<g id="Node000022" class="node">
<title>Node22</title>
<g id="a_Node000022"><a xlink:title=" ">
<polygon fill="#e0e0e0" stroke="#999999" points="743.52,-261 695.52,-261 695.52,-242 743.52,-242 743.52,-261"/>
<text text-anchor="middle" x="719.52" y="-249" font-family="Helvetica,sans-Serif" font-size="10.00">iosfwd</text>
</a>
</g>
</g>
<!-- Node20&#45;&gt;Node22 -->
<g id="edge22_Node000020_Node000022" class="edge">
<title>Node20&#45;&gt;Node22</title>
<g id="a_edge22_Node000020_Node000022"><a xlink:title=" ">
<path fill="none" stroke="#63b8ff" d="M789.19,-296.98C776.44,-288.84 756.97,-276.41 741.85,-266.76"/>
<polygon fill="#63b8ff" stroke="#63b8ff" points="743.41,-263.6 733.1,-261.17 739.65,-269.5 743.41,-263.6"/>
</a>
</g>
</g>
<!-- Node23 -->
<g id="Node000023" class="node">
<title>Node23</title>
<g id="a_Node000023"><a xlink:title=" ">
<polygon fill="#e0e0e0" stroke="#999999" points="45.52,-74 1.52,-74 1.52,-55 45.52,-55 45.52,-74"/>
<text text-anchor="middle" x="23.52" y="-62" font-family="Helvetica,sans-Serif" font-size="10.00">string</text>
</a>
</g>
</g>
<!-- Node20&#45;&gt;Node23 -->
<g id="edge23_Node000020_Node000023" class="edge">
<title>Node20&#45;&gt;Node23</title>
<g id="a_edge23_Node000020_Node000023"><a xlink:title=" ">
<path fill="none" stroke="#63b8ff" d="M729.17,-296.98C665.54,-289.13 571.1,-276.39 489.52,-261 272.06,-219.96 141.57,-315.32 6.52,-140 -6.08,-123.64 2.93,-99.62 11.93,-83.32"/>
<polygon fill="#63b8ff" stroke="#63b8ff" points="15.2,-84.67 17.34,-74.29 9.2,-81.07 15.2,-84.67"/>
</a>
</g>
</g>
<!-- Node24 -->
<g id="Node000024" class="node">
<title>Node24</title>
<g id="a_Node000024"><a xlink:title=" ">
<polygon fill="#e0e0e0" stroke="#999999" points="307.02,-134.5 234.02,-134.5 234.02,-115.5 307.02,-115.5 307.02,-134.5"/>
<text text-anchor="middle" x="270.52" y="-122.5" font-family="Helvetica,sans-Serif" font-size="10.00">string_view</text>
</a>
</g>
</g>
<!-- Node20&#45;&gt;Node24 -->
<g id="edge24_Node000020_Node000024" class="edge">
<title>Node20&#45;&gt;Node24</title>
<g id="a_edge24_Node000020_Node000024"><a xlink:title=" ">
<path fill="none" stroke="#63b8ff" d="M763.37,-296.96C727.46,-288.81 672.97,-275.63 626.52,-261 503.2,-222.17 360.49,-163.86 300.02,-138.51"/>
<polygon fill="#63b8ff" stroke="#63b8ff" points="301.28,-135.24 290.7,-134.59 298.57,-141.69 301.28,-135.24"/>
</a>
</g>
</g>
<!-- Node25 -->
<g id="Node000025" class="node">
<title>Node25</title>
<g id="a_Node000025"><a xlink:title=" ">
<polygon fill="#e0e0e0" stroke="#999999" points="867.52,-261 799.52,-261 799.52,-242 867.52,-242 867.52,-261"/>
<text text-anchor="middle" x="833.52" y="-249" font-family="Helvetica,sans-Serif" font-size="10.00">filesystem</text>
</a>
</g>
</g>
<!-- Node20&#45;&gt;Node25 -->
<g id="edge26_Node000020_Node000025" class="edge">
<title>Node20&#45;&gt;Node25</title>
<g id="a_edge26_Node000020_Node000025"><a xlink:title=" ">
<path fill="none" stroke="#63b8ff" d="M807.64,-296.75C811.89,-289.49 818.05,-278.95 823.3,-269.98"/>
<polygon fill="#63b8ff" stroke="#63b8ff" points="826.47,-271.49 828.5,-261.09 820.43,-267.95 826.47,-271.49"/>
</a>
</g>
</g>
<!-- Node26 -->
<g id="Node000026" class="node">
<title>Node26</title>
<g id="a_Node000026"><a xlink:href="ErrorHandling_8h.html" target="_top" xlink:title=" ">
<polygon fill="white" stroke="#666666" points="177.02,-134.5 16.02,-134.5 16.02,-115.5 177.02,-115.5 177.02,-134.5"/>
<text text-anchor="middle" x="96.52" y="-122.5" font-family="Helvetica,sans-Serif" font-size="10.00">open62541pp/ErrorHandling.h</text>
</a>
</g>
</g>
<!-- Node20&#45;&gt;Node26 -->
<g id="edge27_Node000020_Node000026" class="edge">
<title>Node20&#45;&gt;Node26</title>
<g id="a_edge27_Node000020_Node000026"><a xlink:title=" ">
<path fill="none" stroke="#63b8ff" d="M749.74,-297C701.71,-288.92 629,-275.83 566.52,-261 403.08,-222.21 211.52,-162.73 132.94,-137.72"/>
<polygon fill="#63b8ff" stroke="#63b8ff" points="133.65,-134.27 123.05,-134.57 131.52,-140.94 133.65,-134.27"/>
</a>
</g>
</g>
<!-- Node29 -->
<g id="Node000029" class="node">
<title>Node29</title>
<g id="a_Node000029"><a xlink:href="TypeWrapper_8h.html" target="_top" xlink:title=" ">
<polygon fill="white" stroke="#666666" points="1043.52,-261 885.52,-261 885.52,-242 1043.52,-242 1043.52,-261"/>
<text text-anchor="middle" x="964.52" y="-249" font-family="Helvetica,sans-Serif" font-size="10.00">open62541pp/TypeWrapper.h</text>
</a>
</g>
</g>
<!-- Node20&#45;&gt;Node29 -->
<g id="edge33_Node000020_Node000029" class="edge">
<title>Node20&#45;&gt;Node29</title>
<g id="a_edge33_Node000020_Node000029"><a xlink:title=" ">
<path fill="none" stroke="#63b8ff" d="M828.55,-296.98C855.63,-288.13 898.23,-274.19 928.53,-264.28"/>
<polygon fill="#63b8ff" stroke="#63b8ff" points="929.88,-267.52 938.29,-261.08 927.7,-260.87 929.88,-267.52"/>
</a>
</g>
</g>
<!-- Node26&#45;&gt;Node4 -->
<g id="edge32_Node000026_Node000004" class="edge">
<title>Node26&#45;&gt;Node4</title>
<g id="a_edge32_Node000026_Node000004"><a xlink:title=" ">
<path fill="none" stroke="#63b8ff" d="M168.9,-115.5C187.05,-113.53 206.48,-111.56 224.52,-110 448.1,-90.73 712.25,-76.27 844.75,-69.59"/>
<polygon fill="#63b8ff" stroke="#63b8ff" points="845.02,-73.08 854.83,-69.09 844.67,-66.09 845.02,-73.08"/>
</a>
</g>
</g>
<!-- Node26&#45;&gt;Node17 -->
<g id="edge31_Node000026_Node000017" class="edge">
<title>Node26&#45;&gt;Node17</title>
<g id="a_edge31_Node000026_Node000017"><a xlink:title=" ">
<path fill="none" stroke="#63b8ff" d="M143.64,-115.49C205.85,-104.26 314.65,-84.62 375.7,-73.59"/>
<polygon fill="#63b8ff" stroke="#63b8ff" points="376.58,-76.99 385.8,-71.77 375.33,-70.1 376.58,-76.99"/>
</a>
</g>
</g>
<!-- Node26&#45;&gt;Node23 -->
<g id="edge30_Node000026_Node000023" class="edge">
<title>Node26&#45;&gt;Node23</title>
<g id="a_edge30_Node000026_Node000023"><a xlink:title=" ">
<path fill="none" stroke="#63b8ff" d="M85.75,-115.37C74.32,-106.21 56.05,-91.56 42.25,-80.51"/>
<polygon fill="#63b8ff" stroke="#63b8ff" points="44.33,-77.69 34.34,-74.17 39.95,-83.15 44.33,-77.69"/>
</a>
</g>
</g>
<!-- Node27 -->
<g id="Node000027" class="node">
<title>Node27</title>
<g id="a_Node000027"><a xlink:title=" ">
<polygon fill="#e0e0e0" stroke="#999999" points="129.02,-74 64.02,-74 64.02,-55 129.02,-55 129.02,-74"/>
<text text-anchor="middle" x="96.52" y="-62" font-family="Helvetica,sans-Serif" font-size="10.00">functional</text>
</a>
</g>
</g>
<!-- Node26&#45;&gt;Node27 -->
<g id="edge28_Node000026_Node000027" class="edge">
<title>Node26&#45;&gt;Node27</title>
<g id="a_edge28_Node000026_Node000027"><a xlink:title=" ">
<path fill="none" stroke="#63b8ff" d="M96.52,-115.37C96.52,-107.25 96.52,-94.81 96.52,-84.39"/>
<polygon fill="#63b8ff" stroke="#63b8ff" points="100.02,-84.17 96.52,-74.17 93.02,-84.17 100.02,-84.17"/>
</a>
</g>
</g>
<!-- Node28 -->
<g id="Node000028" class="node">
<title>Node28</title>
<g id="a_Node000028"><a xlink:title=" ">
<polygon fill="#e0e0e0" stroke="#999999" points="212.02,-74 147.02,-74 147.02,-55 212.02,-55 212.02,-74"/>
<text text-anchor="middle" x="179.52" y="-62" font-family="Helvetica,sans-Serif" font-size="10.00">stdexcept</text>
</a>
</g>
</g>
<!-- Node26&#45;&gt;Node28 -->
<g id="edge29_Node000026_Node000028" class="edge">
<title>Node26&#45;&gt;Node28</title>
<g id="a_edge29_Node000026_Node000028"><a xlink:title=" ">
<path fill="none" stroke="#63b8ff" d="M108.77,-115.37C121.89,-106.12 142.94,-91.28 158.68,-80.19"/>
<polygon fill="#63b8ff" stroke="#63b8ff" points="161.07,-82.79 167.23,-74.17 157.04,-77.07 161.07,-82.79"/>
</a>
</g>
</g>
<!-- Node29&#45;&gt;Node4 -->
<g id="edge54_Node000029_Node000004" class="edge">
<title>Node29&#45;&gt;Node4</title>
<g id="a_edge54_Node000029_Node000004"><a xlink:title=" ">
<path fill="none" stroke="#63b8ff" d="M962.84,-241.58C957.43,-213.01 940.47,-123.36 933.05,-84.16"/>
<polygon fill="#63b8ff" stroke="#63b8ff" points="936.49,-83.51 931.2,-74.33 929.62,-84.81 936.49,-83.51"/>
</a>
</g>
</g>
<!-- Node29&#45;&gt;Node12 -->
<g id="edge34_Node000029_Node000012" class="edge">
<title>Node29&#45;&gt;Node12</title>
<g id="a_edge34_Node000029_Node000012"><a xlink:title=" ">
<path fill="none" stroke="#63b8ff" d="M903.1,-241.99C860.84,-234.76 810,-222.85 796.52,-206 782.72,-188.74 784.91,-162.06 788.54,-144.32"/>
<polygon fill="#63b8ff" stroke="#63b8ff" points="791.95,-145.13 790.87,-134.59 785.14,-143.51 791.95,-145.13"/>
</a>
</g>
</g>
<!-- Node29&#45;&gt;Node13 -->
<g id="edge35_Node000029_Node000013" class="edge">
<title>Node29&#45;&gt;Node13</title>
<g id="a_edge35_Node000029_Node000013"><a xlink:title=" ">
<path fill="none" stroke="#63b8ff" d="M1043.57,-244.06C1168.25,-232.13 1401.74,-201.93 1453.52,-140 1466.36,-124.65 1468.15,-101.09 1467.51,-84.59"/>
<polygon fill="#63b8ff" stroke="#63b8ff" points="1470.99,-84.2 1466.78,-74.48 1464.01,-84.7 1470.99,-84.2"/>
</a>
</g>
</g>
<!-- Node29&#45;&gt;Node17 -->
<g id="edge36_Node000029_Node000017" class="edge">
<title>Node29&#45;&gt;Node17</title>
<g id="a_edge36_Node000029_Node000017"><a xlink:title=" ">
<path fill="none" stroke="#63b8ff" d="M885.37,-242.84C882.38,-242.55 879.43,-242.27 876.52,-242 730.52,-228.21 314.67,-255.67 224.52,-140 182.86,-86.54 305.48,-71.43 375.46,-67.17"/>
<polygon fill="#63b8ff" stroke="#63b8ff" points="376,-70.65 385.79,-66.6 375.61,-63.66 376,-70.65"/>
</a>
</g>
</g>
<!-- Node29&#45;&gt;Node18 -->
<g id="edge37_Node000029_Node000018" class="edge">
<title>Node29&#45;&gt;Node18</title>
<g id="a_edge37_Node000029_Node000018"><a xlink:title=" ">
<path fill="none" stroke="#63b8ff" d="M975.38,-241.94C1001.88,-221.06 1070.11,-167.3 1103.52,-140.97"/>
<polygon fill="#63b8ff" stroke="#63b8ff" points="1105.9,-143.56 1111.59,-134.62 1101.57,-138.06 1105.9,-143.56"/>
</a>
</g>
</g>
<!-- Node29&#45;&gt;Node26 -->
<g id="edge42_Node000029_Node000026" class="edge">
<title>Node29&#45;&gt;Node26</title>
<g id="a_edge42_Node000029_Node000026"><a xlink:title=" ">
<path fill="none" stroke="#63b8ff" d="M885.38,-242.69C882.39,-242.45 879.43,-242.22 876.52,-242 725.62,-230.72 337.94,-259.85 196.52,-206 161.05,-192.49 128.41,-161.42 110.61,-142.22"/>
<polygon fill="#63b8ff" stroke="#63b8ff" points="113.01,-139.66 103.72,-134.57 107.81,-144.34 113.01,-139.66"/>
</a>
</g>
</g>
<!-- Node30 -->
<g id="Node000030" class="node">
<title>Node30</title>
<g id="a_Node000030"><a xlink:href="Common_8h.html" target="_top" xlink:title=" ">
<polygon fill="white" stroke="#666666" points="749.02,-134.5 610.02,-134.5 610.02,-115.5 749.02,-115.5 749.02,-134.5"/>
<text text-anchor="middle" x="679.52" y="-122.5" font-family="Helvetica,sans-Serif" font-size="10.00">open62541pp/Common.h</text>
</a>
</g>
</g>
<!-- Node29&#45;&gt;Node30 -->
<g id="edge38_Node000029_Node000030" class="edge">
<title>Node29&#45;&gt;Node30</title>
<g id="a_edge38_Node000029_Node000030"><a xlink:title=" ">
<path fill="none" stroke="#63b8ff" d="M902.49,-241.99C866.23,-235.41 820.31,-224.25 782.52,-206 748.1,-189.37 714.27,-159.86 695.23,-141.71"/>
<polygon fill="#63b8ff" stroke="#63b8ff" points="697.63,-139.16 688.02,-134.7 692.75,-144.18 697.63,-139.16"/>
</a>
</g>
</g>
<!-- Node31 -->
<g id="Node000031" class="node">
<title>Node31</title>
<g id="a_Node000031"><a xlink:href="helper_8h.html" target="_top" xlink:title=" ">
<polygon fill="white" stroke="#666666" points="609.02,-206 496.02,-206 496.02,-176 609.02,-176 609.02,-206"/>
<text text-anchor="start" x="504.02" y="-194" font-family="Helvetica,sans-Serif" font-size="10.00">open62541pp/detail</text>
<text text-anchor="middle" x="552.52" y="-183" font-family="Helvetica,sans-Serif" font-size="10.00">/helper.h</text>
</a>
</g>
</g>
<!-- Node29&#45;&gt;Node31 -->
<g id="edge43_Node000029_Node000031" class="edge">
<title>Node29&#45;&gt;Node31</title>
<g id="a_edge43_Node000029_Node000031"><a xlink:title=" ">
<path fill="none" stroke="#63b8ff" d="M904.62,-241.99C828.79,-231.23 698.56,-212.74 619.52,-201.51"/>
<polygon fill="#63b8ff" stroke="#63b8ff" points="619.58,-197.99 609.19,-200.05 618.6,-204.92 619.58,-197.99"/>
</a>
</g>
</g>
<!-- Node34 -->
<g id="Node000034" class="node">
<title>Node34</title>
<g id="a_Node000034"><a xlink:href="comparison_8h.html" target="_top" xlink:title=" ">
<polygon fill="white" stroke="#666666" points="939.52,-206 805.52,-206 805.52,-176 939.52,-176 939.52,-206"/>
<text text-anchor="start" x="813.52" y="-194" font-family="Helvetica,sans-Serif" font-size="10.00">open62541pp/overloads</text>
<text text-anchor="middle" x="872.52" y="-183" font-family="Helvetica,sans-Serif" font-size="10.00">/comparison.h</text>
</a>
</g>
</g>
<!-- Node29&#45;&gt;Node34 -->
<g id="edge55_Node000029_Node000034" class="edge">
<title>Node29&#45;&gt;Node34</title>
<g id="a_edge55_Node000029_Node000034"><a xlink:title=" ">
<path fill="none" stroke="#63b8ff" d="M950.95,-241.87C938.47,-233.93 919.5,-221.87 903.35,-211.6"/>
<polygon fill="#63b8ff" stroke="#63b8ff" points="905.04,-208.53 894.72,-206.11 901.28,-214.43 905.04,-208.53"/>
</a>
</g>
</g>
<!-- Node30&#45;&gt;Node4 -->
<g id="edge41_Node000030_Node000004" class="edge">
<title>Node30&#45;&gt;Node4</title>
<g id="a_edge41_Node000030_Node000004"><a xlink:title=" ">
<path fill="none" stroke="#63b8ff" d="M715.88,-115.49C760.13,-105.14 834.91,-87.64 883.24,-76.33"/>
<polygon fill="#63b8ff" stroke="#63b8ff" points="884.19,-79.7 893.13,-74.02 882.59,-72.89 884.19,-79.7"/>
</a>
</g>
</g>
<!-- Node30&#45;&gt;Node13 -->
<g id="edge39_Node000030_Node000013" class="edge">
<title>Node30&#45;&gt;Node13</title>
<g id="a_edge39_Node000030_Node000013"><a xlink:title=" ">
<path fill="none" stroke="#63b8ff" d="M722.44,-115.49C734.11,-113.42 746.77,-111.41 758.52,-110 1015.04,-79.3 1326.63,-69.02 1430.18,-66.32"/>
<polygon fill="#63b8ff" stroke="#63b8ff" points="1430.48,-69.81 1440.38,-66.06 1430.3,-62.81 1430.48,-69.81"/>
</a>
</g>
</g>
<!-- Node30&#45;&gt;Node17 -->
<g id="edge40_Node000030_Node000017" class="edge">
<title>Node30&#45;&gt;Node17</title>
<g id="a_edge40_Node000030_Node000017"><a xlink:title=" ">
<path fill="none" stroke="#63b8ff" d="M641.86,-115.49C595,-104.91 515.09,-86.86 465.19,-75.59"/>
<polygon fill="#63b8ff" stroke="#63b8ff" points="465.85,-72.15 455.33,-73.36 464.31,-78.98 465.85,-72.15"/>
</a>
</g>
</g>
<!-- Node31&#45;&gt;Node4 -->
<g id="edge53_Node000031_Node000004" class="edge">
<title>Node31&#45;&gt;Node4</title>
<g id="a_edge53_Node000031_Node000004"><a xlink:title=" ">
<path fill="none" stroke="#63b8ff" d="M556.79,-175.72C563.11,-157.25 576.85,-125.59 600.52,-110 639.49,-84.33 760.78,-73.33 844.67,-68.71"/>
<polygon fill="#63b8ff" stroke="#63b8ff" points="844.9,-72.21 854.71,-68.18 844.53,-65.22 844.9,-72.21"/>
</a>
</g>
</g>
<!-- Node31&#45;&gt;Node11 -->
<g id="edge44_Node000031_Node000011" class="edge">
<title>Node31&#45;&gt;Node11</title>
<g id="a_edge44_Node000031_Node000011"><a xlink:title=" ">
<path fill="none" stroke="#63b8ff" d="M609.09,-182.29C665.26,-174.04 753.58,-159.47 828.52,-140 831.16,-139.31 833.88,-138.54 836.59,-137.72"/>
<polygon fill="#63b8ff" stroke="#63b8ff" points="837.84,-141 846.29,-134.61 835.7,-134.33 837.84,-141"/>
</a>
</g>
</g>
<!-- Node31&#45;&gt;Node12 -->
<g id="edge45_Node000031_Node000012" class="edge">
<title>Node31&#45;&gt;Node12</title>
<g id="a_edge45_Node000031_Node000012"><a xlink:title=" ">
<path fill="none" stroke="#63b8ff" d="M609.2,-178.28C650.67,-169.2 708.08,-155.57 757.52,-140 759.4,-139.41 761.31,-138.77 763.23,-138.11"/>
<polygon fill="#63b8ff" stroke="#63b8ff" points="764.57,-141.34 772.75,-134.61 762.16,-134.77 764.57,-141.34"/>
</a>
</g>
</g>
<!-- Node31&#45;&gt;Node23 -->
<g id="edge47_Node000031_Node000023" class="edge">
<title>Node31&#45;&gt;Node23</title>
<g id="a_edge47_Node000031_Node000023"><a xlink:title=" ">
<path fill="none" stroke="#63b8ff" d="M495.79,-182C455,-174.77 399.5,-161.81 354.52,-140 334.85,-130.46 335.7,-118.44 315.52,-110 210.46,-66.03 171.38,-95.8 55.73,-73.95"/>
<polygon fill="#63b8ff" stroke="#63b8ff" points="56.28,-70.49 45.79,-71.98 54.92,-77.36 56.28,-70.49"/>
</a>
</g>
</g>
<!-- Node31&#45;&gt;Node24 -->
<g id="edge48_Node000031_Node000024" class="edge">
<title>Node31&#45;&gt;Node24</title>
<g id="a_edge48_Node000031_Node000024"><a xlink:title=" ">
<path fill="none" stroke="#63b8ff" d="M495.84,-178.63C448.96,-169.02 380.7,-154.52 321.52,-140 317.92,-139.12 314.19,-138.16 310.46,-137.19"/>
<polygon fill="#63b8ff" stroke="#63b8ff" points="311.22,-133.77 300.66,-134.57 309.41,-140.53 311.22,-133.77"/>
</a>
</g>
</g>
<!-- Node31&#45;&gt;Node26 -->
<g id="edge50_Node000031_Node000026" class="edge">
<title>Node31&#45;&gt;Node26</title>
<g id="a_edge50_Node000031_Node000026"><a xlink:title=" ">
<path fill="none" stroke="#63b8ff" d="M495.69,-182.02C412.59,-170.36 257.99,-148.66 167.51,-135.96"/>
<polygon fill="#63b8ff" stroke="#63b8ff" points="167.73,-132.46 157.35,-134.54 166.76,-139.39 167.73,-132.46"/>
</a>
</g>
</g>
<!-- Node31&#45;&gt;Node30 -->
<g id="edge49_Node000031_Node000030" class="edge">
<title>Node31&#45;&gt;Node30</title>
<g id="a_edge49_Node000031_Node000030"><a xlink:title=" ">
<path fill="none" stroke="#63b8ff" d="M580.39,-175.95C602.18,-164.98 632.23,-149.83 653.52,-139.11"/>
<polygon fill="#63b8ff" stroke="#63b8ff" points="655.27,-142.14 662.62,-134.52 652.12,-135.89 655.27,-142.14"/>
</a>
</g>
</g>
<!-- Node32 -->
<g id="Node000032" class="node">
<title>Node32</title>
<g id="a_Node000032"><a xlink:title=" ">
<polygon fill="#e0e0e0" stroke="#999999" points="553.52,-134.5 495.52,-134.5 495.52,-115.5 553.52,-115.5 553.52,-134.5"/>
<text text-anchor="middle" x="524.52" y="-122.5" font-family="Helvetica,sans-Serif" font-size="10.00">memory</text>
</a>
</g>
</g>
<!-- Node31&#45;&gt;Node32 -->
<g id="edge46_Node000031_Node000032" class="edge">
<title>Node31&#45;&gt;Node32</title>
<g id="a_edge46_Node000031_Node000032"><a xlink:title=" ">
<path fill="none" stroke="#63b8ff" d="M546.31,-175.8C542.24,-166.5 536.89,-154.27 532.51,-144.26"/>
<polygon fill="#63b8ff" stroke="#63b8ff" points="535.61,-142.6 528.39,-134.84 529.2,-145.41 535.61,-142.6"/>
</a>
</g>
</g>
<!-- Node33 -->
<g id="Node000033" class="node">
<title>Node33</title>
<g id="a_Node000033"><a xlink:href="traits_8h.html" target="_top" xlink:title=" ">
<polygon fill="white" stroke="#666666" points="477.02,-140 364.02,-140 364.02,-110 477.02,-110 477.02,-140"/>
<text text-anchor="start" x="372.02" y="-128" font-family="Helvetica,sans-Serif" font-size="10.00">open62541pp/detail</text>
<text text-anchor="middle" x="420.52" y="-117" font-family="Helvetica,sans-Serif" font-size="10.00">/traits.h</text>
</a>
</g>
</g>
<!-- Node31&#45;&gt;Node33 -->
<g id="edge51_Node000031_Node000033" class="edge">
<title>Node31&#45;&gt;Node33</title>
<g id="a_edge51_Node000031_Node000033"><a xlink:title=" ">
<path fill="none" stroke="#63b8ff" d="M523.56,-175.95C504.47,-166.7 479.28,-154.49 458.58,-144.45"/>
<polygon fill="#63b8ff" stroke="#63b8ff" points="459.95,-141.23 449.42,-140.01 456.9,-147.52 459.95,-141.23"/>
</a>
</g>
</g>
<!-- Node33&#45;&gt;Node17 -->
<g id="edge52_Node000033_Node000017" class="edge">
<title>Node33&#45;&gt;Node17</title>
<g id="a_edge52_Node000033_Node000017"><a xlink:title=" ">
<path fill="none" stroke="#63b8ff" d="M420.52,-109.84C420.52,-102.21 420.52,-92.7 420.52,-84.45"/>
<polygon fill="#63b8ff" stroke="#63b8ff" points="424.02,-84.27 420.52,-74.27 417.02,-84.27 424.02,-84.27"/>
</a>
</g>
</g>
<!-- Node34&#45;&gt;Node4 -->
<g id="edge56_Node000034_Node000004" class="edge">
<title>Node34&#45;&gt;Node4</title>
<g id="a_edge56_Node000034_Node000004"><a xlink:title=" ">
<path fill="none" stroke="#63b8ff" d="M885.86,-175.72C894.06,-166.24 904.17,-153.16 910.52,-140 919.21,-122.01 924.23,-99.59 926.91,-84.07"/>
<polygon fill="#63b8ff" stroke="#63b8ff" points="930.37,-84.57 928.46,-74.15 923.46,-83.49 930.37,-84.57"/>
</a>
</g>
</g>
</g>
</svg>
