<?xml version="1.0" encoding="UTF-8" standalone="no"?>
<!DOCTYPE svg PUBLIC "-//W3C//DTD SVG 1.1//EN"
 "http://www.w3.org/Graphics/SVG/1.1/DTD/svg11.dtd">
<!-- Generated by graphviz version 2.43.0 (0)
 -->
<!-- Title: /home/runner/work/open62541pp/open62541pp/include/open62541pp/Crypto.h Pages: 1 -->
<svg width="1693pt" height="555pt"
 viewBox="0.00 0.00 1693.26 555.00" xmlns="http://www.w3.org/2000/svg" xmlns:xlink="http://www.w3.org/1999/xlink">
<g id="graph0" class="graph" transform="scale(1 1) rotate(0) translate(4 551)">
<title>/home/runner/work/open62541pp/open62541pp/include/open62541pp/Crypto.h</title>
<!-- Node1 -->
<g id="Node000001" class="node">
<title>Node1</title>
<g id="a_Node000001"><a xlink:title=" ">
<polygon fill="#999999" stroke="#666666" points="1026.76,-547 833.76,-547 833.76,-506 1026.76,-506 1026.76,-547"/>
<text text-anchor="start" x="841.76" y="-535" font-family="Helvetica,sans-Serif" font-size="10.00">/home/runner/work/open62541pp</text>
<text text-anchor="start" x="841.76" y="-524" font-family="Helvetica,sans-Serif" font-size="10.00">/open62541pp/include/open62541pp</text>
<text text-anchor="middle" x="930.26" y="-513" font-family="Helvetica,sans-Serif" font-size="10.00">/Crypto.h</text>
</a>
</g>
</g>
<!-- Node2 -->
<g id="Node000002" class="node">
<title>Node2</title>
<g id="a_Node000002"><a xlink:title=" ">
<polygon fill="#e0e0e0" stroke="#999999" points="848.76,-470 795.76,-470 795.76,-451 848.76,-451 848.76,-470"/>
<text text-anchor="middle" x="822.26" y="-458" font-family="Helvetica,sans-Serif" font-size="10.00">cstddef</text>
</a>
</g>
</g>
<!-- Node1&#45;&gt;Node2 -->
<g id="edge1_Node000001_Node000002" class="edge">
<title>Node1&#45;&gt;Node2</title>
<g id="a_edge1_Node000001_Node000002"><a xlink:title=" ">
<path fill="none" stroke="#63b8ff" d="M897.27,-505.95C880.52,-496.03 860.58,-484.21 845.47,-475.25"/>
<polygon fill="#63b8ff" stroke="#63b8ff" points="847.15,-472.18 836.76,-470.09 843.58,-478.2 847.15,-472.18"/>
</a>
</g>
</g>
<!-- Node3 -->
<g id="Node000003" class="node">
<title>Node3</title>
<g id="a_Node000003"><a xlink:href="Config_8h.html" target="_top" xlink:title=" ">
<polygon fill="white" stroke="#666666" points="1469.76,-470 1344.76,-470 1344.76,-451 1469.76,-451 1469.76,-470"/>
<text text-anchor="middle" x="1407.26" y="-458" font-family="Helvetica,sans-Serif" font-size="10.00">open62541pp/Config.h</text>
</a>
</g>
</g>
<!-- Node1&#45;&gt;Node3 -->
<g id="edge2_Node000001_Node000003" class="edge">
<title>Node1&#45;&gt;Node3</title>
<g id="a_edge2_Node000001_Node000003"><a xlink:title=" ">
<path fill="none" stroke="#63b8ff" d="M1026.79,-512.55C1117.86,-500.33 1252.36,-482.28 1334.65,-471.24"/>
<polygon fill="#63b8ff" stroke="#63b8ff" points="1335.22,-474.7 1344.67,-469.9 1334.29,-467.76 1335.22,-474.7"/>
</a>
</g>
</g>
<!-- Node8 -->
<g id="Node000008" class="node">
<title>Node8</title>
<g id="a_Node000008"><a xlink:href="Span_8h.html" target="_top" xlink:title=" ">
<polygon fill="white" stroke="#666666" points="391.76,-409.5 272.76,-409.5 272.76,-390.5 391.76,-390.5 391.76,-409.5"/>
<text text-anchor="middle" x="332.26" y="-397.5" font-family="Helvetica,sans-Serif" font-size="10.00">open62541pp/Span.h</text>
</a>
</g>
</g>
<!-- Node1&#45;&gt;Node8 -->
<g id="edge7_Node000001_Node000008" class="edge">
<title>Node1&#45;&gt;Node8</title>
<g id="a_edge7_Node000001_Node000008"><a xlink:title=" ">
<path fill="none" stroke="#63b8ff" d="M917.22,-505.85C904.29,-488.17 882.76,-463.17 857.26,-451 847.1,-446.15 542.6,-419.23 402.08,-407.02"/>
<polygon fill="#63b8ff" stroke="#63b8ff" points="402.11,-403.51 391.85,-406.14 401.51,-410.49 402.11,-403.51"/>
</a>
</g>
</g>
<!-- Node18 -->
<g id="Node000018" class="node">
<title>Node18</title>
<g id="a_Node000018"><a xlink:href="Builtin_8h.html" target="_top" xlink:title=" ">
<polygon fill="white" stroke="#666666" points="1061.26,-470 905.26,-470 905.26,-451 1061.26,-451 1061.26,-470"/>
<text text-anchor="middle" x="983.26" y="-458" font-family="Helvetica,sans-Serif" font-size="10.00">open62541pp/types/Builtin.h</text>
</a>
</g>
</g>
<!-- Node1&#45;&gt;Node18 -->
<g id="edge17_Node000001_Node000018" class="edge">
<title>Node1&#45;&gt;Node18</title>
<g id="a_edge17_Node000001_Node000018"><a xlink:title=" ">
<path fill="none" stroke="#63b8ff" d="M946.45,-505.95C953.85,-497.02 962.52,-486.55 969.58,-478.02"/>
<polygon fill="#63b8ff" stroke="#63b8ff" points="972.32,-480.19 976.01,-470.26 966.93,-475.73 972.32,-480.19"/>
</a>
</g>
</g>
<!-- Node4 -->
<g id="Node000004" class="node">
<title>Node4</title>
<g id="a_Node000004"><a xlink:href="config_8h.html" target="_top" xlink:title=" ">
<polygon fill="white" stroke="#666666" points="1545.76,-96 1430.76,-96 1430.76,-66 1545.76,-66 1545.76,-96"/>
<text text-anchor="start" x="1438.76" y="-84" font-family="Helvetica,sans-Serif" font-size="10.00">open62541pp/detail</text>
<text text-anchor="middle" x="1488.26" y="-73" font-family="Helvetica,sans-Serif" font-size="10.00">/open62541/config.h</text>
</a>
</g>
</g>
<!-- Node3&#45;&gt;Node4 -->
<g id="edge3_Node000003_Node000004" class="edge">
<title>Node3&#45;&gt;Node4</title>
<g id="a_edge3_Node000003_Node000004"><a xlink:title=" ">
<path fill="none" stroke="#63b8ff" d="M1469.95,-453.98C1541.36,-443.86 1648.26,-415.29 1648.26,-335 1648.26,-335 1648.26,-335 1648.26,-201 1648.26,-149.13 1593.45,-117.21 1547.98,-99.66"/>
<polygon fill="#63b8ff" stroke="#63b8ff" points="1549.04,-96.32 1538.45,-96.13 1546.61,-102.88 1549.04,-96.32"/>
</a>
</g>
</g>
<!-- Node5 -->
<g id="Node000005" class="node">
<title>Node5</title>
<g id="a_Node000005"><a xlink:href="push__options_8h.html" target="_top" xlink:title=" ">
<polygon fill="white" stroke="#666666" points="1685.26,-30 1535.26,-30 1535.26,0 1685.26,0 1685.26,-30"/>
<text text-anchor="start" x="1543.26" y="-18" font-family="Helvetica,sans-Serif" font-size="10.00">open62541pp/detail</text>
<text text-anchor="middle" x="1610.26" y="-7" font-family="Helvetica,sans-Serif" font-size="10.00">/open62541/push_options.h</text>
</a>
</g>
</g>
<!-- Node4&#45;&gt;Node5 -->
<g id="edge4_Node000004_Node000005" class="edge">
<title>Node4&#45;&gt;Node5</title>
<g id="a_edge4_Node000004_Node000005"><a xlink:title=" ">
<path fill="none" stroke="#63b8ff" d="M1515.04,-65.95C1532.52,-56.78 1555.54,-44.71 1574.57,-34.72"/>
<polygon fill="#63b8ff" stroke="#63b8ff" points="1576.32,-37.76 1583.55,-30.01 1573.07,-31.56 1576.32,-37.76"/>
</a>
</g>
</g>
<!-- Node6 -->
<g id="Node000006" class="node">
<title>Node6</title>
<g id="a_Node000006"><a xlink:title=" ">
<polygon fill="#e0e0e0" stroke="#999999" points="1517.26,-24.5 1405.26,-24.5 1405.26,-5.5 1517.26,-5.5 1517.26,-24.5"/>
<text text-anchor="middle" x="1461.26" y="-12.5" font-family="Helvetica,sans-Serif" font-size="10.00">open62541/config.h</text>
</a>
</g>
</g>
<!-- Node4&#45;&gt;Node6 -->
<g id="edge5_Node000004_Node000006" class="edge">
<title>Node4&#45;&gt;Node6</title>
<g id="a_edge5_Node000004_Node000006"><a xlink:title=" ">
<path fill="none" stroke="#63b8ff" d="M1482.27,-65.8C1478.35,-56.5 1473.19,-44.27 1468.97,-34.26"/>
<polygon fill="#63b8ff" stroke="#63b8ff" points="1472.1,-32.7 1464.99,-24.84 1465.66,-35.42 1472.1,-32.7"/>
</a>
</g>
</g>
<!-- Node7 -->
<g id="Node000007" class="node">
<title>Node7</title>
<g id="a_Node000007"><a xlink:href="pop__options_8h.html" target="_top" xlink:title=" ">
<polygon fill="white" stroke="#666666" points="978.76,-30 833.76,-30 833.76,0 978.76,0 978.76,-30"/>
<text text-anchor="start" x="841.76" y="-18" font-family="Helvetica,sans-Serif" font-size="10.00">open62541pp/detail</text>
<text text-anchor="middle" x="906.26" y="-7" font-family="Helvetica,sans-Serif" font-size="10.00">/open62541/pop_options.h</text>
</a>
</g>
</g>
<!-- Node4&#45;&gt;Node7 -->
<g id="edge6_Node000004_Node000007" class="edge">
<title>Node4&#45;&gt;Node7</title>
<g id="a_edge6_Node000004_Node000007"><a xlink:title=" ">
<path fill="none" stroke="#63b8ff" d="M1430.6,-73.66C1326.94,-62.26 1108.81,-38.27 989.15,-25.12"/>
<polygon fill="#63b8ff" stroke="#63b8ff" points="989.27,-21.61 978.95,-23.99 988.5,-28.56 989.27,-21.61"/>
</a>
</g>
</g>
<!-- Node9 -->
<g id="Node000009" class="node">
<title>Node9</title>
<g id="a_Node000009"><a xlink:title=" ">
<polygon fill="#e0e0e0" stroke="#999999" points="173.26,-277.5 109.26,-277.5 109.26,-258.5 173.26,-258.5 173.26,-277.5"/>
<text text-anchor="middle" x="141.26" y="-265.5" font-family="Helvetica,sans-Serif" font-size="10.00">algorithm</text>
</a>
</g>
</g>
<!-- Node8&#45;&gt;Node9 -->
<g id="edge8_Node000008_Node000009" class="edge">
<title>Node8&#45;&gt;Node9</title>
<g id="a_edge8_Node000008_Node000009"><a xlink:title=" ">
<path fill="none" stroke="#63b8ff" d="M325.92,-390.47C313.75,-374.59 285.62,-340.17 255.26,-319 241.39,-309.32 201.85,-292.79 173.23,-281.4"/>
<polygon fill="#63b8ff" stroke="#63b8ff" points="174.21,-278.02 163.62,-277.6 171.64,-284.53 174.21,-278.02"/>
</a>
</g>
</g>
<!-- Node10 -->
<g id="Node000010" class="node">
<title>Node10</title>
<g id="a_Node000010"><a xlink:title=" ">
<polygon fill="#e0e0e0" stroke="#999999" points="528.26,-277.5 476.26,-277.5 476.26,-258.5 528.26,-258.5 528.26,-277.5"/>
<text text-anchor="middle" x="502.26" y="-265.5" font-family="Helvetica,sans-Serif" font-size="10.00">cassert</text>
</a>
</g>
</g>
<!-- Node8&#45;&gt;Node10 -->
<g id="edge9_Node000008_Node000010" class="edge">
<title>Node8&#45;&gt;Node10</title>
<g id="a_edge9_Node000008_Node000010"><a xlink:title=" ">
<path fill="none" stroke="#63b8ff" d="M334.13,-390.25C338.03,-374 348.55,-339.01 370.26,-319 396.98,-294.37 437.04,-281.5 466.01,-275.03"/>
<polygon fill="#63b8ff" stroke="#63b8ff" points="467.06,-278.38 476.14,-272.92 465.64,-271.53 467.06,-278.38"/>
</a>
</g>
</g>
<!-- Node11 -->
<g id="Node000011" class="node">
<title>Node11</title>
<g id="a_Node000011"><a xlink:title=" ">
<polygon fill="#e0e0e0" stroke="#999999" points="969.26,-277.5 919.26,-277.5 919.26,-258.5 969.26,-258.5 969.26,-277.5"/>
<text text-anchor="middle" x="944.26" y="-265.5" font-family="Helvetica,sans-Serif" font-size="10.00">cstdint</text>
</a>
</g>
</g>
<!-- Node8&#45;&gt;Node11 -->
<g id="edge10_Node000008_Node000011" class="edge">
<title>Node8&#45;&gt;Node11</title>
<g id="a_edge10_Node000008_Node000011"><a xlink:title=" ">
<path fill="none" stroke="#63b8ff" d="M392.05,-395.42C466.59,-389.95 597.47,-377.04 706.26,-349 741.83,-339.83 748.59,-331.12 783.26,-319 826.27,-303.97 876.5,-288.73 909.27,-279.09"/>
<polygon fill="#63b8ff" stroke="#63b8ff" points="910.65,-282.34 919.26,-276.17 908.68,-275.62 910.65,-282.34"/>
</a>
</g>
</g>
<!-- Node12 -->
<g id="Node000012" class="node">
<title>Node12</title>
<g id="a_Node000012"><a xlink:title=" ">
<polygon fill="#e0e0e0" stroke="#999999" points="246.76,-343.5 163.76,-343.5 163.76,-324.5 246.76,-324.5 246.76,-343.5"/>
<text text-anchor="middle" x="205.26" y="-331.5" font-family="Helvetica,sans-Serif" font-size="10.00">initializer_list</text>
</a>
</g>
</g>
<!-- Node8&#45;&gt;Node12 -->
<g id="edge11_Node000008_Node000012" class="edge">
<title>Node8&#45;&gt;Node12</title>
<g id="a_edge11_Node000008_Node000012"><a xlink:title=" ">
<path fill="none" stroke="#63b8ff" d="M315.13,-390.37C293.64,-379.54 256.56,-360.85 231.49,-348.22"/>
<polygon fill="#63b8ff" stroke="#63b8ff" points="233.03,-345.07 222.52,-343.7 229.88,-351.32 233.03,-345.07"/>
</a>
</g>
</g>
<!-- Node13 -->
<g id="Node000013" class="node">
<title>Node13</title>
<g id="a_Node000013"><a xlink:title=" ">
<polygon fill="#e0e0e0" stroke="#999999" points="82.76,-343.5 29.76,-343.5 29.76,-324.5 82.76,-324.5 82.76,-343.5"/>
<text text-anchor="middle" x="56.26" y="-331.5" font-family="Helvetica,sans-Serif" font-size="10.00">iterator</text>
</a>
</g>
</g>
<!-- Node8&#45;&gt;Node13 -->
<g id="edge12_Node000008_Node000013" class="edge">
<title>Node8&#45;&gt;Node13</title>
<g id="a_edge12_Node000008_Node000013"><a xlink:title=" ">
<path fill="none" stroke="#63b8ff" d="M278.73,-390.47C229.67,-382.03 155.31,-367.69 92.26,-349 90.33,-348.43 88.36,-347.8 86.38,-347.13"/>
<polygon fill="#63b8ff" stroke="#63b8ff" points="87.21,-343.71 76.62,-343.59 84.83,-350.29 87.21,-343.71"/>
</a>
</g>
</g>
<!-- Node14 -->
<g id="Node000014" class="node">
<title>Node14</title>
<g id="a_Node000014"><a xlink:title=" ">
<polygon fill="#e0e0e0" stroke="#999999" points="145.26,-343.5 101.26,-343.5 101.26,-324.5 145.26,-324.5 145.26,-343.5"/>
<text text-anchor="middle" x="123.26" y="-331.5" font-family="Helvetica,sans-Serif" font-size="10.00">limits</text>
</a>
</g>
</g>
<!-- Node8&#45;&gt;Node14 -->
<g id="edge13_Node000008_Node000014" class="edge">
<title>Node8&#45;&gt;Node14</title>
<g id="a_edge13_Node000008_Node000014"><a xlink:title=" ">
<path fill="none" stroke="#63b8ff" d="M295.62,-390.42C259.27,-381.51 202.22,-366.45 154.26,-349 153.04,-348.56 151.81,-348.09 150.56,-347.6"/>
<polygon fill="#63b8ff" stroke="#63b8ff" points="151.68,-344.27 141.1,-343.61 148.96,-350.72 151.68,-344.27"/>
</a>
</g>
</g>
<!-- Node15 -->
<g id="Node000015" class="node">
<title>Node15</title>
<g id="a_Node000015"><a xlink:title=" ">
<polygon fill="#e0e0e0" stroke="#999999" points="798.76,-211.5 729.76,-211.5 729.76,-192.5 798.76,-192.5 798.76,-211.5"/>
<text text-anchor="middle" x="764.26" y="-199.5" font-family="Helvetica,sans-Serif" font-size="10.00">type_traits</text>
</a>
</g>
</g>
<!-- Node8&#45;&gt;Node15 -->
<g id="edge14_Node000008_Node000015" class="edge">
<title>Node8&#45;&gt;Node15</title>
<g id="a_edge14_Node000008_Node000015"><a xlink:title=" ">
<path fill="none" stroke="#63b8ff" d="M331.47,-390.38C330.5,-374.64 330.56,-340.88 346.26,-319 381.97,-269.23 409.37,-273.03 467.26,-253 553.5,-223.17 660.19,-210.77 719.36,-205.9"/>
<polygon fill="#63b8ff" stroke="#63b8ff" points="719.8,-209.38 729.49,-205.11 719.25,-202.4 719.8,-209.38"/>
</a>
</g>
</g>
<!-- Node16 -->
<g id="Node000016" class="node">
<title>Node16</title>
<g id="a_Node000016"><a xlink:title=" ">
<polygon fill="#e0e0e0" stroke="#999999" points="489.76,-343.5 444.76,-343.5 444.76,-324.5 489.76,-324.5 489.76,-343.5"/>
<text text-anchor="middle" x="467.26" y="-331.5" font-family="Helvetica,sans-Serif" font-size="10.00">utility</text>
</a>
</g>
</g>
<!-- Node8&#45;&gt;Node16 -->
<g id="edge15_Node000008_Node000016" class="edge">
<title>Node8&#45;&gt;Node16</title>
<g id="a_edge15_Node000008_Node000016"><a xlink:title=" ">
<path fill="none" stroke="#63b8ff" d="M350.47,-390.37C373.42,-379.49 413.08,-360.69 439.73,-348.05"/>
<polygon fill="#63b8ff" stroke="#63b8ff" points="441.38,-351.15 448.91,-343.7 438.38,-344.82 441.38,-351.15"/>
</a>
</g>
</g>
<!-- Node17 -->
<g id="Node000017" class="node">
<title>Node17</title>
<g id="a_Node000017"><a xlink:title=" ">
<polygon fill="#e0e0e0" stroke="#999999" points="426.76,-343.5 379.76,-343.5 379.76,-324.5 426.76,-324.5 426.76,-343.5"/>
<text text-anchor="middle" x="403.26" y="-331.5" font-family="Helvetica,sans-Serif" font-size="10.00">vector</text>
</a>
</g>
</g>
<!-- Node8&#45;&gt;Node17 -->
<g id="edge16_Node000008_Node000017" class="edge">
<title>Node8&#45;&gt;Node17</title>
<g id="a_edge16_Node000008_Node000017"><a xlink:title=" ">
<path fill="none" stroke="#63b8ff" d="M341.84,-390.37C353.1,-380.21 372.02,-363.16 385.89,-350.65"/>
<polygon fill="#63b8ff" stroke="#63b8ff" points="388.3,-353.2 393.38,-343.91 383.61,-348 388.3,-353.2"/>
</a>
</g>
</g>
<!-- Node18&#45;&gt;Node9 -->
<g id="edge18_Node000018_Node000009" class="edge">
<title>Node18&#45;&gt;Node9</title>
<g id="a_edge18_Node000018_Node000009"><a xlink:title=" ">
<path fill="none" stroke="#63b8ff" d="M904.98,-453.94C889.18,-452.9 872.69,-451.87 857.26,-451 768.09,-445.99 132.04,-458.9 54.26,-415 13.39,-391.93 -16.36,-357.65 10.26,-319 30.11,-290.18 68.97,-277.96 99.24,-272.79"/>
<polygon fill="#63b8ff" stroke="#63b8ff" points="99.77,-276.25 109.13,-271.29 98.72,-269.32 99.77,-276.25"/>
</a>
</g>
</g>
<!-- Node18&#45;&gt;Node11 -->
<g id="edge20_Node000018_Node000011" class="edge">
<title>Node18&#45;&gt;Node11</title>
<g id="a_edge20_Node000018_Node000011"><a xlink:title=" ">
<path fill="none" stroke="#63b8ff" d="M1006.31,-450.89C1058.32,-430.22 1176.89,-375.27 1132.26,-319 1088.58,-263.93 1045.2,-304.45 978.26,-283 976.59,-282.46 974.89,-281.88 973.17,-281.27"/>
<polygon fill="#63b8ff" stroke="#63b8ff" points="974.07,-277.86 963.48,-277.54 971.56,-284.4 974.07,-277.86"/>
</a>
</g>
</g>
<!-- Node18&#45;&gt;Node16 -->
<g id="edge24_Node000018_Node000016" class="edge">
<title>Node18&#45;&gt;Node16</title>
<g id="a_edge24_Node000018_Node000016"><a xlink:title=" ">
<path fill="none" stroke="#63b8ff" d="M904.97,-452.33C843.08,-445.64 754.83,-433.82 679.26,-415 594.55,-393.91 574.31,-383.84 494.26,-349 493.55,-348.69 492.84,-348.37 492.12,-348.05"/>
<polygon fill="#63b8ff" stroke="#63b8ff" points="493.32,-344.74 482.79,-343.51 490.25,-351.03 493.32,-344.74"/>
</a>
</g>
</g>
<!-- Node18&#45;&gt;Node17 -->
<g id="edge25_Node000018_Node000017" class="edge">
<title>Node18&#45;&gt;Node17</title>
<g id="a_edge25_Node000018_Node000017"><a xlink:title=" ">
<path fill="none" stroke="#63b8ff" d="M905.03,-452.26C796.19,-441.97 608.9,-423.45 578.26,-415 521.11,-399.24 459.09,-366.88 426.42,-348.51"/>
<polygon fill="#63b8ff" stroke="#63b8ff" points="428.06,-345.42 417.64,-343.51 424.6,-351.5 428.06,-345.42"/>
</a>
</g>
</g>
<!-- Node19 -->
<g id="Node000019" class="node">
<title>Node19</title>
<g id="a_Node000019"><a xlink:title=" ">
<polygon fill="#e0e0e0" stroke="#999999" points="915.26,-409.5 873.26,-409.5 873.26,-390.5 915.26,-390.5 915.26,-409.5"/>
<text text-anchor="middle" x="894.26" y="-397.5" font-family="Helvetica,sans-Serif" font-size="10.00">array</text>
</a>
</g>
</g>
<!-- Node18&#45;&gt;Node19 -->
<g id="edge19_Node000018_Node000019" class="edge">
<title>Node18&#45;&gt;Node19</title>
<g id="a_edge19_Node000018_Node000019"><a xlink:title=" ">
<path fill="none" stroke="#63b8ff" d="M970.13,-450.87C955.93,-441.54 933.07,-426.51 916.14,-415.38"/>
<polygon fill="#63b8ff" stroke="#63b8ff" points="917.73,-412.24 907.45,-409.67 913.88,-418.08 917.73,-412.24"/>
</a>
</g>
</g>
<!-- Node20 -->
<g id="Node000020" class="node">
<title>Node20</title>
<g id="a_Node000020"><a xlink:title=" ">
<polygon fill="#e0e0e0" stroke="#999999" points="981.26,-409.5 933.26,-409.5 933.26,-390.5 981.26,-390.5 981.26,-409.5"/>
<text text-anchor="middle" x="957.26" y="-397.5" font-family="Helvetica,sans-Serif" font-size="10.00">iosfwd</text>
</a>
</g>
</g>
<!-- Node18&#45;&gt;Node20 -->
<g id="edge21_Node000018_Node000020" class="edge">
<title>Node18&#45;&gt;Node20</title>
<g id="a_edge21_Node000018_Node000020"><a xlink:title=" ">
<path fill="none" stroke="#63b8ff" d="M979.43,-450.87C975.7,-442.49 969.93,-429.51 965.21,-418.89"/>
<polygon fill="#63b8ff" stroke="#63b8ff" points="968.37,-417.38 961.11,-409.67 961.98,-420.23 968.37,-417.38"/>
</a>
</g>
</g>
<!-- Node21 -->
<g id="Node000021" class="node">
<title>Node21</title>
<g id="a_Node000021"><a xlink:title=" ">
<polygon fill="#e0e0e0" stroke="#999999" points="1262.26,-343.5 1218.26,-343.5 1218.26,-324.5 1262.26,-324.5 1262.26,-343.5"/>
<text text-anchor="middle" x="1240.26" y="-331.5" font-family="Helvetica,sans-Serif" font-size="10.00">string</text>
</a>
</g>
</g>
<!-- Node18&#45;&gt;Node21 -->
<g id="edge22_Node000018_Node000021" class="edge">
<title>Node18&#45;&gt;Node21</title>
<g id="a_edge22_Node000018_Node000021"><a xlink:title=" ">
<path fill="none" stroke="#63b8ff" d="M1061.35,-451.38C1115.76,-444.33 1182.35,-432.48 1204.26,-415 1223.48,-399.67 1232.78,-371.87 1237.02,-353.41"/>
<polygon fill="#63b8ff" stroke="#63b8ff" points="1240.46,-354.06 1239.01,-343.56 1233.6,-352.67 1240.46,-354.06"/>
</a>
</g>
</g>
<!-- Node22 -->
<g id="Node000022" class="node">
<title>Node22</title>
<g id="a_Node000022"><a xlink:title=" ">
<polygon fill="#e0e0e0" stroke="#999999" points="1463.76,-343.5 1390.76,-343.5 1390.76,-324.5 1463.76,-324.5 1463.76,-343.5"/>
<text text-anchor="middle" x="1427.26" y="-331.5" font-family="Helvetica,sans-Serif" font-size="10.00">string_view</text>
</a>
</g>
</g>
<!-- Node18&#45;&gt;Node22 -->
<g id="edge23_Node000018_Node000022" class="edge">
<title>Node18&#45;&gt;Node22</title>
<g id="a_edge23_Node000018_Node000022"><a xlink:title=" ">
<path fill="none" stroke="#63b8ff" d="M1061.57,-458.69C1161.44,-456.31 1327.32,-447.42 1378.26,-415 1400.77,-400.68 1414.53,-371.94 1421.53,-353.09"/>
<polygon fill="#63b8ff" stroke="#63b8ff" points="1424.86,-354.15 1424.81,-343.56 1418.24,-351.88 1424.86,-354.15"/>
</a>
</g>
</g>
<!-- Node23 -->
<g id="Node000023" class="node">
<title>Node23</title>
<g id="a_Node000023"><a xlink:href="Common_8h.html" target="_top" xlink:title=" ">
<polygon fill="white" stroke="#666666" points="1123.76,-343.5 984.76,-343.5 984.76,-324.5 1123.76,-324.5 1123.76,-343.5"/>
<text text-anchor="middle" x="1054.26" y="-331.5" font-family="Helvetica,sans-Serif" font-size="10.00">open62541pp/Common.h</text>
</a>
</g>
</g>
<!-- Node18&#45;&gt;Node23 -->
<g id="edge26_Node000018_Node000023" class="edge">
<title>Node18&#45;&gt;Node23</title>
<g id="a_edge26_Node000018_Node000023"><a xlink:title=" ">
<path fill="none" stroke="#63b8ff" d="M992.92,-450.75C1001.78,-442.31 1014.78,-428.81 1023.26,-415 1035.29,-395.43 1044.07,-370.4 1049.16,-353.6"/>
<polygon fill="#63b8ff" stroke="#63b8ff" points="1052.55,-354.46 1051.96,-343.88 1045.83,-352.52 1052.55,-354.46"/>
</a>
</g>
</g>
<!-- Node25 -->
<g id="Node000025" class="node">
<title>Node25</title>
<g id="a_Node000025"><a xlink:href="ErrorHandling_8h.html" target="_top" xlink:title=" ">
<polygon fill="white" stroke="#666666" points="352.76,-277.5 191.76,-277.5 191.76,-258.5 352.76,-258.5 352.76,-277.5"/>
<text text-anchor="middle" x="272.26" y="-265.5" font-family="Helvetica,sans-Serif" font-size="10.00">open62541pp/ErrorHandling.h</text>
</a>
</g>
</g>
<!-- Node18&#45;&gt;Node25 -->
<g id="edge30_Node000018_Node000025" class="edge">
<title>Node18&#45;&gt;Node25</title>
<g id="a_edge30_Node000018_Node000025"><a xlink:title=" ">
<path fill="none" stroke="#63b8ff" d="M904.96,-454.13C889.17,-453.08 872.69,-451.99 857.26,-451 593.32,-434.1 524.25,-457.89 263.26,-415 152.83,-396.85 88.24,-437.9 20.26,-349 12.16,-338.41 11.8,-329.3 20.26,-319 26.35,-311.58 138.21,-291.53 210.83,-279.19"/>
<polygon fill="#63b8ff" stroke="#63b8ff" points="211.53,-282.62 220.8,-277.5 210.36,-275.72 211.53,-282.62"/>
</a>
</g>
</g>
<!-- Node28 -->
<g id="Node000028" class="node">
<title>Node28</title>
<g id="a_Node000028"><a xlink:href="common_8h.html" target="_top" xlink:title=" ">
<polygon fill="white" stroke="#666666" points="1098.26,-217 970.26,-217 970.26,-187 1098.26,-187 1098.26,-217"/>
<text text-anchor="start" x="978.26" y="-205" font-family="Helvetica,sans-Serif" font-size="10.00">open62541pp/detail</text>
<text text-anchor="middle" x="1034.26" y="-194" font-family="Helvetica,sans-Serif" font-size="10.00">/open62541/common.h</text>
</a>
</g>
</g>
<!-- Node18&#45;&gt;Node28 -->
<g id="edge65_Node000018_Node000028" class="edge">
<title>Node18&#45;&gt;Node28</title>
<g id="a_edge65_Node000018_Node000028"><a xlink:title=" ">
<path fill="none" stroke="#63b8ff" d="M1061.51,-457.47C1166.63,-453.7 1347.11,-443.22 1406.26,-415 1443.7,-397.14 1456.39,-387.33 1472.26,-349 1477.36,-336.68 1479.79,-330 1472.26,-319 1431.34,-259.22 1222.56,-225.41 1108.66,-211.15"/>
<polygon fill="#63b8ff" stroke="#63b8ff" points="1108.96,-207.66 1098.61,-209.91 1108.11,-214.61 1108.96,-207.66"/>
</a>
</g>
</g>
<!-- Node36 -->
<g id="Node000036" class="node">
<title>Node36</title>
<g id="a_Node000036"><a xlink:href="TypeWrapper_8h.html" target="_top" xlink:title=" ">
<polygon fill="white" stroke="#666666" points="846.26,-409.5 688.26,-409.5 688.26,-390.5 846.26,-390.5 846.26,-409.5"/>
<text text-anchor="middle" x="767.26" y="-397.5" font-family="Helvetica,sans-Serif" font-size="10.00">open62541pp/TypeWrapper.h</text>
</a>
</g>
</g>
<!-- Node18&#45;&gt;Node36 -->
<g id="edge46_Node000018_Node000036" class="edge">
<title>Node18&#45;&gt;Node36</title>
<g id="a_edge46_Node000018_Node000036"><a xlink:title=" ">
<path fill="none" stroke="#63b8ff" d="M951.85,-450.99C914.02,-440.75 850.35,-423.5 808.57,-412.19"/>
<polygon fill="#63b8ff" stroke="#63b8ff" points="809.28,-408.75 798.71,-409.52 807.45,-415.51 809.28,-408.75"/>
</a>
</g>
</g>
<!-- Node37 -->
<g id="Node000037" class="node">
<title>Node37</title>
<g id="a_Node000037"><a xlink:href="Wrapper_8h.html" target="_top" xlink:title=" ">
<polygon fill="white" stroke="#666666" points="927.76,-343.5 792.76,-343.5 792.76,-324.5 927.76,-324.5 927.76,-343.5"/>
<text text-anchor="middle" x="860.26" y="-331.5" font-family="Helvetica,sans-Serif" font-size="10.00">open62541pp/Wrapper.h</text>
</a>
</g>
</g>
<!-- Node18&#45;&gt;Node37 -->
<g id="edge64_Node000018_Node000037" class="edge">
<title>Node18&#45;&gt;Node37</title>
<g id="a_edge64_Node000018_Node000037"><a xlink:title=" ">
<path fill="none" stroke="#63b8ff" d="M987.41,-450.78C993.83,-435.87 1004.09,-405.13 990.26,-385 976.97,-365.64 955.05,-353.77 932.96,-346.5"/>
<polygon fill="#63b8ff" stroke="#63b8ff" points="933.75,-343.08 923.17,-343.56 931.74,-349.79 933.75,-343.08"/>
</a>
</g>
</g>
<!-- Node41 -->
<g id="Node000041" class="node">
<title>Node41</title>
<g id="a_Node000041"><a xlink:href="string__utils_8h.html" target="_top" xlink:title=" ">
<polygon fill="white" stroke="#666666" points="1369.76,-415 1256.76,-415 1256.76,-385 1369.76,-385 1369.76,-415"/>
<text text-anchor="start" x="1264.76" y="-403" font-family="Helvetica,sans-Serif" font-size="10.00">open62541pp/detail</text>
<text text-anchor="middle" x="1313.26" y="-392" font-family="Helvetica,sans-Serif" font-size="10.00">/string_utils.h</text>
</a>
</g>
</g>
<!-- Node18&#45;&gt;Node41 -->
<g id="edge66_Node000018_Node000041" class="edge">
<title>Node18&#45;&gt;Node41</title>
<g id="a_edge66_Node000018_Node000041"><a xlink:title=" ">
<path fill="none" stroke="#63b8ff" d="M1035.42,-450.93C1087.77,-442.23 1170.7,-428.2 1242.26,-415 1243.73,-414.73 1245.21,-414.45 1246.71,-414.17"/>
<polygon fill="#63b8ff" stroke="#63b8ff" points="1247.53,-417.58 1256.7,-412.28 1246.23,-410.7 1247.53,-417.58"/>
</a>
</g>
</g>
<!-- Node23&#45;&gt;Node11 -->
<g id="edge27_Node000023_Node000011" class="edge">
<title>Node23&#45;&gt;Node11</title>
<g id="a_edge27_Node000023_Node000011"><a xlink:title=" ">
<path fill="none" stroke="#63b8ff" d="M1039.43,-324.37C1021.14,-313.73 989.82,-295.51 968.14,-282.89"/>
<polygon fill="#63b8ff" stroke="#63b8ff" points="969.62,-279.7 959.21,-277.7 966.1,-285.75 969.62,-279.7"/>
</a>
</g>
</g>
<!-- Node24 -->
<g id="Node000024" class="node">
<title>Node24</title>
<g id="a_Node000024"><a xlink:href="Bitmask_8h.html" target="_top" xlink:title=" ">
<polygon fill="white" stroke="#666666" points="1122.76,-277.5 987.76,-277.5 987.76,-258.5 1122.76,-258.5 1122.76,-277.5"/>
<text text-anchor="middle" x="1055.26" y="-265.5" font-family="Helvetica,sans-Serif" font-size="10.00">open62541pp/Bitmask.h</text>
</a>
</g>
</g>
<!-- Node23&#45;&gt;Node24 -->
<g id="edge28_Node000023_Node000024" class="edge">
<title>Node23&#45;&gt;Node24</title>
<g id="a_edge28_Node000023_Node000024"><a xlink:title=" ">
<path fill="none" stroke="#63b8ff" d="M1054.4,-324.37C1054.54,-315.16 1054.77,-300.29 1054.96,-288.27"/>
<polygon fill="#63b8ff" stroke="#63b8ff" points="1058.47,-287.96 1055.12,-277.91 1051.47,-287.85 1058.47,-287.96"/>
</a>
</g>
</g>
<!-- Node24&#45;&gt;Node15 -->
<g id="edge29_Node000024_Node000015" class="edge">
<title>Node24&#45;&gt;Node15</title>
<g id="a_edge29_Node000024_Node000015"><a xlink:title=" ">
<path fill="none" stroke="#63b8ff" d="M1016.32,-258.44C962.52,-246.6 865.69,-225.31 808.99,-212.84"/>
<polygon fill="#63b8ff" stroke="#63b8ff" points="809.41,-209.35 798.89,-210.62 807.91,-216.18 809.41,-209.35"/>
</a>
</g>
</g>
<!-- Node26 -->
<g id="Node000026" class="node">
<title>Node26</title>
<g id="a_Node000026"><a xlink:title=" ">
<polygon fill="#e0e0e0" stroke="#999999" points="325.76,-211.5 288.76,-211.5 288.76,-192.5 325.76,-192.5 325.76,-211.5"/>
<text text-anchor="middle" x="307.26" y="-199.5" font-family="Helvetica,sans-Serif" font-size="10.00">new</text>
</a>
</g>
</g>
<!-- Node25&#45;&gt;Node26 -->
<g id="edge31_Node000025_Node000026" class="edge">
<title>Node25&#45;&gt;Node26</title>
<g id="a_edge31_Node000025_Node000026"><a xlink:title=" ">
<path fill="none" stroke="#63b8ff" d="M276.98,-258.37C282.22,-248.78 290.83,-233.05 297.53,-220.8"/>
<polygon fill="#63b8ff" stroke="#63b8ff" points="300.66,-222.36 302.39,-211.91 294.52,-219 300.66,-222.36"/>
</a>
</g>
</g>
<!-- Node27 -->
<g id="Node000027" class="node">
<title>Node27</title>
<g id="a_Node000027"><a xlink:title=" ">
<polygon fill="#e0e0e0" stroke="#999999" points="270.76,-211.5 205.76,-211.5 205.76,-192.5 270.76,-192.5 270.76,-211.5"/>
<text text-anchor="middle" x="238.26" y="-199.5" font-family="Helvetica,sans-Serif" font-size="10.00">stdexcept</text>
</a>
</g>
</g>
<!-- Node25&#45;&gt;Node27 -->
<g id="edge32_Node000025_Node000027" class="edge">
<title>Node25&#45;&gt;Node27</title>
<g id="a_edge32_Node000025_Node000027"><a xlink:title=" ">
<path fill="none" stroke="#63b8ff" d="M267.68,-258.37C262.58,-248.78 254.23,-233.05 247.72,-220.8"/>
<polygon fill="#63b8ff" stroke="#63b8ff" points="250.78,-219.09 242.99,-211.91 244.59,-222.38 250.78,-219.09"/>
</a>
</g>
</g>
<!-- Node25&#45;&gt;Node28 -->
<g id="edge33_Node000025_Node000028" class="edge">
<title>Node25&#45;&gt;Node28</title>
<g id="a_edge33_Node000025_Node000028"><a xlink:title=" ">
<path fill="none" stroke="#63b8ff" d="M353.09,-260.21C501.77,-247.72 816.56,-221.29 960.11,-209.23"/>
<polygon fill="#63b8ff" stroke="#63b8ff" points="960.47,-212.71 970.14,-208.39 959.88,-205.73 960.47,-212.71"/>
</a>
</g>
</g>
<!-- Node28&#45;&gt;Node5 -->
<g id="edge34_Node000028_Node000005" class="edge">
<title>Node28&#45;&gt;Node5</title>
<g id="a_edge34_Node000028_Node000005"><a xlink:title=" ">
<path fill="none" stroke="#63b8ff" d="M1098.42,-199.62C1237.09,-196.01 1555.12,-184.19 1590.26,-151 1620.03,-122.9 1618.72,-71.23 1614.73,-40.61"/>
<polygon fill="#63b8ff" stroke="#63b8ff" points="1618.14,-39.74 1613.19,-30.37 1611.22,-40.78 1618.14,-39.74"/>
</a>
</g>
</g>
<!-- Node28&#45;&gt;Node7 -->
<g id="edge45_Node000028_Node000007" class="edge">
<title>Node28&#45;&gt;Node7</title>
<g id="a_edge45_Node000028_Node000007"><a xlink:title=" ">
<path fill="none" stroke="#63b8ff" d="M970.14,-197.09C834.85,-188.54 531.34,-167.61 516.26,-151 424.8,-50.29 683.55,-24.71 823.33,-18.21"/>
<polygon fill="#63b8ff" stroke="#63b8ff" points="823.76,-21.69 833.6,-17.76 823.45,-14.7 823.76,-21.69"/>
</a>
</g>
</g>
<!-- Node29 -->
<g id="Node000029" class="node">
<title>Node29</title>
<g id="a_Node000029"><a target="_blank" xlink:href="open62541/nodeids_8h.html" xlink:title=" ">
<polygon fill="white" stroke="#666666" points="774.76,-151 653.76,-151 653.76,-132 774.76,-132 774.76,-151"/>
<text text-anchor="middle" x="714.26" y="-139" font-family="Helvetica,sans-Serif" font-size="10.00">open62541/nodeids.h</text>
</a>
</g>
</g>
<!-- Node28&#45;&gt;Node29 -->
<g id="edge35_Node000028_Node000029" class="edge">
<title>Node28&#45;&gt;Node29</title>
<g id="a_edge35_Node000028_Node000029"><a xlink:title=" ">
<path fill="none" stroke="#63b8ff" d="M969.89,-189.23C911.64,-178.58 826.69,-163.05 770.96,-152.86"/>
<polygon fill="#63b8ff" stroke="#63b8ff" points="771.37,-149.38 760.9,-151.03 770.11,-156.27 771.37,-149.38"/>
</a>
</g>
</g>
<!-- Node30 -->
<g id="Node000030" class="node">
<title>Node30</title>
<g id="a_Node000030"><a target="_blank" xlink:href="open62541/statuscodes_8h.html" xlink:title=" ">
<polygon fill="white" stroke="#666666" points="933.76,-151 792.76,-151 792.76,-132 933.76,-132 933.76,-151"/>
<text text-anchor="middle" x="863.26" y="-139" font-family="Helvetica,sans-Serif" font-size="10.00">open62541/statuscodes.h</text>
</a>
</g>
</g>
<!-- Node28&#45;&gt;Node30 -->
<g id="edge36_Node000028_Node000030" class="edge">
<title>Node28&#45;&gt;Node30</title>
<g id="a_edge36_Node000028_Node000030"><a xlink:title=" ">
<path fill="none" stroke="#63b8ff" d="M993.3,-186.99C964.26,-177.05 925.71,-163.86 898.14,-154.43"/>
<polygon fill="#63b8ff" stroke="#63b8ff" points="899.11,-151.06 888.51,-151.14 896.84,-157.69 899.11,-151.06"/>
</a>
</g>
</g>
<!-- Node31 -->
<g id="Node000031" class="node">
<title>Node31</title>
<g id="a_Node000031"><a target="_blank" xlink:href="open62541/types_8h.html" xlink:title=" ">
<polygon fill="white" stroke="#666666" points="635.26,-151 525.26,-151 525.26,-132 635.26,-132 635.26,-151"/>
<text text-anchor="middle" x="580.26" y="-139" font-family="Helvetica,sans-Serif" font-size="10.00">open62541/types.h</text>
</a>
</g>
</g>
<!-- Node28&#45;&gt;Node31 -->
<g id="edge37_Node000028_Node000031" class="edge">
<title>Node28&#45;&gt;Node31</title>
<g id="a_edge37_Node000028_Node000031"><a xlink:title=" ">
<path fill="none" stroke="#63b8ff" d="M969.93,-193.63C893.2,-184.23 761.06,-167.39 645.65,-152.36"/>
<polygon fill="#63b8ff" stroke="#63b8ff" points="645.98,-148.87 635.61,-151.05 645.07,-155.81 645.98,-148.87"/>
</a>
</g>
</g>
<!-- Node32 -->
<g id="Node000032" class="node">
<title>Node32</title>
<g id="a_Node000032"><a target="_blank" xlink:href="open62541/types__generated_8h.html" xlink:title=" ">
<polygon fill="white" stroke="#666666" points="1116.26,-151 952.26,-151 952.26,-132 1116.26,-132 1116.26,-151"/>
<text text-anchor="middle" x="1034.26" y="-139" font-family="Helvetica,sans-Serif" font-size="10.00">open62541/types_generated.h</text>
</a>
</g>
</g>
<!-- Node28&#45;&gt;Node32 -->
<g id="edge40_Node000028_Node000032" class="edge">
<title>Node28&#45;&gt;Node32</title>
<g id="a_edge40_Node000028_Node000032"><a xlink:title=" ">
<path fill="none" stroke="#63b8ff" d="M1034.26,-186.84C1034.26,-179.21 1034.26,-169.7 1034.26,-161.45"/>
<polygon fill="#63b8ff" stroke="#63b8ff" points="1037.76,-161.27 1034.26,-151.27 1030.76,-161.27 1037.76,-161.27"/>
</a>
</g>
</g>
<!-- Node33 -->
<g id="Node000033" class="node">
<title>Node33</title>
<g id="a_Node000033"><a target="_blank" xlink:href="open62541/util_8h.html" xlink:title=" ">
<polygon fill="white" stroke="#666666" points="1232.26,-151 1134.26,-151 1134.26,-132 1232.26,-132 1232.26,-151"/>
<text text-anchor="middle" x="1183.26" y="-139" font-family="Helvetica,sans-Serif" font-size="10.00">open62541/util.h</text>
</a>
</g>
</g>
<!-- Node28&#45;&gt;Node33 -->
<g id="edge41_Node000028_Node000033" class="edge">
<title>Node28&#45;&gt;Node33</title>
<g id="a_edge41_Node000028_Node000033"><a xlink:title=" ">
<path fill="none" stroke="#63b8ff" d="M1069.95,-186.99C1094.92,-177.18 1127.96,-164.21 1151.92,-154.81"/>
<polygon fill="#63b8ff" stroke="#63b8ff" points="1153.23,-158.05 1161.26,-151.14 1150.67,-151.54 1153.23,-158.05"/>
</a>
</g>
</g>
<!-- Node34 -->
<g id="Node000034" class="node">
<title>Node34</title>
<g id="a_Node000034"><a target="_blank" xlink:href="open62541/accesscontrol_8h.html" xlink:title=" ">
<polygon fill="white" stroke="#666666" points="1432.26,-151 1250.26,-151 1250.26,-132 1432.26,-132 1432.26,-151"/>
<text text-anchor="middle" x="1341.26" y="-139" font-family="Helvetica,sans-Serif" font-size="10.00">open62541/plugin/accesscontrol.h</text>
</a>
</g>
</g>
<!-- Node28&#45;&gt;Node34 -->
<g id="edge42_Node000028_Node000034" class="edge">
<title>Node28&#45;&gt;Node34</title>
<g id="a_edge42_Node000028_Node000034"><a xlink:title=" ">
<path fill="none" stroke="#63b8ff" d="M1098.62,-188.74C1154.28,-178.13 1233.88,-162.96 1286.54,-152.93"/>
<polygon fill="#63b8ff" stroke="#63b8ff" points="1287.2,-156.37 1296.37,-151.06 1285.89,-149.49 1287.2,-156.37"/>
</a>
</g>
</g>
<!-- Node35 -->
<g id="Node000035" class="node">
<title>Node35</title>
<g id="a_Node000035"><a target="_blank" xlink:href="open62541/log_8h.html" xlink:title=" ">
<polygon fill="white" stroke="#666666" points="1581.76,-151 1450.76,-151 1450.76,-132 1581.76,-132 1581.76,-151"/>
<text text-anchor="middle" x="1516.26" y="-139" font-family="Helvetica,sans-Serif" font-size="10.00">open62541/plugin/log.h</text>
</a>
</g>
</g>
<!-- Node28&#45;&gt;Node35 -->
<g id="edge43_Node000028_Node000035" class="edge">
<title>Node28&#45;&gt;Node35</title>
<g id="a_edge43_Node000028_Node000035"><a xlink:title=" ">
<path fill="none" stroke="#63b8ff" d="M1098.27,-193.23C1186.72,-182.5 1346.07,-163.16 1440.4,-151.71"/>
<polygon fill="#63b8ff" stroke="#63b8ff" points="1440.94,-155.17 1450.45,-150.49 1440.1,-148.22 1440.94,-155.17"/>
</a>
</g>
</g>
<!-- Node31&#45;&gt;Node4 -->
<g id="edge38_Node000031_Node000004" class="edge">
<title>Node31&#45;&gt;Node4</title>
<g id="a_edge38_Node000031_Node000004"><a xlink:title=" ">
<path fill="none" stroke="#63b8ff" d="M635.39,-132.92C638.39,-132.59 641.36,-132.28 644.26,-132 932.03,-104.4 1276.55,-89.68 1420.19,-84.35"/>
<polygon fill="#63b8ff" stroke="#63b8ff" points="1420.72,-87.83 1430.59,-83.97 1420.47,-80.84 1420.72,-87.83"/>
</a>
</g>
</g>
<!-- Node31&#45;&gt;Node28 -->
<g id="edge39_Node000031_Node000028" class="edge">
<title>Node31&#45;&gt;Node28</title>
<g id="a_edge39_Node000031_Node000028"><a xlink:title=" ">
<path fill="none" stroke="#63b8ff" d="M635.33,-148.65C641.41,-149.45 647.48,-150.25 653.26,-151 759.99,-164.93 883.19,-180.67 959.98,-190.7"/>
<polygon fill="#63b8ff" stroke="#63b8ff" points="959.67,-194.19 970.04,-192.02 960.58,-187.25 959.67,-194.19"/>
</a>
</g>
</g>
<!-- Node35&#45;&gt;Node4 -->
<g id="edge44_Node000035_Node000004" class="edge">
<title>Node35&#45;&gt;Node4</title>
<g id="a_edge44_Node000035_Node000004"><a xlink:title=" ">
<path fill="none" stroke="#63b8ff" d="M1512.13,-131.87C1508.79,-124.89 1503.92,-114.71 1499.45,-105.38"/>
<polygon fill="#63b8ff" stroke="#63b8ff" points="1502.49,-103.62 1495.02,-96.11 1496.18,-106.65 1502.49,-103.62"/>
</a>
</g>
</g>
<!-- Node36&#45;&gt;Node10 -->
<g id="edge47_Node000036_Node000010" class="edge">
<title>Node36&#45;&gt;Node10</title>
<g id="a_edge47_Node000036_Node000010"><a xlink:title=" ">
<path fill="none" stroke="#63b8ff" d="M695.93,-390.43C658.02,-383.49 611.83,-371.07 575.26,-349 548.8,-333.03 526.23,-304.6 513.46,-286.28"/>
<polygon fill="#63b8ff" stroke="#63b8ff" points="516.2,-284.08 507.7,-277.74 510.39,-287.99 516.2,-284.08"/>
</a>
</g>
</g>
<!-- Node36&#45;&gt;Node11 -->
<g id="edge48_Node000036_Node000011" class="edge">
<title>Node36&#45;&gt;Node11</title>
<g id="a_edge48_Node000036_Node000011"><a xlink:title=" ">
<path fill="none" stroke="#63b8ff" d="M817.51,-390.49C861.62,-381.93 921.04,-367.39 936.26,-349 950.35,-331.98 950.07,-305.44 947.81,-287.64"/>
<polygon fill="#63b8ff" stroke="#63b8ff" points="951.25,-286.95 946.22,-277.63 944.34,-288.06 951.25,-286.95"/>
</a>
</g>
</g>
<!-- Node36&#45;&gt;Node15 -->
<g id="edge49_Node000036_Node000015" class="edge">
<title>Node36&#45;&gt;Node15</title>
<g id="a_edge49_Node000036_Node000015"><a xlink:title=" ">
<path fill="none" stroke="#63b8ff" d="M767.13,-390.33C766.68,-360.66 765.18,-262.85 764.55,-221.6"/>
<polygon fill="#63b8ff" stroke="#63b8ff" points="768.05,-221.52 764.39,-211.57 761.05,-221.63 768.05,-221.52"/>
</a>
</g>
</g>
<!-- Node36&#45;&gt;Node16 -->
<g id="edge50_Node000036_Node000016" class="edge">
<title>Node36&#45;&gt;Node16</title>
<g id="a_edge50_Node000036_Node000016"><a xlink:title=" ">
<path fill="none" stroke="#63b8ff" d="M706.24,-390.48C652.49,-382.25 572.37,-368.2 504.26,-349 502.11,-348.39 499.91,-347.72 497.71,-347"/>
<polygon fill="#63b8ff" stroke="#63b8ff" points="498.78,-343.66 488.18,-343.64 496.45,-350.26 498.78,-343.66"/>
</a>
</g>
</g>
<!-- Node36&#45;&gt;Node23 -->
<g id="edge51_Node000036_Node000023" class="edge">
<title>Node36&#45;&gt;Node23</title>
<g id="a_edge51_Node000036_Node000023"><a xlink:title=" ">
<path fill="none" stroke="#63b8ff" d="M805.67,-390.44C857.44,-378.89 949.59,-358.34 1005.98,-345.77"/>
<polygon fill="#63b8ff" stroke="#63b8ff" points="1007.08,-349.11 1016.08,-343.51 1005.56,-342.27 1007.08,-349.11"/>
</a>
</g>
</g>
<!-- Node36&#45;&gt;Node25 -->
<g id="edge52_Node000036_Node000025" class="edge">
<title>Node36&#45;&gt;Node25</title>
<g id="a_edge52_Node000036_Node000025"><a xlink:title=" ">
<path fill="none" stroke="#63b8ff" d="M689.61,-390.46C643.99,-383.42 586.09,-370.89 538.26,-349 518.06,-339.75 518.46,-328.28 498.26,-319 454.14,-298.73 401.31,-286.46 357.84,-279.14"/>
<polygon fill="#63b8ff" stroke="#63b8ff" points="358.29,-275.67 347.85,-277.53 357.16,-282.58 358.29,-275.67"/>
</a>
</g>
</g>
<!-- Node36&#45;&gt;Node28 -->
<g id="edge55_Node000036_Node000028" class="edge">
<title>Node36&#45;&gt;Node28</title>
<g id="a_edge55_Node000036_Node000028"><a xlink:title=" ">
<path fill="none" stroke="#63b8ff" d="M825.72,-390.47C838.43,-388.64 851.79,-386.74 864.26,-385 923.78,-376.71 1092.7,-394.23 1132.26,-349 1141.12,-338.88 1149.21,-281.95 1131.26,-253 1122.58,-239 1108.61,-228.74 1093.94,-221.3"/>
<polygon fill="#63b8ff" stroke="#63b8ff" points="1095.29,-218.07 1084.75,-217.02 1092.34,-224.41 1095.29,-218.07"/>
</a>
</g>
</g>
<!-- Node36&#45;&gt;Node37 -->
<g id="edge53_Node000036_Node000037" class="edge">
<title>Node36&#45;&gt;Node37</title>
<g id="a_edge53_Node000036_Node000037"><a xlink:title=" ">
<path fill="none" stroke="#63b8ff" d="M779.8,-390.37C795.06,-379.87 821.03,-362 839.33,-349.4"/>
<polygon fill="#63b8ff" stroke="#63b8ff" points="841.37,-352.25 847.62,-343.7 837.4,-346.48 841.37,-352.25"/>
</a>
</g>
</g>
<!-- Node38 -->
<g id="Node000038" class="node">
<title>Node38</title>
<g id="a_Node000038"><a xlink:href="types__handling_8h.html" target="_top" xlink:title=" ">
<polygon fill="white" stroke="#666666" points="697.76,-349 584.76,-349 584.76,-319 697.76,-319 697.76,-349"/>
<text text-anchor="start" x="592.76" y="-337" font-family="Helvetica,sans-Serif" font-size="10.00">open62541pp/detail</text>
<text text-anchor="middle" x="641.26" y="-326" font-family="Helvetica,sans-Serif" font-size="10.00">/types_handling.h</text>
</a>
</g>
</g>
<!-- Node36&#45;&gt;Node38 -->
<g id="edge56_Node000036_Node000038" class="edge">
<title>Node36&#45;&gt;Node38</title>
<g id="a_edge56_Node000036_Node000038"><a xlink:title=" ">
<path fill="none" stroke="#63b8ff" d="M750.27,-390.37C731.89,-381.03 702.01,-365.86 678.18,-353.75"/>
<polygon fill="#63b8ff" stroke="#63b8ff" points="679.55,-350.52 669.05,-349.12 676.38,-356.76 679.55,-350.52"/>
</a>
</g>
</g>
<!-- Node37&#45;&gt;Node15 -->
<g id="edge54_Node000037_Node000015" class="edge">
<title>Node37&#45;&gt;Node15</title>
<g id="a_edge54_Node000037_Node000015"><a xlink:title=" ">
<path fill="none" stroke="#63b8ff" d="M853.96,-324.47C838.3,-303.27 797.39,-247.86 776.67,-219.8"/>
<polygon fill="#63b8ff" stroke="#63b8ff" points="779.47,-217.7 770.71,-211.73 773.83,-221.86 779.47,-217.7"/>
</a>
</g>
</g>
<!-- Node38&#45;&gt;Node9 -->
<g id="edge57_Node000038_Node000009" class="edge">
<title>Node38&#45;&gt;Node9</title>
<g id="a_edge57_Node000038_Node000009"><a xlink:title=" ">
<path fill="none" stroke="#63b8ff" d="M584.69,-327.17C466.28,-314.93 201.65,-287.31 182.26,-283 179.27,-282.34 176.2,-281.53 173.14,-280.64"/>
<polygon fill="#63b8ff" stroke="#63b8ff" points="174.15,-277.29 163.56,-277.61 172.04,-283.96 174.15,-277.29"/>
</a>
</g>
</g>
<!-- Node38&#45;&gt;Node10 -->
<g id="edge58_Node000038_Node000010" class="edge">
<title>Node38&#45;&gt;Node10</title>
<g id="a_edge58_Node000038_Node000010"><a xlink:title=" ">
<path fill="none" stroke="#63b8ff" d="M610.76,-318.95C586.7,-307.88 553.43,-292.56 530.1,-281.82"/>
<polygon fill="#63b8ff" stroke="#63b8ff" points="531.31,-278.52 520.76,-277.52 528.38,-284.88 531.31,-278.52"/>
</a>
</g>
</g>
<!-- Node38&#45;&gt;Node25 -->
<g id="edge60_Node000038_Node000025" class="edge">
<title>Node38&#45;&gt;Node25</title>
<g id="a_edge60_Node000038_Node000025"><a xlink:title=" ">
<path fill="none" stroke="#63b8ff" d="M584.41,-323.14C515.82,-311.24 401.05,-291.34 331.43,-279.26"/>
<polygon fill="#63b8ff" stroke="#63b8ff" points="331.95,-275.8 321.49,-277.54 330.75,-282.7 331.95,-275.8"/>
</a>
</g>
</g>
<!-- Node38&#45;&gt;Node28 -->
<g id="edge61_Node000038_Node000028" class="edge">
<title>Node38&#45;&gt;Node28</title>
<g id="a_edge61_Node000038_Node000028"><a xlink:title=" ">
<path fill="none" stroke="#63b8ff" d="M683.69,-318.96C756.12,-295.01 903.37,-246.3 982.01,-220.28"/>
<polygon fill="#63b8ff" stroke="#63b8ff" points="983.32,-223.54 991.71,-217.08 981.12,-216.89 983.32,-223.54"/>
</a>
</g>
</g>
<!-- Node39 -->
<g id="Node000039" class="node">
<title>Node39</title>
<g id="a_Node000039"><a xlink:title=" ">
<polygon fill="#e0e0e0" stroke="#999999" points="604.26,-277.5 546.26,-277.5 546.26,-258.5 604.26,-258.5 604.26,-277.5"/>
<text text-anchor="middle" x="575.26" y="-265.5" font-family="Helvetica,sans-Serif" font-size="10.00">memory</text>
</a>
</g>
</g>
<!-- Node38&#45;&gt;Node39 -->
<g id="edge59_Node000038_Node000039" class="edge">
<title>Node38&#45;&gt;Node39</title>
<g id="a_edge59_Node000038_Node000039"><a xlink:title=" ">
<path fill="none" stroke="#63b8ff" d="M626.61,-318.8C616.32,-308.82 602.55,-295.46 591.85,-285.09"/>
<polygon fill="#63b8ff" stroke="#63b8ff" points="594,-282.29 584.38,-277.84 589.13,-287.32 594,-282.29"/>
</a>
</g>
</g>
<!-- Node40 -->
<g id="Node000040" class="node">
<title>Node40</title>
<g id="a_Node000040"><a xlink:href="traits_8h.html" target="_top" xlink:title=" ">
<polygon fill="white" stroke="#666666" points="735.76,-283 622.76,-283 622.76,-253 735.76,-253 735.76,-283"/>
<text text-anchor="start" x="630.76" y="-271" font-family="Helvetica,sans-Serif" font-size="10.00">open62541pp/detail</text>
<text text-anchor="middle" x="679.26" y="-260" font-family="Helvetica,sans-Serif" font-size="10.00">/traits.h</text>
</a>
</g>
</g>
<!-- Node38&#45;&gt;Node40 -->
<g id="edge62_Node000038_Node000040" class="edge">
<title>Node38&#45;&gt;Node40</title>
<g id="a_edge62_Node000038_Node000040"><a xlink:title=" ">
<path fill="none" stroke="#63b8ff" d="M649.7,-318.8C654.37,-310.92 660.29,-300.95 665.61,-291.99"/>
<polygon fill="#63b8ff" stroke="#63b8ff" points="668.76,-293.55 670.85,-283.16 662.74,-289.98 668.76,-293.55"/>
</a>
</g>
</g>
<!-- Node40&#45;&gt;Node15 -->
<g id="edge63_Node000040_Node000015" class="edge">
<title>Node40&#45;&gt;Node15</title>
<g id="a_edge63_Node000040_Node000015"><a xlink:title=" ">
<path fill="none" stroke="#63b8ff" d="M698.13,-252.8C711.9,-242.43 730.52,-228.4 744.5,-217.88"/>
<polygon fill="#63b8ff" stroke="#63b8ff" points="746.63,-220.66 752.52,-211.84 742.42,-215.06 746.63,-220.66"/>
</a>
</g>
</g>
<!-- Node41&#45;&gt;Node21 -->
<g id="edge68_Node000041_Node000021" class="edge">
<title>Node41&#45;&gt;Node21</title>
<g id="a_edge68_Node000041_Node000021"><a xlink:title=" ">
<path fill="none" stroke="#63b8ff" d="M1297.06,-384.8C1285.46,-374.62 1269.84,-360.93 1257.92,-350.48"/>
<polygon fill="#63b8ff" stroke="#63b8ff" points="1260.18,-347.8 1250.35,-343.84 1255.56,-353.07 1260.18,-347.8"/>
</a>
</g>
</g>
<!-- Node41&#45;&gt;Node22 -->
<g id="edge69_Node000041_Node000022" class="edge">
<title>Node41&#45;&gt;Node22</title>
<g id="a_edge69_Node000041_Node000022"><a xlink:title=" ">
<path fill="none" stroke="#63b8ff" d="M1338.28,-384.95C1357.57,-374.13 1384.08,-359.24 1403.14,-348.54"/>
<polygon fill="#63b8ff" stroke="#63b8ff" points="1405.08,-351.46 1412.09,-343.52 1401.66,-345.36 1405.08,-351.46"/>
</a>
</g>
</g>
<!-- Node41&#45;&gt;Node28 -->
<g id="edge70_Node000041_Node000028" class="edge">
<title>Node41&#45;&gt;Node28</title>
<g id="a_edge70_Node000041_Node000028"><a xlink:title=" ">
<path fill="none" stroke="#63b8ff" d="M1325.72,-384.97C1339.07,-368.15 1356.55,-339.65 1342.26,-319 1289.94,-243.38 1181.68,-217 1108.5,-207.83"/>
<polygon fill="#63b8ff" stroke="#63b8ff" points="1108.75,-204.33 1098.41,-206.64 1107.93,-211.28 1108.75,-204.33"/>
</a>
</g>
</g>
<!-- Node42 -->
<g id="Node000042" class="node">
<title>Node42</title>
<g id="a_Node000042"><a xlink:title=" ">
<polygon fill="#e0e0e0" stroke="#999999" points="1333.76,-343.5 1280.76,-343.5 1280.76,-324.5 1333.76,-324.5 1333.76,-343.5"/>
<text text-anchor="middle" x="1307.26" y="-331.5" font-family="Helvetica,sans-Serif" font-size="10.00">cstdarg</text>
</a>
</g>
</g>
<!-- Node41&#45;&gt;Node42 -->
<g id="edge67_Node000041_Node000042" class="edge">
<title>Node41&#45;&gt;Node42</title>
<g id="a_edge67_Node000041_Node000042"><a xlink:title=" ">
<path fill="none" stroke="#63b8ff" d="M1311.93,-384.8C1311.08,-375.7 1309.96,-363.79 1309.03,-353.9"/>
<polygon fill="#63b8ff" stroke="#63b8ff" points="1312.51,-353.47 1308.09,-343.84 1305.54,-354.13 1312.51,-353.47"/>
</a>
</g>
</g>
</g>
</svg>
