<?xml version="1.0" encoding="UTF-8" standalone="no"?>
<!DOCTYPE svg PUBLIC "-//W3C//DTD SVG 1.1//EN"
 "http://www.w3.org/Graphics/SVG/1.1/DTD/svg11.dtd">
<!-- Generated by graphviz version 2.43.0 (0)
 -->
<!-- Title: /home/runner/work/open62541pp/open62541pp/include/open62541pp/types/DataValue.h Pages: 1 -->
<svg width="1580pt" height="522pt"
 viewBox="0.00 0.00 1580.00 522.00" xmlns="http://www.w3.org/2000/svg" xmlns:xlink="http://www.w3.org/1999/xlink">
<g id="graph0" class="graph" transform="scale(1 1) rotate(0) translate(4 518)">
<title>/home/runner/work/open62541pp/open62541pp/include/open62541pp/types/DataValue.h</title>
<!-- Node1 -->
<g id="Node000001" class="node">
<title>Node1</title>
<g id="a_Node000001"><a xlink:title=" ">
<polygon fill="#999999" stroke="#666666" points="324.5,-514 131.5,-514 131.5,-473 324.5,-473 324.5,-514"/>
<text text-anchor="start" x="139.5" y="-502" font-family="Helvetica,sans-Serif" font-size="10.00">/home/runner/work/open62541pp</text>
<text text-anchor="start" x="139.5" y="-491" font-family="Helvetica,sans-Serif" font-size="10.00">/open62541pp/include/open62541pp</text>
<text text-anchor="middle" x="228" y="-480" font-family="Helvetica,sans-Serif" font-size="10.00">/types/DataValue.h</text>
</a>
</g>
</g>
<!-- Node2 -->
<g id="Node000002" class="node">
<title>Node2</title>
<g id="a_Node000002"><a xlink:title=" ">
<polygon fill="#e0e0e0" stroke="#999999" points="169,-79.5 119,-79.5 119,-60.5 169,-60.5 169,-79.5"/>
<text text-anchor="middle" x="144" y="-67.5" font-family="Helvetica,sans-Serif" font-size="10.00">cstdint</text>
</a>
</g>
</g>
<!-- Node1&#45;&gt;Node2 -->
<g id="edge1_Node000001_Node000002" class="edge">
<title>Node1&#45;&gt;Node2</title>
<g id="a_edge1_Node000001_Node000002"><a xlink:title=" ">
<path fill="none" stroke="#63b8ff" d="M131.31,-480.15C69.17,-466.16 0,-436.46 0,-373.5 0,-373.5 0,-373.5 0,-190 0,-133.43 66.84,-98.71 109.45,-82.32"/>
<polygon fill="#63b8ff" stroke="#63b8ff" points="110.75,-85.57 118.92,-78.82 108.32,-79 110.75,-85.57"/>
</a>
</g>
</g>
<!-- Node3 -->
<g id="Node000003" class="node">
<title>Node3</title>
<g id="a_Node000003"><a xlink:title=" ">
<polygon fill="#e0e0e0" stroke="#999999" points="1544,-382 1488,-382 1488,-363 1544,-363 1544,-382"/>
<text text-anchor="middle" x="1516" y="-370" font-family="Helvetica,sans-Serif" font-size="10.00">optional</text>
</a>
</g>
</g>
<!-- Node1&#45;&gt;Node3 -->
<g id="edge2_Node000001_Node000003" class="edge">
<title>Node1&#45;&gt;Node3</title>
<g id="a_edge2_Node000001_Node000003"><a xlink:title=" ">
<path fill="none" stroke="#63b8ff" d="M324.57,-487.6C534.52,-476.16 1047.92,-443.81 1474,-382 1475.1,-381.84 1476.22,-381.67 1477.35,-381.49"/>
<polygon fill="#63b8ff" stroke="#63b8ff" points="1478.36,-384.87 1487.61,-379.69 1477.15,-377.97 1478.36,-384.87"/>
</a>
</g>
</g>
<!-- Node4 -->
<g id="Node000004" class="node">
<title>Node4</title>
<g id="a_Node000004"><a xlink:title=" ">
<polygon fill="#e0e0e0" stroke="#999999" points="115.5,-200.5 70.5,-200.5 70.5,-181.5 115.5,-181.5 115.5,-200.5"/>
<text text-anchor="middle" x="93" y="-188.5" font-family="Helvetica,sans-Serif" font-size="10.00">utility</text>
</a>
</g>
</g>
<!-- Node1&#45;&gt;Node4 -->
<g id="edge3_Node000001_Node000004" class="edge">
<title>Node1&#45;&gt;Node4</title>
<g id="a_edge3_Node000001_Node000004"><a xlink:title=" ">
<path fill="none" stroke="#63b8ff" d="M168.8,-472.94C126.12,-454.69 76,-422.77 76,-373.5 76,-373.5 76,-373.5 76,-311 76,-275.13 83.66,-233.79 88.7,-210.49"/>
<polygon fill="#63b8ff" stroke="#63b8ff" points="92.14,-211.12 90.92,-200.6 85.31,-209.59 92.14,-211.12"/>
</a>
</g>
</g>
<!-- Node5 -->
<g id="Node000005" class="node">
<title>Node5</title>
<g id="a_Node000005"><a xlink:href="TypeWrapper_8h.html" target="_top" xlink:title=" ">
<polygon fill="white" stroke="#666666" points="490,-261 332,-261 332,-242 490,-242 490,-261"/>
<text text-anchor="middle" x="411" y="-249" font-family="Helvetica,sans-Serif" font-size="10.00">open62541pp/TypeWrapper.h</text>
</a>
</g>
</g>
<!-- Node1&#45;&gt;Node5 -->
<g id="edge4_Node000001_Node000005" class="edge">
<title>Node1&#45;&gt;Node5</title>
<g id="a_edge4_Node000001_Node000005"><a xlink:title=" ">
<path fill="none" stroke="#63b8ff" d="M242.98,-472.86C278.04,-426.87 365,-312.83 398.01,-269.54"/>
<polygon fill="#63b8ff" stroke="#63b8ff" points="400.91,-271.5 404.19,-261.43 395.35,-267.26 400.91,-271.5"/>
</a>
</g>
</g>
<!-- Node12 -->
<g id="Node000012" class="node">
<title>Node12</title>
<g id="a_Node000012"><a xlink:href="open62541_8h.html" target="_top" xlink:title=" ">
<polygon fill="white" stroke="#666666" points="1184.5,-79.5 1035.5,-79.5 1035.5,-60.5 1184.5,-60.5 1184.5,-79.5"/>
<text text-anchor="middle" x="1110" y="-67.5" font-family="Helvetica,sans-Serif" font-size="10.00">open62541pp/open62541.h</text>
</a>
</g>
</g>
<!-- Node1&#45;&gt;Node12 -->
<g id="edge34_Node000001_Node000012" class="edge">
<title>Node1&#45;&gt;Node12</title>
<g id="a_edge34_Node000001_Node000012"><a xlink:title=" ">
<path fill="none" stroke="#63b8ff" d="M324.66,-489C632.82,-477.22 1572,-436.16 1572,-373.5 1572,-373.5 1572,-373.5 1572,-190 1572,-113.01 1328.36,-85.08 1194.94,-75.56"/>
<polygon fill="#63b8ff" stroke="#63b8ff" points="1194.96,-72.06 1184.74,-74.86 1194.48,-79.04 1194.96,-72.06"/>
</a>
</g>
</g>
<!-- Node22 -->
<g id="Node000022" class="node">
<title>Node22</title>
<g id="a_Node000022"><a xlink:href="DateTime_8h.html" target="_top" xlink:title=" ">
<polygon fill="white" stroke="#666666" points="650.5,-321.5 477.5,-321.5 477.5,-302.5 650.5,-302.5 650.5,-321.5"/>
<text text-anchor="middle" x="564" y="-309.5" font-family="Helvetica,sans-Serif" font-size="10.00">open62541pp/types/DateTime.h</text>
</a>
</g>
</g>
<!-- Node1&#45;&gt;Node22 -->
<g id="edge35_Node000001_Node000022" class="edge">
<title>Node1&#45;&gt;Node22</title>
<g id="a_edge35_Node000001_Node000022"><a xlink:title=" ">
<path fill="none" stroke="#63b8ff" d="M264.6,-472.95C333.39,-436.2 480.35,-357.69 539.04,-326.34"/>
<polygon fill="#63b8ff" stroke="#63b8ff" points="540.82,-329.35 547.99,-321.55 537.52,-323.18 540.82,-329.35"/>
</a>
</g>
</g>
<!-- Node25 -->
<g id="Node000025" class="node">
<title>Node25</title>
<g id="a_Node000025"><a xlink:href="Variant_8h.html" target="_top" xlink:title=" ">
<polygon fill="white" stroke="#666666" points="758.5,-437 599.5,-437 599.5,-418 758.5,-418 758.5,-437"/>
<text text-anchor="middle" x="679" y="-425" font-family="Helvetica,sans-Serif" font-size="10.00">open62541pp/types/Variant.h</text>
</a>
</g>
</g>
<!-- Node1&#45;&gt;Node25 -->
<g id="edge43_Node000001_Node000025" class="edge">
<title>Node1&#45;&gt;Node25</title>
<g id="a_edge43_Node000001_Node000025"><a xlink:title=" ">
<path fill="none" stroke="#63b8ff" d="M324.75,-478.77C410.21,-466.64 532.77,-449.25 609.04,-438.43"/>
<polygon fill="#63b8ff" stroke="#63b8ff" points="609.61,-441.88 619.02,-437.01 608.63,-434.95 609.61,-441.88"/>
</a>
</g>
</g>
<!-- Node5&#45;&gt;Node2 -->
<g id="edge6_Node000005_Node000002" class="edge">
<title>Node5&#45;&gt;Node2</title>
<g id="a_edge6_Node000005_Node000002"><a xlink:title=" ">
<path fill="none" stroke="#63b8ff" d="M397.11,-241.85C367.78,-223.52 297.53,-179.23 240,-140 213.36,-121.83 183.26,-99.97 163.98,-85.8"/>
<polygon fill="#63b8ff" stroke="#63b8ff" points="165.82,-82.81 155.69,-79.69 161.66,-88.44 165.82,-82.81"/>
</a>
</g>
</g>
<!-- Node5&#45;&gt;Node4 -->
<g id="edge8_Node000005_Node000004" class="edge">
<title>Node5&#45;&gt;Node4</title>
<g id="a_edge8_Node000005_Node000004"><a xlink:title=" ">
<path fill="none" stroke="#63b8ff" d="M364.76,-241.99C299.57,-230 182.28,-208.42 125.52,-197.98"/>
<polygon fill="#63b8ff" stroke="#63b8ff" points="126.12,-194.53 115.65,-196.17 124.85,-201.42 126.12,-194.53"/>
</a>
</g>
</g>
<!-- Node6 -->
<g id="Node000006" class="node">
<title>Node6</title>
<g id="a_Node000006"><a xlink:title=" ">
<polygon fill="#e0e0e0" stroke="#999999" points="458,-140 406,-140 406,-121 458,-121 458,-140"/>
<text text-anchor="middle" x="432" y="-128" font-family="Helvetica,sans-Serif" font-size="10.00">cassert</text>
</a>
</g>
</g>
<!-- Node5&#45;&gt;Node6 -->
<g id="edge5_Node000005_Node000006" class="edge">
<title>Node5&#45;&gt;Node6</title>
<g id="a_edge5_Node000005_Node000006"><a xlink:title=" ">
<path fill="none" stroke="#63b8ff" d="M412.51,-241.94C415.87,-222.91 424.03,-176.69 428.65,-150.47"/>
<polygon fill="#63b8ff" stroke="#63b8ff" points="432.16,-150.76 430.45,-140.3 425.26,-149.54 432.16,-150.76"/>
</a>
</g>
</g>
<!-- Node7 -->
<g id="Node000007" class="node">
<title>Node7</title>
<g id="a_Node000007"><a xlink:title=" ">
<polygon fill="#e0e0e0" stroke="#999999" points="520.5,-19 451.5,-19 451.5,0 520.5,0 520.5,-19"/>
<text text-anchor="middle" x="486" y="-7" font-family="Helvetica,sans-Serif" font-size="10.00">type_traits</text>
</a>
</g>
</g>
<!-- Node5&#45;&gt;Node7 -->
<g id="edge7_Node000005_Node000007" class="edge">
<title>Node5&#45;&gt;Node7</title>
<g id="a_edge7_Node000005_Node000007"><a xlink:title=" ">
<path fill="none" stroke="#63b8ff" d="M415.44,-241.99C420.1,-233.04 427.62,-218.56 434,-206 448.86,-176.77 457.16,-171.29 467,-140 479,-101.84 483.48,-54.93 485.11,-29.34"/>
<polygon fill="#63b8ff" stroke="#63b8ff" points="488.61,-29.37 485.67,-19.2 481.62,-28.99 488.61,-29.37"/>
</a>
</g>
</g>
<!-- Node8 -->
<g id="Node000008" class="node">
<title>Node8</title>
<g id="a_Node000008"><a xlink:href="Common_8h.html" target="_top" xlink:title=" ">
<polygon fill="white" stroke="#666666" points="387.5,-140 248.5,-140 248.5,-121 387.5,-121 387.5,-140"/>
<text text-anchor="middle" x="318" y="-128" font-family="Helvetica,sans-Serif" font-size="10.00">open62541pp/Common.h</text>
</a>
</g>
</g>
<!-- Node5&#45;&gt;Node8 -->
<g id="edge9_Node000005_Node000008" class="edge">
<title>Node5&#45;&gt;Node8</title>
<g id="a_edge9_Node000005_Node000008"><a xlink:title=" ">
<path fill="none" stroke="#63b8ff" d="M404.31,-241.94C389.04,-222.4 351.36,-174.18 331.21,-148.4"/>
<polygon fill="#63b8ff" stroke="#63b8ff" points="333.79,-146.03 324.88,-140.3 328.28,-150.34 333.79,-146.03"/>
</a>
</g>
</g>
<!-- Node5&#45;&gt;Node12 -->
<g id="edge31_Node000005_Node000012" class="edge">
<title>Node5&#45;&gt;Node12</title>
<g id="a_edge31_Node000005_Node000012"><a xlink:title=" ">
<path fill="none" stroke="#63b8ff" d="M423.65,-241.92C446.66,-226.67 497.31,-194.68 544,-176 706.58,-110.96 911.75,-85.77 1025.05,-76.34"/>
<polygon fill="#63b8ff" stroke="#63b8ff" points="1025.37,-79.83 1035.05,-75.53 1024.8,-72.85 1025.37,-79.83"/>
</a>
</g>
</g>
<!-- Node17 -->
<g id="Node000017" class="node">
<title>Node17</title>
<g id="a_Node000017"><a xlink:href="ErrorHandling_8h.html" target="_top" xlink:title=" ">
<polygon fill="white" stroke="#666666" points="1187.5,-200.5 1026.5,-200.5 1026.5,-181.5 1187.5,-181.5 1187.5,-200.5"/>
<text text-anchor="middle" x="1107" y="-188.5" font-family="Helvetica,sans-Serif" font-size="10.00">open62541pp/ErrorHandling.h</text>
</a>
</g>
</g>
<!-- Node5&#45;&gt;Node17 -->
<g id="edge21_Node000005_Node000017" class="edge">
<title>Node5&#45;&gt;Node17</title>
<g id="a_edge21_Node000005_Node000017"><a xlink:title=" ">
<path fill="none" stroke="#63b8ff" d="M490.15,-242.8C493.14,-242.53 496.1,-242.26 499,-242 682.48,-225.6 897.3,-208.4 1016.18,-199.06"/>
<polygon fill="#63b8ff" stroke="#63b8ff" points="1016.63,-202.54 1026.32,-198.27 1016.08,-195.56 1016.63,-202.54"/>
</a>
</g>
</g>
<!-- Node20 -->
<g id="Node000020" class="node">
<title>Node20</title>
<g id="a_Node000020"><a xlink:href="helper_8h.html" target="_top" xlink:title=" ">
<polygon fill="white" stroke="#666666" points="665.5,-206 552.5,-206 552.5,-176 665.5,-176 665.5,-206"/>
<text text-anchor="start" x="560.5" y="-194" font-family="Helvetica,sans-Serif" font-size="10.00">open62541pp/detail</text>
<text text-anchor="middle" x="609" y="-183" font-family="Helvetica,sans-Serif" font-size="10.00">/helper.h</text>
</a>
</g>
</g>
<!-- Node5&#45;&gt;Node20 -->
<g id="edge25_Node000005_Node000020" class="edge">
<title>Node5&#45;&gt;Node20</title>
<g id="a_edge25_Node000005_Node000020"><a xlink:title=" ">
<path fill="none" stroke="#63b8ff" d="M439.79,-241.99C469.03,-233.35 515.11,-219.74 551.8,-208.9"/>
<polygon fill="#63b8ff" stroke="#63b8ff" points="552.8,-212.25 561.4,-206.06 550.82,-205.54 552.8,-212.25"/>
</a>
</g>
</g>
<!-- Node21 -->
<g id="Node000021" class="node">
<title>Node21</title>
<g id="a_Node000021"><a xlink:href="comparison_8h.html" target="_top" xlink:title=" ">
<polygon fill="white" stroke="#666666" points="818,-206 684,-206 684,-176 818,-176 818,-206"/>
<text text-anchor="start" x="692" y="-194" font-family="Helvetica,sans-Serif" font-size="10.00">open62541pp/overloads</text>
<text text-anchor="middle" x="751" y="-183" font-family="Helvetica,sans-Serif" font-size="10.00">/comparison.h</text>
</a>
</g>
</g>
<!-- Node5&#45;&gt;Node21 -->
<g id="edge32_Node000005_Node000021" class="edge">
<title>Node5&#45;&gt;Node21</title>
<g id="a_edge32_Node000005_Node000021"><a xlink:title=" ">
<path fill="none" stroke="#63b8ff" d="M463.14,-241.95C514.23,-233.52 594.61,-220.11 673.73,-206.21"/>
<polygon fill="#63b8ff" stroke="#63b8ff" points="674.63,-209.6 683.87,-204.42 673.42,-202.71 674.63,-209.6"/>
</a>
</g>
</g>
<!-- Node8&#45;&gt;Node2 -->
<g id="edge10_Node000008_Node000002" class="edge">
<title>Node8&#45;&gt;Node2</title>
<g id="a_edge10_Node000008_Node000002"><a xlink:title=" ">
<path fill="none" stroke="#63b8ff" d="M292.7,-120.99C262.72,-110.91 212.59,-94.06 178.93,-82.74"/>
<polygon fill="#63b8ff" stroke="#63b8ff" points="179.64,-79.29 169.05,-79.42 177.41,-85.93 179.64,-79.29"/>
</a>
</g>
</g>
<!-- Node9 -->
<g id="Node000009" class="node">
<title>Node9</title>
<g id="a_Node000009"><a xlink:title=" ">
<polygon fill="#e0e0e0" stroke="#999999" points="616.5,-79.5 543.5,-79.5 543.5,-60.5 616.5,-60.5 616.5,-79.5"/>
<text text-anchor="middle" x="580" y="-67.5" font-family="Helvetica,sans-Serif" font-size="10.00">string_view</text>
</a>
</g>
</g>
<!-- Node8&#45;&gt;Node9 -->
<g id="edge11_Node000008_Node000009" class="edge">
<title>Node8&#45;&gt;Node9</title>
<g id="a_edge11_Node000008_Node000009"><a xlink:title=" ">
<path fill="none" stroke="#63b8ff" d="M356.1,-120.99C402.97,-110.53 482.53,-92.76 533.11,-81.47"/>
<polygon fill="#63b8ff" stroke="#63b8ff" points="534.13,-84.83 543.13,-79.23 532.6,-78 534.13,-84.83"/>
</a>
</g>
</g>
<!-- Node10 -->
<g id="Node000010" class="node">
<title>Node10</title>
<g id="a_Node000010"><a xlink:title=" ">
<polygon fill="#e0e0e0" stroke="#999999" points="344.5,-19 303.5,-19 303.5,0 344.5,0 344.5,-19"/>
<text text-anchor="middle" x="324" y="-7" font-family="Helvetica,sans-Serif" font-size="10.00">tuple</text>
</a>
</g>
</g>
<!-- Node8&#45;&gt;Node10 -->
<g id="edge12_Node000008_Node000010" class="edge">
<title>Node8&#45;&gt;Node10</title>
<g id="a_edge12_Node000008_Node000010"><a xlink:title=" ">
<path fill="none" stroke="#63b8ff" d="M325.94,-120.75C333.03,-112.3 342.9,-98.79 347,-85 350.8,-72.22 350.15,-67.96 347,-55 344.69,-45.51 339.98,-35.78 335.42,-27.85"/>
<polygon fill="#63b8ff" stroke="#63b8ff" points="338.32,-25.89 330.1,-19.2 332.36,-29.55 338.32,-25.89"/>
</a>
</g>
</g>
<!-- Node11 -->
<g id="Node000011" class="node">
<title>Node11</title>
<g id="a_Node000011"><a xlink:href="traits_8h.html" target="_top" xlink:title=" ">
<polygon fill="white" stroke="#666666" points="337.5,-85 224.5,-85 224.5,-55 337.5,-55 337.5,-85"/>
<text text-anchor="start" x="232.5" y="-73" font-family="Helvetica,sans-Serif" font-size="10.00">open62541pp/detail</text>
<text text-anchor="middle" x="281" y="-62" font-family="Helvetica,sans-Serif" font-size="10.00">/traits.h</text>
</a>
</g>
</g>
<!-- Node8&#45;&gt;Node11 -->
<g id="edge13_Node000008_Node000011" class="edge">
<title>Node8&#45;&gt;Node11</title>
<g id="a_edge13_Node000008_Node000011"><a xlink:title=" ">
<path fill="none" stroke="#63b8ff" d="M312.54,-120.87C308.03,-113.74 301.42,-103.28 295.41,-93.79"/>
<polygon fill="#63b8ff" stroke="#63b8ff" points="298.23,-91.7 289.93,-85.11 292.31,-95.44 298.23,-91.7"/>
</a>
</g>
</g>
<!-- Node8&#45;&gt;Node12 -->
<g id="edge16_Node000008_Node000012" class="edge">
<title>Node8&#45;&gt;Node12</title>
<g id="a_edge16_Node000008_Node000012"><a xlink:title=" ">
<path fill="none" stroke="#63b8ff" d="M387.77,-121.85C390.89,-121.55 393.98,-121.27 397,-121 623.62,-100.87 891.36,-83.93 1025.08,-75.93"/>
<polygon fill="#63b8ff" stroke="#63b8ff" points="1025.48,-79.41 1035.25,-75.32 1025.06,-72.43 1025.48,-79.41"/>
</a>
</g>
</g>
<!-- Node11&#45;&gt;Node7 -->
<g id="edge15_Node000011_Node000007" class="edge">
<title>Node11&#45;&gt;Node7</title>
<g id="a_edge15_Node000011_Node000007"><a xlink:title=" ">
<path fill="none" stroke="#63b8ff" d="M330.1,-54.99C365.63,-44.85 413.04,-31.32 446.22,-21.85"/>
<polygon fill="#63b8ff" stroke="#63b8ff" points="447.37,-25.16 456.03,-19.05 445.45,-18.43 447.37,-25.16"/>
</a>
</g>
</g>
<!-- Node11&#45;&gt;Node10 -->
<g id="edge14_Node000011_Node000010" class="edge">
<title>Node11&#45;&gt;Node10</title>
<g id="a_edge14_Node000011_Node000010"><a xlink:title=" ">
<path fill="none" stroke="#63b8ff" d="M291.41,-54.84C297.46,-46.61 305.12,-36.18 311.5,-27.51"/>
<polygon fill="#63b8ff" stroke="#63b8ff" points="314.45,-29.4 317.56,-19.27 308.81,-25.25 314.45,-29.4"/>
</a>
</g>
</g>
<!-- Node13 -->
<g id="Node000013" class="node">
<title>Node13</title>
<g id="a_Node000013"><a target="_blank" xlink:href="open62541/config_8h.html" xlink:title=" ">
<polygon fill="white" stroke="#666666" points="964,-19 852,-19 852,0 964,0 964,-19"/>
<text text-anchor="middle" x="908" y="-7" font-family="Helvetica,sans-Serif" font-size="10.00">open62541/config.h</text>
</a>
</g>
</g>
<!-- Node12&#45;&gt;Node13 -->
<g id="edge17_Node000012_Node000013" class="edge">
<title>Node12&#45;&gt;Node13</title>
<g id="a_edge17_Node000012_Node000013"><a xlink:title=" ">
<path fill="none" stroke="#63b8ff" d="M1080.63,-60.49C1045.4,-50.29 986.21,-33.15 947.13,-21.83"/>
<polygon fill="#63b8ff" stroke="#63b8ff" points="947.99,-18.44 937.41,-19.02 946.04,-25.16 947.99,-18.44"/>
</a>
</g>
</g>
<!-- Node14 -->
<g id="Node000014" class="node">
<title>Node14</title>
<g id="a_Node000014"><a target="_blank" xlink:href="open62541/nodeids_8h.html" xlink:title=" ">
<polygon fill="white" stroke="#666666" points="1103.5,-19 982.5,-19 982.5,0 1103.5,0 1103.5,-19"/>
<text text-anchor="middle" x="1043" y="-7" font-family="Helvetica,sans-Serif" font-size="10.00">open62541/nodeids.h</text>
</a>
</g>
</g>
<!-- Node12&#45;&gt;Node14 -->
<g id="edge18_Node000012_Node000014" class="edge">
<title>Node12&#45;&gt;Node14</title>
<g id="a_edge18_Node000012_Node000014"><a xlink:title=" ">
<path fill="none" stroke="#63b8ff" d="M1100.11,-60.37C1089.72,-51.3 1073.16,-36.84 1060.55,-25.82"/>
<polygon fill="#63b8ff" stroke="#63b8ff" points="1062.76,-23.11 1052.93,-19.17 1058.16,-28.38 1062.76,-23.11"/>
</a>
</g>
</g>
<!-- Node15 -->
<g id="Node000015" class="node">
<title>Node15</title>
<g id="a_Node000015"><a target="_blank" xlink:href="open62541/types_8h.html" xlink:title=" ">
<polygon fill="white" stroke="#666666" points="1232,-19 1122,-19 1122,0 1232,0 1232,-19"/>
<text text-anchor="middle" x="1177" y="-7" font-family="Helvetica,sans-Serif" font-size="10.00">open62541/types.h</text>
</a>
</g>
</g>
<!-- Node12&#45;&gt;Node15 -->
<g id="edge19_Node000012_Node000015" class="edge">
<title>Node12&#45;&gt;Node15</title>
<g id="a_edge19_Node000012_Node000015"><a xlink:title=" ">
<path fill="none" stroke="#63b8ff" d="M1119.89,-60.37C1130.28,-51.3 1146.84,-36.84 1159.45,-25.82"/>
<polygon fill="#63b8ff" stroke="#63b8ff" points="1161.84,-28.38 1167.07,-19.17 1157.24,-23.11 1161.84,-28.38"/>
</a>
</g>
</g>
<!-- Node16 -->
<g id="Node000016" class="node">
<title>Node16</title>
<g id="a_Node000016"><a target="_blank" xlink:href="open62541/types__generated_8h.html" xlink:title=" ">
<polygon fill="white" stroke="#666666" points="1414,-19 1250,-19 1250,0 1414,0 1414,-19"/>
<text text-anchor="middle" x="1332" y="-7" font-family="Helvetica,sans-Serif" font-size="10.00">open62541/types_generated.h</text>
</a>
</g>
</g>
<!-- Node12&#45;&gt;Node16 -->
<g id="edge20_Node000012_Node000016" class="edge">
<title>Node12&#45;&gt;Node16</title>
<g id="a_edge20_Node000012_Node000016"><a xlink:title=" ">
<path fill="none" stroke="#63b8ff" d="M1142.28,-60.49C1181.25,-50.23 1246.88,-32.93 1289.82,-21.62"/>
<polygon fill="#63b8ff" stroke="#63b8ff" points="1290.9,-24.95 1299.68,-19.02 1289.12,-18.18 1290.9,-24.95"/>
</a>
</g>
</g>
<!-- Node17&#45;&gt;Node12 -->
<g id="edge24_Node000017_Node000012" class="edge">
<title>Node17&#45;&gt;Node12</title>
<g id="a_edge24_Node000017_Node000012"><a xlink:title=" ">
<path fill="none" stroke="#63b8ff" d="M1107.22,-181.44C1107.7,-162.41 1108.86,-116.19 1109.52,-89.97"/>
<polygon fill="#63b8ff" stroke="#63b8ff" points="1113.02,-89.89 1109.78,-79.8 1106.03,-89.71 1113.02,-89.89"/>
</a>
</g>
</g>
<!-- Node18 -->
<g id="Node000018" class="node">
<title>Node18</title>
<g id="a_Node000018"><a xlink:title=" ">
<polygon fill="#e0e0e0" stroke="#999999" points="1091.5,-140 1026.5,-140 1026.5,-121 1091.5,-121 1091.5,-140"/>
<text text-anchor="middle" x="1059" y="-128" font-family="Helvetica,sans-Serif" font-size="10.00">stdexcept</text>
</a>
</g>
</g>
<!-- Node17&#45;&gt;Node18 -->
<g id="edge22_Node000017_Node000018" class="edge">
<title>Node17&#45;&gt;Node18</title>
<g id="a_edge22_Node000017_Node000018"><a xlink:title=" ">
<path fill="none" stroke="#63b8ff" d="M1099.92,-181.37C1092.76,-172.64 1081.51,-158.93 1072.61,-148.09"/>
<polygon fill="#63b8ff" stroke="#63b8ff" points="1075.16,-145.68 1066.11,-140.17 1069.75,-150.12 1075.16,-145.68"/>
</a>
</g>
</g>
<!-- Node19 -->
<g id="Node000019" class="node">
<title>Node19</title>
<g id="a_Node000019"><a xlink:title=" ">
<polygon fill="#e0e0e0" stroke="#999999" points="963,-140 919,-140 919,-121 963,-121 963,-140"/>
<text text-anchor="middle" x="941" y="-128" font-family="Helvetica,sans-Serif" font-size="10.00">string</text>
</a>
</g>
</g>
<!-- Node17&#45;&gt;Node19 -->
<g id="edge23_Node000017_Node000019" class="edge">
<title>Node17&#45;&gt;Node19</title>
<g id="a_edge23_Node000017_Node000019"><a xlink:title=" ">
<path fill="none" stroke="#63b8ff" d="M1082.86,-181.49C1053.81,-171.26 1004.95,-154.04 972.84,-142.72"/>
<polygon fill="#63b8ff" stroke="#63b8ff" points="973.64,-139.29 963.04,-139.27 971.31,-145.89 973.64,-139.29"/>
</a>
</g>
</g>
<!-- Node20&#45;&gt;Node6 -->
<g id="edge26_Node000020_Node000006" class="edge">
<title>Node20&#45;&gt;Node6</title>
<g id="a_edge26_Node000020_Node000006"><a xlink:title=" ">
<path fill="none" stroke="#63b8ff" d="M566.6,-175.99C536.32,-165.98 496.05,-152.67 467.47,-143.22"/>
<polygon fill="#63b8ff" stroke="#63b8ff" points="468.47,-139.87 457.88,-140.05 466.28,-146.52 468.47,-139.87"/>
</a>
</g>
</g>
<!-- Node20&#45;&gt;Node8 -->
<g id="edge29_Node000020_Node000008" class="edge">
<title>Node20&#45;&gt;Node8</title>
<g id="a_edge29_Node000020_Node000008"><a xlink:title=" ">
<path fill="none" stroke="#63b8ff" d="M552.2,-178.58C499.48,-167.98 421.63,-152.33 370.38,-142.03"/>
<polygon fill="#63b8ff" stroke="#63b8ff" points="370.99,-138.58 360.49,-140.04 369.61,-145.44 370.99,-138.58"/>
</a>
</g>
</g>
<!-- Node20&#45;&gt;Node9 -->
<g id="edge28_Node000020_Node000009" class="edge">
<title>Node20&#45;&gt;Node9</title>
<g id="a_edge28_Node000020_Node000009"><a xlink:title=" ">
<path fill="none" stroke="#63b8ff" d="M605.56,-175.88C600.33,-154.41 590.36,-113.52 584.54,-89.64"/>
<polygon fill="#63b8ff" stroke="#63b8ff" points="587.89,-88.6 582.12,-79.71 581.09,-90.26 587.89,-88.6"/>
</a>
</g>
</g>
<!-- Node20&#45;&gt;Node12 -->
<g id="edge30_Node000020_Node000012" class="edge">
<title>Node20&#45;&gt;Node12</title>
<g id="a_edge30_Node000020_Node000012"><a xlink:title=" ">
<path fill="none" stroke="#63b8ff" d="M649.09,-175.89C693.23,-160.74 766.5,-136.74 831,-121 901.58,-103.78 983.54,-89.79 1040.29,-81.03"/>
<polygon fill="#63b8ff" stroke="#63b8ff" points="1040.87,-84.49 1050.23,-79.51 1039.81,-77.57 1040.87,-84.49"/>
</a>
</g>
</g>
<!-- Node20&#45;&gt;Node19 -->
<g id="edge27_Node000020_Node000019" class="edge">
<title>Node20&#45;&gt;Node19</title>
<g id="a_edge27_Node000020_Node000019"><a xlink:title=" ">
<path fill="none" stroke="#63b8ff" d="M665.85,-177.78C668.94,-177.16 672.01,-176.57 675,-176 759.18,-160.04 858.92,-144.16 908.97,-136.4"/>
<polygon fill="#63b8ff" stroke="#63b8ff" points="909.52,-139.86 918.87,-134.87 908.46,-132.94 909.52,-139.86"/>
</a>
</g>
</g>
<!-- Node21&#45;&gt;Node12 -->
<g id="edge33_Node000021_Node000012" class="edge">
<title>Node21&#45;&gt;Node12</title>
<g id="a_edge33_Node000021_Node000012"><a xlink:title=" ">
<path fill="none" stroke="#63b8ff" d="M771.81,-175.72C795.54,-160.08 835.96,-135.32 874,-121 925.67,-101.55 986.71,-88.87 1033.76,-81.15"/>
<polygon fill="#63b8ff" stroke="#63b8ff" points="1034.56,-84.57 1043.88,-79.53 1033.46,-77.66 1034.56,-84.57"/>
</a>
</g>
</g>
<!-- Node22&#45;&gt;Node2 -->
<g id="edge37_Node000022_Node000002" class="edge">
<title>Node22&#45;&gt;Node2</title>
<g id="a_edge37_Node000022_Node000002"><a xlink:title=" ">
<path fill="none" stroke="#63b8ff" d="M477.34,-302.75C430.06,-295.89 371.47,-283.45 323,-261 243.7,-224.27 218.88,-211.06 168,-140 157.17,-124.88 150.88,-104.44 147.47,-89.74"/>
<polygon fill="#63b8ff" stroke="#63b8ff" points="150.87,-88.88 145.4,-79.8 144.01,-90.3 150.87,-88.88"/>
</a>
</g>
</g>
<!-- Node22&#45;&gt;Node5 -->
<g id="edge41_Node000022_Node000005" class="edge">
<title>Node22&#45;&gt;Node5</title>
<g id="a_edge41_Node000022_Node000005"><a xlink:title=" ">
<path fill="none" stroke="#63b8ff" d="M541.75,-302.49C515.69,-292.53 472.32,-275.95 442.73,-264.63"/>
<polygon fill="#63b8ff" stroke="#63b8ff" points="443.86,-261.32 433.27,-261.02 441.36,-267.86 443.86,-261.32"/>
</a>
</g>
</g>
<!-- Node22&#45;&gt;Node9 -->
<g id="edge40_Node000022_Node000009" class="edge">
<title>Node22&#45;&gt;Node9</title>
<g id="a_edge40_Node000022_Node000009"><a xlink:title=" ">
<path fill="none" stroke="#63b8ff" d="M563.57,-302.41C562.8,-289.26 560.76,-263.43 556,-242 552.34,-225.54 546.7,-222.65 544,-206 541.86,-192.84 541.81,-189.15 544,-176 549.26,-144.44 562.84,-109.64 571.74,-89.09"/>
<polygon fill="#63b8ff" stroke="#63b8ff" points="575.03,-90.29 575.89,-79.73 568.64,-87.45 575.03,-90.29"/>
</a>
</g>
</g>
<!-- Node22&#45;&gt;Node12 -->
<g id="edge42_Node000022_Node000012" class="edge">
<title>Node22&#45;&gt;Node12</title>
<g id="a_edge42_Node000022_Node000012"><a xlink:title=" ">
<path fill="none" stroke="#63b8ff" d="M575.9,-302.28C596.24,-287.76 639.45,-258.59 680,-242 742.25,-216.53 768.58,-239.35 827,-206 872.85,-179.82 864.21,-147.29 910,-121 945.33,-100.72 988.78,-88.59 1026.15,-81.37"/>
<polygon fill="#63b8ff" stroke="#63b8ff" points="1026.81,-84.8 1036.01,-79.55 1025.54,-77.92 1026.81,-84.8"/>
</a>
</g>
</g>
<!-- Node22&#45;&gt;Node19 -->
<g id="edge39_Node000022_Node000019" class="edge">
<title>Node22&#45;&gt;Node19</title>
<g id="a_edge39_Node000022_Node000019"><a xlink:title=" ">
<path fill="none" stroke="#63b8ff" d="M582.47,-302.43C613.59,-288.25 678.68,-259.74 736,-242 806.46,-220.2 838.53,-249.63 898,-206 917.04,-192.03 928.97,-166.88 935.3,-149.7"/>
<polygon fill="#63b8ff" stroke="#63b8ff" points="938.63,-150.8 938.54,-140.21 932,-148.54 938.63,-150.8"/>
</a>
</g>
</g>
<!-- Node23 -->
<g id="Node000023" class="node">
<title>Node23</title>
<g id="a_Node000023"><a xlink:title=" ">
<polygon fill="#e0e0e0" stroke="#999999" points="795,-261 745,-261 745,-242 795,-242 795,-261"/>
<text text-anchor="middle" x="770" y="-249" font-family="Helvetica,sans-Serif" font-size="10.00">chrono</text>
</a>
</g>
</g>
<!-- Node22&#45;&gt;Node23 -->
<g id="edge36_Node000022_Node000023" class="edge">
<title>Node22&#45;&gt;Node23</title>
<g id="a_edge36_Node000022_Node000023"><a xlink:title=" ">
<path fill="none" stroke="#63b8ff" d="M593.95,-302.49C631.42,-291.85 695.46,-273.67 735.11,-262.41"/>
<polygon fill="#63b8ff" stroke="#63b8ff" points="736.21,-265.74 744.87,-259.64 734.29,-259 736.21,-265.74"/>
</a>
</g>
</g>
<!-- Node24 -->
<g id="Node000024" class="node">
<title>Node24</title>
<g id="a_Node000024"><a xlink:title=" ">
<polygon fill="#e0e0e0" stroke="#999999" points="546.5,-261 507.5,-261 507.5,-242 546.5,-242 546.5,-261"/>
<text text-anchor="middle" x="527" y="-249" font-family="Helvetica,sans-Serif" font-size="10.00">ratio</text>
</a>
</g>
</g>
<!-- Node22&#45;&gt;Node24 -->
<g id="edge38_Node000022_Node000024" class="edge">
<title>Node22&#45;&gt;Node24</title>
<g id="a_edge38_Node000022_Node000024"><a xlink:title=" ">
<path fill="none" stroke="#63b8ff" d="M558.54,-302.37C553.13,-293.81 544.69,-280.47 537.9,-269.74"/>
<polygon fill="#63b8ff" stroke="#63b8ff" points="540.79,-267.75 532.48,-261.17 534.87,-271.49 540.79,-267.75"/>
</a>
</g>
</g>
<!-- Node25&#45;&gt;Node2 -->
<g id="edge45_Node000025_Node000002" class="edge">
<title>Node25&#45;&gt;Node2</title>
<g id="a_edge45_Node000025_Node000002"><a xlink:title=" ">
<path fill="none" stroke="#63b8ff" d="M599.17,-425.11C478.35,-422.04 255.35,-412.33 182,-382 102.46,-349.12 38,-338.57 38,-252.5 38,-252.5 38,-252.5 38,-190 38,-141.65 87.39,-103.86 118.75,-84.74"/>
<polygon fill="#63b8ff" stroke="#63b8ff" points="120.59,-87.72 127.44,-79.63 117.04,-81.68 120.59,-87.72"/>
</a>
</g>
</g>
<!-- Node25&#45;&gt;Node3 -->
<g id="edge47_Node000025_Node000003" class="edge">
<title>Node25&#45;&gt;Node3</title>
<g id="a_edge47_Node000025_Node000003"><a xlink:title=" ">
<path fill="none" stroke="#63b8ff" d="M758.62,-425.82C902.17,-423.76 1213.66,-415.45 1474,-382 1475.11,-381.86 1476.23,-381.7 1477.36,-381.54"/>
<polygon fill="#63b8ff" stroke="#63b8ff" points="1478.34,-384.92 1487.63,-379.82 1477.18,-378.02 1478.34,-384.92"/>
</a>
</g>
</g>
<!-- Node25&#45;&gt;Node4 -->
<g id="edge48_Node000025_Node000004" class="edge">
<title>Node25&#45;&gt;Node4</title>
<g id="a_edge48_Node000025_Node000004"><a xlink:title=" ">
<path fill="none" stroke="#63b8ff" d="M599.15,-426.34C512.19,-424.29 369.77,-415.44 252,-382 197.88,-366.63 175.16,-369.24 138,-327 108.31,-293.25 98.09,-239.29 94.67,-210.89"/>
<polygon fill="#63b8ff" stroke="#63b8ff" points="98.12,-210.31 93.6,-200.72 91.16,-211.03 98.12,-210.31"/>
</a>
</g>
</g>
<!-- Node25&#45;&gt;Node5 -->
<g id="edge70_Node000025_Node000005" class="edge">
<title>Node25&#45;&gt;Node5</title>
<g id="a_edge70_Node000025_Node000005"><a xlink:title=" ">
<path fill="none" stroke="#63b8ff" d="M621.8,-418C565.98,-406.73 482.45,-381.51 433,-327 419.01,-311.58 413.89,-287.67 412.03,-271.11"/>
<polygon fill="#63b8ff" stroke="#63b8ff" points="415.51,-270.7 411.2,-261.02 408.54,-271.27 415.51,-270.7"/>
</a>
</g>
</g>
<!-- Node25&#45;&gt;Node6 -->
<g id="edge44_Node000025_Node000006" class="edge">
<title>Node25&#45;&gt;Node6</title>
<g id="a_edge44_Node000025_Node000006"><a xlink:title=" ">
<path fill="none" stroke="#63b8ff" d="M600.2,-417.94C511.44,-403.36 373.04,-364.37 323,-261 299.41,-212.27 366.22,-166.61 405.54,-144.84"/>
<polygon fill="#63b8ff" stroke="#63b8ff" points="407.25,-147.89 414.41,-140.07 403.94,-141.72 407.25,-147.89"/>
</a>
</g>
</g>
<!-- Node25&#45;&gt;Node8 -->
<g id="edge50_Node000025_Node000008" class="edge">
<title>Node25&#45;&gt;Node8</title>
<g id="a_edge50_Node000025_Node000008"><a xlink:title=" ">
<path fill="none" stroke="#63b8ff" d="M599.38,-421.93C547.94,-416.75 480.49,-405.66 425,-382 386.98,-365.79 380.25,-355.17 350,-327 303.53,-283.71 285.02,-268.54 274,-206 271.69,-192.87 268.93,-188.33 274,-176 278.81,-164.31 288.33,-154.05 297.3,-146.34"/>
<polygon fill="#63b8ff" stroke="#63b8ff" points="299.6,-148.98 305.22,-140 295.23,-143.51 299.6,-148.98"/>
</a>
</g>
</g>
<!-- Node25&#45;&gt;Node12 -->
<g id="edge72_Node000025_Node000012" class="edge">
<title>Node25&#45;&gt;Node12</title>
<g id="a_edge72_Node000025_Node000012"><a xlink:title=" ">
<path fill="none" stroke="#63b8ff" d="M758.8,-426.63C871.59,-425.41 1083.55,-417.94 1260,-382 1352.14,-363.23 1460,-407.03 1460,-313 1460,-313 1460,-313 1460,-190 1460,-132.39 1287.88,-97.06 1185.05,-81.09"/>
<polygon fill="#63b8ff" stroke="#63b8ff" points="1185.43,-77.61 1175.01,-79.56 1184.37,-84.53 1185.43,-77.61"/>
</a>
</g>
</g>
<!-- Node25&#45;&gt;Node17 -->
<g id="edge51_Node000025_Node000017" class="edge">
<title>Node25&#45;&gt;Node17</title>
<g id="a_edge51_Node000025_Node000017"><a xlink:title=" ">
<path fill="none" stroke="#63b8ff" d="M758.69,-421.62C938.46,-409.77 1363,-376.75 1403,-327 1464.6,-250.38 1305.58,-215.54 1197.48,-201.09"/>
<polygon fill="#63b8ff" stroke="#63b8ff" points="1197.88,-197.61 1187.52,-199.79 1196.98,-204.55 1197.88,-197.61"/>
</a>
</g>
</g>
<!-- Node25&#45;&gt;Node20 -->
<g id="edge71_Node000025_Node000020" class="edge">
<title>Node25&#45;&gt;Node20</title>
<g id="a_edge71_Node000025_Node000020"><a xlink:title=" ">
<path fill="none" stroke="#63b8ff" d="M678.64,-417.81C677.57,-396.68 673.58,-341.08 660,-297 650.84,-267.27 634.33,-235.45 622.58,-214.72"/>
<polygon fill="#63b8ff" stroke="#63b8ff" points="625.59,-212.94 617.55,-206.03 619.53,-216.44 625.59,-212.94"/>
</a>
</g>
</g>
<!-- Node26 -->
<g id="Node000026" class="node">
<title>Node26</title>
<g id="a_Node000026"><a xlink:title=" ">
<polygon fill="#e0e0e0" stroke="#999999" points="1328.5,-321.5 1275.5,-321.5 1275.5,-302.5 1328.5,-302.5 1328.5,-321.5"/>
<text text-anchor="middle" x="1302" y="-309.5" font-family="Helvetica,sans-Serif" font-size="10.00">iterator</text>
</a>
</g>
</g>
<!-- Node25&#45;&gt;Node26 -->
<g id="edge46_Node000025_Node000026" class="edge">
<title>Node25&#45;&gt;Node26</title>
<g id="a_edge46_Node000025_Node000026"><a xlink:title=" ">
<path fill="none" stroke="#63b8ff" d="M758.7,-419.11C872.89,-407.16 1088.84,-379.44 1266,-327 1267.93,-326.43 1269.9,-325.8 1271.88,-325.13"/>
<polygon fill="#63b8ff" stroke="#63b8ff" points="1273.43,-328.29 1281.64,-321.59 1271.05,-321.71 1273.43,-328.29"/>
</a>
</g>
</g>
<!-- Node27 -->
<g id="Node000027" class="node">
<title>Node27</title>
<g id="a_Node000027"><a xlink:title=" ">
<polygon fill="#e0e0e0" stroke="#999999" points="1393.5,-321.5 1346.5,-321.5 1346.5,-302.5 1393.5,-302.5 1393.5,-321.5"/>
<text text-anchor="middle" x="1370" y="-309.5" font-family="Helvetica,sans-Serif" font-size="10.00">vector</text>
</a>
</g>
</g>
<!-- Node25&#45;&gt;Node27 -->
<g id="edge49_Node000025_Node000027" class="edge">
<title>Node25&#45;&gt;Node27</title>
<g id="a_edge49_Node000025_Node000027"><a xlink:title=" ">
<path fill="none" stroke="#63b8ff" d="M758.65,-420.06C839.98,-412.93 969.75,-400.01 1081,-382 1196.31,-363.33 1226.82,-362.81 1338,-327 1339.44,-326.54 1340.91,-326.03 1342.38,-325.49"/>
<polygon fill="#63b8ff" stroke="#63b8ff" points="1343.99,-328.62 1351.97,-321.64 1341.39,-322.12 1343.99,-328.62"/>
</a>
</g>
</g>
<!-- Node28 -->
<g id="Node000028" class="node">
<title>Node28</title>
<g id="a_Node000028"><a xlink:href="TypeConverter_8h.html" target="_top" xlink:title=" ">
<polygon fill="white" stroke="#666666" points="992,-382 828,-382 828,-363 992,-363 992,-382"/>
<text text-anchor="middle" x="910" y="-370" font-family="Helvetica,sans-Serif" font-size="10.00">open62541pp/TypeConverter.h</text>
</a>
</g>
</g>
<!-- Node25&#45;&gt;Node28 -->
<g id="edge52_Node000025_Node000028" class="edge">
<title>Node25&#45;&gt;Node28</title>
<g id="a_edge52_Node000025_Node000028"><a xlink:title=" ">
<path fill="none" stroke="#63b8ff" d="M716.11,-417.98C755.99,-408.84 819.46,-394.27 862.84,-384.32"/>
<polygon fill="#63b8ff" stroke="#63b8ff" points="863.63,-387.73 872.59,-382.08 862.07,-380.91 863.63,-387.73"/>
</a>
</g>
</g>
<!-- Node28&#45;&gt;Node5 -->
<g id="edge62_Node000028_Node000005" class="edge">
<title>Node28&#45;&gt;Node5</title>
<g id="a_edge62_Node000028_Node000005"><a xlink:title=" ">
<path fill="none" stroke="#63b8ff" d="M827.89,-370.83C717.67,-368.65 528.77,-360.04 469,-327 445.97,-314.27 429.02,-288.22 419.58,-270.55"/>
<polygon fill="#63b8ff" stroke="#63b8ff" points="422.53,-268.63 414.9,-261.29 416.28,-271.79 422.53,-268.63"/>
</a>
</g>
</g>
<!-- Node28&#45;&gt;Node7 -->
<g id="edge58_Node000028_Node000007" class="edge">
<title>Node28&#45;&gt;Node7</title>
<g id="a_edge58_Node000028_Node000007"><a xlink:title=" ">
<path fill="none" stroke="#63b8ff" d="M923.16,-362.99C934.19,-355.08 949.32,-342.25 957,-327 998.3,-245.02 1029.27,-192.75 972,-121 916.9,-51.96 640.57,-22.76 530.93,-13.77"/>
<polygon fill="#63b8ff" stroke="#63b8ff" points="531.1,-10.27 520.85,-12.96 530.54,-17.25 531.1,-10.27"/>
</a>
</g>
</g>
<!-- Node28&#45;&gt;Node8 -->
<g id="edge60_Node000028_Node000008" class="edge">
<title>Node28&#45;&gt;Node8</title>
<g id="a_edge60_Node000028_Node000008"><a xlink:title=" ">
<path fill="none" stroke="#63b8ff" d="M827.65,-368.23C711.06,-362.84 504.13,-350.31 433,-327 351.28,-300.22 309.08,-287.63 282,-206 277.8,-193.34 277.55,-188.57 282,-176 285.75,-165.41 293.21,-155.49 300.37,-147.71"/>
<polygon fill="#63b8ff" stroke="#63b8ff" points="303.28,-149.76 307.84,-140.19 298.31,-144.82 303.28,-149.76"/>
</a>
</g>
</g>
<!-- Node28&#45;&gt;Node9 -->
<g id="edge57_Node000028_Node000009" class="edge">
<title>Node28&#45;&gt;Node9</title>
<g id="a_edge57_Node000028_Node000009"><a xlink:title=" ">
<path fill="none" stroke="#63b8ff" d="M903.08,-362.71C896.49,-354.02 886.61,-340.16 880,-327 848.08,-263.44 875.65,-227.89 827,-176 772.84,-118.24 681.76,-90.9 626.63,-79.04"/>
<polygon fill="#63b8ff" stroke="#63b8ff" points="627.27,-75.6 616.77,-77 625.85,-82.45 627.27,-75.6"/>
</a>
</g>
</g>
<!-- Node28&#45;&gt;Node11 -->
<g id="edge64_Node000028_Node000011" class="edge">
<title>Node28&#45;&gt;Node11</title>
<g id="a_edge64_Node000028_Node000011"><a xlink:title=" ">
<path fill="none" stroke="#63b8ff" d="M827.76,-368.44C682.4,-362.53 391.42,-348.21 350,-327 264.17,-283.05 260.09,-234.31 240,-140 238.24,-131.74 237.16,-128.95 240,-121 243.78,-110.43 250.87,-100.48 258.1,-92.29"/>
<polygon fill="#63b8ff" stroke="#63b8ff" points="260.65,-94.68 264.97,-85.01 255.56,-89.88 260.65,-94.68"/>
</a>
</g>
</g>
<!-- Node28&#45;&gt;Node12 -->
<g id="edge65_Node000028_Node000012" class="edge">
<title>Node28&#45;&gt;Node12</title>
<g id="a_edge65_Node000028_Node000012"><a xlink:title=" ">
<path fill="none" stroke="#63b8ff" d="M944.11,-362.98C970.86,-355.54 1008.53,-343.37 1039,-327 1077.96,-306.08 1177.42,-245.65 1197,-206 1219.79,-159.84 1164.45,-110.04 1131.82,-85.86"/>
<polygon fill="#63b8ff" stroke="#63b8ff" points="1133.47,-82.74 1123.31,-79.74 1129.39,-88.42 1133.47,-82.74"/>
</a>
</g>
</g>
<!-- Node28&#45;&gt;Node17 -->
<g id="edge61_Node000028_Node000017" class="edge">
<title>Node28&#45;&gt;Node17</title>
<g id="a_edge61_Node000028_Node000017"><a xlink:title=" ">
<path fill="none" stroke="#63b8ff" d="M940.15,-362.96C961.54,-355.83 990.06,-344.07 1011,-327 1052.1,-293.5 1083.79,-238.24 1098.31,-209.93"/>
<polygon fill="#63b8ff" stroke="#63b8ff" points="1101.53,-211.32 1102.87,-200.81 1095.27,-208.19 1101.53,-211.32"/>
</a>
</g>
</g>
<!-- Node28&#45;&gt;Node19 -->
<g id="edge56_Node000028_Node000019" class="edge">
<title>Node28&#45;&gt;Node19</title>
<g id="a_edge56_Node000028_Node000019"><a xlink:title=" ">
<path fill="none" stroke="#63b8ff" d="M918.2,-362.79C925.51,-354.38 935.72,-340.89 940,-327 959.22,-264.66 950.15,-185.73 944.43,-150.26"/>
<polygon fill="#63b8ff" stroke="#63b8ff" points="947.87,-149.61 942.73,-140.35 940.97,-150.79 947.87,-149.61"/>
</a>
</g>
</g>
<!-- Node28&#45;&gt;Node20 -->
<g id="edge63_Node000028_Node000020" class="edge">
<title>Node28&#45;&gt;Node20</title>
<g id="a_edge63_Node000028_Node000020"><a xlink:title=" ">
<path fill="none" stroke="#63b8ff" d="M893.57,-362.91C879.76,-355.04 860.21,-342.31 847,-327 819.34,-294.95 837.01,-268.51 804,-242 793.73,-233.75 727.91,-217.87 675.54,-206.21"/>
<polygon fill="#63b8ff" stroke="#63b8ff" points="676.12,-202.76 665.6,-204.02 674.61,-209.59 676.12,-202.76"/>
</a>
</g>
</g>
<!-- Node28&#45;&gt;Node22 -->
<g id="edge66_Node000028_Node000022" class="edge">
<title>Node28&#45;&gt;Node22</title>
<g id="a_edge66_Node000028_Node000022"><a xlink:title=" ">
<path fill="none" stroke="#63b8ff" d="M859.69,-362.99C797.29,-352.44 691.03,-334.48 624.32,-323.2"/>
<polygon fill="#63b8ff" stroke="#63b8ff" points="624.82,-319.73 614.37,-321.52 623.65,-326.63 624.82,-319.73"/>
</a>
</g>
</g>
<!-- Node28&#45;&gt;Node23 -->
<g id="edge54_Node000028_Node000023" class="edge">
<title>Node28&#45;&gt;Node23</title>
<g id="a_edge54_Node000028_Node000023"><a xlink:title=" ">
<path fill="none" stroke="#63b8ff" d="M876.3,-362.91C854.95,-356.07 827.9,-344.67 809,-327 792.38,-311.46 781.54,-287.23 775.6,-270.65"/>
<polygon fill="#63b8ff" stroke="#63b8ff" points="778.88,-269.41 772.4,-261.02 772.24,-271.62 778.88,-269.41"/>
</a>
</g>
</g>
<!-- Node28&#45;&gt;Node26 -->
<g id="edge55_Node000028_Node000026" class="edge">
<title>Node28&#45;&gt;Node26</title>
<g id="a_edge55_Node000028_Node000026"><a xlink:title=" ">
<path fill="none" stroke="#63b8ff" d="M992,-367C1064.85,-361.65 1173.76,-350.32 1266,-327 1268.3,-326.42 1270.66,-325.73 1273.01,-324.97"/>
<polygon fill="#63b8ff" stroke="#63b8ff" points="1274.24,-328.25 1282.48,-321.6 1271.89,-321.66 1274.24,-328.25"/>
</a>
</g>
</g>
<!-- Node28&#45;&gt;Node27 -->
<g id="edge59_Node000028_Node000027" class="edge">
<title>Node28&#45;&gt;Node27</title>
<g id="a_edge59_Node000028_Node000027"><a xlink:title=" ">
<path fill="none" stroke="#63b8ff" d="M992.2,-370.44C1079.37,-367.59 1220.44,-358.02 1338,-327 1339.89,-326.5 1341.81,-325.91 1343.73,-325.25"/>
<polygon fill="#63b8ff" stroke="#63b8ff" points="1345.06,-328.48 1353.08,-321.56 1342.49,-321.97 1345.06,-328.48"/>
</a>
</g>
</g>
<!-- Node29 -->
<g id="Node000029" class="node">
<title>Node29</title>
<g id="a_Node000029"><a xlink:title=" ">
<polygon fill="#e0e0e0" stroke="#999999" points="931,-321.5 889,-321.5 889,-302.5 931,-302.5 931,-321.5"/>
<text text-anchor="middle" x="910" y="-309.5" font-family="Helvetica,sans-Serif" font-size="10.00">array</text>
</a>
</g>
</g>
<!-- Node28&#45;&gt;Node29 -->
<g id="edge53_Node000028_Node000029" class="edge">
<title>Node28&#45;&gt;Node29</title>
<g id="a_edge53_Node000028_Node000029"><a xlink:title=" ">
<path fill="none" stroke="#63b8ff" d="M910,-362.87C910,-354.75 910,-342.31 910,-331.89"/>
<polygon fill="#63b8ff" stroke="#63b8ff" points="913.5,-331.67 910,-321.67 906.5,-331.67 913.5,-331.67"/>
</a>
</g>
</g>
<!-- Node30 -->
<g id="Node000030" class="node">
<title>Node30</title>
<g id="a_Node000030"><a xlink:href="TypeConverterNative_8h.html" target="_top" xlink:title=" ">
<polygon fill="white" stroke="#666666" points="1257,-327 1101,-327 1101,-297 1257,-297 1257,-327"/>
<text text-anchor="start" x="1109" y="-315" font-family="Helvetica,sans-Serif" font-size="10.00">open62541pp/TypeConverter</text>
<text text-anchor="middle" x="1179" y="-304" font-family="Helvetica,sans-Serif" font-size="10.00">Native.h</text>
</a>
</g>
</g>
<!-- Node28&#45;&gt;Node30 -->
<g id="edge67_Node000028_Node000030" class="edge">
<title>Node28&#45;&gt;Node30</title>
<g id="a_edge67_Node000028_Node000030"><a xlink:title=" ">
<path fill="none" stroke="#63b8ff" d="M944.19,-362.99C982.97,-354.14 1047.35,-340.05 1098.93,-329.09"/>
<polygon fill="#63b8ff" stroke="#63b8ff" points="1099.67,-332.51 1108.73,-327.01 1098.22,-325.66 1099.67,-332.51"/>
</a>
</g>
</g>
<!-- Node30&#45;&gt;Node12 -->
<g id="edge69_Node000030_Node000012" class="edge">
<title>Node30&#45;&gt;Node12</title>
<g id="a_edge69_Node000030_Node000012"><a xlink:title=" ">
<path fill="none" stroke="#63b8ff" d="M1189.96,-296.87C1214.39,-263.51 1268.27,-178.4 1230,-121 1217.08,-101.62 1195.07,-89.73 1173.4,-82.46"/>
<polygon fill="#63b8ff" stroke="#63b8ff" points="1174.41,-79.11 1163.83,-79.52 1172.36,-85.8 1174.41,-79.11"/>
</a>
</g>
</g>
<!-- Node30&#45;&gt;Node28 -->
<g id="edge68_Node000030_Node000028" class="edge">
<title>Node30&#45;&gt;Node28</title>
<g id="a_edge68_Node000030_Node000028"><a xlink:title=" ">
<path fill="none" stroke="#63b8ff" d="M1120.45,-327.01C1073.88,-337.43 1009.32,-351.43 963.98,-360.92"/>
<polygon fill="#63b8ff" stroke="#63b8ff" points="963.12,-357.53 954.04,-362.99 964.55,-364.38 963.12,-357.53"/>
</a>
</g>
</g>
</g>
</svg>
