<?xml version="1.0" encoding="UTF-8" standalone="no"?>
<!DOCTYPE svg PUBLIC "-//W3C//DTD SVG 1.1//EN"
 "http://www.w3.org/Graphics/SVG/1.1/DTD/svg11.dtd">
<!-- Generated by graphviz version 2.43.0 (0)
 -->
<!-- Title: /home/runner/work/open62541pp/open62541pp/include/open62541pp/types/DataValue.h Pages: 1 -->
<svg width="975pt" height="357pt"
 viewBox="0.00 0.00 975.00 357.00" xmlns="http://www.w3.org/2000/svg" xmlns:xlink="http://www.w3.org/1999/xlink">
<g id="graph0" class="graph" transform="scale(1 1) rotate(0) translate(4 353)">
<title>/home/runner/work/open62541pp/open62541pp/include/open62541pp/types/DataValue.h</title>
<!-- Node1 -->
<g id="Node000001" class="node">
<title>Node1</title>
<g id="a_Node000001"><a xlink:title=" ">
<polygon fill="#999999" stroke="#666666" points="193,-349 0,-349 0,-308 193,-308 193,-349"/>
<text text-anchor="start" x="8" y="-337" font-family="Helvetica,sans-Serif" font-size="10.00">/home/runner/work/open62541pp</text>
<text text-anchor="start" x="8" y="-326" font-family="Helvetica,sans-Serif" font-size="10.00">/open62541pp/include/open62541pp</text>
<text text-anchor="middle" x="96.5" y="-315" font-family="Helvetica,sans-Serif" font-size="10.00">/types/DataValue.h</text>
</a>
</g>
</g>
<!-- Node2 -->
<g id="Node000002" class="node">
<title>Node2</title>
<g id="a_Node000002"><a xlink:href="Node_8h.html" target="_top" xlink:title=" ">
<polygon fill="white" stroke="#666666" points="382.5,-118 186.5,-118 186.5,-77 382.5,-77 382.5,-118"/>
<text text-anchor="start" x="194.5" y="-106" font-family="Helvetica,sans-Serif" font-size="10.00">/home/runner/work/open62541pp</text>
<text text-anchor="start" x="194.5" y="-95" font-family="Helvetica,sans-Serif" font-size="10.00">/open62541pp/include/open62541pp/</text>
<text text-anchor="middle" x="284.5" y="-84" font-family="Helvetica,sans-Serif" font-size="10.00">Node.h</text>
</a>
</g>
</g>
<!-- Node1&#45;&gt;Node2 -->
<g id="edge1_Node000001_Node000002" class="edge">
<title>Node1&#45;&gt;Node2</title>
<g id="a_edge1_Node000001_Node000002"><a xlink:title=" ">
<path fill="none" stroke="#63b8ff" d="M76.39,-299.47C52.48,-262.39 19.8,-196.76 53.5,-154 70.35,-132.62 131.24,-118.53 186.27,-109.9"/>
<polygon fill="#63b8ff" stroke="#63b8ff" points="73.48,-301.42 81.93,-307.81 79.31,-297.54 73.48,-301.42"/>
</a>
</g>
</g>
<!-- Node3 -->
<g id="Node000003" class="node">
<title>Node3</title>
<g id="a_Node000003"><a xlink:href="open62541pp_8h.html" target="_top" xlink:title=" ">
<polygon fill="white" stroke="#666666" points="594,-41 401,-41 401,0 594,0 594,-41"/>
<text text-anchor="start" x="409" y="-29" font-family="Helvetica,sans-Serif" font-size="10.00">/home/runner/work/open62541pp</text>
<text text-anchor="start" x="409" y="-18" font-family="Helvetica,sans-Serif" font-size="10.00">/open62541pp/include/open62541pp</text>
<text text-anchor="middle" x="497.5" y="-7" font-family="Helvetica,sans-Serif" font-size="10.00">/open62541pp.h</text>
</a>
</g>
</g>
<!-- Node1&#45;&gt;Node3 -->
<g id="edge3_Node000001_Node000003" class="edge">
<title>Node1&#45;&gt;Node3</title>
<g id="a_edge3_Node000001_Node000003"><a xlink:title=" ">
<path fill="none" stroke="#63b8ff" d="M61.85,-300.93C53.42,-292.63 45.41,-282.79 40.5,-272 18.74,-224.23 8.65,-199.1 35.5,-154 72.22,-92.31 109.68,-100.56 177.5,-77 250.2,-51.75 336.35,-37.64 400.94,-29.98"/>
<polygon fill="#63b8ff" stroke="#63b8ff" points="59.59,-303.61 69.31,-307.82 64.33,-298.46 59.59,-303.61"/>
</a>
</g>
</g>
<!-- Node4 -->
<g id="Node000004" class="node">
<title>Node4</title>
<g id="a_Node000004"><a xlink:href="Attribute_8h.html" target="_top" xlink:title=" ">
<polygon fill="white" stroke="#666666" points="256,-195 63,-195 63,-154 256,-154 256,-195"/>
<text text-anchor="start" x="71" y="-183" font-family="Helvetica,sans-Serif" font-size="10.00">/home/runner/work/open62541pp</text>
<text text-anchor="start" x="71" y="-172" font-family="Helvetica,sans-Serif" font-size="10.00">/open62541pp/include/open62541pp</text>
<text text-anchor="middle" x="159.5" y="-161" font-family="Helvetica,sans-Serif" font-size="10.00">/services/Attribute.h</text>
</a>
</g>
</g>
<!-- Node1&#45;&gt;Node4 -->
<g id="edge4_Node000001_Node000004" class="edge">
<title>Node1&#45;&gt;Node4</title>
<g id="a_edge4_Node000001_Node000004"><a xlink:title=" ">
<path fill="none" stroke="#63b8ff" d="M108.57,-298.37C121.09,-268.16 140.33,-221.76 151.22,-195.47"/>
<polygon fill="#63b8ff" stroke="#63b8ff" points="105.2,-297.36 104.61,-307.94 111.67,-300.04 105.2,-297.36"/>
</a>
</g>
</g>
<!-- Node6 -->
<g id="Node000006" class="node">
<title>Node6</title>
<g id="a_Node000006"><a xlink:href="Composed_8h.html" target="_top" xlink:title=" ">
<polygon fill="white" stroke="#666666" points="506,-272 313,-272 313,-231 506,-231 506,-272"/>
<text text-anchor="start" x="321" y="-260" font-family="Helvetica,sans-Serif" font-size="10.00">/home/runner/work/open62541pp</text>
<text text-anchor="start" x="321" y="-249" font-family="Helvetica,sans-Serif" font-size="10.00">/open62541pp/include/open62541pp</text>
<text text-anchor="middle" x="409.5" y="-238" font-family="Helvetica,sans-Serif" font-size="10.00">/types/Composed.h</text>
</a>
</g>
</g>
<!-- Node1&#45;&gt;Node6 -->
<g id="edge8_Node000001_Node000006" class="edge">
<title>Node1&#45;&gt;Node6</title>
<g id="a_edge8_Node000001_Node000006"><a xlink:title=" ">
<path fill="none" stroke="#63b8ff" d="M187.82,-305.62C232.16,-294.99 284.98,-282.34 327.94,-272.04"/>
<polygon fill="#63b8ff" stroke="#63b8ff" points="186.83,-302.26 177.92,-307.99 188.46,-309.06 186.83,-302.26"/>
</a>
</g>
</g>
<!-- Node2&#45;&gt;Node3 -->
<g id="edge2_Node000002_Node000003" class="edge">
<title>Node2&#45;&gt;Node3</title>
<g id="a_edge2_Node000002_Node000003"><a xlink:title=" ">
<path fill="none" stroke="#63b8ff" d="M349.71,-73.54C379.22,-63.15 413.75,-50.99 442,-41.04"/>
<polygon fill="#63b8ff" stroke="#63b8ff" points="348.18,-70.37 339.91,-76.99 350.5,-76.97 348.18,-70.37"/>
</a>
</g>
</g>
<!-- Node4&#45;&gt;Node2 -->
<g id="edge5_Node000004_Node000002" class="edge">
<title>Node4&#45;&gt;Node2</title>
<g id="a_edge5_Node000004_Node000002"><a xlink:title=" ">
<path fill="none" stroke="#63b8ff" d="M200.93,-148.64C217.44,-138.74 236.17,-127.5 251.71,-118.17"/>
<polygon fill="#63b8ff" stroke="#63b8ff" points="198.79,-145.84 192.02,-153.99 202.39,-151.85 198.79,-145.84"/>
</a>
</g>
</g>
<!-- Node5 -->
<g id="Node000005" class="node">
<title>Node5</title>
<g id="a_Node000005"><a xlink:href="services_8h.html" target="_top" xlink:title=" ">
<polygon fill="white" stroke="#666666" points="594,-118 401,-118 401,-77 594,-77 594,-118"/>
<text text-anchor="start" x="409" y="-106" font-family="Helvetica,sans-Serif" font-size="10.00">/home/runner/work/open62541pp</text>
<text text-anchor="start" x="409" y="-95" font-family="Helvetica,sans-Serif" font-size="10.00">/open62541pp/include/open62541pp</text>
<text text-anchor="middle" x="497.5" y="-84" font-family="Helvetica,sans-Serif" font-size="10.00">/services/services.h</text>
</a>
</g>
</g>
<!-- Node4&#45;&gt;Node5 -->
<g id="edge6_Node000004_Node000005" class="edge">
<title>Node4&#45;&gt;Node5</title>
<g id="a_edge6_Node000004_Node000005"><a xlink:title=" ">
<path fill="none" stroke="#63b8ff" d="M257.21,-151.82C305.27,-141.15 362.74,-128.4 409.43,-118.04"/>
<polygon fill="#63b8ff" stroke="#63b8ff" points="256.43,-148.41 247.42,-153.99 257.94,-155.24 256.43,-148.41"/>
</a>
</g>
</g>
<!-- Node5&#45;&gt;Node3 -->
<g id="edge7_Node000005_Node000003" class="edge">
<title>Node5&#45;&gt;Node3</title>
<g id="a_edge7_Node000005_Node000003"><a xlink:title=" ">
<path fill="none" stroke="#63b8ff" d="M497.5,-66.69C497.5,-58.08 497.5,-48.9 497.5,-41.07"/>
<polygon fill="#63b8ff" stroke="#63b8ff" points="494,-66.79 497.5,-76.79 501,-66.79 494,-66.79"/>
</a>
</g>
</g>
<!-- Node6&#45;&gt;Node2 -->
<g id="edge11_Node000006_Node000002" class="edge">
<title>Node6&#45;&gt;Node2</title>
<g id="a_edge11_Node000006_Node000002"><a xlink:title=" ">
<path fill="none" stroke="#63b8ff" d="M342.41,-226.29C328.06,-218.31 314.3,-208.04 304.5,-195 287.64,-172.57 284.18,-139.27 283.86,-118.24"/>
<polygon fill="#63b8ff" stroke="#63b8ff" points="340.9,-229.46 351.38,-230.97 344.13,-223.25 340.9,-229.46"/>
</a>
</g>
</g>
<!-- Node6&#45;&gt;Node3 -->
<g id="edge12_Node000006_Node000003" class="edge">
<title>Node6&#45;&gt;Node3</title>
<g id="a_edge12_Node000006_Node000003"><a xlink:title=" ">
<path fill="none" stroke="#63b8ff" d="M516.69,-246.12C597.89,-240.29 699.88,-226.69 726.5,-195 783.61,-127.02 650.59,-69.7 564.23,-41.07"/>
<polygon fill="#63b8ff" stroke="#63b8ff" points="516.13,-242.65 506.39,-246.83 516.6,-249.64 516.13,-242.65"/>
</a>
</g>
</g>
<!-- Node6&#45;&gt;Node4 -->
<g id="edge13_Node000006_Node000004" class="edge">
<title>Node6&#45;&gt;Node4</title>
<g id="a_edge13_Node000006_Node000004"><a xlink:title=" ">
<path fill="none" stroke="#63b8ff" d="M334.77,-228.08C299.73,-217.57 258.38,-205.16 224.64,-195.04"/>
<polygon fill="#63b8ff" stroke="#63b8ff" points="333.88,-231.47 344.47,-230.99 335.9,-224.76 333.88,-231.47"/>
</a>
</g>
</g>
<!-- Node7 -->
<g id="Node000007" class="node">
<title>Node7</title>
<g id="a_Node000007"><a xlink:href="AccessControl_8h.html" target="_top" xlink:title=" ">
<polygon fill="white" stroke="#666666" points="967,-118 774,-118 774,-77 967,-77 967,-118"/>
<text text-anchor="start" x="782" y="-106" font-family="Helvetica,sans-Serif" font-size="10.00">/home/runner/work/open62541pp</text>
<text text-anchor="start" x="782" y="-95" font-family="Helvetica,sans-Serif" font-size="10.00">/open62541pp/include/open62541pp</text>
<text text-anchor="middle" x="870.5" y="-84" font-family="Helvetica,sans-Serif" font-size="10.00">/AccessControl.h</text>
</a>
</g>
</g>
<!-- Node6&#45;&gt;Node7 -->
<g id="edge9_Node000006_Node000007" class="edge">
<title>Node6&#45;&gt;Node7</title>
<g id="a_edge9_Node000006_Node000007"><a xlink:title=" ">
<path fill="none" stroke="#63b8ff" d="M516.54,-248.77C588.23,-244.02 683.11,-230.63 759.5,-195 798.61,-176.76 834.46,-140.55 854.3,-118.04"/>
<polygon fill="#63b8ff" stroke="#63b8ff" points="515.9,-245.3 506.13,-249.41 516.33,-252.29 515.9,-245.3"/>
</a>
</g>
</g>
<!-- Node8 -->
<g id="Node000008" class="node">
<title>Node8</title>
<g id="a_Node000008"><a xlink:href="NodeManagement_8h.html" target="_top" xlink:title=" ">
<polygon fill="white" stroke="#666666" points="506,-195 313,-195 313,-154 506,-154 506,-195"/>
<text text-anchor="start" x="321" y="-183" font-family="Helvetica,sans-Serif" font-size="10.00">/home/runner/work/open62541pp</text>
<text text-anchor="start" x="321" y="-172" font-family="Helvetica,sans-Serif" font-size="10.00">/open62541pp/include/open62541pp</text>
<text text-anchor="middle" x="409.5" y="-161" font-family="Helvetica,sans-Serif" font-size="10.00">/services/NodeManagement.h</text>
</a>
</g>
</g>
<!-- Node6&#45;&gt;Node8 -->
<g id="edge14_Node000006_Node000008" class="edge">
<title>Node6&#45;&gt;Node8</title>
<g id="a_edge14_Node000006_Node000008"><a xlink:title=" ">
<path fill="none" stroke="#63b8ff" d="M409.5,-220.69C409.5,-212.08 409.5,-202.9 409.5,-195.07"/>
<polygon fill="#63b8ff" stroke="#63b8ff" points="406,-220.79 409.5,-230.79 413,-220.79 406,-220.79"/>
</a>
</g>
</g>
<!-- Node9 -->
<g id="Node000009" class="node">
<title>Node9</title>
<g id="a_Node000009"><a xlink:href="View_8h.html" target="_top" xlink:title=" ">
<polygon fill="white" stroke="#666666" points="717,-195 524,-195 524,-154 717,-154 717,-195"/>
<text text-anchor="start" x="532" y="-183" font-family="Helvetica,sans-Serif" font-size="10.00">/home/runner/work/open62541pp</text>
<text text-anchor="start" x="532" y="-172" font-family="Helvetica,sans-Serif" font-size="10.00">/open62541pp/include/open62541pp</text>
<text text-anchor="middle" x="620.5" y="-161" font-family="Helvetica,sans-Serif" font-size="10.00">/services/View.h</text>
</a>
</g>
</g>
<!-- Node6&#45;&gt;Node9 -->
<g id="edge17_Node000006_Node000009" class="edge">
<title>Node6&#45;&gt;Node9</title>
<g id="a_edge17_Node000006_Node000009"><a xlink:title=" ">
<path fill="none" stroke="#63b8ff" d="M474.1,-227.54C503.34,-217.15 537.53,-204.99 565.52,-195.04"/>
<polygon fill="#63b8ff" stroke="#63b8ff" points="472.64,-224.34 464.39,-230.99 474.98,-230.94 472.64,-224.34"/>
</a>
</g>
</g>
<!-- Node7&#45;&gt;Node3 -->
<g id="edge10_Node000007_Node000003" class="edge">
<title>Node7&#45;&gt;Node3</title>
<g id="a_edge10_Node000007_Node000003"><a xlink:title=" ">
<path fill="none" stroke="#63b8ff" d="M764.11,-75.11C710.65,-64.36 646.34,-51.43 594.28,-40.96"/>
<polygon fill="#63b8ff" stroke="#63b8ff" points="763.46,-78.55 773.96,-77.09 764.84,-71.69 763.46,-78.55"/>
</a>
</g>
</g>
<!-- Node8&#45;&gt;Node2 -->
<g id="edge15_Node000008_Node000002" class="edge">
<title>Node8&#45;&gt;Node2</title>
<g id="a_edge15_Node000008_Node000002"><a xlink:title=" ">
<path fill="none" stroke="#63b8ff" d="M368.07,-148.64C351.56,-138.74 332.83,-127.5 317.29,-118.17"/>
<polygon fill="#63b8ff" stroke="#63b8ff" points="366.61,-151.85 376.98,-153.99 370.21,-145.84 366.61,-151.85"/>
</a>
</g>
</g>
<!-- Node8&#45;&gt;Node5 -->
<g id="edge16_Node000008_Node000005" class="edge">
<title>Node8&#45;&gt;Node5</title>
<g id="a_edge16_Node000008_Node000005"><a xlink:title=" ">
<path fill="none" stroke="#63b8ff" d="M440.51,-147.07C451.71,-137.52 464.15,-126.93 474.53,-118.07"/>
<polygon fill="#63b8ff" stroke="#63b8ff" points="437.96,-144.64 432.62,-153.79 442.5,-149.97 437.96,-144.64"/>
</a>
</g>
</g>
<!-- Node9&#45;&gt;Node2 -->
<g id="edge18_Node000009_Node000002" class="edge">
<title>Node9&#45;&gt;Node2</title>
<g id="a_edge18_Node000009_Node000002"><a xlink:title=" ">
<path fill="none" stroke="#63b8ff" d="M523.06,-151.75C475.35,-141.1 418.36,-128.38 372.05,-118.04"/>
<polygon fill="#63b8ff" stroke="#63b8ff" points="522.57,-155.23 533.1,-153.99 524.1,-148.4 522.57,-155.23"/>
</a>
</g>
</g>
<!-- Node9&#45;&gt;Node5 -->
<g id="edge19_Node000009_Node000005" class="edge">
<title>Node9&#45;&gt;Node5</title>
<g id="a_edge19_Node000009_Node000005"><a xlink:title=" ">
<path fill="none" stroke="#63b8ff" d="M579.74,-148.64C563.49,-138.74 545.05,-127.5 529.76,-118.17"/>
<polygon fill="#63b8ff" stroke="#63b8ff" points="578.14,-151.77 588.5,-153.99 581.79,-145.8 578.14,-151.77"/>
</a>
</g>
</g>
</g>
</svg>
