<?xml version="1.0" encoding="UTF-8" standalone="no"?>
<!DOCTYPE svg PUBLIC "-//W3C//DTD SVG 1.1//EN"
 "http://www.w3.org/Graphics/SVG/1.1/DTD/svg11.dtd">
<!-- Generated by graphviz version 2.43.0 (0)
 -->
<!-- Title: /home/runner/work/open62541pp/open62541pp/include/open62541pp/DataType.h Pages: 1 -->
<svg width="1303pt" height="225pt"
 viewBox="0.00 0.00 1302.50 225.00" xmlns="http://www.w3.org/2000/svg" xmlns:xlink="http://www.w3.org/1999/xlink">
<g id="graph0" class="graph" transform="scale(1 1) rotate(0) translate(4 221)">
<title>/home/runner/work/open62541pp/open62541pp/include/open62541pp/DataType.h</title>
<!-- Node1 -->
<g id="Node000001" class="node">
<title>Node1</title>
<g id="a_Node000001"><a xlink:title=" ">
<polygon fill="#999999" stroke="#666666" points="781.5,-217 588.5,-217 588.5,-176 781.5,-176 781.5,-217"/>
<text text-anchor="start" x="596.5" y="-205" font-family="Helvetica,sans-Serif" font-size="10.00">/home/runner/work/open62541pp</text>
<text text-anchor="start" x="596.5" y="-194" font-family="Helvetica,sans-Serif" font-size="10.00">/open62541pp/include/open62541pp</text>
<text text-anchor="middle" x="685" y="-183" font-family="Helvetica,sans-Serif" font-size="10.00">/DataType.h</text>
</a>
</g>
</g>
<!-- Node2 -->
<g id="Node000002" class="node">
<title>Node2</title>
<g id="a_Node000002"><a xlink:title=" ">
<polygon fill="#e0e0e0" stroke="#999999" points="763,-79.5 713,-79.5 713,-60.5 763,-60.5 763,-79.5"/>
<text text-anchor="middle" x="738" y="-67.5" font-family="Helvetica,sans-Serif" font-size="10.00">cstdint</text>
</a>
</g>
</g>
<!-- Node1&#45;&gt;Node2 -->
<g id="edge1_Node000001_Node000002" class="edge">
<title>Node1&#45;&gt;Node2</title>
<g id="a_edge1_Node000001_Node000002"><a xlink:title=" ">
<path fill="none" stroke="#63b8ff" d="M693.4,-175.77C703.57,-151.87 720.57,-111.94 730.38,-88.9"/>
<polygon fill="#63b8ff" stroke="#63b8ff" points="733.64,-90.19 734.33,-79.61 727.2,-87.44 733.64,-90.19"/>
</a>
</g>
</g>
<!-- Node3 -->
<g id="Node000003" class="node">
<title>Node3</title>
<g id="a_Node000003"><a xlink:href="Common_8h.html" target="_top" xlink:title=" ">
<polygon fill="white" stroke="#666666" points="649.5,-140 510.5,-140 510.5,-121 649.5,-121 649.5,-140"/>
<text text-anchor="middle" x="580" y="-128" font-family="Helvetica,sans-Serif" font-size="10.00">open62541pp/Common.h</text>
</a>
</g>
</g>
<!-- Node1&#45;&gt;Node3 -->
<g id="edge2_Node000001_Node000003" class="edge">
<title>Node1&#45;&gt;Node3</title>
<g id="a_edge2_Node000001_Node000003"><a xlink:title=" ">
<path fill="none" stroke="#63b8ff" d="M652.93,-175.95C636.8,-166.12 617.62,-154.43 602.98,-145.51"/>
<polygon fill="#63b8ff" stroke="#63b8ff" points="604.46,-142.31 594.1,-140.09 600.81,-148.29 604.46,-142.31"/>
</a>
</g>
</g>
<!-- Node8 -->
<g id="Node000008" class="node">
<title>Node8</title>
<g id="a_Node000008"><a xlink:href="open62541_8h.html" target="_top" xlink:title=" ">
<polygon fill="white" stroke="#666666" points="434.5,-79.5 285.5,-79.5 285.5,-60.5 434.5,-60.5 434.5,-79.5"/>
<text text-anchor="middle" x="360" y="-67.5" font-family="Helvetica,sans-Serif" font-size="10.00">open62541pp/open62541.h</text>
</a>
</g>
</g>
<!-- Node1&#45;&gt;Node8 -->
<g id="edge24_Node000001_Node000008" class="edge">
<title>Node1&#45;&gt;Node8</title>
<g id="a_edge24_Node000001_Node000008"><a xlink:title=" ">
<path fill="none" stroke="#63b8ff" d="M610.2,-175.92C576.41,-166.31 536.25,-153.84 501,-140 458.79,-123.43 411.89,-99.25 384.22,-84.36"/>
<polygon fill="#63b8ff" stroke="#63b8ff" points="385.74,-81.2 375.28,-79.5 382.4,-87.35 385.74,-81.2"/>
</a>
</g>
</g>
<!-- Node13 -->
<g id="Node000013" class="node">
<title>Node13</title>
<g id="a_Node000013"><a xlink:href="Span_8h.html" target="_top" xlink:title=" ">
<polygon fill="white" stroke="#666666" points="1077.5,-140 958.5,-140 958.5,-121 1077.5,-121 1077.5,-140"/>
<text text-anchor="middle" x="1018" y="-128" font-family="Helvetica,sans-Serif" font-size="10.00">open62541pp/Span.h</text>
</a>
</g>
</g>
<!-- Node1&#45;&gt;Node13 -->
<g id="edge14_Node000001_Node000013" class="edge">
<title>Node1&#45;&gt;Node13</title>
<g id="a_edge14_Node000001_Node000013"><a xlink:title=" ">
<path fill="none" stroke="#63b8ff" d="M781.76,-176.9C840.93,-165.53 914.43,-151.41 963.59,-141.96"/>
<polygon fill="#63b8ff" stroke="#63b8ff" points="964.53,-145.34 973.69,-140.02 963.21,-138.47 964.53,-145.34"/>
</a>
</g>
</g>
<!-- Node3&#45;&gt;Node2 -->
<g id="edge3_Node000003_Node000002" class="edge">
<title>Node3&#45;&gt;Node2</title>
<g id="a_edge3_Node000003_Node000002"><a xlink:title=" ">
<path fill="none" stroke="#63b8ff" d="M604.83,-120.97C629.95,-112.25 669.85,-98.15 704,-85 705.38,-84.47 706.78,-83.92 708.2,-83.36"/>
<polygon fill="#63b8ff" stroke="#63b8ff" points="709.59,-86.57 717.56,-79.59 706.98,-80.08 709.59,-86.57"/>
</a>
</g>
</g>
<!-- Node4 -->
<g id="Node000004" class="node">
<title>Node4</title>
<g id="a_Node000004"><a xlink:title=" ">
<polygon fill="#e0e0e0" stroke="#999999" points="563.5,-79.5 490.5,-79.5 490.5,-60.5 563.5,-60.5 563.5,-79.5"/>
<text text-anchor="middle" x="527" y="-67.5" font-family="Helvetica,sans-Serif" font-size="10.00">string_view</text>
</a>
</g>
</g>
<!-- Node3&#45;&gt;Node4 -->
<g id="edge4_Node000003_Node000004" class="edge">
<title>Node3&#45;&gt;Node4</title>
<g id="a_edge4_Node000003_Node000004"><a xlink:title=" ">
<path fill="none" stroke="#63b8ff" d="M572.18,-120.87C564.19,-112.05 551.61,-98.16 541.74,-87.27"/>
<polygon fill="#63b8ff" stroke="#63b8ff" points="544.16,-84.73 534.85,-79.67 538.97,-89.43 544.16,-84.73"/>
</a>
</g>
</g>
<!-- Node5 -->
<g id="Node000005" class="node">
<title>Node5</title>
<g id="a_Node000005"><a xlink:title=" ">
<polygon fill="#e0e0e0" stroke="#999999" points="646.5,-19 605.5,-19 605.5,0 646.5,0 646.5,-19"/>
<text text-anchor="middle" x="626" y="-7" font-family="Helvetica,sans-Serif" font-size="10.00">tuple</text>
</a>
</g>
</g>
<!-- Node3&#45;&gt;Node5 -->
<g id="edge5_Node000003_Node000005" class="edge">
<title>Node3&#45;&gt;Node5</title>
<g id="a_edge5_Node000003_Node000005"><a xlink:title=" ">
<path fill="none" stroke="#63b8ff" d="M535.24,-120.92C515.05,-114.58 493.08,-103.67 481,-85 473.76,-73.8 473.07,-65.72 481,-55 494.63,-36.56 556.8,-22.62 595.18,-15.59"/>
<polygon fill="#63b8ff" stroke="#63b8ff" points="596.07,-18.98 605.31,-13.79 594.85,-12.09 596.07,-18.98"/>
</a>
</g>
</g>
<!-- Node6 -->
<g id="Node000006" class="node">
<title>Node6</title>
<g id="a_Node000006"><a xlink:href="traits_8h.html" target="_top" xlink:title=" ">
<polygon fill="white" stroke="#666666" points="694.5,-85 581.5,-85 581.5,-55 694.5,-55 694.5,-85"/>
<text text-anchor="start" x="589.5" y="-73" font-family="Helvetica,sans-Serif" font-size="10.00">open62541pp/detail</text>
<text text-anchor="middle" x="638" y="-62" font-family="Helvetica,sans-Serif" font-size="10.00">/traits.h</text>
</a>
</g>
</g>
<!-- Node3&#45;&gt;Node6 -->
<g id="edge6_Node000003_Node000006" class="edge">
<title>Node3&#45;&gt;Node6</title>
<g id="a_edge6_Node000003_Node000006"><a xlink:title=" ">
<path fill="none" stroke="#63b8ff" d="M588.56,-120.87C595.99,-113.37 607.07,-102.2 616.86,-92.33"/>
<polygon fill="#63b8ff" stroke="#63b8ff" points="619.45,-94.68 624.01,-85.11 614.48,-89.75 619.45,-94.68"/>
</a>
</g>
</g>
<!-- Node3&#45;&gt;Node8 -->
<g id="edge9_Node000003_Node000008" class="edge">
<title>Node3&#45;&gt;Node8</title>
<g id="a_edge9_Node000003_Node000008"><a xlink:title=" ">
<path fill="none" stroke="#63b8ff" d="M548.01,-120.99C509.4,-110.73 444.36,-93.43 401.8,-82.12"/>
<polygon fill="#63b8ff" stroke="#63b8ff" points="402.59,-78.7 392.03,-79.52 400.79,-85.47 402.59,-78.7"/>
</a>
</g>
</g>
<!-- Node6&#45;&gt;Node5 -->
<g id="edge7_Node000006_Node000005" class="edge">
<title>Node6&#45;&gt;Node5</title>
<g id="a_edge7_Node000006_Node000005"><a xlink:title=" ">
<path fill="none" stroke="#63b8ff" d="M635.1,-54.84C633.51,-47.13 631.54,-37.49 629.83,-29.17"/>
<polygon fill="#63b8ff" stroke="#63b8ff" points="633.24,-28.36 627.8,-19.27 626.38,-29.77 633.24,-28.36"/>
</a>
</g>
</g>
<!-- Node7 -->
<g id="Node000007" class="node">
<title>Node7</title>
<g id="a_Node000007"><a xlink:title=" ">
<polygon fill="#e0e0e0" stroke="#999999" points="1031.5,-19 962.5,-19 962.5,0 1031.5,0 1031.5,-19"/>
<text text-anchor="middle" x="997" y="-7" font-family="Helvetica,sans-Serif" font-size="10.00">type_traits</text>
</a>
</g>
</g>
<!-- Node6&#45;&gt;Node7 -->
<g id="edge8_Node000006_Node000007" class="edge">
<title>Node6&#45;&gt;Node7</title>
<g id="a_edge8_Node000006_Node000007"><a xlink:title=" ">
<path fill="none" stroke="#63b8ff" d="M694.84,-56.72C697.94,-56.12 701,-55.54 704,-55 791.45,-39.1 894.29,-24.39 951.94,-16.51"/>
<polygon fill="#63b8ff" stroke="#63b8ff" points="952.72,-19.94 962.16,-15.12 951.78,-13 952.72,-19.94"/>
</a>
</g>
</g>
<!-- Node9 -->
<g id="Node000009" class="node">
<title>Node9</title>
<g id="a_Node000009"><a target="_blank" xlink:href="open62541/config_8h.html" xlink:title=" ">
<polygon fill="white" stroke="#666666" points="294,-19 182,-19 182,0 294,0 294,-19"/>
<text text-anchor="middle" x="238" y="-7" font-family="Helvetica,sans-Serif" font-size="10.00">open62541/config.h</text>
</a>
</g>
</g>
<!-- Node8&#45;&gt;Node9 -->
<g id="edge10_Node000008_Node000009" class="edge">
<title>Node8&#45;&gt;Node9</title>
<g id="a_edge10_Node000008_Node000009"><a xlink:title=" ">
<path fill="none" stroke="#63b8ff" d="M342.26,-60.49C321.93,-50.75 288.39,-34.66 264.86,-23.38"/>
<polygon fill="#63b8ff" stroke="#63b8ff" points="266.29,-20.18 255.76,-19.02 263.26,-26.5 266.29,-20.18"/>
</a>
</g>
</g>
<!-- Node10 -->
<g id="Node000010" class="node">
<title>Node10</title>
<g id="a_Node000010"><a target="_blank" xlink:href="open62541/nodeids_8h.html" xlink:title=" ">
<polygon fill="white" stroke="#666666" points="433.5,-19 312.5,-19 312.5,0 433.5,0 433.5,-19"/>
<text text-anchor="middle" x="373" y="-7" font-family="Helvetica,sans-Serif" font-size="10.00">open62541/nodeids.h</text>
</a>
</g>
</g>
<!-- Node8&#45;&gt;Node10 -->
<g id="edge11_Node000008_Node000010" class="edge">
<title>Node8&#45;&gt;Node10</title>
<g id="a_edge11_Node000008_Node000010"><a xlink:title=" ">
<path fill="none" stroke="#63b8ff" d="M361.92,-60.37C363.74,-52.16 366.55,-39.54 368.88,-29.05"/>
<polygon fill="#63b8ff" stroke="#63b8ff" points="372.32,-29.69 371.07,-19.17 365.49,-28.17 372.32,-29.69"/>
</a>
</g>
</g>
<!-- Node11 -->
<g id="Node000011" class="node">
<title>Node11</title>
<g id="a_Node000011"><a target="_blank" xlink:href="open62541/types_8h.html" xlink:title=" ">
<polygon fill="white" stroke="#666666" points="562,-19 452,-19 452,0 562,0 562,-19"/>
<text text-anchor="middle" x="507" y="-7" font-family="Helvetica,sans-Serif" font-size="10.00">open62541/types.h</text>
</a>
</g>
</g>
<!-- Node8&#45;&gt;Node11 -->
<g id="edge12_Node000008_Node000011" class="edge">
<title>Node8&#45;&gt;Node11</title>
<g id="a_edge12_Node000008_Node000011"><a xlink:title=" ">
<path fill="none" stroke="#63b8ff" d="M381.38,-60.49C406.31,-50.57 447.72,-34.09 476.14,-22.78"/>
<polygon fill="#63b8ff" stroke="#63b8ff" points="477.6,-25.97 485.6,-19.02 475.01,-19.46 477.6,-25.97"/>
</a>
</g>
</g>
<!-- Node12 -->
<g id="Node000012" class="node">
<title>Node12</title>
<g id="a_Node000012"><a target="_blank" xlink:href="open62541/types__generated_8h.html" xlink:title=" ">
<polygon fill="white" stroke="#666666" points="164,-19 0,-19 0,0 164,0 164,-19"/>
<text text-anchor="middle" x="82" y="-7" font-family="Helvetica,sans-Serif" font-size="10.00">open62541/types_generated.h</text>
</a>
</g>
</g>
<!-- Node8&#45;&gt;Node12 -->
<g id="edge13_Node000008_Node000012" class="edge">
<title>Node8&#45;&gt;Node12</title>
<g id="a_edge13_Node000008_Node000012"><a xlink:title=" ">
<path fill="none" stroke="#63b8ff" d="M319.58,-60.49C270.06,-50.07 186.16,-32.42 132.46,-21.12"/>
<polygon fill="#63b8ff" stroke="#63b8ff" points="132.98,-17.65 122.47,-19.02 131.54,-24.5 132.98,-17.65"/>
</a>
</g>
</g>
<!-- Node13&#45;&gt;Node2 -->
<g id="edge17_Node000013_Node000002" class="edge">
<title>Node13&#45;&gt;Node2</title>
<g id="a_edge17_Node000013_Node000002"><a xlink:title=" ">
<path fill="none" stroke="#63b8ff" d="M958.28,-122.3C907.95,-115.38 834.38,-103.26 772,-85 770.12,-84.45 768.19,-83.83 766.27,-83.16"/>
<polygon fill="#63b8ff" stroke="#63b8ff" points="767.4,-79.85 756.81,-79.57 764.92,-86.39 767.4,-79.85"/>
</a>
</g>
</g>
<!-- Node13&#45;&gt;Node7 -->
<g id="edge21_Node000013_Node000007" class="edge">
<title>Node13&#45;&gt;Node7</title>
<g id="a_edge21_Node000013_Node000007"><a xlink:title=" ">
<path fill="none" stroke="#63b8ff" d="M1077.59,-128.33C1148.77,-125.53 1261.56,-116.15 1288,-85 1296.63,-74.83 1296.69,-65.12 1288,-55 1256.82,-18.69 1115.51,-11.69 1041.9,-10.55"/>
<polygon fill="#63b8ff" stroke="#63b8ff" points="1041.59,-7.05 1031.55,-10.42 1041.51,-14.04 1041.59,-7.05"/>
</a>
</g>
</g>
<!-- Node14 -->
<g id="Node000014" class="node">
<title>Node14</title>
<g id="a_Node000014"><a xlink:title=" ">
<polygon fill="#e0e0e0" stroke="#999999" points="845,-79.5 781,-79.5 781,-60.5 845,-60.5 845,-79.5"/>
<text text-anchor="middle" x="813" y="-67.5" font-family="Helvetica,sans-Serif" font-size="10.00">algorithm</text>
</a>
</g>
</g>
<!-- Node13&#45;&gt;Node14 -->
<g id="edge15_Node000013_Node000014" class="edge">
<title>Node13&#45;&gt;Node14</title>
<g id="a_edge15_Node000013_Node000014"><a xlink:title=" ">
<path fill="none" stroke="#63b8ff" d="M983.9,-120.93C950.6,-112.4 898.57,-98.64 854,-85 851.69,-84.29 849.32,-83.55 846.94,-82.78"/>
<polygon fill="#63b8ff" stroke="#63b8ff" points="847.79,-79.37 837.2,-79.55 845.59,-86.02 847.79,-79.37"/>
</a>
</g>
</g>
<!-- Node15 -->
<g id="Node000015" class="node">
<title>Node15</title>
<g id="a_Node000015"><a xlink:title=" ">
<polygon fill="#e0e0e0" stroke="#999999" points="915,-79.5 863,-79.5 863,-60.5 915,-60.5 915,-79.5"/>
<text text-anchor="middle" x="889" y="-67.5" font-family="Helvetica,sans-Serif" font-size="10.00">cassert</text>
</a>
</g>
</g>
<!-- Node13&#45;&gt;Node15 -->
<g id="edge16_Node000013_Node000015" class="edge">
<title>Node13&#45;&gt;Node15</title>
<g id="a_edge16_Node000013_Node000015"><a xlink:title=" ">
<path fill="none" stroke="#63b8ff" d="M999.24,-120.99C977.65,-111.2 941.97,-95.02 917.07,-83.73"/>
<polygon fill="#63b8ff" stroke="#63b8ff" points="918.33,-80.46 907.78,-79.52 915.44,-86.83 918.33,-80.46"/>
</a>
</g>
</g>
<!-- Node16 -->
<g id="Node000016" class="node">
<title>Node16</title>
<g id="a_Node000016"><a xlink:title=" ">
<polygon fill="#e0e0e0" stroke="#999999" points="1016.5,-79.5 933.5,-79.5 933.5,-60.5 1016.5,-60.5 1016.5,-79.5"/>
<text text-anchor="middle" x="975" y="-67.5" font-family="Helvetica,sans-Serif" font-size="10.00">initializer_list</text>
</a>
</g>
</g>
<!-- Node13&#45;&gt;Node16 -->
<g id="edge18_Node000013_Node000016" class="edge">
<title>Node13&#45;&gt;Node16</title>
<g id="a_edge18_Node000013_Node000016"><a xlink:title=" ">
<path fill="none" stroke="#63b8ff" d="M1011.66,-120.87C1005.3,-112.23 995.36,-98.7 987.43,-87.92"/>
<polygon fill="#63b8ff" stroke="#63b8ff" points="990.11,-85.65 981.37,-79.67 984.47,-89.8 990.11,-85.65"/>
</a>
</g>
</g>
<!-- Node17 -->
<g id="Node000017" class="node">
<title>Node17</title>
<g id="a_Node000017"><a xlink:title=" ">
<polygon fill="#e0e0e0" stroke="#999999" points="1087.5,-79.5 1034.5,-79.5 1034.5,-60.5 1087.5,-60.5 1087.5,-79.5"/>
<text text-anchor="middle" x="1061" y="-67.5" font-family="Helvetica,sans-Serif" font-size="10.00">iterator</text>
</a>
</g>
</g>
<!-- Node13&#45;&gt;Node17 -->
<g id="edge19_Node000013_Node000017" class="edge">
<title>Node13&#45;&gt;Node17</title>
<g id="a_edge19_Node000013_Node000017"><a xlink:title=" ">
<path fill="none" stroke="#63b8ff" d="M1024.34,-120.87C1030.7,-112.23 1040.64,-98.7 1048.57,-87.92"/>
<polygon fill="#63b8ff" stroke="#63b8ff" points="1051.53,-89.8 1054.63,-79.67 1045.89,-85.65 1051.53,-89.8"/>
</a>
</g>
</g>
<!-- Node18 -->
<g id="Node000018" class="node">
<title>Node18</title>
<g id="a_Node000018"><a xlink:title=" ">
<polygon fill="#e0e0e0" stroke="#999999" points="1150,-79.5 1106,-79.5 1106,-60.5 1150,-60.5 1150,-79.5"/>
<text text-anchor="middle" x="1128" y="-67.5" font-family="Helvetica,sans-Serif" font-size="10.00">limits</text>
</a>
</g>
</g>
<!-- Node13&#45;&gt;Node18 -->
<g id="edge20_Node000013_Node000018" class="edge">
<title>Node13&#45;&gt;Node18</title>
<g id="a_edge20_Node000013_Node000018"><a xlink:title=" ">
<path fill="none" stroke="#63b8ff" d="M1034.23,-120.87C1052.27,-111.28 1081.62,-95.67 1102.68,-84.47"/>
<polygon fill="#63b8ff" stroke="#63b8ff" points="1104.52,-87.45 1111.7,-79.67 1101.23,-81.27 1104.52,-87.45"/>
</a>
</g>
</g>
<!-- Node19 -->
<g id="Node000019" class="node">
<title>Node19</title>
<g id="a_Node000019"><a xlink:title=" ">
<polygon fill="#e0e0e0" stroke="#999999" points="1213.5,-79.5 1168.5,-79.5 1168.5,-60.5 1213.5,-60.5 1213.5,-79.5"/>
<text text-anchor="middle" x="1191" y="-67.5" font-family="Helvetica,sans-Serif" font-size="10.00">utility</text>
</a>
</g>
</g>
<!-- Node13&#45;&gt;Node19 -->
<g id="edge22_Node000013_Node000019" class="edge">
<title>Node13&#45;&gt;Node19</title>
<g id="a_edge22_Node000013_Node000019"><a xlink:title=" ">
<path fill="none" stroke="#63b8ff" d="M1048.3,-120.96C1077.07,-112.6 1121.39,-99.12 1159,-85 1160.21,-84.54 1161.45,-84.07 1162.69,-83.58"/>
<polygon fill="#63b8ff" stroke="#63b8ff" points="1164.29,-86.7 1172.19,-79.63 1161.61,-80.24 1164.29,-86.7"/>
</a>
</g>
</g>
<!-- Node20 -->
<g id="Node000020" class="node">
<title>Node20</title>
<g id="a_Node000020"><a xlink:title=" ">
<polygon fill="#e0e0e0" stroke="#999999" points="1278.5,-79.5 1231.5,-79.5 1231.5,-60.5 1278.5,-60.5 1278.5,-79.5"/>
<text text-anchor="middle" x="1255" y="-67.5" font-family="Helvetica,sans-Serif" font-size="10.00">vector</text>
</a>
</g>
</g>
<!-- Node13&#45;&gt;Node20 -->
<g id="edge23_Node000013_Node000020" class="edge">
<title>Node13&#45;&gt;Node20</title>
<g id="a_edge23_Node000013_Node000020"><a xlink:title=" ">
<path fill="none" stroke="#63b8ff" d="M1071,-120.98C1112.85,-113.55 1172.41,-101.38 1223,-85 1224.44,-84.53 1225.91,-84.02 1227.38,-83.49"/>
<polygon fill="#63b8ff" stroke="#63b8ff" points="1228.99,-86.61 1236.97,-79.63 1226.38,-80.11 1228.99,-86.61"/>
</a>
</g>
</g>
</g>
</svg>
