<?xml version="1.0" encoding="UTF-8" standalone="no"?>
<!DOCTYPE svg PUBLIC "-//W3C//DTD SVG 1.1//EN"
 "http://www.w3.org/Graphics/SVG/1.1/DTD/svg11.dtd">
<!-- Generated by graphviz version 2.43.0 (0)
 -->
<!-- Title: /home/runner/work/open62541pp/open62541pp/include/open62541pp/types/DataValue.h Pages: 1 -->
<svg width="1251pt" height="520pt"
 viewBox="0.00 0.00 1251.00 520.00" xmlns="http://www.w3.org/2000/svg" xmlns:xlink="http://www.w3.org/1999/xlink">
<g id="graph0" class="graph" transform="scale(1 1) rotate(0) translate(4 516)">
<title>/home/runner/work/open62541pp/open62541pp/include/open62541pp/types/DataValue.h</title>
<!-- Node1 -->
<g id="node1" class="node">
<title>Node1</title>
<g id="a_node1"><a xlink:title=" ">
<polygon fill="#bfbfbf" stroke="black" points="74.5,-470.5 74.5,-511.5 267.5,-511.5 267.5,-470.5 74.5,-470.5"/>
<text text-anchor="start" x="82.5" y="-499.5" font-family="Helvetica,sans-Serif" font-size="10.00">/home/runner/work/open62541pp</text>
<text text-anchor="start" x="82.5" y="-488.5" font-family="Helvetica,sans-Serif" font-size="10.00">/open62541pp/include/open62541pp</text>
<text text-anchor="middle" x="171" y="-477.5" font-family="Helvetica,sans-Serif" font-size="10.00">/types/DataValue.h</text>
</a>
</g>
</g>
<!-- Node2 -->
<g id="node2" class="node">
<title>Node2</title>
<g id="a_node2"><a xlink:title=" ">
<polygon fill="none" stroke="#bfbfbf" points="260,-62 260,-81 310,-81 310,-62 260,-62"/>
<text text-anchor="middle" x="285" y="-69" font-family="Helvetica,sans-Serif" font-size="10.00">cstdint</text>
</a>
</g>
</g>
<!-- Node1&#45;&gt;Node2 -->
<g id="edge1" class="edge">
<title>Node1&#45;&gt;Node2</title>
<path fill="none" stroke="midnightblue" d="M100.46,-470.48C53.36,-452.67 0,-421.01 0,-369 0,-369 0,-369 0,-255 0,-137.72 173.27,-92.38 249.61,-78.09"/>
<polygon fill="midnightblue" stroke="midnightblue" points="250.48,-81.49 259.71,-76.28 249.25,-74.6 250.48,-81.49"/>
</g>
<!-- Node3 -->
<g id="node3" class="node">
<title>Node3</title>
<g id="a_node3"><a xlink:title=" ">
<polygon fill="none" stroke="#bfbfbf" points="143,-358.5 143,-377.5 199,-377.5 199,-358.5 143,-358.5"/>
<text text-anchor="middle" x="171" y="-365.5" font-family="Helvetica,sans-Serif" font-size="10.00">optional</text>
</a>
</g>
</g>
<!-- Node1&#45;&gt;Node3 -->
<g id="edge2" class="edge">
<title>Node1&#45;&gt;Node3</title>
<path fill="none" stroke="midnightblue" d="M171,-470.29C171,-447.48 171,-410.19 171,-387.78"/>
<polygon fill="midnightblue" stroke="midnightblue" points="174.5,-387.57 171,-377.57 167.5,-387.57 174.5,-387.57"/>
</g>
<!-- Node4 -->
<g id="node4" class="node">
<title>Node4</title>
<g id="a_node4"><a xlink:title=" ">
<polygon fill="none" stroke="#bfbfbf" points="104.5,-185 104.5,-204 149.5,-204 149.5,-185 104.5,-185"/>
<text text-anchor="middle" x="127" y="-192" font-family="Helvetica,sans-Serif" font-size="10.00">utility</text>
</a>
</g>
</g>
<!-- Node1&#45;&gt;Node4 -->
<g id="edge3" class="edge">
<title>Node1&#45;&gt;Node4</title>
<path fill="none" stroke="midnightblue" d="M142.29,-470.47C114.64,-449.1 77,-412.09 77,-369 77,-369 77,-369 77,-311 77,-273.5 99.47,-234.38 114.28,-212.66"/>
<polygon fill="midnightblue" stroke="midnightblue" points="117.33,-214.4 120.26,-204.22 111.62,-210.36 117.33,-214.4"/>
</g>
<!-- Node5 -->
<g id="node5" class="node">
<title>Node5</title>
<g id="a_node5"><a xlink:href="TypeWrapper_8h.html" target="_top" xlink:title=" ">
<polygon fill="none" stroke="black" points="244,-246.5 244,-265.5 402,-265.5 402,-246.5 244,-246.5"/>
<text text-anchor="middle" x="323" y="-253.5" font-family="Helvetica,sans-Serif" font-size="10.00">open62541pp/TypeWrapper.h</text>
</a>
</g>
</g>
<!-- Node1&#45;&gt;Node5 -->
<g id="edge4" class="edge">
<title>Node1&#45;&gt;Node5</title>
<path fill="none" stroke="midnightblue" d="M156.42,-470.37C138.32,-443.4 112.34,-394.13 134,-358 163.88,-308.16 227.65,-281.54 272.84,-268.36"/>
<polygon fill="midnightblue" stroke="midnightblue" points="274.05,-271.65 282.75,-265.59 272.17,-264.91 274.05,-271.65"/>
</g>
<!-- Node12 -->
<g id="node12" class="node">
<title>Node12</title>
<g id="a_node12"><a xlink:href="open62541_8h.html" target="_top" xlink:title=" ">
<polygon fill="none" stroke="black" points="854.5,-62 854.5,-81 1003.5,-81 1003.5,-62 854.5,-62"/>
<text text-anchor="middle" x="929" y="-69" font-family="Helvetica,sans-Serif" font-size="10.00">open62541pp/open62541.h</text>
</a>
</g>
</g>
<!-- Node1&#45;&gt;Node12 -->
<g id="edge34" class="edge">
<title>Node1&#45;&gt;Node12</title>
<path fill="none" stroke="midnightblue" d="M267.55,-489.14C531.05,-485.51 1243,-466.68 1243,-369 1243,-369 1243,-369 1243,-193.5 1243,-154.83 1224.62,-143.78 1192,-123 1162.92,-104.48 1079.26,-90.47 1014.02,-81.96"/>
<polygon fill="midnightblue" stroke="midnightblue" points="1014.08,-78.44 1003.72,-80.64 1013.19,-85.38 1014.08,-78.44"/>
</g>
<!-- Node21 -->
<g id="node21" class="node">
<title>Node21</title>
<g id="a_node21"><a xlink:href="DateTime_8h.html" target="_top" xlink:title=" ">
<polygon fill="none" stroke="black" points="946.5,-302.5 946.5,-321.5 1119.5,-321.5 1119.5,-302.5 946.5,-302.5"/>
<text text-anchor="middle" x="1033" y="-309.5" font-family="Helvetica,sans-Serif" font-size="10.00">open62541pp/types/DateTime.h</text>
</a>
</g>
</g>
<!-- Node1&#45;&gt;Node21 -->
<g id="edge35" class="edge">
<title>Node1&#45;&gt;Node21</title>
<path fill="none" stroke="midnightblue" d="M267.66,-477.03C394.79,-459.12 624.7,-423.77 818,-378 882.64,-362.69 956.45,-338.98 998.61,-324.82"/>
<polygon fill="midnightblue" stroke="midnightblue" points="999.76,-328.13 1008.11,-321.61 997.52,-321.49 999.76,-328.13"/>
</g>
<!-- Node24 -->
<g id="node24" class="node">
<title>Node24</title>
<g id="a_node24"><a xlink:href="Variant_8h.html" target="_top" xlink:title=" ">
<polygon fill="none" stroke="black" points="284.5,-414.5 284.5,-433.5 443.5,-433.5 443.5,-414.5 284.5,-414.5"/>
<text text-anchor="middle" x="364" y="-421.5" font-family="Helvetica,sans-Serif" font-size="10.00">open62541pp/types/Variant.h</text>
</a>
</g>
</g>
<!-- Node1&#45;&gt;Node24 -->
<g id="edge41" class="edge">
<title>Node1&#45;&gt;Node24</title>
<path fill="none" stroke="midnightblue" d="M228.91,-470.5C261.44,-459.54 300.98,-446.22 328.86,-436.84"/>
<polygon fill="midnightblue" stroke="midnightblue" points="330.2,-440.08 338.56,-433.57 327.97,-433.44 330.2,-440.08"/>
</g>
<!-- Node5&#45;&gt;Node2 -->
<g id="edge6" class="edge">
<title>Node5&#45;&gt;Node2</title>
<path fill="none" stroke="midnightblue" d="M317.65,-246.43C306.64,-228.24 281.74,-184.03 273,-143 269.25,-125.39 273.6,-105.1 278.08,-90.83"/>
<polygon fill="midnightblue" stroke="midnightblue" points="281.44,-91.82 281.39,-81.23 274.82,-89.54 281.44,-91.82"/>
</g>
<!-- Node5&#45;&gt;Node4 -->
<g id="edge8" class="edge">
<title>Node5&#45;&gt;Node4</title>
<path fill="none" stroke="midnightblue" d="M294.92,-246.48C259.12,-235.61 197.35,-216.86 159.53,-205.38"/>
<polygon fill="midnightblue" stroke="midnightblue" points="160.13,-201.9 149.55,-202.34 158.1,-208.6 160.13,-201.9"/>
</g>
<!-- Node6 -->
<g id="node6" class="node">
<title>Node6</title>
<g id="a_node6"><a xlink:title=" ">
<polygon fill="none" stroke="#bfbfbf" points="282,-123.5 282,-142.5 334,-142.5 334,-123.5 282,-123.5"/>
<text text-anchor="middle" x="308" y="-130.5" font-family="Helvetica,sans-Serif" font-size="10.00">cassert</text>
</a>
</g>
</g>
<!-- Node5&#45;&gt;Node6 -->
<g id="edge5" class="edge">
<title>Node5&#45;&gt;Node6</title>
<path fill="none" stroke="midnightblue" d="M321.53,-246.39C320.02,-237.35 317.66,-222.7 316,-210 313.49,-190.71 311.23,-168.59 309.76,-153.2"/>
<polygon fill="midnightblue" stroke="midnightblue" points="313.21,-152.54 308.79,-142.91 306.24,-153.19 313.21,-152.54"/>
</g>
<!-- Node7 -->
<g id="node7" class="node">
<title>Node7</title>
<g id="a_node7"><a xlink:title=" ">
<polygon fill="none" stroke="#bfbfbf" points="41.5,-0.5 41.5,-19.5 110.5,-19.5 110.5,-0.5 41.5,-0.5"/>
<text text-anchor="middle" x="76" y="-7.5" font-family="Helvetica,sans-Serif" font-size="10.00">type_traits</text>
</a>
</g>
</g>
<!-- Node5&#45;&gt;Node7 -->
<g id="edge7" class="edge">
<title>Node5&#45;&gt;Node7</title>
<path fill="none" stroke="midnightblue" d="M314.21,-246.32C277.9,-210.44 139.27,-73.5 91.95,-26.75"/>
<polygon fill="midnightblue" stroke="midnightblue" points="94.26,-24.12 84.69,-19.58 89.34,-29.1 94.26,-24.12"/>
</g>
<!-- Node8 -->
<g id="node8" class="node">
<title>Node8</title>
<g id="a_node8"><a xlink:href="Common_8h.html" target="_top" xlink:title=" ">
<polygon fill="none" stroke="black" points="430.5,-123.5 430.5,-142.5 569.5,-142.5 569.5,-123.5 430.5,-123.5"/>
<text text-anchor="middle" x="500" y="-130.5" font-family="Helvetica,sans-Serif" font-size="10.00">open62541pp/Common.h</text>
</a>
</g>
</g>
<!-- Node5&#45;&gt;Node8 -->
<g id="edge9" class="edge">
<title>Node5&#45;&gt;Node8</title>
<path fill="none" stroke="midnightblue" d="M323.59,-246.35C325.13,-230.67 330.62,-197.43 350,-179 369.13,-160.8 395.33,-149.94 420.48,-143.46"/>
<polygon fill="midnightblue" stroke="midnightblue" points="421.5,-146.81 430.43,-141.1 419.89,-140 421.5,-146.81"/>
</g>
<!-- Node5&#45;&gt;Node12 -->
<g id="edge31" class="edge">
<title>Node5&#45;&gt;Node12</title>
<path fill="none" stroke="midnightblue" d="M402.07,-251.94C490.42,-247.28 626.85,-236.02 671,-210 712.35,-185.63 695.26,-149.93 735,-123 767.13,-101.23 808.08,-88.84 844.07,-81.79"/>
<polygon fill="midnightblue" stroke="midnightblue" points="844.88,-85.2 854.08,-79.94 843.61,-78.32 844.88,-85.2"/>
</g>
<!-- Node16 -->
<g id="node16" class="node">
<title>Node16</title>
<g id="a_node16"><a xlink:href="ErrorHandling_8h.html" target="_top" xlink:title=" ">
<polygon fill="none" stroke="black" points="832.5,-185 832.5,-204 993.5,-204 993.5,-185 832.5,-185"/>
<text text-anchor="middle" x="913" y="-192" font-family="Helvetica,sans-Serif" font-size="10.00">open62541pp/ErrorHandling.h</text>
</a>
</g>
</g>
<!-- Node5&#45;&gt;Node16 -->
<g id="edge20" class="edge">
<title>Node5&#45;&gt;Node16</title>
<path fill="none" stroke="midnightblue" d="M402.26,-247.01C511.32,-236.01 707.17,-216.26 822.06,-204.67"/>
<polygon fill="midnightblue" stroke="midnightblue" points="822.64,-208.13 832.24,-203.64 821.94,-201.17 822.64,-208.13"/>
</g>
<!-- Node19 -->
<g id="node19" class="node">
<title>Node19</title>
<g id="a_node19"><a xlink:href="helper_8h.html" target="_top" xlink:title=" ">
<polygon fill="none" stroke="black" points="358.5,-179.5 358.5,-209.5 471.5,-209.5 471.5,-179.5 358.5,-179.5"/>
<text text-anchor="start" x="366.5" y="-197.5" font-family="Helvetica,sans-Serif" font-size="10.00">open62541pp/detail</text>
<text text-anchor="middle" x="415" y="-186.5" font-family="Helvetica,sans-Serif" font-size="10.00">/helper.h</text>
</a>
</g>
</g>
<!-- Node5&#45;&gt;Node19 -->
<g id="edge24" class="edge">
<title>Node5&#45;&gt;Node19</title>
<path fill="none" stroke="midnightblue" d="M336.18,-246.48C348.76,-238.34 368.16,-225.79 384.57,-215.18"/>
<polygon fill="midnightblue" stroke="midnightblue" points="386.82,-217.89 393.32,-209.52 383.02,-212.01 386.82,-217.89"/>
</g>
<!-- Node20 -->
<g id="node20" class="node">
<title>Node20</title>
<g id="a_node20"><a xlink:href="comparison_8h.html" target="_top" xlink:title=" ">
<polygon fill="none" stroke="black" points="528,-179.5 528,-209.5 662,-209.5 662,-179.5 528,-179.5"/>
<text text-anchor="start" x="536" y="-197.5" font-family="Helvetica,sans-Serif" font-size="10.00">open62541pp/overloads</text>
<text text-anchor="middle" x="595" y="-186.5" font-family="Helvetica,sans-Serif" font-size="10.00">/comparison.h</text>
</a>
</g>
</g>
<!-- Node5&#45;&gt;Node20 -->
<g id="edge32" class="edge">
<title>Node5&#45;&gt;Node20</title>
<path fill="none" stroke="midnightblue" d="M361.97,-246.48C403.29,-237.44 469.53,-222.95 520.84,-211.72"/>
<polygon fill="midnightblue" stroke="midnightblue" points="521.87,-215.08 530.89,-209.52 520.38,-208.24 521.87,-215.08"/>
</g>
<!-- Node8&#45;&gt;Node2 -->
<g id="edge10" class="edge">
<title>Node8&#45;&gt;Node2</title>
<path fill="none" stroke="midnightblue" d="M469.2,-123.48C429.61,-112.52 361.09,-93.56 319.7,-82.1"/>
<polygon fill="midnightblue" stroke="midnightblue" points="320.62,-78.73 310.05,-79.43 318.76,-85.47 320.62,-78.73"/>
</g>
<!-- Node9 -->
<g id="node9" class="node">
<title>Node9</title>
<g id="a_node9"><a xlink:title=" ">
<polygon fill="none" stroke="#bfbfbf" points="359.5,-62 359.5,-81 432.5,-81 432.5,-62 359.5,-62"/>
<text text-anchor="middle" x="396" y="-69" font-family="Helvetica,sans-Serif" font-size="10.00">string_view</text>
</a>
</g>
</g>
<!-- Node8&#45;&gt;Node9 -->
<g id="edge11" class="edge">
<title>Node8&#45;&gt;Node9</title>
<path fill="none" stroke="midnightblue" d="M485.1,-123.48C468.03,-113.71 439.84,-97.58 419.74,-86.08"/>
<polygon fill="midnightblue" stroke="midnightblue" points="421.29,-82.94 410.87,-81.01 417.81,-89.01 421.29,-82.94"/>
</g>
<!-- Node10 -->
<g id="node10" class="node">
<title>Node10</title>
<g id="a_node10"><a xlink:title=" ">
<polygon fill="none" stroke="#bfbfbf" points="529.5,-0.5 529.5,-19.5 570.5,-19.5 570.5,-0.5 529.5,-0.5"/>
<text text-anchor="middle" x="550" y="-7.5" font-family="Helvetica,sans-Serif" font-size="10.00">tuple</text>
</a>
</g>
</g>
<!-- Node8&#45;&gt;Node10 -->
<g id="edge12" class="edge">
<title>Node8&#45;&gt;Node10</title>
<path fill="none" stroke="midnightblue" d="M526.21,-123.41C542.85,-116.44 563.06,-104.81 573,-87 583.45,-68.28 572.72,-44.27 562.69,-28.29"/>
<polygon fill="midnightblue" stroke="midnightblue" points="565.52,-26.24 557.02,-19.92 559.72,-30.16 565.52,-26.24"/>
</g>
<!-- Node11 -->
<g id="node11" class="node">
<title>Node11</title>
<g id="a_node11"><a xlink:href="traits_8h.html" target="_top" xlink:title=" ">
<polygon fill="none" stroke="black" points="450.5,-56.5 450.5,-86.5 563.5,-86.5 563.5,-56.5 450.5,-56.5"/>
<text text-anchor="start" x="458.5" y="-74.5" font-family="Helvetica,sans-Serif" font-size="10.00">open62541pp/detail</text>
<text text-anchor="middle" x="507" y="-63.5" font-family="Helvetica,sans-Serif" font-size="10.00">/traits.h</text>
</a>
</g>
</g>
<!-- Node8&#45;&gt;Node11 -->
<g id="edge13" class="edge">
<title>Node8&#45;&gt;Node11</title>
<path fill="none" stroke="midnightblue" d="M501,-123.48C501.83,-116.47 503.04,-106.19 504.15,-96.7"/>
<polygon fill="midnightblue" stroke="midnightblue" points="507.66,-96.86 505.35,-86.52 500.71,-96.05 507.66,-96.86"/>
</g>
<!-- Node8&#45;&gt;Node12 -->
<g id="edge16" class="edge">
<title>Node8&#45;&gt;Node12</title>
<path fill="none" stroke="midnightblue" d="M561.47,-123.48C639.75,-112.62 774.79,-93.89 857.57,-82.41"/>
<polygon fill="midnightblue" stroke="midnightblue" points="858.22,-85.85 867.65,-81.01 857.26,-78.92 858.22,-85.85"/>
</g>
<!-- Node11&#45;&gt;Node7 -->
<g id="edge15" class="edge">
<title>Node11&#45;&gt;Node7</title>
<path fill="none" stroke="midnightblue" d="M450.34,-57.52C447.53,-56.98 444.73,-56.47 442,-56 326.94,-36.14 190.05,-21.74 120.84,-15.1"/>
<polygon fill="midnightblue" stroke="midnightblue" points="121.02,-11.6 110.73,-14.14 120.35,-18.57 121.02,-11.6"/>
</g>
<!-- Node11&#45;&gt;Node10 -->
<g id="edge14" class="edge">
<title>Node11&#45;&gt;Node10</title>
<path fill="none" stroke="midnightblue" d="M517.19,-56.4C523.37,-47.84 531.3,-36.87 537.82,-27.86"/>
<polygon fill="midnightblue" stroke="midnightblue" points="540.72,-29.81 543.74,-19.66 535.05,-25.71 540.72,-29.81"/>
</g>
<!-- Node13 -->
<g id="node13" class="node">
<title>Node13</title>
<g id="a_node13"><a target="_blank" xlink:href="open62541/nodeids_8h.html.html" xlink:title=" ">
<polygon fill="none" stroke="black" points="1029.5,-0.5 1029.5,-19.5 1150.5,-19.5 1150.5,-0.5 1029.5,-0.5"/>
<text text-anchor="middle" x="1090" y="-7.5" font-family="Helvetica,sans-Serif" font-size="10.00">open62541/nodeids.h</text>
</a>
</g>
</g>
<!-- Node12&#45;&gt;Node13 -->
<g id="edge17" class="edge">
<title>Node12&#45;&gt;Node13</title>
<path fill="none" stroke="midnightblue" d="M952.07,-61.98C979.68,-51.77 1026.12,-34.61 1057.4,-23.05"/>
<polygon fill="midnightblue" stroke="midnightblue" points="1058.81,-26.26 1066.98,-19.51 1056.38,-19.69 1058.81,-26.26"/>
</g>
<!-- Node14 -->
<g id="node14" class="node">
<title>Node14</title>
<g id="a_node14"><a target="_blank" xlink:href="open62541/types_8h.html.html" xlink:title=" ">
<polygon fill="none" stroke="black" points="719,-0.5 719,-19.5 829,-19.5 829,-0.5 719,-0.5"/>
<text text-anchor="middle" x="774" y="-7.5" font-family="Helvetica,sans-Serif" font-size="10.00">open62541/types.h</text>
</a>
</g>
</g>
<!-- Node12&#45;&gt;Node14 -->
<g id="edge18" class="edge">
<title>Node12&#45;&gt;Node14</title>
<path fill="none" stroke="midnightblue" d="M906.79,-61.98C880.32,-51.81 835.89,-34.76 805.78,-23.2"/>
<polygon fill="midnightblue" stroke="midnightblue" points="806.76,-19.83 796.17,-19.51 804.25,-26.36 806.76,-19.83"/>
</g>
<!-- Node15 -->
<g id="node15" class="node">
<title>Node15</title>
<g id="a_node15"><a target="_blank" xlink:href="open62541/types__generated_8h.html.html" xlink:title=" ">
<polygon fill="none" stroke="black" points="847,-0.5 847,-19.5 1011,-19.5 1011,-0.5 847,-0.5"/>
<text text-anchor="middle" x="929" y="-7.5" font-family="Helvetica,sans-Serif" font-size="10.00">open62541/types_generated.h</text>
</a>
</g>
</g>
<!-- Node12&#45;&gt;Node15 -->
<g id="edge19" class="edge">
<title>Node12&#45;&gt;Node15</title>
<path fill="none" stroke="midnightblue" d="M929,-61.98C929,-53.58 929,-40.48 929,-29.66"/>
<polygon fill="midnightblue" stroke="midnightblue" points="932.5,-29.51 929,-19.51 925.5,-29.51 932.5,-29.51"/>
</g>
<!-- Node16&#45;&gt;Node12 -->
<g id="edge23" class="edge">
<title>Node16&#45;&gt;Node12</title>
<path fill="none" stroke="midnightblue" d="M914.15,-184.8C916.73,-165.26 923.04,-117.56 926.55,-91.05"/>
<polygon fill="midnightblue" stroke="midnightblue" points="930.02,-91.5 927.86,-81.12 923.08,-90.58 930.02,-91.5"/>
</g>
<!-- Node17 -->
<g id="node17" class="node">
<title>Node17</title>
<g id="a_node17"><a xlink:title=" ">
<polygon fill="none" stroke="#bfbfbf" points="835.5,-123.5 835.5,-142.5 900.5,-142.5 900.5,-123.5 835.5,-123.5"/>
<text text-anchor="middle" x="868" y="-130.5" font-family="Helvetica,sans-Serif" font-size="10.00">stdexcept</text>
</a>
</g>
</g>
<!-- Node16&#45;&gt;Node17 -->
<g id="edge21" class="edge">
<title>Node16&#45;&gt;Node17</title>
<path fill="none" stroke="midnightblue" d="M906.55,-184.98C899.8,-176.05 889.03,-161.81 880.59,-150.64"/>
<polygon fill="midnightblue" stroke="midnightblue" points="883.26,-148.37 874.44,-142.51 877.68,-152.6 883.26,-148.37"/>
</g>
<!-- Node18 -->
<g id="node18" class="node">
<title>Node18</title>
<g id="a_node18"><a xlink:title=" ">
<polygon fill="none" stroke="#bfbfbf" points="744,-123.5 744,-142.5 788,-142.5 788,-123.5 744,-123.5"/>
<text text-anchor="middle" x="766" y="-130.5" font-family="Helvetica,sans-Serif" font-size="10.00">string</text>
</a>
</g>
</g>
<!-- Node16&#45;&gt;Node18 -->
<g id="edge22" class="edge">
<title>Node16&#45;&gt;Node18</title>
<path fill="none" stroke="midnightblue" d="M891.94,-184.98C866.94,-174.86 825.06,-157.9 796.51,-146.35"/>
<polygon fill="midnightblue" stroke="midnightblue" points="797.61,-143.02 787.02,-142.51 794.98,-149.51 797.61,-143.02"/>
</g>
<!-- Node19&#45;&gt;Node2 -->
<g id="edge26" class="edge">
<title>Node19&#45;&gt;Node2</title>
<path fill="none" stroke="midnightblue" d="M401.16,-179.47C386.84,-165.07 363.69,-142.11 343,-123 329.9,-110.9 314.68,-97.68 303.12,-87.8"/>
<polygon fill="midnightblue" stroke="midnightblue" points="305.31,-85.07 295.43,-81.26 300.78,-90.41 305.31,-85.07"/>
</g>
<!-- Node19&#45;&gt;Node6 -->
<g id="edge25" class="edge">
<title>Node19&#45;&gt;Node6</title>
<path fill="none" stroke="midnightblue" d="M389.64,-179.4C372.33,-169.77 349.52,-157.09 332.42,-147.58"/>
<polygon fill="midnightblue" stroke="midnightblue" points="334.01,-144.46 323.57,-142.66 330.61,-150.58 334.01,-144.46"/>
</g>
<!-- Node19&#45;&gt;Node8 -->
<g id="edge29" class="edge">
<title>Node19&#45;&gt;Node8</title>
<path fill="none" stroke="midnightblue" d="M435.14,-179.4C448.39,-170.13 465.68,-158.03 479.08,-148.65"/>
<polygon fill="midnightblue" stroke="midnightblue" points="481.45,-151.26 487.63,-142.66 477.43,-145.53 481.45,-151.26"/>
</g>
<!-- Node19&#45;&gt;Node9 -->
<g id="edge28" class="edge">
<title>Node19&#45;&gt;Node9</title>
<path fill="none" stroke="midnightblue" d="M412.75,-179.14C409.3,-157.2 402.72,-115.33 398.92,-91.09"/>
<polygon fill="midnightblue" stroke="midnightblue" points="402.35,-90.39 397.34,-81.05 395.44,-91.47 402.35,-90.39"/>
</g>
<!-- Node19&#45;&gt;Node12 -->
<g id="edge30" class="edge">
<title>Node19&#45;&gt;Node12</title>
<path fill="none" stroke="midnightblue" d="M458.74,-179.48C507.31,-164.23 588.21,-139.81 659,-123 729,-106.38 810.26,-91.81 865.2,-82.65"/>
<polygon fill="midnightblue" stroke="midnightblue" points="865.85,-86.09 875.15,-81 864.71,-79.18 865.85,-86.09"/>
</g>
<!-- Node19&#45;&gt;Node18 -->
<g id="edge27" class="edge">
<title>Node19&#45;&gt;Node18</title>
<path fill="none" stroke="midnightblue" d="M471.78,-183.87C546.28,-171.25 674.5,-149.51 733.97,-139.43"/>
<polygon fill="midnightblue" stroke="midnightblue" points="734.64,-142.87 743.92,-137.74 733.47,-135.96 734.64,-142.87"/>
</g>
<!-- Node20&#45;&gt;Node12 -->
<g id="edge33" class="edge">
<title>Node20&#45;&gt;Node12</title>
<path fill="none" stroke="midnightblue" d="M611.85,-179.39C631.86,-163.36 666.84,-137.54 701,-123 748.43,-102.81 804.98,-90.22 849.9,-82.66"/>
<polygon fill="midnightblue" stroke="midnightblue" points="850.57,-86.1 859.88,-81.03 849.45,-79.19 850.57,-86.1"/>
</g>
<!-- Node21&#45;&gt;Node2 -->
<g id="edge37" class="edge">
<title>Node21&#45;&gt;Node2</title>
<path fill="none" stroke="midnightblue" d="M1033.26,-302.35C1033.51,-279.8 1031.37,-218.23 1003,-179 974.73,-139.9 956.05,-137.4 910,-123 672.39,-48.68 597.51,-121.81 351,-87 340.91,-85.58 330.07,-83.45 320.16,-81.26"/>
<polygon fill="midnightblue" stroke="midnightblue" points="320.75,-77.81 310.22,-78.98 319.19,-84.63 320.75,-77.81"/>
</g>
<!-- Node21&#45;&gt;Node5 -->
<g id="edge39" class="edge">
<title>Node21&#45;&gt;Node5</title>
<path fill="none" stroke="midnightblue" d="M946.3,-304.41C810.6,-294.08 549.41,-274.22 412.19,-263.78"/>
<polygon fill="midnightblue" stroke="midnightblue" points="412.36,-260.29 402.13,-263.02 411.83,-267.27 412.36,-260.29"/>
</g>
<!-- Node21&#45;&gt;Node12 -->
<g id="edge40" class="edge">
<title>Node21&#45;&gt;Node12</title>
<path fill="none" stroke="midnightblue" d="M1061.37,-302.49C1078.75,-295.65 1099.6,-284.13 1110,-266 1114.42,-258.29 1112.17,-254.62 1110,-246 1094.43,-184.13 1084.47,-164.48 1036,-123 1015.7,-105.63 988.4,-92.87 966.46,-84.53"/>
<polygon fill="midnightblue" stroke="midnightblue" points="967.4,-81.14 956.8,-81 965,-87.72 967.4,-81.14"/>
</g>
<!-- Node22 -->
<g id="node22" class="node">
<title>Node22</title>
<g id="a_node22"><a xlink:title=" ">
<polygon fill="none" stroke="#bfbfbf" points="943,-246.5 943,-265.5 993,-265.5 993,-246.5 943,-246.5"/>
<text text-anchor="middle" x="968" y="-253.5" font-family="Helvetica,sans-Serif" font-size="10.00">chrono</text>
</a>
</g>
</g>
<!-- Node21&#45;&gt;Node22 -->
<g id="edge36" class="edge">
<title>Node21&#45;&gt;Node22</title>
<path fill="none" stroke="midnightblue" d="M1022.56,-302.32C1012.85,-294.26 998.18,-282.08 986.5,-272.37"/>
<polygon fill="midnightblue" stroke="midnightblue" points="988.56,-269.53 978.63,-265.83 984.09,-274.92 988.56,-269.53"/>
</g>
<!-- Node23 -->
<g id="node23" class="node">
<title>Node23</title>
<g id="a_node23"><a xlink:title=" ">
<polygon fill="none" stroke="#bfbfbf" points="1061.5,-246.5 1061.5,-265.5 1100.5,-265.5 1100.5,-246.5 1061.5,-246.5"/>
<text text-anchor="middle" x="1081" y="-253.5" font-family="Helvetica,sans-Serif" font-size="10.00">ratio</text>
</a>
</g>
</g>
<!-- Node21&#45;&gt;Node23 -->
<g id="edge38" class="edge">
<title>Node21&#45;&gt;Node23</title>
<path fill="none" stroke="midnightblue" d="M1040.93,-302.08C1047.85,-294.3 1058.07,-282.8 1066.45,-273.37"/>
<polygon fill="midnightblue" stroke="midnightblue" points="1069.19,-275.55 1073.22,-265.75 1063.96,-270.9 1069.19,-275.55"/>
</g>
<!-- Node24&#45;&gt;Node2 -->
<g id="edge43" class="edge">
<title>Node24&#45;&gt;Node2</title>
<path fill="none" stroke="midnightblue" d="M342.65,-414.41C288.35,-391.21 145.73,-321.41 95,-210 89.29,-197.46 88.04,-190.89 95,-179 112.84,-148.55 205.66,-105.89 254.65,-85.01"/>
<polygon fill="midnightblue" stroke="midnightblue" points="256.26,-88.13 264.11,-81.02 253.53,-81.68 256.26,-88.13"/>
</g>
<!-- Node24&#45;&gt;Node3 -->
<g id="edge45" class="edge">
<title>Node24&#45;&gt;Node3</title>
<path fill="none" stroke="midnightblue" d="M333.42,-414.44C299.71,-405.01 245.43,-389.83 209.01,-379.63"/>
<polygon fill="midnightblue" stroke="midnightblue" points="209.81,-376.23 199.24,-376.9 207.93,-382.97 209.81,-376.23"/>
</g>
<!-- Node24&#45;&gt;Node5 -->
<g id="edge63" class="edge">
<title>Node24&#45;&gt;Node5</title>
<path fill="none" stroke="midnightblue" d="M353.68,-414.2C344.77,-405.9 332.5,-392.57 327,-378 314.07,-343.7 316.9,-299.99 320.02,-275.6"/>
<polygon fill="midnightblue" stroke="midnightblue" points="323.5,-275.97 321.46,-265.58 316.57,-274.98 323.5,-275.97"/>
</g>
<!-- Node24&#45;&gt;Node6 -->
<g id="edge42" class="edge">
<title>Node24&#45;&gt;Node6</title>
<path fill="none" stroke="midnightblue" d="M352.56,-414.35C325.33,-392.91 257.25,-334.07 235,-266 220.24,-220.85 263.04,-173.42 289.24,-149.6"/>
<polygon fill="midnightblue" stroke="midnightblue" points="291.87,-151.96 297.07,-142.73 287.25,-146.7 291.87,-151.96"/>
</g>
<!-- Node24&#45;&gt;Node8 -->
<g id="edge47" class="edge">
<title>Node24&#45;&gt;Node8</title>
<path fill="none" stroke="midnightblue" d="M443.69,-420.12C539.59,-415.53 694.08,-404.23 745,-378 779.68,-360.13 804,-352.02 804,-313 804,-313 804,-313 804,-255 804,-202.35 644.63,-162.51 556.67,-144.53"/>
<polygon fill="midnightblue" stroke="midnightblue" points="557.33,-141.09 546.83,-142.55 555.95,-147.95 557.33,-141.09"/>
</g>
<!-- Node24&#45;&gt;Node12 -->
<g id="edge65" class="edge">
<title>Node24&#45;&gt;Node12</title>
<path fill="none" stroke="midnightblue" d="M443.88,-420.85C653.81,-414.15 1205,-389.29 1205,-313 1205,-313 1205,-313 1205,-193.5 1205,-108.96 1095.04,-82.93 1013.93,-75.24"/>
<polygon fill="midnightblue" stroke="midnightblue" points="1013.96,-71.73 1003.69,-74.35 1013.35,-78.7 1013.96,-71.73"/>
</g>
<!-- Node24&#45;&gt;Node16 -->
<g id="edge48" class="edge">
<title>Node24&#45;&gt;Node16</title>
<path fill="none" stroke="midnightblue" d="M443.53,-418.49C630.47,-407.07 1085.42,-374.13 1129,-322 1144.87,-303.02 1128.73,-263.35 1110,-246 1081.47,-219.57 1041.03,-206.53 1004.2,-200.26"/>
<polygon fill="midnightblue" stroke="midnightblue" points="1004.34,-196.74 993.92,-198.66 1003.26,-203.66 1004.34,-196.74"/>
</g>
<!-- Node24&#45;&gt;Node19 -->
<g id="edge64" class="edge">
<title>Node24&#45;&gt;Node19</title>
<path fill="none" stroke="midnightblue" d="M361.17,-414.47C354.83,-393.81 341.55,-339.97 361,-302 373.48,-277.63 397.83,-290.01 411,-266 418.66,-252.04 419.57,-234.1 418.62,-219.81"/>
<polygon fill="midnightblue" stroke="midnightblue" points="422.09,-219.32 417.6,-209.72 415.12,-220.02 422.09,-219.32"/>
</g>
<!-- Node25 -->
<g id="node25" class="node">
<title>Node25</title>
<g id="a_node25"><a xlink:title=" ">
<polygon fill="none" stroke="#bfbfbf" points="369.5,-302.5 369.5,-321.5 422.5,-321.5 422.5,-302.5 369.5,-302.5"/>
<text text-anchor="middle" x="396" y="-309.5" font-family="Helvetica,sans-Serif" font-size="10.00">iterator</text>
</a>
</g>
</g>
<!-- Node24&#45;&gt;Node25 -->
<g id="edge44" class="edge">
<title>Node24&#45;&gt;Node25</title>
<path fill="none" stroke="midnightblue" d="M366.51,-414.37C371.7,-396.54 383.7,-355.3 390.68,-331.27"/>
<polygon fill="midnightblue" stroke="midnightblue" points="394.07,-332.17 393.5,-321.59 387.35,-330.22 394.07,-332.17"/>
</g>
<!-- Node26 -->
<g id="node26" class="node">
<title>Node26</title>
<g id="a_node26"><a xlink:title=" ">
<polygon fill="none" stroke="#bfbfbf" points="440.5,-302.5 440.5,-321.5 487.5,-321.5 487.5,-302.5 440.5,-302.5"/>
<text text-anchor="middle" x="464" y="-309.5" font-family="Helvetica,sans-Serif" font-size="10.00">vector</text>
</a>
</g>
</g>
<!-- Node24&#45;&gt;Node26 -->
<g id="edge46" class="edge">
<title>Node24&#45;&gt;Node26</title>
<path fill="none" stroke="midnightblue" d="M371.85,-414.37C388.57,-395.97 427.94,-352.67 449.41,-329.05"/>
<polygon fill="midnightblue" stroke="midnightblue" points="452.05,-331.35 456.19,-321.59 446.87,-326.64 452.05,-331.35"/>
</g>
<!-- Node27 -->
<g id="node27" class="node">
<title>Node27</title>
<g id="a_node27"><a xlink:href="TypeConverter_8h.html" target="_top" xlink:title=" ">
<polygon fill="none" stroke="black" points="572,-358.5 572,-377.5 736,-377.5 736,-358.5 572,-358.5"/>
<text text-anchor="middle" x="654" y="-365.5" font-family="Helvetica,sans-Serif" font-size="10.00">open62541pp/TypeConverter.h</text>
</a>
</g>
</g>
<!-- Node24&#45;&gt;Node27 -->
<g id="edge49" class="edge">
<title>Node24&#45;&gt;Node27</title>
<path fill="none" stroke="midnightblue" d="M409.95,-414.44C461.07,-404.92 543.65,-389.55 598.38,-379.36"/>
<polygon fill="midnightblue" stroke="midnightblue" points="599.07,-382.79 608.26,-377.52 597.79,-375.91 599.07,-382.79"/>
</g>
<!-- Node27&#45;&gt;Node5 -->
<g id="edge58" class="edge">
<title>Node27&#45;&gt;Node5</title>
<path fill="none" stroke="midnightblue" d="M640.43,-358.32C618.2,-344.46 572.26,-317.35 530,-302 485.29,-285.76 432.92,-274.44 392.05,-267.22"/>
<polygon fill="midnightblue" stroke="midnightblue" points="392.63,-263.77 382.18,-265.52 391.44,-270.67 392.63,-263.77"/>
</g>
<!-- Node27&#45;&gt;Node7 -->
<g id="edge54" class="edge">
<title>Node27&#45;&gt;Node7</title>
<path fill="none" stroke="midnightblue" d="M625.28,-358.36C599.72,-350.25 561.6,-337.13 530,-322 514.53,-314.59 513.16,-307.73 497,-302 324.25,-240.75 204.86,-356.71 95,-210 54.28,-155.62 64.72,-68.05 71.9,-29.84"/>
<polygon fill="midnightblue" stroke="midnightblue" points="75.4,-30.16 73.96,-19.66 68.54,-28.77 75.4,-30.16"/>
</g>
<!-- Node27&#45;&gt;Node8 -->
<g id="edge56" class="edge">
<title>Node27&#45;&gt;Node8</title>
<path fill="none" stroke="midnightblue" d="M646.18,-358.38C618.73,-328.08 527.96,-227.32 519,-210 509.64,-191.92 504.73,-169 502.27,-153.09"/>
<polygon fill="midnightblue" stroke="midnightblue" points="505.7,-152.33 500.88,-142.9 498.76,-153.28 505.7,-152.33"/>
</g>
<!-- Node27&#45;&gt;Node11 -->
<g id="edge60" class="edge">
<title>Node27&#45;&gt;Node11</title>
<path fill="none" stroke="midnightblue" d="M671.2,-358.39C684.25,-350.79 701.23,-338.39 709,-322 728.82,-280.18 745.27,-277.26 671,-179 639.96,-137.93 588.14,-108.15 551.06,-90.69"/>
<polygon fill="midnightblue" stroke="midnightblue" points="552.52,-87.51 541.97,-86.52 549.6,-93.87 552.52,-87.51"/>
</g>
<!-- Node27&#45;&gt;Node12 -->
<g id="edge61" class="edge">
<title>Node27&#45;&gt;Node12</title>
<path fill="none" stroke="midnightblue" d="M692.99,-358.43C724.5,-350.82 769.59,-338.38 807,-322 867.26,-295.62 876.59,-278.12 934,-246 964.19,-229.11 985.07,-239.58 1003,-210 1029.33,-166.56 977.47,-113.04 947.77,-87.48"/>
<polygon fill="midnightblue" stroke="midnightblue" points="949.99,-84.77 940.07,-81.04 945.5,-90.14 949.99,-84.77"/>
</g>
<!-- Node27&#45;&gt;Node16 -->
<g id="edge57" class="edge">
<title>Node27&#45;&gt;Node16</title>
<path fill="none" stroke="midnightblue" d="M689.99,-358.46C716.21,-351.24 751.91,-339.29 780,-322 830.23,-291.09 877.35,-238.75 899.6,-212.13"/>
<polygon fill="midnightblue" stroke="midnightblue" points="902.51,-214.1 906.16,-204.15 897.1,-209.65 902.51,-214.1"/>
</g>
<!-- Node27&#45;&gt;Node18 -->
<g id="edge53" class="edge">
<title>Node27&#45;&gt;Node18</title>
<path fill="none" stroke="midnightblue" d="M687.21,-358.45C706.34,-351.74 729.08,-340.39 742,-322 778.53,-270.01 773.61,-189.49 768.98,-153.06"/>
<polygon fill="midnightblue" stroke="midnightblue" points="772.41,-152.28 767.54,-142.87 765.48,-153.26 772.41,-152.28"/>
</g>
<!-- Node27&#45;&gt;Node19 -->
<g id="edge59" class="edge">
<title>Node27&#45;&gt;Node19</title>
<path fill="none" stroke="midnightblue" d="M642.39,-358.3C625.61,-345.75 593.57,-321.9 566,-302 523.86,-271.58 474.58,-237.01 444.08,-215.73"/>
<polygon fill="midnightblue" stroke="midnightblue" points="445.82,-212.68 435.62,-209.83 441.82,-218.42 445.82,-212.68"/>
</g>
<!-- Node27&#45;&gt;Node21 -->
<g id="edge62" class="edge">
<title>Node27&#45;&gt;Node21</title>
<path fill="none" stroke="midnightblue" d="M714.05,-358.44C781.69,-348.81 891.48,-333.16 962.97,-322.98"/>
<polygon fill="midnightblue" stroke="midnightblue" points="963.82,-326.39 973.23,-321.52 962.83,-319.46 963.82,-326.39"/>
</g>
<!-- Node27&#45;&gt;Node22 -->
<g id="edge51" class="edge">
<title>Node27&#45;&gt;Node22</title>
<path fill="none" stroke="midnightblue" d="M736.01,-362.47C784.04,-357.22 844.73,-345.98 894,-322 918.13,-310.25 940.48,-288.48 954.17,-273.39"/>
<polygon fill="midnightblue" stroke="midnightblue" points="956.87,-275.62 960.84,-265.8 951.61,-271 956.87,-275.62"/>
</g>
<!-- Node27&#45;&gt;Node25 -->
<g id="edge52" class="edge">
<title>Node27&#45;&gt;Node25</title>
<path fill="none" stroke="midnightblue" d="M608.8,-358.46C565.96,-350.22 499.57,-337.1 432.59,-322.05"/>
<polygon fill="midnightblue" stroke="midnightblue" points="433.23,-318.61 422.7,-319.82 431.69,-325.44 433.23,-318.61"/>
</g>
<!-- Node27&#45;&gt;Node26 -->
<g id="edge55" class="edge">
<title>Node27&#45;&gt;Node26</title>
<path fill="none" stroke="midnightblue" d="M623.89,-358.44C589.51,-348.67 533.41,-332.73 497.63,-322.56"/>
<polygon fill="midnightblue" stroke="midnightblue" points="498.24,-319.09 487.66,-319.73 496.32,-325.83 498.24,-319.09"/>
</g>
<!-- Node28 -->
<g id="node28" class="node">
<title>Node28</title>
<g id="a_node28"><a xlink:title=" ">
<polygon fill="none" stroke="#bfbfbf" points="658,-302.5 658,-321.5 700,-321.5 700,-302.5 658,-302.5"/>
<text text-anchor="middle" x="679" y="-309.5" font-family="Helvetica,sans-Serif" font-size="10.00">array</text>
</a>
</g>
</g>
<!-- Node27&#45;&gt;Node28 -->
<g id="edge50" class="edge">
<title>Node27&#45;&gt;Node28</title>
<path fill="none" stroke="midnightblue" d="M658.13,-358.08C661.51,-350.77 666.42,-340.18 670.62,-331.1"/>
<polygon fill="midnightblue" stroke="midnightblue" points="673.92,-332.3 674.95,-321.75 667.57,-329.36 673.92,-332.3"/>
</g>
</g>
</svg>
