<?xml version="1.0" encoding="UTF-8" standalone="no"?>
<!DOCTYPE svg PUBLIC "-//W3C//DTD SVG 1.1//EN"
 "http://www.w3.org/Graphics/SVG/1.1/DTD/svg11.dtd">
<!-- Generated by graphviz version 2.43.0 (0)
 -->
<!-- Title: /home/runner/work/open62541pp/open62541pp/include/open62541pp/types/DataValue.h Pages: 1 -->
<svg width="665pt" height="280pt"
 viewBox="0.00 0.00 665.00 280.00" xmlns="http://www.w3.org/2000/svg" xmlns:xlink="http://www.w3.org/1999/xlink">
<g id="graph0" class="graph" transform="scale(1 1) rotate(0) translate(4 276)">
<title>/home/runner/work/open62541pp/open62541pp/include/open62541pp/types/DataValue.h</title>
<!-- Node1 -->
<g id="Node000001" class="node">
<title>Node1</title>
<g id="a_Node000001"><a xlink:title=" ">
<polygon fill="#999999" stroke="#666666" points="337,-272 144,-272 144,-231 337,-231 337,-272"/>
<text text-anchor="start" x="152" y="-260" font-family="Helvetica,sans-Serif" font-size="10.00">/home/runner/work/open62541pp</text>
<text text-anchor="start" x="152" y="-249" font-family="Helvetica,sans-Serif" font-size="10.00">/open62541pp/include/open62541pp</text>
<text text-anchor="middle" x="240.5" y="-238" font-family="Helvetica,sans-Serif" font-size="10.00">/types/DataValue.h</text>
</a>
</g>
</g>
<!-- Node2 -->
<g id="Node000002" class="node">
<title>Node2</title>
<g id="a_Node000002"><a xlink:href="AccessControl_8h.html" target="_top" xlink:title=" ">
<polygon fill="white" stroke="#666666" points="193,-195 0,-195 0,-154 193,-154 193,-195"/>
<text text-anchor="start" x="8" y="-183" font-family="Helvetica,sans-Serif" font-size="10.00">/home/runner/work/open62541pp</text>
<text text-anchor="start" x="8" y="-172" font-family="Helvetica,sans-Serif" font-size="10.00">/open62541pp/include/open62541pp</text>
<text text-anchor="middle" x="96.5" y="-161" font-family="Helvetica,sans-Serif" font-size="10.00">/AccessControl.h</text>
</a>
</g>
</g>
<!-- Node1&#45;&gt;Node2 -->
<g id="edge1_Node000001_Node000002" class="edge">
<title>Node1&#45;&gt;Node2</title>
<g id="a_edge1_Node000001_Node000002"><a xlink:title=" ">
<path fill="none" stroke="#63b8ff" d="M194.06,-226.31C174.64,-216.2 152.37,-204.6 134.02,-195.04"/>
<polygon fill="#63b8ff" stroke="#63b8ff" points="192.56,-229.48 203.04,-230.99 195.79,-223.27 192.56,-229.48"/>
</a>
</g>
</g>
<!-- Node3 -->
<g id="Node000003" class="node">
<title>Node3</title>
<g id="a_Node000003"><a xlink:href="open62541pp_8h.html" target="_top" xlink:title=" ">
<polygon fill="white" stroke="#666666" points="381,-41 188,-41 188,0 381,0 381,-41"/>
<text text-anchor="start" x="196" y="-29" font-family="Helvetica,sans-Serif" font-size="10.00">/home/runner/work/open62541pp</text>
<text text-anchor="start" x="196" y="-18" font-family="Helvetica,sans-Serif" font-size="10.00">/open62541pp/include/open62541pp</text>
<text text-anchor="middle" x="284.5" y="-7" font-family="Helvetica,sans-Serif" font-size="10.00">/open62541pp.h</text>
</a>
</g>
</g>
<!-- Node1&#45;&gt;Node3 -->
<g id="edge5_Node000001_Node000003" class="edge">
<title>Node1&#45;&gt;Node3</title>
<g id="a_edge5_Node000001_Node000003"><a xlink:title=" ">
<path fill="none" stroke="#63b8ff" d="M234.7,-220.67C229.12,-185.3 223.75,-125.08 240.5,-77 245.19,-63.53 254.67,-50.87 263.62,-41.06"/>
<polygon fill="#63b8ff" stroke="#63b8ff" points="231.3,-221.53 236.41,-230.81 238.2,-220.37 231.3,-221.53"/>
</a>
</g>
</g>
<!-- Node4 -->
<g id="Node000004" class="node">
<title>Node4</title>
<g id="a_Node000004"><a xlink:href="Node_8h.html" target="_top" xlink:title=" ">
<polygon fill="white" stroke="#666666" points="445.5,-118 249.5,-118 249.5,-77 445.5,-77 445.5,-118"/>
<text text-anchor="start" x="257.5" y="-106" font-family="Helvetica,sans-Serif" font-size="10.00">/home/runner/work/open62541pp</text>
<text text-anchor="start" x="257.5" y="-95" font-family="Helvetica,sans-Serif" font-size="10.00">/open62541pp/include/open62541pp/</text>
<text text-anchor="middle" x="347.5" y="-84" font-family="Helvetica,sans-Serif" font-size="10.00">Node.h</text>
</a>
</g>
</g>
<!-- Node1&#45;&gt;Node4 -->
<g id="edge3_Node000001_Node000004" class="edge">
<title>Node1&#45;&gt;Node4</title>
<g id="a_edge3_Node000001_Node000004"><a xlink:title=" ">
<path fill="none" stroke="#63b8ff" d="M247.79,-221C253.77,-200.8 263.69,-174.13 278.5,-154 288.79,-140.01 303.44,-127.55 316.6,-118.01"/>
<polygon fill="#63b8ff" stroke="#63b8ff" points="244.34,-220.33 245.02,-230.91 251.08,-222.22 244.34,-220.33"/>
</a>
</g>
</g>
<!-- Node5 -->
<g id="Node000005" class="node">
<title>Node5</title>
<g id="a_Node000005"><a xlink:href="Attribute_8h.html" target="_top" xlink:title=" ">
<polygon fill="white" stroke="#666666" points="481,-195 288,-195 288,-154 481,-154 481,-195"/>
<text text-anchor="start" x="296" y="-183" font-family="Helvetica,sans-Serif" font-size="10.00">/home/runner/work/open62541pp</text>
<text text-anchor="start" x="296" y="-172" font-family="Helvetica,sans-Serif" font-size="10.00">/open62541pp/include/open62541pp</text>
<text text-anchor="middle" x="384.5" y="-161" font-family="Helvetica,sans-Serif" font-size="10.00">/services/Attribute.h</text>
</a>
</g>
</g>
<!-- Node1&#45;&gt;Node5 -->
<g id="edge6_Node000001_Node000005" class="edge">
<title>Node1&#45;&gt;Node5</title>
<g id="a_edge6_Node000001_Node000005"><a xlink:title=" ">
<path fill="none" stroke="#63b8ff" d="M286.94,-226.31C306.36,-216.2 328.63,-204.6 346.98,-195.04"/>
<polygon fill="#63b8ff" stroke="#63b8ff" points="285.21,-223.27 277.96,-230.99 288.44,-229.48 285.21,-223.27"/>
</a>
</g>
</g>
<!-- Node2&#45;&gt;Node3 -->
<g id="edge2_Node000002_Node000003" class="edge">
<title>Node2&#45;&gt;Node3</title>
<g id="a_edge2_Node000002_Node000003"><a xlink:title=" ">
<path fill="none" stroke="#63b8ff" d="M125.79,-146.74C147.82,-126.94 178.98,-99.6 207.5,-77 223.13,-64.62 241.18,-51.54 255.88,-41.19"/>
<polygon fill="#63b8ff" stroke="#63b8ff" points="123.19,-144.37 118.11,-153.67 127.88,-149.57 123.19,-144.37"/>
</a>
</g>
</g>
<!-- Node4&#45;&gt;Node3 -->
<g id="edge4_Node000004_Node000003" class="edge">
<title>Node4&#45;&gt;Node3</title>
<g id="a_edge4_Node000004_Node000003"><a xlink:title=" ">
<path fill="none" stroke="#63b8ff" d="M324.36,-68.95C316.59,-59.7 308.09,-49.58 300.94,-41.07"/>
<polygon fill="#63b8ff" stroke="#63b8ff" points="321.84,-71.39 330.95,-76.79 327.2,-66.89 321.84,-71.39"/>
</a>
</g>
</g>
<!-- Node5&#45;&gt;Node4 -->
<g id="edge7_Node000005_Node000004" class="edge">
<title>Node5&#45;&gt;Node4</title>
<g id="a_edge7_Node000005_Node000004"><a xlink:title=" ">
<path fill="none" stroke="#63b8ff" d="M370.22,-144.55C365.84,-135.69 361.14,-126.15 357.16,-118.07"/>
<polygon fill="#63b8ff" stroke="#63b8ff" points="367.22,-146.38 374.78,-153.79 373.49,-143.28 367.22,-146.38"/>
</a>
</g>
</g>
<!-- Node6 -->
<g id="Node000006" class="node">
<title>Node6</title>
<g id="a_Node000006"><a xlink:href="services_8h.html" target="_top" xlink:title=" ">
<polygon fill="white" stroke="#666666" points="657,-118 464,-118 464,-77 657,-77 657,-118"/>
<text text-anchor="start" x="472" y="-106" font-family="Helvetica,sans-Serif" font-size="10.00">/home/runner/work/open62541pp</text>
<text text-anchor="start" x="472" y="-95" font-family="Helvetica,sans-Serif" font-size="10.00">/open62541pp/include/open62541pp</text>
<text text-anchor="middle" x="560.5" y="-84" font-family="Helvetica,sans-Serif" font-size="10.00">/services/services.h</text>
</a>
</g>
</g>
<!-- Node5&#45;&gt;Node6 -->
<g id="edge8_Node000005_Node000006" class="edge">
<title>Node5&#45;&gt;Node6</title>
<g id="a_edge8_Node000005_Node000006"><a xlink:title=" ">
<path fill="none" stroke="#63b8ff" d="M439.66,-150C463.76,-139.72 491.7,-127.82 514.64,-118.04"/>
<polygon fill="#63b8ff" stroke="#63b8ff" points="438.11,-146.85 430.28,-153.99 440.85,-153.29 438.11,-146.85"/>
</a>
</g>
</g>
<!-- Node6&#45;&gt;Node3 -->
<g id="edge9_Node000006_Node000003" class="edge">
<title>Node6&#45;&gt;Node3</title>
<g id="a_edge9_Node000006_Node000003"><a xlink:title=" ">
<path fill="none" stroke="#63b8ff" d="M478.98,-74.35C440.1,-63.78 393.98,-51.25 356.41,-41.04"/>
<polygon fill="#63b8ff" stroke="#63b8ff" points="478.14,-77.75 488.7,-76.99 479.97,-70.99 478.14,-77.75"/>
</a>
</g>
</g>
</g>
</svg>
