<?xml version="1.0" encoding="UTF-8" standalone="no"?>
<!DOCTYPE svg PUBLIC "-//W3C//DTD SVG 1.1//EN"
 "http://www.w3.org/Graphics/SVG/1.1/DTD/svg11.dtd">
<!-- Generated by graphviz version 2.43.0 (0)
 -->
<!-- Title: /home/runner/work/open62541pp/open62541pp/include/open62541pp/types/DateTime.h Pages: 1 -->
<svg width="887pt" height="330pt"
 viewBox="0.00 0.00 887.00 330.00" xmlns="http://www.w3.org/2000/svg" xmlns:xlink="http://www.w3.org/1999/xlink">
<g id="graph0" class="graph" transform="scale(1 1) rotate(0) translate(4 326)">
<title>/home/runner/work/open62541pp/open62541pp/include/open62541pp/types/DateTime.h</title>
<!-- Node1 -->
<g id="node1" class="node">
<title>Node1</title>
<g id="a_node1"><a xlink:title=" ">
<polygon fill="#bfbfbf" stroke="black" points="53.5,-280.5 53.5,-321.5 246.5,-321.5 246.5,-280.5 53.5,-280.5"/>
<text text-anchor="start" x="61.5" y="-309.5" font-family="Helvetica,sans-Serif" font-size="10.00">/home/runner/work/open62541pp</text>
<text text-anchor="start" x="61.5" y="-298.5" font-family="Helvetica,sans-Serif" font-size="10.00">/open62541pp/include/open62541pp</text>
<text text-anchor="middle" x="150" y="-287.5" font-family="Helvetica,sans-Serif" font-size="10.00">/types/DateTime.h</text>
</a>
</g>
</g>
<!-- Node2 -->
<g id="node2" class="node">
<title>Node2</title>
<g id="a_node2"><a xlink:title=" ">
<polygon fill="none" stroke="#bfbfbf" points="0,-224.5 0,-243.5 50,-243.5 50,-224.5 0,-224.5"/>
<text text-anchor="middle" x="25" y="-231.5" font-family="Helvetica,sans-Serif" font-size="10.00">chrono</text>
</a>
</g>
</g>
<!-- Node1&#45;&gt;Node2 -->
<g id="edge1" class="edge">
<title>Node1&#45;&gt;Node2</title>
<path fill="none" stroke="midnightblue" d="M112.5,-280.5C92.59,-270.15 68.64,-257.69 50.84,-248.43"/>
<polygon fill="midnightblue" stroke="midnightblue" points="52.13,-245.16 41.64,-243.65 48.9,-251.37 52.13,-245.16"/>
</g>
<!-- Node3 -->
<g id="node3" class="node">
<title>Node3</title>
<g id="a_node3"><a xlink:title=" ">
<polygon fill="none" stroke="#bfbfbf" points="144,-56.5 144,-75.5 194,-75.5 194,-56.5 144,-56.5"/>
<text text-anchor="middle" x="169" y="-63.5" font-family="Helvetica,sans-Serif" font-size="10.00">cstdint</text>
</a>
</g>
</g>
<!-- Node1&#45;&gt;Node3 -->
<g id="edge2" class="edge">
<title>Node1&#45;&gt;Node3</title>
<path fill="none" stroke="midnightblue" d="M136.93,-280.44C130.79,-270.09 124.14,-256.87 121,-244 118.9,-235.36 119.69,-232.79 121,-224 128.73,-172.26 150.05,-114 161.5,-85.17"/>
<polygon fill="midnightblue" stroke="midnightblue" points="164.85,-86.22 165.36,-75.64 158.36,-83.6 164.85,-86.22"/>
</g>
<!-- Node4 -->
<g id="node4" class="node">
<title>Node4</title>
<g id="a_node4"><a xlink:title=" ">
<polygon fill="none" stroke="#bfbfbf" points="130.5,-224.5 130.5,-243.5 169.5,-243.5 169.5,-224.5 130.5,-224.5"/>
<text text-anchor="middle" x="150" y="-231.5" font-family="Helvetica,sans-Serif" font-size="10.00">ratio</text>
</a>
</g>
</g>
<!-- Node1&#45;&gt;Node4 -->
<g id="edge3" class="edge">
<title>Node1&#45;&gt;Node4</title>
<path fill="none" stroke="midnightblue" d="M150,-280.5C150,-272.07 150,-262.24 150,-253.87"/>
<polygon fill="midnightblue" stroke="midnightblue" points="153.5,-253.65 150,-243.65 146.5,-253.65 153.5,-253.65"/>
</g>
<!-- Node5 -->
<g id="node5" class="node">
<title>Node5</title>
<g id="a_node5"><a xlink:href="TypeWrapper_8h.html" target="_top" xlink:title=" ">
<polygon fill="none" stroke="black" points="257,-224.5 257,-243.5 415,-243.5 415,-224.5 257,-224.5"/>
<text text-anchor="middle" x="336" y="-231.5" font-family="Helvetica,sans-Serif" font-size="10.00">open62541pp/TypeWrapper.h</text>
</a>
</g>
</g>
<!-- Node1&#45;&gt;Node5 -->
<g id="edge4" class="edge">
<title>Node1&#45;&gt;Node5</title>
<path fill="none" stroke="midnightblue" d="M205.81,-280.5C236.93,-269.62 274.7,-256.42 301.53,-247.05"/>
<polygon fill="midnightblue" stroke="midnightblue" points="302.96,-250.26 311.24,-243.65 300.65,-243.65 302.96,-250.26"/>
</g>
<!-- Node13 -->
<g id="node13" class="node">
<title>Node13</title>
<g id="a_node13"><a xlink:href="open62541_8h.html" target="_top" xlink:title=" ">
<polygon fill="none" stroke="black" points="615.5,-56.5 615.5,-75.5 764.5,-75.5 764.5,-56.5 615.5,-56.5"/>
<text text-anchor="middle" x="690" y="-63.5" font-family="Helvetica,sans-Serif" font-size="10.00">open62541pp/open62541.h</text>
</a>
</g>
</g>
<!-- Node1&#45;&gt;Node13 -->
<g id="edge34" class="edge">
<title>Node1&#45;&gt;Node13</title>
<path fill="none" stroke="midnightblue" d="M246.56,-299.43C420.83,-296.11 777.02,-278.19 854,-188 896.32,-138.41 792.78,-97.53 731.41,-78.5"/>
<polygon fill="midnightblue" stroke="midnightblue" points="732.17,-75.08 721.58,-75.53 730.14,-81.78 732.17,-75.08"/>
</g>
<!-- Node5&#45;&gt;Node3 -->
<g id="edge6" class="edge">
<title>Node5&#45;&gt;Node3</title>
<path fill="none" stroke="midnightblue" d="M288.96,-224.45C262.12,-217.83 228.96,-206.57 204,-188 179.46,-169.75 173.33,-161.13 164,-132 159.14,-116.84 161.13,-98.72 163.91,-85.47"/>
<polygon fill="midnightblue" stroke="midnightblue" points="167.33,-86.2 166.3,-75.66 160.53,-84.55 167.33,-86.2"/>
</g>
<!-- Node6 -->
<g id="node6" class="node">
<title>Node6</title>
<g id="a_node6"><a xlink:title=" ">
<polygon fill="none" stroke="#bfbfbf" points="173,-112.5 173,-131.5 225,-131.5 225,-112.5 173,-112.5"/>
<text text-anchor="middle" x="199" y="-119.5" font-family="Helvetica,sans-Serif" font-size="10.00">cassert</text>
</a>
</g>
</g>
<!-- Node5&#45;&gt;Node6 -->
<g id="edge5" class="edge">
<title>Node5&#45;&gt;Node6</title>
<path fill="none" stroke="midnightblue" d="M286.82,-224.48C263.42,-218.08 236.75,-207.01 219,-188 207.3,-175.47 202.44,-156.25 200.42,-141.95"/>
<polygon fill="midnightblue" stroke="midnightblue" points="203.88,-141.34 199.34,-131.76 196.92,-142.08 203.88,-141.34"/>
</g>
<!-- Node7 -->
<g id="node7" class="node">
<title>Node7</title>
<g id="a_node7"><a xlink:title=" ">
<polygon fill="none" stroke="#bfbfbf" points="158.5,-0.5 158.5,-19.5 227.5,-19.5 227.5,-0.5 158.5,-0.5"/>
<text text-anchor="middle" x="193" y="-7.5" font-family="Helvetica,sans-Serif" font-size="10.00">type_traits</text>
</a>
</g>
</g>
<!-- Node5&#45;&gt;Node7 -->
<g id="edge7" class="edge">
<title>Node5&#45;&gt;Node7</title>
<path fill="none" stroke="midnightblue" d="M256.97,-225.15C229.2,-218.88 199.57,-207.73 178,-188 132.47,-146.36 107.86,-111.41 135,-56 141.52,-42.68 154.1,-32.18 165.87,-24.68"/>
<polygon fill="midnightblue" stroke="midnightblue" points="167.77,-27.62 174.61,-19.53 164.22,-21.59 167.77,-27.62"/>
</g>
<!-- Node8 -->
<g id="node8" class="node">
<title>Node8</title>
<g id="a_node8"><a xlink:title=" ">
<polygon fill="none" stroke="#bfbfbf" points="410.5,-168.5 410.5,-187.5 455.5,-187.5 455.5,-168.5 410.5,-168.5"/>
<text text-anchor="middle" x="433" y="-175.5" font-family="Helvetica,sans-Serif" font-size="10.00">utility</text>
</a>
</g>
</g>
<!-- Node5&#45;&gt;Node8 -->
<g id="edge8" class="edge">
<title>Node5&#45;&gt;Node8</title>
<path fill="none" stroke="midnightblue" d="M351.58,-224.32C367,-215.74 390.81,-202.49 408.71,-192.52"/>
<polygon fill="midnightblue" stroke="midnightblue" points="410.42,-195.58 417.45,-187.65 407.01,-189.46 410.42,-195.58"/>
</g>
<!-- Node9 -->
<g id="node9" class="node">
<title>Node9</title>
<g id="a_node9"><a xlink:href="Common_8h.html" target="_top" xlink:title=" ">
<polygon fill="none" stroke="black" points="319.5,-112.5 319.5,-131.5 458.5,-131.5 458.5,-112.5 319.5,-112.5"/>
<text text-anchor="middle" x="389" y="-119.5" font-family="Helvetica,sans-Serif" font-size="10.00">open62541pp/Common.h</text>
</a>
</g>
</g>
<!-- Node5&#45;&gt;Node9 -->
<g id="edge9" class="edge">
<title>Node5&#45;&gt;Node9</title>
<path fill="none" stroke="midnightblue" d="M341.81,-224.27C347.59,-215.37 356.52,-201.06 363,-188 370.59,-172.69 377.69,-154.59 382.55,-141.38"/>
<polygon fill="midnightblue" stroke="midnightblue" points="385.97,-142.2 386.06,-131.6 379.38,-139.83 385.97,-142.2"/>
</g>
<!-- Node5&#45;&gt;Node13 -->
<g id="edge33" class="edge">
<title>Node5&#45;&gt;Node13</title>
<path fill="none" stroke="midnightblue" d="M415.3,-229.55C494.13,-224.71 608.29,-213.44 644,-188 677.15,-164.38 686.42,-113.61 689,-85.94"/>
<polygon fill="midnightblue" stroke="midnightblue" points="692.52,-85.86 689.75,-75.64 685.54,-85.36 692.52,-85.86"/>
</g>
<!-- Node17 -->
<g id="node17" class="node">
<title>Node17</title>
<g id="a_node17"><a xlink:href="Comparison_8h.html" target="_top" xlink:title=" ">
<polygon fill="none" stroke="black" points="691.5,-168.5 691.5,-187.5 844.5,-187.5 844.5,-168.5 691.5,-168.5"/>
<text text-anchor="middle" x="768" y="-175.5" font-family="Helvetica,sans-Serif" font-size="10.00">open62541pp/Comparison.h</text>
</a>
</g>
</g>
<!-- Node5&#45;&gt;Node17 -->
<g id="edge20" class="edge">
<title>Node5&#45;&gt;Node17</title>
<path fill="none" stroke="midnightblue" d="M404.45,-224.44C482.02,-214.75 608.23,-198.97 689.67,-188.79"/>
<polygon fill="midnightblue" stroke="midnightblue" points="690.38,-192.23 699.87,-187.52 689.51,-185.28 690.38,-192.23"/>
</g>
<!-- Node18 -->
<g id="node18" class="node">
<title>Node18</title>
<g id="a_node18"><a xlink:href="ErrorHandling_8h.html" target="_top" xlink:title=" ">
<polygon fill="none" stroke="black" points="473.5,-168.5 473.5,-187.5 634.5,-187.5 634.5,-168.5 473.5,-168.5"/>
<text text-anchor="middle" x="554" y="-175.5" font-family="Helvetica,sans-Serif" font-size="10.00">open62541pp/ErrorHandling.h</text>
</a>
</g>
</g>
<!-- Node5&#45;&gt;Node18 -->
<g id="edge22" class="edge">
<title>Node5&#45;&gt;Node18</title>
<path fill="none" stroke="midnightblue" d="M370.54,-224.44C408.25,-215.1 468.74,-200.12 509.86,-189.93"/>
<polygon fill="midnightblue" stroke="midnightblue" points="510.75,-193.32 519.62,-187.52 509.07,-186.52 510.75,-193.32"/>
</g>
<!-- Node21 -->
<g id="node21" class="node">
<title>Node21</title>
<g id="a_node21"><a xlink:href="Helper_8h.html" target="_top" xlink:title=" ">
<polygon fill="none" stroke="black" points="228,-168.5 228,-187.5 354,-187.5 354,-168.5 228,-168.5"/>
<text text-anchor="middle" x="291" y="-175.5" font-family="Helvetica,sans-Serif" font-size="10.00">open62541pp/Helper.h</text>
</a>
</g>
</g>
<!-- Node5&#45;&gt;Node21 -->
<g id="edge26" class="edge">
<title>Node5&#45;&gt;Node21</title>
<path fill="none" stroke="midnightblue" d="M328.57,-224.08C322.15,-216.38 312.69,-205.03 304.88,-195.65"/>
<polygon fill="midnightblue" stroke="midnightblue" points="307.38,-193.19 298.29,-187.75 302.01,-197.67 307.38,-193.19"/>
</g>
<!-- Node9&#45;&gt;Node3 -->
<g id="edge10" class="edge">
<title>Node9&#45;&gt;Node3</title>
<path fill="none" stroke="midnightblue" d="M354.14,-112.44C313.04,-102.35 245.12,-85.68 203.97,-75.58"/>
<polygon fill="midnightblue" stroke="midnightblue" points="204.66,-72.15 194.12,-73.16 202.99,-78.95 204.66,-72.15"/>
</g>
<!-- Node10 -->
<g id="node10" class="node">
<title>Node10</title>
<g id="a_node10"><a xlink:title=" ">
<polygon fill="none" stroke="#bfbfbf" points="237.5,-56.5 237.5,-75.5 310.5,-75.5 310.5,-56.5 237.5,-56.5"/>
<text text-anchor="middle" x="274" y="-63.5" font-family="Helvetica,sans-Serif" font-size="10.00">string_view</text>
</a>
</g>
</g>
<!-- Node9&#45;&gt;Node10 -->
<g id="edge11" class="edge">
<title>Node9&#45;&gt;Node10</title>
<path fill="none" stroke="midnightblue" d="M370.78,-112.44C352.1,-103.68 322.84,-89.94 301.38,-79.86"/>
<polygon fill="midnightblue" stroke="midnightblue" points="302.68,-76.6 292.14,-75.52 299.7,-82.93 302.68,-76.6"/>
</g>
<!-- Node11 -->
<g id="node11" class="node">
<title>Node11</title>
<g id="a_node11"><a xlink:title=" ">
<polygon fill="none" stroke="#bfbfbf" points="368.5,-0.5 368.5,-19.5 409.5,-19.5 409.5,-0.5 368.5,-0.5"/>
<text text-anchor="middle" x="389" y="-7.5" font-family="Helvetica,sans-Serif" font-size="10.00">tuple</text>
</a>
</g>
</g>
<!-- Node9&#45;&gt;Node11 -->
<g id="edge12" class="edge">
<title>Node9&#45;&gt;Node11</title>
<path fill="none" stroke="midnightblue" d="M412.79,-112.5C428.72,-105.41 448.46,-93.61 458,-76 470.04,-53.77 442.79,-34.82 419.06,-23.21"/>
<polygon fill="midnightblue" stroke="midnightblue" points="420.45,-19.99 409.9,-18.98 417.52,-26.35 420.45,-19.99"/>
</g>
<!-- Node12 -->
<g id="node12" class="node">
<title>Node12</title>
<g id="a_node12"><a xlink:href="Traits_8h.html" target="_top" xlink:title=" ">
<polygon fill="none" stroke="black" points="328.5,-56.5 328.5,-75.5 449.5,-75.5 449.5,-56.5 328.5,-56.5"/>
<text text-anchor="middle" x="389" y="-63.5" font-family="Helvetica,sans-Serif" font-size="10.00">open62541pp/Traits.h</text>
</a>
</g>
</g>
<!-- Node9&#45;&gt;Node12 -->
<g id="edge13" class="edge">
<title>Node9&#45;&gt;Node12</title>
<path fill="none" stroke="midnightblue" d="M389,-112.08C389,-105.01 389,-94.86 389,-85.99"/>
<polygon fill="midnightblue" stroke="midnightblue" points="392.5,-85.75 389,-75.75 385.5,-85.75 392.5,-85.75"/>
</g>
<!-- Node9&#45;&gt;Node13 -->
<g id="edge16" class="edge">
<title>Node9&#45;&gt;Node13</title>
<path fill="none" stroke="midnightblue" d="M436.69,-112.44C489.86,-102.9 575.82,-87.48 632.63,-77.29"/>
<polygon fill="midnightblue" stroke="midnightblue" points="633.3,-80.73 642.53,-75.52 632.07,-73.84 633.3,-80.73"/>
</g>
<!-- Node12&#45;&gt;Node7 -->
<g id="edge15" class="edge">
<title>Node12&#45;&gt;Node7</title>
<path fill="none" stroke="midnightblue" d="M357.94,-56.44C324.4,-47.2 270.8,-32.44 233.86,-22.26"/>
<polygon fill="midnightblue" stroke="midnightblue" points="234.48,-18.8 223.91,-19.52 232.62,-25.55 234.48,-18.8"/>
</g>
<!-- Node12&#45;&gt;Node11 -->
<g id="edge14" class="edge">
<title>Node12&#45;&gt;Node11</title>
<path fill="none" stroke="midnightblue" d="M389,-56.08C389,-49.01 389,-38.86 389,-29.99"/>
<polygon fill="midnightblue" stroke="midnightblue" points="392.5,-29.75 389,-19.75 385.5,-29.75 392.5,-29.75"/>
</g>
<!-- Node14 -->
<g id="node14" class="node">
<title>Node14</title>
<g id="a_node14"><a xlink:href="open62541/nodeids_8h.html.html" xlink:title=" ">
<polygon fill="none" stroke="black" points="629.5,-0.5 629.5,-19.5 750.5,-19.5 750.5,-0.5 629.5,-0.5"/>
<text text-anchor="middle" x="690" y="-7.5" font-family="Helvetica,sans-Serif" font-size="10.00">open62541/nodeids.h</text>
</a>
</g>
</g>
<!-- Node13&#45;&gt;Node14 -->
<g id="edge17" class="edge">
<title>Node13&#45;&gt;Node14</title>
<path fill="none" stroke="midnightblue" d="M690,-56.08C690,-49.01 690,-38.86 690,-29.99"/>
<polygon fill="midnightblue" stroke="midnightblue" points="693.5,-29.75 690,-19.75 686.5,-29.75 693.5,-29.75"/>
</g>
<!-- Node15 -->
<g id="node15" class="node">
<title>Node15</title>
<g id="a_node15"><a xlink:href="open62541/types_8h.html.html" xlink:title=" ">
<polygon fill="none" stroke="black" points="769,-0.5 769,-19.5 879,-19.5 879,-0.5 769,-0.5"/>
<text text-anchor="middle" x="824" y="-7.5" font-family="Helvetica,sans-Serif" font-size="10.00">open62541/types.h</text>
</a>
</g>
</g>
<!-- Node13&#45;&gt;Node15 -->
<g id="edge18" class="edge">
<title>Node13&#45;&gt;Node15</title>
<path fill="none" stroke="midnightblue" d="M711.23,-56.44C733.38,-47.52 768.32,-33.44 793.44,-23.32"/>
<polygon fill="midnightblue" stroke="midnightblue" points="794.9,-26.5 802.87,-19.52 792.28,-20.01 794.9,-26.5"/>
</g>
<!-- Node16 -->
<g id="node16" class="node">
<title>Node16</title>
<g id="a_node16"><a xlink:href="open62541/types__generated_8h.html.html" xlink:title=" ">
<polygon fill="none" stroke="black" points="447,-0.5 447,-19.5 611,-19.5 611,-0.5 447,-0.5"/>
<text text-anchor="middle" x="529" y="-7.5" font-family="Helvetica,sans-Serif" font-size="10.00">open62541/types_generated.h</text>
</a>
</g>
</g>
<!-- Node13&#45;&gt;Node16 -->
<g id="edge19" class="edge">
<title>Node13&#45;&gt;Node16</title>
<path fill="none" stroke="midnightblue" d="M664.49,-56.44C637.4,-47.36 594.41,-32.94 564.13,-22.78"/>
<polygon fill="midnightblue" stroke="midnightblue" points="564.99,-19.38 554.39,-19.52 562.76,-26.01 564.99,-19.38"/>
</g>
<!-- Node17&#45;&gt;Node13 -->
<g id="edge21" class="edge">
<title>Node17&#45;&gt;Node13</title>
<path fill="none" stroke="midnightblue" d="M761.96,-168.12C753.4,-155.55 737.18,-131.9 723,-112 716.31,-102.61 708.71,-92.23 702.49,-83.81"/>
<polygon fill="midnightblue" stroke="midnightblue" points="705.16,-81.53 696.4,-75.58 699.54,-85.7 705.16,-81.53"/>
</g>
<!-- Node18&#45;&gt;Node13 -->
<g id="edge25" class="edge">
<title>Node18&#45;&gt;Node13</title>
<path fill="none" stroke="midnightblue" d="M584.16,-168.49C605.09,-161.41 632.58,-149.6 652,-132 666.34,-119.01 676.81,-99.3 683.08,-84.99"/>
<polygon fill="midnightblue" stroke="midnightblue" points="686.33,-86.28 686.9,-75.7 679.86,-83.62 686.33,-86.28"/>
</g>
<!-- Node19 -->
<g id="node19" class="node">
<title>Node19</title>
<g id="a_node19"><a xlink:title=" ">
<polygon fill="none" stroke="#bfbfbf" points="577.5,-112.5 577.5,-131.5 642.5,-131.5 642.5,-112.5 577.5,-112.5"/>
<text text-anchor="middle" x="610" y="-119.5" font-family="Helvetica,sans-Serif" font-size="10.00">stdexcept</text>
</a>
</g>
</g>
<!-- Node18&#45;&gt;Node19 -->
<g id="edge23" class="edge">
<title>Node18&#45;&gt;Node19</title>
<path fill="none" stroke="midnightblue" d="M563,-168.32C571.19,-160.42 583.51,-148.55 593.47,-138.94"/>
<polygon fill="midnightblue" stroke="midnightblue" points="596.07,-141.29 600.84,-131.83 591.21,-136.26 596.07,-141.29"/>
</g>
<!-- Node20 -->
<g id="node20" class="node">
<title>Node20</title>
<g id="a_node20"><a xlink:title=" ">
<polygon fill="none" stroke="#bfbfbf" points="515,-112.5 515,-131.5 559,-131.5 559,-112.5 515,-112.5"/>
<text text-anchor="middle" x="537" y="-119.5" font-family="Helvetica,sans-Serif" font-size="10.00">string</text>
</a>
</g>
</g>
<!-- Node18&#45;&gt;Node20 -->
<g id="edge24" class="edge">
<title>Node18&#45;&gt;Node20</title>
<path fill="none" stroke="midnightblue" d="M551.19,-168.08C548.92,-160.85 545.63,-150.41 542.79,-141.4"/>
<polygon fill="midnightblue" stroke="midnightblue" points="546.1,-140.24 539.75,-131.75 539.42,-142.34 546.1,-140.24"/>
</g>
<!-- Node21&#45;&gt;Node3 -->
<g id="edge28" class="edge">
<title>Node21&#45;&gt;Node3</title>
<path fill="none" stroke="midnightblue" d="M284.58,-168.4C274.6,-155.36 254.39,-130.18 234,-112 221.06,-100.46 205.06,-89.35 192.17,-81.06"/>
<polygon fill="midnightblue" stroke="midnightblue" points="193.76,-77.92 183.43,-75.55 190.03,-83.84 193.76,-77.92"/>
</g>
<!-- Node21&#45;&gt;Node6 -->
<g id="edge27" class="edge">
<title>Node21&#45;&gt;Node6</title>
<path fill="none" stroke="midnightblue" d="M276.22,-168.32C261.73,-159.82 239.43,-146.73 222.51,-136.8"/>
<polygon fill="midnightblue" stroke="midnightblue" points="224.14,-133.7 213.74,-131.65 220.6,-139.74 224.14,-133.7"/>
</g>
<!-- Node21&#45;&gt;Node9 -->
<g id="edge31" class="edge">
<title>Node21&#45;&gt;Node9</title>
<path fill="none" stroke="midnightblue" d="M306.75,-168.32C322.32,-159.74 346.38,-146.49 364.46,-136.52"/>
<polygon fill="midnightblue" stroke="midnightblue" points="366.22,-139.55 373.29,-131.65 362.85,-133.42 366.22,-139.55"/>
</g>
<!-- Node21&#45;&gt;Node10 -->
<g id="edge30" class="edge">
<title>Node21&#45;&gt;Node10</title>
<path fill="none" stroke="midnightblue" d="M289.67,-168.37C286.92,-150.62 280.59,-109.67 276.87,-85.6"/>
<polygon fill="midnightblue" stroke="midnightblue" points="280.31,-84.94 275.33,-75.59 273.4,-86.01 280.31,-84.94"/>
</g>
<!-- Node21&#45;&gt;Node13 -->
<g id="edge32" class="edge">
<title>Node21&#45;&gt;Node13</title>
<path fill="none" stroke="midnightblue" d="M335.6,-168.48C371.7,-160.91 423.5,-148.48 467,-132 485.22,-125.1 487.75,-118.8 506,-112 546.98,-96.72 595.04,-85.17 631.77,-77.6"/>
<polygon fill="midnightblue" stroke="midnightblue" points="632.7,-80.98 641.81,-75.57 631.31,-74.12 632.7,-80.98"/>
</g>
<!-- Node21&#45;&gt;Node20 -->
<g id="edge29" class="edge">
<title>Node21&#45;&gt;Node20</title>
<path fill="none" stroke="midnightblue" d="M332.93,-168.45C375.38,-159.69 442.89,-145.49 501,-132 502.27,-131.71 503.57,-131.4 504.87,-131.09"/>
<polygon fill="midnightblue" stroke="midnightblue" points="506.05,-134.4 514.94,-128.64 504.4,-127.6 506.05,-134.4"/>
</g>
</g>
</svg>
