<?xml version="1.0" encoding="UTF-8" standalone="no"?>
<!DOCTYPE svg PUBLIC "-//W3C//DTD SVG 1.1//EN"
 "http://www.w3.org/Graphics/SVG/1.1/DTD/svg11.dtd">
<!-- Generated by graphviz version 2.43.0 (0)
 -->
<!-- Title: /home/runner/work/open62541pp/open62541pp/include/open62541pp/types/DateTime.h Pages: 1 -->
<svg width="985pt" height="346pt"
 viewBox="0.00 0.00 984.50 346.00" xmlns="http://www.w3.org/2000/svg" xmlns:xlink="http://www.w3.org/1999/xlink">
<g id="graph0" class="graph" transform="scale(1 1) rotate(0) translate(4 342)">
<title>/home/runner/work/open62541pp/open62541pp/include/open62541pp/types/DateTime.h</title>
<!-- Node1 -->
<g id="Node000001" class="node">
<title>Node1</title>
<g id="a_Node000001"><a xlink:title=" ">
<polygon fill="#999999" stroke="#666666" points="468.5,-338 275.5,-338 275.5,-297 468.5,-297 468.5,-338"/>
<text text-anchor="start" x="283.5" y="-326" font-family="Helvetica,sans-Serif" font-size="10.00">/home/runner/work/open62541pp</text>
<text text-anchor="start" x="283.5" y="-315" font-family="Helvetica,sans-Serif" font-size="10.00">/open62541pp/include/open62541pp</text>
<text text-anchor="middle" x="372" y="-304" font-family="Helvetica,sans-Serif" font-size="10.00">/types/DateTime.h</text>
</a>
</g>
</g>
<!-- Node2 -->
<g id="Node000002" class="node">
<title>Node2</title>
<g id="a_Node000002"><a xlink:title=" ">
<polygon fill="#e0e0e0" stroke="#999999" points="50,-261 0,-261 0,-242 50,-242 50,-261"/>
<text text-anchor="middle" x="25" y="-249" font-family="Helvetica,sans-Serif" font-size="10.00">chrono</text>
</a>
</g>
</g>
<!-- Node1&#45;&gt;Node2 -->
<g id="edge1_Node000001_Node000002" class="edge">
<title>Node1&#45;&gt;Node2</title>
<g id="a_edge1_Node000001_Node000002"><a xlink:title=" ">
<path fill="none" stroke="#63b8ff" d="M275.42,-300.02C214.63,-289.42 134.61,-275.05 64,-261 62.74,-260.75 61.45,-260.49 60.16,-260.22"/>
<polygon fill="#63b8ff" stroke="#63b8ff" points="60.65,-256.75 50.15,-258.12 59.21,-263.6 60.65,-256.75"/>
</a>
</g>
</g>
<!-- Node3 -->
<g id="Node000003" class="node">
<title>Node3</title>
<g id="a_Node000003"><a xlink:title=" ">
<polygon fill="#e0e0e0" stroke="#999999" points="177,-79.5 127,-79.5 127,-60.5 177,-60.5 177,-79.5"/>
<text text-anchor="middle" x="152" y="-67.5" font-family="Helvetica,sans-Serif" font-size="10.00">cstdint</text>
</a>
</g>
</g>
<!-- Node1&#45;&gt;Node3 -->
<g id="edge2_Node000001_Node000003" class="edge">
<title>Node1&#45;&gt;Node3</title>
<g id="a_edge2_Node000001_Node000003"><a xlink:title=" ">
<path fill="none" stroke="#63b8ff" d="M275.37,-304.06C244.75,-296.01 212.73,-282.77 189,-261 140.74,-216.72 137.18,-186.24 143,-121 143.94,-110.52 145.95,-98.95 147.84,-89.58"/>
<polygon fill="#63b8ff" stroke="#63b8ff" points="151.27,-90.3 149.93,-79.79 144.42,-88.84 151.27,-90.3"/>
</a>
</g>
</g>
<!-- Node4 -->
<g id="Node000004" class="node">
<title>Node4</title>
<g id="a_Node000004"><a xlink:title=" ">
<polygon fill="#e0e0e0" stroke="#999999" points="976.5,-261 937.5,-261 937.5,-242 976.5,-242 976.5,-261"/>
<text text-anchor="middle" x="957" y="-249" font-family="Helvetica,sans-Serif" font-size="10.00">ratio</text>
</a>
</g>
</g>
<!-- Node1&#45;&gt;Node4 -->
<g id="edge3_Node000001_Node000004" class="edge">
<title>Node1&#45;&gt;Node4</title>
<g id="a_edge3_Node000001_Node000004"><a xlink:title=" ">
<path fill="none" stroke="#63b8ff" d="M468.63,-311.01C579.1,-303.76 765.06,-288.55 923,-261 924.46,-260.75 925.95,-260.46 927.45,-260.16"/>
<polygon fill="#63b8ff" stroke="#63b8ff" points="928.34,-263.55 937.33,-257.93 926.8,-256.72 928.34,-263.55"/>
</a>
</g>
</g>
<!-- Node5 -->
<g id="Node000005" class="node">
<title>Node5</title>
<g id="a_Node000005"><a xlink:title=" ">
<polygon fill="#e0e0e0" stroke="#999999" points="384,-140 340,-140 340,-121 384,-121 384,-140"/>
<text text-anchor="middle" x="362" y="-128" font-family="Helvetica,sans-Serif" font-size="10.00">string</text>
</a>
</g>
</g>
<!-- Node1&#45;&gt;Node5 -->
<g id="edge4_Node000001_Node000005" class="edge">
<title>Node1&#45;&gt;Node5</title>
<g id="a_edge4_Node000001_Node000005"><a xlink:title=" ">
<path fill="none" stroke="#63b8ff" d="M370.93,-296.7C368.99,-260.86 364.93,-185.67 363.02,-150.46"/>
<polygon fill="#63b8ff" stroke="#63b8ff" points="366.5,-149.96 362.47,-140.16 359.51,-150.33 366.5,-149.96"/>
</a>
</g>
</g>
<!-- Node6 -->
<g id="Node000006" class="node">
<title>Node6</title>
<g id="a_Node000006"><a xlink:title=" ">
<polygon fill="#e0e0e0" stroke="#999999" points="817.5,-79.5 744.5,-79.5 744.5,-60.5 817.5,-60.5 817.5,-79.5"/>
<text text-anchor="middle" x="781" y="-67.5" font-family="Helvetica,sans-Serif" font-size="10.00">string_view</text>
</a>
</g>
</g>
<!-- Node1&#45;&gt;Node6 -->
<g id="edge5_Node000001_Node000006" class="edge">
<title>Node1&#45;&gt;Node6</title>
<g id="a_edge5_Node000001_Node000006"><a xlink:title=" ">
<path fill="none" stroke="#63b8ff" d="M468.58,-306.27C584.94,-291.68 769.85,-260.43 810,-206 832.45,-175.56 824.88,-157.22 814,-121 810.33,-108.77 802.59,-96.77 795.53,-87.6"/>
<polygon fill="#63b8ff" stroke="#63b8ff" points="798.16,-85.28 789.12,-79.75 792.73,-89.71 798.16,-85.28"/>
</a>
</g>
</g>
<!-- Node7 -->
<g id="Node000007" class="node">
<title>Node7</title>
<g id="a_Node000007"><a xlink:href="TypeWrapper_8h.html" target="_top" xlink:title=" ">
<polygon fill="white" stroke="#666666" points="655,-261 497,-261 497,-242 655,-242 655,-261"/>
<text text-anchor="middle" x="576" y="-249" font-family="Helvetica,sans-Serif" font-size="10.00">open62541pp/TypeWrapper.h</text>
</a>
</g>
</g>
<!-- Node1&#45;&gt;Node7 -->
<g id="edge6_Node000001_Node000007" class="edge">
<title>Node1&#45;&gt;Node7</title>
<g id="a_edge6_Node000001_Node000007"><a xlink:title=" ">
<path fill="none" stroke="#63b8ff" d="M434.32,-296.95C468.59,-286.2 509.95,-273.22 539.11,-264.07"/>
<polygon fill="#63b8ff" stroke="#63b8ff" points="540.39,-267.34 548.88,-261.01 538.29,-260.66 540.39,-267.34"/>
</a>
</g>
</g>
<!-- Node14 -->
<g id="Node000014" class="node">
<title>Node14</title>
<g id="a_Node000014"><a xlink:href="open62541_8h.html" target="_top" xlink:title=" ">
<polygon fill="white" stroke="#666666" points="492.5,-79.5 343.5,-79.5 343.5,-60.5 492.5,-60.5 492.5,-79.5"/>
<text text-anchor="middle" x="418" y="-67.5" font-family="Helvetica,sans-Serif" font-size="10.00">open62541pp/open62541.h</text>
</a>
</g>
</g>
<!-- Node1&#45;&gt;Node14 -->
<g id="edge36_Node000001_Node000014" class="edge">
<title>Node1&#45;&gt;Node14</title>
<g id="a_edge36_Node000001_Node000014"><a xlink:title=" ">
<path fill="none" stroke="#63b8ff" d="M293.23,-296.98C229.94,-276.46 154.42,-238.31 173,-176 181.35,-148 185.1,-137.81 209,-121 245.15,-95.57 292.59,-82.97 333.14,-76.77"/>
<polygon fill="#63b8ff" stroke="#63b8ff" points="333.88,-80.2 343.29,-75.33 332.9,-73.27 333.88,-80.2"/>
</a>
</g>
</g>
<!-- Node7&#45;&gt;Node3 -->
<g id="edge8_Node000007_Node000003" class="edge">
<title>Node7&#45;&gt;Node3</title>
<g id="a_edge8_Node000007_Node000003"><a xlink:title=" ">
<path fill="none" stroke="#63b8ff" d="M496.59,-246.85C385.83,-241 195.89,-227.9 173,-206 141.38,-175.75 144.43,-118.98 148.6,-89.63"/>
<polygon fill="#63b8ff" stroke="#63b8ff" points="152.09,-89.95 150.24,-79.52 145.18,-88.82 152.09,-89.95"/>
</a>
</g>
</g>
<!-- Node8 -->
<g id="Node000008" class="node">
<title>Node8</title>
<g id="a_Node000008"><a xlink:title=" ">
<polygon fill="#e0e0e0" stroke="#999999" points="805,-140 753,-140 753,-121 805,-121 805,-140"/>
<text text-anchor="middle" x="779" y="-128" font-family="Helvetica,sans-Serif" font-size="10.00">cassert</text>
</a>
</g>
</g>
<!-- Node7&#45;&gt;Node8 -->
<g id="edge7_Node000007_Node000008" class="edge">
<title>Node7&#45;&gt;Node8</title>
<g id="a_edge7_Node000007_Node000008"><a xlink:title=" ">
<path fill="none" stroke="#63b8ff" d="M655.07,-244.63C709.72,-238.74 775.59,-227.34 793,-206 805.95,-190.12 797.97,-166 789.73,-149.54"/>
<polygon fill="#63b8ff" stroke="#63b8ff" points="792.61,-147.52 784.75,-140.42 786.47,-150.87 792.61,-147.52"/>
</a>
</g>
</g>
<!-- Node9 -->
<g id="Node000009" class="node">
<title>Node9</title>
<g id="a_Node000009"><a xlink:title=" ">
<polygon fill="#e0e0e0" stroke="#999999" points="840.5,-19 771.5,-19 771.5,0 840.5,0 840.5,-19"/>
<text text-anchor="middle" x="806" y="-7" font-family="Helvetica,sans-Serif" font-size="10.00">type_traits</text>
</a>
</g>
</g>
<!-- Node7&#45;&gt;Node9 -->
<g id="edge9_Node000007_Node000009" class="edge">
<title>Node7&#45;&gt;Node9</title>
<g id="a_edge9_Node000007_Node000009"><a xlink:title=" ">
<path fill="none" stroke="#63b8ff" d="M655.13,-245.19C714.49,-239.49 788.96,-228.08 810,-206 856.59,-157.11 841.77,-120.9 827,-55 824.92,-45.74 820.7,-36.14 816.57,-28.23"/>
<polygon fill="#63b8ff" stroke="#63b8ff" points="819.51,-26.31 811.58,-19.28 813.4,-29.72 819.51,-26.31"/>
</a>
</g>
</g>
<!-- Node10 -->
<g id="Node000010" class="node">
<title>Node10</title>
<g id="a_Node000010"><a xlink:title=" ">
<polygon fill="#e0e0e0" stroke="#999999" points="766.5,-200.5 721.5,-200.5 721.5,-181.5 766.5,-181.5 766.5,-200.5"/>
<text text-anchor="middle" x="744" y="-188.5" font-family="Helvetica,sans-Serif" font-size="10.00">utility</text>
</a>
</g>
</g>
<!-- Node7&#45;&gt;Node10 -->
<g id="edge10_Node000007_Node000010" class="edge">
<title>Node7&#45;&gt;Node10</title>
<g id="a_edge10_Node000007_Node000010"><a xlink:title=" ">
<path fill="none" stroke="#63b8ff" d="M605.46,-241.96C633.43,-233.61 676.5,-220.12 713,-206 714.18,-205.54 715.37,-205.07 716.58,-204.58"/>
<polygon fill="#63b8ff" stroke="#63b8ff" points="717.97,-207.79 725.78,-200.63 715.21,-201.35 717.97,-207.79"/>
</a>
</g>
</g>
<!-- Node11 -->
<g id="Node000011" class="node">
<title>Node11</title>
<g id="a_Node000011"><a xlink:href="Common_8h.html" target="_top" xlink:title=" ">
<polygon fill="white" stroke="#666666" points="696.5,-140 557.5,-140 557.5,-121 696.5,-121 696.5,-140"/>
<text text-anchor="middle" x="627" y="-128" font-family="Helvetica,sans-Serif" font-size="10.00">open62541pp/Common.h</text>
</a>
</g>
</g>
<!-- Node7&#45;&gt;Node11 -->
<g id="edge11_Node000007_Node000011" class="edge">
<title>Node7&#45;&gt;Node11</title>
<g id="a_edge11_Node000007_Node000011"><a xlink:title=" ">
<path fill="none" stroke="#63b8ff" d="M655.05,-242.99C704.14,-236.5 760.7,-225.08 776,-206 802.97,-172.37 748.02,-152.64 697.4,-142.03"/>
<polygon fill="#63b8ff" stroke="#63b8ff" points="697.85,-138.55 687.36,-140.03 696.48,-145.42 697.85,-138.55"/>
</a>
</g>
</g>
<!-- Node7&#45;&gt;Node14 -->
<g id="edge33_Node000007_Node000014" class="edge">
<title>Node7&#45;&gt;Node14</title>
<g id="a_edge33_Node000007_Node000014"><a xlink:title=" ">
<path fill="none" stroke="#63b8ff" d="M496.66,-244C471.32,-237.85 445.58,-226.54 429,-206 402.01,-172.56 407.95,-118.07 413.56,-89.62"/>
<polygon fill="#63b8ff" stroke="#63b8ff" points="416.99,-90.3 415.69,-79.78 410.15,-88.81 416.99,-90.3"/>
</a>
</g>
</g>
<!-- Node19 -->
<g id="Node000019" class="node">
<title>Node19</title>
<g id="a_Node000019"><a xlink:href="ErrorHandling_8h.html" target="_top" xlink:title=" ">
<polygon fill="white" stroke="#666666" points="343.5,-200.5 182.5,-200.5 182.5,-181.5 343.5,-181.5 343.5,-200.5"/>
<text text-anchor="middle" x="263" y="-188.5" font-family="Helvetica,sans-Serif" font-size="10.00">open62541pp/ErrorHandling.h</text>
</a>
</g>
</g>
<!-- Node7&#45;&gt;Node19 -->
<g id="edge23_Node000007_Node000019" class="edge">
<title>Node7&#45;&gt;Node19</title>
<g id="a_edge23_Node000007_Node000019"><a xlink:title=" ">
<path fill="none" stroke="#63b8ff" d="M530.49,-241.99C474.39,-231.51 379.09,-213.7 318.69,-202.41"/>
<polygon fill="#63b8ff" stroke="#63b8ff" points="319.04,-198.91 308.57,-200.52 317.75,-205.79 319.04,-198.91"/>
</a>
</g>
</g>
<!-- Node21 -->
<g id="Node000021" class="node">
<title>Node21</title>
<g id="a_Node000021"><a xlink:href="helper_8h.html" target="_top" xlink:title=" ">
<polygon fill="white" stroke="#666666" points="703.5,-206 590.5,-206 590.5,-176 703.5,-176 703.5,-206"/>
<text text-anchor="start" x="598.5" y="-194" font-family="Helvetica,sans-Serif" font-size="10.00">open62541pp/detail</text>
<text text-anchor="middle" x="647" y="-183" font-family="Helvetica,sans-Serif" font-size="10.00">/helper.h</text>
</a>
</g>
</g>
<!-- Node7&#45;&gt;Node21 -->
<g id="edge27_Node000007_Node000021" class="edge">
<title>Node7&#45;&gt;Node21</title>
<g id="a_edge27_Node000007_Node000021"><a xlink:title=" ">
<path fill="none" stroke="#63b8ff" d="M586.48,-241.87C595.75,-234.22 609.67,-222.76 621.82,-212.75"/>
<polygon fill="#63b8ff" stroke="#63b8ff" points="624.38,-215.17 629.87,-206.11 619.93,-209.77 624.38,-215.17"/>
</a>
</g>
</g>
<!-- Node22 -->
<g id="Node000022" class="node">
<title>Node22</title>
<g id="a_Node000022"><a xlink:href="comparison_8h.html" target="_top" xlink:title=" ">
<polygon fill="white" stroke="#666666" points="572,-206 438,-206 438,-176 572,-176 572,-206"/>
<text text-anchor="start" x="446" y="-194" font-family="Helvetica,sans-Serif" font-size="10.00">open62541pp/overloads</text>
<text text-anchor="middle" x="505" y="-183" font-family="Helvetica,sans-Serif" font-size="10.00">/comparison.h</text>
</a>
</g>
</g>
<!-- Node7&#45;&gt;Node22 -->
<g id="edge34_Node000007_Node000022" class="edge">
<title>Node7&#45;&gt;Node22</title>
<g id="a_edge34_Node000007_Node000022"><a xlink:title=" ">
<path fill="none" stroke="#63b8ff" d="M565.52,-241.87C556.25,-234.22 542.33,-222.76 530.18,-212.75"/>
<polygon fill="#63b8ff" stroke="#63b8ff" points="532.07,-209.77 522.13,-206.11 527.62,-215.17 532.07,-209.77"/>
</a>
</g>
</g>
<!-- Node11&#45;&gt;Node3 -->
<g id="edge12_Node000011_Node000003" class="edge">
<title>Node11&#45;&gt;Node3</title>
<g id="a_edge12_Node000011_Node000003"><a xlink:title=" ">
<path fill="none" stroke="#63b8ff" d="M557.93,-120.99C455.21,-108.34 265.88,-85.03 187.46,-75.37"/>
<polygon fill="#63b8ff" stroke="#63b8ff" points="187.5,-71.85 177.15,-74.1 186.65,-78.79 187.5,-71.85"/>
</a>
</g>
</g>
<!-- Node11&#45;&gt;Node6 -->
<g id="edge13_Node000011_Node000006" class="edge">
<title>Node11&#45;&gt;Node6</title>
<g id="a_edge13_Node000011_Node000006"><a xlink:title=" ">
<path fill="none" stroke="#63b8ff" d="M649.39,-120.99C675.62,-111.03 719.28,-94.45 749.06,-83.13"/>
<polygon fill="#63b8ff" stroke="#63b8ff" points="750.47,-86.34 758.58,-79.52 747.99,-79.8 750.47,-86.34"/>
</a>
</g>
</g>
<!-- Node12 -->
<g id="Node000012" class="node">
<title>Node12</title>
<g id="a_Node000012"><a xlink:title=" ">
<polygon fill="#e0e0e0" stroke="#999999" points="688.5,-19 647.5,-19 647.5,0 688.5,0 688.5,-19"/>
<text text-anchor="middle" x="668" y="-7" font-family="Helvetica,sans-Serif" font-size="10.00">tuple</text>
</a>
</g>
</g>
<!-- Node11&#45;&gt;Node12 -->
<g id="edge14_Node000011_Node000012" class="edge">
<title>Node11&#45;&gt;Node12</title>
<g id="a_edge14_Node000011_Node000012"><a xlink:title=" ">
<path fill="none" stroke="#63b8ff" d="M620.38,-120.83C610.3,-106.51 593.46,-77.27 605,-55 612.14,-41.22 625.72,-30.8 638.45,-23.52"/>
<polygon fill="#63b8ff" stroke="#63b8ff" points="640.25,-26.53 647.47,-18.77 636.99,-20.33 640.25,-26.53"/>
</a>
</g>
</g>
<!-- Node13 -->
<g id="Node000013" class="node">
<title>Node13</title>
<g id="a_Node000013"><a xlink:href="traits_8h.html" target="_top" xlink:title=" ">
<polygon fill="white" stroke="#666666" points="726.5,-85 613.5,-85 613.5,-55 726.5,-55 726.5,-85"/>
<text text-anchor="start" x="621.5" y="-73" font-family="Helvetica,sans-Serif" font-size="10.00">open62541pp/detail</text>
<text text-anchor="middle" x="670" y="-62" font-family="Helvetica,sans-Serif" font-size="10.00">/traits.h</text>
</a>
</g>
</g>
<!-- Node11&#45;&gt;Node13 -->
<g id="edge15_Node000011_Node000013" class="edge">
<title>Node11&#45;&gt;Node13</title>
<g id="a_edge15_Node000011_Node000013"><a xlink:title=" ">
<path fill="none" stroke="#63b8ff" d="M633.34,-120.87C638.69,-113.59 646.59,-102.85 653.68,-93.2"/>
<polygon fill="#63b8ff" stroke="#63b8ff" points="656.52,-95.25 659.63,-85.11 650.88,-91.1 656.52,-95.25"/>
</a>
</g>
</g>
<!-- Node11&#45;&gt;Node14 -->
<g id="edge18_Node000011_Node000014" class="edge">
<title>Node11&#45;&gt;Node14</title>
<g id="a_edge18_Node000011_Node000014"><a xlink:title=" ">
<path fill="none" stroke="#63b8ff" d="M596.61,-120.99C560.08,-110.77 498.66,-93.58 458.23,-82.26"/>
<polygon fill="#63b8ff" stroke="#63b8ff" points="459,-78.84 448.43,-79.52 457.11,-85.58 459,-78.84"/>
</a>
</g>
</g>
<!-- Node13&#45;&gt;Node9 -->
<g id="edge17_Node000013_Node000009" class="edge">
<title>Node13&#45;&gt;Node9</title>
<g id="a_edge17_Node000013_Node000009"><a xlink:title=" ">
<path fill="none" stroke="#63b8ff" d="M702.58,-54.99C725.06,-45.31 754.72,-32.56 776.51,-23.18"/>
<polygon fill="#63b8ff" stroke="#63b8ff" points="778.11,-26.31 785.92,-19.14 775.35,-19.88 778.11,-26.31"/>
</a>
</g>
</g>
<!-- Node13&#45;&gt;Node12 -->
<g id="edge16_Node000013_Node000012" class="edge">
<title>Node13&#45;&gt;Node12</title>
<g id="a_edge16_Node000013_Node000012"><a xlink:title=" ">
<path fill="none" stroke="#63b8ff" d="M669.52,-54.84C669.26,-47.21 668.93,-37.7 668.65,-29.45"/>
<polygon fill="#63b8ff" stroke="#63b8ff" points="672.14,-29.14 668.3,-19.27 665.14,-29.38 672.14,-29.14"/>
</a>
</g>
</g>
<!-- Node15 -->
<g id="Node000015" class="node">
<title>Node15</title>
<g id="a_Node000015"><a target="_blank" xlink:href="open62541/config_8h.html" xlink:title=" ">
<polygon fill="white" stroke="#666666" points="477,-19 365,-19 365,0 477,0 477,-19"/>
<text text-anchor="middle" x="421" y="-7" font-family="Helvetica,sans-Serif" font-size="10.00">open62541/config.h</text>
</a>
</g>
</g>
<!-- Node14&#45;&gt;Node15 -->
<g id="edge19_Node000014_Node000015" class="edge">
<title>Node14&#45;&gt;Node15</title>
<g id="a_edge19_Node000014_Node000015"><a xlink:title=" ">
<path fill="none" stroke="#63b8ff" d="M418.44,-60.37C418.86,-52.25 419.5,-39.81 420.03,-29.39"/>
<polygon fill="#63b8ff" stroke="#63b8ff" points="423.54,-29.33 420.56,-19.17 416.55,-28.97 423.54,-29.33"/>
</a>
</g>
</g>
<!-- Node16 -->
<g id="Node000016" class="node">
<title>Node16</title>
<g id="a_Node000016"><a target="_blank" xlink:href="open62541/nodeids_8h.html" xlink:title=" ">
<polygon fill="white" stroke="#666666" points="616.5,-19 495.5,-19 495.5,0 616.5,0 616.5,-19"/>
<text text-anchor="middle" x="556" y="-7" font-family="Helvetica,sans-Serif" font-size="10.00">open62541/nodeids.h</text>
</a>
</g>
</g>
<!-- Node14&#45;&gt;Node16 -->
<g id="edge20_Node000014_Node000016" class="edge">
<title>Node14&#45;&gt;Node16</title>
<g id="a_edge20_Node000014_Node000016"><a xlink:title=" ">
<path fill="none" stroke="#63b8ff" d="M438.07,-60.49C461.37,-50.62 500.01,-34.23 526.68,-22.93"/>
<polygon fill="#63b8ff" stroke="#63b8ff" points="528.07,-26.14 535.91,-19.02 525.34,-19.7 528.07,-26.14"/>
</a>
</g>
</g>
<!-- Node17 -->
<g id="Node000017" class="node">
<title>Node17</title>
<g id="a_Node000017"><a target="_blank" xlink:href="open62541/types_8h.html" xlink:title=" ">
<polygon fill="white" stroke="#666666" points="165,-19 55,-19 55,0 165,0 165,-19"/>
<text text-anchor="middle" x="110" y="-7" font-family="Helvetica,sans-Serif" font-size="10.00">open62541/types.h</text>
</a>
</g>
</g>
<!-- Node14&#45;&gt;Node17 -->
<g id="edge21_Node000014_Node000017" class="edge">
<title>Node14&#45;&gt;Node17</title>
<g id="a_edge21_Node000014_Node000017"><a xlink:title=" ">
<path fill="none" stroke="#63b8ff" d="M373.21,-60.49C318.01,-50.01 224.24,-32.2 164.8,-20.91"/>
<polygon fill="#63b8ff" stroke="#63b8ff" points="165.32,-17.44 154.84,-19.02 164.01,-24.32 165.32,-17.44"/>
</a>
</g>
</g>
<!-- Node18 -->
<g id="Node000018" class="node">
<title>Node18</title>
<g id="a_Node000018"><a target="_blank" xlink:href="open62541/types__generated_8h.html" xlink:title=" ">
<polygon fill="white" stroke="#666666" points="347,-19 183,-19 183,0 347,0 347,-19"/>
<text text-anchor="middle" x="265" y="-7" font-family="Helvetica,sans-Serif" font-size="10.00">open62541/types_generated.h</text>
</a>
</g>
</g>
<!-- Node14&#45;&gt;Node18 -->
<g id="edge22_Node000014_Node000018" class="edge">
<title>Node14&#45;&gt;Node18</title>
<g id="a_edge22_Node000014_Node000018"><a xlink:title=" ">
<path fill="none" stroke="#63b8ff" d="M395.75,-60.49C369.69,-50.53 326.32,-33.95 296.73,-22.63"/>
<polygon fill="#63b8ff" stroke="#63b8ff" points="297.86,-19.32 287.27,-19.02 295.36,-25.86 297.86,-19.32"/>
</a>
</g>
</g>
<!-- Node19&#45;&gt;Node5 -->
<g id="edge25_Node000019_Node000005" class="edge">
<title>Node19&#45;&gt;Node5</title>
<g id="a_edge25_Node000019_Node000005"><a xlink:title=" ">
<path fill="none" stroke="#63b8ff" d="M277.61,-181.37C293.69,-171.86 319.78,-156.45 338.7,-145.27"/>
<polygon fill="#63b8ff" stroke="#63b8ff" points="340.5,-148.27 347.33,-140.17 336.94,-142.24 340.5,-148.27"/>
</a>
</g>
</g>
<!-- Node19&#45;&gt;Node14 -->
<g id="edge26_Node000019_Node000014" class="edge">
<title>Node19&#45;&gt;Node14</title>
<g id="a_edge26_Node000019_Node000014"><a xlink:title=" ">
<path fill="none" stroke="#63b8ff" d="M270.3,-181.18C282.09,-167.28 306.5,-139.9 331,-121 349.62,-106.63 372.8,-93.51 390.54,-84.32"/>
<polygon fill="#63b8ff" stroke="#63b8ff" points="392.45,-87.28 399.78,-79.64 389.28,-81.04 392.45,-87.28"/>
</a>
</g>
</g>
<!-- Node20 -->
<g id="Node000020" class="node">
<title>Node20</title>
<g id="a_Node000020"><a xlink:title=" ">
<polygon fill="#e0e0e0" stroke="#999999" points="283.5,-140 218.5,-140 218.5,-121 283.5,-121 283.5,-140"/>
<text text-anchor="middle" x="251" y="-128" font-family="Helvetica,sans-Serif" font-size="10.00">stdexcept</text>
</a>
</g>
</g>
<!-- Node19&#45;&gt;Node20 -->
<g id="edge24_Node000019_Node000020" class="edge">
<title>Node19&#45;&gt;Node20</title>
<g id="a_edge24_Node000019_Node000020"><a xlink:title=" ">
<path fill="none" stroke="#63b8ff" d="M261.23,-181.37C259.55,-173.16 256.96,-160.54 254.81,-150.05"/>
<polygon fill="#63b8ff" stroke="#63b8ff" points="258.22,-149.26 252.78,-140.17 251.36,-150.67 258.22,-149.26"/>
</a>
</g>
</g>
<!-- Node21&#45;&gt;Node5 -->
<g id="edge29_Node000021_Node000005" class="edge">
<title>Node21&#45;&gt;Node5</title>
<g id="a_edge29_Node000021_Node000005"><a xlink:title=" ">
<path fill="none" stroke="#63b8ff" d="M590.48,-177.98C587.27,-177.31 584.1,-176.64 581,-176 514.64,-162.22 436.86,-146.52 394.16,-137.94"/>
<polygon fill="#63b8ff" stroke="#63b8ff" points="394.58,-134.46 384.08,-135.92 393.2,-141.32 394.58,-134.46"/>
</a>
</g>
</g>
<!-- Node21&#45;&gt;Node6 -->
<g id="edge30_Node000021_Node000006" class="edge">
<title>Node21&#45;&gt;Node6</title>
<g id="a_edge30_Node000021_Node000006"><a xlink:title=" ">
<path fill="none" stroke="#63b8ff" d="M663.94,-175.96C675.82,-166.03 692.01,-152.35 706,-140 726.37,-122.02 749.29,-100.78 764.37,-86.66"/>
<polygon fill="#63b8ff" stroke="#63b8ff" points="766.98,-89.02 771.87,-79.62 762.19,-83.91 766.98,-89.02"/>
</a>
</g>
</g>
<!-- Node21&#45;&gt;Node8 -->
<g id="edge28_Node000021_Node000008" class="edge">
<title>Node21&#45;&gt;Node8</title>
<g id="a_edge28_Node000021_Node000008"><a xlink:title=" ">
<path fill="none" stroke="#63b8ff" d="M678.62,-175.99C700.35,-166.36 728.97,-153.67 750.09,-144.31"/>
<polygon fill="#63b8ff" stroke="#63b8ff" points="751.78,-147.39 759.51,-140.14 748.95,-140.99 751.78,-147.39"/>
</a>
</g>
</g>
<!-- Node21&#45;&gt;Node11 -->
<g id="edge31_Node000021_Node000011" class="edge">
<title>Node21&#45;&gt;Node11</title>
<g id="a_edge31_Node000021_Node000011"><a xlink:title=" ">
<path fill="none" stroke="#63b8ff" d="M642.16,-175.84C639.49,-168.04 636.15,-158.27 633.29,-149.89"/>
<polygon fill="#63b8ff" stroke="#63b8ff" points="636.54,-148.6 630,-140.27 629.92,-150.86 636.54,-148.6"/>
</a>
</g>
</g>
<!-- Node21&#45;&gt;Node14 -->
<g id="edge32_Node000021_Node000014" class="edge">
<title>Node21&#45;&gt;Node14</title>
<g id="a_edge32_Node000021_Node000014"><a xlink:title=" ">
<path fill="none" stroke="#63b8ff" d="M619.07,-175.87C599.44,-165.91 572.57,-152.22 549,-140 512.01,-120.82 469.34,-98.27 443.02,-84.3"/>
<polygon fill="#63b8ff" stroke="#63b8ff" points="444.57,-81.16 434.1,-79.57 441.29,-87.35 444.57,-81.16"/>
</a>
</g>
</g>
<!-- Node22&#45;&gt;Node14 -->
<g id="edge35_Node000022_Node000014" class="edge">
<title>Node22&#45;&gt;Node14</title>
<g id="a_edge35_Node000022_Node000014"><a xlink:title=" ">
<path fill="none" stroke="#63b8ff" d="M494.68,-175.88C478.63,-153.92 447.73,-111.66 430.46,-88.04"/>
<polygon fill="#63b8ff" stroke="#63b8ff" points="433.1,-85.72 424.37,-79.71 427.45,-89.85 433.1,-85.72"/>
</a>
</g>
</g>
</g>
</svg>
