<?xml version="1.0" encoding="UTF-8" standalone="no"?>
<!DOCTYPE svg PUBLIC "-//W3C//DTD SVG 1.1//EN"
 "http://www.w3.org/Graphics/SVG/1.1/DTD/svg11.dtd">
<!-- Generated by graphviz version 2.43.0 (0)
 -->
<!-- Title: /home/runner/work/open62541pp/open62541pp/src/types/DateTime.cpp Pages: 1 -->
<svg width="1799pt" height="386pt"
 viewBox="0.00 0.00 1799.19 386.00" xmlns="http://www.w3.org/2000/svg" xmlns:xlink="http://www.w3.org/1999/xlink">
<g id="graph0" class="graph" transform="scale(1 1) rotate(0) translate(4 382)">
<title>/home/runner/work/open62541pp/open62541pp/src/types/DateTime.cpp</title>
<!-- Node1 -->
<g id="node1" class="node">
<title>Node1</title>
<g id="a_node1"><a xlink:title=" ">
<polygon fill="#bfbfbf" stroke="black" points="942.69,-347.5 942.69,-377.5 1146.69,-377.5 1146.69,-347.5 942.69,-347.5"/>
<text text-anchor="start" x="950.69" y="-365.5" font-family="Helvetica,sans-Serif" font-size="10.00">/home/runner/work/open62541pp</text>
<text text-anchor="middle" x="1044.69" y="-354.5" font-family="Helvetica,sans-Serif" font-size="10.00">/open62541pp/src/types/DateTime.cpp</text>
</a>
</g>
</g>
<!-- Node2 -->
<g id="node2" class="node">
<title>Node2</title>
<g id="a_node2"><a xlink:href="DateTime_8h.html" target="_top" xlink:title=" ">
<polygon fill="none" stroke="black" points="771.19,-291.5 771.19,-310.5 944.19,-310.5 944.19,-291.5 771.19,-291.5"/>
<text text-anchor="middle" x="857.69" y="-298.5" font-family="Helvetica,sans-Serif" font-size="10.00">open62541pp/types/DateTime.h</text>
</a>
</g>
</g>
<!-- Node1&#45;&gt;Node2 -->
<g id="edge1" class="edge">
<title>Node1&#45;&gt;Node2</title>
<path fill="none" stroke="midnightblue" d="M1000.38,-347.4C968.06,-337.12 924.79,-323.35 894.41,-313.68"/>
<polygon fill="midnightblue" stroke="midnightblue" points="895.22,-310.27 884.63,-310.57 893.1,-316.94 895.22,-310.27"/>
</g>
<!-- Node23 -->
<g id="node23" class="node">
<title>Node23</title>
<g id="a_node23"><a xlink:href="open62541__impl_8h.html" target="_top" xlink:title=" ">
<polygon fill="none" stroke="black" points="1197.69,-291.5 1197.69,-310.5 1313.69,-310.5 1313.69,-291.5 1197.69,-291.5"/>
<text text-anchor="middle" x="1255.69" y="-298.5" font-family="Helvetica,sans-Serif" font-size="10.00">../open62541_impl.h</text>
</a>
</g>
</g>
<!-- Node1&#45;&gt;Node23 -->
<g id="edge36" class="edge">
<title>Node1&#45;&gt;Node23</title>
<path fill="none" stroke="midnightblue" d="M1094.43,-347.47C1131.47,-337.03 1181.37,-322.96 1215.81,-313.25"/>
<polygon fill="midnightblue" stroke="midnightblue" points="1216.85,-316.59 1225.53,-310.51 1214.95,-309.85 1216.85,-316.59"/>
</g>
<!-- Node3 -->
<g id="node3" class="node">
<title>Node3</title>
<g id="a_node3"><a xlink:title=" ">
<polygon fill="none" stroke="#bfbfbf" points="919.69,-230 919.69,-249 969.69,-249 969.69,-230 919.69,-230"/>
<text text-anchor="middle" x="944.69" y="-237" font-family="Helvetica,sans-Serif" font-size="10.00">chrono</text>
</a>
</g>
</g>
<!-- Node2&#45;&gt;Node3 -->
<g id="edge2" class="edge">
<title>Node2&#45;&gt;Node3</title>
<path fill="none" stroke="midnightblue" d="M870.16,-291.48C884.11,-281.93 906.96,-266.31 923.68,-254.87"/>
<polygon fill="midnightblue" stroke="midnightblue" points="925.97,-257.54 932.25,-249.01 922.02,-251.77 925.97,-257.54"/>
</g>
<!-- Node4 -->
<g id="node4" class="node">
<title>Node4</title>
<g id="a_node4"><a xlink:title=" ">
<polygon fill="none" stroke="#bfbfbf" points="11.69,-56.5 11.69,-75.5 61.69,-75.5 61.69,-56.5 11.69,-56.5"/>
<text text-anchor="middle" x="36.69" y="-63.5" font-family="Helvetica,sans-Serif" font-size="10.00">cstdint</text>
</a>
</g>
</g>
<!-- Node2&#45;&gt;Node4 -->
<g id="edge3" class="edge">
<title>Node2&#45;&gt;Node4</title>
<path fill="none" stroke="midnightblue" d="M770.93,-296.8C633.06,-291.11 370.25,-277.66 279.69,-255 172.15,-228.09 126.77,-222.47 62.69,-132 52.6,-117.76 45.65,-99.04 41.49,-85.35"/>
<polygon fill="midnightblue" stroke="midnightblue" points="44.83,-84.3 38.75,-75.63 38.1,-86.2 44.83,-84.3"/>
</g>
<!-- Node5 -->
<g id="node5" class="node">
<title>Node5</title>
<g id="a_node5"><a xlink:title=" ">
<polygon fill="none" stroke="#bfbfbf" points="862.19,-230 862.19,-249 901.19,-249 901.19,-230 862.19,-230"/>
<text text-anchor="middle" x="881.69" y="-237" font-family="Helvetica,sans-Serif" font-size="10.00">ratio</text>
</a>
</g>
</g>
<!-- Node2&#45;&gt;Node5 -->
<g id="edge4" class="edge">
<title>Node2&#45;&gt;Node5</title>
<path fill="none" stroke="midnightblue" d="M861.13,-291.48C864.59,-282.9 870.02,-269.43 874.44,-258.48"/>
<polygon fill="midnightblue" stroke="midnightblue" points="877.77,-259.59 878.26,-249.01 871.27,-256.97 877.77,-259.59"/>
</g>
<!-- Node6 -->
<g id="node6" class="node">
<title>Node6</title>
<g id="a_node6"><a xlink:href="TypeWrapper_8h.html" target="_top" xlink:title=" ">
<polygon fill="none" stroke="black" points="288.69,-230 288.69,-249 446.69,-249 446.69,-230 288.69,-230"/>
<text text-anchor="middle" x="367.69" y="-237" font-family="Helvetica,sans-Serif" font-size="10.00">open62541pp/TypeWrapper.h</text>
</a>
</g>
</g>
<!-- Node2&#45;&gt;Node6 -->
<g id="edge5" class="edge">
<title>Node2&#45;&gt;Node6</title>
<path fill="none" stroke="midnightblue" d="M787.49,-291.48C697.61,-280.56 542.26,-261.7 447.84,-250.23"/>
<polygon fill="midnightblue" stroke="midnightblue" points="448.12,-246.74 437.77,-249.01 447.27,-253.69 448.12,-246.74"/>
</g>
<!-- Node14 -->
<g id="node14" class="node">
<title>Node14</title>
<g id="a_node14"><a xlink:href="open62541_8h.html" target="_top" xlink:title=" ">
<polygon fill="none" stroke="black" points="549.19,-56.5 549.19,-75.5 698.19,-75.5 698.19,-56.5 549.19,-56.5"/>
<text text-anchor="middle" x="623.69" y="-63.5" font-family="Helvetica,sans-Serif" font-size="10.00">open62541pp/open62541.h</text>
</a>
</g>
</g>
<!-- Node2&#45;&gt;Node14 -->
<g id="edge35" class="edge">
<title>Node2&#45;&gt;Node14</title>
<path fill="none" stroke="midnightblue" d="M857.07,-291.21C855.02,-268.31 846.66,-205.99 814.69,-168 775.14,-121.01 708.04,-92.81 664.82,-78.59"/>
<polygon fill="midnightblue" stroke="midnightblue" points="665.77,-75.22 655.18,-75.52 663.64,-81.89 665.77,-75.22"/>
</g>
<!-- Node6&#45;&gt;Node4 -->
<g id="edge7" class="edge">
<title>Node6&#45;&gt;Node4</title>
<path fill="none" stroke="midnightblue" d="M315.55,-229.95C274.93,-222.16 217.72,-208.67 170.69,-188 128.94,-169.65 117.88,-163.29 84.69,-132 69.6,-117.77 55.93,-98.29 47.07,-84.38"/>
<polygon fill="midnightblue" stroke="midnightblue" points="49.98,-82.43 41.75,-75.76 44.03,-86.11 49.98,-82.43"/>
</g>
<!-- Node7 -->
<g id="node7" class="node">
<title>Node7</title>
<g id="a_node7"><a xlink:title=" ">
<polygon fill="none" stroke="#bfbfbf" points="359.69,-112.5 359.69,-131.5 411.69,-131.5 411.69,-112.5 359.69,-112.5"/>
<text text-anchor="middle" x="385.69" y="-119.5" font-family="Helvetica,sans-Serif" font-size="10.00">cassert</text>
</a>
</g>
</g>
<!-- Node6&#45;&gt;Node7 -->
<g id="edge6" class="edge">
<title>Node6&#45;&gt;Node7</title>
<path fill="none" stroke="midnightblue" d="M365.37,-229.68C362.2,-216.19 357.47,-189.71 362.69,-168 365,-158.42 369.71,-148.58 374.27,-140.56"/>
<polygon fill="midnightblue" stroke="midnightblue" points="377.38,-142.17 379.59,-131.81 371.4,-138.54 377.38,-142.17"/>
</g>
<!-- Node8 -->
<g id="node8" class="node">
<title>Node8</title>
<g id="a_node8"><a xlink:title=" ">
<polygon fill="none" stroke="#bfbfbf" points="35.19,-0.5 35.19,-19.5 104.19,-19.5 104.19,-0.5 35.19,-0.5"/>
<text text-anchor="middle" x="69.69" y="-7.5" font-family="Helvetica,sans-Serif" font-size="10.00">type_traits</text>
</a>
</g>
</g>
<!-- Node6&#45;&gt;Node8 -->
<g id="edge8" class="edge">
<title>Node6&#45;&gt;Node8</title>
<path fill="none" stroke="midnightblue" d="M288.66,-232.2C239.92,-225.87 177.28,-213.24 126.69,-188 60.24,-154.85 32.29,-144.11 2.69,-76 -6.92,-53.89 17.26,-35.53 39.21,-24.02"/>
<polygon fill="midnightblue" stroke="midnightblue" points="40.94,-27.07 48.37,-19.52 37.85,-20.79 40.94,-27.07"/>
</g>
<!-- Node9 -->
<g id="node9" class="node">
<title>Node9</title>
<g id="a_node9"><a xlink:title=" ">
<polygon fill="none" stroke="#bfbfbf" points="371.19,-168.5 371.19,-187.5 416.19,-187.5 416.19,-168.5 371.19,-168.5"/>
<text text-anchor="middle" x="393.69" y="-175.5" font-family="Helvetica,sans-Serif" font-size="10.00">utility</text>
</a>
</g>
</g>
<!-- Node6&#45;&gt;Node9 -->
<g id="edge9" class="edge">
<title>Node6&#45;&gt;Node9</title>
<path fill="none" stroke="midnightblue" d="M371.42,-229.98C375.16,-221.4 381.05,-207.93 385.83,-196.98"/>
<polygon fill="midnightblue" stroke="midnightblue" points="389.18,-198.07 389.97,-187.51 382.76,-195.27 389.18,-198.07"/>
</g>
<!-- Node10 -->
<g id="node10" class="node">
<title>Node10</title>
<g id="a_node10"><a xlink:href="Common_8h.html" target="_top" xlink:title=" ">
<polygon fill="none" stroke="black" points="126.19,-112.5 126.19,-131.5 265.19,-131.5 265.19,-112.5 126.19,-112.5"/>
<text text-anchor="middle" x="195.69" y="-119.5" font-family="Helvetica,sans-Serif" font-size="10.00">open62541pp/Common.h</text>
</a>
</g>
</g>
<!-- Node6&#45;&gt;Node10 -->
<g id="edge10" class="edge">
<title>Node6&#45;&gt;Node10</title>
<path fill="none" stroke="midnightblue" d="M305.13,-229.96C256.6,-221.9 195.06,-208.05 179.69,-188 169.12,-174.21 176.35,-154.36 184.2,-140.23"/>
<polygon fill="midnightblue" stroke="midnightblue" points="187.3,-141.87 189.52,-131.51 181.32,-138.22 187.3,-141.87"/>
</g>
<!-- Node6&#45;&gt;Node14 -->
<g id="edge34" class="edge">
<title>Node6&#45;&gt;Node14</title>
<path fill="none" stroke="midnightblue" d="M446.91,-231.22C507.16,-223.99 583.25,-210.64 604.69,-188 630.81,-160.43 629.73,-112.45 626.7,-85.94"/>
<polygon fill="midnightblue" stroke="midnightblue" points="630.12,-85.16 625.3,-75.73 623.19,-86.11 630.12,-85.16"/>
</g>
<!-- Node18 -->
<g id="node18" class="node">
<title>Node18</title>
<g id="a_node18"><a xlink:href="Comparison_8h.html" target="_top" xlink:title=" ">
<polygon fill="none" stroke="black" points="652.19,-168.5 652.19,-187.5 805.19,-187.5 805.19,-168.5 652.19,-168.5"/>
<text text-anchor="middle" x="728.69" y="-175.5" font-family="Helvetica,sans-Serif" font-size="10.00">open62541pp/Comparison.h</text>
</a>
</g>
</g>
<!-- Node6&#45;&gt;Node18 -->
<g id="edge21" class="edge">
<title>Node6&#45;&gt;Node18</title>
<path fill="none" stroke="midnightblue" d="M419.41,-229.98C484.82,-219.19 597.31,-200.65 667.09,-189.15"/>
<polygon fill="midnightblue" stroke="midnightblue" points="667.77,-192.59 677.07,-187.51 666.63,-185.68 667.77,-192.59"/>
</g>
<!-- Node19 -->
<g id="node19" class="node">
<title>Node19</title>
<g id="a_node19"><a xlink:href="ErrorHandling_8h.html" target="_top" xlink:title=" ">
<polygon fill="none" stroke="black" points="434.19,-168.5 434.19,-187.5 595.19,-187.5 595.19,-168.5 434.19,-168.5"/>
<text text-anchor="middle" x="514.69" y="-175.5" font-family="Helvetica,sans-Serif" font-size="10.00">open62541pp/ErrorHandling.h</text>
</a>
</g>
</g>
<!-- Node6&#45;&gt;Node19 -->
<g id="edge23" class="edge">
<title>Node6&#45;&gt;Node19</title>
<path fill="none" stroke="midnightblue" d="M388.75,-229.98C413.75,-219.86 455.63,-202.9 484.18,-191.35"/>
<polygon fill="midnightblue" stroke="midnightblue" points="485.71,-194.51 493.67,-187.51 483.09,-188.02 485.71,-194.51"/>
</g>
<!-- Node22 -->
<g id="node22" class="node">
<title>Node22</title>
<g id="a_node22"><a xlink:href="Helper_8h.html" target="_top" xlink:title=" ">
<polygon fill="none" stroke="black" points="188.69,-168.5 188.69,-187.5 314.69,-187.5 314.69,-168.5 188.69,-168.5"/>
<text text-anchor="middle" x="251.69" y="-175.5" font-family="Helvetica,sans-Serif" font-size="10.00">open62541pp/Helper.h</text>
</a>
</g>
</g>
<!-- Node6&#45;&gt;Node22 -->
<g id="edge27" class="edge">
<title>Node6&#45;&gt;Node22</title>
<path fill="none" stroke="midnightblue" d="M351.07,-229.98C331.78,-220.08 299.73,-203.64 277.26,-192.12"/>
<polygon fill="midnightblue" stroke="midnightblue" points="278.78,-188.96 268.28,-187.51 275.58,-195.19 278.78,-188.96"/>
</g>
<!-- Node10&#45;&gt;Node4 -->
<g id="edge11" class="edge">
<title>Node10&#45;&gt;Node4</title>
<path fill="none" stroke="midnightblue" d="M170.5,-112.44C143.75,-103.36 101.29,-88.94 71.39,-78.78"/>
<polygon fill="midnightblue" stroke="midnightblue" points="72.36,-75.42 61.77,-75.52 70.11,-82.05 72.36,-75.42"/>
</g>
<!-- Node11 -->
<g id="node11" class="node">
<title>Node11</title>
<g id="a_node11"><a xlink:title=" ">
<polygon fill="none" stroke="#bfbfbf" points="258.19,-56.5 258.19,-75.5 331.19,-75.5 331.19,-56.5 258.19,-56.5"/>
<text text-anchor="middle" x="294.69" y="-63.5" font-family="Helvetica,sans-Serif" font-size="10.00">string_view</text>
</a>
</g>
</g>
<!-- Node10&#45;&gt;Node11 -->
<g id="edge12" class="edge">
<title>Node10&#45;&gt;Node11</title>
<path fill="none" stroke="midnightblue" d="M211.6,-112.32C227.33,-103.74 251.63,-90.49 269.9,-80.52"/>
<polygon fill="midnightblue" stroke="midnightblue" points="271.72,-83.52 278.83,-75.65 268.37,-77.37 271.72,-83.52"/>
</g>
<!-- Node12 -->
<g id="node12" class="node">
<title>Node12</title>
<g id="a_node12"><a xlink:title=" ">
<polygon fill="none" stroke="#bfbfbf" points="164.19,-0.5 164.19,-19.5 205.19,-19.5 205.19,-0.5 164.19,-0.5"/>
<text text-anchor="middle" x="184.69" y="-7.5" font-family="Helvetica,sans-Serif" font-size="10.00">tuple</text>
</a>
</g>
</g>
<!-- Node10&#45;&gt;Node12 -->
<g id="edge13" class="edge">
<title>Node10&#45;&gt;Node12</title>
<path fill="none" stroke="midnightblue" d="M200.23,-112.11C206.06,-99.55 214.85,-75.89 209.69,-56 207.15,-46.18 201.94,-36.21 196.93,-28.17"/>
<polygon fill="midnightblue" stroke="midnightblue" points="199.77,-26.11 191.32,-19.73 193.94,-29.99 199.77,-26.11"/>
</g>
<!-- Node13 -->
<g id="node13" class="node">
<title>Node13</title>
<g id="a_node13"><a xlink:href="Traits_8h.html" target="_top" xlink:title=" ">
<polygon fill="none" stroke="black" points="80.19,-56.5 80.19,-75.5 201.19,-75.5 201.19,-56.5 80.19,-56.5"/>
<text text-anchor="middle" x="140.69" y="-63.5" font-family="Helvetica,sans-Serif" font-size="10.00">open62541pp/Traits.h</text>
</a>
</g>
</g>
<!-- Node10&#45;&gt;Node13 -->
<g id="edge14" class="edge">
<title>Node10&#45;&gt;Node13</title>
<path fill="none" stroke="midnightblue" d="M186.61,-112.08C178.52,-104.14 166.5,-92.34 156.78,-82.8"/>
<polygon fill="midnightblue" stroke="midnightblue" points="159.19,-80.26 149.61,-75.75 154.29,-85.25 159.19,-80.26"/>
</g>
<!-- Node10&#45;&gt;Node14 -->
<g id="edge17" class="edge">
<title>Node10&#45;&gt;Node14</title>
<path fill="none" stroke="midnightblue" d="M263.51,-112.44C340.37,-102.75 465.4,-86.97 546.09,-76.79"/>
<polygon fill="midnightblue" stroke="midnightblue" points="546.71,-80.24 556.19,-75.52 545.83,-73.3 546.71,-80.24"/>
</g>
<!-- Node13&#45;&gt;Node8 -->
<g id="edge16" class="edge">
<title>Node13&#45;&gt;Node8</title>
<path fill="none" stroke="midnightblue" d="M129.28,-56.32C118.58,-48.18 102.35,-35.84 89.53,-26.09"/>
<polygon fill="midnightblue" stroke="midnightblue" points="91.39,-23.1 81.31,-19.83 87.15,-28.67 91.39,-23.1"/>
</g>
<!-- Node13&#45;&gt;Node12 -->
<g id="edge15" class="edge">
<title>Node13&#45;&gt;Node12</title>
<path fill="none" stroke="midnightblue" d="M147.96,-56.08C154.24,-48.38 163.48,-37.03 171.12,-27.65"/>
<polygon fill="midnightblue" stroke="midnightblue" points="173.96,-29.71 177.56,-19.75 168.53,-25.29 173.96,-29.71"/>
</g>
<!-- Node15 -->
<g id="node15" class="node">
<title>Node15</title>
<g id="a_node15"><a xlink:href="open62541/nodeids_8h.html.html" xlink:title=" ">
<polygon fill="none" stroke="black" points="563.19,-0.5 563.19,-19.5 684.19,-19.5 684.19,-0.5 563.19,-0.5"/>
<text text-anchor="middle" x="623.69" y="-7.5" font-family="Helvetica,sans-Serif" font-size="10.00">open62541/nodeids.h</text>
</a>
</g>
</g>
<!-- Node14&#45;&gt;Node15 -->
<g id="edge18" class="edge">
<title>Node14&#45;&gt;Node15</title>
<path fill="none" stroke="midnightblue" d="M623.69,-56.08C623.69,-49.01 623.69,-38.86 623.69,-29.99"/>
<polygon fill="midnightblue" stroke="midnightblue" points="627.19,-29.75 623.69,-19.75 620.19,-29.75 627.19,-29.75"/>
</g>
<!-- Node16 -->
<g id="node16" class="node">
<title>Node16</title>
<g id="a_node16"><a xlink:href="open62541/types_8h.html.html" xlink:title=" ">
<polygon fill="none" stroke="black" points="702.69,-0.5 702.69,-19.5 812.69,-19.5 812.69,-0.5 702.69,-0.5"/>
<text text-anchor="middle" x="757.69" y="-7.5" font-family="Helvetica,sans-Serif" font-size="10.00">open62541/types.h</text>
</a>
</g>
</g>
<!-- Node14&#45;&gt;Node16 -->
<g id="edge19" class="edge">
<title>Node14&#45;&gt;Node16</title>
<path fill="none" stroke="midnightblue" d="M644.92,-56.44C667.08,-47.52 702.01,-33.44 727.13,-23.32"/>
<polygon fill="midnightblue" stroke="midnightblue" points="728.59,-26.5 736.56,-19.52 725.98,-20.01 728.59,-26.5"/>
</g>
<!-- Node17 -->
<g id="node17" class="node">
<title>Node17</title>
<g id="a_node17"><a xlink:href="open62541/types__generated_8h.html.html" xlink:title=" ">
<polygon fill="none" stroke="black" points="380.69,-0.5 380.69,-19.5 544.69,-19.5 544.69,-0.5 380.69,-0.5"/>
<text text-anchor="middle" x="462.69" y="-7.5" font-family="Helvetica,sans-Serif" font-size="10.00">open62541/types_generated.h</text>
</a>
</g>
</g>
<!-- Node14&#45;&gt;Node17 -->
<g id="edge20" class="edge">
<title>Node14&#45;&gt;Node17</title>
<path fill="none" stroke="midnightblue" d="M598.18,-56.44C571.1,-47.36 528.1,-32.94 497.82,-22.78"/>
<polygon fill="midnightblue" stroke="midnightblue" points="498.68,-19.38 488.08,-19.52 496.45,-26.01 498.68,-19.38"/>
</g>
<!-- Node18&#45;&gt;Node14 -->
<g id="edge22" class="edge">
<title>Node18&#45;&gt;Node14</title>
<path fill="none" stroke="midnightblue" d="M720.45,-168.37C702.9,-149.97 661.56,-106.67 639.01,-83.05"/>
<polygon fill="midnightblue" stroke="midnightblue" points="641.33,-80.41 631.89,-75.59 636.27,-85.24 641.33,-80.41"/>
</g>
<!-- Node19&#45;&gt;Node14 -->
<g id="edge26" class="edge">
<title>Node19&#45;&gt;Node14</title>
<path fill="none" stroke="midnightblue" d="M513.12,-168.47C511.14,-155.06 509.37,-128.86 521.69,-112 533.41,-95.97 552.11,-85.57 570.32,-78.85"/>
<polygon fill="midnightblue" stroke="midnightblue" points="571.68,-82.08 580.04,-75.57 569.45,-75.45 571.68,-82.08"/>
</g>
<!-- Node20 -->
<g id="node20" class="node">
<title>Node20</title>
<g id="a_node20"><a xlink:title=" ">
<polygon fill="none" stroke="#bfbfbf" points="530.19,-112.5 530.19,-131.5 595.19,-131.5 595.19,-112.5 530.19,-112.5"/>
<text text-anchor="middle" x="562.69" y="-119.5" font-family="Helvetica,sans-Serif" font-size="10.00">stdexcept</text>
</a>
</g>
</g>
<!-- Node19&#45;&gt;Node20 -->
<g id="edge24" class="edge">
<title>Node19&#45;&gt;Node20</title>
<path fill="none" stroke="midnightblue" d="M522.62,-168.08C529.54,-160.3 539.76,-148.8 548.14,-139.37"/>
<polygon fill="midnightblue" stroke="midnightblue" points="550.89,-141.55 554.91,-131.75 545.65,-136.9 550.89,-141.55"/>
</g>
<!-- Node21 -->
<g id="node21" class="node">
<title>Node21</title>
<g id="a_node21"><a xlink:title=" ">
<polygon fill="none" stroke="#bfbfbf" points="429.69,-112.5 429.69,-131.5 473.69,-131.5 473.69,-112.5 429.69,-112.5"/>
<text text-anchor="middle" x="451.69" y="-119.5" font-family="Helvetica,sans-Serif" font-size="10.00">string</text>
</a>
</g>
</g>
<!-- Node19&#45;&gt;Node21 -->
<g id="edge25" class="edge">
<title>Node19&#45;&gt;Node21</title>
<path fill="none" stroke="midnightblue" d="M504.57,-168.32C495.17,-160.26 480.95,-148.08 469.62,-138.37"/>
<polygon fill="midnightblue" stroke="midnightblue" points="471.87,-135.68 462,-131.83 467.31,-141 471.87,-135.68"/>
</g>
<!-- Node22&#45;&gt;Node4 -->
<g id="edge29" class="edge">
<title>Node22&#45;&gt;Node4</title>
<path fill="none" stroke="midnightblue" d="M214.4,-168.45C186.43,-161.13 147.77,-149.06 116.69,-132 92.34,-118.63 68.1,-97.57 52.8,-83.07"/>
<polygon fill="midnightblue" stroke="midnightblue" points="54.88,-80.22 45.27,-75.77 50.01,-85.24 54.88,-80.22"/>
</g>
<!-- Node22&#45;&gt;Node7 -->
<g id="edge28" class="edge">
<title>Node22&#45;&gt;Node7</title>
<path fill="none" stroke="midnightblue" d="M272.92,-168.44C295.08,-159.52 330.01,-145.44 355.13,-135.32"/>
<polygon fill="midnightblue" stroke="midnightblue" points="356.59,-138.5 364.56,-131.52 353.98,-132.01 356.59,-138.5"/>
</g>
<!-- Node22&#45;&gt;Node10 -->
<g id="edge32" class="edge">
<title>Node22&#45;&gt;Node10</title>
<path fill="none" stroke="midnightblue" d="M242.69,-168.32C234.5,-160.42 222.19,-148.55 212.22,-138.94"/>
<polygon fill="midnightblue" stroke="midnightblue" points="214.48,-136.26 204.85,-131.83 209.62,-141.29 214.48,-136.26"/>
</g>
<!-- Node22&#45;&gt;Node11 -->
<g id="edge31" class="edge">
<title>Node22&#45;&gt;Node11</title>
<path fill="none" stroke="midnightblue" d="M256.74,-168.25C261.75,-159.33 269.41,-145.01 274.69,-132 280.94,-116.62 286.35,-98.52 289.97,-85.33"/>
<polygon fill="midnightblue" stroke="midnightblue" points="293.38,-86.14 292.56,-75.58 286.61,-84.34 293.38,-86.14"/>
</g>
<!-- Node22&#45;&gt;Node14 -->
<g id="edge33" class="edge">
<title>Node22&#45;&gt;Node14</title>
<path fill="none" stroke="midnightblue" d="M261.59,-168.43C278.56,-154.22 314.88,-125.98 350.69,-112 411.14,-88.4 483.81,-77.18 538.98,-71.84"/>
<polygon fill="midnightblue" stroke="midnightblue" points="539.43,-75.31 549.07,-70.91 538.79,-68.34 539.43,-75.31"/>
</g>
<!-- Node22&#45;&gt;Node21 -->
<g id="edge30" class="edge">
<title>Node22&#45;&gt;Node21</title>
<path fill="none" stroke="midnightblue" d="M284.78,-168.42C316.9,-160.05 367.26,-146.78 419.57,-132.27"/>
<polygon fill="midnightblue" stroke="midnightblue" points="420.66,-135.6 429.36,-129.55 418.79,-128.86 420.66,-135.6"/>
</g>
<!-- Node23&#45;&gt;Node14 -->
<g id="edge37" class="edge">
<title>Node23&#45;&gt;Node14</title>
<path fill="none" stroke="midnightblue" d="M1242.53,-291.33C1229.25,-282.48 1208.24,-268.2 1190.69,-255 1173.27,-241.9 1171.96,-234.19 1152.69,-224 995.74,-141.01 788.79,-95.9 686.49,-77.31"/>
<polygon fill="midnightblue" stroke="midnightblue" points="687.09,-73.87 676.63,-75.55 685.85,-80.76 687.09,-73.87"/>
</g>
<!-- Node24 -->
<g id="node24" class="node">
<title>Node24</title>
<g id="a_node24"><a xlink:href="open62541/config_8h.html.html" xlink:title=" ">
<polygon fill="none" stroke="black" points="1199.69,-230 1199.69,-249 1311.69,-249 1311.69,-230 1199.69,-230"/>
<text text-anchor="middle" x="1255.69" y="-237" font-family="Helvetica,sans-Serif" font-size="10.00">open62541/config.h</text>
</a>
</g>
</g>
<!-- Node23&#45;&gt;Node24 -->
<g id="edge38" class="edge">
<title>Node23&#45;&gt;Node24</title>
<path fill="none" stroke="midnightblue" d="M1255.69,-291.48C1255.69,-283.08 1255.69,-269.98 1255.69,-259.16"/>
<polygon fill="midnightblue" stroke="midnightblue" points="1259.19,-259.01 1255.69,-249.01 1252.19,-259.01 1259.19,-259.01"/>
</g>
<!-- Node25 -->
<g id="node25" class="node">
<title>Node25</title>
<g id="a_node25"><a xlink:href="open62541/accesscontrol__default_8h.html.html" xlink:title=" ">
<polygon fill="none" stroke="black" points="1330.19,-224.5 1330.19,-254.5 1503.19,-254.5 1503.19,-224.5 1330.19,-224.5"/>
<text text-anchor="start" x="1338.19" y="-242.5" font-family="Helvetica,sans-Serif" font-size="10.00">open62541/plugin/accesscontrol</text>
<text text-anchor="middle" x="1416.69" y="-231.5" font-family="Helvetica,sans-Serif" font-size="10.00">_default.h</text>
</a>
</g>
</g>
<!-- Node23&#45;&gt;Node25 -->
<g id="edge39" class="edge">
<title>Node23&#45;&gt;Node25</title>
<path fill="none" stroke="midnightblue" d="M1278.76,-291.48C1302.3,-282.78 1339.5,-269.03 1369.34,-258"/>
<polygon fill="midnightblue" stroke="midnightblue" points="1370.58,-261.27 1378.75,-254.52 1368.15,-254.71 1370.58,-261.27"/>
</g>
<!-- Node26 -->
<g id="node26" class="node">
<title>Node26</title>
<g id="a_node26"><a xlink:href="open62541/server_8h.html.html" xlink:title=" ">
<polygon fill="none" stroke="black" points="1521.19,-230 1521.19,-249 1634.19,-249 1634.19,-230 1521.19,-230"/>
<text text-anchor="middle" x="1577.69" y="-237" font-family="Helvetica,sans-Serif" font-size="10.00">open62541/server.h</text>
</a>
</g>
</g>
<!-- Node23&#45;&gt;Node26 -->
<g id="edge40" class="edge">
<title>Node23&#45;&gt;Node26</title>
<path fill="none" stroke="midnightblue" d="M1308.49,-291.49C1360.54,-282.92 1442.28,-269.01 1512.69,-255 1518.58,-253.83 1524.75,-252.54 1530.84,-251.22"/>
<polygon fill="midnightblue" stroke="midnightblue" points="1531.95,-254.56 1540.97,-249 1530.46,-247.72 1531.95,-254.56"/>
</g>
<!-- Node27 -->
<g id="node27" class="node">
<title>Node27</title>
<g id="a_node27"><a xlink:href="open62541/server__config__default_8h.html.html" xlink:title=" ">
<polygon fill="none" stroke="black" points="1652.19,-224.5 1652.19,-254.5 1791.19,-254.5 1791.19,-224.5 1652.19,-224.5"/>
<text text-anchor="start" x="1660.19" y="-242.5" font-family="Helvetica,sans-Serif" font-size="10.00">open62541/server_config</text>
<text text-anchor="middle" x="1721.69" y="-231.5" font-family="Helvetica,sans-Serif" font-size="10.00">_default.h</text>
</a>
</g>
</g>
<!-- Node23&#45;&gt;Node27 -->
<g id="edge41" class="edge">
<title>Node23&#45;&gt;Node27</title>
<path fill="none" stroke="midnightblue" d="M1313.7,-294.52C1387.7,-287.25 1519.82,-273.35 1642.08,-255.19"/>
<polygon fill="midnightblue" stroke="midnightblue" points="1642.62,-258.64 1651.99,-253.7 1641.58,-251.72 1642.62,-258.64"/>
</g>
<!-- Node28 -->
<g id="node28" class="node">
<title>Node28</title>
<g id="a_node28"><a xlink:href="open62541/types__generated__handling_8h.html.html" xlink:title=" ">
<polygon fill="none" stroke="black" points="988.19,-224.5 988.19,-254.5 1143.19,-254.5 1143.19,-224.5 988.19,-224.5"/>
<text text-anchor="start" x="996.19" y="-242.5" font-family="Helvetica,sans-Serif" font-size="10.00">open62541/types_generated</text>
<text text-anchor="middle" x="1065.69" y="-231.5" font-family="Helvetica,sans-Serif" font-size="10.00">_handling.h</text>
</a>
</g>
</g>
<!-- Node23&#45;&gt;Node28 -->
<g id="edge42" class="edge">
<title>Node23&#45;&gt;Node28</title>
<path fill="none" stroke="midnightblue" d="M1228.47,-291.48C1200.33,-282.66 1155.64,-268.67 1120.2,-257.57"/>
<polygon fill="midnightblue" stroke="midnightblue" points="1121.06,-254.17 1110.47,-254.52 1118.97,-260.85 1121.06,-254.17"/>
</g>
</g>
</svg>
