<?xml version="1.0" encoding="UTF-8" standalone="no"?>
<!DOCTYPE svg PUBLIC "-//W3C//DTD SVG 1.1//EN"
 "http://www.w3.org/Graphics/SVG/1.1/DTD/svg11.dtd">
<!-- Generated by graphviz version 2.43.0 (0)
 -->
<!-- Title: /home/runner/work/open62541pp/open62541pp/include/open62541pp/types/DateTime.h Pages: 1 -->
<svg width="1235pt" height="346pt"
 viewBox="0.00 0.00 1234.50 346.00" xmlns="http://www.w3.org/2000/svg" xmlns:xlink="http://www.w3.org/1999/xlink">
<g id="graph0" class="graph" transform="scale(1 1) rotate(0) translate(4 342)">
<title>/home/runner/work/open62541pp/open62541pp/include/open62541pp/types/DateTime.h</title>
<!-- Node1 -->
<g id="Node000001" class="node">
<title>Node1</title>
<g id="a_Node000001"><a xlink:title=" ">
<polygon fill="#999999" stroke="#666666" points="270.5,-338 77.5,-338 77.5,-297 270.5,-297 270.5,-338"/>
<text text-anchor="start" x="85.5" y="-326" font-family="Helvetica,sans-Serif" font-size="10.00">/home/runner/work/open62541pp</text>
<text text-anchor="start" x="85.5" y="-315" font-family="Helvetica,sans-Serif" font-size="10.00">/open62541pp/include/open62541pp</text>
<text text-anchor="middle" x="174" y="-304" font-family="Helvetica,sans-Serif" font-size="10.00">/types/DateTime.h</text>
</a>
</g>
</g>
<!-- Node2 -->
<g id="Node000002" class="node">
<title>Node2</title>
<g id="a_Node000002"><a xlink:title=" ">
<polygon fill="#e0e0e0" stroke="#999999" points="50,-261 0,-261 0,-242 50,-242 50,-261"/>
<text text-anchor="middle" x="25" y="-249" font-family="Helvetica,sans-Serif" font-size="10.00">chrono</text>
</a>
</g>
</g>
<!-- Node1&#45;&gt;Node2 -->
<g id="edge1_Node000001_Node000002" class="edge">
<title>Node1&#45;&gt;Node2</title>
<g id="a_edge1_Node000001_Node000002"><a xlink:title=" ">
<path fill="none" stroke="#63b8ff" d="M128.49,-296.95C104.4,-286.6 75.53,-274.2 54.4,-265.13"/>
<polygon fill="#63b8ff" stroke="#63b8ff" points="55.57,-261.82 45,-261.09 52.81,-268.25 55.57,-261.82"/>
</a>
</g>
</g>
<!-- Node3 -->
<g id="Node000003" class="node">
<title>Node3</title>
<g id="a_Node000003"><a xlink:title=" ">
<polygon fill="#e0e0e0" stroke="#999999" points="149,-79.5 99,-79.5 99,-60.5 149,-60.5 149,-79.5"/>
<text text-anchor="middle" x="124" y="-67.5" font-family="Helvetica,sans-Serif" font-size="10.00">cstdint</text>
</a>
</g>
</g>
<!-- Node1&#45;&gt;Node3 -->
<g id="edge2_Node000001_Node000003" class="edge">
<title>Node1&#45;&gt;Node3</title>
<g id="a_edge2_Node000001_Node000003"><a xlink:title=" ">
<path fill="none" stroke="#63b8ff" d="M132.65,-296.91C118.71,-288.04 104.73,-276.11 97,-261 67.56,-203.48 98.22,-124.07 114.82,-88.94"/>
<polygon fill="#63b8ff" stroke="#63b8ff" points="118.17,-90.06 119.43,-79.54 111.89,-86.97 118.17,-90.06"/>
</a>
</g>
</g>
<!-- Node4 -->
<g id="Node000004" class="node">
<title>Node4</title>
<g id="a_Node000004"><a xlink:title=" ">
<polygon fill="#e0e0e0" stroke="#999999" points="145.5,-261 106.5,-261 106.5,-242 145.5,-242 145.5,-261"/>
<text text-anchor="middle" x="126" y="-249" font-family="Helvetica,sans-Serif" font-size="10.00">ratio</text>
</a>
</g>
</g>
<!-- Node1&#45;&gt;Node4 -->
<g id="edge3_Node000001_Node000004" class="edge">
<title>Node1&#45;&gt;Node4</title>
<g id="a_edge3_Node000001_Node000004"><a xlink:title=" ">
<path fill="none" stroke="#63b8ff" d="M159.34,-296.95C152.71,-288.11 144.95,-277.77 138.59,-269.29"/>
<polygon fill="#63b8ff" stroke="#63b8ff" points="141.37,-267.16 132.57,-261.26 135.77,-271.36 141.37,-267.16"/>
</a>
</g>
</g>
<!-- Node5 -->
<g id="Node000005" class="node">
<title>Node5</title>
<g id="a_Node000005"><a xlink:title=" ">
<polygon fill="#e0e0e0" stroke="#999999" points="540,-140 496,-140 496,-121 540,-121 540,-140"/>
<text text-anchor="middle" x="518" y="-128" font-family="Helvetica,sans-Serif" font-size="10.00">string</text>
</a>
</g>
</g>
<!-- Node1&#45;&gt;Node5 -->
<g id="edge4_Node000001_Node000005" class="edge">
<title>Node1&#45;&gt;Node5</title>
<g id="a_edge4_Node000001_Node000005"><a xlink:title=" ">
<path fill="none" stroke="#63b8ff" d="M242.32,-296.96C299.25,-278.77 380.92,-248.11 444,-206 468.05,-189.94 490.71,-165.18 504.46,-148.67"/>
<polygon fill="#63b8ff" stroke="#63b8ff" points="507.55,-150.42 511.14,-140.45 502.12,-146 507.55,-150.42"/>
</a>
</g>
</g>
<!-- Node6 -->
<g id="Node000006" class="node">
<title>Node6</title>
<g id="a_Node000006"><a xlink:title=" ">
<polygon fill="#e0e0e0" stroke="#999999" points="409.5,-79.5 336.5,-79.5 336.5,-60.5 409.5,-60.5 409.5,-79.5"/>
<text text-anchor="middle" x="373" y="-67.5" font-family="Helvetica,sans-Serif" font-size="10.00">string_view</text>
</a>
</g>
</g>
<!-- Node1&#45;&gt;Node6 -->
<g id="edge5_Node000001_Node000006" class="edge">
<title>Node1&#45;&gt;Node6</title>
<g id="a_edge5_Node000001_Node000006"><a xlink:title=" ">
<path fill="none" stroke="#63b8ff" d="M168.06,-296.93C157.69,-258.42 141.14,-172.14 183,-121 224.78,-69.95 263.42,-102.61 327,-85 329.96,-84.18 333.02,-83.31 336.09,-82.41"/>
<polygon fill="#63b8ff" stroke="#63b8ff" points="337.23,-85.72 345.82,-79.52 335.24,-79.01 337.23,-85.72"/>
</a>
</g>
</g>
<!-- Node7 -->
<g id="Node000007" class="node">
<title>Node7</title>
<g id="a_Node000007"><a xlink:href="TypeWrapper_8h.html" target="_top" xlink:title=" ">
<polygon fill="white" stroke="#666666" points="670,-261 512,-261 512,-242 670,-242 670,-261"/>
<text text-anchor="middle" x="591" y="-249" font-family="Helvetica,sans-Serif" font-size="10.00">open62541pp/TypeWrapper.h</text>
</a>
</g>
</g>
<!-- Node1&#45;&gt;Node7 -->
<g id="edge6_Node000001_Node000007" class="edge">
<title>Node1&#45;&gt;Node7</title>
<g id="a_edge6_Node000001_Node000007"><a xlink:title=" ">
<path fill="none" stroke="#63b8ff" d="M270.72,-301.66C348.87,-289.66 456.77,-273.1 525.22,-262.6"/>
<polygon fill="#63b8ff" stroke="#63b8ff" points="526.08,-266 535.44,-261.03 525.02,-259.09 526.08,-266"/>
</a>
</g>
</g>
<!-- Node14 -->
<g id="Node000014" class="node">
<title>Node14</title>
<g id="a_Node000014"><a xlink:href="open62541_8h.html" target="_top" xlink:title=" ">
<polygon fill="white" stroke="#666666" points="949.5,-79.5 800.5,-79.5 800.5,-60.5 949.5,-60.5 949.5,-79.5"/>
<text text-anchor="middle" x="875" y="-67.5" font-family="Helvetica,sans-Serif" font-size="10.00">open62541pp/open62541.h</text>
</a>
</g>
</g>
<!-- Node1&#45;&gt;Node14 -->
<g id="edge38_Node000001_Node000014" class="edge">
<title>Node1&#45;&gt;Node14</title>
<g id="a_edge38_Node000001_Node000014"><a xlink:title=" ">
<path fill="none" stroke="#63b8ff" d="M270.6,-310.35C473.62,-296.43 929.57,-259.48 974,-206 990.58,-186.04 957.47,-124.1 955,-121 942.12,-104.83 922.49,-92.45 905.9,-84.05"/>
<polygon fill="#63b8ff" stroke="#63b8ff" points="907.09,-80.74 896.56,-79.57 904.06,-87.05 907.09,-80.74"/>
</a>
</g>
</g>
<!-- Node7&#45;&gt;Node3 -->
<g id="edge8_Node000007_Node000003" class="edge">
<title>Node7&#45;&gt;Node3</title>
<g id="a_edge8_Node000007_Node000003"><a xlink:title=" ">
<path fill="none" stroke="#63b8ff" d="M511.8,-248.85C447.66,-245.24 355.97,-234.87 281,-206 232,-187.13 222.2,-174.94 183,-140 165.07,-124.02 147.58,-102.62 136.36,-87.91"/>
<polygon fill="#63b8ff" stroke="#63b8ff" points="139.03,-85.63 130.24,-79.72 133.43,-89.83 139.03,-85.63"/>
</a>
</g>
</g>
<!-- Node8 -->
<g id="Node000008" class="node">
<title>Node8</title>
<g id="a_Node000008"><a xlink:title=" ">
<polygon fill="#e0e0e0" stroke="#999999" points="478,-140 426,-140 426,-121 478,-121 478,-140"/>
<text text-anchor="middle" x="452" y="-128" font-family="Helvetica,sans-Serif" font-size="10.00">cassert</text>
</a>
</g>
</g>
<!-- Node7&#45;&gt;Node8 -->
<g id="edge7_Node000007_Node000008" class="edge">
<title>Node7&#45;&gt;Node8</title>
<g id="a_edge7_Node000007_Node000008"><a xlink:title=" ">
<path fill="none" stroke="#63b8ff" d="M574.92,-241.86C560.19,-233.59 538.14,-220.29 521,-206 499.75,-188.28 478.62,-164.29 465.45,-148.37"/>
<polygon fill="#63b8ff" stroke="#63b8ff" points="468.03,-146 459.01,-140.45 462.61,-150.42 468.03,-146"/>
</a>
</g>
</g>
<!-- Node9 -->
<g id="Node000009" class="node">
<title>Node9</title>
<g id="a_Node000009"><a xlink:title=" ">
<polygon fill="#e0e0e0" stroke="#999999" points="646.5,-19 577.5,-19 577.5,0 646.5,0 646.5,-19"/>
<text text-anchor="middle" x="612" y="-7" font-family="Helvetica,sans-Serif" font-size="10.00">type_traits</text>
</a>
</g>
</g>
<!-- Node7&#45;&gt;Node9 -->
<g id="edge9_Node000007_Node000009" class="edge">
<title>Node7&#45;&gt;Node9</title>
<g id="a_edge9_Node000007_Node000009"><a xlink:title=" ">
<path fill="none" stroke="#63b8ff" d="M629.8,-241.97C652.49,-235.34 680.44,-224.13 700,-206 724.05,-183.71 725.47,-171.92 733,-140 741.97,-102.02 737.17,-83.95 711,-55 696.69,-39.17 675.66,-28.64 656.66,-21.81"/>
<polygon fill="#63b8ff" stroke="#63b8ff" points="657.55,-18.42 646.96,-18.57 655.34,-25.06 657.55,-18.42"/>
</a>
</g>
</g>
<!-- Node10 -->
<g id="Node000010" class="node">
<title>Node10</title>
<g id="a_Node000010"><a xlink:title=" ">
<polygon fill="#e0e0e0" stroke="#999999" points="945.5,-200.5 900.5,-200.5 900.5,-181.5 945.5,-181.5 945.5,-200.5"/>
<text text-anchor="middle" x="923" y="-188.5" font-family="Helvetica,sans-Serif" font-size="10.00">utility</text>
</a>
</g>
</g>
<!-- Node7&#45;&gt;Node10 -->
<g id="edge10_Node000007_Node000010" class="edge">
<title>Node7&#45;&gt;Node10</title>
<g id="a_edge10_Node000007_Node000010"><a xlink:title=" ">
<path fill="none" stroke="#63b8ff" d="M670.22,-244.52C731.42,-238.52 817.75,-227.05 891,-206 892.68,-205.52 894.39,-204.96 896.1,-204.36"/>
<polygon fill="#63b8ff" stroke="#63b8ff" points="897.7,-207.5 905.7,-200.56 895.12,-200.99 897.7,-207.5"/>
</a>
</g>
</g>
<!-- Node11 -->
<g id="Node000011" class="node">
<title>Node11</title>
<g id="a_Node000011"><a xlink:href="Common_8h.html" target="_top" xlink:title=" ">
<polygon fill="white" stroke="#666666" points="331.5,-140 192.5,-140 192.5,-121 331.5,-121 331.5,-140"/>
<text text-anchor="middle" x="262" y="-128" font-family="Helvetica,sans-Serif" font-size="10.00">open62541pp/Common.h</text>
</a>
</g>
</g>
<!-- Node7&#45;&gt;Node11 -->
<g id="edge11_Node000007_Node000011" class="edge">
<title>Node7&#45;&gt;Node11</title>
<g id="a_edge11_Node000007_Node000011"><a xlink:title=" ">
<path fill="none" stroke="#63b8ff" d="M511.96,-244.8C441.7,-238.5 345.26,-226.43 313,-206 291.95,-192.66 277.37,-167.16 269.35,-149.74"/>
<polygon fill="#63b8ff" stroke="#63b8ff" points="272.38,-147.92 265.2,-140.12 265.95,-150.69 272.38,-147.92"/>
</a>
</g>
</g>
<!-- Node7&#45;&gt;Node14 -->
<g id="edge35_Node000007_Node000014" class="edge">
<title>Node7&#45;&gt;Node14</title>
<g id="a_edge35_Node000007_Node000014"><a xlink:title=" ">
<path fill="none" stroke="#63b8ff" d="M670.42,-246.3C771.82,-240.11 936.46,-226.95 955,-206 989.15,-167.42 929.2,-112.18 895.53,-85.94"/>
<polygon fill="#63b8ff" stroke="#63b8ff" points="897.3,-82.89 887.22,-79.63 893.07,-88.46 897.3,-82.89"/>
</a>
</g>
</g>
<!-- Node19 -->
<g id="Node000019" class="node">
<title>Node19</title>
<g id="a_Node000019"><a xlink:href="ErrorHandling_8h.html" target="_top" xlink:title=" ">
<polygon fill="white" stroke="#666666" points="691.5,-200.5 530.5,-200.5 530.5,-181.5 691.5,-181.5 691.5,-200.5"/>
<text text-anchor="middle" x="611" y="-188.5" font-family="Helvetica,sans-Serif" font-size="10.00">open62541pp/ErrorHandling.h</text>
</a>
</g>
</g>
<!-- Node7&#45;&gt;Node19 -->
<g id="edge23_Node000007_Node000019" class="edge">
<title>Node7&#45;&gt;Node19</title>
<g id="a_edge23_Node000007_Node000019"><a xlink:title=" ">
<path fill="none" stroke="#63b8ff" d="M593.95,-241.87C596.79,-233.57 601.16,-220.78 604.77,-210.22"/>
<polygon fill="#63b8ff" stroke="#63b8ff" points="608.11,-211.26 608.04,-200.67 601.49,-209 608.11,-211.26"/>
</a>
</g>
</g>
<!-- Node22 -->
<g id="Node000022" class="node">
<title>Node22</title>
<g id="a_Node000022"><a xlink:href="helper_8h.html" target="_top" xlink:title=" ">
<polygon fill="white" stroke="#666666" points="435.5,-206 322.5,-206 322.5,-176 435.5,-176 435.5,-206"/>
<text text-anchor="start" x="330.5" y="-194" font-family="Helvetica,sans-Serif" font-size="10.00">open62541pp/detail</text>
<text text-anchor="middle" x="379" y="-183" font-family="Helvetica,sans-Serif" font-size="10.00">/helper.h</text>
</a>
</g>
</g>
<!-- Node7&#45;&gt;Node22 -->
<g id="edge29_Node000007_Node000022" class="edge">
<title>Node7&#45;&gt;Node22</title>
<g id="a_edge29_Node000007_Node000022"><a xlink:title=" ">
<path fill="none" stroke="#63b8ff" d="M560.17,-241.99C528.73,-233.32 479.11,-219.62 439.74,-208.76"/>
<polygon fill="#63b8ff" stroke="#63b8ff" points="440.54,-205.35 429.97,-206.06 438.68,-212.1 440.54,-205.35"/>
</a>
</g>
</g>
<!-- Node23 -->
<g id="Node000023" class="node">
<title>Node23</title>
<g id="a_Node000023"><a xlink:href="comparison_8h.html" target="_top" xlink:title=" ">
<polygon fill="white" stroke="#666666" points="882,-206 748,-206 748,-176 882,-176 882,-206"/>
<text text-anchor="start" x="756" y="-194" font-family="Helvetica,sans-Serif" font-size="10.00">open62541pp/overloads</text>
<text text-anchor="middle" x="815" y="-183" font-family="Helvetica,sans-Serif" font-size="10.00">/comparison.h</text>
</a>
</g>
</g>
<!-- Node7&#45;&gt;Node23 -->
<g id="edge36_Node000007_Node000023" class="edge">
<title>Node7&#45;&gt;Node23</title>
<g id="a_edge36_Node000007_Node000023"><a xlink:title=" ">
<path fill="none" stroke="#63b8ff" d="M623.57,-241.99C656.93,-233.28 709.67,-219.51 751.35,-208.62"/>
<polygon fill="#63b8ff" stroke="#63b8ff" points="752.36,-211.98 761.15,-206.06 750.59,-205.2 752.36,-211.98"/>
</a>
</g>
</g>
<!-- Node11&#45;&gt;Node3 -->
<g id="edge12_Node000011_Node000003" class="edge">
<title>Node11&#45;&gt;Node3</title>
<g id="a_edge12_Node000011_Node000003"><a xlink:title=" ">
<path fill="none" stroke="#63b8ff" d="M241.93,-120.99C218.63,-111.12 179.99,-94.73 153.32,-83.43"/>
<polygon fill="#63b8ff" stroke="#63b8ff" points="154.66,-80.2 144.09,-79.52 151.93,-86.64 154.66,-80.2"/>
</a>
</g>
</g>
<!-- Node11&#45;&gt;Node6 -->
<g id="edge13_Node000011_Node000006" class="edge">
<title>Node11&#45;&gt;Node6</title>
<g id="a_edge13_Node000011_Node000006"><a xlink:title=" ">
<path fill="none" stroke="#63b8ff" d="M278.38,-120.87C296.58,-111.28 326.2,-95.67 347.45,-84.47"/>
<polygon fill="#63b8ff" stroke="#63b8ff" points="349.34,-87.43 356.55,-79.67 346.08,-81.23 349.34,-87.43"/>
</a>
</g>
</g>
<!-- Node12 -->
<g id="Node000012" class="node">
<title>Node12</title>
<g id="a_Node000012"><a xlink:title=" ">
<polygon fill="#e0e0e0" stroke="#999999" points="240.5,-19 199.5,-19 199.5,0 240.5,0 240.5,-19"/>
<text text-anchor="middle" x="220" y="-7" font-family="Helvetica,sans-Serif" font-size="10.00">tuple</text>
</a>
</g>
</g>
<!-- Node11&#45;&gt;Node12 -->
<g id="edge14_Node000011_Node000012" class="edge">
<title>Node11&#45;&gt;Node12</title>
<g id="a_edge14_Node000011_Node000012"><a xlink:title=" ">
<path fill="none" stroke="#63b8ff" d="M239.22,-120.89C223.97,-113.79 205.08,-102.08 196,-85 186.17,-66.52 196.86,-43.31 206.93,-27.75"/>
<polygon fill="#63b8ff" stroke="#63b8ff" points="210.08,-29.36 212.94,-19.16 204.34,-25.35 210.08,-29.36"/>
</a>
</g>
</g>
<!-- Node13 -->
<g id="Node000013" class="node">
<title>Node13</title>
<g id="a_Node000013"><a xlink:href="traits_8h.html" target="_top" xlink:title=" ">
<polygon fill="white" stroke="#666666" points="318.5,-85 205.5,-85 205.5,-55 318.5,-55 318.5,-85"/>
<text text-anchor="start" x="213.5" y="-73" font-family="Helvetica,sans-Serif" font-size="10.00">open62541pp/detail</text>
<text text-anchor="middle" x="262" y="-62" font-family="Helvetica,sans-Serif" font-size="10.00">/traits.h</text>
</a>
</g>
</g>
<!-- Node11&#45;&gt;Node13 -->
<g id="edge15_Node000011_Node000013" class="edge">
<title>Node11&#45;&gt;Node13</title>
<g id="a_edge15_Node000011_Node000013"><a xlink:title=" ">
<path fill="none" stroke="#63b8ff" d="M262,-120.87C262,-114.11 262,-104.35 262,-95.26"/>
<polygon fill="#63b8ff" stroke="#63b8ff" points="265.5,-95.11 262,-85.11 258.5,-95.11 265.5,-95.11"/>
</a>
</g>
</g>
<!-- Node11&#45;&gt;Node14 -->
<g id="edge18_Node000011_Node000014" class="edge">
<title>Node11&#45;&gt;Node14</title>
<g id="a_edge18_Node000011_Node000014"><a xlink:title=" ">
<path fill="none" stroke="#63b8ff" d="M331.72,-122.85C444.81,-112.05 667.84,-90.77 790.03,-79.11"/>
<polygon fill="#63b8ff" stroke="#63b8ff" points="790.47,-82.58 800.09,-78.15 789.8,-75.61 790.47,-82.58"/>
</a>
</g>
</g>
<!-- Node13&#45;&gt;Node9 -->
<g id="edge17_Node000013_Node000009" class="edge">
<title>Node13&#45;&gt;Node9</title>
<g id="a_edge17_Node000013_Node000009"><a xlink:title=" ">
<path fill="none" stroke="#63b8ff" d="M318.68,-56.59C321.49,-56.04 324.28,-55.51 327,-55 411.59,-39.3 511.01,-24.63 567.25,-16.68"/>
<polygon fill="#63b8ff" stroke="#63b8ff" points="567.82,-20.13 577.23,-15.27 566.84,-13.2 567.82,-20.13"/>
</a>
</g>
</g>
<!-- Node13&#45;&gt;Node12 -->
<g id="edge16_Node000013_Node000012" class="edge">
<title>Node13&#45;&gt;Node12</title>
<g id="a_edge16_Node000013_Node000012"><a xlink:title=" ">
<path fill="none" stroke="#63b8ff" d="M251.83,-54.84C245.92,-46.61 238.44,-36.18 232.21,-27.51"/>
<polygon fill="#63b8ff" stroke="#63b8ff" points="234.97,-25.35 226.29,-19.27 229.28,-29.43 234.97,-25.35"/>
</a>
</g>
</g>
<!-- Node15 -->
<g id="Node000015" class="node">
<title>Node15</title>
<g id="a_Node000015"><a target="_blank" xlink:href="open62541/config_8h.html" xlink:title=" ">
<polygon fill="white" stroke="#666666" points="1087,-19 975,-19 975,0 1087,0 1087,-19"/>
<text text-anchor="middle" x="1031" y="-7" font-family="Helvetica,sans-Serif" font-size="10.00">open62541/config.h</text>
</a>
</g>
</g>
<!-- Node14&#45;&gt;Node15 -->
<g id="edge19_Node000014_Node000015" class="edge">
<title>Node14&#45;&gt;Node15</title>
<g id="a_edge19_Node000014_Node000015"><a xlink:title=" ">
<path fill="none" stroke="#63b8ff" d="M897.68,-60.49C924.26,-50.53 968.48,-33.95 998.64,-22.63"/>
<polygon fill="#63b8ff" stroke="#63b8ff" points="1000.15,-25.81 1008.29,-19.02 997.7,-19.25 1000.15,-25.81"/>
</a>
</g>
</g>
<!-- Node16 -->
<g id="Node000016" class="node">
<title>Node16</title>
<g id="a_Node000016"><a target="_blank" xlink:href="open62541/nodeids_8h.html" xlink:title=" ">
<polygon fill="white" stroke="#666666" points="1226.5,-19 1105.5,-19 1105.5,0 1226.5,0 1226.5,-19"/>
<text text-anchor="middle" x="1166" y="-7" font-family="Helvetica,sans-Serif" font-size="10.00">open62541/nodeids.h</text>
</a>
</g>
</g>
<!-- Node14&#45;&gt;Node16 -->
<g id="edge20_Node000014_Node000016" class="edge">
<title>Node14&#45;&gt;Node16</title>
<g id="a_edge20_Node000014_Node000016"><a xlink:title=" ">
<path fill="none" stroke="#63b8ff" d="M917.31,-60.49C969.25,-50.05 1057.33,-32.35 1113.53,-21.05"/>
<polygon fill="#63b8ff" stroke="#63b8ff" points="1114.52,-24.42 1123.64,-19.02 1113.14,-17.56 1114.52,-24.42"/>
</a>
</g>
</g>
<!-- Node17 -->
<g id="Node000017" class="node">
<title>Node17</title>
<g id="a_Node000017"><a target="_blank" xlink:href="open62541/types_8h.html" xlink:title=" ">
<polygon fill="white" stroke="#666666" points="775,-19 665,-19 665,0 775,0 775,-19"/>
<text text-anchor="middle" x="720" y="-7" font-family="Helvetica,sans-Serif" font-size="10.00">open62541/types.h</text>
</a>
</g>
</g>
<!-- Node14&#45;&gt;Node17 -->
<g id="edge21_Node000014_Node000017" class="edge">
<title>Node14&#45;&gt;Node17</title>
<g id="a_edge21_Node000014_Node000017"><a xlink:title=" ">
<path fill="none" stroke="#63b8ff" d="M852.46,-60.49C826.06,-50.53 782.12,-33.95 752.15,-22.63"/>
<polygon fill="#63b8ff" stroke="#63b8ff" points="753.16,-19.27 742.57,-19.02 750.69,-25.82 753.16,-19.27"/>
</a>
</g>
</g>
<!-- Node18 -->
<g id="Node000018" class="node">
<title>Node18</title>
<g id="a_Node000018"><a target="_blank" xlink:href="open62541/types__generated_8h.html" xlink:title=" ">
<polygon fill="white" stroke="#666666" points="957,-19 793,-19 793,0 957,0 957,-19"/>
<text text-anchor="middle" x="875" y="-7" font-family="Helvetica,sans-Serif" font-size="10.00">open62541/types_generated.h</text>
</a>
</g>
</g>
<!-- Node14&#45;&gt;Node18 -->
<g id="edge22_Node000014_Node000018" class="edge">
<title>Node14&#45;&gt;Node18</title>
<g id="a_edge22_Node000014_Node000018"><a xlink:title=" ">
<path fill="none" stroke="#63b8ff" d="M875,-60.37C875,-52.25 875,-39.81 875,-29.39"/>
<polygon fill="#63b8ff" stroke="#63b8ff" points="878.5,-29.17 875,-19.17 871.5,-29.17 878.5,-29.17"/>
</a>
</g>
</g>
<!-- Node19&#45;&gt;Node5 -->
<g id="edge26_Node000019_Node000005" class="edge">
<title>Node19&#45;&gt;Node5</title>
<g id="a_edge26_Node000019_Node000005"><a xlink:title=" ">
<path fill="none" stroke="#63b8ff" d="M597.28,-181.37C582.3,-171.95 558.11,-156.73 540.38,-145.58"/>
<polygon fill="#63b8ff" stroke="#63b8ff" points="542.11,-142.53 531.78,-140.17 538.38,-148.45 542.11,-142.53"/>
</a>
</g>
</g>
<!-- Node19&#45;&gt;Node9 -->
<g id="edge27_Node000019_Node000009" class="edge">
<title>Node19&#45;&gt;Node9</title>
<g id="a_edge27_Node000019_Node000009"><a xlink:title=" ">
<path fill="none" stroke="#63b8ff" d="M652.23,-181.45C674.94,-174.4 701.24,-161.88 715,-140 743.45,-94.75 676.12,-46.86 637.22,-24.08"/>
<polygon fill="#63b8ff" stroke="#63b8ff" points="638.9,-21 628.48,-19.1 635.43,-27.09 638.9,-21"/>
</a>
</g>
</g>
<!-- Node19&#45;&gt;Node14 -->
<g id="edge28_Node000019_Node000014" class="edge">
<title>Node19&#45;&gt;Node14</title>
<g id="a_edge28_Node000019_Node000014"><a xlink:title=" ">
<path fill="none" stroke="#63b8ff" d="M638.46,-181.43C666.67,-172.31 711.61,-156.89 749,-140 786.28,-123.16 827.52,-99.57 852.34,-84.79"/>
<polygon fill="#63b8ff" stroke="#63b8ff" points="854.23,-87.74 861,-79.6 850.63,-81.74 854.23,-87.74"/>
</a>
</g>
</g>
<!-- Node20 -->
<g id="Node000020" class="node">
<title>Node20</title>
<g id="a_Node000020"><a xlink:title=" ">
<polygon fill="#e0e0e0" stroke="#999999" points="623.5,-140 558.5,-140 558.5,-121 623.5,-121 623.5,-140"/>
<text text-anchor="middle" x="591" y="-128" font-family="Helvetica,sans-Serif" font-size="10.00">functional</text>
</a>
</g>
</g>
<!-- Node19&#45;&gt;Node20 -->
<g id="edge24_Node000019_Node000020" class="edge">
<title>Node19&#45;&gt;Node20</title>
<g id="a_edge24_Node000019_Node000020"><a xlink:title=" ">
<path fill="none" stroke="#63b8ff" d="M608.05,-181.37C605.21,-173.07 600.84,-160.28 597.23,-149.72"/>
<polygon fill="#63b8ff" stroke="#63b8ff" points="600.51,-148.5 593.96,-140.17 593.89,-150.76 600.51,-148.5"/>
</a>
</g>
</g>
<!-- Node21 -->
<g id="Node000021" class="node">
<title>Node21</title>
<g id="a_Node000021"><a xlink:title=" ">
<polygon fill="#e0e0e0" stroke="#999999" points="706.5,-140 641.5,-140 641.5,-121 706.5,-121 706.5,-140"/>
<text text-anchor="middle" x="674" y="-128" font-family="Helvetica,sans-Serif" font-size="10.00">stdexcept</text>
</a>
</g>
</g>
<!-- Node19&#45;&gt;Node21 -->
<g id="edge25_Node000019_Node000021" class="edge">
<title>Node19&#45;&gt;Node21</title>
<g id="a_edge25_Node000019_Node000021"><a xlink:title=" ">
<path fill="none" stroke="#63b8ff" d="M620.3,-181.37C629.97,-172.38 645.34,-158.11 657.16,-147.14"/>
<polygon fill="#63b8ff" stroke="#63b8ff" points="659.72,-149.54 664.67,-140.17 654.96,-144.41 659.72,-149.54"/>
</a>
</g>
</g>
<!-- Node22&#45;&gt;Node5 -->
<g id="edge31_Node000022_Node000005" class="edge">
<title>Node22&#45;&gt;Node5</title>
<g id="a_edge31_Node000022_Node000005"><a xlink:title=" ">
<path fill="none" stroke="#63b8ff" d="M412.29,-175.99C435.38,-166.27 465.87,-153.44 488.16,-144.06"/>
<polygon fill="#63b8ff" stroke="#63b8ff" points="489.61,-147.24 497.47,-140.14 486.9,-140.79 489.61,-147.24"/>
</a>
</g>
</g>
<!-- Node22&#45;&gt;Node6 -->
<g id="edge32_Node000022_Node000006" class="edge">
<title>Node22&#45;&gt;Node6</title>
<g id="a_edge32_Node000022_Node000006"><a xlink:title=" ">
<path fill="none" stroke="#63b8ff" d="M378.29,-175.88C377.21,-154.51 375.16,-113.89 373.96,-89.96"/>
<polygon fill="#63b8ff" stroke="#63b8ff" points="377.44,-89.52 373.44,-79.71 370.45,-89.87 377.44,-89.52"/>
</a>
</g>
</g>
<!-- Node22&#45;&gt;Node8 -->
<g id="edge30_Node000022_Node000008" class="edge">
<title>Node22&#45;&gt;Node8</title>
<g id="a_edge30_Node000022_Node000008"><a xlink:title=" ">
<path fill="none" stroke="#63b8ff" d="M396.67,-175.84C407.7,-167 421.89,-155.63 433.13,-146.62"/>
<polygon fill="#63b8ff" stroke="#63b8ff" points="435.45,-149.25 441.06,-140.27 431.07,-143.79 435.45,-149.25"/>
</a>
</g>
</g>
<!-- Node22&#45;&gt;Node11 -->
<g id="edge33_Node000022_Node000011" class="edge">
<title>Node22&#45;&gt;Node11</title>
<g id="a_edge33_Node000022_Node000011"><a xlink:title=" ">
<path fill="none" stroke="#63b8ff" d="M350.98,-175.99C331.98,-166.49 307.03,-154.02 288.39,-144.69"/>
<polygon fill="#63b8ff" stroke="#63b8ff" points="289.79,-141.48 279.28,-140.14 286.66,-147.74 289.79,-141.48"/>
</a>
</g>
</g>
<!-- Node22&#45;&gt;Node14 -->
<g id="edge34_Node000022_Node000014" class="edge">
<title>Node22&#45;&gt;Node14</title>
<g id="a_edge34_Node000022_Node000014"><a xlink:title=" ">
<path fill="none" stroke="#63b8ff" d="M382.52,-175.95C387.37,-159.79 397.77,-133.82 417,-121 476.27,-81.48 674.79,-72.75 790.09,-71.09"/>
<polygon fill="#63b8ff" stroke="#63b8ff" points="790.34,-74.59 800.3,-70.96 790.25,-67.59 790.34,-74.59"/>
</a>
</g>
</g>
<!-- Node23&#45;&gt;Node14 -->
<g id="edge37_Node000023_Node000014" class="edge">
<title>Node23&#45;&gt;Node14</title>
<g id="a_edge37_Node000023_Node000014"><a xlink:title=" ">
<path fill="none" stroke="#63b8ff" d="M822.12,-175.88C833.09,-154.12 854.12,-112.41 866.09,-88.67"/>
<polygon fill="#63b8ff" stroke="#63b8ff" points="869.23,-90.22 870.61,-79.71 862.98,-87.06 869.23,-90.22"/>
</a>
</g>
</g>
</g>
</svg>
