<?xml version="1.0" encoding="UTF-8" standalone="no"?>
<!DOCTYPE svg PUBLIC "-//W3C//DTD SVG 1.1//EN"
 "http://www.w3.org/Graphics/SVG/1.1/DTD/svg11.dtd">
<!-- Generated by graphviz version 2.43.0 (0)
 -->
<!-- Title: /home/runner/work/open62541pp/open62541pp/include/open62541pp/ErrorHandling.h Pages: 1 -->
<svg width="443pt" height="362pt"
 viewBox="0.00 0.00 443.49 362.00" xmlns="http://www.w3.org/2000/svg" xmlns:xlink="http://www.w3.org/1999/xlink">
<g id="graph0" class="graph" transform="scale(1 1) rotate(0) translate(4 358)">
<title>/home/runner/work/open62541pp/open62541pp/include/open62541pp/ErrorHandling.h</title>
<!-- Node1 -->
<g id="node1" class="node">
<title>Node1</title>
<g id="a_node1"><a xlink:title=" ">
<polygon fill="#bfbfbf" stroke="black" points="227.59,-312.5 227.59,-353.5 420.59,-353.5 420.59,-312.5 227.59,-312.5"/>
<text text-anchor="start" x="235.59" y="-341.5" font-family="Helvetica,sans-Serif" font-size="10.00">/home/runner/work/open62541pp</text>
<text text-anchor="start" x="235.59" y="-330.5" font-family="Helvetica,sans-Serif" font-size="10.00">/open62541pp/include/open62541pp</text>
<text text-anchor="middle" x="324.09" y="-319.5" font-family="Helvetica,sans-Serif" font-size="10.00">/ErrorHandling.h</text>
</a>
</g>
</g>
<!-- Node2 -->
<g id="node2" class="node">
<title>Node2</title>
<g id="a_node2"><a xlink:href="TypeWrapper_8h.html" target="_top" xlink:title=" ">
<polygon fill="none" stroke="black" points="59.59,-234.5 59.59,-275.5 252.59,-275.5 252.59,-234.5 59.59,-234.5"/>
<text text-anchor="start" x="67.59" y="-263.5" font-family="Helvetica,sans-Serif" font-size="10.00">/home/runner/work/open62541pp</text>
<text text-anchor="start" x="67.59" y="-252.5" font-family="Helvetica,sans-Serif" font-size="10.00">/open62541pp/include/open62541pp</text>
<text text-anchor="middle" x="156.09" y="-241.5" font-family="Helvetica,sans-Serif" font-size="10.00">/TypeWrapper.h</text>
</a>
</g>
</g>
<!-- Node1&#45;&gt;Node2 -->
<g id="edge1" class="edge">
<title>Node1&#45;&gt;Node2</title>
<path fill="none" stroke="midnightblue" d="M271.45,-308.19C248.21,-297.67 221.23,-285.47 199.2,-275.51"/>
<polygon fill="midnightblue" stroke="midnightblue" points="270.27,-311.5 280.82,-312.43 273.15,-305.12 270.27,-311.5"/>
</g>
<!-- Node5 -->
<g id="node5" class="node">
<title>Node5</title>
<g id="a_node5"><a xlink:href="open62541pp_8h.html" target="_top" xlink:title=" ">
<polygon fill="none" stroke="black" points="121.59,-0.5 121.59,-41.5 314.59,-41.5 314.59,-0.5 121.59,-0.5"/>
<text text-anchor="start" x="129.59" y="-29.5" font-family="Helvetica,sans-Serif" font-size="10.00">/home/runner/work/open62541pp</text>
<text text-anchor="start" x="129.59" y="-18.5" font-family="Helvetica,sans-Serif" font-size="10.00">/open62541pp/include/open62541pp</text>
<text text-anchor="middle" x="218.09" y="-7.5" font-family="Helvetica,sans-Serif" font-size="10.00">/open62541pp.h</text>
</a>
</g>
</g>
<!-- Node1&#45;&gt;Node5 -->
<g id="edge10" class="edge">
<title>Node1&#45;&gt;Node5</title>
<path fill="none" stroke="midnightblue" d="M358.69,-305.56C397.99,-272.06 453.68,-211.95 429.09,-156 403.02,-96.71 335.63,-61.01 283.96,-41.54"/>
<polygon fill="midnightblue" stroke="midnightblue" points="356.04,-303.21 350.58,-312.29 360.51,-308.59 356.04,-303.21"/>
</g>
<!-- Node6 -->
<g id="node6" class="node">
<title>Node6</title>
<g id="a_node6"><a xlink:href="Variant_8h.html" target="_top" xlink:title=" ">
<polygon fill="none" stroke="black" points="227.59,-156.5 227.59,-197.5 420.59,-197.5 420.59,-156.5 227.59,-156.5"/>
<text text-anchor="start" x="235.59" y="-185.5" font-family="Helvetica,sans-Serif" font-size="10.00">/home/runner/work/open62541pp</text>
<text text-anchor="start" x="235.59" y="-174.5" font-family="Helvetica,sans-Serif" font-size="10.00">/open62541pp/include/open62541pp</text>
<text text-anchor="middle" x="324.09" y="-163.5" font-family="Helvetica,sans-Serif" font-size="10.00">/Variant.h</text>
</a>
</g>
</g>
<!-- Node1&#45;&gt;Node6 -->
<g id="edge11" class="edge">
<title>Node1&#45;&gt;Node6</title>
<path fill="none" stroke="midnightblue" d="M324.09,-302.36C324.09,-271.61 324.09,-224.36 324.09,-197.83"/>
<polygon fill="midnightblue" stroke="midnightblue" points="320.59,-302.5 324.09,-312.5 327.59,-302.5 320.59,-302.5"/>
</g>
<!-- Node3 -->
<g id="node3" class="node">
<title>Node3</title>
<g id="a_node3"><a xlink:href="NodeId_8h.html" target="_top" xlink:title=" ">
<polygon fill="none" stroke="black" points="16.59,-156.5 16.59,-197.5 209.59,-197.5 209.59,-156.5 16.59,-156.5"/>
<text text-anchor="start" x="24.59" y="-185.5" font-family="Helvetica,sans-Serif" font-size="10.00">/home/runner/work/open62541pp</text>
<text text-anchor="start" x="24.59" y="-174.5" font-family="Helvetica,sans-Serif" font-size="10.00">/open62541pp/include/open62541pp</text>
<text text-anchor="middle" x="113.09" y="-163.5" font-family="Helvetica,sans-Serif" font-size="10.00">/NodeId.h</text>
</a>
</g>
</g>
<!-- Node2&#45;&gt;Node3 -->
<g id="edge2" class="edge">
<title>Node2&#45;&gt;Node3</title>
<path fill="none" stroke="midnightblue" d="M139.94,-225.47C134.67,-216.14 128.93,-206.01 124.12,-197.51"/>
<polygon fill="midnightblue" stroke="midnightblue" points="137.04,-227.45 145.01,-234.43 143.13,-224 137.04,-227.45"/>
</g>
<!-- Node2&#45;&gt;Node5 -->
<g id="edge6" class="edge">
<title>Node2&#45;&gt;Node5</title>
<path fill="none" stroke="midnightblue" d="M49.97,-232.57C33.08,-224.48 17.71,-213.34 7.09,-198 -3.54,-182.65 -0.71,-172.96 7.09,-156 34.24,-96.96 101.83,-61.14 153.25,-41.58"/>
<polygon fill="midnightblue" stroke="midnightblue" points="48.93,-235.93 59.49,-236.76 51.75,-229.53 48.93,-235.93"/>
</g>
<!-- Node2&#45;&gt;Node6 -->
<g id="edge7" class="edge">
<title>Node2&#45;&gt;Node6</title>
<path fill="none" stroke="midnightblue" d="M208.72,-230.19C231.96,-219.67 258.95,-207.47 280.97,-197.51"/>
<polygon fill="midnightblue" stroke="midnightblue" points="207.02,-227.12 199.35,-234.43 209.9,-233.5 207.02,-227.12"/>
</g>
<!-- Node4 -->
<g id="node4" class="node">
<title>Node4</title>
<g id="a_node4"><a xlink:href="Node_8h.html" target="_top" xlink:title=" ">
<polygon fill="none" stroke="black" points="120.09,-78.5 120.09,-119.5 316.09,-119.5 316.09,-78.5 120.09,-78.5"/>
<text text-anchor="start" x="128.09" y="-107.5" font-family="Helvetica,sans-Serif" font-size="10.00">/home/runner/work/open62541pp</text>
<text text-anchor="start" x="128.09" y="-96.5" font-family="Helvetica,sans-Serif" font-size="10.00">/open62541pp/include/open62541pp/</text>
<text text-anchor="middle" x="218.09" y="-85.5" font-family="Helvetica,sans-Serif" font-size="10.00">Node.h</text>
</a>
</g>
</g>
<!-- Node3&#45;&gt;Node4 -->
<g id="edge3" class="edge">
<title>Node3&#45;&gt;Node4</title>
<path fill="none" stroke="midnightblue" d="M148.52,-150.35C162.45,-140.27 178.17,-128.89 191.14,-119.51"/>
<polygon fill="midnightblue" stroke="midnightblue" points="146.18,-147.73 140.13,-156.43 150.28,-153.4 146.18,-147.73"/>
</g>
<!-- Node3&#45;&gt;Node5 -->
<g id="edge5" class="edge">
<title>Node3&#45;&gt;Node5</title>
<path fill="none" stroke="midnightblue" d="M104.65,-146.56C100.51,-125.9 98.72,-98.42 111.09,-78 120.91,-61.77 137.16,-50.01 154.07,-41.6"/>
<polygon fill="midnightblue" stroke="midnightblue" points="101.26,-147.41 106.9,-156.38 108.08,-145.85 101.26,-147.41"/>
</g>
<!-- Node4&#45;&gt;Node5 -->
<g id="edge4" class="edge">
<title>Node4&#45;&gt;Node5</title>
<path fill="none" stroke="midnightblue" d="M218.09,-68.3C218.09,-59.3 218.09,-49.65 218.09,-41.51"/>
<polygon fill="midnightblue" stroke="midnightblue" points="214.59,-68.43 218.09,-78.43 221.59,-68.43 214.59,-68.43"/>
</g>
<!-- Node6&#45;&gt;Node4 -->
<g id="edge8" class="edge">
<title>Node6&#45;&gt;Node4</title>
<path fill="none" stroke="midnightblue" d="M288.31,-150.35C274.26,-140.27 258.38,-128.89 245.29,-119.51"/>
<polygon fill="midnightblue" stroke="midnightblue" points="286.62,-153.45 296.79,-156.43 290.7,-147.76 286.62,-153.45"/>
</g>
<!-- Node6&#45;&gt;Node5 -->
<g id="edge9" class="edge">
<title>Node6&#45;&gt;Node5</title>
<path fill="none" stroke="midnightblue" d="M332.09,-146.55C335.96,-125.89 337.45,-98.42 325.09,-78 315.26,-61.77 299.01,-50.01 282.1,-41.6"/>
<polygon fill="midnightblue" stroke="midnightblue" points="328.66,-145.86 329.98,-156.38 335.5,-147.33 328.66,-145.86"/>
</g>
</g>
</svg>
