<?xml version="1.0" encoding="UTF-8" standalone="no"?>
<!DOCTYPE svg PUBLIC "-//W3C//DTD SVG 1.1//EN"
 "http://www.w3.org/Graphics/SVG/1.1/DTD/svg11.dtd">
<!-- Generated by graphviz version 2.43.0 (0)
 -->
<!-- Title: /home/runner/work/open62541pp/open62541pp/include/open62541pp/ErrorHandling.h Pages: 1 -->
<svg width="1615pt" height="742pt"
 viewBox="0.00 0.00 1615.12 742.00" xmlns="http://www.w3.org/2000/svg" xmlns:xlink="http://www.w3.org/1999/xlink">
<g id="graph0" class="graph" transform="scale(1 1) rotate(0) translate(4 738)">
<title>/home/runner/work/open62541pp/open62541pp/include/open62541pp/ErrorHandling.h</title>
<!-- Node1 -->
<g id="node1" class="node">
<title>Node1</title>
<g id="a_node1"><a xlink:title=" ">
<polygon fill="#999999" stroke="#666666" points="397.62,-734 204.62,-734 204.62,-693 397.62,-693 397.62,-734"/>
<text text-anchor="start" x="212.62" y="-722" font-family="Helvetica,sans-Serif" font-size="10.00">/home/runner/work/open62541pp</text>
<text text-anchor="start" x="212.62" y="-711" font-family="Helvetica,sans-Serif" font-size="10.00">/open62541pp/include/open62541pp</text>
<text text-anchor="middle" x="301.12" y="-700" font-family="Helvetica,sans-Serif" font-size="10.00">/ErrorHandling.h</text>
</a>
</g>
</g>
<!-- Node2 -->
<g id="node2" class="node">
<title>Node2</title>
<g id="a_node2"><a xlink:href="TypeConverter_8h.html" target="_top" xlink:title=" ">
<polygon fill="white" stroke="#666666" points="605.62,-503 412.62,-503 412.62,-462 605.62,-462 605.62,-503"/>
<text text-anchor="start" x="420.62" y="-491" font-family="Helvetica,sans-Serif" font-size="10.00">/home/runner/work/open62541pp</text>
<text text-anchor="start" x="420.62" y="-480" font-family="Helvetica,sans-Serif" font-size="10.00">/open62541pp/include/open62541pp</text>
<text text-anchor="middle" x="509.12" y="-469" font-family="Helvetica,sans-Serif" font-size="10.00">/TypeConverter.h</text>
</a>
</g>
</g>
<!-- Node1&#45;&gt;Node2 -->
<g id="edge1" class="edge">
<title>Node1&#45;&gt;Node2</title>
<path fill="none" stroke="#63b8ff" d="M390.45,-689.74C446.09,-670.44 513.32,-636.59 547.12,-580 561.99,-555.11 543.12,-523.36 527.08,-503.22"/>
<polygon fill="#63b8ff" stroke="#63b8ff" points="389.28,-686.44 380.91,-692.95 391.51,-693.08 389.28,-686.44"/>
</g>
<!-- Node4 -->
<g id="node4" class="node">
<title>Node4</title>
<g id="a_node4"><a xlink:href="open62541pp_8h.html" target="_top" xlink:title=" ">
<polygon fill="white" stroke="#666666" points="777.62,-41 584.62,-41 584.62,0 777.62,0 777.62,-41"/>
<text text-anchor="start" x="592.62" y="-29" font-family="Helvetica,sans-Serif" font-size="10.00">/home/runner/work/open62541pp</text>
<text text-anchor="start" x="592.62" y="-18" font-family="Helvetica,sans-Serif" font-size="10.00">/open62541pp/include/open62541pp</text>
<text text-anchor="middle" x="681.12" y="-7" font-family="Helvetica,sans-Serif" font-size="10.00">/open62541pp.h</text>
</a>
</g>
</g>
<!-- Node1&#45;&gt;Node4 -->
<g id="edge66" class="edge">
<title>Node1&#45;&gt;Node4</title>
<path fill="none" stroke="#63b8ff" d="M194.32,-702.01C107.78,-686.92 0.12,-650.13 0.12,-560.5 0.12,-560.5 0.12,-560.5 0.12,-173.5 0.12,-128.03 -1.83,-104.84 34.12,-77 76.61,-44.11 414.56,-29.43 584.4,-24.07"/>
<polygon fill="#63b8ff" stroke="#63b8ff" points="193.79,-705.47 204.23,-703.66 194.94,-698.56 193.79,-705.47"/>
</g>
<!-- Node14 -->
<g id="node14" class="node">
<title>Node14</title>
<g id="a_node14"><a xlink:href="Variant_8h.html" target="_top" xlink:title=" ">
<polygon fill="white" stroke="#666666" points="297.62,-426 104.62,-426 104.62,-385 297.62,-385 297.62,-426"/>
<text text-anchor="start" x="112.62" y="-414" font-family="Helvetica,sans-Serif" font-size="10.00">/home/runner/work/open62541pp</text>
<text text-anchor="start" x="112.62" y="-403" font-family="Helvetica,sans-Serif" font-size="10.00">/open62541pp/include/open62541pp</text>
<text text-anchor="middle" x="201.12" y="-392" font-family="Helvetica,sans-Serif" font-size="10.00">/types/Variant.h</text>
</a>
</g>
</g>
<!-- Node1&#45;&gt;Node14 -->
<g id="edge67" class="edge">
<title>Node1&#45;&gt;Node14</title>
<path fill="none" stroke="#63b8ff" d="M286.55,-683.52C267.2,-643.81 233.37,-569.78 215.12,-503 207.98,-476.87 204.3,-445.71 202.54,-426.01"/>
<polygon fill="#63b8ff" stroke="#63b8ff" points="283.58,-685.42 291.13,-692.85 289.86,-682.33 283.58,-685.42"/>
</g>
<!-- Node17 -->
<g id="node17" class="node">
<title>Node17</title>
<g id="a_node17"><a xlink:href="TypeWrapper_8h.html" target="_top" xlink:title=" ">
<polygon fill="white" stroke="#666666" points="787.62,-657 594.62,-657 594.62,-616 787.62,-616 787.62,-657"/>
<text text-anchor="start" x="602.62" y="-645" font-family="Helvetica,sans-Serif" font-size="10.00">/home/runner/work/open62541pp</text>
<text text-anchor="start" x="602.62" y="-634" font-family="Helvetica,sans-Serif" font-size="10.00">/open62541pp/include/open62541pp</text>
<text text-anchor="middle" x="691.12" y="-623" font-family="Helvetica,sans-Serif" font-size="10.00">/TypeWrapper.h</text>
</a>
</g>
</g>
<!-- Node1&#45;&gt;Node17 -->
<g id="edge35" class="edge">
<title>Node1&#45;&gt;Node17</title>
<path fill="none" stroke="#63b8ff" d="M407.77,-691.99C466.13,-680.77 537.9,-666.97 594.6,-656.06"/>
<polygon fill="#63b8ff" stroke="#63b8ff" points="406.94,-688.59 397.78,-693.91 408.26,-695.46 406.94,-688.59"/>
</g>
<!-- Node3 -->
<g id="node3" class="node">
<title>Node3</title>
<g id="a_node3"><a xlink:href="Node_8h.html" target="_top" xlink:title=" ">
<polygon fill="white" stroke="#666666" points="564.12,-195 368.12,-195 368.12,-154 564.12,-154 564.12,-195"/>
<text text-anchor="start" x="376.12" y="-183" font-family="Helvetica,sans-Serif" font-size="10.00">/home/runner/work/open62541pp</text>
<text text-anchor="start" x="376.12" y="-172" font-family="Helvetica,sans-Serif" font-size="10.00">/open62541pp/include/open62541pp/</text>
<text text-anchor="middle" x="466.12" y="-161" font-family="Helvetica,sans-Serif" font-size="10.00">Node.h</text>
</a>
</g>
</g>
<!-- Node2&#45;&gt;Node3 -->
<g id="edge2" class="edge">
<title>Node2&#45;&gt;Node3</title>
<path fill="none" stroke="#63b8ff" d="M483.22,-454.44C475.19,-445.62 466.52,-435.62 459.12,-426 420.94,-376.37 427.07,-351.6 382.12,-308 360.07,-286.61 338.16,-298.79 323.12,-272 314.2,-256.11 312.83,-246.04 323.12,-231 334.25,-214.74 350.9,-203.24 368.94,-195.11"/>
<polygon fill="#63b8ff" stroke="#63b8ff" points="480.7,-456.88 490.06,-461.85 485.85,-452.13 480.7,-456.88"/>
</g>
<!-- Node2&#45;&gt;Node4 -->
<g id="edge4" class="edge">
<title>Node2&#45;&gt;Node4</title>
<path fill="none" stroke="#63b8ff" d="M402.51,-477.67C296.91,-472.06 144.09,-458.45 95.12,-426 53.6,-398.48 38.12,-379.31 38.12,-329.5 38.12,-329.5 38.12,-329.5 38.12,-173.5 38.12,-129.3 28.56,-105.75 62.12,-77 100.87,-43.82 420.2,-29.37 584.4,-24.09"/>
<polygon fill="#63b8ff" stroke="#63b8ff" points="402.41,-481.17 412.58,-478.19 402.77,-474.18 402.41,-481.17"/>
</g>
<!-- Node5 -->
<g id="node5" class="node">
<title>Node5</title>
<g id="a_node5"><a xlink:href="Composed_8h.html" target="_top" xlink:title=" ">
<polygon fill="white" stroke="#666666" points="1540.62,-272 1347.62,-272 1347.62,-231 1540.62,-231 1540.62,-272"/>
<text text-anchor="start" x="1355.62" y="-260" font-family="Helvetica,sans-Serif" font-size="10.00">/home/runner/work/open62541pp</text>
<text text-anchor="start" x="1355.62" y="-249" font-family="Helvetica,sans-Serif" font-size="10.00">/open62541pp/include/open62541pp</text>
<text text-anchor="middle" x="1444.12" y="-238" font-family="Helvetica,sans-Serif" font-size="10.00">/types/Composed.h</text>
</a>
</g>
</g>
<!-- Node2&#45;&gt;Node5 -->
<g id="edge5" class="edge">
<title>Node2&#45;&gt;Node5</title>
<path fill="none" stroke="#63b8ff" d="M615.88,-482.02C748.48,-480.52 980.81,-470.84 1174.12,-426 1265.7,-404.76 1296.17,-405.73 1371.12,-349 1398.93,-327.95 1421.37,-293.63 1433.71,-272.09"/>
<polygon fill="#63b8ff" stroke="#63b8ff" points="615.69,-478.52 605.72,-482.12 615.76,-485.52 615.69,-478.52"/>
</g>
<!-- Node9 -->
<g id="node9" class="node">
<title>Node9</title>
<g id="a_node9"><a xlink:href="ExtensionObject_8h.html" target="_top" xlink:title=" ">
<polygon fill="white" stroke="#666666" points="661.62,-426 468.62,-426 468.62,-385 661.62,-385 661.62,-426"/>
<text text-anchor="start" x="476.62" y="-414" font-family="Helvetica,sans-Serif" font-size="10.00">/home/runner/work/open62541pp</text>
<text text-anchor="start" x="476.62" y="-403" font-family="Helvetica,sans-Serif" font-size="10.00">/open62541pp/include/open62541pp</text>
<text text-anchor="middle" x="565.12" y="-392" font-family="Helvetica,sans-Serif" font-size="10.00">/types/ExtensionObject.h</text>
</a>
</g>
</g>
<!-- Node2&#45;&gt;Node9 -->
<g id="edge13" class="edge">
<title>Node2&#45;&gt;Node9</title>
<path fill="none" stroke="#63b8ff" d="M529.9,-453.67C536.75,-444.5 544.22,-434.5 550.51,-426.07"/>
<polygon fill="#63b8ff" stroke="#63b8ff" points="527.01,-451.69 523.84,-461.79 532.62,-455.88 527.01,-451.69"/>
</g>
<!-- Node2&#45;&gt;Node14 -->
<g id="edge25" class="edge">
<title>Node2&#45;&gt;Node14</title>
<path fill="none" stroke="#63b8ff" d="M419.26,-459.62C375.63,-448.99 323.65,-436.34 281.37,-426.04"/>
<polygon fill="#63b8ff" stroke="#63b8ff" points="418.46,-463.03 429,-461.99 420.11,-456.22 418.46,-463.03"/>
</g>
<!-- Node3&#45;&gt;Node4 -->
<g id="edge3" class="edge">
<title>Node3&#45;&gt;Node4</title>
<path fill="none" stroke="#63b8ff" d="M473.74,-144.08C480.69,-122.71 493.02,-94.57 513.12,-77 533.24,-59.41 559.09,-47.37 584.45,-39.13"/>
<polygon fill="#63b8ff" stroke="#63b8ff" points="470.39,-143.07 470.83,-153.65 477.09,-145.1 470.39,-143.07"/>
</g>
<!-- Node5&#45;&gt;Node3 -->
<g id="edge8" class="edge">
<title>Node5&#45;&gt;Node3</title>
<path fill="none" stroke="#63b8ff" d="M1337.17,-242.3C1146.08,-227.64 748.82,-197.18 564.28,-183.03"/>
<polygon fill="#63b8ff" stroke="#63b8ff" points="1336.98,-245.79 1347.22,-243.07 1337.52,-238.81 1336.98,-245.79"/>
</g>
<!-- Node5&#45;&gt;Node4 -->
<g id="edge9" class="edge">
<title>Node5&#45;&gt;Node4</title>
<path fill="none" stroke="#63b8ff" d="M1443.59,-220.57C1441.1,-180.78 1430.25,-111.49 1386.12,-77 1339.3,-40.4 960,-27.42 777.95,-23.26"/>
<polygon fill="#63b8ff" stroke="#63b8ff" points="1440.1,-220.9 1444.08,-230.72 1447.09,-220.56 1440.1,-220.9"/>
</g>
<!-- Node6 -->
<g id="node6" class="node">
<title>Node6</title>
<g id="a_node6"><a xlink:href="Client_8h.html" target="_top" xlink:title=" ">
<polygon fill="white" stroke="#666666" points="1377.62,-118 1184.62,-118 1184.62,-77 1377.62,-77 1377.62,-118"/>
<text text-anchor="start" x="1192.62" y="-106" font-family="Helvetica,sans-Serif" font-size="10.00">/home/runner/work/open62541pp</text>
<text text-anchor="start" x="1192.62" y="-95" font-family="Helvetica,sans-Serif" font-size="10.00">/open62541pp/include/open62541pp</text>
<text text-anchor="middle" x="1281.12" y="-84" font-family="Helvetica,sans-Serif" font-size="10.00">/Client.h</text>
</a>
</g>
</g>
<!-- Node5&#45;&gt;Node6 -->
<g id="edge6" class="edge">
<title>Node5&#45;&gt;Node6</title>
<path fill="none" stroke="#63b8ff" d="M1415.77,-224.06C1383.42,-193.9 1331.27,-145.26 1302.28,-118.23"/>
<polygon fill="#63b8ff" stroke="#63b8ff" points="1413.45,-226.68 1423.15,-230.94 1418.22,-221.56 1413.45,-226.68"/>
</g>
<!-- Node7 -->
<g id="node7" class="node">
<title>Node7</title>
<g id="a_node7"><a xlink:href="View_8h.html" target="_top" xlink:title=" ">
<polygon fill="white" stroke="#666666" points="1214.62,-195 1021.62,-195 1021.62,-154 1214.62,-154 1214.62,-195"/>
<text text-anchor="start" x="1029.62" y="-183" font-family="Helvetica,sans-Serif" font-size="10.00">/home/runner/work/open62541pp</text>
<text text-anchor="start" x="1029.62" y="-172" font-family="Helvetica,sans-Serif" font-size="10.00">/open62541pp/include/open62541pp</text>
<text text-anchor="middle" x="1118.12" y="-161" font-family="Helvetica,sans-Serif" font-size="10.00">/services/View.h</text>
</a>
</g>
</g>
<!-- Node5&#45;&gt;Node7 -->
<g id="edge10" class="edge">
<title>Node5&#45;&gt;Node7</title>
<path fill="none" stroke="#63b8ff" d="M1349.3,-228.68C1303.06,-218.05 1247.91,-205.36 1203.07,-195.04"/>
<polygon fill="#63b8ff" stroke="#63b8ff" points="1348.79,-232.16 1359.32,-230.99 1350.36,-225.34 1348.79,-232.16"/>
</g>
<!-- Node6&#45;&gt;Node4 -->
<g id="edge7" class="edge">
<title>Node6&#45;&gt;Node4</title>
<path fill="none" stroke="#63b8ff" d="M1174.38,-83.16C1061.85,-69.09 886.18,-47.13 777.67,-33.57"/>
<polygon fill="#63b8ff" stroke="#63b8ff" points="1174.03,-86.64 1184.39,-84.41 1174.9,-79.69 1174.03,-86.64"/>
</g>
<!-- Node8 -->
<g id="node8" class="node">
<title>Node8</title>
<g id="a_node8"><a xlink:href="services_8h.html" target="_top" xlink:title=" ">
<polygon fill="white" stroke="#666666" points="715.62,-118 522.62,-118 522.62,-77 715.62,-77 715.62,-118"/>
<text text-anchor="start" x="530.62" y="-106" font-family="Helvetica,sans-Serif" font-size="10.00">/home/runner/work/open62541pp</text>
<text text-anchor="start" x="530.62" y="-95" font-family="Helvetica,sans-Serif" font-size="10.00">/open62541pp/include/open62541pp</text>
<text text-anchor="middle" x="619.12" y="-84" font-family="Helvetica,sans-Serif" font-size="10.00">/services/services.h</text>
</a>
</g>
</g>
<!-- Node7&#45;&gt;Node8 -->
<g id="edge11" class="edge">
<title>Node7&#45;&gt;Node8</title>
<path fill="none" stroke="#63b8ff" d="M1011.37,-153.91C904.31,-136.65 793.04,-121.27 715.79,-111.01"/>
<polygon fill="#63b8ff" stroke="#63b8ff" points="1010.96,-157.39 1021.39,-155.53 1012.08,-150.48 1010.96,-157.39"/>
</g>
<!-- Node8&#45;&gt;Node4 -->
<g id="edge12" class="edge">
<title>Node8&#45;&gt;Node4</title>
<path fill="none" stroke="#63b8ff" d="M641.89,-68.95C649.54,-59.7 657.91,-49.58 664.94,-41.07"/>
<polygon fill="#63b8ff" stroke="#63b8ff" points="639.09,-66.86 635.41,-76.79 644.48,-71.32 639.09,-66.86"/>
</g>
<!-- Node9&#45;&gt;Node4 -->
<g id="edge14" class="edge">
<title>Node9&#45;&gt;Node4</title>
<path fill="none" stroke="#63b8ff" d="M519.12,-380.07C449.7,-343.11 325.93,-276.74 323.12,-272 313.83,-256.32 319.17,-248.79 323.12,-231 344.39,-135.27 391.46,-116.7 481.12,-77 515.22,-61.9 554.44,-49.94 589.07,-41.04"/>
<polygon fill="#63b8ff" stroke="#63b8ff" points="517.65,-383.25 528.12,-384.86 520.94,-377.08 517.65,-383.25"/>
</g>
<!-- Node10 -->
<g id="node10" class="node">
<title>Node10</title>
<g id="a_node10"><a xlink:href="services_2MonitoredItem_8h.html" target="_top" xlink:title=" ">
<polygon fill="white" stroke="#666666" points="970.62,-349 777.62,-349 777.62,-308 970.62,-308 970.62,-349"/>
<text text-anchor="start" x="785.62" y="-337" font-family="Helvetica,sans-Serif" font-size="10.00">/home/runner/work/open62541pp</text>
<text text-anchor="start" x="785.62" y="-326" font-family="Helvetica,sans-Serif" font-size="10.00">/open62541pp/include/open62541pp</text>
<text text-anchor="middle" x="874.12" y="-315" font-family="Helvetica,sans-Serif" font-size="10.00">/services/MonitoredItem.h</text>
</a>
</g>
</g>
<!-- Node9&#45;&gt;Node10 -->
<g id="edge15" class="edge">
<title>Node9&#45;&gt;Node10</title>
<path fill="none" stroke="#63b8ff" d="M655.28,-382.62C699.04,-371.99 751.2,-359.34 793.61,-349.04"/>
<polygon fill="#63b8ff" stroke="#63b8ff" points="654.39,-379.23 645.5,-384.99 656.05,-386.03 654.39,-379.23"/>
</g>
<!-- Node10&#45;&gt;Node8 -->
<g id="edge24" class="edge">
<title>Node10&#45;&gt;Node8</title>
<path fill="none" stroke="#63b8ff" d="M767.6,-312.58C717.83,-303.43 665.87,-289.97 649.12,-272 609.32,-229.28 612.21,-153.73 616.24,-118.11"/>
<polygon fill="#63b8ff" stroke="#63b8ff" points="767.06,-316.04 777.52,-314.36 768.29,-309.15 767.06,-316.04"/>
</g>
<!-- Node11 -->
<g id="node11" class="node">
<title>Node11</title>
<g id="a_node11"><a xlink:href="MonitoredItem_8h.html" target="_top" xlink:title=" ">
<polygon fill="white" stroke="#666666" points="1062.62,-272 869.62,-272 869.62,-231 1062.62,-231 1062.62,-272"/>
<text text-anchor="start" x="877.62" y="-260" font-family="Helvetica,sans-Serif" font-size="10.00">/home/runner/work/open62541pp</text>
<text text-anchor="start" x="877.62" y="-249" font-family="Helvetica,sans-Serif" font-size="10.00">/open62541pp/include/open62541pp</text>
<text text-anchor="middle" x="966.12" y="-238" font-family="Helvetica,sans-Serif" font-size="10.00">/MonitoredItem.h</text>
</a>
</g>
</g>
<!-- Node10&#45;&gt;Node11 -->
<g id="edge16" class="edge">
<title>Node10&#45;&gt;Node11</title>
<path fill="none" stroke="#63b8ff" d="M906.2,-301.35C918,-291.73 931.15,-281.01 942.11,-272.07"/>
<polygon fill="#63b8ff" stroke="#63b8ff" points="903.83,-298.76 898.29,-307.79 908.26,-304.19 903.83,-298.76"/>
</g>
<!-- Node12 -->
<g id="node12" class="node">
<title>Node12</title>
<g id="a_node12"><a xlink:href="Subscription_8h.html" target="_top" xlink:title=" ">
<polygon fill="white" stroke="#666666" points="1003.62,-195 810.62,-195 810.62,-154 1003.62,-154 1003.62,-195"/>
<text text-anchor="start" x="818.62" y="-183" font-family="Helvetica,sans-Serif" font-size="10.00">/home/runner/work/open62541pp</text>
<text text-anchor="start" x="818.62" y="-172" font-family="Helvetica,sans-Serif" font-size="10.00">/open62541pp/include/open62541pp</text>
<text text-anchor="middle" x="907.12" y="-161" font-family="Helvetica,sans-Serif" font-size="10.00">/Subscription.h</text>
</a>
</g>
</g>
<!-- Node10&#45;&gt;Node12 -->
<g id="edge23" class="edge">
<title>Node10&#45;&gt;Node12</title>
<path fill="none" stroke="#63b8ff" d="M980.57,-309.41C1020.54,-300.26 1059.21,-287.73 1071.12,-272 1082.12,-257.47 1081.74,-245.81 1071.12,-231 1061.18,-217.14 1027.82,-204.66 993.75,-195.06"/>
<polygon fill="#63b8ff" stroke="#63b8ff" points="979.68,-306.02 970.68,-311.6 981.2,-312.85 979.68,-306.02"/>
</g>
<!-- Node11&#45;&gt;Node4 -->
<g id="edge22" class="edge">
<title>Node11&#45;&gt;Node4</title>
<path fill="none" stroke="#63b8ff" d="M859.67,-229.71C820.63,-220.24 782.47,-208.2 768.12,-195 726.92,-157.11 751.35,-125.9 724.12,-77 717.01,-64.22 707.11,-51.23 698.61,-41.03"/>
<polygon fill="#63b8ff" stroke="#63b8ff" points="859.06,-233.16 869.6,-232.06 860.67,-226.35 859.06,-233.16"/>
</g>
<!-- Node11&#45;&gt;Node12 -->
<g id="edge17" class="edge">
<title>Node11&#45;&gt;Node12</title>
<path fill="none" stroke="#63b8ff" d="M944.23,-222.67C937.02,-213.5 929.15,-203.5 922.52,-195.07"/>
<polygon fill="#63b8ff" stroke="#63b8ff" points="941.69,-225.1 950.62,-230.79 947.19,-220.77 941.69,-225.1"/>
</g>
<!-- Node12&#45;&gt;Node4 -->
<g id="edge21" class="edge">
<title>Node12&#45;&gt;Node4</title>
<path fill="none" stroke="#63b8ff" d="M874.24,-147.51C862.95,-138.37 850.34,-127.9 839.12,-118 819.32,-100.53 817.83,-92.03 796.12,-77 775.71,-62.87 751.15,-50.48 729.97,-41.01"/>
<polygon fill="#63b8ff" stroke="#63b8ff" points="872.21,-150.37 882.19,-153.91 876.6,-144.91 872.21,-150.37"/>
</g>
<!-- Node12&#45;&gt;Node6 -->
<g id="edge18" class="edge">
<title>Node12&#45;&gt;Node6</title>
<path fill="none" stroke="#63b8ff" d="M1013.82,-152.1C1067.53,-141.33 1132.15,-128.37 1184.4,-117.9"/>
<polygon fill="#63b8ff" stroke="#63b8ff" points="1013.04,-148.69 1003.92,-154.09 1014.42,-155.55 1013.04,-148.69"/>
</g>
<!-- Node13 -->
<g id="node13" class="node">
<title>Node13</title>
<g id="a_node13"><a xlink:href="Server_8h.html" target="_top" xlink:title=" ">
<polygon fill="white" stroke="#666666" points="1041.62,-118 848.62,-118 848.62,-77 1041.62,-77 1041.62,-118"/>
<text text-anchor="start" x="856.62" y="-106" font-family="Helvetica,sans-Serif" font-size="10.00">/home/runner/work/open62541pp</text>
<text text-anchor="start" x="856.62" y="-95" font-family="Helvetica,sans-Serif" font-size="10.00">/open62541pp/include/open62541pp</text>
<text text-anchor="middle" x="945.12" y="-84" font-family="Helvetica,sans-Serif" font-size="10.00">/Server.h</text>
</a>
</g>
</g>
<!-- Node12&#45;&gt;Node13 -->
<g id="edge19" class="edge">
<title>Node12&#45;&gt;Node13</title>
<path fill="none" stroke="#63b8ff" d="M921.65,-144.83C926.18,-135.89 931.07,-126.24 935.2,-118.07"/>
<polygon fill="#63b8ff" stroke="#63b8ff" points="918.5,-143.29 917.11,-153.79 924.75,-146.46 918.5,-143.29"/>
</g>
<!-- Node13&#45;&gt;Node4 -->
<g id="edge20" class="edge">
<title>Node13&#45;&gt;Node4</title>
<path fill="none" stroke="#63b8ff" d="M866.68,-74.21C829.58,-63.68 785.69,-51.21 749.91,-41.04"/>
<polygon fill="#63b8ff" stroke="#63b8ff" points="865.87,-77.62 876.45,-76.99 867.79,-70.89 865.87,-77.62"/>
</g>
<!-- Node14&#45;&gt;Node3 -->
<g id="edge26" class="edge">
<title>Node14&#45;&gt;Node3</title>
<path fill="none" stroke="#63b8ff" d="M181.3,-376.16C170.12,-356.45 160.36,-329.88 171.12,-308 207.07,-234.96 296.93,-202.15 368.11,-187.43"/>
<polygon fill="#63b8ff" stroke="#63b8ff" points="178.46,-378.23 186.64,-384.97 184.45,-374.6 178.46,-378.23"/>
</g>
<!-- Node14&#45;&gt;Node4 -->
<g id="edge27" class="edge">
<title>Node14&#45;&gt;Node4</title>
<path fill="none" stroke="#63b8ff" d="M174.01,-377.4C148.48,-348.88 114.12,-301.42 114.12,-252.5 114.12,-252.5 114.12,-252.5 114.12,-173.5 114.12,-128.45 110.14,-105.38 145.12,-77 178.45,-49.96 439.4,-33.17 584.52,-25.83"/>
<polygon fill="#63b8ff" stroke="#63b8ff" points="171.6,-379.94 180.94,-384.92 176.74,-375.2 171.6,-379.94"/>
</g>
<!-- Node15 -->
<g id="node15" class="node">
<title>Node15</title>
<g id="a_node15"><a xlink:href="Attribute_8h.html" target="_top" xlink:title=" ">
<polygon fill="white" stroke="#666666" points="525.62,-272 332.62,-272 332.62,-231 525.62,-231 525.62,-272"/>
<text text-anchor="start" x="340.62" y="-260" font-family="Helvetica,sans-Serif" font-size="10.00">/home/runner/work/open62541pp</text>
<text text-anchor="start" x="340.62" y="-249" font-family="Helvetica,sans-Serif" font-size="10.00">/open62541pp/include/open62541pp</text>
<text text-anchor="middle" x="429.12" y="-238" font-family="Helvetica,sans-Serif" font-size="10.00">/services/Attribute.h</text>
</a>
</g>
</g>
<!-- Node14&#45;&gt;Node15 -->
<g id="edge28" class="edge">
<title>Node14&#45;&gt;Node15</title>
<path fill="none" stroke="#63b8ff" d="M307.46,-387.49C334.05,-379.26 360.99,-367.08 382.12,-349 405.77,-328.77 418.57,-293.87 424.61,-272.05"/>
<polygon fill="#63b8ff" stroke="#63b8ff" points="306.31,-384.18 297.69,-390.34 308.27,-390.89 306.31,-384.18"/>
</g>
<!-- Node16 -->
<g id="node16" class="node">
<title>Node16</title>
<g id="a_node16"><a xlink:href="DataValue_8h.html" target="_top" xlink:title=" ">
<polygon fill="white" stroke="#666666" points="373.62,-349 180.62,-349 180.62,-308 373.62,-308 373.62,-349"/>
<text text-anchor="start" x="188.62" y="-337" font-family="Helvetica,sans-Serif" font-size="10.00">/home/runner/work/open62541pp</text>
<text text-anchor="start" x="188.62" y="-326" font-family="Helvetica,sans-Serif" font-size="10.00">/open62541pp/include/open62541pp</text>
<text text-anchor="middle" x="277.12" y="-315" font-family="Helvetica,sans-Serif" font-size="10.00">/types/DataValue.h</text>
</a>
</g>
</g>
<!-- Node14&#45;&gt;Node16 -->
<g id="edge31" class="edge">
<title>Node14&#45;&gt;Node16</title>
<path fill="none" stroke="#63b8ff" d="M228.47,-377.51C237.99,-368.11 248.49,-357.76 257.29,-349.07"/>
<polygon fill="#63b8ff" stroke="#63b8ff" points="225.75,-375.28 221.09,-384.79 230.67,-380.26 225.75,-375.28"/>
</g>
<!-- Node15&#45;&gt;Node3 -->
<g id="edge29" class="edge">
<title>Node15&#45;&gt;Node3</title>
<path fill="none" stroke="#63b8ff" d="M443.41,-221.55C447.78,-212.69 452.48,-203.15 456.47,-195.07"/>
<polygon fill="#63b8ff" stroke="#63b8ff" points="440.13,-220.28 438.84,-230.79 446.41,-223.38 440.13,-220.28"/>
</g>
<!-- Node15&#45;&gt;Node8 -->
<g id="edge30" class="edge">
<title>Node15&#45;&gt;Node8</title>
<path fill="none" stroke="#63b8ff" d="M520.96,-227.06C539.77,-219.15 558.32,-208.7 573.12,-195 595.73,-174.07 608.36,-139.71 614.45,-118.13"/>
<polygon fill="#63b8ff" stroke="#63b8ff" points="519.42,-223.91 511.42,-230.86 522.01,-230.41 519.42,-223.91"/>
</g>
<!-- Node16&#45;&gt;Node3 -->
<g id="edge32" class="edge">
<title>Node16&#45;&gt;Node3</title>
<path fill="none" stroke="#63b8ff" d="M273.35,-297.68C272.38,-276.72 274.76,-249.26 290.12,-231 309.72,-207.71 339.01,-194.07 368.1,-186.11"/>
<polygon fill="#63b8ff" stroke="#63b8ff" points="269.86,-297.96 274.07,-307.68 276.84,-297.45 269.86,-297.96"/>
</g>
<!-- Node16&#45;&gt;Node4 -->
<g id="edge33" class="edge">
<title>Node16&#45;&gt;Node4</title>
<path fill="none" stroke="#63b8ff" d="M208.59,-302.92C195.64,-295.07 183.78,-284.94 176.12,-272 132,-197.41 118.28,-141.54 176.12,-77 202.83,-47.19 445.51,-31.75 584.5,-25.29"/>
<polygon fill="#63b8ff" stroke="#63b8ff" points="207.24,-306.18 217.68,-307.99 210.66,-300.06 207.24,-306.18"/>
</g>
<!-- Node16&#45;&gt;Node15 -->
<g id="edge34" class="edge">
<title>Node16&#45;&gt;Node15</title>
<path fill="none" stroke="#63b8ff" d="M325.87,-303.45C346.43,-293.3 370.06,-281.64 389.52,-272.04"/>
<polygon fill="#63b8ff" stroke="#63b8ff" points="324.08,-300.43 316.66,-307.99 327.18,-306.7 324.08,-300.43"/>
</g>
<!-- Node17&#45;&gt;Node2 -->
<g id="edge36" class="edge">
<title>Node17&#45;&gt;Node2</title>
<path fill="none" stroke="#63b8ff" d="M661.91,-608.98C640,-589.29 609.08,-562 581.12,-539 566.25,-526.77 549.2,-513.59 535.43,-503.14"/>
<polygon fill="#63b8ff" stroke="#63b8ff" points="659.79,-611.77 669.56,-615.86 664.47,-606.57 659.79,-611.77"/>
</g>
<!-- Node17&#45;&gt;Node4 -->
<g id="edge37" class="edge">
<title>Node17&#45;&gt;Node4</title>
<path fill="none" stroke="#63b8ff" d="M798.12,-631.22C964.19,-623.84 1276.15,-606.9 1384.12,-580 1488.91,-553.89 1607.12,-591.49 1607.12,-483.5 1607.12,-483.5 1607.12,-483.5 1607.12,-173.5 1607.12,-96.83 1536.6,-102 1464.12,-77 1339.88,-34.14 958.39,-24.36 777.81,-22.14"/>
<polygon fill="#63b8ff" stroke="#63b8ff" points="797.72,-627.73 787.88,-631.67 798.02,-634.72 797.72,-627.73"/>
</g>
<!-- Node17&#45;&gt;Node5 -->
<g id="edge57" class="edge">
<title>Node17&#45;&gt;Node5</title>
<path fill="none" stroke="#63b8ff" d="M797.65,-635.89C1005.32,-633.75 1444.12,-613.81 1444.12,-483.5 1444.12,-483.5 1444.12,-483.5 1444.12,-404.5 1444.12,-357 1444.12,-301.15 1444.12,-272.18"/>
<polygon fill="#63b8ff" stroke="#63b8ff" points="797.61,-632.39 787.64,-635.98 797.67,-639.38 797.61,-632.39"/>
</g>
<!-- Node17&#45;&gt;Node9 -->
<g id="edge63" class="edge">
<title>Node17&#45;&gt;Node9</title>
<path fill="none" stroke="#63b8ff" d="M681.18,-606C668.46,-570.33 644.41,-509.21 614.12,-462 605.86,-449.13 594.69,-436.23 585.11,-426.11"/>
<polygon fill="#63b8ff" stroke="#63b8ff" points="678,-607.51 684.61,-615.79 684.6,-605.19 678,-607.51"/>
</g>
<!-- Node17&#45;&gt;Node14 -->
<g id="edge65" class="edge">
<title>Node17&#45;&gt;Node14</title>
<path fill="none" stroke="#63b8ff" d="M584.29,-630.53C485.65,-624.12 347.86,-610 303.12,-580 247.11,-542.44 217.58,-462.9 206.44,-426.03"/>
<polygon fill="#63b8ff" stroke="#63b8ff" points="584.11,-634.02 594.31,-631.16 584.55,-627.04 584.11,-634.02"/>
</g>
<!-- Node17&#45;&gt;Node15 -->
<g id="edge38" class="edge">
<title>Node17&#45;&gt;Node15</title>
<path fill="none" stroke="#63b8ff" d="M697.02,-605.84C705.26,-555.84 714.63,-453.54 670.12,-385 663.92,-375.45 533.16,-306.57 466.9,-272.07"/>
<polygon fill="#63b8ff" stroke="#63b8ff" points="693.52,-605.51 695.25,-615.97 700.42,-606.72 693.52,-605.51"/>
</g>
<!-- Node17&#45;&gt;Node16 -->
<g id="edge58" class="edge">
<title>Node17&#45;&gt;Node16</title>
<path fill="none" stroke="#63b8ff" d="M584.36,-632.35C492.73,-627.3 370.2,-614.16 336.12,-580 274.19,-517.92 333.46,-468.32 306.12,-385 302.02,-372.5 295.32,-359.42 289.39,-349.1"/>
<polygon fill="#63b8ff" stroke="#63b8ff" points="584.36,-635.86 594.53,-632.89 584.73,-628.87 584.36,-635.86"/>
</g>
<!-- Node18 -->
<g id="node18" class="node">
<title>Node18</title>
<g id="a_node18"><a xlink:href="Builtin_8h.html" target="_top" xlink:title=" ">
<polygon fill="white" stroke="#666666" points="1165.62,-426 972.62,-426 972.62,-385 1165.62,-385 1165.62,-426"/>
<text text-anchor="start" x="980.62" y="-414" font-family="Helvetica,sans-Serif" font-size="10.00">/home/runner/work/open62541pp</text>
<text text-anchor="start" x="980.62" y="-403" font-family="Helvetica,sans-Serif" font-size="10.00">/open62541pp/include/open62541pp</text>
<text text-anchor="middle" x="1069.12" y="-392" font-family="Helvetica,sans-Serif" font-size="10.00">/types/Builtin.h</text>
</a>
</g>
</g>
<!-- Node17&#45;&gt;Node18 -->
<g id="edge39" class="edge">
<title>Node17&#45;&gt;Node18</title>
<path fill="none" stroke="#63b8ff" d="M732.15,-610.64C807.85,-564.79 968,-467.76 1036.71,-426.14"/>
<polygon fill="#63b8ff" stroke="#63b8ff" points="730.09,-607.8 723.35,-615.98 733.72,-613.79 730.09,-607.8"/>
</g>
<!-- Node19 -->
<g id="node19" class="node">
<title>Node19</title>
<g id="a_node19"><a xlink:href="NodeId_8h.html" target="_top" xlink:title=" ">
<polygon fill="white" stroke="#666666" points="1290.62,-349 1097.62,-349 1097.62,-308 1290.62,-308 1290.62,-349"/>
<text text-anchor="start" x="1105.62" y="-337" font-family="Helvetica,sans-Serif" font-size="10.00">/home/runner/work/open62541pp</text>
<text text-anchor="start" x="1105.62" y="-326" font-family="Helvetica,sans-Serif" font-size="10.00">/open62541pp/include/open62541pp</text>
<text text-anchor="middle" x="1194.12" y="-315" font-family="Helvetica,sans-Serif" font-size="10.00">/types/NodeId.h</text>
</a>
</g>
</g>
<!-- Node17&#45;&gt;Node19 -->
<g id="edge64" class="edge">
<title>Node17&#45;&gt;Node19</title>
<path fill="none" stroke="#63b8ff" d="M797.98,-618.9C909.4,-595.74 1080.58,-542.62 1174.12,-426 1191.79,-403.98 1194.99,-370.26 1195.03,-349.06"/>
<polygon fill="#63b8ff" stroke="#63b8ff" points="797.16,-615.49 788.06,-620.91 798.55,-622.35 797.16,-615.49"/>
</g>
<!-- Node21 -->
<g id="node21" class="node">
<title>Node21</title>
<g id="a_node21"><a xlink:href="DateTime_8h.html" target="_top" xlink:title=" ">
<polygon fill="white" stroke="#666666" points="538.62,-580 345.62,-580 345.62,-539 538.62,-539 538.62,-580"/>
<text text-anchor="start" x="353.62" y="-568" font-family="Helvetica,sans-Serif" font-size="10.00">/home/runner/work/open62541pp</text>
<text text-anchor="start" x="353.62" y="-557" font-family="Helvetica,sans-Serif" font-size="10.00">/open62541pp/include/open62541pp</text>
<text text-anchor="middle" x="442.12" y="-546" font-family="Helvetica,sans-Serif" font-size="10.00">/types/DateTime.h</text>
</a>
</g>
</g>
<!-- Node17&#45;&gt;Node21 -->
<g id="edge59" class="edge">
<title>Node17&#45;&gt;Node21</title>
<path fill="none" stroke="#63b8ff" d="M616.69,-613.08C581.79,-602.57 540.61,-590.16 507,-580.04"/>
<polygon fill="#63b8ff" stroke="#63b8ff" points="615.77,-616.46 626.35,-615.99 617.78,-609.76 615.77,-616.46"/>
</g>
<!-- Node18&#45;&gt;Node3 -->
<g id="edge41" class="edge">
<title>Node18&#45;&gt;Node3</title>
<path fill="none" stroke="#63b8ff" d="M962.58,-389.79C904.5,-380.54 831.7,-366.93 768.12,-349 756.66,-345.77 577.79,-278.95 568.12,-272 548.9,-258.19 550.93,-247.67 534.12,-231 521.25,-218.23 505.65,-205.34 492.64,-195.2"/>
<polygon fill="#63b8ff" stroke="#63b8ff" points="962.09,-393.25 972.51,-391.35 963.18,-386.34 962.09,-393.25"/>
</g>
<!-- Node18&#45;&gt;Node4 -->
<g id="edge42" class="edge">
<title>Node18&#45;&gt;Node4</title>
<path fill="none" stroke="#63b8ff" d="M1074,-374.89C1080.51,-331.01 1089.22,-251.68 1071.12,-231 991.38,-139.91 898.93,-266.34 801.12,-195 754.22,-160.79 780.24,-123.22 745.12,-77 734.89,-63.53 720.94,-50.97 708.67,-41.21"/>
<polygon fill="#63b8ff" stroke="#63b8ff" points="1070.52,-374.55 1072.46,-384.97 1077.43,-375.61 1070.52,-374.55"/>
</g>
<!-- Node18&#45;&gt;Node5 -->
<g id="edge44" class="edge">
<title>Node18&#45;&gt;Node5</title>
<path fill="none" stroke="#63b8ff" d="M1175.97,-394.56C1225.7,-386.85 1284.47,-373.19 1333.12,-349 1335.71,-347.71 1390.13,-300.01 1421.79,-272.16"/>
<polygon fill="#63b8ff" stroke="#63b8ff" points="1175.21,-391.14 1165.83,-396.07 1176.24,-398.06 1175.21,-391.14"/>
</g>
<!-- Node18&#45;&gt;Node6 -->
<g id="edge40" class="edge">
<title>Node18&#45;&gt;Node6</title>
<path fill="none" stroke="#63b8ff" d="M1171.22,-382.81C1230.67,-369.69 1294.82,-354.46 1299.12,-349 1353.47,-279.97 1311.11,-164.41 1290.61,-118.34"/>
<polygon fill="#63b8ff" stroke="#63b8ff" points="1170.36,-379.41 1161.34,-384.98 1171.86,-386.25 1170.36,-379.41"/>
</g>
<!-- Node18&#45;&gt;Node15 -->
<g id="edge43" class="edge">
<title>Node18&#45;&gt;Node15</title>
<path fill="none" stroke="#63b8ff" d="M962.49,-396.67C861.12,-388 716.7,-372.14 665.12,-349 639.52,-337.52 641.78,-321.38 617.12,-308 588.25,-292.34 554.44,-280.6 523.5,-272.05"/>
<polygon fill="#63b8ff" stroke="#63b8ff" points="962.21,-400.16 972.47,-397.51 962.8,-393.18 962.21,-400.16"/>
</g>
<!-- Node18&#45;&gt;Node19 -->
<g id="edge45" class="edge">
<title>Node18&#45;&gt;Node19</title>
<path fill="none" stroke="#63b8ff" d="M1110.55,-379.64C1127.06,-369.74 1145.79,-358.5 1161.33,-349.17"/>
<polygon fill="#63b8ff" stroke="#63b8ff" points="1108.41,-376.84 1101.64,-384.99 1112.01,-382.85 1108.41,-376.84"/>
</g>
<!-- Node19&#45;&gt;Node3 -->
<g id="edge47" class="edge">
<title>Node19&#45;&gt;Node3</title>
<path fill="none" stroke="#63b8ff" d="M1087.04,-317.65C934.25,-303.45 669.74,-278.23 649.12,-272 641.36,-269.66 553.57,-222.64 502.46,-195.12"/>
<polygon fill="#63b8ff" stroke="#63b8ff" points="1087.11,-321.17 1097.39,-318.61 1087.75,-314.2 1087.11,-321.17"/>
</g>
<!-- Node19&#45;&gt;Node4 -->
<g id="edge50" class="edge">
<title>Node19&#45;&gt;Node4</title>
<path fill="none" stroke="#63b8ff" d="M1301.01,-325.58C1393.64,-321.38 1517.62,-308.81 1549.12,-272 1560.97,-258.16 1555.44,-248.09 1549.12,-231 1517.85,-146.45 1497.55,-117.72 1417.12,-77 1361.46,-48.82 964.54,-31.39 777.8,-24.67"/>
<polygon fill="#63b8ff" stroke="#63b8ff" points="1300.85,-322.08 1291.01,-326.01 1301.15,-329.08 1300.85,-322.08"/>
</g>
<!-- Node19&#45;&gt;Node5 -->
<g id="edge56" class="edge">
<title>Node19&#45;&gt;Node5</title>
<path fill="none" stroke="#63b8ff" d="M1268.86,-305.08C1303.89,-294.57 1345.24,-282.16 1378.98,-272.04"/>
<polygon fill="#63b8ff" stroke="#63b8ff" points="1267.73,-301.76 1259.15,-307.99 1269.74,-308.47 1267.73,-301.76"/>
</g>
<!-- Node19&#45;&gt;Node6 -->
<g id="edge46" class="edge">
<title>Node19&#45;&gt;Node6</title>
<path fill="none" stroke="#63b8ff" d="M1232.48,-301.4C1241.98,-293.09 1251.14,-283.13 1257.12,-272 1284.18,-221.64 1284.44,-151.68 1282.67,-118.06"/>
<polygon fill="#63b8ff" stroke="#63b8ff" points="1229.99,-298.92 1224.49,-307.97 1234.44,-304.32 1229.99,-298.92"/>
</g>
<!-- Node19&#45;&gt;Node7 -->
<g id="edge55" class="edge">
<title>Node19&#45;&gt;Node7</title>
<path fill="none" stroke="#63b8ff" d="M1195.39,-297.71C1195.02,-277.74 1192.07,-251.47 1181.12,-231 1173.49,-216.73 1160.63,-204.4 1148.51,-195.02"/>
<polygon fill="#63b8ff" stroke="#63b8ff" points="1191.89,-297.78 1195.38,-307.79 1198.89,-297.79 1191.89,-297.78"/>
</g>
<!-- Node19&#45;&gt;Node12 -->
<g id="edge49" class="edge">
<title>Node19&#45;&gt;Node12</title>
<path fill="none" stroke="#63b8ff" d="M1171.03,-300.09C1151.49,-278.51 1121.7,-249.13 1090.12,-231 1062.77,-215.29 1030.52,-203.6 1000.77,-195.11"/>
<polygon fill="#63b8ff" stroke="#63b8ff" points="1168.49,-302.5 1177.75,-307.65 1173.72,-297.85 1168.49,-302.5"/>
</g>
<!-- Node19&#45;&gt;Node13 -->
<g id="edge48" class="edge">
<title>Node19&#45;&gt;Node13</title>
<path fill="none" stroke="#63b8ff" d="M1211.12,-298.89C1230.97,-261.35 1257.04,-195.36 1223.12,-154 1200.26,-126.12 1112.52,-111.98 1041.65,-104.98"/>
<polygon fill="#63b8ff" stroke="#63b8ff" points="1207.98,-297.34 1206.25,-307.8 1214.12,-300.7 1207.98,-297.34"/>
</g>
<!-- Node19&#45;&gt;Node15 -->
<g id="edge51" class="edge">
<title>Node19&#45;&gt;Node15</title>
<path fill="none" stroke="#63b8ff" d="M1087.42,-317.8C1052.87,-314.67 1014.37,-311.18 979.12,-308 800.91,-291.92 755.98,-291.61 578.12,-272 561.14,-270.13 543.09,-267.94 525.63,-265.71"/>
<polygon fill="#63b8ff" stroke="#63b8ff" points="1087.26,-321.3 1097.53,-318.72 1087.89,-314.33 1087.26,-321.3"/>
</g>
<!-- Node20 -->
<g id="node20" class="node">
<title>Node20</title>
<g id="a_node20"><a xlink:href="NodeManagement_8h.html" target="_top" xlink:title=" ">
<polygon fill="white" stroke="#666666" points="851.62,-272 658.62,-272 658.62,-231 851.62,-231 851.62,-272"/>
<text text-anchor="start" x="666.62" y="-260" font-family="Helvetica,sans-Serif" font-size="10.00">/home/runner/work/open62541pp</text>
<text text-anchor="start" x="666.62" y="-249" font-family="Helvetica,sans-Serif" font-size="10.00">/open62541pp/include/open62541pp</text>
<text text-anchor="middle" x="755.12" y="-238" font-family="Helvetica,sans-Serif" font-size="10.00">/services/NodeManagement.h</text>
</a>
</g>
</g>
<!-- Node19&#45;&gt;Node20 -->
<g id="edge52" class="edge">
<title>Node19&#45;&gt;Node20</title>
<path fill="none" stroke="#63b8ff" d="M1087.63,-310.33C1021.99,-299.62 936.11,-285.37 860.12,-272 857.38,-271.52 854.6,-271.03 851.8,-270.53"/>
<polygon fill="#63b8ff" stroke="#63b8ff" points="1087.14,-313.8 1097.57,-311.95 1088.27,-306.89 1087.14,-313.8"/>
</g>
<!-- Node20&#45;&gt;Node3 -->
<g id="edge53" class="edge">
<title>Node20&#45;&gt;Node3</title>
<path fill="none" stroke="#63b8ff" d="M670.03,-228.42C629.25,-217.84 580.84,-205.27 541.42,-195.04"/>
<polygon fill="#63b8ff" stroke="#63b8ff" points="669.39,-231.87 679.95,-230.99 671.15,-225.09 669.39,-231.87"/>
</g>
<!-- Node20&#45;&gt;Node8 -->
<g id="edge54" class="edge">
<title>Node20&#45;&gt;Node8</title>
<path fill="none" stroke="#63b8ff" d="M730.8,-223.32C703.85,-193.19 661.02,-145.33 636.99,-118.47"/>
<polygon fill="#63b8ff" stroke="#63b8ff" points="728.34,-225.82 737.62,-230.94 733.56,-221.15 728.34,-225.82"/>
</g>
<!-- Node21&#45;&gt;Node2 -->
<g id="edge60" class="edge">
<title>Node21&#45;&gt;Node2</title>
<path fill="none" stroke="#63b8ff" d="M466.48,-531.23C474.81,-521.91 483.96,-511.67 491.64,-503.07"/>
<polygon fill="#63b8ff" stroke="#63b8ff" points="463.78,-529.01 459.73,-538.79 469,-533.67 463.78,-529.01"/>
</g>
<!-- Node21&#45;&gt;Node4 -->
<g id="edge61" class="edge">
<title>Node21&#45;&gt;Node4</title>
<path fill="none" stroke="#63b8ff" d="M338.35,-536.55C230.14,-510.6 76.12,-463.63 76.12,-406.5 76.12,-406.5 76.12,-406.5 76.12,-173.5 76.12,-127.57 76.58,-104.84 113.12,-77 149.72,-49.12 432.25,-32.48 584.55,-25.45"/>
<polygon fill="#63b8ff" stroke="#63b8ff" points="337.81,-540.02 348.34,-538.92 339.42,-533.21 337.81,-540.02"/>
</g>
<!-- Node21&#45;&gt;Node16 -->
<g id="edge62" class="edge">
<title>Node21&#45;&gt;Node16</title>
<path fill="none" stroke="#63b8ff" d="M421.5,-530.57C415.36,-521.89 408.77,-512.18 403.12,-503 371.97,-452.36 377.02,-431.62 340.12,-385 329.63,-371.74 315.71,-359.1 303.62,-349.25"/>
<polygon fill="#63b8ff" stroke="#63b8ff" points="418.77,-532.77 427.44,-538.86 424.46,-528.69 418.77,-532.77"/>
</g>
</g>
</svg>
