<?xml version="1.0" encoding="UTF-8" standalone="no"?>
<!DOCTYPE svg PUBLIC "-//W3C//DTD SVG 1.1//EN"
 "http://www.w3.org/Graphics/SVG/1.1/DTD/svg11.dtd">
<!-- Generated by graphviz version 2.43.0 (0)
 -->
<!-- Title: /home/runner/work/open62541pp/open62541pp/include/open62541pp/ErrorHandling.h Pages: 1 -->
<svg width="1424pt" height="596pt"
 viewBox="0.00 0.00 1424.00 596.00" xmlns="http://www.w3.org/2000/svg" xmlns:xlink="http://www.w3.org/1999/xlink">
<g id="graph0" class="graph" transform="scale(1 1) rotate(0) translate(4 592)">
<title>/home/runner/work/open62541pp/open62541pp/include/open62541pp/ErrorHandling.h</title>
<!-- Node1 -->
<g id="node1" class="node">
<title>Node1</title>
<g id="a_node1"><a xlink:title=" ">
<polygon fill="#bfbfbf" stroke="black" points="589.5,-546.5 589.5,-587.5 782.5,-587.5 782.5,-546.5 589.5,-546.5"/>
<text text-anchor="start" x="597.5" y="-575.5" font-family="Helvetica,sans-Serif" font-size="10.00">/home/runner/work/open62541pp</text>
<text text-anchor="start" x="597.5" y="-564.5" font-family="Helvetica,sans-Serif" font-size="10.00">/open62541pp/include/open62541pp</text>
<text text-anchor="middle" x="686" y="-553.5" font-family="Helvetica,sans-Serif" font-size="10.00">/ErrorHandling.h</text>
</a>
</g>
</g>
<!-- Node2 -->
<g id="node2" class="node">
<title>Node2</title>
<g id="a_node2"><a xlink:href="open62541pp_8h.html" target="_top" xlink:title=" ">
<polygon fill="none" stroke="black" points="258.5,-0.5 258.5,-41.5 451.5,-41.5 451.5,-0.5 258.5,-0.5"/>
<text text-anchor="start" x="266.5" y="-29.5" font-family="Helvetica,sans-Serif" font-size="10.00">/home/runner/work/open62541pp</text>
<text text-anchor="start" x="266.5" y="-18.5" font-family="Helvetica,sans-Serif" font-size="10.00">/open62541pp/include/open62541pp</text>
<text text-anchor="middle" x="355" y="-7.5" font-family="Helvetica,sans-Serif" font-size="10.00">/open62541pp.h</text>
</a>
</g>
</g>
<!-- Node1&#45;&gt;Node2 -->
<g id="edge1" class="edge">
<title>Node1&#45;&gt;Node2</title>
<path fill="none" stroke="midnightblue" d="M579.13,-561.95C398.2,-552.15 51,-519.37 51,-412 51,-412 51,-412 51,-176 51,-81.49 169.38,-44.96 258.39,-30.86"/>
<polygon fill="midnightblue" stroke="midnightblue" points="579.04,-565.45 589.21,-562.48 579.41,-558.46 579.04,-565.45"/>
</g>
<!-- Node3 -->
<g id="node3" class="node">
<title>Node3</title>
<g id="a_node3"><a xlink:href="TypeConverter_8h.html" target="_top" xlink:title=" ">
<polygon fill="none" stroke="black" points="714.5,-312.5 714.5,-353.5 907.5,-353.5 907.5,-312.5 714.5,-312.5"/>
<text text-anchor="start" x="722.5" y="-341.5" font-family="Helvetica,sans-Serif" font-size="10.00">/home/runner/work/open62541pp</text>
<text text-anchor="start" x="722.5" y="-330.5" font-family="Helvetica,sans-Serif" font-size="10.00">/open62541pp/include/open62541pp</text>
<text text-anchor="middle" x="811" y="-319.5" font-family="Helvetica,sans-Serif" font-size="10.00">/TypeConverter.h</text>
</a>
</g>
</g>
<!-- Node1&#45;&gt;Node3 -->
<g id="edge2" class="edge">
<title>Node1&#45;&gt;Node3</title>
<path fill="none" stroke="midnightblue" d="M754.64,-541.71C768.71,-533.69 781.96,-523.3 791,-510 823.76,-461.8 818.98,-388.52 814.28,-353.7"/>
<polygon fill="midnightblue" stroke="midnightblue" points="753,-538.62 745.81,-546.4 756.28,-544.8 753,-538.62"/>
</g>
<!-- Node5 -->
<g id="node5" class="node">
<title>Node5</title>
<g id="a_node5"><a xlink:href="Node_8cpp.html" target="_top" xlink:title=" ">
<polygon fill="none" stroke="black" points="1238,-6 1238,-36 1416,-36 1416,-6 1238,-6"/>
<text text-anchor="start" x="1246" y="-24" font-family="Helvetica,sans-Serif" font-size="10.00">/home/runner/work/open62541pp</text>
<text text-anchor="middle" x="1327" y="-13" font-family="Helvetica,sans-Serif" font-size="10.00">/open62541pp/src/Node.cpp</text>
</a>
</g>
</g>
<!-- Node1&#45;&gt;Node5 -->
<g id="edge38" class="edge">
<title>Node1&#45;&gt;Node5</title>
<path fill="none" stroke="midnightblue" d="M792.64,-563.68C983.79,-556.59 1365,-527.93 1365,-412 1365,-412 1365,-412 1365,-176 1365,-123.13 1343.62,-62.94 1332.94,-36.15"/>
<polygon fill="midnightblue" stroke="midnightblue" points="792.43,-560.18 782.56,-564.03 792.68,-567.18 792.43,-560.18"/>
</g>
<!-- Node6 -->
<g id="node6" class="node">
<title>Node6</title>
<g id="a_node6"><a xlink:href="Server_8cpp.html" target="_top" xlink:title=" ">
<polygon fill="none" stroke="black" points="0,-6 0,-36 178,-36 178,-6 0,-6"/>
<text text-anchor="start" x="8" y="-24" font-family="Helvetica,sans-Serif" font-size="10.00">/home/runner/work/open62541pp</text>
<text text-anchor="middle" x="89" y="-13" font-family="Helvetica,sans-Serif" font-size="10.00">/open62541pp/src/Server.cpp</text>
</a>
</g>
</g>
<!-- Node1&#45;&gt;Node6 -->
<g id="edge39" class="edge">
<title>Node1&#45;&gt;Node6</title>
<path fill="none" stroke="midnightblue" d="M579.39,-565.85C431.41,-563.99 172.72,-554.24 91,-510 42.05,-483.5 13,-467.67 13,-412 13,-412 13,-412 13,-176 13,-119.35 54.86,-61.96 76.45,-36.13"/>
<polygon fill="midnightblue" stroke="midnightblue" points="579.37,-569.35 589.41,-565.97 579.45,-562.35 579.37,-569.35"/>
</g>
<!-- Node7 -->
<g id="node7" class="node">
<title>Node7</title>
<g id="a_node7"><a xlink:href="Variant_8h.html" target="_top" xlink:title=" ">
<polygon fill="none" stroke="black" points="551.5,-234.5 551.5,-275.5 744.5,-275.5 744.5,-234.5 551.5,-234.5"/>
<text text-anchor="start" x="559.5" y="-263.5" font-family="Helvetica,sans-Serif" font-size="10.00">/home/runner/work/open62541pp</text>
<text text-anchor="start" x="559.5" y="-252.5" font-family="Helvetica,sans-Serif" font-size="10.00">/open62541pp/include/open62541pp</text>
<text text-anchor="middle" x="648" y="-241.5" font-family="Helvetica,sans-Serif" font-size="10.00">/types/Variant.h</text>
</a>
</g>
</g>
<!-- Node1&#45;&gt;Node7 -->
<g id="edge15" class="edge">
<title>Node1&#45;&gt;Node7</title>
<path fill="none" stroke="midnightblue" d="M613.86,-541.54C600.38,-533.61 588.02,-523.31 580,-510 532.75,-431.61 601.23,-320.2 633.14,-275.58"/>
<polygon fill="midnightblue" stroke="midnightblue" points="612.38,-544.72 622.84,-546.41 615.72,-538.57 612.38,-544.72"/>
</g>
<!-- Node11 -->
<g id="node11" class="node">
<title>Node11</title>
<g id="a_node11"><a xlink:href="TypeWrapper_8h.html" target="_top" xlink:title=" ">
<polygon fill="none" stroke="black" points="589.5,-468.5 589.5,-509.5 782.5,-509.5 782.5,-468.5 589.5,-468.5"/>
<text text-anchor="start" x="597.5" y="-497.5" font-family="Helvetica,sans-Serif" font-size="10.00">/home/runner/work/open62541pp</text>
<text text-anchor="start" x="597.5" y="-486.5" font-family="Helvetica,sans-Serif" font-size="10.00">/open62541pp/include/open62541pp</text>
<text text-anchor="middle" x="686" y="-475.5" font-family="Helvetica,sans-Serif" font-size="10.00">/TypeWrapper.h</text>
</a>
</g>
</g>
<!-- Node1&#45;&gt;Node11 -->
<g id="edge16" class="edge">
<title>Node1&#45;&gt;Node11</title>
<path fill="none" stroke="midnightblue" d="M686,-536.3C686,-527.3 686,-517.65 686,-509.51"/>
<polygon fill="midnightblue" stroke="midnightblue" points="682.5,-536.43 686,-546.43 689.5,-536.43 682.5,-536.43"/>
</g>
<!-- Node14 -->
<g id="node14" class="node">
<title>Node14</title>
<g id="a_node14"><a xlink:href="NodeId_8cpp.html" target="_top" xlink:title=" ">
<polygon fill="none" stroke="black" points="1107.5,-84 1107.5,-114 1298.5,-114 1298.5,-84 1107.5,-84"/>
<text text-anchor="start" x="1115.5" y="-102" font-family="Helvetica,sans-Serif" font-size="10.00">/home/runner/work/open62541pp</text>
<text text-anchor="middle" x="1203" y="-91" font-family="Helvetica,sans-Serif" font-size="10.00">/open62541pp/src/types/NodeId.cpp</text>
</a>
</g>
</g>
<!-- Node1&#45;&gt;Node14 -->
<g id="edge40" class="edge">
<title>Node1&#45;&gt;Node14</title>
<path fill="none" stroke="midnightblue" d="M792.72,-560.56C965.9,-548.78 1289,-513.24 1289,-412 1289,-412 1289,-412 1289,-254 1289,-196.12 1242.12,-139.77 1217.59,-114.23"/>
<polygon fill="midnightblue" stroke="midnightblue" points="792.29,-557.08 782.55,-561.24 792.76,-564.06 792.29,-557.08"/>
</g>
<!-- Node3&#45;&gt;Node2 -->
<g id="edge7" class="edge">
<title>Node3&#45;&gt;Node2</title>
<path fill="none" stroke="midnightblue" d="M825.86,-303.5C850.62,-251.61 892.31,-141.24 836,-78 810.93,-49.84 584.84,-33.65 451.74,-26.48"/>
<polygon fill="midnightblue" stroke="midnightblue" points="822.72,-301.97 821.46,-312.49 829,-305.04 822.72,-301.97"/>
</g>
<!-- Node4 -->
<g id="node4" class="node">
<title>Node4</title>
<g id="a_node4"><a xlink:href="Node_8h.html" target="_top" xlink:title=" ">
<polygon fill="none" stroke="black" points="631,-78.5 631,-119.5 827,-119.5 827,-78.5 631,-78.5"/>
<text text-anchor="start" x="639" y="-107.5" font-family="Helvetica,sans-Serif" font-size="10.00">/home/runner/work/open62541pp</text>
<text text-anchor="start" x="639" y="-96.5" font-family="Helvetica,sans-Serif" font-size="10.00">/open62541pp/include/open62541pp/</text>
<text text-anchor="middle" x="729" y="-85.5" font-family="Helvetica,sans-Serif" font-size="10.00">Node.h</text>
</a>
</g>
</g>
<!-- Node3&#45;&gt;Node4 -->
<g id="edge3" class="edge">
<title>Node3&#45;&gt;Node4</title>
<path fill="none" stroke="midnightblue" d="M812.72,-301.83C813.52,-265.3 810.76,-202.86 787,-156 779.85,-141.89 767.71,-129.33 756.38,-119.69"/>
<polygon fill="midnightblue" stroke="midnightblue" points="809.2,-302.18 812.37,-312.29 816.2,-302.41 809.2,-302.18"/>
</g>
<!-- Node3&#45;&gt;Node7 -->
<g id="edge8" class="edge">
<title>Node3&#45;&gt;Node7</title>
<path fill="none" stroke="midnightblue" d="M759.93,-308.19C737.38,-297.67 711.2,-285.47 689.83,-275.51"/>
<polygon fill="midnightblue" stroke="midnightblue" points="758.48,-311.37 769.02,-312.43 761.44,-305.03 758.48,-311.37"/>
</g>
<!-- Node4&#45;&gt;Node2 -->
<g id="edge4" class="edge">
<title>Node4&#45;&gt;Node2</title>
<path fill="none" stroke="midnightblue" d="M622.73,-76.4C568.68,-65.42 503.5,-52.18 450.99,-41.51"/>
<polygon fill="midnightblue" stroke="midnightblue" points="622.19,-79.87 632.69,-78.43 623.58,-73.01 622.19,-79.87"/>
</g>
<!-- Node4&#45;&gt;Node5 -->
<g id="edge5" class="edge">
<title>Node4&#45;&gt;Node5</title>
<path fill="none" stroke="midnightblue" d="M837.18,-82.91C849.59,-81.23 862.07,-79.56 874,-78 1000.31,-61.48 1146.61,-43.63 1237.99,-32.63"/>
<polygon fill="midnightblue" stroke="midnightblue" points="836.69,-79.44 827.25,-84.26 837.63,-86.38 836.69,-79.44"/>
</g>
<!-- Node4&#45;&gt;Node6 -->
<g id="edge6" class="edge">
<title>Node4&#45;&gt;Node6</title>
<path fill="none" stroke="midnightblue" d="M620.72,-82.81C608.01,-81.14 595.22,-79.5 583,-78 434.8,-59.87 397.3,-59.26 249,-42 226.06,-39.33 201.29,-36.3 178.25,-33.43"/>
<polygon fill="midnightblue" stroke="midnightblue" points="620.51,-86.32 630.88,-84.16 621.43,-79.38 620.51,-86.32"/>
</g>
<!-- Node7&#45;&gt;Node2 -->
<g id="edge10" class="edge">
<title>Node7&#45;&gt;Node2</title>
<path fill="none" stroke="midnightblue" d="M646.51,-224.32C642.72,-183.87 629.43,-112.52 583,-78 545.22,-49.91 495.12,-35.77 451.51,-28.7"/>
<polygon fill="midnightblue" stroke="midnightblue" points="643.03,-224.69 647.31,-234.38 650,-224.13 643.03,-224.69"/>
</g>
<!-- Node7&#45;&gt;Node4 -->
<g id="edge9" class="edge">
<title>Node7&#45;&gt;Node4</title>
<path fill="none" stroke="midnightblue" d="M685.5,-227.91C695.18,-219.43 704.65,-209.27 711,-198 724.84,-173.43 728.35,-140.42 729.08,-119.68"/>
<polygon fill="midnightblue" stroke="midnightblue" points="683.21,-225.26 677.74,-234.33 687.67,-230.65 683.21,-225.26"/>
</g>
<!-- Node8 -->
<g id="node8" class="node">
<title>Node8</title>
<g id="a_node8"><a xlink:href="DataValue_8h.html" target="_top" xlink:title=" ">
<polygon fill="none" stroke="black" points="889.5,-156.5 889.5,-197.5 1082.5,-197.5 1082.5,-156.5 889.5,-156.5"/>
<text text-anchor="start" x="897.5" y="-185.5" font-family="Helvetica,sans-Serif" font-size="10.00">/home/runner/work/open62541pp</text>
<text text-anchor="start" x="897.5" y="-174.5" font-family="Helvetica,sans-Serif" font-size="10.00">/open62541pp/include/open62541pp</text>
<text text-anchor="middle" x="986" y="-163.5" font-family="Helvetica,sans-Serif" font-size="10.00">/types/DataValue.h</text>
</a>
</g>
</g>
<!-- Node7&#45;&gt;Node8 -->
<g id="edge11" class="edge">
<title>Node7&#45;&gt;Node8</title>
<path fill="none" stroke="midnightblue" d="M744.95,-232.2C793.62,-221.26 852.09,-208.11 899.25,-197.51"/>
<polygon fill="midnightblue" stroke="midnightblue" points="744.03,-228.82 735.04,-234.43 745.57,-235.65 744.03,-228.82"/>
</g>
<!-- Node10 -->
<g id="node10" class="node">
<title>Node10</title>
<g id="a_node10"><a xlink:href="Variant_8cpp.html" target="_top" xlink:title=" ">
<polygon fill="none" stroke="black" points="383.5,-84 383.5,-114 574.5,-114 574.5,-84 383.5,-84"/>
<text text-anchor="start" x="391.5" y="-102" font-family="Helvetica,sans-Serif" font-size="10.00">/home/runner/work/open62541pp</text>
<text text-anchor="middle" x="479" y="-91" font-family="Helvetica,sans-Serif" font-size="10.00">/open62541pp/src/types/Variant.cpp</text>
</a>
</g>
</g>
<!-- Node7&#45;&gt;Node10 -->
<g id="edge14" class="edge">
<title>Node7&#45;&gt;Node10</title>
<path fill="none" stroke="midnightblue" d="M639.9,-224.77C632.7,-203.4 620.28,-174.96 601,-156 581.06,-136.39 553.01,-122.86 528.83,-114.02"/>
<polygon fill="midnightblue" stroke="midnightblue" points="636.58,-225.85 642.94,-234.32 643.25,-223.73 636.58,-225.85"/>
</g>
<!-- Node8&#45;&gt;Node4 -->
<g id="edge12" class="edge">
<title>Node8&#45;&gt;Node4</title>
<path fill="none" stroke="midnightblue" d="M910.19,-153.58C873.61,-142.76 830.15,-129.91 794.96,-119.51"/>
<polygon fill="midnightblue" stroke="midnightblue" points="909.23,-156.95 919.82,-156.43 911.22,-150.24 909.23,-156.95"/>
</g>
<!-- Node9 -->
<g id="node9" class="node">
<title>Node9</title>
<g id="a_node9"><a xlink:href="DataValue_8cpp.html" target="_top" xlink:title=" ">
<polygon fill="none" stroke="black" points="883,-84 883,-114 1089,-114 1089,-84 883,-84"/>
<text text-anchor="start" x="891" y="-102" font-family="Helvetica,sans-Serif" font-size="10.00">/home/runner/work/open62541pp</text>
<text text-anchor="middle" x="986" y="-91" font-family="Helvetica,sans-Serif" font-size="10.00">/open62541pp/src/types/DataValue.cpp</text>
</a>
</g>
</g>
<!-- Node8&#45;&gt;Node9 -->
<g id="edge13" class="edge">
<title>Node8&#45;&gt;Node9</title>
<path fill="none" stroke="midnightblue" d="M986,-146.28C986,-135.25 986,-123.25 986,-114.23"/>
<polygon fill="midnightblue" stroke="midnightblue" points="982.5,-146.43 986,-156.43 989.5,-146.43 982.5,-146.43"/>
</g>
<!-- Node11&#45;&gt;Node2 -->
<g id="edge18" class="edge">
<title>Node11&#45;&gt;Node2</title>
<path fill="none" stroke="midnightblue" d="M579.34,-482.28C407.63,-470.13 89,-434.09 89,-334 89,-334 89,-334 89,-254 89,-160.07 132.48,-136.46 206,-78 226.22,-61.92 251.55,-50.11 275.56,-41.61"/>
<polygon fill="midnightblue" stroke="midnightblue" points="579.2,-485.78 589.42,-482.98 579.68,-478.8 579.2,-485.78"/>
</g>
<!-- Node11&#45;&gt;Node3 -->
<g id="edge19" class="edge">
<title>Node11&#45;&gt;Node3</title>
<path fill="none" stroke="midnightblue" d="M708.44,-460.36C733.34,-429.68 772.9,-380.94 794.9,-353.83"/>
<polygon fill="midnightblue" stroke="midnightblue" points="705.42,-458.53 701.83,-468.5 710.85,-462.94 705.42,-458.53"/>
</g>
<!-- Node11&#45;&gt;Node4 -->
<g id="edge17" class="edge">
<title>Node11&#45;&gt;Node4</title>
<path fill="none" stroke="midnightblue" d="M682.33,-458.15C679.26,-421.28 678.92,-357.83 705,-312 718.19,-288.82 741.07,-299.85 753,-276 761.35,-259.3 754.65,-252.59 753,-234 749.36,-193.04 739.58,-145.85 733.69,-119.83"/>
<polygon fill="midnightblue" stroke="midnightblue" points="678.86,-458.62 683.29,-468.25 685.82,-457.96 678.86,-458.62"/>
</g>
<!-- Node11&#45;&gt;Node5 -->
<g id="edge37" class="edge">
<title>Node11&#45;&gt;Node5</title>
<path fill="none" stroke="midnightblue" d="M792.98,-484.93C905.72,-479.89 1074.28,-466.63 1128,-432 1275.97,-336.62 1317.05,-97.32 1325.27,-36.33"/>
<polygon fill="midnightblue" stroke="midnightblue" points="792.76,-481.44 782.93,-485.37 793.07,-488.43 792.76,-481.44"/>
</g>
<!-- Node11&#45;&gt;Node7 -->
<g id="edge36" class="edge">
<title>Node11&#45;&gt;Node7</title>
<path fill="none" stroke="midnightblue" d="M677.99,-458.54C675.85,-450.02 673.67,-440.68 672,-432 661.15,-375.68 653.4,-308.29 649.97,-275.65"/>
<polygon fill="midnightblue" stroke="midnightblue" points="674.66,-459.61 680.55,-468.42 681.43,-457.86 674.66,-459.61"/>
</g>
<!-- Node11&#45;&gt;Node8 -->
<g id="edge30" class="edge">
<title>Node11&#45;&gt;Node8</title>
<path fill="none" stroke="midnightblue" d="M792.8,-481.4C894.22,-473.67 1038.33,-458.42 1088,-432 1129.12,-410.12 1141.34,-397.5 1158,-354 1177.96,-301.88 1161.43,-272.47 1121,-234 1104,-217.82 1081.65,-206.02 1060.05,-197.55"/>
<polygon fill="midnightblue" stroke="midnightblue" points="792.53,-477.92 782.82,-482.15 793.05,-484.9 792.53,-477.92"/>
</g>
<!-- Node12 -->
<g id="node12" class="node">
<title>Node12</title>
<g id="a_node12"><a xlink:href="Builtin_8h.html" target="_top" xlink:title=" ">
<polygon fill="none" stroke="black" points="245.5,-234.5 245.5,-275.5 438.5,-275.5 438.5,-234.5 245.5,-234.5"/>
<text text-anchor="start" x="253.5" y="-263.5" font-family="Helvetica,sans-Serif" font-size="10.00">/home/runner/work/open62541pp</text>
<text text-anchor="start" x="253.5" y="-252.5" font-family="Helvetica,sans-Serif" font-size="10.00">/open62541pp/include/open62541pp</text>
<text text-anchor="middle" x="342" y="-241.5" font-family="Helvetica,sans-Serif" font-size="10.00">/types/Builtin.h</text>
</a>
</g>
</g>
<!-- Node11&#45;&gt;Node12 -->
<g id="edge20" class="edge">
<title>Node11&#45;&gt;Node12</title>
<path fill="none" stroke="midnightblue" d="M584.15,-465.38C558.48,-457.15 531.78,-446.25 509,-432 440.62,-389.22 381.09,-311.96 355.44,-275.74"/>
<polygon fill="midnightblue" stroke="midnightblue" points="583.34,-468.8 593.92,-468.41 585.41,-462.11 583.34,-468.8"/>
</g>
<!-- Node13 -->
<g id="node13" class="node">
<title>Node13</title>
<g id="a_node13"><a xlink:href="NodeId_8h.html" target="_top" xlink:title=" ">
<polygon fill="none" stroke="black" points="399.5,-156.5 399.5,-197.5 592.5,-197.5 592.5,-156.5 399.5,-156.5"/>
<text text-anchor="start" x="407.5" y="-185.5" font-family="Helvetica,sans-Serif" font-size="10.00">/home/runner/work/open62541pp</text>
<text text-anchor="start" x="407.5" y="-174.5" font-family="Helvetica,sans-Serif" font-size="10.00">/open62541pp/include/open62541pp</text>
<text text-anchor="middle" x="496" y="-163.5" font-family="Helvetica,sans-Serif" font-size="10.00">/types/NodeId.h</text>
</a>
</g>
</g>
<!-- Node11&#45;&gt;Node13 -->
<g id="edge35" class="edge">
<title>Node11&#45;&gt;Node13</title>
<path fill="none" stroke="midnightblue" d="M664.74,-459.83C635.24,-420.06 581.1,-344.65 542,-276 527.02,-249.71 512.69,-217.72 504.12,-197.61"/>
<polygon fill="midnightblue" stroke="midnightblue" points="662.22,-462.29 671,-468.22 667.83,-458.11 662.22,-462.29"/>
</g>
<!-- Node16 -->
<g id="node16" class="node">
<title>Node16</title>
<g id="a_node16"><a xlink:href="DateTime_8h.html" target="_top" xlink:title=" ">
<polygon fill="none" stroke="black" points="885.5,-390.5 885.5,-431.5 1078.5,-431.5 1078.5,-390.5 885.5,-390.5"/>
<text text-anchor="start" x="893.5" y="-419.5" font-family="Helvetica,sans-Serif" font-size="10.00">/home/runner/work/open62541pp</text>
<text text-anchor="start" x="893.5" y="-408.5" font-family="Helvetica,sans-Serif" font-size="10.00">/open62541pp/include/open62541pp</text>
<text text-anchor="middle" x="982" y="-397.5" font-family="Helvetica,sans-Serif" font-size="10.00">/types/DateTime.h</text>
</a>
</g>
</g>
<!-- Node11&#45;&gt;Node16 -->
<g id="edge31" class="edge">
<title>Node11&#45;&gt;Node16</title>
<path fill="none" stroke="midnightblue" d="M771.98,-465.92C814.38,-455.04 865.07,-442.02 906.03,-431.51"/>
<polygon fill="midnightblue" stroke="midnightblue" points="771.04,-462.55 762.23,-468.43 772.78,-469.33 771.04,-462.55"/>
</g>
<!-- Node12&#45;&gt;Node2 -->
<g id="edge22" class="edge">
<title>Node12&#45;&gt;Node2</title>
<path fill="none" stroke="midnightblue" d="M235.99,-236.49C215.59,-228.16 196.67,-215.93 184,-198 173.23,-182.75 175.83,-172.78 184,-156 210.41,-101.74 270.61,-62.96 312.04,-41.51"/>
<polygon fill="midnightblue" stroke="midnightblue" points="234.85,-239.8 245.44,-240.04 237.32,-233.25 234.85,-239.8"/>
</g>
<!-- Node12&#45;&gt;Node4 -->
<g id="edge21" class="edge">
<title>Node12&#45;&gt;Node4</title>
<path fill="none" stroke="midnightblue" d="M448.85,-241.72C496.93,-233.5 553.44,-219.99 601,-198 643.68,-178.26 685.46,-142.23 709.15,-119.78"/>
<polygon fill="midnightblue" stroke="midnightblue" points="448.02,-238.31 438.73,-243.4 449.16,-245.22 448.02,-238.31"/>
</g>
<!-- Node12&#45;&gt;Node6 -->
<g id="edge28" class="edge">
<title>Node12&#45;&gt;Node6</title>
<path fill="none" stroke="midnightblue" d="M235.47,-233.1C213,-224.95 190.75,-213.65 173,-198 121.71,-152.76 99.06,-69.33 91.79,-36.15"/>
<polygon fill="midnightblue" stroke="midnightblue" points="234.5,-236.47 245.1,-236.4 236.77,-229.85 234.5,-236.47"/>
</g>
<!-- Node12&#45;&gt;Node13 -->
<g id="edge23" class="edge">
<title>Node12&#45;&gt;Node13</title>
<path fill="none" stroke="midnightblue" d="M390.82,-229.91C411.99,-219.46 436.47,-207.38 456.48,-197.51"/>
<polygon fill="midnightblue" stroke="midnightblue" points="389.08,-226.86 381.66,-234.43 392.18,-233.14 389.08,-226.86"/>
</g>
<!-- Node15 -->
<g id="node15" class="node">
<title>Node15</title>
<g id="a_node15"><a xlink:href="Builtin_8cpp.html" target="_top" xlink:title=" ">
<polygon fill="none" stroke="black" points="193,-162 193,-192 381,-192 381,-162 193,-162"/>
<text text-anchor="start" x="201" y="-180" font-family="Helvetica,sans-Serif" font-size="10.00">/home/runner/work/open62541pp</text>
<text text-anchor="middle" x="287" y="-169" font-family="Helvetica,sans-Serif" font-size="10.00">/open62541pp/src/types/Builtin.cpp</text>
</a>
</g>
</g>
<!-- Node12&#45;&gt;Node15 -->
<g id="edge29" class="edge">
<title>Node12&#45;&gt;Node15</title>
<path fill="none" stroke="midnightblue" d="M321.97,-226.32C313.6,-214.75 304.23,-201.8 297.29,-192.23"/>
<polygon fill="midnightblue" stroke="midnightblue" points="319.14,-228.38 327.84,-234.43 324.81,-224.27 319.14,-228.38"/>
</g>
<!-- Node13&#45;&gt;Node2 -->
<g id="edge25" class="edge">
<title>Node13&#45;&gt;Node2</title>
<path fill="none" stroke="midnightblue" d="M415.1,-152.02C399.5,-144.07 384.71,-133.63 374,-120 356.33,-97.51 353.55,-63.3 353.8,-41.82"/>
<polygon fill="midnightblue" stroke="midnightblue" points="413.81,-155.29 424.34,-156.42 416.82,-148.97 413.81,-155.29"/>
</g>
<!-- Node13&#45;&gt;Node4 -->
<g id="edge24" class="edge">
<title>Node13&#45;&gt;Node4</title>
<path fill="none" stroke="midnightblue" d="M565.58,-153.3C598.56,-142.55 637.57,-129.82 669.2,-119.51"/>
<polygon fill="midnightblue" stroke="midnightblue" points="564.42,-150 556,-156.43 566.6,-156.65 564.42,-150"/>
</g>
<!-- Node13&#45;&gt;Node10 -->
<g id="edge27" class="edge">
<title>Node13&#45;&gt;Node10</title>
<path fill="none" stroke="midnightblue" d="M489.43,-146.62C486.94,-135.5 484.22,-123.34 482.18,-114.23"/>
<polygon fill="midnightblue" stroke="midnightblue" points="486.02,-147.43 491.62,-156.43 492.85,-145.91 486.02,-147.43"/>
</g>
<!-- Node13&#45;&gt;Node14 -->
<g id="edge26" class="edge">
<title>Node13&#45;&gt;Node14</title>
<path fill="none" stroke="midnightblue" d="M602.85,-169.15C723.48,-160.71 925.44,-144.4 1098,-120 1109.85,-118.32 1122.4,-116.22 1134.53,-114.02"/>
<polygon fill="midnightblue" stroke="midnightblue" points="602.25,-165.69 592.51,-169.87 602.73,-172.67 602.25,-165.69"/>
</g>
<!-- Node16&#45;&gt;Node3 -->
<g id="edge32" class="edge">
<title>Node16&#45;&gt;Node3</title>
<path fill="none" stroke="midnightblue" d="M928.74,-386.33C905.01,-375.78 877.4,-363.51 854.89,-353.51"/>
<polygon fill="midnightblue" stroke="midnightblue" points="927.4,-389.57 937.96,-390.43 930.25,-383.17 927.4,-389.57"/>
</g>
<!-- Node16&#45;&gt;Node8 -->
<g id="edge33" class="edge">
<title>Node16&#45;&gt;Node8</title>
<path fill="none" stroke="midnightblue" d="M1088.32,-391.95C1108.22,-383.64 1126.62,-371.56 1139,-354 1181.81,-293.28 1084.64,-229.18 1026.16,-197.74"/>
<polygon fill="midnightblue" stroke="midnightblue" points="1086.86,-388.77 1078.78,-395.62 1089.37,-395.3 1086.86,-388.77"/>
</g>
<!-- Node17 -->
<g id="node17" class="node">
<title>Node17</title>
<g id="a_node17"><a xlink:href="DateTime_8cpp.html" target="_top" xlink:title=" ">
<polygon fill="none" stroke="black" points="926,-318 926,-348 1130,-348 1130,-318 926,-318"/>
<text text-anchor="start" x="934" y="-336" font-family="Helvetica,sans-Serif" font-size="10.00">/home/runner/work/open62541pp</text>
<text text-anchor="middle" x="1028" y="-325" font-family="Helvetica,sans-Serif" font-size="10.00">/open62541pp/src/types/DateTime.cpp</text>
</a>
</g>
</g>
<!-- Node16&#45;&gt;Node17 -->
<g id="edge34" class="edge">
<title>Node16&#45;&gt;Node17</title>
<path fill="none" stroke="midnightblue" d="M999.16,-381.64C1006.06,-370.25 1013.71,-357.62 1019.39,-348.23"/>
<polygon fill="midnightblue" stroke="midnightblue" points="996.03,-380.06 993.85,-390.43 1002.02,-383.69 996.03,-380.06"/>
</g>
</g>
</svg>
