<?xml version="1.0" encoding="UTF-8" standalone="no"?>
<!DOCTYPE svg PUBLIC "-//W3C//DTD SVG 1.1//EN"
 "http://www.w3.org/Graphics/SVG/1.1/DTD/svg11.dtd">
<!-- Generated by graphviz version 2.43.0 (0)
 -->
<!-- Title: /home/runner/work/open62541pp/open62541pp/include/open62541pp/ErrorHandling.h Pages: 1 -->
<svg width="1654pt" height="742pt"
 viewBox="0.00 0.00 1654.00 742.00" xmlns="http://www.w3.org/2000/svg" xmlns:xlink="http://www.w3.org/1999/xlink">
<g id="graph0" class="graph" transform="scale(1 1) rotate(0) translate(4 738)">
<title>/home/runner/work/open62541pp/open62541pp/include/open62541pp/ErrorHandling.h</title>
<!-- Node1 -->
<g id="Node000001" class="node">
<title>Node1</title>
<g id="a_Node000001"><a xlink:title=" ">
<polygon fill="#999999" stroke="#666666" points="636.5,-734 443.5,-734 443.5,-693 636.5,-693 636.5,-734"/>
<text text-anchor="start" x="451.5" y="-722" font-family="Helvetica,sans-Serif" font-size="10.00">/home/runner/work/open62541pp</text>
<text text-anchor="start" x="451.5" y="-711" font-family="Helvetica,sans-Serif" font-size="10.00">/open62541pp/include/open62541pp</text>
<text text-anchor="middle" x="540" y="-700" font-family="Helvetica,sans-Serif" font-size="10.00">/ErrorHandling.h</text>
</a>
</g>
</g>
<!-- Node2 -->
<g id="Node000002" class="node">
<title>Node2</title>
<g id="a_Node000002"><a xlink:href="TypeConverter_8h.html" target="_top" xlink:title=" ">
<polygon fill="white" stroke="#666666" points="1313.5,-503 1120.5,-503 1120.5,-462 1313.5,-462 1313.5,-503"/>
<text text-anchor="start" x="1128.5" y="-491" font-family="Helvetica,sans-Serif" font-size="10.00">/home/runner/work/open62541pp</text>
<text text-anchor="start" x="1128.5" y="-480" font-family="Helvetica,sans-Serif" font-size="10.00">/open62541pp/include/open62541pp</text>
<text text-anchor="middle" x="1217" y="-469" font-family="Helvetica,sans-Serif" font-size="10.00">/TypeConverter.h</text>
</a>
</g>
</g>
<!-- Node1&#45;&gt;Node2 -->
<g id="edge1_Node000001_Node000002" class="edge">
<title>Node1&#45;&gt;Node2</title>
<g id="a_edge1_Node000001_Node000002"><a xlink:title=" ">
<path fill="none" stroke="#63b8ff" d="M646.82,-710.3C834.67,-703.87 1211.75,-678.68 1290,-580 1301.32,-565.72 1298.1,-555.33 1290,-539 1282.57,-524.02 1268.96,-512 1255.48,-503.02"/>
<polygon fill="#63b8ff" stroke="#63b8ff" points="646.52,-706.8 636.64,-710.63 646.75,-713.8 646.52,-706.8"/>
</a>
</g>
</g>
<!-- Node4 -->
<g id="Node000004" class="node">
<title>Node4</title>
<g id="a_Node000004"><a xlink:href="open62541pp_8h.html" target="_top" xlink:title=" ">
<polygon fill="white" stroke="#666666" points="1132.5,-41 939.5,-41 939.5,0 1132.5,0 1132.5,-41"/>
<text text-anchor="start" x="947.5" y="-29" font-family="Helvetica,sans-Serif" font-size="10.00">/home/runner/work/open62541pp</text>
<text text-anchor="start" x="947.5" y="-18" font-family="Helvetica,sans-Serif" font-size="10.00">/open62541pp/include/open62541pp</text>
<text text-anchor="middle" x="1036" y="-7" font-family="Helvetica,sans-Serif" font-size="10.00">/open62541pp.h</text>
</a>
</g>
</g>
<!-- Node1&#45;&gt;Node4 -->
<g id="edge69_Node000001_Node000004" class="edge">
<title>Node1&#45;&gt;Node4</title>
<g id="a_edge69_Node000001_Node000004"><a xlink:title=" ">
<path fill="none" stroke="#63b8ff" d="M433.27,-704.2C275.89,-688.99 0,-649.61 0,-560.5 0,-560.5 0,-560.5 0,-173.5 0,-125.4 8.73,-103.3 49,-77 122.28,-29.14 705.53,-22.31 939.44,-21.52"/>
<polygon fill="#63b8ff" stroke="#63b8ff" points="433.17,-707.71 443.46,-705.17 433.83,-700.74 433.17,-707.71"/>
</a>
</g>
</g>
<!-- Node15 -->
<g id="Node000015" class="node">
<title>Node15</title>
<g id="a_Node000015"><a xlink:href="Variant_8h.html" target="_top" xlink:title=" ">
<polygon fill="white" stroke="#666666" points="247.5,-426 54.5,-426 54.5,-385 247.5,-385 247.5,-426"/>
<text text-anchor="start" x="62.5" y="-414" font-family="Helvetica,sans-Serif" font-size="10.00">/home/runner/work/open62541pp</text>
<text text-anchor="start" x="62.5" y="-403" font-family="Helvetica,sans-Serif" font-size="10.00">/open62541pp/include/open62541pp</text>
<text text-anchor="middle" x="151" y="-392" font-family="Helvetica,sans-Serif" font-size="10.00">/types/Variant.h</text>
</a>
</g>
</g>
<!-- Node1&#45;&gt;Node15 -->
<g id="edge70_Node000001_Node000015" class="edge">
<title>Node1&#45;&gt;Node15</title>
<g id="a_edge70_Node000001_Node000015"><a xlink:title=" ">
<path fill="none" stroke="#63b8ff" d="M446.97,-690.14C379.21,-670.16 288.4,-635.34 224,-580 176.54,-539.21 159.23,-462.36 153.53,-426.22"/>
<polygon fill="#63b8ff" stroke="#63b8ff" points="446.22,-693.56 456.8,-692.98 448.16,-686.84 446.22,-693.56"/>
</a>
</g>
</g>
<!-- Node18 -->
<g id="Node000018" class="node">
<title>Node18</title>
<g id="a_Node000018"><a xlink:href="TypeWrapper_8h.html" target="_top" xlink:title=" ">
<polygon fill="white" stroke="#666666" points="952.5,-657 759.5,-657 759.5,-616 952.5,-616 952.5,-657"/>
<text text-anchor="start" x="767.5" y="-645" font-family="Helvetica,sans-Serif" font-size="10.00">/home/runner/work/open62541pp</text>
<text text-anchor="start" x="767.5" y="-634" font-family="Helvetica,sans-Serif" font-size="10.00">/open62541pp/include/open62541pp</text>
<text text-anchor="middle" x="856" y="-623" font-family="Helvetica,sans-Serif" font-size="10.00">/TypeWrapper.h</text>
</a>
</g>
</g>
<!-- Node1&#45;&gt;Node18 -->
<g id="edge38_Node000001_Node000018" class="edge">
<title>Node1&#45;&gt;Node18</title>
<g id="a_edge38_Node000001_Node000018"><a xlink:title=" ">
<path fill="none" stroke="#63b8ff" d="M632.2,-690.62C676.96,-679.99 730.29,-667.34 773.66,-657.04"/>
<polygon fill="#63b8ff" stroke="#63b8ff" points="631.12,-687.28 622.2,-692.99 632.74,-694.09 631.12,-687.28"/>
</a>
</g>
</g>
<!-- Node3 -->
<g id="Node000003" class="node">
<title>Node3</title>
<g id="a_Node000003"><a xlink:href="Node_8h.html" target="_top" xlink:title=" ">
<polygon fill="white" stroke="#666666" points="519,-195 323,-195 323,-154 519,-154 519,-195"/>
<text text-anchor="start" x="331" y="-183" font-family="Helvetica,sans-Serif" font-size="10.00">/home/runner/work/open62541pp</text>
<text text-anchor="start" x="331" y="-172" font-family="Helvetica,sans-Serif" font-size="10.00">/open62541pp/include/open62541pp/</text>
<text text-anchor="middle" x="421" y="-161" font-family="Helvetica,sans-Serif" font-size="10.00">Node.h</text>
</a>
</g>
</g>
<!-- Node2&#45;&gt;Node3 -->
<g id="edge2_Node000002_Node000003" class="edge">
<title>Node2&#45;&gt;Node3</title>
<g id="a_edge2_Node000002_Node000003"><a xlink:title=" ">
<path fill="none" stroke="#63b8ff" d="M1109.89,-475.93C1014.42,-469.28 871.41,-455.15 750,-426 653.74,-402.89 629.01,-394.32 541,-349 527.49,-342.04 435.58,-285.17 428,-272 414.34,-248.27 415.23,-215.64 417.69,-195.06"/>
<polygon fill="#63b8ff" stroke="#63b8ff" points="1109.92,-479.44 1120.14,-476.63 1110.4,-472.46 1109.92,-479.44"/>
</a>
</g>
</g>
<!-- Node2&#45;&gt;Node4 -->
<g id="edge7_Node000002_Node000004" class="edge">
<title>Node2&#45;&gt;Node4</title>
<g id="a_edge7_Node000002_Node000004"><a xlink:title=" ">
<path fill="none" stroke="#63b8ff" d="M1281.07,-457.86C1300.53,-449.26 1321.41,-438.52 1339,-426 1359.49,-411.41 1357.21,-399.15 1378,-385 1413.28,-361 1433.85,-375.87 1467,-349 1507.17,-316.44 1532,-304.21 1532,-252.5 1532,-252.5 1532,-252.5 1532,-173.5 1532,-157.33 1570.76,-146.23 1410,-77 1321.07,-38.7 1210.46,-26.11 1132.68,-22.32"/>
<polygon fill="#63b8ff" stroke="#63b8ff" points="1279.46,-454.75 1271.65,-461.91 1282.22,-461.18 1279.46,-454.75"/>
</a>
</g>
</g>
<!-- Node5 -->
<g id="Node000005" class="node">
<title>Node5</title>
<g id="a_Node000005"><a xlink:href="TypeConverterNative_8h.html" target="_top" xlink:title=" ">
<polygon fill="white" stroke="#666666" points="1329.5,-426 1136.5,-426 1136.5,-385 1329.5,-385 1329.5,-426"/>
<text text-anchor="start" x="1144.5" y="-414" font-family="Helvetica,sans-Serif" font-size="10.00">/home/runner/work/open62541pp</text>
<text text-anchor="start" x="1144.5" y="-403" font-family="Helvetica,sans-Serif" font-size="10.00">/open62541pp/include/open62541pp</text>
<text text-anchor="middle" x="1233" y="-392" font-family="Helvetica,sans-Serif" font-size="10.00">/TypeConverterNative.h</text>
</a>
</g>
</g>
<!-- Node2&#45;&gt;Node5 -->
<g id="edge4_Node000002_Node000005" class="edge">
<title>Node2&#45;&gt;Node5</title>
<g id="a_edge4_Node000002_Node000005"><a xlink:title=" ">
<path fill="none" stroke="#63b8ff" d="M1216.74,-451.69C1218.28,-443.08 1220.45,-433.9 1222.81,-426.07"/>
<polygon fill="#63b8ff" stroke="#63b8ff" points="1213.24,-451.38 1215.18,-461.79 1220.16,-452.44 1213.24,-451.38"/>
</a>
</g>
</g>
<!-- Node6 -->
<g id="Node000006" class="node">
<title>Node6</title>
<g id="a_Node000006"><a xlink:href="Composed_8h.html" target="_top" xlink:title=" ">
<polygon fill="white" stroke="#666666" points="1101.5,-272 908.5,-272 908.5,-231 1101.5,-231 1101.5,-272"/>
<text text-anchor="start" x="916.5" y="-260" font-family="Helvetica,sans-Serif" font-size="10.00">/home/runner/work/open62541pp</text>
<text text-anchor="start" x="916.5" y="-249" font-family="Helvetica,sans-Serif" font-size="10.00">/open62541pp/include/open62541pp</text>
<text text-anchor="middle" x="1005" y="-238" font-family="Helvetica,sans-Serif" font-size="10.00">/types/Composed.h</text>
</a>
</g>
</g>
<!-- Node2&#45;&gt;Node6 -->
<g id="edge8_Node000002_Node000006" class="edge">
<title>Node2&#45;&gt;Node6</title>
<g id="a_edge8_Node000002_Node000006"><a xlink:title=" ">
<path fill="none" stroke="#63b8ff" d="M1169,-456.82C1154.62,-448.17 1139.4,-437.67 1127,-426 1076.33,-378.29 1033.98,-306.46 1015.28,-272.13"/>
<polygon fill="#63b8ff" stroke="#63b8ff" points="1167.41,-459.94 1177.82,-461.95 1170.94,-453.89 1167.41,-459.94"/>
</a>
</g>
</g>
<!-- Node10 -->
<g id="Node000010" class="node">
<title>Node10</title>
<g id="a_Node000010"><a xlink:href="ExtensionObject_8h.html" target="_top" xlink:title=" ">
<polygon fill="white" stroke="#666666" points="1579.5,-426 1386.5,-426 1386.5,-385 1579.5,-385 1579.5,-426"/>
<text text-anchor="start" x="1394.5" y="-414" font-family="Helvetica,sans-Serif" font-size="10.00">/home/runner/work/open62541pp</text>
<text text-anchor="start" x="1394.5" y="-403" font-family="Helvetica,sans-Serif" font-size="10.00">/open62541pp/include/open62541pp</text>
<text text-anchor="middle" x="1483" y="-392" font-family="Helvetica,sans-Serif" font-size="10.00">/types/ExtensionObject.h</text>
</a>
</g>
</g>
<!-- Node2&#45;&gt;Node10 -->
<g id="edge16_Node000002_Node000010" class="edge">
<title>Node2&#45;&gt;Node10</title>
<g id="a_edge16_Node000002_Node000010"><a xlink:title=" ">
<path fill="none" stroke="#63b8ff" d="M1296.04,-459.21C1333.42,-448.68 1377.64,-436.21 1413.69,-426.04"/>
<polygon fill="#63b8ff" stroke="#63b8ff" points="1294.87,-455.91 1286.19,-461.99 1296.77,-462.65 1294.87,-455.91"/>
</a>
</g>
</g>
<!-- Node2&#45;&gt;Node15 -->
<g id="edge28_Node000002_Node000015" class="edge">
<title>Node2&#45;&gt;Node15</title>
<g id="a_edge28_Node000002_Node000015"><a xlink:title=" ">
<path fill="none" stroke="#63b8ff" d="M1110.04,-473.97C902.2,-459.35 446.77,-427.31 247.54,-413.29"/>
<polygon fill="#63b8ff" stroke="#63b8ff" points="1109.83,-477.47 1120.05,-474.68 1110.32,-470.49 1109.83,-477.47"/>
</a>
</g>
</g>
<!-- Node3&#45;&gt;Node4 -->
<g id="edge3_Node000003_Node000004" class="edge">
<title>Node3&#45;&gt;Node4</title>
<g id="a_edge3_Node000003_Node000004"><a xlink:title=" ">
<path fill="none" stroke="#63b8ff" d="M441.72,-145.69C460.29,-123.04 489.69,-92.39 523,-77 594.82,-43.82 811.73,-30.01 939.34,-24.63"/>
<polygon fill="#63b8ff" stroke="#63b8ff" points="438.88,-143.63 435.38,-153.63 444.35,-148 438.88,-143.63"/>
</a>
</g>
</g>
<!-- Node5&#45;&gt;Node2 -->
<g id="edge5_Node000005_Node000002" class="edge">
<title>Node5&#45;&gt;Node2</title>
<g id="a_edge5_Node000005_Node000002"><a xlink:title=" ">
<path fill="none" stroke="#63b8ff" d="M1233.29,-436.16C1231.75,-444.77 1229.59,-453.96 1227.23,-461.79"/>
<polygon fill="#63b8ff" stroke="#63b8ff" points="1236.78,-436.49 1234.84,-426.07 1229.86,-435.43 1236.78,-436.49"/>
</a>
</g>
</g>
<!-- Node5&#45;&gt;Node4 -->
<g id="edge6_Node000005_Node000004" class="edge">
<title>Node5&#45;&gt;Node4</title>
<g id="a_edge6_Node000005_Node000004"><a xlink:title=" ">
<path fill="none" stroke="#63b8ff" d="M1339.91,-385.83C1411.99,-366.4 1494,-327.75 1494,-252.5 1494,-252.5 1494,-252.5 1494,-173.5 1494,-97.99 1266.94,-53.46 1132.57,-33.72"/>
<polygon fill="#63b8ff" stroke="#63b8ff" points="1338.62,-382.55 1329.82,-388.45 1340.37,-389.33 1338.62,-382.55"/>
</a>
</g>
</g>
<!-- Node6&#45;&gt;Node3 -->
<g id="edge11_Node000006_Node000003" class="edge">
<title>Node6&#45;&gt;Node3</title>
<g id="a_edge11_Node000006_Node000003"><a xlink:title=" ">
<path fill="none" stroke="#63b8ff" d="M898.29,-236.8C790.21,-222.92 624.42,-201.62 519.41,-188.14"/>
<polygon fill="#63b8ff" stroke="#63b8ff" points="897.87,-240.27 908.24,-238.07 898.76,-233.33 897.87,-240.27"/>
</a>
</g>
</g>
<!-- Node6&#45;&gt;Node4 -->
<g id="edge12_Node000006_Node000004" class="edge">
<title>Node6&#45;&gt;Node4</title>
<g id="a_edge12_Node000006_Node000004"><a xlink:title=" ">
<path fill="none" stroke="#63b8ff" d="M1008.99,-221.02C1015.41,-173.61 1027.86,-81.66 1033.32,-41.3"/>
<polygon fill="#63b8ff" stroke="#63b8ff" points="1005.52,-220.6 1007.64,-230.98 1012.45,-221.54 1005.52,-220.6"/>
</a>
</g>
</g>
<!-- Node7 -->
<g id="Node000007" class="node">
<title>Node7</title>
<g id="a_Node000007"><a xlink:href="Client_8h.html" target="_top" xlink:title=" ">
<polygon fill="white" stroke="#666666" points="1257.5,-118 1064.5,-118 1064.5,-77 1257.5,-77 1257.5,-118"/>
<text text-anchor="start" x="1072.5" y="-106" font-family="Helvetica,sans-Serif" font-size="10.00">/home/runner/work/open62541pp</text>
<text text-anchor="start" x="1072.5" y="-95" font-family="Helvetica,sans-Serif" font-size="10.00">/open62541pp/include/open62541pp</text>
<text text-anchor="middle" x="1161" y="-84" font-family="Helvetica,sans-Serif" font-size="10.00">/Client.h</text>
</a>
</g>
</g>
<!-- Node6&#45;&gt;Node7 -->
<g id="edge9_Node000006_Node000007" class="edge">
<title>Node6&#45;&gt;Node7</title>
<g id="a_edge9_Node000006_Node000007"><a xlink:title=" ">
<path fill="none" stroke="#63b8ff" d="M1032.51,-223.7C1063.4,-193.6 1112.82,-145.44 1140.51,-118.47"/>
<polygon fill="#63b8ff" stroke="#63b8ff" points="1029.79,-221.45 1025.07,-230.94 1034.68,-226.47 1029.79,-221.45"/>
</a>
</g>
</g>
<!-- Node8 -->
<g id="Node000008" class="node">
<title>Node8</title>
<g id="a_Node000008"><a xlink:href="View_8h.html" target="_top" xlink:title=" ">
<polygon fill="white" stroke="#666666" points="806.5,-195 613.5,-195 613.5,-154 806.5,-154 806.5,-195"/>
<text text-anchor="start" x="621.5" y="-183" font-family="Helvetica,sans-Serif" font-size="10.00">/home/runner/work/open62541pp</text>
<text text-anchor="start" x="621.5" y="-172" font-family="Helvetica,sans-Serif" font-size="10.00">/open62541pp/include/open62541pp</text>
<text text-anchor="middle" x="710" y="-161" font-family="Helvetica,sans-Serif" font-size="10.00">/services/View.h</text>
</a>
</g>
</g>
<!-- Node6&#45;&gt;Node8 -->
<g id="edge13_Node000006_Node000008" class="edge">
<title>Node6&#45;&gt;Node8</title>
<g id="a_edge13_Node000006_Node000008"><a xlink:title=" ">
<path fill="none" stroke="#63b8ff" d="M918.4,-228.48C876.73,-217.89 827.19,-205.29 786.87,-195.04"/>
<polygon fill="#63b8ff" stroke="#63b8ff" points="917.71,-231.92 928.26,-230.99 919.43,-225.13 917.71,-231.92"/>
</a>
</g>
</g>
<!-- Node7&#45;&gt;Node4 -->
<g id="edge10_Node000007_Node000004" class="edge">
<title>Node7&#45;&gt;Node4</title>
<g id="a_edge10_Node000007_Node000004"><a xlink:title=" ">
<path fill="none" stroke="#63b8ff" d="M1119.57,-71.64C1103.06,-61.74 1084.33,-50.5 1068.79,-41.17"/>
<polygon fill="#63b8ff" stroke="#63b8ff" points="1118.11,-74.85 1128.48,-76.99 1121.71,-68.84 1118.11,-74.85"/>
</a>
</g>
</g>
<!-- Node9 -->
<g id="Node000009" class="node">
<title>Node9</title>
<g id="a_Node000009"><a xlink:href="services_8h.html" target="_top" xlink:title=" ">
<polygon fill="white" stroke="#666666" points="758.5,-118 565.5,-118 565.5,-77 758.5,-77 758.5,-118"/>
<text text-anchor="start" x="573.5" y="-106" font-family="Helvetica,sans-Serif" font-size="10.00">/home/runner/work/open62541pp</text>
<text text-anchor="start" x="573.5" y="-95" font-family="Helvetica,sans-Serif" font-size="10.00">/open62541pp/include/open62541pp</text>
<text text-anchor="middle" x="662" y="-84" font-family="Helvetica,sans-Serif" font-size="10.00">/services/services.h</text>
</a>
</g>
</g>
<!-- Node8&#45;&gt;Node9 -->
<g id="edge14_Node000008_Node000009" class="edge">
<title>Node8&#45;&gt;Node9</title>
<g id="a_edge14_Node000008_Node000009"><a xlink:title=" ">
<path fill="none" stroke="#63b8ff" d="M691.83,-145.11C686.06,-136.09 679.81,-126.33 674.53,-118.07"/>
<polygon fill="#63b8ff" stroke="#63b8ff" points="689.05,-147.26 697.39,-153.79 694.95,-143.49 689.05,-147.26"/>
</a>
</g>
</g>
<!-- Node9&#45;&gt;Node4 -->
<g id="edge15_Node000009_Node000004" class="edge">
<title>Node9&#45;&gt;Node4</title>
<g id="a_edge15_Node000009_Node000004"><a xlink:title=" ">
<path fill="none" stroke="#63b8ff" d="M768.7,-75.1C822.41,-64.33 887.03,-51.37 939.28,-40.9"/>
<polygon fill="#63b8ff" stroke="#63b8ff" points="767.92,-71.69 758.8,-77.09 769.29,-78.55 767.92,-71.69"/>
</a>
</g>
</g>
<!-- Node10&#45;&gt;Node4 -->
<g id="edge17_Node000010_Node000004" class="edge">
<title>Node10&#45;&gt;Node4</title>
<g id="a_edge17_Node000010_Node000004"><a xlink:title=" ">
<path fill="none" stroke="#63b8ff" d="M1520.05,-378.43C1529.73,-370.03 1539.31,-360.01 1546,-349 1568.96,-311.23 1570,-296.7 1570,-252.5 1570,-252.5 1570,-252.5 1570,-173.5 1570,-129.3 1579.29,-106.07 1546,-77 1515.56,-50.42 1271.92,-33.63 1132.7,-26.11"/>
<polygon fill="#63b8ff" stroke="#63b8ff" points="1517.81,-375.75 1512.33,-384.82 1522.27,-381.15 1517.81,-375.75"/>
</a>
</g>
</g>
<!-- Node11 -->
<g id="Node000011" class="node">
<title>Node11</title>
<g id="a_Node000011"><a xlink:href="services_2MonitoredItem_8h.html" target="_top" xlink:title=" ">
<polygon fill="white" stroke="#666666" points="1402.5,-349 1209.5,-349 1209.5,-308 1402.5,-308 1402.5,-349"/>
<text text-anchor="start" x="1217.5" y="-337" font-family="Helvetica,sans-Serif" font-size="10.00">/home/runner/work/open62541pp</text>
<text text-anchor="start" x="1217.5" y="-326" font-family="Helvetica,sans-Serif" font-size="10.00">/open62541pp/include/open62541pp</text>
<text text-anchor="middle" x="1306" y="-315" font-family="Helvetica,sans-Serif" font-size="10.00">/services/MonitoredItem.h</text>
</a>
</g>
</g>
<!-- Node10&#45;&gt;Node11 -->
<g id="edge18_Node000010_Node000011" class="edge">
<title>Node10&#45;&gt;Node11</title>
<g id="a_edge18_Node000010_Node000011"><a xlink:title=" ">
<path fill="none" stroke="#63b8ff" d="M1427.53,-381C1403.29,-370.72 1375.19,-358.82 1352.12,-349.04"/>
<polygon fill="#63b8ff" stroke="#63b8ff" points="1426.38,-384.31 1436.96,-384.99 1429.12,-377.87 1426.38,-384.31"/>
</a>
</g>
</g>
<!-- Node11&#45;&gt;Node9 -->
<g id="edge27_Node000011_Node000009" class="edge">
<title>Node11&#45;&gt;Node9</title>
<g id="a_edge27_Node000011_Node000009"><a xlink:title=" ">
<path fill="none" stroke="#63b8ff" d="M1261.69,-302.98C1222.59,-282 1163.64,-251.96 1110,-231 984.78,-182.07 833.91,-140.95 743.09,-118.05"/>
<polygon fill="#63b8ff" stroke="#63b8ff" points="1260.24,-306.17 1270.7,-307.84 1263.56,-300.01 1260.24,-306.17"/>
</a>
</g>
</g>
<!-- Node12 -->
<g id="Node000012" class="node">
<title>Node12</title>
<g id="a_Node000012"><a xlink:href="MonitoredItem_8h.html" target="_top" xlink:title=" ">
<polygon fill="white" stroke="#666666" points="1465.5,-272 1272.5,-272 1272.5,-231 1465.5,-231 1465.5,-272"/>
<text text-anchor="start" x="1280.5" y="-260" font-family="Helvetica,sans-Serif" font-size="10.00">/home/runner/work/open62541pp</text>
<text text-anchor="start" x="1280.5" y="-249" font-family="Helvetica,sans-Serif" font-size="10.00">/open62541pp/include/open62541pp</text>
<text text-anchor="middle" x="1369" y="-238" font-family="Helvetica,sans-Serif" font-size="10.00">/MonitoredItem.h</text>
</a>
</g>
</g>
<!-- Node11&#45;&gt;Node12 -->
<g id="edge19_Node000011_Node000012" class="edge">
<title>Node11&#45;&gt;Node12</title>
<g id="a_edge19_Node000011_Node000012"><a xlink:title=" ">
<path fill="none" stroke="#63b8ff" d="M1329.14,-299.95C1336.91,-290.7 1345.41,-280.58 1352.56,-272.07"/>
<polygon fill="#63b8ff" stroke="#63b8ff" points="1326.3,-297.89 1322.55,-307.79 1331.66,-302.39 1326.3,-297.89"/>
</a>
</g>
</g>
<!-- Node13 -->
<g id="Node000013" class="node">
<title>Node13</title>
<g id="a_Node000013"><a xlink:href="Subscription_8h.html" target="_top" xlink:title=" ">
<polygon fill="white" stroke="#666666" points="1382.5,-195 1189.5,-195 1189.5,-154 1382.5,-154 1382.5,-195"/>
<text text-anchor="start" x="1197.5" y="-183" font-family="Helvetica,sans-Serif" font-size="10.00">/home/runner/work/open62541pp</text>
<text text-anchor="start" x="1197.5" y="-172" font-family="Helvetica,sans-Serif" font-size="10.00">/open62541pp/include/open62541pp</text>
<text text-anchor="middle" x="1286" y="-161" font-family="Helvetica,sans-Serif" font-size="10.00">/Subscription.h</text>
</a>
</g>
</g>
<!-- Node11&#45;&gt;Node13 -->
<g id="edge26_Node000011_Node000013" class="edge">
<title>Node11&#45;&gt;Node13</title>
<g id="a_edge26_Node000011_Node000013"><a xlink:title=" ">
<path fill="none" stroke="#63b8ff" d="M1279.01,-299.99C1272.5,-291.66 1266.43,-282.03 1263,-272 1254.08,-245.93 1265.3,-214.75 1274.96,-195.03"/>
<polygon fill="#63b8ff" stroke="#63b8ff" points="1276.49,-302.44 1285.59,-307.86 1281.86,-297.95 1276.49,-302.44"/>
</a>
</g>
</g>
<!-- Node12&#45;&gt;Node4 -->
<g id="edge25_Node000012_Node000004" class="edge">
<title>Node12&#45;&gt;Node4</title>
<g id="a_edge25_Node000012_Node000004"><a xlink:title=" ">
<path fill="none" stroke="#63b8ff" d="M1385.84,-221.61C1395.05,-201.79 1402.62,-175.33 1392,-154 1366.68,-103.16 1341.61,-100.72 1290,-77 1240.58,-54.28 1181.41,-40.65 1132.61,-32.59"/>
<polygon fill="#63b8ff" stroke="#63b8ff" points="1382.61,-220.24 1381.26,-230.75 1388.87,-223.38 1382.61,-220.24"/>
</a>
</g>
</g>
<!-- Node12&#45;&gt;Node13 -->
<g id="edge20_Node000012_Node000013" class="edge">
<title>Node12&#45;&gt;Node13</title>
<g id="a_edge20_Node000012_Node000013"><a xlink:title=" ">
<path fill="none" stroke="#63b8ff" d="M1339.75,-224.07C1329.19,-214.52 1317.46,-203.93 1307.66,-195.07"/>
<polygon fill="#63b8ff" stroke="#63b8ff" points="1337.43,-226.69 1347.19,-230.79 1342.12,-221.49 1337.43,-226.69"/>
</a>
</g>
</g>
<!-- Node13&#45;&gt;Node4 -->
<g id="edge24_Node000013_Node000004" class="edge">
<title>Node13&#45;&gt;Node4</title>
<g id="a_edge24_Node000013_Node000004"><a xlink:title=" ">
<path fill="none" stroke="#63b8ff" d="M1287.69,-143.52C1287.2,-122.24 1282.9,-94.46 1266,-77 1247.18,-57.56 1186.81,-43.43 1132.65,-34.29"/>
<polygon fill="#63b8ff" stroke="#63b8ff" points="1284.19,-143.66 1287.65,-153.67 1291.19,-143.69 1284.19,-143.66"/>
</a>
</g>
</g>
<!-- Node13&#45;&gt;Node7 -->
<g id="edge21_Node000013_Node000007" class="edge">
<title>Node13&#45;&gt;Node7</title>
<g id="a_edge21_Node000013_Node000007"><a xlink:title=" ">
<path fill="none" stroke="#63b8ff" d="M1244.57,-148.64C1228.06,-138.74 1209.33,-127.5 1193.79,-118.17"/>
<polygon fill="#63b8ff" stroke="#63b8ff" points="1243.11,-151.85 1253.48,-153.99 1246.71,-145.84 1243.11,-151.85"/>
</a>
</g>
</g>
<!-- Node14 -->
<g id="Node000014" class="node">
<title>Node14</title>
<g id="a_Node000014"><a xlink:href="Server_8h.html" target="_top" xlink:title=" ">
<polygon fill="white" stroke="#666666" points="969.5,-118 776.5,-118 776.5,-77 969.5,-77 969.5,-118"/>
<text text-anchor="start" x="784.5" y="-106" font-family="Helvetica,sans-Serif" font-size="10.00">/home/runner/work/open62541pp</text>
<text text-anchor="start" x="784.5" y="-95" font-family="Helvetica,sans-Serif" font-size="10.00">/open62541pp/include/open62541pp</text>
<text text-anchor="middle" x="873" y="-84" font-family="Helvetica,sans-Serif" font-size="10.00">/Server.h</text>
</a>
</g>
</g>
<!-- Node13&#45;&gt;Node14 -->
<g id="edge22_Node000013_Node000014" class="edge">
<title>Node13&#45;&gt;Node14</title>
<g id="a_edge22_Node000013_Node000014"><a xlink:title=" ">
<path fill="none" stroke="#63b8ff" d="M1179.19,-154.1C1114.46,-142.35 1032.52,-127.47 969.7,-116.06"/>
<polygon fill="#63b8ff" stroke="#63b8ff" points="1178.97,-157.62 1189.43,-155.96 1180.22,-150.73 1178.97,-157.62"/>
</a>
</g>
</g>
<!-- Node14&#45;&gt;Node4 -->
<g id="edge23_Node000014_Node000004" class="edge">
<title>Node14&#45;&gt;Node4</title>
<g id="a_edge23_Node000014_Node000004"><a xlink:title=" ">
<path fill="none" stroke="#63b8ff" d="M924.68,-72.72C946.86,-62.51 972.47,-50.73 993.53,-41.04"/>
<polygon fill="#63b8ff" stroke="#63b8ff" points="923.02,-69.63 915.4,-76.99 925.95,-75.99 923.02,-69.63"/>
</a>
</g>
</g>
<!-- Node15&#45;&gt;Node3 -->
<g id="edge29_Node000015_Node000003" class="edge">
<title>Node15&#45;&gt;Node3</title>
<g id="a_edge29_Node000015_Node000003"><a xlink:title=" ">
<path fill="none" stroke="#63b8ff" d="M136.56,-375.57C120.03,-337.84 99.28,-271.84 133,-231 156.95,-201.99 249.19,-187.98 322.91,-181.32"/>
<polygon fill="#63b8ff" stroke="#63b8ff" points="133.52,-377.33 140.85,-384.97 139.89,-374.42 133.52,-377.33"/>
</a>
</g>
</g>
<!-- Node15&#45;&gt;Node4 -->
<g id="edge30_Node000015_Node000004" class="edge">
<title>Node15&#45;&gt;Node4</title>
<g id="a_edge30_Node000015_Node000004"><a xlink:title=" ">
<path fill="none" stroke="#63b8ff" d="M114.93,-378.34C81.86,-351.04 38,-304.94 38,-252.5 38,-252.5 38,-252.5 38,-173.5 38,-32.59 201.75,-104.22 340,-77 551.11,-35.43 804.07,-24.82 939.35,-22.23"/>
<polygon fill="#63b8ff" stroke="#63b8ff" points="113.08,-381.34 123.07,-384.87 117.46,-375.88 113.08,-381.34"/>
</a>
</g>
</g>
<!-- Node16 -->
<g id="Node000016" class="node">
<title>Node16</title>
<g id="a_Node000016"><a xlink:href="Attribute_8h.html" target="_top" xlink:title=" ">
<polygon fill="white" stroke="#666666" points="335.5,-272 142.5,-272 142.5,-231 335.5,-231 335.5,-272"/>
<text text-anchor="start" x="150.5" y="-260" font-family="Helvetica,sans-Serif" font-size="10.00">/home/runner/work/open62541pp</text>
<text text-anchor="start" x="150.5" y="-249" font-family="Helvetica,sans-Serif" font-size="10.00">/open62541pp/include/open62541pp</text>
<text text-anchor="middle" x="239" y="-238" font-family="Helvetica,sans-Serif" font-size="10.00">/services/Attribute.h</text>
</a>
</g>
</g>
<!-- Node15&#45;&gt;Node16 -->
<g id="edge31_Node000015_Node000016" class="edge">
<title>Node15&#45;&gt;Node16</title>
<g id="a_edge31_Node000015_Node000016"><a xlink:title=" ">
<path fill="none" stroke="#63b8ff" d="M167.41,-376.15C184.88,-345.97 212.09,-298.98 227.44,-272.47"/>
<polygon fill="#63b8ff" stroke="#63b8ff" points="164.31,-374.53 162.32,-384.94 170.36,-378.04 164.31,-374.53"/>
</a>
</g>
</g>
<!-- Node17 -->
<g id="Node000017" class="node">
<title>Node17</title>
<g id="a_Node000017"><a xlink:href="DataValue_8h.html" target="_top" xlink:title=" ">
<polygon fill="white" stroke="#666666" points="460.5,-349 267.5,-349 267.5,-308 460.5,-308 460.5,-349"/>
<text text-anchor="start" x="275.5" y="-337" font-family="Helvetica,sans-Serif" font-size="10.00">/home/runner/work/open62541pp</text>
<text text-anchor="start" x="275.5" y="-326" font-family="Helvetica,sans-Serif" font-size="10.00">/open62541pp/include/open62541pp</text>
<text text-anchor="middle" x="364" y="-315" font-family="Helvetica,sans-Serif" font-size="10.00">/types/DataValue.h</text>
</a>
</g>
</g>
<!-- Node15&#45;&gt;Node17 -->
<g id="edge34_Node000015_Node000017" class="edge">
<title>Node15&#45;&gt;Node17</title>
<g id="a_edge34_Node000015_Node000017"><a xlink:title=" ">
<path fill="none" stroke="#63b8ff" d="M216.21,-381.54C245.72,-371.15 280.25,-358.99 308.5,-349.04"/>
<polygon fill="#63b8ff" stroke="#63b8ff" points="214.68,-378.37 206.41,-384.99 217,-384.97 214.68,-378.37"/>
</a>
</g>
</g>
<!-- Node16&#45;&gt;Node3 -->
<g id="edge32_Node000016_Node000003" class="edge">
<title>Node16&#45;&gt;Node3</title>
<g id="a_edge32_Node000016_Node000003"><a xlink:title=" ">
<path fill="none" stroke="#63b8ff" d="M295.71,-227.13C320.71,-216.83 349.75,-204.86 373.58,-195.04"/>
<polygon fill="#63b8ff" stroke="#63b8ff" points="294.26,-223.94 286.34,-230.99 296.92,-230.42 294.26,-223.94"/>
</a>
</g>
</g>
<!-- Node16&#45;&gt;Node9 -->
<g id="edge33_Node000016_Node000009" class="edge">
<title>Node16&#45;&gt;Node9</title>
<g id="a_edge33_Node000016_Node000009"><a xlink:title=" ">
<path fill="none" stroke="#63b8ff" d="M253.38,-221.95C266.16,-199.69 286.99,-169.97 314,-154 355.4,-129.51 477.25,-114.17 565.09,-105.97"/>
<polygon fill="#63b8ff" stroke="#63b8ff" points="250.17,-220.52 248.4,-230.97 256.3,-223.9 250.17,-220.52"/>
</a>
</g>
</g>
<!-- Node17&#45;&gt;Node3 -->
<g id="edge35_Node000017_Node000003" class="edge">
<title>Node17&#45;&gt;Node3</title>
<g id="a_edge35_Node000017_Node000003"><a xlink:title=" ">
<path fill="none" stroke="#63b8ff" d="M369.08,-297.65C372.95,-278.21 379.14,-252.56 388,-231 393.16,-218.45 400.81,-205.37 407.45,-195.06"/>
<polygon fill="#63b8ff" stroke="#63b8ff" points="365.59,-297.27 367.16,-307.74 372.46,-298.57 365.59,-297.27"/>
</a>
</g>
</g>
<!-- Node17&#45;&gt;Node4 -->
<g id="edge36_Node000017_Node000004" class="edge">
<title>Node17&#45;&gt;Node4</title>
<g id="a_edge36_Node000017_Node000004"><a xlink:title=" ">
<path fill="none" stroke="#63b8ff" d="M257.16,-320.04C182.26,-309.99 100.83,-286.39 133,-231 167.69,-171.27 205.69,-183.82 268,-154 352.42,-113.6 372.99,-98.84 464,-77 627.84,-37.68 824.43,-26.09 939.27,-22.75"/>
<polygon fill="#63b8ff" stroke="#63b8ff" points="256.84,-323.53 267.2,-321.31 257.72,-316.58 256.84,-323.53"/>
</a>
</g>
</g>
<!-- Node17&#45;&gt;Node16 -->
<g id="edge37_Node000017_Node000016" class="edge">
<title>Node17&#45;&gt;Node16</title>
<g id="a_edge37_Node000017_Node000016"><a xlink:title=" ">
<path fill="none" stroke="#63b8ff" d="M322.57,-302.64C306.06,-292.74 287.33,-281.5 271.79,-272.17"/>
<polygon fill="#63b8ff" stroke="#63b8ff" points="321.11,-305.85 331.48,-307.99 324.71,-299.84 321.11,-305.85"/>
</a>
</g>
</g>
<!-- Node18&#45;&gt;Node2 -->
<g id="edge39_Node000018_Node000002" class="edge">
<title>Node18&#45;&gt;Node2</title>
<g id="a_edge39_Node000018_Node000002"><a xlink:title=" ">
<path fill="none" stroke="#63b8ff" d="M917.04,-612.26C941.46,-602.67 969.73,-591.2 995,-580 1032.98,-563.17 1041.04,-555.87 1079,-539 1107.44,-526.36 1139.68,-513.32 1165.84,-503.06"/>
<polygon fill="#63b8ff" stroke="#63b8ff" points="915.58,-609.07 907.54,-615.97 918.13,-615.59 915.58,-609.07"/>
</a>
</g>
</g>
<!-- Node18&#45;&gt;Node4 -->
<g id="edge40_Node000018_Node000004" class="edge">
<title>Node18&#45;&gt;Node4</title>
<g id="a_edge40_Node000018_Node000004"><a xlink:title=" ">
<path fill="none" stroke="#63b8ff" d="M962.95,-625.92C1178.77,-605.15 1646,-552.24 1646,-483.5 1646,-483.5 1646,-483.5 1646,-173.5 1646,-126.18 1639.62,-104.35 1601,-77 1563.72,-50.6 1284.17,-33.33 1132.77,-25.81"/>
<polygon fill="#63b8ff" stroke="#63b8ff" points="962.49,-622.45 952.87,-626.89 963.16,-629.42 962.49,-622.45"/>
</a>
</g>
</g>
<!-- Node18&#45;&gt;Node6 -->
<g id="edge60_Node000018_Node000006" class="edge">
<title>Node18&#45;&gt;Node6</title>
<g id="a_edge60_Node000018_Node000006"><a xlink:title=" ">
<path fill="none" stroke="#63b8ff" d="M896.4,-609.85C932.92,-583.17 981,-537.75 981,-483.5 981,-483.5 981,-483.5 981,-404.5 981,-356.41 992.87,-300.8 999.91,-272.02"/>
<polygon fill="#63b8ff" stroke="#63b8ff" points="894,-607.26 887.87,-615.9 898.05,-612.97 894,-607.26"/>
</a>
</g>
</g>
<!-- Node18&#45;&gt;Node10 -->
<g id="edge66_Node000018_Node000010" class="edge">
<title>Node18&#45;&gt;Node10</title>
<g id="a_edge66_Node000018_Node000010"><a xlink:title=" ">
<path fill="none" stroke="#63b8ff" d="M962.65,-629.15C1071.9,-621.36 1233.5,-605.89 1290,-580 1369.05,-543.77 1438.6,-463.56 1468.05,-426.27"/>
<polygon fill="#63b8ff" stroke="#63b8ff" points="962.3,-625.67 952.57,-629.86 962.79,-632.65 962.3,-625.67"/>
</a>
</g>
</g>
<!-- Node18&#45;&gt;Node15 -->
<g id="edge68_Node000018_Node000015" class="edge">
<title>Node18&#45;&gt;Node15</title>
<g id="a_edge68_Node000018_Node000015"><a xlink:title=" ">
<path fill="none" stroke="#63b8ff" d="M749.11,-630.58C589.32,-622.47 302.51,-604.69 262,-580 231.7,-561.53 181.65,-467.39 160.7,-426.03"/>
<polygon fill="#63b8ff" stroke="#63b8ff" points="749.28,-634.09 759.45,-631.1 749.64,-627.1 749.28,-634.09"/>
</a>
</g>
</g>
<!-- Node18&#45;&gt;Node16 -->
<g id="edge41_Node000018_Node000016" class="edge">
<title>Node18&#45;&gt;Node16</title>
<g id="a_edge41_Node000018_Node000016"><a xlink:title=" ">
<path fill="none" stroke="#63b8ff" d="M749.32,-618.57C706.08,-609.81 656.25,-597.26 613,-580 438.16,-510.24 361.55,-506.2 258,-349 242.69,-325.76 239.17,-292.99 238.64,-272.25"/>
<polygon fill="#63b8ff" stroke="#63b8ff" points="748.81,-622.04 759.3,-620.55 750.17,-615.17 748.81,-622.04"/>
</a>
</g>
</g>
<!-- Node18&#45;&gt;Node17 -->
<g id="edge61_Node000018_Node000017" class="edge">
<title>Node18&#45;&gt;Node17</title>
<g id="a_edge61_Node000018_Node000017"><a xlink:title=" ">
<path fill="none" stroke="#63b8ff" d="M787.05,-612.5C698.82,-580.66 544.47,-516.67 436,-426 409.54,-403.88 387.28,-370.19 374.79,-349.03"/>
<polygon fill="#63b8ff" stroke="#63b8ff" points="786.09,-615.87 796.68,-615.94 788.44,-609.28 786.09,-615.87"/>
</a>
</g>
</g>
<!-- Node19 -->
<g id="Node000019" class="node">
<title>Node19</title>
<g id="a_Node000019"><a xlink:href="Builtin_8h.html" target="_top" xlink:title=" ">
<polygon fill="white" stroke="#666666" points="952.5,-426 759.5,-426 759.5,-385 952.5,-385 952.5,-426"/>
<text text-anchor="start" x="767.5" y="-414" font-family="Helvetica,sans-Serif" font-size="10.00">/home/runner/work/open62541pp</text>
<text text-anchor="start" x="767.5" y="-403" font-family="Helvetica,sans-Serif" font-size="10.00">/open62541pp/include/open62541pp</text>
<text text-anchor="middle" x="856" y="-392" font-family="Helvetica,sans-Serif" font-size="10.00">/types/Builtin.h</text>
</a>
</g>
</g>
<!-- Node18&#45;&gt;Node19 -->
<g id="edge42_Node000018_Node000019" class="edge">
<title>Node18&#45;&gt;Node19</title>
<g id="a_edge42_Node000018_Node000019"><a xlink:title=" ">
<path fill="none" stroke="#63b8ff" d="M856,-605.73C856,-558.23 856,-466.57 856,-426.3"/>
<polygon fill="#63b8ff" stroke="#63b8ff" points="852.5,-605.98 856,-615.98 859.5,-605.98 852.5,-605.98"/>
</a>
</g>
</g>
<!-- Node20 -->
<g id="Node000020" class="node">
<title>Node20</title>
<g id="a_Node000020"><a xlink:href="NodeId_8h.html" target="_top" xlink:title=" ">
<polygon fill="white" stroke="#666666" points="851.5,-349 658.5,-349 658.5,-308 851.5,-308 851.5,-349"/>
<text text-anchor="start" x="666.5" y="-337" font-family="Helvetica,sans-Serif" font-size="10.00">/home/runner/work/open62541pp</text>
<text text-anchor="start" x="666.5" y="-326" font-family="Helvetica,sans-Serif" font-size="10.00">/open62541pp/include/open62541pp</text>
<text text-anchor="middle" x="755" y="-315" font-family="Helvetica,sans-Serif" font-size="10.00">/types/NodeId.h</text>
</a>
</g>
</g>
<!-- Node18&#45;&gt;Node20 -->
<g id="edge67_Node000018_Node000020" class="edge">
<title>Node18&#45;&gt;Node20</title>
<g id="a_edge67_Node000018_Node000020"><a xlink:title=" ">
<path fill="none" stroke="#63b8ff" d="M836.25,-607.29C810.46,-568.55 766.64,-495.74 750,-426 743.77,-399.89 747.28,-368.72 750.79,-349.02"/>
<polygon fill="#63b8ff" stroke="#63b8ff" points="833.58,-609.6 842.08,-615.93 839.39,-605.68 833.58,-609.6"/>
</a>
</g>
</g>
<!-- Node22 -->
<g id="Node000022" class="node">
<title>Node22</title>
<g id="a_Node000022"><a xlink:href="DateTime_8h.html" target="_top" xlink:title=" ">
<polygon fill="white" stroke="#666666" points="1281.5,-580 1088.5,-580 1088.5,-539 1281.5,-539 1281.5,-580"/>
<text text-anchor="start" x="1096.5" y="-568" font-family="Helvetica,sans-Serif" font-size="10.00">/home/runner/work/open62541pp</text>
<text text-anchor="start" x="1096.5" y="-557" font-family="Helvetica,sans-Serif" font-size="10.00">/open62541pp/include/open62541pp</text>
<text text-anchor="middle" x="1185" y="-546" font-family="Helvetica,sans-Serif" font-size="10.00">/types/DateTime.h</text>
</a>
</g>
</g>
<!-- Node18&#45;&gt;Node22 -->
<g id="edge62_Node000018_Node000022" class="edge">
<title>Node18&#45;&gt;Node22</title>
<g id="a_edge62_Node000018_Node000022"><a xlink:title=" ">
<path fill="none" stroke="#63b8ff" d="M951.41,-613.75C998.12,-603.1 1053.93,-590.38 1099.28,-580.04"/>
<polygon fill="#63b8ff" stroke="#63b8ff" points="950.55,-610.36 941.58,-615.99 952.11,-617.18 950.55,-610.36"/>
</a>
</g>
</g>
<!-- Node19&#45;&gt;Node3 -->
<g id="edge44_Node000019_Node000003" class="edge">
<title>Node19&#45;&gt;Node3</title>
<g id="a_edge44_Node000019_Node000003"><a xlink:title=" ">
<path fill="none" stroke="#63b8ff" d="M764.21,-382.29C728.04,-372.92 686.3,-361.32 649,-349 643.47,-347.17 458.02,-276.21 454,-272 433.71,-250.74 425.86,-216.47 422.84,-195.01"/>
<polygon fill="#63b8ff" stroke="#63b8ff" points="763.7,-385.78 774.26,-384.88 765.45,-379 763.7,-385.78"/>
</a>
</g>
</g>
<!-- Node19&#45;&gt;Node4 -->
<g id="edge45_Node000019_Node000004" class="edge">
<title>Node19&#45;&gt;Node4</title>
<g id="a_edge45_Node000019_Node000004"><a xlink:title=" ">
<path fill="none" stroke="#63b8ff" d="M859.96,-374.84C865.45,-339.4 877.24,-278.88 899,-231 924.35,-175.21 944.64,-169.4 978,-118 994.92,-91.93 1013.2,-61.02 1024.62,-41.34"/>
<polygon fill="#63b8ff" stroke="#63b8ff" points="856.46,-374.59 858.46,-385 863.38,-375.62 856.46,-374.59"/>
</a>
</g>
</g>
<!-- Node19&#45;&gt;Node6 -->
<g id="edge47_Node000019_Node000006" class="edge">
<title>Node19&#45;&gt;Node6</title>
<g id="a_edge47_Node000019_Node000006"><a xlink:title=" ">
<path fill="none" stroke="#63b8ff" d="M882.27,-377.7C911.78,-347.6 958.99,-299.44 985.43,-272.47"/>
<polygon fill="#63b8ff" stroke="#63b8ff" points="879.67,-375.35 875.17,-384.94 884.67,-380.25 879.67,-375.35"/>
</a>
</g>
</g>
<!-- Node19&#45;&gt;Node7 -->
<g id="edge43_Node000019_Node000007" class="edge">
<title>Node19&#45;&gt;Node7</title>
<g id="a_edge43_Node000019_Node000007"><a xlink:title=" ">
<path fill="none" stroke="#63b8ff" d="M935.53,-381.55C991.88,-361.38 1065.15,-326.58 1110,-272 1147.78,-226.04 1157.57,-153.05 1160.11,-118.24"/>
<polygon fill="#63b8ff" stroke="#63b8ff" points="934.21,-378.3 925.93,-384.9 936.52,-384.91 934.21,-378.3"/>
</a>
</g>
</g>
<!-- Node19&#45;&gt;Node16 -->
<g id="edge46_Node000019_Node000016" class="edge">
<title>Node19&#45;&gt;Node16</title>
<g id="a_edge46_Node000019_Node000016"><a xlink:title=" ">
<path fill="none" stroke="#63b8ff" d="M749.31,-392.64C689.9,-384.17 615.19,-370.4 551,-349 512.35,-336.11 507.27,-321.98 469,-308 426.17,-292.36 377.24,-279.84 335.56,-270.69"/>
<polygon fill="#63b8ff" stroke="#63b8ff" points="749.07,-396.14 759.46,-394.06 750.04,-389.21 749.07,-396.14"/>
</a>
</g>
</g>
<!-- Node19&#45;&gt;Node20 -->
<g id="edge48_Node000019_Node000020" class="edge">
<title>Node19&#45;&gt;Node20</title>
<g id="a_edge48_Node000019_Node000020"><a xlink:title=" ">
<path fill="none" stroke="#63b8ff" d="M821.41,-378.82C808.35,-369.11 793.7,-358.24 781.49,-349.17"/>
<polygon fill="#63b8ff" stroke="#63b8ff" points="819.61,-381.84 829.73,-384.99 823.79,-376.22 819.61,-381.84"/>
</a>
</g>
</g>
<!-- Node20&#45;&gt;Node3 -->
<g id="edge50_Node000020_Node000003" class="edge">
<title>Node20&#45;&gt;Node3</title>
<g id="a_edge50_Node000020_Node000003"><a xlink:title=" ">
<path fill="none" stroke="#63b8ff" d="M648.38,-321.1C599.3,-314.17 542.09,-300.13 497,-272 466.6,-253.04 443.37,-217.4 430.99,-195.15"/>
<polygon fill="#63b8ff" stroke="#63b8ff" points="648.03,-324.58 658.4,-322.43 648.95,-317.65 648.03,-324.58"/>
</a>
</g>
</g>
<!-- Node20&#45;&gt;Node4 -->
<g id="edge53_Node000020_Node000004" class="edge">
<title>Node20&#45;&gt;Node4</title>
<g id="a_edge53_Node000020_Node000004"><a xlink:title=" ">
<path fill="none" stroke="#63b8ff" d="M747.22,-297.87C740.21,-276.58 727.89,-248.64 708,-231 671.4,-198.55 642.24,-225.5 604,-195 559.74,-159.69 518.33,-119.27 556,-77 581.03,-48.91 806.64,-32.94 939.46,-25.89"/>
<polygon fill="#63b8ff" stroke="#63b8ff" points="743.96,-299.18 750.24,-307.71 750.65,-297.13 743.96,-299.18"/>
</a>
</g>
</g>
<!-- Node20&#45;&gt;Node6 -->
<g id="edge59_Node000020_Node000006" class="edge">
<title>Node20&#45;&gt;Node6</title>
<g id="a_edge59_Node000020_Node000006"><a xlink:title=" ">
<path fill="none" stroke="#63b8ff" d="M829.73,-305.08C864.77,-294.57 906.12,-282.16 939.86,-272.04"/>
<polygon fill="#63b8ff" stroke="#63b8ff" points="828.6,-301.76 820.03,-307.99 830.62,-308.47 828.6,-301.76"/>
</a>
</g>
</g>
<!-- Node20&#45;&gt;Node7 -->
<g id="edge49_Node000020_Node000007" class="edge">
<title>Node20&#45;&gt;Node7</title>
<g id="a_edge49_Node000020_Node000007"><a xlink:title=" ">
<path fill="none" stroke="#63b8ff" d="M790.43,-301.99C819.11,-281.77 860.86,-253.31 899,-231 974.23,-186.99 1065.86,-142.65 1118.41,-118.07"/>
<polygon fill="#63b8ff" stroke="#63b8ff" points="788.1,-299.34 781.97,-307.98 792.15,-305.06 788.1,-299.34"/>
</a>
</g>
</g>
<!-- Node20&#45;&gt;Node8 -->
<g id="edge58_Node000020_Node000008" class="edge">
<title>Node20&#45;&gt;Node8</title>
<g id="a_edge58_Node000020_Node000008"><a xlink:title=" ">
<path fill="none" stroke="#63b8ff" d="M753.97,-297.68C752.57,-278.26 749.36,-252.6 742,-231 737.69,-218.37 730.39,-205.38 723.85,-195.15"/>
<polygon fill="#63b8ff" stroke="#63b8ff" points="750.48,-297.99 754.57,-307.77 757.47,-297.58 750.48,-297.99"/>
</a>
</g>
</g>
<!-- Node20&#45;&gt;Node13 -->
<g id="edge52_Node000020_Node000013" class="edge">
<title>Node20&#45;&gt;Node13</title>
<g id="a_edge52_Node000020_Node000013"><a xlink:title=" ">
<path fill="none" stroke="#63b8ff" d="M861.66,-320.51C933.38,-313.48 1029.21,-299.52 1110,-272 1165.42,-253.12 1223.9,-217.46 1257.55,-195.18"/>
<polygon fill="#63b8ff" stroke="#63b8ff" points="861.33,-317.02 851.7,-321.45 861.99,-323.99 861.33,-317.02"/>
</a>
</g>
</g>
<!-- Node20&#45;&gt;Node14 -->
<g id="edge51_Node000020_Node000014" class="edge">
<title>Node20&#45;&gt;Node14</title>
<g id="a_edge51_Node000020_Node000014"><a xlink:title=" ">
<path fill="none" stroke="#63b8ff" d="M769.73,-298.92C794.02,-251.78 841.87,-158.91 862.8,-118.3"/>
<polygon fill="#63b8ff" stroke="#63b8ff" points="766.53,-297.48 765.06,-307.98 772.75,-300.69 766.53,-297.48"/>
</a>
</g>
</g>
<!-- Node20&#45;&gt;Node16 -->
<g id="edge54_Node000020_Node000016" class="edge">
<title>Node20&#45;&gt;Node16</title>
<g id="a_edge54_Node000020_Node000016"><a xlink:title=" ">
<path fill="none" stroke="#63b8ff" d="M648.08,-311.96C556.11,-298.59 424.61,-279.48 335.74,-266.56"/>
<polygon fill="#63b8ff" stroke="#63b8ff" points="647.85,-315.46 658.25,-313.44 648.85,-308.54 647.85,-315.46"/>
</a>
</g>
</g>
<!-- Node21 -->
<g id="Node000021" class="node">
<title>Node21</title>
<g id="a_Node000021"><a xlink:href="NodeManagement_8h.html" target="_top" xlink:title=" ">
<polygon fill="white" stroke="#666666" points="699.5,-272 506.5,-272 506.5,-231 699.5,-231 699.5,-272"/>
<text text-anchor="start" x="514.5" y="-260" font-family="Helvetica,sans-Serif" font-size="10.00">/home/runner/work/open62541pp</text>
<text text-anchor="start" x="514.5" y="-249" font-family="Helvetica,sans-Serif" font-size="10.00">/open62541pp/include/open62541pp</text>
<text text-anchor="middle" x="603" y="-238" font-family="Helvetica,sans-Serif" font-size="10.00">/services/NodeManagement.h</text>
</a>
</g>
</g>
<!-- Node20&#45;&gt;Node21 -->
<g id="edge55_Node000020_Node000021" class="edge">
<title>Node20&#45;&gt;Node21</title>
<g id="a_edge55_Node000020_Node000021"><a xlink:title=" ">
<path fill="none" stroke="#63b8ff" d="M706.26,-303.45C685.69,-293.3 662.07,-281.64 642.61,-272.04"/>
<polygon fill="#63b8ff" stroke="#63b8ff" points="704.94,-306.7 715.46,-307.99 708.04,-300.43 704.94,-306.7"/>
</a>
</g>
</g>
<!-- Node21&#45;&gt;Node3 -->
<g id="edge56_Node000021_Node000003" class="edge">
<title>Node21&#45;&gt;Node3</title>
<g id="a_edge56_Node000021_Node000003"><a xlink:title=" ">
<path fill="none" stroke="#63b8ff" d="M546.29,-227.13C521.29,-216.83 492.25,-204.86 468.42,-195.04"/>
<polygon fill="#63b8ff" stroke="#63b8ff" points="545.08,-230.42 555.66,-230.99 547.74,-223.94 545.08,-230.42"/>
</a>
</g>
</g>
<!-- Node21&#45;&gt;Node9 -->
<g id="edge57_Node000021_Node000009" class="edge">
<title>Node21&#45;&gt;Node9</title>
<g id="a_edge57_Node000021_Node000009"><a xlink:title=" ">
<path fill="none" stroke="#63b8ff" d="M597.5,-220.75C595.23,-201.02 594.91,-174.98 604,-154 610.15,-139.81 621.87,-127.49 633.18,-118.08"/>
<polygon fill="#63b8ff" stroke="#63b8ff" points="594.05,-221.29 598.88,-230.72 600.98,-220.34 594.05,-221.29"/>
</a>
</g>
</g>
<!-- Node22&#45;&gt;Node2 -->
<g id="edge63_Node000022_Node000002" class="edge">
<title>Node22&#45;&gt;Node2</title>
<g id="a_edge63_Node000022_Node000002"><a xlink:title=" ">
<path fill="none" stroke="#63b8ff" d="M1197.35,-529.55C1201.13,-520.69 1205.2,-511.15 1208.65,-503.07"/>
<polygon fill="#63b8ff" stroke="#63b8ff" points="1194.11,-528.22 1193.41,-538.79 1200.55,-530.97 1194.11,-528.22"/>
</a>
</g>
</g>
<!-- Node22&#45;&gt;Node4 -->
<g id="edge64_Node000022_Node000004" class="edge">
<title>Node22&#45;&gt;Node4</title>
<g id="a_edge64_Node000022_Node000004"><a xlink:title=" ">
<path fill="none" stroke="#63b8ff" d="M1291.78,-552.55C1384.06,-541.5 1514.06,-510.74 1589,-426 1617.96,-393.26 1608,-373.21 1608,-329.5 1608,-329.5 1608,-329.5 1608,-173.5 1608,-127.72 1608.21,-105.01 1572,-77 1538.08,-50.76 1277.73,-33.63 1132.75,-26.03"/>
<polygon fill="#63b8ff" stroke="#63b8ff" points="1291.1,-549.11 1281.56,-553.71 1291.89,-556.06 1291.1,-549.11"/>
</a>
</g>
</g>
<!-- Node22&#45;&gt;Node17 -->
<g id="edge65_Node000022_Node000017" class="edge">
<title>Node22&#45;&gt;Node17</title>
<g id="a_edge65_Node000022_Node000017"><a xlink:title=" ">
<path fill="none" stroke="#63b8ff" d="M1078.26,-550.02C942.64,-536.45 703.33,-503.06 513,-426 465.15,-406.63 416.13,-371.29 387.95,-349.18"/>
<polygon fill="#63b8ff" stroke="#63b8ff" points="1077.95,-553.5 1088.25,-551 1078.64,-546.54 1077.95,-553.5"/>
</a>
</g>
</g>
</g>
</svg>
