<?xml version="1.0" encoding="UTF-8" standalone="no"?>
<!DOCTYPE svg PUBLIC "-//W3C//DTD SVG 1.1//EN"
 "http://www.w3.org/Graphics/SVG/1.1/DTD/svg11.dtd">
<!-- Generated by graphviz version 2.43.0 (0)
 -->
<!-- Title: /home/runner/work/open62541pp/open62541pp/include/open62541pp/ErrorHandling.h Pages: 1 -->
<svg width="2068pt" height="752pt"
 viewBox="0.00 0.00 2068.00 752.00" xmlns="http://www.w3.org/2000/svg" xmlns:xlink="http://www.w3.org/1999/xlink">
<g id="graph0" class="graph" transform="scale(1 1) rotate(0) translate(4 748)">
<title>/home/runner/work/open62541pp/open62541pp/include/open62541pp/ErrorHandling.h</title>
<!-- Node1 -->
<g id="node1" class="node">
<title>Node1</title>
<g id="a_node1"><a xlink:title=" ">
<polygon fill="#bfbfbf" stroke="black" points="1351.5,-702.5 1351.5,-743.5 1544.5,-743.5 1544.5,-702.5 1351.5,-702.5"/>
<text text-anchor="start" x="1359.5" y="-731.5" font-family="Helvetica,sans-Serif" font-size="10.00">/home/runner/work/open62541pp</text>
<text text-anchor="start" x="1359.5" y="-720.5" font-family="Helvetica,sans-Serif" font-size="10.00">/open62541pp/include/open62541pp</text>
<text text-anchor="middle" x="1448" y="-709.5" font-family="Helvetica,sans-Serif" font-size="10.00">/ErrorHandling.h</text>
</a>
</g>
</g>
<!-- Node2 -->
<g id="node2" class="node">
<title>Node2</title>
<g id="a_node2"><a xlink:href="open62541pp_8h.html" target="_top" xlink:title=" ">
<polygon fill="none" stroke="black" points="393.5,-0.5 393.5,-41.5 586.5,-41.5 586.5,-0.5 393.5,-0.5"/>
<text text-anchor="start" x="401.5" y="-29.5" font-family="Helvetica,sans-Serif" font-size="10.00">/home/runner/work/open62541pp</text>
<text text-anchor="start" x="401.5" y="-18.5" font-family="Helvetica,sans-Serif" font-size="10.00">/open62541pp/include/open62541pp</text>
<text text-anchor="middle" x="490" y="-7.5" font-family="Helvetica,sans-Serif" font-size="10.00">/open62541pp.h</text>
</a>
</g>
</g>
<!-- Node1&#45;&gt;Node2 -->
<g id="edge1" class="edge">
<title>Node1&#45;&gt;Node2</title>
<path fill="none" stroke="midnightblue" d="M1341.02,-722.07C1083.63,-721.45 435.56,-714.92 225,-666 118.76,-641.32 0,-677.07 0,-568 0,-568 0,-568 0,-176 0,-127.88 7.08,-106.3 46,-78 99.73,-38.93 279.78,-27.07 393.43,-23.5"/>
<polygon fill="midnightblue" stroke="midnightblue" points="1341.11,-725.57 1351.12,-722.1 1341.13,-718.57 1341.11,-725.57"/>
</g>
<!-- Node3 -->
<g id="node3" class="node">
<title>Node3</title>
<g id="a_node3"><a xlink:href="TypeConverter_8h.html" target="_top" xlink:title=" ">
<polygon fill="none" stroke="black" points="66.5,-468.5 66.5,-509.5 259.5,-509.5 259.5,-468.5 66.5,-468.5"/>
<text text-anchor="start" x="74.5" y="-497.5" font-family="Helvetica,sans-Serif" font-size="10.00">/home/runner/work/open62541pp</text>
<text text-anchor="start" x="74.5" y="-486.5" font-family="Helvetica,sans-Serif" font-size="10.00">/open62541pp/include/open62541pp</text>
<text text-anchor="middle" x="163" y="-475.5" font-family="Helvetica,sans-Serif" font-size="10.00">/TypeConverter.h</text>
</a>
</g>
</g>
<!-- Node1&#45;&gt;Node3 -->
<g id="edge2" class="edge">
<title>Node1&#45;&gt;Node3</title>
<path fill="none" stroke="midnightblue" d="M1340.95,-722.48C1068.65,-722.93 364.72,-718.9 274,-666 213.46,-630.7 180.93,-547.83 168.73,-509.76"/>
<polygon fill="midnightblue" stroke="midnightblue" points="1341.24,-725.98 1351.23,-722.47 1341.23,-718.98 1341.24,-725.98"/>
</g>
<!-- Node5 -->
<g id="node5" class="node">
<title>Node5</title>
<g id="a_node5"><a xlink:href="Server_8cpp.html" target="_top" xlink:title=" ">
<polygon fill="none" stroke="black" points="1835,-6 1835,-36 2013,-36 2013,-6 1835,-6"/>
<text text-anchor="start" x="1843" y="-24" font-family="Helvetica,sans-Serif" font-size="10.00">/home/runner/work/open62541pp</text>
<text text-anchor="middle" x="1924" y="-13" font-family="Helvetica,sans-Serif" font-size="10.00">/open62541pp/src/Server.cpp</text>
</a>
</g>
</g>
<!-- Node1&#45;&gt;Node5 -->
<g id="edge57" class="edge">
<title>Node1&#45;&gt;Node5</title>
<path fill="none" stroke="midnightblue" d="M1554.78,-715.62C1673.76,-707.42 1857.96,-691.16 1923,-666 1992.82,-638.99 2060,-642.86 2060,-568 2060,-568 2060,-568 2060,-176 2060,-126.69 2041.08,-114.57 2008,-78 1992.24,-60.58 1969.97,-46.06 1952.31,-36.17"/>
<polygon fill="midnightblue" stroke="midnightblue" points="1554.29,-712.14 1544.55,-716.31 1554.76,-719.13 1554.29,-712.14"/>
</g>
<!-- Node6 -->
<g id="node6" class="node">
<title>Node6</title>
<g id="a_node6"><a xlink:href="Variant_8h.html" target="_top" xlink:title=" ">
<polygon fill="none" stroke="black" points="191.5,-390.5 191.5,-431.5 384.5,-431.5 384.5,-390.5 191.5,-390.5"/>
<text text-anchor="start" x="199.5" y="-419.5" font-family="Helvetica,sans-Serif" font-size="10.00">/home/runner/work/open62541pp</text>
<text text-anchor="start" x="199.5" y="-408.5" font-family="Helvetica,sans-Serif" font-size="10.00">/open62541pp/include/open62541pp</text>
<text text-anchor="middle" x="288" y="-397.5" font-family="Helvetica,sans-Serif" font-size="10.00">/types/Variant.h</text>
</a>
</g>
</g>
<!-- Node1&#45;&gt;Node6 -->
<g id="edge20" class="edge">
<title>Node1&#45;&gt;Node6</title>
<path fill="none" stroke="midnightblue" d="M1341.11,-722.9C1122.09,-723.61 629.61,-719.03 471,-666 375.59,-634.1 343.09,-603.9 307,-510 296.99,-483.95 292.06,-451.91 289.77,-431.71"/>
<polygon fill="midnightblue" stroke="midnightblue" points="1341.34,-726.4 1351.33,-722.87 1341.32,-719.4 1341.34,-726.4"/>
</g>
<!-- Node9 -->
<g id="node9" class="node">
<title>Node9</title>
<g id="a_node9"><a xlink:href="Attribute_8cpp.html" target="_top" xlink:title=" ">
<polygon fill="none" stroke="black" points="1348,-156.5 1348,-197.5 1526,-197.5 1526,-156.5 1348,-156.5"/>
<text text-anchor="start" x="1356" y="-185.5" font-family="Helvetica,sans-Serif" font-size="10.00">/home/runner/work/open62541pp</text>
<text text-anchor="start" x="1356" y="-174.5" font-family="Helvetica,sans-Serif" font-size="10.00">/open62541pp/src/services</text>
<text text-anchor="middle" x="1437" y="-163.5" font-family="Helvetica,sans-Serif" font-size="10.00">/Attribute.cpp</text>
</a>
</g>
</g>
<!-- Node1&#45;&gt;Node9 -->
<g id="edge58" class="edge">
<title>Node1&#45;&gt;Node9</title>
<path fill="none" stroke="midnightblue" d="M1554.97,-710.7C1701.32,-692.23 1946,-649.2 1946,-568 1946,-568 1946,-568 1946,-332 1946,-287.63 1959.57,-264.12 1927,-234 1875.11,-186.01 1681.22,-206.04 1611,-198 1583.51,-194.85 1553.58,-191.42 1526.41,-188.29"/>
<polygon fill="midnightblue" stroke="midnightblue" points="1554.1,-707.29 1544.61,-711.99 1554.97,-714.23 1554.1,-707.29"/>
</g>
<!-- Node13 -->
<g id="node13" class="node">
<title>Node13</title>
<g id="a_node13"><a xlink:href="TypeWrapper_8h.html" target="_top" xlink:title=" ">
<polygon fill="none" stroke="black" points="479.5,-624.5 479.5,-665.5 672.5,-665.5 672.5,-624.5 479.5,-624.5"/>
<text text-anchor="start" x="487.5" y="-653.5" font-family="Helvetica,sans-Serif" font-size="10.00">/home/runner/work/open62541pp</text>
<text text-anchor="start" x="487.5" y="-642.5" font-family="Helvetica,sans-Serif" font-size="10.00">/open62541pp/include/open62541pp</text>
<text text-anchor="middle" x="576" y="-631.5" font-family="Helvetica,sans-Serif" font-size="10.00">/TypeWrapper.h</text>
</a>
</g>
</g>
<!-- Node1&#45;&gt;Node13 -->
<g id="edge21" class="edge">
<title>Node1&#45;&gt;Node13</title>
<path fill="none" stroke="midnightblue" d="M1341.32,-712.7C1170.29,-697.8 837.27,-668.77 672.75,-654.43"/>
<polygon fill="midnightblue" stroke="midnightblue" points="1341.08,-716.19 1351.35,-713.58 1341.69,-709.22 1341.08,-716.19"/>
</g>
<!-- Node16 -->
<g id="node16" class="node">
<title>Node16</title>
<g id="a_node16"><a xlink:href="Browse_8cpp.html" target="_top" xlink:title=" ">
<polygon fill="none" stroke="black" points="1152,-156.5 1152,-197.5 1330,-197.5 1330,-156.5 1152,-156.5"/>
<text text-anchor="start" x="1160" y="-185.5" font-family="Helvetica,sans-Serif" font-size="10.00">/home/runner/work/open62541pp</text>
<text text-anchor="start" x="1160" y="-174.5" font-family="Helvetica,sans-Serif" font-size="10.00">/open62541pp/src/services</text>
<text text-anchor="middle" x="1241" y="-163.5" font-family="Helvetica,sans-Serif" font-size="10.00">/Browse.cpp</text>
</a>
</g>
</g>
<!-- Node1&#45;&gt;Node16 -->
<g id="edge59" class="edge">
<title>Node1&#45;&gt;Node16</title>
<path fill="none" stroke="midnightblue" d="M1448,-691.91C1448,-660.87 1448,-611.05 1448,-568 1448,-568 1448,-568 1448,-332 1448,-287.63 1458.8,-266.87 1429,-234 1421.18,-225.37 1368.07,-209.98 1320.29,-197.52"/>
<polygon fill="midnightblue" stroke="midnightblue" points="1444.5,-692.06 1448,-702.07 1451.5,-692.07 1444.5,-692.06"/>
</g>
<!-- Node19 -->
<g id="node19" class="node">
<title>Node19</title>
<g id="a_node19"><a xlink:href="NodeManagement_8cpp.html" target="_top" xlink:title=" ">
<polygon fill="none" stroke="black" points="1620,-156.5 1620,-197.5 1798,-197.5 1798,-156.5 1620,-156.5"/>
<text text-anchor="start" x="1628" y="-185.5" font-family="Helvetica,sans-Serif" font-size="10.00">/home/runner/work/open62541pp</text>
<text text-anchor="start" x="1628" y="-174.5" font-family="Helvetica,sans-Serif" font-size="10.00">/open62541pp/src/services</text>
<text text-anchor="middle" x="1709" y="-163.5" font-family="Helvetica,sans-Serif" font-size="10.00">/NodeManagement.cpp</text>
</a>
</g>
</g>
<!-- Node1&#45;&gt;Node19 -->
<g id="edge60" class="edge">
<title>Node1&#45;&gt;Node19</title>
<path fill="none" stroke="midnightblue" d="M1554.68,-713.92C1658,-704.95 1806.64,-688.68 1860,-666 1924.65,-638.52 1984,-638.24 1984,-568 1984,-568 1984,-568 1984,-332 1984,-286.04 1985.04,-264.88 1951,-234 1928.52,-213.61 1857.61,-198.71 1798.31,-189.43"/>
<polygon fill="midnightblue" stroke="midnightblue" points="1554.18,-710.45 1544.52,-714.79 1554.78,-717.43 1554.18,-710.45"/>
</g>
<!-- Node21 -->
<g id="node21" class="node">
<title>Node21</title>
<g id="a_node21"><a xlink:href="NodeId_8cpp.html" target="_top" xlink:title=" ">
<polygon fill="none" stroke="black" points="1726.5,-240 1726.5,-270 1917.5,-270 1917.5,-240 1726.5,-240"/>
<text text-anchor="start" x="1734.5" y="-258" font-family="Helvetica,sans-Serif" font-size="10.00">/home/runner/work/open62541pp</text>
<text text-anchor="middle" x="1822" y="-247" font-family="Helvetica,sans-Serif" font-size="10.00">/open62541pp/src/types/NodeId.cpp</text>
</a>
</g>
</g>
<!-- Node1&#45;&gt;Node21 -->
<g id="edge61" class="edge">
<title>Node1&#45;&gt;Node21</title>
<path fill="none" stroke="midnightblue" d="M1525.37,-698.85C1583.81,-676.02 1654,-634.73 1654,-568 1654,-568 1654,-568 1654,-410 1654,-338.98 1736.6,-291.84 1785.96,-270.01"/>
<polygon fill="midnightblue" stroke="midnightblue" points="1523.85,-695.68 1515.74,-702.49 1526.33,-702.23 1523.85,-695.68"/>
</g>
<!-- Node3&#45;&gt;Node2 -->
<g id="edge6" class="edge">
<title>Node3&#45;&gt;Node2</title>
<path fill="none" stroke="midnightblue" d="M135.89,-460.48C110.36,-431.53 76,-383.4 76,-334 76,-334 76,-334 76,-176 76,-116.86 114.09,-106.33 166,-78 204.33,-57.08 312.58,-41.16 393.47,-31.74"/>
<polygon fill="midnightblue" stroke="midnightblue" points="133.51,-463.06 142.82,-468.12 138.69,-458.36 133.51,-463.06"/>
</g>
<!-- Node4 -->
<g id="node4" class="node">
<title>Node4</title>
<g id="a_node4"><a xlink:href="Node_8h.html" target="_top" xlink:title=" ">
<polygon fill="none" stroke="black" points="836,-78.5 836,-119.5 1032,-119.5 1032,-78.5 836,-78.5"/>
<text text-anchor="start" x="844" y="-107.5" font-family="Helvetica,sans-Serif" font-size="10.00">/home/runner/work/open62541pp</text>
<text text-anchor="start" x="844" y="-96.5" font-family="Helvetica,sans-Serif" font-size="10.00">/open62541pp/include/open62541pp/</text>
<text text-anchor="middle" x="934" y="-85.5" font-family="Helvetica,sans-Serif" font-size="10.00">Node.h</text>
</a>
</g>
</g>
<!-- Node3&#45;&gt;Node4 -->
<g id="edge3" class="edge">
<title>Node3&#45;&gt;Node4</title>
<path fill="none" stroke="midnightblue" d="M147.9,-459.07C133.51,-428.75 114,-379.32 114,-334 114,-334 114,-334 114,-254 114,-176.95 184.41,-181.82 257,-156 360.97,-119.03 674.66,-106.19 835.93,-101.95"/>
<polygon fill="midnightblue" stroke="midnightblue" points="144.83,-460.76 152.37,-468.21 151.13,-457.69 144.83,-460.76"/>
</g>
<!-- Node3&#45;&gt;Node6 -->
<g id="edge7" class="edge">
<title>Node3&#45;&gt;Node6</title>
<path fill="none" stroke="midnightblue" d="M203.78,-463.2C220.7,-452.92 240.04,-441.16 255.92,-431.51"/>
<polygon fill="midnightblue" stroke="midnightblue" points="201.92,-460.24 195.19,-468.43 205.55,-466.22 201.92,-460.24"/>
</g>
<!-- Node4&#45;&gt;Node2 -->
<g id="edge4" class="edge">
<title>Node4&#45;&gt;Node2</title>
<path fill="none" stroke="midnightblue" d="M825.88,-78.68C824.58,-78.45 823.29,-78.22 822,-78 742.81,-64.25 652.91,-49.12 586.65,-38.05"/>
<polygon fill="midnightblue" stroke="midnightblue" points="825.52,-82.17 835.97,-80.44 826.73,-75.27 825.52,-82.17"/>
</g>
<!-- Node4&#45;&gt;Node5 -->
<g id="edge5" class="edge">
<title>Node4&#45;&gt;Node5</title>
<path fill="none" stroke="midnightblue" d="M1042.16,-89.7C1239.11,-74.58 1652.67,-42.83 1834.73,-28.85"/>
<polygon fill="midnightblue" stroke="midnightblue" points="1041.79,-86.21 1032.09,-90.47 1042.33,-93.19 1041.79,-86.21"/>
</g>
<!-- Node6&#45;&gt;Node2 -->
<g id="edge9" class="edge">
<title>Node6&#45;&gt;Node2</title>
<path fill="none" stroke="midnightblue" d="M241.03,-385.09C227.64,-376.48 213.78,-365.95 203,-354 170.11,-317.54 152,-305.1 152,-256 152,-256 152,-256 152,-176 152,-69.28 293.26,-36.18 393.14,-26.12"/>
<polygon fill="midnightblue" stroke="midnightblue" points="239.38,-388.19 249.73,-390.47 243.07,-382.23 239.38,-388.19"/>
</g>
<!-- Node6&#45;&gt;Node4 -->
<g id="edge8" class="edge">
<title>Node6&#45;&gt;Node4</title>
<path fill="none" stroke="midnightblue" d="M259.09,-382.89C223.43,-346.17 171.83,-279.95 209,-234 286.38,-138.34 656.41,-110.78 835.91,-102.99"/>
<polygon fill="midnightblue" stroke="midnightblue" points="256.88,-385.63 266.42,-390.26 261.85,-380.7 256.88,-385.63"/>
</g>
<!-- Node7 -->
<g id="node7" class="node">
<title>Node7</title>
<g id="a_node7"><a xlink:href="Attribute_8h.html" target="_top" xlink:title=" ">
<polygon fill="none" stroke="black" points="518.5,-234.5 518.5,-275.5 711.5,-275.5 711.5,-234.5 518.5,-234.5"/>
<text text-anchor="start" x="526.5" y="-263.5" font-family="Helvetica,sans-Serif" font-size="10.00">/home/runner/work/open62541pp</text>
<text text-anchor="start" x="526.5" y="-252.5" font-family="Helvetica,sans-Serif" font-size="10.00">/open62541pp/include/open62541pp</text>
<text text-anchor="middle" x="615" y="-241.5" font-family="Helvetica,sans-Serif" font-size="10.00">/services/Attribute.h</text>
</a>
</g>
</g>
<!-- Node6&#45;&gt;Node7 -->
<g id="edge10" class="edge">
<title>Node6&#45;&gt;Node7</title>
<path fill="none" stroke="midnightblue" d="M285.88,-380.36C286.02,-358.47 290.09,-329.54 308,-312 323.12,-297.19 434.15,-279.6 518.38,-268.14"/>
<polygon fill="midnightblue" stroke="midnightblue" points="282.38,-380.53 286.08,-390.46 289.38,-380.39 282.38,-380.53"/>
</g>
<!-- Node10 -->
<g id="node10" class="node">
<title>Node10</title>
<g id="a_node10"><a xlink:href="DataValue_8h.html" target="_top" xlink:title=" ">
<polygon fill="none" stroke="black" points="316.5,-312.5 316.5,-353.5 509.5,-353.5 509.5,-312.5 316.5,-312.5"/>
<text text-anchor="start" x="324.5" y="-341.5" font-family="Helvetica,sans-Serif" font-size="10.00">/home/runner/work/open62541pp</text>
<text text-anchor="start" x="324.5" y="-330.5" font-family="Helvetica,sans-Serif" font-size="10.00">/open62541pp/include/open62541pp</text>
<text text-anchor="middle" x="413" y="-319.5" font-family="Helvetica,sans-Serif" font-size="10.00">/types/DataValue.h</text>
</a>
</g>
</g>
<!-- Node6&#45;&gt;Node10 -->
<g id="edge15" class="edge">
<title>Node6&#45;&gt;Node10</title>
<path fill="none" stroke="midnightblue" d="M328.78,-385.2C345.7,-374.92 365.04,-363.16 380.92,-353.51"/>
<polygon fill="midnightblue" stroke="midnightblue" points="326.92,-382.24 320.19,-390.43 330.55,-388.22 326.92,-382.24"/>
</g>
<!-- Node12 -->
<g id="node12" class="node">
<title>Node12</title>
<g id="a_node12"><a xlink:href="Variant_8cpp.html" target="_top" xlink:title=" ">
<polygon fill="none" stroke="black" points="729.5,-240 729.5,-270 920.5,-270 920.5,-240 729.5,-240"/>
<text text-anchor="start" x="737.5" y="-258" font-family="Helvetica,sans-Serif" font-size="10.00">/home/runner/work/open62541pp</text>
<text text-anchor="middle" x="825" y="-247" font-family="Helvetica,sans-Serif" font-size="10.00">/open62541pp/src/types/Variant.cpp</text>
</a>
</g>
</g>
<!-- Node6&#45;&gt;Node12 -->
<g id="edge19" class="edge">
<title>Node6&#45;&gt;Node12</title>
<path fill="none" stroke="midnightblue" d="M384.87,-388.16C426.36,-378.38 475.23,-366.3 519,-354 614.86,-327.07 725.81,-290.05 784.2,-270.1"/>
<polygon fill="midnightblue" stroke="midnightblue" points="383.98,-384.77 375.04,-390.46 385.58,-391.59 383.98,-384.77"/>
</g>
<!-- Node8 -->
<g id="node8" class="node">
<title>Node8</title>
<g id="a_node8"><a xlink:href="services_8h.html" target="_top" xlink:title=" ">
<polygon fill="none" stroke="black" points="940.5,-156.5 940.5,-197.5 1133.5,-197.5 1133.5,-156.5 940.5,-156.5"/>
<text text-anchor="start" x="948.5" y="-185.5" font-family="Helvetica,sans-Serif" font-size="10.00">/home/runner/work/open62541pp</text>
<text text-anchor="start" x="948.5" y="-174.5" font-family="Helvetica,sans-Serif" font-size="10.00">/open62541pp/include/open62541pp</text>
<text text-anchor="middle" x="1037" y="-163.5" font-family="Helvetica,sans-Serif" font-size="10.00">/services/services.h</text>
</a>
</g>
</g>
<!-- Node7&#45;&gt;Node8 -->
<g id="edge11" class="edge">
<title>Node7&#45;&gt;Node8</title>
<path fill="none" stroke="midnightblue" d="M721.95,-233.84C801.38,-219.34 880.46,-205.35 940.49,-194.82"/>
<polygon fill="midnightblue" stroke="midnightblue" points="720.96,-230.46 711.75,-235.7 722.22,-237.34 720.96,-230.46"/>
</g>
<!-- Node7&#45;&gt;Node9 -->
<g id="edge14" class="edge">
<title>Node7&#45;&gt;Node9</title>
<path fill="none" stroke="midnightblue" d="M721.93,-233.98C995.87,-201.22 1069.51,-233.16 1339,-198 1341.93,-197.62 1344.9,-197.2 1347.89,-196.75"/>
<polygon fill="midnightblue" stroke="midnightblue" points="721.19,-230.55 711.68,-235.23 722.03,-237.5 721.19,-230.55"/>
</g>
<!-- Node8&#45;&gt;Node2 -->
<g id="edge13" class="edge">
<title>Node8&#45;&gt;Node2</title>
<path fill="none" stroke="midnightblue" d="M1048.05,-146.66C1054.11,-124.99 1057.46,-96.22 1041,-78 1011.19,-45 736.71,-30.45 586.76,-24.92"/>
<polygon fill="midnightblue" stroke="midnightblue" points="1044.66,-145.76 1045.03,-156.35 1051.34,-147.85 1044.66,-145.76"/>
</g>
<!-- Node8&#45;&gt;Node4 -->
<g id="edge12" class="edge">
<title>Node8&#45;&gt;Node4</title>
<path fill="none" stroke="midnightblue" d="M1002.24,-150.35C988.58,-140.27 973.16,-128.89 960.44,-119.51"/>
<polygon fill="midnightblue" stroke="midnightblue" points="1000.35,-153.31 1010.47,-156.43 1004.51,-147.67 1000.35,-153.31"/>
</g>
<!-- Node10&#45;&gt;Node4 -->
<g id="edge16" class="edge">
<title>Node10&#45;&gt;Node4</title>
<path fill="none" stroke="midnightblue" d="M434.05,-304.29C452.04,-282.37 479.75,-252.48 510,-234 612.12,-171.63 746.01,-135.66 835.77,-116.99"/>
<polygon fill="midnightblue" stroke="midnightblue" points="431.18,-302.27 427.65,-312.26 436.64,-306.65 431.18,-302.27"/>
</g>
<!-- Node10&#45;&gt;Node7 -->
<g id="edge17" class="edge">
<title>Node10&#45;&gt;Node7</title>
<path fill="none" stroke="midnightblue" d="M474.43,-308.89C502.79,-298.22 536.09,-285.69 563.16,-275.51"/>
<polygon fill="midnightblue" stroke="midnightblue" points="473.15,-305.63 465.02,-312.43 475.61,-312.18 473.15,-305.63"/>
</g>
<!-- Node11 -->
<g id="node11" class="node">
<title>Node11</title>
<g id="a_node11"><a xlink:href="DataValue_8cpp.html" target="_top" xlink:title=" ">
<polygon fill="none" stroke="black" points="218,-240 218,-270 424,-270 424,-240 218,-240"/>
<text text-anchor="start" x="226" y="-258" font-family="Helvetica,sans-Serif" font-size="10.00">/home/runner/work/open62541pp</text>
<text text-anchor="middle" x="321" y="-247" font-family="Helvetica,sans-Serif" font-size="10.00">/open62541pp/src/types/DataValue.cpp</text>
</a>
</g>
</g>
<!-- Node10&#45;&gt;Node11 -->
<g id="edge18" class="edge">
<title>Node10&#45;&gt;Node11</title>
<path fill="none" stroke="midnightblue" d="M381.52,-305.99C367.02,-294.02 350.38,-280.27 338.22,-270.23"/>
<polygon fill="midnightblue" stroke="midnightblue" points="379.37,-308.76 389.31,-312.43 383.83,-303.36 379.37,-308.76"/>
</g>
<!-- Node13&#45;&gt;Node2 -->
<g id="edge22" class="edge">
<title>Node13&#45;&gt;Node2</title>
<path fill="none" stroke="midnightblue" d="M469.21,-630.98C333.43,-612.06 110.3,-572.29 58,-510 29.42,-475.96 38,-456.45 38,-412 38,-412 38,-412 38,-176 38,-126.05 51.77,-106.19 93,-78 140.4,-45.59 291.62,-31.69 393.14,-25.91"/>
<polygon fill="midnightblue" stroke="midnightblue" points="468.85,-634.46 479.24,-632.36 469.81,-627.53 468.85,-634.46"/>
</g>
<!-- Node13&#45;&gt;Node3 -->
<g id="edge23" class="edge">
<title>Node13&#45;&gt;Node3</title>
<path fill="none" stroke="midnightblue" d="M469.2,-623.08C430.99,-614.15 387.99,-602.42 350,-588 292.94,-566.34 231,-531.4 194.67,-509.62"/>
<polygon fill="midnightblue" stroke="midnightblue" points="468.8,-626.58 479.33,-625.41 470.37,-619.75 468.8,-626.58"/>
</g>
<!-- Node13&#45;&gt;Node6 -->
<g id="edge56" class="edge">
<title>Node13&#45;&gt;Node6</title>
<path fill="none" stroke="midnightblue" d="M469.82,-623.96C444.56,-615.72 418.9,-604.17 398,-588 343.28,-545.67 308.77,-467.83 294.93,-431.56"/>
<polygon fill="midnightblue" stroke="midnightblue" points="468.88,-627.33 479.47,-626.95 470.95,-620.65 468.88,-627.33"/>
</g>
<!-- Node13&#45;&gt;Node10 -->
<g id="edge50" class="edge">
<title>Node13&#45;&gt;Node10</title>
<path fill="none" stroke="midnightblue" d="M596.42,-615.99C601.56,-607.42 606.36,-597.7 609,-588 623.03,-536.55 624.23,-519.11 609,-468 597.17,-428.3 590.2,-416.05 558,-390 538.17,-373.96 513.23,-362.13 489.64,-353.59"/>
<polygon fill="midnightblue" stroke="midnightblue" points="593.46,-614.13 591.03,-624.44 599.36,-617.89 593.46,-614.13"/>
</g>
<!-- Node14 -->
<g id="node14" class="node">
<title>Node14</title>
<g id="a_node14"><a xlink:href="Builtin_8h.html" target="_top" xlink:title=" ">
<polygon fill="none" stroke="black" points="697.5,-390.5 697.5,-431.5 890.5,-431.5 890.5,-390.5 697.5,-390.5"/>
<text text-anchor="start" x="705.5" y="-419.5" font-family="Helvetica,sans-Serif" font-size="10.00">/home/runner/work/open62541pp</text>
<text text-anchor="start" x="705.5" y="-408.5" font-family="Helvetica,sans-Serif" font-size="10.00">/open62541pp/include/open62541pp</text>
<text text-anchor="middle" x="794" y="-397.5" font-family="Helvetica,sans-Serif" font-size="10.00">/types/Builtin.h</text>
</a>
</g>
</g>
<!-- Node13&#45;&gt;Node14 -->
<g id="edge24" class="edge">
<title>Node13&#45;&gt;Node14</title>
<path fill="none" stroke="midnightblue" d="M621.42,-619.07C635.52,-610.23 650.61,-599.58 663,-588 715.6,-538.85 761.94,-466.34 782.59,-431.76"/>
<polygon fill="midnightblue" stroke="midnightblue" points="619.51,-616.13 612.8,-624.33 623.16,-622.11 619.51,-616.13"/>
</g>
<!-- Node17 -->
<g id="node17" class="node">
<title>Node17</title>
<g id="a_node17"><a xlink:href="NodeId_8h.html" target="_top" xlink:title=" ">
<polygon fill="none" stroke="black" points="996.5,-312.5 996.5,-353.5 1189.5,-353.5 1189.5,-312.5 996.5,-312.5"/>
<text text-anchor="start" x="1004.5" y="-341.5" font-family="Helvetica,sans-Serif" font-size="10.00">/home/runner/work/open62541pp</text>
<text text-anchor="start" x="1004.5" y="-330.5" font-family="Helvetica,sans-Serif" font-size="10.00">/open62541pp/include/open62541pp</text>
<text text-anchor="middle" x="1093" y="-319.5" font-family="Helvetica,sans-Serif" font-size="10.00">/types/NodeId.h</text>
</a>
</g>
</g>
<!-- Node13&#45;&gt;Node17 -->
<g id="edge55" class="edge">
<title>Node13&#45;&gt;Node17</title>
<path fill="none" stroke="midnightblue" d="M631,-620.18C651.68,-610.75 675.21,-599.43 696,-588 839.39,-509.13 1001.04,-398.46 1064.9,-353.82"/>
<polygon fill="midnightblue" stroke="midnightblue" points="629.39,-617.07 621.72,-624.38 632.28,-623.45 629.39,-617.07"/>
</g>
<!-- Node23 -->
<g id="node23" class="node">
<title>Node23</title>
<g id="a_node23"><a xlink:href="DateTime_8h.html" target="_top" xlink:title=" ">
<polygon fill="none" stroke="black" points="406.5,-546.5 406.5,-587.5 599.5,-587.5 599.5,-546.5 406.5,-546.5"/>
<text text-anchor="start" x="414.5" y="-575.5" font-family="Helvetica,sans-Serif" font-size="10.00">/home/runner/work/open62541pp</text>
<text text-anchor="start" x="414.5" y="-564.5" font-family="Helvetica,sans-Serif" font-size="10.00">/open62541pp/include/open62541pp</text>
<text text-anchor="middle" x="503" y="-553.5" font-family="Helvetica,sans-Serif" font-size="10.00">/types/DateTime.h</text>
</a>
</g>
</g>
<!-- Node13&#45;&gt;Node23 -->
<g id="edge51" class="edge">
<title>Node13&#45;&gt;Node23</title>
<path fill="none" stroke="midnightblue" d="M550.26,-617.2C540.86,-607.42 530.41,-596.54 521.74,-587.51"/>
<polygon fill="midnightblue" stroke="midnightblue" points="547.75,-619.64 557.2,-624.43 552.8,-614.79 547.75,-619.64"/>
</g>
<!-- Node14&#45;&gt;Node2 -->
<g id="edge26" class="edge">
<title>Node14&#45;&gt;Node2</title>
<path fill="none" stroke="midnightblue" d="M687.61,-389.3C624.38,-370.95 549.12,-337.16 510,-276 462.1,-201.1 477.09,-87.23 485.74,-41.76"/>
<polygon fill="midnightblue" stroke="midnightblue" points="686.67,-392.67 697.24,-392 688.56,-385.93 686.67,-392.67"/>
</g>
<!-- Node14&#45;&gt;Node4 -->
<g id="edge25" class="edge">
<title>Node14&#45;&gt;Node4</title>
<path fill="none" stroke="midnightblue" d="M892.89,-385.8C907.51,-377.99 920.75,-367.66 930,-354 931.54,-351.72 931.94,-158.75 932,-156 932.28,-143.94 932.75,-130.42 933.17,-119.69"/>
<polygon fill="midnightblue" stroke="midnightblue" points="891.06,-382.8 883.62,-390.35 894.14,-389.08 891.06,-382.8"/>
</g>
<!-- Node14&#45;&gt;Node5 -->
<g id="edge48" class="edge">
<title>Node14&#45;&gt;Node5</title>
<path fill="none" stroke="midnightblue" d="M901.03,-407.74C1199.96,-400 2022,-368.51 2022,-256 2022,-256 2022,-256 2022,-176 2022,-116.42 1969.15,-61.3 1941.07,-36.21"/>
<polygon fill="midnightblue" stroke="midnightblue" points="900.52,-404.25 890.62,-408 900.7,-411.25 900.52,-404.25"/>
</g>
<!-- Node14&#45;&gt;Node7 -->
<g id="edge27" class="edge">
<title>Node14&#45;&gt;Node7</title>
<path fill="none" stroke="midnightblue" d="M739.57,-385.78C723.05,-377.06 705.46,-366.29 691,-354 663.93,-330.99 640.19,-296.93 626.72,-275.62"/>
<polygon fill="midnightblue" stroke="midnightblue" points="738.11,-388.97 748.61,-390.41 741.31,-382.74 738.11,-388.97"/>
</g>
<!-- Node15 -->
<g id="node15" class="node">
<title>Node15</title>
<g id="a_node15"><a xlink:href="Browse_8h.html" target="_top" xlink:title=" ">
<polygon fill="none" stroke="black" points="1015.5,-234.5 1015.5,-275.5 1208.5,-275.5 1208.5,-234.5 1015.5,-234.5"/>
<text text-anchor="start" x="1023.5" y="-263.5" font-family="Helvetica,sans-Serif" font-size="10.00">/home/runner/work/open62541pp</text>
<text text-anchor="start" x="1023.5" y="-252.5" font-family="Helvetica,sans-Serif" font-size="10.00">/open62541pp/include/open62541pp</text>
<text text-anchor="middle" x="1112" y="-241.5" font-family="Helvetica,sans-Serif" font-size="10.00">/services/Browse.h</text>
</a>
</g>
</g>
<!-- Node14&#45;&gt;Node15 -->
<g id="edge28" class="edge">
<title>Node14&#45;&gt;Node15</title>
<path fill="none" stroke="midnightblue" d="M749.49,-384.21C739.24,-375.97 729.69,-365.84 724,-354 715.91,-337.18 711.78,-326.11 724,-312 733.52,-301 903.44,-279.71 1015.23,-266.78"/>
<polygon fill="midnightblue" stroke="midnightblue" points="747.69,-387.24 757.8,-390.42 751.88,-381.63 747.69,-387.24"/>
</g>
<!-- Node14&#45;&gt;Node17 -->
<g id="edge31" class="edge">
<title>Node14&#45;&gt;Node17</title>
<path fill="none" stroke="midnightblue" d="M880.85,-387.92C923.68,-377.04 974.89,-364.02 1016.26,-353.51"/>
<polygon fill="midnightblue" stroke="midnightblue" points="879.83,-384.57 871,-390.43 881.55,-391.36 879.83,-384.57"/>
</g>
<!-- Node22 -->
<g id="node22" class="node">
<title>Node22</title>
<g id="a_node22"><a xlink:href="Builtin_8cpp.html" target="_top" xlink:title=" ">
<polygon fill="none" stroke="black" points="733,-318 733,-348 921,-348 921,-318 733,-318"/>
<text text-anchor="start" x="741" y="-336" font-family="Helvetica,sans-Serif" font-size="10.00">/home/runner/work/open62541pp</text>
<text text-anchor="middle" x="827" y="-325" font-family="Helvetica,sans-Serif" font-size="10.00">/open62541pp/src/types/Builtin.cpp</text>
</a>
</g>
</g>
<!-- Node14&#45;&gt;Node22 -->
<g id="edge49" class="edge">
<title>Node14&#45;&gt;Node22</title>
<path fill="none" stroke="midnightblue" d="M806.61,-380.96C811.48,-369.75 816.83,-357.43 820.82,-348.23"/>
<polygon fill="midnightblue" stroke="midnightblue" points="803.27,-379.86 802.5,-390.43 809.69,-382.65 803.27,-379.86"/>
</g>
<!-- Node15&#45;&gt;Node8 -->
<g id="edge29" class="edge">
<title>Node15&#45;&gt;Node8</title>
<path fill="none" stroke="midnightblue" d="M1085.56,-227.2C1075.9,-217.42 1065.16,-206.54 1056.25,-197.51"/>
<polygon fill="midnightblue" stroke="midnightblue" points="1083.17,-229.77 1092.69,-234.43 1088.15,-224.85 1083.17,-229.77"/>
</g>
<!-- Node15&#45;&gt;Node16 -->
<g id="edge30" class="edge">
<title>Node15&#45;&gt;Node16</title>
<path fill="none" stroke="midnightblue" d="M1154.09,-229.2C1171.55,-218.92 1191.51,-207.16 1207.89,-197.51"/>
<polygon fill="midnightblue" stroke="midnightblue" points="1152.06,-226.34 1145.22,-234.43 1155.61,-232.37 1152.06,-226.34"/>
</g>
<!-- Node17&#45;&gt;Node2 -->
<g id="edge33" class="edge">
<title>Node17&#45;&gt;Node2</title>
<path fill="none" stroke="midnightblue" d="M1053.46,-306.82C1020.81,-286.38 973.02,-257.23 930,-234 788.06,-157.35 614.08,-77.54 534.07,-41.6"/>
<polygon fill="midnightblue" stroke="midnightblue" points="1051.92,-309.99 1062.25,-312.35 1055.64,-304.06 1051.92,-309.99"/>
</g>
<!-- Node17&#45;&gt;Node4 -->
<g id="edge32" class="edge">
<title>Node17&#45;&gt;Node4</title>
<path fill="none" stroke="midnightblue" d="M1199.79,-330.8C1345.37,-327.65 1597.35,-316.34 1679,-276 1701.84,-264.72 1697.02,-248.45 1718,-234 1753.13,-209.79 1783.15,-233.38 1807,-198 1817.44,-182.52 1819.77,-169.62 1807,-156 1780.83,-128.1 1255,-109.43 1032.29,-102.74"/>
<polygon fill="midnightblue" stroke="midnightblue" points="1199.43,-327.31 1189.5,-331.02 1199.57,-334.31 1199.43,-327.31"/>
</g>
<!-- Node17&#45;&gt;Node7 -->
<g id="edge41" class="edge">
<title>Node17&#45;&gt;Node7</title>
<path fill="none" stroke="midnightblue" d="M986.18,-316.99C911.73,-306.27 810.17,-291.12 721,-276 717.95,-275.48 714.86,-274.95 711.74,-274.41"/>
<polygon fill="midnightblue" stroke="midnightblue" points="986.1,-320.52 996.5,-318.47 987.1,-313.59 986.1,-320.52"/>
</g>
<!-- Node17&#45;&gt;Node12 -->
<g id="edge47" class="edge">
<title>Node17&#45;&gt;Node12</title>
<path fill="none" stroke="midnightblue" d="M1014.23,-309.66C969.11,-296.87 913.86,-281.2 874.74,-270.11"/>
<polygon fill="midnightblue" stroke="midnightblue" points="1013.41,-313.07 1023.98,-312.43 1015.32,-306.33 1013.41,-313.07"/>
</g>
<!-- Node17&#45;&gt;Node15 -->
<g id="edge42" class="edge">
<title>Node17&#45;&gt;Node15</title>
<path fill="none" stroke="midnightblue" d="M1100.35,-302.59C1102.62,-293.51 1105.06,-283.74 1107.12,-275.51"/>
<polygon fill="midnightblue" stroke="midnightblue" points="1096.92,-301.88 1097.89,-312.43 1103.71,-303.58 1096.92,-301.88"/>
</g>
<!-- Node18 -->
<g id="node18" class="node">
<title>Node18</title>
<g id="a_node18"><a xlink:href="Server_8h.html" target="_top" xlink:title=" ">
<polygon fill="none" stroke="black" points="1476.5,-234.5 1476.5,-275.5 1669.5,-275.5 1669.5,-234.5 1476.5,-234.5"/>
<text text-anchor="start" x="1484.5" y="-263.5" font-family="Helvetica,sans-Serif" font-size="10.00">/home/runner/work/open62541pp</text>
<text text-anchor="start" x="1484.5" y="-252.5" font-family="Helvetica,sans-Serif" font-size="10.00">/open62541pp/include/open62541pp</text>
<text text-anchor="middle" x="1573" y="-241.5" font-family="Helvetica,sans-Serif" font-size="10.00">/Server.h</text>
</a>
</g>
</g>
<!-- Node17&#45;&gt;Node18 -->
<g id="edge34" class="edge">
<title>Node17&#45;&gt;Node18</title>
<path fill="none" stroke="midnightblue" d="M1199.49,-315.14C1282.23,-302.04 1396.01,-284.02 1476.19,-271.33"/>
<polygon fill="midnightblue" stroke="midnightblue" points="1198.89,-311.69 1189.56,-316.71 1199.98,-318.6 1198.89,-311.69"/>
</g>
<!-- Node20 -->
<g id="node20" class="node">
<title>Node20</title>
<g id="a_node20"><a xlink:href="NodeManagement_8h.html" target="_top" xlink:title=" ">
<polygon fill="none" stroke="black" points="1226.5,-234.5 1226.5,-275.5 1419.5,-275.5 1419.5,-234.5 1226.5,-234.5"/>
<text text-anchor="start" x="1234.5" y="-263.5" font-family="Helvetica,sans-Serif" font-size="10.00">/home/runner/work/open62541pp</text>
<text text-anchor="start" x="1234.5" y="-252.5" font-family="Helvetica,sans-Serif" font-size="10.00">/open62541pp/include/open62541pp</text>
<text text-anchor="middle" x="1323" y="-241.5" font-family="Helvetica,sans-Serif" font-size="10.00">/services/NodeManagement.h</text>
</a>
</g>
</g>
<!-- Node17&#45;&gt;Node20 -->
<g id="edge43" class="edge">
<title>Node17&#45;&gt;Node20</title>
<path fill="none" stroke="midnightblue" d="M1162.11,-309.17C1194.57,-298.44 1232.88,-285.78 1263.97,-275.51"/>
<polygon fill="midnightblue" stroke="midnightblue" points="1160.63,-305.97 1152.23,-312.43 1162.82,-312.61 1160.63,-305.97"/>
</g>
<!-- Node17&#45;&gt;Node21 -->
<g id="edge46" class="edge">
<title>Node17&#45;&gt;Node21</title>
<path fill="none" stroke="midnightblue" d="M1199.75,-325.26C1323.38,-316.78 1532.99,-300.32 1712,-276 1724.41,-274.31 1737.54,-272.21 1750.26,-270"/>
<polygon fill="midnightblue" stroke="midnightblue" points="1199.27,-321.79 1189.53,-325.96 1199.75,-328.77 1199.27,-321.79"/>
</g>
<!-- Node18&#45;&gt;Node2 -->
<g id="edge36" class="edge">
<title>Node18&#45;&gt;Node2</title>
<path fill="none" stroke="midnightblue" d="M1578.34,-224.14C1580.4,-202.39 1579,-173.74 1562,-156 1494.97,-86.05 837.78,-41.72 586.77,-27.22"/>
<polygon fill="midnightblue" stroke="midnightblue" points="1574.85,-223.84 1577.11,-234.19 1581.8,-224.69 1574.85,-223.84"/>
</g>
<!-- Node18&#45;&gt;Node4 -->
<g id="edge35" class="edge">
<title>Node18&#45;&gt;Node4</title>
<path fill="none" stroke="midnightblue" d="M1569.75,-224.11C1565.62,-201.63 1556.24,-172.05 1535,-156 1495.86,-126.43 1192.43,-110.16 1032.28,-103.55"/>
<polygon fill="midnightblue" stroke="midnightblue" points="1566.32,-224.85 1571.34,-234.18 1573.23,-223.75 1566.32,-224.85"/>
</g>
<!-- Node18&#45;&gt;Node5 -->
<g id="edge37" class="edge">
<title>Node18&#45;&gt;Node5</title>
<path fill="none" stroke="midnightblue" d="M1679.42,-236.34C1730.82,-226.28 1785.88,-212.74 1807,-198 1868.07,-155.36 1905.86,-69.68 1918.88,-36.02"/>
<polygon fill="midnightblue" stroke="midnightblue" points="1678.69,-232.92 1669.53,-238.25 1680.01,-239.79 1678.69,-232.92"/>
</g>
<!-- Node18&#45;&gt;Node9 -->
<g id="edge38" class="edge">
<title>Node18&#45;&gt;Node9</title>
<path fill="none" stroke="midnightblue" d="M1529.13,-229.49C1510.61,-219.13 1489.34,-207.25 1471.9,-197.51"/>
<polygon fill="midnightblue" stroke="midnightblue" points="1527.54,-232.61 1537.98,-234.43 1530.95,-226.49 1527.54,-232.61"/>
</g>
<!-- Node18&#45;&gt;Node16 -->
<g id="edge39" class="edge">
<title>Node18&#45;&gt;Node16</title>
<path fill="none" stroke="midnightblue" d="M1477.47,-232.13C1429.73,-221.2 1372.44,-208.09 1326.21,-197.51"/>
<polygon fill="midnightblue" stroke="midnightblue" points="1476.97,-235.61 1487.5,-234.43 1478.53,-228.78 1476.97,-235.61"/>
</g>
<!-- Node18&#45;&gt;Node19 -->
<g id="edge40" class="edge">
<title>Node18&#45;&gt;Node19</title>
<path fill="none" stroke="midnightblue" d="M1616.87,-229.49C1635.39,-219.13 1656.66,-207.25 1674.1,-197.51"/>
<polygon fill="midnightblue" stroke="midnightblue" points="1615.05,-226.49 1608.02,-234.43 1618.46,-232.61 1615.05,-226.49"/>
</g>
<!-- Node20&#45;&gt;Node8 -->
<g id="edge44" class="edge">
<title>Node20&#45;&gt;Node8</title>
<path fill="none" stroke="midnightblue" d="M1239.67,-231.86C1198.75,-220.98 1149.89,-208 1110.4,-197.51"/>
<polygon fill="midnightblue" stroke="midnightblue" points="1238.78,-235.24 1249.35,-234.43 1240.58,-228.48 1238.78,-235.24"/>
</g>
<!-- Node20&#45;&gt;Node19 -->
<g id="edge45" class="edge">
<title>Node20&#45;&gt;Node19</title>
<path fill="none" stroke="midnightblue" d="M1429.76,-232.98C1489.58,-221.2 1563.32,-206.68 1619.99,-195.52"/>
<polygon fill="midnightblue" stroke="midnightblue" points="1429.04,-229.55 1419.91,-234.92 1430.39,-236.42 1429.04,-229.55"/>
</g>
<!-- Node23&#45;&gt;Node3 -->
<g id="edge52" class="edge">
<title>Node23&#45;&gt;Node3</title>
<path fill="none" stroke="midnightblue" d="M405.47,-544.2C356.52,-533.26 297.71,-520.11 250.26,-509.51"/>
<polygon fill="midnightblue" stroke="midnightblue" points="404.92,-547.66 415.44,-546.43 406.45,-540.83 404.92,-547.66"/>
</g>
<!-- Node23&#45;&gt;Node10 -->
<g id="edge53" class="edge">
<title>Node23&#45;&gt;Node10</title>
<path fill="none" stroke="midnightblue" d="M561.15,-541.25C573.48,-533.16 584.9,-522.85 592,-510 601.02,-493.66 600.36,-484.69 592,-468 564.46,-412.98 502.4,-374.72 459.13,-353.56"/>
<polygon fill="midnightblue" stroke="midnightblue" points="559.23,-538.31 552.51,-546.5 562.87,-544.3 559.23,-538.31"/>
</g>
<!-- Node24 -->
<g id="node24" class="node">
<title>Node24</title>
<g id="a_node24"><a xlink:href="DateTime_8cpp.html" target="_top" xlink:title=" ">
<polygon fill="none" stroke="black" points="379,-474 379,-504 583,-504 583,-474 379,-474"/>
<text text-anchor="start" x="387" y="-492" font-family="Helvetica,sans-Serif" font-size="10.00">/home/runner/work/open62541pp</text>
<text text-anchor="middle" x="481" y="-481" font-family="Helvetica,sans-Serif" font-size="10.00">/open62541pp/src/types/DateTime.cpp</text>
</a>
</g>
</g>
<!-- Node23&#45;&gt;Node24 -->
<g id="edge54" class="edge">
<title>Node23&#45;&gt;Node24</title>
<path fill="none" stroke="midnightblue" d="M494.5,-536.62C491.28,-525.5 487.76,-513.34 485.12,-504.23"/>
<polygon fill="midnightblue" stroke="midnightblue" points="491.19,-537.8 497.33,-546.43 497.92,-535.85 491.19,-537.8"/>
</g>
</g>
</svg>
