<?xml version="1.0" encoding="UTF-8" standalone="no"?>
<!DOCTYPE svg PUBLIC "-//W3C//DTD SVG 1.1//EN"
 "http://www.w3.org/Graphics/SVG/1.1/DTD/svg11.dtd">
<!-- Generated by graphviz version 2.43.0 (0)
 -->
<!-- Title: /home/runner/work/open62541pp/open62541pp/include/open62541pp/Event.h Pages: 1 -->
<svg width="1589pt" height="456pt"
 viewBox="0.00 0.00 1589.00 456.00" xmlns="http://www.w3.org/2000/svg" xmlns:xlink="http://www.w3.org/1999/xlink">
<g id="graph0" class="graph" transform="scale(1 1) rotate(0) translate(4 452)">
<title>/home/runner/work/open62541pp/open62541pp/include/open62541pp/Event.h</title>
<!-- Node1 -->
<g id="Node000001" class="node">
<title>Node1</title>
<g id="a_Node000001"><a xlink:title=" ">
<polygon fill="#999999" stroke="#666666" points="1415.5,-448 1222.5,-448 1222.5,-407 1415.5,-407 1415.5,-448"/>
<text text-anchor="start" x="1230.5" y="-436" font-family="Helvetica,sans-Serif" font-size="10.00">/home/runner/work/open62541pp</text>
<text text-anchor="start" x="1230.5" y="-425" font-family="Helvetica,sans-Serif" font-size="10.00">/open62541pp/include/open62541pp</text>
<text text-anchor="middle" x="1319" y="-414" font-family="Helvetica,sans-Serif" font-size="10.00">/Event.h</text>
</a>
</g>
</g>
<!-- Node2 -->
<g id="Node000002" class="node">
<title>Node2</title>
<g id="a_Node000002"><a xlink:title=" ">
<polygon fill="#e0e0e0" stroke="#999999" points="1252,-74 1202,-74 1202,-55 1252,-55 1252,-74"/>
<text text-anchor="middle" x="1227" y="-62" font-family="Helvetica,sans-Serif" font-size="10.00">cstdint</text>
</a>
</g>
</g>
<!-- Node1&#45;&gt;Node2 -->
<g id="edge1_Node000001_Node000002" class="edge">
<title>Node1&#45;&gt;Node2</title>
<g id="a_edge1_Node000001_Node000002"><a xlink:title=" ">
<path fill="none" stroke="#63b8ff" d="M1415.81,-420.83C1490.45,-410.6 1581,-382.69 1581,-307.5 1581,-307.5 1581,-307.5 1581,-190 1581,-122.87 1351.58,-83.14 1262.12,-70.2"/>
<polygon fill="#63b8ff" stroke="#63b8ff" points="1262.57,-66.72 1252.18,-68.79 1261.58,-73.66 1262.57,-66.72"/>
</a>
</g>
</g>
<!-- Node3 -->
<g id="Node000003" class="node">
<title>Node3</title>
<g id="a_Node000003"><a xlink:title=" ">
<polygon fill="#e0e0e0" stroke="#999999" points="115.5,-134.5 42.5,-134.5 42.5,-115.5 115.5,-115.5 115.5,-134.5"/>
<text text-anchor="middle" x="79" y="-122.5" font-family="Helvetica,sans-Serif" font-size="10.00">string_view</text>
</a>
</g>
</g>
<!-- Node1&#45;&gt;Node3 -->
<g id="edge2_Node000001_Node000003" class="edge">
<title>Node1&#45;&gt;Node3</title>
<g id="a_edge2_Node000001_Node000003"><a xlink:title=" ">
<path fill="none" stroke="#63b8ff" d="M1222.45,-422.58C924.29,-409.83 38,-366.95 38,-307.5 38,-307.5 38,-307.5 38,-250.5 38,-210.85 56.99,-167.51 69.12,-143.86"/>
<polygon fill="#63b8ff" stroke="#63b8ff" points="72.37,-145.21 73.97,-134.73 66.19,-141.92 72.37,-145.21"/>
</a>
</g>
</g>
<!-- Node4 -->
<g id="Node000004" class="node">
<title>Node4</title>
<g id="a_Node000004"><a xlink:href="NodeIds_8h.html" target="_top" xlink:title=" ">
<polygon fill="white" stroke="#666666" points="1549,-316 1415,-316 1415,-297 1549,-297 1549,-316"/>
<text text-anchor="middle" x="1482" y="-304" font-family="Helvetica,sans-Serif" font-size="10.00">open62541pp/NodeIds.h</text>
</a>
</g>
</g>
<!-- Node1&#45;&gt;Node4 -->
<g id="edge3_Node000001_Node000004" class="edge">
<title>Node1&#45;&gt;Node4</title>
<g id="a_edge3_Node000001_Node000004"><a xlink:title=" ">
<path fill="none" stroke="#63b8ff" d="M1345.92,-406.85C1378.53,-383.04 1432.73,-343.47 1461.91,-322.16"/>
<polygon fill="#63b8ff" stroke="#63b8ff" points="1464.1,-324.9 1470.12,-316.18 1459.98,-319.24 1464.1,-324.9"/>
</a>
</g>
</g>
<!-- Node5 -->
<g id="Node000005" class="node">
<title>Node5</title>
<g id="a_Node000005"><a xlink:href="Builtin_8h.html" target="_top" xlink:title=" ">
<polygon fill="white" stroke="#666666" points="1397,-316 1241,-316 1241,-297 1397,-297 1397,-316"/>
<text text-anchor="middle" x="1319" y="-304" font-family="Helvetica,sans-Serif" font-size="10.00">open62541pp/types/Builtin.h</text>
</a>
</g>
</g>
<!-- Node1&#45;&gt;Node5 -->
<g id="edge4_Node000001_Node000005" class="edge">
<title>Node1&#45;&gt;Node5</title>
<g id="a_edge4_Node000001_Node000005"><a xlink:title=" ">
<path fill="none" stroke="#63b8ff" d="M1319,-406.85C1319,-384.48 1319,-348.19 1319,-326.21"/>
<polygon fill="#63b8ff" stroke="#63b8ff" points="1322.5,-326.18 1319,-316.18 1315.5,-326.18 1322.5,-326.18"/>
</a>
</g>
</g>
<!-- Node30 -->
<g id="Node000030" class="node">
<title>Node30</title>
<g id="a_Node000030"><a xlink:href="NodeId_8h.html" target="_top" xlink:title=" ">
<polygon fill="white" stroke="#666666" points="1113.5,-371 954.5,-371 954.5,-352 1113.5,-352 1113.5,-371"/>
<text text-anchor="middle" x="1034" y="-359" font-family="Helvetica,sans-Serif" font-size="10.00">open62541pp/types/NodeId.h</text>
</a>
</g>
</g>
<!-- Node1&#45;&gt;Node30 -->
<g id="edge48_Node000001_Node000030" class="edge">
<title>Node1&#45;&gt;Node30</title>
<g id="a_edge48_Node000001_Node000030"><a xlink:title=" ">
<path fill="none" stroke="#63b8ff" d="M1231.94,-406.95C1182.59,-395.87 1122.74,-382.43 1081.85,-373.25"/>
<polygon fill="#63b8ff" stroke="#63b8ff" points="1082.41,-369.78 1071.89,-371.01 1080.88,-376.61 1082.41,-369.78"/>
</a>
</g>
</g>
<!-- Node5&#45;&gt;Node2 -->
<g id="edge6_Node000005_Node000002" class="edge">
<title>Node5&#45;&gt;Node2</title>
<g id="a_edge6_Node000005_Node000002"><a xlink:title=" ">
<path fill="none" stroke="#63b8ff" d="M1310.34,-296.69C1302.44,-288.19 1290.97,-274.66 1284,-261 1252.28,-198.85 1261.03,-176.84 1241,-110 1238.41,-101.36 1235.42,-91.81 1232.88,-83.79"/>
<polygon fill="#63b8ff" stroke="#63b8ff" points="1236.13,-82.47 1229.75,-74.01 1229.46,-84.6 1236.13,-82.47"/>
</a>
</g>
</g>
<!-- Node5&#45;&gt;Node3 -->
<g id="edge9_Node000005_Node000003" class="edge">
<title>Node5&#45;&gt;Node3</title>
<g id="a_edge9_Node000005_Node000003"><a xlink:title=" ">
<path fill="none" stroke="#63b8ff" d="M1240.72,-299.81C1224.93,-298.78 1208.44,-297.78 1193,-297 1134.43,-294.03 186.52,-293.94 138,-261 117.75,-247.25 94.81,-178.62 84.51,-144.84"/>
<polygon fill="#63b8ff" stroke="#63b8ff" points="87.74,-143.43 81.53,-134.85 81.04,-145.44 87.74,-143.43"/>
</a>
</g>
</g>
<!-- Node6 -->
<g id="Node000006" class="node">
<title>Node6</title>
<g id="a_Node000006"><a xlink:title=" ">
<polygon fill="#e0e0e0" stroke="#999999" points="1335,-261 1293,-261 1293,-242 1335,-242 1335,-261"/>
<text text-anchor="middle" x="1314" y="-249" font-family="Helvetica,sans-Serif" font-size="10.00">array</text>
</a>
</g>
</g>
<!-- Node5&#45;&gt;Node6 -->
<g id="edge5_Node000005_Node000006" class="edge">
<title>Node5&#45;&gt;Node6</title>
<g id="a_edge5_Node000005_Node000006"><a xlink:title=" ">
<path fill="none" stroke="#63b8ff" d="M1318.17,-296.75C1317.52,-289.8 1316.58,-279.85 1315.76,-271.13"/>
<polygon fill="#63b8ff" stroke="#63b8ff" points="1319.23,-270.72 1314.81,-261.09 1312.27,-271.37 1319.23,-270.72"/>
</a>
</g>
</g>
<!-- Node7 -->
<g id="Node000007" class="node">
<title>Node7</title>
<g id="a_Node000007"><a xlink:title=" ">
<polygon fill="#e0e0e0" stroke="#999999" points="1401,-261 1353,-261 1353,-242 1401,-242 1401,-261"/>
<text text-anchor="middle" x="1377" y="-249" font-family="Helvetica,sans-Serif" font-size="10.00">iosfwd</text>
</a>
</g>
</g>
<!-- Node5&#45;&gt;Node7 -->
<g id="edge7_Node000005_Node000007" class="edge">
<title>Node5&#45;&gt;Node7</title>
<g id="a_edge7_Node000005_Node000007"><a xlink:title=" ">
<path fill="none" stroke="#63b8ff" d="M1328.32,-296.98C1336.81,-289.23 1349.56,-277.58 1359.88,-268.14"/>
<polygon fill="#63b8ff" stroke="#63b8ff" points="1362.49,-270.5 1367.51,-261.17 1357.77,-265.33 1362.49,-270.5"/>
</a>
</g>
</g>
<!-- Node8 -->
<g id="Node000008" class="node">
<title>Node8</title>
<g id="a_Node000008"><a xlink:title=" ">
<polygon fill="#e0e0e0" stroke="#999999" points="250,-74 206,-74 206,-55 250,-55 250,-74"/>
<text text-anchor="middle" x="228" y="-62" font-family="Helvetica,sans-Serif" font-size="10.00">string</text>
</a>
</g>
</g>
<!-- Node5&#45;&gt;Node8 -->
<g id="edge8_Node000005_Node000008" class="edge">
<title>Node5&#45;&gt;Node8</title>
<g id="a_edge8_Node000005_Node000008"><a xlink:title=" ">
<path fill="none" stroke="#63b8ff" d="M1240.74,-300.1C1090.33,-289.66 771.24,-267.19 721,-261 473.45,-230.52 322.97,-339.3 173,-140 164.98,-129.35 167.26,-122.03 173,-110 179.09,-97.23 190.84,-86.94 201.92,-79.49"/>
<polygon fill="#63b8ff" stroke="#63b8ff" points="203.9,-82.38 210.54,-74.12 200.2,-76.43 203.9,-82.38"/>
</a>
</g>
</g>
<!-- Node9 -->
<g id="Node000009" class="node">
<title>Node9</title>
<g id="a_Node000009"><a xlink:title=" ">
<polygon fill="#e0e0e0" stroke="#999999" points="1466.5,-261 1419.5,-261 1419.5,-242 1466.5,-242 1466.5,-261"/>
<text text-anchor="middle" x="1443" y="-249" font-family="Helvetica,sans-Serif" font-size="10.00">vector</text>
</a>
</g>
</g>
<!-- Node5&#45;&gt;Node9 -->
<g id="edge10_Node000005_Node000009" class="edge">
<title>Node5&#45;&gt;Node9</title>
<g id="a_edge10_Node000005_Node000009"><a xlink:title=" ">
<path fill="none" stroke="#63b8ff" d="M1338.92,-296.98C1359.05,-288.38 1390.38,-274.99 1413.41,-265.15"/>
<polygon fill="#63b8ff" stroke="#63b8ff" points="1414.9,-268.32 1422.71,-261.17 1412.14,-261.88 1414.9,-268.32"/>
</a>
</g>
</g>
<!-- Node10 -->
<g id="Node000010" class="node">
<title>Node10</title>
<g id="a_Node000010"><a xlink:title=" ">
<polygon fill="#e0e0e0" stroke="#999999" points="1553,-261 1485,-261 1485,-242 1553,-242 1553,-261"/>
<text text-anchor="middle" x="1519" y="-249" font-family="Helvetica,sans-Serif" font-size="10.00">filesystem</text>
</a>
</g>
</g>
<!-- Node5&#45;&gt;Node10 -->
<g id="edge11_Node000005_Node000010" class="edge">
<title>Node5&#45;&gt;Node10</title>
<g id="a_edge11_Node000005_Node000010"><a xlink:title=" ">
<path fill="none" stroke="#63b8ff" d="M1351.13,-296.98C1385.15,-287.97 1439,-273.7 1476.5,-263.76"/>
<polygon fill="#63b8ff" stroke="#63b8ff" points="1477.84,-267.03 1486.61,-261.08 1476.05,-260.26 1477.84,-267.03"/>
</a>
</g>
</g>
<!-- Node11 -->
<g id="Node000011" class="node">
<title>Node11</title>
<g id="a_Node000011"><a xlink:href="ErrorHandling_8h.html" target="_top" xlink:title=" ">
<polygon fill="white" stroke="#666666" points="812.5,-134.5 651.5,-134.5 651.5,-115.5 812.5,-115.5 812.5,-134.5"/>
<text text-anchor="middle" x="732" y="-122.5" font-family="Helvetica,sans-Serif" font-size="10.00">open62541pp/ErrorHandling.h</text>
</a>
</g>
</g>
<!-- Node5&#45;&gt;Node11 -->
<g id="edge12_Node000005_Node000011" class="edge">
<title>Node5&#45;&gt;Node11</title>
<g id="a_edge12_Node000005_Node000011"><a xlink:title=" ">
<path fill="none" stroke="#63b8ff" d="M1269.53,-296.96C1190.8,-282.64 1032.73,-250.86 904,-206 849.66,-187.06 789.36,-156.7 756.56,-139.34"/>
<polygon fill="#63b8ff" stroke="#63b8ff" points="758.15,-136.22 747.68,-134.6 754.85,-142.4 758.15,-136.22"/>
</a>
</g>
</g>
<!-- Node15 -->
<g id="Node000015" class="node">
<title>Node15</title>
<g id="a_Node000015"><a xlink:href="open62541_8h.html" target="_top" xlink:title=" ">
<polygon fill="white" stroke="#666666" points="1111.5,-74 962.5,-74 962.5,-55 1111.5,-55 1111.5,-74"/>
<text text-anchor="middle" x="1037" y="-62" font-family="Helvetica,sans-Serif" font-size="10.00">open62541pp/open62541.h</text>
</a>
</g>
</g>
<!-- Node5&#45;&gt;Node15 -->
<g id="edge47_Node000005_Node000015" class="edge">
<title>Node5&#45;&gt;Node15</title>
<g id="a_edge47_Node000005_Node000015"><a xlink:title=" ">
<path fill="none" stroke="#63b8ff" d="M1309.51,-296.76C1299.93,-287.88 1284.76,-273.67 1272,-261 1205.98,-195.44 1202.05,-165 1127,-110 1109.21,-96.96 1087.01,-85.94 1069.11,-78.12"/>
<polygon fill="#63b8ff" stroke="#63b8ff" points="1070.24,-74.8 1059.67,-74.12 1067.51,-81.25 1070.24,-74.8"/>
</a>
</g>
</g>
<!-- Node21 -->
<g id="Node000021" class="node">
<title>Node21</title>
<g id="a_Node000021"><a xlink:href="TypeWrapper_8h.html" target="_top" xlink:title=" ">
<polygon fill="white" stroke="#666666" points="888,-261 730,-261 730,-242 888,-242 888,-261"/>
<text text-anchor="middle" x="809" y="-249" font-family="Helvetica,sans-Serif" font-size="10.00">open62541pp/TypeWrapper.h</text>
</a>
</g>
</g>
<!-- Node5&#45;&gt;Node21 -->
<g id="edge23_Node000005_Node000021" class="edge">
<title>Node5&#45;&gt;Node21</title>
<g id="a_edge23_Node000005_Node000021"><a xlink:title=" ">
<path fill="none" stroke="#63b8ff" d="M1240.99,-297.39C1148.68,-287.8 995.33,-271.86 898.34,-261.78"/>
<polygon fill="#63b8ff" stroke="#63b8ff" points="898.57,-258.29 888.26,-260.74 897.85,-265.25 898.57,-258.29"/>
</a>
</g>
</g>
<!-- Node11&#45;&gt;Node8 -->
<g id="edge15_Node000011_Node000008" class="edge">
<title>Node11&#45;&gt;Node8</title>
<g id="a_edge15_Node000011_Node000008"><a xlink:title=" ">
<path fill="none" stroke="#63b8ff" d="M679.71,-115.44C667.36,-113.54 654.23,-111.61 642,-110 500.15,-91.35 330.19,-74.94 260.36,-68.45"/>
<polygon fill="#63b8ff" stroke="#63b8ff" points="260.32,-64.93 250.04,-67.5 259.67,-71.9 260.32,-64.93"/>
</a>
</g>
</g>
<!-- Node12 -->
<g id="Node000012" class="node">
<title>Node12</title>
<g id="a_Node000012"><a xlink:title=" ">
<polygon fill="#e0e0e0" stroke="#999999" points="417.5,-74 352.5,-74 352.5,-55 417.5,-55 417.5,-74"/>
<text text-anchor="middle" x="385" y="-62" font-family="Helvetica,sans-Serif" font-size="10.00">functional</text>
</a>
</g>
</g>
<!-- Node11&#45;&gt;Node12 -->
<g id="edge13_Node000011_Node000012" class="edge">
<title>Node11&#45;&gt;Node12</title>
<g id="a_edge13_Node000011_Node000012"><a xlink:title=" ">
<path fill="none" stroke="#63b8ff" d="M681.54,-115.49C613.17,-103.97 492.27,-83.58 427.99,-72.75"/>
<polygon fill="#63b8ff" stroke="#63b8ff" points="428.24,-69.24 417.8,-71.03 427.08,-76.14 428.24,-69.24"/>
</a>
</g>
</g>
<!-- Node13 -->
<g id="Node000013" class="node">
<title>Node13</title>
<g id="a_Node000013"><a xlink:title=" ">
<polygon fill="#e0e0e0" stroke="#999999" points="764.5,-74 699.5,-74 699.5,-55 764.5,-55 764.5,-74"/>
<text text-anchor="middle" x="732" y="-62" font-family="Helvetica,sans-Serif" font-size="10.00">stdexcept</text>
</a>
</g>
</g>
<!-- Node11&#45;&gt;Node13 -->
<g id="edge14_Node000011_Node000013" class="edge">
<title>Node11&#45;&gt;Node13</title>
<g id="a_edge14_Node000011_Node000013"><a xlink:title=" ">
<path fill="none" stroke="#63b8ff" d="M732,-115.37C732,-107.25 732,-94.81 732,-84.39"/>
<polygon fill="#63b8ff" stroke="#63b8ff" points="735.5,-84.17 732,-74.17 728.5,-84.17 735.5,-84.17"/>
</a>
</g>
</g>
<!-- Node14 -->
<g id="Node000014" class="node">
<title>Node14</title>
<g id="a_Node000014"><a xlink:title=" ">
<polygon fill="#e0e0e0" stroke="#999999" points="634.5,-74 565.5,-74 565.5,-55 634.5,-55 634.5,-74"/>
<text text-anchor="middle" x="600" y="-62" font-family="Helvetica,sans-Serif" font-size="10.00">type_traits</text>
</a>
</g>
</g>
<!-- Node11&#45;&gt;Node14 -->
<g id="edge16_Node000011_Node000014" class="edge">
<title>Node11&#45;&gt;Node14</title>
<g id="a_edge16_Node000011_Node000014"><a xlink:title=" ">
<path fill="none" stroke="#63b8ff" d="M712.81,-115.49C690.61,-105.66 653.88,-89.38 628.38,-78.08"/>
<polygon fill="#63b8ff" stroke="#63b8ff" points="629.78,-74.87 619.22,-74.02 626.94,-81.27 629.78,-74.87"/>
</a>
</g>
</g>
<!-- Node11&#45;&gt;Node15 -->
<g id="edge17_Node000011_Node000015" class="edge">
<title>Node11&#45;&gt;Node15</title>
<g id="a_edge17_Node000011_Node000015"><a xlink:title=" ">
<path fill="none" stroke="#63b8ff" d="M776.35,-115.49C831.01,-105.01 923.87,-87.2 982.74,-75.91"/>
<polygon fill="#63b8ff" stroke="#63b8ff" points="983.44,-79.34 992.6,-74.02 982.12,-72.46 983.44,-79.34"/>
</a>
</g>
</g>
<!-- Node16 -->
<g id="Node000016" class="node">
<title>Node16</title>
<g id="a_Node000016"><a target="_blank" xlink:href="open62541/config_8h.html" xlink:title=" ">
<polygon fill="white" stroke="#666666" points="809,-19 697,-19 697,0 809,0 809,-19"/>
<text text-anchor="middle" x="753" y="-7" font-family="Helvetica,sans-Serif" font-size="10.00">open62541/config.h</text>
</a>
</g>
</g>
<!-- Node15&#45;&gt;Node16 -->
<g id="edge18_Node000015_Node000016" class="edge">
<title>Node15&#45;&gt;Node16</title>
<g id="a_edge18_Node000015_Node000016"><a xlink:title=" ">
<path fill="none" stroke="#63b8ff" d="M991.37,-54.98C941.73,-45.72 862.34,-30.9 808.97,-20.94"/>
<polygon fill="#63b8ff" stroke="#63b8ff" points="809.46,-17.48 798.99,-19.08 808.18,-24.36 809.46,-17.48"/>
</a>
</g>
</g>
<!-- Node17 -->
<g id="Node000017" class="node">
<title>Node17</title>
<g id="a_Node000017"><a target="_blank" xlink:href="open62541/nodeids_8h.html" xlink:title=" ">
<polygon fill="white" stroke="#666666" points="948.5,-19 827.5,-19 827.5,0 948.5,0 948.5,-19"/>
<text text-anchor="middle" x="888" y="-7" font-family="Helvetica,sans-Serif" font-size="10.00">open62541/nodeids.h</text>
</a>
</g>
</g>
<!-- Node15&#45;&gt;Node17 -->
<g id="edge19_Node000015_Node000017" class="edge">
<title>Node15&#45;&gt;Node17</title>
<g id="a_edge19_Node000015_Node000017"><a xlink:title=" ">
<path fill="none" stroke="#63b8ff" d="M1013.06,-54.98C988.44,-46.23 949.88,-32.51 922.08,-22.62"/>
<polygon fill="#63b8ff" stroke="#63b8ff" points="922.97,-19.22 912.38,-19.17 920.62,-25.82 922.97,-19.22"/>
</a>
</g>
</g>
<!-- Node18 -->
<g id="Node000018" class="node">
<title>Node18</title>
<g id="a_Node000018"><a target="_blank" xlink:href="open62541/statuscodes_8h.html" xlink:title=" ">
<polygon fill="white" stroke="#666666" points="1107.5,-19 966.5,-19 966.5,0 1107.5,0 1107.5,-19"/>
<text text-anchor="middle" x="1037" y="-7" font-family="Helvetica,sans-Serif" font-size="10.00">open62541/statuscodes.h</text>
</a>
</g>
</g>
<!-- Node15&#45;&gt;Node18 -->
<g id="edge20_Node000015_Node000018" class="edge">
<title>Node15&#45;&gt;Node18</title>
<g id="a_edge20_Node000015_Node000018"><a xlink:title=" ">
<path fill="none" stroke="#63b8ff" d="M1037,-54.75C1037,-47.8 1037,-37.85 1037,-29.13"/>
<polygon fill="#63b8ff" stroke="#63b8ff" points="1040.5,-29.09 1037,-19.09 1033.5,-29.09 1040.5,-29.09"/>
</a>
</g>
</g>
<!-- Node19 -->
<g id="Node000019" class="node">
<title>Node19</title>
<g id="a_Node000019"><a target="_blank" xlink:href="open62541/types_8h.html" xlink:title=" ">
<polygon fill="white" stroke="#666666" points="1236,-19 1126,-19 1126,0 1236,0 1236,-19"/>
<text text-anchor="middle" x="1181" y="-7" font-family="Helvetica,sans-Serif" font-size="10.00">open62541/types.h</text>
</a>
</g>
</g>
<!-- Node15&#45;&gt;Node19 -->
<g id="edge21_Node000015_Node000019" class="edge">
<title>Node15&#45;&gt;Node19</title>
<g id="a_edge21_Node000015_Node000019"><a xlink:title=" ">
<path fill="none" stroke="#63b8ff" d="M1060.14,-54.98C1083.82,-46.27 1120.87,-32.63 1147.71,-22.75"/>
<polygon fill="#63b8ff" stroke="#63b8ff" points="1149.27,-25.91 1157.44,-19.17 1146.85,-19.34 1149.27,-25.91"/>
</a>
</g>
</g>
<!-- Node20 -->
<g id="Node000020" class="node">
<title>Node20</title>
<g id="a_Node000020"><a target="_blank" xlink:href="open62541/types__generated_8h.html" xlink:title=" ">
<polygon fill="white" stroke="#666666" points="1418,-19 1254,-19 1254,0 1418,0 1418,-19"/>
<text text-anchor="middle" x="1336" y="-7" font-family="Helvetica,sans-Serif" font-size="10.00">open62541/types_generated.h</text>
</a>
</g>
</g>
<!-- Node15&#45;&gt;Node20 -->
<g id="edge22_Node000015_Node000020" class="edge">
<title>Node15&#45;&gt;Node20</title>
<g id="a_edge22_Node000015_Node000020"><a xlink:title=" ">
<path fill="none" stroke="#63b8ff" d="M1085.04,-54.98C1137.41,-45.7 1221.24,-30.84 1277.43,-20.88"/>
<polygon fill="#63b8ff" stroke="#63b8ff" points="1278.35,-24.27 1287.58,-19.08 1277.13,-17.38 1278.35,-24.27"/>
</a>
</g>
</g>
<!-- Node21&#45;&gt;Node2 -->
<g id="edge25_Node000021_Node000002" class="edge">
<title>Node21&#45;&gt;Node2</title>
<g id="a_edge25_Node000021_Node000002"><a xlink:title=" ">
<path fill="none" stroke="#63b8ff" d="M888.27,-246.45C938.3,-241.46 1003.2,-230.41 1056,-206 1122.95,-175.05 1185.64,-111.52 1212.82,-81.67"/>
<polygon fill="#63b8ff" stroke="#63b8ff" points="1215.45,-83.98 1219.51,-74.2 1210.23,-79.31 1215.45,-83.98"/>
</a>
</g>
</g>
<!-- Node21&#45;&gt;Node11 -->
<g id="edge32_Node000021_Node000011" class="edge">
<title>Node21&#45;&gt;Node11</title>
<g id="a_edge32_Node000021_Node000011"><a xlink:title=" ">
<path fill="none" stroke="#63b8ff" d="M803.71,-241.94C791.18,-221.69 759.51,-170.47 742.76,-143.4"/>
<polygon fill="#63b8ff" stroke="#63b8ff" points="745.57,-141.28 737.33,-134.62 739.61,-144.96 745.57,-141.28"/>
</a>
</g>
</g>
<!-- Node21&#45;&gt;Node14 -->
<g id="edge26_Node000021_Node000014" class="edge">
<title>Node21&#45;&gt;Node14</title>
<g id="a_edge26_Node000021_Node000014"><a xlink:title=" ">
<path fill="none" stroke="#63b8ff" d="M739.54,-241.95C680.69,-230.35 601.32,-203.22 572,-140 563.06,-120.72 574.97,-97.71 585.9,-82.42"/>
<polygon fill="#63b8ff" stroke="#63b8ff" points="588.75,-84.46 592.06,-74.39 583.2,-80.19 588.75,-84.46"/>
</a>
</g>
</g>
<!-- Node21&#45;&gt;Node15 -->
<g id="edge44_Node000021_Node000015" class="edge">
<title>Node21&#45;&gt;Node15</title>
<g id="a_edge44_Node000021_Node000015"><a xlink:title=" ">
<path fill="none" stroke="#63b8ff" d="M817.67,-241.91C833.52,-226.64 868.8,-194.63 904,-176 950.59,-151.35 980.6,-178.12 1017,-140 1031.28,-125.05 1035.61,-101.04 1036.8,-84.33"/>
<polygon fill="#63b8ff" stroke="#63b8ff" points="1040.3,-84.26 1037.2,-74.13 1033.31,-83.99 1040.3,-84.26"/>
</a>
</g>
</g>
<!-- Node22 -->
<g id="Node000022" class="node">
<title>Node22</title>
<g id="a_Node000022"><a xlink:title=" ">
<polygon fill="#e0e0e0" stroke="#999999" points="633,-134.5 581,-134.5 581,-115.5 633,-115.5 633,-134.5"/>
<text text-anchor="middle" x="607" y="-122.5" font-family="Helvetica,sans-Serif" font-size="10.00">cassert</text>
</a>
</g>
</g>
<!-- Node21&#45;&gt;Node22 -->
<g id="edge24_Node000021_Node000022" class="edge">
<title>Node21&#45;&gt;Node22</title>
<g id="a_edge24_Node000021_Node000022"><a xlink:title=" ">
<path fill="none" stroke="#63b8ff" d="M799.43,-241.91C782.73,-227.2 746.81,-196.74 713,-176 688.94,-161.23 659.82,-147.79 638.2,-138.57"/>
<polygon fill="#63b8ff" stroke="#63b8ff" points="639.41,-135.28 628.83,-134.64 636.7,-141.73 639.41,-135.28"/>
</a>
</g>
</g>
<!-- Node23 -->
<g id="Node000023" class="node">
<title>Node23</title>
<g id="a_Node000023"><a xlink:title=" ">
<polygon fill="#e0e0e0" stroke="#999999" points="704.5,-200.5 659.5,-200.5 659.5,-181.5 704.5,-181.5 704.5,-200.5"/>
<text text-anchor="middle" x="682" y="-188.5" font-family="Helvetica,sans-Serif" font-size="10.00">utility</text>
</a>
</g>
</g>
<!-- Node21&#45;&gt;Node23 -->
<g id="edge27_Node000021_Node000023" class="edge">
<title>Node21&#45;&gt;Node23</title>
<g id="a_edge27_Node000021_Node000023"><a xlink:title=" ">
<path fill="none" stroke="#63b8ff" d="M790.53,-241.99C769.28,-232.2 734.15,-216.02 709.63,-204.73"/>
<polygon fill="#63b8ff" stroke="#63b8ff" points="711.04,-201.52 700.49,-200.52 708.11,-207.88 711.04,-201.52"/>
</a>
</g>
</g>
<!-- Node24 -->
<g id="Node000024" class="node">
<title>Node24</title>
<g id="a_Node000024"><a xlink:href="Common_8h.html" target="_top" xlink:title=" ">
<polygon fill="white" stroke="#666666" points="1008.5,-134.5 869.5,-134.5 869.5,-115.5 1008.5,-115.5 1008.5,-134.5"/>
<text text-anchor="middle" x="939" y="-122.5" font-family="Helvetica,sans-Serif" font-size="10.00">open62541pp/Common.h</text>
</a>
</g>
</g>
<!-- Node21&#45;&gt;Node24 -->
<g id="edge28_Node000021_Node000024" class="edge">
<title>Node21&#45;&gt;Node24</title>
<g id="a_edge28_Node000021_Node000024"><a xlink:title=" ">
<path fill="none" stroke="#63b8ff" d="M809.61,-241.59C811.1,-226.37 816.14,-195.19 833,-176 849.13,-157.64 873.46,-145.5 894.74,-137.79"/>
<polygon fill="#63b8ff" stroke="#63b8ff" points="895.92,-141.08 904.26,-134.55 893.67,-134.46 895.92,-141.08"/>
</a>
</g>
</g>
<!-- Node25 -->
<g id="Node000025" class="node">
<title>Node25</title>
<g id="a_Node000025"><a xlink:href="helper_8h.html" target="_top" xlink:title=" ">
<polygon fill="white" stroke="#666666" points="524.5,-206 411.5,-206 411.5,-176 524.5,-176 524.5,-206"/>
<text text-anchor="start" x="419.5" y="-194" font-family="Helvetica,sans-Serif" font-size="10.00">open62541pp/detail</text>
<text text-anchor="middle" x="468" y="-183" font-family="Helvetica,sans-Serif" font-size="10.00">/helper.h</text>
</a>
</g>
</g>
<!-- Node21&#45;&gt;Node25 -->
<g id="edge33_Node000021_Node000025" class="edge">
<title>Node21&#45;&gt;Node25</title>
<g id="a_edge33_Node000021_Node000025"><a xlink:title=" ">
<path fill="none" stroke="#63b8ff" d="M754.1,-241.97C699.48,-233.36 613.33,-219.45 539,-206 537.53,-205.73 536.05,-205.46 534.55,-205.19"/>
<polygon fill="#63b8ff" stroke="#63b8ff" points="535.02,-201.72 524.55,-203.32 533.74,-208.6 535.02,-201.72"/>
</a>
</g>
</g>
<!-- Node29 -->
<g id="Node000029" class="node">
<title>Node29</title>
<g id="a_Node000029"><a xlink:href="comparison_8h.html" target="_top" xlink:title=" ">
<polygon fill="white" stroke="#666666" points="1047,-206 913,-206 913,-176 1047,-176 1047,-206"/>
<text text-anchor="start" x="921" y="-194" font-family="Helvetica,sans-Serif" font-size="10.00">open62541pp/overloads</text>
<text text-anchor="middle" x="980" y="-183" font-family="Helvetica,sans-Serif" font-size="10.00">/comparison.h</text>
</a>
</g>
</g>
<!-- Node21&#45;&gt;Node29 -->
<g id="edge45_Node000021_Node000029" class="edge">
<title>Node21&#45;&gt;Node29</title>
<g id="a_edge45_Node000021_Node000029"><a xlink:title=" ">
<path fill="none" stroke="#63b8ff" d="M833.86,-241.99C858.8,-233.46 897.9,-220.09 929.39,-209.32"/>
<polygon fill="#63b8ff" stroke="#63b8ff" points="930.56,-212.61 938.89,-206.06 928.29,-205.99 930.56,-212.61"/>
</a>
</g>
</g>
<!-- Node24&#45;&gt;Node2 -->
<g id="edge29_Node000024_Node000002" class="edge">
<title>Node24&#45;&gt;Node2</title>
<g id="a_edge29_Node000024_Node000002"><a xlink:title=" ">
<path fill="none" stroke="#63b8ff" d="M980.88,-115.49C1037.77,-103.94 1138.49,-83.48 1191.73,-72.66"/>
<polygon fill="#63b8ff" stroke="#63b8ff" points="1192.62,-76.06 1201.72,-70.64 1191.22,-69.2 1192.62,-76.06"/>
</a>
</g>
</g>
<!-- Node24&#45;&gt;Node14 -->
<g id="edge30_Node000024_Node000014" class="edge">
<title>Node24&#45;&gt;Node14</title>
<g id="a_edge30_Node000024_Node000014"><a xlink:title=" ">
<path fill="none" stroke="#63b8ff" d="M889.71,-115.49C823.95,-104.15 708.48,-84.22 644.98,-73.26"/>
<polygon fill="#63b8ff" stroke="#63b8ff" points="645.33,-69.77 634.88,-71.52 644.14,-76.67 645.33,-69.77"/>
</a>
</g>
</g>
<!-- Node24&#45;&gt;Node15 -->
<g id="edge31_Node000024_Node000015" class="edge">
<title>Node24&#45;&gt;Node15</title>
<g id="a_edge31_Node000024_Node000015"><a xlink:title=" ">
<path fill="none" stroke="#63b8ff" d="M953.46,-115.37C969.31,-105.91 994.97,-90.59 1013.68,-79.42"/>
<polygon fill="#63b8ff" stroke="#63b8ff" points="1015.69,-82.3 1022.48,-74.17 1012.1,-76.29 1015.69,-82.3"/>
</a>
</g>
</g>
<!-- Node25&#45;&gt;Node3 -->
<g id="edge38_Node000025_Node000003" class="edge">
<title>Node25&#45;&gt;Node3</title>
<g id="a_edge38_Node000025_Node000003"><a xlink:title=" ">
<path fill="none" stroke="#63b8ff" d="M411.44,-180.69C334.21,-167.99 197.22,-145.45 125.59,-133.66"/>
<polygon fill="#63b8ff" stroke="#63b8ff" points="125.94,-130.18 115.51,-132.01 124.8,-137.08 125.94,-130.18"/>
</a>
</g>
</g>
<!-- Node25&#45;&gt;Node8 -->
<g id="edge37_Node000025_Node000008" class="edge">
<title>Node25&#45;&gt;Node8</title>
<g id="a_edge37_Node000025_Node000008"><a xlink:title=" ">
<path fill="none" stroke="#63b8ff" d="M415.31,-175.99C387.76,-167.56 354.04,-155.45 326,-140 307.15,-129.62 305.09,-123.08 288,-110 274.87,-99.95 259.93,-88.87 248.25,-80.28"/>
<polygon fill="#63b8ff" stroke="#63b8ff" points="250.17,-77.35 240.03,-74.26 246.03,-83 250.17,-77.35"/>
</a>
</g>
</g>
<!-- Node25&#45;&gt;Node11 -->
<g id="edge40_Node000025_Node000011" class="edge">
<title>Node25&#45;&gt;Node11</title>
<g id="a_edge40_Node000025_Node000011"><a xlink:title=" ">
<path fill="none" stroke="#63b8ff" d="M524.63,-176.27C573.23,-164.49 642.32,-147.74 687.15,-136.87"/>
<polygon fill="#63b8ff" stroke="#63b8ff" points="688,-140.27 696.89,-134.51 686.35,-133.47 688,-140.27"/>
</a>
</g>
</g>
<!-- Node25&#45;&gt;Node15 -->
<g id="edge43_Node000025_Node000015" class="edge">
<title>Node25&#45;&gt;Node15</title>
<g id="a_edge43_Node000025_Node000015"><a xlink:title=" ">
<path fill="none" stroke="#63b8ff" d="M524.66,-185.51C610.41,-178.12 768.72,-161.99 821,-140 841.16,-131.52 840.32,-119.53 860,-110 893.86,-93.6 934.38,-82.85 968.1,-76.02"/>
<polygon fill="#63b8ff" stroke="#63b8ff" points="969.18,-79.38 978.33,-74.03 967.85,-72.5 969.18,-79.38"/>
</a>
</g>
</g>
<!-- Node25&#45;&gt;Node22 -->
<g id="edge35_Node000025_Node000022" class="edge">
<title>Node25&#45;&gt;Node22</title>
<g id="a_edge35_Node000025_Node000022"><a xlink:title=" ">
<path fill="none" stroke="#63b8ff" d="M498.5,-175.95C522.56,-164.88 555.83,-149.56 579.16,-138.82"/>
<polygon fill="#63b8ff" stroke="#63b8ff" points="580.88,-141.88 588.5,-134.52 577.95,-135.52 580.88,-141.88"/>
</a>
</g>
</g>
<!-- Node25&#45;&gt;Node24 -->
<g id="edge39_Node000025_Node000024" class="edge">
<title>Node25&#45;&gt;Node24</title>
<g id="a_edge39_Node000025_Node000024"><a xlink:title=" ">
<path fill="none" stroke="#63b8ff" d="M524.81,-183.32C600.33,-174.29 737.89,-157.32 855,-140 863.01,-138.82 871.43,-137.5 879.73,-136.16"/>
<polygon fill="#63b8ff" stroke="#63b8ff" points="880.44,-139.59 889.74,-134.52 879.31,-132.68 880.44,-139.59"/>
</a>
</g>
</g>
<!-- Node26 -->
<g id="Node000026" class="node">
<title>Node26</title>
<g id="a_Node000026"><a xlink:title=" ">
<polygon fill="#e0e0e0" stroke="#999999" points="279,-134.5 215,-134.5 215,-115.5 279,-115.5 279,-134.5"/>
<text text-anchor="middle" x="247" y="-122.5" font-family="Helvetica,sans-Serif" font-size="10.00">algorithm</text>
</a>
</g>
</g>
<!-- Node25&#45;&gt;Node26 -->
<g id="edge34_Node000025_Node000026" class="edge">
<title>Node25&#45;&gt;Node26</title>
<g id="a_edge34_Node000025_Node000026"><a xlink:title=" ">
<path fill="none" stroke="#63b8ff" d="M417.77,-175.9C382.75,-166 334.97,-152.38 293,-140 290.22,-139.18 287.35,-138.33 284.47,-137.46"/>
<polygon fill="#63b8ff" stroke="#63b8ff" points="285.29,-134.05 274.71,-134.52 283.27,-140.76 285.29,-134.05"/>
</a>
</g>
</g>
<!-- Node27 -->
<g id="Node000027" class="node">
<title>Node27</title>
<g id="a_Node000027"><a xlink:title=" ">
<polygon fill="#e0e0e0" stroke="#999999" points="393,-134.5 335,-134.5 335,-115.5 393,-115.5 393,-134.5"/>
<text text-anchor="middle" x="364" y="-122.5" font-family="Helvetica,sans-Serif" font-size="10.00">memory</text>
</a>
</g>
</g>
<!-- Node25&#45;&gt;Node27 -->
<g id="edge36_Node000025_Node000027" class="edge">
<title>Node25&#45;&gt;Node27</title>
<g id="a_edge36_Node000025_Node000027"><a xlink:title=" ">
<path fill="none" stroke="#63b8ff" d="M445.18,-175.95C427.82,-165.27 404.06,-150.65 386.73,-139.98"/>
<polygon fill="#63b8ff" stroke="#63b8ff" points="388.19,-136.78 377.84,-134.52 384.52,-142.74 388.19,-136.78"/>
</a>
</g>
</g>
<!-- Node28 -->
<g id="Node000028" class="node">
<title>Node28</title>
<g id="a_Node000028"><a xlink:href="traits_8h.html" target="_top" xlink:title=" ">
<polygon fill="white" stroke="#666666" points="524.5,-140 411.5,-140 411.5,-110 524.5,-110 524.5,-140"/>
<text text-anchor="start" x="419.5" y="-128" font-family="Helvetica,sans-Serif" font-size="10.00">open62541pp/detail</text>
<text text-anchor="middle" x="468" y="-117" font-family="Helvetica,sans-Serif" font-size="10.00">/traits.h</text>
</a>
</g>
</g>
<!-- Node25&#45;&gt;Node28 -->
<g id="edge41_Node000025_Node000028" class="edge">
<title>Node25&#45;&gt;Node28</title>
<g id="a_edge41_Node000025_Node000028"><a xlink:title=" ">
<path fill="none" stroke="#63b8ff" d="M468,-175.8C468,-168.34 468,-158.99 468,-150.41"/>
<polygon fill="#63b8ff" stroke="#63b8ff" points="471.5,-150.16 468,-140.16 464.5,-150.16 471.5,-150.16"/>
</a>
</g>
</g>
<!-- Node28&#45;&gt;Node14 -->
<g id="edge42_Node000028_Node000014" class="edge">
<title>Node28&#45;&gt;Node14</title>
<g id="a_edge42_Node000028_Node000014"><a xlink:title=" ">
<path fill="none" stroke="#63b8ff" d="M499.62,-109.99C521.35,-100.36 549.97,-87.67 571.09,-78.31"/>
<polygon fill="#63b8ff" stroke="#63b8ff" points="572.78,-81.39 580.51,-74.14 569.95,-74.99 572.78,-81.39"/>
</a>
</g>
</g>
<!-- Node29&#45;&gt;Node15 -->
<g id="edge46_Node000029_Node000015" class="edge">
<title>Node29&#45;&gt;Node15</title>
<g id="a_edge46_Node000029_Node000015"><a xlink:title=" ">
<path fill="none" stroke="#63b8ff" d="M1012.51,-175.84C1027.08,-167.65 1042.81,-155.79 1051,-140 1060.25,-122.18 1053.5,-99.13 1046.54,-83.43"/>
<polygon fill="#63b8ff" stroke="#63b8ff" points="1049.62,-81.75 1042.1,-74.29 1043.32,-84.81 1049.62,-81.75"/>
</a>
</g>
</g>
<!-- Node30&#45;&gt;Node2 -->
<g id="edge50_Node000030_Node000002" class="edge">
<title>Node30&#45;&gt;Node2</title>
<g id="a_edge50_Node000030_Node000002"><a xlink:title=" ">
<path fill="none" stroke="#63b8ff" d="M1113.66,-356.09C1142.65,-350.37 1173.14,-338.81 1193,-316 1251.72,-248.57 1238.51,-129.81 1230.67,-84.13"/>
<polygon fill="#63b8ff" stroke="#63b8ff" points="1234.09,-83.37 1228.84,-74.16 1227.2,-84.63 1234.09,-83.37"/>
</a>
</g>
</g>
<!-- Node30&#45;&gt;Node3 -->
<g id="edge53_Node000030_Node000003" class="edge">
<title>Node30&#45;&gt;Node3</title>
<g id="a_edge53_Node000030_Node000003"><a xlink:title=" ">
<path fill="none" stroke="#63b8ff" d="M954.47,-359.58C755.32,-356.82 246.07,-346.8 176,-316 119.69,-291.25 111.12,-264.47 92,-206 85.38,-185.77 82.05,-161.51 80.43,-145.05"/>
<polygon fill="#63b8ff" stroke="#63b8ff" points="83.87,-144.27 79.52,-134.61 76.9,-144.88 83.87,-144.27"/>
</a>
</g>
</g>
<!-- Node30&#45;&gt;Node4 -->
<g id="edge56_Node000030_Node000004" class="edge">
<title>Node30&#45;&gt;Node4</title>
<g id="a_edge56_Node000030_Node000004"><a xlink:title=" ">
<path fill="none" stroke="#63b8ff" d="M1105.98,-351.98C1187.86,-342.3 1321.05,-326.54 1404.97,-316.61"/>
<polygon fill="#63b8ff" stroke="#63b8ff" points="1405.44,-320.08 1414.96,-315.43 1404.62,-313.13 1405.44,-320.08"/>
</a>
</g>
</g>
<!-- Node30&#45;&gt;Node5 -->
<g id="edge60_Node000030_Node000005" class="edge">
<title>Node30&#45;&gt;Node5</title>
<g id="a_edge60_Node000030_Node000005"><a xlink:title=" ">
<path fill="none" stroke="#63b8ff" d="M1079.79,-351.98C1129.61,-342.72 1209.28,-327.9 1262.84,-317.94"/>
<polygon fill="#63b8ff" stroke="#63b8ff" points="1263.66,-321.35 1272.85,-316.08 1262.38,-314.47 1263.66,-321.35"/>
</a>
</g>
</g>
<!-- Node30&#45;&gt;Node8 -->
<g id="edge52_Node000030_Node000008" class="edge">
<title>Node30&#45;&gt;Node8</title>
<g id="a_edge52_Node000030_Node000008"><a xlink:title=" ">
<path fill="none" stroke="#63b8ff" d="M954.18,-360.37C764.72,-359.46 292.32,-353.37 139,-316 73.01,-299.91 0,-320.42 0,-252.5 0,-252.5 0,-252.5 0,-190 0,-151.54 3.63,-134.84 33,-110 57.33,-89.42 147,-75.48 195.82,-69.23"/>
<polygon fill="#63b8ff" stroke="#63b8ff" points="196.37,-72.69 205.86,-67.98 195.51,-65.74 196.37,-72.69"/>
</a>
</g>
</g>
<!-- Node30&#45;&gt;Node12 -->
<g id="edge51_Node000030_Node000012" class="edge">
<title>Node30&#45;&gt;Node12</title>
<g id="a_edge51_Node000030_Node000012"><a xlink:title=" ">
<path fill="none" stroke="#63b8ff" d="M954.96,-351.99C765.44,-329.75 294.32,-262.93 206,-140 169.81,-89.63 278.43,-73.18 342.16,-67.91"/>
<polygon fill="#63b8ff" stroke="#63b8ff" points="342.65,-71.38 352.36,-67.13 342.12,-64.4 342.65,-71.38"/>
</a>
</g>
</g>
<!-- Node30&#45;&gt;Node15 -->
<g id="edge59_Node000030_Node000015" class="edge">
<title>Node30&#45;&gt;Node15</title>
<g id="a_edge59_Node000030_Node000015"><a xlink:title=" ">
<path fill="none" stroke="#63b8ff" d="M1036.64,-351.77C1045.09,-323.62 1071.16,-235.44 1075,-206 1076.72,-192.78 1075.7,-189.31 1075,-176 1073.44,-146.54 1078.31,-137.64 1068,-110 1064.27,-100 1057.77,-90.13 1051.68,-82.24"/>
<polygon fill="#63b8ff" stroke="#63b8ff" points="1054.19,-79.78 1045.15,-74.27 1048.77,-84.22 1054.19,-79.78"/>
</a>
</g>
</g>
<!-- Node30&#45;&gt;Node21 -->
<g id="edge57_Node000030_Node000021" class="edge">
<title>Node30&#45;&gt;Node21</title>
<g id="a_edge57_Node000030_Node000021"><a xlink:title=" ">
<path fill="none" stroke="#63b8ff" d="M1015.97,-351.84C976.54,-332.92 882.47,-287.77 835.97,-265.45"/>
<polygon fill="#63b8ff" stroke="#63b8ff" points="837.34,-262.22 826.81,-261.05 834.31,-268.53 837.34,-262.22"/>
</a>
</g>
</g>
<!-- Node30&#45;&gt;Node24 -->
<g id="edge55_Node000030_Node000024" class="edge">
<title>Node30&#45;&gt;Node24</title>
<g id="a_edge55_Node000030_Node000024"><a xlink:title=" ">
<path fill="none" stroke="#63b8ff" d="M1029.85,-351.9C1024.48,-339.73 1016.24,-316.74 1020,-297 1030.51,-241.88 1086.91,-222.82 1056,-176 1043.28,-156.74 1021.45,-144.87 1000.07,-137.57"/>
<polygon fill="#63b8ff" stroke="#63b8ff" points="1000.9,-134.16 990.31,-134.52 998.82,-140.84 1000.9,-134.16"/>
</a>
</g>
</g>
<!-- Node30&#45;&gt;Node25 -->
<g id="edge58_Node000030_Node000025" class="edge">
<title>Node30&#45;&gt;Node25</title>
<g id="a_edge58_Node000030_Node000025"><a xlink:title=" ">
<path fill="none" stroke="#63b8ff" d="M1005.15,-351.91C916.08,-325.4 644.25,-244.47 525.04,-208.98"/>
<polygon fill="#63b8ff" stroke="#63b8ff" points="525.94,-205.6 515.36,-206.1 523.94,-212.31 525.94,-205.6"/>
</a>
</g>
</g>
<!-- Node31 -->
<g id="Node000031" class="node">
<title>Node31</title>
<g id="a_Node000031"><a xlink:title=" ">
<polygon fill="#e0e0e0" stroke="#999999" points="1115.5,-316 1062.5,-316 1062.5,-297 1115.5,-297 1115.5,-316"/>
<text text-anchor="middle" x="1089" y="-304" font-family="Helvetica,sans-Serif" font-size="10.00">cstddef</text>
</a>
</g>
</g>
<!-- Node30&#45;&gt;Node31 -->
<g id="edge49_Node000030_Node000031" class="edge">
<title>Node30&#45;&gt;Node31</title>
<g id="a_edge49_Node000030_Node000031"><a xlink:title=" ">
<path fill="none" stroke="#63b8ff" d="M1043.08,-351.75C1051.09,-344.03 1062.96,-332.6 1072.62,-323.28"/>
<polygon fill="#63b8ff" stroke="#63b8ff" points="1075.31,-325.55 1080.09,-316.09 1070.46,-320.51 1075.31,-325.55"/>
</a>
</g>
</g>
<!-- Node32 -->
<g id="Node000032" class="node">
<title>Node32</title>
<g id="a_Node000032"><a xlink:title=" ">
<polygon fill="#e0e0e0" stroke="#999999" points="1184.5,-316 1133.5,-316 1133.5,-297 1184.5,-297 1184.5,-316"/>
<text text-anchor="middle" x="1159" y="-304" font-family="Helvetica,sans-Serif" font-size="10.00">variant</text>
</a>
</g>
</g>
<!-- Node30&#45;&gt;Node32 -->
<g id="edge54_Node000030_Node000032" class="edge">
<title>Node30&#45;&gt;Node32</title>
<g id="a_edge54_Node000030_Node000032"><a xlink:title=" ">
<path fill="none" stroke="#63b8ff" d="M1054.08,-351.98C1074.37,-343.38 1105.96,-329.99 1129.17,-320.15"/>
<polygon fill="#63b8ff" stroke="#63b8ff" points="1130.71,-323.3 1138.55,-316.17 1127.98,-316.85 1130.71,-323.3"/>
</a>
</g>
</g>
</g>
</svg>
