<?xml version="1.0" encoding="UTF-8" standalone="no"?>
<!DOCTYPE svg PUBLIC "-//W3C//DTD SVG 1.1//EN"
 "http://www.w3.org/Graphics/SVG/1.1/DTD/svg11.dtd">
<!-- Generated by graphviz version 2.43.0 (0)
 -->
<!-- Title: /home/runner/work/open62541pp/open62541pp/include/open62541pp/Event.h Pages: 1 -->
<svg width="1705pt" height="599pt"
 viewBox="0.00 0.00 1705.00 599.00" xmlns="http://www.w3.org/2000/svg" xmlns:xlink="http://www.w3.org/1999/xlink">
<g id="graph0" class="graph" transform="scale(1 1) rotate(0) translate(4 595)">
<title>/home/runner/work/open62541pp/open62541pp/include/open62541pp/Event.h</title>
<!-- Node1 -->
<g id="Node000001" class="node">
<title>Node1</title>
<g id="a_Node000001"><a xlink:title=" ">
<polygon fill="#999999" stroke="#666666" points="1060.5,-591 867.5,-591 867.5,-550 1060.5,-550 1060.5,-591"/>
<text text-anchor="start" x="875.5" y="-579" font-family="Helvetica,sans-Serif" font-size="10.00">/home/runner/work/open62541pp</text>
<text text-anchor="start" x="875.5" y="-568" font-family="Helvetica,sans-Serif" font-size="10.00">/open62541pp/include/open62541pp</text>
<text text-anchor="middle" x="964" y="-557" font-family="Helvetica,sans-Serif" font-size="10.00">/Event.h</text>
</a>
</g>
</g>
<!-- Node2 -->
<g id="Node000002" class="node">
<title>Node2</title>
<g id="a_Node000002"><a xlink:title=" ">
<polygon fill="#e0e0e0" stroke="#999999" points="118,-266.5 68,-266.5 68,-247.5 118,-247.5 118,-266.5"/>
<text text-anchor="middle" x="93" y="-254.5" font-family="Helvetica,sans-Serif" font-size="10.00">cstdint</text>
</a>
</g>
</g>
<!-- Node1&#45;&gt;Node2 -->
<g id="edge1_Node000001_Node000002" class="edge">
<title>Node1&#45;&gt;Node2</title>
<g id="a_edge1_Node000001_Node000002"><a xlink:title=" ">
<path fill="none" stroke="#63b8ff" d="M867.15,-567.57C622.7,-561.42 0,-537.24 0,-450.5 0,-450.5 0,-450.5 0,-388 0,-338.42 45.3,-294.73 72.67,-272.85"/>
<polygon fill="#63b8ff" stroke="#63b8ff" points="75.07,-275.42 80.84,-266.53 70.79,-269.88 75.07,-275.42"/>
</a>
</g>
</g>
<!-- Node3 -->
<g id="Node000003" class="node">
<title>Node3</title>
<g id="a_Node000003"><a xlink:title=" ">
<polygon fill="#e0e0e0" stroke="#999999" points="1274.5,-332.5 1201.5,-332.5 1201.5,-313.5 1274.5,-313.5 1274.5,-332.5"/>
<text text-anchor="middle" x="1238" y="-320.5" font-family="Helvetica,sans-Serif" font-size="10.00">string_view</text>
</a>
</g>
</g>
<!-- Node1&#45;&gt;Node3 -->
<g id="edge2_Node000001_Node000003" class="edge">
<title>Node1&#45;&gt;Node3</title>
<g id="a_edge2_Node000001_Node000003"><a xlink:title=" ">
<path fill="none" stroke="#63b8ff" d="M1060.74,-559.8C1180.61,-545.55 1374.43,-514.45 1418,-459 1463.22,-401.45 1345.81,-355.82 1279.61,-335.49"/>
<polygon fill="#63b8ff" stroke="#63b8ff" points="1280.44,-332.09 1269.85,-332.57 1278.42,-338.79 1280.44,-332.09"/>
</a>
</g>
</g>
<!-- Node4 -->
<g id="Node000004" class="node">
<title>Node4</title>
<g id="a_Node000004"><a xlink:href="NodeIds_8h.html" target="_top" xlink:title=" ">
<polygon fill="white" stroke="#666666" points="1409,-459 1275,-459 1275,-440 1409,-440 1409,-459"/>
<text text-anchor="middle" x="1342" y="-447" font-family="Helvetica,sans-Serif" font-size="10.00">open62541pp/NodeIds.h</text>
</a>
</g>
</g>
<!-- Node1&#45;&gt;Node4 -->
<g id="edge3_Node000001_Node000004" class="edge">
<title>Node1&#45;&gt;Node4</title>
<g id="a_edge3_Node000001_Node000004"><a xlink:title=" ">
<path fill="none" stroke="#63b8ff" d="M1026,-549.98C1105.32,-525.01 1240.2,-482.55 1305.04,-462.13"/>
<polygon fill="#63b8ff" stroke="#63b8ff" points="1306.34,-465.4 1314.83,-459.05 1304.24,-458.72 1306.34,-465.4"/>
</a>
</g>
</g>
<!-- Node5 -->
<g id="Node000005" class="node">
<title>Node5</title>
<g id="a_Node000005"><a xlink:href="Builtin_8h.html" target="_top" xlink:title=" ">
<polygon fill="white" stroke="#666666" points="841,-459 685,-459 685,-440 841,-440 841,-459"/>
<text text-anchor="middle" x="763" y="-447" font-family="Helvetica,sans-Serif" font-size="10.00">open62541pp/types/Builtin.h</text>
</a>
</g>
</g>
<!-- Node1&#45;&gt;Node5 -->
<g id="edge4_Node000001_Node000005" class="edge">
<title>Node1&#45;&gt;Node5</title>
<g id="a_edge4_Node000001_Node000005"><a xlink:title=" ">
<path fill="none" stroke="#63b8ff" d="M930.81,-549.85C890.07,-525.73 822.03,-485.45 786.39,-464.35"/>
<polygon fill="#63b8ff" stroke="#63b8ff" points="788.04,-461.26 777.65,-459.18 784.47,-467.28 788.04,-461.26"/>
</a>
</g>
</g>
<!-- Node38 -->
<g id="Node000038" class="node">
<title>Node38</title>
<g id="a_Node000038"><a xlink:href="NodeId_8h.html" target="_top" xlink:title=" ">
<polygon fill="white" stroke="#666666" points="1043.5,-514 884.5,-514 884.5,-495 1043.5,-495 1043.5,-514"/>
<text text-anchor="middle" x="964" y="-502" font-family="Helvetica,sans-Serif" font-size="10.00">open62541pp/types/NodeId.h</text>
</a>
</g>
</g>
<!-- Node1&#45;&gt;Node38 -->
<g id="edge61_Node000001_Node000038" class="edge">
<title>Node1&#45;&gt;Node38</title>
<g id="a_edge61_Node000001_Node000038"><a xlink:title=" ">
<path fill="none" stroke="#63b8ff" d="M964,-549.95C964,-541.85 964,-532.5 964,-524.47"/>
<polygon fill="#63b8ff" stroke="#63b8ff" points="967.5,-524.26 964,-514.26 960.5,-524.26 967.5,-524.26"/>
</a>
</g>
</g>
<!-- Node5&#45;&gt;Node2 -->
<g id="edge7_Node000005_Node000002" class="edge">
<title>Node5&#45;&gt;Node2</title>
<g id="a_edge7_Node000005_Node000002"><a xlink:title=" ">
<path fill="none" stroke="#63b8ff" d="M684.58,-444.75C581.21,-439.03 405.41,-426.34 345,-404 296.44,-386.04 290.87,-368.46 249,-338 231.32,-325.13 228.87,-319.05 210,-308 202.08,-303.36 155.08,-283.65 123.11,-270.41"/>
<polygon fill="#63b8ff" stroke="#63b8ff" points="124.31,-267.11 113.73,-266.53 121.64,-273.58 124.31,-267.11"/>
</a>
</g>
</g>
<!-- Node5&#45;&gt;Node3 -->
<g id="edge10_Node000005_Node000003" class="edge">
<title>Node5&#45;&gt;Node3</title>
<g id="a_edge10_Node000005_Node000003"><a xlink:title=" ">
<path fill="none" stroke="#63b8ff" d="M841.29,-444.12C956.52,-437.11 1161.32,-422.27 1190,-404 1212.37,-389.75 1225.77,-360.99 1232.51,-342.12"/>
<polygon fill="#63b8ff" stroke="#63b8ff" points="1235.85,-343.17 1235.66,-332.57 1229.2,-340.97 1235.85,-343.17"/>
</a>
</g>
</g>
<!-- Node6 -->
<g id="Node000006" class="node">
<title>Node6</title>
<g id="a_Node000006"><a xlink:title=" ">
<polygon fill="#e0e0e0" stroke="#999999" points="887,-266.5 823,-266.5 823,-247.5 887,-247.5 887,-266.5"/>
<text text-anchor="middle" x="855" y="-254.5" font-family="Helvetica,sans-Serif" font-size="10.00">algorithm</text>
</a>
</g>
</g>
<!-- Node5&#45;&gt;Node6 -->
<g id="edge5_Node000005_Node000006" class="edge">
<title>Node5&#45;&gt;Node6</title>
<g id="a_edge5_Node000005_Node000006"><a xlink:title=" ">
<path fill="none" stroke="#63b8ff" d="M776.98,-439.99C788.81,-432.08 805.33,-419.25 815,-404 840.85,-363.25 850.19,-305.84 853.41,-276.64"/>
<polygon fill="#63b8ff" stroke="#63b8ff" points="856.91,-276.9 854.4,-266.6 849.94,-276.22 856.91,-276.9"/>
</a>
</g>
</g>
<!-- Node7 -->
<g id="Node000007" class="node">
<title>Node7</title>
<g id="a_Node000007"><a xlink:title=" ">
<polygon fill="#e0e0e0" stroke="#999999" points="603,-398.5 561,-398.5 561,-379.5 603,-379.5 603,-398.5"/>
<text text-anchor="middle" x="582" y="-386.5" font-family="Helvetica,sans-Serif" font-size="10.00">array</text>
</a>
</g>
</g>
<!-- Node5&#45;&gt;Node7 -->
<g id="edge6_Node000005_Node000007" class="edge">
<title>Node5&#45;&gt;Node7</title>
<g id="a_edge6_Node000005_Node000007"><a xlink:title=" ">
<path fill="none" stroke="#63b8ff" d="M728.63,-439.95C697.71,-431.88 651.24,-418.84 612,-404 610.95,-403.6 609.89,-403.19 608.82,-402.75"/>
<polygon fill="#63b8ff" stroke="#63b8ff" points="609.83,-399.37 599.26,-398.59 607.03,-405.79 609.83,-399.37"/>
</a>
</g>
</g>
<!-- Node8 -->
<g id="Node000008" class="node">
<title>Node8</title>
<g id="a_Node000008"><a xlink:title=" ">
<polygon fill="#e0e0e0" stroke="#999999" points="669,-398.5 621,-398.5 621,-379.5 669,-379.5 669,-398.5"/>
<text text-anchor="middle" x="645" y="-386.5" font-family="Helvetica,sans-Serif" font-size="10.00">iosfwd</text>
</a>
</g>
</g>
<!-- Node5&#45;&gt;Node8 -->
<g id="edge8_Node000005_Node000008" class="edge">
<title>Node5&#45;&gt;Node8</title>
<g id="a_edge8_Node000005_Node000008"><a xlink:title=" ">
<path fill="none" stroke="#63b8ff" d="M745.84,-439.99C726.27,-430.29 694.03,-414.31 671.28,-403.03"/>
<polygon fill="#63b8ff" stroke="#63b8ff" points="672.69,-399.82 662.18,-398.52 669.58,-406.09 672.69,-399.82"/>
</a>
</g>
</g>
<!-- Node9 -->
<g id="Node000009" class="node">
<title>Node9</title>
<g id="a_Node000009"><a xlink:title=" ">
<polygon fill="#e0e0e0" stroke="#999999" points="1063,-332.5 1019,-332.5 1019,-313.5 1063,-313.5 1063,-332.5"/>
<text text-anchor="middle" x="1041" y="-320.5" font-family="Helvetica,sans-Serif" font-size="10.00">string</text>
</a>
</g>
</g>
<!-- Node5&#45;&gt;Node9 -->
<g id="edge9_Node000005_Node000009" class="edge">
<title>Node5&#45;&gt;Node9</title>
<g id="a_edge9_Node000005_Node000009"><a xlink:title=" ">
<path fill="none" stroke="#63b8ff" d="M791.7,-439.93C817.97,-431.76 857.7,-418.56 891,-404 937.16,-383.81 988.46,-354.98 1017.51,-338"/>
<polygon fill="#63b8ff" stroke="#63b8ff" points="1019.63,-340.82 1026.48,-332.73 1016.08,-334.78 1019.63,-340.82"/>
</a>
</g>
</g>
<!-- Node10 -->
<g id="Node000010" class="node">
<title>Node10</title>
<g id="a_Node000010"><a xlink:title=" ">
<polygon fill="#e0e0e0" stroke="#999999" points="580.5,-332.5 535.5,-332.5 535.5,-313.5 580.5,-313.5 580.5,-332.5"/>
<text text-anchor="middle" x="558" y="-320.5" font-family="Helvetica,sans-Serif" font-size="10.00">utility</text>
</a>
</g>
</g>
<!-- Node5&#45;&gt;Node10 -->
<g id="edge11_Node000005_Node000010" class="edge">
<title>Node5&#45;&gt;Node10</title>
<g id="a_edge11_Node000005_Node000010"><a xlink:title=" ">
<path fill="none" stroke="#63b8ff" d="M763.33,-439.74C763.4,-424.2 761.2,-391.78 743,-374 694.57,-326.7 659.67,-358.02 595,-338 593.08,-337.41 591.12,-336.76 589.14,-336.1"/>
<polygon fill="#63b8ff" stroke="#63b8ff" points="589.96,-332.67 579.37,-332.6 587.6,-339.26 589.96,-332.67"/>
</a>
</g>
</g>
<!-- Node11 -->
<g id="Node000011" class="node">
<title>Node11</title>
<g id="a_Node000011"><a xlink:title=" ">
<polygon fill="#e0e0e0" stroke="#999999" points="734.5,-398.5 687.5,-398.5 687.5,-379.5 734.5,-379.5 734.5,-398.5"/>
<text text-anchor="middle" x="711" y="-386.5" font-family="Helvetica,sans-Serif" font-size="10.00">vector</text>
</a>
</g>
</g>
<!-- Node5&#45;&gt;Node11 -->
<g id="edge12_Node000005_Node000011" class="edge">
<title>Node5&#45;&gt;Node11</title>
<g id="a_edge12_Node000005_Node000011"><a xlink:title=" ">
<path fill="none" stroke="#63b8ff" d="M755.33,-439.87C747.49,-431.05 735.14,-417.16 725.46,-406.27"/>
<polygon fill="#63b8ff" stroke="#63b8ff" points="727.96,-403.82 718.7,-398.67 722.73,-408.47 727.96,-403.82"/>
</a>
</g>
</g>
<!-- Node12 -->
<g id="Node000012" class="node">
<title>Node12</title>
<g id="a_Node000012"><a xlink:href="Common_8h.html" target="_top" xlink:title=" ">
<polygon fill="white" stroke="#666666" points="397.5,-332.5 258.5,-332.5 258.5,-313.5 397.5,-313.5 397.5,-332.5"/>
<text text-anchor="middle" x="328" y="-320.5" font-family="Helvetica,sans-Serif" font-size="10.00">open62541pp/Common.h</text>
</a>
</g>
</g>
<!-- Node5&#45;&gt;Node12 -->
<g id="edge13_Node000005_Node000012" class="edge">
<title>Node5&#45;&gt;Node12</title>
<g id="a_edge13_Node000005_Node000012"><a xlink:title=" ">
<path fill="none" stroke="#63b8ff" d="M684.96,-447.55C586.93,-445 425.53,-435.92 376,-404 353.7,-389.63 340.29,-360.91 333.52,-342.07"/>
<polygon fill="#63b8ff" stroke="#63b8ff" points="336.83,-340.93 330.35,-332.55 330.19,-343.14 336.83,-340.93"/>
</a>
</g>
</g>
<!-- Node15 -->
<g id="Node000015" class="node">
<title>Node15</title>
<g id="a_Node000015"><a xlink:href="ErrorHandling_8h.html" target="_top" xlink:title=" ">
<polygon fill="white" stroke="#666666" points="620.5,-266.5 459.5,-266.5 459.5,-247.5 620.5,-247.5 620.5,-266.5"/>
<text text-anchor="middle" x="540" y="-254.5" font-family="Helvetica,sans-Serif" font-size="10.00">open62541pp/ErrorHandling.h</text>
</a>
</g>
</g>
<!-- Node5&#45;&gt;Node15 -->
<g id="edge17_Node000005_Node000015" class="edge">
<title>Node5&#45;&gt;Node15</title>
<g id="a_edge17_Node000005_Node000015"><a xlink:title=" ">
<path fill="none" stroke="#63b8ff" d="M766.49,-439.6C771.81,-424.41 779.85,-393.26 765,-374 726.55,-324.15 683.33,-368.04 628,-338 611.99,-329.31 576.24,-294.59 555.57,-273.85"/>
<polygon fill="#63b8ff" stroke="#63b8ff" points="557.98,-271.32 548.46,-266.67 553.01,-276.24 557.98,-271.32"/>
</a>
</g>
</g>
<!-- Node18 -->
<g id="Node000018" class="node">
<title>Node18</title>
<g id="a_Node000018"><a xlink:href="common_8h.html" target="_top" xlink:title=" ">
<polygon fill="white" stroke="#666666" points="998,-206 870,-206 870,-176 998,-176 998,-206"/>
<text text-anchor="start" x="878" y="-194" font-family="Helvetica,sans-Serif" font-size="10.00">open62541pp/detail</text>
<text text-anchor="middle" x="934" y="-183" font-family="Helvetica,sans-Serif" font-size="10.00">/open62541/common.h</text>
</a>
</g>
</g>
<!-- Node5&#45;&gt;Node18 -->
<g id="edge55_Node000005_Node000018" class="edge">
<title>Node5&#45;&gt;Node18</title>
<g id="a_edge55_Node000005_Node000018"><a xlink:title=" ">
<path fill="none" stroke="#63b8ff" d="M782.62,-439.87C798.6,-432.15 821.05,-419.64 837,-404 886.49,-355.49 895.12,-336.68 920,-272 926.91,-254.04 930.43,-232.49 932.21,-216.28"/>
<polygon fill="#63b8ff" stroke="#63b8ff" points="935.73,-216.31 933.19,-206.02 928.76,-215.65 935.73,-216.31"/>
</a>
</g>
</g>
<!-- Node30 -->
<g id="Node000030" class="node">
<title>Node30</title>
<g id="a_Node000030"><a xlink:href="TypeWrapper_8h.html" target="_top" xlink:title=" ">
<polygon fill="white" stroke="#666666" points="543,-398.5 385,-398.5 385,-379.5 543,-379.5 543,-398.5"/>
<text text-anchor="middle" x="464" y="-386.5" font-family="Helvetica,sans-Serif" font-size="10.00">open62541pp/TypeWrapper.h</text>
</a>
</g>
</g>
<!-- Node5&#45;&gt;Node30 -->
<g id="edge36_Node000005_Node000030" class="edge">
<title>Node5&#45;&gt;Node30</title>
<g id="a_edge36_Node000005_Node000030"><a xlink:title=" ">
<path fill="none" stroke="#63b8ff" d="M719.52,-439.99C666.05,-429.53 575.28,-411.77 517.55,-400.48"/>
<polygon fill="#63b8ff" stroke="#63b8ff" points="518.02,-397 507.53,-398.52 516.67,-403.87 518.02,-397"/>
</a>
</g>
</g>
<!-- Node32 -->
<g id="Node000032" class="node">
<title>Node32</title>
<g id="a_Node000032"><a xlink:href="Wrapper_8h.html" target="_top" xlink:title=" ">
<polygon fill="white" stroke="#666666" points="201.5,-332.5 66.5,-332.5 66.5,-313.5 201.5,-313.5 201.5,-332.5"/>
<text text-anchor="middle" x="134" y="-320.5" font-family="Helvetica,sans-Serif" font-size="10.00">open62541pp/Wrapper.h</text>
</a>
</g>
</g>
<!-- Node5&#45;&gt;Node32 -->
<g id="edge54_Node000005_Node000032" class="edge">
<title>Node5&#45;&gt;Node32</title>
<g id="a_edge54_Node000005_Node000032"><a xlink:title=" ">
<path fill="none" stroke="#63b8ff" d="M684.97,-448.6C554.31,-447.71 297.52,-441.1 216,-404 185.66,-390.19 159.91,-360.18 145.73,-341.1"/>
<polygon fill="#63b8ff" stroke="#63b8ff" points="148.4,-338.82 139.74,-332.73 142.71,-342.89 148.4,-338.82"/>
</a>
</g>
</g>
<!-- Node36 -->
<g id="Node000036" class="node">
<title>Node36</title>
<g id="a_Node000036"><a xlink:href="string__utils_8h.html" target="_top" xlink:title=" ">
<polygon fill="white" stroke="#666666" points="1181.5,-404 1068.5,-404 1068.5,-374 1181.5,-374 1181.5,-404"/>
<text text-anchor="start" x="1076.5" y="-392" font-family="Helvetica,sans-Serif" font-size="10.00">open62541pp/detail</text>
<text text-anchor="middle" x="1125" y="-381" font-family="Helvetica,sans-Serif" font-size="10.00">/string_utils.h</text>
</a>
</g>
</g>
<!-- Node5&#45;&gt;Node36 -->
<g id="edge56_Node000005_Node000036" class="edge">
<title>Node5&#45;&gt;Node36</title>
<g id="a_edge56_Node000005_Node000036"><a xlink:title=" ">
<path fill="none" stroke="#63b8ff" d="M815.64,-439.99C879.84,-429.62 988.43,-412.07 1058.39,-400.76"/>
<polygon fill="#63b8ff" stroke="#63b8ff" points="1059.11,-404.19 1068.42,-399.14 1057.99,-397.28 1059.11,-404.19"/>
</a>
</g>
</g>
<!-- Node12&#45;&gt;Node2 -->
<g id="edge14_Node000012_Node000002" class="edge">
<title>Node12&#45;&gt;Node2</title>
<g id="a_edge14_Node000012_Node000002"><a xlink:title=" ">
<path fill="none" stroke="#63b8ff" d="M285.92,-313.42C244.89,-304.61 180.98,-289.72 127,-272 125.37,-271.47 123.72,-270.89 122.05,-270.29"/>
<polygon fill="#63b8ff" stroke="#63b8ff" points="123.18,-266.97 112.59,-266.64 120.66,-273.5 123.18,-266.97"/>
</a>
</g>
</g>
<!-- Node13 -->
<g id="Node000013" class="node">
<title>Node13</title>
<g id="a_Node000013"><a xlink:href="Bitmask_8h.html" target="_top" xlink:title=" ">
<polygon fill="white" stroke="#666666" points="271.5,-266.5 136.5,-266.5 136.5,-247.5 271.5,-247.5 271.5,-266.5"/>
<text text-anchor="middle" x="204" y="-254.5" font-family="Helvetica,sans-Serif" font-size="10.00">open62541pp/Bitmask.h</text>
</a>
</g>
</g>
<!-- Node12&#45;&gt;Node13 -->
<g id="edge15_Node000012_Node000013" class="edge">
<title>Node12&#45;&gt;Node13</title>
<g id="a_edge15_Node000012_Node000013"><a xlink:title=" ">
<path fill="none" stroke="#63b8ff" d="M311.28,-313.37C290.38,-302.59 254.41,-284.02 229.93,-271.38"/>
<polygon fill="#63b8ff" stroke="#63b8ff" points="231.35,-268.18 220.85,-266.7 228.14,-274.4 231.35,-268.18"/>
</a>
</g>
</g>
<!-- Node14 -->
<g id="Node000014" class="node">
<title>Node14</title>
<g id="a_Node000014"><a xlink:title=" ">
<polygon fill="#e0e0e0" stroke="#999999" points="286.5,-200.5 217.5,-200.5 217.5,-181.5 286.5,-181.5 286.5,-200.5"/>
<text text-anchor="middle" x="252" y="-188.5" font-family="Helvetica,sans-Serif" font-size="10.00">type_traits</text>
</a>
</g>
</g>
<!-- Node13&#45;&gt;Node14 -->
<g id="edge16_Node000013_Node000014" class="edge">
<title>Node13&#45;&gt;Node14</title>
<g id="a_edge16_Node000013_Node000014"><a xlink:title=" ">
<path fill="none" stroke="#63b8ff" d="M210.47,-247.37C217.8,-237.59 229.93,-221.42 239.19,-209.08"/>
<polygon fill="#63b8ff" stroke="#63b8ff" points="242.12,-211.01 245.32,-200.91 236.52,-206.81 242.12,-211.01"/>
</a>
</g>
</g>
<!-- Node16 -->
<g id="Node000016" class="node">
<title>Node16</title>
<g id="a_Node000016"><a xlink:title=" ">
<polygon fill="#e0e0e0" stroke="#999999" points="593.5,-200.5 556.5,-200.5 556.5,-181.5 593.5,-181.5 593.5,-200.5"/>
<text text-anchor="middle" x="575" y="-188.5" font-family="Helvetica,sans-Serif" font-size="10.00">new</text>
</a>
</g>
</g>
<!-- Node15&#45;&gt;Node16 -->
<g id="edge18_Node000015_Node000016" class="edge">
<title>Node15&#45;&gt;Node16</title>
<g id="a_edge18_Node000015_Node000016"><a xlink:title=" ">
<path fill="none" stroke="#63b8ff" d="M544.72,-247.37C549.96,-237.78 558.57,-222.05 565.27,-209.8"/>
<polygon fill="#63b8ff" stroke="#63b8ff" points="568.4,-211.36 570.13,-200.91 562.26,-208 568.4,-211.36"/>
</a>
</g>
</g>
<!-- Node17 -->
<g id="Node000017" class="node">
<title>Node17</title>
<g id="a_Node000017"><a xlink:title=" ">
<polygon fill="#e0e0e0" stroke="#999999" points="538.5,-200.5 473.5,-200.5 473.5,-181.5 538.5,-181.5 538.5,-200.5"/>
<text text-anchor="middle" x="506" y="-188.5" font-family="Helvetica,sans-Serif" font-size="10.00">stdexcept</text>
</a>
</g>
</g>
<!-- Node15&#45;&gt;Node17 -->
<g id="edge19_Node000015_Node000017" class="edge">
<title>Node15&#45;&gt;Node17</title>
<g id="a_edge19_Node000015_Node000017"><a xlink:title=" ">
<path fill="none" stroke="#63b8ff" d="M535.41,-247.37C530.32,-237.78 521.96,-222.05 515.46,-209.8"/>
<polygon fill="#63b8ff" stroke="#63b8ff" points="518.51,-208.09 510.73,-200.91 512.33,-211.38 518.51,-208.09"/>
</a>
</g>
</g>
<!-- Node15&#45;&gt;Node18 -->
<g id="edge20_Node000015_Node000018" class="edge">
<title>Node15&#45;&gt;Node18</title>
<g id="a_edge20_Node000015_Node000018"><a xlink:title=" ">
<path fill="none" stroke="#63b8ff" d="M592.73,-247.44C661.36,-236.29 781.71,-216.74 859.61,-204.08"/>
<polygon fill="#63b8ff" stroke="#63b8ff" points="860.52,-207.48 869.83,-202.42 859.4,-200.57 860.52,-207.48"/>
</a>
</g>
</g>
<!-- Node19 -->
<g id="Node000019" class="node">
<title>Node19</title>
<g id="a_Node000019"><a xlink:href="push__options_8h.html" target="_top" xlink:title=" ">
<polygon fill="white" stroke="#666666" points="659,-30 509,-30 509,0 659,0 659,-30"/>
<text text-anchor="start" x="517" y="-18" font-family="Helvetica,sans-Serif" font-size="10.00">open62541pp/detail</text>
<text text-anchor="middle" x="584" y="-7" font-family="Helvetica,sans-Serif" font-size="10.00">/open62541/push_options.h</text>
</a>
</g>
</g>
<!-- Node18&#45;&gt;Node19 -->
<g id="edge21_Node000018_Node000019" class="edge">
<title>Node18&#45;&gt;Node19</title>
<g id="a_edge21_Node000018_Node000019"><a xlink:title=" ">
<path fill="none" stroke="#63b8ff" d="M869.9,-189.8C781.65,-188.04 629.46,-179.23 593,-140 568.22,-113.34 572.18,-68.01 577.77,-40.16"/>
<polygon fill="#63b8ff" stroke="#63b8ff" points="581.26,-40.6 580.02,-30.08 574.42,-39.08 581.26,-40.6"/>
</a>
</g>
</g>
<!-- Node20 -->
<g id="Node000020" class="node">
<title>Node20</title>
<g id="a_Node000020"><a target="_blank" xlink:href="open62541/nodeids_8h.html" xlink:title=" ">
<polygon fill="white" stroke="#666666" points="1039.5,-140 918.5,-140 918.5,-121 1039.5,-121 1039.5,-140"/>
<text text-anchor="middle" x="979" y="-128" font-family="Helvetica,sans-Serif" font-size="10.00">open62541/nodeids.h</text>
</a>
</g>
</g>
<!-- Node18&#45;&gt;Node20 -->
<g id="edge22_Node000018_Node000020" class="edge">
<title>Node18&#45;&gt;Node20</title>
<g id="a_edge22_Node000018_Node000020"><a xlink:title=" ">
<path fill="none" stroke="#63b8ff" d="M944.89,-175.84C951.29,-167.52 959.42,-156.96 966.13,-148.23"/>
<polygon fill="#63b8ff" stroke="#63b8ff" points="968.93,-150.33 972.26,-140.27 963.39,-146.06 968.93,-150.33"/>
</a>
</g>
</g>
<!-- Node21 -->
<g id="Node000021" class="node">
<title>Node21</title>
<g id="a_Node000021"><a target="_blank" xlink:href="open62541/statuscodes_8h.html" xlink:title=" ">
<polygon fill="white" stroke="#666666" points="1198.5,-140 1057.5,-140 1057.5,-121 1198.5,-121 1198.5,-140"/>
<text text-anchor="middle" x="1128" y="-128" font-family="Helvetica,sans-Serif" font-size="10.00">open62541/statuscodes.h</text>
</a>
</g>
</g>
<!-- Node18&#45;&gt;Node21 -->
<g id="edge23_Node000018_Node000021" class="edge">
<title>Node18&#45;&gt;Node21</title>
<g id="a_edge23_Node000018_Node000021"><a xlink:title=" ">
<path fill="none" stroke="#63b8ff" d="M980.47,-175.99C1013.95,-165.89 1058.57,-152.44 1089.94,-142.98"/>
<polygon fill="#63b8ff" stroke="#63b8ff" points="1091.07,-146.29 1099.63,-140.05 1089.05,-139.59 1091.07,-146.29"/>
</a>
</g>
</g>
<!-- Node22 -->
<g id="Node000022" class="node">
<title>Node22</title>
<g id="a_Node000022"><a target="_blank" xlink:href="open62541/types_8h.html" xlink:title=" ">
<polygon fill="white" stroke="#666666" points="862,-140 752,-140 752,-121 862,-121 862,-140"/>
<text text-anchor="middle" x="807" y="-128" font-family="Helvetica,sans-Serif" font-size="10.00">open62541/types.h</text>
</a>
</g>
</g>
<!-- Node18&#45;&gt;Node22 -->
<g id="edge24_Node000018_Node000022" class="edge">
<title>Node18&#45;&gt;Node22</title>
<g id="a_edge24_Node000018_Node000022"><a xlink:title=" ">
<path fill="none" stroke="#63b8ff" d="M897.72,-175.99C875.88,-166.49 848.83,-154.02 829.89,-144.69"/>
<polygon fill="#63b8ff" stroke="#63b8ff" points="831.31,-141.49 820.8,-140.14 828.17,-147.75 831.31,-141.49"/>
</a>
</g>
</g>
<!-- Node25 -->
<g id="Node000025" class="node">
<title>Node25</title>
<g id="a_Node000025"><a xlink:href="pop__options_8h.html" target="_top" xlink:title=" ">
<polygon fill="white" stroke="#666666" points="959.5,-30 814.5,-30 814.5,0 959.5,0 959.5,-30"/>
<text text-anchor="start" x="822.5" y="-18" font-family="Helvetica,sans-Serif" font-size="10.00">open62541pp/detail</text>
<text text-anchor="middle" x="887" y="-7" font-family="Helvetica,sans-Serif" font-size="10.00">/open62541/pop_options.h</text>
</a>
</g>
</g>
<!-- Node18&#45;&gt;Node25 -->
<g id="edge35_Node000018_Node000025" class="edge">
<title>Node18&#45;&gt;Node25</title>
<g id="a_edge35_Node000018_Node000025"><a xlink:title=" ">
<path fill="none" stroke="#63b8ff" d="M925.4,-175.6C919.94,-165.86 913.15,-152.53 909,-140 897.87,-106.37 892.02,-65.64 889.22,-40.27"/>
<polygon fill="#63b8ff" stroke="#63b8ff" points="892.68,-39.67 888.17,-30.08 885.71,-40.39 892.68,-39.67"/>
</a>
</g>
</g>
<!-- Node26 -->
<g id="Node000026" class="node">
<title>Node26</title>
<g id="a_Node000026"><a target="_blank" xlink:href="open62541/types__generated_8h.html" xlink:title=" ">
<polygon fill="white" stroke="#666666" points="1381,-140 1217,-140 1217,-121 1381,-121 1381,-140"/>
<text text-anchor="middle" x="1299" y="-128" font-family="Helvetica,sans-Serif" font-size="10.00">open62541/types_generated.h</text>
</a>
</g>
</g>
<!-- Node18&#45;&gt;Node26 -->
<g id="edge30_Node000018_Node000026" class="edge">
<title>Node18&#45;&gt;Node26</title>
<g id="a_edge30_Node000018_Node000026"><a xlink:title=" ">
<path fill="none" stroke="#63b8ff" d="M998.41,-179.68C1065.38,-168.94 1169.52,-152.25 1235.96,-141.6"/>
<polygon fill="#63b8ff" stroke="#63b8ff" points="1236.57,-145.05 1245.89,-140.01 1235.46,-138.14 1236.57,-145.05"/>
</a>
</g>
</g>
<!-- Node27 -->
<g id="Node000027" class="node">
<title>Node27</title>
<g id="a_Node000027"><a target="_blank" xlink:href="open62541/util_8h.html" xlink:title=" ">
<polygon fill="white" stroke="#666666" points="1497,-140 1399,-140 1399,-121 1497,-121 1497,-140"/>
<text text-anchor="middle" x="1448" y="-128" font-family="Helvetica,sans-Serif" font-size="10.00">open62541/util.h</text>
</a>
</g>
</g>
<!-- Node18&#45;&gt;Node27 -->
<g id="edge31_Node000018_Node000027" class="edge">
<title>Node18&#45;&gt;Node27</title>
<g id="a_edge31_Node000018_Node000027"><a xlink:title=" ">
<path fill="none" stroke="#63b8ff" d="M998.28,-183.69C1084.66,-175.06 1243.25,-158.61 1388.95,-140.09"/>
<polygon fill="#63b8ff" stroke="#63b8ff" points="1389.49,-143.55 1398.97,-138.81 1388.61,-136.61 1389.49,-143.55"/>
</a>
</g>
</g>
<!-- Node28 -->
<g id="Node000028" class="node">
<title>Node28</title>
<g id="a_Node000028"><a target="_blank" xlink:href="open62541/accesscontrol_8h.html" xlink:title=" ">
<polygon fill="white" stroke="#666666" points="1697,-140 1515,-140 1515,-121 1697,-121 1697,-140"/>
<text text-anchor="middle" x="1606" y="-128" font-family="Helvetica,sans-Serif" font-size="10.00">open62541/plugin/accesscontrol.h</text>
</a>
</g>
</g>
<!-- Node18&#45;&gt;Node28 -->
<g id="edge32_Node000018_Node000028" class="edge">
<title>Node18&#45;&gt;Node28</title>
<g id="a_edge32_Node000018_Node000028"><a xlink:title=" ">
<path fill="none" stroke="#63b8ff" d="M998.13,-184.42C1115.19,-174.23 1364.33,-152.54 1504.59,-140.33"/>
<polygon fill="#63b8ff" stroke="#63b8ff" points="1505.25,-143.78 1514.91,-139.43 1504.65,-136.81 1505.25,-143.78"/>
</a>
</g>
</g>
<!-- Node29 -->
<g id="Node000029" class="node">
<title>Node29</title>
<g id="a_Node000029"><a target="_blank" xlink:href="open62541/log_8h.html" xlink:title=" ">
<polygon fill="white" stroke="#666666" points="733.5,-140 602.5,-140 602.5,-121 733.5,-121 733.5,-140"/>
<text text-anchor="middle" x="668" y="-128" font-family="Helvetica,sans-Serif" font-size="10.00">open62541/plugin/log.h</text>
</a>
</g>
</g>
<!-- Node18&#45;&gt;Node29 -->
<g id="edge33_Node000018_Node000029" class="edge">
<title>Node18&#45;&gt;Node29</title>
<g id="a_edge33_Node000018_Node000029"><a xlink:title=" ">
<path fill="none" stroke="#63b8ff" d="M870.29,-175.99C823.19,-165.63 760.01,-151.73 716.86,-142.25"/>
<polygon fill="#63b8ff" stroke="#63b8ff" points="717.41,-138.78 706.89,-140.05 715.91,-145.62 717.41,-138.78"/>
</a>
</g>
</g>
<!-- Node22&#45;&gt;Node18 -->
<g id="edge29_Node000022_Node000018" class="edge">
<title>Node22&#45;&gt;Node18</title>
<g id="a_edge29_Node000022_Node000018"><a xlink:title=" ">
<path fill="none" stroke="#63b8ff" d="M830.71,-140.14C850.33,-148.36 878.22,-161 900.15,-171.49"/>
<polygon fill="#63b8ff" stroke="#63b8ff" points="898.91,-174.78 909.44,-175.99 901.96,-168.48 898.91,-174.78"/>
</a>
</g>
</g>
<!-- Node23 -->
<g id="Node000023" class="node">
<title>Node23</title>
<g id="a_Node000023"><a xlink:href="config_8h.html" target="_top" xlink:title=" ">
<polygon fill="white" stroke="#666666" points="794,-85 682,-85 682,-66 794,-66 794,-85"/>
<text text-anchor="middle" x="738" y="-73" font-family="Helvetica,sans-Serif" font-size="10.00">open62541/config.h</text>
</a>
</g>
</g>
<!-- Node22&#45;&gt;Node23 -->
<g id="edge25_Node000022_Node000023" class="edge">
<title>Node22&#45;&gt;Node23</title>
<g id="a_edge25_Node000022_Node000023"><a xlink:title=" ">
<path fill="none" stroke="#63b8ff" d="M795.91,-120.98C785.51,-113 769.74,-100.88 757.28,-91.31"/>
<polygon fill="#63b8ff" stroke="#63b8ff" points="759.35,-88.49 749.29,-85.17 755.09,-94.04 759.35,-88.49"/>
</a>
</g>
</g>
<!-- Node23&#45;&gt;Node19 -->
<g id="edge26_Node000023_Node000019" class="edge">
<title>Node23&#45;&gt;Node19</title>
<g id="a_edge26_Node000023_Node000019"><a xlink:title=" ">
<path fill="none" stroke="#63b8ff" d="M715.61,-65.99C693.44,-57.57 658.85,-44.43 630.69,-33.73"/>
<polygon fill="#63b8ff" stroke="#63b8ff" points="631.61,-30.34 621.02,-30.06 629.13,-36.89 631.61,-30.34"/>
</a>
</g>
</g>
<!-- Node24 -->
<g id="Node000024" class="node">
<title>Node24</title>
<g id="a_Node000024"><a xlink:title=" ">
<polygon fill="#e0e0e0" stroke="#999999" points="794,-24.5 682,-24.5 682,-5.5 794,-5.5 794,-24.5"/>
<text text-anchor="middle" x="738" y="-12.5" font-family="Helvetica,sans-Serif" font-size="10.00">open62541/config.h</text>
</a>
</g>
</g>
<!-- Node23&#45;&gt;Node24 -->
<g id="edge27_Node000023_Node000024" class="edge">
<title>Node23&#45;&gt;Node24</title>
<g id="a_edge27_Node000023_Node000024"><a xlink:title=" ">
<path fill="none" stroke="#63b8ff" d="M738,-65.87C738,-57.75 738,-45.31 738,-34.89"/>
<polygon fill="#63b8ff" stroke="#63b8ff" points="741.5,-34.67 738,-24.67 734.5,-34.67 741.5,-34.67"/>
</a>
</g>
</g>
<!-- Node23&#45;&gt;Node25 -->
<g id="edge28_Node000023_Node000025" class="edge">
<title>Node23&#45;&gt;Node25</title>
<g id="a_edge28_Node000023_Node000025"><a xlink:title=" ">
<path fill="none" stroke="#63b8ff" d="M759.67,-65.99C781.11,-57.57 814.58,-44.43 841.83,-33.73"/>
<polygon fill="#63b8ff" stroke="#63b8ff" points="843.15,-36.98 851.18,-30.06 840.59,-30.46 843.15,-36.98"/>
</a>
</g>
</g>
<!-- Node29&#45;&gt;Node23 -->
<g id="edge34_Node000029_Node000023" class="edge">
<title>Node29&#45;&gt;Node23</title>
<g id="a_edge34_Node000029_Node000023"><a xlink:title=" ">
<path fill="none" stroke="#63b8ff" d="M679.25,-120.98C689.8,-113 705.8,-100.88 718.44,-91.31"/>
<polygon fill="#63b8ff" stroke="#63b8ff" points="720.69,-94 726.55,-85.17 716.46,-88.42 720.69,-94"/>
</a>
</g>
</g>
<!-- Node30&#45;&gt;Node2 -->
<g id="edge38_Node000030_Node000002" class="edge">
<title>Node30&#45;&gt;Node2</title>
<g id="a_edge38_Node000030_Node000002"><a xlink:title=" ">
<path fill="none" stroke="#63b8ff" d="M460.59,-379.45C453.36,-362.56 434.76,-325.08 406,-308 298.5,-244.16 247.84,-304.08 127,-272 125.06,-271.48 123.08,-270.88 121.1,-270.23"/>
<polygon fill="#63b8ff" stroke="#63b8ff" points="121.99,-266.82 111.4,-266.6 119.54,-273.38 121.99,-266.82"/>
</a>
</g>
</g>
<!-- Node30&#45;&gt;Node10 -->
<g id="edge40_Node000030_Node000010" class="edge">
<title>Node30&#45;&gt;Node10</title>
<g id="a_edge40_Node000030_Node000010"><a xlink:title=" ">
<path fill="none" stroke="#63b8ff" d="M476.68,-379.37C492.09,-368.87 518.35,-351 536.85,-338.4"/>
<polygon fill="#63b8ff" stroke="#63b8ff" points="538.93,-341.22 545.22,-332.7 534.99,-335.43 538.93,-341.22"/>
</a>
</g>
</g>
<!-- Node30&#45;&gt;Node12 -->
<g id="edge41_Node000030_Node000012" class="edge">
<title>Node30&#45;&gt;Node12</title>
<g id="a_edge41_Node000030_Node000012"><a xlink:title=" ">
<path fill="none" stroke="#63b8ff" d="M445.66,-379.37C422.54,-368.49 382.59,-349.69 355.73,-337.05"/>
<polygon fill="#63b8ff" stroke="#63b8ff" points="357.02,-333.79 346.49,-332.7 354.04,-340.12 357.02,-333.79"/>
</a>
</g>
</g>
<!-- Node30&#45;&gt;Node14 -->
<g id="edge39_Node000030_Node000014" class="edge">
<title>Node30&#45;&gt;Node14</title>
<g id="a_edge39_Node000030_Node000014"><a xlink:title=" ">
<path fill="none" stroke="#63b8ff" d="M463.44,-379.17C461.93,-362.8 456.36,-327.59 436,-308 396.8,-270.27 364.33,-302.09 319,-272 294.55,-255.77 274.21,-228.04 262.58,-209.87"/>
<polygon fill="#63b8ff" stroke="#63b8ff" points="265.27,-207.56 257.04,-200.89 259.31,-211.24 265.27,-207.56"/>
</a>
</g>
</g>
<!-- Node30&#45;&gt;Node15 -->
<g id="edge42_Node000030_Node000015" class="edge">
<title>Node30&#45;&gt;Node15</title>
<g id="a_edge42_Node000030_Node000015"><a xlink:title=" ">
<path fill="none" stroke="#63b8ff" d="M468.99,-379.47C481.28,-358.45 513.21,-303.82 529.75,-275.54"/>
<polygon fill="#63b8ff" stroke="#63b8ff" points="532.87,-277.13 534.9,-266.73 526.83,-273.6 532.87,-277.13"/>
</a>
</g>
</g>
<!-- Node30&#45;&gt;Node18 -->
<g id="edge45_Node000030_Node000018" class="edge">
<title>Node30&#45;&gt;Node18</title>
<g id="a_edge45_Node000030_Node000018"><a xlink:title=" ">
<path fill="none" stroke="#63b8ff" d="M517.51,-379.46C528.9,-377.66 540.85,-375.76 552,-374 654.2,-357.87 684.46,-372.51 782,-338 837.19,-318.47 856.32,-315.05 896,-272 910.76,-255.99 920.82,-233.21 926.86,-216.05"/>
<polygon fill="#63b8ff" stroke="#63b8ff" points="930.3,-216.8 930.11,-206.21 923.65,-214.61 930.3,-216.8"/>
</a>
</g>
</g>
<!-- Node31 -->
<g id="Node000031" class="node">
<title>Node31</title>
<g id="a_Node000031"><a xlink:title=" ">
<polygon fill="#e0e0e0" stroke="#999999" points="805,-266.5 753,-266.5 753,-247.5 805,-247.5 805,-266.5"/>
<text text-anchor="middle" x="779" y="-254.5" font-family="Helvetica,sans-Serif" font-size="10.00">cassert</text>
</a>
</g>
</g>
<!-- Node30&#45;&gt;Node31 -->
<g id="edge37_Node000030_Node000031" class="edge">
<title>Node30&#45;&gt;Node31</title>
<g id="a_edge37_Node000030_Node000031"><a xlink:title=" ">
<path fill="none" stroke="#63b8ff" d="M516.59,-379.46C600.81,-365.72 756.78,-340.06 759,-338 775.79,-322.46 779.41,-295.14 779.76,-276.81"/>
<polygon fill="#63b8ff" stroke="#63b8ff" points="783.26,-276.7 779.65,-266.74 776.26,-276.78 783.26,-276.7"/>
</a>
</g>
</g>
<!-- Node30&#45;&gt;Node32 -->
<g id="edge43_Node000030_Node000032" class="edge">
<title>Node30&#45;&gt;Node32</title>
<g id="a_edge43_Node000030_Node000032"><a xlink:title=" ">
<path fill="none" stroke="#63b8ff" d="M419.84,-379.44C359.82,-367.8 252.59,-347 187.9,-334.45"/>
<polygon fill="#63b8ff" stroke="#63b8ff" points="188.38,-330.98 177.9,-332.51 187.05,-337.85 188.38,-330.98"/>
</a>
</g>
</g>
<!-- Node33 -->
<g id="Node000033" class="node">
<title>Node33</title>
<g id="a_Node000033"><a xlink:href="types__handling_8h.html" target="_top" xlink:title=" ">
<polygon fill="white" stroke="#666666" points="750.5,-338 637.5,-338 637.5,-308 750.5,-308 750.5,-338"/>
<text text-anchor="start" x="645.5" y="-326" font-family="Helvetica,sans-Serif" font-size="10.00">open62541pp/detail</text>
<text text-anchor="middle" x="694" y="-315" font-family="Helvetica,sans-Serif" font-size="10.00">/types_handling.h</text>
</a>
</g>
</g>
<!-- Node30&#45;&gt;Node33 -->
<g id="edge46_Node000030_Node000033" class="edge">
<title>Node30&#45;&gt;Node33</title>
<g id="a_edge46_Node000030_Node000033"><a xlink:title=" ">
<path fill="none" stroke="#63b8ff" d="M495.02,-379.37C530.36,-369.54 588.96,-353.23 633.44,-340.85"/>
<polygon fill="#63b8ff" stroke="#63b8ff" points="634.58,-344.17 643.27,-338.12 632.7,-337.42 634.58,-344.17"/>
</a>
</g>
</g>
<!-- Node32&#45;&gt;Node14 -->
<g id="edge44_Node000032_Node000014" class="edge">
<title>Node32&#45;&gt;Node14</title>
<g id="a_edge44_Node000032_Node000014"><a xlink:title=" ">
<path fill="none" stroke="#63b8ff" d="M114.92,-313.38C86.21,-299.23 37.44,-269.85 59,-242 76.99,-218.76 156.02,-204.35 207.21,-197.28"/>
<polygon fill="#63b8ff" stroke="#63b8ff" points="207.91,-200.72 217.36,-195.93 206.99,-193.78 207.91,-200.72"/>
</a>
</g>
</g>
<!-- Node33&#45;&gt;Node6 -->
<g id="edge47_Node000033_Node000006" class="edge">
<title>Node33&#45;&gt;Node6</title>
<g id="a_edge47_Node000033_Node000006"><a xlink:title=" ">
<path fill="none" stroke="#63b8ff" d="M729.33,-307.95C757.69,-296.68 797.11,-281.01 824.2,-270.25"/>
<polygon fill="#63b8ff" stroke="#63b8ff" points="825.57,-273.46 833.57,-266.52 822.99,-266.96 825.57,-273.46"/>
</a>
</g>
</g>
<!-- Node33&#45;&gt;Node15 -->
<g id="edge50_Node000033_Node000015" class="edge">
<title>Node33&#45;&gt;Node15</title>
<g id="a_edge50_Node000033_Node000015"><a xlink:title=" ">
<path fill="none" stroke="#63b8ff" d="M660.2,-307.95C633.2,-296.73 595.7,-281.15 569.81,-270.39"/>
<polygon fill="#63b8ff" stroke="#63b8ff" points="571.07,-267.12 560.49,-266.52 568.39,-273.59 571.07,-267.12"/>
</a>
</g>
</g>
<!-- Node33&#45;&gt;Node18 -->
<g id="edge51_Node000033_Node000018" class="edge">
<title>Node33&#45;&gt;Node18</title>
<g id="a_edge51_Node000033_Node000018"><a xlink:title=" ">
<path fill="none" stroke="#63b8ff" d="M699.04,-307.84C706.2,-289.78 721.05,-258.9 744,-242 777.53,-217.31 822.3,-204.79 859.95,-198.46"/>
<polygon fill="#63b8ff" stroke="#63b8ff" points="860.52,-201.91 869.86,-196.91 859.44,-195 860.52,-201.91"/>
</a>
</g>
</g>
<!-- Node33&#45;&gt;Node31 -->
<g id="edge48_Node000033_Node000031" class="edge">
<title>Node33&#45;&gt;Node31</title>
<g id="a_edge48_Node000033_Node000031"><a xlink:title=" ">
<path fill="none" stroke="#63b8ff" d="M712.86,-307.8C726.64,-297.43 745.26,-283.4 759.24,-272.88"/>
<polygon fill="#63b8ff" stroke="#63b8ff" points="761.37,-275.66 767.25,-266.84 757.16,-270.06 761.37,-275.66"/>
</a>
</g>
</g>
<!-- Node34 -->
<g id="Node000034" class="node">
<title>Node34</title>
<g id="a_Node000034"><a xlink:title=" ">
<polygon fill="#e0e0e0" stroke="#999999" points="697,-266.5 639,-266.5 639,-247.5 697,-247.5 697,-266.5"/>
<text text-anchor="middle" x="668" y="-254.5" font-family="Helvetica,sans-Serif" font-size="10.00">memory</text>
</a>
</g>
</g>
<!-- Node33&#45;&gt;Node34 -->
<g id="edge49_Node000033_Node000034" class="edge">
<title>Node33&#45;&gt;Node34</title>
<g id="a_edge49_Node000033_Node000034"><a xlink:title=" ">
<path fill="none" stroke="#63b8ff" d="M688.23,-307.8C684.45,-298.5 679.49,-286.27 675.42,-276.26"/>
<polygon fill="#63b8ff" stroke="#63b8ff" points="678.6,-274.79 671.59,-266.84 672.11,-277.43 678.6,-274.79"/>
</a>
</g>
</g>
<!-- Node35 -->
<g id="Node000035" class="node">
<title>Node35</title>
<g id="a_Node000035"><a xlink:href="traits_8h.html" target="_top" xlink:title=" ">
<polygon fill="white" stroke="#666666" points="441.5,-272 328.5,-272 328.5,-242 441.5,-242 441.5,-272"/>
<text text-anchor="start" x="336.5" y="-260" font-family="Helvetica,sans-Serif" font-size="10.00">open62541pp/detail</text>
<text text-anchor="middle" x="385" y="-249" font-family="Helvetica,sans-Serif" font-size="10.00">/traits.h</text>
</a>
</g>
</g>
<!-- Node33&#45;&gt;Node35 -->
<g id="edge52_Node000033_Node000035" class="edge">
<title>Node33&#45;&gt;Node35</title>
<g id="a_edge52_Node000033_Node000035"><a xlink:title=" ">
<path fill="none" stroke="#63b8ff" d="M637.27,-310.54C590.11,-300.98 520.97,-286.87 451.9,-272.39"/>
<polygon fill="#63b8ff" stroke="#63b8ff" points="452.22,-268.88 441.71,-270.25 450.78,-275.73 452.22,-268.88"/>
</a>
</g>
</g>
<!-- Node35&#45;&gt;Node14 -->
<g id="edge53_Node000035_Node000014" class="edge">
<title>Node35&#45;&gt;Node14</title>
<g id="a_edge53_Node000035_Node000014"><a xlink:title=" ">
<path fill="none" stroke="#63b8ff" d="M355.81,-241.95C332.9,-230.93 301.25,-215.7 278.93,-204.96"/>
<polygon fill="#63b8ff" stroke="#63b8ff" points="280.23,-201.7 269.7,-200.52 277.19,-208.01 280.23,-201.7"/>
</a>
</g>
</g>
<!-- Node36&#45;&gt;Node3 -->
<g id="edge59_Node000036_Node000003" class="edge">
<title>Node36&#45;&gt;Node3</title>
<g id="a_edge59_Node000036_Node000003"><a xlink:title=" ">
<path fill="none" stroke="#63b8ff" d="M1149.8,-373.95C1168.92,-363.13 1195.2,-348.24 1214.09,-337.54"/>
<polygon fill="#63b8ff" stroke="#63b8ff" points="1215.99,-340.49 1222.96,-332.52 1212.54,-334.4 1215.99,-340.49"/>
</a>
</g>
</g>
<!-- Node36&#45;&gt;Node9 -->
<g id="edge58_Node000036_Node000009" class="edge">
<title>Node36&#45;&gt;Node9</title>
<g id="a_edge58_Node000036_Node000009"><a xlink:title=" ">
<path fill="none" stroke="#63b8ff" d="M1106.36,-373.8C1092.88,-363.53 1074.69,-349.67 1060.92,-339.18"/>
<polygon fill="#63b8ff" stroke="#63b8ff" points="1062.68,-336.12 1052.61,-332.84 1058.44,-341.69 1062.68,-336.12"/>
</a>
</g>
</g>
<!-- Node36&#45;&gt;Node18 -->
<g id="edge60_Node000036_Node000018" class="edge">
<title>Node36&#45;&gt;Node18</title>
<g id="a_edge60_Node000036_Node000018"><a xlink:title=" ">
<path fill="none" stroke="#63b8ff" d="M1134.05,-373.75C1143.45,-356.96 1155.21,-328.73 1143,-308 1112.41,-256.03 1049.21,-225.69 1000.27,-209.16"/>
<polygon fill="#63b8ff" stroke="#63b8ff" points="1001.28,-205.81 990.69,-206.04 999.11,-212.46 1001.28,-205.81"/>
</a>
</g>
</g>
<!-- Node37 -->
<g id="Node000037" class="node">
<title>Node37</title>
<g id="a_Node000037"><a xlink:title=" ">
<polygon fill="#e0e0e0" stroke="#999999" points="1134.5,-332.5 1081.5,-332.5 1081.5,-313.5 1134.5,-313.5 1134.5,-332.5"/>
<text text-anchor="middle" x="1108" y="-320.5" font-family="Helvetica,sans-Serif" font-size="10.00">cstdarg</text>
</a>
</g>
</g>
<!-- Node36&#45;&gt;Node37 -->
<g id="edge57_Node000036_Node000037" class="edge">
<title>Node36&#45;&gt;Node37</title>
<g id="a_edge57_Node000036_Node000037"><a xlink:title=" ">
<path fill="none" stroke="#63b8ff" d="M1121.23,-373.8C1118.78,-364.6 1115.58,-352.53 1112.93,-342.58"/>
<polygon fill="#63b8ff" stroke="#63b8ff" points="1116.3,-341.61 1110.35,-332.84 1109.53,-343.41 1116.3,-341.61"/>
</a>
</g>
</g>
<!-- Node38&#45;&gt;Node2 -->
<g id="edge63_Node000038_Node000002" class="edge">
<title>Node38&#45;&gt;Node2</title>
<g id="a_edge63_Node000038_Node000002"><a xlink:title=" ">
<path fill="none" stroke="#63b8ff" d="M884.24,-500.89C775.7,-496.49 575.69,-485.33 407,-459 301.02,-442.46 271.79,-443.33 172,-404 117.17,-382.39 86.53,-389 57,-338 44.78,-316.9 61.92,-290.9 76.48,-274.39"/>
<polygon fill="#63b8ff" stroke="#63b8ff" points="79.41,-276.38 83.69,-266.69 74.3,-271.6 79.41,-276.38"/>
</a>
</g>
</g>
<!-- Node38&#45;&gt;Node3 -->
<g id="edge66_Node000038_Node000003" class="edge">
<title>Node38&#45;&gt;Node3</title>
<g id="a_edge66_Node000038_Node000003"><a xlink:title=" ">
<path fill="none" stroke="#63b8ff" d="M1043.64,-497.51C1103.52,-491.42 1179.03,-479.82 1202,-459 1235.16,-428.95 1239.22,-372.09 1238.9,-342.67"/>
<polygon fill="#63b8ff" stroke="#63b8ff" points="1242.4,-342.43 1238.6,-332.54 1235.4,-342.64 1242.4,-342.43"/>
</a>
</g>
</g>
<!-- Node38&#45;&gt;Node4 -->
<g id="edge70_Node000038_Node000004" class="edge">
<title>Node38&#45;&gt;Node4</title>
<g id="a_edge70_Node000038_Node000004"><a xlink:title=" ">
<path fill="none" stroke="#63b8ff" d="M1024.73,-494.98C1091.87,-485.57 1199.88,-470.43 1270.9,-460.47"/>
<polygon fill="#63b8ff" stroke="#63b8ff" points="1271.69,-463.89 1281.11,-459.04 1270.72,-456.96 1271.69,-463.89"/>
</a>
</g>
</g>
<!-- Node38&#45;&gt;Node5 -->
<g id="edge74_Node000038_Node000005" class="edge">
<title>Node38&#45;&gt;Node5</title>
<g id="a_edge74_Node000038_Node000005"><a xlink:title=" ">
<path fill="none" stroke="#63b8ff" d="M931.71,-494.98C897.38,-485.93 842.94,-471.58 805.23,-461.64"/>
<polygon fill="#63b8ff" stroke="#63b8ff" points="806.11,-458.25 795.55,-459.08 804.32,-465.02 806.11,-458.25"/>
</a>
</g>
</g>
<!-- Node38&#45;&gt;Node9 -->
<g id="edge65_Node000038_Node000009" class="edge">
<title>Node38&#45;&gt;Node9</title>
<g id="a_edge65_Node000038_Node000009"><a xlink:title=" ">
<path fill="none" stroke="#63b8ff" d="M1039.98,-495C1085.42,-488.17 1136.98,-476.74 1151,-459 1156.23,-452.37 1155.76,-446.97 1151,-440 1126.25,-403.73 1087.61,-437.31 1059,-404 1044.39,-386.99 1040.95,-360.63 1040.46,-342.86"/>
<polygon fill="#63b8ff" stroke="#63b8ff" points="1043.96,-342.62 1040.47,-332.61 1036.96,-342.61 1043.96,-342.62"/>
</a>
</g>
</g>
<!-- Node38&#45;&gt;Node10 -->
<g id="edge67_Node000038_Node000010" class="edge">
<title>Node38&#45;&gt;Node10</title>
<g id="a_edge67_Node000038_Node000010"><a xlink:title=" ">
<path fill="none" stroke="#63b8ff" d="M950.76,-494.99C936.85,-486.06 914.37,-471.58 895,-459 837.1,-421.4 828.36,-401.39 765,-374 733.79,-360.51 640.58,-340.6 590.57,-330.45"/>
<polygon fill="#63b8ff" stroke="#63b8ff" points="591.08,-326.98 580.59,-328.44 589.7,-333.85 591.08,-326.98"/>
</a>
</g>
</g>
<!-- Node38&#45;&gt;Node12 -->
<g id="edge69_Node000038_Node000012" class="edge">
<title>Node38&#45;&gt;Node12</title>
<g id="a_edge69_Node000038_Node000012"><a xlink:title=" ">
<path fill="none" stroke="#63b8ff" d="M884.38,-501.89C734.66,-497.12 419.54,-478.3 345,-404 329.01,-388.06 326.32,-361.06 326.59,-342.89"/>
<polygon fill="#63b8ff" stroke="#63b8ff" points="330.08,-343.04 327.04,-332.89 323.09,-342.72 330.08,-343.04"/>
</a>
</g>
</g>
<!-- Node38&#45;&gt;Node18 -->
<g id="edge72_Node000038_Node000018" class="edge">
<title>Node38&#45;&gt;Node18</title>
<g id="a_edge72_Node000038_Node000018"><a xlink:title=" ">
<path fill="none" stroke="#63b8ff" d="M953.84,-494.81C945.1,-486.6 933.1,-473.43 928,-459 925.18,-451.04 927.72,-448.44 928,-440 930.45,-365.21 936.55,-346.79 939,-272 939.44,-258.67 939.66,-255.32 939,-242 938.58,-233.64 937.78,-224.52 936.93,-216.39"/>
<polygon fill="#63b8ff" stroke="#63b8ff" points="940.4,-215.97 935.83,-206.41 933.45,-216.74 940.4,-215.97"/>
</a>
</g>
</g>
<!-- Node38&#45;&gt;Node30 -->
<g id="edge71_Node000038_Node000030" class="edge">
<title>Node38&#45;&gt;Node30</title>
<g id="a_edge71_Node000038_Node000030"><a xlink:title=" ">
<path fill="none" stroke="#63b8ff" d="M886.64,-494.99C828.28,-487.74 746.5,-475.8 676,-459 610.78,-443.46 536.76,-417.36 495.71,-402.1"/>
<polygon fill="#63b8ff" stroke="#63b8ff" points="496.84,-398.79 486.25,-398.56 494.39,-405.35 496.84,-398.79"/>
</a>
</g>
</g>
<!-- Node38&#45;&gt;Node36 -->
<g id="edge73_Node000038_Node000036" class="edge">
<title>Node38&#45;&gt;Node36</title>
<g id="a_edge73_Node000038_Node000036"><a xlink:title=" ">
<path fill="none" stroke="#63b8ff" d="M1043.64,-497.92C1099.45,-492.16 1167.15,-480.8 1185,-459 1198.9,-442.02 1180.29,-423.26 1160.23,-409.59"/>
<polygon fill="#63b8ff" stroke="#63b8ff" points="1161.94,-406.52 1151.63,-404.06 1158.15,-412.41 1161.94,-406.52"/>
</a>
</g>
</g>
<!-- Node39 -->
<g id="Node000039" class="node">
<title>Node39</title>
<g id="a_Node000039"><a xlink:title=" ">
<polygon fill="#e0e0e0" stroke="#999999" points="990.5,-459 937.5,-459 937.5,-440 990.5,-440 990.5,-459"/>
<text text-anchor="middle" x="964" y="-447" font-family="Helvetica,sans-Serif" font-size="10.00">cstddef</text>
</a>
</g>
</g>
<!-- Node38&#45;&gt;Node39 -->
<g id="edge62_Node000038_Node000039" class="edge">
<title>Node38&#45;&gt;Node39</title>
<g id="a_edge62_Node000038_Node000039"><a xlink:title=" ">
<path fill="none" stroke="#63b8ff" d="M964,-494.75C964,-487.8 964,-477.85 964,-469.13"/>
<polygon fill="#63b8ff" stroke="#63b8ff" points="967.5,-469.09 964,-459.09 960.5,-469.09 967.5,-469.09"/>
</a>
</g>
</g>
<!-- Node40 -->
<g id="Node000040" class="node">
<title>Node40</title>
<g id="a_Node000040"><a xlink:title=" ">
<polygon fill="#e0e0e0" stroke="#999999" points="1073.5,-459 1008.5,-459 1008.5,-440 1073.5,-440 1073.5,-459"/>
<text text-anchor="middle" x="1041" y="-447" font-family="Helvetica,sans-Serif" font-size="10.00">functional</text>
</a>
</g>
</g>
<!-- Node38&#45;&gt;Node40 -->
<g id="edge64_Node000038_Node000040" class="edge">
<title>Node38&#45;&gt;Node40</title>
<g id="a_edge64_Node000038_Node000040"><a xlink:title=" ">
<path fill="none" stroke="#63b8ff" d="M976.37,-494.98C988.09,-486.92 1005.92,-474.65 1019.89,-465.03"/>
<polygon fill="#63b8ff" stroke="#63b8ff" points="1022.15,-467.72 1028.4,-459.17 1018.18,-461.96 1022.15,-467.72"/>
</a>
</g>
</g>
<!-- Node41 -->
<g id="Node000041" class="node">
<title>Node41</title>
<g id="a_Node000041"><a xlink:title=" ">
<polygon fill="#e0e0e0" stroke="#999999" points="1142.5,-459 1091.5,-459 1091.5,-440 1142.5,-440 1142.5,-459"/>
<text text-anchor="middle" x="1117" y="-447" font-family="Helvetica,sans-Serif" font-size="10.00">variant</text>
</a>
</g>
</g>
<!-- Node38&#45;&gt;Node41 -->
<g id="edge68_Node000038_Node000041" class="edge">
<title>Node38&#45;&gt;Node41</title>
<g id="a_edge68_Node000038_Node000041"><a xlink:title=" ">
<path fill="none" stroke="#63b8ff" d="M988.58,-494.98C1014.05,-486.16 1054.04,-472.31 1082.63,-462.41"/>
<polygon fill="#63b8ff" stroke="#63b8ff" points="1083.92,-465.66 1092.23,-459.08 1081.63,-459.05 1083.92,-465.66"/>
</a>
</g>
</g>
</g>
</svg>
