<?xml version="1.0" encoding="UTF-8" standalone="no"?>
<!DOCTYPE svg PUBLIC "-//W3C//DTD SVG 1.1//EN"
 "http://www.w3.org/Graphics/SVG/1.1/DTD/svg11.dtd">
<!-- Generated by graphviz version 2.43.0 (0)
 -->
<!-- Title: /home/runner/work/open62541pp/open62541pp/include/open62541pp/detail/exceptioncatcher.hpp Pages: 1 -->
<svg width="891pt" height="676pt"
 viewBox="0.00 0.00 890.82 676.00" xmlns="http://www.w3.org/2000/svg" xmlns:xlink="http://www.w3.org/1999/xlink">
<g id="graph0" class="graph" transform="scale(1 1) rotate(0) translate(4 672)">
<title>/home/runner/work/open62541pp/open62541pp/include/open62541pp/detail/exceptioncatcher.hpp</title>
<!-- Node1 -->
<g id="Node000001" class="node">
<title>Node1</title>
<g id="a_Node000001"><a xlink:title=" ">
<polygon fill="#999999" stroke="#666666" points="538,-668 345,-668 345,-627 538,-627 538,-668"/>
<text text-anchor="start" x="353" y="-656" font-family="Helvetica,sans-Serif" font-size="10.00">/home/runner/work/open62541pp</text>
<text text-anchor="start" x="353" y="-645" font-family="Helvetica,sans-Serif" font-size="10.00">/open62541pp/include/open62541pp</text>
<text text-anchor="middle" x="441.5" y="-634" font-family="Helvetica,sans-Serif" font-size="10.00">/detail/exceptioncatcher.hpp</text>
</a>
</g>
</g>
<!-- Node2 -->
<g id="Node000002" class="node">
<title>Node2</title>
<g id="a_Node000002"><a xlink:href="client__context_8hpp.html" target="_top" xlink:title=" ">
<polygon fill="white" stroke="#666666" points="284,-426 91,-426 91,-385 284,-385 284,-426"/>
<text text-anchor="start" x="99" y="-414" font-family="Helvetica,sans-Serif" font-size="10.00">/home/runner/work/open62541pp</text>
<text text-anchor="start" x="99" y="-403" font-family="Helvetica,sans-Serif" font-size="10.00">/open62541pp/include/open62541pp</text>
<text text-anchor="middle" x="187.5" y="-392" font-family="Helvetica,sans-Serif" font-size="10.00">/detail/client_context.hpp</text>
</a>
</g>
</g>
<!-- Node1&#45;&gt;Node2 -->
<g id="edge1_Node000001_Node000002" class="edge">
<title>Node1&#45;&gt;Node2</title>
<g id="a_edge1_Node000001_Node000002"><a xlink:title=" ">
<path fill="none" stroke="#63b8ff" d="M334.56,-641.63C245.29,-631.21 123.19,-600.76 62.5,-514 49.25,-495.06 49.9,-481.38 62.5,-462 73.05,-445.78 89.55,-434.26 107.14,-426.09"/>
<polygon fill="#63b8ff" stroke="#63b8ff" points="334.41,-645.13 344.73,-642.74 335.17,-638.17 334.41,-645.13"/>
</a>
</g>
</g>
<!-- Node3 -->
<g id="Node000003" class="node">
<title>Node3</title>
<g id="a_Node000003"><a xlink:href="client__services_8hpp.html" target="_top" xlink:title=" ">
<polygon fill="white" stroke="#666666" points="471,-349 278,-349 278,-308 471,-308 471,-349"/>
<text text-anchor="start" x="286" y="-337" font-family="Helvetica,sans-Serif" font-size="10.00">/home/runner/work/open62541pp</text>
<text text-anchor="start" x="286" y="-326" font-family="Helvetica,sans-Serif" font-size="10.00">/open62541pp/include/open62541pp</text>
<text text-anchor="middle" x="374.5" y="-315" font-family="Helvetica,sans-Serif" font-size="10.00">/services/detail/client_services.hpp</text>
</a>
</g>
</g>
<!-- Node1&#45;&gt;Node3 -->
<g id="edge27_Node000001_Node000003" class="edge">
<title>Node1&#45;&gt;Node3</title>
<g id="a_edge27_Node000001_Node000003"><a xlink:title=" ">
<path fill="none" stroke="#63b8ff" d="M481.82,-620.47C491.28,-612.26 500.15,-602.32 505.5,-591 544.6,-508.21 556.43,-460.4 504.5,-385 493.29,-368.73 476.28,-357.21 458.22,-349.05"/>
<polygon fill="#63b8ff" stroke="#63b8ff" points="479.38,-617.95 473.8,-626.96 483.78,-623.39 479.38,-617.95"/>
</a>
</g>
</g>
<!-- Node12 -->
<g id="Node000012" class="node">
<title>Node12</title>
<g id="a_Node000012"><a xlink:href="server__context_8hpp.html" target="_top" xlink:title=" ">
<polygon fill="white" stroke="#666666" points="495,-426 302,-426 302,-385 495,-385 495,-426"/>
<text text-anchor="start" x="310" y="-414" font-family="Helvetica,sans-Serif" font-size="10.00">/home/runner/work/open62541pp</text>
<text text-anchor="start" x="310" y="-403" font-family="Helvetica,sans-Serif" font-size="10.00">/open62541pp/include/open62541pp</text>
<text text-anchor="middle" x="398.5" y="-392" font-family="Helvetica,sans-Serif" font-size="10.00">/detail/server_context.hpp</text>
</a>
</g>
</g>
<!-- Node1&#45;&gt;Node12 -->
<g id="edge20_Node000001_Node000012" class="edge">
<title>Node1&#45;&gt;Node12</title>
<g id="a_edge20_Node000001_Node000012"><a xlink:title=" ">
<path fill="none" stroke="#63b8ff" d="M468.9,-619.34C475.64,-610.95 481.94,-601.21 485.5,-591 504.36,-536.86 513.06,-512.27 485.5,-462 477.06,-446.6 462.33,-434.86 447.37,-426.23"/>
<polygon fill="#63b8ff" stroke="#63b8ff" points="466.23,-617.08 462.38,-626.94 471.54,-621.63 466.23,-617.08"/>
</a>
</g>
</g>
<!-- Node13 -->
<g id="Node000013" class="node">
<title>Node13</title>
<g id="a_Node000013"><a xlink:href="callbackadapter_8hpp.html" target="_top" xlink:title=" ">
<polygon fill="white" stroke="#666666" points="476,-591 283,-591 283,-550 476,-550 476,-591"/>
<text text-anchor="start" x="291" y="-579" font-family="Helvetica,sans-Serif" font-size="10.00">/home/runner/work/open62541pp</text>
<text text-anchor="start" x="291" y="-568" font-family="Helvetica,sans-Serif" font-size="10.00">/open62541pp/include/open62541pp</text>
<text text-anchor="middle" x="379.5" y="-557" font-family="Helvetica,sans-Serif" font-size="10.00">/services/detail/callbackadapter.hpp</text>
</a>
</g>
</g>
<!-- Node1&#45;&gt;Node13 -->
<g id="edge21_Node000001_Node000013" class="edge">
<title>Node1&#45;&gt;Node13</title>
<g id="a_edge21_Node000001_Node000013"><a xlink:title=" ">
<path fill="none" stroke="#63b8ff" d="M418.73,-618.95C411.08,-609.7 402.72,-599.58 395.68,-591.07"/>
<polygon fill="#63b8ff" stroke="#63b8ff" points="416.14,-621.32 425.21,-626.79 421.54,-616.86 416.14,-621.32"/>
</a>
</g>
</g>
<!-- Node2&#45;&gt;Node3 -->
<g id="edge2_Node000002_Node000003" class="edge">
<title>Node2&#45;&gt;Node3</title>
<g id="a_edge2_Node000002_Node000003"><a xlink:title=" ">
<path fill="none" stroke="#63b8ff" d="M245.43,-381.27C271.19,-370.94 301.19,-358.9 325.78,-349.04"/>
<polygon fill="#63b8ff" stroke="#63b8ff" points="244.12,-378.02 236.14,-384.99 246.73,-384.52 244.12,-378.02"/>
</a>
</g>
</g>
<!-- Node4 -->
<g id="Node000004" class="node">
<title>Node4</title>
<g id="a_Node000004"><a xlink:href="attribute_8hpp.html" target="_top" xlink:title=" ">
<polygon fill="white" stroke="#666666" points="817,-272 624,-272 624,-231 817,-231 817,-272"/>
<text text-anchor="start" x="632" y="-260" font-family="Helvetica,sans-Serif" font-size="10.00">/home/runner/work/open62541pp</text>
<text text-anchor="start" x="632" y="-249" font-family="Helvetica,sans-Serif" font-size="10.00">/open62541pp/include/open62541pp</text>
<text text-anchor="middle" x="720.5" y="-238" font-family="Helvetica,sans-Serif" font-size="10.00">/services/attribute.hpp</text>
</a>
</g>
</g>
<!-- Node3&#45;&gt;Node4 -->
<g id="edge3_Node000003_Node000004" class="edge">
<title>Node3&#45;&gt;Node4</title>
<g id="a_edge3_Node000003_Node000004"><a xlink:title=" ">
<path fill="none" stroke="#63b8ff" d="M474.53,-305.82C523.72,-295.15 582.55,-282.4 630.35,-272.04"/>
<polygon fill="#63b8ff" stroke="#63b8ff" points="473.54,-302.45 464.5,-307.99 475.02,-309.29 473.54,-302.45"/>
</a>
</g>
</g>
<!-- Node9 -->
<g id="Node000009" class="node">
<title>Node9</title>
<g id="a_Node000009"><a xlink:href="method_8hpp.html" target="_top" xlink:title=" ">
<polygon fill="white" stroke="#666666" points="404,-195 211,-195 211,-154 404,-154 404,-195"/>
<text text-anchor="start" x="219" y="-183" font-family="Helvetica,sans-Serif" font-size="10.00">/home/runner/work/open62541pp</text>
<text text-anchor="start" x="219" y="-172" font-family="Helvetica,sans-Serif" font-size="10.00">/open62541pp/include/open62541pp</text>
<text text-anchor="middle" x="307.5" y="-161" font-family="Helvetica,sans-Serif" font-size="10.00">/services/method.hpp</text>
</a>
</g>
</g>
<!-- Node3&#45;&gt;Node9 -->
<g id="edge11_Node000003_Node000009" class="edge">
<title>Node3&#45;&gt;Node9</title>
<g id="a_edge11_Node000003_Node000009"><a xlink:title=" ">
<path fill="none" stroke="#63b8ff" d="M361.83,-298.76C348.52,-268.57 327.94,-221.87 316.3,-195.47"/>
<polygon fill="#63b8ff" stroke="#63b8ff" points="358.64,-300.2 365.88,-307.94 365.05,-297.38 358.64,-300.2"/>
</a>
</g>
</g>
<!-- Node10 -->
<g id="Node000010" class="node">
<title>Node10</title>
<g id="a_Node000010"><a xlink:href="nodemanagement_8hpp.html" target="_top" xlink:title=" ">
<polygon fill="white" stroke="#666666" points="654,-195 461,-195 461,-154 654,-154 654,-195"/>
<text text-anchor="start" x="469" y="-183" font-family="Helvetica,sans-Serif" font-size="10.00">/home/runner/work/open62541pp</text>
<text text-anchor="start" x="469" y="-172" font-family="Helvetica,sans-Serif" font-size="10.00">/open62541pp/include/open62541pp</text>
<text text-anchor="middle" x="557.5" y="-161" font-family="Helvetica,sans-Serif" font-size="10.00">/services/nodemanagement.hpp</text>
</a>
</g>
</g>
<!-- Node3&#45;&gt;Node10 -->
<g id="edge14_Node000003_Node000010" class="edge">
<title>Node3&#45;&gt;Node10</title>
<g id="a_edge14_Node000003_Node000010"><a xlink:title=" ">
<path fill="none" stroke="#63b8ff" d="M405.87,-301.44C442.15,-271.31 501.07,-222.37 533.75,-195.23"/>
<polygon fill="#63b8ff" stroke="#63b8ff" points="403.51,-298.86 398.05,-307.94 407.98,-304.24 403.51,-298.86"/>
</a>
</g>
</g>
<!-- Node11 -->
<g id="Node000011" class="node">
<title>Node11</title>
<g id="a_Node000011"><a xlink:href="view_8hpp.html" target="_top" xlink:title=" ">
<polygon fill="white" stroke="#666666" points="193,-195 0,-195 0,-154 193,-154 193,-195"/>
<text text-anchor="start" x="8" y="-183" font-family="Helvetica,sans-Serif" font-size="10.00">/home/runner/work/open62541pp</text>
<text text-anchor="start" x="8" y="-172" font-family="Helvetica,sans-Serif" font-size="10.00">/open62541pp/include/open62541pp</text>
<text text-anchor="middle" x="96.5" y="-161" font-family="Helvetica,sans-Serif" font-size="10.00">/services/view.hpp</text>
</a>
</g>
</g>
<!-- Node3&#45;&gt;Node11 -->
<g id="edge17_Node000003_Node000011" class="edge">
<title>Node3&#45;&gt;Node11</title>
<g id="a_edge17_Node000003_Node000011"><a xlink:title=" ">
<path fill="none" stroke="#63b8ff" d="M329.93,-303.13C275.13,-273.17 183.17,-222.89 132.58,-195.23"/>
<polygon fill="#63b8ff" stroke="#63b8ff" points="328.27,-306.21 338.73,-307.94 331.63,-300.07 328.27,-306.21"/>
</a>
</g>
</g>
<!-- Node5 -->
<g id="Node000005" class="node">
<title>Node5</title>
<g id="a_Node000005"><a xlink:href="node_8hpp.html" target="_top" xlink:title=" ">
<polygon fill="white" stroke="#666666" points="697,-118 504,-118 504,-77 697,-77 697,-118"/>
<text text-anchor="start" x="512" y="-106" font-family="Helvetica,sans-Serif" font-size="10.00">/home/runner/work/open62541pp</text>
<text text-anchor="start" x="512" y="-95" font-family="Helvetica,sans-Serif" font-size="10.00">/open62541pp/include/open62541pp</text>
<text text-anchor="middle" x="600.5" y="-84" font-family="Helvetica,sans-Serif" font-size="10.00">/node.hpp</text>
</a>
</g>
</g>
<!-- Node4&#45;&gt;Node5 -->
<g id="edge4_Node000004_Node000005" class="edge">
<title>Node4&#45;&gt;Node5</title>
<g id="a_edge4_Node000004_Node000005"><a xlink:title=" ">
<path fill="none" stroke="#63b8ff" d="M826.43,-231.71C845.32,-223.52 862.71,-211.79 874.5,-195 884.98,-180.09 886.04,-168.11 874.5,-154 852.15,-126.67 766.69,-112.47 697.09,-105.32"/>
<polygon fill="#63b8ff" stroke="#63b8ff" points="825.04,-228.5 817.05,-235.46 827.64,-235 825.04,-228.5"/>
</a>
</g>
</g>
<!-- Node7 -->
<g id="Node000007" class="node">
<title>Node7</title>
<g id="a_Node000007"><a xlink:href="attribute__highlevel_8hpp.html" target="_top" xlink:title=" ">
<polygon fill="white" stroke="#666666" points="865,-195 672,-195 672,-154 865,-154 865,-195"/>
<text text-anchor="start" x="680" y="-183" font-family="Helvetica,sans-Serif" font-size="10.00">/home/runner/work/open62541pp</text>
<text text-anchor="start" x="680" y="-172" font-family="Helvetica,sans-Serif" font-size="10.00">/open62541pp/include/open62541pp</text>
<text text-anchor="middle" x="768.5" y="-161" font-family="Helvetica,sans-Serif" font-size="10.00">/services/attribute_highlevel.hpp</text>
</a>
</g>
</g>
<!-- Node4&#45;&gt;Node7 -->
<g id="edge6_Node000004_Node000007" class="edge">
<title>Node4&#45;&gt;Node7</title>
<g id="a_edge6_Node000004_Node000007"><a xlink:title=" ">
<path fill="none" stroke="#63b8ff" d="M738.67,-222.11C744.44,-213.09 750.69,-203.33 755.97,-195.07"/>
<polygon fill="#63b8ff" stroke="#63b8ff" points="735.55,-220.49 733.11,-230.79 741.45,-224.26 735.55,-220.49"/>
</a>
</g>
</g>
<!-- Node8 -->
<g id="Node000008" class="node">
<title>Node8</title>
<g id="a_Node000008"><a xlink:href="services_8hpp.html" target="_top" xlink:title=" ">
<polygon fill="white" stroke="#666666" points="486,-118 293,-118 293,-77 486,-77 486,-118"/>
<text text-anchor="start" x="301" y="-106" font-family="Helvetica,sans-Serif" font-size="10.00">/home/runner/work/open62541pp</text>
<text text-anchor="start" x="301" y="-95" font-family="Helvetica,sans-Serif" font-size="10.00">/open62541pp/include/open62541pp</text>
<text text-anchor="middle" x="389.5" y="-84" font-family="Helvetica,sans-Serif" font-size="10.00">/services/services.hpp</text>
</a>
</g>
</g>
<!-- Node4&#45;&gt;Node8 -->
<g id="edge10_Node000004_Node000008" class="edge">
<title>Node4&#45;&gt;Node8</title>
<g id="a_edge10_Node000004_Node000008"><a xlink:title=" ">
<path fill="none" stroke="#63b8ff" d="M613.86,-247.35C561.46,-241.32 499.62,-227.12 452.5,-195 424.73,-176.07 406.27,-140.42 396.87,-118.16"/>
<polygon fill="#63b8ff" stroke="#63b8ff" points="613.56,-250.83 623.87,-248.41 614.3,-243.87 613.56,-250.83"/>
</a>
</g>
</g>
<!-- Node6 -->
<g id="Node000006" class="node">
<title>Node6</title>
<g id="a_Node000006"><a xlink:href="open62541pp_8hpp.html" target="_top" xlink:title=" ">
<polygon fill="white" stroke="#666666" points="591,-41 398,-41 398,0 591,0 591,-41"/>
<text text-anchor="start" x="406" y="-29" font-family="Helvetica,sans-Serif" font-size="10.00">/home/runner/work/open62541pp</text>
<text text-anchor="start" x="406" y="-18" font-family="Helvetica,sans-Serif" font-size="10.00">/open62541pp/include/open62541pp</text>
<text text-anchor="middle" x="494.5" y="-7" font-family="Helvetica,sans-Serif" font-size="10.00">/open62541pp.hpp</text>
</a>
</g>
</g>
<!-- Node5&#45;&gt;Node6 -->
<g id="edge5_Node000005_Node000006" class="edge">
<title>Node5&#45;&gt;Node6</title>
<g id="a_edge5_Node000005_Node000006"><a xlink:title=" ">
<path fill="none" stroke="#63b8ff" d="M564.59,-71.09C550.78,-61.32 535.24,-50.32 522.3,-41.17"/>
<polygon fill="#63b8ff" stroke="#63b8ff" points="562.74,-74.07 572.93,-76.99 566.78,-68.36 562.74,-74.07"/>
</a>
</g>
</g>
<!-- Node7&#45;&gt;Node5 -->
<g id="edge7_Node000007_Node000005" class="edge">
<title>Node7&#45;&gt;Node5</title>
<g id="a_edge7_Node000007_Node000005"><a xlink:title=" ">
<path fill="none" stroke="#63b8ff" d="M715.54,-149.86C692.61,-139.62 666.07,-127.77 644.27,-118.04"/>
<polygon fill="#63b8ff" stroke="#63b8ff" points="714.24,-153.11 724.8,-153.99 717.09,-146.72 714.24,-153.11"/>
</a>
</g>
</g>
<!-- Node7&#45;&gt;Node8 -->
<g id="edge8_Node000007_Node000008" class="edge">
<title>Node7&#45;&gt;Node8</title>
<g id="a_edge8_Node000007_Node000008"><a xlink:title=" ">
<path fill="none" stroke="#63b8ff" d="M661.73,-152.37C606.61,-141.46 539.87,-128.26 486.27,-117.65"/>
<polygon fill="#63b8ff" stroke="#63b8ff" points="661.39,-155.87 671.88,-154.38 662.75,-149.01 661.39,-155.87"/>
</a>
</g>
</g>
<!-- Node8&#45;&gt;Node6 -->
<g id="edge9_Node000008_Node000006" class="edge">
<title>Node8&#45;&gt;Node6</title>
<g id="a_edge9_Node000008_Node000006"><a xlink:title=" ">
<path fill="none" stroke="#63b8ff" d="M425.07,-71.09C438.75,-61.32 454.15,-50.32 466.96,-41.17"/>
<polygon fill="#63b8ff" stroke="#63b8ff" points="422.92,-68.33 416.81,-76.99 426.99,-74.03 422.92,-68.33"/>
</a>
</g>
</g>
<!-- Node9&#45;&gt;Node5 -->
<g id="edge12_Node000009_Node000005" class="edge">
<title>Node9&#45;&gt;Node5</title>
<g id="a_edge12_Node000009_Node000005"><a xlink:title=" ">
<path fill="none" stroke="#63b8ff" d="M393.51,-151.48C434.9,-140.89 484.11,-128.29 524.16,-118.04"/>
<polygon fill="#63b8ff" stroke="#63b8ff" points="392.54,-148.12 383.72,-153.99 394.27,-154.9 392.54,-148.12"/>
</a>
</g>
</g>
<!-- Node9&#45;&gt;Node8 -->
<g id="edge13_Node000009_Node000008" class="edge">
<title>Node9&#45;&gt;Node8</title>
<g id="a_edge13_Node000009_Node000008"><a xlink:title=" ">
<path fill="none" stroke="#63b8ff" d="M336.7,-146.79C347.06,-137.32 358.51,-126.84 368.1,-118.07"/>
<polygon fill="#63b8ff" stroke="#63b8ff" points="334.06,-144.46 329.04,-153.79 338.79,-149.63 334.06,-144.46"/>
</a>
</g>
</g>
<!-- Node10&#45;&gt;Node5 -->
<g id="edge15_Node000010_Node000005" class="edge">
<title>Node10&#45;&gt;Node5</title>
<g id="a_edge15_Node000010_Node000005"><a xlink:title=" ">
<path fill="none" stroke="#63b8ff" d="M573.78,-145.11C578.95,-136.09 584.55,-126.33 589.28,-118.07"/>
<polygon fill="#63b8ff" stroke="#63b8ff" points="570.74,-143.38 568.8,-153.79 576.81,-146.86 570.74,-143.38"/>
</a>
</g>
</g>
<!-- Node10&#45;&gt;Node8 -->
<g id="edge16_Node000010_Node000008" class="edge">
<title>Node10&#45;&gt;Node8</title>
<g id="a_edge16_Node000010_Node000008"><a xlink:title=" ">
<path fill="none" stroke="#63b8ff" d="M504.54,-149.86C481.61,-139.62 455.07,-127.77 433.27,-118.04"/>
<polygon fill="#63b8ff" stroke="#63b8ff" points="503.24,-153.11 513.8,-153.99 506.09,-146.72 503.24,-153.11"/>
</a>
</g>
</g>
<!-- Node11&#45;&gt;Node5 -->
<g id="edge18_Node000011_Node000005" class="edge">
<title>Node11&#45;&gt;Node5</title>
<g id="a_edge18_Node000011_Node000005"><a xlink:title=" ">
<path fill="none" stroke="#63b8ff" d="M203.11,-153.8C333.32,-134.16 368.57,-137.54 495.5,-118 498.25,-117.58 501.04,-117.14 503.85,-116.68"/>
<polygon fill="#63b8ff" stroke="#63b8ff" points="202.51,-150.35 193.15,-155.32 203.57,-157.27 202.51,-150.35"/>
</a>
</g>
</g>
<!-- Node11&#45;&gt;Node8 -->
<g id="edge19_Node000011_Node000008" class="edge">
<title>Node11&#45;&gt;Node8</title>
<g id="a_edge19_Node000011_Node000008"><a xlink:title=" ">
<path fill="none" stroke="#63b8ff" d="M182.51,-151.48C223.9,-140.89 273.11,-128.29 313.16,-118.04"/>
<polygon fill="#63b8ff" stroke="#63b8ff" points="181.54,-148.12 172.72,-153.99 183.27,-154.9 181.54,-148.12"/>
</a>
</g>
</g>
<!-- Node14 -->
<g id="Node000014" class="node">
<title>Node14</title>
<g id="a_Node000014"><a xlink:href="monitoreditem__context_8hpp.html" target="_top" xlink:title=" ">
<polygon fill="white" stroke="#666666" points="476,-514 283,-514 283,-462 476,-462 476,-514"/>
<text text-anchor="start" x="291" y="-502" font-family="Helvetica,sans-Serif" font-size="10.00">/home/runner/work/open62541pp</text>
<text text-anchor="start" x="291" y="-491" font-family="Helvetica,sans-Serif" font-size="10.00">/open62541pp/include/open62541pp</text>
<text text-anchor="start" x="291" y="-480" font-family="Helvetica,sans-Serif" font-size="10.00">/services/detail/monitoreditem</text>
<text text-anchor="middle" x="379.5" y="-469" font-family="Helvetica,sans-Serif" font-size="10.00">_context.hpp</text>
</a>
</g>
</g>
<!-- Node13&#45;&gt;Node14 -->
<g id="edge22_Node000013_Node000014" class="edge">
<title>Node13&#45;&gt;Node14</title>
<g id="a_edge22_Node000013_Node000014"><a xlink:title=" ">
<path fill="none" stroke="#63b8ff" d="M379.5,-539.49C379.5,-531.15 379.5,-522.19 379.5,-514.16"/>
<polygon fill="#63b8ff" stroke="#63b8ff" points="376,-539.6 379.5,-549.6 383,-539.6 376,-539.6"/>
</a>
</g>
</g>
<!-- Node15 -->
<g id="Node000015" class="node">
<title>Node15</title>
<g id="a_Node000015"><a xlink:href="subscription__context_8hpp.html" target="_top" xlink:title=" ">
<polygon fill="white" stroke="#666666" points="265,-514 72,-514 72,-462 265,-462 265,-514"/>
<text text-anchor="start" x="80" y="-502" font-family="Helvetica,sans-Serif" font-size="10.00">/home/runner/work/open62541pp</text>
<text text-anchor="start" x="80" y="-491" font-family="Helvetica,sans-Serif" font-size="10.00">/open62541pp/include/open62541pp</text>
<text text-anchor="start" x="80" y="-480" font-family="Helvetica,sans-Serif" font-size="10.00">/services/detail/subscription</text>
<text text-anchor="middle" x="168.5" y="-469" font-family="Helvetica,sans-Serif" font-size="10.00">_context.hpp</text>
</a>
</g>
</g>
<!-- Node13&#45;&gt;Node15 -->
<g id="edge25_Node000013_Node000015" class="edge">
<title>Node13&#45;&gt;Node15</title>
<g id="a_edge25_Node000013_Node000015"><a xlink:title=" ">
<path fill="none" stroke="#63b8ff" d="M318.63,-546.28C292.16,-536.18 261.11,-524.33 234.13,-514.04"/>
<polygon fill="#63b8ff" stroke="#63b8ff" points="317.56,-549.62 328.15,-549.91 320.06,-543.08 317.56,-549.62"/>
</a>
</g>
</g>
<!-- Node14&#45;&gt;Node2 -->
<g id="edge23_Node000014_Node000002" class="edge">
<title>Node14&#45;&gt;Node2</title>
<g id="a_edge23_Node000014_Node000002"><a xlink:title=" ">
<path fill="none" stroke="#63b8ff" d="M310.25,-457.96C284.93,-447.35 256.91,-435.6 234.05,-426.02"/>
<polygon fill="#63b8ff" stroke="#63b8ff" points="309.23,-461.33 319.8,-461.97 311.93,-454.88 309.23,-461.33"/>
</a>
</g>
</g>
<!-- Node14&#45;&gt;Node12 -->
<g id="edge24_Node000014_Node000012" class="edge">
<title>Node14&#45;&gt;Node12</title>
<g id="a_edge24_Node000014_Node000012"><a xlink:title=" ">
<path fill="none" stroke="#63b8ff" d="M387.72,-452.16C389.83,-443.25 392.01,-433.99 393.86,-426.15"/>
<polygon fill="#63b8ff" stroke="#63b8ff" points="384.3,-451.43 385.41,-461.97 391.11,-453.04 384.3,-451.43"/>
</a>
</g>
</g>
<!-- Node15&#45;&gt;Node2 -->
<g id="edge26_Node000015_Node000002" class="edge">
<title>Node15&#45;&gt;Node2</title>
<g id="a_edge26_Node000015_Node000002"><a xlink:title=" ">
<path fill="none" stroke="#63b8ff" d="M176.72,-452.16C178.83,-443.25 181.01,-433.99 182.86,-426.15"/>
<polygon fill="#63b8ff" stroke="#63b8ff" points="173.3,-451.43 174.41,-461.97 180.11,-453.04 173.3,-451.43"/>
</a>
</g>
</g>
</g>
</svg>
