<?xml version="1.0" encoding="UTF-8" standalone="no"?>
<!DOCTYPE svg PUBLIC "-//W3C//DTD SVG 1.1//EN"
 "http://www.w3.org/Graphics/SVG/1.1/DTD/svg11.dtd">
<!-- Generated by graphviz version 2.43.0 (0)
 -->
<!-- Title: /home/runner/work/open62541pp/open62541pp/include/open62541pp/types/ExtensionObject.h Pages: 1 -->
<svg width="1362pt" height="456pt"
 viewBox="0.00 0.00 1361.88 456.00" xmlns="http://www.w3.org/2000/svg" xmlns:xlink="http://www.w3.org/1999/xlink">
<g id="graph0" class="graph" transform="scale(1 1) rotate(0) translate(4 452)">
<title>/home/runner/work/open62541pp/open62541pp/include/open62541pp/types/ExtensionObject.h</title>
<!-- Node1 -->
<g id="Node000001" class="node">
<title>Node1</title>
<g id="a_Node000001"><a xlink:title=" ">
<polygon fill="#999999" stroke="#666666" points="199.5,-448 6.5,-448 6.5,-407 199.5,-407 199.5,-448"/>
<text text-anchor="start" x="14.5" y="-436" font-family="Helvetica,sans-Serif" font-size="10.00">/home/runner/work/open62541pp</text>
<text text-anchor="start" x="14.5" y="-425" font-family="Helvetica,sans-Serif" font-size="10.00">/open62541pp/include/open62541pp</text>
<text text-anchor="middle" x="103" y="-414" font-family="Helvetica,sans-Serif" font-size="10.00">/types/ExtensionObject.h</text>
</a>
</g>
</g>
<!-- Node2 -->
<g id="Node000002" class="node">
<title>Node2</title>
<g id="a_Node000002"><a xlink:title=" ">
<polygon fill="#e0e0e0" stroke="#999999" points="56,-371 0,-371 0,-352 56,-352 56,-371"/>
<text text-anchor="middle" x="28" y="-359" font-family="Helvetica,sans-Serif" font-size="10.00">optional</text>
</a>
</g>
</g>
<!-- Node1&#45;&gt;Node2 -->
<g id="edge1_Node000001_Node000002" class="edge">
<title>Node1&#45;&gt;Node2</title>
<g id="a_edge1_Node000001_Node000002"><a xlink:title=" ">
<path fill="none" stroke="#63b8ff" d="M80.09,-406.95C69.19,-397.65 56.33,-386.68 46.12,-377.96"/>
<polygon fill="#63b8ff" stroke="#63b8ff" points="48.15,-375.09 38.27,-371.26 43.6,-380.41 48.15,-375.09"/>
</a>
</g>
</g>
<!-- Node3 -->
<g id="Node000003" class="node">
<title>Node3</title>
<g id="a_Node000003"><a xlink:href="TypeConverter_8h.html" target="_top" xlink:title=" ">
<polygon fill="white" stroke="#666666" points="1045,-371 881,-371 881,-352 1045,-352 1045,-371"/>
<text text-anchor="middle" x="963" y="-359" font-family="Helvetica,sans-Serif" font-size="10.00">open62541pp/TypeConverter.h</text>
</a>
</g>
</g>
<!-- Node1&#45;&gt;Node3 -->
<g id="edge2_Node000001_Node000003" class="edge">
<title>Node1&#45;&gt;Node3</title>
<g id="a_edge2_Node000001_Node000003"><a xlink:title=" ">
<path fill="none" stroke="#63b8ff" d="M199.57,-419.31C366.54,-406.89 707.03,-381.55 870.87,-369.36"/>
<polygon fill="#63b8ff" stroke="#63b8ff" points="871.22,-372.84 880.93,-368.61 870.7,-365.86 871.22,-372.84"/>
</a>
</g>
</g>
<!-- Node15 -->
<g id="Node000015" class="node">
<title>Node15</title>
<g id="a_Node000015"><a xlink:href="open62541_8h.html" target="_top" xlink:title=" ">
<polygon fill="white" stroke="#666666" points="554.5,-79.5 405.5,-79.5 405.5,-60.5 554.5,-60.5 554.5,-79.5"/>
<text text-anchor="middle" x="480" y="-67.5" font-family="Helvetica,sans-Serif" font-size="10.00">open62541pp/open62541.h</text>
</a>
</g>
</g>
<!-- Node1&#45;&gt;Node15 -->
<g id="edge52_Node000001_Node000015" class="edge">
<title>Node1&#45;&gt;Node15</title>
<g id="a_edge52_Node000001_Node000015"><a xlink:title=" ">
<path fill="none" stroke="#63b8ff" d="M97.91,-406.86C92.28,-383.39 84,-342.86 84,-307.5 84,-307.5 84,-307.5 84,-190 84,-143.72 120.13,-140.72 162,-121 235.82,-86.24 328.88,-74.86 395.21,-71.51"/>
<polygon fill="#63b8ff" stroke="#63b8ff" points="395.38,-75 405.21,-71.05 395.06,-68.01 395.38,-75"/>
</a>
</g>
</g>
<!-- Node21 -->
<g id="Node000021" class="node">
<title>Node21</title>
<g id="a_Node000021"><a xlink:href="TypeWrapper_8h.html" target="_top" xlink:title=" ">
<polygon fill="white" stroke="#666666" points="850,-261 692,-261 692,-242 850,-242 850,-261"/>
<text text-anchor="middle" x="771" y="-249" font-family="Helvetica,sans-Serif" font-size="10.00">open62541pp/TypeWrapper.h</text>
</a>
</g>
</g>
<!-- Node1&#45;&gt;Node21 -->
<g id="edge51_Node000001_Node000021" class="edge">
<title>Node1&#45;&gt;Node21</title>
<g id="a_edge51_Node000001_Node000021"><a xlink:title=" ">
<path fill="none" stroke="#63b8ff" d="M178.01,-406.96C318.64,-370.33 617.73,-292.42 728.54,-263.56"/>
<polygon fill="#63b8ff" stroke="#63b8ff" points="729.57,-266.91 738.36,-261 727.8,-260.14 729.57,-266.91"/>
</a>
</g>
</g>
<!-- Node4 -->
<g id="Node000004" class="node">
<title>Node4</title>
<g id="a_Node000004"><a xlink:title=" ">
<polygon fill="#e0e0e0" stroke="#999999" points="1325,-316 1283,-316 1283,-297 1325,-297 1325,-316"/>
<text text-anchor="middle" x="1304" y="-304" font-family="Helvetica,sans-Serif" font-size="10.00">array</text>
</a>
</g>
</g>
<!-- Node3&#45;&gt;Node4 -->
<g id="edge3_Node000003_Node000004" class="edge">
<title>Node3&#45;&gt;Node4</title>
<g id="a_edge3_Node000003_Node000004"><a xlink:title=" ">
<path fill="none" stroke="#63b8ff" d="M1043.42,-351.99C1104.12,-344.88 1189.56,-333.39 1272.9,-315.99"/>
<polygon fill="#63b8ff" stroke="#63b8ff" points="1273.73,-319.39 1282.78,-313.89 1272.27,-312.54 1273.73,-319.39"/>
</a>
</g>
</g>
<!-- Node5 -->
<g id="Node000005" class="node">
<title>Node5</title>
<g id="a_Node000005"><a xlink:title=" ">
<polygon fill="#e0e0e0" stroke="#999999" points="1052,-261 1002,-261 1002,-242 1052,-242 1052,-261"/>
<text text-anchor="middle" x="1027" y="-249" font-family="Helvetica,sans-Serif" font-size="10.00">chrono</text>
</a>
</g>
</g>
<!-- Node3&#45;&gt;Node5 -->
<g id="edge4_Node000003_Node000005" class="edge">
<title>Node3&#45;&gt;Node5</title>
<g id="a_edge4_Node000003_Node000005"><a xlink:title=" ">
<path fill="none" stroke="#63b8ff" d="M971.19,-351.82C979.03,-343.21 990.82,-329.4 999,-316 1007.82,-301.54 1015.4,-283.8 1020.44,-270.75"/>
<polygon fill="#63b8ff" stroke="#63b8ff" points="1023.84,-271.66 1024.05,-261.07 1017.28,-269.22 1023.84,-271.66"/>
</a>
</g>
</g>
<!-- Node6 -->
<g id="Node000006" class="node">
<title>Node6</title>
<g id="a_Node000006"><a xlink:title=" ">
<polygon fill="#e0e0e0" stroke="#999999" points="1199.5,-316 1146.5,-316 1146.5,-297 1199.5,-297 1199.5,-316"/>
<text text-anchor="middle" x="1173" y="-304" font-family="Helvetica,sans-Serif" font-size="10.00">iterator</text>
</a>
</g>
</g>
<!-- Node3&#45;&gt;Node6 -->
<g id="edge5_Node000003_Node000006" class="edge">
<title>Node3&#45;&gt;Node6</title>
<g id="a_edge5_Node000003_Node000006"><a xlink:title=" ">
<path fill="none" stroke="#63b8ff" d="M996.74,-351.98C1035.03,-342.32 1097.26,-326.62 1136.61,-316.68"/>
<polygon fill="#63b8ff" stroke="#63b8ff" points="1137.5,-320.07 1146.34,-314.23 1135.79,-313.28 1137.5,-320.07"/>
</a>
</g>
</g>
<!-- Node7 -->
<g id="Node000007" class="node">
<title>Node7</title>
<g id="a_Node000007"><a xlink:title=" ">
<polygon fill="#e0e0e0" stroke="#999999" points="401,-140 357,-140 357,-121 401,-121 401,-140"/>
<text text-anchor="middle" x="379" y="-128" font-family="Helvetica,sans-Serif" font-size="10.00">string</text>
</a>
</g>
</g>
<!-- Node3&#45;&gt;Node7 -->
<g id="edge6_Node000003_Node000007" class="edge">
<title>Node3&#45;&gt;Node7</title>
<g id="a_edge6_Node000003_Node000007"><a xlink:title=" ">
<path fill="none" stroke="#63b8ff" d="M880.93,-352.41C751.21,-338.42 505.92,-306.76 432,-261 405.85,-244.81 401.96,-234.34 390,-206 382.46,-188.15 379.97,-165.99 379.2,-150.5"/>
<polygon fill="#63b8ff" stroke="#63b8ff" points="382.69,-150.03 378.9,-140.14 375.69,-150.24 382.69,-150.03"/>
</a>
</g>
</g>
<!-- Node8 -->
<g id="Node000008" class="node">
<title>Node8</title>
<g id="a_Node000008"><a xlink:title=" ">
<polygon fill="#e0e0e0" stroke="#999999" points="1207.5,-19 1138.5,-19 1138.5,0 1207.5,0 1207.5,-19"/>
<text text-anchor="middle" x="1173" y="-7" font-family="Helvetica,sans-Serif" font-size="10.00">type_traits</text>
</a>
</g>
</g>
<!-- Node3&#45;&gt;Node8 -->
<g id="edge7_Node000003_Node000008" class="edge">
<title>Node3&#45;&gt;Node8</title>
<g id="a_edge7_Node000003_Node000008"><a xlink:title=" ">
<path fill="none" stroke="#63b8ff" d="M1045.35,-360.84C1141.17,-359.53 1291.69,-351.62 1334,-316 1356.54,-297.03 1353,-281.96 1353,-252.5 1353,-252.5 1353,-252.5 1353,-129.5 1353,-64.74 1270.93,-33.18 1217.62,-19.51"/>
<polygon fill="#63b8ff" stroke="#63b8ff" points="1218.25,-16.06 1207.71,-17.09 1216.59,-22.86 1218.25,-16.06"/>
</a>
</g>
</g>
<!-- Node9 -->
<g id="Node000009" class="node">
<title>Node9</title>
<g id="a_Node000009"><a xlink:title=" ">
<polygon fill="#e0e0e0" stroke="#999999" points="1264.5,-316 1217.5,-316 1217.5,-297 1264.5,-297 1264.5,-316"/>
<text text-anchor="middle" x="1241" y="-304" font-family="Helvetica,sans-Serif" font-size="10.00">vector</text>
</a>
</g>
</g>
<!-- Node3&#45;&gt;Node9 -->
<g id="edge8_Node000003_Node000009" class="edge">
<title>Node3&#45;&gt;Node9</title>
<g id="a_edge8_Node000003_Node000009"><a xlink:title=" ">
<path fill="none" stroke="#63b8ff" d="M1017.48,-351.94C1065.25,-344.14 1136.77,-331.76 1207.34,-316.24"/>
<polygon fill="#63b8ff" stroke="#63b8ff" points="1208.28,-319.61 1217.29,-314.03 1206.77,-312.78 1208.28,-319.61"/>
</a>
</g>
</g>
<!-- Node10 -->
<g id="Node000010" class="node">
<title>Node10</title>
<g id="a_Node000010"><a xlink:href="Common_8h.html" target="_top" xlink:title=" ">
<polygon fill="white" stroke="#666666" points="975.5,-140 836.5,-140 836.5,-121 975.5,-121 975.5,-140"/>
<text text-anchor="middle" x="906" y="-128" font-family="Helvetica,sans-Serif" font-size="10.00">open62541pp/Common.h</text>
</a>
</g>
</g>
<!-- Node3&#45;&gt;Node10 -->
<g id="edge9_Node000003_Node000010" class="edge">
<title>Node3&#45;&gt;Node10</title>
<g id="a_edge9_Node000003_Node000010"><a xlink:title=" ">
<path fill="none" stroke="#63b8ff" d="M980.05,-351.97C1014.07,-333.72 1085.09,-288.75 1061,-242 1035.5,-192.51 976.45,-160.31 939.04,-144.07"/>
<polygon fill="#63b8ff" stroke="#63b8ff" points="940.15,-140.74 929.57,-140.1 937.44,-147.19 940.15,-140.74"/>
</a>
</g>
</g>
<!-- Node14 -->
<g id="Node000014" class="node">
<title>Node14</title>
<g id="a_Node000014"><a xlink:href="traits_8h.html" target="_top" xlink:title=" ">
<polygon fill="white" stroke="#666666" points="1144.5,-85 1031.5,-85 1031.5,-55 1144.5,-55 1144.5,-85"/>
<text text-anchor="start" x="1039.5" y="-73" font-family="Helvetica,sans-Serif" font-size="10.00">open62541pp/detail</text>
<text text-anchor="middle" x="1088" y="-62" font-family="Helvetica,sans-Serif" font-size="10.00">/traits.h</text>
</a>
</g>
</g>
<!-- Node3&#45;&gt;Node14 -->
<g id="edge41_Node000003_Node000014" class="edge">
<title>Node3&#45;&gt;Node14</title>
<g id="a_edge41_Node000003_Node000014"><a xlink:title=" ">
<path fill="none" stroke="#63b8ff" d="M1000.52,-351.92C1046.39,-338.95 1118,-309.57 1118,-252.5 1118,-252.5 1118,-252.5 1118,-190 1118,-156.22 1106.49,-118.64 1097.73,-94.92"/>
<polygon fill="#63b8ff" stroke="#63b8ff" points="1100.92,-93.45 1094.07,-85.36 1094.38,-95.95 1100.92,-93.45"/>
</a>
</g>
</g>
<!-- Node3&#45;&gt;Node15 -->
<g id="edge42_Node000003_Node000015" class="edge">
<title>Node3&#45;&gt;Node15</title>
<g id="a_edge42_Node000003_Node000015"><a xlink:title=" ">
<path fill="none" stroke="#63b8ff" d="M880.71,-360.33C730.45,-359.12 417.78,-352.17 316,-316 236.06,-287.59 199.05,-281.32 160,-206 110.61,-110.75 284.49,-82.69 395.12,-74.43"/>
<polygon fill="#63b8ff" stroke="#63b8ff" points="395.56,-77.91 405.29,-73.72 395.07,-70.93 395.56,-77.91"/>
</a>
</g>
</g>
<!-- Node19 -->
<g id="Node000019" class="node">
<title>Node19</title>
<g id="a_Node000019"><a xlink:href="ErrorHandling_8h.html" target="_top" xlink:title=" ">
<polygon fill="white" stroke="#666666" points="330.5,-200.5 169.5,-200.5 169.5,-181.5 330.5,-181.5 330.5,-200.5"/>
<text text-anchor="middle" x="250" y="-188.5" font-family="Helvetica,sans-Serif" font-size="10.00">open62541pp/ErrorHandling.h</text>
</a>
</g>
</g>
<!-- Node3&#45;&gt;Node19 -->
<g id="edge20_Node000003_Node000019" class="edge">
<title>Node3&#45;&gt;Node19</title>
<g id="a_edge20_Node000003_Node000019"><a xlink:title=" ">
<path fill="none" stroke="#63b8ff" d="M880.81,-358.32C723.43,-353.6 391.01,-340.81 345,-316 300.97,-292.26 271.07,-238.37 257.8,-210.09"/>
<polygon fill="#63b8ff" stroke="#63b8ff" points="260.83,-208.3 253.53,-200.62 254.45,-211.17 260.83,-208.3"/>
</a>
</g>
</g>
<!-- Node3&#45;&gt;Node21 -->
<g id="edge24_Node000003_Node000021" class="edge">
<title>Node3&#45;&gt;Node21</title>
<g id="a_edge24_Node000003_Node000021"><a xlink:title=" ">
<path fill="none" stroke="#63b8ff" d="M892.58,-351.96C864.05,-345.69 832.19,-334.83 808,-316 793.24,-304.51 783.25,-285.35 777.41,-271.08"/>
<polygon fill="#63b8ff" stroke="#63b8ff" points="780.53,-269.45 773.74,-261.32 773.98,-271.91 780.53,-269.45"/>
</a>
</g>
</g>
<!-- Node24 -->
<g id="Node000024" class="node">
<title>Node24</title>
<g id="a_Node000024"><a xlink:href="helper_8h.html" target="_top" xlink:title=" ">
<polygon fill="white" stroke="#666666" points="728.5,-206 615.5,-206 615.5,-176 728.5,-176 728.5,-206"/>
<text text-anchor="start" x="623.5" y="-194" font-family="Helvetica,sans-Serif" font-size="10.00">open62541pp/detail</text>
<text text-anchor="middle" x="672" y="-183" font-family="Helvetica,sans-Serif" font-size="10.00">/helper.h</text>
</a>
</g>
</g>
<!-- Node3&#45;&gt;Node24 -->
<g id="edge40_Node000003_Node000024" class="edge">
<title>Node3&#45;&gt;Node24</title>
<g id="a_edge40_Node000003_Node000024"><a xlink:title=" ">
<path fill="none" stroke="#63b8ff" d="M880.92,-355.69C815.55,-347.04 727.81,-323.61 683,-261 673.77,-248.11 671.1,-230.4 670.69,-216.15"/>
<polygon fill="#63b8ff" stroke="#63b8ff" points="674.19,-216.08 670.75,-206.06 667.19,-216.04 674.19,-216.08"/>
</a>
</g>
</g>
<!-- Node26 -->
<g id="Node000026" class="node">
<title>Node26</title>
<g id="a_Node000026"><a xlink:href="DateTime_8h.html" target="_top" xlink:title=" ">
<polygon fill="white" stroke="#666666" points="989.5,-316 816.5,-316 816.5,-297 989.5,-297 989.5,-316"/>
<text text-anchor="middle" x="903" y="-304" font-family="Helvetica,sans-Serif" font-size="10.00">open62541pp/types/DateTime.h</text>
</a>
</g>
</g>
<!-- Node3&#45;&gt;Node26 -->
<g id="edge43_Node000003_Node000026" class="edge">
<title>Node3&#45;&gt;Node26</title>
<g id="a_edge43_Node000003_Node000026"><a xlink:title=" ">
<path fill="none" stroke="#63b8ff" d="M953.36,-351.98C944.49,-344.15 931.13,-332.34 920.39,-322.86"/>
<polygon fill="#63b8ff" stroke="#63b8ff" points="922.63,-320.17 912.82,-316.17 917.99,-325.41 922.63,-320.17"/>
</a>
</g>
</g>
<!-- Node11 -->
<g id="Node000011" class="node">
<title>Node11</title>
<g id="a_Node000011"><a xlink:title=" ">
<polygon fill="#e0e0e0" stroke="#999999" points="1013,-79.5 963,-79.5 963,-60.5 1013,-60.5 1013,-79.5"/>
<text text-anchor="middle" x="988" y="-67.5" font-family="Helvetica,sans-Serif" font-size="10.00">cstdint</text>
</a>
</g>
</g>
<!-- Node10&#45;&gt;Node11 -->
<g id="edge10_Node000010_Node000011" class="edge">
<title>Node10&#45;&gt;Node11</title>
<g id="a_edge10_Node000010_Node000011"><a xlink:title=" ">
<path fill="none" stroke="#63b8ff" d="M918.1,-120.87C931.06,-111.62 951.86,-96.78 967.4,-85.69"/>
<polygon fill="#63b8ff" stroke="#63b8ff" points="969.74,-88.32 975.85,-79.67 965.68,-82.63 969.74,-88.32"/>
</a>
</g>
</g>
<!-- Node12 -->
<g id="Node000012" class="node">
<title>Node12</title>
<g id="a_Node000012"><a xlink:title=" ">
<polygon fill="#e0e0e0" stroke="#999999" points="844.5,-79.5 771.5,-79.5 771.5,-60.5 844.5,-60.5 844.5,-79.5"/>
<text text-anchor="middle" x="808" y="-67.5" font-family="Helvetica,sans-Serif" font-size="10.00">string_view</text>
</a>
</g>
</g>
<!-- Node10&#45;&gt;Node12 -->
<g id="edge11_Node000010_Node000012" class="edge">
<title>Node10&#45;&gt;Node12</title>
<g id="a_edge11_Node000010_Node000012"><a xlink:title=" ">
<path fill="none" stroke="#63b8ff" d="M891.54,-120.87C875.69,-111.41 850.03,-96.09 831.32,-84.92"/>
<polygon fill="#63b8ff" stroke="#63b8ff" points="832.9,-81.79 822.52,-79.67 829.31,-87.8 832.9,-81.79"/>
</a>
</g>
</g>
<!-- Node13 -->
<g id="Node000013" class="node">
<title>Node13</title>
<g id="a_Node000013"><a xlink:title=" ">
<polygon fill="#e0e0e0" stroke="#999999" points="1024.5,-19 983.5,-19 983.5,0 1024.5,0 1024.5,-19"/>
<text text-anchor="middle" x="1004" y="-7" font-family="Helvetica,sans-Serif" font-size="10.00">tuple</text>
</a>
</g>
</g>
<!-- Node10&#45;&gt;Node13 -->
<g id="edge12_Node000010_Node000013" class="edge">
<title>Node10&#45;&gt;Node13</title>
<g id="a_edge12_Node000010_Node000013"><a xlink:title=" ">
<path fill="none" stroke="#63b8ff" d="M910.63,-120.71C918.48,-106.22 935.39,-76.74 954,-55 963.12,-44.35 974.75,-33.85 984.5,-25.73"/>
<polygon fill="#63b8ff" stroke="#63b8ff" points="986.91,-28.28 992.47,-19.26 982.5,-22.84 986.91,-28.28"/>
</a>
</g>
</g>
<!-- Node10&#45;&gt;Node14 -->
<g id="edge13_Node000010_Node000014" class="edge">
<title>Node10&#45;&gt;Node14</title>
<g id="a_edge13_Node000010_Node000014"><a xlink:title=" ">
<path fill="none" stroke="#63b8ff" d="M932.46,-120.99C959.11,-112.43 1000.98,-98.97 1034.56,-88.18"/>
<polygon fill="#63b8ff" stroke="#63b8ff" points="1035.8,-91.46 1044.24,-85.06 1033.65,-84.79 1035.8,-91.46"/>
</a>
</g>
</g>
<!-- Node10&#45;&gt;Node15 -->
<g id="edge16_Node000010_Node000015" class="edge">
<title>Node10&#45;&gt;Node15</title>
<g id="a_edge16_Node000010_Node000015"><a xlink:title=" ">
<path fill="none" stroke="#63b8ff" d="M844.06,-120.99C766.52,-110.35 633.97,-92.14 552,-80.89"/>
<polygon fill="#63b8ff" stroke="#63b8ff" points="552.4,-77.41 542.02,-79.52 551.45,-84.34 552.4,-77.41"/>
</a>
</g>
</g>
<!-- Node14&#45;&gt;Node8 -->
<g id="edge15_Node000014_Node000008" class="edge">
<title>Node14&#45;&gt;Node8</title>
<g id="a_edge15_Node000014_Node000008"><a xlink:title=" ">
<path fill="none" stroke="#63b8ff" d="M1108.58,-54.84C1121.67,-45.83 1138.59,-34.18 1151.8,-25.09"/>
<polygon fill="#63b8ff" stroke="#63b8ff" points="1154.01,-27.82 1160.26,-19.27 1150.04,-22.05 1154.01,-27.82"/>
</a>
</g>
</g>
<!-- Node14&#45;&gt;Node13 -->
<g id="edge14_Node000014_Node000013" class="edge">
<title>Node14&#45;&gt;Node13</title>
<g id="a_edge14_Node000014_Node000013"><a xlink:title=" ">
<path fill="none" stroke="#63b8ff" d="M1067.67,-54.84C1054.73,-45.83 1038.01,-34.18 1024.95,-25.09"/>
<polygon fill="#63b8ff" stroke="#63b8ff" points="1026.79,-22.11 1016.59,-19.27 1022.79,-27.85 1026.79,-22.11"/>
</a>
</g>
</g>
<!-- Node16 -->
<g id="Node000016" class="node">
<title>Node16</title>
<g id="a_Node000016"><a target="_blank" xlink:href="open62541/nodeids_8h.html" xlink:title=" ">
<polygon fill="white" stroke="#666666" points="540.5,-19 419.5,-19 419.5,0 540.5,0 540.5,-19"/>
<text text-anchor="middle" x="480" y="-7" font-family="Helvetica,sans-Serif" font-size="10.00">open62541/nodeids.h</text>
</a>
</g>
</g>
<!-- Node15&#45;&gt;Node16 -->
<g id="edge17_Node000015_Node000016" class="edge">
<title>Node15&#45;&gt;Node16</title>
<g id="a_edge17_Node000015_Node000016"><a xlink:title=" ">
<path fill="none" stroke="#63b8ff" d="M480,-60.37C480,-52.25 480,-39.81 480,-29.39"/>
<polygon fill="#63b8ff" stroke="#63b8ff" points="483.5,-29.17 480,-19.17 476.5,-29.17 483.5,-29.17"/>
</a>
</g>
</g>
<!-- Node17 -->
<g id="Node000017" class="node">
<title>Node17</title>
<g id="a_Node000017"><a target="_blank" xlink:href="open62541/types_8h.html" xlink:title=" ">
<polygon fill="white" stroke="#666666" points="669,-19 559,-19 559,0 669,0 669,-19"/>
<text text-anchor="middle" x="614" y="-7" font-family="Helvetica,sans-Serif" font-size="10.00">open62541/types.h</text>
</a>
</g>
</g>
<!-- Node15&#45;&gt;Node17 -->
<g id="edge18_Node000015_Node000017" class="edge">
<title>Node15&#45;&gt;Node17</title>
<g id="a_edge18_Node000015_Node000017"><a xlink:title=" ">
<path fill="none" stroke="#63b8ff" d="M499.48,-60.49C522.01,-50.66 559.31,-34.38 585.19,-23.08"/>
<polygon fill="#63b8ff" stroke="#63b8ff" points="586.73,-26.23 594.49,-19.02 583.93,-19.81 586.73,-26.23"/>
</a>
</g>
</g>
<!-- Node18 -->
<g id="Node000018" class="node">
<title>Node18</title>
<g id="a_Node000018"><a target="_blank" xlink:href="open62541/types__generated_8h.html" xlink:title=" ">
<polygon fill="white" stroke="#666666" points="401,-19 237,-19 237,0 401,0 401,-19"/>
<text text-anchor="middle" x="319" y="-7" font-family="Helvetica,sans-Serif" font-size="10.00">open62541/types_generated.h</text>
</a>
</g>
</g>
<!-- Node15&#45;&gt;Node18 -->
<g id="edge19_Node000015_Node000018" class="edge">
<title>Node15&#45;&gt;Node18</title>
<g id="a_edge19_Node000015_Node000018"><a xlink:title=" ">
<path fill="none" stroke="#63b8ff" d="M456.59,-60.49C429.05,-50.49 383.13,-33.8 351.99,-22.49"/>
<polygon fill="#63b8ff" stroke="#63b8ff" points="353.03,-19.14 342.44,-19.02 350.64,-25.72 353.03,-19.14"/>
</a>
</g>
</g>
<!-- Node19&#45;&gt;Node7 -->
<g id="edge22_Node000019_Node000007" class="edge">
<title>Node19&#45;&gt;Node7</title>
<g id="a_edge22_Node000019_Node000007"><a xlink:title=" ">
<path fill="none" stroke="#63b8ff" d="M268.76,-181.49C290.35,-171.7 326.03,-155.52 350.93,-144.23"/>
<polygon fill="#63b8ff" stroke="#63b8ff" points="352.56,-147.33 360.22,-140.02 349.67,-140.96 352.56,-147.33"/>
</a>
</g>
</g>
<!-- Node19&#45;&gt;Node15 -->
<g id="edge23_Node000019_Node000015" class="edge">
<title>Node19&#45;&gt;Node15</title>
<g id="a_edge23_Node000019_Node000015"><a xlink:title=" ">
<path fill="none" stroke="#63b8ff" d="M260.31,-181.41C277.57,-167.34 313.81,-139.14 348,-121 378.14,-105.01 414.53,-91.63 441.47,-82.74"/>
<polygon fill="#63b8ff" stroke="#63b8ff" points="442.86,-85.97 451.29,-79.56 440.7,-79.31 442.86,-85.97"/>
</a>
</g>
</g>
<!-- Node20 -->
<g id="Node000020" class="node">
<title>Node20</title>
<g id="a_Node000020"><a xlink:title=" ">
<polygon fill="#e0e0e0" stroke="#999999" points="282.5,-140 217.5,-140 217.5,-121 282.5,-121 282.5,-140"/>
<text text-anchor="middle" x="250" y="-128" font-family="Helvetica,sans-Serif" font-size="10.00">stdexcept</text>
</a>
</g>
</g>
<!-- Node19&#45;&gt;Node20 -->
<g id="edge21_Node000019_Node000020" class="edge">
<title>Node19&#45;&gt;Node20</title>
<g id="a_edge21_Node000019_Node000020"><a xlink:title=" ">
<path fill="none" stroke="#63b8ff" d="M250,-181.37C250,-173.25 250,-160.81 250,-150.39"/>
<polygon fill="#63b8ff" stroke="#63b8ff" points="253.5,-150.17 250,-140.17 246.5,-150.17 253.5,-150.17"/>
</a>
</g>
</g>
<!-- Node21&#45;&gt;Node8 -->
<g id="edge27_Node000021_Node000008" class="edge">
<title>Node21&#45;&gt;Node8</title>
<g id="a_edge27_Node000021_Node000008"><a xlink:title=" ">
<path fill="none" stroke="#63b8ff" d="M822.31,-242C859.03,-234.92 909.17,-223.19 951,-206 1048.15,-166.07 1091.15,-169.15 1154,-85 1166.08,-68.82 1170.52,-45.75 1172.13,-29.58"/>
<polygon fill="#63b8ff" stroke="#63b8ff" points="1175.65,-29.45 1172.87,-19.22 1168.67,-28.95 1175.65,-29.45"/>
</a>
</g>
</g>
<!-- Node21&#45;&gt;Node10 -->
<g id="edge29_Node000021_Node000010" class="edge">
<title>Node21&#45;&gt;Node10</title>
<g id="a_edge29_Node000021_Node000010"><a xlink:title=" ">
<path fill="none" stroke="#63b8ff" d="M811.6,-241.99C833.78,-235.47 860.25,-224.38 878,-206 892.82,-190.66 899.95,-166.73 903.27,-150.15"/>
<polygon fill="#63b8ff" stroke="#63b8ff" points="906.77,-150.49 905.01,-140.04 899.87,-149.3 906.77,-150.49"/>
</a>
</g>
</g>
<!-- Node21&#45;&gt;Node11 -->
<g id="edge26_Node000021_Node000011" class="edge">
<title>Node21&#45;&gt;Node11</title>
<g id="a_edge26_Node000021_Node000011"><a xlink:title=" ">
<path fill="none" stroke="#63b8ff" d="M819.94,-241.99C872.61,-229.82 953.13,-201.66 985,-140 992.99,-124.53 992.88,-104.42 991.29,-89.9"/>
<polygon fill="#63b8ff" stroke="#63b8ff" points="994.71,-89.06 989.83,-79.65 987.78,-90.05 994.71,-89.06"/>
</a>
</g>
</g>
<!-- Node21&#45;&gt;Node15 -->
<g id="edge37_Node000021_Node000015" class="edge">
<title>Node21&#45;&gt;Node15</title>
<g id="a_edge37_Node000021_Node000015"><a xlink:title=" ">
<path fill="none" stroke="#63b8ff" d="M772.69,-241.8C776.64,-218.6 783.81,-154.78 751,-121 725.62,-94.87 634.57,-82.14 564.94,-76.11"/>
<polygon fill="#63b8ff" stroke="#63b8ff" points="565.08,-72.61 554.83,-75.26 564.5,-79.58 565.08,-72.61"/>
</a>
</g>
</g>
<!-- Node21&#45;&gt;Node19 -->
<g id="edge30_Node000021_Node000019" class="edge">
<title>Node21&#45;&gt;Node19</title>
<g id="a_edge30_Node000021_Node000019"><a xlink:title=" ">
<path fill="none" stroke="#63b8ff" d="M695.24,-241.99C599.74,-231.27 436,-212.88 335.93,-201.65"/>
<polygon fill="#63b8ff" stroke="#63b8ff" points="336.18,-198.15 325.85,-200.52 335.4,-205.11 336.18,-198.15"/>
</a>
</g>
</g>
<!-- Node22 -->
<g id="Node000022" class="node">
<title>Node22</title>
<g id="a_Node000022"><a xlink:title=" ">
<polygon fill="#e0e0e0" stroke="#999999" points="742,-140 690,-140 690,-121 742,-121 742,-140"/>
<text text-anchor="middle" x="716" y="-128" font-family="Helvetica,sans-Serif" font-size="10.00">cassert</text>
</a>
</g>
</g>
<!-- Node21&#45;&gt;Node22 -->
<g id="edge25_Node000021_Node000022" class="edge">
<title>Node21&#45;&gt;Node22</title>
<g id="a_edge25_Node000021_Node000022"><a xlink:title=" ">
<path fill="none" stroke="#63b8ff" d="M767.26,-241.73C761.26,-227.75 749.04,-199.57 738,-176 733.89,-167.22 729.14,-157.56 725.11,-149.5"/>
<polygon fill="#63b8ff" stroke="#63b8ff" points="728.11,-147.67 720.49,-140.31 721.86,-150.82 728.11,-147.67"/>
</a>
</g>
</g>
<!-- Node23 -->
<g id="Node000023" class="node">
<title>Node23</title>
<g id="a_Node000023"><a xlink:title=" ">
<polygon fill="#e0e0e0" stroke="#999999" points="868.5,-200.5 823.5,-200.5 823.5,-181.5 868.5,-181.5 868.5,-200.5"/>
<text text-anchor="middle" x="846" y="-188.5" font-family="Helvetica,sans-Serif" font-size="10.00">utility</text>
</a>
</g>
</g>
<!-- Node21&#45;&gt;Node23 -->
<g id="edge28_Node000021_Node000023" class="edge">
<title>Node21&#45;&gt;Node23</title>
<g id="a_edge28_Node000021_Node000023"><a xlink:title=" ">
<path fill="none" stroke="#63b8ff" d="M782.07,-241.87C793.81,-232.71 812.59,-218.06 826.76,-207.01"/>
<polygon fill="#63b8ff" stroke="#63b8ff" points="829.16,-209.58 834.89,-200.67 824.85,-204.06 829.16,-209.58"/>
</a>
</g>
</g>
<!-- Node21&#45;&gt;Node24 -->
<g id="edge31_Node000021_Node000024" class="edge">
<title>Node21&#45;&gt;Node24</title>
<g id="a_edge31_Node000021_Node000024"><a xlink:title=" ">
<path fill="none" stroke="#63b8ff" d="M756.39,-241.87C742.83,-233.86 722.17,-221.65 704.69,-211.31"/>
<polygon fill="#63b8ff" stroke="#63b8ff" points="706.28,-208.19 695.89,-206.11 702.71,-214.22 706.28,-208.19"/>
</a>
</g>
</g>
<!-- Node25 -->
<g id="Node000025" class="node">
<title>Node25</title>
<g id="a_Node000025"><a xlink:href="comparison_8h.html" target="_top" xlink:title=" ">
<polygon fill="white" stroke="#666666" points="597,-206 463,-206 463,-176 597,-176 597,-206"/>
<text text-anchor="start" x="471" y="-194" font-family="Helvetica,sans-Serif" font-size="10.00">open62541pp/overloads</text>
<text text-anchor="middle" x="530" y="-183" font-family="Helvetica,sans-Serif" font-size="10.00">/comparison.h</text>
</a>
</g>
</g>
<!-- Node21&#45;&gt;Node25 -->
<g id="edge38_Node000021_Node000025" class="edge">
<title>Node21&#45;&gt;Node25</title>
<g id="a_edge38_Node000021_Node000025"><a xlink:title=" ">
<path fill="none" stroke="#63b8ff" d="M735.96,-241.99C699.91,-233.24 642.84,-219.39 597.91,-208.48"/>
<polygon fill="#63b8ff" stroke="#63b8ff" points="598.48,-205.02 587.94,-206.06 596.83,-211.82 598.48,-205.02"/>
</a>
</g>
</g>
<!-- Node24&#45;&gt;Node7 -->
<g id="edge33_Node000024_Node000007" class="edge">
<title>Node24&#45;&gt;Node7</title>
<g id="a_edge33_Node000024_Node000007"><a xlink:title=" ">
<path fill="none" stroke="#63b8ff" d="M615.49,-177.95C612.28,-177.29 609.1,-176.63 606,-176 536.6,-161.84 455.09,-146.07 411.09,-137.63"/>
<polygon fill="#63b8ff" stroke="#63b8ff" points="411.74,-134.19 401.26,-135.74 410.42,-141.06 411.74,-134.19"/>
</a>
</g>
</g>
<!-- Node24&#45;&gt;Node10 -->
<g id="edge35_Node000024_Node000010" class="edge">
<title>Node24&#45;&gt;Node10</title>
<g id="a_edge35_Node000024_Node000010"><a xlink:title=" ">
<path fill="none" stroke="#63b8ff" d="M728.05,-175.99C769.13,-165.72 824.12,-151.97 862.05,-142.49"/>
<polygon fill="#63b8ff" stroke="#63b8ff" points="862.93,-145.87 871.79,-140.05 861.24,-139.08 862.93,-145.87"/>
</a>
</g>
</g>
<!-- Node24&#45;&gt;Node12 -->
<g id="edge34_Node000024_Node000012" class="edge">
<title>Node24&#45;&gt;Node12</title>
<g id="a_edge34_Node000024_Node000012"><a xlink:title=" ">
<path fill="none" stroke="#63b8ff" d="M669.95,-176C668.54,-160.84 668.74,-136.71 681,-121 700.35,-96.21 733.76,-83.69 761.46,-77.37"/>
<polygon fill="#63b8ff" stroke="#63b8ff" points="762.29,-80.77 771.37,-75.32 760.87,-73.92 762.29,-80.77"/>
</a>
</g>
</g>
<!-- Node24&#45;&gt;Node15 -->
<g id="edge36_Node000024_Node000015" class="edge">
<title>Node24&#45;&gt;Node15</title>
<g id="a_edge36_Node000024_Node000015"><a xlink:title=" ">
<path fill="none" stroke="#63b8ff" d="M649.22,-175.88C612.23,-152.95 539.51,-107.88 502.62,-85.02"/>
<polygon fill="#63b8ff" stroke="#63b8ff" points="504.4,-82 494.06,-79.71 500.71,-87.95 504.4,-82"/>
</a>
</g>
</g>
<!-- Node24&#45;&gt;Node22 -->
<g id="edge32_Node000024_Node000022" class="edge">
<title>Node24&#45;&gt;Node22</title>
<g id="a_edge32_Node000024_Node000022"><a xlink:title=" ">
<path fill="none" stroke="#63b8ff" d="M682.65,-175.84C688.84,-167.61 696.69,-157.18 703.21,-148.51"/>
<polygon fill="#63b8ff" stroke="#63b8ff" points="706.19,-150.36 709.41,-140.27 700.6,-146.15 706.19,-150.36"/>
</a>
</g>
</g>
<!-- Node25&#45;&gt;Node15 -->
<g id="edge39_Node000025_Node000015" class="edge">
<title>Node25&#45;&gt;Node15</title>
<g id="a_edge39_Node000025_Node000015"><a xlink:title=" ">
<path fill="none" stroke="#63b8ff" d="M524.07,-175.88C514.96,-154.22 497.56,-112.78 487.56,-88.99"/>
<polygon fill="#63b8ff" stroke="#63b8ff" points="490.76,-87.57 483.66,-79.71 484.31,-90.29 490.76,-87.57"/>
</a>
</g>
</g>
<!-- Node26&#45;&gt;Node5 -->
<g id="edge44_Node000026_Node000005" class="edge">
<title>Node26&#45;&gt;Node5</title>
<g id="a_edge44_Node000026_Node000005"><a xlink:title=" ">
<path fill="none" stroke="#63b8ff" d="M922.92,-296.98C943.05,-288.38 974.38,-274.99 997.41,-265.15"/>
<polygon fill="#63b8ff" stroke="#63b8ff" points="998.9,-268.32 1006.71,-261.17 996.14,-261.88 998.9,-268.32"/>
</a>
</g>
</g>
<!-- Node26&#45;&gt;Node7 -->
<g id="edge47_Node000026_Node000007" class="edge">
<title>Node26&#45;&gt;Node7</title>
<g id="a_edge47_Node000026_Node000007"><a xlink:title=" ">
<path fill="none" stroke="#63b8ff" d="M816.27,-305.31C704.49,-303.64 517.55,-295.54 459,-261 416.82,-236.11 393.78,-179.39 384.28,-149.97"/>
<polygon fill="#63b8ff" stroke="#63b8ff" points="387.55,-148.7 381.29,-140.15 380.86,-150.74 387.55,-148.7"/>
</a>
</g>
</g>
<!-- Node26&#45;&gt;Node11 -->
<g id="edge45_Node000026_Node000011" class="edge">
<title>Node26&#45;&gt;Node11</title>
<g id="a_edge45_Node000026_Node000011"><a xlink:title=" ">
<path fill="none" stroke="#63b8ff" d="M916.63,-296.75C928.22,-288.69 944.61,-275.77 955,-261 988.11,-213.95 990.61,-196.59 1001,-140 1004.13,-122.97 999.78,-103.6 995.3,-89.72"/>
<polygon fill="#63b8ff" stroke="#63b8ff" points="998.46,-88.17 991.81,-79.93 991.86,-90.52 998.46,-88.17"/>
</a>
</g>
</g>
<!-- Node26&#45;&gt;Node12 -->
<g id="edge48_Node000026_Node000012" class="edge">
<title>Node26&#45;&gt;Node12</title>
<g id="a_edge48_Node000026_Node000012"><a xlink:title=" ">
<path fill="none" stroke="#63b8ff" d="M902.16,-296.79C899.56,-271.13 891.01,-196.35 878,-176 863.25,-152.93 843.79,-162.37 828,-140 817.46,-125.06 812.43,-104.6 810.06,-89.84"/>
<polygon fill="#63b8ff" stroke="#63b8ff" points="813.52,-89.3 808.72,-79.85 806.58,-90.23 813.52,-89.3"/>
</a>
</g>
</g>
<!-- Node26&#45;&gt;Node15 -->
<g id="edge50_Node000026_Node000015" class="edge">
<title>Node26&#45;&gt;Node15</title>
<g id="a_edge50_Node000026_Node000015"><a xlink:title=" ">
<path fill="none" stroke="#63b8ff" d="M816.1,-299.01C698.44,-288.19 498.05,-261.88 454,-206 426.64,-171.29 452.46,-116.16 468.85,-88.31"/>
<polygon fill="#63b8ff" stroke="#63b8ff" points="471.9,-90.03 474.15,-79.68 465.93,-86.37 471.9,-90.03"/>
</a>
</g>
</g>
<!-- Node26&#45;&gt;Node21 -->
<g id="edge49_Node000026_Node000021" class="edge">
<title>Node26&#45;&gt;Node21</title>
<g id="a_edge49_Node000026_Node000021"><a xlink:title=" ">
<path fill="none" stroke="#63b8ff" d="M881.79,-296.98C860.27,-288.34 826.72,-274.87 802.17,-265.02"/>
<polygon fill="#63b8ff" stroke="#63b8ff" points="803.18,-261.65 792.59,-261.17 800.57,-268.14 803.18,-261.65"/>
</a>
</g>
</g>
<!-- Node27 -->
<g id="Node000027" class="node">
<title>Node27</title>
<g id="a_Node000027"><a xlink:title=" ">
<polygon fill="#e0e0e0" stroke="#999999" points="945.5,-261 906.5,-261 906.5,-242 945.5,-242 945.5,-261"/>
<text text-anchor="middle" x="926" y="-249" font-family="Helvetica,sans-Serif" font-size="10.00">ratio</text>
</a>
</g>
</g>
<!-- Node26&#45;&gt;Node27 -->
<g id="edge46_Node000026_Node000027" class="edge">
<title>Node26&#45;&gt;Node27</title>
<g id="a_edge46_Node000026_Node000027"><a xlink:title=" ">
<path fill="none" stroke="#63b8ff" d="M906.8,-296.75C909.91,-289.57 914.42,-279.18 918.29,-270.27"/>
<polygon fill="#63b8ff" stroke="#63b8ff" points="921.5,-271.66 922.27,-261.09 915.08,-268.87 921.5,-271.66"/>
</a>
</g>
</g>
</g>
</svg>
