<?xml version="1.0" encoding="UTF-8" standalone="no"?>
<!DOCTYPE svg PUBLIC "-//W3C//DTD SVG 1.1//EN"
 "http://www.w3.org/Graphics/SVG/1.1/DTD/svg11.dtd">
<!-- Generated by graphviz version 2.43.0 (0)
 -->
<!-- Title: /home/runner/work/open62541pp/open62541pp/include/open62541pp/types/ExtensionObject.h Pages: 1 -->
<svg width="1365pt" height="467pt"
 viewBox="0.00 0.00 1364.75 467.00" xmlns="http://www.w3.org/2000/svg" xmlns:xlink="http://www.w3.org/1999/xlink">
<g id="graph0" class="graph" transform="scale(1 1) rotate(0) translate(4 463)">
<title>/home/runner/work/open62541pp/open62541pp/include/open62541pp/types/ExtensionObject.h</title>
<!-- Node1 -->
<g id="Node000001" class="node">
<title>Node1</title>
<g id="a_Node000001"><a xlink:title=" ">
<polygon fill="#999999" stroke="#666666" points="346.5,-459 153.5,-459 153.5,-418 346.5,-418 346.5,-459"/>
<text text-anchor="start" x="161.5" y="-447" font-family="Helvetica,sans-Serif" font-size="10.00">/home/runner/work/open62541pp</text>
<text text-anchor="start" x="161.5" y="-436" font-family="Helvetica,sans-Serif" font-size="10.00">/open62541pp/include/open62541pp</text>
<text text-anchor="middle" x="250" y="-425" font-family="Helvetica,sans-Serif" font-size="10.00">/types/ExtensionObject.h</text>
</a>
</g>
</g>
<!-- Node2 -->
<g id="Node000002" class="node">
<title>Node2</title>
<g id="a_Node000002"><a xlink:title=" ">
<polygon fill="#e0e0e0" stroke="#999999" points="56,-382 0,-382 0,-363 56,-363 56,-382"/>
<text text-anchor="middle" x="28" y="-370" font-family="Helvetica,sans-Serif" font-size="10.00">optional</text>
</a>
</g>
</g>
<!-- Node1&#45;&gt;Node2 -->
<g id="edge1_Node000001_Node000002" class="edge">
<title>Node1&#45;&gt;Node2</title>
<g id="a_edge1_Node000001_Node000002"><a xlink:title=" ">
<path fill="none" stroke="#63b8ff" d="M182.19,-417.95C143.99,-406.94 97.7,-393.59 65.87,-384.42"/>
<polygon fill="#63b8ff" stroke="#63b8ff" points="66.65,-381 56.07,-381.59 64.71,-387.73 66.65,-381"/>
</a>
</g>
</g>
<!-- Node3 -->
<g id="Node000003" class="node">
<title>Node3</title>
<g id="a_Node000003"><a xlink:href="TypeConverter_8h.html" target="_top" xlink:title=" ">
<polygon fill="white" stroke="#666666" points="924,-382 760,-382 760,-363 924,-363 924,-382"/>
<text text-anchor="middle" x="842" y="-370" font-family="Helvetica,sans-Serif" font-size="10.00">open62541pp/TypeConverter.h</text>
</a>
</g>
</g>
<!-- Node1&#45;&gt;Node3 -->
<g id="edge2_Node000001_Node000003" class="edge">
<title>Node1&#45;&gt;Node3</title>
<g id="a_edge2_Node000001_Node000003"><a xlink:title=" ">
<path fill="none" stroke="#63b8ff" d="M346.76,-427.04C459.46,-414.86 644.08,-394.9 753.24,-383.1"/>
<polygon fill="#63b8ff" stroke="#63b8ff" points="753.67,-386.57 763.23,-382.02 752.92,-379.61 753.67,-386.57"/>
</a>
</g>
</g>
<!-- Node15 -->
<g id="Node000015" class="node">
<title>Node15</title>
<g id="a_Node000015"><a xlink:href="open62541_8h.html" target="_top" xlink:title=" ">
<polygon fill="white" stroke="#666666" points="528.5,-79.5 379.5,-79.5 379.5,-60.5 528.5,-60.5 528.5,-79.5"/>
<text text-anchor="middle" x="454" y="-67.5" font-family="Helvetica,sans-Serif" font-size="10.00">open62541pp/open62541.h</text>
</a>
</g>
</g>
<!-- Node1&#45;&gt;Node15 -->
<g id="edge56_Node000001_Node000015" class="edge">
<title>Node1&#45;&gt;Node15</title>
<g id="a_edge56_Node000001_Node000015"><a xlink:title=" ">
<path fill="none" stroke="#63b8ff" d="M185.82,-418C139.11,-399.37 84,-366.14 84,-313 84,-313 84,-313 84,-190 84,-139.95 127.25,-141.31 173,-121 235.27,-93.36 311.71,-80.98 369.14,-75.45"/>
<polygon fill="#63b8ff" stroke="#63b8ff" points="369.63,-78.92 379.27,-74.53 368.99,-71.95 369.63,-78.92"/>
</a>
</g>
</g>
<!-- Node22 -->
<g id="Node000022" class="node">
<title>Node22</title>
<g id="a_Node000022"><a xlink:href="TypeWrapper_8h.html" target="_top" xlink:title=" ">
<polygon fill="white" stroke="#666666" points="844,-261 686,-261 686,-242 844,-242 844,-261"/>
<text text-anchor="middle" x="765" y="-249" font-family="Helvetica,sans-Serif" font-size="10.00">open62541pp/TypeWrapper.h</text>
</a>
</g>
</g>
<!-- Node1&#45;&gt;Node22 -->
<g id="edge55_Node000001_Node000022" class="edge">
<title>Node1&#45;&gt;Node22</title>
<g id="a_edge55_Node000001_Node000022"><a xlink:title=" ">
<path fill="none" stroke="#63b8ff" d="M304.63,-417.88C411.33,-379.55 644.59,-295.75 731.49,-264.54"/>
<polygon fill="#63b8ff" stroke="#63b8ff" points="732.88,-267.76 741.11,-261.08 730.52,-261.17 732.88,-267.76"/>
</a>
</g>
</g>
<!-- Node4 -->
<g id="Node000004" class="node">
<title>Node4</title>
<g id="a_Node000004"><a xlink:title=" ">
<polygon fill="#e0e0e0" stroke="#999999" points="1327,-321.5 1285,-321.5 1285,-302.5 1327,-302.5 1327,-321.5"/>
<text text-anchor="middle" x="1306" y="-309.5" font-family="Helvetica,sans-Serif" font-size="10.00">array</text>
</a>
</g>
</g>
<!-- Node3&#45;&gt;Node4 -->
<g id="edge3_Node000003_Node000004" class="edge">
<title>Node3&#45;&gt;Node4</title>
<g id="a_edge3_Node000003_Node000004"><a xlink:title=" ">
<path fill="none" stroke="#63b8ff" d="M924.28,-371.18C1012.71,-368.97 1156.63,-359.96 1276,-327 1277.64,-326.55 1279.3,-326.01 1280.95,-325.42"/>
<polygon fill="#63b8ff" stroke="#63b8ff" points="1282.3,-328.65 1290.19,-321.58 1279.61,-322.19 1282.3,-328.65"/>
</a>
</g>
</g>
<!-- Node5 -->
<g id="Node000005" class="node">
<title>Node5</title>
<g id="a_Node000005"><a xlink:title=" ">
<polygon fill="#e0e0e0" stroke="#999999" points="1122,-261 1072,-261 1072,-242 1122,-242 1122,-261"/>
<text text-anchor="middle" x="1097" y="-249" font-family="Helvetica,sans-Serif" font-size="10.00">chrono</text>
</a>
</g>
</g>
<!-- Node3&#45;&gt;Node5 -->
<g id="edge4_Node000003_Node000005" class="edge">
<title>Node3&#45;&gt;Node5</title>
<g id="a_edge4_Node000003_Node000005"><a xlink:title=" ">
<path fill="none" stroke="#63b8ff" d="M916.94,-362.97C970.17,-355.64 1035.95,-343.62 1058,-327 1076.27,-313.23 1086.78,-288.41 1092.19,-271.22"/>
<polygon fill="#63b8ff" stroke="#63b8ff" points="1095.67,-271.8 1095.04,-261.22 1088.94,-269.88 1095.67,-271.8"/>
</a>
</g>
</g>
<!-- Node6 -->
<g id="Node000006" class="node">
<title>Node6</title>
<g id="a_Node000006"><a xlink:title=" ">
<polygon fill="#e0e0e0" stroke="#999999" points="1201.5,-321.5 1148.5,-321.5 1148.5,-302.5 1201.5,-302.5 1201.5,-321.5"/>
<text text-anchor="middle" x="1175" y="-309.5" font-family="Helvetica,sans-Serif" font-size="10.00">iterator</text>
</a>
</g>
</g>
<!-- Node3&#45;&gt;Node6 -->
<g id="edge5_Node000003_Node000006" class="edge">
<title>Node3&#45;&gt;Node6</title>
<g id="a_edge5_Node000003_Node000006"><a xlink:title=" ">
<path fill="none" stroke="#63b8ff" d="M923.95,-362.96C982.9,-355.87 1064.02,-344.14 1134,-327 1136.81,-326.31 1139.7,-325.52 1142.58,-324.66"/>
<polygon fill="#63b8ff" stroke="#63b8ff" points="1143.77,-327.95 1152.23,-321.58 1141.64,-321.29 1143.77,-327.95"/>
</a>
</g>
</g>
<!-- Node7 -->
<g id="Node000007" class="node">
<title>Node7</title>
<g id="a_Node000007"><a xlink:title=" ">
<polygon fill="#e0e0e0" stroke="#999999" points="419,-140 375,-140 375,-121 419,-121 419,-140"/>
<text text-anchor="middle" x="397" y="-128" font-family="Helvetica,sans-Serif" font-size="10.00">string</text>
</a>
</g>
</g>
<!-- Node3&#45;&gt;Node7 -->
<g id="edge6_Node000003_Node000007" class="edge">
<title>Node3&#45;&gt;Node7</title>
<g id="a_edge6_Node000003_Node000007"><a xlink:title=" ">
<path fill="none" stroke="#63b8ff" d="M767.1,-362.98C671.99,-348.12 509.31,-308.53 418,-206 404.2,-190.51 399.41,-166.61 397.78,-150.08"/>
<polygon fill="#63b8ff" stroke="#63b8ff" points="401.26,-149.73 397.08,-140 394.28,-150.22 401.26,-149.73"/>
</a>
</g>
</g>
<!-- Node8 -->
<g id="Node000008" class="node">
<title>Node8</title>
<g id="a_Node000008"><a xlink:title=" ">
<polygon fill="#e0e0e0" stroke="#999999" points="1146.5,-19 1077.5,-19 1077.5,0 1146.5,0 1146.5,-19"/>
<text text-anchor="middle" x="1112" y="-7" font-family="Helvetica,sans-Serif" font-size="10.00">type_traits</text>
</a>
</g>
</g>
<!-- Node3&#45;&gt;Node8 -->
<g id="edge7_Node000003_Node000008" class="edge">
<title>Node3&#45;&gt;Node8</title>
<g id="a_edge7_Node000003_Node000008"><a xlink:title=" ">
<path fill="none" stroke="#63b8ff" d="M924.17,-369.22C1056.55,-364.78 1305.39,-353.07 1336,-327 1362.01,-304.84 1355,-286.67 1355,-252.5 1355,-252.5 1355,-252.5 1355,-129.5 1355,-42.26 1227.11,-18.97 1156.89,-12.76"/>
<polygon fill="#63b8ff" stroke="#63b8ff" points="1156.81,-9.24 1146.56,-11.93 1156.25,-16.22 1156.81,-9.24"/>
</a>
</g>
</g>
<!-- Node9 -->
<g id="Node000009" class="node">
<title>Node9</title>
<g id="a_Node000009"><a xlink:title=" ">
<polygon fill="#e0e0e0" stroke="#999999" points="1266.5,-321.5 1219.5,-321.5 1219.5,-302.5 1266.5,-302.5 1266.5,-321.5"/>
<text text-anchor="middle" x="1243" y="-309.5" font-family="Helvetica,sans-Serif" font-size="10.00">vector</text>
</a>
</g>
</g>
<!-- Node3&#45;&gt;Node9 -->
<g id="edge8_Node000003_Node000009" class="edge">
<title>Node3&#45;&gt;Node9</title>
<g id="a_edge8_Node000003_Node000009"><a xlink:title=" ">
<path fill="none" stroke="#63b8ff" d="M924.3,-368.45C999.96,-364.04 1114.66,-353.27 1211,-327 1212.89,-326.49 1214.81,-325.88 1216.72,-325.21"/>
<polygon fill="#63b8ff" stroke="#63b8ff" points="1218.06,-328.45 1226.06,-321.51 1215.48,-321.94 1218.06,-328.45"/>
</a>
</g>
</g>
<!-- Node10 -->
<g id="Node000010" class="node">
<title>Node10</title>
<g id="a_Node000010"><a xlink:href="Common_8h.html" target="_top" xlink:title=" ">
<polygon fill="white" stroke="#666666" points="963.5,-140 824.5,-140 824.5,-121 963.5,-121 963.5,-140"/>
<text text-anchor="middle" x="894" y="-128" font-family="Helvetica,sans-Serif" font-size="10.00">open62541pp/Common.h</text>
</a>
</g>
</g>
<!-- Node3&#45;&gt;Node10 -->
<g id="edge9_Node000003_Node000010" class="edge">
<title>Node3&#45;&gt;Node10</title>
<g id="a_edge9_Node000003_Node000010"><a xlink:title=" ">
<path fill="none" stroke="#63b8ff" d="M902.16,-362.94C943.51,-355.68 993.19,-343.76 1006,-327 1033.78,-290.67 1030.79,-255.77 968,-176 957.12,-162.18 940.68,-151.68 926.05,-144.36"/>
<polygon fill="#63b8ff" stroke="#63b8ff" points="927.32,-141.09 916.78,-140.01 924.34,-147.43 927.32,-141.09"/>
</a>
</g>
</g>
<!-- Node14 -->
<g id="Node000014" class="node">
<title>Node14</title>
<g id="a_Node000014"><a xlink:href="traits_8h.html" target="_top" xlink:title=" ">
<polygon fill="white" stroke="#666666" points="1083.5,-85 970.5,-85 970.5,-55 1083.5,-55 1083.5,-85"/>
<text text-anchor="start" x="978.5" y="-73" font-family="Helvetica,sans-Serif" font-size="10.00">open62541pp/detail</text>
<text text-anchor="middle" x="1027" y="-62" font-family="Helvetica,sans-Serif" font-size="10.00">/traits.h</text>
</a>
</g>
</g>
<!-- Node3&#45;&gt;Node14 -->
<g id="edge42_Node000003_Node000014" class="edge">
<title>Node3&#45;&gt;Node14</title>
<g id="a_edge42_Node000003_Node000014"><a xlink:title=" ">
<path fill="none" stroke="#63b8ff" d="M923.61,-362.97C982.8,-355.58 1056.86,-343.47 1083,-327 1113.69,-307.66 1119.78,-295.49 1131,-261 1152.44,-195.06 1089.05,-125.54 1051.9,-91.81"/>
<polygon fill="#63b8ff" stroke="#63b8ff" points="1054.21,-89.18 1044.41,-85.17 1049.57,-94.42 1054.21,-89.18"/>
</a>
</g>
</g>
<!-- Node3&#45;&gt;Node15 -->
<g id="edge43_Node000003_Node000015" class="edge">
<title>Node3&#45;&gt;Node15</title>
<g id="a_edge43_Node000003_Node000015"><a xlink:title=" ">
<path fill="none" stroke="#63b8ff" d="M759.95,-368.86C617.62,-362.02 340,-337.76 340,-252.5 340,-252.5 340,-252.5 340,-190 340,-157.23 344.71,-145.91 366,-121 380.26,-104.32 401.54,-92.02 419.61,-83.79"/>
<polygon fill="#63b8ff" stroke="#63b8ff" points="421.45,-86.8 429.25,-79.63 418.68,-80.38 421.45,-86.8"/>
</a>
</g>
</g>
<!-- Node20 -->
<g id="Node000020" class="node">
<title>Node20</title>
<g id="a_Node000020"><a xlink:href="ErrorHandling_8h.html" target="_top" xlink:title=" ">
<polygon fill="white" stroke="#666666" points="311.5,-200.5 150.5,-200.5 150.5,-181.5 311.5,-181.5 311.5,-200.5"/>
<text text-anchor="middle" x="231" y="-188.5" font-family="Helvetica,sans-Serif" font-size="10.00">open62541pp/ErrorHandling.h</text>
</a>
</g>
</g>
<!-- Node3&#45;&gt;Node20 -->
<g id="edge21_Node000003_Node000020" class="edge">
<title>Node3&#45;&gt;Node20</title>
<g id="a_edge21_Node000003_Node000020"><a xlink:title=" ">
<path fill="none" stroke="#63b8ff" d="M759.87,-368.21C623.75,-362.19 362.64,-348.06 326,-327 279.53,-300.28 250.25,-240.55 237.85,-210.3"/>
<polygon fill="#63b8ff" stroke="#63b8ff" points="240.96,-208.63 234.05,-200.6 234.44,-211.19 240.96,-208.63"/>
</a>
</g>
</g>
<!-- Node3&#45;&gt;Node22 -->
<g id="edge25_Node000003_Node000022" class="edge">
<title>Node3&#45;&gt;Node22</title>
<g id="a_edge25_Node000003_Node000022"><a xlink:title=" ">
<path fill="none" stroke="#63b8ff" d="M836.46,-362.94C823.87,-343.48 792.89,-295.6 776.16,-269.74"/>
<polygon fill="#63b8ff" stroke="#63b8ff" points="779.07,-267.8 770.7,-261.3 773.19,-271.6 779.07,-267.8"/>
</a>
</g>
</g>
<!-- Node25 -->
<g id="Node000025" class="node">
<title>Node25</title>
<g id="a_Node000025"><a xlink:href="helper_8h.html" target="_top" xlink:title=" ">
<polygon fill="white" stroke="#666666" points="595.5,-206 482.5,-206 482.5,-176 595.5,-176 595.5,-206"/>
<text text-anchor="start" x="490.5" y="-194" font-family="Helvetica,sans-Serif" font-size="10.00">open62541pp/detail</text>
<text text-anchor="middle" x="539" y="-183" font-family="Helvetica,sans-Serif" font-size="10.00">/helper.h</text>
</a>
</g>
</g>
<!-- Node3&#45;&gt;Node25 -->
<g id="edge41_Node000003_Node000025" class="edge">
<title>Node3&#45;&gt;Node25</title>
<g id="a_edge41_Node000003_Node000025"><a xlink:title=" ">
<path fill="none" stroke="#63b8ff" d="M827.39,-362.84C781.1,-335.42 636.93,-250.01 571.67,-211.35"/>
<polygon fill="#63b8ff" stroke="#63b8ff" points="573.39,-208.31 563.01,-206.22 569.83,-214.33 573.39,-208.31"/>
</a>
</g>
</g>
<!-- Node27 -->
<g id="Node000027" class="node">
<title>Node27</title>
<g id="a_Node000027"><a xlink:href="DateTime_8h.html" target="_top" xlink:title=" ">
<polygon fill="white" stroke="#666666" points="996.5,-321.5 823.5,-321.5 823.5,-302.5 996.5,-302.5 996.5,-321.5"/>
<text text-anchor="middle" x="910" y="-309.5" font-family="Helvetica,sans-Serif" font-size="10.00">open62541pp/types/DateTime.h</text>
</a>
</g>
</g>
<!-- Node3&#45;&gt;Node27 -->
<g id="edge44_Node000003_Node000027" class="edge">
<title>Node3&#45;&gt;Node27</title>
<g id="a_edge44_Node000003_Node000027"><a xlink:title=" ">
<path fill="none" stroke="#63b8ff" d="M852.03,-362.87C862.58,-353.8 879.39,-339.34 892.19,-328.32"/>
<polygon fill="#63b8ff" stroke="#63b8ff" points="894.63,-330.84 899.93,-321.67 890.06,-325.54 894.63,-330.84"/>
</a>
</g>
</g>
<!-- Node29 -->
<g id="Node000029" class="node">
<title>Node29</title>
<g id="a_Node000029"><a xlink:href="TypeConverterNative_8h.html" target="_top" xlink:title=" ">
<polygon fill="white" stroke="#666666" points="274,-327 118,-327 118,-297 274,-297 274,-327"/>
<text text-anchor="start" x="126" y="-315" font-family="Helvetica,sans-Serif" font-size="10.00">open62541pp/TypeConverter</text>
<text text-anchor="middle" x="196" y="-304" font-family="Helvetica,sans-Serif" font-size="10.00">Native.h</text>
</a>
</g>
</g>
<!-- Node3&#45;&gt;Node29 -->
<g id="edge52_Node000003_Node000029" class="edge">
<title>Node3&#45;&gt;Node29</title>
<g id="a_edge52_Node000003_Node000029"><a xlink:title=" ">
<path fill="none" stroke="#63b8ff" d="M759.66,-367.09C651.76,-360.63 456.73,-347.27 284.17,-327.58"/>
<polygon fill="#63b8ff" stroke="#63b8ff" points="284.48,-324.09 274.14,-326.42 283.68,-331.04 284.48,-324.09"/>
</a>
</g>
</g>
<!-- Node11 -->
<g id="Node000011" class="node">
<title>Node11</title>
<g id="a_Node000011"><a xlink:title=" ">
<polygon fill="#e0e0e0" stroke="#999999" points="952,-79.5 902,-79.5 902,-60.5 952,-60.5 952,-79.5"/>
<text text-anchor="middle" x="927" y="-67.5" font-family="Helvetica,sans-Serif" font-size="10.00">cstdint</text>
</a>
</g>
</g>
<!-- Node10&#45;&gt;Node11 -->
<g id="edge10_Node000010_Node000011" class="edge">
<title>Node10&#45;&gt;Node11</title>
<g id="a_edge10_Node000010_Node000011"><a xlink:title=" ">
<path fill="none" stroke="#63b8ff" d="M898.87,-120.87C903.65,-112.4 911.07,-99.24 917.09,-88.57"/>
<polygon fill="#63b8ff" stroke="#63b8ff" points="920.25,-90.1 922.11,-79.67 914.15,-86.66 920.25,-90.1"/>
</a>
</g>
</g>
<!-- Node12 -->
<g id="Node000012" class="node">
<title>Node12</title>
<g id="a_Node000012"><a xlink:title=" ">
<polygon fill="#e0e0e0" stroke="#999999" points="832.5,-79.5 759.5,-79.5 759.5,-60.5 832.5,-60.5 832.5,-79.5"/>
<text text-anchor="middle" x="796" y="-67.5" font-family="Helvetica,sans-Serif" font-size="10.00">string_view</text>
</a>
</g>
</g>
<!-- Node10&#45;&gt;Node12 -->
<g id="edge11_Node000010_Node000012" class="edge">
<title>Node10&#45;&gt;Node12</title>
<g id="a_edge11_Node000010_Node000012"><a xlink:title=" ">
<path fill="none" stroke="#63b8ff" d="M879.54,-120.87C863.69,-111.41 838.03,-96.09 819.32,-84.92"/>
<polygon fill="#63b8ff" stroke="#63b8ff" points="820.9,-81.79 810.52,-79.67 817.31,-87.8 820.9,-81.79"/>
</a>
</g>
</g>
<!-- Node13 -->
<g id="Node000013" class="node">
<title>Node13</title>
<g id="a_Node000013"><a xlink:title=" ">
<polygon fill="#e0e0e0" stroke="#999999" points="970.5,-19 929.5,-19 929.5,0 970.5,0 970.5,-19"/>
<text text-anchor="middle" x="950" y="-7" font-family="Helvetica,sans-Serif" font-size="10.00">tuple</text>
</a>
</g>
</g>
<!-- Node10&#45;&gt;Node13 -->
<g id="edge12_Node000010_Node000013" class="edge">
<title>Node10&#45;&gt;Node13</title>
<g id="a_edge12_Node000010_Node000013"><a xlink:title=" ">
<path fill="none" stroke="#63b8ff" d="M891.45,-120.69C887.76,-106.15 882.45,-76.62 893,-55 899.3,-42.09 911.35,-31.83 922.76,-24.43"/>
<polygon fill="#63b8ff" stroke="#63b8ff" points="924.86,-27.25 931.65,-19.12 921.27,-21.25 924.86,-27.25"/>
</a>
</g>
</g>
<!-- Node10&#45;&gt;Node14 -->
<g id="edge13_Node000010_Node000014" class="edge">
<title>Node10&#45;&gt;Node14</title>
<g id="a_edge13_Node000010_Node000014"><a xlink:title=" ">
<path fill="none" stroke="#63b8ff" d="M913.34,-120.99C932.23,-112.68 961.58,-99.78 985.72,-89.16"/>
<polygon fill="#63b8ff" stroke="#63b8ff" points="987.28,-92.29 995.02,-85.06 984.46,-85.89 987.28,-92.29"/>
</a>
</g>
</g>
<!-- Node10&#45;&gt;Node15 -->
<g id="edge16_Node000010_Node000015" class="edge">
<title>Node10&#45;&gt;Node15</title>
<g id="a_edge16_Node000010_Node000015"><a xlink:title=" ">
<path fill="none" stroke="#63b8ff" d="M830.02,-120.99C749.86,-110.34 612.76,-92.11 528.11,-80.85"/>
<polygon fill="#63b8ff" stroke="#63b8ff" points="528.43,-77.37 518.06,-79.52 527.51,-84.3 528.43,-77.37"/>
</a>
</g>
</g>
<!-- Node14&#45;&gt;Node8 -->
<g id="edge15_Node000014_Node000008" class="edge">
<title>Node14&#45;&gt;Node8</title>
<g id="a_edge15_Node000014_Node000008"><a xlink:title=" ">
<path fill="none" stroke="#63b8ff" d="M1047.58,-54.84C1060.67,-45.83 1077.59,-34.18 1090.8,-25.09"/>
<polygon fill="#63b8ff" stroke="#63b8ff" points="1093.01,-27.82 1099.26,-19.27 1089.04,-22.05 1093.01,-27.82"/>
</a>
</g>
</g>
<!-- Node14&#45;&gt;Node13 -->
<g id="edge14_Node000014_Node000013" class="edge">
<title>Node14&#45;&gt;Node13</title>
<g id="a_edge14_Node000014_Node000013"><a xlink:title=" ">
<path fill="none" stroke="#63b8ff" d="M1008.36,-54.84C996.61,-45.91 981.47,-34.41 969.55,-25.35"/>
<polygon fill="#63b8ff" stroke="#63b8ff" points="971.62,-22.53 961.54,-19.27 967.38,-28.1 971.62,-22.53"/>
</a>
</g>
</g>
<!-- Node16 -->
<g id="Node000016" class="node">
<title>Node16</title>
<g id="a_Node000016"><a target="_blank" xlink:href="open62541/config_8h.html" xlink:title=" ">
<polygon fill="white" stroke="#666666" points="588,-19 476,-19 476,0 588,0 588,-19"/>
<text text-anchor="middle" x="532" y="-7" font-family="Helvetica,sans-Serif" font-size="10.00">open62541/config.h</text>
</a>
</g>
</g>
<!-- Node15&#45;&gt;Node16 -->
<g id="edge17_Node000015_Node000016" class="edge">
<title>Node15&#45;&gt;Node16</title>
<g id="a_edge17_Node000015_Node000016"><a xlink:title=" ">
<path fill="none" stroke="#63b8ff" d="M465.51,-60.37C477.84,-51.12 497.62,-36.28 512.41,-25.19"/>
<polygon fill="#63b8ff" stroke="#63b8ff" points="514.54,-27.97 520.44,-19.17 510.34,-22.37 514.54,-27.97"/>
</a>
</g>
</g>
<!-- Node17 -->
<g id="Node000017" class="node">
<title>Node17</title>
<g id="a_Node000017"><a target="_blank" xlink:href="open62541/nodeids_8h.html" xlink:title=" ">
<polygon fill="white" stroke="#666666" points="727.5,-19 606.5,-19 606.5,0 727.5,0 727.5,-19"/>
<text text-anchor="middle" x="667" y="-7" font-family="Helvetica,sans-Serif" font-size="10.00">open62541/nodeids.h</text>
</a>
</g>
</g>
<!-- Node15&#45;&gt;Node17 -->
<g id="edge18_Node000015_Node000017" class="edge">
<title>Node15&#45;&gt;Node17</title>
<g id="a_edge18_Node000015_Node000017"><a xlink:title=" ">
<path fill="none" stroke="#63b8ff" d="M484.97,-60.49C522.28,-50.25 585.06,-33 626.27,-21.69"/>
<polygon fill="#63b8ff" stroke="#63b8ff" points="627.27,-25.04 635.99,-19.02 625.42,-18.29 627.27,-25.04"/>
</a>
</g>
</g>
<!-- Node18 -->
<g id="Node000018" class="node">
<title>Node18</title>
<g id="a_Node000018"><a target="_blank" xlink:href="open62541/types_8h.html" xlink:title=" ">
<polygon fill="white" stroke="#666666" points="276,-19 166,-19 166,0 276,0 276,-19"/>
<text text-anchor="middle" x="221" y="-7" font-family="Helvetica,sans-Serif" font-size="10.00">open62541/types.h</text>
</a>
</g>
</g>
<!-- Node15&#45;&gt;Node18 -->
<g id="edge19_Node000015_Node000018" class="edge">
<title>Node15&#45;&gt;Node18</title>
<g id="a_edge19_Node000015_Node000018"><a xlink:title=" ">
<path fill="none" stroke="#63b8ff" d="M420.12,-60.49C379.05,-50.18 309.76,-32.78 264.7,-21.47"/>
<polygon fill="#63b8ff" stroke="#63b8ff" points="265.47,-18.06 254.92,-19.02 263.77,-24.85 265.47,-18.06"/>
</a>
</g>
</g>
<!-- Node19 -->
<g id="Node000019" class="node">
<title>Node19</title>
<g id="a_Node000019"><a target="_blank" xlink:href="open62541/types__generated_8h.html" xlink:title=" ">
<polygon fill="white" stroke="#666666" points="458,-19 294,-19 294,0 458,0 458,-19"/>
<text text-anchor="middle" x="376" y="-7" font-family="Helvetica,sans-Serif" font-size="10.00">open62541/types_generated.h</text>
</a>
</g>
</g>
<!-- Node15&#45;&gt;Node19 -->
<g id="edge20_Node000015_Node000019" class="edge">
<title>Node15&#45;&gt;Node19</title>
<g id="a_edge20_Node000015_Node000019"><a xlink:title=" ">
<path fill="none" stroke="#63b8ff" d="M442.49,-60.37C430.16,-51.12 410.38,-36.28 395.59,-25.19"/>
<polygon fill="#63b8ff" stroke="#63b8ff" points="397.66,-22.37 387.56,-19.17 393.46,-27.97 397.66,-22.37"/>
</a>
</g>
</g>
<!-- Node20&#45;&gt;Node7 -->
<g id="edge23_Node000020_Node000007" class="edge">
<title>Node20&#45;&gt;Node7</title>
<g id="a_edge23_Node000020_Node000007"><a xlink:title=" ">
<path fill="none" stroke="#63b8ff" d="M255.14,-181.49C284.19,-171.26 333.05,-154.04 365.16,-142.72"/>
<polygon fill="#63b8ff" stroke="#63b8ff" points="366.69,-145.89 374.96,-139.27 364.36,-139.29 366.69,-145.89"/>
</a>
</g>
</g>
<!-- Node20&#45;&gt;Node15 -->
<g id="edge24_Node000020_Node000015" class="edge">
<title>Node20&#45;&gt;Node15</title>
<g id="a_edge24_Node000020_Node000015"><a xlink:title=" ">
<path fill="none" stroke="#63b8ff" d="M228.81,-181.13C225.81,-166.66 222.33,-137.88 237,-121 254.48,-100.89 316.07,-87.94 369.19,-80.27"/>
<polygon fill="#63b8ff" stroke="#63b8ff" points="369.92,-83.7 379.34,-78.85 368.95,-76.77 369.92,-83.7"/>
</a>
</g>
</g>
<!-- Node21 -->
<g id="Node000021" class="node">
<title>Node21</title>
<g id="a_Node000021"><a xlink:title=" ">
<polygon fill="#e0e0e0" stroke="#999999" points="311.5,-140 246.5,-140 246.5,-121 311.5,-121 311.5,-140"/>
<text text-anchor="middle" x="279" y="-128" font-family="Helvetica,sans-Serif" font-size="10.00">stdexcept</text>
</a>
</g>
</g>
<!-- Node20&#45;&gt;Node21 -->
<g id="edge22_Node000020_Node000021" class="edge">
<title>Node20&#45;&gt;Node21</title>
<g id="a_edge22_Node000020_Node000021"><a xlink:title=" ">
<path fill="none" stroke="#63b8ff" d="M238.08,-181.37C245.24,-172.64 256.49,-158.93 265.39,-148.09"/>
<polygon fill="#63b8ff" stroke="#63b8ff" points="268.25,-150.12 271.89,-140.17 262.84,-145.68 268.25,-150.12"/>
</a>
</g>
</g>
<!-- Node22&#45;&gt;Node8 -->
<g id="edge28_Node000022_Node000008" class="edge">
<title>Node22&#45;&gt;Node8</title>
<g id="a_edge28_Node000022_Node000008"><a xlink:title=" ">
<path fill="none" stroke="#63b8ff" d="M821.99,-241.94C856.76,-235.26 901.41,-224.01 938,-206 1016.41,-167.41 1045.19,-158.16 1093,-85 1104.05,-68.1 1108.67,-45.15 1110.61,-29.21"/>
<polygon fill="#63b8ff" stroke="#63b8ff" points="1114.11,-29.32 1111.6,-19.03 1107.15,-28.65 1114.11,-29.32"/>
</a>
</g>
</g>
<!-- Node22&#45;&gt;Node10 -->
<g id="edge30_Node000022_Node000010" class="edge">
<title>Node22&#45;&gt;Node10</title>
<g id="a_edge30_Node000022_Node000010"><a xlink:title=" ">
<path fill="none" stroke="#63b8ff" d="M792.17,-241.9C811.3,-234.75 836.53,-222.97 854,-206 870.24,-190.23 881.43,-166.42 887.76,-149.98"/>
<polygon fill="#63b8ff" stroke="#63b8ff" points="891.11,-151 891.22,-140.41 884.53,-148.62 891.11,-151"/>
</a>
</g>
</g>
<!-- Node22&#45;&gt;Node11 -->
<g id="edge27_Node000022_Node000011" class="edge">
<title>Node22&#45;&gt;Node11</title>
<g id="a_edge27_Node000022_Node000011"><a xlink:title=" ">
<path fill="none" stroke="#63b8ff" d="M810.1,-242C861.06,-229.61 941.07,-201.06 973,-140 983.23,-120.44 964.71,-99.57 948.21,-85.97"/>
<polygon fill="#63b8ff" stroke="#63b8ff" points="949.98,-82.91 939.93,-79.56 945.7,-88.45 949.98,-82.91"/>
</a>
</g>
</g>
<!-- Node22&#45;&gt;Node15 -->
<g id="edge38_Node000022_Node000015" class="edge">
<title>Node22&#45;&gt;Node15</title>
<g id="a_edge38_Node000022_Node000015"><a xlink:title=" ">
<path fill="none" stroke="#63b8ff" d="M685.8,-248.68C609.97,-245.18 502.93,-235.07 474,-206 443.31,-175.16 446.36,-119.11 450.53,-89.88"/>
<polygon fill="#63b8ff" stroke="#63b8ff" points="454.02,-90.21 452.18,-79.77 447.12,-89.08 454.02,-90.21"/>
</a>
</g>
</g>
<!-- Node22&#45;&gt;Node20 -->
<g id="edge31_Node000022_Node000020" class="edge">
<title>Node22&#45;&gt;Node20</title>
<g id="a_edge31_Node000022_Node000020"><a xlink:title=" ">
<path fill="none" stroke="#63b8ff" d="M687.35,-241.99C589.37,-231.26 421.3,-212.85 318.76,-201.61"/>
<polygon fill="#63b8ff" stroke="#63b8ff" points="319.06,-198.13 308.74,-200.52 318.3,-205.08 319.06,-198.13"/>
</a>
</g>
</g>
<!-- Node23 -->
<g id="Node000023" class="node">
<title>Node23</title>
<g id="a_Node000023"><a xlink:title=" ">
<polygon fill="#e0e0e0" stroke="#999999" points="624,-140 572,-140 572,-121 624,-121 624,-140"/>
<text text-anchor="middle" x="598" y="-128" font-family="Helvetica,sans-Serif" font-size="10.00">cassert</text>
</a>
</g>
</g>
<!-- Node22&#45;&gt;Node23 -->
<g id="edge26_Node000022_Node000023" class="edge">
<title>Node22&#45;&gt;Node23</title>
<g id="a_edge26_Node000022_Node000023"><a xlink:title=" ">
<path fill="none" stroke="#63b8ff" d="M782.77,-241.96C796.01,-234.51 813.12,-222.33 821,-206 826.8,-193.99 829.46,-186.31 821,-176 797.78,-147.69 691.17,-137.05 634.18,-133.33"/>
<polygon fill="#63b8ff" stroke="#63b8ff" points="634.34,-129.83 624.15,-132.71 633.91,-136.82 634.34,-129.83"/>
</a>
</g>
</g>
<!-- Node24 -->
<g id="Node000024" class="node">
<title>Node24</title>
<g id="a_Node000024"><a xlink:title=" ">
<polygon fill="#e0e0e0" stroke="#999999" points="811.5,-200.5 766.5,-200.5 766.5,-181.5 811.5,-181.5 811.5,-200.5"/>
<text text-anchor="middle" x="789" y="-188.5" font-family="Helvetica,sans-Serif" font-size="10.00">utility</text>
</a>
</g>
</g>
<!-- Node22&#45;&gt;Node24 -->
<g id="edge29_Node000022_Node000024" class="edge">
<title>Node22&#45;&gt;Node24</title>
<g id="a_edge29_Node000022_Node000024"><a xlink:title=" ">
<path fill="none" stroke="#63b8ff" d="M768.54,-241.87C771.94,-233.57 777.19,-220.78 781.52,-210.22"/>
<polygon fill="#63b8ff" stroke="#63b8ff" points="784.89,-211.25 785.44,-200.67 778.41,-208.59 784.89,-211.25"/>
</a>
</g>
</g>
<!-- Node22&#45;&gt;Node25 -->
<g id="edge32_Node000022_Node000025" class="edge">
<title>Node22&#45;&gt;Node25</title>
<g id="a_edge32_Node000022_Node000025"><a xlink:title=" ">
<path fill="none" stroke="#63b8ff" d="M732.14,-241.99C698.48,-233.28 645.27,-219.51 603.22,-208.62"/>
<polygon fill="#63b8ff" stroke="#63b8ff" points="603.89,-205.18 593.33,-206.06 602.14,-211.96 603.89,-205.18"/>
</a>
</g>
</g>
<!-- Node26 -->
<g id="Node000026" class="node">
<title>Node26</title>
<g id="a_Node000026"><a xlink:href="comparison_8h.html" target="_top" xlink:title=" ">
<polygon fill="white" stroke="#666666" points="748,-206 614,-206 614,-176 748,-176 748,-206"/>
<text text-anchor="start" x="622" y="-194" font-family="Helvetica,sans-Serif" font-size="10.00">open62541pp/overloads</text>
<text text-anchor="middle" x="681" y="-183" font-family="Helvetica,sans-Serif" font-size="10.00">/comparison.h</text>
</a>
</g>
</g>
<!-- Node22&#45;&gt;Node26 -->
<g id="edge39_Node000022_Node000026" class="edge">
<title>Node22&#45;&gt;Node26</title>
<g id="a_edge39_Node000022_Node000026"><a xlink:title=" ">
<path fill="none" stroke="#63b8ff" d="M752.61,-241.87C741.31,-234 724.21,-222.09 709.55,-211.89"/>
<polygon fill="#63b8ff" stroke="#63b8ff" points="711.47,-208.96 701.27,-206.11 707.47,-214.7 711.47,-208.96"/>
</a>
</g>
</g>
<!-- Node25&#45;&gt;Node7 -->
<g id="edge34_Node000025_Node000007" class="edge">
<title>Node25&#45;&gt;Node7</title>
<g id="a_edge34_Node000025_Node000007"><a xlink:title=" ">
<path fill="none" stroke="#63b8ff" d="M504.99,-175.99C481.4,-166.27 450.26,-153.44 427.48,-144.06"/>
<polygon fill="#63b8ff" stroke="#63b8ff" points="428.55,-140.71 417.97,-140.14 425.88,-147.18 428.55,-140.71"/>
</a>
</g>
</g>
<!-- Node25&#45;&gt;Node10 -->
<g id="edge36_Node000025_Node000010" class="edge">
<title>Node25&#45;&gt;Node10</title>
<g id="a_edge36_Node000025_Node000010"><a xlink:title=" ">
<path fill="none" stroke="#63b8ff" d="M595.84,-177.73C598.94,-177.13 602,-176.55 605,-176 678.61,-162.54 763.26,-149.82 821.84,-141.46"/>
<polygon fill="#63b8ff" stroke="#63b8ff" points="822.69,-144.88 832.1,-140 821.71,-137.95 822.69,-144.88"/>
</a>
</g>
</g>
<!-- Node25&#45;&gt;Node12 -->
<g id="edge35_Node000025_Node000012" class="edge">
<title>Node25&#45;&gt;Node12</title>
<g id="a_edge35_Node000025_Node000012"><a xlink:title=" ">
<path fill="none" stroke="#63b8ff" d="M569.24,-176C619.51,-152.72 719.56,-106.39 768.19,-83.88"/>
<polygon fill="#63b8ff" stroke="#63b8ff" points="769.87,-86.96 777.47,-79.58 766.92,-80.61 769.87,-86.96"/>
</a>
</g>
</g>
<!-- Node25&#45;&gt;Node15 -->
<g id="edge37_Node000025_Node000015" class="edge">
<title>Node25&#45;&gt;Node15</title>
<g id="a_edge37_Node000025_Node000015"><a xlink:title=" ">
<path fill="none" stroke="#63b8ff" d="M528.92,-175.88C513.23,-153.92 483.05,-111.66 466.17,-88.04"/>
<polygon fill="#63b8ff" stroke="#63b8ff" points="468.88,-85.81 460.22,-79.71 463.19,-89.88 468.88,-85.81"/>
</a>
</g>
</g>
<!-- Node25&#45;&gt;Node23 -->
<g id="edge33_Node000025_Node000023" class="edge">
<title>Node25&#45;&gt;Node23</title>
<g id="a_edge33_Node000025_Node000023"><a xlink:title=" ">
<path fill="none" stroke="#63b8ff" d="M553.28,-175.84C561.93,-167.26 572.99,-156.3 581.94,-147.42"/>
<polygon fill="#63b8ff" stroke="#63b8ff" points="584.52,-149.79 589.16,-140.27 579.59,-144.82 584.52,-149.79"/>
</a>
</g>
</g>
<!-- Node26&#45;&gt;Node15 -->
<g id="edge40_Node000026_Node000015" class="edge">
<title>Node26&#45;&gt;Node15</title>
<g id="a_edge40_Node000026_Node000015"><a xlink:title=" ">
<path fill="none" stroke="#63b8ff" d="M674.83,-175.9C667.24,-160.18 652.87,-135.11 633,-121 604.63,-100.85 568.4,-88.8 535.96,-81.61"/>
<polygon fill="#63b8ff" stroke="#63b8ff" points="536.54,-78.15 526.03,-79.53 535.1,-85 536.54,-78.15"/>
</a>
</g>
</g>
<!-- Node27&#45;&gt;Node5 -->
<g id="edge45_Node000027_Node000005" class="edge">
<title>Node27&#45;&gt;Node5</title>
<g id="a_edge45_Node000027_Node000005"><a xlink:title=" ">
<path fill="none" stroke="#63b8ff" d="M937.19,-302.49C970.25,-292.15 1026.08,-274.69 1062.23,-263.38"/>
<polygon fill="#63b8ff" stroke="#63b8ff" points="1063.37,-266.69 1071.87,-260.36 1061.28,-260.01 1063.37,-266.69"/>
</a>
</g>
</g>
<!-- Node27&#45;&gt;Node7 -->
<g id="edge48_Node000027_Node000007" class="edge">
<title>Node27&#45;&gt;Node7</title>
<g id="a_edge48_Node000027_Node000007"><a xlink:title=" ">
<path fill="none" stroke="#63b8ff" d="M823.1,-309.1C725.28,-303.11 565.24,-281.38 452,-206 430.63,-191.78 414.52,-166.32 405.43,-149.17"/>
<polygon fill="#63b8ff" stroke="#63b8ff" points="408.52,-147.53 400.89,-140.18 402.27,-150.68 408.52,-147.53"/>
</a>
</g>
</g>
<!-- Node27&#45;&gt;Node11 -->
<g id="edge46_Node000027_Node000011" class="edge">
<title>Node27&#45;&gt;Node11</title>
<g id="a_edge46_Node000027_Node000011"><a xlink:title=" ">
<path fill="none" stroke="#63b8ff" d="M931.45,-302.49C948.41,-294.51 971,-280.83 982,-261 1012.22,-206.55 1014.64,-177.29 988,-121 980.72,-105.61 966.12,-93.38 953.04,-84.87"/>
<polygon fill="#63b8ff" stroke="#63b8ff" points="954.69,-81.77 944.33,-79.57 951.05,-87.76 954.69,-81.77"/>
</a>
</g>
</g>
<!-- Node27&#45;&gt;Node12 -->
<g id="edge49_Node000027_Node000012" class="edge">
<title>Node27&#45;&gt;Node12</title>
<g id="a_edge49_Node000027_Node000012"><a xlink:title=" ">
<path fill="none" stroke="#63b8ff" d="M921.03,-302.08C935.35,-289.35 957.54,-264.96 949,-242 935.49,-205.67 922.85,-199.47 892,-176 862.26,-153.37 840.23,-168.46 816,-140 804.02,-125.92 799.21,-105.02 797.28,-89.91"/>
<polygon fill="#63b8ff" stroke="#63b8ff" points="800.74,-89.31 796.3,-79.69 793.77,-89.98 800.74,-89.31"/>
</a>
</g>
</g>
<!-- Node27&#45;&gt;Node15 -->
<g id="edge51_Node000027_Node000015" class="edge">
<title>Node27&#45;&gt;Node15</title>
<g id="a_edge51_Node000027_Node000015"><a xlink:title=" ">
<path fill="none" stroke="#63b8ff" d="M906.37,-302.37C894.92,-275.49 858.97,-193.95 837,-176 751.45,-106.1 622.94,-82.57 538.77,-74.74"/>
<polygon fill="#63b8ff" stroke="#63b8ff" points="539,-71.25 528.73,-73.86 538.39,-78.22 539,-71.25"/>
</a>
</g>
</g>
<!-- Node27&#45;&gt;Node22 -->
<g id="edge50_Node000027_Node000022" class="edge">
<title>Node27&#45;&gt;Node22</title>
<g id="a_edge50_Node000027_Node000022"><a xlink:title=" ">
<path fill="none" stroke="#63b8ff" d="M888.92,-302.49C864.32,-292.57 823.47,-276.09 795.44,-264.78"/>
<polygon fill="#63b8ff" stroke="#63b8ff" points="796.69,-261.51 786.11,-261.02 794.07,-268 796.69,-261.51"/>
</a>
</g>
</g>
<!-- Node28 -->
<g id="Node000028" class="node">
<title>Node28</title>
<g id="a_Node000028"><a xlink:title=" ">
<polygon fill="#e0e0e0" stroke="#999999" points="939.5,-261 900.5,-261 900.5,-242 939.5,-242 939.5,-261"/>
<text text-anchor="middle" x="920" y="-249" font-family="Helvetica,sans-Serif" font-size="10.00">ratio</text>
</a>
</g>
</g>
<!-- Node27&#45;&gt;Node28 -->
<g id="edge47_Node000027_Node000028" class="edge">
<title>Node27&#45;&gt;Node28</title>
<g id="a_edge47_Node000027_Node000028"><a xlink:title=" ">
<path fill="none" stroke="#63b8ff" d="M911.48,-302.37C912.88,-294.16 915.04,-281.54 916.83,-271.05"/>
<polygon fill="#63b8ff" stroke="#63b8ff" points="920.28,-271.61 918.52,-261.17 913.38,-270.43 920.28,-271.61"/>
</a>
</g>
</g>
<!-- Node29&#45;&gt;Node3 -->
<g id="edge53_Node000029_Node000003" class="edge">
<title>Node29&#45;&gt;Node3</title>
<g id="a_edge53_Node000029_Node000003"><a xlink:title=" ">
<path fill="none" stroke="#63b8ff" d="M274.2,-324.08C281.92,-325.14 289.62,-326.14 297,-327 455.78,-345.43 641.04,-358.64 749.59,-365.67"/>
<polygon fill="#63b8ff" stroke="#63b8ff" points="749.65,-369.18 759.86,-366.33 750.1,-362.2 749.65,-369.18"/>
</a>
</g>
</g>
<!-- Node29&#45;&gt;Node15 -->
<g id="edge54_Node000029_Node000015" class="edge">
<title>Node29&#45;&gt;Node15</title>
<g id="a_edge54_Node000029_Node000015"><a xlink:title=" ">
<path fill="none" stroke="#63b8ff" d="M182,-296.75C159.07,-271.61 118.26,-218.08 141,-176 162.22,-136.74 183.85,-138.27 225,-121 272.53,-101.05 329.09,-88.6 374.11,-81.12"/>
<polygon fill="#63b8ff" stroke="#63b8ff" points="374.8,-84.55 384.12,-79.5 373.69,-77.64 374.8,-84.55"/>
</a>
</g>
</g>
</g>
</svg>
