<?xml version="1.0" encoding="UTF-8" standalone="no"?>
<!DOCTYPE svg PUBLIC "-//W3C//DTD SVG 1.1//EN"
 "http://www.w3.org/Graphics/SVG/1.1/DTD/svg11.dtd">
<!-- Generated by graphviz version 2.43.0 (0)
 -->
<!-- Title: CreateSubscription service Pages: 1 -->
<svg width="559pt" height="76pt"
 viewBox="0.00 0.00 559.00 75.50" xmlns="http://www.w3.org/2000/svg" xmlns:xlink="http://www.w3.org/1999/xlink">
<g id="graph0" class="graph" transform="scale(1 1) rotate(0) translate(4 71.5)">
<title>CreateSubscription service</title>
<!-- Node3 -->
<g id="Node000003" class="node">
<title>Node3</title>
<g id="a_Node000003"><a xlink:href="group__Attribute.html" target="_top" xlink:title="Read and write node attributes.">
<polygon fill="white" stroke="#666666" points="546,-67.5 430,-67.5 430,-48.5 546,-48.5 546,-67.5"/>
<text text-anchor="middle" x="488" y="-55.5" font-family="Helvetica,sans-Serif" font-size="10.00">Attribute service set</text>
</a>
</g>
</g>
<!-- Node4 -->
<g id="Node000004" class="node">
<title>Node4</title>
<g id="a_Node000004"><a xlink:href="group__CreateMonitoredItems.html" target="_top" xlink:title="Create and add a monitored item to a subscription.">
<polygon fill="white" stroke="#666666" points="551,-30 425,-30 425,0 551,0 551,-30"/>
<text text-anchor="start" x="433" y="-18" font-family="Helvetica,sans-Serif" font-size="10.00">CreateMonitoredItems</text>
<text text-anchor="middle" x="488" y="-7" font-family="Helvetica,sans-Serif" font-size="10.00"> service</text>
</a>
</g>
</g>
<!-- Node1 -->
<g id="Node000001" class="node">
<title>Node1</title>
<g id="a_Node000001"><a xlink:title="Create subscriptions.">
<polygon fill="#999999" stroke="#666666" points="279,-51 170,-51 170,-21 279,-21 279,-51"/>
<text text-anchor="start" x="178" y="-39" font-family="Helvetica,sans-Serif" font-size="10.00">CreateSubscription</text>
<text text-anchor="middle" x="224.5" y="-28" font-family="Helvetica,sans-Serif" font-size="10.00"> service</text>
</a>
</g>
</g>
<!-- Node1&#45;&gt;Node3 -->
<g id="edge2" class="edge">
<title>Node1&#45;&gt;Node3</title>
<path fill="none" stroke="blueviolet" stroke-dasharray="5,2" d="M279.05,-40.51C322.98,-44.2 385.03,-49.42 429.9,-53.2"/>
<text text-anchor="middle" x="352" y="-54" font-family="Helvetica,sans-Serif" font-size="10.00">opcua::services::detail</text>
</g>
<!-- Node1&#45;&gt;Node4 -->
<g id="edge3" class="edge">
<title>Node1&#45;&gt;Node4</title>
<path fill="none" stroke="blueviolet" stroke-dasharray="5,2" d="M279.3,-27.13C285.26,-26.33 291.25,-25.59 297,-25 339.55,-20.62 387.67,-18.11 424.84,-16.7"/>
<text text-anchor="middle" x="352" y="-28" font-family="Helvetica,sans-Serif" font-size="10.00">opcua::services::detail</text>
</g>
<!-- Node2 -->
<g id="Node000002" class="node">
<title>Node2</title>
<g id="a_Node000002"><a xlink:href="group__Subscription.html" target="_top" xlink:title="Report notifications to the client.">
<polygon fill="white" stroke="#666666" points="133,-45.5 0,-45.5 0,-26.5 133,-26.5 133,-45.5"/>
<text text-anchor="middle" x="66.5" y="-33.5" font-family="Helvetica,sans-Serif" font-size="10.00">Subscription service set</text>
</a>
</g>
</g>
<!-- Node2&#45;&gt;Node1 -->
<g id="edge1" class="edge">
<title>Node2&#45;&gt;Node1</title>
<path fill="none" stroke="black" d="M143.25,-36C152.17,-36 161.14,-36 169.68,-36"/>
<polygon fill="black" stroke="black" points="143.21,-32.5 133.21,-36 143.21,-39.5 143.21,-32.5"/>
</g>
</g>
</svg>
