<?xml version="1.0" encoding="UTF-8" standalone="no"?>
<!DOCTYPE svg PUBLIC "-//W3C//DTD SVG 1.1//EN"
 "http://www.w3.org/Graphics/SVG/1.1/DTD/svg11.dtd">
<!-- Generated by graphviz version 2.43.0 (0)
 -->
<!-- Title: Services Pages: 1 -->
<svg width="212pt" height="64pt"
 viewBox="0.00 0.00 212.00 64.00" xmlns="http://www.w3.org/2000/svg" xmlns:xlink="http://www.w3.org/1999/xlink">
<g id="graph0" class="graph" transform="scale(1 1) rotate(0) translate(4 60)">
<title>Services</title>
<!-- Node2 -->
<g id="node1" class="node">
<title>Node2</title>
<g id="a_node1"><a xlink:href="group__Attribute.html" target="_top" xlink:title="Read and write node attributes.">
<polygon fill="none" stroke="black" points="178.5,-56 119.5,-56 119.5,-37 178.5,-37 178.5,-56"/>
<text text-anchor="middle" x="149" y="-44" font-family="Helvetica,sans-Serif" font-size="10.00">Attribute</text>
</a>
</g>
</g>
<!-- Node1 -->
<g id="node2" class="node">
<title>Node1</title>
<g id="a_node2"><a xlink:title="OPC UA services as free functions. Functions are overloaded for both Server and Client (TODO).">
<polygon fill="#bfbfbf" stroke="black" points="58,-37 0,-37 0,-18 58,-18 58,-37"/>
<text text-anchor="middle" x="29" y="-25" font-family="Helvetica,sans-Serif" font-size="10.00">Services</text>
</a>
</g>
</g>
<!-- Node1&#45;&gt;Node2 -->
<g id="edge1" class="edge">
<title>Node1&#45;&gt;Node2</title>
<path fill="none" stroke="black" d="M68.19,-33.65C84.75,-36.31 103.81,-39.38 119.15,-41.85"/>
<polygon fill="black" stroke="black" points="68.69,-30.19 58.26,-32.05 67.58,-37.1 68.69,-30.19"/>
</g>
<!-- Node3 -->
<g id="node3" class="node">
<title>Node3</title>
<g id="a_node3"><a xlink:href="group__NodeManagement.html" target="_top" xlink:title="Add/delete nodes and references.">
<polygon fill="none" stroke="black" points="204,-19 94,-19 94,0 204,0 204,-19"/>
<text text-anchor="middle" x="149" y="-7" font-family="Helvetica,sans-Serif" font-size="10.00">Node management</text>
</a>
</g>
</g>
<!-- Node1&#45;&gt;Node3 -->
<g id="edge2" class="edge">
<title>Node1&#45;&gt;Node3</title>
<path fill="none" stroke="black" d="M68.17,-21.68C76.29,-20.44 85.01,-19.11 93.61,-17.8"/>
<polygon fill="black" stroke="black" points="67.62,-18.22 58.26,-23.19 68.68,-25.14 67.62,-18.22"/>
</g>
</g>
</svg>
