<?xml version="1.0" encoding="UTF-8" standalone="no"?>
<!DOCTYPE svg PUBLIC "-//W3C//DTD SVG 1.1//EN"
 "http://www.w3.org/Graphics/SVG/1.1/DTD/svg11.dtd">
<!-- Generated by graphviz version 2.43.0 (0)
 -->
<!-- Title: /home/runner/work/open62541pp/open62541pp/include/open62541pp/Helper.h Pages: 1 -->
<svg width="2236pt" height="752pt"
 viewBox="0.00 0.00 2236.00 752.00" xmlns="http://www.w3.org/2000/svg" xmlns:xlink="http://www.w3.org/1999/xlink">
<g id="graph0" class="graph" transform="scale(1 1) rotate(0) translate(4 748)">
<title>/home/runner/work/open62541pp/open62541pp/include/open62541pp/Helper.h</title>
<!-- Node1 -->
<g id="node1" class="node">
<title>Node1</title>
<g id="a_node1"><a xlink:title=" ">
<polygon fill="#bfbfbf" stroke="black" points="819.5,-702.5 819.5,-743.5 1012.5,-743.5 1012.5,-702.5 819.5,-702.5"/>
<text text-anchor="start" x="827.5" y="-731.5" font-family="Helvetica,sans-Serif" font-size="10.00">/home/runner/work/open62541pp</text>
<text text-anchor="start" x="827.5" y="-720.5" font-family="Helvetica,sans-Serif" font-size="10.00">/open62541pp/include/open62541pp</text>
<text text-anchor="middle" x="916" y="-709.5" font-family="Helvetica,sans-Serif" font-size="10.00">/Helper.h</text>
</a>
</g>
</g>
<!-- Node2 -->
<g id="node2" class="node">
<title>Node2</title>
<g id="a_node2"><a xlink:href="open62541pp_8h.html" target="_top" xlink:title=" ">
<polygon fill="none" stroke="black" points="1563.5,-0.5 1563.5,-41.5 1756.5,-41.5 1756.5,-0.5 1563.5,-0.5"/>
<text text-anchor="start" x="1571.5" y="-29.5" font-family="Helvetica,sans-Serif" font-size="10.00">/home/runner/work/open62541pp</text>
<text text-anchor="start" x="1571.5" y="-18.5" font-family="Helvetica,sans-Serif" font-size="10.00">/open62541pp/include/open62541pp</text>
<text text-anchor="middle" x="1660" y="-7.5" font-family="Helvetica,sans-Serif" font-size="10.00">/open62541pp.h</text>
</a>
</g>
</g>
<!-- Node1&#45;&gt;Node2 -->
<g id="edge1" class="edge">
<title>Node1&#45;&gt;Node2</title>
<path fill="none" stroke="midnightblue" d="M1022.68,-719.86C1224.27,-715.06 1653.84,-700.96 1798,-666 1903.61,-640.39 2022,-676.67 2022,-568 2022,-568 2022,-568 2022,-176 2022,-60.41 1863.77,-30.35 1756.53,-23.25"/>
<polygon fill="midnightblue" stroke="midnightblue" points="1022.59,-716.36 1012.67,-720.1 1022.75,-723.36 1022.59,-716.36"/>
</g>
<!-- Node3 -->
<g id="node3" class="node">
<title>Node3</title>
<g id="a_node3"><a xlink:href="Attribute_8h.html" target="_top" xlink:title=" ">
<polygon fill="none" stroke="black" points="690.5,-234.5 690.5,-275.5 883.5,-275.5 883.5,-234.5 690.5,-234.5"/>
<text text-anchor="start" x="698.5" y="-263.5" font-family="Helvetica,sans-Serif" font-size="10.00">/home/runner/work/open62541pp</text>
<text text-anchor="start" x="698.5" y="-252.5" font-family="Helvetica,sans-Serif" font-size="10.00">/open62541pp/include/open62541pp</text>
<text text-anchor="middle" x="787" y="-241.5" font-family="Helvetica,sans-Serif" font-size="10.00">/services/Attribute.h</text>
</a>
</g>
</g>
<!-- Node1&#45;&gt;Node3 -->
<g id="edge2" class="edge">
<title>Node1&#45;&gt;Node3</title>
<path fill="none" stroke="midnightblue" d="M911.18,-692.4C907.69,-672.8 902.46,-646.65 896,-624 871.05,-536.51 850.44,-519.35 825,-432 808.74,-376.18 796.05,-308.56 790.32,-275.76"/>
<polygon fill="midnightblue" stroke="midnightblue" points="907.73,-693.01 912.89,-702.26 914.63,-691.81 907.73,-693.01"/>
</g>
<!-- Node6 -->
<g id="node6" class="node">
<title>Node6</title>
<g id="a_node6"><a xlink:href="Server_8cpp.html" target="_top" xlink:title=" ">
<polygon fill="none" stroke="black" points="281,-6 281,-36 459,-36 459,-6 281,-6"/>
<text text-anchor="start" x="289" y="-24" font-family="Helvetica,sans-Serif" font-size="10.00">/home/runner/work/open62541pp</text>
<text text-anchor="middle" x="370" y="-13" font-family="Helvetica,sans-Serif" font-size="10.00">/open62541pp/src/Server.cpp</text>
</a>
</g>
</g>
<!-- Node1&#45;&gt;Node6 -->
<g id="edge61" class="edge">
<title>Node1&#45;&gt;Node6</title>
<path fill="none" stroke="midnightblue" d="M809.33,-721.13C626.88,-718.5 262.97,-707.98 143,-666 70.27,-640.56 0,-645.05 0,-568 0,-568 0,-568 0,-176 0,-111.55 193.75,-59.74 300.84,-36.02"/>
<polygon fill="midnightblue" stroke="midnightblue" points="809.43,-724.63 819.48,-721.27 809.53,-717.63 809.43,-724.63"/>
</g>
<!-- Node8 -->
<g id="node8" class="node">
<title>Node8</title>
<g id="a_node8"><a xlink:href="TypeConverter_8h.html" target="_top" xlink:title=" ">
<polygon fill="none" stroke="black" points="309.5,-468.5 309.5,-509.5 502.5,-509.5 502.5,-468.5 309.5,-468.5"/>
<text text-anchor="start" x="317.5" y="-497.5" font-family="Helvetica,sans-Serif" font-size="10.00">/home/runner/work/open62541pp</text>
<text text-anchor="start" x="317.5" y="-486.5" font-family="Helvetica,sans-Serif" font-size="10.00">/open62541pp/include/open62541pp</text>
<text text-anchor="middle" x="406" y="-475.5" font-family="Helvetica,sans-Serif" font-size="10.00">/TypeConverter.h</text>
</a>
</g>
</g>
<!-- Node1&#45;&gt;Node8 -->
<g id="edge10" class="edge">
<title>Node1&#45;&gt;Node8</title>
<path fill="none" stroke="midnightblue" d="M809.26,-714.92C708.77,-703.12 559.27,-671.68 460,-588 435.2,-567.09 419.77,-531.76 412.05,-509.72"/>
<polygon fill="midnightblue" stroke="midnightblue" points="809.11,-718.43 819.44,-716.07 809.89,-711.47 809.11,-718.43"/>
</g>
<!-- Node9 -->
<g id="node9" class="node">
<title>Node9</title>
<g id="a_node9"><a xlink:href="Variant_8h.html" target="_top" xlink:title=" ">
<polygon fill="none" stroke="black" points="165.5,-390.5 165.5,-431.5 358.5,-431.5 358.5,-390.5 165.5,-390.5"/>
<text text-anchor="start" x="173.5" y="-419.5" font-family="Helvetica,sans-Serif" font-size="10.00">/home/runner/work/open62541pp</text>
<text text-anchor="start" x="173.5" y="-408.5" font-family="Helvetica,sans-Serif" font-size="10.00">/open62541pp/include/open62541pp</text>
<text text-anchor="middle" x="262" y="-397.5" font-family="Helvetica,sans-Serif" font-size="10.00">/types/Variant.h</text>
</a>
</g>
</g>
<!-- Node1&#45;&gt;Node9 -->
<g id="edge23" class="edge">
<title>Node1&#45;&gt;Node9</title>
<path fill="none" stroke="midnightblue" d="M809.24,-720.16C725.25,-715.7 606.52,-702.64 509,-666 390.95,-621.64 337.39,-617.82 272,-510 257.46,-486.02 257.44,-452.54 259.31,-431.58"/>
<polygon fill="midnightblue" stroke="midnightblue" points="809.15,-723.66 819.31,-720.66 809.5,-716.67 809.15,-723.66"/>
</g>
<!-- Node12 -->
<g id="node12" class="node">
<title>Node12</title>
<g id="a_node12"><a xlink:href="Variant_8cpp.html" target="_top" xlink:title=" ">
<polygon fill="none" stroke="black" points="66.5,-240 66.5,-270 257.5,-270 257.5,-240 66.5,-240"/>
<text text-anchor="start" x="74.5" y="-258" font-family="Helvetica,sans-Serif" font-size="10.00">/home/runner/work/open62541pp</text>
<text text-anchor="middle" x="162" y="-247" font-family="Helvetica,sans-Serif" font-size="10.00">/open62541pp/src/types/Variant.cpp</text>
</a>
</g>
</g>
<!-- Node1&#45;&gt;Node12 -->
<g id="edge65" class="edge">
<title>Node1&#45;&gt;Node12</title>
<path fill="none" stroke="midnightblue" d="M808.87,-714.27C574.69,-695.92 38,-645.44 38,-568 38,-568 38,-568 38,-410 38,-346.33 103.11,-294.07 138.97,-270.12"/>
<polygon fill="midnightblue" stroke="midnightblue" points="808.86,-717.78 819.11,-715.06 809.41,-710.8 808.86,-717.78"/>
</g>
<!-- Node13 -->
<g id="node13" class="node">
<title>Node13</title>
<g id="a_node13"><a xlink:href="TypeWrapper_8h.html" target="_top" xlink:title=" ">
<polygon fill="none" stroke="black" points="694.5,-624.5 694.5,-665.5 887.5,-665.5 887.5,-624.5 694.5,-624.5"/>
<text text-anchor="start" x="702.5" y="-653.5" font-family="Helvetica,sans-Serif" font-size="10.00">/home/runner/work/open62541pp</text>
<text text-anchor="start" x="702.5" y="-642.5" font-family="Helvetica,sans-Serif" font-size="10.00">/open62541pp/include/open62541pp</text>
<text text-anchor="middle" x="791" y="-631.5" font-family="Helvetica,sans-Serif" font-size="10.00">/TypeWrapper.h</text>
</a>
</g>
</g>
<!-- Node1&#45;&gt;Node13 -->
<g id="edge24" class="edge">
<title>Node1&#45;&gt;Node13</title>
<path fill="none" stroke="midnightblue" d="M875.22,-697.2C858.3,-686.92 838.96,-675.16 823.08,-665.51"/>
<polygon fill="midnightblue" stroke="midnightblue" points="873.45,-700.22 883.81,-702.43 877.08,-694.24 873.45,-700.22"/>
</g>
<!-- Node19 -->
<g id="node19" class="node">
<title>Node19</title>
<g id="a_node19"><a xlink:href="NodeManagement_8cpp.html" target="_top" xlink:title=" ">
<polygon fill="none" stroke="black" points="1454,-156.5 1454,-197.5 1632,-197.5 1632,-156.5 1454,-156.5"/>
<text text-anchor="start" x="1462" y="-185.5" font-family="Helvetica,sans-Serif" font-size="10.00">/home/runner/work/open62541pp</text>
<text text-anchor="start" x="1462" y="-174.5" font-family="Helvetica,sans-Serif" font-size="10.00">/open62541pp/src/services</text>
<text text-anchor="middle" x="1543" y="-163.5" font-family="Helvetica,sans-Serif" font-size="10.00">/NodeManagement.cpp</text>
</a>
</g>
</g>
<!-- Node1&#45;&gt;Node19 -->
<g id="edge62" class="edge">
<title>Node1&#45;&gt;Node19</title>
<path fill="none" stroke="midnightblue" d="M1022.72,-718.13C1202.48,-710.95 1557.97,-693.72 1680,-666 1787.56,-641.57 1908,-678.3 1908,-568 1908,-568 1908,-568 1908,-332 1908,-212.67 1740.35,-184.35 1632.29,-178.49"/>
<polygon fill="midnightblue" stroke="midnightblue" points="1022.57,-714.63 1012.72,-718.53 1022.85,-721.63 1022.57,-714.63"/>
</g>
<!-- Node21 -->
<g id="node21" class="node">
<title>Node21</title>
<g id="a_node21"><a xlink:href="NodeId_8cpp.html" target="_top" xlink:title=" ">
<polygon fill="none" stroke="black" points="1650.5,-240 1650.5,-270 1841.5,-270 1841.5,-240 1650.5,-240"/>
<text text-anchor="start" x="1658.5" y="-258" font-family="Helvetica,sans-Serif" font-size="10.00">/home/runner/work/open62541pp</text>
<text text-anchor="middle" x="1746" y="-247" font-family="Helvetica,sans-Serif" font-size="10.00">/open62541pp/src/types/NodeId.cpp</text>
</a>
</g>
</g>
<!-- Node1&#45;&gt;Node21 -->
<g id="edge64" class="edge">
<title>Node1&#45;&gt;Node21</title>
<path fill="none" stroke="midnightblue" d="M1022.88,-715.81C1271.95,-699.95 1870,-653.01 1870,-568 1870,-568 1870,-568 1870,-410 1870,-365.63 1877.36,-347.69 1851,-312 1836.45,-292.31 1812.88,-278.85 1791.75,-270.07"/>
<polygon fill="midnightblue" stroke="midnightblue" points="1022.48,-712.32 1012.72,-716.45 1022.93,-719.31 1022.48,-712.32"/>
</g>
<!-- Node22 -->
<g id="node22" class="node">
<title>Node22</title>
<g id="a_node22"><a xlink:href="Builtin_8cpp.html" target="_top" xlink:title=" ">
<polygon fill="none" stroke="black" points="1654,-318 1654,-348 1842,-348 1842,-318 1654,-318"/>
<text text-anchor="start" x="1662" y="-336" font-family="Helvetica,sans-Serif" font-size="10.00">/home/runner/work/open62541pp</text>
<text text-anchor="middle" x="1748" y="-325" font-family="Helvetica,sans-Serif" font-size="10.00">/open62541pp/src/types/Builtin.cpp</text>
</a>
</g>
</g>
<!-- Node1&#45;&gt;Node22 -->
<g id="edge63" class="edge">
<title>Node1&#45;&gt;Node22</title>
<path fill="none" stroke="midnightblue" d="M1022.79,-711.83C1173.65,-694.45 1431,-652.44 1431,-568 1431,-568 1431,-568 1431,-488 1431,-387.96 1560.3,-352.89 1653.75,-340.61"/>
<polygon fill="midnightblue" stroke="midnightblue" points="1022.11,-708.38 1012.57,-712.99 1022.9,-715.34 1022.11,-708.38"/>
</g>
<!-- Node25 -->
<g id="node25" class="node">
<title>Node25</title>
<g id="a_node25"><a xlink:href="Helper_8cpp.html" target="_top" xlink:title=" ">
<polygon fill="none" stroke="black" points="2050,-630 2050,-660 2228,-660 2228,-630 2050,-630"/>
<text text-anchor="start" x="2058" y="-648" font-family="Helvetica,sans-Serif" font-size="10.00">/home/runner/work/open62541pp</text>
<text text-anchor="middle" x="2139" y="-637" font-family="Helvetica,sans-Serif" font-size="10.00">/open62541pp/src/Helper.cpp</text>
</a>
</g>
</g>
<!-- Node1&#45;&gt;Node25 -->
<g id="edge60" class="edge">
<title>Node1&#45;&gt;Node25</title>
<path fill="none" stroke="midnightblue" d="M1022.84,-721.69C1222.57,-719.99 1665.81,-710.97 2036,-666 2048.39,-664.5 2061.52,-662.36 2074.11,-660.05"/>
<polygon fill="midnightblue" stroke="midnightblue" points="1022.62,-718.19 1012.65,-721.77 1022.68,-725.19 1022.62,-718.19"/>
</g>
<!-- Node4 -->
<g id="node4" class="node">
<title>Node4</title>
<g id="a_node4"><a xlink:href="services_8h.html" target="_top" xlink:title=" ">
<polygon fill="none" stroke="black" points="932.5,-156.5 932.5,-197.5 1125.5,-197.5 1125.5,-156.5 932.5,-156.5"/>
<text text-anchor="start" x="940.5" y="-185.5" font-family="Helvetica,sans-Serif" font-size="10.00">/home/runner/work/open62541pp</text>
<text text-anchor="start" x="940.5" y="-174.5" font-family="Helvetica,sans-Serif" font-size="10.00">/open62541pp/include/open62541pp</text>
<text text-anchor="middle" x="1029" y="-163.5" font-family="Helvetica,sans-Serif" font-size="10.00">/services/services.h</text>
</a>
</g>
</g>
<!-- Node3&#45;&gt;Node4 -->
<g id="edge3" class="edge">
<title>Node3&#45;&gt;Node4</title>
<path fill="none" stroke="midnightblue" d="M859.27,-231.3C893.53,-220.55 934.04,-207.82 966.89,-197.51"/>
<polygon fill="midnightblue" stroke="midnightblue" points="857.81,-228.09 849.32,-234.43 859.91,-234.77 857.81,-228.09"/>
</g>
<!-- Node3&#45;&gt;Node6 -->
<g id="edge8" class="edge">
<title>Node3&#45;&gt;Node6</title>
<path fill="none" stroke="midnightblue" d="M726.96,-230.52C704.37,-221.12 678.68,-209.74 656,-198 552.72,-144.52 436.72,-67.51 390.55,-36.12"/>
<polygon fill="midnightblue" stroke="midnightblue" points="725.85,-233.85 736.43,-234.43 728.52,-227.38 725.85,-233.85"/>
</g>
<!-- Node7 -->
<g id="node7" class="node">
<title>Node7</title>
<g id="a_node7"><a xlink:href="Attribute_8cpp.html" target="_top" xlink:title=" ">
<polygon fill="none" stroke="black" points="698,-156.5 698,-197.5 876,-197.5 876,-156.5 698,-156.5"/>
<text text-anchor="start" x="706" y="-185.5" font-family="Helvetica,sans-Serif" font-size="10.00">/home/runner/work/open62541pp</text>
<text text-anchor="start" x="706" y="-174.5" font-family="Helvetica,sans-Serif" font-size="10.00">/open62541pp/src/services</text>
<text text-anchor="middle" x="787" y="-163.5" font-family="Helvetica,sans-Serif" font-size="10.00">/Attribute.cpp</text>
</a>
</g>
</g>
<!-- Node3&#45;&gt;Node7 -->
<g id="edge9" class="edge">
<title>Node3&#45;&gt;Node7</title>
<path fill="none" stroke="midnightblue" d="M787,-224.3C787,-215.3 787,-205.65 787,-197.51"/>
<polygon fill="midnightblue" stroke="midnightblue" points="783.5,-224.43 787,-234.43 790.5,-224.43 783.5,-224.43"/>
</g>
<!-- Node4&#45;&gt;Node2 -->
<g id="edge7" class="edge">
<title>Node4&#45;&gt;Node2</title>
<path fill="none" stroke="midnightblue" d="M1112.34,-153.95C1189.81,-133.62 1308.49,-102.92 1412,-78 1464.46,-65.37 1523.37,-52.03 1570.61,-41.54"/>
<polygon fill="midnightblue" stroke="midnightblue" points="1111.41,-150.57 1102.63,-156.5 1113.19,-157.34 1111.41,-150.57"/>
</g>
<!-- Node5 -->
<g id="node5" class="node">
<title>Node5</title>
<g id="a_node5"><a xlink:href="Node_8h.html" target="_top" xlink:title=" ">
<polygon fill="none" stroke="black" points="572,-78.5 572,-119.5 768,-119.5 768,-78.5 572,-78.5"/>
<text text-anchor="start" x="580" y="-107.5" font-family="Helvetica,sans-Serif" font-size="10.00">/home/runner/work/open62541pp</text>
<text text-anchor="start" x="580" y="-96.5" font-family="Helvetica,sans-Serif" font-size="10.00">/open62541pp/include/open62541pp/</text>
<text text-anchor="middle" x="670" y="-85.5" font-family="Helvetica,sans-Serif" font-size="10.00">Node.h</text>
</a>
</g>
</g>
<!-- Node4&#45;&gt;Node5 -->
<g id="edge4" class="edge">
<title>Node4&#45;&gt;Node5</title>
<path fill="none" stroke="midnightblue" d="M926.67,-154.34C874.85,-143.37 812.44,-130.16 762.14,-119.51"/>
<polygon fill="midnightblue" stroke="midnightblue" points="926.04,-157.78 936.55,-156.43 927.49,-150.93 926.04,-157.78"/>
</g>
<!-- Node5&#45;&gt;Node2 -->
<g id="edge5" class="edge">
<title>Node5&#45;&gt;Node2</title>
<path fill="none" stroke="midnightblue" d="M778.32,-89.68C972.66,-74.77 1377.55,-43.68 1563.21,-29.43"/>
<polygon fill="midnightblue" stroke="midnightblue" points="777.79,-86.21 768.09,-90.47 778.33,-93.19 777.79,-86.21"/>
</g>
<!-- Node5&#45;&gt;Node6 -->
<g id="edge6" class="edge">
<title>Node5&#45;&gt;Node6</title>
<path fill="none" stroke="midnightblue" d="M582.77,-75.9C532.09,-63.06 469.75,-47.27 425.68,-36.11"/>
<polygon fill="midnightblue" stroke="midnightblue" points="582.19,-79.37 592.74,-78.43 583.91,-72.58 582.19,-79.37"/>
</g>
<!-- Node8&#45;&gt;Node2 -->
<g id="edge12" class="edge">
<title>Node8&#45;&gt;Node2</title>
<path fill="none" stroke="midnightblue" d="M512.75,-472.4C525.29,-470.79 537.92,-469.29 550,-468 838.59,-437.3 1589.44,-479.76 1851,-354 1905.67,-327.71 1946,-316.66 1946,-256 1946,-256 1946,-256 1946,-176 1946,-88.03 1839.8,-50.08 1756.83,-33.87"/>
<polygon fill="midnightblue" stroke="midnightblue" points="512.18,-468.94 502.72,-473.7 513.09,-475.88 512.18,-468.94"/>
</g>
<!-- Node8&#45;&gt;Node5 -->
<g id="edge11" class="edge">
<title>Node8&#45;&gt;Node5</title>
<path fill="none" stroke="midnightblue" d="M398.14,-458.55C382.33,-391.86 355.46,-229.4 446,-156 481.34,-127.35 529.38,-113.1 571.9,-106.1"/>
<polygon fill="midnightblue" stroke="midnightblue" points="394.77,-459.53 400.56,-468.4 401.57,-457.86 394.77,-459.53"/>
</g>
<!-- Node8&#45;&gt;Node9 -->
<g id="edge13" class="edge">
<title>Node8&#45;&gt;Node9</title>
<path fill="none" stroke="midnightblue" d="M359.82,-463.63C340.14,-453.24 317.5,-441.29 298.96,-431.51"/>
<polygon fill="midnightblue" stroke="midnightblue" points="358.44,-466.86 368.92,-468.43 361.71,-460.67 358.44,-466.86"/>
</g>
<!-- Node9&#45;&gt;Node2 -->
<g id="edge15" class="edge">
<title>Node9&#45;&gt;Node2</title>
<path fill="none" stroke="midnightblue" d="M281.17,-381.46C299.38,-351.54 324,-302.49 324,-256 324,-256 324,-256 324,-176 324,-61.19 450.96,-103.06 563,-78 752.01,-35.72 1331.72,-25.28 1563.13,-22.77"/>
<polygon fill="midnightblue" stroke="midnightblue" points="278.1,-379.78 275.76,-390.11 284.03,-383.49 278.1,-379.78"/>
</g>
<!-- Node9&#45;&gt;Node3 -->
<g id="edge16" class="edge">
<title>Node9&#45;&gt;Node3</title>
<path fill="none" stroke="midnightblue" d="M368.72,-406.07C445.24,-400.39 549.63,-386.72 636,-354 685.39,-335.29 735.38,-298.57 763.65,-275.78"/>
<polygon fill="midnightblue" stroke="midnightblue" points="368.31,-402.59 358.58,-406.79 368.81,-409.57 368.31,-402.59"/>
</g>
<!-- Node9&#45;&gt;Node5 -->
<g id="edge14" class="edge">
<title>Node9&#45;&gt;Node5</title>
<path fill="none" stroke="midnightblue" d="M262.76,-380.25C265.85,-326.59 280.52,-213.8 348,-156 381.02,-127.72 489.9,-113.23 571.98,-106.15"/>
<polygon fill="midnightblue" stroke="midnightblue" points="259.26,-380.31 262.27,-390.46 266.25,-380.64 259.26,-380.31"/>
</g>
<!-- Node9&#45;&gt;Node6 -->
<g id="edge21" class="edge">
<title>Node9&#45;&gt;Node6</title>
<path fill="none" stroke="midnightblue" d="M192.9,-386.74C121.54,-358.39 24.8,-305.29 57,-234 107.18,-122.89 249.32,-61.41 323.56,-36.03"/>
<polygon fill="midnightblue" stroke="midnightblue" points="191.76,-390.05 202.34,-390.41 194.29,-383.53 191.76,-390.05"/>
</g>
<!-- Node10 -->
<g id="node10" class="node">
<title>Node10</title>
<g id="a_node10"><a xlink:href="DataValue_8h.html" target="_top" xlink:title=" ">
<polygon fill="none" stroke="black" points="434.5,-312.5 434.5,-353.5 627.5,-353.5 627.5,-312.5 434.5,-312.5"/>
<text text-anchor="start" x="442.5" y="-341.5" font-family="Helvetica,sans-Serif" font-size="10.00">/home/runner/work/open62541pp</text>
<text text-anchor="start" x="442.5" y="-330.5" font-family="Helvetica,sans-Serif" font-size="10.00">/open62541pp/include/open62541pp</text>
<text text-anchor="middle" x="531" y="-319.5" font-family="Helvetica,sans-Serif" font-size="10.00">/types/DataValue.h</text>
</a>
</g>
</g>
<!-- Node9&#45;&gt;Node10 -->
<g id="edge17" class="edge">
<title>Node9&#45;&gt;Node10</title>
<path fill="none" stroke="midnightblue" d="M341.35,-387.58C379.64,-376.76 425.13,-363.91 461.96,-353.51"/>
<polygon fill="midnightblue" stroke="midnightblue" points="339.95,-384.34 331.27,-390.43 341.85,-391.08 339.95,-384.34"/>
</g>
<!-- Node9&#45;&gt;Node12 -->
<g id="edge22" class="edge">
<title>Node9&#45;&gt;Node12</title>
<path fill="none" stroke="midnightblue" d="M243.68,-381.78C222.29,-348.85 187.76,-295.66 171.3,-270.32"/>
<polygon fill="midnightblue" stroke="midnightblue" points="240.95,-384.01 249.33,-390.5 246.82,-380.2 240.95,-384.01"/>
</g>
<!-- Node10&#45;&gt;Node3 -->
<g id="edge19" class="edge">
<title>Node10&#45;&gt;Node3</title>
<path fill="none" stroke="midnightblue" d="M606.52,-309.58C642.95,-298.76 686.25,-285.91 721.3,-275.51"/>
<polygon fill="midnightblue" stroke="midnightblue" points="605.52,-306.23 596.93,-312.43 607.51,-312.94 605.52,-306.23"/>
</g>
<!-- Node10&#45;&gt;Node5 -->
<g id="edge18" class="edge">
<title>Node10&#45;&gt;Node5</title>
<path fill="none" stroke="midnightblue" d="M453.69,-307.63C439.9,-299.74 427.3,-289.43 419,-276 409.19,-260.12 409.4,-250.01 419,-234 455.52,-173.1 530.17,-138.34 588.61,-119.57"/>
<polygon fill="midnightblue" stroke="midnightblue" points="452.41,-310.91 462.89,-312.47 455.67,-304.72 452.41,-310.91"/>
</g>
<!-- Node11 -->
<g id="node11" class="node">
<title>Node11</title>
<g id="a_node11"><a xlink:href="DataValue_8cpp.html" target="_top" xlink:title=" ">
<polygon fill="none" stroke="black" points="428,-240 428,-270 634,-270 634,-240 428,-240"/>
<text text-anchor="start" x="436" y="-258" font-family="Helvetica,sans-Serif" font-size="10.00">/home/runner/work/open62541pp</text>
<text text-anchor="middle" x="531" y="-247" font-family="Helvetica,sans-Serif" font-size="10.00">/open62541pp/src/types/DataValue.cpp</text>
</a>
</g>
</g>
<!-- Node10&#45;&gt;Node11 -->
<g id="edge20" class="edge">
<title>Node10&#45;&gt;Node11</title>
<path fill="none" stroke="midnightblue" d="M531,-302.28C531,-291.25 531,-279.25 531,-270.23"/>
<polygon fill="midnightblue" stroke="midnightblue" points="527.5,-302.43 531,-312.43 534.5,-302.43 527.5,-302.43"/>
</g>
<!-- Node13&#45;&gt;Node2 -->
<g id="edge25" class="edge">
<title>Node13&#45;&gt;Node2</title>
<path fill="none" stroke="midnightblue" d="M897.82,-641.34C1190.56,-632.64 1984,-599 1984,-490 1984,-490 1984,-490 1984,-176 1984,-74.33 1852.24,-39.7 1756.77,-27.96"/>
<polygon fill="midnightblue" stroke="midnightblue" points="897.51,-637.85 887.62,-641.64 897.72,-644.84 897.51,-637.85"/>
</g>
<!-- Node13&#45;&gt;Node8 -->
<g id="edge26" class="edge">
<title>Node13&#45;&gt;Node8</title>
<path fill="none" stroke="midnightblue" d="M684.13,-634.1C633.11,-626.34 572.35,-612.53 522,-588 481.95,-568.49 444.22,-532.03 423.21,-509.5"/>
<polygon fill="midnightblue" stroke="midnightblue" points="683.8,-637.59 694.2,-635.58 684.81,-630.67 683.8,-637.59"/>
</g>
<!-- Node13&#45;&gt;Node9 -->
<g id="edge59" class="edge">
<title>Node13&#45;&gt;Node9</title>
<path fill="none" stroke="midnightblue" d="M684.42,-633.81C618.62,-625.61 533.11,-611.47 460,-588 384.67,-563.82 353.55,-568.23 300,-510 279.5,-487.7 269.6,-453.12 265.18,-431.55"/>
<polygon fill="midnightblue" stroke="midnightblue" points="684.04,-637.29 694.39,-635.03 684.89,-630.34 684.04,-637.29"/>
</g>
<!-- Node13&#45;&gt;Node10 -->
<g id="edge53" class="edge">
<title>Node13&#45;&gt;Node10</title>
<path fill="none" stroke="midnightblue" d="M795.61,-614.13C799.74,-576.72 801.29,-512.18 772,-468 732.58,-408.55 657.41,-372.91 601.45,-353.5"/>
<polygon fill="midnightblue" stroke="midnightblue" points="792.09,-614.01 794.33,-624.37 799.04,-614.88 792.09,-614.01"/>
</g>
<!-- Node14 -->
<g id="node14" class="node">
<title>Node14</title>
<g id="a_node14"><a xlink:href="Builtin_8h.html" target="_top" xlink:title=" ">
<polygon fill="none" stroke="black" points="834.5,-390.5 834.5,-431.5 1027.5,-431.5 1027.5,-390.5 834.5,-390.5"/>
<text text-anchor="start" x="842.5" y="-419.5" font-family="Helvetica,sans-Serif" font-size="10.00">/home/runner/work/open62541pp</text>
<text text-anchor="start" x="842.5" y="-408.5" font-family="Helvetica,sans-Serif" font-size="10.00">/open62541pp/include/open62541pp</text>
<text text-anchor="middle" x="931" y="-397.5" font-family="Helvetica,sans-Serif" font-size="10.00">/types/Builtin.h</text>
</a>
</g>
</g>
<!-- Node13&#45;&gt;Node14 -->
<g id="edge27" class="edge">
<title>Node13&#45;&gt;Node14</title>
<path fill="none" stroke="midnightblue" d="M808.13,-615.61C836.91,-567.91 894.27,-472.86 919.09,-431.73"/>
<polygon fill="midnightblue" stroke="midnightblue" points="805.11,-613.85 802.94,-624.22 811.1,-617.47 805.11,-613.85"/>
</g>
<!-- Node17 -->
<g id="node17" class="node">
<title>Node17</title>
<g id="a_node17"><a xlink:href="NodeId_8h.html" target="_top" xlink:title=" ">
<polygon fill="none" stroke="black" points="978.5,-312.5 978.5,-353.5 1171.5,-353.5 1171.5,-312.5 978.5,-312.5"/>
<text text-anchor="start" x="986.5" y="-341.5" font-family="Helvetica,sans-Serif" font-size="10.00">/home/runner/work/open62541pp</text>
<text text-anchor="start" x="986.5" y="-330.5" font-family="Helvetica,sans-Serif" font-size="10.00">/open62541pp/include/open62541pp</text>
<text text-anchor="middle" x="1075" y="-319.5" font-family="Helvetica,sans-Serif" font-size="10.00">/types/NodeId.h</text>
</a>
</g>
</g>
<!-- Node13&#45;&gt;Node17 -->
<g id="edge58" class="edge">
<title>Node13&#45;&gt;Node17</title>
<path fill="none" stroke="midnightblue" d="M830.84,-618.58C884.14,-582.78 978.57,-512.77 1036,-432 1053.3,-407.67 1064.38,-374.6 1070.15,-353.77"/>
<polygon fill="midnightblue" stroke="midnightblue" points="828.73,-615.79 822.34,-624.24 832.6,-621.62 828.73,-615.79"/>
</g>
<!-- Node23 -->
<g id="node23" class="node">
<title>Node23</title>
<g id="a_node23"><a xlink:href="DateTime_8h.html" target="_top" xlink:title=" ">
<polygon fill="none" stroke="black" points="531.5,-546.5 531.5,-587.5 724.5,-587.5 724.5,-546.5 531.5,-546.5"/>
<text text-anchor="start" x="539.5" y="-575.5" font-family="Helvetica,sans-Serif" font-size="10.00">/home/runner/work/open62541pp</text>
<text text-anchor="start" x="539.5" y="-564.5" font-family="Helvetica,sans-Serif" font-size="10.00">/open62541pp/include/open62541pp</text>
<text text-anchor="middle" x="628" y="-553.5" font-family="Helvetica,sans-Serif" font-size="10.00">/types/DateTime.h</text>
</a>
</g>
</g>
<!-- Node13&#45;&gt;Node23 -->
<g id="edge54" class="edge">
<title>Node13&#45;&gt;Node23</title>
<path fill="none" stroke="midnightblue" d="M739.93,-620.19C717.38,-609.67 691.2,-597.47 669.83,-587.51"/>
<polygon fill="midnightblue" stroke="midnightblue" points="738.48,-623.37 749.02,-624.43 741.44,-617.03 738.48,-623.37"/>
</g>
<!-- Node14&#45;&gt;Node2 -->
<g id="edge29" class="edge">
<title>Node14&#45;&gt;Node2</title>
<path fill="none" stroke="midnightblue" d="M1037.94,-395.34C1278.99,-362.18 1844.36,-283.68 1851,-276 1922.91,-192.85 1767.18,-85.27 1694.6,-41.65"/>
<polygon fill="midnightblue" stroke="midnightblue" points="1037.19,-391.91 1027.76,-396.74 1038.14,-398.85 1037.19,-391.91"/>
</g>
<!-- Node14&#45;&gt;Node3 -->
<g id="edge30" class="edge">
<title>Node14&#45;&gt;Node3</title>
<path fill="none" stroke="midnightblue" d="M906.82,-382.81C889.08,-362.99 864.29,-335.6 842,-312 830.4,-299.72 817.13,-286.19 806.53,-275.51"/>
<polygon fill="midnightblue" stroke="midnightblue" points="904.22,-385.15 913.49,-390.27 909.44,-380.48 904.22,-385.15"/>
</g>
<!-- Node14&#45;&gt;Node5 -->
<g id="edge28" class="edge">
<title>Node14&#45;&gt;Node5</title>
<path fill="none" stroke="midnightblue" d="M933.61,-380.26C935.28,-340.91 931.74,-272.08 892,-234 825.84,-170.6 754.31,-262.27 689,-198 668.25,-177.58 666.55,-141.75 667.84,-119.54"/>
<polygon fill="midnightblue" stroke="midnightblue" points="930.11,-380.11 933.04,-390.3 937.1,-380.51 930.11,-380.11"/>
</g>
<!-- Node14&#45;&gt;Node6 -->
<g id="edge51" class="edge">
<title>Node14&#45;&gt;Node6</title>
<path fill="none" stroke="midnightblue" d="M874.19,-386.35C821.24,-362.79 741.56,-323.36 681,-276 661.17,-260.49 662.72,-249.64 643,-234 617.13,-213.48 606.52,-214.65 578,-198 520.79,-164.61 501,-163.45 451,-120 421.18,-94.08 393.46,-56.5 379.48,-36.23"/>
<polygon fill="midnightblue" stroke="midnightblue" points="872.87,-389.6 883.43,-390.42 875.69,-383.19 872.87,-389.6"/>
</g>
<!-- Node15 -->
<g id="node15" class="node">
<title>Node15</title>
<g id="a_node15"><a xlink:href="Browse_8h.html" target="_top" xlink:title=" ">
<polygon fill="none" stroke="black" points="978.5,-234.5 978.5,-275.5 1171.5,-275.5 1171.5,-234.5 978.5,-234.5"/>
<text text-anchor="start" x="986.5" y="-263.5" font-family="Helvetica,sans-Serif" font-size="10.00">/home/runner/work/open62541pp</text>
<text text-anchor="start" x="986.5" y="-252.5" font-family="Helvetica,sans-Serif" font-size="10.00">/open62541pp/include/open62541pp</text>
<text text-anchor="middle" x="1075" y="-241.5" font-family="Helvetica,sans-Serif" font-size="10.00">/services/Browse.h</text>
</a>
</g>
</g>
<!-- Node14&#45;&gt;Node15 -->
<g id="edge31" class="edge">
<title>Node14&#45;&gt;Node15</title>
<path fill="none" stroke="midnightblue" d="M936.67,-380.43C941.99,-359.31 951.8,-331.33 969,-312 982.91,-296.38 1002.23,-284.39 1020.58,-275.59"/>
<polygon fill="midnightblue" stroke="midnightblue" points="933.26,-379.65 934.4,-390.18 940.08,-381.23 933.26,-379.65"/>
</g>
<!-- Node14&#45;&gt;Node17 -->
<g id="edge34" class="edge">
<title>Node14&#45;&gt;Node17</title>
<path fill="none" stroke="midnightblue" d="M977.18,-385.63C996.86,-375.24 1019.5,-363.29 1038.04,-353.51"/>
<polygon fill="midnightblue" stroke="midnightblue" points="975.29,-382.67 968.08,-390.43 978.56,-388.86 975.29,-382.67"/>
</g>
<!-- Node14&#45;&gt;Node22 -->
<g id="edge52" class="edge">
<title>Node14&#45;&gt;Node22</title>
<path fill="none" stroke="midnightblue" d="M1037.9,-405.04C1177,-397.78 1427.42,-382 1640,-354 1652.38,-352.37 1665.5,-350.26 1678.16,-348.03"/>
<polygon fill="midnightblue" stroke="midnightblue" points="1037.47,-401.55 1027.66,-405.57 1037.83,-408.54 1037.47,-401.55"/>
</g>
<!-- Node15&#45;&gt;Node4 -->
<g id="edge32" class="edge">
<title>Node15&#45;&gt;Node4</title>
<path fill="none" stroke="midnightblue" d="M1057.91,-225.76C1052.21,-216.35 1046.01,-206.1 1040.81,-197.51"/>
<polygon fill="midnightblue" stroke="midnightblue" points="1054.98,-227.69 1063.15,-234.43 1060.97,-224.06 1054.98,-227.69"/>
</g>
<!-- Node16 -->
<g id="node16" class="node">
<title>Node16</title>
<g id="a_node16"><a xlink:href="Browse_8cpp.html" target="_top" xlink:title=" ">
<polygon fill="none" stroke="black" points="1144,-156.5 1144,-197.5 1322,-197.5 1322,-156.5 1144,-156.5"/>
<text text-anchor="start" x="1152" y="-185.5" font-family="Helvetica,sans-Serif" font-size="10.00">/home/runner/work/open62541pp</text>
<text text-anchor="start" x="1152" y="-174.5" font-family="Helvetica,sans-Serif" font-size="10.00">/open62541pp/src/services</text>
<text text-anchor="middle" x="1233" y="-163.5" font-family="Helvetica,sans-Serif" font-size="10.00">/Browse.cpp</text>
</a>
</g>
</g>
<!-- Node15&#45;&gt;Node16 -->
<g id="edge33" class="edge">
<title>Node15&#45;&gt;Node16</title>
<path fill="none" stroke="midnightblue" d="M1124.79,-230.05C1146.59,-219.57 1171.83,-207.42 1192.45,-197.51"/>
<polygon fill="midnightblue" stroke="midnightblue" points="1123.18,-226.94 1115.69,-234.43 1126.22,-233.25 1123.18,-226.94"/>
</g>
<!-- Node17&#45;&gt;Node2 -->
<g id="edge36" class="edge">
<title>Node17&#45;&gt;Node2</title>
<path fill="none" stroke="midnightblue" d="M1181.83,-332.62C1316.17,-331.4 1537.21,-322.13 1603,-276 1679.04,-222.68 1669.73,-91.29 1663.1,-41.53"/>
<polygon fill="midnightblue" stroke="midnightblue" points="1181.49,-329.13 1171.51,-332.7 1181.54,-336.13 1181.49,-329.13"/>
</g>
<!-- Node17&#45;&gt;Node3 -->
<g id="edge44" class="edge">
<title>Node17&#45;&gt;Node3</title>
<path fill="none" stroke="midnightblue" d="M991.09,-309.86C949.88,-298.98 900.68,-286 860.92,-275.51"/>
<polygon fill="midnightblue" stroke="midnightblue" points="990.27,-313.26 1000.83,-312.43 992.06,-306.49 990.27,-313.26"/>
</g>
<!-- Node17&#45;&gt;Node5 -->
<g id="edge35" class="edge">
<title>Node17&#45;&gt;Node5</title>
<path fill="none" stroke="midnightblue" d="M1017.43,-307.85C1000.75,-299.26 983.22,-288.55 969,-276 920.19,-232.92 938.46,-193.16 885,-156 850.79,-132.22 807.18,-118.54 768.19,-110.67"/>
<polygon fill="midnightblue" stroke="midnightblue" points="1016.07,-311.08 1026.58,-312.4 1019.18,-304.82 1016.07,-311.08"/>
</g>
<!-- Node17&#45;&gt;Node12 -->
<g id="edge50" class="edge">
<title>Node17&#45;&gt;Node12</title>
<path fill="none" stroke="midnightblue" d="M968.17,-323.11C788.61,-308.16 429.16,-278.24 257.51,-263.95"/>
<polygon fill="midnightblue" stroke="midnightblue" points="967.9,-326.6 978.16,-323.94 968.48,-319.62 967.9,-326.6"/>
</g>
<!-- Node17&#45;&gt;Node15 -->
<g id="edge45" class="edge">
<title>Node17&#45;&gt;Node15</title>
<path fill="none" stroke="midnightblue" d="M1075,-302.3C1075,-293.3 1075,-283.65 1075,-275.51"/>
<polygon fill="midnightblue" stroke="midnightblue" points="1071.5,-302.43 1075,-312.43 1078.5,-302.43 1071.5,-302.43"/>
</g>
<!-- Node18 -->
<g id="node18" class="node">
<title>Node18</title>
<g id="a_node18"><a xlink:href="Server_8h.html" target="_top" xlink:title=" ">
<polygon fill="none" stroke="black" points="1189.5,-234.5 1189.5,-275.5 1382.5,-275.5 1382.5,-234.5 1189.5,-234.5"/>
<text text-anchor="start" x="1197.5" y="-263.5" font-family="Helvetica,sans-Serif" font-size="10.00">/home/runner/work/open62541pp</text>
<text text-anchor="start" x="1197.5" y="-252.5" font-family="Helvetica,sans-Serif" font-size="10.00">/open62541pp/include/open62541pp</text>
<text text-anchor="middle" x="1286" y="-241.5" font-family="Helvetica,sans-Serif" font-size="10.00">/Server.h</text>
</a>
</g>
</g>
<!-- Node17&#45;&gt;Node18 -->
<g id="edge37" class="edge">
<title>Node17&#45;&gt;Node18</title>
<path fill="none" stroke="midnightblue" d="M1138.78,-309.03C1168.49,-298.33 1203.45,-285.73 1231.85,-275.51"/>
<polygon fill="midnightblue" stroke="midnightblue" points="1137.56,-305.75 1129.34,-312.43 1139.93,-312.33 1137.56,-305.75"/>
</g>
<!-- Node20 -->
<g id="node20" class="node">
<title>Node20</title>
<g id="a_node20"><a xlink:href="NodeManagement_8h.html" target="_top" xlink:title=" ">
<polygon fill="none" stroke="black" points="1400.5,-234.5 1400.5,-275.5 1593.5,-275.5 1593.5,-234.5 1400.5,-234.5"/>
<text text-anchor="start" x="1408.5" y="-263.5" font-family="Helvetica,sans-Serif" font-size="10.00">/home/runner/work/open62541pp</text>
<text text-anchor="start" x="1408.5" y="-252.5" font-family="Helvetica,sans-Serif" font-size="10.00">/open62541pp/include/open62541pp</text>
<text text-anchor="middle" x="1497" y="-241.5" font-family="Helvetica,sans-Serif" font-size="10.00">/services/NodeManagement.h</text>
</a>
</g>
</g>
<!-- Node17&#45;&gt;Node20 -->
<g id="edge46" class="edge">
<title>Node17&#45;&gt;Node20</title>
<path fill="none" stroke="midnightblue" d="M1181.93,-313.48C1243.42,-302.73 1322.1,-288.83 1392,-276 1394.74,-275.5 1397.52,-274.99 1400.32,-274.47"/>
<polygon fill="midnightblue" stroke="midnightblue" points="1181.08,-310.07 1171.83,-315.24 1182.28,-316.97 1181.08,-310.07"/>
</g>
<!-- Node17&#45;&gt;Node21 -->
<g id="edge49" class="edge">
<title>Node17&#45;&gt;Node21</title>
<path fill="none" stroke="midnightblue" d="M1181.62,-323.92C1294.69,-314.76 1478.4,-298.16 1636,-276 1648.21,-274.28 1661.12,-272.19 1673.65,-270.01"/>
<polygon fill="midnightblue" stroke="midnightblue" points="1181.26,-320.44 1171.57,-324.73 1181.82,-327.42 1181.26,-320.44"/>
</g>
<!-- Node18&#45;&gt;Node2 -->
<g id="edge39" class="edge">
<title>Node18&#45;&gt;Node2</title>
<path fill="none" stroke="midnightblue" d="M1344.55,-230.24C1363.61,-221.34 1384.38,-210.36 1402,-198 1423.87,-182.66 1423.99,-172.49 1445,-156 1503.82,-109.83 1579.33,-65.89 1623.42,-41.58"/>
<polygon fill="midnightblue" stroke="midnightblue" points="1343,-227.1 1335.35,-234.43 1345.91,-233.46 1343,-227.1"/>
</g>
<!-- Node18&#45;&gt;Node5 -->
<g id="edge38" class="edge">
<title>Node18&#45;&gt;Node5</title>
<path fill="none" stroke="midnightblue" d="M1313.67,-226.83C1332.03,-205.55 1349.61,-176.26 1331,-156 1293.74,-115.45 943.24,-104.23 768.32,-101.15"/>
<polygon fill="midnightblue" stroke="midnightblue" points="1311.05,-224.51 1306.94,-234.28 1316.24,-229.21 1311.05,-224.51"/>
</g>
<!-- Node18&#45;&gt;Node6 -->
<g id="edge40" class="edge">
<title>Node18&#45;&gt;Node6</title>
<path fill="none" stroke="midnightblue" d="M1325.03,-227.78C1334.29,-219.45 1342.94,-209.39 1348,-198 1355.58,-180.94 1360.27,-170.07 1348,-156 1289.84,-89.33 689.15,-43.03 459.03,-27.61"/>
<polygon fill="midnightblue" stroke="midnightblue" points="1322.59,-225.25 1317.17,-234.36 1327.09,-230.62 1322.59,-225.25"/>
</g>
<!-- Node18&#45;&gt;Node7 -->
<g id="edge41" class="edge">
<title>Node18&#45;&gt;Node7</title>
<path fill="none" stroke="midnightblue" d="M1179.15,-233.73C1065.05,-215.11 1034.36,-213.96 923,-198 907.88,-195.83 891.82,-193.5 876.24,-191.22"/>
<polygon fill="midnightblue" stroke="midnightblue" points="1178.91,-237.24 1189.34,-235.4 1180.04,-230.33 1178.91,-237.24"/>
</g>
<!-- Node18&#45;&gt;Node16 -->
<g id="edge42" class="edge">
<title>Node18&#45;&gt;Node16</title>
<path fill="none" stroke="midnightblue" d="M1266.51,-226.05C1259.89,-216.57 1252.66,-206.18 1246.6,-197.51"/>
<polygon fill="midnightblue" stroke="midnightblue" points="1263.76,-228.23 1272.35,-234.43 1269.5,-224.22 1263.76,-228.23"/>
</g>
<!-- Node18&#45;&gt;Node19 -->
<g id="edge43" class="edge">
<title>Node18&#45;&gt;Node19</title>
<path fill="none" stroke="midnightblue" d="M1361.81,-231.58C1398.39,-220.76 1441.85,-207.91 1477.04,-197.51"/>
<polygon fill="midnightblue" stroke="midnightblue" points="1360.78,-228.24 1352.18,-234.43 1362.77,-234.95 1360.78,-228.24"/>
</g>
<!-- Node20&#45;&gt;Node4 -->
<g id="edge47" class="edge">
<title>Node20&#45;&gt;Node4</title>
<path fill="none" stroke="midnightblue" d="M1390.18,-233.74C1276.47,-215.27 1245.59,-216.17 1135,-198 1131.95,-197.5 1128.85,-196.98 1125.73,-196.45"/>
<polygon fill="midnightblue" stroke="midnightblue" points="1389.91,-237.24 1400.34,-235.4 1391.04,-230.33 1389.91,-237.24"/>
</g>
<!-- Node20&#45;&gt;Node19 -->
<g id="edge48" class="edge">
<title>Node20&#45;&gt;Node19</title>
<path fill="none" stroke="midnightblue" d="M1514.09,-225.76C1519.79,-216.35 1525.99,-206.1 1531.19,-197.51"/>
<polygon fill="midnightblue" stroke="midnightblue" points="1511.03,-224.06 1508.85,-234.43 1517.02,-227.69 1511.03,-224.06"/>
</g>
<!-- Node23&#45;&gt;Node8 -->
<g id="edge55" class="edge">
<title>Node23&#45;&gt;Node8</title>
<path fill="none" stroke="midnightblue" d="M561.3,-543.17C529.96,-532.44 492.98,-519.78 462.98,-509.51"/>
<polygon fill="midnightblue" stroke="midnightblue" points="560.23,-546.5 570.83,-546.43 562.5,-539.88 560.23,-546.5"/>
</g>
<!-- Node23&#45;&gt;Node10 -->
<g id="edge56" class="edge">
<title>Node23&#45;&gt;Node10</title>
<path fill="none" stroke="midnightblue" d="M579.43,-540.66C568,-532.4 557.09,-522.17 550,-510 520.74,-459.82 524.33,-387.8 528.21,-353.54"/>
<polygon fill="midnightblue" stroke="midnightblue" points="577.56,-543.62 587.8,-546.32 581.48,-537.82 577.56,-543.62"/>
</g>
<!-- Node24 -->
<g id="node24" class="node">
<title>Node24</title>
<g id="a_node24"><a xlink:href="DateTime_8cpp.html" target="_top" xlink:title=" ">
<polygon fill="none" stroke="black" points="559,-474 559,-504 763,-504 763,-474 559,-474"/>
<text text-anchor="start" x="567" y="-492" font-family="Helvetica,sans-Serif" font-size="10.00">/home/runner/work/open62541pp</text>
<text text-anchor="middle" x="661" y="-481" font-family="Helvetica,sans-Serif" font-size="10.00">/open62541pp/src/types/DateTime.cpp</text>
</a>
</g>
</g>
<!-- Node23&#45;&gt;Node24 -->
<g id="edge57" class="edge">
<title>Node23&#45;&gt;Node24</title>
<path fill="none" stroke="midnightblue" d="M640.61,-536.96C645.48,-525.75 650.83,-513.43 654.82,-504.23"/>
<polygon fill="midnightblue" stroke="midnightblue" points="637.27,-535.86 636.5,-546.43 643.69,-538.65 637.27,-535.86"/>
</g>
</g>
</svg>
