<?xml version="1.0" encoding="UTF-8" standalone="no"?>
<!DOCTYPE svg PUBLIC "-//W3C//DTD SVG 1.1//EN"
 "http://www.w3.org/Graphics/SVG/1.1/DTD/svg11.dtd">
<!-- Generated by graphviz version 2.43.0 (0)
 -->
<!-- Title: /home/runner/work/open62541pp/open62541pp/src/detail/helper.cpp Pages: 1 -->
<svg width="1894pt" height="296pt"
 viewBox="0.00 0.00 1894.00 296.00" xmlns="http://www.w3.org/2000/svg" xmlns:xlink="http://www.w3.org/1999/xlink">
<g id="graph0" class="graph" transform="scale(1 1) rotate(0) translate(4 292)">
<title>/home/runner/work/open62541pp/open62541pp/src/detail/helper.cpp</title>
<!-- Node1 -->
<g id="node1" class="node">
<title>Node1</title>
<g id="a_node1"><a xlink:title=" ">
<polygon fill="#bfbfbf" stroke="black" points="1031.5,-257.5 1031.5,-287.5 1218.5,-287.5 1218.5,-257.5 1031.5,-257.5"/>
<text text-anchor="start" x="1039.5" y="-275.5" font-family="Helvetica,sans-Serif" font-size="10.00">/home/runner/work/open62541pp</text>
<text text-anchor="middle" x="1125" y="-264.5" font-family="Helvetica,sans-Serif" font-size="10.00">/open62541pp/src/detail/helper.cpp</text>
</a>
</g>
</g>
<!-- Node2 -->
<g id="node2" class="node">
<title>Node2</title>
<g id="a_node2"><a xlink:href="helper_8h.html" target="_top" xlink:title=" ">
<polygon fill="none" stroke="black" points="268.5,-190.5 268.5,-220.5 381.5,-220.5 381.5,-190.5 268.5,-190.5"/>
<text text-anchor="start" x="276.5" y="-208.5" font-family="Helvetica,sans-Serif" font-size="10.00">open62541pp/detail</text>
<text text-anchor="middle" x="325" y="-197.5" font-family="Helvetica,sans-Serif" font-size="10.00">/helper.h</text>
</a>
</g>
</g>
<!-- Node1&#45;&gt;Node2 -->
<g id="edge1" class="edge">
<title>Node1&#45;&gt;Node2</title>
<path fill="none" stroke="midnightblue" d="M1031.27,-263.88C867.84,-250.61 534.59,-223.53 392.08,-211.95"/>
<polygon fill="midnightblue" stroke="midnightblue" points="391.99,-208.43 381.74,-211.11 391.43,-215.41 391.99,-208.43"/>
</g>
<!-- Node15 -->
<g id="node15" class="node">
<title>Node15</title>
<g id="a_node15"><a xlink:title=" ">
<polygon fill="none" stroke="#bfbfbf" points="1201,-196 1201,-215 1251,-215 1251,-196 1201,-196"/>
<text text-anchor="middle" x="1226" y="-203" font-family="Helvetica,sans-Serif" font-size="10.00">cstring</text>
</a>
</g>
</g>
<!-- Node1&#45;&gt;Node15 -->
<g id="edge18" class="edge">
<title>Node1&#45;&gt;Node15</title>
<path fill="none" stroke="midnightblue" d="M1146.92,-257.4C1163.85,-246.5 1187.19,-231.48 1204.12,-220.58"/>
<polygon fill="midnightblue" stroke="midnightblue" points="1206.27,-223.36 1212.78,-215.01 1202.48,-217.48 1206.27,-223.36"/>
</g>
<!-- Node16 -->
<g id="node16" class="node">
<title>Node16</title>
<g id="a_node16"><a xlink:href="open62541__impl_8h.html" target="_top" xlink:title=" ">
<polygon fill="none" stroke="black" points="1067,-196 1067,-215 1183,-215 1183,-196 1067,-196"/>
<text text-anchor="middle" x="1125" y="-203" font-family="Helvetica,sans-Serif" font-size="10.00">../open62541_impl.h</text>
</a>
</g>
</g>
<!-- Node1&#45;&gt;Node16 -->
<g id="edge19" class="edge">
<title>Node1&#45;&gt;Node16</title>
<path fill="none" stroke="midnightblue" d="M1125,-257.4C1125,-248.06 1125,-235.71 1125,-225.52"/>
<polygon fill="midnightblue" stroke="midnightblue" points="1128.5,-225.19 1125,-215.19 1121.5,-225.19 1128.5,-225.19"/>
</g>
<!-- Node3 -->
<g id="node3" class="node">
<title>Node3</title>
<g id="a_node3"><a xlink:title=" ">
<polygon fill="none" stroke="#bfbfbf" points="365,-129 365,-148 417,-148 417,-129 365,-129"/>
<text text-anchor="middle" x="391" y="-136" font-family="Helvetica,sans-Serif" font-size="10.00">cassert</text>
</a>
</g>
</g>
<!-- Node2&#45;&gt;Node3 -->
<g id="edge2" class="edge">
<title>Node2&#45;&gt;Node3</title>
<path fill="none" stroke="midnightblue" d="M339.32,-190.4C349.82,-180.06 364.07,-166.02 374.95,-155.31"/>
<polygon fill="midnightblue" stroke="midnightblue" points="377.5,-157.71 382.17,-148.19 372.59,-152.72 377.5,-157.71"/>
</g>
<!-- Node4 -->
<g id="node4" class="node">
<title>Node4</title>
<g id="a_node4"><a xlink:title=" ">
<polygon fill="none" stroke="#bfbfbf" points="0,-62 0,-81 50,-81 50,-62 0,-62"/>
<text text-anchor="middle" x="25" y="-69" font-family="Helvetica,sans-Serif" font-size="10.00">cstdint</text>
</a>
</g>
</g>
<!-- Node2&#45;&gt;Node4 -->
<g id="edge3" class="edge">
<title>Node2&#45;&gt;Node4</title>
<path fill="none" stroke="midnightblue" d="M268.31,-201.53C220.13,-196.84 150.61,-184.8 98,-154 70.79,-138.07 48.18,-108.54 35.64,-89.74"/>
<polygon fill="midnightblue" stroke="midnightblue" points="38.53,-87.76 30.18,-81.25 32.64,-91.55 38.53,-87.76"/>
</g>
<!-- Node5 -->
<g id="node5" class="node">
<title>Node5</title>
<g id="a_node5"><a xlink:title=" ">
<polygon fill="none" stroke="#bfbfbf" points="303,-129 303,-148 347,-148 347,-129 303,-129"/>
<text text-anchor="middle" x="325" y="-136" font-family="Helvetica,sans-Serif" font-size="10.00">string</text>
</a>
</g>
</g>
<!-- Node2&#45;&gt;Node5 -->
<g id="edge4" class="edge">
<title>Node2&#45;&gt;Node5</title>
<path fill="none" stroke="midnightblue" d="M325,-190.4C325,-181.06 325,-168.71 325,-158.52"/>
<polygon fill="midnightblue" stroke="midnightblue" points="328.5,-158.19 325,-148.19 321.5,-158.19 328.5,-158.19"/>
</g>
<!-- Node6 -->
<g id="node6" class="node">
<title>Node6</title>
<g id="a_node6"><a xlink:title=" ">
<polygon fill="none" stroke="#bfbfbf" points="238.5,-62 238.5,-81 311.5,-81 311.5,-62 238.5,-62"/>
<text text-anchor="middle" x="275" y="-69" font-family="Helvetica,sans-Serif" font-size="10.00">string_view</text>
</a>
</g>
</g>
<!-- Node2&#45;&gt;Node6 -->
<g id="edge5" class="edge">
<title>Node2&#45;&gt;Node6</title>
<path fill="none" stroke="midnightblue" d="M314.46,-190.14C307.73,-180.39 299.32,-166.94 294,-154 285.57,-133.47 280.43,-108.43 277.66,-91.56"/>
<polygon fill="midnightblue" stroke="midnightblue" points="281.07,-90.71 276.11,-81.35 274.15,-91.76 281.07,-90.71"/>
</g>
<!-- Node7 -->
<g id="node7" class="node">
<title>Node7</title>
<g id="a_node7"><a xlink:href="Common_8h.html" target="_top" xlink:title=" ">
<polygon fill="none" stroke="black" points="107.5,-129 107.5,-148 246.5,-148 246.5,-129 107.5,-129"/>
<text text-anchor="middle" x="177" y="-136" font-family="Helvetica,sans-Serif" font-size="10.00">open62541pp/Common.h</text>
</a>
</g>
</g>
<!-- Node2&#45;&gt;Node7 -->
<g id="edge6" class="edge">
<title>Node2&#45;&gt;Node7</title>
<path fill="none" stroke="midnightblue" d="M292.89,-190.4C266.92,-178.99 230.69,-163.08 205.68,-152.1"/>
<polygon fill="midnightblue" stroke="midnightblue" points="206.93,-148.82 196.37,-148.01 204.12,-155.23 206.93,-148.82"/>
</g>
<!-- Node11 -->
<g id="node11" class="node">
<title>Node11</title>
<g id="a_node11"><a xlink:href="open62541_8h.html" target="_top" xlink:title=" ">
<polygon fill="none" stroke="black" points="387.5,-62 387.5,-81 536.5,-81 536.5,-62 387.5,-62"/>
<text text-anchor="middle" x="462" y="-69" font-family="Helvetica,sans-Serif" font-size="10.00">open62541pp/open62541.h</text>
</a>
</g>
</g>
<!-- Node2&#45;&gt;Node11 -->
<g id="edge17" class="edge">
<title>Node2&#45;&gt;Node11</title>
<path fill="none" stroke="midnightblue" d="M368.5,-190.48C388.1,-182.37 410.31,-170.46 426,-154 442.97,-136.2 452.75,-109.07 457.72,-91.07"/>
<polygon fill="midnightblue" stroke="midnightblue" points="461.16,-91.76 460.22,-81.2 454.37,-90.04 461.16,-91.76"/>
</g>
<!-- Node7&#45;&gt;Node4 -->
<g id="edge7" class="edge">
<title>Node7&#45;&gt;Node4</title>
<path fill="none" stroke="midnightblue" d="M156.82,-128.87C130.7,-117.7 84.97,-98.15 54.84,-85.26"/>
<polygon fill="midnightblue" stroke="midnightblue" points="55.84,-81.88 45.27,-81.17 53.09,-88.32 55.84,-81.88"/>
</g>
<!-- Node7&#45;&gt;Node6 -->
<g id="edge8" class="edge">
<title>Node7&#45;&gt;Node6</title>
<path fill="none" stroke="midnightblue" d="M190.22,-128.73C206.45,-117.96 234.22,-99.55 253.53,-86.74"/>
<polygon fill="midnightblue" stroke="midnightblue" points="255.59,-89.57 261.99,-81.13 251.72,-83.74 255.59,-89.57"/>
</g>
<!-- Node8 -->
<g id="node8" class="node">
<title>Node8</title>
<g id="a_node8"><a xlink:title=" ">
<polygon fill="none" stroke="#bfbfbf" points="168.5,-0.5 168.5,-19.5 209.5,-19.5 209.5,-0.5 168.5,-0.5"/>
<text text-anchor="middle" x="189" y="-7.5" font-family="Helvetica,sans-Serif" font-size="10.00">tuple</text>
</a>
</g>
</g>
<!-- Node7&#45;&gt;Node8 -->
<g id="edge9" class="edge">
<title>Node7&#45;&gt;Node8</title>
<path fill="none" stroke="midnightblue" d="M179.99,-128.69C183.21,-118.72 188.11,-101.91 190,-87 191.73,-73.33 190.15,-69.78 190,-56 189.9,-47.4 189.71,-37.87 189.51,-29.8"/>
<polygon fill="midnightblue" stroke="midnightblue" points="193.01,-29.53 189.25,-19.63 186.01,-29.71 193.01,-29.53"/>
</g>
<!-- Node9 -->
<g id="node9" class="node">
<title>Node9</title>
<g id="a_node9"><a xlink:href="traits_8h.html" target="_top" xlink:title=" ">
<polygon fill="none" stroke="black" points="68.5,-56.5 68.5,-86.5 181.5,-86.5 181.5,-56.5 68.5,-56.5"/>
<text text-anchor="start" x="76.5" y="-74.5" font-family="Helvetica,sans-Serif" font-size="10.00">open62541pp/detail</text>
<text text-anchor="middle" x="125" y="-63.5" font-family="Helvetica,sans-Serif" font-size="10.00">/traits.h</text>
</a>
</g>
</g>
<!-- Node7&#45;&gt;Node9 -->
<g id="edge10" class="edge">
<title>Node7&#45;&gt;Node9</title>
<path fill="none" stroke="midnightblue" d="M169.99,-128.73C163.03,-120.03 152.08,-106.34 142.72,-94.65"/>
<polygon fill="midnightblue" stroke="midnightblue" points="145.25,-92.21 136.27,-86.59 139.79,-96.58 145.25,-92.21"/>
</g>
<!-- Node7&#45;&gt;Node11 -->
<g id="edge13" class="edge">
<title>Node7&#45;&gt;Node11</title>
<path fill="none" stroke="midnightblue" d="M214.55,-128.94C265.92,-117.22 358.12,-96.19 414.31,-83.38"/>
<polygon fill="midnightblue" stroke="midnightblue" points="415.39,-86.72 424.36,-81.08 413.84,-79.89 415.39,-86.72"/>
</g>
<!-- Node9&#45;&gt;Node8 -->
<g id="edge11" class="edge">
<title>Node9&#45;&gt;Node8</title>
<path fill="none" stroke="midnightblue" d="M140.17,-56.4C149.75,-47.49 162.16,-35.95 172.07,-26.74"/>
<polygon fill="midnightblue" stroke="midnightblue" points="174.75,-29.03 179.69,-19.66 169.98,-23.9 174.75,-29.03"/>
</g>
<!-- Node10 -->
<g id="node10" class="node">
<title>Node10</title>
<g id="a_node10"><a xlink:title=" ">
<polygon fill="none" stroke="#bfbfbf" points="81.5,-0.5 81.5,-19.5 150.5,-19.5 150.5,-0.5 81.5,-0.5"/>
<text text-anchor="middle" x="116" y="-7.5" font-family="Helvetica,sans-Serif" font-size="10.00">type_traits</text>
</a>
</g>
</g>
<!-- Node9&#45;&gt;Node10 -->
<g id="edge12" class="edge">
<title>Node9&#45;&gt;Node10</title>
<path fill="none" stroke="midnightblue" d="M122.87,-56.4C121.65,-48.38 120.12,-38.23 118.81,-29.57"/>
<polygon fill="midnightblue" stroke="midnightblue" points="122.27,-29.02 117.31,-19.66 115.34,-30.07 122.27,-29.02"/>
</g>
<!-- Node12 -->
<g id="node12" class="node">
<title>Node12</title>
<g id="a_node12"><a target="_blank" xlink:href="open62541/nodeids_8h.html.html" xlink:title=" ">
<polygon fill="none" stroke="black" points="410.5,-0.5 410.5,-19.5 531.5,-19.5 531.5,-0.5 410.5,-0.5"/>
<text text-anchor="middle" x="471" y="-7.5" font-family="Helvetica,sans-Serif" font-size="10.00">open62541/nodeids.h</text>
</a>
</g>
</g>
<!-- Node11&#45;&gt;Node12 -->
<g id="edge14" class="edge">
<title>Node11&#45;&gt;Node12</title>
<path fill="none" stroke="midnightblue" d="M463.29,-61.98C464.56,-53.58 466.54,-40.48 468.18,-29.66"/>
<polygon fill="midnightblue" stroke="midnightblue" points="471.68,-29.92 469.71,-19.51 464.76,-28.87 471.68,-29.92"/>
</g>
<!-- Node13 -->
<g id="node13" class="node">
<title>Node13</title>
<g id="a_node13"><a target="_blank" xlink:href="open62541/types_8h.html.html" xlink:title=" ">
<polygon fill="none" stroke="black" points="550,-0.5 550,-19.5 660,-19.5 660,-0.5 550,-0.5"/>
<text text-anchor="middle" x="605" y="-7.5" font-family="Helvetica,sans-Serif" font-size="10.00">open62541/types.h</text>
</a>
</g>
</g>
<!-- Node11&#45;&gt;Node13 -->
<g id="edge15" class="edge">
<title>Node11&#45;&gt;Node13</title>
<path fill="none" stroke="midnightblue" d="M482.49,-61.98C506.81,-51.86 547.55,-34.9 575.32,-23.35"/>
<polygon fill="midnightblue" stroke="midnightblue" points="576.66,-26.58 584.55,-19.51 573.97,-20.12 576.66,-26.58"/>
</g>
<!-- Node14 -->
<g id="node14" class="node">
<title>Node14</title>
<g id="a_node14"><a target="_blank" xlink:href="open62541/types__generated_8h.html.html" xlink:title=" ">
<polygon fill="none" stroke="black" points="228,-0.5 228,-19.5 392,-19.5 392,-0.5 228,-0.5"/>
<text text-anchor="middle" x="310" y="-7.5" font-family="Helvetica,sans-Serif" font-size="10.00">open62541/types_generated.h</text>
</a>
</g>
</g>
<!-- Node11&#45;&gt;Node14 -->
<g id="edge16" class="edge">
<title>Node11&#45;&gt;Node14</title>
<path fill="none" stroke="midnightblue" d="M440.22,-61.98C414.26,-51.81 370.69,-34.76 341.17,-23.2"/>
<polygon fill="midnightblue" stroke="midnightblue" points="342.33,-19.9 331.74,-19.51 339.77,-26.41 342.33,-19.9"/>
</g>
<!-- Node16&#45;&gt;Node11 -->
<g id="edge20" class="edge">
<title>Node16&#45;&gt;Node11</title>
<path fill="none" stroke="midnightblue" d="M1125.94,-195.97C1127.26,-179.09 1127.49,-141.47 1106,-123 1064.5,-87.33 711.99,-76.7 546.79,-73.66"/>
<polygon fill="midnightblue" stroke="midnightblue" points="546.73,-70.16 536.67,-73.48 546.6,-77.15 546.73,-70.16"/>
</g>
<!-- Node17 -->
<g id="node17" class="node">
<title>Node17</title>
<g id="a_node17"><a target="_blank" xlink:href="open62541/config_8h.html.html" xlink:title=" ">
<polygon fill="none" stroke="black" points="1774,-129 1774,-148 1886,-148 1886,-129 1774,-129"/>
<text text-anchor="middle" x="1830" y="-136" font-family="Helvetica,sans-Serif" font-size="10.00">open62541/config.h</text>
</a>
</g>
</g>
<!-- Node16&#45;&gt;Node17 -->
<g id="edge21" class="edge">
<title>Node16&#45;&gt;Node17</title>
<path fill="none" stroke="midnightblue" d="M1159.6,-195.97C1169.96,-193.7 1181.39,-191.47 1192,-190 1444.75,-154.91 1512.37,-189.89 1765,-154 1771.92,-153.02 1779.2,-151.69 1786.28,-150.23"/>
<polygon fill="midnightblue" stroke="midnightblue" points="1787.41,-153.57 1796.45,-148.04 1785.93,-146.73 1787.41,-153.57"/>
</g>
<!-- Node18 -->
<g id="node18" class="node">
<title>Node18</title>
<g id="a_node18"><a target="_blank" xlink:href="open62541/accesscontrol__default_8h.html.html" xlink:title=" ">
<polygon fill="none" stroke="black" points="473.5,-123.5 473.5,-153.5 646.5,-153.5 646.5,-123.5 473.5,-123.5"/>
<text text-anchor="start" x="481.5" y="-141.5" font-family="Helvetica,sans-Serif" font-size="10.00">open62541/plugin/accesscontrol</text>
<text text-anchor="middle" x="560" y="-130.5" font-family="Helvetica,sans-Serif" font-size="10.00">_default.h</text>
</a>
</g>
</g>
<!-- Node16&#45;&gt;Node18 -->
<g id="edge22" class="edge">
<title>Node16&#45;&gt;Node18</title>
<path fill="none" stroke="midnightblue" d="M1066.65,-199.07C979.61,-190.79 810.38,-173.97 656.79,-154.2"/>
<polygon fill="midnightblue" stroke="midnightblue" points="657.07,-150.71 646.7,-152.9 656.17,-157.65 657.07,-150.71"/>
</g>
<!-- Node19 -->
<g id="node19" class="node">
<title>Node19</title>
<g id="a_node19"><a target="_blank" xlink:href="open62541/log_8h.html.html" xlink:title=" ">
<polygon fill="none" stroke="black" points="664.5,-129 664.5,-148 795.5,-148 795.5,-129 664.5,-129"/>
<text text-anchor="middle" x="730" y="-136" font-family="Helvetica,sans-Serif" font-size="10.00">open62541/plugin/log.h</text>
</a>
</g>
</g>
<!-- Node16&#45;&gt;Node19 -->
<g id="edge23" class="edge">
<title>Node16&#45;&gt;Node19</title>
<path fill="none" stroke="midnightblue" d="M1066.9,-196.03C1002.52,-186.49 895.67,-170.19 804,-154 796.91,-152.75 789.45,-151.36 782.11,-149.96"/>
<polygon fill="midnightblue" stroke="midnightblue" points="782.69,-146.51 772.21,-148.05 781.37,-153.39 782.69,-146.51"/>
</g>
<!-- Node20 -->
<g id="node20" class="node">
<title>Node20</title>
<g id="a_node20"><a target="_blank" xlink:href="open62541/types__generated__handling_8h.html.html" xlink:title=" ">
<polygon fill="none" stroke="black" points="813.5,-123.5 813.5,-153.5 968.5,-153.5 968.5,-123.5 813.5,-123.5"/>
<text text-anchor="start" x="821.5" y="-141.5" font-family="Helvetica,sans-Serif" font-size="10.00">open62541/types_generated</text>
<text text-anchor="middle" x="891" y="-130.5" font-family="Helvetica,sans-Serif" font-size="10.00">_handling.h</text>
</a>
</g>
</g>
<!-- Node16&#45;&gt;Node20 -->
<g id="edge24" class="edge">
<title>Node16&#45;&gt;Node20</title>
<path fill="none" stroke="midnightblue" d="M1093.93,-195.87C1057.67,-185.8 996.89,-168.91 951.28,-156.24"/>
<polygon fill="midnightblue" stroke="midnightblue" points="952.07,-152.83 941.5,-153.53 950.2,-159.58 952.07,-152.83"/>
</g>
<!-- Node21 -->
<g id="node21" class="node">
<title>Node21</title>
<g id="a_node21"><a target="_blank" xlink:href="open62541/client_8h.html.html" xlink:title=" ">
<polygon fill="none" stroke="black" points="987,-129 987,-148 1097,-148 1097,-129 987,-129"/>
<text text-anchor="middle" x="1042" y="-136" font-family="Helvetica,sans-Serif" font-size="10.00">open62541/client.h</text>
</a>
</g>
</g>
<!-- Node16&#45;&gt;Node21 -->
<g id="edge25" class="edge">
<title>Node16&#45;&gt;Node21</title>
<path fill="none" stroke="midnightblue" d="M1113.81,-195.73C1100.37,-185.21 1077.6,-167.38 1061.3,-154.62"/>
<polygon fill="midnightblue" stroke="midnightblue" points="1063.05,-151.54 1053.02,-148.13 1058.73,-157.05 1063.05,-151.54"/>
</g>
<!-- Node22 -->
<g id="node22" class="node">
<title>Node22</title>
<g id="a_node22"><a target="_blank" xlink:href="open62541/client__config__default_8h.html.html" xlink:title=" ">
<polygon fill="none" stroke="black" points="1153.5,-123.5 1153.5,-153.5 1288.5,-153.5 1288.5,-123.5 1153.5,-123.5"/>
<text text-anchor="start" x="1161.5" y="-141.5" font-family="Helvetica,sans-Serif" font-size="10.00">open62541/client_config</text>
<text text-anchor="middle" x="1221" y="-130.5" font-family="Helvetica,sans-Serif" font-size="10.00">_default.h</text>
</a>
</g>
</g>
<!-- Node16&#45;&gt;Node22 -->
<g id="edge26" class="edge">
<title>Node16&#45;&gt;Node22</title>
<path fill="none" stroke="midnightblue" d="M1137.95,-195.73C1151.67,-186.44 1173.8,-171.46 1191.76,-159.3"/>
<polygon fill="midnightblue" stroke="midnightblue" points="1193.87,-162.09 1200.19,-153.59 1189.95,-156.3 1193.87,-162.09"/>
</g>
<!-- Node23 -->
<g id="node23" class="node">
<title>Node23</title>
<g id="a_node23"><a target="_blank" xlink:href="open62541/client__highlevel_8h.html.html" xlink:title=" ">
<polygon fill="none" stroke="black" points="1307,-129 1307,-148 1467,-148 1467,-129 1307,-129"/>
<text text-anchor="middle" x="1387" y="-136" font-family="Helvetica,sans-Serif" font-size="10.00">open62541/client_highlevel.h</text>
</a>
</g>
</g>
<!-- Node16&#45;&gt;Node23 -->
<g id="edge27" class="edge">
<title>Node16&#45;&gt;Node23</title>
<path fill="none" stroke="midnightblue" d="M1159.52,-195.94C1206.55,-184.27 1290.8,-163.37 1342.51,-150.54"/>
<polygon fill="midnightblue" stroke="midnightblue" points="1343.54,-153.89 1352.4,-148.08 1341.85,-147.09 1343.54,-153.89"/>
</g>
<!-- Node24 -->
<g id="node24" class="node">
<title>Node24</title>
<g id="a_node24"><a target="_blank" xlink:href="open62541/server_8h.html.html" xlink:title=" ">
<polygon fill="none" stroke="black" points="1485.5,-129 1485.5,-148 1598.5,-148 1598.5,-129 1485.5,-129"/>
<text text-anchor="middle" x="1542" y="-136" font-family="Helvetica,sans-Serif" font-size="10.00">open62541/server.h</text>
</a>
</g>
</g>
<!-- Node16&#45;&gt;Node24 -->
<g id="edge28" class="edge">
<title>Node16&#45;&gt;Node24</title>
<path fill="none" stroke="midnightblue" d="M1161.75,-195.94C1171.55,-193.83 1182.15,-191.69 1192,-190 1317.41,-168.52 1350.63,-175.67 1476,-154 1482.37,-152.9 1489.06,-151.6 1495.63,-150.24"/>
<polygon fill="midnightblue" stroke="midnightblue" points="1496.76,-153.58 1505.81,-148.07 1495.29,-146.73 1496.76,-153.58"/>
</g>
<!-- Node25 -->
<g id="node25" class="node">
<title>Node25</title>
<g id="a_node25"><a target="_blank" xlink:href="open62541/server__config__default_8h.html.html" xlink:title=" ">
<polygon fill="none" stroke="black" points="1616.5,-123.5 1616.5,-153.5 1755.5,-153.5 1755.5,-123.5 1616.5,-123.5"/>
<text text-anchor="start" x="1624.5" y="-141.5" font-family="Helvetica,sans-Serif" font-size="10.00">open62541/server_config</text>
<text text-anchor="middle" x="1686" y="-130.5" font-family="Helvetica,sans-Serif" font-size="10.00">_default.h</text>
</a>
</g>
</g>
<!-- Node16&#45;&gt;Node25 -->
<g id="edge29" class="edge">
<title>Node16&#45;&gt;Node25</title>
<path fill="none" stroke="midnightblue" d="M1160.31,-195.98C1170.49,-193.76 1181.64,-191.56 1192,-190 1372.28,-162.8 1422.36,-178.42 1606.31,-154.14"/>
<polygon fill="midnightblue" stroke="midnightblue" points="1606.87,-157.6 1616.31,-152.8 1605.94,-150.66 1606.87,-157.6"/>
</g>
</g>
</svg>
