<?xml version="1.0" encoding="UTF-8" standalone="no"?>
<!DOCTYPE svg PUBLIC "-//W3C//DTD SVG 1.1//EN"
 "http://www.w3.org/Graphics/SVG/1.1/DTD/svg11.dtd">
<!-- Generated by graphviz version 2.43.0 (0)
 -->
<!-- Title: /home/runner/work/open62541pp/open62541pp/include/open62541pp/Helper.h Pages: 1 -->
<svg width="1635pt" height="596pt"
 viewBox="0.00 0.00 1635.00 596.00" xmlns="http://www.w3.org/2000/svg" xmlns:xlink="http://www.w3.org/1999/xlink">
<g id="graph0" class="graph" transform="scale(1 1) rotate(0) translate(4 592)">
<title>/home/runner/work/open62541pp/open62541pp/include/open62541pp/Helper.h</title>
<!-- Node1 -->
<g id="node1" class="node">
<title>Node1</title>
<g id="a_node1"><a xlink:title=" ">
<polygon fill="#bfbfbf" stroke="black" points="567.5,-546.5 567.5,-587.5 760.5,-587.5 760.5,-546.5 567.5,-546.5"/>
<text text-anchor="start" x="575.5" y="-575.5" font-family="Helvetica,sans-Serif" font-size="10.00">/home/runner/work/open62541pp</text>
<text text-anchor="start" x="575.5" y="-564.5" font-family="Helvetica,sans-Serif" font-size="10.00">/open62541pp/include/open62541pp</text>
<text text-anchor="middle" x="664" y="-553.5" font-family="Helvetica,sans-Serif" font-size="10.00">/Helper.h</text>
</a>
</g>
</g>
<!-- Node2 -->
<g id="node2" class="node">
<title>Node2</title>
<g id="a_node2"><a xlink:href="open62541pp_8h.html" target="_top" xlink:title=" ">
<polygon fill="none" stroke="black" points="394.5,-0.5 394.5,-41.5 587.5,-41.5 587.5,-0.5 394.5,-0.5"/>
<text text-anchor="start" x="402.5" y="-29.5" font-family="Helvetica,sans-Serif" font-size="10.00">/home/runner/work/open62541pp</text>
<text text-anchor="start" x="402.5" y="-18.5" font-family="Helvetica,sans-Serif" font-size="10.00">/open62541pp/include/open62541pp</text>
<text text-anchor="middle" x="491" y="-7.5" font-family="Helvetica,sans-Serif" font-size="10.00">/open62541pp.h</text>
</a>
</g>
</g>
<!-- Node1&#45;&gt;Node2 -->
<g id="edge1" class="edge">
<title>Node1&#45;&gt;Node2</title>
<path fill="none" stroke="midnightblue" d="M557.17,-559.2C390.88,-545.65 89,-507.85 89,-412 89,-412 89,-412 89,-254 89,-169.82 93.53,-130.91 159,-78 194.4,-49.39 309.62,-34.86 394.42,-27.87"/>
<polygon fill="midnightblue" stroke="midnightblue" points="557.19,-562.71 567.43,-560.02 557.74,-555.74 557.19,-562.71"/>
</g>
<!-- Node3 -->
<g id="node3" class="node">
<title>Node3</title>
<g id="a_node3"><a xlink:href="TypeConverter_8h.html" target="_top" xlink:title=" ">
<polygon fill="none" stroke="black" points="567.5,-312.5 567.5,-353.5 760.5,-353.5 760.5,-312.5 567.5,-312.5"/>
<text text-anchor="start" x="575.5" y="-341.5" font-family="Helvetica,sans-Serif" font-size="10.00">/home/runner/work/open62541pp</text>
<text text-anchor="start" x="575.5" y="-330.5" font-family="Helvetica,sans-Serif" font-size="10.00">/open62541pp/include/open62541pp</text>
<text text-anchor="middle" x="664" y="-319.5" font-family="Helvetica,sans-Serif" font-size="10.00">/TypeConverter.h</text>
</a>
</g>
</g>
<!-- Node1&#45;&gt;Node3 -->
<g id="edge2" class="edge">
<title>Node1&#45;&gt;Node3</title>
<path fill="none" stroke="midnightblue" d="M664,-536.11C664,-487.94 664,-394.44 664,-353.73"/>
<polygon fill="midnightblue" stroke="midnightblue" points="660.5,-536.22 664,-546.22 667.5,-536.22 660.5,-536.22"/>
</g>
<!-- Node5 -->
<g id="node5" class="node">
<title>Node5</title>
<g id="a_node5"><a xlink:href="Node_8cpp.html" target="_top" xlink:title=" ">
<polygon fill="none" stroke="black" points="0,-6 0,-36 178,-36 178,-6 0,-6"/>
<text text-anchor="start" x="8" y="-24" font-family="Helvetica,sans-Serif" font-size="10.00">/home/runner/work/open62541pp</text>
<text text-anchor="middle" x="89" y="-13" font-family="Helvetica,sans-Serif" font-size="10.00">/open62541pp/src/Node.cpp</text>
</a>
</g>
</g>
<!-- Node1&#45;&gt;Node5 -->
<g id="edge39" class="edge">
<title>Node1&#45;&gt;Node5</title>
<path fill="none" stroke="midnightblue" d="M557.2,-563.93C424.26,-559.77 206.01,-547.32 135,-510 84.22,-483.32 51,-469.37 51,-412 51,-412 51,-412 51,-176 51,-123.13 72.38,-62.94 83.06,-36.15"/>
<polygon fill="midnightblue" stroke="midnightblue" points="557.32,-567.43 567.42,-564.24 557.53,-560.44 557.32,-567.43"/>
</g>
<!-- Node6 -->
<g id="node6" class="node">
<title>Node6</title>
<g id="a_node6"><a xlink:href="Server_8cpp.html" target="_top" xlink:title=" ">
<polygon fill="none" stroke="black" points="1088,-6 1088,-36 1266,-36 1266,-6 1088,-6"/>
<text text-anchor="start" x="1096" y="-24" font-family="Helvetica,sans-Serif" font-size="10.00">/home/runner/work/open62541pp</text>
<text text-anchor="middle" x="1177" y="-13" font-family="Helvetica,sans-Serif" font-size="10.00">/open62541pp/src/Server.cpp</text>
</a>
</g>
</g>
<!-- Node1&#45;&gt;Node6 -->
<g id="edge40" class="edge">
<title>Node1&#45;&gt;Node6</title>
<path fill="none" stroke="midnightblue" d="M770.7,-566.23C979.31,-563.79 1421,-543.13 1421,-412 1421,-412 1421,-412 1421,-176 1421,-94.6 1322.69,-54.49 1250.87,-36.05"/>
<polygon fill="midnightblue" stroke="midnightblue" points="770.61,-562.73 760.64,-566.34 770.68,-569.73 770.61,-562.73"/>
</g>
<!-- Node7 -->
<g id="node7" class="node">
<title>Node7</title>
<g id="a_node7"><a xlink:href="Variant_8h.html" target="_top" xlink:title=" ">
<polygon fill="none" stroke="black" points="293.5,-234.5 293.5,-275.5 486.5,-275.5 486.5,-234.5 293.5,-234.5"/>
<text text-anchor="start" x="301.5" y="-263.5" font-family="Helvetica,sans-Serif" font-size="10.00">/home/runner/work/open62541pp</text>
<text text-anchor="start" x="301.5" y="-252.5" font-family="Helvetica,sans-Serif" font-size="10.00">/open62541pp/include/open62541pp</text>
<text text-anchor="middle" x="390" y="-241.5" font-family="Helvetica,sans-Serif" font-size="10.00">/types/Variant.h</text>
</a>
</g>
</g>
<!-- Node1&#45;&gt;Node7 -->
<g id="edge15" class="edge">
<title>Node1&#45;&gt;Node7</title>
<path fill="none" stroke="midnightblue" d="M557.22,-559.35C472.14,-547.62 358.82,-516.04 306,-432 277.56,-386.74 271.81,-358.6 298,-312 306.89,-296.19 322.25,-284.32 337.9,-275.67"/>
<polygon fill="midnightblue" stroke="midnightblue" points="556.82,-562.83 567.19,-560.66 557.73,-555.89 556.82,-562.83"/>
</g>
<!-- Node11 -->
<g id="node11" class="node">
<title>Node11</title>
<g id="a_node11"><a xlink:href="TypeWrapper_8h.html" target="_top" xlink:title=" ">
<polygon fill="none" stroke="black" points="442.5,-468.5 442.5,-509.5 635.5,-509.5 635.5,-468.5 442.5,-468.5"/>
<text text-anchor="start" x="450.5" y="-497.5" font-family="Helvetica,sans-Serif" font-size="10.00">/home/runner/work/open62541pp</text>
<text text-anchor="start" x="450.5" y="-486.5" font-family="Helvetica,sans-Serif" font-size="10.00">/open62541pp/include/open62541pp</text>
<text text-anchor="middle" x="539" y="-475.5" font-family="Helvetica,sans-Serif" font-size="10.00">/TypeWrapper.h</text>
</a>
</g>
</g>
<!-- Node1&#45;&gt;Node11 -->
<g id="edge16" class="edge">
<title>Node1&#45;&gt;Node11</title>
<path fill="none" stroke="midnightblue" d="M623.22,-541.2C606.3,-530.92 586.96,-519.16 571.08,-509.51"/>
<polygon fill="midnightblue" stroke="midnightblue" points="621.45,-544.22 631.81,-546.43 625.08,-538.24 621.45,-544.22"/>
</g>
<!-- Node14 -->
<g id="node14" class="node">
<title>Node14</title>
<g id="a_node14"><a xlink:href="NodeId_8cpp.html" target="_top" xlink:title=" ">
<polygon fill="none" stroke="black" points="881.5,-162 881.5,-192 1072.5,-192 1072.5,-162 881.5,-162"/>
<text text-anchor="start" x="889.5" y="-180" font-family="Helvetica,sans-Serif" font-size="10.00">/home/runner/work/open62541pp</text>
<text text-anchor="middle" x="977" y="-169" font-family="Helvetica,sans-Serif" font-size="10.00">/open62541pp/src/types/NodeId.cpp</text>
</a>
</g>
</g>
<!-- Node1&#45;&gt;Node14 -->
<g id="edge42" class="edge">
<title>Node1&#45;&gt;Node14</title>
<path fill="none" stroke="midnightblue" d="M771.03,-564.12C878.1,-555.88 1027,-524.24 1027,-412 1027,-412 1027,-412 1027,-332 1027,-287.63 1023.15,-275.7 1008,-234 1002.53,-218.96 993.41,-203.12 986.47,-192.14"/>
<polygon fill="midnightblue" stroke="midnightblue" points="770.53,-560.65 760.8,-564.85 771.02,-567.63 770.53,-560.65"/>
</g>
<!-- Node15 -->
<g id="node15" class="node">
<title>Node15</title>
<g id="a_node15"><a xlink:href="Builtin_8cpp.html" target="_top" xlink:title=" ">
<polygon fill="none" stroke="black" points="1205,-240 1205,-270 1393,-270 1393,-240 1205,-240"/>
<text text-anchor="start" x="1213" y="-258" font-family="Helvetica,sans-Serif" font-size="10.00">/home/runner/work/open62541pp</text>
<text text-anchor="middle" x="1299" y="-247" font-family="Helvetica,sans-Serif" font-size="10.00">/open62541pp/src/types/Builtin.cpp</text>
</a>
</g>
</g>
<!-- Node1&#45;&gt;Node15 -->
<g id="edge41" class="edge">
<title>Node1&#45;&gt;Node15</title>
<path fill="none" stroke="midnightblue" d="M770.88,-563.53C848.36,-558.57 954.3,-545.17 1041,-510 1151.07,-465.35 1184.07,-446.96 1258,-354 1278.55,-328.16 1290.41,-290.54 1295.68,-270.25"/>
<polygon fill="midnightblue" stroke="midnightblue" points="770.39,-560.05 760.62,-564.14 770.81,-567.04 770.39,-560.05"/>
</g>
<!-- Node18 -->
<g id="node18" class="node">
<title>Node18</title>
<g id="a_node18"><a xlink:href="Helper_8cpp.html" target="_top" xlink:title=" ">
<polygon fill="none" stroke="black" points="1449,-474 1449,-504 1627,-504 1627,-474 1449,-474"/>
<text text-anchor="start" x="1457" y="-492" font-family="Helvetica,sans-Serif" font-size="10.00">/home/runner/work/open62541pp</text>
<text text-anchor="middle" x="1538" y="-481" font-family="Helvetica,sans-Serif" font-size="10.00">/open62541pp/src/Helper.cpp</text>
</a>
</g>
</g>
<!-- Node1&#45;&gt;Node18 -->
<g id="edge38" class="edge">
<title>Node1&#45;&gt;Node18</title>
<path fill="none" stroke="midnightblue" d="M770.61,-562.28C919.76,-556.16 1198.96,-541.37 1435,-510 1447.01,-508.4 1459.73,-506.29 1471.98,-504.03"/>
<polygon fill="midnightblue" stroke="midnightblue" points="770.39,-558.78 760.54,-562.69 770.67,-565.78 770.39,-558.78"/>
</g>
<!-- Node3&#45;&gt;Node2 -->
<g id="edge7" class="edge">
<title>Node3&#45;&gt;Node2</title>
<path fill="none" stroke="midnightblue" d="M620.16,-306.89C584.02,-283.63 534.8,-245.5 510,-198 483.19,-146.65 485.56,-75.49 488.67,-41.54"/>
<polygon fill="midnightblue" stroke="midnightblue" points="618.72,-310.12 629.05,-312.48 622.45,-304.2 618.72,-310.12"/>
</g>
<!-- Node4 -->
<g id="node4" class="node">
<title>Node4</title>
<g id="a_node4"><a xlink:href="Node_8h.html" target="_top" xlink:title=" ">
<polygon fill="none" stroke="black" points="629,-78.5 629,-119.5 825,-119.5 825,-78.5 629,-78.5"/>
<text text-anchor="start" x="637" y="-107.5" font-family="Helvetica,sans-Serif" font-size="10.00">/home/runner/work/open62541pp</text>
<text text-anchor="start" x="637" y="-96.5" font-family="Helvetica,sans-Serif" font-size="10.00">/open62541pp/include/open62541pp/</text>
<text text-anchor="middle" x="727" y="-85.5" font-family="Helvetica,sans-Serif" font-size="10.00">Node.h</text>
</a>
</g>
</g>
<!-- Node3&#45;&gt;Node4 -->
<g id="edge3" class="edge">
<title>Node3&#45;&gt;Node4</title>
<path fill="none" stroke="midnightblue" d="M678.91,-303.11C691.88,-276.54 709.96,-235.68 719,-198 725.37,-171.44 726.9,-139.8 727.16,-119.8"/>
<polygon fill="midnightblue" stroke="midnightblue" points="675.7,-301.7 674.39,-312.22 681.97,-304.81 675.7,-301.7"/>
</g>
<!-- Node3&#45;&gt;Node7 -->
<g id="edge8" class="edge">
<title>Node3&#45;&gt;Node7</title>
<path fill="none" stroke="midnightblue" d="M583.67,-309.72C544.57,-298.87 498,-285.96 460.32,-275.51"/>
<polygon fill="midnightblue" stroke="midnightblue" points="582.87,-313.13 593.44,-312.43 584.74,-306.38 582.87,-313.13"/>
</g>
<!-- Node4&#45;&gt;Node2 -->
<g id="edge4" class="edge">
<title>Node4&#45;&gt;Node2</title>
<path fill="none" stroke="midnightblue" d="M656.52,-75.3C623.12,-64.55 583.61,-51.82 551.57,-41.51"/>
<polygon fill="midnightblue" stroke="midnightblue" points="655.63,-78.69 666.22,-78.43 657.78,-72.03 655.63,-78.69"/>
</g>
<!-- Node4&#45;&gt;Node5 -->
<g id="edge5" class="edge">
<title>Node4&#45;&gt;Node5</title>
<path fill="none" stroke="midnightblue" d="M618.43,-85.07C494.31,-70.28 293.47,-46.36 178.13,-32.62"/>
<polygon fill="midnightblue" stroke="midnightblue" points="618.37,-88.58 628.71,-86.29 619.19,-81.63 618.37,-88.58"/>
</g>
<!-- Node4&#45;&gt;Node6 -->
<g id="edge6" class="edge">
<title>Node4&#45;&gt;Node6</title>
<path fill="none" stroke="midnightblue" d="M835.25,-79.72C914.79,-66.28 1021.26,-48.3 1094.1,-36"/>
<polygon fill="midnightblue" stroke="midnightblue" points="834.48,-76.3 825.2,-81.42 835.64,-83.2 834.48,-76.3"/>
</g>
<!-- Node7&#45;&gt;Node2 -->
<g id="edge10" class="edge">
<title>Node7&#45;&gt;Node2</title>
<path fill="none" stroke="midnightblue" d="M402.62,-225.02C423.47,-177.12 464.58,-82.69 482.41,-41.73"/>
<polygon fill="midnightblue" stroke="midnightblue" points="399.39,-223.65 398.61,-234.22 405.81,-226.45 399.39,-223.65"/>
</g>
<!-- Node7&#45;&gt;Node4 -->
<g id="edge9" class="edge">
<title>Node7&#45;&gt;Node4</title>
<path fill="none" stroke="midnightblue" d="M415.74,-227.3C438.55,-205.12 473.78,-174.34 510,-156 546.88,-137.33 590.53,-124.51 628.97,-115.9"/>
<polygon fill="midnightblue" stroke="midnightblue" points="413.15,-224.94 408.5,-234.46 418.07,-229.92 413.15,-224.94"/>
</g>
<!-- Node8 -->
<g id="node8" class="node">
<title>Node8</title>
<g id="a_node8"><a xlink:href="DataValue_8h.html" target="_top" xlink:title=" ">
<polygon fill="none" stroke="black" points="193.5,-156.5 193.5,-197.5 386.5,-197.5 386.5,-156.5 193.5,-156.5"/>
<text text-anchor="start" x="201.5" y="-185.5" font-family="Helvetica,sans-Serif" font-size="10.00">/home/runner/work/open62541pp</text>
<text text-anchor="start" x="201.5" y="-174.5" font-family="Helvetica,sans-Serif" font-size="10.00">/open62541pp/include/open62541pp</text>
<text text-anchor="middle" x="290" y="-163.5" font-family="Helvetica,sans-Serif" font-size="10.00">/types/DataValue.h</text>
</a>
</g>
</g>
<!-- Node7&#45;&gt;Node8 -->
<g id="edge11" class="edge">
<title>Node7&#45;&gt;Node8</title>
<path fill="none" stroke="midnightblue" d="M356.25,-228.35C342.99,-218.27 328.02,-206.89 315.67,-197.51"/>
<polygon fill="midnightblue" stroke="midnightblue" points="354.17,-231.16 364.25,-234.43 358.4,-225.59 354.17,-231.16"/>
</g>
<!-- Node10 -->
<g id="node10" class="node">
<title>Node10</title>
<g id="a_node10"><a xlink:href="Variant_8cpp.html" target="_top" xlink:title=" ">
<polygon fill="none" stroke="black" points="519.5,-162 519.5,-192 710.5,-192 710.5,-162 519.5,-162"/>
<text text-anchor="start" x="527.5" y="-180" font-family="Helvetica,sans-Serif" font-size="10.00">/home/runner/work/open62541pp</text>
<text text-anchor="middle" x="615" y="-169" font-family="Helvetica,sans-Serif" font-size="10.00">/open62541pp/src/types/Variant.cpp</text>
</a>
</g>
</g>
<!-- Node7&#45;&gt;Node10 -->
<g id="edge14" class="edge">
<title>Node7&#45;&gt;Node10</title>
<path fill="none" stroke="midnightblue" d="M457.81,-231.1C495.37,-218.41 540.88,-203.04 573.24,-192.11"/>
<polygon fill="midnightblue" stroke="midnightblue" points="456.3,-227.91 447.94,-234.43 458.54,-234.54 456.3,-227.91"/>
</g>
<!-- Node8&#45;&gt;Node4 -->
<g id="edge12" class="edge">
<title>Node8&#45;&gt;Node4</title>
<path fill="none" stroke="midnightblue" d="M396.99,-157.39C467.72,-145.09 559.76,-129.09 628.66,-117.1"/>
<polygon fill="midnightblue" stroke="midnightblue" points="395.97,-154.02 386.71,-159.18 397.17,-160.92 395.97,-154.02"/>
</g>
<!-- Node9 -->
<g id="node9" class="node">
<title>Node9</title>
<g id="a_node9"><a xlink:href="DataValue_8cpp.html" target="_top" xlink:title=" ">
<polygon fill="none" stroke="black" points="193,-84 193,-114 399,-114 399,-84 193,-84"/>
<text text-anchor="start" x="201" y="-102" font-family="Helvetica,sans-Serif" font-size="10.00">/home/runner/work/open62541pp</text>
<text text-anchor="middle" x="296" y="-91" font-family="Helvetica,sans-Serif" font-size="10.00">/open62541pp/src/types/DataValue.cpp</text>
</a>
</g>
</g>
<!-- Node8&#45;&gt;Node9 -->
<g id="edge13" class="edge">
<title>Node8&#45;&gt;Node9</title>
<path fill="none" stroke="midnightblue" d="M292.35,-146.28C293.22,-135.25 294.16,-123.25 294.88,-114.23"/>
<polygon fill="midnightblue" stroke="midnightblue" points="288.84,-146.18 291.55,-156.43 295.82,-146.73 288.84,-146.18"/>
</g>
<!-- Node11&#45;&gt;Node2 -->
<g id="edge18" class="edge">
<title>Node11&#45;&gt;Node2</title>
<path fill="none" stroke="midnightblue" d="M432.54,-479.8C380.61,-472.44 318.59,-458.47 268,-432 212.02,-402.7 165,-397.19 165,-334 165,-334 165,-334 165,-176 165,-131.63 152.45,-109.2 184,-78 213.23,-49.09 315.68,-34.78 394.27,-27.92"/>
<polygon fill="midnightblue" stroke="midnightblue" points="432.08,-483.27 442.45,-481.14 433.02,-476.33 432.08,-483.27"/>
</g>
<!-- Node11&#45;&gt;Node3 -->
<g id="edge19" class="edge">
<title>Node11&#45;&gt;Node3</title>
<path fill="none" stroke="midnightblue" d="M561.44,-460.36C586.34,-429.68 625.9,-380.94 647.9,-353.83"/>
<polygon fill="midnightblue" stroke="midnightblue" points="558.42,-458.53 554.83,-468.5 563.85,-462.94 558.42,-458.53"/>
</g>
<!-- Node11&#45;&gt;Node4 -->
<g id="edge17" class="edge">
<title>Node11&#45;&gt;Node4</title>
<path fill="none" stroke="midnightblue" d="M617.92,-464.98C670.91,-444.96 736.74,-410.13 769,-354 813.65,-276.3 762.6,-164.51 738.36,-119.68"/>
<polygon fill="midnightblue" stroke="midnightblue" points="616.7,-461.7 608.52,-468.43 619.11,-468.27 616.7,-461.7"/>
</g>
<!-- Node11&#45;&gt;Node5 -->
<g id="edge37" class="edge">
<title>Node11&#45;&gt;Node5</title>
<path fill="none" stroke="midnightblue" d="M432,-480.93C343.17,-473.28 225.26,-458.47 186,-432 143.84,-403.58 127,-384.84 127,-334 127,-334 127,-334 127,-254 127,-170.53 102.75,-72.37 92.99,-36.26"/>
<polygon fill="midnightblue" stroke="midnightblue" points="431.88,-484.43 442.14,-481.78 432.46,-477.45 431.88,-484.43"/>
</g>
<!-- Node11&#45;&gt;Node7 -->
<g id="edge36" class="edge">
<title>Node11&#45;&gt;Node7</title>
<path fill="none" stroke="midnightblue" d="M544.27,-457.94C549.15,-420.06 551.56,-354.76 520,-312 507.82,-295.49 489.75,-283.79 470.93,-275.52"/>
<polygon fill="midnightblue" stroke="midnightblue" points="540.73,-457.91 542.78,-468.31 547.66,-458.9 540.73,-457.91"/>
</g>
<!-- Node11&#45;&gt;Node8 -->
<g id="edge30" class="edge">
<title>Node11&#45;&gt;Node8</title>
<path fill="none" stroke="midnightblue" d="M432.52,-472.25C380.68,-462.68 325.4,-449 306,-432 238.8,-373.09 256.45,-322.17 271,-234 273.06,-221.54 277.52,-208.13 281.61,-197.55"/>
<polygon fill="midnightblue" stroke="midnightblue" points="432.03,-475.72 442.49,-474.05 433.27,-468.83 432.03,-475.72"/>
</g>
<!-- Node12 -->
<g id="node12" class="node">
<title>Node12</title>
<g id="a_node12"><a xlink:href="Builtin_8h.html" target="_top" xlink:title=" ">
<polygon fill="none" stroke="black" points="1055.5,-312.5 1055.5,-353.5 1248.5,-353.5 1248.5,-312.5 1055.5,-312.5"/>
<text text-anchor="start" x="1063.5" y="-341.5" font-family="Helvetica,sans-Serif" font-size="10.00">/home/runner/work/open62541pp</text>
<text text-anchor="start" x="1063.5" y="-330.5" font-family="Helvetica,sans-Serif" font-size="10.00">/open62541pp/include/open62541pp</text>
<text text-anchor="middle" x="1152" y="-319.5" font-family="Helvetica,sans-Serif" font-size="10.00">/types/Builtin.h</text>
</a>
</g>
</g>
<!-- Node11&#45;&gt;Node12 -->
<g id="edge20" class="edge">
<title>Node11&#45;&gt;Node12</title>
<path fill="none" stroke="midnightblue" d="M645.82,-475.47C713.32,-466.31 802.03,-451.98 879,-432 960.4,-410.87 1051.77,-375.61 1105.47,-353.64"/>
<polygon fill="midnightblue" stroke="midnightblue" points="645.04,-472.04 635.6,-476.84 645.97,-478.98 645.04,-472.04"/>
</g>
<!-- Node13 -->
<g id="node13" class="node">
<title>Node13</title>
<g id="a_node13"><a xlink:href="NodeId_8h.html" target="_top" xlink:title=" ">
<polygon fill="none" stroke="black" points="805.5,-234.5 805.5,-275.5 998.5,-275.5 998.5,-234.5 805.5,-234.5"/>
<text text-anchor="start" x="813.5" y="-263.5" font-family="Helvetica,sans-Serif" font-size="10.00">/home/runner/work/open62541pp</text>
<text text-anchor="start" x="813.5" y="-252.5" font-family="Helvetica,sans-Serif" font-size="10.00">/open62541pp/include/open62541pp</text>
<text text-anchor="middle" x="902" y="-241.5" font-family="Helvetica,sans-Serif" font-size="10.00">/types/NodeId.h</text>
</a>
</g>
</g>
<!-- Node11&#45;&gt;Node13 -->
<g id="edge35" class="edge">
<title>Node11&#45;&gt;Node13</title>
<path fill="none" stroke="midnightblue" d="M645.75,-474.44C707.52,-464.86 777.88,-450.46 803,-432 857.38,-392.04 885.96,-312.66 896.79,-275.74"/>
<polygon fill="midnightblue" stroke="midnightblue" points="644.89,-471.03 635.53,-475.99 645.94,-477.95 644.89,-471.03"/>
</g>
<!-- Node16 -->
<g id="node16" class="node">
<title>Node16</title>
<g id="a_node16"><a xlink:href="DateTime_8h.html" target="_top" xlink:title=" ">
<polygon fill="none" stroke="black" points="315.5,-390.5 315.5,-431.5 508.5,-431.5 508.5,-390.5 315.5,-390.5"/>
<text text-anchor="start" x="323.5" y="-419.5" font-family="Helvetica,sans-Serif" font-size="10.00">/home/runner/work/open62541pp</text>
<text text-anchor="start" x="323.5" y="-408.5" font-family="Helvetica,sans-Serif" font-size="10.00">/open62541pp/include/open62541pp</text>
<text text-anchor="middle" x="412" y="-397.5" font-family="Helvetica,sans-Serif" font-size="10.00">/types/DateTime.h</text>
</a>
</g>
</g>
<!-- Node11&#45;&gt;Node16 -->
<g id="edge31" class="edge">
<title>Node11&#45;&gt;Node16</title>
<path fill="none" stroke="midnightblue" d="M497.56,-463.2C480.38,-452.92 460.73,-441.16 444.59,-431.51"/>
<polygon fill="midnightblue" stroke="midnightblue" points="495.92,-466.3 506.29,-468.43 499.51,-460.29 495.92,-466.3"/>
</g>
<!-- Node12&#45;&gt;Node2 -->
<g id="edge22" class="edge">
<title>Node12&#45;&gt;Node2</title>
<path fill="none" stroke="midnightblue" d="M1153.11,-302.38C1152.91,-263.7 1146.64,-196.18 1109,-156 1039.05,-81.34 743.4,-44.37 587.75,-29.78"/>
<polygon fill="midnightblue" stroke="midnightblue" points="1149.61,-302.45 1153.03,-312.48 1156.61,-302.51 1149.61,-302.45"/>
</g>
<!-- Node12&#45;&gt;Node4 -->
<g id="edge21" class="edge">
<title>Node12&#45;&gt;Node4</title>
<path fill="none" stroke="midnightblue" d="M1137.44,-303.29C1133.24,-294.61 1128.77,-284.99 1125,-276 1103.11,-223.75 1125.64,-192.13 1082,-156 1043.85,-124.41 916.5,-110.47 825.25,-104.43"/>
<polygon fill="midnightblue" stroke="midnightblue" points="1134.31,-304.85 1141.86,-312.28 1140.59,-301.76 1134.31,-304.85"/>
</g>
<!-- Node12&#45;&gt;Node6 -->
<g id="edge28" class="edge">
<title>Node12&#45;&gt;Node6</title>
<path fill="none" stroke="midnightblue" d="M1154.41,-302.08C1159.68,-236.73 1172.05,-83.37 1175.86,-36.11"/>
<polygon fill="midnightblue" stroke="midnightblue" points="1150.92,-301.89 1153.6,-312.14 1157.89,-302.45 1150.92,-301.89"/>
</g>
<!-- Node12&#45;&gt;Node13 -->
<g id="edge23" class="edge">
<title>Node12&#45;&gt;Node13</title>
<path fill="none" stroke="midnightblue" d="M1077.8,-309.44C1042.31,-298.66 1000.25,-285.87 966.16,-275.51"/>
<polygon fill="midnightblue" stroke="midnightblue" points="1077.03,-312.87 1087.62,-312.43 1079.07,-306.17 1077.03,-312.87"/>
</g>
<!-- Node12&#45;&gt;Node15 -->
<g id="edge29" class="edge">
<title>Node12&#45;&gt;Node15</title>
<path fill="none" stroke="midnightblue" d="M1198.79,-307.81C1222.74,-295.43 1251.07,-280.78 1271.49,-270.23"/>
<polygon fill="midnightblue" stroke="midnightblue" points="1197.13,-304.73 1189.86,-312.43 1200.35,-310.94 1197.13,-304.73"/>
</g>
<!-- Node13&#45;&gt;Node2 -->
<g id="edge25" class="edge">
<title>Node13&#45;&gt;Node2</title>
<path fill="none" stroke="midnightblue" d="M886.08,-225.46C881.55,-216.78 876.82,-207.12 873,-198 851.37,-146.26 876.56,-114.52 834,-78 797.88,-47.01 676.04,-32.95 587.83,-26.72"/>
<polygon fill="midnightblue" stroke="midnightblue" points="883.06,-227.25 890.86,-234.42 889.24,-223.95 883.06,-227.25"/>
</g>
<!-- Node13&#45;&gt;Node4 -->
<g id="edge24" class="edge">
<title>Node13&#45;&gt;Node4</title>
<path fill="none" stroke="midnightblue" d="M872.41,-227.81C850.07,-208.05 818.64,-180.29 791,-156 777.25,-143.91 761.8,-130.4 749.53,-119.67"/>
<polygon fill="midnightblue" stroke="midnightblue" points="870.1,-230.44 879.91,-234.45 874.74,-225.2 870.1,-230.44"/>
</g>
<!-- Node13&#45;&gt;Node10 -->
<g id="edge27" class="edge">
<title>Node13&#45;&gt;Node10</title>
<path fill="none" stroke="midnightblue" d="M818.25,-231.82C769.82,-219 710.34,-203.25 668.27,-192.11"/>
<polygon fill="midnightblue" stroke="midnightblue" points="817.53,-235.25 828.09,-234.43 819.32,-228.48 817.53,-235.25"/>
</g>
<!-- Node13&#45;&gt;Node14 -->
<g id="edge26" class="edge">
<title>Node13&#45;&gt;Node14</title>
<path fill="none" stroke="midnightblue" d="M928.65,-226.99C940.24,-215.25 953.33,-201.99 962.96,-192.23"/>
<polygon fill="midnightblue" stroke="midnightblue" points="925.85,-224.85 921.31,-234.43 930.83,-229.77 925.85,-224.85"/>
</g>
<!-- Node16&#45;&gt;Node3 -->
<g id="edge32" class="edge">
<title>Node16&#45;&gt;Node3</title>
<path fill="none" stroke="midnightblue" d="M486.8,-387.44C522.56,-376.66 564.97,-363.87 599.32,-353.51"/>
<polygon fill="midnightblue" stroke="midnightblue" points="485.46,-384.19 476.9,-390.43 487.48,-390.89 485.46,-384.19"/>
</g>
<!-- Node16&#45;&gt;Node8 -->
<g id="edge33" class="edge">
<title>Node16&#45;&gt;Node8</title>
<path fill="none" stroke="midnightblue" d="M337.25,-385.78C322.3,-377.81 308.11,-367.42 298,-354 262.93,-307.47 275.62,-232.73 284.42,-197.53"/>
<polygon fill="midnightblue" stroke="midnightblue" points="336.11,-389.13 346.62,-390.44 339.23,-382.86 336.11,-389.13"/>
</g>
<!-- Node17 -->
<g id="node17" class="node">
<title>Node17</title>
<g id="a_node17"><a xlink:href="DateTime_8cpp.html" target="_top" xlink:title=" ">
<polygon fill="none" stroke="black" points="307,-318 307,-348 511,-348 511,-318 307,-318"/>
<text text-anchor="start" x="315" y="-336" font-family="Helvetica,sans-Serif" font-size="10.00">/home/runner/work/open62541pp</text>
<text text-anchor="middle" x="409" y="-325" font-family="Helvetica,sans-Serif" font-size="10.00">/open62541pp/src/types/DateTime.cpp</text>
</a>
</g>
</g>
<!-- Node16&#45;&gt;Node17 -->
<g id="edge34" class="edge">
<title>Node16&#45;&gt;Node17</title>
<path fill="none" stroke="midnightblue" d="M410.83,-380.28C410.39,-369.25 409.92,-357.25 409.56,-348.23"/>
<polygon fill="midnightblue" stroke="midnightblue" points="407.34,-380.57 411.23,-390.43 414.33,-380.3 407.34,-380.57"/>
</g>
</g>
</svg>
