<?xml version="1.0" encoding="UTF-8" standalone="no"?>
<!DOCTYPE svg PUBLIC "-//W3C//DTD SVG 1.1//EN"
 "http://www.w3.org/Graphics/SVG/1.1/DTD/svg11.dtd">
<!-- Generated by graphviz version 2.43.0 (0)
 -->
<!-- Title: /home/runner/work/open62541pp/open62541pp/include/open62541pp/Helper.h Pages: 1 -->
<svg width="533pt" height="173pt"
 viewBox="0.00 0.00 532.50 173.00" xmlns="http://www.w3.org/2000/svg" xmlns:xlink="http://www.w3.org/1999/xlink">
<g id="graph0" class="graph" transform="scale(1 1) rotate(0) translate(4 169)">
<title>/home/runner/work/open62541pp/open62541pp/include/open62541pp/Helper.h</title>
<!-- Node1 -->
<g id="node1" class="node">
<title>Node1</title>
<g id="a_node1"><a xlink:title=" ">
<polygon fill="#bfbfbf" stroke="black" points="31.5,-123.5 31.5,-164.5 224.5,-164.5 224.5,-123.5 31.5,-123.5"/>
<text text-anchor="start" x="39.5" y="-152.5" font-family="Helvetica,sans-Serif" font-size="10.00">/home/runner/work/open62541pp</text>
<text text-anchor="start" x="39.5" y="-141.5" font-family="Helvetica,sans-Serif" font-size="10.00">/open62541pp/include/open62541pp</text>
<text text-anchor="middle" x="128" y="-130.5" font-family="Helvetica,sans-Serif" font-size="10.00">/Helper.h</text>
</a>
</g>
</g>
<!-- Node2 -->
<g id="node2" class="node">
<title>Node2</title>
<g id="a_node2"><a xlink:title=" ">
<polygon fill="none" stroke="#bfbfbf" points="0,-67.5 0,-86.5 50,-86.5 50,-67.5 0,-67.5"/>
<text text-anchor="middle" x="25" y="-74.5" font-family="Helvetica,sans-Serif" font-size="10.00">cstring</text>
</a>
</g>
</g>
<!-- Node1&#45;&gt;Node2 -->
<g id="edge1" class="edge">
<title>Node1&#45;&gt;Node2</title>
<path fill="none" stroke="midnightblue" d="M97.1,-123.5C81.15,-113.44 62.06,-101.38 47.52,-92.21"/>
<polygon fill="midnightblue" stroke="midnightblue" points="49.04,-89.03 38.71,-86.65 45.3,-94.95 49.04,-89.03"/>
</g>
<!-- Node3 -->
<g id="node3" class="node">
<title>Node3</title>
<g id="a_node3"><a xlink:title=" ">
<polygon fill="none" stroke="#bfbfbf" points="68,-67.5 68,-86.5 112,-86.5 112,-67.5 68,-67.5"/>
<text text-anchor="middle" x="90" y="-74.5" font-family="Helvetica,sans-Serif" font-size="10.00">string</text>
</a>
</g>
</g>
<!-- Node1&#45;&gt;Node3 -->
<g id="edge2" class="edge">
<title>Node1&#45;&gt;Node3</title>
<path fill="none" stroke="midnightblue" d="M116.6,-123.5C111.39,-114.59 105.27,-104.11 100.21,-95.46"/>
<polygon fill="midnightblue" stroke="midnightblue" points="103.13,-93.52 95.06,-86.65 97.08,-97.05 103.13,-93.52"/>
</g>
<!-- Node4 -->
<g id="node4" class="node">
<title>Node4</title>
<g id="a_node4"><a xlink:title=" ">
<polygon fill="none" stroke="#bfbfbf" points="130.5,-67.5 130.5,-86.5 203.5,-86.5 203.5,-67.5 130.5,-67.5"/>
<text text-anchor="middle" x="167" y="-74.5" font-family="Helvetica,sans-Serif" font-size="10.00">string_view</text>
</a>
</g>
</g>
<!-- Node1&#45;&gt;Node4 -->
<g id="edge3" class="edge">
<title>Node1&#45;&gt;Node4</title>
<path fill="none" stroke="midnightblue" d="M139.7,-123.5C145.05,-114.59 151.33,-104.11 156.52,-95.46"/>
<polygon fill="midnightblue" stroke="midnightblue" points="159.66,-97.03 161.81,-86.65 153.66,-93.43 159.66,-97.03"/>
</g>
<!-- Node5 -->
<g id="node5" class="node">
<title>Node5</title>
<g id="a_node5"><a xlink:href="open62541_8h.html" target="_top" xlink:title=" ">
<polygon fill="none" stroke="black" points="221.5,-67.5 221.5,-86.5 370.5,-86.5 370.5,-67.5 221.5,-67.5"/>
<text text-anchor="middle" x="296" y="-74.5" font-family="Helvetica,sans-Serif" font-size="10.00">open62541pp/open62541.h</text>
</a>
</g>
</g>
<!-- Node1&#45;&gt;Node5 -->
<g id="edge4" class="edge">
<title>Node1&#45;&gt;Node5</title>
<path fill="none" stroke="midnightblue" d="M178.41,-123.5C206.27,-112.72 240.04,-99.65 264.22,-90.29"/>
<polygon fill="midnightblue" stroke="midnightblue" points="265.57,-93.53 273.64,-86.65 263.05,-87 265.57,-93.53"/>
</g>
<!-- Node6 -->
<g id="node6" class="node">
<title>Node6</title>
<g id="a_node6"><a xlink:href="open62541/nodeids_8h.html.html" xlink:title=" ">
<polygon fill="none" stroke="black" points="101.5,-6 101.5,-25 222.5,-25 222.5,-6 101.5,-6"/>
<text text-anchor="middle" x="162" y="-13" font-family="Helvetica,sans-Serif" font-size="10.00">open62541/nodeids.h</text>
</a>
</g>
</g>
<!-- Node5&#45;&gt;Node6 -->
<g id="edge5" class="edge">
<title>Node5&#45;&gt;Node6</title>
<path fill="none" stroke="midnightblue" d="M276.8,-67.48C254.21,-57.45 216.5,-40.7 190.5,-29.15"/>
<polygon fill="midnightblue" stroke="midnightblue" points="191.72,-25.87 181.16,-25.01 188.88,-32.27 191.72,-25.87"/>
</g>
<!-- Node7 -->
<g id="node7" class="node">
<title>Node7</title>
<g id="a_node7"><a xlink:href="open62541/types_8h.html.html" xlink:title=" ">
<polygon fill="none" stroke="black" points="241,-6 241,-25 351,-25 351,-6 241,-6"/>
<text text-anchor="middle" x="296" y="-13" font-family="Helvetica,sans-Serif" font-size="10.00">open62541/types.h</text>
</a>
</g>
</g>
<!-- Node5&#45;&gt;Node7 -->
<g id="edge6" class="edge">
<title>Node5&#45;&gt;Node7</title>
<path fill="none" stroke="midnightblue" d="M296,-67.48C296,-59.08 296,-45.98 296,-35.16"/>
<polygon fill="midnightblue" stroke="midnightblue" points="299.5,-35.01 296,-25.01 292.5,-35.01 299.5,-35.01"/>
</g>
<!-- Node8 -->
<g id="node8" class="node">
<title>Node8</title>
<g id="a_node8"><a xlink:href="open62541/types__generated__handling_8h.html.html" xlink:title=" ">
<polygon fill="none" stroke="black" points="369.5,-0.5 369.5,-30.5 524.5,-30.5 524.5,-0.5 369.5,-0.5"/>
<text text-anchor="start" x="377.5" y="-18.5" font-family="Helvetica,sans-Serif" font-size="10.00">open62541/types_generated</text>
<text text-anchor="middle" x="447" y="-7.5" font-family="Helvetica,sans-Serif" font-size="10.00">_handling.h</text>
</a>
</g>
</g>
<!-- Node5&#45;&gt;Node8 -->
<g id="edge7" class="edge">
<title>Node5&#45;&gt;Node8</title>
<path fill="none" stroke="midnightblue" d="M317.63,-67.48C339.52,-58.85 374,-45.26 401.86,-34.29"/>
<polygon fill="midnightblue" stroke="midnightblue" points="403.39,-37.45 411.41,-30.52 400.83,-30.93 403.39,-37.45"/>
</g>
</g>
</svg>
