<?xml version="1.0" encoding="UTF-8" standalone="no"?>
<!DOCTYPE svg PUBLIC "-//W3C//DTD SVG 1.1//EN"
 "http://www.w3.org/Graphics/SVG/1.1/DTD/svg11.dtd">
<!-- Generated by graphviz version 2.43.0 (0)
 -->
<!-- Title: Graphical Class Hierarchy Pages: 1 -->
<svg width="645pt" height="49pt"
 viewBox="0.00 0.00 645.00 49.00" xmlns="http://www.w3.org/2000/svg" xmlns:xlink="http://www.w3.org/1999/xlink">
<g id="graph0" class="graph" transform="scale(1 1) rotate(0) translate(4 45)">
<title>Graphical Class Hierarchy</title>
<!-- Node0 -->
<g id="Node000000" class="node">
<title>Node0</title>
<g id="a_Node000000"><a xlink:href="classopcua_1_1Wrapper.html" target="_top" xlink:title=" ">
<polygon fill="white" stroke="#666666" points="173,-35.5 0,-35.5 0,-5.5 173,-5.5 173,-35.5"/>
<text text-anchor="start" x="8" y="-23.5" font-family="Helvetica,sans-Serif" font-size="10.00">opcua::Wrapper&lt; UA</text>
<text text-anchor="middle" x="86.5" y="-12.5" font-family="Helvetica,sans-Serif" font-size="10.00">_CreateSubscriptionResponse &gt;</text>
</a>
</g>
</g>
<!-- Node1 -->
<g id="Node000001" class="node">
<title>Node1</title>
<g id="a_Node000001"><a xlink:href="classopcua_1_1TypeWrapper.html" target="_top" xlink:title=" ">
<polygon fill="white" stroke="#666666" points="457,-41 209,-41 209,0 457,0 457,-41"/>
<text text-anchor="start" x="217" y="-29" font-family="Helvetica,sans-Serif" font-size="10.00">opcua::TypeWrapper</text>
<text text-anchor="start" x="217" y="-18" font-family="Helvetica,sans-Serif" font-size="10.00">&lt; UA_CreateSubscriptionResponse,</text>
<text text-anchor="middle" x="333" y="-7" font-family="Helvetica,sans-Serif" font-size="10.00"> UA_TYPES_CREATESUBSCRIPTIONRESPONSE &gt;</text>
</a>
</g>
</g>
<!-- Node0&#45;&gt;Node1 -->
<g id="edge97_Node000000_Node000001" class="edge">
<title>Node0&#45;&gt;Node1</title>
<g id="a_edge97_Node000000_Node000001"><a xlink:title=" ">
<path fill="none" stroke="#63b8ff" d="M183.16,-20.5C191.55,-20.5 200.12,-20.5 208.7,-20.5"/>
<polygon fill="#63b8ff" stroke="#63b8ff" points="183.01,-17 173.01,-20.5 183.01,-24 183.01,-17"/>
</a>
</g>
</g>
<!-- Node2 -->
<g id="Node000002" class="node">
<title>Node2</title>
<g id="a_Node000002"><a xlink:href="classopcua_1_1CreateSubscriptionResponse.html" target="_top" xlink:title="UA_CreateSubscriptionResponse wrapper class.">
<polygon fill="white" stroke="#666666" points="637,-35.5 493,-35.5 493,-5.5 637,-5.5 637,-35.5"/>
<text text-anchor="start" x="501" y="-23.5" font-family="Helvetica,sans-Serif" font-size="10.00">opcua::CreateSubscription</text>
<text text-anchor="middle" x="565" y="-12.5" font-family="Helvetica,sans-Serif" font-size="10.00">Response</text>
</a>
</g>
</g>
<!-- Node1&#45;&gt;Node2 -->
<g id="edge98_Node000001_Node000002" class="edge">
<title>Node1&#45;&gt;Node2</title>
<g id="a_edge98_Node000001_Node000002"><a xlink:title=" ">
<path fill="none" stroke="#63b8ff" d="M467.12,-20.5C475.96,-20.5 484.66,-20.5 492.99,-20.5"/>
<polygon fill="#63b8ff" stroke="#63b8ff" points="467.08,-17 457.08,-20.5 467.08,-24 467.08,-17"/>
</a>
</g>
</g>
</g>
</svg>
