<?xml version="1.0" encoding="UTF-8" standalone="no"?>
<!DOCTYPE svg PUBLIC "-//W3C//DTD SVG 1.1//EN"
 "http://www.w3.org/Graphics/SVG/1.1/DTD/svg11.dtd">
<!-- Generated by graphviz version 2.43.0 (0)
 -->
<!-- Title: Graphical Class Hierarchy Pages: 1 -->
<svg width="631pt" height="49pt"
 viewBox="0.00 0.00 631.00 49.00" xmlns="http://www.w3.org/2000/svg" xmlns:xlink="http://www.w3.org/1999/xlink">
<g id="graph0" class="graph" transform="scale(1 1) rotate(0) translate(4 45)">
<title>Graphical Class Hierarchy</title>
<!-- Node0 -->
<g id="Node000000" class="node">
<title>Node0</title>
<g id="a_Node000000"><a xlink:href="classopcua_1_1Wrapper.html" target="_top" xlink:title=" ">
<polygon fill="white" stroke="#666666" points="165,-35.5 0,-35.5 0,-5.5 165,-5.5 165,-35.5"/>
<text text-anchor="start" x="8" y="-23.5" font-family="Helvetica,sans-Serif" font-size="10.00">opcua::Wrapper&lt; UA</text>
<text text-anchor="middle" x="82.5" y="-12.5" font-family="Helvetica,sans-Serif" font-size="10.00">_CreateSubscriptionRequest &gt;</text>
</a>
</g>
</g>
<!-- Node1 -->
<g id="Node000001" class="node">
<title>Node1</title>
<g id="a_Node000001"><a xlink:href="classopcua_1_1TypeWrapper.html" target="_top" xlink:title=" ">
<polygon fill="white" stroke="#666666" points="443,-41 201,-41 201,0 443,0 443,-41"/>
<text text-anchor="start" x="209" y="-29" font-family="Helvetica,sans-Serif" font-size="10.00">opcua::TypeWrapper</text>
<text text-anchor="start" x="209" y="-18" font-family="Helvetica,sans-Serif" font-size="10.00">&lt; UA_CreateSubscriptionRequest,</text>
<text text-anchor="middle" x="322" y="-7" font-family="Helvetica,sans-Serif" font-size="10.00"> UA_TYPES_CREATESUBSCRIPTIONREQUEST &gt;</text>
</a>
</g>
</g>
<!-- Node0&#45;&gt;Node1 -->
<g id="edge92_Node000000_Node000001" class="edge">
<title>Node0&#45;&gt;Node1</title>
<g id="a_edge92_Node000000_Node000001"><a xlink:title=" ">
<path fill="none" stroke="#63b8ff" d="M175.36,-20.5C183.75,-20.5 192.32,-20.5 200.91,-20.5"/>
<polygon fill="#63b8ff" stroke="#63b8ff" points="175.23,-17 165.23,-20.5 175.23,-24 175.23,-17"/>
</a>
</g>
</g>
<!-- Node2 -->
<g id="Node000002" class="node">
<title>Node2</title>
<g id="a_Node000002"><a xlink:href="classopcua_1_1CreateSubscriptionRequest.html" target="_top" xlink:title="UA_CreateSubscriptionRequest wrapper class.">
<polygon fill="white" stroke="#666666" points="623,-35.5 479,-35.5 479,-5.5 623,-5.5 623,-35.5"/>
<text text-anchor="start" x="487" y="-23.5" font-family="Helvetica,sans-Serif" font-size="10.00">opcua::CreateSubscription</text>
<text text-anchor="middle" x="551" y="-12.5" font-family="Helvetica,sans-Serif" font-size="10.00">Request</text>
</a>
</g>
</g>
<!-- Node1&#45;&gt;Node2 -->
<g id="edge93_Node000001_Node000002" class="edge">
<title>Node1&#45;&gt;Node2</title>
<g id="a_edge93_Node000001_Node000002"><a xlink:title=" ">
<path fill="none" stroke="#63b8ff" d="M453.43,-20.5C462.14,-20.5 470.72,-20.5 478.96,-20.5"/>
<polygon fill="#63b8ff" stroke="#63b8ff" points="453.15,-17 443.15,-20.5 453.15,-24 453.15,-17"/>
</a>
</g>
</g>
</g>
</svg>
