<?xml version="1.0" encoding="UTF-8" standalone="no"?>
<!DOCTYPE svg PUBLIC "-//W3C//DTD SVG 1.1//EN"
 "http://www.w3.org/Graphics/SVG/1.1/DTD/svg11.dtd">
<!-- Generated by graphviz version 2.43.0 (0)
 -->
<!-- Title: Graphical Class Hierarchy Pages: 1 -->
<svg width="290pt" height="268pt"
 viewBox="0.00 0.00 290.00 267.50" xmlns="http://www.w3.org/2000/svg" xmlns:xlink="http://www.w3.org/1999/xlink">
<g id="graph0" class="graph" transform="scale(1 1) rotate(0) translate(4 263.5)">
<title>Graphical Class Hierarchy</title>
<!-- Node0 -->
<g id="Node000000" class="node">
<title>Node0</title>
<g id="a_Node000000"><a xlink:title=" ">
<polygon fill="#e0e0e0" stroke="#999999" points="89,-144.5 0,-144.5 0,-125.5 89,-125.5 89,-144.5"/>
<text text-anchor="middle" x="44.5" y="-132.5" font-family="Helvetica,sans-Serif" font-size="10.00">std::false_type</text>
</a>
</g>
</g>
<!-- Node1 -->
<g id="Node000001" class="node">
<title>Node1</title>
<g id="a_Node000001"><a xlink:href="structopcua_1_1IsBitmaskEnum.html" target="_top" xlink:title="Trait to define an enum (class) as a bitmask and allow bitwise operations.">
<polygon fill="white" stroke="#666666" points="282,-259.5 125,-259.5 125,-240.5 282,-240.5 282,-259.5"/>
<text text-anchor="middle" x="203.5" y="-247.5" font-family="Helvetica,sans-Serif" font-size="10.00">opcua::IsBitmaskEnum&lt; T &gt;</text>
</a>
</g>
</g>
<!-- Node0&#45;&gt;Node1 -->
<g id="edge87_Node000000_Node000001" class="edge">
<title>Node0&#45;&gt;Node1</title>
<g id="a_edge87_Node000000_Node000001"><a xlink:title=" ">
<path fill="none" stroke="#63b8ff" d="M55.66,-153.33C68.78,-175.23 93.69,-211.38 125,-231 131.22,-234.9 138.19,-238 145.33,-240.46"/>
<polygon fill="#63b8ff" stroke="#63b8ff" points="58.67,-151.54 50.63,-144.64 52.61,-155.04 58.67,-151.54"/>
</a>
</g>
</g>
<!-- Node2 -->
<g id="Node000002" class="node">
<title>Node2</title>
<g id="a_Node000002"><a xlink:href="structopcua_1_1detail_1_1AlwaysFalse.html" target="_top" xlink:title=" ">
<polygon fill="white" stroke="#666666" points="276.5,-222 130.5,-222 130.5,-192 276.5,-192 276.5,-222"/>
<text text-anchor="start" x="138.5" y="-210" font-family="Helvetica,sans-Serif" font-size="10.00">opcua::detail::AlwaysFalse</text>
<text text-anchor="middle" x="203.5" y="-199" font-family="Helvetica,sans-Serif" font-size="10.00">&lt;... &gt;</text>
</a>
</g>
</g>
<!-- Node0&#45;&gt;Node2 -->
<g id="edge88_Node000000_Node000002" class="edge">
<title>Node0&#45;&gt;Node2</title>
<g id="a_edge88_Node000000_Node000002"><a xlink:title=" ">
<path fill="none" stroke="#63b8ff" d="M67.4,-150.22C82.95,-160.51 104.59,-173.84 125,-183 132.33,-186.29 140.23,-189.3 148.09,-192"/>
<polygon fill="#63b8ff" stroke="#63b8ff" points="69.26,-147.25 59.01,-144.56 65.35,-153.05 69.26,-147.25"/>
</a>
</g>
</g>
<!-- Node3 -->
<g id="Node000003" class="node">
<title>Node3</title>
<g id="a_Node000003"><a xlink:href="structopcua_1_1detail_1_1IsContiguousContainer.html" target="_top" xlink:title=" ">
<polygon fill="white" stroke="#666666" points="278,-174 129,-174 129,-144 278,-144 278,-174"/>
<text text-anchor="start" x="137" y="-162" font-family="Helvetica,sans-Serif" font-size="10.00">opcua::detail::IsContiguous</text>
<text text-anchor="middle" x="203.5" y="-151" font-family="Helvetica,sans-Serif" font-size="10.00">Container&lt; T, typename &gt;</text>
</a>
</g>
</g>
<!-- Node0&#45;&gt;Node3 -->
<g id="edge89_Node000000_Node000003" class="edge">
<title>Node0&#45;&gt;Node3</title>
<g id="a_edge89_Node000000_Node000003"><a xlink:title=" ">
<path fill="none" stroke="#63b8ff" d="M99.34,-143.23C108.88,-144.69 118.96,-146.23 128.93,-147.75"/>
<polygon fill="#63b8ff" stroke="#63b8ff" points="99.65,-139.74 89.23,-141.69 98.59,-146.66 99.65,-139.74"/>
</a>
</g>
</g>
<!-- Node4 -->
<g id="Node000004" class="node">
<title>Node4</title>
<g id="a_Node000004"><a xlink:href="structopcua_1_1detail_1_1IsConvertibleType.html" target="_top" xlink:title=" ">
<polygon fill="white" stroke="#666666" points="278.5,-126 128.5,-126 128.5,-96 278.5,-96 278.5,-126"/>
<text text-anchor="start" x="136.5" y="-114" font-family="Helvetica,sans-Serif" font-size="10.00">opcua::detail::IsConvertible</text>
<text text-anchor="middle" x="203.5" y="-103" font-family="Helvetica,sans-Serif" font-size="10.00">Type&lt; T, typename &gt;</text>
</a>
</g>
</g>
<!-- Node0&#45;&gt;Node4 -->
<g id="edge90_Node000000_Node000004" class="edge">
<title>Node0&#45;&gt;Node4</title>
<g id="a_edge90_Node000000_Node000004"><a xlink:title=" ">
<path fill="none" stroke="#63b8ff" d="M99.19,-126.79C108.58,-125.36 118.5,-123.84 128.33,-122.34"/>
<polygon fill="#63b8ff" stroke="#63b8ff" points="98.59,-123.34 89.23,-128.31 99.65,-130.26 98.59,-123.34"/>
</a>
</g>
</g>
<!-- Node5 -->
<g id="Node000005" class="node">
<title>Node5</title>
<g id="a_Node000005"><a xlink:href="structopcua_1_1detail_1_1IsRegisteredType.html" target="_top" xlink:title=" ">
<polygon fill="white" stroke="#666666" points="276.5,-78 130.5,-78 130.5,-48 276.5,-48 276.5,-78"/>
<text text-anchor="start" x="138.5" y="-66" font-family="Helvetica,sans-Serif" font-size="10.00">opcua::detail::IsRegistered</text>
<text text-anchor="middle" x="203.5" y="-55" font-family="Helvetica,sans-Serif" font-size="10.00">Type&lt; T, typename &gt;</text>
</a>
</g>
</g>
<!-- Node0&#45;&gt;Node5 -->
<g id="edge91_Node000000_Node000005" class="edge">
<title>Node0&#45;&gt;Node5</title>
<g id="a_edge91_Node000000_Node000005"><a xlink:title=" ">
<path fill="none" stroke="#63b8ff" d="M67.4,-119.78C82.95,-109.49 104.59,-96.16 125,-87 132.33,-83.71 140.23,-80.7 148.09,-78"/>
<polygon fill="#63b8ff" stroke="#63b8ff" points="65.35,-116.95 59.01,-125.44 69.26,-122.75 65.35,-116.95"/>
</a>
</g>
</g>
<!-- Node6 -->
<g id="Node000006" class="node">
<title>Node6</title>
<g id="a_Node000006"><a xlink:href="structopcua_1_1detail_1_1IsSpan.html" target="_top" xlink:title=" ">
<polygon fill="white" stroke="#666666" points="262.5,-30 144.5,-30 144.5,0 262.5,0 262.5,-30"/>
<text text-anchor="start" x="152.5" y="-18" font-family="Helvetica,sans-Serif" font-size="10.00">opcua::detail::IsSpan</text>
<text text-anchor="middle" x="203.5" y="-7" font-family="Helvetica,sans-Serif" font-size="10.00">&lt; typename &gt;</text>
</a>
</g>
</g>
<!-- Node0&#45;&gt;Node6 -->
<g id="edge92_Node000000_Node000006" class="edge">
<title>Node0&#45;&gt;Node6</title>
<g id="a_edge92_Node000000_Node000006"><a xlink:title=" ">
<path fill="none" stroke="#63b8ff" d="M56.07,-116.65C69.44,-95.02 94.45,-59.44 125,-39 130.97,-35.01 137.64,-31.65 144.49,-28.84"/>
<polygon fill="#63b8ff" stroke="#63b8ff" points="53.06,-114.87 50.92,-125.24 59.06,-118.47 53.06,-114.87"/>
</a>
</g>
</g>
</g>
</svg>
