<?xml version="1.0" encoding="UTF-8" standalone="no"?>
<!DOCTYPE svg PUBLIC "-//W3C//DTD SVG 1.1//EN"
 "http://www.w3.org/Graphics/SVG/1.1/DTD/svg11.dtd">
<!-- Generated by graphviz version 2.43.0 (0)
 -->
<!-- Title: Graphical Class Hierarchy Pages: 1 -->
<svg width="633pt" height="49pt"
 viewBox="0.00 0.00 633.00 49.00" xmlns="http://www.w3.org/2000/svg" xmlns:xlink="http://www.w3.org/1999/xlink">
<g id="graph0" class="graph" transform="scale(1 1) rotate(0) translate(4 45)">
<title>Graphical Class Hierarchy</title>
<!-- Node0 -->
<g id="Node000000" class="node">
<title>Node0</title>
<g id="a_Node000000"><a xlink:href="classopcua_1_1Wrapper.html" target="_top" xlink:title=" ">
<polygon fill="white" stroke="#666666" points="119,-35.5 0,-35.5 0,-5.5 119,-5.5 119,-35.5"/>
<text text-anchor="start" x="8" y="-23.5" font-family="Helvetica,sans-Serif" font-size="10.00">opcua::Wrapper&lt; UA</text>
<text text-anchor="middle" x="59.5" y="-12.5" font-family="Helvetica,sans-Serif" font-size="10.00">_String &gt;</text>
</a>
</g>
</g>
<!-- Node1 -->
<g id="Node000001" class="node">
<title>Node1</title>
<g id="a_Node000001"><a xlink:href="classopcua_1_1TypeWrapper.html" target="_top" xlink:title=" ">
<polygon fill="white" stroke="#666666" points="297,-35.5 155,-35.5 155,-5.5 297,-5.5 297,-35.5"/>
<text text-anchor="start" x="163" y="-23.5" font-family="Helvetica,sans-Serif" font-size="10.00">opcua::TypeWrapper</text>
<text text-anchor="middle" x="226" y="-12.5" font-family="Helvetica,sans-Serif" font-size="10.00">&lt; UA_String, typeIndex &gt;</text>
</a>
</g>
</g>
<!-- Node0&#45;&gt;Node1 -->
<g id="edge225_Node000000_Node000001" class="edge">
<title>Node0&#45;&gt;Node1</title>
<g id="a_edge225_Node000000_Node000001"><a xlink:title=" ">
<path fill="none" stroke="#63b8ff" d="M129.56,-20.5C137.97,-20.5 146.56,-20.5 154.98,-20.5"/>
<polygon fill="#63b8ff" stroke="#63b8ff" points="129.42,-17 119.42,-20.5 129.42,-24 129.42,-17"/>
</a>
</g>
</g>
<!-- Node2 -->
<g id="Node000002" class="node">
<title>Node2</title>
<g id="a_Node000002"><a xlink:href="classopcua_1_1detail_1_1StringWrapper.html" target="_top" xlink:title=" ">
<polygon fill="white" stroke="#666666" points="509,-41 333,-41 333,0 509,0 509,-41"/>
<text text-anchor="start" x="341" y="-29" font-family="Helvetica,sans-Serif" font-size="10.00">opcua::detail::StringWrapper</text>
<text text-anchor="start" x="341" y="-18" font-family="Helvetica,sans-Serif" font-size="10.00">&lt; UA_String, UA_TYPES_STRING,</text>
<text text-anchor="middle" x="421" y="-7" font-family="Helvetica,sans-Serif" font-size="10.00"> char &gt;</text>
</a>
</g>
</g>
<!-- Node1&#45;&gt;Node2 -->
<g id="edge226_Node000001_Node000002" class="edge">
<title>Node1&#45;&gt;Node2</title>
<g id="a_edge226_Node000001_Node000002"><a xlink:title=" ">
<path fill="none" stroke="#63b8ff" d="M307.34,-20.5C315.72,-20.5 324.27,-20.5 332.72,-20.5"/>
<polygon fill="#63b8ff" stroke="#63b8ff" points="307.22,-17 297.22,-20.5 307.22,-24 307.22,-17"/>
</a>
</g>
</g>
<!-- Node3 -->
<g id="Node000003" class="node">
<title>Node3</title>
<g id="a_Node000003"><a xlink:href="classopcua_1_1String.html" target="_top" xlink:title="UA_String wrapper class.">
<polygon fill="white" stroke="#666666" points="625,-30 545,-30 545,-11 625,-11 625,-30"/>
<text text-anchor="middle" x="585" y="-18" font-family="Helvetica,sans-Serif" font-size="10.00">opcua::String</text>
</a>
</g>
</g>
<!-- Node2&#45;&gt;Node3 -->
<g id="edge227_Node000002_Node000003" class="edge">
<title>Node2&#45;&gt;Node3</title>
<g id="a_edge227_Node000002_Node000003"><a xlink:title=" ">
<path fill="none" stroke="#63b8ff" d="M519.29,-20.5C528.19,-20.5 536.8,-20.5 544.7,-20.5"/>
<polygon fill="#63b8ff" stroke="#63b8ff" points="519.16,-17 509.16,-20.5 519.16,-24 519.16,-17"/>
</a>
</g>
</g>
</g>
</svg>
