<?xml version="1.0" encoding="UTF-8" standalone="no"?>
<!DOCTYPE svg PUBLIC "-//W3C//DTD SVG 1.1//EN"
 "http://www.w3.org/Graphics/SVG/1.1/DTD/svg11.dtd">
<!-- Generated by graphviz version 2.43.0 (0)
 -->
<!-- Title: Graphical Class Hierarchy Pages: 1 -->
<svg width="667pt" height="49pt"
 viewBox="0.00 0.00 667.00 49.00" xmlns="http://www.w3.org/2000/svg" xmlns:xlink="http://www.w3.org/1999/xlink">
<g id="graph0" class="graph" transform="scale(1 1) rotate(0) translate(4 45)">
<title>Graphical Class Hierarchy</title>
<!-- Node0 -->
<g id="Node000000" class="node">
<title>Node0</title>
<g id="a_Node000000"><a xlink:href="classopcua_1_1Wrapper.html" target="_top" xlink:title=" ">
<polygon fill="white" stroke="#666666" points="177,-35.5 0,-35.5 0,-5.5 177,-5.5 177,-35.5"/>
<text text-anchor="start" x="8" y="-23.5" font-family="Helvetica,sans-Serif" font-size="10.00">opcua::Wrapper&lt; UA</text>
<text text-anchor="middle" x="88.5" y="-12.5" font-family="Helvetica,sans-Serif" font-size="10.00">_MonitoredItemCreateRequest &gt;</text>
</a>
</g>
</g>
<!-- Node1 -->
<g id="Node000001" class="node">
<title>Node1</title>
<g id="a_Node000001"><a xlink:href="classopcua_1_1TypeWrapper.html" target="_top" xlink:title=" ">
<polygon fill="white" stroke="#666666" points="467,-41 213,-41 213,0 467,0 467,-41"/>
<text text-anchor="start" x="221" y="-29" font-family="Helvetica,sans-Serif" font-size="10.00">opcua::TypeWrapper</text>
<text text-anchor="start" x="221" y="-18" font-family="Helvetica,sans-Serif" font-size="10.00">&lt; UA_MonitoredItemCreateRequest,</text>
<text text-anchor="middle" x="340" y="-7" font-family="Helvetica,sans-Serif" font-size="10.00"> UA_TYPES_MONITOREDITEMCREATEREQUEST &gt;</text>
</a>
</g>
</g>
<!-- Node0&#45;&gt;Node1 -->
<g id="edge161_Node000000_Node000001" class="edge">
<title>Node0&#45;&gt;Node1</title>
<g id="a_edge161_Node000000_Node000001"><a xlink:title=" ">
<path fill="none" stroke="#63b8ff" d="M187.2,-20.5C195.55,-20.5 204.07,-20.5 212.6,-20.5"/>
<polygon fill="#63b8ff" stroke="#63b8ff" points="187.11,-17 177.11,-20.5 187.11,-24 187.11,-17"/>
</a>
</g>
</g>
<!-- Node2 -->
<g id="Node000002" class="node">
<title>Node2</title>
<g id="a_Node000002"><a xlink:href="classopcua_1_1MonitoredItemCreateRequest.html" target="_top" xlink:title="UA_MonitoredItemCreateRequest wrapper class.">
<polygon fill="white" stroke="#666666" points="659,-35.5 503,-35.5 503,-5.5 659,-5.5 659,-35.5"/>
<text text-anchor="start" x="511" y="-23.5" font-family="Helvetica,sans-Serif" font-size="10.00">opcua::MonitoredItemCreate</text>
<text text-anchor="middle" x="581" y="-12.5" font-family="Helvetica,sans-Serif" font-size="10.00">Request</text>
</a>
</g>
</g>
<!-- Node1&#45;&gt;Node2 -->
<g id="edge162_Node000001_Node000002" class="edge">
<title>Node1&#45;&gt;Node2</title>
<g id="a_edge162_Node000001_Node000002"><a xlink:title=" ">
<path fill="none" stroke="#63b8ff" d="M477.34,-20.5C485.99,-20.5 494.51,-20.5 502.73,-20.5"/>
<polygon fill="#63b8ff" stroke="#63b8ff" points="477.15,-17 467.15,-20.5 477.15,-24 477.15,-17"/>
</a>
</g>
</g>
</g>
</svg>
