<?xml version="1.0" encoding="UTF-8" standalone="no"?>
<!DOCTYPE svg PUBLIC "-//W3C//DTD SVG 1.1//EN"
 "http://www.w3.org/Graphics/SVG/1.1/DTD/svg11.dtd">
<!-- Generated by graphviz version 2.43.0 (0)
 -->
<!-- Title: Graphical Class Hierarchy Pages: 1 -->
<svg width="303pt" height="86pt"
 viewBox="0.00 0.00 303.00 86.00" xmlns="http://www.w3.org/2000/svg" xmlns:xlink="http://www.w3.org/1999/xlink">
<g id="graph0" class="graph" transform="scale(1 1) rotate(0) translate(4 82)">
<title>Graphical Class Hierarchy</title>
<!-- Node0 -->
<g id="Node000000" class="node">
<title>Node0</title>
<g id="a_Node000000"><a xlink:href="structopcua_1_1services_1_1detail_1_1CallbackAdapter.html" target="_top" xlink:title="Helper class to map open62541 / C&#45;style callbacks to std::function objects.">
<polygon fill="white" stroke="#666666" points="126,-54 0,-54 0,-24 126,-24 126,-54"/>
<text text-anchor="start" x="8" y="-42" font-family="Helvetica,sans-Serif" font-size="10.00">opcua::services::detail</text>
<text text-anchor="middle" x="63" y="-31" font-family="Helvetica,sans-Serif" font-size="10.00">::CallbackAdapter</text>
</a>
</g>
</g>
<!-- Node1 -->
<g id="Node000001" class="node">
<title>Node1</title>
<g id="a_Node000001"><a xlink:href="structopcua_1_1services_1_1detail_1_1MonitoredItemContext.html" target="_top" xlink:title=" ">
<polygon fill="white" stroke="#666666" points="295,-78 162,-78 162,-48 295,-48 295,-78"/>
<text text-anchor="start" x="170" y="-66" font-family="Helvetica,sans-Serif" font-size="10.00">opcua::services::detail</text>
<text text-anchor="middle" x="228.5" y="-55" font-family="Helvetica,sans-Serif" font-size="10.00">::MonitoredItemContext</text>
</a>
</g>
</g>
<!-- Node0&#45;&gt;Node1 -->
<g id="edge27_Node000000_Node000001" class="edge">
<title>Node0&#45;&gt;Node1</title>
<g id="a_edge27_Node000000_Node000001"><a xlink:title=" ">
<path fill="none" stroke="#63b8ff" d="M136.21,-49.6C144.75,-50.85 153.42,-52.13 161.86,-53.36"/>
<polygon fill="#63b8ff" stroke="#63b8ff" points="136.68,-46.13 126.28,-48.14 135.66,-53.06 136.68,-46.13"/>
</a>
</g>
</g>
<!-- Node2 -->
<g id="Node000002" class="node">
<title>Node2</title>
<g id="a_Node000002"><a xlink:href="structopcua_1_1services_1_1detail_1_1SubscriptionContext.html" target="_top" xlink:title=" ">
<polygon fill="white" stroke="#666666" points="291.5,-30 165.5,-30 165.5,0 291.5,0 291.5,-30"/>
<text text-anchor="start" x="173.5" y="-18" font-family="Helvetica,sans-Serif" font-size="10.00">opcua::services::detail</text>
<text text-anchor="middle" x="228.5" y="-7" font-family="Helvetica,sans-Serif" font-size="10.00">::SubscriptionContext</text>
</a>
</g>
</g>
<!-- Node0&#45;&gt;Node2 -->
<g id="edge28_Node000000_Node000002" class="edge">
<title>Node0&#45;&gt;Node2</title>
<g id="a_edge28_Node000000_Node000002"><a xlink:title=" ">
<path fill="none" stroke="#63b8ff" d="M136.3,-28.39C146.01,-26.96 155.89,-25.51 165.39,-24.12"/>
<polygon fill="#63b8ff" stroke="#63b8ff" points="135.66,-24.94 126.28,-29.86 136.68,-31.87 135.66,-24.94"/>
</a>
</g>
</g>
</g>
</svg>
