<?xml version="1.0" encoding="UTF-8" standalone="no"?>
<!DOCTYPE svg PUBLIC "-//W3C//DTD SVG 1.1//EN"
 "http://www.w3.org/Graphics/SVG/1.1/DTD/svg11.dtd">
<!-- Generated by graphviz version 2.43.0 (0)
 -->
<!-- Title: Graphical Class Hierarchy Pages: 1 -->
<svg width="422pt" height="49pt"
 viewBox="0.00 0.00 422.00 49.00" xmlns="http://www.w3.org/2000/svg" xmlns:xlink="http://www.w3.org/1999/xlink">
<g id="graph0" class="graph" transform="scale(1 1) rotate(0) translate(4 45)">
<title>Graphical Class Hierarchy</title>
<!-- Node0 -->
<g id="Node000000" class="node">
<title>Node0</title>
<g id="a_Node000000"><a xlink:href="classopcua_1_1Wrapper.html" target="_top" xlink:title=" ">
<polygon fill="white" stroke="#666666" points="119,-35.5 0,-35.5 0,-5.5 119,-5.5 119,-35.5"/>
<text text-anchor="start" x="8" y="-23.5" font-family="Helvetica,sans-Serif" font-size="10.00">opcua::Wrapper&lt; UA</text>
<text text-anchor="middle" x="59.5" y="-12.5" font-family="Helvetica,sans-Serif" font-size="10.00">_Variant &gt;</text>
</a>
</g>
</g>
<!-- Node1 -->
<g id="Node000001" class="node">
<title>Node1</title>
<g id="a_Node000001"><a xlink:href="classopcua_1_1TypeWrapper.html" target="_top" xlink:title=" ">
<polygon fill="white" stroke="#666666" points="292,-41 155,-41 155,0 292,0 292,-41"/>
<text text-anchor="start" x="163" y="-29" font-family="Helvetica,sans-Serif" font-size="10.00">opcua::TypeWrapper</text>
<text text-anchor="start" x="163" y="-18" font-family="Helvetica,sans-Serif" font-size="10.00">&lt; UA_Variant, UA_TYPES</text>
<text text-anchor="middle" x="223.5" y="-7" font-family="Helvetica,sans-Serif" font-size="10.00">_VARIANT &gt;</text>
</a>
</g>
</g>
<!-- Node0&#45;&gt;Node1 -->
<g id="edge241_Node000000_Node000001" class="edge">
<title>Node0&#45;&gt;Node1</title>
<g id="a_edge241_Node000000_Node000001"><a xlink:title=" ">
<path fill="none" stroke="#63b8ff" d="M129.54,-20.5C137.91,-20.5 146.46,-20.5 154.81,-20.5"/>
<polygon fill="#63b8ff" stroke="#63b8ff" points="129.44,-17 119.44,-20.5 129.44,-24 129.44,-17"/>
</a>
</g>
</g>
<!-- Node2 -->
<g id="Node000002" class="node">
<title>Node2</title>
<g id="a_Node000002"><a xlink:href="classopcua_1_1Variant.html" target="_top" xlink:title="UA_Variant wrapper class.">
<polygon fill="white" stroke="#666666" points="414,-30 328,-30 328,-11 414,-11 414,-30"/>
<text text-anchor="middle" x="371" y="-18" font-family="Helvetica,sans-Serif" font-size="10.00">opcua::Variant</text>
</a>
</g>
</g>
<!-- Node1&#45;&gt;Node2 -->
<g id="edge242_Node000001_Node000002" class="edge">
<title>Node1&#45;&gt;Node2</title>
<g id="a_edge242_Node000001_Node000002"><a xlink:title=" ">
<path fill="none" stroke="#63b8ff" d="M302.42,-20.5C311.17,-20.5 319.82,-20.5 327.85,-20.5"/>
<polygon fill="#63b8ff" stroke="#63b8ff" points="302.14,-17 292.14,-20.5 302.14,-24 302.14,-17"/>
</a>
</g>
</g>
</g>
</svg>
