<?xml version="1.0" encoding="UTF-8" standalone="no"?>
<!DOCTYPE svg PUBLIC "-//W3C//DTD SVG 1.1//EN"
 "http://www.w3.org/Graphics/SVG/1.1/DTD/svg11.dtd">
<!-- Generated by graphviz version 2.43.0 (0)
 -->
<!-- Title: Graphical Class Hierarchy Pages: 1 -->
<svg width="581pt" height="49pt"
 viewBox="0.00 0.00 581.00 49.00" xmlns="http://www.w3.org/2000/svg" xmlns:xlink="http://www.w3.org/1999/xlink">
<g id="graph0" class="graph" transform="scale(1 1) rotate(0) translate(4 45)">
<title>Graphical Class Hierarchy</title>
<!-- Node0 -->
<g id="Node000000" class="node">
<title>Node0</title>
<g id="a_Node000000"><a xlink:href="classopcua_1_1Wrapper.html" target="_top" xlink:title=" ">
<polygon fill="white" stroke="#666666" points="132,-35.5 0,-35.5 0,-5.5 132,-5.5 132,-35.5"/>
<text text-anchor="start" x="8" y="-23.5" font-family="Helvetica,sans-Serif" font-size="10.00">opcua::Wrapper&lt; UA</text>
<text text-anchor="middle" x="66" y="-12.5" font-family="Helvetica,sans-Serif" font-size="10.00">_BrowseNextRequest &gt;</text>
</a>
</g>
</g>
<!-- Node1 -->
<g id="Node000001" class="node">
<title>Node1</title>
<g id="a_Node000001"><a xlink:href="classopcua_1_1TypeWrapper.html" target="_top" xlink:title=" ">
<polygon fill="white" stroke="#666666" points="368,-41 168,-41 168,0 368,0 368,-41"/>
<text text-anchor="start" x="176" y="-29" font-family="Helvetica,sans-Serif" font-size="10.00">opcua::TypeWrapper</text>
<text text-anchor="start" x="176" y="-18" font-family="Helvetica,sans-Serif" font-size="10.00">&lt; UA_BrowseNextRequest,</text>
<text text-anchor="middle" x="268" y="-7" font-family="Helvetica,sans-Serif" font-size="10.00"> UA_TYPES_BROWSENEXTREQUEST &gt;</text>
</a>
</g>
</g>
<!-- Node0&#45;&gt;Node1 -->
<g id="edge45_Node000000_Node000001" class="edge">
<title>Node0&#45;&gt;Node1</title>
<g id="a_edge45_Node000000_Node000001"><a xlink:title=" ">
<path fill="none" stroke="#63b8ff" d="M142.25,-20.5C150.6,-20.5 159.19,-20.5 167.77,-20.5"/>
<polygon fill="#63b8ff" stroke="#63b8ff" points="142.21,-17 132.21,-20.5 142.21,-24 142.21,-17"/>
</a>
</g>
</g>
<!-- Node2 -->
<g id="Node000002" class="node">
<title>Node2</title>
<g id="a_Node000002"><a xlink:href="classopcua_1_1ua_1_1BrowseNextRequest.html" target="_top" xlink:title="UA_BrowseNextRequest wrapper class.">
<polygon fill="white" stroke="#666666" points="573,-30 404,-30 404,-11 573,-11 573,-30"/>
<text text-anchor="middle" x="488.5" y="-18" font-family="Helvetica,sans-Serif" font-size="10.00">opcua::ua::BrowseNextRequest</text>
</a>
</g>
</g>
<!-- Node1&#45;&gt;Node2 -->
<g id="edge46_Node000001_Node000002" class="edge">
<title>Node1&#45;&gt;Node2</title>
<g id="a_edge46_Node000001_Node000002"><a xlink:title=" ">
<path fill="none" stroke="#63b8ff" d="M378.15,-20.5C386.78,-20.5 395.42,-20.5 403.84,-20.5"/>
<polygon fill="#63b8ff" stroke="#63b8ff" points="378.02,-17 368.02,-20.5 378.02,-24 378.02,-17"/>
</a>
</g>
</g>
</g>
</svg>
