<?xml version="1.0" encoding="UTF-8" standalone="no"?>
<!DOCTYPE svg PUBLIC "-//W3C//DTD SVG 1.1//EN"
 "http://www.w3.org/Graphics/SVG/1.1/DTD/svg11.dtd">
<!-- Generated by graphviz version 2.43.0 (0)
 -->
<!-- Title: Graphical Class Hierarchy Pages: 1 -->
<svg width="641pt" height="49pt"
 viewBox="0.00 0.00 641.00 49.00" xmlns="http://www.w3.org/2000/svg" xmlns:xlink="http://www.w3.org/1999/xlink">
<g id="graph0" class="graph" transform="scale(1 1) rotate(0) translate(4 45)">
<title>Graphical Class Hierarchy</title>
<!-- Node0 -->
<g id="Node000000" class="node">
<title>Node0</title>
<g id="a_Node000000"><a xlink:href="classopcua_1_1Wrapper.html" target="_top" xlink:title=" ">
<polygon fill="white" stroke="#666666" points="173,-35.5 0,-35.5 0,-5.5 173,-5.5 173,-35.5"/>
<text text-anchor="start" x="8" y="-23.5" font-family="Helvetica,sans-Serif" font-size="10.00">opcua::Wrapper&lt; UA</text>
<text text-anchor="middle" x="86.5" y="-12.5" font-family="Helvetica,sans-Serif" font-size="10.00">_DoubleComplexNumberType &gt;</text>
</a>
</g>
</g>
<!-- Node1 -->
<g id="Node000001" class="node">
<title>Node1</title>
<g id="a_Node000001"><a xlink:href="classopcua_1_1TypeWrapper.html" target="_top" xlink:title=" ">
<polygon fill="white" stroke="#666666" points="449,-41 209,-41 209,0 449,0 449,-41"/>
<text text-anchor="start" x="217" y="-29" font-family="Helvetica,sans-Serif" font-size="10.00">opcua::TypeWrapper</text>
<text text-anchor="start" x="217" y="-18" font-family="Helvetica,sans-Serif" font-size="10.00">&lt; UA_DoubleComplexNumberType,</text>
<text text-anchor="middle" x="329" y="-7" font-family="Helvetica,sans-Serif" font-size="10.00"> UA_TYPES_DOUBLECOMPLEXNUMBERTYPE &gt;</text>
</a>
</g>
</g>
<!-- Node0&#45;&gt;Node1 -->
<g id="edge118_Node000000_Node000001" class="edge">
<title>Node0&#45;&gt;Node1</title>
<g id="a_edge118_Node000000_Node000001"><a xlink:title=" ">
<path fill="none" stroke="#63b8ff" d="M183.35,-20.5C191.67,-20.5 200.14,-20.5 208.61,-20.5"/>
<polygon fill="#63b8ff" stroke="#63b8ff" points="183.31,-17 173.31,-20.5 183.31,-24 183.31,-17"/>
</a>
</g>
</g>
<!-- Node2 -->
<g id="Node000002" class="node">
<title>Node2</title>
<g id="a_Node000002"><a xlink:href="classopcua_1_1ua_1_1DoubleComplexNumberType.html" target="_top" xlink:title="UA_DoubleComplexNumberType wrapper class.">
<polygon fill="white" stroke="#666666" points="633,-35.5 485,-35.5 485,-5.5 633,-5.5 633,-35.5"/>
<text text-anchor="start" x="493" y="-23.5" font-family="Helvetica,sans-Serif" font-size="10.00">opcua::ua::DoubleComplex</text>
<text text-anchor="middle" x="559" y="-12.5" font-family="Helvetica,sans-Serif" font-size="10.00">NumberType</text>
</a>
</g>
</g>
<!-- Node1&#45;&gt;Node2 -->
<g id="edge119_Node000001_Node000002" class="edge">
<title>Node1&#45;&gt;Node2</title>
<g id="a_edge119_Node000001_Node000002"><a xlink:title=" ">
<path fill="none" stroke="#63b8ff" d="M459.27,-20.5C467.98,-20.5 476.56,-20.5 484.82,-20.5"/>
<polygon fill="#63b8ff" stroke="#63b8ff" points="459.01,-17 449.01,-20.5 459.01,-24 459.01,-17"/>
</a>
</g>
</g>
</g>
</svg>
