<?xml version="1.0" encoding="UTF-8" standalone="no"?>
<!DOCTYPE svg PUBLIC "-//W3C//DTD SVG 1.1//EN"
 "http://www.w3.org/Graphics/SVG/1.1/DTD/svg11.dtd">
<!-- Generated by graphviz version 2.43.0 (0)
 -->
<!-- Title: Graphical Class Hierarchy Pages: 1 -->
<svg width="308pt" height="86pt"
 viewBox="0.00 0.00 308.00 86.00" xmlns="http://www.w3.org/2000/svg" xmlns:xlink="http://www.w3.org/1999/xlink">
<g id="graph0" class="graph" transform="scale(1 1) rotate(0) translate(4 82)">
<title>Graphical Class Hierarchy</title>
<!-- Node0 -->
<g id="Node000000" class="node">
<title>Node0</title>
<g id="a_Node000000"><a xlink:href="structopcua_1_1services_1_1detail_1_1CallbackAdapter.html" target="_top" xlink:title="Helper class to map open62541 / C&#45;style callbacks to std::function objects.">
<polygon fill="white" stroke="#666666" points="128.5,-76 2.5,-76 2.5,-46 128.5,-46 128.5,-76"/>
<text text-anchor="start" x="10.5" y="-64" font-family="Helvetica,sans-Serif" font-size="10.00">opcua::services::detail</text>
<text text-anchor="middle" x="65.5" y="-53" font-family="Helvetica,sans-Serif" font-size="10.00">::CallbackAdapter</text>
</a>
</g>
</g>
<!-- Node1 -->
<g id="Node000001" class="node">
<title>Node1</title>
<g id="a_Node000001"><a xlink:href="structopcua_1_1services_1_1detail_1_1MonitoredItemContext.html" target="_top" xlink:title=" ">
<polygon fill="white" stroke="#666666" points="300,-78 167,-78 167,-48 300,-48 300,-78"/>
<text text-anchor="start" x="175" y="-66" font-family="Helvetica,sans-Serif" font-size="10.00">opcua::services::detail</text>
<text text-anchor="middle" x="233.5" y="-55" font-family="Helvetica,sans-Serif" font-size="10.00">::MonitoredItemContext</text>
</a>
</g>
</g>
<!-- Node0&#45;&gt;Node1 -->
<g id="edge24_Node000000_Node000001" class="edge">
<title>Node0&#45;&gt;Node1</title>
<g id="a_edge24_Node000000_Node000001"><a xlink:title=" ">
<path fill="none" stroke="#63b8ff" d="M138.8,-61.87C148.11,-61.98 157.61,-62.1 166.82,-62.21"/>
<polygon fill="#63b8ff" stroke="#63b8ff" points="138.83,-58.37 128.78,-61.75 138.74,-65.37 138.83,-58.37"/>
</a>
</g>
</g>
<!-- Node3 -->
<g id="Node000003" class="node">
<title>Node3</title>
<g id="a_Node000003"><a xlink:href="structopcua_1_1services_1_1detail_1_1SubscriptionContext.html" target="_top" xlink:title=" ">
<polygon fill="white" stroke="#666666" points="296.5,-30 170.5,-30 170.5,0 296.5,0 296.5,-30"/>
<text text-anchor="start" x="178.5" y="-18" font-family="Helvetica,sans-Serif" font-size="10.00">opcua::services::detail</text>
<text text-anchor="middle" x="233.5" y="-7" font-family="Helvetica,sans-Serif" font-size="10.00">::SubscriptionContext</text>
</a>
</g>
</g>
<!-- Node0&#45;&gt;Node3 -->
<g id="edge25_Node000000_Node000003" class="edge">
<title>Node0&#45;&gt;Node3</title>
<g id="a_edge25_Node000000_Node000003"><a xlink:title=" ">
<path fill="none" stroke="#63b8ff" d="M130.53,-43.26C146.31,-38.89 163.05,-34.25 178.31,-30.02"/>
<polygon fill="#63b8ff" stroke="#63b8ff" points="129.56,-39.89 120.85,-45.94 131.43,-46.64 129.56,-39.89"/>
</a>
</g>
</g>
<!-- Node2 -->
<g id="Node000002" class="node">
<title>Node2</title>
<g id="a_Node000002"><a xlink:href="structopcua_1_1detail_1_1Staleable.html" target="_top" xlink:title="Object that can mark itself as stale (to be removed).">
<polygon fill="white" stroke="#666666" points="131,-26.5 0,-26.5 0,-7.5 131,-7.5 131,-26.5"/>
<text text-anchor="middle" x="65.5" y="-14.5" font-family="Helvetica,sans-Serif" font-size="10.00">opcua::detail::Staleable</text>
</a>
</g>
</g>
<!-- Node2&#45;&gt;Node1 -->
<g id="edge26_Node000002_Node000001" class="edge">
<title>Node2&#45;&gt;Node1</title>
<g id="a_edge26_Node000002_Node000001"><a xlink:title=" ">
<path fill="none" stroke="#63b8ff" d="M110.71,-29.25C131.44,-35 156.35,-41.9 178.22,-47.96"/>
<polygon fill="#63b8ff" stroke="#63b8ff" points="111.47,-25.83 100.9,-26.53 109.6,-32.57 111.47,-25.83"/>
</a>
</g>
</g>
<!-- Node2&#45;&gt;Node3 -->
<g id="edge27_Node000002_Node000003" class="edge">
<title>Node2&#45;&gt;Node3</title>
<g id="a_edge27_Node000002_Node000003"><a xlink:title=" ">
<path fill="none" stroke="#63b8ff" d="M141.26,-16.1C151.02,-15.98 160.94,-15.86 170.47,-15.75"/>
<polygon fill="#63b8ff" stroke="#63b8ff" points="141.11,-12.6 131.16,-16.22 141.2,-19.6 141.11,-12.6"/>
</a>
</g>
</g>
</g>
</svg>
