<?xml version="1.0" encoding="UTF-8" standalone="no"?>
<!DOCTYPE svg PUBLIC "-//W3C//DTD SVG 1.1//EN"
 "http://www.w3.org/Graphics/SVG/1.1/DTD/svg11.dtd">
<!-- Generated by graphviz version 2.43.0 (0)
 -->
<!-- Title: Graphical Class Hierarchy Pages: 1 -->
<svg width="462pt" height="49pt"
 viewBox="0.00 0.00 462.00 49.00" xmlns="http://www.w3.org/2000/svg" xmlns:xlink="http://www.w3.org/1999/xlink">
<g id="graph0" class="graph" transform="scale(1 1) rotate(0) translate(4 45)">
<title>Graphical Class Hierarchy</title>
<!-- Node0 -->
<g id="Node000000" class="node">
<title>Node0</title>
<g id="a_Node000000"><a xlink:href="classopcua_1_1Wrapper.html" target="_top" xlink:title=" ">
<polygon fill="white" stroke="#666666" points="119,-35.5 0,-35.5 0,-5.5 119,-5.5 119,-35.5"/>
<text text-anchor="start" x="8" y="-23.5" font-family="Helvetica,sans-Serif" font-size="10.00">opcua::Wrapper&lt; UA</text>
<text text-anchor="middle" x="59.5" y="-12.5" font-family="Helvetica,sans-Serif" font-size="10.00">_BrowsePath &gt;</text>
</a>
</g>
</g>
<!-- Node1 -->
<g id="Node000001" class="node">
<title>Node1</title>
<g id="a_Node000001"><a xlink:href="classopcua_1_1TypeWrapper.html" target="_top" xlink:title=" ">
<polygon fill="white" stroke="#666666" points="291,-41 155,-41 155,0 291,0 291,-41"/>
<text text-anchor="start" x="163" y="-29" font-family="Helvetica,sans-Serif" font-size="10.00">opcua::TypeWrapper</text>
<text text-anchor="start" x="163" y="-18" font-family="Helvetica,sans-Serif" font-size="10.00">&lt; UA_BrowsePath, UA</text>
<text text-anchor="middle" x="223" y="-7" font-family="Helvetica,sans-Serif" font-size="10.00">_TYPES_BROWSEPATH &gt;</text>
</a>
</g>
</g>
<!-- Node0&#45;&gt;Node1 -->
<g id="edge47_Node000000_Node000001" class="edge">
<title>Node0&#45;&gt;Node1</title>
<g id="a_edge47_Node000000_Node000001"><a xlink:title=" ">
<path fill="none" stroke="#63b8ff" d="M129.41,-20.5C137.82,-20.5 146.41,-20.5 154.8,-20.5"/>
<polygon fill="#63b8ff" stroke="#63b8ff" points="129.26,-17 119.26,-20.5 129.26,-24 129.26,-17"/>
</a>
</g>
</g>
<!-- Node2 -->
<g id="Node000002" class="node">
<title>Node2</title>
<g id="a_Node000002"><a xlink:href="classopcua_1_1ua_1_1BrowsePath.html" target="_top" xlink:title="UA_BrowsePath wrapper class.">
<polygon fill="white" stroke="#666666" points="454,-30 327,-30 327,-11 454,-11 454,-30"/>
<text text-anchor="middle" x="390.5" y="-18" font-family="Helvetica,sans-Serif" font-size="10.00">opcua::ua::BrowsePath</text>
</a>
</g>
</g>
<!-- Node1&#45;&gt;Node2 -->
<g id="edge48_Node000001_Node000002" class="edge">
<title>Node1&#45;&gt;Node2</title>
<g id="a_edge48_Node000001_Node000002"><a xlink:title=" ">
<path fill="none" stroke="#63b8ff" d="M301.57,-20.5C310.02,-20.5 318.54,-20.5 326.78,-20.5"/>
<polygon fill="#63b8ff" stroke="#63b8ff" points="301.32,-17 291.32,-20.5 301.32,-24 301.32,-17"/>
</a>
</g>
</g>
</g>
</svg>
