<?xml version="1.0" encoding="UTF-8" standalone="no"?>
<!DOCTYPE svg PUBLIC "-//W3C//DTD SVG 1.1//EN"
 "http://www.w3.org/Graphics/SVG/1.1/DTD/svg11.dtd">
<!-- Generated by graphviz version 2.43.0 (0)
 -->
<!-- Title: Graphical Class Hierarchy Pages: 1 -->
<svg width="579pt" height="49pt"
 viewBox="0.00 0.00 579.00 49.00" xmlns="http://www.w3.org/2000/svg" xmlns:xlink="http://www.w3.org/1999/xlink">
<g id="graph0" class="graph" transform="scale(1 1) rotate(0) translate(4 45)">
<title>Graphical Class Hierarchy</title>
<!-- Node0 -->
<g id="Node000000" class="node">
<title>Node0</title>
<g id="a_Node000000"><a xlink:href="classopcua_1_1Wrapper.html" target="_top" xlink:title=" ">
<polygon fill="white" stroke="#666666" points="144,-35.5 0,-35.5 0,-5.5 144,-5.5 144,-35.5"/>
<text text-anchor="start" x="8" y="-23.5" font-family="Helvetica,sans-Serif" font-size="10.00">opcua::Wrapper&lt; UA</text>
<text text-anchor="middle" x="72" y="-12.5" font-family="Helvetica,sans-Serif" font-size="10.00">_RegisterNodesRequest &gt;</text>
</a>
</g>
</g>
<!-- Node1 -->
<g id="Node000001" class="node">
<title>Node1</title>
<g id="a_Node000001"><a xlink:href="classopcua_1_1TypeWrapper.html" target="_top" xlink:title=" ">
<polygon fill="white" stroke="#666666" points="394,-41 180,-41 180,0 394,0 394,-41"/>
<text text-anchor="start" x="188" y="-29" font-family="Helvetica,sans-Serif" font-size="10.00">opcua::TypeWrapper</text>
<text text-anchor="start" x="188" y="-18" font-family="Helvetica,sans-Serif" font-size="10.00">&lt; UA_RegisterNodesRequest,</text>
<text text-anchor="middle" x="287" y="-7" font-family="Helvetica,sans-Serif" font-size="10.00"> UA_TYPES_REGISTERNODESREQUEST &gt;</text>
</a>
</g>
</g>
<!-- Node0&#45;&gt;Node1 -->
<g id="edge178_Node000000_Node000001" class="edge">
<title>Node0&#45;&gt;Node1</title>
<g id="a_edge178_Node000000_Node000001"><a xlink:title=" ">
<path fill="none" stroke="#63b8ff" d="M154.33,-20.5C162.71,-20.5 171.32,-20.5 179.92,-20.5"/>
<polygon fill="#63b8ff" stroke="#63b8ff" points="154.22,-17 144.22,-20.5 154.22,-24 154.22,-17"/>
</a>
</g>
</g>
<!-- Node2 -->
<g id="Node000002" class="node">
<title>Node2</title>
<g id="a_Node000002"><a xlink:href="classopcua_1_1ua_1_1RegisterNodesRequest.html" target="_top" xlink:title="UA_RegisterNodesRequest wrapper class.">
<polygon fill="white" stroke="#666666" points="571,-35.5 430,-35.5 430,-5.5 571,-5.5 571,-35.5"/>
<text text-anchor="start" x="438" y="-23.5" font-family="Helvetica,sans-Serif" font-size="10.00">opcua::ua::RegisterNodes</text>
<text text-anchor="middle" x="500.5" y="-12.5" font-family="Helvetica,sans-Serif" font-size="10.00">Request</text>
</a>
</g>
</g>
<!-- Node1&#45;&gt;Node2 -->
<g id="edge179_Node000001_Node000002" class="edge">
<title>Node1&#45;&gt;Node2</title>
<g id="a_edge179_Node000001_Node000002"><a xlink:title=" ">
<path fill="none" stroke="#63b8ff" d="M404.31,-20.5C413.01,-20.5 421.62,-20.5 429.89,-20.5"/>
<polygon fill="#63b8ff" stroke="#63b8ff" points="404.06,-17 394.06,-20.5 404.06,-24 404.06,-17"/>
</a>
</g>
</g>
</g>
</svg>
