<?xml version="1.0" encoding="UTF-8" standalone="no"?>
<!DOCTYPE svg PUBLIC "-//W3C//DTD SVG 1.1//EN"
 "http://www.w3.org/Graphics/SVG/1.1/DTD/svg11.dtd">
<!-- Generated by graphviz version 2.43.0 (0)
 -->
<!-- Title: Graphical Class Hierarchy Pages: 1 -->
<svg width="270pt" height="294pt"
 viewBox="0.00 0.00 270.00 294.00" xmlns="http://www.w3.org/2000/svg" xmlns:xlink="http://www.w3.org/1999/xlink">
<g id="graph0" class="graph" transform="scale(1 1) rotate(0) translate(4 290)">
<title>Graphical Class Hierarchy</title>
<!-- Node0 -->
<g id="node1" class="node">
<title>Node0</title>
<g id="a_node1"><a xlink:href="classopcua_1_1Node.html" target="_top" xlink:title=" ">
<polygon fill="none" stroke="black" points="0,-133.5 0,-152.5 77,-152.5 77,-133.5 0,-133.5"/>
<text text-anchor="middle" x="38.5" y="-140.5" font-family="Helvetica,sans-Serif" font-size="10.00">opcua::Node</text>
</a>
</g>
</g>
<!-- Node1 -->
<g id="node2" class="node">
<title>Node1</title>
<g id="a_node2"><a xlink:href="classopcua_1_1DataTypeNode.html" target="_top" xlink:title=" ">
<polygon fill="none" stroke="black" points="126,-266.5 126,-285.5 249,-285.5 249,-266.5 126,-266.5"/>
<text text-anchor="middle" x="187.5" y="-273.5" font-family="Helvetica,sans-Serif" font-size="10.00">opcua::DataTypeNode</text>
</a>
</g>
</g>
<!-- Node0&#45;&gt;Node1 -->
<g id="edge1" class="edge">
<title>Node0&#45;&gt;Node1</title>
<path fill="none" stroke="midnightblue" d="M46.59,-162.04C57.1,-187.61 79.28,-232.64 113,-257 118.34,-260.86 124.4,-263.93 130.69,-266.39"/>
<polygon fill="midnightblue" stroke="midnightblue" points="49.82,-160.71 42.91,-152.69 43.31,-163.27 49.82,-160.71"/>
</g>
<!-- Node2 -->
<g id="node3" class="node">
<title>Node2</title>
<g id="a_node3"><a xlink:href="classopcua_1_1MethodeNode.html" target="_top" xlink:title=" ">
<polygon fill="none" stroke="black" points="127.5,-228.5 127.5,-247.5 247.5,-247.5 247.5,-228.5 127.5,-228.5"/>
<text text-anchor="middle" x="187.5" y="-235.5" font-family="Helvetica,sans-Serif" font-size="10.00">opcua::MethodeNode</text>
</a>
</g>
</g>
<!-- Node0&#45;&gt;Node2 -->
<g id="edge2" class="edge">
<title>Node0&#45;&gt;Node2</title>
<path fill="none" stroke="midnightblue" d="M52.03,-160.78C65.23,-178.19 87.61,-204.21 113,-219 119.61,-222.85 126.99,-225.93 134.46,-228.39"/>
<polygon fill="midnightblue" stroke="midnightblue" points="54.73,-158.55 45.99,-152.56 49.09,-162.69 54.73,-158.55"/>
</g>
<!-- Node3 -->
<g id="node4" class="node">
<title>Node3</title>
<g id="a_node4"><a xlink:href="classopcua_1_1ObjectNode.html" target="_top" xlink:title=" ">
<polygon fill="none" stroke="black" points="133,-190.5 133,-209.5 242,-209.5 242,-190.5 133,-190.5"/>
<text text-anchor="middle" x="187.5" y="-197.5" font-family="Helvetica,sans-Serif" font-size="10.00">opcua::ObjectNode</text>
</a>
</g>
</g>
<!-- Node0&#45;&gt;Node3 -->
<g id="edge3" class="edge">
<title>Node0&#45;&gt;Node3</title>
<path fill="none" stroke="midnightblue" d="M64.32,-157.61C78.27,-165.36 96.21,-174.58 113,-181 122.48,-184.62 132.91,-187.79 142.85,-190.44"/>
<polygon fill="midnightblue" stroke="midnightblue" points="65.79,-154.42 55.37,-152.53 62.34,-160.51 65.79,-154.42"/>
</g>
<!-- Node4 -->
<g id="node5" class="node">
<title>Node4</title>
<g id="a_node5"><a xlink:href="classopcua_1_1ObjectTypeNode.html" target="_top" xlink:title=" ">
<polygon fill="none" stroke="black" points="122,-152.5 122,-171.5 253,-171.5 253,-152.5 122,-152.5"/>
<text text-anchor="middle" x="187.5" y="-159.5" font-family="Helvetica,sans-Serif" font-size="10.00">opcua::ObjectTypeNode</text>
</a>
</g>
</g>
<!-- Node0&#45;&gt;Node4 -->
<g id="edge4" class="edge">
<title>Node0&#45;&gt;Node4</title>
<path fill="none" stroke="midnightblue" d="M87.59,-149.22C98.57,-150.64 110.42,-152.17 121.97,-153.66"/>
<polygon fill="midnightblue" stroke="midnightblue" points="87.72,-145.7 77.36,-147.89 86.82,-152.65 87.72,-145.7"/>
</g>
<!-- Node5 -->
<g id="node6" class="node">
<title>Node5</title>
<g id="a_node6"><a xlink:href="classopcua_1_1ReferenceTypeNode.html" target="_top" xlink:title=" ">
<polygon fill="none" stroke="black" points="113,-114.5 113,-133.5 262,-133.5 262,-114.5 113,-114.5"/>
<text text-anchor="middle" x="187.5" y="-121.5" font-family="Helvetica,sans-Serif" font-size="10.00">opcua::ReferenceTypeNode</text>
</a>
</g>
</g>
<!-- Node0&#45;&gt;Node5 -->
<g id="edge5" class="edge">
<title>Node0&#45;&gt;Node5</title>
<path fill="none" stroke="midnightblue" d="M87.38,-136.81C95.53,-135.76 104.15,-134.64 112.78,-133.53"/>
<polygon fill="midnightblue" stroke="midnightblue" points="86.82,-133.35 77.36,-138.11 87.72,-140.3 86.82,-133.35"/>
</g>
<!-- Node6 -->
<g id="node7" class="node">
<title>Node6</title>
<g id="a_node7"><a xlink:href="classopcua_1_1VariableNode.html" target="_top" xlink:title=" ">
<polygon fill="none" stroke="black" points="129,-76.5 129,-95.5 246,-95.5 246,-76.5 129,-76.5"/>
<text text-anchor="middle" x="187.5" y="-83.5" font-family="Helvetica,sans-Serif" font-size="10.00">opcua::VariableNode</text>
</a>
</g>
</g>
<!-- Node0&#45;&gt;Node6 -->
<g id="edge6" class="edge">
<title>Node0&#45;&gt;Node6</title>
<path fill="none" stroke="midnightblue" d="M64.32,-128.39C78.27,-120.64 96.21,-111.42 113,-105 122.48,-101.38 132.91,-98.21 142.85,-95.56"/>
<polygon fill="midnightblue" stroke="midnightblue" points="62.34,-125.49 55.37,-133.47 65.79,-131.58 62.34,-125.49"/>
</g>
<!-- Node7 -->
<g id="node8" class="node">
<title>Node7</title>
<g id="a_node8"><a xlink:href="classopcua_1_1VariableTypeNode.html" target="_top" xlink:title=" ">
<polygon fill="none" stroke="black" points="117.5,-38.5 117.5,-57.5 257.5,-57.5 257.5,-38.5 117.5,-38.5"/>
<text text-anchor="middle" x="187.5" y="-45.5" font-family="Helvetica,sans-Serif" font-size="10.00">opcua::VariableTypeNode</text>
</a>
</g>
</g>
<!-- Node0&#45;&gt;Node7 -->
<g id="edge7" class="edge">
<title>Node0&#45;&gt;Node7</title>
<path fill="none" stroke="midnightblue" d="M52.03,-125.22C65.23,-107.81 87.61,-81.79 113,-67 119.61,-63.15 126.99,-60.07 134.46,-57.61"/>
<polygon fill="midnightblue" stroke="midnightblue" points="49.09,-123.31 45.99,-133.44 54.73,-127.45 49.09,-123.31"/>
</g>
<!-- Node8 -->
<g id="node9" class="node">
<title>Node8</title>
<g id="a_node9"><a xlink:href="classopcua_1_1ViewNode.html" target="_top" xlink:title=" ">
<polygon fill="none" stroke="black" points="137,-0.5 137,-19.5 238,-19.5 238,-0.5 137,-0.5"/>
<text text-anchor="middle" x="187.5" y="-7.5" font-family="Helvetica,sans-Serif" font-size="10.00">opcua::ViewNode</text>
</a>
</g>
</g>
<!-- Node0&#45;&gt;Node8 -->
<g id="edge8" class="edge">
<title>Node0&#45;&gt;Node8</title>
<path fill="none" stroke="midnightblue" d="M46.59,-123.96C57.1,-98.39 79.28,-53.36 113,-29 120.05,-23.91 128.35,-20.18 136.79,-17.45"/>
<polygon fill="midnightblue" stroke="midnightblue" points="43.31,-122.73 42.91,-133.31 49.82,-125.29 43.31,-122.73"/>
</g>
</g>
</svg>
