<?xml version="1.0" encoding="UTF-8" standalone="no"?>
<!DOCTYPE svg PUBLIC "-//W3C//DTD SVG 1.1//EN"
 "http://www.w3.org/Graphics/SVG/1.1/DTD/svg11.dtd">
<!-- Generated by graphviz version 2.43.0 (0)
 -->
<!-- Title: /home/runner/work/open62541pp/open62541pp/include/open62541pp/plugin/log.hpp Pages: 1 -->
<svg width="1278pt" height="291pt"
 viewBox="0.00 0.00 1278.20 291.00" xmlns="http://www.w3.org/2000/svg" xmlns:xlink="http://www.w3.org/1999/xlink">
<g id="graph0" class="graph" transform="scale(1 1) rotate(0) translate(4 287)">
<title>/home/runner/work/open62541pp/open62541pp/include/open62541pp/plugin/log.hpp</title>
<!-- Node1 -->
<g id="Node000001" class="node">
<title>Node1</title>
<g id="a_Node000001"><a xlink:title=" ">
<polygon fill="#999999" stroke="#666666" points="791.5,-283 598.5,-283 598.5,-242 791.5,-242 791.5,-283"/>
<text text-anchor="start" x="606.5" y="-271" font-family="Helvetica,sans-Serif" font-size="10.00">/home/runner/work/open62541pp</text>
<text text-anchor="start" x="606.5" y="-260" font-family="Helvetica,sans-Serif" font-size="10.00">/open62541pp/include/open62541pp</text>
<text text-anchor="middle" x="695" y="-249" font-family="Helvetica,sans-Serif" font-size="10.00">/plugin/log.hpp</text>
</a>
</g>
</g>
<!-- Node2 -->
<g id="Node000002" class="node">
<title>Node2</title>
<g id="a_Node000002"><a xlink:title=" ">
<polygon fill="#e0e0e0" stroke="#999999" points="612.5,-200.5 539.5,-200.5 539.5,-181.5 612.5,-181.5 612.5,-200.5"/>
<text text-anchor="middle" x="576" y="-188.5" font-family="Helvetica,sans-Serif" font-size="10.00">string_view</text>
</a>
</g>
</g>
<!-- Node1&#45;&gt;Node2 -->
<g id="edge1_Node000001_Node000002" class="edge">
<title>Node1&#45;&gt;Node2</title>
<g id="a_edge1_Node000001_Node000002"><a xlink:title=" ">
<path fill="none" stroke="#63b8ff" d="M661.54,-241.96C641.81,-230.44 617.34,-216.14 599.63,-205.8"/>
<polygon fill="#63b8ff" stroke="#63b8ff" points="600.96,-202.52 590.56,-200.5 597.43,-208.57 600.96,-202.52"/>
</a>
</g>
</g>
<!-- Node3 -->
<g id="Node000003" class="node">
<title>Node3</title>
<g id="a_Node000003"><a xlink:href="common_8h.html" target="_top" xlink:title=" ">
<polygon fill="white" stroke="#666666" points="759,-206 631,-206 631,-176 759,-176 759,-206"/>
<text text-anchor="start" x="639" y="-194" font-family="Helvetica,sans-Serif" font-size="10.00">open62541pp/detail</text>
<text text-anchor="middle" x="695" y="-183" font-family="Helvetica,sans-Serif" font-size="10.00">/open62541/common.h</text>
</a>
</g>
</g>
<!-- Node1&#45;&gt;Node3 -->
<g id="edge2_Node000001_Node000003" class="edge">
<title>Node1&#45;&gt;Node3</title>
<g id="a_edge2_Node000001_Node000003"><a xlink:title=" ">
<path fill="none" stroke="#63b8ff" d="M695,-241.77C695,-233.85 695,-224.63 695,-216.3"/>
<polygon fill="#63b8ff" stroke="#63b8ff" points="698.5,-216.04 695,-206.04 691.5,-216.04 698.5,-216.04"/>
</a>
</g>
</g>
<!-- Node16 -->
<g id="Node000016" class="node">
<title>Node16</title>
<g id="a_Node000016"><a xlink:href="pluginadapter_8hpp.html" target="_top" xlink:title=" ">
<polygon fill="white" stroke="#666666" points="893,-206 777,-206 777,-176 893,-176 893,-206"/>
<text text-anchor="start" x="785" y="-194" font-family="Helvetica,sans-Serif" font-size="10.00">open62541pp/plugin</text>
<text text-anchor="middle" x="835" y="-183" font-family="Helvetica,sans-Serif" font-size="10.00">/pluginadapter.hpp</text>
</a>
</g>
</g>
<!-- Node1&#45;&gt;Node16 -->
<g id="edge19_Node000001_Node000016" class="edge">
<title>Node1&#45;&gt;Node16</title>
<g id="a_edge19_Node000001_Node000016"><a xlink:title=" ">
<path fill="none" stroke="#63b8ff" d="M734.37,-241.96C754.11,-232.16 777.9,-220.35 797.39,-210.67"/>
<polygon fill="#63b8ff" stroke="#63b8ff" points="799.17,-213.69 806.57,-206.11 796.06,-207.42 799.17,-213.69"/>
</a>
</g>
</g>
<!-- Node4 -->
<g id="Node000004" class="node">
<title>Node4</title>
<g id="a_Node000004"><a xlink:title=" ">
<polygon fill="#e0e0e0" stroke="#999999" points="136,-140 0,-140 0,-121 136,-121 136,-140"/>
<text text-anchor="middle" x="68" y="-128" font-family="Helvetica,sans-Serif" font-size="10.00">open62541pp/config.hpp</text>
</a>
</g>
</g>
<!-- Node3&#45;&gt;Node4 -->
<g id="edge3_Node000003_Node000004" class="edge">
<title>Node3&#45;&gt;Node4</title>
<g id="a_edge3_Node000003_Node000004"><a xlink:title=" ">
<path fill="none" stroke="#63b8ff" d="M630.97,-177.3C627.94,-176.83 624.94,-176.39 622,-176 413.47,-148.14 359.54,-158.85 150,-140 148.9,-139.9 147.78,-139.8 146.66,-139.7"/>
<polygon fill="#63b8ff" stroke="#63b8ff" points="146.73,-136.19 136.44,-138.74 146.07,-143.16 146.73,-136.19"/>
</a>
</g>
</g>
<!-- Node5 -->
<g id="Node000005" class="node">
<title>Node5</title>
<g id="a_Node000005"><a xlink:href="push__options_8h.html" target="_top" xlink:title=" ">
<polygon fill="white" stroke="#666666" points="430,-30 280,-30 280,0 430,0 430,-30"/>
<text text-anchor="start" x="288" y="-18" font-family="Helvetica,sans-Serif" font-size="10.00">open62541pp/detail</text>
<text text-anchor="middle" x="355" y="-7" font-family="Helvetica,sans-Serif" font-size="10.00">/open62541/push_options.h</text>
</a>
</g>
</g>
<!-- Node3&#45;&gt;Node5 -->
<g id="edge4_Node000003_Node000005" class="edge">
<title>Node3&#45;&gt;Node5</title>
<g id="a_edge4_Node000003_Node000005"><a xlink:title=" ">
<path fill="none" stroke="#63b8ff" d="M630.97,-177.32C627.94,-176.84 624.94,-176.4 622,-176 573.51,-169.38 216.16,-175.99 183,-140 140.71,-94.1 229.88,-54.61 294.93,-33.17"/>
<polygon fill="#63b8ff" stroke="#63b8ff" points="296.29,-36.41 304.74,-30.01 294.15,-29.75 296.29,-36.41"/>
</a>
</g>
</g>
<!-- Node6 -->
<g id="Node000006" class="node">
<title>Node6</title>
<g id="a_Node000006"><a target="_blank" xlink:href="open62541/nodeids_8h.html" xlink:title=" ">
<polygon fill="white" stroke="#666666" points="313.5,-140 192.5,-140 192.5,-121 313.5,-121 313.5,-140"/>
<text text-anchor="middle" x="253" y="-128" font-family="Helvetica,sans-Serif" font-size="10.00">open62541/nodeids.h</text>
</a>
</g>
</g>
<!-- Node3&#45;&gt;Node6 -->
<g id="edge5_Node000003_Node000006" class="edge">
<title>Node3&#45;&gt;Node6</title>
<g id="a_edge5_Node000003_Node000006"><a xlink:title=" ">
<path fill="none" stroke="#63b8ff" d="M630.95,-177.45C627.93,-176.94 624.93,-176.46 622,-176 492.55,-155.85 457.03,-156.18 323.77,-140.2"/>
<polygon fill="#63b8ff" stroke="#63b8ff" points="323.93,-136.7 313.58,-138.97 323.09,-143.65 323.93,-136.7"/>
</a>
</g>
</g>
<!-- Node7 -->
<g id="Node000007" class="node">
<title>Node7</title>
<g id="a_Node000007"><a target="_blank" xlink:href="open62541/statuscodes_8h.html" xlink:title=" ">
<polygon fill="white" stroke="#666666" points="472.5,-140 331.5,-140 331.5,-121 472.5,-121 472.5,-140"/>
<text text-anchor="middle" x="402" y="-128" font-family="Helvetica,sans-Serif" font-size="10.00">open62541/statuscodes.h</text>
</a>
</g>
</g>
<!-- Node3&#45;&gt;Node7 -->
<g id="edge6_Node000003_Node000007" class="edge">
<title>Node3&#45;&gt;Node7</title>
<g id="a_edge6_Node000003_Node000007"><a xlink:title=" ">
<path fill="none" stroke="#63b8ff" d="M630.7,-177.16C577.9,-166.62 504.05,-151.88 454.7,-142.02"/>
<polygon fill="#63b8ff" stroke="#63b8ff" points="455.36,-138.58 444.87,-140.06 453.99,-145.45 455.36,-138.58"/>
</a>
</g>
</g>
<!-- Node8 -->
<g id="Node000008" class="node">
<title>Node8</title>
<g id="a_Node000008"><a target="_blank" xlink:href="open62541/types_8h.html" xlink:title=" ">
<polygon fill="white" stroke="#666666" points="750,-140 640,-140 640,-121 750,-121 750,-140"/>
<text text-anchor="middle" x="695" y="-128" font-family="Helvetica,sans-Serif" font-size="10.00">open62541/types.h</text>
</a>
</g>
</g>
<!-- Node3&#45;&gt;Node8 -->
<g id="edge7_Node000003_Node000008" class="edge">
<title>Node3&#45;&gt;Node8</title>
<g id="a_edge7_Node000003_Node000008"><a xlink:title=" ">
<path fill="none" stroke="#63b8ff" d="M689.12,-175.84C688.15,-168.21 687.99,-158.7 688.64,-150.45"/>
<polygon fill="#63b8ff" stroke="#63b8ff" points="692.14,-150.65 690.02,-140.27 685.21,-149.71 692.14,-150.65"/>
</a>
</g>
</g>
<!-- Node11 -->
<g id="Node000011" class="node">
<title>Node11</title>
<g id="a_Node000011"><a xlink:href="pop__options_8h.html" target="_top" xlink:title=" ">
<polygon fill="white" stroke="#666666" points="1096.5,-30 951.5,-30 951.5,0 1096.5,0 1096.5,-30"/>
<text text-anchor="start" x="959.5" y="-18" font-family="Helvetica,sans-Serif" font-size="10.00">open62541pp/detail</text>
<text text-anchor="middle" x="1024" y="-7" font-family="Helvetica,sans-Serif" font-size="10.00">/open62541/pop_options.h</text>
</a>
</g>
</g>
<!-- Node3&#45;&gt;Node11 -->
<g id="edge18_Node000003_Node000011" class="edge">
<title>Node3&#45;&gt;Node11</title>
<g id="a_edge18_Node000003_Node000011"><a xlink:title=" ">
<path fill="none" stroke="#63b8ff" d="M759.03,-177.29C762.05,-176.82 765.06,-176.39 768,-176 822.01,-168.86 1219.92,-179.91 1257,-140 1309.33,-83.67 1192.98,-47.92 1106.58,-29.96"/>
<polygon fill="#63b8ff" stroke="#63b8ff" points="1107.23,-26.52 1096.73,-27.96 1105.84,-33.38 1107.23,-26.52"/>
</a>
</g>
</g>
<!-- Node12 -->
<g id="Node000012" class="node">
<title>Node12</title>
<g id="a_Node000012"><a target="_blank" xlink:href="open62541/types__generated_8h.html" xlink:title=" ">
<polygon fill="white" stroke="#666666" points="932,-140 768,-140 768,-121 932,-121 932,-140"/>
<text text-anchor="middle" x="850" y="-128" font-family="Helvetica,sans-Serif" font-size="10.00">open62541/types_generated.h</text>
</a>
</g>
</g>
<!-- Node3&#45;&gt;Node12 -->
<g id="edge13_Node000003_Node000012" class="edge">
<title>Node3&#45;&gt;Node12</title>
<g id="a_edge13_Node000003_Node000012"><a xlink:title=" ">
<path fill="none" stroke="#63b8ff" d="M732.13,-175.99C758.22,-166.14 792.78,-153.1 817.73,-143.68"/>
<polygon fill="#63b8ff" stroke="#63b8ff" points="818.99,-146.94 827.11,-140.14 816.52,-140.4 818.99,-146.94"/>
</a>
</g>
</g>
<!-- Node13 -->
<g id="Node000013" class="node">
<title>Node13</title>
<g id="a_Node000013"><a target="_blank" xlink:href="open62541/util_8h.html" xlink:title=" ">
<polygon fill="white" stroke="#666666" points="1048,-140 950,-140 950,-121 1048,-121 1048,-140"/>
<text text-anchor="middle" x="999" y="-128" font-family="Helvetica,sans-Serif" font-size="10.00">open62541/util.h</text>
</a>
</g>
</g>
<!-- Node3&#45;&gt;Node13 -->
<g id="edge14_Node000003_Node000013" class="edge">
<title>Node3&#45;&gt;Node13</title>
<g id="a_edge14_Node000003_Node000013"><a xlink:title=" ">
<path fill="none" stroke="#63b8ff" d="M759.1,-177.67C814.14,-167.07 892.6,-151.98 944.62,-141.97"/>
<polygon fill="#63b8ff" stroke="#63b8ff" points="945.5,-145.36 954.65,-140.03 944.17,-138.49 945.5,-145.36"/>
</a>
</g>
</g>
<!-- Node14 -->
<g id="Node000014" class="node">
<title>Node14</title>
<g id="a_Node000014"><a target="_blank" xlink:href="open62541/accesscontrol_8h.html" xlink:title=" ">
<polygon fill="white" stroke="#666666" points="1248,-140 1066,-140 1066,-121 1248,-121 1248,-140"/>
<text text-anchor="middle" x="1157" y="-128" font-family="Helvetica,sans-Serif" font-size="10.00">open62541/plugin/accesscontrol.h</text>
</a>
</g>
</g>
<!-- Node3&#45;&gt;Node14 -->
<g id="edge15_Node000003_Node000014" class="edge">
<title>Node3&#45;&gt;Node14</title>
<g id="a_edge15_Node000003_Node000014"><a xlink:title=" ">
<path fill="none" stroke="#63b8ff" d="M759.05,-177.43C762.07,-176.93 765.07,-176.45 768,-176 865.26,-161.13 976.91,-148.85 1055.57,-140.98"/>
<polygon fill="#63b8ff" stroke="#63b8ff" points="1056.35,-144.42 1065.96,-139.95 1055.66,-137.46 1056.35,-144.42"/>
</a>
</g>
</g>
<!-- Node15 -->
<g id="Node000015" class="node">
<title>Node15</title>
<g id="a_Node000015"><a target="_blank" xlink:href="open62541/log_8h.html" xlink:title=" ">
<polygon fill="white" stroke="#666666" points="621.5,-140 490.5,-140 490.5,-121 621.5,-121 621.5,-140"/>
<text text-anchor="middle" x="556" y="-128" font-family="Helvetica,sans-Serif" font-size="10.00">open62541/plugin/log.h</text>
</a>
</g>
</g>
<!-- Node3&#45;&gt;Node15 -->
<g id="edge16_Node000003_Node000015" class="edge">
<title>Node3&#45;&gt;Node15</title>
<g id="a_edge16_Node000003_Node000015"><a xlink:title=" ">
<path fill="none" stroke="#63b8ff" d="M661.71,-175.99C638.62,-166.27 608.13,-153.44 585.84,-144.06"/>
<polygon fill="#63b8ff" stroke="#63b8ff" points="587.1,-140.79 576.53,-140.14 584.39,-147.24 587.1,-140.79"/>
</a>
</g>
</g>
<!-- Node8&#45;&gt;Node3 -->
<g id="edge12_Node000008_Node000003" class="edge">
<title>Node8&#45;&gt;Node3</title>
<g id="a_edge12_Node000008_Node000003"><a xlink:title=" ">
<path fill="none" stroke="#63b8ff" d="M699.98,-140.27C701.42,-147.03 701.98,-156.72 701.66,-165.75"/>
<polygon fill="#63b8ff" stroke="#63b8ff" points="698.16,-165.6 700.88,-175.84 705.14,-166.14 698.16,-165.6"/>
</a>
</g>
</g>
<!-- Node9 -->
<g id="Node000009" class="node">
<title>Node9</title>
<g id="a_Node000009"><a xlink:href="config_8h.html" target="_top" xlink:title=" ">
<polygon fill="white" stroke="#666666" points="681,-85 569,-85 569,-66 681,-66 681,-85"/>
<text text-anchor="middle" x="625" y="-73" font-family="Helvetica,sans-Serif" font-size="10.00">open62541/config.h</text>
</a>
</g>
</g>
<!-- Node8&#45;&gt;Node9 -->
<g id="edge8_Node000008_Node000009" class="edge">
<title>Node8&#45;&gt;Node9</title>
<g id="a_edge8_Node000008_Node000009"><a xlink:title=" ">
<path fill="none" stroke="#63b8ff" d="M683.75,-120.98C673.2,-113 657.2,-100.88 644.56,-91.31"/>
<polygon fill="#63b8ff" stroke="#63b8ff" points="646.54,-88.42 636.45,-85.17 642.31,-94 646.54,-88.42"/>
</a>
</g>
</g>
<!-- Node9&#45;&gt;Node5 -->
<g id="edge9_Node000009_Node000005" class="edge">
<title>Node9&#45;&gt;Node5</title>
<g id="a_edge9_Node000009_Node000005"><a xlink:title=" ">
<path fill="none" stroke="#63b8ff" d="M585.74,-65.99C544.95,-57.16 480.13,-43.11 429.56,-32.16"/>
<polygon fill="#63b8ff" stroke="#63b8ff" points="430.17,-28.7 419.65,-30.01 428.68,-35.55 430.17,-28.7"/>
</a>
</g>
</g>
<!-- Node10 -->
<g id="Node000010" class="node">
<title>Node10</title>
<g id="a_Node000010"><a xlink:title=" ">
<polygon fill="#e0e0e0" stroke="#999999" points="681,-24.5 569,-24.5 569,-5.5 681,-5.5 681,-24.5"/>
<text text-anchor="middle" x="625" y="-12.5" font-family="Helvetica,sans-Serif" font-size="10.00">open62541/config.h</text>
</a>
</g>
</g>
<!-- Node9&#45;&gt;Node10 -->
<g id="edge10_Node000009_Node000010" class="edge">
<title>Node9&#45;&gt;Node10</title>
<g id="a_edge10_Node000009_Node000010"><a xlink:title=" ">
<path fill="none" stroke="#63b8ff" d="M625,-65.87C625,-57.75 625,-45.31 625,-34.89"/>
<polygon fill="#63b8ff" stroke="#63b8ff" points="628.5,-34.67 625,-24.67 621.5,-34.67 628.5,-34.67"/>
</a>
</g>
</g>
<!-- Node9&#45;&gt;Node11 -->
<g id="edge11_Node000009_Node000011" class="edge">
<title>Node9&#45;&gt;Node11</title>
<g id="a_edge11_Node000009_Node000011"><a xlink:title=" ">
<path fill="none" stroke="#63b8ff" d="M681.32,-66.24C749.06,-56.31 863.35,-39.55 941.15,-28.15"/>
<polygon fill="#63b8ff" stroke="#63b8ff" points="942.02,-31.56 951.4,-26.64 941,-24.63 942.02,-31.56"/>
</a>
</g>
</g>
<!-- Node15&#45;&gt;Node9 -->
<g id="edge17_Node000015_Node000009" class="edge">
<title>Node15&#45;&gt;Node9</title>
<g id="a_edge17_Node000015_Node000009"><a xlink:title=" ">
<path fill="none" stroke="#63b8ff" d="M567.09,-120.98C577.49,-113 593.26,-100.88 605.72,-91.31"/>
<polygon fill="#63b8ff" stroke="#63b8ff" points="607.91,-94.04 613.71,-85.17 603.65,-88.49 607.91,-94.04"/>
</a>
</g>
</g>
</g>
</svg>
