<?xml version="1.0" encoding="UTF-8" standalone="no"?>
<!DOCTYPE svg PUBLIC "-//W3C//DTD SVG 1.1//EN"
 "http://www.w3.org/Graphics/SVG/1.1/DTD/svg11.dtd">
<!-- Generated by graphviz version 2.43.0 (0)
 -->
<!-- Title: /home/runner/work/open62541pp/open62541pp/include/open62541pp/plugin/log.hpp Pages: 1 -->
<svg width="472pt" height="280pt"
 viewBox="0.00 0.00 471.90 280.00" xmlns="http://www.w3.org/2000/svg" xmlns:xlink="http://www.w3.org/1999/xlink">
<g id="graph0" class="graph" transform="scale(1 1) rotate(0) translate(4 276)">
<title>/home/runner/work/open62541pp/open62541pp/include/open62541pp/plugin/log.hpp</title>
<!-- Node1 -->
<g id="Node000001" class="node">
<title>Node1</title>
<g id="a_Node000001"><a xlink:title=" ">
<polygon fill="#999999" stroke="#666666" points="275.9,-272 82.9,-272 82.9,-231 275.9,-231 275.9,-272"/>
<text text-anchor="start" x="90.9" y="-260" font-family="Helvetica,sans-Serif" font-size="10.00">/home/runner/work/open62541pp</text>
<text text-anchor="start" x="90.9" y="-249" font-family="Helvetica,sans-Serif" font-size="10.00">/open62541pp/include/open62541pp</text>
<text text-anchor="middle" x="179.4" y="-238" font-family="Helvetica,sans-Serif" font-size="10.00">/plugin/log.hpp</text>
</a>
</g>
</g>
<!-- Node2 -->
<g id="Node000002" class="node">
<title>Node2</title>
<g id="a_Node000002"><a xlink:href="client_8hpp.html" target="_top" xlink:title=" ">
<polygon fill="white" stroke="#666666" points="213.9,-118 20.9,-118 20.9,-77 213.9,-77 213.9,-118"/>
<text text-anchor="start" x="28.9" y="-106" font-family="Helvetica,sans-Serif" font-size="10.00">/home/runner/work/open62541pp</text>
<text text-anchor="start" x="28.9" y="-95" font-family="Helvetica,sans-Serif" font-size="10.00">/open62541pp/include/open62541pp</text>
<text text-anchor="middle" x="117.4" y="-84" font-family="Helvetica,sans-Serif" font-size="10.00">/client.hpp</text>
</a>
</g>
</g>
<!-- Node1&#45;&gt;Node2 -->
<g id="edge1_Node000001_Node000002" class="edge">
<title>Node1&#45;&gt;Node2</title>
<g id="a_edge1_Node000001_Node000002"><a xlink:title=" ">
<path fill="none" stroke="#63b8ff" d="M154.67,-222.82C148.21,-214.38 141.82,-204.74 137.4,-195 126.02,-169.92 121.04,-138.22 118.92,-118.14"/>
<polygon fill="#63b8ff" stroke="#63b8ff" points="152.1,-225.21 161.08,-230.82 157.56,-220.83 152.1,-225.21"/>
</a>
</g>
</g>
<!-- Node3 -->
<g id="Node000003" class="node">
<title>Node3</title>
<g id="a_Node000003"><a xlink:href="open62541pp_8hpp.html" target="_top" xlink:title=" ">
<polygon fill="white" stroke="#666666" points="275.9,-41 82.9,-41 82.9,0 275.9,0 275.9,-41"/>
<text text-anchor="start" x="90.9" y="-29" font-family="Helvetica,sans-Serif" font-size="10.00">/home/runner/work/open62541pp</text>
<text text-anchor="start" x="90.9" y="-18" font-family="Helvetica,sans-Serif" font-size="10.00">/open62541pp/include/open62541pp</text>
<text text-anchor="middle" x="179.4" y="-7" font-family="Helvetica,sans-Serif" font-size="10.00">/open62541pp.hpp</text>
</a>
</g>
</g>
<!-- Node1&#45;&gt;Node3 -->
<g id="edge3_Node000001_Node000003" class="edge">
<title>Node1&#45;&gt;Node3</title>
<g id="a_edge3_Node000001_Node000003"><a xlink:title=" ">
<path fill="none" stroke="#63b8ff" d="M124.99,-226.41C61.07,-194.67 -31.2,-135.95 11.4,-77 28.23,-53.72 55.17,-40.05 82.6,-32.06"/>
<polygon fill="#63b8ff" stroke="#63b8ff" points="123.68,-229.66 134.2,-230.89 126.74,-223.37 123.68,-229.66"/>
</a>
</g>
</g>
<!-- Node4 -->
<g id="Node000004" class="node">
<title>Node4</title>
<g id="a_Node000004"><a xlink:href="log__default_8hpp.html" target="_top" xlink:title=" ">
<polygon fill="white" stroke="#666666" points="338.9,-195 145.9,-195 145.9,-154 338.9,-154 338.9,-195"/>
<text text-anchor="start" x="153.9" y="-183" font-family="Helvetica,sans-Serif" font-size="10.00">/home/runner/work/open62541pp</text>
<text text-anchor="start" x="153.9" y="-172" font-family="Helvetica,sans-Serif" font-size="10.00">/open62541pp/include/open62541pp</text>
<text text-anchor="middle" x="242.4" y="-161" font-family="Helvetica,sans-Serif" font-size="10.00">/plugin/log_default.hpp</text>
</a>
</g>
</g>
<!-- Node1&#45;&gt;Node4 -->
<g id="edge4_Node000001_Node000004" class="edge">
<title>Node1&#45;&gt;Node4</title>
<g id="a_edge4_Node000001_Node000004"><a xlink:title=" ">
<path fill="none" stroke="#63b8ff" d="M202.54,-222.95C210.31,-213.7 218.81,-203.58 225.96,-195.07"/>
<polygon fill="#63b8ff" stroke="#63b8ff" points="199.71,-220.89 195.96,-230.79 205.07,-225.39 199.71,-220.89"/>
</a>
</g>
</g>
<!-- Node5 -->
<g id="Node000005" class="node">
<title>Node5</title>
<g id="a_Node000005"><a xlink:href="server_8hpp.html" target="_top" xlink:title=" ">
<polygon fill="white" stroke="#666666" points="463.9,-118 270.9,-118 270.9,-77 463.9,-77 463.9,-118"/>
<text text-anchor="start" x="278.9" y="-106" font-family="Helvetica,sans-Serif" font-size="10.00">/home/runner/work/open62541pp</text>
<text text-anchor="start" x="278.9" y="-95" font-family="Helvetica,sans-Serif" font-size="10.00">/open62541pp/include/open62541pp</text>
<text text-anchor="middle" x="367.4" y="-84" font-family="Helvetica,sans-Serif" font-size="10.00">/server.hpp</text>
</a>
</g>
</g>
<!-- Node1&#45;&gt;Node5 -->
<g id="edge9_Node000001_Node000005" class="edge">
<title>Node1&#45;&gt;Node5</title>
<g id="a_edge9_Node000001_Node000005"><a xlink:title=" ">
<path fill="none" stroke="#63b8ff" d="M286.02,-234.11C309.41,-225.86 332.04,-213.5 348.4,-195 367.18,-173.76 369.59,-139.49 368.97,-118.02"/>
<polygon fill="#63b8ff" stroke="#63b8ff" points="284.74,-230.85 276.32,-237.29 286.92,-237.5 284.74,-230.85"/>
</a>
</g>
</g>
<!-- Node2&#45;&gt;Node3 -->
<g id="edge2_Node000002_Node000003" class="edge">
<title>Node2&#45;&gt;Node3</title>
<g id="a_edge2_Node000002_Node000003"><a xlink:title=" ">
<path fill="none" stroke="#63b8ff" d="M140.18,-68.95C147.82,-59.7 156.19,-49.58 163.22,-41.07"/>
<polygon fill="#63b8ff" stroke="#63b8ff" points="137.37,-66.86 133.69,-76.79 142.76,-71.32 137.37,-66.86"/>
</a>
</g>
</g>
<!-- Node4&#45;&gt;Node2 -->
<g id="edge5_Node000004_Node000002" class="edge">
<title>Node4&#45;&gt;Node2</title>
<g id="a_edge5_Node000004_Node000002"><a xlink:title=" ">
<path fill="none" stroke="#63b8ff" d="M200.98,-148.64C184.47,-138.74 165.73,-127.5 150.19,-118.17"/>
<polygon fill="#63b8ff" stroke="#63b8ff" points="199.51,-151.85 209.89,-153.99 203.11,-145.84 199.51,-151.85"/>
</a>
</g>
</g>
<!-- Node4&#45;&gt;Node3 -->
<g id="edge6_Node000004_Node000003" class="edge">
<title>Node4&#45;&gt;Node3</title>
<g id="a_edge6_Node000004_Node000003"><a xlink:title=" ">
<path fill="none" stroke="#63b8ff" d="M240.2,-143.6C237.88,-123.94 233.12,-98.06 223.4,-77 217.32,-63.83 207.5,-51 198.68,-41.01"/>
<polygon fill="#63b8ff" stroke="#63b8ff" points="236.74,-144.22 241.25,-153.81 243.71,-143.5 236.74,-144.22"/>
</a>
</g>
</g>
<!-- Node4&#45;&gt;Node5 -->
<g id="edge7_Node000004_Node000005" class="edge">
<title>Node4&#45;&gt;Node5</title>
<g id="a_edge7_Node000004_Node000005"><a xlink:title=" ">
<path fill="none" stroke="#63b8ff" d="M283.83,-148.64C300.34,-138.74 319.08,-127.5 334.62,-118.17"/>
<polygon fill="#63b8ff" stroke="#63b8ff" points="281.69,-145.84 274.92,-153.99 285.3,-151.85 281.69,-145.84"/>
</a>
</g>
</g>
<!-- Node5&#45;&gt;Node3 -->
<g id="edge8_Node000005_Node000003" class="edge">
<title>Node5&#45;&gt;Node3</title>
<g id="a_edge8_Node000005_Node000003"><a xlink:title=" ">
<path fill="none" stroke="#63b8ff" d="M309.17,-73.27C283.27,-62.94 253.11,-50.9 228.39,-41.04"/>
<polygon fill="#63b8ff" stroke="#63b8ff" points="307.91,-76.54 318.5,-76.99 310.51,-70.03 307.91,-76.54"/>
</a>
</g>
</g>
</g>
</svg>
