<?xml version="1.0" encoding="UTF-8" standalone="no"?>
<!DOCTYPE svg PUBLIC "-//W3C//DTD SVG 1.1//EN"
 "http://www.w3.org/Graphics/SVG/1.1/DTD/svg11.dtd">
<!-- Generated by graphviz version 2.43.0 (0)
 -->
<!-- Title: /home/runner/work/open62541pp/open62541pp/include/open62541pp/plugin/log.hpp Pages: 1 -->
<svg width="1108pt" height="291pt"
 viewBox="0.00 0.00 1107.67 291.00" xmlns="http://www.w3.org/2000/svg" xmlns:xlink="http://www.w3.org/1999/xlink">
<g id="graph0" class="graph" transform="scale(1 1) rotate(0) translate(4 287)">
<title>/home/runner/work/open62541pp/open62541pp/include/open62541pp/plugin/log.hpp</title>
<!-- Node1 -->
<g id="Node000001" class="node">
<title>Node1</title>
<g id="a_Node000001"><a xlink:title=" ">
<polygon fill="#999999" stroke="#666666" points="539.66,-283 346.66,-283 346.66,-242 539.66,-242 539.66,-283"/>
<text text-anchor="start" x="354.66" y="-271" font-family="Helvetica,sans-Serif" font-size="10.00">/home/runner/work/open62541pp</text>
<text text-anchor="start" x="354.66" y="-260" font-family="Helvetica,sans-Serif" font-size="10.00">/open62541pp/include/open62541pp</text>
<text text-anchor="middle" x="443.16" y="-249" font-family="Helvetica,sans-Serif" font-size="10.00">/plugin/log.hpp</text>
</a>
</g>
</g>
<!-- Node2 -->
<g id="Node000002" class="node">
<title>Node2</title>
<g id="a_Node000002"><a xlink:title=" ">
<polygon fill="#e0e0e0" stroke="#999999" points="360.66,-200.5 287.66,-200.5 287.66,-181.5 360.66,-181.5 360.66,-200.5"/>
<text text-anchor="middle" x="324.16" y="-188.5" font-family="Helvetica,sans-Serif" font-size="10.00">string_view</text>
</a>
</g>
</g>
<!-- Node1&#45;&gt;Node2 -->
<g id="edge1_Node000001_Node000002" class="edge">
<title>Node1&#45;&gt;Node2</title>
<g id="a_edge1_Node000001_Node000002"><a xlink:title=" ">
<path fill="none" stroke="#63b8ff" d="M409.69,-241.96C389.97,-230.44 365.5,-216.14 347.79,-205.8"/>
<polygon fill="#63b8ff" stroke="#63b8ff" points="349.12,-202.52 338.72,-200.5 345.59,-208.57 349.12,-202.52"/>
</a>
</g>
</g>
<!-- Node3 -->
<g id="Node000003" class="node">
<title>Node3</title>
<g id="a_Node000003"><a xlink:href="common_8h.html" target="_top" xlink:title=" ">
<polygon fill="white" stroke="#666666" points="507.16,-206 379.16,-206 379.16,-176 507.16,-176 507.16,-206"/>
<text text-anchor="start" x="387.16" y="-194" font-family="Helvetica,sans-Serif" font-size="10.00">open62541pp/detail</text>
<text text-anchor="middle" x="443.16" y="-183" font-family="Helvetica,sans-Serif" font-size="10.00">/open62541/common.h</text>
</a>
</g>
</g>
<!-- Node1&#45;&gt;Node3 -->
<g id="edge2_Node000001_Node000003" class="edge">
<title>Node1&#45;&gt;Node3</title>
<g id="a_edge2_Node000001_Node000003"><a xlink:title=" ">
<path fill="none" stroke="#63b8ff" d="M443.16,-241.77C443.16,-233.85 443.16,-224.63 443.16,-216.3"/>
<polygon fill="#63b8ff" stroke="#63b8ff" points="446.66,-216.04 443.16,-206.04 439.66,-216.04 446.66,-216.04"/>
</a>
</g>
</g>
<!-- Node15 -->
<g id="Node000015" class="node">
<title>Node15</title>
<g id="a_Node000015"><a xlink:href="pluginadapter_8hpp.html" target="_top" xlink:title=" ">
<polygon fill="white" stroke="#666666" points="641.16,-206 525.16,-206 525.16,-176 641.16,-176 641.16,-206"/>
<text text-anchor="start" x="533.16" y="-194" font-family="Helvetica,sans-Serif" font-size="10.00">open62541pp/plugin</text>
<text text-anchor="middle" x="583.16" y="-183" font-family="Helvetica,sans-Serif" font-size="10.00">/pluginadapter.hpp</text>
</a>
</g>
</g>
<!-- Node1&#45;&gt;Node15 -->
<g id="edge18_Node000001_Node000015" class="edge">
<title>Node1&#45;&gt;Node15</title>
<g id="a_edge18_Node000001_Node000015"><a xlink:title=" ">
<path fill="none" stroke="#63b8ff" d="M482.53,-241.96C502.26,-232.16 526.05,-220.35 545.54,-210.67"/>
<polygon fill="#63b8ff" stroke="#63b8ff" points="547.33,-213.69 554.73,-206.11 544.21,-207.42 547.33,-213.69"/>
</a>
</g>
</g>
<!-- Node4 -->
<g id="Node000004" class="node">
<title>Node4</title>
<g id="a_Node000004"><a xlink:href="push__options_8h.html" target="_top" xlink:title=" ">
<polygon fill="white" stroke="#666666" points="253.16,-30 103.16,-30 103.16,0 253.16,0 253.16,-30"/>
<text text-anchor="start" x="111.16" y="-18" font-family="Helvetica,sans-Serif" font-size="10.00">open62541pp/detail</text>
<text text-anchor="middle" x="178.16" y="-7" font-family="Helvetica,sans-Serif" font-size="10.00">/open62541/push_options.h</text>
</a>
</g>
</g>
<!-- Node3&#45;&gt;Node4 -->
<g id="edge3_Node000003_Node000004" class="edge">
<title>Node3&#45;&gt;Node4</title>
<g id="a_edge3_Node000003_Node000004"><a xlink:title=" ">
<path fill="none" stroke="#63b8ff" d="M379.04,-177.52C375.7,-176.98 372.39,-176.47 369.16,-176 290.02,-164.56 64.79,-199.3 11.16,-140 -29.97,-94.53 56.91,-54.83 120.1,-33.25"/>
<polygon fill="#63b8ff" stroke="#63b8ff" points="121.24,-36.55 129.62,-30.07 119.02,-29.92 121.24,-36.55"/>
</a>
</g>
</g>
<!-- Node5 -->
<g id="Node000005" class="node">
<title>Node5</title>
<g id="a_Node000005"><a target="_blank" xlink:href="open62541/nodeids_8h.html" xlink:title=" ">
<polygon fill="white" stroke="#666666" points="141.66,-140 20.66,-140 20.66,-121 141.66,-121 141.66,-140"/>
<text text-anchor="middle" x="81.16" y="-128" font-family="Helvetica,sans-Serif" font-size="10.00">open62541/nodeids.h</text>
</a>
</g>
</g>
<!-- Node3&#45;&gt;Node5 -->
<g id="edge4_Node000003_Node000005" class="edge">
<title>Node3&#45;&gt;Node5</title>
<g id="a_edge4_Node000003_Node000005"><a xlink:title=" ">
<path fill="none" stroke="#63b8ff" d="M379,-177.73C375.68,-177.13 372.38,-176.55 369.16,-176 294.6,-163.19 208.89,-150.16 150.49,-141.54"/>
<polygon fill="#63b8ff" stroke="#63b8ff" points="150.67,-138.03 140.27,-140.04 149.65,-144.96 150.67,-138.03"/>
</a>
</g>
</g>
<!-- Node6 -->
<g id="Node000006" class="node">
<title>Node6</title>
<g id="a_Node000006"><a target="_blank" xlink:href="open62541/statuscodes_8h.html" xlink:title=" ">
<polygon fill="white" stroke="#666666" points="300.66,-140 159.66,-140 159.66,-121 300.66,-121 300.66,-140"/>
<text text-anchor="middle" x="230.16" y="-128" font-family="Helvetica,sans-Serif" font-size="10.00">open62541/statuscodes.h</text>
</a>
</g>
</g>
<!-- Node3&#45;&gt;Node6 -->
<g id="edge5_Node000003_Node000006" class="edge">
<title>Node3&#45;&gt;Node6</title>
<g id="a_edge5_Node000003_Node000006"><a xlink:title=" ">
<path fill="none" stroke="#63b8ff" d="M392.14,-175.99C355.06,-165.8 305.53,-152.2 271.05,-142.73"/>
<polygon fill="#63b8ff" stroke="#63b8ff" points="271.87,-139.33 261.3,-140.05 270.02,-146.08 271.87,-139.33"/>
</a>
</g>
</g>
<!-- Node7 -->
<g id="Node000007" class="node">
<title>Node7</title>
<g id="a_Node000007"><a target="_blank" xlink:href="open62541/types_8h.html" xlink:title=" ">
<polygon fill="white" stroke="#666666" points="429.16,-140 319.16,-140 319.16,-121 429.16,-121 429.16,-140"/>
<text text-anchor="middle" x="374.16" y="-128" font-family="Helvetica,sans-Serif" font-size="10.00">open62541/types.h</text>
</a>
</g>
</g>
<!-- Node3&#45;&gt;Node7 -->
<g id="edge6_Node000003_Node000007" class="edge">
<title>Node3&#45;&gt;Node7</title>
<g id="a_edge6_Node000003_Node000007"><a xlink:title=" ">
<path fill="none" stroke="#63b8ff" d="M420.57,-175.84C409.37,-167.26 396.37,-156.3 386.85,-147.42"/>
<polygon fill="#63b8ff" stroke="#63b8ff" points="389.11,-144.74 379.51,-140.27 384.23,-149.75 389.11,-144.74"/>
</a>
</g>
</g>
<!-- Node10 -->
<g id="Node000010" class="node">
<title>Node10</title>
<g id="a_Node000010"><a xlink:href="pop__options_8h.html" target="_top" xlink:title=" ">
<polygon fill="white" stroke="#666666" points="920.66,-30 775.66,-30 775.66,0 920.66,0 920.66,-30"/>
<text text-anchor="start" x="783.66" y="-18" font-family="Helvetica,sans-Serif" font-size="10.00">open62541pp/detail</text>
<text text-anchor="middle" x="848.16" y="-7" font-family="Helvetica,sans-Serif" font-size="10.00">/open62541/pop_options.h</text>
</a>
</g>
</g>
<!-- Node3&#45;&gt;Node10 -->
<g id="edge17_Node000003_Node000010" class="edge">
<title>Node3&#45;&gt;Node10</title>
<g id="a_edge17_Node000003_Node000010"><a xlink:title=" ">
<path fill="none" stroke="#63b8ff" d="M507.18,-177.25C510.21,-176.79 513.21,-176.37 516.16,-176 579.11,-168.01 1042.72,-186.27 1086.16,-140 1139.97,-82.68 1019.43,-47.05 931.01,-29.42"/>
<polygon fill="#63b8ff" stroke="#63b8ff" points="931.42,-25.93 920.94,-27.46 930.09,-32.81 931.42,-25.93"/>
</a>
</g>
</g>
<!-- Node11 -->
<g id="Node000011" class="node">
<title>Node11</title>
<g id="a_Node000011"><a target="_blank" xlink:href="open62541/types__generated_8h.html" xlink:title=" ">
<polygon fill="white" stroke="#666666" points="761.16,-140 597.16,-140 597.16,-121 761.16,-121 761.16,-140"/>
<text text-anchor="middle" x="679.16" y="-128" font-family="Helvetica,sans-Serif" font-size="10.00">open62541/types_generated.h</text>
</a>
</g>
</g>
<!-- Node3&#45;&gt;Node11 -->
<g id="edge12_Node000003_Node000011" class="edge">
<title>Node3&#45;&gt;Node11</title>
<g id="a_edge12_Node000003_Node000011"><a xlink:title=" ">
<path fill="none" stroke="#63b8ff" d="M499.68,-175.99C541.12,-165.72 596.58,-151.97 634.83,-142.49"/>
<polygon fill="#63b8ff" stroke="#63b8ff" points="635.78,-145.86 644.65,-140.05 634.1,-139.06 635.78,-145.86"/>
</a>
</g>
</g>
<!-- Node12 -->
<g id="Node000012" class="node">
<title>Node12</title>
<g id="a_Node000012"><a target="_blank" xlink:href="open62541/util_8h.html" xlink:title=" ">
<polygon fill="white" stroke="#666666" points="877.16,-140 779.16,-140 779.16,-121 877.16,-121 877.16,-140"/>
<text text-anchor="middle" x="828.16" y="-128" font-family="Helvetica,sans-Serif" font-size="10.00">open62541/util.h</text>
</a>
</g>
</g>
<!-- Node3&#45;&gt;Node12 -->
<g id="edge13_Node000003_Node000012" class="edge">
<title>Node3&#45;&gt;Node12</title>
<g id="a_edge13_Node000003_Node000012"><a xlink:title=" ">
<path fill="none" stroke="#63b8ff" d="M507.22,-177.53C510.24,-177 513.23,-176.49 516.16,-176 625.44,-157.79 655.61,-156.34 768.98,-140.16"/>
<polygon fill="#63b8ff" stroke="#63b8ff" points="769.71,-143.59 779.11,-138.7 768.71,-136.66 769.71,-143.59"/>
</a>
</g>
</g>
<!-- Node13 -->
<g id="Node000013" class="node">
<title>Node13</title>
<g id="a_Node000013"><a target="_blank" xlink:href="open62541/accesscontrol_8h.html" xlink:title=" ">
<polygon fill="white" stroke="#666666" points="1077.16,-140 895.16,-140 895.16,-121 1077.16,-121 1077.16,-140"/>
<text text-anchor="middle" x="986.16" y="-128" font-family="Helvetica,sans-Serif" font-size="10.00">open62541/plugin/accesscontrol.h</text>
</a>
</g>
</g>
<!-- Node3&#45;&gt;Node13 -->
<g id="edge14_Node000003_Node000013" class="edge">
<title>Node3&#45;&gt;Node13</title>
<g id="a_edge14_Node000003_Node000013"><a xlink:title=" ">
<path fill="none" stroke="#63b8ff" d="M507.19,-177.36C510.22,-176.88 513.22,-176.42 516.16,-176 551.61,-170.93 757.7,-152.05 884.93,-140.57"/>
<polygon fill="#63b8ff" stroke="#63b8ff" points="885.44,-144.04 895.08,-139.65 884.81,-137.06 885.44,-144.04"/>
</a>
</g>
</g>
<!-- Node14 -->
<g id="Node000014" class="node">
<title>Node14</title>
<g id="a_Node000014"><a target="_blank" xlink:href="open62541/log_8h.html" xlink:title=" ">
<polygon fill="white" stroke="#666666" points="578.66,-140 447.66,-140 447.66,-121 578.66,-121 578.66,-140"/>
<text text-anchor="middle" x="513.16" y="-128" font-family="Helvetica,sans-Serif" font-size="10.00">open62541/plugin/log.h</text>
</a>
</g>
</g>
<!-- Node3&#45;&gt;Node14 -->
<g id="edge15_Node000003_Node000014" class="edge">
<title>Node3&#45;&gt;Node14</title>
<g id="a_edge15_Node000003_Node000014"><a xlink:title=" ">
<path fill="none" stroke="#63b8ff" d="M460.1,-175.84C470.57,-167.09 484.01,-155.85 494.75,-146.88"/>
<polygon fill="#63b8ff" stroke="#63b8ff" points="497.24,-149.36 502.67,-140.27 492.75,-143.99 497.24,-149.36"/>
</a>
</g>
</g>
<!-- Node7&#45;&gt;Node3 -->
<g id="edge11_Node000007_Node000003" class="edge">
<title>Node7&#45;&gt;Node3</title>
<g id="a_edge11_Node000007_Node000003"><a xlink:title=" ">
<path fill="none" stroke="#63b8ff" d="M389.48,-140.27C400.02,-147.83 413.78,-159.07 424.84,-168.96"/>
<polygon fill="#63b8ff" stroke="#63b8ff" points="422.6,-171.65 432.33,-175.84 427.34,-166.49 422.6,-171.65"/>
</a>
</g>
</g>
<!-- Node8 -->
<g id="Node000008" class="node">
<title>Node8</title>
<g id="a_Node000008"><a xlink:href="config_8h.html" target="_top" xlink:title=" ">
<polygon fill="white" stroke="#666666" points="499.16,-85 387.16,-85 387.16,-66 499.16,-66 499.16,-85"/>
<text text-anchor="middle" x="443.16" y="-73" font-family="Helvetica,sans-Serif" font-size="10.00">open62541/config.h</text>
</a>
</g>
</g>
<!-- Node7&#45;&gt;Node8 -->
<g id="edge7_Node000007_Node000008" class="edge">
<title>Node7&#45;&gt;Node8</title>
<g id="a_edge7_Node000007_Node000008"><a xlink:title=" ">
<path fill="none" stroke="#63b8ff" d="M385.24,-120.98C395.64,-113 411.42,-100.88 423.88,-91.31"/>
<polygon fill="#63b8ff" stroke="#63b8ff" points="426.07,-94.04 431.87,-85.17 421.81,-88.49 426.07,-94.04"/>
</a>
</g>
</g>
<!-- Node8&#45;&gt;Node4 -->
<g id="edge8_Node000008_Node000004" class="edge">
<title>Node8&#45;&gt;Node4</title>
<g id="a_edge8_Node000008_Node000004"><a xlink:title=" ">
<path fill="none" stroke="#63b8ff" d="M404.62,-65.99C364.67,-57.17 301.23,-43.17 251.65,-32.22"/>
<polygon fill="#63b8ff" stroke="#63b8ff" points="252.13,-28.75 241.61,-30.01 250.62,-35.58 252.13,-28.75"/>
</a>
</g>
</g>
<!-- Node9 -->
<g id="Node000009" class="node">
<title>Node9</title>
<g id="a_Node000009"><a xlink:title=" ">
<polygon fill="#e0e0e0" stroke="#999999" points="499.16,-24.5 387.16,-24.5 387.16,-5.5 499.16,-5.5 499.16,-24.5"/>
<text text-anchor="middle" x="443.16" y="-12.5" font-family="Helvetica,sans-Serif" font-size="10.00">open62541/config.h</text>
</a>
</g>
</g>
<!-- Node8&#45;&gt;Node9 -->
<g id="edge9_Node000008_Node000009" class="edge">
<title>Node8&#45;&gt;Node9</title>
<g id="a_edge9_Node000008_Node000009"><a xlink:title=" ">
<path fill="none" stroke="#63b8ff" d="M443.16,-65.87C443.16,-57.75 443.16,-45.31 443.16,-34.89"/>
<polygon fill="#63b8ff" stroke="#63b8ff" points="446.66,-34.67 443.16,-24.67 439.66,-34.67 446.66,-34.67"/>
</a>
</g>
</g>
<!-- Node8&#45;&gt;Node10 -->
<g id="edge10_Node000008_Node000010" class="edge">
<title>Node8&#45;&gt;Node10</title>
<g id="a_edge10_Node000008_Node000010"><a xlink:title=" ">
<path fill="none" stroke="#63b8ff" d="M499.47,-66.37C568.57,-56.39 686.28,-39.38 765.61,-27.92"/>
<polygon fill="#63b8ff" stroke="#63b8ff" points="766.17,-31.38 775.57,-26.49 765.17,-24.45 766.17,-31.38"/>
</a>
</g>
</g>
<!-- Node14&#45;&gt;Node8 -->
<g id="edge16_Node000014_Node000008" class="edge">
<title>Node14&#45;&gt;Node8</title>
<g id="a_edge16_Node000014_Node000008"><a xlink:title=" ">
<path fill="none" stroke="#63b8ff" d="M501.91,-120.98C491.36,-113 475.36,-100.88 462.71,-91.31"/>
<polygon fill="#63b8ff" stroke="#63b8ff" points="464.69,-88.42 454.61,-85.17 460.47,-94 464.69,-88.42"/>
</a>
</g>
</g>
</g>
</svg>
