<?xml version="1.0" encoding="UTF-8" standalone="no"?>
<!DOCTYPE svg PUBLIC "-//W3C//DTD SVG 1.1//EN"
 "http://www.w3.org/Graphics/SVG/1.1/DTD/svg11.dtd">
<!-- Generated by graphviz version 2.43.0 (0)
 -->
<!-- Title: /home/runner/work/open62541pp/open62541pp/include/open62541pp/Logger.h Pages: 1 -->
<svg width="329pt" height="284pt"
 viewBox="0.00 0.00 328.50 284.00" xmlns="http://www.w3.org/2000/svg" xmlns:xlink="http://www.w3.org/1999/xlink">
<g id="graph0" class="graph" transform="scale(1 1) rotate(0) translate(4 280)">
<title>/home/runner/work/open62541pp/open62541pp/include/open62541pp/Logger.h</title>
<!-- Node1 -->
<g id="node1" class="node">
<title>Node1</title>
<g id="a_node1"><a xlink:title=" ">
<polygon fill="#bfbfbf" stroke="black" points="24,-234.5 24,-275.5 217,-275.5 217,-234.5 24,-234.5"/>
<text text-anchor="start" x="32" y="-263.5" font-family="Helvetica,sans-Serif" font-size="10.00">/home/runner/work/open62541pp</text>
<text text-anchor="start" x="32" y="-252.5" font-family="Helvetica,sans-Serif" font-size="10.00">/open62541pp/include/open62541pp</text>
<text text-anchor="middle" x="120.5" y="-241.5" font-family="Helvetica,sans-Serif" font-size="10.00">/Logger.h</text>
</a>
</g>
</g>
<!-- Node2 -->
<g id="node2" class="node">
<title>Node2</title>
<g id="a_node2"><a xlink:href="open62541pp_8h.html" target="_top" xlink:title=" ">
<polygon fill="none" stroke="black" points="0,-0.5 0,-41.5 193,-41.5 193,-0.5 0,-0.5"/>
<text text-anchor="start" x="8" y="-29.5" font-family="Helvetica,sans-Serif" font-size="10.00">/home/runner/work/open62541pp</text>
<text text-anchor="start" x="8" y="-18.5" font-family="Helvetica,sans-Serif" font-size="10.00">/open62541pp/include/open62541pp</text>
<text text-anchor="middle" x="96.5" y="-7.5" font-family="Helvetica,sans-Serif" font-size="10.00">/open62541pp.h</text>
</a>
</g>
</g>
<!-- Node1&#45;&gt;Node2 -->
<g id="edge1" class="edge">
<title>Node1&#45;&gt;Node2</title>
<path fill="none" stroke="midnightblue" d="M93.88,-226.69C87.23,-218.17 81,-208.29 77.5,-198 59.02,-143.58 77.67,-74.75 89.08,-41.61"/>
<polygon fill="midnightblue" stroke="midnightblue" points="91.22,-228.97 100.31,-234.41 96.6,-224.49 91.22,-228.97"/>
</g>
<!-- Node3 -->
<g id="node3" class="node">
<title>Node3</title>
<g id="a_node3"><a xlink:href="Server_8h.html" target="_top" xlink:title=" ">
<polygon fill="none" stroke="black" points="87,-156.5 87,-197.5 280,-197.5 280,-156.5 87,-156.5"/>
<text text-anchor="start" x="95" y="-185.5" font-family="Helvetica,sans-Serif" font-size="10.00">/home/runner/work/open62541pp</text>
<text text-anchor="start" x="95" y="-174.5" font-family="Helvetica,sans-Serif" font-size="10.00">/open62541pp/include/open62541pp</text>
<text text-anchor="middle" x="183.5" y="-163.5" font-family="Helvetica,sans-Serif" font-size="10.00">/Server.h</text>
</a>
</g>
</g>
<!-- Node1&#45;&gt;Node3 -->
<g id="edge2" class="edge">
<title>Node1&#45;&gt;Node3</title>
<path fill="none" stroke="midnightblue" d="M143.19,-226.63C151.18,-216.99 159.99,-206.36 167.33,-197.51"/>
<polygon fill="midnightblue" stroke="midnightblue" points="140.41,-224.5 136.72,-234.43 145.8,-228.96 140.41,-224.5"/>
</g>
<!-- Node3&#45;&gt;Node2 -->
<g id="edge5" class="edge">
<title>Node3&#45;&gt;Node2</title>
<path fill="none" stroke="midnightblue" d="M143.13,-150.38C132.67,-141.9 122.42,-131.63 115.5,-120 101.06,-95.72 97.3,-62.63 96.48,-41.79"/>
<polygon fill="midnightblue" stroke="midnightblue" points="141.05,-153.19 151.12,-156.5 145.31,-147.64 141.05,-153.19"/>
</g>
<!-- Node4 -->
<g id="node4" class="node">
<title>Node4</title>
<g id="a_node4"><a xlink:href="Node_8h.html" target="_top" xlink:title=" ">
<polygon fill="none" stroke="black" points="124.5,-78.5 124.5,-119.5 320.5,-119.5 320.5,-78.5 124.5,-78.5"/>
<text text-anchor="start" x="132.5" y="-107.5" font-family="Helvetica,sans-Serif" font-size="10.00">/home/runner/work/open62541pp</text>
<text text-anchor="start" x="132.5" y="-96.5" font-family="Helvetica,sans-Serif" font-size="10.00">/open62541pp/include/open62541pp/</text>
<text text-anchor="middle" x="222.5" y="-85.5" font-family="Helvetica,sans-Serif" font-size="10.00">Node.h</text>
</a>
</g>
</g>
<!-- Node3&#45;&gt;Node4 -->
<g id="edge3" class="edge">
<title>Node3&#45;&gt;Node4</title>
<path fill="none" stroke="midnightblue" d="M198.14,-147.47C202.93,-138.14 208.13,-128.01 212.49,-119.51"/>
<polygon fill="midnightblue" stroke="midnightblue" points="195,-145.93 193.54,-156.43 201.22,-149.13 195,-145.93"/>
</g>
<!-- Node4&#45;&gt;Node2 -->
<g id="edge4" class="edge">
<title>Node4&#45;&gt;Node2</title>
<path fill="none" stroke="midnightblue" d="M181.39,-73.2C164.34,-62.92 144.84,-51.16 128.84,-41.51"/>
<polygon fill="midnightblue" stroke="midnightblue" points="179.68,-76.26 190.05,-78.43 183.3,-70.27 179.68,-76.26"/>
</g>
</g>
</svg>
