<?xml version="1.0" encoding="UTF-8" standalone="no"?>
<!DOCTYPE svg PUBLIC "-//W3C//DTD SVG 1.1//EN"
 "http://www.w3.org/Graphics/SVG/1.1/DTD/svg11.dtd">
<!-- Generated by graphviz version 2.43.0 (0)
 -->
<!-- Title: /home/runner/work/open62541pp/open62541pp/include/open62541pp/Logger.h Pages: 1 -->
<svg width="594pt" height="284pt"
 viewBox="0.00 0.00 593.50 284.00" xmlns="http://www.w3.org/2000/svg" xmlns:xlink="http://www.w3.org/1999/xlink">
<g id="graph0" class="graph" transform="scale(1 1) rotate(0) translate(4 280)">
<title>/home/runner/work/open62541pp/open62541pp/include/open62541pp/Logger.h</title>
<!-- Node1 -->
<g id="node1" class="node">
<title>Node1</title>
<g id="a_node1"><a xlink:title=" ">
<polygon fill="#bfbfbf" stroke="black" points="82,-234.5 82,-275.5 275,-275.5 275,-234.5 82,-234.5"/>
<text text-anchor="start" x="90" y="-263.5" font-family="Helvetica,sans-Serif" font-size="10.00">/home/runner/work/open62541pp</text>
<text text-anchor="start" x="90" y="-252.5" font-family="Helvetica,sans-Serif" font-size="10.00">/open62541pp/include/open62541pp</text>
<text text-anchor="middle" x="178.5" y="-241.5" font-family="Helvetica,sans-Serif" font-size="10.00">/Logger.h</text>
</a>
</g>
</g>
<!-- Node2 -->
<g id="node2" class="node">
<title>Node2</title>
<g id="a_node2"><a xlink:href="open62541pp_8h.html" target="_top" xlink:title=" ">
<polygon fill="none" stroke="black" points="0,-0.5 0,-41.5 193,-41.5 193,-0.5 0,-0.5"/>
<text text-anchor="start" x="8" y="-29.5" font-family="Helvetica,sans-Serif" font-size="10.00">/home/runner/work/open62541pp</text>
<text text-anchor="start" x="8" y="-18.5" font-family="Helvetica,sans-Serif" font-size="10.00">/open62541pp/include/open62541pp</text>
<text text-anchor="middle" x="96.5" y="-7.5" font-family="Helvetica,sans-Serif" font-size="10.00">/open62541pp.h</text>
</a>
</g>
</g>
<!-- Node1&#45;&gt;Node2 -->
<g id="edge1" class="edge">
<title>Node1&#45;&gt;Node2</title>
<path fill="none" stroke="midnightblue" d="M165.57,-225.16C161.84,-216.49 157.87,-206.91 154.5,-198 133.33,-142.03 112.3,-74.48 102.39,-41.73"/>
<polygon fill="midnightblue" stroke="midnightblue" points="162.43,-226.71 169.64,-234.47 168.85,-223.91 162.43,-226.71"/>
</g>
<!-- Node3 -->
<g id="node3" class="node">
<title>Node3</title>
<g id="a_node3"><a xlink:href="Server_8h.html" target="_top" xlink:title=" ">
<polygon fill="none" stroke="black" points="164,-156.5 164,-197.5 357,-197.5 357,-156.5 164,-156.5"/>
<text text-anchor="start" x="172" y="-185.5" font-family="Helvetica,sans-Serif" font-size="10.00">/home/runner/work/open62541pp</text>
<text text-anchor="start" x="172" y="-174.5" font-family="Helvetica,sans-Serif" font-size="10.00">/open62541pp/include/open62541pp</text>
<text text-anchor="middle" x="260.5" y="-163.5" font-family="Helvetica,sans-Serif" font-size="10.00">/Server.h</text>
</a>
</g>
</g>
<!-- Node1&#45;&gt;Node3 -->
<g id="edge2" class="edge">
<title>Node1&#45;&gt;Node3</title>
<path fill="none" stroke="midnightblue" d="M207.1,-227.49C217.74,-217.63 229.61,-206.63 239.45,-197.51"/>
<polygon fill="midnightblue" stroke="midnightblue" points="204.57,-225.06 199.62,-234.43 209.33,-230.2 204.57,-225.06"/>
</g>
<!-- Node3&#45;&gt;Node2 -->
<g id="edge7" class="edge">
<title>Node3&#45;&gt;Node2</title>
<path fill="none" stroke="midnightblue" d="M225.3,-150.37C213.29,-141.18 200.01,-130.49 188.5,-120 160.56,-94.54 131.14,-62.06 113.3,-41.64"/>
<polygon fill="midnightblue" stroke="midnightblue" points="223.28,-153.23 233.37,-156.47 227.5,-147.65 223.28,-153.23"/>
</g>
<!-- Node4 -->
<g id="node4" class="node">
<title>Node4</title>
<g id="a_node4"><a xlink:href="Node_8h.html" target="_top" xlink:title=" ">
<polygon fill="none" stroke="black" points="197.5,-78.5 197.5,-119.5 393.5,-119.5 393.5,-78.5 197.5,-78.5"/>
<text text-anchor="start" x="205.5" y="-107.5" font-family="Helvetica,sans-Serif" font-size="10.00">/home/runner/work/open62541pp</text>
<text text-anchor="start" x="205.5" y="-96.5" font-family="Helvetica,sans-Serif" font-size="10.00">/open62541pp/include/open62541pp/</text>
<text text-anchor="middle" x="295.5" y="-85.5" font-family="Helvetica,sans-Serif" font-size="10.00">Node.h</text>
</a>
</g>
</g>
<!-- Node3&#45;&gt;Node4 -->
<g id="edge3" class="edge">
<title>Node3&#45;&gt;Node4</title>
<path fill="none" stroke="midnightblue" d="M273.77,-147.17C278.03,-137.93 282.64,-127.92 286.52,-119.51"/>
<polygon fill="midnightblue" stroke="midnightblue" points="270.52,-145.88 269.51,-156.43 276.88,-148.81 270.52,-145.88"/>
</g>
<!-- Node6 -->
<g id="node6" class="node">
<title>Node6</title>
<g id="a_node6"><a xlink:href="Server_8cpp.html" target="_top" xlink:title=" ">
<polygon fill="none" stroke="black" points="407.5,-6 407.5,-36 585.5,-36 585.5,-6 407.5,-6"/>
<text text-anchor="start" x="415.5" y="-24" font-family="Helvetica,sans-Serif" font-size="10.00">/home/runner/work/open62541pp</text>
<text text-anchor="middle" x="496.5" y="-13" font-family="Helvetica,sans-Serif" font-size="10.00">/open62541pp/src/Server.cpp</text>
</a>
</g>
</g>
<!-- Node3&#45;&gt;Node6 -->
<g id="edge8" class="edge">
<title>Node3&#45;&gt;Node6</title>
<path fill="none" stroke="midnightblue" d="M336.47,-152.94C358.74,-144.4 382.47,-133.44 402.5,-120 437.94,-96.23 470.25,-57.08 486.15,-36.18"/>
<polygon fill="midnightblue" stroke="midnightblue" points="335.18,-149.69 327.03,-156.46 337.62,-156.25 335.18,-149.69"/>
</g>
<!-- Node4&#45;&gt;Node2 -->
<g id="edge4" class="edge">
<title>Node4&#45;&gt;Node2</title>
<path fill="none" stroke="midnightblue" d="M234.62,-74.75C206.76,-64.11 174.13,-51.65 147.57,-41.51"/>
<polygon fill="midnightblue" stroke="midnightblue" points="233.66,-78.13 244.25,-78.43 236.16,-71.59 233.66,-78.13"/>
</g>
<!-- Node5 -->
<g id="node5" class="node">
<title>Node5</title>
<g id="a_node5"><a xlink:href="Node_8cpp.html" target="_top" xlink:title=" ">
<polygon fill="none" stroke="black" points="211.5,-6 211.5,-36 389.5,-36 389.5,-6 211.5,-6"/>
<text text-anchor="start" x="219.5" y="-24" font-family="Helvetica,sans-Serif" font-size="10.00">/home/runner/work/open62541pp</text>
<text text-anchor="middle" x="300.5" y="-13" font-family="Helvetica,sans-Serif" font-size="10.00">/open62541pp/src/Node.cpp</text>
</a>
</g>
</g>
<!-- Node4&#45;&gt;Node5 -->
<g id="edge5" class="edge">
<title>Node4&#45;&gt;Node5</title>
<path fill="none" stroke="midnightblue" d="M297.46,-68.28C298.18,-57.25 298.97,-45.25 299.56,-36.23"/>
<polygon fill="midnightblue" stroke="midnightblue" points="293.95,-68.22 296.79,-78.43 300.94,-68.68 293.95,-68.22"/>
</g>
<!-- Node4&#45;&gt;Node6 -->
<g id="edge6" class="edge">
<title>Node4&#45;&gt;Node6</title>
<path fill="none" stroke="midnightblue" d="M356.93,-74.77C390.32,-62.15 430.53,-46.94 459.19,-36.11"/>
<polygon fill="midnightblue" stroke="midnightblue" points="355.38,-71.62 347.26,-78.43 357.85,-78.17 355.38,-71.62"/>
</g>
</g>
</svg>
