<?xml version="1.0" encoding="UTF-8" standalone="no"?>
<!DOCTYPE svg PUBLIC "-//W3C//DTD SVG 1.1//EN"
 "http://www.w3.org/Graphics/SVG/1.1/DTD/svg11.dtd">
<!-- Generated by graphviz version 2.43.0 (0)
 -->
<!-- Title: /home/runner/work/open62541pp/open62541pp/include/open62541pp/Logger.h Pages: 1 -->
<svg width="1333pt" height="284pt"
 viewBox="0.00 0.00 1333.19 284.00" xmlns="http://www.w3.org/2000/svg" xmlns:xlink="http://www.w3.org/1999/xlink">
<g id="graph0" class="graph" transform="scale(1 1) rotate(0) translate(4 280)">
<title>/home/runner/work/open62541pp/open62541pp/include/open62541pp/Logger.h</title>
<!-- Node1 -->
<g id="node1" class="node">
<title>Node1</title>
<g id="a_node1"><a xlink:title=" ">
<polygon fill="#bfbfbf" stroke="black" points="287.69,-234.5 287.69,-275.5 480.69,-275.5 480.69,-234.5 287.69,-234.5"/>
<text text-anchor="start" x="295.69" y="-263.5" font-family="Helvetica,sans-Serif" font-size="10.00">/home/runner/work/open62541pp</text>
<text text-anchor="start" x="295.69" y="-252.5" font-family="Helvetica,sans-Serif" font-size="10.00">/open62541pp/include/open62541pp</text>
<text text-anchor="middle" x="384.19" y="-241.5" font-family="Helvetica,sans-Serif" font-size="10.00">/Logger.h</text>
</a>
</g>
</g>
<!-- Node2 -->
<g id="node2" class="node">
<title>Node2</title>
<g id="a_node2"><a xlink:href="Client_8h.html" target="_top" xlink:title=" ">
<polygon fill="none" stroke="black" points="91.69,-156.5 91.69,-197.5 284.69,-197.5 284.69,-156.5 91.69,-156.5"/>
<text text-anchor="start" x="99.69" y="-185.5" font-family="Helvetica,sans-Serif" font-size="10.00">/home/runner/work/open62541pp</text>
<text text-anchor="start" x="99.69" y="-174.5" font-family="Helvetica,sans-Serif" font-size="10.00">/open62541pp/include/open62541pp</text>
<text text-anchor="middle" x="188.19" y="-163.5" font-family="Helvetica,sans-Serif" font-size="10.00">/Client.h</text>
</a>
</g>
</g>
<!-- Node1&#45;&gt;Node2 -->
<g id="edge1" class="edge">
<title>Node1&#45;&gt;Node2</title>
<path fill="none" stroke="midnightblue" d="M324.23,-230.75C296.79,-220.11 264.65,-207.65 238.5,-197.51"/>
<polygon fill="midnightblue" stroke="midnightblue" points="323.13,-234.08 333.72,-234.43 325.66,-227.55 323.13,-234.08"/>
</g>
<!-- Node3 -->
<g id="node3" class="node">
<title>Node3</title>
<g id="a_node3"><a xlink:href="open62541pp_8h.html" target="_top" xlink:title=" ">
<polygon fill="none" stroke="black" points="131.69,-0.5 131.69,-41.5 324.69,-41.5 324.69,-0.5 131.69,-0.5"/>
<text text-anchor="start" x="139.69" y="-29.5" font-family="Helvetica,sans-Serif" font-size="10.00">/home/runner/work/open62541pp</text>
<text text-anchor="start" x="139.69" y="-18.5" font-family="Helvetica,sans-Serif" font-size="10.00">/open62541pp/include/open62541pp</text>
<text text-anchor="middle" x="228.19" y="-7.5" font-family="Helvetica,sans-Serif" font-size="10.00">/open62541pp.h</text>
</a>
</g>
</g>
<!-- Node1&#45;&gt;Node3 -->
<g id="edge8" class="edge">
<title>Node1&#45;&gt;Node3</title>
<path fill="none" stroke="midnightblue" d="M277.05,-250.16C216.78,-244.19 141.88,-230.16 82.19,-198 39.86,-175.19 25.16,-164.61 7.19,-120 0.22,-102.69 -4.27,-92.73 7.19,-78 22.97,-57.74 79.52,-43.63 131.47,-34.64"/>
<polygon fill="midnightblue" stroke="midnightblue" points="277.07,-253.68 287.36,-251.12 277.72,-246.71 277.07,-253.68"/>
</g>
<!-- Node9 -->
<g id="node9" class="node">
<title>Node9</title>
<g id="a_node9"><a xlink:href="Server_8h.html" target="_top" xlink:title=" ">
<polygon fill="none" stroke="black" points="541.69,-156.5 541.69,-197.5 734.69,-197.5 734.69,-156.5 541.69,-156.5"/>
<text text-anchor="start" x="549.69" y="-185.5" font-family="Helvetica,sans-Serif" font-size="10.00">/home/runner/work/open62541pp</text>
<text text-anchor="start" x="549.69" y="-174.5" font-family="Helvetica,sans-Serif" font-size="10.00">/open62541pp/include/open62541pp</text>
<text text-anchor="middle" x="638.19" y="-163.5" font-family="Helvetica,sans-Serif" font-size="10.00">/Server.h</text>
</a>
</g>
</g>
<!-- Node1&#45;&gt;Node9 -->
<g id="edge9" class="edge">
<title>Node1&#45;&gt;Node9</title>
<path fill="none" stroke="midnightblue" d="M459.59,-231.44C495.64,-220.66 538.38,-207.87 573.01,-197.51"/>
<polygon fill="midnightblue" stroke="midnightblue" points="458.18,-228.21 449.61,-234.43 460.19,-234.91 458.18,-228.21"/>
</g>
<!-- Node12 -->
<g id="node12" class="node">
<title>Node12</title>
<g id="a_node12"><a xlink:href="CustomLogger_8h.html" target="_top" xlink:title=" ">
<polygon fill="none" stroke="black" points="1014.69,-84 1014.69,-114 1199.69,-114 1199.69,-84 1014.69,-84"/>
<text text-anchor="start" x="1022.69" y="-102" font-family="Helvetica,sans-Serif" font-size="10.00">/home/runner/work/open62541pp</text>
<text text-anchor="middle" x="1107.19" y="-91" font-family="Helvetica,sans-Serif" font-size="10.00">/open62541pp/src/CustomLogger.h</text>
</a>
</g>
</g>
<!-- Node1&#45;&gt;Node12 -->
<g id="edge21" class="edge">
<title>Node1&#45;&gt;Node12</title>
<path fill="none" stroke="midnightblue" d="M490.66,-240.47C562.38,-230.61 658.91,-215.86 743.19,-198 858.92,-173.47 992.68,-134.73 1061.33,-114.07"/>
<polygon fill="midnightblue" stroke="midnightblue" points="490.14,-237.01 480.71,-241.83 491.09,-243.95 490.14,-237.01"/>
</g>
<!-- Node2&#45;&gt;Node3 -->
<g id="edge2" class="edge">
<title>Node2&#45;&gt;Node3</title>
<path fill="none" stroke="midnightblue" d="M81.53,-162.33C57.25,-153.99 34.21,-140.79 19.19,-120 8.27,-104.87 7.83,-92.81 19.19,-78 33.52,-59.34 83.85,-45.53 131.54,-36.3"/>
<polygon fill="midnightblue" stroke="midnightblue" points="80.66,-165.73 91.25,-165.4 82.77,-159.05 80.66,-165.73"/>
</g>
<!-- Node4 -->
<g id="node4" class="node">
<title>Node4</title>
<g id="a_node4"><a xlink:href="Client_8cpp.html" target="_top" xlink:title=" ">
<polygon fill="none" stroke="black" points="737.19,-6 737.19,-36 915.19,-36 915.19,-6 737.19,-6"/>
<text text-anchor="start" x="745.19" y="-24" font-family="Helvetica,sans-Serif" font-size="10.00">/home/runner/work/open62541pp</text>
<text text-anchor="middle" x="826.19" y="-13" font-family="Helvetica,sans-Serif" font-size="10.00">/open62541pp/src/Client.cpp</text>
</a>
</g>
</g>
<!-- Node2&#45;&gt;Node4 -->
<g id="edge3" class="edge">
<title>Node2&#45;&gt;Node4</title>
<path fill="none" stroke="midnightblue" d="M122.46,-151.22C109.58,-143.26 97.75,-133.01 90.19,-120 80.83,-103.86 77.37,-91.57 90.19,-78 138.97,-26.4 657.78,-51.12 728.19,-42 739.99,-40.47 752.49,-38.33 764.47,-36.01"/>
<polygon fill="midnightblue" stroke="midnightblue" points="121.08,-154.47 131.5,-156.38 124.54,-148.39 121.08,-154.47"/>
</g>
<!-- Node5 -->
<g id="node5" class="node">
<title>Node5</title>
<g id="a_node5"><a xlink:href="Node_8cpp.html" target="_top" xlink:title=" ">
<polygon fill="none" stroke="black" points="541.19,-6 541.19,-36 719.19,-36 719.19,-6 541.19,-6"/>
<text text-anchor="start" x="549.19" y="-24" font-family="Helvetica,sans-Serif" font-size="10.00">/home/runner/work/open62541pp</text>
<text text-anchor="middle" x="630.19" y="-13" font-family="Helvetica,sans-Serif" font-size="10.00">/open62541pp/src/Node.cpp</text>
</a>
</g>
</g>
<!-- Node2&#45;&gt;Node5 -->
<g id="edge4" class="edge">
<title>Node2&#45;&gt;Node5</title>
<path fill="none" stroke="midnightblue" d="M93.85,-151.85C79.35,-144.02 66.22,-133.68 57.19,-120 46.91,-104.42 44.65,-91.83 57.19,-78 73.22,-60.34 383.89,-37.88 540.93,-27.6"/>
<polygon fill="midnightblue" stroke="midnightblue" points="92.52,-155.1 103.03,-156.4 95.63,-148.83 92.52,-155.1"/>
</g>
<!-- Node6 -->
<g id="node6" class="node">
<title>Node6</title>
<g id="a_node6"><a xlink:href="Attribute_8cpp.html" target="_top" xlink:title=" ">
<polygon fill="none" stroke="black" points="99.19,-78.5 99.19,-119.5 277.19,-119.5 277.19,-78.5 99.19,-78.5"/>
<text text-anchor="start" x="107.19" y="-107.5" font-family="Helvetica,sans-Serif" font-size="10.00">/home/runner/work/open62541pp</text>
<text text-anchor="start" x="107.19" y="-96.5" font-family="Helvetica,sans-Serif" font-size="10.00">/open62541pp/src/services</text>
<text text-anchor="middle" x="188.19" y="-85.5" font-family="Helvetica,sans-Serif" font-size="10.00">/Attribute.cpp</text>
</a>
</g>
</g>
<!-- Node2&#45;&gt;Node6 -->
<g id="edge5" class="edge">
<title>Node2&#45;&gt;Node6</title>
<path fill="none" stroke="midnightblue" d="M188.19,-146.3C188.19,-137.3 188.19,-127.65 188.19,-119.51"/>
<polygon fill="midnightblue" stroke="midnightblue" points="184.7,-146.43 188.19,-156.43 191.7,-146.43 184.7,-146.43"/>
</g>
<!-- Node7 -->
<g id="node7" class="node">
<title>Node7</title>
<g id="a_node7"><a xlink:href="NodeManagement_8cpp.html" target="_top" xlink:title=" ">
<polygon fill="none" stroke="black" points="295.19,-78.5 295.19,-119.5 473.19,-119.5 473.19,-78.5 295.19,-78.5"/>
<text text-anchor="start" x="303.19" y="-107.5" font-family="Helvetica,sans-Serif" font-size="10.00">/home/runner/work/open62541pp</text>
<text text-anchor="start" x="303.19" y="-96.5" font-family="Helvetica,sans-Serif" font-size="10.00">/open62541pp/src/services</text>
<text text-anchor="middle" x="384.19" y="-85.5" font-family="Helvetica,sans-Serif" font-size="10.00">/NodeManagement.cpp</text>
</a>
</g>
</g>
<!-- Node2&#45;&gt;Node7 -->
<g id="edge6" class="edge">
<title>Node2&#45;&gt;Node7</title>
<path fill="none" stroke="midnightblue" d="M248.16,-152.75C275.6,-142.11 307.74,-129.65 333.89,-119.51"/>
<polygon fill="midnightblue" stroke="midnightblue" points="246.73,-149.55 238.67,-156.43 249.26,-156.08 246.73,-149.55"/>
</g>
<!-- Node8 -->
<g id="node8" class="node">
<title>Node8</title>
<g id="a_node8"><a xlink:href="View_8cpp.html" target="_top" xlink:title=" ">
<polygon fill="none" stroke="black" points="491.19,-78.5 491.19,-119.5 669.19,-119.5 669.19,-78.5 491.19,-78.5"/>
<text text-anchor="start" x="499.19" y="-107.5" font-family="Helvetica,sans-Serif" font-size="10.00">/home/runner/work/open62541pp</text>
<text text-anchor="start" x="499.19" y="-96.5" font-family="Helvetica,sans-Serif" font-size="10.00">/open62541pp/src/services</text>
<text text-anchor="middle" x="580.19" y="-85.5" font-family="Helvetica,sans-Serif" font-size="10.00">/View.cpp</text>
</a>
</g>
</g>
<!-- Node2&#45;&gt;Node8 -->
<g id="edge7" class="edge">
<title>Node2&#45;&gt;Node8</title>
<path fill="none" stroke="midnightblue" d="M294.83,-156.04C350.67,-145.5 420.16,-132.24 482.19,-120 485.09,-119.43 488.03,-118.85 491.01,-118.25"/>
<polygon fill="midnightblue" stroke="midnightblue" points="294.1,-152.61 284.92,-157.91 295.4,-159.49 294.1,-152.61"/>
</g>
<!-- Node9&#45;&gt;Node3 -->
<g id="edge15" class="edge">
<title>Node9&#45;&gt;Node3</title>
<path fill="none" stroke="midnightblue" d="M663.74,-148.54C680.38,-127.28 695.99,-98.15 678.19,-78 655.2,-51.96 450.01,-35.21 324.78,-27.31"/>
<polygon fill="midnightblue" stroke="midnightblue" points="661.03,-146.32 657.37,-156.27 666.43,-150.77 661.03,-146.32"/>
</g>
<!-- Node9&#45;&gt;Node5 -->
<g id="edge16" class="edge">
<title>Node9&#45;&gt;Node5</title>
<path fill="none" stroke="midnightblue" d="M684.56,-150.56C695.25,-142.31 705.23,-132.1 711.19,-120 719.45,-103.26 719.86,-94.53 711.19,-78 701.27,-59.07 681.73,-45.28 664.32,-36.12"/>
<polygon fill="midnightblue" stroke="midnightblue" points="682.38,-147.82 676.3,-156.49 686.46,-153.51 682.38,-147.82"/>
</g>
<!-- Node9&#45;&gt;Node6 -->
<g id="edge18" class="edge">
<title>Node9&#45;&gt;Node6</title>
<path fill="none" stroke="midnightblue" d="M531.5,-160.26C461.6,-149.65 368.31,-134.9 286.19,-120 283.29,-119.47 280.34,-118.93 277.36,-118.37"/>
<polygon fill="midnightblue" stroke="midnightblue" points="531.23,-163.76 541.64,-161.8 532.28,-156.84 531.23,-163.76"/>
</g>
<!-- Node9&#45;&gt;Node7 -->
<g id="edge19" class="edge">
<title>Node9&#45;&gt;Node7</title>
<path fill="none" stroke="midnightblue" d="M562.8,-153.44C526.75,-142.66 484.01,-129.87 449.38,-119.51"/>
<polygon fill="midnightblue" stroke="midnightblue" points="562.2,-156.91 572.78,-156.43 564.21,-150.21 562.2,-156.91"/>
</g>
<!-- Node9&#45;&gt;Node8 -->
<g id="edge20" class="edge">
<title>Node9&#45;&gt;Node8</title>
<path fill="none" stroke="midnightblue" d="M617.08,-148.34C609.79,-138.78 601.77,-128.27 595.08,-119.51"/>
<polygon fill="midnightblue" stroke="midnightblue" points="614.41,-150.6 623.26,-156.43 619.97,-146.36 614.41,-150.6"/>
</g>
<!-- Node10 -->
<g id="node10" class="node">
<title>Node10</title>
<g id="a_node10"><a xlink:href="Node_8h.html" target="_top" xlink:title=" ">
<polygon fill="none" stroke="black" points="763.19,-78.5 763.19,-119.5 959.19,-119.5 959.19,-78.5 763.19,-78.5"/>
<text text-anchor="start" x="771.19" y="-107.5" font-family="Helvetica,sans-Serif" font-size="10.00">/home/runner/work/open62541pp</text>
<text text-anchor="start" x="771.19" y="-96.5" font-family="Helvetica,sans-Serif" font-size="10.00">/open62541pp/include/open62541pp/</text>
<text text-anchor="middle" x="861.19" y="-85.5" font-family="Helvetica,sans-Serif" font-size="10.00">Node.h</text>
</a>
</g>
</g>
<!-- Node9&#45;&gt;Node10 -->
<g id="edge10" class="edge">
<title>Node9&#45;&gt;Node10</title>
<path fill="none" stroke="midnightblue" d="M705.2,-153.17C736.68,-142.44 773.82,-129.78 803.96,-119.51"/>
<polygon fill="midnightblue" stroke="midnightblue" points="703.96,-149.89 695.62,-156.43 706.22,-156.52 703.96,-149.89"/>
</g>
<!-- Node11 -->
<g id="node11" class="node">
<title>Node11</title>
<g id="a_node11"><a xlink:href="Server_8cpp.html" target="_top" xlink:title=" ">
<polygon fill="none" stroke="black" points="933.19,-6 933.19,-36 1111.19,-36 1111.19,-6 933.19,-6"/>
<text text-anchor="start" x="941.19" y="-24" font-family="Helvetica,sans-Serif" font-size="10.00">/home/runner/work/open62541pp</text>
<text text-anchor="middle" x="1022.19" y="-13" font-family="Helvetica,sans-Serif" font-size="10.00">/open62541pp/src/Server.cpp</text>
</a>
</g>
</g>
<!-- Node9&#45;&gt;Node11 -->
<g id="edge17" class="edge">
<title>Node9&#45;&gt;Node11</title>
<path fill="none" stroke="midnightblue" d="M745.2,-167.9C827.53,-159.84 933.01,-145 968.19,-120 997.18,-99.41 1012.32,-58.18 1018.6,-36.34"/>
<polygon fill="midnightblue" stroke="midnightblue" points="744.64,-164.43 735.02,-168.87 745.31,-171.4 744.64,-164.43"/>
</g>
<!-- Node10&#45;&gt;Node3 -->
<g id="edge11" class="edge">
<title>Node10&#45;&gt;Node3</title>
<path fill="none" stroke="midnightblue" d="M752.99,-83.35C738.94,-81.51 724.73,-79.69 711.19,-78 577.38,-61.32 422.49,-43.65 324.93,-32.72"/>
<polygon fill="midnightblue" stroke="midnightblue" points="752.82,-86.86 763.19,-84.69 753.73,-79.92 752.82,-86.86"/>
</g>
<!-- Node10&#45;&gt;Node4 -->
<g id="edge12" class="edge">
<title>Node10&#45;&gt;Node4</title>
<path fill="none" stroke="midnightblue" d="M847.98,-69.3C842.77,-58 837.03,-45.52 832.75,-36.23"/>
<polygon fill="midnightblue" stroke="midnightblue" points="844.82,-70.81 852.18,-78.43 851.18,-67.88 844.82,-70.81"/>
</g>
<!-- Node10&#45;&gt;Node5 -->
<g id="edge13" class="edge">
<title>Node10&#45;&gt;Node5</title>
<path fill="none" stroke="midnightblue" d="M792.07,-75.26C753.41,-62.54 706.44,-47.08 673.07,-36.11"/>
<polygon fill="midnightblue" stroke="midnightblue" points="791.11,-78.63 801.71,-78.43 793.3,-71.98 791.11,-78.63"/>
</g>
<!-- Node10&#45;&gt;Node11 -->
<g id="edge14" class="edge">
<title>Node10&#45;&gt;Node11</title>
<path fill="none" stroke="midnightblue" d="M911.79,-74.12C938.25,-61.63 969.75,-46.76 992.31,-36.11"/>
<polygon fill="midnightblue" stroke="midnightblue" points="910.21,-70.99 902.66,-78.43 913.19,-77.32 910.21,-70.99"/>
</g>
<!-- Node12&#45;&gt;Node4 -->
<g id="edge22" class="edge">
<title>Node12&#45;&gt;Node4</title>
<path fill="none" stroke="midnightblue" d="M1045.58,-81.34C995.48,-67.78 925.57,-48.88 878.24,-36.07"/>
<polygon fill="midnightblue" stroke="midnightblue" points="1044.76,-84.74 1055.33,-83.97 1046.59,-77.98 1044.76,-84.74"/>
</g>
<!-- Node12&#45;&gt;Node11 -->
<g id="edge24" class="edge">
<title>Node12&#45;&gt;Node11</title>
<path fill="none" stroke="midnightblue" d="M1083.59,-76.89C1069.09,-63.93 1050.91,-47.68 1038.11,-36.23"/>
<polygon fill="midnightblue" stroke="midnightblue" points="1081.42,-79.65 1091.21,-83.7 1086.09,-74.43 1081.42,-79.65"/>
</g>
<!-- Node13 -->
<g id="node13" class="node">
<title>Node13</title>
<g id="a_node13"><a xlink:href="CustomLogger_8cpp.html" target="_top" xlink:title=" ">
<polygon fill="none" stroke="black" points="1129.19,-6 1129.19,-36 1325.19,-36 1325.19,-6 1129.19,-6"/>
<text text-anchor="start" x="1137.19" y="-24" font-family="Helvetica,sans-Serif" font-size="10.00">/home/runner/work/open62541pp</text>
<text text-anchor="middle" x="1227.19" y="-13" font-family="Helvetica,sans-Serif" font-size="10.00">/open62541pp/src/CustomLogger.cpp</text>
</a>
</g>
</g>
<!-- Node12&#45;&gt;Node13 -->
<g id="edge23" class="edge">
<title>Node12&#45;&gt;Node13</title>
<path fill="none" stroke="midnightblue" d="M1138.04,-78.47C1158.99,-65.2 1186.2,-47.96 1205.02,-36.04"/>
<polygon fill="midnightblue" stroke="midnightblue" points="1136.06,-75.58 1129.48,-83.88 1139.81,-81.49 1136.06,-75.58"/>
</g>
</g>
</svg>
