<?xml version="1.0" encoding="UTF-8" standalone="no"?>
<!DOCTYPE svg PUBLIC "-//W3C//DTD SVG 1.1//EN"
 "http://www.w3.org/Graphics/SVG/1.1/DTD/svg11.dtd">
<!-- Generated by graphviz version 2.43.0 (0)
 -->
<!-- Title: /home/runner/work/open62541pp/open62541pp/include/open62541pp/Logger.h Pages: 1 -->
<svg width="955pt" height="284pt"
 viewBox="0.00 0.00 954.50 284.00" xmlns="http://www.w3.org/2000/svg" xmlns:xlink="http://www.w3.org/1999/xlink">
<g id="graph0" class="graph" transform="scale(1 1) rotate(0) translate(4 280)">
<title>/home/runner/work/open62541pp/open62541pp/include/open62541pp/Logger.h</title>
<!-- Node1 -->
<g id="node1" class="node">
<title>Node1</title>
<g id="a_node1"><a xlink:title=" ">
<polygon fill="#bfbfbf" stroke="black" points="107,-234.5 107,-275.5 300,-275.5 300,-234.5 107,-234.5"/>
<text text-anchor="start" x="115" y="-263.5" font-family="Helvetica,sans-Serif" font-size="10.00">/home/runner/work/open62541pp</text>
<text text-anchor="start" x="115" y="-252.5" font-family="Helvetica,sans-Serif" font-size="10.00">/open62541pp/include/open62541pp</text>
<text text-anchor="middle" x="203.5" y="-241.5" font-family="Helvetica,sans-Serif" font-size="10.00">/Logger.h</text>
</a>
</g>
</g>
<!-- Node2 -->
<g id="node2" class="node">
<title>Node2</title>
<g id="a_node2"><a xlink:href="open62541pp_8h.html" target="_top" xlink:title=" ">
<polygon fill="none" stroke="black" points="0,-0.5 0,-41.5 193,-41.5 193,-0.5 0,-0.5"/>
<text text-anchor="start" x="8" y="-29.5" font-family="Helvetica,sans-Serif" font-size="10.00">/home/runner/work/open62541pp</text>
<text text-anchor="start" x="8" y="-18.5" font-family="Helvetica,sans-Serif" font-size="10.00">/open62541pp/include/open62541pp</text>
<text text-anchor="middle" x="96.5" y="-7.5" font-family="Helvetica,sans-Serif" font-size="10.00">/open62541pp.h</text>
</a>
</g>
</g>
<!-- Node1&#45;&gt;Node2 -->
<g id="edge1" class="edge">
<title>Node1&#45;&gt;Node2</title>
<path fill="none" stroke="midnightblue" d="M171.89,-227.39C145.23,-202.7 109.01,-163.33 93.5,-120 84.27,-94.2 87.83,-62.09 91.75,-41.81"/>
<polygon fill="midnightblue" stroke="midnightblue" points="169.72,-230.14 179.48,-234.26 174.42,-224.95 169.72,-230.14"/>
</g>
<!-- Node3 -->
<g id="node3" class="node">
<title>Node3</title>
<g id="a_node3"><a xlink:href="Server_8h.html" target="_top" xlink:title=" ">
<polygon fill="none" stroke="black" points="252,-156.5 252,-197.5 445,-197.5 445,-156.5 252,-156.5"/>
<text text-anchor="start" x="260" y="-185.5" font-family="Helvetica,sans-Serif" font-size="10.00">/home/runner/work/open62541pp</text>
<text text-anchor="start" x="260" y="-174.5" font-family="Helvetica,sans-Serif" font-size="10.00">/open62541pp/include/open62541pp</text>
<text text-anchor="middle" x="348.5" y="-163.5" font-family="Helvetica,sans-Serif" font-size="10.00">/Server.h</text>
</a>
</g>
</g>
<!-- Node1&#45;&gt;Node3 -->
<g id="edge2" class="edge">
<title>Node1&#45;&gt;Node3</title>
<path fill="none" stroke="midnightblue" d="M249.73,-229.77C269.61,-219.35 292.53,-207.34 311.29,-197.51"/>
<polygon fill="midnightblue" stroke="midnightblue" points="248.07,-226.69 240.84,-234.43 251.32,-232.89 248.07,-226.69"/>
</g>
<!-- Node3&#45;&gt;Node2 -->
<g id="edge6" class="edge">
<title>Node3&#45;&gt;Node2</title>
<path fill="none" stroke="midnightblue" d="M241.66,-161.71C189.19,-152.52 133.43,-138.75 115.5,-120 95.49,-99.09 93.5,-63.75 94.54,-41.72"/>
<polygon fill="midnightblue" stroke="midnightblue" points="241.31,-165.2 251.76,-163.43 242.49,-158.3 241.31,-165.2"/>
</g>
<!-- Node4 -->
<g id="node4" class="node">
<title>Node4</title>
<g id="a_node4"><a xlink:href="Node_8h.html" target="_top" xlink:title=" ">
<polygon fill="none" stroke="black" points="124.5,-78.5 124.5,-119.5 320.5,-119.5 320.5,-78.5 124.5,-78.5"/>
<text text-anchor="start" x="132.5" y="-107.5" font-family="Helvetica,sans-Serif" font-size="10.00">/home/runner/work/open62541pp</text>
<text text-anchor="start" x="132.5" y="-96.5" font-family="Helvetica,sans-Serif" font-size="10.00">/open62541pp/include/open62541pp/</text>
<text text-anchor="middle" x="222.5" y="-85.5" font-family="Helvetica,sans-Serif" font-size="10.00">Node.h</text>
</a>
</g>
</g>
<!-- Node3&#45;&gt;Node4 -->
<g id="edge3" class="edge">
<title>Node3&#45;&gt;Node4</title>
<path fill="none" stroke="midnightblue" d="M307.39,-151.2C290.34,-140.92 270.84,-129.16 254.84,-119.51"/>
<polygon fill="midnightblue" stroke="midnightblue" points="305.68,-154.26 316.05,-156.43 309.3,-148.27 305.68,-154.26"/>
</g>
<!-- Node5 -->
<g id="node5" class="node">
<title>Node5</title>
<g id="a_node5"><a xlink:href="Server_8cpp.html" target="_top" xlink:title=" ">
<polygon fill="none" stroke="black" points="235.5,-6 235.5,-36 413.5,-36 413.5,-6 235.5,-6"/>
<text text-anchor="start" x="243.5" y="-24" font-family="Helvetica,sans-Serif" font-size="10.00">/home/runner/work/open62541pp</text>
<text text-anchor="middle" x="324.5" y="-13" font-family="Helvetica,sans-Serif" font-size="10.00">/open62541pp/src/Server.cpp</text>
</a>
</g>
</g>
<!-- Node3&#45;&gt;Node5 -->
<g id="edge7" class="edge">
<title>Node3&#45;&gt;Node5</title>
<path fill="none" stroke="midnightblue" d="M343.9,-146.51C338.76,-113.49 330.63,-61.34 326.73,-36.32"/>
<polygon fill="midnightblue" stroke="midnightblue" points="340.46,-147.15 345.46,-156.5 347.38,-146.08 340.46,-147.15"/>
</g>
<!-- Node6 -->
<g id="node6" class="node">
<title>Node6</title>
<g id="a_node6"><a xlink:href="Attribute_8cpp.html" target="_top" xlink:title=" ">
<polygon fill="none" stroke="black" points="376.5,-78.5 376.5,-119.5 554.5,-119.5 554.5,-78.5 376.5,-78.5"/>
<text text-anchor="start" x="384.5" y="-107.5" font-family="Helvetica,sans-Serif" font-size="10.00">/home/runner/work/open62541pp</text>
<text text-anchor="start" x="384.5" y="-96.5" font-family="Helvetica,sans-Serif" font-size="10.00">/open62541pp/src/services</text>
<text text-anchor="middle" x="465.5" y="-85.5" font-family="Helvetica,sans-Serif" font-size="10.00">/Attribute.cpp</text>
</a>
</g>
</g>
<!-- Node3&#45;&gt;Node6 -->
<g id="edge8" class="edge">
<title>Node3&#45;&gt;Node6</title>
<path fill="none" stroke="midnightblue" d="M387.11,-150.92C402.84,-140.7 420.75,-129.07 435.47,-119.51"/>
<polygon fill="midnightblue" stroke="midnightblue" points="385.11,-148.05 378.63,-156.43 388.92,-153.92 385.11,-148.05"/>
</g>
<!-- Node7 -->
<g id="node7" class="node">
<title>Node7</title>
<g id="a_node7"><a xlink:href="Browse_8cpp.html" target="_top" xlink:title=" ">
<polygon fill="none" stroke="black" points="572.5,-78.5 572.5,-119.5 750.5,-119.5 750.5,-78.5 572.5,-78.5"/>
<text text-anchor="start" x="580.5" y="-107.5" font-family="Helvetica,sans-Serif" font-size="10.00">/home/runner/work/open62541pp</text>
<text text-anchor="start" x="580.5" y="-96.5" font-family="Helvetica,sans-Serif" font-size="10.00">/open62541pp/src/services</text>
<text text-anchor="middle" x="661.5" y="-85.5" font-family="Helvetica,sans-Serif" font-size="10.00">/Browse.cpp</text>
</a>
</g>
</g>
<!-- Node3&#45;&gt;Node7 -->
<g id="edge9" class="edge">
<title>Node3&#45;&gt;Node7</title>
<path fill="none" stroke="midnightblue" d="M438.85,-154.06C483.8,-143.15 537.67,-130.07 581.17,-119.51"/>
<polygon fill="midnightblue" stroke="midnightblue" points="438,-150.67 429.11,-156.43 439.65,-157.47 438,-150.67"/>
</g>
<!-- Node8 -->
<g id="node8" class="node">
<title>Node8</title>
<g id="a_node8"><a xlink:href="NodeManagement_8cpp.html" target="_top" xlink:title=" ">
<polygon fill="none" stroke="black" points="768.5,-78.5 768.5,-119.5 946.5,-119.5 946.5,-78.5 768.5,-78.5"/>
<text text-anchor="start" x="776.5" y="-107.5" font-family="Helvetica,sans-Serif" font-size="10.00">/home/runner/work/open62541pp</text>
<text text-anchor="start" x="776.5" y="-96.5" font-family="Helvetica,sans-Serif" font-size="10.00">/open62541pp/src/services</text>
<text text-anchor="middle" x="857.5" y="-85.5" font-family="Helvetica,sans-Serif" font-size="10.00">/NodeManagement.cpp</text>
</a>
</g>
</g>
<!-- Node3&#45;&gt;Node8 -->
<g id="edge10" class="edge">
<title>Node3&#45;&gt;Node8</title>
<path fill="none" stroke="midnightblue" d="M455.07,-163.44C538.21,-153.16 656.48,-137.51 759.5,-120 762.41,-119.51 765.37,-118.99 768.35,-118.45"/>
<polygon fill="midnightblue" stroke="midnightblue" points="454.6,-159.97 445.1,-164.66 455.46,-166.91 454.6,-159.97"/>
</g>
<!-- Node4&#45;&gt;Node2 -->
<g id="edge4" class="edge">
<title>Node4&#45;&gt;Node2</title>
<path fill="none" stroke="midnightblue" d="M181.39,-73.2C164.34,-62.92 144.84,-51.16 128.84,-41.51"/>
<polygon fill="midnightblue" stroke="midnightblue" points="179.68,-76.26 190.05,-78.43 183.3,-70.27 179.68,-76.26"/>
</g>
<!-- Node4&#45;&gt;Node5 -->
<g id="edge5" class="edge">
<title>Node4&#45;&gt;Node5</title>
<path fill="none" stroke="midnightblue" d="M256.96,-72.32C273.14,-60.27 291.8,-46.36 305.41,-36.23"/>
<polygon fill="midnightblue" stroke="midnightblue" points="254.7,-69.65 248.77,-78.43 258.88,-75.26 254.7,-69.65"/>
</g>
</g>
</svg>
