<?xml version="1.0" encoding="UTF-8" standalone="no"?>
<!DOCTYPE svg PUBLIC "-//W3C//DTD SVG 1.1//EN"
 "http://www.w3.org/Graphics/SVG/1.1/DTD/svg11.dtd">
<!-- Generated by graphviz version 2.43.0 (0)
 -->
<!-- Title: /home/runner/work/open62541pp/open62541pp/include/open62541pp/MonitoredItem.h Pages: 1 -->
<svg width="1435pt" height="599pt"
 viewBox="0.00 0.00 1434.50 599.00" xmlns="http://www.w3.org/2000/svg" xmlns:xlink="http://www.w3.org/1999/xlink">
<g id="graph0" class="graph" transform="scale(1 1) rotate(0) translate(4 595)">
<title>/home/runner/work/open62541pp/open62541pp/include/open62541pp/MonitoredItem.h</title>
<!-- Node1 -->
<g id="Node000001" class="node">
<title>Node1</title>
<g id="a_Node000001"><a xlink:title=" ">
<polygon fill="#999999" stroke="#666666" points="437.5,-591 244.5,-591 244.5,-550 437.5,-550 437.5,-591"/>
<text text-anchor="start" x="252.5" y="-579" font-family="Helvetica,sans-Serif" font-size="10.00">/home/runner/work/open62541pp</text>
<text text-anchor="start" x="252.5" y="-568" font-family="Helvetica,sans-Serif" font-size="10.00">/open62541pp/include/open62541pp</text>
<text text-anchor="middle" x="341" y="-557" font-family="Helvetica,sans-Serif" font-size="10.00">/MonitoredItem.h</text>
</a>
</g>
</g>
<!-- Node2 -->
<g id="Node000002" class="node">
<title>Node2</title>
<g id="a_Node000002"><a xlink:title=" ">
<polygon fill="#e0e0e0" stroke="#999999" points="139,-79.5 89,-79.5 89,-60.5 139,-60.5 139,-79.5"/>
<text text-anchor="middle" x="114" y="-67.5" font-family="Helvetica,sans-Serif" font-size="10.00">cstdint</text>
</a>
</g>
</g>
<!-- Node1&#45;&gt;Node2 -->
<g id="edge1_Node000001_Node000002" class="edge">
<title>Node1&#45;&gt;Node2</title>
<g id="a_edge1_Node000001_Node000002"><a xlink:title=" ">
<path fill="none" stroke="#63b8ff" d="M244.2,-550.64C143.38,-528.15 0,-486.87 0,-434 0,-434 0,-434 0,-190 0,-140.05 53.02,-102.88 86.74,-84.3"/>
<polygon fill="#63b8ff" stroke="#63b8ff" points="88.49,-87.33 95.68,-79.55 85.21,-81.15 88.49,-87.33"/>
</a>
</g>
</g>
<!-- Node3 -->
<g id="Node000003" class="node">
<title>Node3</title>
<g id="a_Node000003"><a xlink:href="Common_8h.html" target="_top" xlink:title=" ">
<polygon fill="white" stroke="#666666" points="337.5,-140 198.5,-140 198.5,-121 337.5,-121 337.5,-140"/>
<text text-anchor="middle" x="268" y="-128" font-family="Helvetica,sans-Serif" font-size="10.00">open62541pp/Common.h</text>
</a>
</g>
</g>
<!-- Node1&#45;&gt;Node3 -->
<g id="edge2_Node000001_Node000003" class="edge">
<title>Node1&#45;&gt;Node3</title>
<g id="a_edge2_Node000001_Node000003"><a xlink:title=" ">
<path fill="none" stroke="#63b8ff" d="M302.78,-549.92C250.22,-520.86 156.83,-461.12 110,-382 97.35,-360.62 102.23,-351.74 100,-327 93.25,-252.17 116.8,-222.26 176,-176 193.42,-162.39 215.68,-151.48 233.94,-143.88"/>
<polygon fill="#63b8ff" stroke="#63b8ff" points="235.37,-147.07 243.34,-140.1 232.76,-140.58 235.37,-147.07"/>
</a>
</g>
</g>
<!-- Node13 -->
<g id="Node000013" class="node">
<title>Node13</title>
<g id="a_Node000013"><a xlink:href="Config_8h.html" target="_top" xlink:title=" ">
<polygon fill="white" stroke="#666666" points="1426.5,-442.5 1301.5,-442.5 1301.5,-423.5 1426.5,-423.5 1426.5,-442.5"/>
<text text-anchor="middle" x="1364" y="-430.5" font-family="Helvetica,sans-Serif" font-size="10.00">open62541pp/Config.h</text>
</a>
</g>
</g>
<!-- Node1&#45;&gt;Node13 -->
<g id="edge14_Node000001_Node000013" class="edge">
<title>Node1&#45;&gt;Node13</title>
<g id="a_edge14_Node000001_Node000013"><a xlink:title=" ">
<path fill="none" stroke="#63b8ff" d="M437.64,-561.36C546.21,-551.81 727.58,-534.63 883,-514 1063.35,-490.06 1107.71,-478.94 1287,-448 1293.75,-446.84 1300.82,-445.59 1307.83,-444.33"/>
<polygon fill="#63b8ff" stroke="#63b8ff" points="1308.79,-447.72 1318.01,-442.5 1307.55,-440.83 1308.79,-447.72"/>
</a>
</g>
</g>
<!-- Node14 -->
<g id="Node000014" class="node">
<title>Node14</title>
<g id="a_Node000014"><a xlink:href="services_2MonitoredItem_8h.html" target="_top" xlink:title=" ">
<polygon fill="white" stroke="#666666" points="874,-514 748,-514 748,-484 874,-484 874,-514"/>
<text text-anchor="start" x="756" y="-502" font-family="Helvetica,sans-Serif" font-size="10.00">open62541pp/services</text>
<text text-anchor="middle" x="811" y="-491" font-family="Helvetica,sans-Serif" font-size="10.00">/MonitoredItem.h</text>
</a>
</g>
</g>
<!-- Node1&#45;&gt;Node14 -->
<g id="edge16_Node000001_Node000014" class="edge">
<title>Node1&#45;&gt;Node14</title>
<g id="a_edge16_Node000001_Node000014"><a xlink:title=" ">
<path fill="none" stroke="#63b8ff" d="M437.53,-555.23C526.67,-542.04 657.12,-522.75 737.91,-510.81"/>
<polygon fill="#63b8ff" stroke="#63b8ff" points="738.61,-514.24 747.99,-509.32 737.59,-507.32 738.61,-514.24"/>
</a>
</g>
</g>
<!-- Node3&#45;&gt;Node2 -->
<g id="edge3_Node000003_Node000002" class="edge">
<title>Node3&#45;&gt;Node2</title>
<g id="a_edge3_Node000003_Node000002"><a xlink:title=" ">
<path fill="none" stroke="#63b8ff" d="M245.61,-120.99C219.38,-111.03 175.72,-94.45 145.94,-83.13"/>
<polygon fill="#63b8ff" stroke="#63b8ff" points="147.01,-79.8 136.42,-79.52 144.53,-86.34 147.01,-79.8"/>
</a>
</g>
</g>
<!-- Node4 -->
<g id="Node000004" class="node">
<title>Node4</title>
<g id="a_Node000004"><a xlink:title=" ">
<polygon fill="#e0e0e0" stroke="#999999" points="445.5,-79.5 372.5,-79.5 372.5,-60.5 445.5,-60.5 445.5,-79.5"/>
<text text-anchor="middle" x="409" y="-67.5" font-family="Helvetica,sans-Serif" font-size="10.00">string_view</text>
</a>
</g>
</g>
<!-- Node3&#45;&gt;Node4 -->
<g id="edge4_Node000003_Node000004" class="edge">
<title>Node3&#45;&gt;Node4</title>
<g id="a_edge4_Node000003_Node000004"><a xlink:title=" ">
<path fill="none" stroke="#63b8ff" d="M288.5,-120.99C312.31,-111.12 351.79,-94.73 379.04,-83.43"/>
<polygon fill="#63b8ff" stroke="#63b8ff" points="380.58,-86.58 388.47,-79.52 377.89,-80.12 380.58,-86.58"/>
</a>
</g>
</g>
<!-- Node5 -->
<g id="Node000005" class="node">
<title>Node5</title>
<g id="a_Node000005"><a xlink:title=" ">
<polygon fill="#e0e0e0" stroke="#999999" points="318.5,-19 277.5,-19 277.5,0 318.5,0 318.5,-19"/>
<text text-anchor="middle" x="298" y="-7" font-family="Helvetica,sans-Serif" font-size="10.00">tuple</text>
</a>
</g>
</g>
<!-- Node3&#45;&gt;Node5 -->
<g id="edge5_Node000003_Node000005" class="edge">
<title>Node3&#45;&gt;Node5</title>
<g id="a_edge5_Node000003_Node000005"><a xlink:title=" ">
<path fill="none" stroke="#63b8ff" d="M284.58,-120.87C297.17,-113.3 313.54,-101.01 321,-85 329.81,-66.1 319.69,-42.97 310.23,-27.55"/>
<polygon fill="#63b8ff" stroke="#63b8ff" points="313.04,-25.45 304.6,-19.05 307.21,-29.32 313.04,-25.45"/>
</a>
</g>
</g>
<!-- Node6 -->
<g id="Node000006" class="node">
<title>Node6</title>
<g id="a_Node000006"><a xlink:href="traits_8h.html" target="_top" xlink:title=" ">
<polygon fill="white" stroke="#666666" points="311.5,-85 198.5,-85 198.5,-55 311.5,-55 311.5,-85"/>
<text text-anchor="start" x="206.5" y="-73" font-family="Helvetica,sans-Serif" font-size="10.00">open62541pp/detail</text>
<text text-anchor="middle" x="255" y="-62" font-family="Helvetica,sans-Serif" font-size="10.00">/traits.h</text>
</a>
</g>
</g>
<!-- Node3&#45;&gt;Node6 -->
<g id="edge6_Node000003_Node000006" class="edge">
<title>Node3&#45;&gt;Node6</title>
<g id="a_edge6_Node000003_Node000006"><a xlink:title=" ">
<path fill="none" stroke="#63b8ff" d="M266.08,-120.87C264.56,-114.03 262.36,-104.14 260.33,-94.97"/>
<polygon fill="#63b8ff" stroke="#63b8ff" points="263.72,-94.12 258.14,-85.11 256.89,-95.64 263.72,-94.12"/>
</a>
</g>
</g>
<!-- Node8 -->
<g id="Node000008" class="node">
<title>Node8</title>
<g id="a_Node000008"><a xlink:href="open62541_8h.html" target="_top" xlink:title=" ">
<polygon fill="white" stroke="#666666" points="1161.5,-79.5 1012.5,-79.5 1012.5,-60.5 1161.5,-60.5 1161.5,-79.5"/>
<text text-anchor="middle" x="1087" y="-67.5" font-family="Helvetica,sans-Serif" font-size="10.00">open62541pp/open62541.h</text>
</a>
</g>
</g>
<!-- Node3&#45;&gt;Node8 -->
<g id="edge9_Node000003_Node000008" class="edge">
<title>Node3&#45;&gt;Node8</title>
<g id="a_edge9_Node000003_Node000008"><a xlink:title=" ">
<path fill="none" stroke="#63b8ff" d="M337.83,-124.51C487.63,-113.81 839.39,-88.69 1001.92,-77.08"/>
<polygon fill="#63b8ff" stroke="#63b8ff" points="1002.62,-80.54 1012.35,-76.33 1002.13,-73.55 1002.62,-80.54"/>
</a>
</g>
</g>
<!-- Node6&#45;&gt;Node5 -->
<g id="edge7_Node000006_Node000005" class="edge">
<title>Node6&#45;&gt;Node5</title>
<g id="a_edge7_Node000006_Node000005"><a xlink:title=" ">
<path fill="none" stroke="#63b8ff" d="M265.41,-54.84C271.46,-46.61 279.12,-36.18 285.5,-27.51"/>
<polygon fill="#63b8ff" stroke="#63b8ff" points="288.45,-29.4 291.56,-19.27 282.81,-25.25 288.45,-29.4"/>
</a>
</g>
</g>
<!-- Node7 -->
<g id="Node000007" class="node">
<title>Node7</title>
<g id="a_Node000007"><a xlink:title=" ">
<polygon fill="#e0e0e0" stroke="#999999" points="697.5,-19 628.5,-19 628.5,0 697.5,0 697.5,-19"/>
<text text-anchor="middle" x="663" y="-7" font-family="Helvetica,sans-Serif" font-size="10.00">type_traits</text>
</a>
</g>
</g>
<!-- Node6&#45;&gt;Node7 -->
<g id="edge8_Node000006_Node000007" class="edge">
<title>Node6&#45;&gt;Node7</title>
<g id="a_edge8_Node000006_Node000007"><a xlink:title=" ">
<path fill="none" stroke="#63b8ff" d="M311.73,-60.87C393.71,-49.11 543.62,-27.62 618.28,-16.91"/>
<polygon fill="#63b8ff" stroke="#63b8ff" points="618.9,-20.36 628.3,-15.48 617.91,-13.43 618.9,-20.36"/>
</a>
</g>
</g>
<!-- Node9 -->
<g id="Node000009" class="node">
<title>Node9</title>
<g id="a_Node000009"><a target="_blank" xlink:href="open62541/config_8h.html" xlink:title=" ">
<polygon fill="white" stroke="#666666" points="941,-19 829,-19 829,0 941,0 941,-19"/>
<text text-anchor="middle" x="885" y="-7" font-family="Helvetica,sans-Serif" font-size="10.00">open62541/config.h</text>
</a>
</g>
</g>
<!-- Node8&#45;&gt;Node9 -->
<g id="edge10_Node000008_Node000009" class="edge">
<title>Node8&#45;&gt;Node9</title>
<g id="a_edge10_Node000008_Node000009"><a xlink:title=" ">
<path fill="none" stroke="#63b8ff" d="M1057.63,-60.49C1022.4,-50.29 963.21,-33.15 924.13,-21.83"/>
<polygon fill="#63b8ff" stroke="#63b8ff" points="924.99,-18.44 914.41,-19.02 923.04,-25.16 924.99,-18.44"/>
</a>
</g>
</g>
<!-- Node10 -->
<g id="Node000010" class="node">
<title>Node10</title>
<g id="a_Node000010"><a target="_blank" xlink:href="open62541/nodeids_8h.html" xlink:title=" ">
<polygon fill="white" stroke="#666666" points="1080.5,-19 959.5,-19 959.5,0 1080.5,0 1080.5,-19"/>
<text text-anchor="middle" x="1020" y="-7" font-family="Helvetica,sans-Serif" font-size="10.00">open62541/nodeids.h</text>
</a>
</g>
</g>
<!-- Node8&#45;&gt;Node10 -->
<g id="edge11_Node000008_Node000010" class="edge">
<title>Node8&#45;&gt;Node10</title>
<g id="a_edge11_Node000008_Node000010"><a xlink:title=" ">
<path fill="none" stroke="#63b8ff" d="M1077.11,-60.37C1066.72,-51.3 1050.16,-36.84 1037.55,-25.82"/>
<polygon fill="#63b8ff" stroke="#63b8ff" points="1039.76,-23.11 1029.93,-19.17 1035.16,-28.38 1039.76,-23.11"/>
</a>
</g>
</g>
<!-- Node11 -->
<g id="Node000011" class="node">
<title>Node11</title>
<g id="a_Node000011"><a target="_blank" xlink:href="open62541/types_8h.html" xlink:title=" ">
<polygon fill="white" stroke="#666666" points="1209,-19 1099,-19 1099,0 1209,0 1209,-19"/>
<text text-anchor="middle" x="1154" y="-7" font-family="Helvetica,sans-Serif" font-size="10.00">open62541/types.h</text>
</a>
</g>
</g>
<!-- Node8&#45;&gt;Node11 -->
<g id="edge12_Node000008_Node000011" class="edge">
<title>Node8&#45;&gt;Node11</title>
<g id="a_edge12_Node000008_Node000011"><a xlink:title=" ">
<path fill="none" stroke="#63b8ff" d="M1096.89,-60.37C1107.28,-51.3 1123.84,-36.84 1136.45,-25.82"/>
<polygon fill="#63b8ff" stroke="#63b8ff" points="1138.84,-28.38 1144.07,-19.17 1134.24,-23.11 1138.84,-28.38"/>
</a>
</g>
</g>
<!-- Node12 -->
<g id="Node000012" class="node">
<title>Node12</title>
<g id="a_Node000012"><a target="_blank" xlink:href="open62541/types__generated_8h.html" xlink:title=" ">
<polygon fill="white" stroke="#666666" points="1391,-19 1227,-19 1227,0 1391,0 1391,-19"/>
<text text-anchor="middle" x="1309" y="-7" font-family="Helvetica,sans-Serif" font-size="10.00">open62541/types_generated.h</text>
</a>
</g>
</g>
<!-- Node8&#45;&gt;Node12 -->
<g id="edge13_Node000008_Node000012" class="edge">
<title>Node8&#45;&gt;Node12</title>
<g id="a_edge13_Node000008_Node000012"><a xlink:title=" ">
<path fill="none" stroke="#63b8ff" d="M1119.28,-60.49C1158.25,-50.23 1223.88,-32.93 1266.82,-21.62"/>
<polygon fill="#63b8ff" stroke="#63b8ff" points="1267.9,-24.95 1276.68,-19.02 1266.12,-18.18 1267.9,-24.95"/>
</a>
</g>
</g>
<!-- Node13&#45;&gt;Node8 -->
<g id="edge15_Node000013_Node000008" class="edge">
<title>Node13&#45;&gt;Node8</title>
<g id="a_edge15_Node000013_Node000008"><a xlink:title=" ">
<path fill="none" stroke="#63b8ff" d="M1364,-423.34C1364,-403.71 1364,-354.32 1364,-313 1364,-313 1364,-313 1364,-190 1364,-105.3 1253.31,-80.13 1171.87,-73.08"/>
<polygon fill="#63b8ff" stroke="#63b8ff" points="1171.84,-69.56 1161.6,-72.27 1171.29,-76.54 1171.84,-69.56"/>
</a>
</g>
</g>
<!-- Node14&#45;&gt;Node2 -->
<g id="edge17_Node000014_Node000002" class="edge">
<title>Node14&#45;&gt;Node2</title>
<g id="a_edge17_Node000014_Node000002"><a xlink:title=" ">
<path fill="none" stroke="#63b8ff" d="M747.9,-497.37C611.91,-495.28 295.46,-486.33 196,-448 91.76,-407.83 38,-364.22 38,-252.5 38,-252.5 38,-252.5 38,-190 38,-147.21 73.34,-107.44 95.82,-86.47"/>
<polygon fill="#63b8ff" stroke="#63b8ff" points="98.34,-88.92 103.43,-79.63 93.66,-83.71 98.34,-88.92"/>
</a>
</g>
</g>
<!-- Node14&#45;&gt;Node3 -->
<g id="edge20_Node000014_Node000003" class="edge">
<title>Node14&#45;&gt;Node3</title>
<g id="a_edge20_Node000014_Node000003"><a xlink:title=" ">
<path fill="none" stroke="#63b8ff" d="M747.92,-493.35C576.34,-479.86 114,-437.57 114,-373.5 114,-373.5 114,-373.5 114,-311 114,-236.86 160.73,-229.56 212,-176 222.57,-164.96 235.92,-154.25 246.94,-146.1"/>
<polygon fill="#63b8ff" stroke="#63b8ff" points="249.11,-148.85 255.17,-140.16 245.02,-143.17 249.11,-148.85"/>
</a>
</g>
</g>
<!-- Node14&#45;&gt;Node13 -->
<g id="edge21_Node000014_Node000013" class="edge">
<title>Node14&#45;&gt;Node13</title>
<g id="a_edge21_Node000014_Node000013"><a xlink:title=" ">
<path fill="none" stroke="#63b8ff" d="M874.32,-492.87C965.71,-485.13 1139.76,-469.09 1287,-448 1294.48,-446.93 1302.35,-445.66 1310.08,-444.33"/>
<polygon fill="#63b8ff" stroke="#63b8ff" points="1310.87,-447.75 1320.12,-442.57 1309.66,-440.85 1310.87,-447.75"/>
</a>
</g>
</g>
<!-- Node15 -->
<g id="Node000015" class="node">
<title>Node15</title>
<g id="a_Node000015"><a xlink:title=" ">
<polygon fill="#e0e0e0" stroke="#999999" points="1215.5,-140 1150.5,-140 1150.5,-121 1215.5,-121 1215.5,-140"/>
<text text-anchor="middle" x="1183" y="-128" font-family="Helvetica,sans-Serif" font-size="10.00">functional</text>
</a>
</g>
</g>
<!-- Node14&#45;&gt;Node15 -->
<g id="edge18_Node000014_Node000015" class="edge">
<title>Node14&#45;&gt;Node15</title>
<g id="a_edge18_Node000014_Node000015"><a xlink:title=" ">
<path fill="none" stroke="#63b8ff" d="M874.27,-484.26C1000.8,-456.34 1273,-393.9 1273,-373.5 1273,-373.5 1273,-373.5 1273,-311 1273,-244.69 1223.31,-177.81 1197.77,-147.83"/>
<polygon fill="#63b8ff" stroke="#63b8ff" points="1200.2,-145.29 1190.99,-140.06 1194.93,-149.9 1200.2,-145.29"/>
</a>
</g>
</g>
<!-- Node16 -->
<g id="Node000016" class="node">
<title>Node16</title>
<g id="a_Node000016"><a xlink:title=" ">
<polygon fill="#e0e0e0" stroke="#999999" points="1206.5,-321.5 1159.5,-321.5 1159.5,-302.5 1206.5,-302.5 1206.5,-321.5"/>
<text text-anchor="middle" x="1183" y="-309.5" font-family="Helvetica,sans-Serif" font-size="10.00">vector</text>
</a>
</g>
</g>
<!-- Node14&#45;&gt;Node16 -->
<g id="edge19_Node000014_Node000016" class="edge">
<title>Node14&#45;&gt;Node16</title>
<g id="a_edge19_Node000014_Node000016"><a xlink:title=" ">
<path fill="none" stroke="#63b8ff" d="M861.59,-483.95C922.23,-465.81 1025.59,-430.69 1105,-382 1129.19,-367.17 1153.03,-344.59 1167.87,-329.34"/>
<polygon fill="#63b8ff" stroke="#63b8ff" points="1170.76,-331.37 1175.12,-321.71 1165.69,-326.54 1170.76,-331.37"/>
</a>
</g>
</g>
<!-- Node17 -->
<g id="Node000017" class="node">
<title>Node17</title>
<g id="a_Node000017"><a xlink:href="ExtensionObject_8h.html" target="_top" xlink:title=" ">
<polygon fill="white" stroke="#666666" points="893,-448 729,-448 729,-418 893,-418 893,-448"/>
<text text-anchor="start" x="737" y="-436" font-family="Helvetica,sans-Serif" font-size="10.00">open62541pp/types/Extension</text>
<text text-anchor="middle" x="811" y="-425" font-family="Helvetica,sans-Serif" font-size="10.00">Object.h</text>
</a>
</g>
</g>
<!-- Node14&#45;&gt;Node17 -->
<g id="edge22_Node000014_Node000017" class="edge">
<title>Node14&#45;&gt;Node17</title>
<g id="a_edge22_Node000014_Node000017"><a xlink:title=" ">
<path fill="none" stroke="#63b8ff" d="M811,-483.8C811,-476.34 811,-466.99 811,-458.41"/>
<polygon fill="#63b8ff" stroke="#63b8ff" points="814.5,-458.16 811,-448.16 807.5,-458.16 814.5,-458.16"/>
</a>
</g>
</g>
<!-- Node17&#45;&gt;Node8 -->
<g id="edge70_Node000017_Node000008" class="edge">
<title>Node17&#45;&gt;Node8</title>
<g id="a_edge70_Node000017_Node000008"><a xlink:title=" ">
<path fill="none" stroke="#63b8ff" d="M893.02,-424.53C952.85,-417.53 1035.33,-404.64 1105,-382 1157.36,-364.98 1175.95,-364.78 1216,-327 1286.03,-260.93 1343.44,-195.94 1283,-121 1267.85,-102.21 1212.45,-89.18 1164.4,-81.15"/>
<polygon fill="#63b8ff" stroke="#63b8ff" points="1164.7,-77.65 1154.27,-79.51 1163.58,-84.56 1164.7,-77.65"/>
</a>
</g>
</g>
<!-- Node18 -->
<g id="Node000018" class="node">
<title>Node18</title>
<g id="a_Node000018"><a xlink:title=" ">
<polygon fill="#e0e0e0" stroke="#999999" points="563,-382 507,-382 507,-363 563,-363 563,-382"/>
<text text-anchor="middle" x="535" y="-370" font-family="Helvetica,sans-Serif" font-size="10.00">optional</text>
</a>
</g>
</g>
<!-- Node17&#45;&gt;Node18 -->
<g id="edge23_Node000017_Node000018" class="edge">
<title>Node17&#45;&gt;Node18</title>
<g id="a_edge23_Node000017_Node000018"><a xlink:title=" ">
<path fill="none" stroke="#63b8ff" d="M742.16,-417.97C696.79,-408.64 635.81,-395.93 573.31,-382.26"/>
<polygon fill="#63b8ff" stroke="#63b8ff" points="573.79,-378.78 563.27,-380.05 572.29,-385.62 573.79,-378.78"/>
</a>
</g>
</g>
<!-- Node19 -->
<g id="Node000019" class="node">
<title>Node19</title>
<g id="a_Node000019"><a xlink:href="TypeConverter_8h.html" target="_top" xlink:title=" ">
<polygon fill="white" stroke="#666666" points="745,-382 581,-382 581,-363 745,-363 745,-382"/>
<text text-anchor="middle" x="663" y="-370" font-family="Helvetica,sans-Serif" font-size="10.00">open62541pp/TypeConverter.h</text>
</a>
</g>
</g>
<!-- Node17&#45;&gt;Node19 -->
<g id="edge24_Node000017_Node000019" class="edge">
<title>Node17&#45;&gt;Node19</title>
<g id="a_edge24_Node000017_Node000019"><a xlink:title=" ">
<path fill="none" stroke="#63b8ff" d="M775.55,-417.99C750.86,-408.23 718.22,-395.33 694.45,-385.93"/>
<polygon fill="#63b8ff" stroke="#63b8ff" points="695.44,-382.56 684.86,-382.14 692.87,-389.07 695.44,-382.56"/>
</a>
</g>
</g>
<!-- Node26 -->
<g id="Node000026" class="node">
<title>Node26</title>
<g id="a_Node000026"><a xlink:href="TypeWrapper_8h.html" target="_top" xlink:title=" ">
<polygon fill="white" stroke="#666666" points="830,-261 672,-261 672,-242 830,-242 830,-261"/>
<text text-anchor="middle" x="751" y="-249" font-family="Helvetica,sans-Serif" font-size="10.00">open62541pp/TypeWrapper.h</text>
</a>
</g>
</g>
<!-- Node17&#45;&gt;Node26 -->
<g id="edge69_Node000017_Node000026" class="edge">
<title>Node17&#45;&gt;Node26</title>
<g id="a_edge69_Node000017_Node000026"><a xlink:title=" ">
<path fill="none" stroke="#63b8ff" d="M893.35,-423.73C1004.23,-409.5 1180.2,-374.12 1112,-297 1094.26,-276.93 941.45,-263.92 840.41,-257.42"/>
<polygon fill="#63b8ff" stroke="#63b8ff" points="840.39,-253.91 830.19,-256.78 839.95,-260.9 840.39,-253.91"/>
</a>
</g>
</g>
<!-- Node19&#45;&gt;Node3 -->
<g id="edge32_Node000019_Node000003" class="edge">
<title>Node19&#45;&gt;Node3</title>
<g id="a_edge32_Node000019_Node000003"><a xlink:title=" ">
<path fill="none" stroke="#63b8ff" d="M580.78,-363.77C450.62,-351.48 211.54,-328.7 210,-327 162.45,-274.55 224.57,-184.75 254.05,-147.96"/>
<polygon fill="#63b8ff" stroke="#63b8ff" points="256.79,-150.13 260.43,-140.18 251.38,-145.69 256.79,-150.13"/>
</a>
</g>
</g>
<!-- Node19&#45;&gt;Node4 -->
<g id="edge29_Node000019_Node000004" class="edge">
<title>Node19&#45;&gt;Node4</title>
<g id="a_edge29_Node000019_Node000004"><a xlink:title=" ">
<path fill="none" stroke="#63b8ff" d="M583.61,-362.99C489.51,-352.57 344.19,-335.29 335,-327 285.16,-282.05 306.52,-237.23 334,-176 349.5,-141.46 377.22,-106.77 394.27,-87.17"/>
<polygon fill="#63b8ff" stroke="#63b8ff" points="397.05,-89.32 401.06,-79.52 391.81,-84.67 397.05,-89.32"/>
</a>
</g>
</g>
<!-- Node19&#45;&gt;Node6 -->
<g id="edge56_Node000019_Node000006" class="edge">
<title>Node19&#45;&gt;Node6</title>
<g id="a_edge56_Node000019_Node000006"><a xlink:title=" ">
<path fill="none" stroke="#63b8ff" d="M580.92,-363.82C445.54,-351.15 190.2,-327.22 190,-327 128.37,-259.3 149.56,-203.14 190,-121 196.06,-108.68 206.78,-98.55 217.79,-90.71"/>
<polygon fill="#63b8ff" stroke="#63b8ff" points="219.77,-93.59 226.19,-85.16 215.91,-87.75 219.77,-93.59"/>
</a>
</g>
</g>
<!-- Node19&#45;&gt;Node7 -->
<g id="edge30_Node000019_Node000007" class="edge">
<title>Node19&#45;&gt;Node7</title>
<g id="a_edge30_Node000019_Node000007"><a xlink:title=" ">
<path fill="none" stroke="#63b8ff" d="M661.07,-362.84C654.18,-330.77 631.66,-215.71 641,-121 644.24,-88.18 652.75,-50.66 658.19,-28.86"/>
<polygon fill="#63b8ff" stroke="#63b8ff" points="661.62,-29.57 660.71,-19.01 654.84,-27.83 661.62,-29.57"/>
</a>
</g>
</g>
<!-- Node19&#45;&gt;Node8 -->
<g id="edge57_Node000019_Node000008" class="edge">
<title>Node19&#45;&gt;Node8</title>
<g id="a_edge57_Node000019_Node000008"><a xlink:title=" ">
<path fill="none" stroke="#63b8ff" d="M695.66,-362.95C805.07,-334.1 1153.93,-240.22 1193,-206 1223.37,-179.4 1248.18,-154.05 1225,-121 1211.37,-101.56 1189.37,-89.65 1166.91,-82.36"/>
<polygon fill="#63b8ff" stroke="#63b8ff" points="1167.86,-78.99 1157.28,-79.51 1165.88,-85.7 1167.86,-78.99"/>
</a>
</g>
</g>
<!-- Node19&#45;&gt;Node16 -->
<g id="edge31_Node000019_Node000016" class="edge">
<title>Node19&#45;&gt;Node16</title>
<g id="a_edge31_Node000019_Node000016"><a xlink:title=" ">
<path fill="none" stroke="#63b8ff" d="M745.22,-365.73C835.48,-358.84 984.53,-345.84 1112,-327 1124.3,-325.18 1137.71,-322.68 1149.53,-320.29"/>
<polygon fill="#63b8ff" stroke="#63b8ff" points="1150.35,-323.69 1159.43,-318.24 1148.93,-316.84 1150.35,-323.69"/>
</a>
</g>
</g>
<!-- Node20 -->
<g id="Node000020" class="node">
<title>Node20</title>
<g id="a_Node000020"><a xlink:title=" ">
<polygon fill="#e0e0e0" stroke="#999999" points="752,-321.5 710,-321.5 710,-302.5 752,-302.5 752,-321.5"/>
<text text-anchor="middle" x="731" y="-309.5" font-family="Helvetica,sans-Serif" font-size="10.00">array</text>
</a>
</g>
</g>
<!-- Node19&#45;&gt;Node20 -->
<g id="edge25_Node000019_Node000020" class="edge">
<title>Node19&#45;&gt;Node20</title>
<g id="a_edge25_Node000019_Node000020"><a xlink:title=" ">
<path fill="none" stroke="#63b8ff" d="M673.03,-362.87C683.58,-353.8 700.39,-339.34 713.19,-328.32"/>
<polygon fill="#63b8ff" stroke="#63b8ff" points="715.63,-330.84 720.93,-321.67 711.06,-325.54 715.63,-330.84"/>
</a>
</g>
</g>
<!-- Node21 -->
<g id="Node000021" class="node">
<title>Node21</title>
<g id="a_Node000021"><a xlink:title=" ">
<polygon fill="#e0e0e0" stroke="#999999" points="385,-261 335,-261 335,-242 385,-242 385,-261"/>
<text text-anchor="middle" x="360" y="-249" font-family="Helvetica,sans-Serif" font-size="10.00">chrono</text>
</a>
</g>
</g>
<!-- Node19&#45;&gt;Node21 -->
<g id="edge26_Node000019_Node000021" class="edge">
<title>Node19&#45;&gt;Node21</title>
<g id="a_edge26_Node000019_Node000021"><a xlink:title=" ">
<path fill="none" stroke="#63b8ff" d="M591.32,-362.99C517.63,-353.7 411.49,-338.6 396,-327 377.89,-313.44 368.44,-288.36 363.85,-271.08"/>
<polygon fill="#63b8ff" stroke="#63b8ff" points="367.18,-269.97 361.49,-261.04 360.37,-271.58 367.18,-269.97"/>
</a>
</g>
</g>
<!-- Node22 -->
<g id="Node000022" class="node">
<title>Node22</title>
<g id="a_Node000022"><a xlink:title=" ">
<polygon fill="#e0e0e0" stroke="#999999" points="271.5,-321.5 218.5,-321.5 218.5,-302.5 271.5,-302.5 271.5,-321.5"/>
<text text-anchor="middle" x="245" y="-309.5" font-family="Helvetica,sans-Serif" font-size="10.00">iterator</text>
</a>
</g>
</g>
<!-- Node19&#45;&gt;Node22 -->
<g id="edge27_Node000019_Node000022" class="edge">
<title>Node19&#45;&gt;Node22</title>
<g id="a_edge27_Node000019_Node000022"><a xlink:title=" ">
<path fill="none" stroke="#63b8ff" d="M580.79,-363.85C487.21,-354.77 340.31,-339.33 286,-327 283.02,-326.32 279.94,-325.51 276.89,-324.61"/>
<polygon fill="#63b8ff" stroke="#63b8ff" points="277.9,-321.26 267.31,-321.57 275.78,-327.93 277.9,-321.26"/>
</a>
</g>
</g>
<!-- Node23 -->
<g id="Node000023" class="node">
<title>Node23</title>
<g id="a_Node000023"><a xlink:title=" ">
<polygon fill="#e0e0e0" stroke="#999999" points="501,-140 457,-140 457,-121 501,-121 501,-140"/>
<text text-anchor="middle" x="479" y="-128" font-family="Helvetica,sans-Serif" font-size="10.00">string</text>
</a>
</g>
</g>
<!-- Node19&#45;&gt;Node23 -->
<g id="edge28_Node000019_Node000023" class="edge">
<title>Node19&#45;&gt;Node23</title>
<g id="a_edge28_Node000019_Node000023"><a xlink:title=" ">
<path fill="none" stroke="#63b8ff" d="M584.75,-363C503.86,-353.68 386.91,-338.52 369,-327 339.56,-308.05 335.97,-294.56 326,-261 307.55,-198.89 396.86,-158.63 446.94,-141.29"/>
<polygon fill="#63b8ff" stroke="#63b8ff" points="448.32,-144.52 456.69,-138.03 446.1,-137.88 448.32,-144.52"/>
</a>
</g>
</g>
<!-- Node24 -->
<g id="Node000024" class="node">
<title>Node24</title>
<g id="a_Node000024"><a xlink:href="ErrorHandling_8h.html" target="_top" xlink:title=" ">
<polygon fill="white" stroke="#666666" points="1183.5,-200.5 1022.5,-200.5 1022.5,-181.5 1183.5,-181.5 1183.5,-200.5"/>
<text text-anchor="middle" x="1103" y="-188.5" font-family="Helvetica,sans-Serif" font-size="10.00">open62541pp/ErrorHandling.h</text>
</a>
</g>
</g>
<!-- Node19&#45;&gt;Node24 -->
<g id="edge33_Node000019_Node000024" class="edge">
<title>Node19&#45;&gt;Node24</title>
<g id="a_edge33_Node000019_Node000024"><a xlink:title=" ">
<path fill="none" stroke="#63b8ff" d="M684.97,-362.92C731.91,-344.54 845.42,-299.88 940,-261 987.01,-241.68 1041.31,-218.52 1073.86,-204.55"/>
<polygon fill="#63b8ff" stroke="#63b8ff" points="1075.43,-207.69 1083.23,-200.52 1072.66,-201.26 1075.43,-207.69"/>
</a>
</g>
</g>
<!-- Node19&#45;&gt;Node26 -->
<g id="edge39_Node000019_Node000026" class="edge">
<title>Node19&#45;&gt;Node26</title>
<g id="a_edge39_Node000019_Node000026"><a xlink:title=" ">
<path fill="none" stroke="#63b8ff" d="M666.27,-362.63C671.91,-348.02 684.49,-318.37 701,-297 709.46,-286.05 720.87,-275.65 730.66,-267.67"/>
<polygon fill="#63b8ff" stroke="#63b8ff" points="733.03,-270.25 738.72,-261.32 728.7,-264.75 733.03,-270.25"/>
</a>
</g>
</g>
<!-- Node29 -->
<g id="Node000029" class="node">
<title>Node29</title>
<g id="a_Node000029"><a xlink:href="helper_8h.html" target="_top" xlink:title=" ">
<polygon fill="white" stroke="#666666" points="597.5,-206 484.5,-206 484.5,-176 597.5,-176 597.5,-206"/>
<text text-anchor="start" x="492.5" y="-194" font-family="Helvetica,sans-Serif" font-size="10.00">open62541pp/detail</text>
<text text-anchor="middle" x="541" y="-183" font-family="Helvetica,sans-Serif" font-size="10.00">/helper.h</text>
</a>
</g>
</g>
<!-- Node19&#45;&gt;Node29 -->
<g id="edge55_Node000019_Node000029" class="edge">
<title>Node19&#45;&gt;Node29</title>
<g id="a_edge55_Node000019_Node000029"><a xlink:title=" ">
<path fill="none" stroke="#63b8ff" d="M656.28,-362.74C649.51,-353.84 638.82,-339.61 630,-327 602.94,-288.32 573.02,-242.2 555.68,-215.11"/>
<polygon fill="#63b8ff" stroke="#63b8ff" points="558.43,-212.91 550.1,-206.36 552.53,-216.67 558.43,-212.91"/>
</a>
</g>
</g>
<!-- Node31 -->
<g id="Node000031" class="node">
<title>Node31</title>
<g id="a_Node000031"><a xlink:href="DateTime_8h.html" target="_top" xlink:title=" ">
<polygon fill="white" stroke="#666666" points="577.5,-321.5 404.5,-321.5 404.5,-302.5 577.5,-302.5 577.5,-321.5"/>
<text text-anchor="middle" x="491" y="-309.5" font-family="Helvetica,sans-Serif" font-size="10.00">open62541pp/types/DateTime.h</text>
</a>
</g>
</g>
<!-- Node19&#45;&gt;Node31 -->
<g id="edge58_Node000019_Node000031" class="edge">
<title>Node19&#45;&gt;Node31</title>
<g id="a_edge58_Node000019_Node000031"><a xlink:title=" ">
<path fill="none" stroke="#63b8ff" d="M637.99,-362.99C608.44,-352.94 559.09,-336.16 525.81,-324.84"/>
<polygon fill="#63b8ff" stroke="#63b8ff" points="526.63,-321.42 516.04,-321.52 524.38,-328.05 526.63,-321.42"/>
</a>
</g>
</g>
<!-- Node33 -->
<g id="Node000033" class="node">
<title>Node33</title>
<g id="a_Node000033"><a xlink:href="TypeConverterNative_8h.html" target="_top" xlink:title=" ">
<polygon fill="white" stroke="#666666" points="1103,-327 947,-327 947,-297 1103,-297 1103,-327"/>
<text text-anchor="start" x="955" y="-315" font-family="Helvetica,sans-Serif" font-size="10.00">open62541pp/TypeConverter</text>
<text text-anchor="middle" x="1025" y="-304" font-family="Helvetica,sans-Serif" font-size="10.00">Native.h</text>
</a>
</g>
</g>
<!-- Node19&#45;&gt;Node33 -->
<g id="edge66_Node000019_Node000033" class="edge">
<title>Node19&#45;&gt;Node33</title>
<g id="a_edge66_Node000019_Node000033"><a xlink:title=" ">
<path fill="none" stroke="#63b8ff" d="M710.71,-362.99C768.04,-353.39 865.24,-337.64 936.43,-326.38"/>
<polygon fill="#63b8ff" stroke="#63b8ff" points="937.4,-329.77 946.74,-324.75 936.31,-322.86 937.4,-329.77"/>
</a>
</g>
</g>
<!-- Node24&#45;&gt;Node7 -->
<g id="edge37_Node000024_Node000007" class="edge">
<title>Node24&#45;&gt;Node7</title>
<g id="a_edge37_Node000024_Node000007"><a xlink:title=" ">
<path fill="none" stroke="#63b8ff" d="M1082.07,-181.46C1010.85,-152.41 777.61,-57.25 693.55,-22.96"/>
<polygon fill="#63b8ff" stroke="#63b8ff" points="694.64,-19.63 684.05,-19.09 691.99,-26.11 694.64,-19.63"/>
</a>
</g>
</g>
<!-- Node24&#45;&gt;Node8 -->
<g id="edge38_Node000024_Node000008" class="edge">
<title>Node24&#45;&gt;Node8</title>
<g id="a_edge38_Node000024_Node000008"><a xlink:title=" ">
<path fill="none" stroke="#63b8ff" d="M1102.56,-181.47C1101.82,-168.4 1100.1,-142.66 1097,-121 1095.5,-110.54 1093.23,-98.97 1091.23,-89.6"/>
<polygon fill="#63b8ff" stroke="#63b8ff" points="1094.64,-88.81 1089.07,-79.8 1087.8,-90.32 1094.64,-88.81"/>
</a>
</g>
</g>
<!-- Node24&#45;&gt;Node15 -->
<g id="edge34_Node000024_Node000015" class="edge">
<title>Node24&#45;&gt;Node15</title>
<g id="a_edge34_Node000024_Node000015"><a xlink:title=" ">
<path fill="none" stroke="#63b8ff" d="M1114.8,-181.37C1127.45,-172.12 1147.74,-157.28 1162.91,-146.19"/>
<polygon fill="#63b8ff" stroke="#63b8ff" points="1165.14,-148.9 1171.15,-140.17 1161.01,-143.24 1165.14,-148.9"/>
</a>
</g>
</g>
<!-- Node24&#45;&gt;Node23 -->
<g id="edge36_Node000024_Node000023" class="edge">
<title>Node24&#45;&gt;Node23</title>
<g id="a_edge36_Node000024_Node000023"><a xlink:title=" ">
<path fill="none" stroke="#63b8ff" d="M1027.22,-181.46C1010.06,-179.6 991.91,-177.68 975,-176 800.39,-158.62 590.9,-140.83 511.57,-134.2"/>
<polygon fill="#63b8ff" stroke="#63b8ff" points="511.52,-130.68 501.26,-133.34 510.94,-137.66 511.52,-130.68"/>
</a>
</g>
</g>
<!-- Node25 -->
<g id="Node000025" class="node">
<title>Node25</title>
<g id="a_Node000025"><a xlink:title=" ">
<polygon fill="#e0e0e0" stroke="#999999" points="1087.5,-140 1022.5,-140 1022.5,-121 1087.5,-121 1087.5,-140"/>
<text text-anchor="middle" x="1055" y="-128" font-family="Helvetica,sans-Serif" font-size="10.00">stdexcept</text>
</a>
</g>
</g>
<!-- Node24&#45;&gt;Node25 -->
<g id="edge35_Node000024_Node000025" class="edge">
<title>Node24&#45;&gt;Node25</title>
<g id="a_edge35_Node000024_Node000025"><a xlink:title=" ">
<path fill="none" stroke="#63b8ff" d="M1095.92,-181.37C1088.76,-172.64 1077.51,-158.93 1068.61,-148.09"/>
<polygon fill="#63b8ff" stroke="#63b8ff" points="1071.16,-145.68 1062.11,-140.17 1065.75,-150.12 1071.16,-145.68"/>
</a>
</g>
</g>
<!-- Node26&#45;&gt;Node2 -->
<g id="edge41_Node000026_Node000002" class="edge">
<title>Node26&#45;&gt;Node2</title>
<g id="a_edge41_Node000026_Node000002"><a xlink:title=" ">
<path fill="none" stroke="#63b8ff" d="M671.76,-246.02C595.86,-240.55 478.49,-229.03 379,-206 292.32,-185.93 266.47,-185.48 190,-140 165.96,-125.7 142.83,-103 128.54,-87.58"/>
<polygon fill="#63b8ff" stroke="#63b8ff" points="130.85,-84.92 121.55,-79.85 125.66,-89.62 130.85,-84.92"/>
</a>
</g>
</g>
<!-- Node26&#45;&gt;Node3 -->
<g id="edge44_Node000026_Node000003" class="edge">
<title>Node26&#45;&gt;Node3</title>
<g id="a_edge44_Node000026_Node000003"><a xlink:title=" ">
<path fill="none" stroke="#63b8ff" d="M674.65,-241.97C619.03,-234.83 542.15,-223.05 476,-206 410.77,-189.19 337.15,-160.38 297.35,-143.95"/>
<polygon fill="#63b8ff" stroke="#63b8ff" points="298.56,-140.67 287.99,-140.05 295.87,-147.13 298.56,-140.67"/>
</a>
</g>
</g>
<!-- Node26&#45;&gt;Node7 -->
<g id="edge42_Node000026_Node000007" class="edge">
<title>Node26&#45;&gt;Node7</title>
<g id="a_edge42_Node000026_Node000007"><a xlink:title=" ">
<path fill="none" stroke="#63b8ff" d="M727.89,-241.98C712.41,-234.92 693.24,-223.23 684,-206 677.7,-194.25 679.78,-188.65 684,-176 690.32,-157.03 704.68,-158.97 711,-140 713.67,-131.99 712.72,-129.27 711,-121 703.8,-86.35 685.15,-49.23 673.33,-28.04"/>
<polygon fill="#63b8ff" stroke="#63b8ff" points="676.3,-26.19 668.3,-19.25 670.23,-29.67 676.3,-26.19"/>
</a>
</g>
</g>
<!-- Node26&#45;&gt;Node8 -->
<g id="edge52_Node000026_Node000008" class="edge">
<title>Node26&#45;&gt;Node8</title>
<g id="a_edge52_Node000026_Node000008"><a xlink:title=" ">
<path fill="none" stroke="#63b8ff" d="M757.66,-241.61C769.41,-226.43 795.23,-195.29 823,-176 892.22,-127.92 986.65,-97.25 1041.8,-82.16"/>
<polygon fill="#63b8ff" stroke="#63b8ff" points="1042.87,-85.5 1051.62,-79.53 1041.06,-78.74 1042.87,-85.5"/>
</a>
</g>
</g>
<!-- Node26&#45;&gt;Node24 -->
<g id="edge45_Node000026_Node000024" class="edge">
<title>Node26&#45;&gt;Node24</title>
<g id="a_edge45_Node000026_Node000024"><a xlink:title=" ">
<path fill="none" stroke="#63b8ff" d="M802.18,-241.99C865.66,-231.44 973.77,-213.48 1041.63,-202.2"/>
<polygon fill="#63b8ff" stroke="#63b8ff" points="1042.46,-205.61 1051.75,-200.52 1041.32,-198.7 1042.46,-205.61"/>
</a>
</g>
</g>
<!-- Node27 -->
<g id="Node000027" class="node">
<title>Node27</title>
<g id="a_Node000027"><a xlink:title=" ">
<polygon fill="#e0e0e0" stroke="#999999" points="702,-140 650,-140 650,-121 702,-121 702,-140"/>
<text text-anchor="middle" x="676" y="-128" font-family="Helvetica,sans-Serif" font-size="10.00">cassert</text>
</a>
</g>
</g>
<!-- Node26&#45;&gt;Node27 -->
<g id="edge40_Node000026_Node000027" class="edge">
<title>Node26&#45;&gt;Node27</title>
<g id="a_edge40_Node000026_Node000027"><a xlink:title=" ">
<path fill="none" stroke="#63b8ff" d="M752.92,-241.96C755.72,-227.33 759.36,-196.98 747,-176 738.72,-161.95 724.08,-151.67 710.23,-144.55"/>
<polygon fill="#63b8ff" stroke="#63b8ff" points="711.39,-141.23 700.85,-140.12 708.4,-147.56 711.39,-141.23"/>
</a>
</g>
</g>
<!-- Node28 -->
<g id="Node000028" class="node">
<title>Node28</title>
<g id="a_Node000028"><a xlink:title=" ">
<polygon fill="#e0e0e0" stroke="#999999" points="737.5,-200.5 692.5,-200.5 692.5,-181.5 737.5,-181.5 737.5,-200.5"/>
<text text-anchor="middle" x="715" y="-188.5" font-family="Helvetica,sans-Serif" font-size="10.00">utility</text>
</a>
</g>
</g>
<!-- Node26&#45;&gt;Node28 -->
<g id="edge43_Node000026_Node000028" class="edge">
<title>Node26&#45;&gt;Node28</title>
<g id="a_edge43_Node000026_Node000028"><a xlink:title=" ">
<path fill="none" stroke="#63b8ff" d="M745.69,-241.87C740.42,-233.31 732.21,-219.97 725.61,-209.24"/>
<polygon fill="#63b8ff" stroke="#63b8ff" points="728.56,-207.35 720.33,-200.67 722.59,-211.02 728.56,-207.35"/>
</a>
</g>
</g>
<!-- Node26&#45;&gt;Node29 -->
<g id="edge46_Node000026_Node000029" class="edge">
<title>Node26&#45;&gt;Node29</title>
<g id="a_edge46_Node000026_Node000029"><a xlink:title=" ">
<path fill="none" stroke="#63b8ff" d="M720.46,-241.99C689.32,-233.32 640.16,-219.62 601.17,-208.76"/>
<polygon fill="#63b8ff" stroke="#63b8ff" points="602.06,-205.38 591.49,-206.06 600.18,-212.12 602.06,-205.38"/>
</a>
</g>
</g>
<!-- Node30 -->
<g id="Node000030" class="node">
<title>Node30</title>
<g id="a_Node000030"><a xlink:href="comparison_8h.html" target="_top" xlink:title=" ">
<polygon fill="white" stroke="#666666" points="966,-206 832,-206 832,-176 966,-176 966,-206"/>
<text text-anchor="start" x="840" y="-194" font-family="Helvetica,sans-Serif" font-size="10.00">open62541pp/overloads</text>
<text text-anchor="middle" x="899" y="-183" font-family="Helvetica,sans-Serif" font-size="10.00">/comparison.h</text>
</a>
</g>
</g>
<!-- Node26&#45;&gt;Node30 -->
<g id="edge53_Node000026_Node000030" class="edge">
<title>Node26&#45;&gt;Node30</title>
<g id="a_edge53_Node000026_Node000030"><a xlink:title=" ">
<path fill="none" stroke="#63b8ff" d="M772.52,-241.99C793.73,-233.61 826.78,-220.55 853.78,-209.87"/>
<polygon fill="#63b8ff" stroke="#63b8ff" points="855.41,-213 863.42,-206.06 852.83,-206.49 855.41,-213"/>
</a>
</g>
</g>
<!-- Node29&#45;&gt;Node3 -->
<g id="edge50_Node000029_Node000003" class="edge">
<title>Node29&#45;&gt;Node3</title>
<g id="a_edge50_Node000029_Node000003"><a xlink:title=" ">
<path fill="none" stroke="#63b8ff" d="M484.43,-177.88C435.25,-167.34 364.7,-152.22 317.67,-142.14"/>
<polygon fill="#63b8ff" stroke="#63b8ff" points="318.22,-138.68 307.71,-140.01 316.75,-145.53 318.22,-138.68"/>
</a>
</g>
</g>
<!-- Node29&#45;&gt;Node4 -->
<g id="edge49_Node000029_Node000004" class="edge">
<title>Node29&#45;&gt;Node4</title>
<g id="a_edge49_Node000029_Node000004"><a xlink:title=" ">
<path fill="none" stroke="#63b8ff" d="M537.73,-175.96C533.57,-160.76 525.03,-136.61 510,-121 493.01,-103.36 468.49,-91.02 447.86,-83.01"/>
<polygon fill="#63b8ff" stroke="#63b8ff" points="448.99,-79.69 438.4,-79.52 446.57,-86.26 448.99,-79.69"/>
</a>
</g>
</g>
<!-- Node29&#45;&gt;Node8 -->
<g id="edge51_Node000029_Node000008" class="edge">
<title>Node29&#45;&gt;Node8</title>
<g id="a_edge51_Node000029_Node000008"><a xlink:title=" ">
<path fill="none" stroke="#63b8ff" d="M556.23,-175.83C574.73,-159.56 607.61,-133.48 641,-121 705.23,-96.99 891.96,-82.36 1002.38,-75.56"/>
<polygon fill="#63b8ff" stroke="#63b8ff" points="1002.73,-79.05 1012.5,-74.95 1002.3,-72.06 1002.73,-79.05"/>
</a>
</g>
</g>
<!-- Node29&#45;&gt;Node23 -->
<g id="edge48_Node000029_Node000023" class="edge">
<title>Node29&#45;&gt;Node23</title>
<g id="a_edge48_Node000029_Node000023"><a xlink:title=" ">
<path fill="none" stroke="#63b8ff" d="M525.99,-175.84C516.81,-167.17 505.05,-156.08 495.59,-147.15"/>
<polygon fill="#63b8ff" stroke="#63b8ff" points="497.97,-144.58 488.29,-140.27 493.16,-149.67 497.97,-144.58"/>
</a>
</g>
</g>
<!-- Node29&#45;&gt;Node27 -->
<g id="edge47_Node000029_Node000027" class="edge">
<title>Node29&#45;&gt;Node27</title>
<g id="a_edge47_Node000029_Node000027"><a xlink:title=" ">
<path fill="none" stroke="#63b8ff" d="M573.34,-175.99C595.66,-166.31 625.1,-153.56 646.73,-144.18"/>
<polygon fill="#63b8ff" stroke="#63b8ff" points="648.28,-147.33 656.06,-140.14 645.5,-140.9 648.28,-147.33"/>
</a>
</g>
</g>
<!-- Node30&#45;&gt;Node8 -->
<g id="edge54_Node000030_Node000008" class="edge">
<title>Node30&#45;&gt;Node8</title>
<g id="a_edge54_Node000030_Node000008"><a xlink:title=" ">
<path fill="none" stroke="#63b8ff" d="M913.27,-175.74C928.76,-160.8 954.67,-137.28 980,-121 1003.78,-105.71 1032.99,-92.39 1054.87,-83.35"/>
<polygon fill="#63b8ff" stroke="#63b8ff" points="1056.41,-86.5 1064.37,-79.5 1053.78,-80.01 1056.41,-86.5"/>
</a>
</g>
</g>
<!-- Node31&#45;&gt;Node2 -->
<g id="edge60_Node000031_Node000002" class="edge">
<title>Node31&#45;&gt;Node2</title>
<g id="a_edge60_Node000031_Node000002"><a xlink:title=" ">
<path fill="none" stroke="#63b8ff" d="M481.55,-302.47C465,-287.98 429.18,-258.5 394,-242 337.39,-215.45 315.01,-231.69 258,-206 209.79,-184.27 196.2,-177.58 159,-140 143.96,-124.81 131.14,-103.83 123.07,-89"/>
<polygon fill="#63b8ff" stroke="#63b8ff" points="126.03,-87.1 118.28,-79.87 119.83,-90.35 126.03,-87.1"/>
</a>
</g>
</g>
<!-- Node31&#45;&gt;Node4 -->
<g id="edge63_Node000031_Node000004" class="edge">
<title>Node31&#45;&gt;Node4</title>
<g id="a_edge63_Node000031_Node000004"><a xlink:title=" ">
<path fill="none" stroke="#63b8ff" d="M488.08,-302.46C476.25,-267.83 431.72,-137.49 415.21,-89.17"/>
<polygon fill="#63b8ff" stroke="#63b8ff" points="418.51,-88.02 411.97,-79.69 411.89,-90.28 418.51,-88.02"/>
</a>
</g>
</g>
<!-- Node31&#45;&gt;Node8 -->
<g id="edge65_Node000031_Node000008" class="edge">
<title>Node31&#45;&gt;Node8</title>
<g id="a_edge65_Node000031_Node000008"><a xlink:title=" ">
<path fill="none" stroke="#63b8ff" d="M577.56,-303C700.99,-289.86 918.85,-259.64 975,-206 1005.06,-177.29 987.22,-152.78 1014,-121 1026.79,-105.82 1045.26,-93.23 1060.42,-84.48"/>
<polygon fill="#63b8ff" stroke="#63b8ff" points="1062.3,-87.44 1069.35,-79.54 1058.91,-81.32 1062.3,-87.44"/>
</a>
</g>
</g>
<!-- Node31&#45;&gt;Node21 -->
<g id="edge59_Node000031_Node000021" class="edge">
<title>Node31&#45;&gt;Node21</title>
<g id="a_edge59_Node000031_Node000021"><a xlink:title=" ">
<path fill="none" stroke="#63b8ff" d="M471.95,-302.49C450.03,-292.7 413.79,-276.52 388.5,-265.23"/>
<polygon fill="#63b8ff" stroke="#63b8ff" points="389.63,-261.9 379.07,-261.02 386.78,-268.29 389.63,-261.9"/>
</a>
</g>
</g>
<!-- Node31&#45;&gt;Node23 -->
<g id="edge62_Node000031_Node000023" class="edge">
<title>Node31&#45;&gt;Node23</title>
<g id="a_edge62_Node000031_Node000023"><a xlink:title=" ">
<path fill="none" stroke="#63b8ff" d="M489.34,-302.33C485.99,-284.42 478.56,-242 476,-206 475.05,-192.7 475.55,-189.33 476,-176 476.29,-167.48 476.88,-158.06 477.47,-150.08"/>
<polygon fill="#63b8ff" stroke="#63b8ff" points="480.96,-150.26 478.25,-140.02 473.98,-149.72 480.96,-150.26"/>
</a>
</g>
</g>
<!-- Node31&#45;&gt;Node26 -->
<g id="edge64_Node000031_Node000026" class="edge">
<title>Node31&#45;&gt;Node26</title>
<g id="a_edge64_Node000031_Node000026"><a xlink:title=" ">
<path fill="none" stroke="#63b8ff" d="M528.81,-302.49C574.92,-292.12 652.93,-274.57 703.18,-263.26"/>
<polygon fill="#63b8ff" stroke="#63b8ff" points="704.16,-266.63 713.15,-261.02 702.62,-259.8 704.16,-266.63"/>
</a>
</g>
</g>
<!-- Node32 -->
<g id="Node000032" class="node">
<title>Node32</title>
<g id="a_Node000032"><a xlink:title=" ">
<polygon fill="#e0e0e0" stroke="#999999" points="556.5,-261 517.5,-261 517.5,-242 556.5,-242 556.5,-261"/>
<text text-anchor="middle" x="537" y="-249" font-family="Helvetica,sans-Serif" font-size="10.00">ratio</text>
</a>
</g>
</g>
<!-- Node31&#45;&gt;Node32 -->
<g id="edge61_Node000031_Node000032" class="edge">
<title>Node31&#45;&gt;Node32</title>
<g id="a_edge61_Node000031_Node000032"><a xlink:title=" ">
<path fill="none" stroke="#63b8ff" d="M497.79,-302.37C504.65,-293.64 515.43,-279.93 523.95,-269.09"/>
<polygon fill="#63b8ff" stroke="#63b8ff" points="526.75,-271.19 530.18,-261.17 521.25,-266.86 526.75,-271.19"/>
</a>
</g>
</g>
<!-- Node33&#45;&gt;Node8 -->
<g id="edge68_Node000033_Node000008" class="edge">
<title>Node33&#45;&gt;Node8</title>
<g id="a_edge68_Node000033_Node000008"><a xlink:title=" ">
<path fill="none" stroke="#63b8ff" d="M1103.05,-299.77C1158.59,-287.21 1229.29,-260.87 1264,-206 1284.2,-174.07 1286.79,-151.13 1264,-121 1250.43,-103.07 1198.21,-89.73 1153.98,-81.36"/>
<polygon fill="#63b8ff" stroke="#63b8ff" points="1154.57,-77.91 1144.11,-79.55 1153.31,-84.8 1154.57,-77.91"/>
</a>
</g>
</g>
<!-- Node33&#45;&gt;Node19 -->
<g id="edge67_Node000033_Node000019" class="edge">
<title>Node33&#45;&gt;Node19</title>
<g id="a_edge67_Node000033_Node000019"><a xlink:title=" ">
<path fill="none" stroke="#63b8ff" d="M946.9,-326.56C882.43,-337.21 791.94,-351.8 730.54,-361.43"/>
<polygon fill="#63b8ff" stroke="#63b8ff" points="729.9,-357.99 720.57,-362.99 730.99,-364.91 729.9,-357.99"/>
</a>
</g>
</g>
</g>
</svg>
