<?xml version="1.0" encoding="UTF-8" standalone="no"?>
<!DOCTYPE svg PUBLIC "-//W3C//DTD SVG 1.1//EN"
 "http://www.w3.org/Graphics/SVG/1.1/DTD/svg11.dtd">
<!-- Generated by graphviz version 2.43.0 (0)
 -->
<!-- Title: /home/runner/work/open62541pp/open62541pp/include/open62541pp/types/NodeId.h Pages: 1 -->
<svg width="1609pt" height="357pt"
 viewBox="0.00 0.00 1609.19 357.00" xmlns="http://www.w3.org/2000/svg" xmlns:xlink="http://www.w3.org/1999/xlink">
<g id="graph0" class="graph" transform="scale(1 1) rotate(0) translate(4 353)">
<title>/home/runner/work/open62541pp/open62541pp/include/open62541pp/types/NodeId.h</title>
<!-- Node1 -->
<g id="Node000001" class="node">
<title>Node1</title>
<g id="a_Node000001"><a xlink:title=" ">
<polygon fill="#999999" stroke="#666666" points="747.92,-349 554.92,-349 554.92,-308 747.92,-308 747.92,-349"/>
<text text-anchor="start" x="562.92" y="-337" font-family="Helvetica,sans-Serif" font-size="10.00">/home/runner/work/open62541pp</text>
<text text-anchor="start" x="562.92" y="-326" font-family="Helvetica,sans-Serif" font-size="10.00">/open62541pp/include/open62541pp</text>
<text text-anchor="middle" x="651.42" y="-315" font-family="Helvetica,sans-Serif" font-size="10.00">/types/NodeId.h</text>
</a>
</g>
</g>
<!-- Node2 -->
<g id="Node000002" class="node">
<title>Node2</title>
<g id="a_Node000002"><a xlink:href="AccessControl_8h.html" target="_top" xlink:title=" ">
<polygon fill="white" stroke="#666666" points="872.92,-195 679.92,-195 679.92,-154 872.92,-154 872.92,-195"/>
<text text-anchor="start" x="687.92" y="-183" font-family="Helvetica,sans-Serif" font-size="10.00">/home/runner/work/open62541pp</text>
<text text-anchor="start" x="687.92" y="-172" font-family="Helvetica,sans-Serif" font-size="10.00">/open62541pp/include/open62541pp</text>
<text text-anchor="middle" x="776.42" y="-161" font-family="Helvetica,sans-Serif" font-size="10.00">/AccessControl.h</text>
</a>
</g>
</g>
<!-- Node1&#45;&gt;Node2 -->
<g id="edge1_Node000001_Node000002" class="edge">
<title>Node1&#45;&gt;Node2</title>
<g id="a_edge1_Node000001_Node000002"><a xlink:title=" ">
<path fill="none" stroke="#63b8ff" d="M719.69,-303.23C734.01,-295.27 747.69,-285.03 757.42,-272 774.18,-249.56 777.26,-216.27 777.31,-195.24"/>
<polygon fill="#63b8ff" stroke="#63b8ff" points="717.99,-300.17 710.73,-307.88 721.21,-306.38 717.99,-300.17"/>
</a>
</g>
</g>
<!-- Node3 -->
<g id="Node000003" class="node">
<title>Node3</title>
<g id="a_Node000003"><a xlink:href="open62541pp_8h.html" target="_top" xlink:title=" ">
<polygon fill="white" stroke="#666666" points="622.92,-41 429.92,-41 429.92,0 622.92,0 622.92,-41"/>
<text text-anchor="start" x="437.92" y="-29" font-family="Helvetica,sans-Serif" font-size="10.00">/home/runner/work/open62541pp</text>
<text text-anchor="start" x="437.92" y="-18" font-family="Helvetica,sans-Serif" font-size="10.00">/open62541pp/include/open62541pp</text>
<text text-anchor="middle" x="526.42" y="-7" font-family="Helvetica,sans-Serif" font-size="10.00">/open62541pp.h</text>
</a>
</g>
</g>
<!-- Node1&#45;&gt;Node3 -->
<g id="edge19_Node000001_Node000003" class="edge">
<title>Node1&#45;&gt;Node3</title>
<g id="a_edge19_Node000001_Node000003"><a xlink:title=" ">
<path fill="none" stroke="#63b8ff" d="M544.72,-324.28C418.83,-318.99 218.17,-305.47 151.42,-272 67.65,-230 41.82,-205.16 7.42,-118 0.73,-101.05 -4.76,-90.55 7.42,-77 35.08,-46.23 287.4,-31.12 429.77,-24.98"/>
<polygon fill="#63b8ff" stroke="#63b8ff" points="544.65,-327.78 554.78,-324.69 544.93,-320.78 544.65,-327.78"/>
</a>
</g>
</g>
<!-- Node4 -->
<g id="Node000004" class="node">
<title>Node4</title>
<g id="a_Node000004"><a xlink:href="Client_8h.html" target="_top" xlink:title=" ">
<polygon fill="white" stroke="#666666" points="372.92,-195 179.92,-195 179.92,-154 372.92,-154 372.92,-195"/>
<text text-anchor="start" x="187.92" y="-183" font-family="Helvetica,sans-Serif" font-size="10.00">/home/runner/work/open62541pp</text>
<text text-anchor="start" x="187.92" y="-172" font-family="Helvetica,sans-Serif" font-size="10.00">/open62541pp/include/open62541pp</text>
<text text-anchor="middle" x="276.42" y="-161" font-family="Helvetica,sans-Serif" font-size="10.00">/Client.h</text>
</a>
</g>
</g>
<!-- Node1&#45;&gt;Node4 -->
<g id="edge3_Node000001_Node000004" class="edge">
<title>Node1&#45;&gt;Node4</title>
<g id="a_edge3_Node000001_Node000004"><a xlink:title=" ">
<path fill="none" stroke="#63b8ff" d="M544.7,-324.06C453.03,-318.8 330.31,-305.53 295.42,-272 274.86,-252.24 273.04,-217.2 274.26,-195.22"/>
<polygon fill="#63b8ff" stroke="#63b8ff" points="544.69,-327.56 554.87,-324.61 545.07,-320.57 544.69,-327.56"/>
</a>
</g>
</g>
<!-- Node5 -->
<g id="Node000005" class="node">
<title>Node5</title>
<g id="a_Node000005"><a xlink:href="DataTypeBuilder_8h.html" target="_top" xlink:title=" ">
<polygon fill="white" stroke="#666666" points="209.92,-118 16.92,-118 16.92,-77 209.92,-77 209.92,-118"/>
<text text-anchor="start" x="24.92" y="-106" font-family="Helvetica,sans-Serif" font-size="10.00">/home/runner/work/open62541pp</text>
<text text-anchor="start" x="24.92" y="-95" font-family="Helvetica,sans-Serif" font-size="10.00">/open62541pp/include/open62541pp</text>
<text text-anchor="middle" x="113.42" y="-84" font-family="Helvetica,sans-Serif" font-size="10.00">/DataTypeBuilder.h</text>
</a>
</g>
</g>
<!-- Node1&#45;&gt;Node5 -->
<g id="edge5_Node000001_Node000005" class="edge">
<title>Node1&#45;&gt;Node5</title>
<g id="a_edge5_Node000001_Node000005"><a xlink:title=" ">
<path fill="none" stroke="#63b8ff" d="M544.72,-326.52C426.64,-323.41 245.8,-312 191.42,-272 140.21,-234.33 121.91,-155.21 115.98,-118.28"/>
<polygon fill="#63b8ff" stroke="#63b8ff" points="544.79,-330.02 554.88,-326.77 544.97,-323.02 544.79,-330.02"/>
</a>
</g>
</g>
<!-- Node6 -->
<g id="Node000006" class="node">
<title>Node6</title>
<g id="a_Node000006"><a xlink:href="Event_8h.html" target="_top" xlink:title=" ">
<polygon fill="white" stroke="#666666" points="420.92,-118 227.92,-118 227.92,-77 420.92,-77 420.92,-118"/>
<text text-anchor="start" x="235.92" y="-106" font-family="Helvetica,sans-Serif" font-size="10.00">/home/runner/work/open62541pp</text>
<text text-anchor="start" x="235.92" y="-95" font-family="Helvetica,sans-Serif" font-size="10.00">/open62541pp/include/open62541pp</text>
<text text-anchor="middle" x="324.42" y="-84" font-family="Helvetica,sans-Serif" font-size="10.00">/Event.h</text>
</a>
</g>
</g>
<!-- Node1&#45;&gt;Node6 -->
<g id="edge7_Node000001_Node000006" class="edge">
<title>Node1&#45;&gt;Node6</title>
<g id="a_edge7_Node000001_Node000006"><a xlink:title=" ">
<path fill="none" stroke="#63b8ff" d="M544.52,-325.94C466.44,-321.5 359.47,-308.4 272.42,-272 220.02,-250.09 195.74,-245.84 170.42,-195 162.3,-178.69 159.94,-168.91 170.42,-154 179.9,-140.51 212.4,-127.85 245.13,-118.04"/>
<polygon fill="#63b8ff" stroke="#63b8ff" points="544.68,-329.46 554.85,-326.49 545.05,-322.47 544.68,-329.46"/>
</a>
</g>
</g>
<!-- Node7 -->
<g id="Node000007" class="node">
<title>Node7</title>
<g id="a_Node000007"><a xlink:href="Node_8h.html" target="_top" xlink:title=" ">
<polygon fill="white" stroke="#666666" points="1068.42,-118 872.42,-118 872.42,-77 1068.42,-77 1068.42,-118"/>
<text text-anchor="start" x="880.42" y="-106" font-family="Helvetica,sans-Serif" font-size="10.00">/home/runner/work/open62541pp</text>
<text text-anchor="start" x="880.42" y="-95" font-family="Helvetica,sans-Serif" font-size="10.00">/open62541pp/include/open62541pp/</text>
<text text-anchor="middle" x="970.42" y="-84" font-family="Helvetica,sans-Serif" font-size="10.00">Node.h</text>
</a>
</g>
</g>
<!-- Node1&#45;&gt;Node7 -->
<g id="edge9_Node000001_Node000007" class="edge">
<title>Node1&#45;&gt;Node7</title>
<g id="a_edge9_Node000001_Node000007"><a xlink:title=" ">
<path fill="none" stroke="#63b8ff" d="M713.48,-304.02C734.9,-295.03 758.7,-284.01 779.42,-272 828.86,-243.33 840.08,-233.4 882.42,-195 909.46,-170.47 937.29,-138.63 954.23,-118.37"/>
<polygon fill="#63b8ff" stroke="#63b8ff" points="712.05,-300.82 704.14,-307.87 714.72,-307.29 712.05,-300.82"/>
</a>
</g>
</g>
<!-- Node8 -->
<g id="Node000008" class="node">
<title>Node8</title>
<g id="a_Node000008"><a xlink:href="Server_8h.html" target="_top" xlink:title=" ">
<polygon fill="white" stroke="#666666" points="622.92,-195 429.92,-195 429.92,-154 622.92,-154 622.92,-195"/>
<text text-anchor="start" x="437.92" y="-183" font-family="Helvetica,sans-Serif" font-size="10.00">/home/runner/work/open62541pp</text>
<text text-anchor="start" x="437.92" y="-172" font-family="Helvetica,sans-Serif" font-size="10.00">/open62541pp/include/open62541pp</text>
<text text-anchor="middle" x="526.42" y="-161" font-family="Helvetica,sans-Serif" font-size="10.00">/Server.h</text>
</a>
</g>
</g>
<!-- Node1&#45;&gt;Node8 -->
<g id="edge11_Node000001_Node000008" class="edge">
<title>Node1&#45;&gt;Node8</title>
<g id="a_edge11_Node000001_Node000008"><a xlink:title=" ">
<path fill="none" stroke="#63b8ff" d="M583.15,-303.23C568.83,-295.27 555.15,-285.03 545.42,-272 528.66,-249.56 525.58,-216.27 525.53,-195.24"/>
<polygon fill="#63b8ff" stroke="#63b8ff" points="581.62,-306.38 592.11,-307.88 584.85,-300.17 581.62,-306.38"/>
</a>
</g>
</g>
<!-- Node9 -->
<g id="Node000009" class="node">
<title>Node9</title>
<g id="a_Node000009"><a xlink:href="Session_8h.html" target="_top" xlink:title=" ">
<polygon fill="white" stroke="#666666" points="747.92,-272 554.92,-272 554.92,-231 747.92,-231 747.92,-272"/>
<text text-anchor="start" x="562.92" y="-260" font-family="Helvetica,sans-Serif" font-size="10.00">/home/runner/work/open62541pp</text>
<text text-anchor="start" x="562.92" y="-249" font-family="Helvetica,sans-Serif" font-size="10.00">/open62541pp/include/open62541pp</text>
<text text-anchor="middle" x="651.42" y="-238" font-family="Helvetica,sans-Serif" font-size="10.00">/Session.h</text>
</a>
</g>
</g>
<!-- Node1&#45;&gt;Node9 -->
<g id="edge13_Node000001_Node000009" class="edge">
<title>Node1&#45;&gt;Node9</title>
<g id="a_edge13_Node000001_Node000009"><a xlink:title=" ">
<path fill="none" stroke="#63b8ff" d="M651.42,-297.69C651.42,-289.08 651.42,-279.9 651.42,-272.07"/>
<polygon fill="#63b8ff" stroke="#63b8ff" points="647.92,-297.79 651.42,-307.79 654.92,-297.79 647.92,-297.79"/>
</a>
</g>
</g>
<!-- Node10 -->
<g id="Node000010" class="node">
<title>Node10</title>
<g id="a_Node000010"><a xlink:href="Subscription_8h.html" target="_top" xlink:title=" ">
<polygon fill="white" stroke="#666666" points="497.92,-272 304.92,-272 304.92,-231 497.92,-231 497.92,-272"/>
<text text-anchor="start" x="312.92" y="-260" font-family="Helvetica,sans-Serif" font-size="10.00">/home/runner/work/open62541pp</text>
<text text-anchor="start" x="312.92" y="-249" font-family="Helvetica,sans-Serif" font-size="10.00">/open62541pp/include/open62541pp</text>
<text text-anchor="middle" x="401.42" y="-238" font-family="Helvetica,sans-Serif" font-size="10.00">/Subscription.h</text>
</a>
</g>
</g>
<!-- Node1&#45;&gt;Node10 -->
<g id="edge15_Node000001_Node000010" class="edge">
<title>Node1&#45;&gt;Node10</title>
<g id="a_edge15_Node000001_Node000010"><a xlink:title=" ">
<path fill="none" stroke="#63b8ff" d="M576.69,-305.08C541.65,-294.57 500.3,-282.16 466.56,-272.04"/>
<polygon fill="#63b8ff" stroke="#63b8ff" points="575.8,-308.47 586.39,-307.99 577.82,-301.76 575.8,-308.47"/>
</a>
</g>
</g>
<!-- Node11 -->
<g id="Node000011" class="node">
<title>Node11</title>
<g id="a_Node000011"><a xlink:href="Attribute_8h.html" target="_top" xlink:title=" ">
<polygon fill="white" stroke="#666666" points="1371.92,-195 1178.92,-195 1178.92,-154 1371.92,-154 1371.92,-195"/>
<text text-anchor="start" x="1186.92" y="-183" font-family="Helvetica,sans-Serif" font-size="10.00">/home/runner/work/open62541pp</text>
<text text-anchor="start" x="1186.92" y="-172" font-family="Helvetica,sans-Serif" font-size="10.00">/open62541pp/include/open62541pp</text>
<text text-anchor="middle" x="1275.42" y="-161" font-family="Helvetica,sans-Serif" font-size="10.00">/services/Attribute.h</text>
</a>
</g>
</g>
<!-- Node1&#45;&gt;Node11 -->
<g id="edge20_Node000001_Node000011" class="edge">
<title>Node1&#45;&gt;Node11</title>
<g id="a_edge20_Node000001_Node000011"><a xlink:title=" ">
<path fill="none" stroke="#63b8ff" d="M758.42,-323.92C888.43,-318.21 1099.23,-304.21 1170.42,-272 1208.54,-254.75 1242.09,-218.22 1260.49,-195.38"/>
<polygon fill="#63b8ff" stroke="#63b8ff" points="757.88,-320.44 748.04,-324.36 758.18,-327.43 757.88,-320.44"/>
</a>
</g>
</g>
<!-- Node13 -->
<g id="Node000013" class="node">
<title>Node13</title>
<g id="a_Node000013"><a xlink:href="NodeManagement_8h.html" target="_top" xlink:title=" ">
<polygon fill="white" stroke="#666666" points="1582.92,-195 1389.92,-195 1389.92,-154 1582.92,-154 1582.92,-195"/>
<text text-anchor="start" x="1397.92" y="-183" font-family="Helvetica,sans-Serif" font-size="10.00">/home/runner/work/open62541pp</text>
<text text-anchor="start" x="1397.92" y="-172" font-family="Helvetica,sans-Serif" font-size="10.00">/open62541pp/include/open62541pp</text>
<text text-anchor="middle" x="1486.42" y="-161" font-family="Helvetica,sans-Serif" font-size="10.00">/services/NodeManagement.h</text>
</a>
</g>
</g>
<!-- Node1&#45;&gt;Node13 -->
<g id="edge24_Node000001_Node000013" class="edge">
<title>Node1&#45;&gt;Node13</title>
<g id="a_edge24_Node000001_Node000013"><a xlink:title=" ">
<path fill="none" stroke="#63b8ff" d="M758.17,-324.54C871.93,-319.63 1056.73,-306.59 1212.42,-272 1295.38,-253.57 1387.83,-217.59 1441.35,-195.15"/>
<polygon fill="#63b8ff" stroke="#63b8ff" points="757.91,-321.05 748.07,-324.97 758.21,-328.04 757.91,-321.05"/>
</a>
</g>
</g>
<!-- Node14 -->
<g id="Node000014" class="node">
<title>Node14</title>
<g id="a_Node000014"><a xlink:href="View_8h.html" target="_top" xlink:title=" ">
<polygon fill="white" stroke="#666666" points="1160.92,-195 967.92,-195 967.92,-154 1160.92,-154 1160.92,-195"/>
<text text-anchor="start" x="975.92" y="-183" font-family="Helvetica,sans-Serif" font-size="10.00">/home/runner/work/open62541pp</text>
<text text-anchor="start" x="975.92" y="-172" font-family="Helvetica,sans-Serif" font-size="10.00">/open62541pp/include/open62541pp</text>
<text text-anchor="middle" x="1064.42" y="-161" font-family="Helvetica,sans-Serif" font-size="10.00">/services/View.h</text>
</a>
</g>
</g>
<!-- Node1&#45;&gt;Node14 -->
<g id="edge27_Node000001_Node000014" class="edge">
<title>Node1&#45;&gt;Node14</title>
<g id="a_edge27_Node000001_Node000014"><a xlink:title=" ">
<path fill="none" stroke="#63b8ff" d="M758.35,-318.36C808.23,-310.82 867.1,-297.08 915.42,-272 939.15,-259.69 937.64,-246.49 959.42,-231 978.66,-217.32 1001.69,-204.77 1021.28,-195.08"/>
<polygon fill="#63b8ff" stroke="#63b8ff" points="757.57,-314.93 748.18,-319.83 758.57,-321.86 757.57,-314.93"/>
</a>
</g>
</g>
<!-- Node15 -->
<g id="Node000015" class="node">
<title>Node15</title>
<g id="a_Node000015"><a xlink:href="Composed_8h.html" target="_top" xlink:title=" ">
<polygon fill="white" stroke="#666666" points="1160.92,-272 967.92,-272 967.92,-231 1160.92,-231 1160.92,-272"/>
<text text-anchor="start" x="975.92" y="-260" font-family="Helvetica,sans-Serif" font-size="10.00">/home/runner/work/open62541pp</text>
<text text-anchor="start" x="975.92" y="-249" font-family="Helvetica,sans-Serif" font-size="10.00">/open62541pp/include/open62541pp</text>
<text text-anchor="middle" x="1064.42" y="-238" font-family="Helvetica,sans-Serif" font-size="10.00">/types/Composed.h</text>
</a>
</g>
</g>
<!-- Node1&#45;&gt;Node15 -->
<g id="edge30_Node000001_Node000015" class="edge">
<title>Node1&#45;&gt;Node15</title>
<g id="a_edge30_Node000001_Node000015"><a xlink:title=" ">
<path fill="none" stroke="#63b8ff" d="M758.23,-308.1C822.96,-296.35 904.9,-281.47 967.72,-270.06"/>
<polygon fill="#63b8ff" stroke="#63b8ff" points="757.2,-304.73 747.99,-309.96 758.45,-311.62 757.2,-304.73"/>
</a>
</g>
</g>
<!-- Node2&#45;&gt;Node3 -->
<g id="edge2_Node000002_Node000003" class="edge">
<title>Node2&#45;&gt;Node3</title>
<g id="a_edge2_Node000002_Node000003"><a xlink:title=" ">
<path fill="none" stroke="#63b8ff" d="M750.87,-146.8C729.57,-125.7 697.59,-96.63 665.42,-77 641.46,-62.39 612.98,-50.22 588.05,-41.05"/>
<polygon fill="#63b8ff" stroke="#63b8ff" points="748.41,-149.29 757.95,-153.91 753.37,-144.35 748.41,-149.29"/>
</a>
</g>
</g>
<!-- Node4&#45;&gt;Node3 -->
<g id="edge4_Node000004_Node000003" class="edge">
<title>Node4&#45;&gt;Node3</title>
<g id="a_edge4_Node000004_Node000003"><a xlink:title=" ">
<path fill="none" stroke="#63b8ff" d="M359.87,-150.6C383.35,-142.23 408.24,-131.44 429.42,-118 438.35,-112.34 481.75,-67.9 507.38,-41.34"/>
<polygon fill="#63b8ff" stroke="#63b8ff" points="358.57,-147.34 350.26,-153.92 360.86,-153.96 358.57,-147.34"/>
</a>
</g>
</g>
<!-- Node5&#45;&gt;Node3 -->
<g id="edge6_Node000005_Node000003" class="edge">
<title>Node5&#45;&gt;Node3</title>
<g id="a_edge6_Node000005_Node000003"><a xlink:title=" ">
<path fill="none" stroke="#63b8ff" d="M220.29,-76.66C295.93,-62.84 371.56,-49.22 429.64,-38.8"/>
<polygon fill="#63b8ff" stroke="#63b8ff" points="219.31,-73.28 210.11,-78.52 220.57,-80.17 219.31,-73.28"/>
</a>
</g>
</g>
<!-- Node6&#45;&gt;Node3 -->
<g id="edge8_Node000006_Node000003" class="edge">
<title>Node6&#45;&gt;Node3</title>
<g id="a_edge8_Node000006_Node000003"><a xlink:title=" ">
<path fill="none" stroke="#63b8ff" d="M386.63,-73.4C414.54,-63.04 447.11,-50.95 473.79,-41.04"/>
<polygon fill="#63b8ff" stroke="#63b8ff" points="385.12,-70.23 376.97,-76.99 387.56,-76.79 385.12,-70.23"/>
</a>
</g>
</g>
<!-- Node7&#45;&gt;Node3 -->
<g id="edge10_Node000007_Node000003" class="edge">
<title>Node7&#45;&gt;Node3</title>
<g id="a_edge10_Node000007_Node000003"><a xlink:title=" ">
<path fill="none" stroke="#63b8ff" d="M862.02,-78.19C789.06,-65.86 693.69,-49.76 623.27,-37.86"/>
<polygon fill="#63b8ff" stroke="#63b8ff" points="861.71,-81.69 872.16,-79.9 862.88,-74.78 861.71,-81.69"/>
</a>
</g>
</g>
<!-- Node8&#45;&gt;Node3 -->
<g id="edge12_Node000008_Node000003" class="edge">
<title>Node8&#45;&gt;Node3</title>
<g id="a_edge12_Node000008_Node000003"><a xlink:title=" ">
<path fill="none" stroke="#63b8ff" d="M526.42,-143.58C526.42,-113.36 526.42,-67.53 526.42,-41.47"/>
<polygon fill="#63b8ff" stroke="#63b8ff" points="522.92,-143.94 526.42,-153.94 529.92,-143.94 522.92,-143.94"/>
</a>
</g>
</g>
<!-- Node9&#45;&gt;Node3 -->
<g id="edge14_Node000009_Node000003" class="edge">
<title>Node9&#45;&gt;Node3</title>
<g id="a_edge14_Node000009_Node000003"><a xlink:title=" ">
<path fill="none" stroke="#63b8ff" d="M648.88,-220.87C646.34,-201.18 641.31,-175.15 631.42,-154 610.29,-108.8 570.92,-65.2 546.85,-41.01"/>
<polygon fill="#63b8ff" stroke="#63b8ff" points="645.4,-221.27 650.02,-230.81 652.35,-220.47 645.4,-221.27"/>
</a>
</g>
</g>
<!-- Node10&#45;&gt;Node3 -->
<g id="edge18_Node000010_Node000003" class="edge">
<title>Node10&#45;&gt;Node3</title>
<g id="a_edge18_Node000010_Node000003"><a xlink:title=" ">
<path fill="none" stroke="#63b8ff" d="M402.01,-220.81C403.62,-200.68 408.18,-174.17 420.42,-154 433.7,-132.1 448.34,-137.09 465.42,-118 486.83,-94.07 505.57,-61.78 516.45,-41.3"/>
<polygon fill="#63b8ff" stroke="#63b8ff" points="398.51,-220.78 401.41,-230.97 405.5,-221.2 398.51,-220.78"/>
</a>
</g>
</g>
<!-- Node10&#45;&gt;Node4 -->
<g id="edge16_Node000010_Node000004" class="edge">
<title>Node10&#45;&gt;Node4</title>
<g id="a_edge16_Node000010_Node000004"><a xlink:title=" ">
<path fill="none" stroke="#63b8ff" d="M359.99,-225.64C343.48,-215.74 324.75,-204.5 309.21,-195.17"/>
<polygon fill="#63b8ff" stroke="#63b8ff" points="358.53,-228.85 368.9,-230.99 362.13,-222.84 358.53,-228.85"/>
</a>
</g>
</g>
<!-- Node10&#45;&gt;Node8 -->
<g id="edge17_Node000010_Node000008" class="edge">
<title>Node10&#45;&gt;Node8</title>
<g id="a_edge17_Node000010_Node000008"><a xlink:title=" ">
<path fill="none" stroke="#63b8ff" d="M442.85,-225.64C459.36,-215.74 478.09,-204.5 493.63,-195.17"/>
<polygon fill="#63b8ff" stroke="#63b8ff" points="440.71,-222.84 433.94,-230.99 444.31,-228.85 440.71,-222.84"/>
</a>
</g>
</g>
<!-- Node11&#45;&gt;Node7 -->
<g id="edge21_Node000011_Node000007" class="edge">
<title>Node11&#45;&gt;Node7</title>
<g id="a_edge21_Node000011_Node000007"><a xlink:title=" ">
<path fill="none" stroke="#63b8ff" d="M1186.16,-151.55C1143.01,-140.94 1091.67,-128.31 1049.89,-118.04"/>
<polygon fill="#63b8ff" stroke="#63b8ff" points="1185.53,-155 1196.08,-153.99 1187.21,-148.2 1185.53,-155"/>
</a>
</g>
</g>
<!-- Node12 -->
<g id="Node000012" class="node">
<title>Node12</title>
<g id="a_Node000012"><a xlink:href="services_8h.html" target="_top" xlink:title=" ">
<polygon fill="white" stroke="#666666" points="1310.92,-118 1117.92,-118 1117.92,-77 1310.92,-77 1310.92,-118"/>
<text text-anchor="start" x="1125.92" y="-106" font-family="Helvetica,sans-Serif" font-size="10.00">/home/runner/work/open62541pp</text>
<text text-anchor="start" x="1125.92" y="-95" font-family="Helvetica,sans-Serif" font-size="10.00">/open62541pp/include/open62541pp</text>
<text text-anchor="middle" x="1214.42" y="-84" font-family="Helvetica,sans-Serif" font-size="10.00">/services/services.h</text>
</a>
</g>
</g>
<!-- Node11&#45;&gt;Node12 -->
<g id="edge22_Node000011_Node000012" class="edge">
<title>Node11&#45;&gt;Node12</title>
<g id="a_edge22_Node000011_Node000012"><a xlink:title=" ">
<path fill="none" stroke="#63b8ff" d="M1253.01,-145.95C1245.49,-136.7 1237.26,-126.58 1230.34,-118.07"/>
<polygon fill="#63b8ff" stroke="#63b8ff" points="1250.37,-148.25 1259.39,-153.79 1255.8,-143.83 1250.37,-148.25"/>
</a>
</g>
</g>
<!-- Node12&#45;&gt;Node3 -->
<g id="edge23_Node000012_Node000003" class="edge">
<title>Node12&#45;&gt;Node3</title>
<g id="a_edge23_Node000012_Node000003"><a xlink:title=" ">
<path fill="none" stroke="#63b8ff" d="M1107.43,-80.84C1097.3,-79.49 1087.17,-78.18 1077.42,-77 918.51,-57.7 733.23,-40.03 623.1,-30.03"/>
<polygon fill="#63b8ff" stroke="#63b8ff" points="1107.18,-84.34 1117.56,-82.21 1108.12,-77.4 1107.18,-84.34"/>
</a>
</g>
</g>
<!-- Node13&#45;&gt;Node7 -->
<g id="edge25_Node000013_Node000007" class="edge">
<title>Node13&#45;&gt;Node7</title>
<g id="a_edge25_Node000013_Node000007"><a xlink:title=" ">
<path fill="none" stroke="#63b8ff" d="M1379.78,-153.77C1259.3,-134.83 1227.06,-134.04 1109.42,-118 1096.26,-116.21 1082.4,-114.29 1068.74,-112.39"/>
<polygon fill="#63b8ff" stroke="#63b8ff" points="1379.34,-157.25 1389.76,-155.35 1380.43,-150.33 1379.34,-157.25"/>
</a>
</g>
</g>
<!-- Node13&#45;&gt;Node12 -->
<g id="edge26_Node000013_Node000012" class="edge">
<title>Node13&#45;&gt;Node12</title>
<g id="a_edge26_Node000013_Node000012"><a xlink:title=" ">
<path fill="none" stroke="#63b8ff" d="M1405.6,-151.21C1367.38,-140.68 1322.16,-128.21 1285.29,-118.04"/>
<polygon fill="#63b8ff" stroke="#63b8ff" points="1405.09,-154.71 1415.66,-153.99 1406.96,-147.96 1405.09,-154.71"/>
</a>
</g>
</g>
<!-- Node14&#45;&gt;Node7 -->
<g id="edge28_Node000014_Node000007" class="edge">
<title>Node14&#45;&gt;Node7</title>
<g id="a_edge28_Node000014_Node000007"><a xlink:title=" ">
<path fill="none" stroke="#63b8ff" d="M1031.64,-147.35C1019.59,-137.73 1006.16,-127.01 994.95,-118.07"/>
<polygon fill="#63b8ff" stroke="#63b8ff" points="1029.72,-150.29 1039.72,-153.79 1034.09,-144.82 1029.72,-150.29"/>
</a>
</g>
</g>
<!-- Node14&#45;&gt;Node12 -->
<g id="edge29_Node000014_Node000012" class="edge">
<title>Node14&#45;&gt;Node12</title>
<g id="a_edge29_Node000014_Node000012"><a xlink:title=" ">
<path fill="none" stroke="#63b8ff" d="M1112.52,-149.45C1132.81,-139.3 1156.13,-127.64 1175.34,-118.04"/>
<polygon fill="#63b8ff" stroke="#63b8ff" points="1110.82,-146.39 1103.44,-153.99 1113.95,-152.65 1110.82,-146.39"/>
</a>
</g>
</g>
<!-- Node15&#45;&gt;Node2 -->
<g id="edge31_Node000015_Node000002" class="edge">
<title>Node15&#45;&gt;Node2</title>
<g id="a_edge31_Node000015_Node000002"><a xlink:title=" ">
<path fill="none" stroke="#63b8ff" d="M979.62,-228.42C938.99,-217.84 890.74,-205.27 851.46,-195.04"/>
<polygon fill="#63b8ff" stroke="#63b8ff" points="978.94,-231.86 989.5,-230.99 980.71,-225.08 978.94,-231.86"/>
</a>
</g>
</g>
<!-- Node15&#45;&gt;Node3 -->
<g id="edge33_Node000015_Node000003" class="edge">
<title>Node15&#45;&gt;Node3</title>
<g id="a_edge33_Node000015_Node000003"><a xlink:title=" ">
<path fill="none" stroke="#63b8ff" d="M1171.31,-246.78C1317.46,-240.59 1564.81,-225.67 1592.42,-195 1604.61,-181.46 1603.41,-168.53 1592.42,-154 1516.64,-53.79 1444.19,-98.61 1320.42,-77 1071.65,-33.57 773.43,-23.86 623.14,-21.86"/>
<polygon fill="#63b8ff" stroke="#63b8ff" points="1170.81,-243.3 1160.96,-247.22 1171.1,-250.3 1170.81,-243.3"/>
</a>
</g>
</g>
<!-- Node15&#45;&gt;Node7 -->
<g id="edge32_Node000015_Node000007" class="edge">
<title>Node15&#45;&gt;Node7</title>
<g id="a_edge32_Node000015_Node000007"><a xlink:title=" ">
<path fill="none" stroke="#63b8ff" d="M992.74,-226.12C979.47,-218.29 967.32,-208.11 959.42,-195 945.24,-171.46 953.57,-138.77 961.5,-118.13"/>
<polygon fill="#63b8ff" stroke="#63b8ff" points="991.13,-229.23 1001.58,-230.94 994.48,-223.09 991.13,-229.23"/>
</a>
</g>
</g>
<!-- Node15&#45;&gt;Node11 -->
<g id="edge34_Node000015_Node000011" class="edge">
<title>Node15&#45;&gt;Node11</title>
<g id="a_edge34_Node000015_Node000011"><a xlink:title=" ">
<path fill="none" stroke="#63b8ff" d="M1129.02,-227.54C1158.25,-217.15 1192.45,-204.99 1220.44,-195.04"/>
<polygon fill="#63b8ff" stroke="#63b8ff" points="1127.56,-224.34 1119.31,-230.99 1129.9,-230.94 1127.56,-224.34"/>
</a>
</g>
</g>
<!-- Node15&#45;&gt;Node13 -->
<g id="edge35_Node000015_Node000013" class="edge">
<title>Node15&#45;&gt;Node13</title>
<g id="a_edge35_Node000015_Node000013"><a xlink:title=" ">
<path fill="none" stroke="#63b8ff" d="M1171.34,-232.06C1232.82,-221.39 1311.5,-207.61 1381.42,-195 1384.16,-194.51 1386.93,-194 1389.74,-193.49"/>
<polygon fill="#63b8ff" stroke="#63b8ff" points="1170.49,-228.66 1161.23,-233.82 1171.68,-235.56 1170.49,-228.66"/>
</a>
</g>
</g>
<!-- Node15&#45;&gt;Node14 -->
<g id="edge36_Node000015_Node000014" class="edge">
<title>Node15&#45;&gt;Node14</title>
<g id="a_edge36_Node000015_Node000014"><a xlink:title=" ">
<path fill="none" stroke="#63b8ff" d="M1064.42,-220.69C1064.42,-212.08 1064.42,-202.9 1064.42,-195.07"/>
<polygon fill="#63b8ff" stroke="#63b8ff" points="1060.92,-220.79 1064.42,-230.79 1067.92,-220.79 1060.92,-220.79"/>
</a>
</g>
</g>
</g>
</svg>
