<?xml version="1.0" encoding="UTF-8" standalone="no"?>
<!DOCTYPE svg PUBLIC "-//W3C//DTD SVG 1.1//EN"
 "http://www.w3.org/Graphics/SVG/1.1/DTD/svg11.dtd">
<!-- Generated by graphviz version 2.43.0 (0)
 -->
<!-- Title: /home/runner/work/open62541pp/open62541pp/include/open62541pp/NodeId.h Pages: 1 -->
<svg width="739pt" height="274pt"
 viewBox="0.00 0.00 738.50 274.00" xmlns="http://www.w3.org/2000/svg" xmlns:xlink="http://www.w3.org/1999/xlink">
<g id="graph0" class="graph" transform="scale(1 1) rotate(0) translate(4 270)">
<title>/home/runner/work/open62541pp/open62541pp/include/open62541pp/NodeId.h</title>
<!-- Node1 -->
<g id="node1" class="node">
<title>Node1</title>
<g id="a_node1"><a xlink:title=" ">
<polygon fill="#bfbfbf" stroke="black" points="358,-224.5 358,-265.5 551,-265.5 551,-224.5 358,-224.5"/>
<text text-anchor="start" x="366" y="-253.5" font-family="Helvetica,sans-Serif" font-size="10.00">/home/runner/work/open62541pp</text>
<text text-anchor="start" x="366" y="-242.5" font-family="Helvetica,sans-Serif" font-size="10.00">/open62541pp/include/open62541pp</text>
<text text-anchor="middle" x="454.5" y="-231.5" font-family="Helvetica,sans-Serif" font-size="10.00">/NodeId.h</text>
</a>
</g>
</g>
<!-- Node2 -->
<g id="node2" class="node">
<title>Node2</title>
<g id="a_node2"><a xlink:title=" ">
<polygon fill="none" stroke="#bfbfbf" points="0,-112.5 0,-131.5 73,-131.5 73,-112.5 0,-112.5"/>
<text text-anchor="middle" x="36.5" y="-119.5" font-family="Helvetica,sans-Serif" font-size="10.00">string_view</text>
</a>
</g>
</g>
<!-- Node1&#45;&gt;Node2 -->
<g id="edge1" class="edge">
<title>Node1&#45;&gt;Node2</title>
<path fill="none" stroke="midnightblue" d="M386.88,-224.42C298.78,-198.92 147.61,-155.16 76.14,-134.48"/>
<polygon fill="midnightblue" stroke="midnightblue" points="76.77,-131.01 66.2,-131.6 74.83,-137.74 76.77,-131.01"/>
</g>
<!-- Node3 -->
<g id="node3" class="node">
<title>Node3</title>
<g id="a_node3"><a xlink:title=" ">
<polygon fill="none" stroke="#bfbfbf" points="537,-168.5 537,-187.5 588,-187.5 588,-168.5 537,-168.5"/>
<text text-anchor="middle" x="562.5" y="-175.5" font-family="Helvetica,sans-Serif" font-size="10.00">variant</text>
</a>
</g>
</g>
<!-- Node1&#45;&gt;Node3 -->
<g id="edge2" class="edge">
<title>Node1&#45;&gt;Node3</title>
<path fill="none" stroke="midnightblue" d="M486.9,-224.5C503.78,-214.34 524.03,-202.16 539.32,-192.95"/>
<polygon fill="midnightblue" stroke="midnightblue" points="541.36,-195.81 548.12,-187.65 537.75,-189.81 541.36,-195.81"/>
</g>
<!-- Node4 -->
<g id="node4" class="node">
<title>Node4</title>
<g id="a_node4"><a xlink:href="TypeWrapper_8h.html" target="_top" xlink:title=" ">
<polygon fill="none" stroke="black" points="282.5,-168.5 282.5,-187.5 440.5,-187.5 440.5,-168.5 282.5,-168.5"/>
<text text-anchor="middle" x="361.5" y="-175.5" font-family="Helvetica,sans-Serif" font-size="10.00">open62541pp/TypeWrapper.h</text>
</a>
</g>
</g>
<!-- Node1&#45;&gt;Node4 -->
<g id="edge3" class="edge">
<title>Node1&#45;&gt;Node4</title>
<path fill="none" stroke="midnightblue" d="M426.6,-224.5C412.34,-214.53 395.29,-202.61 382.21,-193.48"/>
<polygon fill="midnightblue" stroke="midnightblue" points="384.08,-190.51 373.88,-187.65 380.07,-196.25 384.08,-190.51"/>
</g>
<!-- Node12 -->
<g id="node12" class="node">
<title>Node12</title>
<g id="a_node12"><a xlink:href="open62541_8h.html" target="_top" xlink:title=" ">
<polygon fill="none" stroke="black" points="367,-56.5 367,-75.5 516,-75.5 516,-56.5 367,-56.5"/>
<text text-anchor="middle" x="441.5" y="-63.5" font-family="Helvetica,sans-Serif" font-size="10.00">open62541pp/open62541.h</text>
</a>
</g>
</g>
<!-- Node1&#45;&gt;Node12 -->
<g id="edge21" class="edge">
<title>Node1&#45;&gt;Node12</title>
<path fill="none" stroke="midnightblue" d="M467.75,-224.15C483.58,-197.78 505.99,-150.07 489.5,-112 484.23,-99.84 473.88,-89.46 464.14,-81.74"/>
<polygon fill="midnightblue" stroke="midnightblue" points="466,-78.77 455.87,-75.67 461.86,-84.41 466,-78.77"/>
</g>
<!-- Node4&#45;&gt;Node2 -->
<g id="edge7" class="edge">
<title>Node4&#45;&gt;Node2</title>
<path fill="none" stroke="midnightblue" d="M304.55,-168.5C250.11,-160.22 165.47,-146.97 83.32,-132.28"/>
<polygon fill="midnightblue" stroke="midnightblue" points="83.78,-128.81 73.32,-130.48 82.54,-135.7 83.78,-128.81"/>
</g>
<!-- Node5 -->
<g id="node5" class="node">
<title>Node5</title>
<g id="a_node5"><a xlink:title=" ">
<polygon fill="none" stroke="#bfbfbf" points="438.5,-112.5 438.5,-131.5 480.5,-131.5 480.5,-112.5 438.5,-112.5"/>
<text text-anchor="middle" x="459.5" y="-119.5" font-family="Helvetica,sans-Serif" font-size="10.00">array</text>
</a>
</g>
</g>
<!-- Node4&#45;&gt;Node5 -->
<g id="edge4" class="edge">
<title>Node4&#45;&gt;Node5</title>
<path fill="none" stroke="midnightblue" d="M377.25,-168.32C392.82,-159.74 416.88,-146.49 434.96,-136.52"/>
<polygon fill="midnightblue" stroke="midnightblue" points="436.72,-139.55 443.79,-131.65 433.35,-133.42 436.72,-139.55"/>
</g>
<!-- Node6 -->
<g id="node6" class="node">
<title>Node6</title>
<g id="a_node6"><a xlink:title=" ">
<polygon fill="none" stroke="#bfbfbf" points="154.5,-112.5 154.5,-131.5 204.5,-131.5 204.5,-112.5 154.5,-112.5"/>
<text text-anchor="middle" x="179.5" y="-119.5" font-family="Helvetica,sans-Serif" font-size="10.00">cstdint</text>
</a>
</g>
</g>
<!-- Node4&#45;&gt;Node6 -->
<g id="edge5" class="edge">
<title>Node4&#45;&gt;Node6</title>
<path fill="none" stroke="midnightblue" d="M332.66,-168.44C300.55,-158.92 248.66,-143.52 214.31,-133.33"/>
<polygon fill="midnightblue" stroke="midnightblue" points="215.27,-129.96 204.69,-130.47 213.28,-136.67 215.27,-129.96"/>
</g>
<!-- Node7 -->
<g id="node7" class="node">
<title>Node7</title>
<g id="a_node7"><a xlink:title=" ">
<polygon fill="none" stroke="#bfbfbf" points="686.5,-56.5 686.5,-75.5 730.5,-75.5 730.5,-56.5 686.5,-56.5"/>
<text text-anchor="middle" x="708.5" y="-63.5" font-family="Helvetica,sans-Serif" font-size="10.00">string</text>
</a>
</g>
</g>
<!-- Node4&#45;&gt;Node7 -->
<g id="edge6" class="edge">
<title>Node4&#45;&gt;Node7</title>
<path fill="none" stroke="midnightblue" d="M440.69,-172.1C537.3,-165.31 690.01,-151.61 707.5,-132 718.52,-119.65 717.24,-100.13 714.14,-85.69"/>
<polygon fill="midnightblue" stroke="midnightblue" points="717.49,-84.66 711.59,-75.86 710.71,-86.41 717.49,-84.66"/>
</g>
<!-- Node8 -->
<g id="node8" class="node">
<title>Node8</title>
<g id="a_node8"><a xlink:title=" ">
<polygon fill="none" stroke="#bfbfbf" points="255,-56.5 255,-75.5 324,-75.5 324,-56.5 255,-56.5"/>
<text text-anchor="middle" x="289.5" y="-63.5" font-family="Helvetica,sans-Serif" font-size="10.00">type_traits</text>
</a>
</g>
</g>
<!-- Node4&#45;&gt;Node8 -->
<g id="edge8" class="edge">
<title>Node4&#45;&gt;Node8</title>
<path fill="none" stroke="midnightblue" d="M308.18,-168.43C286.84,-162.1 264.32,-151.1 251.5,-132 240.43,-115.52 255.87,-95.71 270.26,-82.33"/>
<polygon fill="midnightblue" stroke="midnightblue" points="272.73,-84.83 277.97,-75.62 268.13,-79.55 272.73,-84.83"/>
</g>
<!-- Node9 -->
<g id="node9" class="node">
<title>Node9</title>
<g id="a_node9"><a xlink:title=" ">
<polygon fill="none" stroke="#bfbfbf" points="91,-112.5 91,-131.5 136,-131.5 136,-112.5 91,-112.5"/>
<text text-anchor="middle" x="113.5" y="-119.5" font-family="Helvetica,sans-Serif" font-size="10.00">utility</text>
</a>
</g>
</g>
<!-- Node4&#45;&gt;Node9 -->
<g id="edge9" class="edge">
<title>Node4&#45;&gt;Node9</title>
<path fill="none" stroke="midnightblue" d="M315.78,-168.42C274.07,-160.38 210.5,-147.61 146.1,-132.01"/>
<polygon fill="midnightblue" stroke="midnightblue" points="146.72,-128.56 136.17,-129.59 145.06,-135.36 146.72,-128.56"/>
</g>
<!-- Node10 -->
<g id="node10" class="node">
<title>Node10</title>
<g id="a_node10"><a xlink:href="ErrorHandling_8h.html" target="_top" xlink:title=" ">
<polygon fill="none" stroke="black" points="537,-112.5 537,-131.5 698,-131.5 698,-112.5 537,-112.5"/>
<text text-anchor="middle" x="617.5" y="-119.5" font-family="Helvetica,sans-Serif" font-size="10.00">open62541pp/ErrorHandling.h</text>
</a>
</g>
</g>
<!-- Node4&#45;&gt;Node10 -->
<g id="edge10" class="edge">
<title>Node4&#45;&gt;Node10</title>
<path fill="none" stroke="midnightblue" d="M402.06,-168.44C446.82,-159 518.88,-143.8 567.2,-133.61"/>
<polygon fill="midnightblue" stroke="midnightblue" points="568.06,-137.01 577.13,-131.52 566.62,-130.16 568.06,-137.01"/>
</g>
<!-- Node4&#45;&gt;Node12 -->
<g id="edge20" class="edge">
<title>Node4&#45;&gt;Node12</title>
<path fill="none" stroke="midnightblue" d="M367.78,-168.37C380.98,-150.22 411.83,-107.8 429.14,-83.99"/>
<polygon fill="midnightblue" stroke="midnightblue" points="432.2,-85.74 435.25,-75.59 426.54,-81.62 432.2,-85.74"/>
</g>
<!-- Node16 -->
<g id="node16" class="node">
<title>Node16</title>
<g id="a_node16"><a xlink:href="Types_8h.html" target="_top" xlink:title=" ">
<polygon fill="none" stroke="black" points="260.5,-112.5 260.5,-131.5 382.5,-131.5 382.5,-112.5 260.5,-112.5"/>
<text text-anchor="middle" x="321.5" y="-119.5" font-family="Helvetica,sans-Serif" font-size="10.00">open62541pp/Types.h</text>
</a>
</g>
</g>
<!-- Node4&#45;&gt;Node16 -->
<g id="edge17" class="edge">
<title>Node4&#45;&gt;Node16</title>
<path fill="none" stroke="midnightblue" d="M354.89,-168.08C349.24,-160.46 340.96,-149.26 334.05,-139.94"/>
<polygon fill="midnightblue" stroke="midnightblue" points="336.75,-137.7 327.98,-131.75 331.12,-141.87 336.75,-137.7"/>
</g>
<!-- Node10&#45;&gt;Node7 -->
<g id="edge12" class="edge">
<title>Node10&#45;&gt;Node7</title>
<path fill="none" stroke="midnightblue" d="M632.12,-112.32C646.45,-103.82 668.51,-90.73 685.25,-80.8"/>
<polygon fill="midnightblue" stroke="midnightblue" points="687.1,-83.77 693.92,-75.65 683.53,-77.75 687.1,-83.77"/>
</g>
<!-- Node11 -->
<g id="node11" class="node">
<title>Node11</title>
<g id="a_node11"><a xlink:title=" ">
<polygon fill="none" stroke="#bfbfbf" points="585,-56.5 585,-75.5 650,-75.5 650,-56.5 585,-56.5"/>
<text text-anchor="middle" x="617.5" y="-63.5" font-family="Helvetica,sans-Serif" font-size="10.00">stdexcept</text>
</a>
</g>
</g>
<!-- Node10&#45;&gt;Node11 -->
<g id="edge11" class="edge">
<title>Node10&#45;&gt;Node11</title>
<path fill="none" stroke="midnightblue" d="M617.5,-112.08C617.5,-105.01 617.5,-94.86 617.5,-85.99"/>
<polygon fill="midnightblue" stroke="midnightblue" points="621,-85.75 617.5,-75.75 614,-85.75 621,-85.75"/>
</g>
<!-- Node10&#45;&gt;Node12 -->
<g id="edge13" class="edge">
<title>Node10&#45;&gt;Node12</title>
<path fill="none" stroke="midnightblue" d="M589.61,-112.44C559.75,-103.28 512.19,-88.69 479.04,-78.52"/>
<polygon fill="midnightblue" stroke="midnightblue" points="479.84,-75.1 469.26,-75.52 477.79,-81.8 479.84,-75.1"/>
</g>
<!-- Node13 -->
<g id="node13" class="node">
<title>Node13</title>
<g id="a_node13"><a xlink:href="open62541/nodeids_8h.html.html" xlink:title=" ">
<polygon fill="none" stroke="black" points="247,-0.5 247,-19.5 368,-19.5 368,-0.5 247,-0.5"/>
<text text-anchor="middle" x="307.5" y="-7.5" font-family="Helvetica,sans-Serif" font-size="10.00">open62541/nodeids.h</text>
</a>
</g>
</g>
<!-- Node12&#45;&gt;Node13 -->
<g id="edge14" class="edge">
<title>Node12&#45;&gt;Node13</title>
<path fill="none" stroke="midnightblue" d="M420.27,-56.44C398.12,-47.52 363.18,-33.44 338.06,-23.32"/>
<polygon fill="midnightblue" stroke="midnightblue" points="339.22,-20.01 328.63,-19.52 336.6,-26.5 339.22,-20.01"/>
</g>
<!-- Node14 -->
<g id="node14" class="node">
<title>Node14</title>
<g id="a_node14"><a xlink:href="open62541/types_8h.html.html" xlink:title=" ">
<polygon fill="none" stroke="black" points="386.5,-0.5 386.5,-19.5 496.5,-19.5 496.5,-0.5 386.5,-0.5"/>
<text text-anchor="middle" x="441.5" y="-7.5" font-family="Helvetica,sans-Serif" font-size="10.00">open62541/types.h</text>
</a>
</g>
</g>
<!-- Node12&#45;&gt;Node14 -->
<g id="edge15" class="edge">
<title>Node12&#45;&gt;Node14</title>
<path fill="none" stroke="midnightblue" d="M441.5,-56.08C441.5,-49.01 441.5,-38.86 441.5,-29.99"/>
<polygon fill="midnightblue" stroke="midnightblue" points="445,-29.75 441.5,-19.75 438,-29.75 445,-29.75"/>
</g>
<!-- Node15 -->
<g id="node15" class="node">
<title>Node15</title>
<g id="a_node15"><a xlink:href="open62541/types__generated_8h.html.html" xlink:title=" ">
<polygon fill="none" stroke="black" points="514.5,-0.5 514.5,-19.5 678.5,-19.5 678.5,-0.5 514.5,-0.5"/>
<text text-anchor="middle" x="596.5" y="-7.5" font-family="Helvetica,sans-Serif" font-size="10.00">open62541/types_generated.h</text>
</a>
</g>
</g>
<!-- Node12&#45;&gt;Node15 -->
<g id="edge16" class="edge">
<title>Node12&#45;&gt;Node15</title>
<path fill="none" stroke="midnightblue" d="M466.06,-56.44C492.02,-47.4 533.17,-33.06 562.3,-22.92"/>
<polygon fill="midnightblue" stroke="midnightblue" points="563.76,-26.11 572.05,-19.52 561.46,-19.5 563.76,-26.11"/>
</g>
<!-- Node16&#45;&gt;Node8 -->
<g id="edge18" class="edge">
<title>Node16&#45;&gt;Node8</title>
<path fill="none" stroke="midnightblue" d="M316.22,-112.08C311.79,-104.61 305.34,-93.72 299.88,-84.52"/>
<polygon fill="midnightblue" stroke="midnightblue" points="302.79,-82.57 294.69,-75.75 296.77,-86.14 302.79,-82.57"/>
</g>
<!-- Node16&#45;&gt;Node12 -->
<g id="edge19" class="edge">
<title>Node16&#45;&gt;Node12</title>
<path fill="none" stroke="midnightblue" d="M340.51,-112.44C360.09,-103.64 390.81,-89.81 413.23,-79.72"/>
<polygon fill="midnightblue" stroke="midnightblue" points="414.89,-82.81 422.57,-75.52 412.02,-76.43 414.89,-82.81"/>
</g>
</g>
</svg>
