<?xml version="1.0" encoding="UTF-8" standalone="no"?>
<!DOCTYPE svg PUBLIC "-//W3C//DTD SVG 1.1//EN"
 "http://www.w3.org/Graphics/SVG/1.1/DTD/svg11.dtd">
<!-- Generated by graphviz version 2.43.0 (0)
 -->
<!-- Title: /home/runner/work/open62541pp/open62541pp/include/open62541pp/ua/nodeids.hpp Pages: 1 -->
<svg width="2118pt" height="599pt"
 viewBox="0.00 0.00 2118.00 599.00" xmlns="http://www.w3.org/2000/svg" xmlns:xlink="http://www.w3.org/1999/xlink">
<g id="graph0" class="graph" transform="scale(1 1) rotate(0) translate(4 595)">
<title>/home/runner/work/open62541pp/open62541pp/include/open62541pp/ua/nodeids.hpp</title>
<!-- Node1 -->
<g id="Node000001" class="node">
<title>Node1</title>
<g id="a_Node000001"><a xlink:title=" ">
<polygon fill="#999999" stroke="#666666" points="404,-591 211,-591 211,-550 404,-550 404,-591"/>
<text text-anchor="start" x="219" y="-579" font-family="Helvetica,sans-Serif" font-size="10.00">/home/runner/work/open62541pp</text>
<text text-anchor="start" x="219" y="-568" font-family="Helvetica,sans-Serif" font-size="10.00">/open62541pp/include/open62541pp</text>
<text text-anchor="middle" x="307.5" y="-557" font-family="Helvetica,sans-Serif" font-size="10.00">/ua/nodeids.hpp</text>
</a>
</g>
</g>
<!-- Node2 -->
<g id="Node000002" class="node">
<title>Node2</title>
<g id="a_Node000002"><a xlink:href="event_8hpp.html" target="_top" xlink:title=" ">
<polygon fill="white" stroke="#666666" points="193,-195 0,-195 0,-154 193,-154 193,-195"/>
<text text-anchor="start" x="8" y="-183" font-family="Helvetica,sans-Serif" font-size="10.00">/home/runner/work/open62541pp</text>
<text text-anchor="start" x="8" y="-172" font-family="Helvetica,sans-Serif" font-size="10.00">/open62541pp/include/open62541pp</text>
<text text-anchor="middle" x="96.5" y="-161" font-family="Helvetica,sans-Serif" font-size="10.00">/event.hpp</text>
</a>
</g>
</g>
<!-- Node1&#45;&gt;Node2 -->
<g id="edge1_Node000001_Node000002" class="edge">
<title>Node1&#45;&gt;Node2</title>
<g id="a_edge1_Node000001_Node000002"><a xlink:title=" ">
<path fill="none" stroke="#63b8ff" d="M245.43,-545.58C228.92,-537.27 211.96,-526.76 198.5,-514 160.49,-477.97 139.5,-464.37 139.5,-412 139.5,-412 139.5,-412 139.5,-327.5 139.5,-278.41 118.48,-223.66 105.83,-195.16"/>
<polygon fill="#63b8ff" stroke="#63b8ff" points="244,-548.78 254.52,-549.98 247.04,-542.48 244,-548.78"/>
</a>
</g>
</g>
<!-- Node4 -->
<g id="Node000004" class="node">
<title>Node4</title>
<g id="a_Node000004"><a xlink:href="server_8hpp.html" target="_top" xlink:title=" ">
<polygon fill="white" stroke="#666666" points="451,-118 258,-118 258,-77 451,-77 451,-118"/>
<text text-anchor="start" x="266" y="-106" font-family="Helvetica,sans-Serif" font-size="10.00">/home/runner/work/open62541pp</text>
<text text-anchor="start" x="266" y="-95" font-family="Helvetica,sans-Serif" font-size="10.00">/open62541pp/include/open62541pp</text>
<text text-anchor="middle" x="354.5" y="-84" font-family="Helvetica,sans-Serif" font-size="10.00">/server.hpp</text>
</a>
</g>
</g>
<!-- Node1&#45;&gt;Node4 -->
<g id="edge7_Node000001_Node000004" class="edge">
<title>Node1&#45;&gt;Node4</title>
<g id="a_edge7_Node000001_Node000004"><a xlink:title=" ">
<path fill="none" stroke="#63b8ff" d="M278.73,-542.57C250.77,-513.35 212.5,-463.88 212.5,-412 212.5,-412 212.5,-412 212.5,-327.5 212.5,-248.75 201.06,-216.86 248.5,-154 260.39,-138.25 278.05,-126.54 295.56,-118.05"/>
<polygon fill="#63b8ff" stroke="#63b8ff" points="276.44,-545.23 285.94,-549.91 281.43,-540.32 276.44,-545.23"/>
</a>
</g>
</g>
<!-- Node5 -->
<g id="Node000005" class="node">
<title>Node5</title>
<g id="a_Node000005"><a xlink:href="node_8hpp.html" target="_top" xlink:title=" ">
<polygon fill="white" stroke="#666666" points="662,-195 469,-195 469,-154 662,-154 662,-195"/>
<text text-anchor="start" x="477" y="-183" font-family="Helvetica,sans-Serif" font-size="10.00">/home/runner/work/open62541pp</text>
<text text-anchor="start" x="477" y="-172" font-family="Helvetica,sans-Serif" font-size="10.00">/open62541pp/include/open62541pp</text>
<text text-anchor="middle" x="565.5" y="-161" font-family="Helvetica,sans-Serif" font-size="10.00">/node.hpp</text>
</a>
</g>
</g>
<!-- Node1&#45;&gt;Node5 -->
<g id="edge5_Node000001_Node000005" class="edge">
<title>Node1&#45;&gt;Node5</title>
<g id="a_edge5_Node000001_Node000005"><a xlink:title=" ">
<path fill="none" stroke="#63b8ff" d="M290.44,-541.08C273.64,-510.37 250.5,-459.44 250.5,-412 250.5,-412 250.5,-412 250.5,-327.5 250.5,-269.16 289.26,-260.66 339.5,-231 361.72,-217.88 418.05,-204.03 468.9,-193.45"/>
<polygon fill="#63b8ff" stroke="#63b8ff" points="287.46,-542.93 295.41,-549.94 293.57,-539.51 287.46,-542.93"/>
</a>
</g>
</g>
<!-- Node6 -->
<g id="Node000006" class="node">
<title>Node6</title>
<g id="a_Node000006"><a xlink:href="nodemanagement_8hpp.html" target="_top" xlink:title=" ">
<polygon fill="white" stroke="#666666" points="548,-349 355,-349 355,-308 548,-308 548,-349"/>
<text text-anchor="start" x="363" y="-337" font-family="Helvetica,sans-Serif" font-size="10.00">/home/runner/work/open62541pp</text>
<text text-anchor="start" x="363" y="-326" font-family="Helvetica,sans-Serif" font-size="10.00">/open62541pp/include/open62541pp</text>
<text text-anchor="middle" x="451.5" y="-315" font-family="Helvetica,sans-Serif" font-size="10.00">/services/nodemanagement.hpp</text>
</a>
</g>
</g>
<!-- Node1&#45;&gt;Node6 -->
<g id="edge8_Node000001_Node000006" class="edge">
<title>Node1&#45;&gt;Node6</title>
<g id="a_edge8_Node000001_Node000006"><a xlink:title=" ">
<path fill="none" stroke="#63b8ff" d="M324.43,-541.28C354,-492.01 414.31,-391.49 439.76,-349.07"/>
<polygon fill="#63b8ff" stroke="#63b8ff" points="321.43,-539.48 319.28,-549.86 327.43,-543.09 321.43,-539.48"/>
</a>
</g>
</g>
<!-- Node8 -->
<g id="Node000008" class="node">
<title>Node8</title>
<g id="a_Node000008"><a xlink:href="ua_2types_8hpp.html" target="_top" xlink:title=" ">
<polygon fill="white" stroke="#666666" points="1179,-514 986,-514 986,-473 1179,-473 1179,-514"/>
<text text-anchor="start" x="994" y="-502" font-family="Helvetica,sans-Serif" font-size="10.00">/home/runner/work/open62541pp</text>
<text text-anchor="start" x="994" y="-491" font-family="Helvetica,sans-Serif" font-size="10.00">/open62541pp/include/open62541pp</text>
<text text-anchor="middle" x="1082.5" y="-480" font-family="Helvetica,sans-Serif" font-size="10.00">/ua/types.hpp</text>
</a>
</g>
</g>
<!-- Node1&#45;&gt;Node8 -->
<g id="edge12_Node000001_Node000008" class="edge">
<title>Node1&#45;&gt;Node8</title>
<g id="a_edge12_Node000001_Node000008"><a xlink:title=" ">
<path fill="none" stroke="#63b8ff" d="M414.32,-559.16C565.69,-544.51 840.35,-517.93 985.92,-503.85"/>
<polygon fill="#63b8ff" stroke="#63b8ff" points="413.7,-555.71 404.09,-560.15 414.38,-562.67 413.7,-555.71"/>
</a>
</g>
</g>
<!-- Node25 -->
<g id="Node000025" class="node">
<title>Node25</title>
<g id="a_Node000025"><a xlink:href="ua_8hpp.html" target="_top" xlink:title=" ">
<polygon fill="white" stroke="#666666" points="2110,-431.5 1917,-431.5 1917,-390.5 2110,-390.5 2110,-431.5"/>
<text text-anchor="start" x="1925" y="-419.5" font-family="Helvetica,sans-Serif" font-size="10.00">/home/runner/work/open62541pp</text>
<text text-anchor="start" x="1925" y="-408.5" font-family="Helvetica,sans-Serif" font-size="10.00">/open62541pp/include/open62541pp</text>
<text text-anchor="middle" x="2013.5" y="-397.5" font-family="Helvetica,sans-Serif" font-size="10.00">/ua/ua.hpp</text>
</a>
</g>
</g>
<!-- Node1&#45;&gt;Node25 -->
<g id="edge66_Node000001_Node000025" class="edge">
<title>Node1&#45;&gt;Node25</title>
<g id="a_edge66_Node000001_Node000025"><a xlink:title=" ">
<path fill="none" stroke="#63b8ff" d="M414.47,-566.63C672.2,-558.41 1347.29,-529.11 1902.5,-437 1911.95,-435.43 1921.81,-433.56 1931.57,-431.56"/>
<polygon fill="#63b8ff" stroke="#63b8ff" points="414.25,-563.13 404.36,-566.95 414.47,-570.13 414.25,-563.13"/>
</a>
</g>
</g>
<!-- Node3 -->
<g id="Node000003" class="node">
<title>Node3</title>
<g id="a_Node000003"><a xlink:href="open62541pp_8hpp.html" target="_top" xlink:title=" ">
<polygon fill="white" stroke="#666666" points="870,-41 677,-41 677,0 870,0 870,-41"/>
<text text-anchor="start" x="685" y="-29" font-family="Helvetica,sans-Serif" font-size="10.00">/home/runner/work/open62541pp</text>
<text text-anchor="start" x="685" y="-18" font-family="Helvetica,sans-Serif" font-size="10.00">/open62541pp/include/open62541pp</text>
<text text-anchor="middle" x="773.5" y="-7" font-family="Helvetica,sans-Serif" font-size="10.00">/open62541pp.hpp</text>
</a>
</g>
</g>
<!-- Node2&#45;&gt;Node3 -->
<g id="edge2_Node000002_Node000003" class="edge">
<title>Node2&#45;&gt;Node3</title>
<g id="a_edge2_Node000002_Node000003"><a xlink:title=" ">
<path fill="none" stroke="#63b8ff" d="M127.86,-147.42C157.11,-124.66 202.97,-92.88 248.5,-77 325.2,-50.26 547.37,-33.94 676.8,-26.43"/>
<polygon fill="#63b8ff" stroke="#63b8ff" points="125.37,-144.92 119.7,-153.87 129.71,-150.41 125.37,-144.92"/>
</a>
</g>
</g>
<!-- Node2&#45;&gt;Node4 -->
<g id="edge3_Node000002_Node000004" class="edge">
<title>Node2&#45;&gt;Node4</title>
<g id="a_edge3_Node000002_Node000004"><a xlink:title=" ">
<path fill="none" stroke="#63b8ff" d="M173.63,-151.08C209.78,-140.57 252.46,-128.16 287.28,-118.04"/>
<polygon fill="#63b8ff" stroke="#63b8ff" points="172.24,-147.84 163.61,-153.99 174.19,-154.56 172.24,-147.84"/>
</a>
</g>
</g>
<!-- Node4&#45;&gt;Node3 -->
<g id="edge4_Node000004_Node000003" class="edge">
<title>Node4&#45;&gt;Node3</title>
<g id="a_edge4_Node000004_Node000003"><a xlink:title=" ">
<path fill="none" stroke="#63b8ff" d="M461.24,-77.39C527.71,-65.5 612.52,-50.32 676.97,-38.78"/>
<polygon fill="#63b8ff" stroke="#63b8ff" points="460.38,-73.99 451.15,-79.2 461.61,-80.88 460.38,-73.99"/>
</a>
</g>
</g>
<!-- Node5&#45;&gt;Node3 -->
<g id="edge6_Node000005_Node000003" class="edge">
<title>Node5&#45;&gt;Node3</title>
<g id="a_edge6_Node000005_Node000003"><a xlink:title=" ">
<path fill="none" stroke="#63b8ff" d="M671.61,-152.2C692.92,-144.18 713.85,-133.15 730.5,-118 753.02,-97.51 764.42,-63.02 769.64,-41.3"/>
<polygon fill="#63b8ff" stroke="#63b8ff" points="670.39,-148.92 662.14,-155.57 672.73,-155.52 670.39,-148.92"/>
</a>
</g>
</g>
<!-- Node6&#45;&gt;Node5 -->
<g id="edge9_Node000006_Node000005" class="edge">
<title>Node6&#45;&gt;Node5</title>
<g id="a_edge9_Node000006_Node000005"><a xlink:title=" ">
<path fill="none" stroke="#63b8ff" d="M411.6,-301.45C402.29,-293.24 393.61,-283.31 388.5,-272 381,-255.39 377.71,-245.69 388.5,-231 399.03,-216.66 433.45,-204.36 469.17,-195.01"/>
<polygon fill="#63b8ff" stroke="#63b8ff" points="409.56,-304.3 419.51,-307.94 414,-298.89 409.56,-304.3"/>
</a>
</g>
</g>
<!-- Node7 -->
<g id="Node000007" class="node">
<title>Node7</title>
<g id="a_Node000007"><a xlink:href="services_8hpp.html" target="_top" xlink:title=" ">
<polygon fill="white" stroke="#666666" points="892,-195 699,-195 699,-154 892,-154 892,-195"/>
<text text-anchor="start" x="707" y="-183" font-family="Helvetica,sans-Serif" font-size="10.00">/home/runner/work/open62541pp</text>
<text text-anchor="start" x="707" y="-172" font-family="Helvetica,sans-Serif" font-size="10.00">/open62541pp/include/open62541pp</text>
<text text-anchor="middle" x="795.5" y="-161" font-family="Helvetica,sans-Serif" font-size="10.00">/services/services.hpp</text>
</a>
</g>
</g>
<!-- Node6&#45;&gt;Node7 -->
<g id="edge10_Node000006_Node000007" class="edge">
<title>Node6&#45;&gt;Node7</title>
<g id="a_edge10_Node000006_Node000007"><a xlink:title=" ">
<path fill="none" stroke="#63b8ff" d="M445.22,-297.58C442.63,-276.32 443.32,-248.55 459.5,-231 461.56,-228.76 600.13,-206.42 698.65,-190.77"/>
<polygon fill="#63b8ff" stroke="#63b8ff" points="441.8,-298.35 446.76,-307.71 448.72,-297.3 441.8,-298.35"/>
</a>
</g>
</g>
<!-- Node7&#45;&gt;Node3 -->
<g id="edge11_Node000007_Node000003" class="edge">
<title>Node7&#45;&gt;Node3</title>
<g id="a_edge11_Node000007_Node000003"><a xlink:title=" ">
<path fill="none" stroke="#63b8ff" d="M791.23,-143.98C786.85,-113.76 780.18,-67.64 776.39,-41.47"/>
<polygon fill="#63b8ff" stroke="#63b8ff" points="787.77,-144.54 792.67,-153.94 794.7,-143.54 787.77,-144.54"/>
</a>
</g>
</g>
<!-- Node8&#45;&gt;Node5 -->
<g id="edge23_Node000008_Node000005" class="edge">
<title>Node8&#45;&gt;Node5</title>
<g id="a_edge23_Node000008_Node000005"><a xlink:title=" ">
<path fill="none" stroke="#63b8ff" d="M975.59,-489.4C788.34,-481.29 414.31,-452.25 345.5,-349 315.3,-303.68 337.82,-267.2 378.5,-231 393.36,-217.77 433.98,-205 473.57,-195.04"/>
<polygon fill="#63b8ff" stroke="#63b8ff" points="975.6,-492.9 985.74,-489.83 975.89,-485.91 975.6,-492.9"/>
</a>
</g>
</g>
<!-- Node8&#45;&gt;Node6 -->
<g id="edge60_Node000008_Node000006" class="edge">
<title>Node8&#45;&gt;Node6</title>
<g id="a_edge60_Node000008_Node000006"><a xlink:title=" ">
<path fill="none" stroke="#63b8ff" d="M975.55,-485.04C896.92,-477.67 788.08,-463.49 695.5,-437 618.51,-414.97 534.15,-373.62 487.54,-349.13"/>
<polygon fill="#63b8ff" stroke="#63b8ff" points="975.67,-488.57 985.95,-485.99 976.31,-481.6 975.67,-488.57"/>
</a>
</g>
</g>
<!-- Node9 -->
<g id="Node000009" class="node">
<title>Node9</title>
<g id="a_Node000009"><a xlink:href="client_8hpp.html" target="_top" xlink:title=" ">
<polygon fill="white" stroke="#666666" points="1555,-118 1362,-118 1362,-77 1555,-77 1555,-118"/>
<text text-anchor="start" x="1370" y="-106" font-family="Helvetica,sans-Serif" font-size="10.00">/home/runner/work/open62541pp</text>
<text text-anchor="start" x="1370" y="-95" font-family="Helvetica,sans-Serif" font-size="10.00">/open62541pp/include/open62541pp</text>
<text text-anchor="middle" x="1458.5" y="-84" font-family="Helvetica,sans-Serif" font-size="10.00">/client.hpp</text>
</a>
</g>
</g>
<!-- Node8&#45;&gt;Node9 -->
<g id="edge13_Node000008_Node000009" class="edge">
<title>Node8&#45;&gt;Node9</title>
<g id="a_edge13_Node000008_Node000009"><a xlink:title=" ">
<path fill="none" stroke="#63b8ff" d="M1189.34,-482C1220.93,-478.98 1255.6,-475.77 1287.5,-473 1389.65,-464.14 1651.71,-473.58 1747.5,-437 1821.12,-408.89 1888.5,-408.3 1888.5,-329.5 1888.5,-329.5 1888.5,-329.5 1888.5,-250.5 1888.5,-180.23 1681.78,-134.33 1555,-112.79"/>
<polygon fill="#63b8ff" stroke="#63b8ff" points="1188.81,-478.53 1179.19,-482.97 1189.48,-485.5 1188.81,-478.53"/>
</a>
</g>
</g>
<!-- Node10 -->
<g id="Node000010" class="node">
<title>Node10</title>
<g id="a_Node000010"><a xlink:href="client__context_8hpp.html" target="_top" xlink:title=" ">
<polygon fill="white" stroke="#666666" points="1611,-349 1418,-349 1418,-308 1611,-308 1611,-349"/>
<text text-anchor="start" x="1426" y="-337" font-family="Helvetica,sans-Serif" font-size="10.00">/home/runner/work/open62541pp</text>
<text text-anchor="start" x="1426" y="-326" font-family="Helvetica,sans-Serif" font-size="10.00">/open62541pp/include/open62541pp</text>
<text text-anchor="middle" x="1514.5" y="-315" font-family="Helvetica,sans-Serif" font-size="10.00">/detail/client_context.hpp</text>
</a>
</g>
</g>
<!-- Node8&#45;&gt;Node10 -->
<g id="edge15_Node000008_Node000010" class="edge">
<title>Node8&#45;&gt;Node10</title>
<g id="a_edge15_Node000008_Node000010"><a xlink:title=" ">
<path fill="none" stroke="#63b8ff" d="M1189.2,-483.24C1240.08,-475.67 1300.59,-461.93 1350.5,-437 1381.77,-421.38 1380.74,-404.86 1409.5,-385 1429.1,-371.47 1452.38,-358.85 1472.04,-349.07"/>
<polygon fill="#63b8ff" stroke="#63b8ff" points="1188.56,-479.79 1179.15,-484.67 1189.55,-486.72 1188.56,-479.79"/>
</a>
</g>
</g>
<!-- Node11 -->
<g id="Node000011" class="node">
<title>Node11</title>
<g id="a_Node000011"><a xlink:href="server__context_8hpp.html" target="_top" xlink:title=" ">
<polygon fill="white" stroke="#666666" points="1822,-349 1629,-349 1629,-308 1822,-308 1822,-349"/>
<text text-anchor="start" x="1637" y="-337" font-family="Helvetica,sans-Serif" font-size="10.00">/home/runner/work/open62541pp</text>
<text text-anchor="start" x="1637" y="-326" font-family="Helvetica,sans-Serif" font-size="10.00">/open62541pp/include/open62541pp</text>
<text text-anchor="middle" x="1725.5" y="-315" font-family="Helvetica,sans-Serif" font-size="10.00">/detail/server_context.hpp</text>
</a>
</g>
</g>
<!-- Node8&#45;&gt;Node11 -->
<g id="edge16_Node000008_Node000011" class="edge">
<title>Node8&#45;&gt;Node11</title>
<g id="a_edge16_Node000008_Node000011"><a xlink:title=" ">
<path fill="none" stroke="#63b8ff" d="M1189.6,-490.02C1324.29,-485.43 1546.85,-472.57 1620.5,-437 1661.61,-417.14 1695.58,-374.2 1712.96,-349.01"/>
<polygon fill="#63b8ff" stroke="#63b8ff" points="1189.14,-486.53 1179.26,-490.36 1189.37,-493.53 1189.14,-486.53"/>
</a>
</g>
</g>
<!-- Node12 -->
<g id="Node000012" class="node">
<title>Node12</title>
<g id="a_Node000012"><a xlink:href="monitoreditem_8hpp.html" target="_top" xlink:title=" ">
<polygon fill="white" stroke="#666666" points="1525,-272 1332,-272 1332,-231 1525,-231 1525,-272"/>
<text text-anchor="start" x="1340" y="-260" font-family="Helvetica,sans-Serif" font-size="10.00">/home/runner/work/open62541pp</text>
<text text-anchor="start" x="1340" y="-249" font-family="Helvetica,sans-Serif" font-size="10.00">/open62541pp/include/open62541pp</text>
<text text-anchor="middle" x="1428.5" y="-238" font-family="Helvetica,sans-Serif" font-size="10.00">/monitoreditem.hpp</text>
</a>
</g>
</g>
<!-- Node8&#45;&gt;Node12 -->
<g id="edge17_Node000008_Node000012" class="edge">
<title>Node8&#45;&gt;Node12</title>
<g id="a_edge17_Node000008_Node000012"><a xlink:title=" ">
<path fill="none" stroke="#63b8ff" d="M1189.23,-482.34C1357.49,-466.32 1665.5,-437 1665.5,-437 1745.49,-413.03 1788.45,-420.55 1831.5,-349 1840.89,-333.39 1843.47,-321.74 1831.5,-308 1792.57,-263.35 1631.62,-253.38 1525.28,-251.82"/>
<polygon fill="#63b8ff" stroke="#63b8ff" points="1188.72,-478.87 1179.1,-483.3 1189.38,-485.84 1188.72,-478.87"/>
</a>
</g>
</g>
<!-- Node13 -->
<g id="Node000013" class="node">
<title>Node13</title>
<g id="a_Node000013"><a xlink:href="subscription_8hpp.html" target="_top" xlink:title=" ">
<polygon fill="white" stroke="#666666" points="1305,-195 1112,-195 1112,-154 1305,-154 1305,-195"/>
<text text-anchor="start" x="1120" y="-183" font-family="Helvetica,sans-Serif" font-size="10.00">/home/runner/work/open62541pp</text>
<text text-anchor="start" x="1120" y="-172" font-family="Helvetica,sans-Serif" font-size="10.00">/open62541pp/include/open62541pp</text>
<text text-anchor="middle" x="1208.5" y="-161" font-family="Helvetica,sans-Serif" font-size="10.00">/subscription.hpp</text>
</a>
</g>
</g>
<!-- Node8&#45;&gt;Node13 -->
<g id="edge63_Node000008_Node000013" class="edge">
<title>Node8&#45;&gt;Node13</title>
<g id="a_edge63_Node000008_Node000013"><a xlink:title=" ">
<path fill="none" stroke="#63b8ff" d="M1088.94,-462.89C1094.77,-440.28 1104.88,-409.04 1120.5,-385 1133.17,-365.49 1145.09,-368.01 1158.5,-349 1180.06,-318.43 1181.8,-307.85 1192.5,-272 1200.27,-245.96 1204.58,-214.78 1206.72,-195.05"/>
<polygon fill="#63b8ff" stroke="#63b8ff" points="1085.54,-462.06 1086.56,-472.61 1092.34,-463.73 1085.54,-462.06"/>
</a>
</g>
</g>
<!-- Node14 -->
<g id="Node000014" class="node">
<title>Node14</title>
<g id="a_Node000014"><a xlink:href="accesscontrol_8hpp.html" target="_top" xlink:title=" ">
<polygon fill="white" stroke="#666666" points="451,-195 258,-195 258,-154 451,-154 451,-195"/>
<text text-anchor="start" x="266" y="-183" font-family="Helvetica,sans-Serif" font-size="10.00">/home/runner/work/open62541pp</text>
<text text-anchor="start" x="266" y="-172" font-family="Helvetica,sans-Serif" font-size="10.00">/open62541pp/include/open62541pp</text>
<text text-anchor="middle" x="354.5" y="-161" font-family="Helvetica,sans-Serif" font-size="10.00">/plugin/accesscontrol.hpp</text>
</a>
</g>
</g>
<!-- Node8&#45;&gt;Node14 -->
<g id="edge24_Node000008_Node000014" class="edge">
<title>Node8&#45;&gt;Node14</title>
<g id="a_edge24_Node000008_Node000014"><a xlink:title=" ">
<path fill="none" stroke="#63b8ff" d="M975.6,-489.17C792.77,-482.7 434.87,-466.44 385.5,-437 345.48,-413.13 341.71,-393.69 328.5,-349 312.44,-294.67 333.44,-227.7 346.13,-195.14"/>
<polygon fill="#63b8ff" stroke="#63b8ff" points="975.66,-492.67 985.78,-489.52 975.91,-485.67 975.66,-492.67"/>
</a>
</g>
</g>
<!-- Node16 -->
<g id="Node000016" class="node">
<title>Node16</title>
<g id="a_Node000016"><a xlink:href="attribute_8hpp.html" target="_top" xlink:title=" ">
<polygon fill="white" stroke="#666666" points="759,-349 566,-349 566,-308 759,-308 759,-349"/>
<text text-anchor="start" x="574" y="-337" font-family="Helvetica,sans-Serif" font-size="10.00">/home/runner/work/open62541pp</text>
<text text-anchor="start" x="574" y="-326" font-family="Helvetica,sans-Serif" font-size="10.00">/open62541pp/include/open62541pp</text>
<text text-anchor="middle" x="662.5" y="-315" font-family="Helvetica,sans-Serif" font-size="10.00">/services/attribute.hpp</text>
</a>
</g>
</g>
<!-- Node8&#45;&gt;Node16 -->
<g id="edge29_Node000008_Node000016" class="edge">
<title>Node8&#45;&gt;Node16</title>
<g id="a_edge29_Node000008_Node000016"><a xlink:title=" ">
<path fill="none" stroke="#63b8ff" d="M975.53,-482.22C895.01,-473.03 792.43,-457.8 755.5,-437 718.08,-415.93 688.57,-373.84 673.5,-349.04"/>
<polygon fill="#63b8ff" stroke="#63b8ff" points="975.4,-485.72 985.73,-483.36 976.19,-478.77 975.4,-485.72"/>
</a>
</g>
</g>
<!-- Node18 -->
<g id="Node000018" class="node">
<title>Node18</title>
<g id="a_Node000018"><a xlink:href="monitoreditem__context_8hpp.html" target="_top" xlink:title=" ">
<polygon fill="white" stroke="#666666" points="1611,-437 1418,-437 1418,-385 1611,-385 1611,-437"/>
<text text-anchor="start" x="1426" y="-425" font-family="Helvetica,sans-Serif" font-size="10.00">/home/runner/work/open62541pp</text>
<text text-anchor="start" x="1426" y="-414" font-family="Helvetica,sans-Serif" font-size="10.00">/open62541pp/include/open62541pp</text>
<text text-anchor="start" x="1426" y="-403" font-family="Helvetica,sans-Serif" font-size="10.00">/services/detail/monitoreditem</text>
<text text-anchor="middle" x="1514.5" y="-392" font-family="Helvetica,sans-Serif" font-size="10.00">_context.hpp</text>
</a>
</g>
</g>
<!-- Node8&#45;&gt;Node18 -->
<g id="edge35_Node000008_Node000018" class="edge">
<title>Node8&#45;&gt;Node18</title>
<g id="a_edge35_Node000008_Node000018"><a xlink:title=" ">
<path fill="none" stroke="#63b8ff" d="M1189.19,-475.44C1251.77,-465.08 1332.29,-451.17 1403.5,-437 1408.15,-436.08 1412.9,-435.1 1417.7,-434.1"/>
<polygon fill="#63b8ff" stroke="#63b8ff" points="1188.6,-471.99 1179.31,-477.07 1189.74,-478.89 1188.6,-471.99"/>
</a>
</g>
</g>
<!-- Node19 -->
<g id="Node000019" class="node">
<title>Node19</title>
<g id="a_Node000019"><a xlink:href="services_2monitoreditem_8hpp.html" target="_top" xlink:title=" ">
<polygon fill="white" stroke="#666666" points="1400,-349 1207,-349 1207,-308 1400,-308 1400,-349"/>
<text text-anchor="start" x="1215" y="-337" font-family="Helvetica,sans-Serif" font-size="10.00">/home/runner/work/open62541pp</text>
<text text-anchor="start" x="1215" y="-326" font-family="Helvetica,sans-Serif" font-size="10.00">/open62541pp/include/open62541pp</text>
<text text-anchor="middle" x="1303.5" y="-315" font-family="Helvetica,sans-Serif" font-size="10.00">/services/monitoreditem.hpp</text>
</a>
</g>
</g>
<!-- Node8&#45;&gt;Node19 -->
<g id="edge59_Node000008_Node000019" class="edge">
<title>Node8&#45;&gt;Node19</title>
<g id="a_edge59_Node000008_Node000019"><a xlink:title=" ">
<path fill="none" stroke="#63b8ff" d="M1189.53,-482.05C1248.84,-473.8 1314.22,-459.78 1332.5,-437 1353.07,-411.37 1333.53,-372.37 1318.08,-349.07"/>
<polygon fill="#63b8ff" stroke="#63b8ff" points="1188.75,-478.62 1179.31,-483.42 1189.69,-485.56 1188.75,-478.62"/>
</a>
</g>
</g>
<!-- Node20 -->
<g id="Node000020" class="node">
<title>Node20</title>
<g id="a_Node000020"><a xlink:href="request__handling_8hpp.html" target="_top" xlink:title=" ">
<polygon fill="white" stroke="#666666" points="997,-431.5 798,-431.5 798,-390.5 997,-390.5 997,-431.5"/>
<text text-anchor="start" x="806" y="-419.5" font-family="Helvetica,sans-Serif" font-size="10.00">/home/runner/work/open62541pp</text>
<text text-anchor="start" x="806" y="-408.5" font-family="Helvetica,sans-Serif" font-size="10.00">/open62541pp/include/open62541pp</text>
<text text-anchor="middle" x="897.5" y="-397.5" font-family="Helvetica,sans-Serif" font-size="10.00">/services/detail/request_handling.hpp</text>
</a>
</g>
</g>
<!-- Node8&#45;&gt;Node20 -->
<g id="edge42_Node000008_Node000020" class="edge">
<title>Node8&#45;&gt;Node20</title>
<g id="a_edge42_Node000008_Node000020"><a xlink:title=" ">
<path fill="none" stroke="#63b8ff" d="M1027.88,-468.73C1000.73,-456.92 968.32,-442.82 942.61,-431.63"/>
<polygon fill="#63b8ff" stroke="#63b8ff" points="1026.68,-472.03 1037.24,-472.81 1029.47,-465.61 1026.68,-472.03"/>
</a>
</g>
</g>
<!-- Node21 -->
<g id="Node000021" class="node">
<title>Node21</title>
<g id="a_Node000021"><a xlink:href="method_8hpp.html" target="_top" xlink:title=" ">
<polygon fill="white" stroke="#666666" points="912,-272 719,-272 719,-231 912,-231 912,-272"/>
<text text-anchor="start" x="727" y="-260" font-family="Helvetica,sans-Serif" font-size="10.00">/home/runner/work/open62541pp</text>
<text text-anchor="start" x="727" y="-249" font-family="Helvetica,sans-Serif" font-size="10.00">/open62541pp/include/open62541pp</text>
<text text-anchor="middle" x="815.5" y="-238" font-family="Helvetica,sans-Serif" font-size="10.00">/services/method.hpp</text>
</a>
</g>
</g>
<!-- Node8&#45;&gt;Node21 -->
<g id="edge58_Node000008_Node000021" class="edge">
<title>Node8&#45;&gt;Node21</title>
<g id="a_edge58_Node000008_Node000021"><a xlink:title=" ">
<path fill="none" stroke="#63b8ff" d="M975.48,-486.36C901.49,-479.61 812.24,-465.65 788.5,-437 748.73,-389.02 784.04,-308.88 804,-272.07"/>
<polygon fill="#63b8ff" stroke="#63b8ff" points="975.55,-489.88 985.81,-487.26 976.16,-482.9 975.55,-489.88"/>
</a>
</g>
</g>
<!-- Node22 -->
<g id="Node000022" class="node">
<title>Node22</title>
<g id="a_Node000022"><a xlink:href="services_2subscription_8hpp.html" target="_top" xlink:title=" ">
<polygon fill="white" stroke="#666666" points="1150,-349 957,-349 957,-308 1150,-308 1150,-349"/>
<text text-anchor="start" x="965" y="-337" font-family="Helvetica,sans-Serif" font-size="10.00">/home/runner/work/open62541pp</text>
<text text-anchor="start" x="965" y="-326" font-family="Helvetica,sans-Serif" font-size="10.00">/open62541pp/include/open62541pp</text>
<text text-anchor="middle" x="1053.5" y="-315" font-family="Helvetica,sans-Serif" font-size="10.00">/services/subscription.hpp</text>
</a>
</g>
</g>
<!-- Node8&#45;&gt;Node22 -->
<g id="edge61_Node000008_Node000022" class="edge">
<title>Node8&#45;&gt;Node22</title>
<g id="a_edge61_Node000008_Node000022"><a xlink:title=" ">
<path fill="none" stroke="#63b8ff" d="M1077.23,-462.87C1071.36,-429.9 1062.05,-377.54 1057.01,-349.23"/>
<polygon fill="#63b8ff" stroke="#63b8ff" points="1073.8,-463.61 1079,-472.84 1080.7,-462.38 1073.8,-463.61"/>
</a>
</g>
</g>
<!-- Node23 -->
<g id="Node000023" class="node">
<title>Node23</title>
<g id="a_Node000023"><a xlink:href="view_8hpp.html" target="_top" xlink:title=" ">
<polygon fill="white" stroke="#666666" points="1123,-272 930,-272 930,-231 1123,-231 1123,-272"/>
<text text-anchor="start" x="938" y="-260" font-family="Helvetica,sans-Serif" font-size="10.00">/home/runner/work/open62541pp</text>
<text text-anchor="start" x="938" y="-249" font-family="Helvetica,sans-Serif" font-size="10.00">/open62541pp/include/open62541pp</text>
<text text-anchor="middle" x="1026.5" y="-238" font-family="Helvetica,sans-Serif" font-size="10.00">/services/view.hpp</text>
</a>
</g>
</g>
<!-- Node8&#45;&gt;Node23 -->
<g id="edge62_Node000008_Node000023" class="edge">
<title>Node8&#45;&gt;Node23</title>
<g id="a_edge62_Node000008_Node000023"><a xlink:title=" ">
<path fill="none" stroke="#63b8ff" d="M1066.53,-464.2C1052.52,-441.04 1030.51,-408.41 1005.5,-385 983.35,-364.27 962.25,-375.51 947.5,-349 938.64,-333.08 939.1,-324.17 947.5,-308 955.38,-292.83 969.53,-280.94 983.69,-272.12"/>
<polygon fill="#63b8ff" stroke="#63b8ff" points="1063.57,-466.06 1071.68,-472.88 1069.59,-462.49 1063.57,-466.06"/>
</a>
</g>
</g>
<!-- Node24 -->
<g id="Node000024" class="node">
<title>Node24</title>
<g id="a_Node000024"><a xlink:href="subscription__context_8hpp.html" target="_top" xlink:title=" ">
<polygon fill="white" stroke="#666666" points="1323,-437 1130,-437 1130,-385 1323,-385 1323,-437"/>
<text text-anchor="start" x="1138" y="-425" font-family="Helvetica,sans-Serif" font-size="10.00">/home/runner/work/open62541pp</text>
<text text-anchor="start" x="1138" y="-414" font-family="Helvetica,sans-Serif" font-size="10.00">/open62541pp/include/open62541pp</text>
<text text-anchor="start" x="1138" y="-403" font-family="Helvetica,sans-Serif" font-size="10.00">/services/detail/subscription</text>
<text text-anchor="middle" x="1226.5" y="-392" font-family="Helvetica,sans-Serif" font-size="10.00">_context.hpp</text>
</a>
</g>
</g>
<!-- Node8&#45;&gt;Node24 -->
<g id="edge55_Node000008_Node000024" class="edge">
<title>Node8&#45;&gt;Node24</title>
<g id="a_edge55_Node000008_Node000024"><a xlink:title=" ">
<path fill="none" stroke="#63b8ff" d="M1126.58,-467.86C1144.02,-458.11 1164.03,-446.92 1181.55,-437.13"/>
<polygon fill="#63b8ff" stroke="#63b8ff" points="1124.75,-464.87 1117.73,-472.81 1128.16,-470.98 1124.75,-464.87"/>
</a>
</g>
</g>
<!-- Node8&#45;&gt;Node25 -->
<g id="edge64_Node000008_Node000025" class="edge">
<title>Node8&#45;&gt;Node25</title>
<g id="a_edge64_Node000008_Node000025"><a xlink:title=" ">
<path fill="none" stroke="#63b8ff" d="M1189.4,-490.51C1346.45,-486.4 1648.45,-473.98 1902.5,-437 1912.66,-435.52 1923.28,-433.61 1933.74,-431.51"/>
<polygon fill="#63b8ff" stroke="#63b8ff" points="1189.17,-487.01 1179.26,-490.77 1189.35,-494.01 1189.17,-487.01"/>
</a>
</g>
</g>
<!-- Node9&#45;&gt;Node3 -->
<g id="edge14_Node000009_Node000003" class="edge">
<title>Node9&#45;&gt;Node3</title>
<g id="a_edge14_Node000009_Node000003"><a xlink:title=" ">
<path fill="none" stroke="#63b8ff" d="M1351.45,-77.55C1350.13,-77.36 1348.81,-77.18 1347.5,-77 1180.34,-54.27 984.56,-37.42 870.25,-28.55"/>
<polygon fill="#63b8ff" stroke="#63b8ff" points="1351.31,-81.06 1361.71,-79.04 1352.32,-74.14 1351.31,-81.06"/>
</a>
</g>
</g>
<!-- Node12&#45;&gt;Node3 -->
<g id="edge18_Node000012_Node000003" class="edge">
<title>Node12&#45;&gt;Node3</title>
<g id="a_edge18_Node000012_Node000003"><a xlink:title=" ">
<path fill="none" stroke="#63b8ff" d="M1403.59,-223.42C1382.04,-201.57 1348.98,-171.66 1314.5,-154 1169.91,-79.94 982.1,-46.02 870.07,-31.45"/>
<polygon fill="#63b8ff" stroke="#63b8ff" points="1401.25,-226.03 1410.72,-230.78 1406.28,-221.16 1401.25,-226.03"/>
</a>
</g>
</g>
<!-- Node12&#45;&gt;Node13 -->
<g id="edge19_Node000012_Node000013" class="edge">
<title>Node12&#45;&gt;Node13</title>
<g id="a_edge19_Node000012_Node000013"><a xlink:title=" ">
<path fill="none" stroke="#63b8ff" d="M1361.55,-227.67C1330.97,-217.25 1295.13,-205.03 1265.82,-195.04"/>
<polygon fill="#63b8ff" stroke="#63b8ff" points="1360.68,-231.08 1371.27,-230.99 1362.94,-224.45 1360.68,-231.08"/>
</a>
</g>
</g>
<!-- Node13&#45;&gt;Node3 -->
<g id="edge21_Node000013_Node000003" class="edge">
<title>Node13&#45;&gt;Node3</title>
<g id="a_edge21_Node000013_Node000003"><a xlink:title=" ">
<path fill="none" stroke="#63b8ff" d="M1142.94,-150.59C1057.63,-120.78 910,-69.19 829.61,-41.11"/>
<polygon fill="#63b8ff" stroke="#63b8ff" points="1141.93,-153.95 1152.52,-153.94 1144.24,-147.34 1141.93,-153.95"/>
</a>
</g>
</g>
<!-- Node13&#45;&gt;Node4 -->
<g id="edge22_Node000013_Node000004" class="edge">
<title>Node13&#45;&gt;Node4</title>
<g id="a_edge22_Node000013_Node000004"><a xlink:title=" ">
<path fill="none" stroke="#63b8ff" d="M1101.6,-166.13C966.05,-156.5 725.21,-138.43 519.5,-118 497.4,-115.8 473.66,-113.17 451.28,-110.55"/>
<polygon fill="#63b8ff" stroke="#63b8ff" points="1101.75,-169.65 1111.98,-166.86 1102.25,-162.67 1101.75,-169.65"/>
</a>
</g>
</g>
<!-- Node13&#45;&gt;Node9 -->
<g id="edge20_Node000013_Node000009" class="edge">
<title>Node13&#45;&gt;Node9</title>
<g id="a_edge20_Node000013_Node000009"><a xlink:title=" ">
<path fill="none" stroke="#63b8ff" d="M1283.23,-151.08C1318.27,-140.57 1359.62,-128.16 1393.36,-118.04"/>
<polygon fill="#63b8ff" stroke="#63b8ff" points="1282.1,-147.76 1273.53,-153.99 1284.12,-154.47 1282.1,-147.76"/>
</a>
</g>
</g>
<!-- Node14&#45;&gt;Node3 -->
<g id="edge25_Node000014_Node000003" class="edge">
<title>Node14&#45;&gt;Node3</title>
<g id="a_edge25_Node000014_Node000003"><a xlink:title=" ">
<path fill="none" stroke="#63b8ff" d="M403.13,-149.26C421.09,-139.92 441.46,-128.88 459.5,-118 487.15,-101.32 489.84,-89.79 519.5,-77 569.23,-55.54 628.15,-42.01 676.72,-33.68"/>
<polygon fill="#63b8ff" stroke="#63b8ff" points="401.26,-146.28 393.98,-153.97 404.47,-152.5 401.26,-146.28"/>
</a>
</g>
</g>
<!-- Node14&#45;&gt;Node4 -->
<g id="edge28_Node000014_Node000004" class="edge">
<title>Node14&#45;&gt;Node4</title>
<g id="a_edge28_Node000014_Node000004"><a xlink:title=" ">
<path fill="none" stroke="#63b8ff" d="M354.5,-143.69C354.5,-135.08 354.5,-125.9 354.5,-118.07"/>
<polygon fill="#63b8ff" stroke="#63b8ff" points="351,-143.79 354.5,-153.79 358,-143.79 351,-143.79"/>
</a>
</g>
</g>
<!-- Node15 -->
<g id="Node000015" class="node">
<title>Node15</title>
<g id="a_Node000015"><a xlink:href="accesscontrol__default_8hpp.html" target="_top" xlink:title=" ">
<polygon fill="white" stroke="#666666" points="722,-118 529,-118 529,-77 722,-77 722,-118"/>
<text text-anchor="start" x="537" y="-106" font-family="Helvetica,sans-Serif" font-size="10.00">/home/runner/work/open62541pp</text>
<text text-anchor="start" x="537" y="-95" font-family="Helvetica,sans-Serif" font-size="10.00">/open62541pp/include/open62541pp</text>
<text text-anchor="middle" x="625.5" y="-84" font-family="Helvetica,sans-Serif" font-size="10.00">/plugin/accesscontrol_default.hpp</text>
</a>
</g>
</g>
<!-- Node14&#45;&gt;Node15 -->
<g id="edge26_Node000014_Node000015" class="edge">
<title>Node14&#45;&gt;Node15</title>
<g id="a_edge26_Node000014_Node000015"><a xlink:title=" ">
<path fill="none" stroke="#63b8ff" d="M435.03,-151.21C473.1,-140.68 518.16,-128.21 554.89,-118.04"/>
<polygon fill="#63b8ff" stroke="#63b8ff" points="433.7,-147.95 424.99,-153.99 435.57,-154.7 433.7,-147.95"/>
</a>
</g>
</g>
<!-- Node15&#45;&gt;Node3 -->
<g id="edge27_Node000015_Node000003" class="edge">
<title>Node15&#45;&gt;Node3</title>
<g id="a_edge27_Node000015_Node000003"><a xlink:title=" ">
<path fill="none" stroke="#63b8ff" d="M672.96,-72.45C692.98,-62.3 715.99,-50.64 734.94,-41.04"/>
<polygon fill="#63b8ff" stroke="#63b8ff" points="671.34,-69.35 664,-76.99 674.5,-75.59 671.34,-69.35"/>
</a>
</g>
</g>
<!-- Node16&#45;&gt;Node5 -->
<g id="edge30_Node000016_Node000005" class="edge">
<title>Node16&#45;&gt;Node5</title>
<g id="a_edge30_Node000016_Node000005"><a xlink:title=" ">
<path fill="none" stroke="#63b8ff" d="M561.95,-305.68C514.36,-294.35 466.38,-281.02 459.5,-272 448.44,-257.52 450.07,-246.59 459.5,-231 469.18,-215.01 485.15,-203.4 501.8,-195.07"/>
<polygon fill="#63b8ff" stroke="#63b8ff" points="561.23,-309.11 571.76,-308 562.83,-302.3 561.23,-309.11"/>
</a>
</g>
</g>
<!-- Node16&#45;&gt;Node7 -->
<g id="edge34_Node000016_Node000007" class="edge">
<title>Node16&#45;&gt;Node7</title>
<g id="a_edge34_Node000016_Node000007"><a xlink:title=" ">
<path fill="none" stroke="#63b8ff" d="M671.89,-298.45C679.59,-277.91 692.07,-250.65 709.5,-231 722.35,-216.51 739.85,-204.3 755.71,-195.05"/>
<polygon fill="#63b8ff" stroke="#63b8ff" points="668.57,-297.33 668.49,-307.93 675.16,-299.7 668.57,-297.33"/>
</a>
</g>
</g>
<!-- Node17 -->
<g id="Node000017" class="node">
<title>Node17</title>
<g id="a_Node000017"><a xlink:href="attribute__highlevel_8hpp.html" target="_top" xlink:title=" ">
<polygon fill="white" stroke="#666666" points="662,-272 469,-272 469,-231 662,-231 662,-272"/>
<text text-anchor="start" x="477" y="-260" font-family="Helvetica,sans-Serif" font-size="10.00">/home/runner/work/open62541pp</text>
<text text-anchor="start" x="477" y="-249" font-family="Helvetica,sans-Serif" font-size="10.00">/open62541pp/include/open62541pp</text>
<text text-anchor="middle" x="565.5" y="-238" font-family="Helvetica,sans-Serif" font-size="10.00">/services/attribute_highlevel.hpp</text>
</a>
</g>
</g>
<!-- Node16&#45;&gt;Node17 -->
<g id="edge31_Node000016_Node000017" class="edge">
<title>Node16&#45;&gt;Node17</title>
<g id="a_edge31_Node000016_Node000017"><a xlink:title=" ">
<path fill="none" stroke="#63b8ff" d="M629.28,-301.82C616.73,-292.11 602.67,-281.24 590.94,-272.17"/>
<polygon fill="#63b8ff" stroke="#63b8ff" points="627.22,-304.64 637.27,-307.99 631.5,-299.1 627.22,-304.64"/>
</a>
</g>
</g>
<!-- Node17&#45;&gt;Node5 -->
<g id="edge32_Node000017_Node000005" class="edge">
<title>Node17&#45;&gt;Node5</title>
<g id="a_edge32_Node000017_Node000005"><a xlink:title=" ">
<path fill="none" stroke="#63b8ff" d="M565.5,-220.69C565.5,-212.08 565.5,-202.9 565.5,-195.07"/>
<polygon fill="#63b8ff" stroke="#63b8ff" points="562,-220.79 565.5,-230.79 569,-220.79 562,-220.79"/>
</a>
</g>
</g>
<!-- Node17&#45;&gt;Node7 -->
<g id="edge33_Node000017_Node000007" class="edge">
<title>Node17&#45;&gt;Node7</title>
<g id="a_edge33_Node000017_Node000007"><a xlink:title=" ">
<path fill="none" stroke="#63b8ff" d="M635.08,-227.81C667.14,-217.36 704.8,-205.08 735.57,-195.04"/>
<polygon fill="#63b8ff" stroke="#63b8ff" points="633.75,-224.56 625.33,-230.99 635.92,-231.22 633.75,-224.56"/>
</a>
</g>
</g>
<!-- Node18&#45;&gt;Node10 -->
<g id="edge36_Node000018_Node000010" class="edge">
<title>Node18&#45;&gt;Node10</title>
<g id="a_edge36_Node000018_Node000010"><a xlink:title=" ">
<path fill="none" stroke="#63b8ff" d="M1514.5,-374.87C1514.5,-366.05 1514.5,-356.9 1514.5,-349.15"/>
<polygon fill="#63b8ff" stroke="#63b8ff" points="1511,-374.97 1514.5,-384.97 1518,-374.97 1511,-374.97"/>
</a>
</g>
</g>
<!-- Node18&#45;&gt;Node11 -->
<g id="edge37_Node000018_Node000011" class="edge">
<title>Node18&#45;&gt;Node11</title>
<g id="a_edge37_Node000018_Node000011"><a xlink:title=" ">
<path fill="none" stroke="#63b8ff" d="M1589.5,-381.38C1617.61,-370.66 1648.88,-358.73 1674.34,-349.02"/>
<polygon fill="#63b8ff" stroke="#63b8ff" points="1588.2,-378.14 1580.11,-384.97 1590.7,-384.68 1588.2,-378.14"/>
</a>
</g>
</g>
<!-- Node18&#45;&gt;Node19 -->
<g id="edge38_Node000018_Node000019" class="edge">
<title>Node18&#45;&gt;Node19</title>
<g id="a_edge38_Node000018_Node000019"><a xlink:title=" ">
<path fill="none" stroke="#63b8ff" d="M1439.5,-381.38C1411.39,-370.66 1380.12,-358.73 1354.66,-349.02"/>
<polygon fill="#63b8ff" stroke="#63b8ff" points="1438.3,-384.68 1448.89,-384.97 1440.8,-378.14 1438.3,-384.68"/>
</a>
</g>
</g>
<!-- Node19&#45;&gt;Node7 -->
<g id="edge40_Node000019_Node000007" class="edge">
<title>Node19&#45;&gt;Node7</title>
<g id="a_edge40_Node000019_Node000007"><a xlink:title=" ">
<path fill="none" stroke="#63b8ff" d="M1270.94,-301.57C1241.11,-279.21 1194.83,-247.94 1149.5,-231 1065.88,-199.75 964.77,-186.1 892.06,-180.13"/>
<polygon fill="#63b8ff" stroke="#63b8ff" points="1269.2,-304.64 1279.28,-307.91 1273.44,-299.07 1269.2,-304.64"/>
</a>
</g>
</g>
<!-- Node19&#45;&gt;Node12 -->
<g id="edge39_Node000019_Node000012" class="edge">
<title>Node19&#45;&gt;Node12</title>
<g id="a_edge39_Node000019_Node000012"><a xlink:title=" ">
<path fill="none" stroke="#63b8ff" d="M1344.93,-302.64C1361.44,-292.74 1380.17,-281.5 1395.71,-272.17"/>
<polygon fill="#63b8ff" stroke="#63b8ff" points="1342.79,-299.84 1336.02,-307.99 1346.39,-305.85 1342.79,-299.84"/>
</a>
</g>
</g>
<!-- Node19&#45;&gt;Node13 -->
<g id="edge41_Node000019_Node000013" class="edge">
<title>Node19&#45;&gt;Node13</title>
<g id="a_edge41_Node000019_Node000013"><a xlink:title=" ">
<path fill="none" stroke="#63b8ff" d="M1301.18,-297.71C1298.44,-277.53 1292.48,-251.01 1279.5,-231 1270.22,-216.69 1255.97,-204.51 1242.66,-195.23"/>
<polygon fill="#63b8ff" stroke="#63b8ff" points="1297.73,-298.36 1302.36,-307.89 1304.68,-297.56 1297.73,-298.36"/>
</a>
</g>
</g>
<!-- Node20&#45;&gt;Node6 -->
<g id="edge48_Node000020_Node000006" class="edge">
<title>Node20&#45;&gt;Node6</title>
<g id="a_edge48_Node000020_Node000006"><a xlink:title=" ">
<path fill="none" stroke="#63b8ff" d="M787.74,-390.55C720.88,-378.66 633.74,-363.08 556.5,-349 553.76,-348.5 550.99,-347.99 548.19,-347.48"/>
<polygon fill="#63b8ff" stroke="#63b8ff" points="787.41,-394.05 797.87,-392.36 788.64,-387.16 787.41,-394.05"/>
</a>
</g>
</g>
<!-- Node20&#45;&gt;Node16 -->
<g id="edge43_Node000020_Node000016" class="edge">
<title>Node20&#45;&gt;Node16</title>
<g id="a_edge43_Node000020_Node000016"><a xlink:title=" ">
<path fill="none" stroke="#63b8ff" d="M830.63,-387.09C795.56,-375.08 753.04,-360.51 719.54,-349.04"/>
<polygon fill="#63b8ff" stroke="#63b8ff" points="829.72,-390.48 840.31,-390.41 831.99,-383.86 829.72,-390.48"/>
</a>
</g>
</g>
<!-- Node20&#45;&gt;Node19 -->
<g id="edge47_Node000020_Node000019" class="edge">
<title>Node20&#45;&gt;Node19</title>
<g id="a_edge47_Node000020_Node000019"><a xlink:title=" ">
<path fill="none" stroke="#63b8ff" d="M1005.94,-388.5C1068.51,-376.09 1146.5,-360.63 1206.95,-348.64"/>
<polygon fill="#63b8ff" stroke="#63b8ff" points="1005.17,-385.08 996.04,-390.46 1006.53,-391.95 1005.17,-385.08"/>
</a>
</g>
</g>
<!-- Node20&#45;&gt;Node21 -->
<g id="edge44_Node000020_Node000021" class="edge">
<title>Node20&#45;&gt;Node21</title>
<g id="a_edge44_Node000020_Node000021"><a xlink:title=" ">
<path fill="none" stroke="#63b8ff" d="M882.51,-381.21C866.08,-349.65 840.16,-299.86 825.85,-272.38"/>
<polygon fill="#63b8ff" stroke="#63b8ff" points="879.56,-383.12 887.28,-390.37 885.77,-379.88 879.56,-383.12"/>
</a>
</g>
</g>
<!-- Node20&#45;&gt;Node22 -->
<g id="edge49_Node000020_Node000022" class="edge">
<title>Node20&#45;&gt;Node22</title>
<g id="a_edge49_Node000020_Node000022"><a xlink:title=" ">
<path fill="none" stroke="#63b8ff" d="M944.76,-385.61C967.4,-373.93 994.16,-360.12 1015.46,-349.13"/>
<polygon fill="#63b8ff" stroke="#63b8ff" points="942.94,-382.61 935.66,-390.31 946.15,-388.83 942.94,-382.61"/>
</a>
</g>
</g>
<!-- Node20&#45;&gt;Node23 -->
<g id="edge52_Node000020_Node000023" class="edge">
<title>Node20&#45;&gt;Node23</title>
<g id="a_edge52_Node000020_Node000023"><a xlink:title=" ">
<path fill="none" stroke="#63b8ff" d="M895.57,-380.22C895.67,-358.25 899.16,-328.7 914.5,-308 926.33,-292.05 944.01,-280.41 961.84,-272.04"/>
<polygon fill="#63b8ff" stroke="#63b8ff" points="892.08,-380.39 895.76,-390.32 899.08,-380.26 892.08,-380.39"/>
</a>
</g>
</g>
<!-- Node21&#45;&gt;Node5 -->
<g id="edge45_Node000021_Node000005" class="edge">
<title>Node21&#45;&gt;Node5</title>
<g id="a_edge45_Node000021_Node000005"><a xlink:title=" ">
<path fill="none" stroke="#63b8ff" d="M740.77,-228.08C705.73,-217.57 664.38,-205.16 630.64,-195.04"/>
<polygon fill="#63b8ff" stroke="#63b8ff" points="739.88,-231.47 750.47,-230.99 741.9,-224.76 739.88,-231.47"/>
</a>
</g>
</g>
<!-- Node21&#45;&gt;Node7 -->
<g id="edge46_Node000021_Node000007" class="edge">
<title>Node21&#45;&gt;Node7</title>
<g id="a_edge46_Node000021_Node000007"><a xlink:title=" ">
<path fill="none" stroke="#63b8ff" d="M807.63,-220.98C805.31,-212.28 802.83,-202.98 800.72,-195.07"/>
<polygon fill="#63b8ff" stroke="#63b8ff" points="804.29,-222.03 810.25,-230.79 811.05,-220.23 804.29,-222.03"/>
</a>
</g>
</g>
<!-- Node22&#45;&gt;Node7 -->
<g id="edge50_Node000022_Node000007" class="edge">
<title>Node22&#45;&gt;Node7</title>
<g id="a_edge50_Node000022_Node000007"><a xlink:title=" ">
<path fill="none" stroke="#63b8ff" d="M1104.25,-302.01C1115.18,-293.98 1125.31,-284.01 1131.5,-272 1139.85,-255.8 1143.29,-244.9 1131.5,-231 1101.28,-195.38 980.38,-182.59 892.23,-178.01"/>
<polygon fill="#63b8ff" stroke="#63b8ff" points="1102.08,-299.25 1095.78,-307.77 1106.02,-305.04 1102.08,-299.25"/>
</a>
</g>
</g>
<!-- Node22&#45;&gt;Node13 -->
<g id="edge51_Node000022_Node000013" class="edge">
<title>Node22&#45;&gt;Node13</title>
<g id="a_edge51_Node000022_Node000013"><a xlink:title=" ">
<path fill="none" stroke="#63b8ff" d="M1120.87,-303.45C1136.96,-295.34 1153.06,-284.96 1165.5,-272 1186.46,-250.17 1198.26,-216.39 1204.01,-195.14"/>
<polygon fill="#63b8ff" stroke="#63b8ff" points="1118.93,-300.5 1111.42,-307.97 1121.95,-306.81 1118.93,-300.5"/>
</a>
</g>
</g>
<!-- Node23&#45;&gt;Node5 -->
<g id="edge53_Node000023_Node000005" class="edge">
<title>Node23&#45;&gt;Node5</title>
<g id="a_edge53_Node000023_Node000005"><a xlink:title=" ">
<path fill="none" stroke="#63b8ff" d="M919.84,-230.91C816.42,-213.43 789.05,-210.58 689.5,-195 680.67,-193.62 671.49,-192.18 662.3,-190.74"/>
<polygon fill="#63b8ff" stroke="#63b8ff" points="919.31,-234.37 929.76,-232.59 920.48,-227.47 919.31,-234.37"/>
</a>
</g>
</g>
<!-- Node23&#45;&gt;Node7 -->
<g id="edge54_Node000023_Node000007" class="edge">
<title>Node23&#45;&gt;Node7</title>
<g id="a_edge54_Node000023_Node000007"><a xlink:title=" ">
<path fill="none" stroke="#63b8ff" d="M956.61,-227.81C924.42,-217.36 886.6,-205.08 855.69,-195.04"/>
<polygon fill="#63b8ff" stroke="#63b8ff" points="955.82,-231.23 966.41,-230.99 957.98,-224.57 955.82,-231.23"/>
</a>
</g>
</g>
<!-- Node24&#45;&gt;Node10 -->
<g id="edge56_Node000024_Node000010" class="edge">
<title>Node24&#45;&gt;Node10</title>
<g id="a_edge56_Node000024_Node000010"><a xlink:title=" ">
<path fill="none" stroke="#63b8ff" d="M1325.88,-382.22C1365.01,-371.28 1409.02,-358.98 1444.68,-349.02"/>
<polygon fill="#63b8ff" stroke="#63b8ff" points="1324.73,-378.91 1316.05,-384.97 1326.62,-385.65 1324.73,-378.91"/>
</a>
</g>
</g>
<!-- Node24&#45;&gt;Node22 -->
<g id="edge57_Node000024_Node000022" class="edge">
<title>Node24&#45;&gt;Node22</title>
<g id="a_edge57_Node000024_Node000022"><a xlink:title=" ">
<path fill="none" stroke="#63b8ff" d="M1163.5,-380.68C1140.84,-370.14 1115.86,-358.52 1095.44,-349.02"/>
<polygon fill="#63b8ff" stroke="#63b8ff" points="1162.17,-383.92 1172.71,-384.97 1165.12,-377.58 1162.17,-383.92"/>
</a>
</g>
</g>
<!-- Node25&#45;&gt;Node3 -->
<g id="edge65_Node000025_Node000003" class="edge">
<title>Node25&#45;&gt;Node3</title>
<g id="a_edge65_Node000025_Node000003"><a xlink:title=" ">
<path fill="none" stroke="#63b8ff" d="M2000.16,-380.74C1987.21,-349.61 1969.5,-298.61 1969.5,-252.5 1969.5,-252.5 1969.5,-252.5 1969.5,-173.5 1969.5,-62.93 1154.61,-31.33 870.11,-23.67"/>
<polygon fill="#63b8ff" stroke="#63b8ff" points="1997.02,-382.29 2004.17,-390.11 2003.46,-379.54 1997.02,-382.29"/>
</a>
</g>
</g>
</g>
</svg>
