<?xml version="1.0" encoding="UTF-8" standalone="no"?>
<!DOCTYPE svg PUBLIC "-//W3C//DTD SVG 1.1//EN"
 "http://www.w3.org/Graphics/SVG/1.1/DTD/svg11.dtd">
<!-- Generated by graphviz version 2.43.0 (0)
 -->
<!-- Title: /home/runner/work/open62541pp/open62541pp/include/open62541pp/NodeId.h Pages: 1 -->
<svg width="817pt" height="330pt"
 viewBox="0.00 0.00 817.00 330.00" xmlns="http://www.w3.org/2000/svg" xmlns:xlink="http://www.w3.org/1999/xlink">
<g id="graph0" class="graph" transform="scale(1 1) rotate(0) translate(4 326)">
<title>/home/runner/work/open62541pp/open62541pp/include/open62541pp/NodeId.h</title>
<!-- Node1 -->
<g id="node1" class="node">
<title>Node1</title>
<g id="a_node1"><a xlink:title=" ">
<polygon fill="#bfbfbf" stroke="black" points="277,-280.5 277,-321.5 470,-321.5 470,-280.5 277,-280.5"/>
<text text-anchor="start" x="285" y="-309.5" font-family="Helvetica,sans-Serif" font-size="10.00">/home/runner/work/open62541pp</text>
<text text-anchor="start" x="285" y="-298.5" font-family="Helvetica,sans-Serif" font-size="10.00">/open62541pp/include/open62541pp</text>
<text text-anchor="middle" x="373.5" y="-287.5" font-family="Helvetica,sans-Serif" font-size="10.00">/NodeId.h</text>
</a>
</g>
</g>
<!-- Node2 -->
<g id="node2" class="node">
<title>Node2</title>
<g id="a_node2"><a xlink:title=" ">
<polygon fill="none" stroke="#bfbfbf" points="0,-56.5 0,-75.5 73,-75.5 73,-56.5 0,-56.5"/>
<text text-anchor="middle" x="36.5" y="-63.5" font-family="Helvetica,sans-Serif" font-size="10.00">string_view</text>
</a>
</g>
</g>
<!-- Node1&#45;&gt;Node2 -->
<g id="edge1" class="edge">
<title>Node1&#45;&gt;Node2</title>
<path fill="none" stroke="midnightblue" d="M276.78,-286.58C236.59,-278.25 190.54,-264.97 152.5,-244 94.06,-211.79 80.72,-192.47 52.5,-132 45.59,-117.19 41.44,-99.04 39.11,-85.68"/>
<polygon fill="midnightblue" stroke="midnightblue" points="42.56,-85.11 37.55,-75.77 35.65,-86.19 42.56,-85.11"/>
</g>
<!-- Node3 -->
<g id="node3" class="node">
<title>Node3</title>
<g id="a_node3"><a xlink:title=" ">
<polygon fill="none" stroke="#bfbfbf" points="639,-224.5 639,-243.5 690,-243.5 690,-224.5 639,-224.5"/>
<text text-anchor="middle" x="664.5" y="-231.5" font-family="Helvetica,sans-Serif" font-size="10.00">variant</text>
</a>
</g>
</g>
<!-- Node1&#45;&gt;Node3 -->
<g id="edge2" class="edge">
<title>Node1&#45;&gt;Node3</title>
<path fill="none" stroke="midnightblue" d="M461.21,-280.47C509.41,-269.73 570.26,-256.15 624.5,-244 625.93,-243.68 627.39,-243.35 628.87,-243.02"/>
<polygon fill="midnightblue" stroke="midnightblue" points="629.69,-246.42 638.68,-240.82 628.16,-239.59 629.69,-246.42"/>
</g>
<!-- Node4 -->
<g id="node4" class="node">
<title>Node4</title>
<g id="a_node4"><a xlink:href="TypeWrapper_8h.html" target="_top" xlink:title=" ">
<polygon fill="none" stroke="black" points="294.5,-224.5 294.5,-243.5 452.5,-243.5 452.5,-224.5 294.5,-224.5"/>
<text text-anchor="middle" x="373.5" y="-231.5" font-family="Helvetica,sans-Serif" font-size="10.00">open62541pp/TypeWrapper.h</text>
</a>
</g>
</g>
<!-- Node1&#45;&gt;Node4 -->
<g id="edge3" class="edge">
<title>Node1&#45;&gt;Node4</title>
<path fill="none" stroke="midnightblue" d="M373.5,-280.5C373.5,-272.07 373.5,-262.24 373.5,-253.87"/>
<polygon fill="midnightblue" stroke="midnightblue" points="377,-253.65 373.5,-243.65 370,-253.65 377,-253.65"/>
</g>
<!-- Node12 -->
<g id="node12" class="node">
<title>Node12</title>
<g id="a_node12"><a xlink:href="open62541_8h.html" target="_top" xlink:title=" ">
<polygon fill="none" stroke="black" points="493,-56.5 493,-75.5 642,-75.5 642,-56.5 493,-56.5"/>
<text text-anchor="middle" x="567.5" y="-63.5" font-family="Helvetica,sans-Serif" font-size="10.00">open62541pp/open62541.h</text>
</a>
</g>
</g>
<!-- Node1&#45;&gt;Node12 -->
<g id="edge32" class="edge">
<title>Node1&#45;&gt;Node12</title>
<path fill="none" stroke="midnightblue" d="M456.52,-280.46C504.97,-264.32 562.18,-236.03 591.5,-188 611.41,-155.39 591.91,-109.46 578.26,-84.62"/>
<polygon fill="midnightblue" stroke="midnightblue" points="581.11,-82.55 573.07,-75.64 575.05,-86.05 581.11,-82.55"/>
</g>
<!-- Node17 -->
<g id="node17" class="node">
<title>Node17</title>
<g id="a_node17"><a xlink:href="Types_8h.html" target="_top" xlink:title=" ">
<polygon fill="none" stroke="black" points="122.5,-112.5 122.5,-131.5 244.5,-131.5 244.5,-112.5 122.5,-112.5"/>
<text text-anchor="middle" x="183.5" y="-119.5" font-family="Helvetica,sans-Serif" font-size="10.00">open62541pp/Types.h</text>
</a>
</g>
</g>
<!-- Node1&#45;&gt;Node17 -->
<g id="edge31" class="edge">
<title>Node1&#45;&gt;Node17</title>
<path fill="none" stroke="midnightblue" d="M276.75,-283.48C221.45,-268.54 156.52,-240.44 122.5,-188 109.6,-168.12 133.96,-148.77 155.62,-136.42"/>
<polygon fill="midnightblue" stroke="midnightblue" points="157.47,-139.4 164.62,-131.58 154.15,-133.24 157.47,-139.4"/>
</g>
<!-- Node4&#45;&gt;Node2 -->
<g id="edge7" class="edge">
<title>Node4&#45;&gt;Node2</title>
<path fill="none" stroke="midnightblue" d="M294.47,-225.37C231.91,-218.15 150.56,-205.75 122.5,-188 82.89,-162.95 56.16,-112.43 43.99,-85.26"/>
<polygon fill="midnightblue" stroke="midnightblue" points="47.09,-83.6 39.93,-75.8 40.66,-86.37 47.09,-83.6"/>
</g>
<!-- Node5 -->
<g id="node5" class="node">
<title>Node5</title>
<g id="a_node5"><a xlink:title=" ">
<polygon fill="none" stroke="#bfbfbf" points="284.5,-168.5 284.5,-187.5 326.5,-187.5 326.5,-168.5 284.5,-168.5"/>
<text text-anchor="middle" x="305.5" y="-175.5" font-family="Helvetica,sans-Serif" font-size="10.00">array</text>
</a>
</g>
</g>
<!-- Node4&#45;&gt;Node5 -->
<g id="edge4" class="edge">
<title>Node4&#45;&gt;Node5</title>
<path fill="none" stroke="midnightblue" d="M362.57,-224.32C352.33,-216.18 336.78,-203.84 324.5,-194.09"/>
<polygon fill="midnightblue" stroke="midnightblue" points="326.63,-191.31 316.62,-187.83 322.28,-196.79 326.63,-191.31"/>
</g>
<!-- Node6 -->
<g id="node6" class="node">
<title>Node6</title>
<g id="a_node6"><a xlink:title=" ">
<polygon fill="none" stroke="#bfbfbf" points="269.5,-56.5 269.5,-75.5 319.5,-75.5 319.5,-56.5 269.5,-56.5"/>
<text text-anchor="middle" x="294.5" y="-63.5" font-family="Helvetica,sans-Serif" font-size="10.00">cstdint</text>
</a>
</g>
</g>
<!-- Node4&#45;&gt;Node6 -->
<g id="edge5" class="edge">
<title>Node4&#45;&gt;Node6</title>
<path fill="none" stroke="midnightblue" d="M369.25,-224.08C356.71,-197.72 319.66,-119.88 302.9,-84.66"/>
<polygon fill="midnightblue" stroke="midnightblue" points="306.04,-83.09 298.58,-75.57 299.71,-86.1 306.04,-83.09"/>
</g>
<!-- Node7 -->
<g id="node7" class="node">
<title>Node7</title>
<g id="a_node7"><a xlink:title=" ">
<polygon fill="none" stroke="#bfbfbf" points="411.5,-112.5 411.5,-131.5 455.5,-131.5 455.5,-112.5 411.5,-112.5"/>
<text text-anchor="middle" x="433.5" y="-119.5" font-family="Helvetica,sans-Serif" font-size="10.00">string</text>
</a>
</g>
</g>
<!-- Node4&#45;&gt;Node7 -->
<g id="edge6" class="edge">
<title>Node4&#45;&gt;Node7</title>
<path fill="none" stroke="midnightblue" d="M378.21,-224.37C388.02,-206.38 410.84,-164.55 423.89,-140.63"/>
<polygon fill="midnightblue" stroke="midnightblue" points="427.1,-142.05 428.81,-131.59 420.95,-138.69 427.1,-142.05"/>
</g>
<!-- Node8 -->
<g id="node8" class="node">
<title>Node8</title>
<g id="a_node8"><a xlink:title=" ">
<polygon fill="none" stroke="#bfbfbf" points="677,-168.5 677,-187.5 746,-187.5 746,-168.5 677,-168.5"/>
<text text-anchor="middle" x="711.5" y="-175.5" font-family="Helvetica,sans-Serif" font-size="10.00">type_traits</text>
</a>
</g>
</g>
<!-- Node4&#45;&gt;Node8 -->
<g id="edge8" class="edge">
<title>Node4&#45;&gt;Node8</title>
<path fill="none" stroke="midnightblue" d="M431.15,-224.49C489.53,-215.77 582.4,-201.59 662.5,-188 663.97,-187.75 665.46,-187.5 666.96,-187.23"/>
<polygon fill="midnightblue" stroke="midnightblue" points="667.75,-190.65 676.99,-185.46 666.53,-183.76 667.75,-190.65"/>
</g>
<!-- Node9 -->
<g id="node9" class="node">
<title>Node9</title>
<g id="a_node9"><a xlink:title=" ">
<polygon fill="none" stroke="#bfbfbf" points="764,-168.5 764,-187.5 809,-187.5 809,-168.5 764,-168.5"/>
<text text-anchor="middle" x="786.5" y="-175.5" font-family="Helvetica,sans-Serif" font-size="10.00">utility</text>
</a>
</g>
</g>
<!-- Node4&#45;&gt;Node9 -->
<g id="edge9" class="edge">
<title>Node4&#45;&gt;Node9</title>
<path fill="none" stroke="midnightblue" d="M452.75,-227.51C528.16,-221.41 644.85,-209.7 754.05,-188.01"/>
<polygon fill="midnightblue" stroke="midnightblue" points="754.81,-191.43 763.92,-186.02 753.43,-184.57 754.81,-191.43"/>
</g>
<!-- Node10 -->
<g id="node10" class="node">
<title>Node10</title>
<g id="a_node10"><a xlink:href="ErrorHandling_8h.html" target="_top" xlink:title=" ">
<polygon fill="none" stroke="black" points="421,-168.5 421,-187.5 582,-187.5 582,-168.5 421,-168.5"/>
<text text-anchor="middle" x="501.5" y="-175.5" font-family="Helvetica,sans-Serif" font-size="10.00">open62541pp/ErrorHandling.h</text>
</a>
</g>
</g>
<!-- Node4&#45;&gt;Node10 -->
<g id="edge10" class="edge">
<title>Node4&#45;&gt;Node10</title>
<path fill="none" stroke="midnightblue" d="M393.78,-224.44C414.85,-215.56 448.02,-201.56 471.99,-191.45"/>
<polygon fill="midnightblue" stroke="midnightblue" points="473.46,-194.63 481.31,-187.52 470.74,-188.18 473.46,-194.63"/>
</g>
<!-- Node4&#45;&gt;Node12 -->
<g id="edge30" class="edge">
<title>Node4&#45;&gt;Node12</title>
<path fill="none" stroke="midnightblue" d="M452.65,-227.02C507.61,-221.03 573.99,-209.5 591.5,-188 615.97,-157.97 593.87,-109.96 578.8,-84.38"/>
<polygon fill="midnightblue" stroke="midnightblue" points="581.71,-82.43 573.48,-75.76 575.76,-86.1 581.71,-82.43"/>
</g>
<!-- Node16 -->
<g id="node16" class="node">
<title>Node16</title>
<g id="a_node16"><a xlink:href="Helper_8h.html" target="_top" xlink:title=" ">
<polygon fill="none" stroke="black" points="140.5,-168.5 140.5,-187.5 266.5,-187.5 266.5,-168.5 140.5,-168.5"/>
<text text-anchor="middle" x="203.5" y="-175.5" font-family="Helvetica,sans-Serif" font-size="10.00">open62541pp/Helper.h</text>
</a>
</g>
</g>
<!-- Node4&#45;&gt;Node16 -->
<g id="edge17" class="edge">
<title>Node4&#45;&gt;Node16</title>
<path fill="none" stroke="midnightblue" d="M346.56,-224.44C317.84,-215.32 272.17,-200.81 240.18,-190.65"/>
<polygon fill="midnightblue" stroke="midnightblue" points="240.9,-187.21 230.31,-187.52 238.78,-193.88 240.9,-187.21"/>
</g>
<!-- Node4&#45;&gt;Node17 -->
<g id="edge29" class="edge">
<title>Node4&#45;&gt;Node17</title>
<path fill="none" stroke="midnightblue" d="M294.24,-228.95C231.82,-223.9 152.02,-212.69 131.5,-188 117.1,-170.67 139.53,-150.34 159.27,-137.09"/>
<polygon fill="midnightblue" stroke="midnightblue" points="161.17,-140.03 167.73,-131.7 157.41,-134.12 161.17,-140.03"/>
</g>
<!-- Node10&#45;&gt;Node7 -->
<g id="edge12" class="edge">
<title>Node10&#45;&gt;Node7</title>
<path fill="none" stroke="midnightblue" d="M490.57,-168.32C480.33,-160.18 464.78,-147.84 452.5,-138.09"/>
<polygon fill="midnightblue" stroke="midnightblue" points="454.63,-135.31 444.62,-131.83 450.28,-140.79 454.63,-135.31"/>
</g>
<!-- Node11 -->
<g id="node11" class="node">
<title>Node11</title>
<g id="a_node11"><a xlink:title=" ">
<polygon fill="none" stroke="#bfbfbf" points="474,-112.5 474,-131.5 539,-131.5 539,-112.5 474,-112.5"/>
<text text-anchor="middle" x="506.5" y="-119.5" font-family="Helvetica,sans-Serif" font-size="10.00">stdexcept</text>
</a>
</g>
</g>
<!-- Node10&#45;&gt;Node11 -->
<g id="edge11" class="edge">
<title>Node10&#45;&gt;Node11</title>
<path fill="none" stroke="midnightblue" d="M502.33,-168.08C502.98,-161.01 503.92,-150.86 504.74,-141.99"/>
<polygon fill="midnightblue" stroke="midnightblue" points="508.25,-142.03 505.69,-131.75 501.28,-141.39 508.25,-142.03"/>
</g>
<!-- Node10&#45;&gt;Node12 -->
<g id="edge13" class="edge">
<title>Node10&#45;&gt;Node12</title>
<path fill="none" stroke="midnightblue" d="M513.64,-168.34C524.3,-160.13 539.47,-146.87 548.5,-132 557.18,-117.71 562.08,-99.24 564.72,-85.65"/>
<polygon fill="midnightblue" stroke="midnightblue" points="568.21,-86.02 566.44,-75.57 561.31,-84.84 568.21,-86.02"/>
</g>
<!-- Node13 -->
<g id="node13" class="node">
<title>Node13</title>
<g id="a_node13"><a xlink:href="open62541/nodeids_8h.html.html" xlink:title=" ">
<polygon fill="none" stroke="black" points="373,-0.5 373,-19.5 494,-19.5 494,-0.5 373,-0.5"/>
<text text-anchor="middle" x="433.5" y="-7.5" font-family="Helvetica,sans-Serif" font-size="10.00">open62541/nodeids.h</text>
</a>
</g>
</g>
<!-- Node12&#45;&gt;Node13 -->
<g id="edge14" class="edge">
<title>Node12&#45;&gt;Node13</title>
<path fill="none" stroke="midnightblue" d="M546.27,-56.44C524.12,-47.52 489.18,-33.44 464.06,-23.32"/>
<polygon fill="midnightblue" stroke="midnightblue" points="465.22,-20.01 454.63,-19.52 462.6,-26.5 465.22,-20.01"/>
</g>
<!-- Node14 -->
<g id="node14" class="node">
<title>Node14</title>
<g id="a_node14"><a xlink:href="open62541/types_8h.html.html" xlink:title=" ">
<polygon fill="none" stroke="black" points="512.5,-0.5 512.5,-19.5 622.5,-19.5 622.5,-0.5 512.5,-0.5"/>
<text text-anchor="middle" x="567.5" y="-7.5" font-family="Helvetica,sans-Serif" font-size="10.00">open62541/types.h</text>
</a>
</g>
</g>
<!-- Node12&#45;&gt;Node14 -->
<g id="edge15" class="edge">
<title>Node12&#45;&gt;Node14</title>
<path fill="none" stroke="midnightblue" d="M567.5,-56.08C567.5,-49.01 567.5,-38.86 567.5,-29.99"/>
<polygon fill="midnightblue" stroke="midnightblue" points="571,-29.75 567.5,-19.75 564,-29.75 571,-29.75"/>
</g>
<!-- Node15 -->
<g id="node15" class="node">
<title>Node15</title>
<g id="a_node15"><a xlink:href="open62541/types__generated_8h.html.html" xlink:title=" ">
<polygon fill="none" stroke="black" points="640.5,-0.5 640.5,-19.5 804.5,-19.5 804.5,-0.5 640.5,-0.5"/>
<text text-anchor="middle" x="722.5" y="-7.5" font-family="Helvetica,sans-Serif" font-size="10.00">open62541/types_generated.h</text>
</a>
</g>
</g>
<!-- Node12&#45;&gt;Node15 -->
<g id="edge16" class="edge">
<title>Node12&#45;&gt;Node15</title>
<path fill="none" stroke="midnightblue" d="M592.06,-56.44C618.02,-47.4 659.17,-33.06 688.3,-22.92"/>
<polygon fill="midnightblue" stroke="midnightblue" points="689.76,-26.11 698.05,-19.52 687.46,-19.5 689.76,-26.11"/>
</g>
<!-- Node16&#45;&gt;Node2 -->
<g id="edge20" class="edge">
<title>Node16&#45;&gt;Node2</title>
<path fill="none" stroke="midnightblue" d="M183.09,-168.47C164.34,-160.25 136.11,-146.89 113.5,-132 91.06,-117.22 67.84,-96.79 52.84,-82.8"/>
<polygon fill="midnightblue" stroke="midnightblue" points="55.08,-80.1 45.42,-75.76 50.27,-85.18 55.08,-80.1"/>
</g>
<!-- Node16&#45;&gt;Node6 -->
<g id="edge18" class="edge">
<title>Node16&#45;&gt;Node6</title>
<path fill="none" stroke="midnightblue" d="M214.64,-168.47C225.35,-159.94 241.61,-146.11 253.5,-132 265.95,-117.22 277.44,-98.36 285.07,-84.76"/>
<polygon fill="midnightblue" stroke="midnightblue" points="288.17,-86.38 289.9,-75.93 282.03,-83.03 288.17,-86.38"/>
</g>
<!-- Node16&#45;&gt;Node7 -->
<g id="edge19" class="edge">
<title>Node16&#45;&gt;Node7</title>
<path fill="none" stroke="midnightblue" d="M241.1,-168.48C280.21,-159.57 343.22,-145.08 397.5,-132 398.77,-131.69 400.06,-131.38 401.37,-131.06"/>
<polygon fill="midnightblue" stroke="midnightblue" points="402.56,-134.37 411.43,-128.58 400.88,-127.58 402.56,-134.37"/>
</g>
<!-- Node16&#45;&gt;Node12 -->
<g id="edge28" class="edge">
<title>Node16&#45;&gt;Node12</title>
<path fill="none" stroke="midnightblue" d="M228.2,-168.5C265.69,-155.69 339.31,-130.93 402.5,-112 443.61,-99.69 490.9,-86.93 524.29,-78.16"/>
<polygon fill="midnightblue" stroke="midnightblue" points="525.39,-81.49 534.18,-75.57 523.62,-74.72 525.39,-81.49"/>
</g>
<!-- Node16&#45;&gt;Node17 -->
<g id="edge21" class="edge">
<title>Node16&#45;&gt;Node17</title>
<path fill="none" stroke="midnightblue" d="M200.2,-168.08C197.52,-160.85 193.65,-150.41 190.31,-141.4"/>
<polygon fill="midnightblue" stroke="midnightblue" points="193.5,-139.91 186.74,-131.75 186.93,-142.34 193.5,-139.91"/>
</g>
<!-- Node17&#45;&gt;Node2 -->
<g id="edge23" class="edge">
<title>Node17&#45;&gt;Node2</title>
<path fill="none" stroke="midnightblue" d="M160.21,-112.44C135.69,-103.44 96.9,-89.19 69.3,-79.05"/>
<polygon fill="midnightblue" stroke="midnightblue" points="70.28,-75.68 59.68,-75.52 67.86,-82.25 70.28,-75.68"/>
</g>
<!-- Node17&#45;&gt;Node6 -->
<g id="edge22" class="edge">
<title>Node17&#45;&gt;Node6</title>
<path fill="none" stroke="midnightblue" d="M201.33,-112.32C219.22,-103.62 246.98,-90.12 267.55,-80.11"/>
<polygon fill="midnightblue" stroke="midnightblue" points="269.25,-83.18 276.71,-75.65 266.19,-76.88 269.25,-83.18"/>
</g>
<!-- Node17&#45;&gt;Node12 -->
<g id="edge27" class="edge">
<title>Node17&#45;&gt;Node12</title>
<path fill="none" stroke="midnightblue" d="M244.35,-112.44C313.02,-102.79 424.57,-87.1 496.99,-76.92"/>
<polygon fill="midnightblue" stroke="midnightblue" points="497.52,-80.37 506.94,-75.52 496.55,-73.44 497.52,-80.37"/>
</g>
<!-- Node18 -->
<g id="node18" class="node">
<title>Node18</title>
<g id="a_node18"><a xlink:title=" ">
<polygon fill="none" stroke="#bfbfbf" points="126,-0.5 126,-19.5 167,-19.5 167,-0.5 126,-0.5"/>
<text text-anchor="middle" x="146.5" y="-7.5" font-family="Helvetica,sans-Serif" font-size="10.00">tuple</text>
</a>
</g>
</g>
<!-- Node17&#45;&gt;Node18 -->
<g id="edge24" class="edge">
<title>Node17&#45;&gt;Node18</title>
<path fill="none" stroke="midnightblue" d="M163.28,-112.49C148.73,-105.17 130.2,-93.06 121.5,-76 113.47,-60.25 122.77,-41.28 132.23,-27.91"/>
<polygon fill="midnightblue" stroke="midnightblue" points="135.25,-29.72 138.58,-19.66 129.71,-25.44 135.25,-29.72"/>
</g>
<!-- Node19 -->
<g id="node19" class="node">
<title>Node19</title>
<g id="a_node19"><a xlink:href="Traits_8h.html" target="_top" xlink:title=" ">
<polygon fill="none" stroke="black" points="130,-56.5 130,-75.5 251,-75.5 251,-56.5 130,-56.5"/>
<text text-anchor="middle" x="190.5" y="-63.5" font-family="Helvetica,sans-Serif" font-size="10.00">open62541pp/Traits.h</text>
</a>
</g>
</g>
<!-- Node17&#45;&gt;Node19 -->
<g id="edge25" class="edge">
<title>Node17&#45;&gt;Node19</title>
<path fill="none" stroke="midnightblue" d="M184.66,-112.08C185.58,-104.93 186.92,-94.64 188.08,-85.69"/>
<polygon fill="midnightblue" stroke="midnightblue" points="191.55,-86.12 189.37,-75.75 184.61,-85.22 191.55,-86.12"/>
</g>
<!-- Node19&#45;&gt;Node18 -->
<g id="edge26" class="edge">
<title>Node19&#45;&gt;Node18</title>
<path fill="none" stroke="midnightblue" d="M183.23,-56.08C176.96,-48.38 167.71,-37.03 160.07,-27.65"/>
<polygon fill="midnightblue" stroke="midnightblue" points="162.66,-25.29 153.63,-19.75 157.23,-29.71 162.66,-25.29"/>
</g>
</g>
</svg>
