<?xml version="1.0" encoding="UTF-8" standalone="no"?>
<!DOCTYPE svg PUBLIC "-//W3C//DTD SVG 1.1//EN"
 "http://www.w3.org/Graphics/SVG/1.1/DTD/svg11.dtd">
<!-- Generated by graphviz version 2.43.0 (0)
 -->
<!-- Title: /home/runner/work/open62541pp/open62541pp/include/open62541pp/Node.h Pages: 1 -->
<svg width="1217pt" height="341pt"
 viewBox="0.00 0.00 1217.32 341.00" xmlns="http://www.w3.org/2000/svg" xmlns:xlink="http://www.w3.org/1999/xlink">
<g id="graph0" class="graph" transform="scale(1 1) rotate(0) translate(4 337)">
<title>/home/runner/work/open62541pp/open62541pp/include/open62541pp/Node.h</title>
<!-- Node1 -->
<g id="node1" class="node">
<title>Node1</title>
<g id="a_node1"><a xlink:title=" ">
<polygon fill="#bfbfbf" stroke="black" points="570,-291.5 570,-332.5 766,-332.5 766,-291.5 570,-291.5"/>
<text text-anchor="start" x="578" y="-320.5" font-family="Helvetica,sans-Serif" font-size="10.00">/home/runner/work/open62541pp</text>
<text text-anchor="start" x="578" y="-309.5" font-family="Helvetica,sans-Serif" font-size="10.00">/open62541pp/include/open62541pp/</text>
<text text-anchor="middle" x="668" y="-298.5" font-family="Helvetica,sans-Serif" font-size="10.00">Node.h</text>
</a>
</g>
</g>
<!-- Node2 -->
<g id="node2" class="node">
<title>Node2</title>
<g id="a_node2"><a xlink:title=" ">
<polygon fill="none" stroke="#bfbfbf" points="719,-123.5 719,-142.5 769,-142.5 769,-123.5 719,-123.5"/>
<text text-anchor="middle" x="744" y="-130.5" font-family="Helvetica,sans-Serif" font-size="10.00">cstdint</text>
</a>
</g>
</g>
<!-- Node1&#45;&gt;Node2 -->
<g id="edge1" class="edge">
<title>Node1&#45;&gt;Node2</title>
<path fill="none" stroke="midnightblue" d="M676.42,-291.38C691.28,-256.78 721.92,-185.43 736.27,-152.01"/>
<polygon fill="midnightblue" stroke="midnightblue" points="739.58,-153.15 740.31,-142.58 733.15,-150.39 739.58,-153.15"/>
</g>
<!-- Node3 -->
<g id="node3" class="node">
<title>Node3</title>
<g id="a_node3"><a xlink:title=" ">
<polygon fill="none" stroke="#bfbfbf" points="672,-67.5 672,-86.5 716,-86.5 716,-67.5 672,-67.5"/>
<text text-anchor="middle" x="694" y="-74.5" font-family="Helvetica,sans-Serif" font-size="10.00">string</text>
</a>
</g>
</g>
<!-- Node1&#45;&gt;Node3 -->
<g id="edge2" class="edge">
<title>Node1&#45;&gt;Node3</title>
<path fill="none" stroke="midnightblue" d="M766.22,-305.24C905.85,-294.72 1150.67,-266.87 1203,-199 1222.83,-173.29 1189.81,-134.66 1172,-123 1134.82,-98.67 827.95,-83.65 726.45,-79.31"/>
<polygon fill="midnightblue" stroke="midnightblue" points="726.34,-75.8 716.2,-78.88 726.04,-82.8 726.34,-75.8"/>
</g>
<!-- Node4 -->
<g id="node4" class="node">
<title>Node4</title>
<g id="a_node4"><a xlink:title=" ">
<polygon fill="none" stroke="#bfbfbf" points="914.5,-123.5 914.5,-142.5 987.5,-142.5 987.5,-123.5 914.5,-123.5"/>
<text text-anchor="middle" x="951" y="-130.5" font-family="Helvetica,sans-Serif" font-size="10.00">string_view</text>
</a>
</g>
</g>
<!-- Node1&#45;&gt;Node4 -->
<g id="edge3" class="edge">
<title>Node1&#45;&gt;Node4</title>
<path fill="none" stroke="midnightblue" d="M766,-305.49C824.33,-299.02 898.35,-285.05 958,-255 996.68,-235.51 1039.5,-217.15 1019,-179 1011.38,-164.82 997.1,-154.35 983.59,-147.1"/>
<polygon fill="midnightblue" stroke="midnightblue" points="984.97,-143.88 974.45,-142.59 981.87,-150.16 984.97,-143.88"/>
</g>
<!-- Node5 -->
<g id="node5" class="node">
<title>Node5</title>
<g id="a_node5"><a xlink:title=" ">
<polygon fill="none" stroke="#bfbfbf" points="532.5,-123.5 532.5,-142.5 577.5,-142.5 577.5,-123.5 532.5,-123.5"/>
<text text-anchor="middle" x="555" y="-130.5" font-family="Helvetica,sans-Serif" font-size="10.00">utility</text>
</a>
</g>
</g>
<!-- Node1&#45;&gt;Node5 -->
<g id="edge4" class="edge">
<title>Node1&#45;&gt;Node5</title>
<path fill="none" stroke="midnightblue" d="M670.34,-291.42C672.59,-263.63 672.62,-212.4 648,-179 633.46,-159.27 607.94,-147.78 587.31,-141.36"/>
<polygon fill="midnightblue" stroke="midnightblue" points="588.23,-137.98 577.65,-138.6 586.3,-144.71 588.23,-137.98"/>
</g>
<!-- Node6 -->
<g id="node6" class="node">
<title>Node6</title>
<g id="a_node6"><a xlink:title=" ">
<polygon fill="none" stroke="#bfbfbf" points="772.5,-179.5 772.5,-198.5 819.5,-198.5 819.5,-179.5 772.5,-179.5"/>
<text text-anchor="middle" x="796" y="-186.5" font-family="Helvetica,sans-Serif" font-size="10.00">vector</text>
</a>
</g>
</g>
<!-- Node1&#45;&gt;Node6 -->
<g id="edge5" class="edge">
<title>Node1&#45;&gt;Node6</title>
<path fill="none" stroke="midnightblue" d="M708.66,-291.29C725.28,-281.89 743.88,-269.51 758,-255 771.22,-241.41 781.66,-222.36 788.22,-208.39"/>
<polygon fill="midnightblue" stroke="midnightblue" points="791.59,-209.44 792.47,-198.88 785.2,-206.58 791.59,-209.44"/>
</g>
<!-- Node7 -->
<g id="node7" class="node">
<title>Node7</title>
<g id="a_node7"><a xlink:href="ErrorHandling_8h.html" target="_top" xlink:title=" ">
<polygon fill="none" stroke="black" points="178.5,-123.5 178.5,-142.5 339.5,-142.5 339.5,-123.5 178.5,-123.5"/>
<text text-anchor="middle" x="259" y="-130.5" font-family="Helvetica,sans-Serif" font-size="10.00">open62541pp/ErrorHandling.h</text>
</a>
</g>
</g>
<!-- Node1&#45;&gt;Node7 -->
<g id="edge6" class="edge">
<title>Node1&#45;&gt;Node7</title>
<path fill="none" stroke="midnightblue" d="M569.63,-308.16C472.54,-303.32 333,-290.26 293,-255 263.5,-228.99 258.68,-179.62 258.42,-152.68"/>
<polygon fill="midnightblue" stroke="midnightblue" points="261.92,-152.68 258.53,-142.64 254.92,-152.6 261.92,-152.68"/>
</g>
<!-- Node13 -->
<g id="node13" class="node">
<title>Node13</title>
<g id="a_node13"><a xlink:href="NodeId_8h.html" target="_top" xlink:title=" ">
<polygon fill="none" stroke="black" points="510.5,-235.5 510.5,-254.5 639.5,-254.5 639.5,-235.5 510.5,-235.5"/>
<text text-anchor="middle" x="575" y="-242.5" font-family="Helvetica,sans-Serif" font-size="10.00">open62541pp/NodeId.h</text>
</a>
</g>
</g>
<!-- Node1&#45;&gt;Node13 -->
<g id="edge13" class="edge">
<title>Node1&#45;&gt;Node13</title>
<path fill="none" stroke="midnightblue" d="M640.1,-291.5C625.84,-281.53 608.79,-269.61 595.71,-260.48"/>
<polygon fill="midnightblue" stroke="midnightblue" points="597.58,-257.51 587.38,-254.65 593.57,-263.25 597.58,-257.51"/>
</g>
<!-- Node15 -->
<g id="node15" class="node">
<title>Node15</title>
<g id="a_node15"><a xlink:href="TypeWrapper_8h.html" target="_top" xlink:title=" ">
<polygon fill="none" stroke="black" points="374,-179.5 374,-198.5 532,-198.5 532,-179.5 374,-179.5"/>
<text text-anchor="middle" x="453" y="-186.5" font-family="Helvetica,sans-Serif" font-size="10.00">open62541pp/TypeWrapper.h</text>
</a>
</g>
</g>
<!-- Node1&#45;&gt;Node15 -->
<g id="edge38" class="edge">
<title>Node1&#45;&gt;Node15</title>
<path fill="none" stroke="midnightblue" d="M576.91,-291.47C550.8,-283.05 523.38,-271.28 501,-255 484.04,-242.66 470.52,-222.56 462.21,-207.98"/>
<polygon fill="midnightblue" stroke="midnightblue" points="465.14,-206.05 457.3,-198.93 458.99,-209.39 465.14,-206.05"/>
</g>
<!-- Node18 -->
<g id="node18" class="node">
<title>Node18</title>
<g id="a_node18"><a xlink:href="Types_8h.html" target="_top" xlink:title=" ">
<polygon fill="none" stroke="black" points="0,-123.5 0,-142.5 122,-142.5 122,-123.5 0,-123.5"/>
<text text-anchor="middle" x="61" y="-130.5" font-family="Helvetica,sans-Serif" font-size="10.00">open62541pp/Types.h</text>
</a>
</g>
</g>
<!-- Node1&#45;&gt;Node18 -->
<g id="edge39" class="edge">
<title>Node1&#45;&gt;Node18</title>
<path fill="none" stroke="midnightblue" d="M569.7,-307.23C488.52,-301.72 371.26,-288.2 274,-255 197.56,-228.91 117.32,-174.94 80.98,-148.81"/>
<polygon fill="midnightblue" stroke="midnightblue" points="82.86,-145.86 72.71,-142.81 78.74,-151.52 82.86,-145.86"/>
</g>
<!-- Node19 -->
<g id="node19" class="node">
<title>Node19</title>
<g id="a_node19"><a xlink:href="Server_8h.html" target="_top" xlink:title=" ">
<polygon fill="none" stroke="black" points="823.5,-235.5 823.5,-254.5 948.5,-254.5 948.5,-235.5 823.5,-235.5"/>
<text text-anchor="middle" x="886" y="-242.5" font-family="Helvetica,sans-Serif" font-size="10.00">open62541pp/Server.h</text>
</a>
</g>
</g>
<!-- Node1&#45;&gt;Node19 -->
<g id="edge29" class="edge">
<title>Node1&#45;&gt;Node19</title>
<path fill="none" stroke="midnightblue" d="M733.41,-291.5C770.64,-280.4 816,-266.87 847.54,-257.47"/>
<polygon fill="midnightblue" stroke="midnightblue" points="848.68,-260.78 857.27,-254.57 846.68,-254.07 848.68,-260.78"/>
</g>
<!-- Node23 -->
<g id="node23" class="node">
<title>Node23</title>
<g id="a_node23"><a xlink:href="Variant_8h.html" target="_top" xlink:title=" ">
<polygon fill="none" stroke="black" points="302.5,-235.5 302.5,-254.5 431.5,-254.5 431.5,-235.5 302.5,-235.5"/>
<text text-anchor="middle" x="367" y="-242.5" font-family="Helvetica,sans-Serif" font-size="10.00">open62541pp/Variant.h</text>
</a>
</g>
</g>
<!-- Node1&#45;&gt;Node23 -->
<g id="edge40" class="edge">
<title>Node1&#45;&gt;Node23</title>
<path fill="none" stroke="midnightblue" d="M577.69,-291.5C524.84,-280.08 460.12,-266.11 416.47,-256.68"/>
<polygon fill="midnightblue" stroke="midnightblue" points="417.19,-253.26 406.67,-254.57 415.71,-260.1 417.19,-253.26"/>
</g>
<!-- Node7&#45;&gt;Node3 -->
<g id="edge8" class="edge">
<title>Node7&#45;&gt;Node3</title>
<path fill="none" stroke="midnightblue" d="M327.93,-123.44C423.18,-111.62 591.24,-90.76 661.6,-82.02"/>
<polygon fill="midnightblue" stroke="midnightblue" points="662.15,-85.48 671.64,-80.78 661.28,-78.53 662.15,-85.48"/>
</g>
<!-- Node8 -->
<g id="node8" class="node">
<title>Node8</title>
<g id="a_node8"><a xlink:title=" ">
<polygon fill="none" stroke="#bfbfbf" points="218.5,-67.5 218.5,-86.5 283.5,-86.5 283.5,-67.5 218.5,-67.5"/>
<text text-anchor="middle" x="251" y="-74.5" font-family="Helvetica,sans-Serif" font-size="10.00">stdexcept</text>
</a>
</g>
</g>
<!-- Node7&#45;&gt;Node8 -->
<g id="edge7" class="edge">
<title>Node7&#45;&gt;Node8</title>
<path fill="none" stroke="midnightblue" d="M257.68,-123.08C256.62,-115.93 255.09,-105.64 253.77,-96.69"/>
<polygon fill="midnightblue" stroke="midnightblue" points="257.22,-96.13 252.3,-86.75 250.3,-97.16 257.22,-96.13"/>
</g>
<!-- Node9 -->
<g id="node9" class="node">
<title>Node9</title>
<g id="a_node9"><a xlink:href="open62541_8h.html" target="_top" xlink:title=" ">
<polygon fill="none" stroke="black" points="301.5,-67.5 301.5,-86.5 450.5,-86.5 450.5,-67.5 301.5,-67.5"/>
<text text-anchor="middle" x="376" y="-74.5" font-family="Helvetica,sans-Serif" font-size="10.00">open62541pp/open62541.h</text>
</a>
</g>
</g>
<!-- Node7&#45;&gt;Node9 -->
<g id="edge9" class="edge">
<title>Node7&#45;&gt;Node9</title>
<path fill="none" stroke="midnightblue" d="M277.54,-123.44C296.62,-114.64 326.57,-100.81 348.44,-90.72"/>
<polygon fill="midnightblue" stroke="midnightblue" points="349.93,-93.88 357.55,-86.52 347,-87.53 349.93,-93.88"/>
</g>
<!-- Node10 -->
<g id="node10" class="node">
<title>Node10</title>
<g id="a_node10"><a xlink:href="open62541/nodeids_8h.html.html" xlink:title=" ">
<polygon fill="none" stroke="black" points="181.5,-6 181.5,-25 302.5,-25 302.5,-6 181.5,-6"/>
<text text-anchor="middle" x="242" y="-13" font-family="Helvetica,sans-Serif" font-size="10.00">open62541/nodeids.h</text>
</a>
</g>
</g>
<!-- Node9&#45;&gt;Node10 -->
<g id="edge10" class="edge">
<title>Node9&#45;&gt;Node10</title>
<path fill="none" stroke="midnightblue" d="M356.8,-67.48C334.21,-57.45 296.5,-40.7 270.5,-29.15"/>
<polygon fill="midnightblue" stroke="midnightblue" points="271.72,-25.87 261.16,-25.01 268.88,-32.27 271.72,-25.87"/>
</g>
<!-- Node11 -->
<g id="node11" class="node">
<title>Node11</title>
<g id="a_node11"><a xlink:href="open62541/types_8h.html.html" xlink:title=" ">
<polygon fill="none" stroke="black" points="321,-6 321,-25 431,-25 431,-6 321,-6"/>
<text text-anchor="middle" x="376" y="-13" font-family="Helvetica,sans-Serif" font-size="10.00">open62541/types.h</text>
</a>
</g>
</g>
<!-- Node9&#45;&gt;Node11 -->
<g id="edge11" class="edge">
<title>Node9&#45;&gt;Node11</title>
<path fill="none" stroke="midnightblue" d="M376,-67.48C376,-59.08 376,-45.98 376,-35.16"/>
<polygon fill="midnightblue" stroke="midnightblue" points="379.5,-35.01 376,-25.01 372.5,-35.01 379.5,-35.01"/>
</g>
<!-- Node12 -->
<g id="node12" class="node">
<title>Node12</title>
<g id="a_node12"><a xlink:href="open62541/types__generated__handling_8h.html.html" xlink:title=" ">
<polygon fill="none" stroke="black" points="449.5,-0.5 449.5,-30.5 604.5,-30.5 604.5,-0.5 449.5,-0.5"/>
<text text-anchor="start" x="457.5" y="-18.5" font-family="Helvetica,sans-Serif" font-size="10.00">open62541/types_generated</text>
<text text-anchor="middle" x="527" y="-7.5" font-family="Helvetica,sans-Serif" font-size="10.00">_handling.h</text>
</a>
</g>
</g>
<!-- Node9&#45;&gt;Node12 -->
<g id="edge12" class="edge">
<title>Node9&#45;&gt;Node12</title>
<path fill="none" stroke="midnightblue" d="M397.63,-67.48C419.52,-58.85 454,-45.26 481.86,-34.29"/>
<polygon fill="midnightblue" stroke="midnightblue" points="483.39,-37.45 491.41,-30.52 480.83,-30.93 483.39,-37.45"/>
</g>
<!-- Node13&#45;&gt;Node4 -->
<g id="edge14" class="edge">
<title>Node13&#45;&gt;Node4</title>
<path fill="none" stroke="midnightblue" d="M597.47,-235.49C632.65,-222.35 703.04,-196.77 764,-179 811.38,-165.19 866.38,-152.32 904.41,-143.92"/>
<polygon fill="midnightblue" stroke="midnightblue" points="905.16,-147.34 914.18,-141.77 903.66,-140.5 905.16,-147.34"/>
</g>
<!-- Node13&#45;&gt;Node9 -->
<g id="edge28" class="edge">
<title>Node13&#45;&gt;Node9</title>
<path fill="none" stroke="midnightblue" d="M575.18,-235.13C575.52,-222.59 576.46,-198.96 579,-179 581.06,-162.83 584.44,-159.22 586,-143 586.85,-134.15 591.59,-129.91 586,-123 570.07,-103.29 511.84,-91.83 460.73,-85.4"/>
<polygon fill="midnightblue" stroke="midnightblue" points="460.97,-81.91 450.62,-84.19 460.13,-88.86 460.97,-81.91"/>
</g>
<!-- Node14 -->
<g id="node14" class="node">
<title>Node14</title>
<g id="a_node14"><a xlink:title=" ">
<polygon fill="none" stroke="#bfbfbf" points="588.5,-179.5 588.5,-198.5 639.5,-198.5 639.5,-179.5 588.5,-179.5"/>
<text text-anchor="middle" x="614" y="-186.5" font-family="Helvetica,sans-Serif" font-size="10.00">variant</text>
</a>
</g>
</g>
<!-- Node13&#45;&gt;Node14 -->
<g id="edge15" class="edge">
<title>Node13&#45;&gt;Node14</title>
<path fill="none" stroke="midnightblue" d="M581.44,-235.08C586.95,-227.46 595.03,-216.26 601.76,-206.94"/>
<polygon fill="midnightblue" stroke="midnightblue" points="604.66,-208.91 607.68,-198.75 598.99,-204.81 604.66,-208.91"/>
</g>
<!-- Node13&#45;&gt;Node15 -->
<g id="edge16" class="edge">
<title>Node13&#45;&gt;Node15</title>
<path fill="none" stroke="midnightblue" d="M555.67,-235.44C535.68,-226.6 504.26,-212.69 481.44,-202.59"/>
<polygon fill="midnightblue" stroke="midnightblue" points="482.8,-199.36 472.24,-198.52 479.97,-205.76 482.8,-199.36"/>
</g>
<!-- Node15&#45;&gt;Node2 -->
<g id="edge18" class="edge">
<title>Node15&#45;&gt;Node2</title>
<path fill="none" stroke="midnightblue" d="M499.11,-179.44C557.41,-168.63 656.47,-150.24 708.96,-140.5"/>
<polygon fill="midnightblue" stroke="midnightblue" points="709.61,-143.94 718.81,-138.67 708.34,-137.06 709.61,-143.94"/>
</g>
<!-- Node15&#45;&gt;Node3 -->
<g id="edge19" class="edge">
<title>Node15&#45;&gt;Node3</title>
<path fill="none" stroke="midnightblue" d="M459.78,-179.41C471.27,-165.44 495.97,-137.87 523,-123 567.49,-98.53 625.87,-86.9 661.62,-81.73"/>
<polygon fill="midnightblue" stroke="midnightblue" points="662.51,-85.14 671.95,-80.32 661.57,-78.2 662.51,-85.14"/>
</g>
<!-- Node15&#45;&gt;Node4 -->
<g id="edge20" class="edge">
<title>Node15&#45;&gt;Node4</title>
<path fill="none" stroke="midnightblue" d="M531.63,-179.47C636.49,-168.1 818.76,-148.34 904.24,-139.07"/>
<polygon fill="midnightblue" stroke="midnightblue" points="904.85,-142.52 914.41,-137.97 904.1,-135.57 904.85,-142.52"/>
</g>
<!-- Node15&#45;&gt;Node5 -->
<g id="edge22" class="edge">
<title>Node15&#45;&gt;Node5</title>
<path fill="none" stroke="midnightblue" d="M469.39,-179.32C485.67,-170.7 510.87,-157.36 529.72,-147.39"/>
<polygon fill="midnightblue" stroke="midnightblue" points="531.45,-150.43 538.65,-142.65 528.18,-144.24 531.45,-150.43"/>
</g>
<!-- Node15&#45;&gt;Node7 -->
<g id="edge23" class="edge">
<title>Node15&#45;&gt;Node7</title>
<path fill="none" stroke="midnightblue" d="M422.26,-179.44C389.06,-170.2 336.01,-155.44 299.44,-145.26"/>
<polygon fill="midnightblue" stroke="midnightblue" points="300.17,-141.83 289.6,-142.52 298.29,-148.57 300.17,-141.83"/>
</g>
<!-- Node15&#45;&gt;Node9 -->
<g id="edge27" class="edge">
<title>Node15&#45;&gt;Node9</title>
<path fill="none" stroke="midnightblue" d="M446.96,-179.37C434.25,-161.22 404.56,-118.8 387.89,-94.99"/>
<polygon fill="midnightblue" stroke="midnightblue" points="390.62,-92.78 382.01,-86.59 384.88,-96.79 390.62,-92.78"/>
</g>
<!-- Node16 -->
<g id="node16" class="node">
<title>Node16</title>
<g id="a_node16"><a xlink:title=" ">
<polygon fill="none" stroke="#bfbfbf" points="434,-123.5 434,-142.5 476,-142.5 476,-123.5 434,-123.5"/>
<text text-anchor="middle" x="455" y="-130.5" font-family="Helvetica,sans-Serif" font-size="10.00">array</text>
</a>
</g>
</g>
<!-- Node15&#45;&gt;Node16 -->
<g id="edge17" class="edge">
<title>Node15&#45;&gt;Node16</title>
<path fill="none" stroke="midnightblue" d="M453.33,-179.08C453.59,-172.01 453.97,-161.86 454.3,-152.99"/>
<polygon fill="midnightblue" stroke="midnightblue" points="457.8,-152.87 454.68,-142.75 450.81,-152.61 457.8,-152.87"/>
</g>
<!-- Node17 -->
<g id="node17" class="node">
<title>Node17</title>
<g id="a_node17"><a xlink:title=" ">
<polygon fill="none" stroke="#bfbfbf" points="71.5,-67.5 71.5,-86.5 140.5,-86.5 140.5,-67.5 71.5,-67.5"/>
<text text-anchor="middle" x="106" y="-74.5" font-family="Helvetica,sans-Serif" font-size="10.00">type_traits</text>
</a>
</g>
</g>
<!-- Node15&#45;&gt;Node17 -->
<g id="edge21" class="edge">
<title>Node15&#45;&gt;Node17</title>
<path fill="none" stroke="midnightblue" d="M373.69,-181.09C302.4,-173.86 203.72,-161.04 169,-143 147.52,-131.84 129.08,-110.58 117.8,-95.41"/>
<polygon fill="midnightblue" stroke="midnightblue" points="120.39,-93.01 111.74,-86.9 114.69,-97.08 120.39,-93.01"/>
</g>
<!-- Node15&#45;&gt;Node18 -->
<g id="edge24" class="edge">
<title>Node15&#45;&gt;Node18</title>
<path fill="none" stroke="midnightblue" d="M390.89,-179.44C320.58,-169.76 206.24,-154.01 132.33,-143.83"/>
<polygon fill="midnightblue" stroke="midnightblue" points="132.56,-140.33 122.18,-142.43 131.61,-147.26 132.56,-140.33"/>
</g>
<!-- Node18&#45;&gt;Node9 -->
<g id="edge26" class="edge">
<title>Node18&#45;&gt;Node9</title>
<path fill="none" stroke="midnightblue" d="M110.91,-123.44C166.67,-113.89 256.89,-98.42 316.33,-88.23"/>
<polygon fill="midnightblue" stroke="midnightblue" points="317.06,-91.66 326.32,-86.52 315.87,-84.76 317.06,-91.66"/>
</g>
<!-- Node18&#45;&gt;Node17 -->
<g id="edge25" class="edge">
<title>Node18&#45;&gt;Node17</title>
<path fill="none" stroke="midnightblue" d="M68.43,-123.08C74.85,-115.38 84.31,-104.03 92.12,-94.65"/>
<polygon fill="midnightblue" stroke="midnightblue" points="94.99,-96.67 98.71,-86.75 89.62,-92.19 94.99,-96.67"/>
</g>
<!-- Node19&#45;&gt;Node2 -->
<g id="edge30" class="edge">
<title>Node19&#45;&gt;Node2</title>
<path fill="none" stroke="midnightblue" d="M879.84,-235.09C870.2,-221.65 850.43,-195.94 829,-179 812.47,-165.93 791.57,-154.81 774.64,-146.89"/>
<polygon fill="midnightblue" stroke="midnightblue" points="775.74,-143.55 765.19,-142.61 772.85,-149.92 775.74,-143.55"/>
</g>
<!-- Node19&#45;&gt;Node3 -->
<g id="edge32" class="edge">
<title>Node19&#45;&gt;Node3</title>
<path fill="none" stroke="midnightblue" d="M883.04,-235.26C878.25,-222.04 867.83,-196.62 853,-179 817.58,-136.92 760.07,-106.54 724.79,-90.64"/>
<polygon fill="midnightblue" stroke="midnightblue" points="726.03,-87.37 715.46,-86.55 723.21,-93.77 726.03,-87.37"/>
</g>
<!-- Node19&#45;&gt;Node4 -->
<g id="edge33" class="edge">
<title>Node19&#45;&gt;Node4</title>
<path fill="none" stroke="midnightblue" d="M891.1,-235.37C901.78,-217.3 926.67,-175.18 940.77,-151.31"/>
<polygon fill="midnightblue" stroke="midnightblue" points="943.85,-152.98 945.92,-142.59 937.82,-149.42 943.85,-152.98"/>
</g>
<!-- Node19&#45;&gt;Node6 -->
<g id="edge34" class="edge">
<title>Node19&#45;&gt;Node6</title>
<path fill="none" stroke="midnightblue" d="M871.54,-235.32C857.5,-226.9 835.95,-213.97 819.46,-204.07"/>
<polygon fill="midnightblue" stroke="midnightblue" points="820.8,-200.8 810.42,-198.65 817.2,-206.8 820.8,-200.8"/>
</g>
<!-- Node20 -->
<g id="node20" class="node">
<title>Node20</title>
<g id="a_node20"><a xlink:title=" ">
<polygon fill="none" stroke="#bfbfbf" points="952,-179.5 952,-198.5 1010,-198.5 1010,-179.5 952,-179.5"/>
<text text-anchor="middle" x="981" y="-186.5" font-family="Helvetica,sans-Serif" font-size="10.00">memory</text>
</a>
</g>
</g>
<!-- Node19&#45;&gt;Node20 -->
<g id="edge31" class="edge">
<title>Node19&#45;&gt;Node20</title>
<path fill="none" stroke="midnightblue" d="M901.26,-235.32C916.22,-226.82 939.25,-213.73 956.73,-203.8"/>
<polygon fill="midnightblue" stroke="midnightblue" points="958.81,-206.64 965.77,-198.65 955.35,-200.55 958.81,-206.64"/>
</g>
<!-- Node21 -->
<g id="node21" class="node">
<title>Node21</title>
<g id="a_node21"><a xlink:href="Logger_8h.html" target="_top" xlink:title=" ">
<polygon fill="none" stroke="black" points="1066.5,-179.5 1066.5,-198.5 1193.5,-198.5 1193.5,-179.5 1066.5,-179.5"/>
<text text-anchor="middle" x="1130" y="-186.5" font-family="Helvetica,sans-Serif" font-size="10.00">open62541pp/Logger.h</text>
</a>
</g>
</g>
<!-- Node19&#45;&gt;Node21 -->
<g id="edge35" class="edge">
<title>Node19&#45;&gt;Node21</title>
<path fill="none" stroke="midnightblue" d="M924.66,-235.44C967.14,-226.04 1035.43,-210.93 1081.47,-200.74"/>
<polygon fill="midnightblue" stroke="midnightblue" points="1082.51,-204.09 1091.52,-198.52 1081,-197.26 1082.51,-204.09"/>
</g>
<!-- Node21&#45;&gt;Node4 -->
<g id="edge37" class="edge">
<title>Node21&#45;&gt;Node4</title>
<path fill="none" stroke="midnightblue" d="M1101.64,-179.44C1071.26,-170.28 1022.89,-155.69 989.18,-145.52"/>
<polygon fill="midnightblue" stroke="midnightblue" points="989.82,-142.05 979.23,-142.52 987.79,-148.76 989.82,-142.05"/>
</g>
<!-- Node22 -->
<g id="node22" class="node">
<title>Node22</title>
<g id="a_node22"><a xlink:title=" ">
<polygon fill="none" stroke="#bfbfbf" points="1097.5,-123.5 1097.5,-142.5 1162.5,-142.5 1162.5,-123.5 1097.5,-123.5"/>
<text text-anchor="middle" x="1130" y="-130.5" font-family="Helvetica,sans-Serif" font-size="10.00">functional</text>
</a>
</g>
</g>
<!-- Node21&#45;&gt;Node22 -->
<g id="edge36" class="edge">
<title>Node21&#45;&gt;Node22</title>
<path fill="none" stroke="midnightblue" d="M1130,-179.08C1130,-172.01 1130,-161.86 1130,-152.99"/>
<polygon fill="midnightblue" stroke="midnightblue" points="1133.5,-152.75 1130,-142.75 1126.5,-152.75 1133.5,-152.75"/>
</g>
<!-- Node23&#45;&gt;Node6 -->
<g id="edge41" class="edge">
<title>Node23&#45;&gt;Node6</title>
<path fill="none" stroke="midnightblue" d="M431.69,-235.86C524.09,-224.23 690.56,-203.27 761.96,-194.28"/>
<polygon fill="midnightblue" stroke="midnightblue" points="762.7,-197.72 772.19,-193 761.83,-190.77 762.7,-197.72"/>
</g>
<!-- Node23&#45;&gt;Node7 -->
<g id="edge42" class="edge">
<title>Node23&#45;&gt;Node7</title>
<path fill="none" stroke="midnightblue" d="M358.53,-235.37C340.39,-216.89 297.58,-173.29 274.46,-149.74"/>
<polygon fill="midnightblue" stroke="midnightblue" points="276.94,-147.28 267.44,-142.59 271.94,-152.18 276.94,-147.28"/>
</g>
<!-- Node23&#45;&gt;Node9 -->
<g id="edge45" class="edge">
<title>Node23&#45;&gt;Node9</title>
<path fill="none" stroke="midnightblue" d="M366.5,-235.38C366.01,-226.32 365.28,-211.67 365,-199 364.8,-190.11 364.52,-187.88 365,-179 366.57,-150.16 370.63,-116.88 373.36,-96.65"/>
<polygon fill="midnightblue" stroke="midnightblue" points="376.84,-97.01 374.74,-86.62 369.91,-96.05 376.84,-97.01"/>
</g>
<!-- Node23&#45;&gt;Node15 -->
<g id="edge43" class="edge">
<title>Node23&#45;&gt;Node15</title>
<path fill="none" stroke="midnightblue" d="M380.82,-235.32C394.23,-226.9 414.82,-213.97 430.59,-204.07"/>
<polygon fill="midnightblue" stroke="midnightblue" points="432.61,-206.94 439.22,-198.65 428.89,-201.01 432.61,-206.94"/>
</g>
<!-- Node23&#45;&gt;Node18 -->
<g id="edge44" class="edge">
<title>Node23&#45;&gt;Node18</title>
<path fill="none" stroke="midnightblue" d="M343.24,-235.46C289.24,-216.05 157.12,-168.55 94.7,-146.12"/>
<polygon fill="midnightblue" stroke="midnightblue" points="95.55,-142.7 84.95,-142.61 93.18,-149.29 95.55,-142.7"/>
</g>
</g>
</svg>
