<?xml version="1.0" encoding="UTF-8" standalone="no"?>
<!DOCTYPE svg PUBLIC "-//W3C//DTD SVG 1.1//EN"
 "http://www.w3.org/Graphics/SVG/1.1/DTD/svg11.dtd">
<!-- Generated by graphviz version 2.43.0 (0)
 -->
<!-- Title: /home/runner/work/open62541pp/open62541pp/include/open62541pp/Node.h Pages: 1 -->
<svg width="1243pt" height="341pt"
 viewBox="0.00 0.00 1243.15 341.00" xmlns="http://www.w3.org/2000/svg" xmlns:xlink="http://www.w3.org/1999/xlink">
<g id="graph0" class="graph" transform="scale(1 1) rotate(0) translate(4 337)">
<title>/home/runner/work/open62541pp/open62541pp/include/open62541pp/Node.h</title>
<!-- Node1 -->
<g id="node1" class="node">
<title>Node1</title>
<g id="a_node1"><a xlink:title=" ">
<polygon fill="#bfbfbf" stroke="black" points="555.48,-291.5 555.48,-332.5 751.48,-332.5 751.48,-291.5 555.48,-291.5"/>
<text text-anchor="start" x="563.48" y="-320.5" font-family="Helvetica,sans-Serif" font-size="10.00">/home/runner/work/open62541pp</text>
<text text-anchor="start" x="563.48" y="-309.5" font-family="Helvetica,sans-Serif" font-size="10.00">/open62541pp/include/open62541pp/</text>
<text text-anchor="middle" x="653.48" y="-298.5" font-family="Helvetica,sans-Serif" font-size="10.00">Node.h</text>
</a>
</g>
</g>
<!-- Node2 -->
<g id="node2" class="node">
<title>Node2</title>
<g id="a_node2"><a xlink:title=" ">
<polygon fill="none" stroke="#bfbfbf" points="152.48,-67.5 152.48,-86.5 196.48,-86.5 196.48,-67.5 152.48,-67.5"/>
<text text-anchor="middle" x="174.48" y="-74.5" font-family="Helvetica,sans-Serif" font-size="10.00">string</text>
</a>
</g>
</g>
<!-- Node1&#45;&gt;Node2 -->
<g id="edge1" class="edge">
<title>Node1&#45;&gt;Node2</title>
<path fill="none" stroke="midnightblue" d="M555.12,-311.37C459.61,-308.91 311.84,-297.56 191.48,-255 103,-223.72 57.95,-225.09 12.48,-143 -28.05,-69.84 38.57,-112.65 142.62,-87.04"/>
<polygon fill="midnightblue" stroke="midnightblue" points="143.7,-90.37 152.48,-84.43 141.91,-83.6 143.7,-90.37"/>
</g>
<!-- Node3 -->
<g id="node3" class="node">
<title>Node3</title>
<g id="a_node3"><a xlink:title=" ">
<polygon fill="none" stroke="#bfbfbf" points="919.98,-67.5 919.98,-86.5 992.98,-86.5 992.98,-67.5 919.98,-67.5"/>
<text text-anchor="middle" x="956.48" y="-74.5" font-family="Helvetica,sans-Serif" font-size="10.00">string_view</text>
</a>
</g>
</g>
<!-- Node1&#45;&gt;Node3 -->
<g id="edge2" class="edge">
<title>Node1&#45;&gt;Node3</title>
<path fill="none" stroke="midnightblue" d="M751.67,-303.68C892.73,-291.13 1142.81,-260.68 1206.48,-199 1231.34,-174.92 1245.83,-149.43 1223.48,-123 1195.8,-90.27 1072.04,-81.33 1003.15,-78.9"/>
<polygon fill="midnightblue" stroke="midnightblue" points="1003.1,-75.4 992.99,-78.58 1002.88,-82.4 1003.1,-75.4"/>
</g>
<!-- Node4 -->
<g id="node4" class="node">
<title>Node4</title>
<g id="a_node4"><a xlink:title=" ">
<polygon fill="none" stroke="#bfbfbf" points="804.98,-179.5 804.98,-198.5 851.98,-198.5 851.98,-179.5 804.98,-179.5"/>
<text text-anchor="middle" x="828.48" y="-186.5" font-family="Helvetica,sans-Serif" font-size="10.00">vector</text>
</a>
</g>
</g>
<!-- Node1&#45;&gt;Node4 -->
<g id="edge3" class="edge">
<title>Node1&#45;&gt;Node4</title>
<path fill="none" stroke="midnightblue" d="M681.99,-291.29C717.25,-266.91 776.43,-225.99 807.69,-204.38"/>
<polygon fill="midnightblue" stroke="midnightblue" points="809.84,-207.14 816.08,-198.57 805.86,-201.38 809.84,-207.14"/>
</g>
<!-- Node5 -->
<g id="node5" class="node">
<title>Node5</title>
<g id="a_node5"><a xlink:href="ErrorHandling_8h.html" target="_top" xlink:title=" ">
<polygon fill="none" stroke="black" points="21.98,-123.5 21.98,-142.5 182.98,-142.5 182.98,-123.5 21.98,-123.5"/>
<text text-anchor="middle" x="102.48" y="-130.5" font-family="Helvetica,sans-Serif" font-size="10.00">open62541pp/ErrorHandling.h</text>
</a>
</g>
</g>
<!-- Node1&#45;&gt;Node5 -->
<g id="edge4" class="edge">
<title>Node1&#45;&gt;Node5</title>
<path fill="none" stroke="midnightblue" d="M555.45,-301.99C420.21,-287.66 186,-255.36 123.48,-199 110.43,-187.23 105.45,-167.3 103.57,-152.6"/>
<polygon fill="midnightblue" stroke="midnightblue" points="107.05,-152.25 102.66,-142.61 100.08,-152.89 107.05,-152.25"/>
</g>
<!-- Node11 -->
<g id="node11" class="node">
<title>Node11</title>
<g id="a_node11"><a xlink:href="NodeId_8h.html" target="_top" xlink:title=" ">
<polygon fill="none" stroke="black" points="395.98,-235.5 395.98,-254.5 524.98,-254.5 524.98,-235.5 395.98,-235.5"/>
<text text-anchor="middle" x="460.48" y="-242.5" font-family="Helvetica,sans-Serif" font-size="10.00">open62541pp/NodeId.h</text>
</a>
</g>
</g>
<!-- Node1&#45;&gt;Node11 -->
<g id="edge11" class="edge">
<title>Node1&#45;&gt;Node11</title>
<path fill="none" stroke="midnightblue" d="M595.57,-291.5C563.04,-280.54 523.5,-267.22 495.63,-257.84"/>
<polygon fill="midnightblue" stroke="midnightblue" points="496.51,-254.44 485.92,-254.57 494.28,-261.08 496.51,-254.44"/>
</g>
<!-- Node19 -->
<g id="node19" class="node">
<title>Node19</title>
<g id="a_node19"><a xlink:href="Types_8h.html" target="_top" xlink:title=" ">
<polygon fill="none" stroke="black" points="639.48,-123.5 639.48,-142.5 761.48,-142.5 761.48,-123.5 639.48,-123.5"/>
<text text-anchor="middle" x="700.48" y="-130.5" font-family="Helvetica,sans-Serif" font-size="10.00">open62541pp/Types.h</text>
</a>
</g>
</g>
<!-- Node1&#45;&gt;Node19 -->
<g id="edge38" class="edge">
<title>Node1&#45;&gt;Node19</title>
<path fill="none" stroke="midnightblue" d="M665.14,-291.41C670.89,-280.94 677.44,-267.63 681.48,-255 692.68,-220.02 697.41,-177.15 699.31,-152.97"/>
<polygon fill="midnightblue" stroke="midnightblue" points="702.82,-152.94 700.03,-142.72 695.84,-152.45 702.82,-152.94"/>
</g>
<!-- Node20 -->
<g id="node20" class="node">
<title>Node20</title>
<g id="a_node20"><a xlink:href="Server_8h.html" target="_top" xlink:title=" ">
<polygon fill="none" stroke="black" points="863.98,-235.5 863.98,-254.5 988.98,-254.5 988.98,-235.5 863.98,-235.5"/>
<text text-anchor="middle" x="926.48" y="-242.5" font-family="Helvetica,sans-Serif" font-size="10.00">open62541pp/Server.h</text>
</a>
</g>
</g>
<!-- Node1&#45;&gt;Node20 -->
<g id="edge28" class="edge">
<title>Node1&#45;&gt;Node20</title>
<path fill="none" stroke="midnightblue" d="M735.39,-291.5C782.92,-280.18 841.03,-266.34 880.61,-256.92"/>
<polygon fill="midnightblue" stroke="midnightblue" points="881.58,-260.29 890.5,-254.57 879.96,-253.48 881.58,-260.29"/>
</g>
<!-- Node25 -->
<g id="node25" class="node">
<title>Node25</title>
<g id="a_node25"><a xlink:href="Variant_8h.html" target="_top" xlink:title=" ">
<polygon fill="none" stroke="black" points="542.98,-235.5 542.98,-254.5 671.98,-254.5 671.98,-235.5 542.98,-235.5"/>
<text text-anchor="middle" x="607.48" y="-242.5" font-family="Helvetica,sans-Serif" font-size="10.00">open62541pp/Variant.h</text>
</a>
</g>
</g>
<!-- Node1&#45;&gt;Node25 -->
<g id="edge39" class="edge">
<title>Node1&#45;&gt;Node25</title>
<path fill="none" stroke="midnightblue" d="M639.68,-291.5C633.24,-282.39 625.64,-271.66 619.45,-262.91"/>
<polygon fill="midnightblue" stroke="midnightblue" points="622.24,-260.79 613.6,-254.65 616.52,-264.84 622.24,-260.79"/>
</g>
<!-- Node5&#45;&gt;Node2 -->
<g id="edge6" class="edge">
<title>Node5&#45;&gt;Node2</title>
<path fill="none" stroke="midnightblue" d="M114.05,-123.32C124.9,-115.18 141.36,-102.84 154.36,-93.09"/>
<polygon fill="midnightblue" stroke="midnightblue" points="156.8,-95.63 162.7,-86.83 152.6,-90.03 156.8,-95.63"/>
</g>
<!-- Node6 -->
<g id="node6" class="node">
<title>Node6</title>
<g id="a_node6"><a xlink:title=" ">
<polygon fill="none" stroke="#bfbfbf" points="68.98,-67.5 68.98,-86.5 133.98,-86.5 133.98,-67.5 68.98,-67.5"/>
<text text-anchor="middle" x="101.48" y="-74.5" font-family="Helvetica,sans-Serif" font-size="10.00">stdexcept</text>
</a>
</g>
</g>
<!-- Node5&#45;&gt;Node6 -->
<g id="edge5" class="edge">
<title>Node5&#45;&gt;Node6</title>
<path fill="none" stroke="midnightblue" d="M102.32,-123.08C102.18,-116.01 102,-105.86 101.83,-96.99"/>
<polygon fill="midnightblue" stroke="midnightblue" points="105.33,-96.68 101.64,-86.75 98.33,-96.81 105.33,-96.68"/>
</g>
<!-- Node7 -->
<g id="node7" class="node">
<title>Node7</title>
<g id="a_node7"><a xlink:href="open62541_8h.html" target="_top" xlink:title=" ">
<polygon fill="none" stroke="black" points="213.98,-67.5 213.98,-86.5 362.98,-86.5 362.98,-67.5 213.98,-67.5"/>
<text text-anchor="middle" x="288.48" y="-74.5" font-family="Helvetica,sans-Serif" font-size="10.00">open62541pp/open62541.h</text>
</a>
</g>
</g>
<!-- Node5&#45;&gt;Node7 -->
<g id="edge7" class="edge">
<title>Node5&#45;&gt;Node7</title>
<path fill="none" stroke="midnightblue" d="M131.95,-123.44C163.65,-114.24 214.21,-99.56 249.26,-89.39"/>
<polygon fill="midnightblue" stroke="midnightblue" points="250.52,-92.67 259.15,-86.52 248.57,-85.94 250.52,-92.67"/>
</g>
<!-- Node8 -->
<g id="node8" class="node">
<title>Node8</title>
<g id="a_node8"><a xlink:href="open62541/nodeids_8h.html.html" xlink:title=" ">
<polygon fill="none" stroke="black" points="93.98,-6 93.98,-25 214.98,-25 214.98,-6 93.98,-6"/>
<text text-anchor="middle" x="154.48" y="-13" font-family="Helvetica,sans-Serif" font-size="10.00">open62541/nodeids.h</text>
</a>
</g>
</g>
<!-- Node7&#45;&gt;Node8 -->
<g id="edge8" class="edge">
<title>Node7&#45;&gt;Node8</title>
<path fill="none" stroke="midnightblue" d="M269.28,-67.48C246.69,-57.45 208.98,-40.7 182.98,-29.15"/>
<polygon fill="midnightblue" stroke="midnightblue" points="184.2,-25.87 173.64,-25.01 181.36,-32.27 184.2,-25.87"/>
</g>
<!-- Node9 -->
<g id="node9" class="node">
<title>Node9</title>
<g id="a_node9"><a xlink:href="open62541/types_8h.html.html" xlink:title=" ">
<polygon fill="none" stroke="black" points="233.48,-6 233.48,-25 343.48,-25 343.48,-6 233.48,-6"/>
<text text-anchor="middle" x="288.48" y="-13" font-family="Helvetica,sans-Serif" font-size="10.00">open62541/types.h</text>
</a>
</g>
</g>
<!-- Node7&#45;&gt;Node9 -->
<g id="edge9" class="edge">
<title>Node7&#45;&gt;Node9</title>
<path fill="none" stroke="midnightblue" d="M288.48,-67.48C288.48,-59.08 288.48,-45.98 288.48,-35.16"/>
<polygon fill="midnightblue" stroke="midnightblue" points="291.98,-35.01 288.48,-25.01 284.98,-35.01 291.98,-35.01"/>
</g>
<!-- Node10 -->
<g id="node10" class="node">
<title>Node10</title>
<g id="a_node10"><a xlink:href="open62541/types__generated__handling_8h.html.html" xlink:title=" ">
<polygon fill="none" stroke="black" points="361.98,-0.5 361.98,-30.5 516.98,-30.5 516.98,-0.5 361.98,-0.5"/>
<text text-anchor="start" x="369.98" y="-18.5" font-family="Helvetica,sans-Serif" font-size="10.00">open62541/types_generated</text>
<text text-anchor="middle" x="439.48" y="-7.5" font-family="Helvetica,sans-Serif" font-size="10.00">_handling.h</text>
</a>
</g>
</g>
<!-- Node7&#45;&gt;Node10 -->
<g id="edge10" class="edge">
<title>Node7&#45;&gt;Node10</title>
<path fill="none" stroke="midnightblue" d="M310.12,-67.48C332,-58.85 366.48,-45.26 394.35,-34.29"/>
<polygon fill="midnightblue" stroke="midnightblue" points="395.87,-37.45 403.89,-30.52 393.31,-30.93 395.87,-37.45"/>
</g>
<!-- Node11&#45;&gt;Node3 -->
<g id="edge12" class="edge">
<title>Node11&#45;&gt;Node3</title>
<path fill="none" stroke="midnightblue" d="M487.5,-235.41C541.42,-218.22 666.17,-178.21 770.48,-143 823.81,-125 885.42,-103.29 922.64,-90.07"/>
<polygon fill="midnightblue" stroke="midnightblue" points="924.21,-93.23 932.46,-86.58 921.87,-86.63 924.21,-93.23"/>
</g>
<!-- Node11&#45;&gt;Node7 -->
<g id="edge14" class="edge">
<title>Node11&#45;&gt;Node7</title>
<path fill="none" stroke="midnightblue" d="M400.4,-235.5C371.41,-229.11 337.39,-218.05 311.48,-199 287.25,-181.18 282.32,-171.75 273.48,-143 268.65,-127.28 273.8,-108.99 279.34,-95.83"/>
<polygon fill="midnightblue" stroke="midnightblue" points="282.63,-97.06 283.68,-86.52 276.28,-94.1 282.63,-97.06"/>
</g>
<!-- Node12 -->
<g id="node12" class="node">
<title>Node12</title>
<g id="a_node12"><a xlink:title=" ">
<polygon fill="none" stroke="#bfbfbf" points="131.98,-179.5 131.98,-198.5 182.98,-198.5 182.98,-179.5 131.98,-179.5"/>
<text text-anchor="middle" x="157.48" y="-186.5" font-family="Helvetica,sans-Serif" font-size="10.00">variant</text>
</a>
</g>
</g>
<!-- Node11&#45;&gt;Node12 -->
<g id="edge13" class="edge">
<title>Node11&#45;&gt;Node12</title>
<path fill="none" stroke="midnightblue" d="M405.68,-235.47C352.37,-226.98 269.17,-213.19 197.48,-199 196.04,-198.71 194.57,-198.42 193.09,-198.11"/>
<polygon fill="midnightblue" stroke="midnightblue" points="193.77,-194.68 183.26,-196.01 192.31,-201.52 193.77,-194.68"/>
</g>
<!-- Node13 -->
<g id="node13" class="node">
<title>Node13</title>
<g id="a_node13"><a xlink:href="TypeWrapper_8h.html" target="_top" xlink:title=" ">
<polygon fill="none" stroke="black" points="445.98,-179.5 445.98,-198.5 534.98,-198.5 534.98,-179.5 445.98,-179.5"/>
<text text-anchor="middle" x="490.48" y="-186.5" font-family="Helvetica,sans-Serif" font-size="10.00">TypeWrapper.h</text>
</a>
</g>
</g>
<!-- Node11&#45;&gt;Node13 -->
<g id="edge15" class="edge">
<title>Node11&#45;&gt;Node13</title>
<path fill="none" stroke="midnightblue" d="M465.43,-235.08C469.59,-227.61 475.63,-216.72 480.75,-207.52"/>
<polygon fill="midnightblue" stroke="midnightblue" points="483.82,-209.19 485.62,-198.75 477.7,-205.79 483.82,-209.19"/>
</g>
<!-- Node13&#45;&gt;Node5 -->
<g id="edge19" class="edge">
<title>Node13&#45;&gt;Node5</title>
<path fill="none" stroke="midnightblue" d="M445.97,-181.81C379.35,-172.53 253.05,-154.96 173.57,-143.89"/>
<polygon fill="midnightblue" stroke="midnightblue" points="174.02,-140.42 163.63,-142.51 173.06,-147.36 174.02,-140.42"/>
</g>
<!-- Node14 -->
<g id="node14" class="node">
<title>Node14</title>
<g id="a_node14"><a xlink:title=" ">
<polygon fill="none" stroke="#bfbfbf" points="315.48,-123.5 315.48,-142.5 379.48,-142.5 379.48,-123.5 315.48,-123.5"/>
<text text-anchor="middle" x="347.48" y="-130.5" font-family="Helvetica,sans-Serif" font-size="10.00">algorithm</text>
</a>
</g>
</g>
<!-- Node13&#45;&gt;Node14 -->
<g id="edge16" class="edge">
<title>Node13&#45;&gt;Node14</title>
<path fill="none" stroke="midnightblue" d="M467.82,-179.44C444.08,-170.48 406.57,-156.31 379.74,-146.18"/>
<polygon fill="midnightblue" stroke="midnightblue" points="380.63,-142.77 370.03,-142.52 378.15,-149.32 380.63,-142.77"/>
</g>
<!-- Node15 -->
<g id="node15" class="node">
<title>Node15</title>
<g id="a_node15"><a xlink:title=" ">
<polygon fill="none" stroke="#bfbfbf" points="397.48,-123.5 397.48,-142.5 439.48,-142.5 439.48,-123.5 397.48,-123.5"/>
<text text-anchor="middle" x="418.48" y="-130.5" font-family="Helvetica,sans-Serif" font-size="10.00">array</text>
</a>
</g>
</g>
<!-- Node13&#45;&gt;Node15 -->
<g id="edge17" class="edge">
<title>Node13&#45;&gt;Node15</title>
<path fill="none" stroke="midnightblue" d="M478.91,-179.32C468.06,-171.18 451.6,-158.84 438.6,-149.09"/>
<polygon fill="midnightblue" stroke="midnightblue" points="440.36,-146.03 430.26,-142.83 436.16,-151.63 440.36,-146.03"/>
</g>
<!-- Node16 -->
<g id="node16" class="node">
<title>Node16</title>
<g id="a_node16"><a xlink:title=" ">
<polygon fill="none" stroke="#bfbfbf" points="665.98,-67.5 665.98,-86.5 734.98,-86.5 734.98,-67.5 665.98,-67.5"/>
<text text-anchor="middle" x="700.48" y="-74.5" font-family="Helvetica,sans-Serif" font-size="10.00">type_traits</text>
</a>
</g>
</g>
<!-- Node13&#45;&gt;Node16 -->
<g id="edge18" class="edge">
<title>Node13&#45;&gt;Node16</title>
<path fill="none" stroke="midnightblue" d="M511.95,-179.46C532.84,-170.93 565.34,-157.08 592.48,-143 623.28,-127.02 657.35,-105.9 678.83,-92.14"/>
<polygon fill="midnightblue" stroke="midnightblue" points="680.98,-94.92 687.49,-86.56 677.19,-89.04 680.98,-94.92"/>
</g>
<!-- Node17 -->
<g id="node17" class="node">
<title>Node17</title>
<g id="a_node17"><a xlink:href="Helper_8h.html" target="_top" xlink:title=" ">
<polygon fill="none" stroke="black" points="457.48,-123.5 457.48,-142.5 583.48,-142.5 583.48,-123.5 457.48,-123.5"/>
<text text-anchor="middle" x="520.48" y="-130.5" font-family="Helvetica,sans-Serif" font-size="10.00">open62541pp/Helper.h</text>
</a>
</g>
</g>
<!-- Node13&#45;&gt;Node17 -->
<g id="edge20" class="edge">
<title>Node13&#45;&gt;Node17</title>
<path fill="none" stroke="midnightblue" d="M495.43,-179.08C499.59,-171.61 505.63,-160.72 510.75,-151.52"/>
<polygon fill="midnightblue" stroke="midnightblue" points="513.82,-153.19 515.62,-142.75 507.7,-149.79 513.82,-153.19"/>
</g>
<!-- Node13&#45;&gt;Node19 -->
<g id="edge25" class="edge">
<title>Node13&#45;&gt;Node19</title>
<path fill="none" stroke="midnightblue" d="M523.76,-179.44C559.93,-170.14 617.86,-155.25 657.46,-145.06"/>
<polygon fill="midnightblue" stroke="midnightblue" points="658.55,-148.4 667.36,-142.52 656.81,-141.62 658.55,-148.4"/>
</g>
<!-- Node17&#45;&gt;Node2 -->
<g id="edge22" class="edge">
<title>Node17&#45;&gt;Node2</title>
<path fill="none" stroke="midnightblue" d="M457.35,-124.05C384.03,-114.64 266.47,-98.97 206.83,-86.98"/>
<polygon fill="midnightblue" stroke="midnightblue" points="207.24,-83.49 196.74,-84.87 205.81,-90.35 207.24,-83.49"/>
</g>
<!-- Node17&#45;&gt;Node3 -->
<g id="edge23" class="edge">
<title>Node17&#45;&gt;Node3</title>
<path fill="none" stroke="midnightblue" d="M583.88,-124.15C672.48,-113.17 831.29,-93.51 909.85,-83.78"/>
<polygon fill="midnightblue" stroke="midnightblue" points="910.44,-87.23 919.93,-82.53 909.58,-80.28 910.44,-87.23"/>
</g>
<!-- Node17&#45;&gt;Node7 -->
<g id="edge24" class="edge">
<title>Node17&#45;&gt;Node7</title>
<path fill="none" stroke="midnightblue" d="M483.72,-123.44C443.42,-114.06 378.67,-98.99 334.9,-88.8"/>
<polygon fill="midnightblue" stroke="midnightblue" points="335.6,-85.37 325.07,-86.52 334.02,-92.19 335.6,-85.37"/>
</g>
<!-- Node18 -->
<g id="node18" class="node">
<title>Node18</title>
<g id="a_node18"><a xlink:title=" ">
<polygon fill="none" stroke="#bfbfbf" points="495.48,-67.5 495.48,-86.5 545.48,-86.5 545.48,-67.5 495.48,-67.5"/>
<text text-anchor="middle" x="520.48" y="-74.5" font-family="Helvetica,sans-Serif" font-size="10.00">cstring</text>
</a>
</g>
</g>
<!-- Node17&#45;&gt;Node18 -->
<g id="edge21" class="edge">
<title>Node17&#45;&gt;Node18</title>
<path fill="none" stroke="midnightblue" d="M520.48,-123.08C520.48,-116.01 520.48,-105.86 520.48,-96.99"/>
<polygon fill="midnightblue" stroke="midnightblue" points="523.98,-96.75 520.48,-86.75 516.98,-96.75 523.98,-96.75"/>
</g>
<!-- Node19&#45;&gt;Node7 -->
<g id="edge27" class="edge">
<title>Node19&#45;&gt;Node7</title>
<path fill="none" stroke="midnightblue" d="M639.25,-123.97C565.88,-114.36 442.97,-98.25 363.84,-87.88"/>
<polygon fill="midnightblue" stroke="midnightblue" points="363.83,-84.35 353.46,-86.52 362.92,-91.29 363.83,-84.35"/>
</g>
<!-- Node19&#45;&gt;Node16 -->
<g id="edge26" class="edge">
<title>Node19&#45;&gt;Node16</title>
<path fill="none" stroke="midnightblue" d="M700.48,-123.08C700.48,-116.01 700.48,-105.86 700.48,-96.99"/>
<polygon fill="midnightblue" stroke="midnightblue" points="703.98,-96.75 700.48,-86.75 696.98,-96.75 703.98,-96.75"/>
</g>
<!-- Node20&#45;&gt;Node2 -->
<g id="edge32" class="edge">
<title>Node20&#45;&gt;Node2</title>
<path fill="none" stroke="midnightblue" d="M863.62,-240.66C750.38,-234.23 516.51,-219 437.48,-199 376.1,-183.47 364.02,-169.44 306.48,-143 269.27,-125.9 226.9,-104.73 200.42,-91.29"/>
<polygon fill="midnightblue" stroke="midnightblue" points="201.93,-88.13 191.43,-86.71 198.75,-94.36 201.93,-88.13"/>
</g>
<!-- Node20&#45;&gt;Node3 -->
<g id="edge33" class="edge">
<title>Node20&#45;&gt;Node3</title>
<path fill="none" stroke="midnightblue" d="M928.81,-235.42C931.2,-226.4 934.92,-211.77 937.48,-199 944.7,-162.98 950.83,-120.48 954.05,-96.65"/>
<polygon fill="midnightblue" stroke="midnightblue" points="957.54,-96.93 955.39,-86.55 950.6,-96 957.54,-96.93"/>
</g>
<!-- Node20&#45;&gt;Node4 -->
<g id="edge34" class="edge">
<title>Node20&#45;&gt;Node4</title>
<path fill="none" stroke="midnightblue" d="M910.74,-235.32C895.16,-226.74 871.1,-213.49 853.02,-203.52"/>
<polygon fill="midnightblue" stroke="midnightblue" points="854.63,-200.42 844.19,-198.65 851.26,-206.55 854.63,-200.42"/>
</g>
<!-- Node21 -->
<g id="node21" class="node">
<title>Node21</title>
<g id="a_node21"><a xlink:title=" ">
<polygon fill="none" stroke="#bfbfbf" points="984.48,-179.5 984.48,-198.5 1034.48,-198.5 1034.48,-179.5 984.48,-179.5"/>
<text text-anchor="middle" x="1009.48" y="-186.5" font-family="Helvetica,sans-Serif" font-size="10.00">atomic</text>
</a>
</g>
</g>
<!-- Node20&#45;&gt;Node21 -->
<g id="edge29" class="edge">
<title>Node20&#45;&gt;Node21</title>
<path fill="none" stroke="midnightblue" d="M939.82,-235.32C952.64,-226.98 972.27,-214.21 987.42,-204.35"/>
<polygon fill="midnightblue" stroke="midnightblue" points="989.71,-207.04 996.18,-198.65 985.89,-201.17 989.71,-207.04"/>
</g>
<!-- Node22 -->
<g id="node22" class="node">
<title>Node22</title>
<g id="a_node22"><a xlink:title=" ">
<polygon fill="none" stroke="#bfbfbf" points="1148.98,-123.5 1148.98,-142.5 1213.98,-142.5 1213.98,-123.5 1148.98,-123.5"/>
<text text-anchor="middle" x="1181.48" y="-130.5" font-family="Helvetica,sans-Serif" font-size="10.00">functional</text>
</a>
</g>
</g>
<!-- Node20&#45;&gt;Node22 -->
<g id="edge30" class="edge">
<title>Node20&#45;&gt;Node22</title>
<path fill="none" stroke="midnightblue" d="M989.14,-242.26C1058.65,-238.86 1164.36,-228.79 1189.48,-199 1200.33,-186.13 1195.96,-166.41 1190.34,-152.06"/>
<polygon fill="midnightblue" stroke="midnightblue" points="1193.46,-150.47 1186.22,-142.74 1187.06,-153.3 1193.46,-150.47"/>
</g>
<!-- Node23 -->
<g id="node23" class="node">
<title>Node23</title>
<g id="a_node23"><a xlink:title=" ">
<polygon fill="none" stroke="#bfbfbf" points="870.48,-179.5 870.48,-198.5 928.48,-198.5 928.48,-179.5 870.48,-179.5"/>
<text text-anchor="middle" x="899.48" y="-186.5" font-family="Helvetica,sans-Serif" font-size="10.00">memory</text>
</a>
</g>
</g>
<!-- Node20&#45;&gt;Node23 -->
<g id="edge31" class="edge">
<title>Node20&#45;&gt;Node23</title>
<path fill="none" stroke="midnightblue" d="M922.02,-235.08C918.33,-227.69 912.96,-216.95 908.39,-207.81"/>
<polygon fill="midnightblue" stroke="midnightblue" points="911.46,-206.13 903.86,-198.75 905.2,-209.26 911.46,-206.13"/>
</g>
<!-- Node24 -->
<g id="node24" class="node">
<title>Node24</title>
<g id="a_node24"><a xlink:href="Logger_8h.html" target="_top" xlink:title=" ">
<polygon fill="none" stroke="black" points="1052.98,-179.5 1052.98,-198.5 1179.98,-198.5 1179.98,-179.5 1052.98,-179.5"/>
<text text-anchor="middle" x="1116.48" y="-186.5" font-family="Helvetica,sans-Serif" font-size="10.00">open62541pp/Logger.h</text>
</a>
</g>
</g>
<!-- Node20&#45;&gt;Node24 -->
<g id="edge35" class="edge">
<title>Node20&#45;&gt;Node24</title>
<path fill="none" stroke="midnightblue" d="M956.59,-235.44C989.11,-226.2 1041.06,-211.44 1076.87,-201.26"/>
<polygon fill="midnightblue" stroke="midnightblue" points="1077.85,-204.62 1086.52,-198.52 1075.94,-197.88 1077.85,-204.62"/>
</g>
<!-- Node24&#45;&gt;Node3 -->
<g id="edge37" class="edge">
<title>Node24&#45;&gt;Node3</title>
<path fill="none" stroke="midnightblue" d="M1103.93,-179.37C1076.59,-160.57 1011.42,-115.77 977.62,-92.53"/>
<polygon fill="midnightblue" stroke="midnightblue" points="979.2,-89.37 968.98,-86.59 975.24,-95.14 979.2,-89.37"/>
</g>
<!-- Node24&#45;&gt;Node22 -->
<g id="edge36" class="edge">
<title>Node24&#45;&gt;Node22</title>
<path fill="none" stroke="midnightblue" d="M1126.92,-179.32C1136.63,-171.26 1151.3,-159.08 1162.98,-149.37"/>
<polygon fill="midnightblue" stroke="midnightblue" points="1165.39,-151.92 1170.85,-142.83 1160.92,-146.53 1165.39,-151.92"/>
</g>
<!-- Node25&#45;&gt;Node4 -->
<g id="edge41" class="edge">
<title>Node25&#45;&gt;Node4</title>
<path fill="none" stroke="midnightblue" d="M642.5,-235.44C684.35,-225.22 753.87,-208.23 795.02,-198.18"/>
<polygon fill="midnightblue" stroke="midnightblue" points="795.96,-201.55 804.84,-195.78 794.29,-194.75 795.96,-201.55"/>
</g>
<!-- Node25&#45;&gt;Node5 -->
<g id="edge42" class="edge">
<title>Node25&#45;&gt;Node5</title>
<path fill="none" stroke="midnightblue" d="M542.74,-235.66C449.31,-223.58 286.37,-202.27 273.48,-199 221.59,-185.83 163.9,-161.82 130.54,-146.96"/>
<polygon fill="midnightblue" stroke="midnightblue" points="131.56,-143.58 121,-142.66 128.68,-149.96 131.56,-143.58"/>
</g>
<!-- Node25&#45;&gt;Node7 -->
<g id="edge45" class="edge">
<title>Node25&#45;&gt;Node7</title>
<path fill="none" stroke="midnightblue" d="M566.11,-235.5C492.02,-219.44 341.18,-182.68 306.48,-143 295.29,-130.2 291,-111.01 289.39,-96.8"/>
<polygon fill="midnightblue" stroke="midnightblue" points="292.87,-96.38 288.59,-86.68 285.89,-96.93 292.87,-96.38"/>
</g>
<!-- Node25&#45;&gt;Node13 -->
<g id="edge43" class="edge">
<title>Node25&#45;&gt;Node13</title>
<path fill="none" stroke="midnightblue" d="M588.94,-235.44C569.86,-226.64 539.91,-212.81 518.05,-202.72"/>
<polygon fill="midnightblue" stroke="midnightblue" points="519.48,-199.53 508.93,-198.52 516.55,-205.88 519.48,-199.53"/>
</g>
<!-- Node25&#45;&gt;Node16 -->
<g id="edge40" class="edge">
<title>Node25&#45;&gt;Node16</title>
<path fill="none" stroke="midnightblue" d="M637.27,-235.46C676,-222.57 742.06,-194.05 770.48,-143 782.66,-121.13 756.13,-102.45 732.32,-90.8"/>
<polygon fill="midnightblue" stroke="midnightblue" points="733.62,-87.55 723.07,-86.54 730.69,-93.91 733.62,-87.55"/>
</g>
<!-- Node25&#45;&gt;Node19 -->
<g id="edge44" class="edge">
<title>Node25&#45;&gt;Node19</title>
<path fill="none" stroke="midnightblue" d="M614.78,-235.37C630.26,-217.05 666.62,-174.05 686.65,-150.36"/>
<polygon fill="midnightblue" stroke="midnightblue" points="689.43,-152.49 693.22,-142.59 684.09,-147.97 689.43,-152.49"/>
</g>
</g>
</svg>
