<?xml version="1.0" encoding="UTF-8" standalone="no"?>
<!DOCTYPE svg PUBLIC "-//W3C//DTD SVG 1.1//EN"
 "http://www.w3.org/Graphics/SVG/1.1/DTD/svg11.dtd">
<!-- Generated by graphviz version 2.43.0 (0)
 -->
<!-- Title: /home/runner/work/open62541pp/open62541pp/include/open62541pp/ua/nodeids.hpp Pages: 1 -->
<svg width="2313pt" height="599pt"
 viewBox="0.00 0.00 2313.00 599.00" xmlns="http://www.w3.org/2000/svg" xmlns:xlink="http://www.w3.org/1999/xlink">
<g id="graph0" class="graph" transform="scale(1 1) rotate(0) translate(4 595)">
<title>/home/runner/work/open62541pp/open62541pp/include/open62541pp/ua/nodeids.hpp</title>
<!-- Node1 -->
<g id="Node000001" class="node">
<title>Node1</title>
<g id="a_Node000001"><a xlink:title=" ">
<polygon fill="#999999" stroke="#666666" points="1666,-591 1473,-591 1473,-550 1666,-550 1666,-591"/>
<text text-anchor="start" x="1481" y="-579" font-family="Helvetica,sans-Serif" font-size="10.00">/home/runner/work/open62541pp</text>
<text text-anchor="start" x="1481" y="-568" font-family="Helvetica,sans-Serif" font-size="10.00">/open62541pp/include/open62541pp</text>
<text text-anchor="middle" x="1569.5" y="-557" font-family="Helvetica,sans-Serif" font-size="10.00">/ua/nodeids.hpp</text>
</a>
</g>
</g>
<!-- Node2 -->
<g id="Node000002" class="node">
<title>Node2</title>
<g id="a_Node000002"><a xlink:href="event_8hpp.html" target="_top" xlink:title=" ">
<polygon fill="white" stroke="#666666" points="193,-118 0,-118 0,-77 193,-77 193,-118"/>
<text text-anchor="start" x="8" y="-106" font-family="Helvetica,sans-Serif" font-size="10.00">/home/runner/work/open62541pp</text>
<text text-anchor="start" x="8" y="-95" font-family="Helvetica,sans-Serif" font-size="10.00">/open62541pp/include/open62541pp</text>
<text text-anchor="middle" x="96.5" y="-84" font-family="Helvetica,sans-Serif" font-size="10.00">/event.hpp</text>
</a>
</g>
</g>
<!-- Node1&#45;&gt;Node2 -->
<g id="edge1_Node000001_Node000002" class="edge">
<title>Node1&#45;&gt;Node2</title>
<g id="a_edge1_Node000001_Node000002"><a xlink:title=" ">
<path fill="none" stroke="#63b8ff" d="M1462.8,-568.93C1131,-565.75 139.5,-545.1 139.5,-412 139.5,-412 139.5,-412 139.5,-250.5 139.5,-201.41 118.48,-146.66 105.83,-118.16"/>
<polygon fill="#63b8ff" stroke="#63b8ff" points="1462.86,-572.43 1472.89,-569.02 1462.93,-565.43 1462.86,-572.43"/>
</a>
</g>
</g>
<!-- Node4 -->
<g id="Node000004" class="node">
<title>Node4</title>
<g id="a_Node000004"><a xlink:href="node_8hpp.html" target="_top" xlink:title=" ">
<polygon fill="white" stroke="#666666" points="2004,-195 1811,-195 1811,-154 2004,-154 2004,-195"/>
<text text-anchor="start" x="1819" y="-183" font-family="Helvetica,sans-Serif" font-size="10.00">/home/runner/work/open62541pp</text>
<text text-anchor="start" x="1819" y="-172" font-family="Helvetica,sans-Serif" font-size="10.00">/open62541pp/include/open62541pp</text>
<text text-anchor="middle" x="1907.5" y="-161" font-family="Helvetica,sans-Serif" font-size="10.00">/node.hpp</text>
</a>
</g>
</g>
<!-- Node1&#45;&gt;Node4 -->
<g id="edge3_Node000001_Node000004" class="edge">
<title>Node1&#45;&gt;Node4</title>
<g id="a_edge3_Node000001_Node000004"><a xlink:title=" ">
<path fill="none" stroke="#63b8ff" d="M1676.39,-558.57C1827,-540.15 2083.5,-496.39 2083.5,-412 2083.5,-412 2083.5,-412 2083.5,-327.5 2083.5,-278.35 2065.67,-264.28 2029.5,-231 2012.63,-215.48 1990.68,-203.69 1970.06,-195.05"/>
<polygon fill="#63b8ff" stroke="#63b8ff" points="1675.69,-555.13 1666.18,-559.8 1676.53,-562.08 1675.69,-555.13"/>
</a>
</g>
</g>
<!-- Node5 -->
<g id="Node000005" class="node">
<title>Node5</title>
<g id="a_Node000005"><a xlink:href="server_8hpp.html" target="_top" xlink:title=" ">
<polygon fill="white" stroke="#666666" points="481,-349 288,-349 288,-308 481,-308 481,-349"/>
<text text-anchor="start" x="296" y="-337" font-family="Helvetica,sans-Serif" font-size="10.00">/home/runner/work/open62541pp</text>
<text text-anchor="start" x="296" y="-326" font-family="Helvetica,sans-Serif" font-size="10.00">/open62541pp/include/open62541pp</text>
<text text-anchor="middle" x="384.5" y="-315" font-family="Helvetica,sans-Serif" font-size="10.00">/server.hpp</text>
</a>
</g>
</g>
<!-- Node1&#45;&gt;Node5 -->
<g id="edge5_Node000001_Node000005" class="edge">
<title>Node1&#45;&gt;Node5</title>
<g id="a_edge5_Node000001_Node000005"><a xlink:title=" ">
<path fill="none" stroke="#63b8ff" d="M1462.43,-563.39C1193.73,-547.19 506.54,-500.01 425.5,-437 398.22,-415.79 389.09,-374.15 386.03,-349.38"/>
<polygon fill="#63b8ff" stroke="#63b8ff" points="1462.39,-566.9 1472.58,-564 1462.81,-559.91 1462.39,-566.9"/>
</a>
</g>
</g>
<!-- Node6 -->
<g id="Node000006" class="node">
<title>Node6</title>
<g id="a_Node000006"><a xlink:href="nodemanagement_8hpp.html" target="_top" xlink:title=" ">
<polygon fill="white" stroke="#666666" points="1767,-349 1574,-349 1574,-308 1767,-308 1767,-349"/>
<text text-anchor="start" x="1582" y="-337" font-family="Helvetica,sans-Serif" font-size="10.00">/home/runner/work/open62541pp</text>
<text text-anchor="start" x="1582" y="-326" font-family="Helvetica,sans-Serif" font-size="10.00">/open62541pp/include/open62541pp</text>
<text text-anchor="middle" x="1670.5" y="-315" font-family="Helvetica,sans-Serif" font-size="10.00">/services/nodemanagement.hpp</text>
</a>
</g>
</g>
<!-- Node1&#45;&gt;Node6 -->
<g id="edge7_Node000001_Node000006" class="edge">
<title>Node1&#45;&gt;Node6</title>
<g id="a_edge7_Node000001_Node000006"><a xlink:title=" ">
<path fill="none" stroke="#63b8ff" d="M1600.54,-543.14C1626.72,-518.7 1662.28,-479.75 1677.5,-437 1687.91,-407.75 1681.88,-371.23 1676.35,-349.17"/>
<polygon fill="#63b8ff" stroke="#63b8ff" points="1598.11,-540.62 1593.09,-549.94 1602.83,-545.79 1598.11,-540.62"/>
</a>
</g>
</g>
<!-- Node8 -->
<g id="Node000008" class="node">
<title>Node8</title>
<g id="a_Node000008"><a xlink:href="ua_2types_8hpp.html" target="_top" xlink:title=" ">
<polygon fill="white" stroke="#666666" points="1403,-514 1210,-514 1210,-473 1403,-473 1403,-514"/>
<text text-anchor="start" x="1218" y="-502" font-family="Helvetica,sans-Serif" font-size="10.00">/home/runner/work/open62541pp</text>
<text text-anchor="start" x="1218" y="-491" font-family="Helvetica,sans-Serif" font-size="10.00">/open62541pp/include/open62541pp</text>
<text text-anchor="middle" x="1306.5" y="-480" font-family="Helvetica,sans-Serif" font-size="10.00">/ua/types.hpp</text>
</a>
</g>
</g>
<!-- Node1&#45;&gt;Node8 -->
<g id="edge11_Node000001_Node000008" class="edge">
<title>Node1&#45;&gt;Node8</title>
<g id="a_edge11_Node000001_Node000008"><a xlink:title=" ">
<path fill="none" stroke="#63b8ff" d="M1491.35,-547.21C1454.4,-536.68 1410.67,-524.21 1375.03,-514.04"/>
<polygon fill="#63b8ff" stroke="#63b8ff" points="1490.51,-550.61 1501.09,-549.99 1492.43,-543.88 1490.51,-550.61"/>
</a>
</g>
</g>
<!-- Node25 -->
<g id="Node000025" class="node">
<title>Node25</title>
<g id="a_Node000025"><a xlink:href="ua_8hpp.html" target="_top" xlink:title=" ">
<polygon fill="white" stroke="#666666" points="2305,-431.5 2112,-431.5 2112,-390.5 2305,-390.5 2305,-431.5"/>
<text text-anchor="start" x="2120" y="-419.5" font-family="Helvetica,sans-Serif" font-size="10.00">/home/runner/work/open62541pp</text>
<text text-anchor="start" x="2120" y="-408.5" font-family="Helvetica,sans-Serif" font-size="10.00">/open62541pp/include/open62541pp</text>
<text text-anchor="middle" x="2208.5" y="-397.5" font-family="Helvetica,sans-Serif" font-size="10.00">/ua/ua.hpp</text>
</a>
</g>
</g>
<!-- Node1&#45;&gt;Node25 -->
<g id="edge65_Node000001_Node000025" class="edge">
<title>Node1&#45;&gt;Node25</title>
<g id="a_edge65_Node000001_Node000025"><a xlink:title=" ">
<path fill="none" stroke="#63b8ff" d="M1676.28,-566.16C1808.36,-560.67 2024.68,-546.87 2097.5,-514 2138.53,-495.48 2174.53,-455.8 2193.74,-431.76"/>
<polygon fill="#63b8ff" stroke="#63b8ff" points="1675.98,-562.67 1666.13,-566.57 1676.27,-569.66 1675.98,-562.67"/>
</a>
</g>
</g>
<!-- Node3 -->
<g id="Node000003" class="node">
<title>Node3</title>
<g id="a_Node000003"><a xlink:href="open62541pp_8hpp.html" target="_top" xlink:title=" ">
<polygon fill="white" stroke="#666666" points="712,-41 519,-41 519,0 712,0 712,-41"/>
<text text-anchor="start" x="527" y="-29" font-family="Helvetica,sans-Serif" font-size="10.00">/home/runner/work/open62541pp</text>
<text text-anchor="start" x="527" y="-18" font-family="Helvetica,sans-Serif" font-size="10.00">/open62541pp/include/open62541pp</text>
<text text-anchor="middle" x="615.5" y="-7" font-family="Helvetica,sans-Serif" font-size="10.00">/open62541pp.hpp</text>
</a>
</g>
</g>
<!-- Node2&#45;&gt;Node3 -->
<g id="edge2_Node000002_Node000003" class="edge">
<title>Node2&#45;&gt;Node3</title>
<g id="a_edge2_Node000002_Node000003"><a xlink:title=" ">
<path fill="none" stroke="#63b8ff" d="M203.03,-77.7C204.53,-77.46 206.02,-77.23 207.5,-77 313.8,-60.44 436.13,-44.17 518.9,-33.57"/>
<polygon fill="#63b8ff" stroke="#63b8ff" points="202.34,-74.27 193.02,-79.31 203.45,-81.18 202.34,-74.27"/>
</a>
</g>
</g>
<!-- Node4&#45;&gt;Node3 -->
<g id="edge4_Node000004_Node000003" class="edge">
<title>Node4&#45;&gt;Node3</title>
<g id="a_edge4_Node000004_Node000003"><a xlink:title=" ">
<path fill="none" stroke="#63b8ff" d="M1800.88,-160.96C1554.44,-131.96 948.41,-60.67 712.08,-32.86"/>
<polygon fill="#63b8ff" stroke="#63b8ff" points="1800.58,-164.44 1810.92,-162.14 1801.4,-157.49 1800.58,-164.44"/>
</a>
</g>
</g>
<!-- Node5&#45;&gt;Node3 -->
<g id="edge6_Node000005_Node000003" class="edge">
<title>Node5&#45;&gt;Node3</title>
<g id="a_edge6_Node000005_Node000003"><a xlink:title=" ">
<path fill="none" stroke="#63b8ff" d="M419.93,-301.46C430.68,-292.71 442.12,-282.5 451.5,-272 520.78,-194.48 581.91,-85.19 605.34,-41.09"/>
<polygon fill="#63b8ff" stroke="#63b8ff" points="417.55,-298.88 411.89,-307.84 421.9,-304.36 417.55,-298.88"/>
</a>
</g>
</g>
<!-- Node6&#45;&gt;Node4 -->
<g id="edge8_Node000006_Node000004" class="edge">
<title>Node6&#45;&gt;Node4</title>
<g id="a_edge8_Node000006_Node000004"><a xlink:title=" ">
<path fill="none" stroke="#63b8ff" d="M1777.54,-312.81C1851.38,-301.58 1938.22,-285.74 1949.5,-272 1968.39,-248.98 1946.2,-216.15 1927.58,-195.34"/>
<polygon fill="#63b8ff" stroke="#63b8ff" points="1776.58,-309.42 1767.21,-314.37 1777.62,-316.34 1776.58,-309.42"/>
</a>
</g>
</g>
<!-- Node7 -->
<g id="Node000007" class="node">
<title>Node7</title>
<g id="a_Node000007"><a xlink:href="services_8hpp.html" target="_top" xlink:title=" ">
<polygon fill="white" stroke="#666666" points="1504,-195 1311,-195 1311,-154 1504,-154 1504,-195"/>
<text text-anchor="start" x="1319" y="-183" font-family="Helvetica,sans-Serif" font-size="10.00">/home/runner/work/open62541pp</text>
<text text-anchor="start" x="1319" y="-172" font-family="Helvetica,sans-Serif" font-size="10.00">/open62541pp/include/open62541pp</text>
<text text-anchor="middle" x="1407.5" y="-161" font-family="Helvetica,sans-Serif" font-size="10.00">/services/services.hpp</text>
</a>
</g>
</g>
<!-- Node6&#45;&gt;Node7 -->
<g id="edge9_Node000006_Node000007" class="edge">
<title>Node6&#45;&gt;Node7</title>
<g id="a_edge9_Node000006_Node000007"><a xlink:title=" ">
<path fill="none" stroke="#63b8ff" d="M1563.89,-306.15C1537.9,-298.01 1511.1,-286.94 1488.5,-272 1472.54,-261.44 1440.55,-220.23 1421.9,-195.2"/>
<polygon fill="#63b8ff" stroke="#63b8ff" points="1563.22,-309.6 1573.8,-309.13 1565.23,-302.9 1563.22,-309.6"/>
</a>
</g>
</g>
<!-- Node7&#45;&gt;Node3 -->
<g id="edge10_Node000007_Node000003" class="edge">
<title>Node7&#45;&gt;Node3</title>
<g id="a_edge10_Node000007_Node000003"><a xlink:title=" ">
<path fill="none" stroke="#63b8ff" d="M1300.77,-153.02C1145.95,-123.3 861.31,-68.68 712.28,-40.07"/>
<polygon fill="#63b8ff" stroke="#63b8ff" points="1300.3,-156.49 1310.78,-154.94 1301.62,-149.62 1300.3,-156.49"/>
</a>
</g>
</g>
<!-- Node8&#45;&gt;Node4 -->
<g id="edge21_Node000008_Node000004" class="edge">
<title>Node8&#45;&gt;Node4</title>
<g id="a_edge21_Node000008_Node000004"><a xlink:title=" ">
<path fill="none" stroke="#63b8ff" d="M1413.26,-486.53C1549.21,-478.1 1776.15,-461 1856.5,-437 1937.64,-412.76 1981.57,-421.4 2025.5,-349 2053.31,-303.17 2033.93,-272.91 2000.5,-231 1988.42,-215.86 1971.01,-203.92 1954.51,-195.05"/>
<polygon fill="#63b8ff" stroke="#63b8ff" points="1412.99,-483.04 1403.22,-487.15 1413.42,-490.03 1412.99,-483.04"/>
</a>
</g>
</g>
<!-- Node8&#45;&gt;Node5 -->
<g id="edge27_Node000008_Node000005" class="edge">
<title>Node8&#45;&gt;Node5</title>
<g id="a_edge27_Node000008_Node000005"><a xlink:title=" ">
<path fill="none" stroke="#63b8ff" d="M1199.71,-489.27C994.17,-482.46 558.22,-464.92 495.5,-437 452.61,-417.91 416.49,-374.68 397.92,-349.24"/>
<polygon fill="#63b8ff" stroke="#63b8ff" points="1199.81,-492.78 1209.92,-489.61 1200.04,-485.78 1199.81,-492.78"/>
</a>
</g>
</g>
<!-- Node8&#45;&gt;Node6 -->
<g id="edge59_Node000008_Node000006" class="edge">
<title>Node8&#45;&gt;Node6</title>
<g id="a_edge59_Node000008_Node000006"><a xlink:title=" ">
<path fill="none" stroke="#63b8ff" d="M1413.25,-488.71C1502.19,-483.23 1619.46,-469.82 1652.5,-437 1675.59,-414.06 1675.78,-373.42 1673.42,-349.22"/>
<polygon fill="#63b8ff" stroke="#63b8ff" points="1412.88,-485.23 1403.1,-489.31 1413.29,-492.22 1412.88,-485.23"/>
</a>
</g>
</g>
<!-- Node9 -->
<g id="Node000009" class="node">
<title>Node9</title>
<g id="a_Node000009"><a xlink:href="client_8hpp.html" target="_top" xlink:title=" ">
<polygon fill="white" stroke="#666666" points="856,-118 663,-118 663,-77 856,-77 856,-118"/>
<text text-anchor="start" x="671" y="-106" font-family="Helvetica,sans-Serif" font-size="10.00">/home/runner/work/open62541pp</text>
<text text-anchor="start" x="671" y="-95" font-family="Helvetica,sans-Serif" font-size="10.00">/open62541pp/include/open62541pp</text>
<text text-anchor="middle" x="759.5" y="-84" font-family="Helvetica,sans-Serif" font-size="10.00">/client.hpp</text>
</a>
</g>
</g>
<!-- Node8&#45;&gt;Node9 -->
<g id="edge12_Node000008_Node000009" class="edge">
<title>Node8&#45;&gt;Node9</title>
<g id="a_edge12_Node000008_Node000009"><a xlink:title=" ">
<path fill="none" stroke="#63b8ff" d="M1306.67,-462.6C1305.51,-439.78 1301.02,-408.39 1286.5,-385 1272.43,-362.34 1258.43,-366.72 1238.5,-349 1219.71,-332.29 1219.86,-322.76 1199.5,-308 1074.67,-217.48 904.57,-149.67 816.93,-118.11"/>
<polygon fill="#63b8ff" stroke="#63b8ff" points="1303.18,-462.85 1307,-472.73 1310.17,-462.62 1303.18,-462.85"/>
</a>
</g>
</g>
<!-- Node10 -->
<g id="Node000010" class="node">
<title>Node10</title>
<g id="a_Node000010"><a xlink:href="client__context_8hpp.html" target="_top" xlink:title=" ">
<polygon fill="white" stroke="#666666" points="980,-349 787,-349 787,-308 980,-308 980,-349"/>
<text text-anchor="start" x="795" y="-337" font-family="Helvetica,sans-Serif" font-size="10.00">/home/runner/work/open62541pp</text>
<text text-anchor="start" x="795" y="-326" font-family="Helvetica,sans-Serif" font-size="10.00">/open62541pp/include/open62541pp</text>
<text text-anchor="middle" x="883.5" y="-315" font-family="Helvetica,sans-Serif" font-size="10.00">/detail/client_context.hpp</text>
</a>
</g>
</g>
<!-- Node8&#45;&gt;Node10 -->
<g id="edge14_Node000008_Node000010" class="edge">
<title>Node8&#45;&gt;Node10</title>
<g id="a_edge14_Node000008_Node000010"><a xlink:title=" ">
<path fill="none" stroke="#63b8ff" d="M1199.45,-487.57C1065.31,-480.28 849.94,-464.43 825.5,-437 810.12,-419.75 816.42,-406.25 825.5,-385 831.58,-370.77 843.29,-358.45 854.61,-349.05"/>
<polygon fill="#63b8ff" stroke="#63b8ff" points="1199.59,-491.08 1209.76,-488.12 1199.96,-484.09 1199.59,-491.08"/>
</a>
</g>
</g>
<!-- Node11 -->
<g id="Node000011" class="node">
<title>Node11</title>
<g id="a_Node000011"><a xlink:href="server__context_8hpp.html" target="_top" xlink:title=" ">
<polygon fill="white" stroke="#666666" points="769,-349 576,-349 576,-308 769,-308 769,-349"/>
<text text-anchor="start" x="584" y="-337" font-family="Helvetica,sans-Serif" font-size="10.00">/home/runner/work/open62541pp</text>
<text text-anchor="start" x="584" y="-326" font-family="Helvetica,sans-Serif" font-size="10.00">/open62541pp/include/open62541pp</text>
<text text-anchor="middle" x="672.5" y="-315" font-family="Helvetica,sans-Serif" font-size="10.00">/detail/server_context.hpp</text>
</a>
</g>
</g>
<!-- Node8&#45;&gt;Node11 -->
<g id="edge15_Node000008_Node000011" class="edge">
<title>Node8&#45;&gt;Node11</title>
<g id="a_edge15_Node000008_Node000011"><a xlink:title=" ">
<path fill="none" stroke="#63b8ff" d="M1199.68,-487.2C1075.99,-479.9 880.52,-464.43 812.5,-437 763.05,-417.06 716.14,-374.56 691.17,-349.38"/>
<polygon fill="#63b8ff" stroke="#63b8ff" points="1199.75,-490.71 1209.94,-487.8 1200.16,-483.73 1199.75,-490.71"/>
</a>
</g>
</g>
<!-- Node12 -->
<g id="Node000012" class="node">
<title>Node12</title>
<g id="a_Node000012"><a xlink:href="monitoreditem_8hpp.html" target="_top" xlink:title=" ">
<polygon fill="white" stroke="#666666" points="693,-272 500,-272 500,-231 693,-231 693,-272"/>
<text text-anchor="start" x="508" y="-260" font-family="Helvetica,sans-Serif" font-size="10.00">/home/runner/work/open62541pp</text>
<text text-anchor="start" x="508" y="-249" font-family="Helvetica,sans-Serif" font-size="10.00">/open62541pp/include/open62541pp</text>
<text text-anchor="middle" x="596.5" y="-238" font-family="Helvetica,sans-Serif" font-size="10.00">/monitoreditem.hpp</text>
</a>
</g>
</g>
<!-- Node8&#45;&gt;Node12 -->
<g id="edge16_Node000008_Node000012" class="edge">
<title>Node8&#45;&gt;Node12</title>
<g id="a_edge16_Node000008_Node000012"><a xlink:title=" ">
<path fill="none" stroke="#63b8ff" d="M1199.8,-492.71C998.31,-492 577.93,-484.73 533.5,-437 494.44,-395.03 509.9,-360.25 533.5,-308 540.04,-293.52 552.43,-281.31 564.51,-272.06"/>
<polygon fill="#63b8ff" stroke="#63b8ff" points="1199.81,-496.21 1209.82,-492.75 1199.83,-489.21 1199.81,-496.21"/>
</a>
</g>
</g>
<!-- Node13 -->
<g id="Node000013" class="node">
<title>Node13</title>
<g id="a_Node000013"><a xlink:href="subscription_8hpp.html" target="_top" xlink:title=" ">
<polygon fill="white" stroke="#666666" points="837,-195 644,-195 644,-154 837,-154 837,-195"/>
<text text-anchor="start" x="652" y="-183" font-family="Helvetica,sans-Serif" font-size="10.00">/home/runner/work/open62541pp</text>
<text text-anchor="start" x="652" y="-172" font-family="Helvetica,sans-Serif" font-size="10.00">/open62541pp/include/open62541pp</text>
<text text-anchor="middle" x="740.5" y="-161" font-family="Helvetica,sans-Serif" font-size="10.00">/subscription.hpp</text>
</a>
</g>
</g>
<!-- Node8&#45;&gt;Node13 -->
<g id="edge62_Node000008_Node000013" class="edge">
<title>Node8&#45;&gt;Node13</title>
<g id="a_edge62_Node000008_Node000013"><a xlink:title=" ">
<path fill="none" stroke="#63b8ff" d="M1199.72,-487.36C1057.47,-479.63 813.82,-463.08 728.5,-437 650.14,-413.05 608.39,-419.42 566.5,-349 557.18,-333.34 555.4,-322.45 566.5,-308 604.33,-258.76 654.97,-313.12 701.5,-272 724.11,-252.02 733.82,-217.04 737.84,-195.14"/>
<polygon fill="#63b8ff" stroke="#63b8ff" points="1199.61,-490.86 1209.79,-487.9 1199.99,-483.87 1199.61,-490.86"/>
</a>
</g>
</g>
<!-- Node14 -->
<g id="Node000014" class="node">
<title>Node14</title>
<g id="a_Node000014"><a xlink:href="accesscontrol_8hpp.html" target="_top" xlink:title=" ">
<polygon fill="white" stroke="#666666" points="367,-431.5 174,-431.5 174,-390.5 367,-390.5 367,-431.5"/>
<text text-anchor="start" x="182" y="-419.5" font-family="Helvetica,sans-Serif" font-size="10.00">/home/runner/work/open62541pp</text>
<text text-anchor="start" x="182" y="-408.5" font-family="Helvetica,sans-Serif" font-size="10.00">/open62541pp/include/open62541pp</text>
<text text-anchor="middle" x="270.5" y="-397.5" font-family="Helvetica,sans-Serif" font-size="10.00">/plugin/accesscontrol.hpp</text>
</a>
</g>
</g>
<!-- Node8&#45;&gt;Node14 -->
<g id="edge22_Node000008_Node000014" class="edge">
<title>Node8&#45;&gt;Node14</title>
<g id="a_edge22_Node000008_Node000014"><a xlink:title=" ">
<path fill="none" stroke="#63b8ff" d="M1199.88,-488.25C1037.13,-481.17 717.09,-464.91 446.5,-437 420.71,-434.34 392.9,-430.73 367.17,-427.09"/>
<polygon fill="#63b8ff" stroke="#63b8ff" points="1199.75,-491.75 1209.89,-488.68 1200.05,-484.75 1199.75,-491.75"/>
</a>
</g>
</g>
<!-- Node16 -->
<g id="Node000016" class="node">
<title>Node16</title>
<g id="a_Node000016"><a xlink:href="attribute_8hpp.html" target="_top" xlink:title=" ">
<polygon fill="white" stroke="#666666" points="2017,-349 1824,-349 1824,-308 2017,-308 2017,-349"/>
<text text-anchor="start" x="1832" y="-337" font-family="Helvetica,sans-Serif" font-size="10.00">/home/runner/work/open62541pp</text>
<text text-anchor="start" x="1832" y="-326" font-family="Helvetica,sans-Serif" font-size="10.00">/open62541pp/include/open62541pp</text>
<text text-anchor="middle" x="1920.5" y="-315" font-family="Helvetica,sans-Serif" font-size="10.00">/services/attribute.hpp</text>
</a>
</g>
</g>
<!-- Node8&#45;&gt;Node16 -->
<g id="edge28_Node000008_Node000016" class="edge">
<title>Node8&#45;&gt;Node16</title>
<g id="a_edge28_Node000008_Node000016"><a xlink:title=" ">
<path fill="none" stroke="#63b8ff" d="M1413.3,-488.79C1539.66,-483.01 1741.48,-468.99 1809.5,-437 1851.74,-417.13 1887.84,-374.61 1906.63,-349.41"/>
<polygon fill="#63b8ff" stroke="#63b8ff" points="1413.03,-485.3 1403.2,-489.24 1413.35,-492.29 1413.03,-485.3"/>
</a>
</g>
</g>
<!-- Node18 -->
<g id="Node000018" class="node">
<title>Node18</title>
<g id="a_Node000018"><a xlink:href="monitoreditem__context_8hpp.html" target="_top" xlink:title=" ">
<polygon fill="white" stroke="#666666" points="1028,-437 835,-437 835,-385 1028,-385 1028,-437"/>
<text text-anchor="start" x="843" y="-425" font-family="Helvetica,sans-Serif" font-size="10.00">/home/runner/work/open62541pp</text>
<text text-anchor="start" x="843" y="-414" font-family="Helvetica,sans-Serif" font-size="10.00">/open62541pp/include/open62541pp</text>
<text text-anchor="start" x="843" y="-403" font-family="Helvetica,sans-Serif" font-size="10.00">/services/detail/monitoreditem</text>
<text text-anchor="middle" x="931.5" y="-392" font-family="Helvetica,sans-Serif" font-size="10.00">_context.hpp</text>
</a>
</g>
</g>
<!-- Node8&#45;&gt;Node18 -->
<g id="edge34_Node000008_Node000018" class="edge">
<title>Node8&#45;&gt;Node18</title>
<g id="a_edge34_Node000008_Node000018"><a xlink:title=" ">
<path fill="none" stroke="#63b8ff" d="M1202.15,-470.92C1153.58,-460.79 1095.05,-448.44 1042.5,-437 1037.77,-435.97 1032.93,-434.91 1028.04,-433.83"/>
<polygon fill="#63b8ff" stroke="#63b8ff" points="1201.54,-474.37 1212.04,-472.98 1202.97,-467.52 1201.54,-474.37"/>
</a>
</g>
</g>
<!-- Node19 -->
<g id="Node000019" class="node">
<title>Node19</title>
<g id="a_Node000019"><a xlink:href="services_2monitoreditem_8hpp.html" target="_top" xlink:title=" ">
<polygon fill="white" stroke="#666666" points="1191,-349 998,-349 998,-308 1191,-308 1191,-349"/>
<text text-anchor="start" x="1006" y="-337" font-family="Helvetica,sans-Serif" font-size="10.00">/home/runner/work/open62541pp</text>
<text text-anchor="start" x="1006" y="-326" font-family="Helvetica,sans-Serif" font-size="10.00">/open62541pp/include/open62541pp</text>
<text text-anchor="middle" x="1094.5" y="-315" font-family="Helvetica,sans-Serif" font-size="10.00">/services/monitoreditem.hpp</text>
</a>
</g>
</g>
<!-- Node8&#45;&gt;Node19 -->
<g id="edge58_Node000008_Node000019" class="edge">
<title>Node8&#45;&gt;Node19</title>
<g id="a_edge58_Node000008_Node000019"><a xlink:title=" ">
<path fill="none" stroke="#63b8ff" d="M1199.71,-479.72C1147.07,-470.99 1091.48,-457.28 1075.5,-437 1055.56,-411.7 1070.48,-372.59 1082.76,-349.18"/>
<polygon fill="#63b8ff" stroke="#63b8ff" points="1199.41,-483.21 1209.83,-481.34 1200.52,-476.3 1199.41,-483.21"/>
</a>
</g>
</g>
<!-- Node20 -->
<g id="Node000020" class="node">
<title>Node20</title>
<g id="a_Node000020"><a xlink:href="request__handling_8hpp.html" target="_top" xlink:title=" ">
<polygon fill="white" stroke="#666666" points="1644,-431.5 1445,-431.5 1445,-390.5 1644,-390.5 1644,-431.5"/>
<text text-anchor="start" x="1453" y="-419.5" font-family="Helvetica,sans-Serif" font-size="10.00">/home/runner/work/open62541pp</text>
<text text-anchor="start" x="1453" y="-408.5" font-family="Helvetica,sans-Serif" font-size="10.00">/open62541pp/include/open62541pp</text>
<text text-anchor="middle" x="1544.5" y="-397.5" font-family="Helvetica,sans-Serif" font-size="10.00">/services/detail/request_handling.hpp</text>
</a>
</g>
</g>
<!-- Node8&#45;&gt;Node20 -->
<g id="edge41_Node000008_Node000020" class="edge">
<title>Node8&#45;&gt;Node20</title>
<g id="a_edge41_Node000008_Node000020"><a xlink:title=" ">
<path fill="none" stroke="#63b8ff" d="M1374.22,-469.59C1409.75,-457.58 1452.81,-443.01 1486.74,-431.54"/>
<polygon fill="#63b8ff" stroke="#63b8ff" points="1372.77,-466.39 1364.42,-472.91 1375.01,-473.02 1372.77,-466.39"/>
</a>
</g>
</g>
<!-- Node21 -->
<g id="Node000021" class="node">
<title>Node21</title>
<g id="a_Node000021"><a xlink:href="method_8hpp.html" target="_top" xlink:title=" ">
<polygon fill="white" stroke="#666666" points="1441,-272 1248,-272 1248,-231 1441,-231 1441,-272"/>
<text text-anchor="start" x="1256" y="-260" font-family="Helvetica,sans-Serif" font-size="10.00">/home/runner/work/open62541pp</text>
<text text-anchor="start" x="1256" y="-249" font-family="Helvetica,sans-Serif" font-size="10.00">/open62541pp/include/open62541pp</text>
<text text-anchor="middle" x="1344.5" y="-238" font-family="Helvetica,sans-Serif" font-size="10.00">/services/method.hpp</text>
</a>
</g>
</g>
<!-- Node8&#45;&gt;Node21 -->
<g id="edge57_Node000008_Node000021" class="edge">
<title>Node8&#45;&gt;Node21</title>
<g id="a_edge57_Node000008_Node000021"><a xlink:title=" ">
<path fill="none" stroke="#63b8ff" d="M1345.77,-466.81C1380.44,-441.54 1428.64,-399.49 1449.5,-349 1456.46,-332.16 1458.9,-323.61 1449.5,-308 1439.87,-292.02 1423.93,-280.4 1407.34,-272.06"/>
<polygon fill="#63b8ff" stroke="#63b8ff" points="1343.38,-464.21 1337.27,-472.86 1347.44,-469.91 1343.38,-464.21"/>
</a>
</g>
</g>
<!-- Node22 -->
<g id="Node000022" class="node">
<title>Node22</title>
<g id="a_Node000022"><a xlink:href="services_2subscription_8hpp.html" target="_top" xlink:title=" ">
<polygon fill="white" stroke="#666666" points="1441,-349 1248,-349 1248,-308 1441,-308 1441,-349"/>
<text text-anchor="start" x="1256" y="-337" font-family="Helvetica,sans-Serif" font-size="10.00">/home/runner/work/open62541pp</text>
<text text-anchor="start" x="1256" y="-326" font-family="Helvetica,sans-Serif" font-size="10.00">/open62541pp/include/open62541pp</text>
<text text-anchor="middle" x="1344.5" y="-315" font-family="Helvetica,sans-Serif" font-size="10.00">/services/subscription.hpp</text>
</a>
</g>
</g>
<!-- Node8&#45;&gt;Node22 -->
<g id="edge60_Node000008_Node000022" class="edge">
<title>Node8&#45;&gt;Node22</title>
<g id="a_edge60_Node000008_Node000022"><a xlink:title=" ">
<path fill="none" stroke="#63b8ff" d="M1314.1,-463C1316.22,-454.61 1318.49,-445.45 1320.5,-437 1327.75,-406.49 1335.56,-370.95 1340.24,-349.35"/>
<polygon fill="#63b8ff" stroke="#63b8ff" points="1310.69,-462.2 1311.62,-472.75 1317.48,-463.92 1310.69,-462.2"/>
</a>
</g>
</g>
<!-- Node23 -->
<g id="Node000023" class="node">
<title>Node23</title>
<g id="a_Node000023"><a xlink:href="view_8hpp.html" target="_top" xlink:title=" ">
<polygon fill="white" stroke="#666666" points="1691,-272 1498,-272 1498,-231 1691,-231 1691,-272"/>
<text text-anchor="start" x="1506" y="-260" font-family="Helvetica,sans-Serif" font-size="10.00">/home/runner/work/open62541pp</text>
<text text-anchor="start" x="1506" y="-249" font-family="Helvetica,sans-Serif" font-size="10.00">/open62541pp/include/open62541pp</text>
<text text-anchor="middle" x="1594.5" y="-238" font-family="Helvetica,sans-Serif" font-size="10.00">/services/view.hpp</text>
</a>
</g>
</g>
<!-- Node8&#45;&gt;Node23 -->
<g id="edge61_Node000008_Node000023" class="edge">
<title>Node8&#45;&gt;Node23</title>
<g id="a_edge61_Node000008_Node000023"><a xlink:title=" ">
<path fill="none" stroke="#63b8ff" d="M1413.11,-483.42C1505.7,-474.28 1631.88,-458.48 1677.5,-437 1730.46,-412.06 1751.65,-402.46 1775.5,-349 1782.92,-332.36 1786.33,-322.65 1775.5,-308 1764.56,-293.2 1728.55,-280.73 1691.49,-271.38"/>
<polygon fill="#63b8ff" stroke="#63b8ff" points="1412.74,-479.93 1403.13,-484.39 1413.42,-486.9 1412.74,-479.93"/>
</a>
</g>
</g>
<!-- Node24 -->
<g id="Node000024" class="node">
<title>Node24</title>
<g id="a_Node000024"><a xlink:href="subscription__context_8hpp.html" target="_top" xlink:title=" ">
<polygon fill="white" stroke="#666666" points="1278,-437 1085,-437 1085,-385 1278,-385 1278,-437"/>
<text text-anchor="start" x="1093" y="-425" font-family="Helvetica,sans-Serif" font-size="10.00">/home/runner/work/open62541pp</text>
<text text-anchor="start" x="1093" y="-414" font-family="Helvetica,sans-Serif" font-size="10.00">/open62541pp/include/open62541pp</text>
<text text-anchor="start" x="1093" y="-403" font-family="Helvetica,sans-Serif" font-size="10.00">/services/detail/subscription</text>
<text text-anchor="middle" x="1181.5" y="-392" font-family="Helvetica,sans-Serif" font-size="10.00">_context.hpp</text>
</a>
</g>
</g>
<!-- Node8&#45;&gt;Node24 -->
<g id="edge54_Node000008_Node000024" class="edge">
<title>Node8&#45;&gt;Node24</title>
<g id="a_edge54_Node000008_Node000024"><a xlink:title=" ">
<path fill="none" stroke="#63b8ff" d="M1267.44,-467.34C1252.57,-457.77 1235.63,-446.86 1220.75,-437.28"/>
<polygon fill="#63b8ff" stroke="#63b8ff" points="1265.62,-470.34 1275.92,-472.81 1269.41,-464.45 1265.62,-470.34"/>
</a>
</g>
</g>
<!-- Node8&#45;&gt;Node25 -->
<g id="edge63_Node000008_Node000025" class="edge">
<title>Node8&#45;&gt;Node25</title>
<g id="a_edge63_Node000008_Node000025"><a xlink:title=" ">
<path fill="none" stroke="#63b8ff" d="M1413.37,-487.75C1559.61,-480.53 1830.1,-464.64 2059.5,-437 2076.43,-434.96 2094.36,-432.35 2111.71,-429.58"/>
<polygon fill="#63b8ff" stroke="#63b8ff" points="1412.87,-484.27 1403.06,-488.25 1413.22,-491.26 1412.87,-484.27"/>
</a>
</g>
</g>
<!-- Node9&#45;&gt;Node3 -->
<g id="edge13_Node000009_Node000003" class="edge">
<title>Node9&#45;&gt;Node3</title>
<g id="a_edge13_Node000009_Node000003"><a xlink:title=" ">
<path fill="none" stroke="#63b8ff" d="M713.06,-72.31C693.64,-62.2 671.37,-50.6 653.02,-41.04"/>
<polygon fill="#63b8ff" stroke="#63b8ff" points="711.56,-75.48 722.04,-76.99 714.79,-69.27 711.56,-75.48"/>
</a>
</g>
</g>
<!-- Node12&#45;&gt;Node3 -->
<g id="edge17_Node000012_Node000003" class="edge">
<title>Node12&#45;&gt;Node3</title>
<g id="a_edge17_Node000012_Node000003"><a xlink:title=" ">
<path fill="none" stroke="#63b8ff" d="M598.97,-220.73C602.91,-173.23 610.52,-81.57 613.86,-41.3"/>
<polygon fill="#63b8ff" stroke="#63b8ff" points="595.46,-220.72 598.12,-230.98 602.43,-221.3 595.46,-220.72"/>
</a>
</g>
</g>
<!-- Node12&#45;&gt;Node13 -->
<g id="edge18_Node000012_Node000013" class="edge">
<title>Node12&#45;&gt;Node13</title>
<g id="a_edge18_Node000012_Node000013"><a xlink:title=" ">
<path fill="none" stroke="#63b8ff" d="M642.94,-226.31C662.36,-216.2 684.63,-204.6 702.98,-195.04"/>
<polygon fill="#63b8ff" stroke="#63b8ff" points="641.21,-223.27 633.96,-230.99 644.44,-229.48 641.21,-223.27"/>
</a>
</g>
</g>
<!-- Node13&#45;&gt;Node3 -->
<g id="edge20_Node000013_Node000003" class="edge">
<title>Node13&#45;&gt;Node3</title>
<g id="a_edge20_Node000013_Node000003"><a xlink:title=" ">
<path fill="none" stroke="#63b8ff" d="M689.75,-148.59C676.62,-140.28 663.4,-130.02 653.5,-118 634.73,-95.21 624.41,-62.01 619.42,-41.1"/>
<polygon fill="#63b8ff" stroke="#63b8ff" points="687.96,-151.6 698.33,-153.76 691.58,-145.6 687.96,-151.6"/>
</a>
</g>
</g>
<!-- Node13&#45;&gt;Node9 -->
<g id="edge19_Node000013_Node000009" class="edge">
<title>Node13&#45;&gt;Node9</title>
<g id="a_edge19_Node000013_Node000009"><a xlink:title=" ">
<path fill="none" stroke="#63b8ff" d="M747.98,-143.98C750.18,-135.28 752.54,-125.98 754.54,-118.07"/>
<polygon fill="#63b8ff" stroke="#63b8ff" points="744.56,-143.24 745.49,-153.79 751.34,-144.96 744.56,-143.24"/>
</a>
</g>
</g>
<!-- Node14&#45;&gt;Node3 -->
<g id="edge23_Node000014_Node000003" class="edge">
<title>Node14&#45;&gt;Node3</title>
<g id="a_edge23_Node000014_Node000003"><a xlink:title=" ">
<path fill="none" stroke="#63b8ff" d="M255.64,-380.9C241.22,-349.9 221.5,-299.01 221.5,-252.5 221.5,-252.5 221.5,-252.5 221.5,-173.5 221.5,-109.94 402.21,-62.76 518.86,-38.92"/>
<polygon fill="#63b8ff" stroke="#63b8ff" points="252.64,-382.72 260.11,-390.23 258.95,-379.7 252.64,-382.72"/>
</a>
</g>
</g>
<!-- Node14&#45;&gt;Node5 -->
<g id="edge26_Node000014_Node000005" class="edge">
<title>Node14&#45;&gt;Node5</title>
<g id="a_edge26_Node000014_Node000005"><a xlink:title=" ">
<path fill="none" stroke="#63b8ff" d="M306.56,-384.54C322.7,-373.14 341.44,-359.9 356.51,-349.27"/>
<polygon fill="#63b8ff" stroke="#63b8ff" points="304.54,-381.68 298.39,-390.31 308.58,-387.4 304.54,-381.68"/>
</a>
</g>
</g>
<!-- Node15 -->
<g id="Node000015" class="node">
<title>Node15</title>
<g id="a_Node000015"><a xlink:href="accesscontrol__default_8hpp.html" target="_top" xlink:title=" ">
<polygon fill="white" stroke="#666666" points="443,-272 250,-272 250,-231 443,-231 443,-272"/>
<text text-anchor="start" x="258" y="-260" font-family="Helvetica,sans-Serif" font-size="10.00">/home/runner/work/open62541pp</text>
<text text-anchor="start" x="258" y="-249" font-family="Helvetica,sans-Serif" font-size="10.00">/open62541pp/include/open62541pp</text>
<text text-anchor="middle" x="346.5" y="-238" font-family="Helvetica,sans-Serif" font-size="10.00">/plugin/accesscontrol_default.hpp</text>
</a>
</g>
</g>
<!-- Node14&#45;&gt;Node15 -->
<g id="edge24_Node000014_Node000015" class="edge">
<title>Node14&#45;&gt;Node15</title>
<g id="a_edge24_Node000014_Node000015"><a xlink:title=" ">
<path fill="none" stroke="#63b8ff" d="M266.86,-380.24C265.63,-358.94 266.87,-330.21 278.5,-308 286.13,-293.42 299.43,-281.26 312.25,-272.08"/>
<polygon fill="#63b8ff" stroke="#63b8ff" points="263.39,-380.65 267.66,-390.34 270.36,-380.1 263.39,-380.65"/>
</a>
</g>
</g>
<!-- Node15&#45;&gt;Node3 -->
<g id="edge25_Node000015_Node000003" class="edge">
<title>Node15&#45;&gt;Node3</title>
<g id="a_edge25_Node000015_Node000003"><a xlink:title=" ">
<path fill="none" stroke="#63b8ff" d="M357.98,-221.27C374.46,-182.91 408.35,-115.92 457.5,-77 477.79,-60.94 503.06,-49.34 527.41,-41.03"/>
<polygon fill="#63b8ff" stroke="#63b8ff" points="354.61,-220.25 353.98,-230.82 361.07,-222.95 354.61,-220.25"/>
</a>
</g>
</g>
<!-- Node16&#45;&gt;Node4 -->
<g id="edge29_Node000016_Node000004" class="edge">
<title>Node16&#45;&gt;Node4</title>
<g id="a_edge29_Node000016_Node000004"><a xlink:title=" ">
<path fill="none" stroke="#63b8ff" d="M1960.4,-301.45C1969.71,-293.24 1978.39,-283.31 1983.5,-272 1991,-255.39 1991.75,-247.25 1983.5,-231 1975.88,-216 1962.09,-204.08 1948.32,-195.2"/>
<polygon fill="#63b8ff" stroke="#63b8ff" points="1958,-298.89 1952.49,-307.94 1962.44,-304.3 1958,-298.89"/>
</a>
</g>
</g>
<!-- Node16&#45;&gt;Node7 -->
<g id="edge33_Node000016_Node000007" class="edge">
<title>Node16&#45;&gt;Node7</title>
<g id="a_edge33_Node000016_Node000007"><a xlink:title=" ">
<path fill="none" stroke="#63b8ff" d="M1814.1,-305.03C1788.23,-296.93 1761.43,-286.16 1738.5,-272 1717.1,-258.79 1721.58,-243.04 1699.5,-231 1639.58,-198.34 1563.64,-184.61 1504.23,-178.97"/>
<polygon fill="#63b8ff" stroke="#63b8ff" points="1813.37,-308.47 1823.96,-308.01 1815.4,-301.77 1813.37,-308.47"/>
</a>
</g>
</g>
<!-- Node17 -->
<g id="Node000017" class="node">
<title>Node17</title>
<g id="a_Node000017"><a xlink:href="attribute__highlevel_8hpp.html" target="_top" xlink:title=" ">
<polygon fill="white" stroke="#666666" points="1941,-272 1748,-272 1748,-231 1941,-231 1941,-272"/>
<text text-anchor="start" x="1756" y="-260" font-family="Helvetica,sans-Serif" font-size="10.00">/home/runner/work/open62541pp</text>
<text text-anchor="start" x="1756" y="-249" font-family="Helvetica,sans-Serif" font-size="10.00">/open62541pp/include/open62541pp</text>
<text text-anchor="middle" x="1844.5" y="-238" font-family="Helvetica,sans-Serif" font-size="10.00">/services/attribute_highlevel.hpp</text>
</a>
</g>
</g>
<!-- Node16&#45;&gt;Node17 -->
<g id="edge30_Node000016_Node000017" class="edge">
<title>Node16&#45;&gt;Node17</title>
<g id="a_edge30_Node000016_Node000017"><a xlink:title=" ">
<path fill="none" stroke="#63b8ff" d="M1893.15,-300.51C1883.63,-291.11 1873.13,-280.76 1864.33,-272.07"/>
<polygon fill="#63b8ff" stroke="#63b8ff" points="1890.96,-303.26 1900.53,-307.79 1895.87,-298.28 1890.96,-303.26"/>
</a>
</g>
</g>
<!-- Node17&#45;&gt;Node4 -->
<g id="edge31_Node000017_Node000004" class="edge">
<title>Node17&#45;&gt;Node4</title>
<g id="a_edge31_Node000017_Node000004"><a xlink:title=" ">
<path fill="none" stroke="#63b8ff" d="M1867.64,-222.95C1875.41,-213.7 1883.91,-203.58 1891.06,-195.07"/>
<polygon fill="#63b8ff" stroke="#63b8ff" points="1864.8,-220.89 1861.05,-230.79 1870.16,-225.39 1864.8,-220.89"/>
</a>
</g>
</g>
<!-- Node17&#45;&gt;Node7 -->
<g id="edge32_Node000017_Node000007" class="edge">
<title>Node17&#45;&gt;Node7</title>
<g id="a_edge32_Node000017_Node000007"><a xlink:title=" ">
<path fill="none" stroke="#63b8ff" d="M1737.96,-231.77C1736.46,-231.51 1734.98,-231.26 1733.5,-231 1656.42,-217.67 1569.04,-202.81 1504.17,-191.82"/>
<polygon fill="#63b8ff" stroke="#63b8ff" points="1737.49,-235.24 1747.94,-233.51 1738.69,-228.35 1737.49,-235.24"/>
</a>
</g>
</g>
<!-- Node18&#45;&gt;Node10 -->
<g id="edge35_Node000018_Node000010" class="edge">
<title>Node18&#45;&gt;Node10</title>
<g id="a_edge35_Node000018_Node000010"><a xlink:title=" ">
<path fill="none" stroke="#63b8ff" d="M911.41,-376.31C905.89,-367.05 900.09,-357.32 895.21,-349.15"/>
<polygon fill="#63b8ff" stroke="#63b8ff" points="908.45,-378.17 916.58,-384.97 914.46,-374.59 908.45,-378.17"/>
</a>
</g>
</g>
<!-- Node18&#45;&gt;Node11 -->
<g id="edge36_Node000018_Node000011" class="edge">
<title>Node18&#45;&gt;Node11</title>
<g id="a_edge36_Node000018_Node000011"><a xlink:title=" ">
<path fill="none" stroke="#63b8ff" d="M841.23,-381.94C806.27,-371.08 767.09,-358.9 735.29,-349.02"/>
<polygon fill="#63b8ff" stroke="#63b8ff" points="840.38,-385.34 850.97,-384.97 842.46,-378.66 840.38,-385.34"/>
</a>
</g>
</g>
<!-- Node18&#45;&gt;Node19 -->
<g id="edge37_Node000018_Node000019" class="edge">
<title>Node18&#45;&gt;Node19</title>
<g id="a_edge37_Node000018_Node000019"><a xlink:title=" ">
<path fill="none" stroke="#63b8ff" d="M991.43,-380.4C1012.62,-369.94 1035.91,-358.43 1054.98,-349.02"/>
<polygon fill="#63b8ff" stroke="#63b8ff" points="989.6,-377.4 982.18,-384.97 992.7,-383.68 989.6,-377.4"/>
</a>
</g>
</g>
<!-- Node19&#45;&gt;Node7 -->
<g id="edge39_Node000019_Node000007" class="edge">
<title>Node19&#45;&gt;Node7</title>
<g id="a_edge39_Node000019_Node000007"><a xlink:title=" ">
<path fill="none" stroke="#63b8ff" d="M1124.44,-301.31C1150.25,-279.89 1189.27,-250.1 1227.5,-231 1257.78,-215.87 1292.99,-203.9 1324.21,-195.01"/>
<polygon fill="#63b8ff" stroke="#63b8ff" points="1121.95,-298.84 1116.55,-307.95 1126.46,-304.2 1121.95,-298.84"/>
</a>
</g>
</g>
<!-- Node19&#45;&gt;Node12 -->
<g id="edge38_Node000019_Node000012" class="edge">
<title>Node19&#45;&gt;Node12</title>
<g id="a_edge38_Node000019_Node000012"><a xlink:title=" ">
<path fill="none" stroke="#63b8ff" d="M987.79,-307.92C881.14,-290.7 770.36,-275.35 693.33,-265.08"/>
<polygon fill="#63b8ff" stroke="#63b8ff" points="987.33,-311.39 997.77,-309.53 988.46,-304.48 987.33,-311.39"/>
</a>
</g>
</g>
<!-- Node19&#45;&gt;Node13 -->
<g id="edge40_Node000019_Node000013" class="edge">
<title>Node19&#45;&gt;Node13</title>
<g id="a_edge40_Node000019_Node000013"><a xlink:title=" ">
<path fill="none" stroke="#63b8ff" d="M1039.45,-303.86C969.78,-273.95 851.05,-222.97 786.16,-195.11"/>
<polygon fill="#63b8ff" stroke="#63b8ff" points="1038.38,-307.21 1048.95,-307.94 1041.14,-300.78 1038.38,-307.21"/>
</a>
</g>
</g>
<!-- Node20&#45;&gt;Node6 -->
<g id="edge47_Node000020_Node000006" class="edge">
<title>Node20&#45;&gt;Node6</title>
<g id="a_edge47_Node000020_Node000006"><a xlink:title=" ">
<path fill="none" stroke="#63b8ff" d="M1583.86,-384.85C1601.81,-373.38 1622.76,-360 1639.56,-349.27"/>
<polygon fill="#63b8ff" stroke="#63b8ff" points="1581.87,-381.97 1575.32,-390.31 1585.63,-387.87 1581.87,-381.97"/>
</a>
</g>
</g>
<!-- Node20&#45;&gt;Node16 -->
<g id="edge42_Node000020_Node000016" class="edge">
<title>Node20&#45;&gt;Node16</title>
<g id="a_edge42_Node000020_Node000016"><a xlink:title=" ">
<path fill="none" stroke="#63b8ff" d="M1646.13,-388.24C1703.23,-376.02 1773.92,-360.88 1829.24,-349.04"/>
<polygon fill="#63b8ff" stroke="#63b8ff" points="1645.04,-384.89 1636,-390.41 1646.51,-391.74 1645.04,-384.89"/>
</a>
</g>
</g>
<!-- Node20&#45;&gt;Node19 -->
<g id="edge46_Node000020_Node000019" class="edge">
<title>Node20&#45;&gt;Node19</title>
<g id="a_edge46_Node000020_Node000019"><a xlink:title=" ">
<path fill="none" stroke="#63b8ff" d="M1435.02,-390.41C1360.49,-377.08 1262.76,-359.6 1191.12,-346.78"/>
<polygon fill="#63b8ff" stroke="#63b8ff" points="1434.45,-393.87 1444.91,-392.18 1435.68,-386.98 1434.45,-393.87"/>
</a>
</g>
</g>
<!-- Node20&#45;&gt;Node21 -->
<g id="edge43_Node000020_Node000021" class="edge">
<title>Node20&#45;&gt;Node21</title>
<g id="a_edge43_Node000020_Node000021"><a xlink:title=" ">
<path fill="none" stroke="#63b8ff" d="M1533.16,-380.67C1523.12,-358.11 1506.48,-327.59 1483.5,-308 1464.91,-292.16 1441.23,-280.46 1418.71,-272.01"/>
<polygon fill="#63b8ff" stroke="#63b8ff" points="1530.04,-382.27 1537.18,-390.1 1536.48,-379.53 1530.04,-382.27"/>
</a>
</g>
</g>
<!-- Node20&#45;&gt;Node22 -->
<g id="edge48_Node000020_Node000022" class="edge">
<title>Node20&#45;&gt;Node22</title>
<g id="a_edge48_Node000020_Node000022"><a xlink:title=" ">
<path fill="none" stroke="#63b8ff" d="M1486.44,-386.63C1456.81,-374.71 1421.19,-360.37 1393.04,-349.04"/>
<polygon fill="#63b8ff" stroke="#63b8ff" points="1485.25,-389.92 1495.83,-390.41 1487.86,-383.43 1485.25,-389.92"/>
</a>
</g>
</g>
<!-- Node20&#45;&gt;Node23 -->
<g id="edge51_Node000020_Node000023" class="edge">
<title>Node20&#45;&gt;Node23</title>
<g id="a_edge51_Node000020_Node000023"><a xlink:title=" ">
<path fill="none" stroke="#63b8ff" d="M1547.92,-380.26C1550.87,-359.57 1556.04,-331.58 1564.5,-308 1568.98,-295.53 1575.92,-282.44 1582.01,-272.12"/>
<polygon fill="#63b8ff" stroke="#63b8ff" points="1544.42,-379.98 1546.57,-390.36 1551.36,-380.91 1544.42,-379.98"/>
</a>
</g>
</g>
<!-- Node21&#45;&gt;Node4 -->
<g id="edge44_Node000021_Node000004" class="edge">
<title>Node21&#45;&gt;Node4</title>
<g id="a_edge44_Node000021_Node000004"><a xlink:title=" ">
<path fill="none" stroke="#63b8ff" d="M1451.34,-236C1463.86,-234.31 1476.46,-232.61 1488.5,-231 1599.05,-216.19 1726.03,-199.4 1810.97,-188.21"/>
<polygon fill="#63b8ff" stroke="#63b8ff" points="1450.76,-232.54 1441.32,-237.35 1451.7,-239.48 1450.76,-232.54"/>
</a>
</g>
</g>
<!-- Node21&#45;&gt;Node7 -->
<g id="edge45_Node000021_Node000007" class="edge">
<title>Node21&#45;&gt;Node7</title>
<g id="a_edge45_Node000021_Node000007"><a xlink:title=" ">
<path fill="none" stroke="#63b8ff" d="M1367.64,-222.95C1375.41,-213.7 1383.91,-203.58 1391.06,-195.07"/>
<polygon fill="#63b8ff" stroke="#63b8ff" points="1364.8,-220.89 1361.05,-230.79 1370.16,-225.39 1364.8,-220.89"/>
</a>
</g>
</g>
<!-- Node22&#45;&gt;Node7 -->
<g id="edge49_Node000022_Node000007" class="edge">
<title>Node22&#45;&gt;Node7</title>
<g id="a_edge49_Node000022_Node000007"><a xlink:title=" ">
<path fill="none" stroke="#63b8ff" d="M1271.93,-303.12C1258.62,-295.29 1246.44,-285.12 1238.5,-272 1229.07,-256.41 1227.81,-245.76 1238.5,-231 1255.53,-207.49 1282.83,-193.76 1310.58,-185.8"/>
<polygon fill="#63b8ff" stroke="#63b8ff" points="1270.34,-306.24 1280.8,-307.93 1273.68,-300.09 1270.34,-306.24"/>
</a>
</g>
</g>
<!-- Node22&#45;&gt;Node13 -->
<g id="edge50_Node000022_Node000013" class="edge">
<title>Node22&#45;&gt;Node13</title>
<g id="a_edge50_Node000022_Node000013"><a xlink:title=" ">
<path fill="none" stroke="#63b8ff" d="M1257.05,-305.49C1139.19,-275.83 931.16,-223.48 818.41,-195.11"/>
<polygon fill="#63b8ff" stroke="#63b8ff" points="1256.22,-308.89 1266.77,-307.94 1257.93,-302.11 1256.22,-308.89"/>
</a>
</g>
</g>
<!-- Node23&#45;&gt;Node4 -->
<g id="edge52_Node000023_Node000004" class="edge">
<title>Node23&#45;&gt;Node4</title>
<g id="a_edge52_Node000023_Node000004"><a xlink:title=" ">
<path fill="none" stroke="#63b8ff" d="M1685.82,-228.62C1730.16,-217.99 1782.98,-205.34 1825.94,-195.04"/>
<polygon fill="#63b8ff" stroke="#63b8ff" points="1684.83,-225.26 1675.92,-230.99 1686.46,-232.06 1684.83,-225.26"/>
</a>
</g>
</g>
<!-- Node23&#45;&gt;Node7 -->
<g id="edge53_Node000023_Node000007" class="edge">
<title>Node23&#45;&gt;Node7</title>
<g id="a_edge53_Node000023_Node000007"><a xlink:title=" ">
<path fill="none" stroke="#63b8ff" d="M1536.57,-227.27C1510.81,-216.94 1480.81,-204.9 1456.22,-195.04"/>
<polygon fill="#63b8ff" stroke="#63b8ff" points="1535.27,-230.52 1545.86,-230.99 1537.88,-224.02 1535.27,-230.52"/>
</a>
</g>
</g>
<!-- Node24&#45;&gt;Node10 -->
<g id="edge55_Node000024_Node000010" class="edge">
<title>Node24&#45;&gt;Node10</title>
<g id="a_edge55_Node000024_Node000010"><a xlink:title=" ">
<path fill="none" stroke="#63b8ff" d="M1079.18,-382.36C1038.57,-371.39 992.8,-359.03 955.75,-349.02"/>
<polygon fill="#63b8ff" stroke="#63b8ff" points="1078.28,-385.74 1088.84,-384.97 1080.1,-378.98 1078.28,-385.74"/>
</a>
</g>
</g>
<!-- Node24&#45;&gt;Node22 -->
<g id="edge56_Node000024_Node000022" class="edge">
<title>Node24&#45;&gt;Node22</title>
<g id="a_edge56_Node000024_Node000022"><a xlink:title=" ">
<path fill="none" stroke="#63b8ff" d="M1241.43,-380.4C1262.62,-369.94 1285.91,-358.43 1304.98,-349.02"/>
<polygon fill="#63b8ff" stroke="#63b8ff" points="1239.6,-377.4 1232.18,-384.97 1242.7,-383.68 1239.6,-377.4"/>
</a>
</g>
</g>
<!-- Node25&#45;&gt;Node3 -->
<g id="edge64_Node000025_Node000003" class="edge">
<title>Node25&#45;&gt;Node3</title>
<g id="a_edge64_Node000025_Node000003"><a xlink:title=" ">
<path fill="none" stroke="#63b8ff" d="M2195.16,-380.74C2182.21,-349.61 2164.5,-298.61 2164.5,-252.5 2164.5,-252.5 2164.5,-252.5 2164.5,-173.5 2164.5,-26.87 1050.87,-19.62 712.1,-20.8"/>
<polygon fill="#63b8ff" stroke="#63b8ff" points="2192.02,-382.29 2199.17,-390.11 2198.46,-379.54 2192.02,-382.29"/>
</a>
</g>
</g>
</g>
</svg>
