<?xml version="1.0" encoding="UTF-8" standalone="no"?>
<!DOCTYPE svg PUBLIC "-//W3C//DTD SVG 1.1//EN"
 "http://www.w3.org/Graphics/SVG/1.1/DTD/svg11.dtd">
<!-- Generated by graphviz version 2.43.0 (0)
 -->
<!-- Title: /home/runner/work/open62541pp/open62541pp/include/open62541pp/types/NodeId.h Pages: 1 -->
<svg width="1096pt" height="357pt"
 viewBox="0.00 0.00 1096.10 357.00" xmlns="http://www.w3.org/2000/svg" xmlns:xlink="http://www.w3.org/1999/xlink">
<g id="graph0" class="graph" transform="scale(1 1) rotate(0) translate(4 353)">
<title>/home/runner/work/open62541pp/open62541pp/include/open62541pp/types/NodeId.h</title>
<!-- Node1 -->
<g id="node1" class="node">
<title>Node1</title>
<g id="a_node1"><a xlink:title=" ">
<polygon fill="#999999" stroke="#666666" points="587.1,-349 394.1,-349 394.1,-308 587.1,-308 587.1,-349"/>
<text text-anchor="start" x="402.1" y="-337" font-family="Helvetica,sans-Serif" font-size="10.00">/home/runner/work/open62541pp</text>
<text text-anchor="start" x="402.1" y="-326" font-family="Helvetica,sans-Serif" font-size="10.00">/open62541pp/include/open62541pp</text>
<text text-anchor="middle" x="490.6" y="-315" font-family="Helvetica,sans-Serif" font-size="10.00">/types/NodeId.h</text>
</a>
</g>
</g>
<!-- Node2 -->
<g id="node2" class="node">
<title>Node2</title>
<g id="a_node2"><a xlink:href="Client_8h.html" target="_top" xlink:title=" ">
<polygon fill="white" stroke="#666666" points="462.1,-195 269.1,-195 269.1,-154 462.1,-154 462.1,-195"/>
<text text-anchor="start" x="277.1" y="-183" font-family="Helvetica,sans-Serif" font-size="10.00">/home/runner/work/open62541pp</text>
<text text-anchor="start" x="277.1" y="-172" font-family="Helvetica,sans-Serif" font-size="10.00">/open62541pp/include/open62541pp</text>
<text text-anchor="middle" x="365.6" y="-161" font-family="Helvetica,sans-Serif" font-size="10.00">/Client.h</text>
</a>
</g>
</g>
<!-- Node1&#45;&gt;Node2 -->
<g id="edge1" class="edge">
<title>Node1&#45;&gt;Node2</title>
<path fill="none" stroke="#63b8ff" d="M423.5,-303.29C409.16,-295.31 395.39,-285.04 385.6,-272 368.74,-249.57 365.27,-216.27 364.96,-195.24"/>
<polygon fill="#63b8ff" stroke="#63b8ff" points="421.99,-306.46 432.48,-307.97 425.23,-300.25 421.99,-306.46"/>
</g>
<!-- Node3 -->
<g id="node3" class="node">
<title>Node3</title>
<g id="a_node3"><a xlink:href="open62541pp_8h.html" target="_top" xlink:title=" ">
<polygon fill="white" stroke="#666666" points="462.1,-41 269.1,-41 269.1,0 462.1,0 462.1,-41"/>
<text text-anchor="start" x="277.1" y="-29" font-family="Helvetica,sans-Serif" font-size="10.00">/home/runner/work/open62541pp</text>
<text text-anchor="start" x="277.1" y="-18" font-family="Helvetica,sans-Serif" font-size="10.00">/open62541pp/include/open62541pp</text>
<text text-anchor="middle" x="365.6" y="-7" font-family="Helvetica,sans-Serif" font-size="10.00">/open62541pp.h</text>
</a>
</g>
</g>
<!-- Node1&#45;&gt;Node3 -->
<g id="edge11" class="edge">
<title>Node1&#45;&gt;Node3</title>
<path fill="none" stroke="#63b8ff" d="M383.69,-325.94C305.62,-321.5 198.64,-308.4 111.6,-272 59.19,-250.09 34.92,-245.84 9.6,-195 -44.62,-86.14 146.02,-44.89 269.05,-29.78"/>
<polygon fill="#63b8ff" stroke="#63b8ff" points="383.86,-329.46 394.03,-326.49 384.23,-322.47 383.86,-329.46"/>
</g>
<!-- Node4 -->
<g id="node4" class="node">
<title>Node4</title>
<g id="a_node4"><a xlink:href="Node_8h.html" target="_top" xlink:title=" ">
<polygon fill="white" stroke="#666666" points="926.6,-195 730.6,-195 730.6,-154 926.6,-154 926.6,-195"/>
<text text-anchor="start" x="738.6" y="-183" font-family="Helvetica,sans-Serif" font-size="10.00">/home/runner/work/open62541pp</text>
<text text-anchor="start" x="738.6" y="-172" font-family="Helvetica,sans-Serif" font-size="10.00">/open62541pp/include/open62541pp/</text>
<text text-anchor="middle" x="828.6" y="-161" font-family="Helvetica,sans-Serif" font-size="10.00">Node.h</text>
</a>
</g>
</g>
<!-- Node1&#45;&gt;Node4 -->
<g id="edge3" class="edge">
<title>Node1&#45;&gt;Node4</title>
<path fill="none" stroke="#63b8ff" d="M551.96,-304.04C573.52,-294.98 597.59,-283.93 618.6,-272 645.73,-256.59 648,-245.57 675.6,-231 702.96,-216.55 734.9,-204.31 762.51,-195.03"/>
<polygon fill="#63b8ff" stroke="#63b8ff" points="550.48,-300.87 542.58,-307.93 553.16,-307.33 550.48,-300.87"/>
</g>
<!-- Node5 -->
<g id="node5" class="node">
<title>Node5</title>
<g id="a_node5"><a xlink:href="Server_8h.html" target="_top" xlink:title=" ">
<polygon fill="white" stroke="#666666" points="212.1,-195 19.1,-195 19.1,-154 212.1,-154 212.1,-195"/>
<text text-anchor="start" x="27.1" y="-183" font-family="Helvetica,sans-Serif" font-size="10.00">/home/runner/work/open62541pp</text>
<text text-anchor="start" x="27.1" y="-172" font-family="Helvetica,sans-Serif" font-size="10.00">/open62541pp/include/open62541pp</text>
<text text-anchor="middle" x="115.6" y="-161" font-family="Helvetica,sans-Serif" font-size="10.00">/Server.h</text>
</a>
</g>
</g>
<!-- Node1&#45;&gt;Node5 -->
<g id="edge5" class="edge">
<title>Node1&#45;&gt;Node5</title>
<path fill="none" stroke="#63b8ff" d="M383.87,-324.06C292.21,-318.8 169.48,-305.53 134.6,-272 114.04,-252.24 112.21,-217.2 113.43,-195.22"/>
<polygon fill="#63b8ff" stroke="#63b8ff" points="383.87,-327.56 394.04,-324.61 384.25,-320.57 383.87,-327.56"/>
</g>
<!-- Node6 -->
<g id="node6" class="node">
<title>Node6</title>
<g id="a_node6"><a xlink:href="Subscription_8h.html" target="_top" xlink:title=" ">
<polygon fill="white" stroke="#666666" points="337.1,-272 144.1,-272 144.1,-231 337.1,-231 337.1,-272"/>
<text text-anchor="start" x="152.1" y="-260" font-family="Helvetica,sans-Serif" font-size="10.00">/home/runner/work/open62541pp</text>
<text text-anchor="start" x="152.1" y="-249" font-family="Helvetica,sans-Serif" font-size="10.00">/open62541pp/include/open62541pp</text>
<text text-anchor="middle" x="240.6" y="-238" font-family="Helvetica,sans-Serif" font-size="10.00">/Subscription.h</text>
</a>
</g>
</g>
<!-- Node1&#45;&gt;Node6 -->
<g id="edge7" class="edge">
<title>Node1&#45;&gt;Node6</title>
<path fill="none" stroke="#63b8ff" d="M415.86,-305.08C380.83,-294.57 339.47,-282.16 305.74,-272.04"/>
<polygon fill="#63b8ff" stroke="#63b8ff" points="414.98,-308.47 425.56,-307.99 416.99,-301.76 414.98,-308.47"/>
</g>
<!-- Node7 -->
<g id="node7" class="node">
<title>Node7</title>
<g id="a_node7"><a xlink:href="Attribute_8h.html" target="_top" xlink:title=" ">
<polygon fill="white" stroke="#666666" points="1088.1,-272 895.1,-272 895.1,-231 1088.1,-231 1088.1,-272"/>
<text text-anchor="start" x="903.1" y="-260" font-family="Helvetica,sans-Serif" font-size="10.00">/home/runner/work/open62541pp</text>
<text text-anchor="start" x="903.1" y="-249" font-family="Helvetica,sans-Serif" font-size="10.00">/open62541pp/include/open62541pp</text>
<text text-anchor="middle" x="991.6" y="-238" font-family="Helvetica,sans-Serif" font-size="10.00">/services/Attribute.h</text>
</a>
</g>
</g>
<!-- Node1&#45;&gt;Node7 -->
<g id="edge12" class="edge">
<title>Node1&#45;&gt;Node7</title>
<path fill="none" stroke="#63b8ff" d="M597.27,-313.85C677.08,-303.33 788.85,-287.92 886.6,-272 889.34,-271.55 892.12,-271.09 894.93,-270.62"/>
<polygon fill="#63b8ff" stroke="#63b8ff" points="596.66,-310.4 587.2,-315.18 597.58,-317.34 596.66,-310.4"/>
</g>
<!-- Node9 -->
<g id="node9" class="node">
<title>Node9</title>
<g id="a_node9"><a xlink:href="NodeManagement_8h.html" target="_top" xlink:title=" ">
<polygon fill="white" stroke="#666666" points="877.1,-272 684.1,-272 684.1,-231 877.1,-231 877.1,-272"/>
<text text-anchor="start" x="692.1" y="-260" font-family="Helvetica,sans-Serif" font-size="10.00">/home/runner/work/open62541pp</text>
<text text-anchor="start" x="692.1" y="-249" font-family="Helvetica,sans-Serif" font-size="10.00">/open62541pp/include/open62541pp</text>
<text text-anchor="middle" x="780.6" y="-238" font-family="Helvetica,sans-Serif" font-size="10.00">/services/NodeManagement.h</text>
</a>
</g>
</g>
<!-- Node1&#45;&gt;Node9 -->
<g id="edge16" class="edge">
<title>Node1&#45;&gt;Node9</title>
<path fill="none" stroke="#63b8ff" d="M575.73,-305.48C616.69,-294.89 665.4,-282.29 705.03,-272.04"/>
<polygon fill="#63b8ff" stroke="#63b8ff" points="574.84,-302.1 566.03,-307.99 576.59,-308.88 574.84,-302.1"/>
</g>
<!-- Node10 -->
<g id="node10" class="node">
<title>Node10</title>
<g id="a_node10"><a xlink:href="View_8h.html" target="_top" xlink:title=" ">
<polygon fill="white" stroke="#666666" points="712.1,-195 519.1,-195 519.1,-154 712.1,-154 712.1,-195"/>
<text text-anchor="start" x="527.1" y="-183" font-family="Helvetica,sans-Serif" font-size="10.00">/home/runner/work/open62541pp</text>
<text text-anchor="start" x="527.1" y="-172" font-family="Helvetica,sans-Serif" font-size="10.00">/open62541pp/include/open62541pp</text>
<text text-anchor="middle" x="615.6" y="-161" font-family="Helvetica,sans-Serif" font-size="10.00">/services/View.h</text>
</a>
</g>
</g>
<!-- Node1&#45;&gt;Node10 -->
<g id="edge19" class="edge">
<title>Node1&#45;&gt;Node10</title>
<path fill="none" stroke="#63b8ff" d="M558.87,-303.23C573.18,-295.27 586.87,-285.03 596.6,-272 613.35,-249.56 616.44,-216.27 616.49,-195.24"/>
<polygon fill="#63b8ff" stroke="#63b8ff" points="557.16,-300.17 549.9,-307.88 560.39,-306.38 557.16,-300.17"/>
</g>
<!-- Node11 -->
<g id="node11" class="node">
<title>Node11</title>
<g id="a_node11"><a xlink:href="Composed_8h.html" target="_top" xlink:title=" ">
<polygon fill="white" stroke="#666666" points="587.1,-272 394.1,-272 394.1,-231 587.1,-231 587.1,-272"/>
<text text-anchor="start" x="402.1" y="-260" font-family="Helvetica,sans-Serif" font-size="10.00">/home/runner/work/open62541pp</text>
<text text-anchor="start" x="402.1" y="-249" font-family="Helvetica,sans-Serif" font-size="10.00">/open62541pp/include/open62541pp</text>
<text text-anchor="middle" x="490.6" y="-238" font-family="Helvetica,sans-Serif" font-size="10.00">/types/Composed.h</text>
</a>
</g>
</g>
<!-- Node1&#45;&gt;Node11 -->
<g id="edge21" class="edge">
<title>Node1&#45;&gt;Node11</title>
<path fill="none" stroke="#63b8ff" d="M490.6,-297.69C490.6,-289.08 490.6,-279.9 490.6,-272.07"/>
<polygon fill="#63b8ff" stroke="#63b8ff" points="487.1,-297.79 490.6,-307.79 494.1,-297.79 487.1,-297.79"/>
</g>
<!-- Node2&#45;&gt;Node3 -->
<g id="edge2" class="edge">
<title>Node2&#45;&gt;Node3</title>
<path fill="none" stroke="#63b8ff" d="M365.6,-143.58C365.6,-113.36 365.6,-67.53 365.6,-41.47"/>
<polygon fill="#63b8ff" stroke="#63b8ff" points="362.1,-143.94 365.6,-153.94 369.1,-143.94 362.1,-143.94"/>
</g>
<!-- Node4&#45;&gt;Node3 -->
<g id="edge4" class="edge">
<title>Node4&#45;&gt;Node3</title>
<path fill="none" stroke="#63b8ff" d="M759.37,-150.77C668.65,-120.99 511.05,-69.25 425.31,-41.11"/>
<polygon fill="#63b8ff" stroke="#63b8ff" points="758.42,-154.15 769.01,-153.94 760.6,-147.5 758.42,-154.15"/>
</g>
<!-- Node5&#45;&gt;Node3 -->
<g id="edge6" class="edge">
<title>Node5&#45;&gt;Node3</title>
<path fill="none" stroke="#63b8ff" d="M141.14,-146.8C162.45,-125.7 194.42,-96.63 226.6,-77 250.55,-62.39 279.04,-50.22 303.96,-41.05"/>
<polygon fill="#63b8ff" stroke="#63b8ff" points="138.64,-144.35 134.07,-153.91 143.6,-149.29 138.64,-144.35"/>
</g>
<!-- Node6&#45;&gt;Node2 -->
<g id="edge8" class="edge">
<title>Node6&#45;&gt;Node2</title>
<path fill="none" stroke="#63b8ff" d="M282.02,-225.64C298.53,-215.74 317.27,-204.5 332.81,-195.17"/>
<polygon fill="#63b8ff" stroke="#63b8ff" points="279.89,-222.84 273.11,-230.99 283.49,-228.85 279.89,-222.84"/>
</g>
<!-- Node6&#45;&gt;Node3 -->
<g id="edge10" class="edge">
<title>Node6&#45;&gt;Node3</title>
<path fill="none" stroke="#63b8ff" d="M242.77,-220.58C245.08,-200.92 249.83,-175.04 259.6,-154 280.56,-108.84 320.04,-65.56 344.45,-41.36"/>
<polygon fill="#63b8ff" stroke="#63b8ff" points="239.26,-220.49 241.72,-230.8 246.22,-221.21 239.26,-220.49"/>
</g>
<!-- Node6&#45;&gt;Node5 -->
<g id="edge9" class="edge">
<title>Node6&#45;&gt;Node5</title>
<path fill="none" stroke="#63b8ff" d="M199.17,-225.64C182.66,-215.74 163.92,-204.5 148.38,-195.17"/>
<polygon fill="#63b8ff" stroke="#63b8ff" points="197.7,-228.85 208.08,-230.99 201.31,-222.84 197.7,-228.85"/>
</g>
<!-- Node7&#45;&gt;Node4 -->
<g id="edge13" class="edge">
<title>Node7&#45;&gt;Node4</title>
<path fill="none" stroke="#63b8ff" d="M939.92,-226.72C917.73,-216.51 892.12,-204.73 871.07,-195.04"/>
<polygon fill="#63b8ff" stroke="#63b8ff" points="938.65,-229.99 949.19,-230.99 941.57,-223.63 938.65,-229.99"/>
</g>
<!-- Node8 -->
<g id="node8" class="node">
<title>Node8</title>
<g id="a_node8"><a xlink:href="services_8h.html" target="_top" xlink:title=" ">
<polygon fill="white" stroke="#666666" points="975.1,-118 782.1,-118 782.1,-77 975.1,-77 975.1,-118"/>
<text text-anchor="start" x="790.1" y="-106" font-family="Helvetica,sans-Serif" font-size="10.00">/home/runner/work/open62541pp</text>
<text text-anchor="start" x="790.1" y="-95" font-family="Helvetica,sans-Serif" font-size="10.00">/open62541pp/include/open62541pp</text>
<text text-anchor="middle" x="878.6" y="-84" font-family="Helvetica,sans-Serif" font-size="10.00">/services/services.h</text>
</a>
</g>
</g>
<!-- Node7&#45;&gt;Node8 -->
<g id="edge14" class="edge">
<title>Node7&#45;&gt;Node8</title>
<path fill="none" stroke="#63b8ff" d="M984.26,-221.12C978.16,-200.82 967.96,-173.97 952.6,-154 941.73,-139.87 926.37,-127.56 912.46,-118.15"/>
<polygon fill="#63b8ff" stroke="#63b8ff" points="980.9,-222.13 987,-230.79 987.64,-220.21 980.9,-222.13"/>
</g>
<!-- Node8&#45;&gt;Node3 -->
<g id="edge15" class="edge">
<title>Node8&#45;&gt;Node3</title>
<path fill="none" stroke="#63b8ff" d="M771.72,-80.87C680.54,-67.54 550.57,-48.54 462.41,-35.65"/>
<polygon fill="#63b8ff" stroke="#63b8ff" points="771.4,-84.37 781.8,-82.35 772.41,-77.44 771.4,-84.37"/>
</g>
<!-- Node9&#45;&gt;Node4 -->
<g id="edge17" class="edge">
<title>Node9&#45;&gt;Node4</title>
<path fill="none" stroke="#63b8ff" d="M798.77,-222.11C804.54,-213.09 810.79,-203.33 816.07,-195.07"/>
<polygon fill="#63b8ff" stroke="#63b8ff" points="795.65,-220.49 793.21,-230.79 801.55,-224.26 795.65,-220.49"/>
</g>
<!-- Node9&#45;&gt;Node8 -->
<g id="edge18" class="edge">
<title>Node9&#45;&gt;Node8</title>
<path fill="none" stroke="#63b8ff" d="M870.4,-227.95C899.74,-218.64 927.02,-207.18 935.6,-195 946.09,-180.1 942.68,-170.79 935.6,-154 929.63,-139.88 918.13,-127.57 907,-118.15"/>
<polygon fill="#63b8ff" stroke="#63b8ff" points="869.35,-224.61 860.82,-230.89 871.41,-231.3 869.35,-224.61"/>
</g>
<!-- Node10&#45;&gt;Node8 -->
<g id="edge20" class="edge">
<title>Node10&#45;&gt;Node8</title>
<path fill="none" stroke="#63b8ff" d="M693.74,-151.21C730.7,-140.68 774.42,-128.21 810.07,-118.04"/>
<polygon fill="#63b8ff" stroke="#63b8ff" points="692.67,-147.88 684.01,-153.99 694.59,-154.61 692.67,-147.88"/>
</g>
<!-- Node11&#45;&gt;Node2 -->
<g id="edge22" class="edge">
<title>Node11&#45;&gt;Node2</title>
<path fill="none" stroke="#63b8ff" d="M449.17,-225.64C432.66,-215.74 413.92,-204.5 398.38,-195.17"/>
<polygon fill="#63b8ff" stroke="#63b8ff" points="447.7,-228.85 458.08,-230.99 451.31,-222.84 447.7,-228.85"/>
</g>
<!-- Node11&#45;&gt;Node3 -->
<g id="edge24" class="edge">
<title>Node11&#45;&gt;Node3</title>
<path fill="none" stroke="#63b8ff" d="M488.42,-220.58C486.11,-200.92 481.36,-175.04 471.6,-154 450.63,-108.84 411.15,-65.56 386.74,-41.36"/>
<polygon fill="#63b8ff" stroke="#63b8ff" points="484.97,-221.21 489.47,-230.8 491.93,-220.49 484.97,-221.21"/>
</g>
<!-- Node11&#45;&gt;Node4 -->
<g id="edge23" class="edge">
<title>Node11&#45;&gt;Node4</title>
<path fill="none" stroke="#63b8ff" d="M588.31,-228.82C636.37,-218.15 693.84,-205.4 740.53,-195.04"/>
<polygon fill="#63b8ff" stroke="#63b8ff" points="587.52,-225.41 578.52,-230.99 589.04,-232.24 587.52,-225.41"/>
</g>
<!-- Node11&#45;&gt;Node10 -->
<g id="edge25" class="edge">
<title>Node11&#45;&gt;Node10</title>
<path fill="none" stroke="#63b8ff" d="M532.02,-225.64C548.53,-215.74 567.27,-204.5 582.81,-195.17"/>
<polygon fill="#63b8ff" stroke="#63b8ff" points="529.89,-222.84 523.11,-230.99 533.49,-228.85 529.89,-222.84"/>
</g>
</g>
</svg>
