<?xml version="1.0" encoding="UTF-8" standalone="no"?>
<!DOCTYPE svg PUBLIC "-//W3C//DTD SVG 1.1//EN"
 "http://www.w3.org/Graphics/SVG/1.1/DTD/svg11.dtd">
<!-- Generated by graphviz version 2.43.0 (0)
 -->
<!-- Title: /home/runner/work/open62541pp/open62541pp/include/open62541pp/types/NodeId.h Pages: 1 -->
<svg width="1381pt" height="401pt"
 viewBox="0.00 0.00 1380.50 401.00" xmlns="http://www.w3.org/2000/svg" xmlns:xlink="http://www.w3.org/1999/xlink">
<g id="graph0" class="graph" transform="scale(1 1) rotate(0) translate(4 397)">
<title>/home/runner/work/open62541pp/open62541pp/include/open62541pp/types/NodeId.h</title>
<!-- Node1 -->
<g id="Node000001" class="node">
<title>Node1</title>
<g id="a_Node000001"><a xlink:title=" ">
<polygon fill="#999999" stroke="#666666" points="681,-393 488,-393 488,-352 681,-352 681,-393"/>
<text text-anchor="start" x="496" y="-381" font-family="Helvetica,sans-Serif" font-size="10.00">/home/runner/work/open62541pp</text>
<text text-anchor="start" x="496" y="-370" font-family="Helvetica,sans-Serif" font-size="10.00">/open62541pp/include/open62541pp</text>
<text text-anchor="middle" x="584.5" y="-359" font-family="Helvetica,sans-Serif" font-size="10.00">/types/NodeId.h</text>
</a>
</g>
</g>
<!-- Node2 -->
<g id="Node000002" class="node">
<title>Node2</title>
<g id="a_Node000002"><a xlink:title=" ">
<polygon fill="#e0e0e0" stroke="#999999" points="53,-316 0,-316 0,-297 53,-297 53,-316"/>
<text text-anchor="middle" x="26.5" y="-304" font-family="Helvetica,sans-Serif" font-size="10.00">cstddef</text>
</a>
</g>
</g>
<!-- Node1&#45;&gt;Node2 -->
<g id="edge1_Node000001_Node000002" class="edge">
<title>Node1&#45;&gt;Node2</title>
<g id="a_edge1_Node000001_Node000002"><a xlink:title=" ">
<path fill="none" stroke="#63b8ff" d="M487.89,-363.96C383.76,-355.18 213.31,-338.89 67.5,-316 66.21,-315.8 64.89,-315.58 63.57,-315.35"/>
<polygon fill="#63b8ff" stroke="#63b8ff" points="63.81,-311.84 53.34,-313.45 62.53,-318.72 63.81,-311.84"/>
</a>
</g>
</g>
<!-- Node3 -->
<g id="Node000003" class="node">
<title>Node3</title>
<g id="a_Node000003"><a xlink:title=" ">
<polygon fill="#e0e0e0" stroke="#999999" points="163.5,-79.5 113.5,-79.5 113.5,-60.5 163.5,-60.5 163.5,-79.5"/>
<text text-anchor="middle" x="138.5" y="-67.5" font-family="Helvetica,sans-Serif" font-size="10.00">cstdint</text>
</a>
</g>
</g>
<!-- Node1&#45;&gt;Node3 -->
<g id="edge2_Node000001_Node000003" class="edge">
<title>Node1&#45;&gt;Node3</title>
<g id="a_edge2_Node000001_Node000003"><a xlink:title=" ">
<path fill="none" stroke="#63b8ff" d="M487.81,-368.16C341.7,-360.45 81.5,-335.11 81.5,-252.5 81.5,-252.5 81.5,-252.5 81.5,-190 81.5,-150.14 107.84,-109.48 124.71,-87.53"/>
<polygon fill="#63b8ff" stroke="#63b8ff" points="127.55,-89.57 131.05,-79.57 122.08,-85.21 127.55,-89.57"/>
</a>
</g>
</g>
<!-- Node4 -->
<g id="Node000004" class="node">
<title>Node4</title>
<g id="a_Node000004"><a xlink:title=" ">
<polygon fill="#e0e0e0" stroke="#999999" points="1036,-140 971,-140 971,-121 1036,-121 1036,-140"/>
<text text-anchor="middle" x="1003.5" y="-128" font-family="Helvetica,sans-Serif" font-size="10.00">functional</text>
</a>
</g>
</g>
<!-- Node1&#45;&gt;Node4 -->
<g id="edge3_Node000001_Node000004" class="edge">
<title>Node1&#45;&gt;Node4</title>
<g id="a_edge3_Node000001_Node000004"><a xlink:title=" ">
<path fill="none" stroke="#63b8ff" d="M681.14,-353.18C721,-344.16 767.2,-331.79 807.5,-316 901.96,-279 955.87,-293.32 1007.5,-206 1017.57,-188.97 1014.2,-165.74 1009.84,-149.77"/>
<polygon fill="#63b8ff" stroke="#63b8ff" points="1013.13,-148.55 1006.82,-140.04 1006.44,-150.63 1013.13,-148.55"/>
</a>
</g>
</g>
<!-- Node5 -->
<g id="Node000005" class="node">
<title>Node5</title>
<g id="a_Node000005"><a xlink:title=" ">
<polygon fill="#e0e0e0" stroke="#999999" points="792.5,-140 748.5,-140 748.5,-121 792.5,-121 792.5,-140"/>
<text text-anchor="middle" x="770.5" y="-128" font-family="Helvetica,sans-Serif" font-size="10.00">string</text>
</a>
</g>
</g>
<!-- Node1&#45;&gt;Node5 -->
<g id="edge4_Node000001_Node000005" class="edge">
<title>Node1&#45;&gt;Node5</title>
<g id="a_edge4_Node000001_Node000005"><a xlink:title=" ">
<path fill="none" stroke="#63b8ff" d="M681.08,-356.76C737.33,-342.57 803.48,-314.86 836.5,-261 849.05,-240.53 806.46,-178.93 783.78,-148.66"/>
<polygon fill="#63b8ff" stroke="#63b8ff" points="786.31,-146.19 777.47,-140.35 780.74,-150.43 786.31,-146.19"/>
</a>
</g>
</g>
<!-- Node6 -->
<g id="Node000006" class="node">
<title>Node6</title>
<g id="a_Node000006"><a xlink:title=" ">
<polygon fill="#e0e0e0" stroke="#999999" points="493,-79.5 420,-79.5 420,-60.5 493,-60.5 493,-79.5"/>
<text text-anchor="middle" x="456.5" y="-67.5" font-family="Helvetica,sans-Serif" font-size="10.00">string_view</text>
</a>
</g>
</g>
<!-- Node1&#45;&gt;Node6 -->
<g id="edge5_Node000001_Node000006" class="edge">
<title>Node1&#45;&gt;Node6</title>
<g id="a_edge5_Node000001_Node000006"><a xlink:title=" ">
<path fill="none" stroke="#63b8ff" d="M487.87,-365.26C421.9,-354.88 342.6,-328.26 320.5,-261 308.71,-225.11 305.37,-211.04 319.5,-176 338.15,-129.77 390.42,-99.28 424.73,-83.6"/>
<polygon fill="#63b8ff" stroke="#63b8ff" points="426.15,-86.8 433.89,-79.57 423.33,-80.39 426.15,-86.8"/>
</a>
</g>
</g>
<!-- Node7 -->
<g id="Node000007" class="node">
<title>Node7</title>
<g id="a_Node000007"><a xlink:title=" ">
<polygon fill="#e0e0e0" stroke="#999999" points="1220,-316 1169,-316 1169,-297 1220,-297 1220,-316"/>
<text text-anchor="middle" x="1194.5" y="-304" font-family="Helvetica,sans-Serif" font-size="10.00">variant</text>
</a>
</g>
</g>
<!-- Node1&#45;&gt;Node7 -->
<g id="edge6_Node000001_Node000007" class="edge">
<title>Node1&#45;&gt;Node7</title>
<g id="a_edge6_Node000001_Node000007"><a xlink:title=" ">
<path fill="none" stroke="#63b8ff" d="M681.23,-365.41C794.95,-357.48 989.18,-341.53 1154.5,-316 1155.95,-315.78 1157.42,-315.53 1158.91,-315.28"/>
<polygon fill="#63b8ff" stroke="#63b8ff" points="1159.58,-318.71 1168.76,-313.41 1158.28,-311.83 1159.58,-318.71"/>
</a>
</g>
</g>
<!-- Node8 -->
<g id="Node000008" class="node">
<title>Node8</title>
<g id="a_Node000008"><a xlink:href="Common_8h.html" target="_top" xlink:title=" ">
<polygon fill="white" stroke="#666666" points="325,-140 186,-140 186,-121 325,-121 325,-140"/>
<text text-anchor="middle" x="255.5" y="-128" font-family="Helvetica,sans-Serif" font-size="10.00">open62541pp/Common.h</text>
</a>
</g>
</g>
<!-- Node1&#45;&gt;Node8 -->
<g id="edge7_Node000001_Node000008" class="edge">
<title>Node1&#45;&gt;Node8</title>
<g id="a_edge7_Node000001_Node000008"><a xlink:title=" ">
<path fill="none" stroke="#63b8ff" d="M487.58,-370.5C391.36,-367.21 253.44,-355.5 219.5,-316 178.94,-268.81 198.74,-234.66 219.5,-176 223.25,-165.41 230.71,-155.49 237.87,-147.71"/>
<polygon fill="#63b8ff" stroke="#63b8ff" points="240.78,-149.76 245.34,-140.19 235.81,-144.82 240.78,-149.76"/>
</a>
</g>
</g>
<!-- Node12 -->
<g id="Node000012" class="node">
<title>Node12</title>
<g id="a_Node000012"><a xlink:href="open62541_8h.html" target="_top" xlink:title=" ">
<polygon fill="white" stroke="#666666" points="1033,-79.5 884,-79.5 884,-60.5 1033,-60.5 1033,-79.5"/>
<text text-anchor="middle" x="958.5" y="-67.5" font-family="Helvetica,sans-Serif" font-size="10.00">open62541pp/open62541.h</text>
</a>
</g>
</g>
<!-- Node1&#45;&gt;Node12 -->
<g id="edge43_Node000001_Node000012" class="edge">
<title>Node1&#45;&gt;Node12</title>
<g id="a_edge43_Node000001_Node000012"><a xlink:title=" ">
<path fill="none" stroke="#63b8ff" d="M681.03,-370.42C840.25,-366 1140.5,-345.35 1140.5,-252.5 1140.5,-252.5 1140.5,-252.5 1140.5,-190 1140.5,-128.16 1065.98,-96.74 1012.31,-82.12"/>
<polygon fill="#63b8ff" stroke="#63b8ff" points="1013.12,-78.72 1002.56,-79.59 1011.35,-85.49 1013.12,-78.72"/>
</a>
</g>
</g>
<!-- Node18 -->
<g id="Node000018" class="node">
<title>Node18</title>
<g id="a_Node000018"><a xlink:href="NodeIds_8h.html" target="_top" xlink:title=" ">
<polygon fill="white" stroke="#666666" points="1372.5,-316 1238.5,-316 1238.5,-297 1372.5,-297 1372.5,-316"/>
<text text-anchor="middle" x="1305.5" y="-304" font-family="Helvetica,sans-Serif" font-size="10.00">open62541pp/NodeIds.h</text>
</a>
</g>
</g>
<!-- Node1&#45;&gt;Node18 -->
<g id="edge20_Node000001_Node000018" class="edge">
<title>Node1&#45;&gt;Node18</title>
<g id="a_edge20_Node000001_Node000018"><a xlink:title=" ">
<path fill="none" stroke="#63b8ff" d="M681.01,-363.97C805.08,-354.11 1027.49,-335.86 1228.23,-316.1"/>
<polygon fill="#63b8ff" stroke="#63b8ff" points="1228.77,-319.57 1238.37,-315.1 1228.08,-312.6 1228.77,-319.57"/>
</a>
</g>
</g>
<!-- Node19 -->
<g id="Node000019" class="node">
<title>Node19</title>
<g id="a_Node000019"><a xlink:href="TypeWrapper_8h.html" target="_top" xlink:title=" ">
<polygon fill="white" stroke="#666666" points="495.5,-261 337.5,-261 337.5,-242 495.5,-242 495.5,-261"/>
<text text-anchor="middle" x="416.5" y="-249" font-family="Helvetica,sans-Serif" font-size="10.00">open62541pp/TypeWrapper.h</text>
</a>
</g>
</g>
<!-- Node1&#45;&gt;Node19 -->
<g id="edge21_Node000001_Node000019" class="edge">
<title>Node1&#45;&gt;Node19</title>
<g id="a_edge21_Node000001_Node000019"><a xlink:title=" ">
<path fill="none" stroke="#63b8ff" d="M556.76,-351.85C523.14,-328.04 467.28,-288.47 437.2,-267.16"/>
<polygon fill="#63b8ff" stroke="#63b8ff" points="438.93,-264.1 428.75,-261.18 434.88,-269.81 438.93,-264.1"/>
</a>
</g>
</g>
<!-- Node24 -->
<g id="Node000024" class="node">
<title>Node24</title>
<g id="a_Node000024"><a xlink:href="helper_8h.html" target="_top" xlink:title=" ">
<polygon fill="white" stroke="#666666" points="451,-206 338,-206 338,-176 451,-176 451,-206"/>
<text text-anchor="start" x="346" y="-194" font-family="Helvetica,sans-Serif" font-size="10.00">open62541pp/detail</text>
<text text-anchor="middle" x="394.5" y="-183" font-family="Helvetica,sans-Serif" font-size="10.00">/helper.h</text>
</a>
</g>
</g>
<!-- Node1&#45;&gt;Node24 -->
<g id="edge42_Node000001_Node000024" class="edge">
<title>Node1&#45;&gt;Node24</title>
<g id="a_edge42_Node000001_Node000024"><a xlink:title=" ">
<path fill="none" stroke="#63b8ff" d="M487.85,-356.58C431.08,-342.31 363.74,-314.59 328.5,-261 316.31,-242.46 334.92,-224.44 355.45,-211.47"/>
<polygon fill="#63b8ff" stroke="#63b8ff" points="357.46,-214.34 364.28,-206.23 353.89,-208.32 357.46,-214.34"/>
</a>
</g>
</g>
<!-- Node26 -->
<g id="Node000026" class="node">
<title>Node26</title>
<g id="a_Node000026"><a xlink:href="Builtin_8h.html" target="_top" xlink:title=" ">
<polygon fill="white" stroke="#666666" points="719.5,-316 563.5,-316 563.5,-297 719.5,-297 719.5,-316"/>
<text text-anchor="middle" x="641.5" y="-304" font-family="Helvetica,sans-Serif" font-size="10.00">open62541pp/types/Builtin.h</text>
</a>
</g>
</g>
<!-- Node1&#45;&gt;Node26 -->
<g id="edge44_Node000001_Node000026" class="edge">
<title>Node1&#45;&gt;Node26</title>
<g id="a_edge44_Node000001_Node000026"><a xlink:title=" ">
<path fill="none" stroke="#63b8ff" d="M601.91,-351.95C609.95,-342.92 619.38,-332.33 627.02,-323.75"/>
<polygon fill="#63b8ff" stroke="#63b8ff" points="629.66,-326.06 633.7,-316.26 624.43,-321.4 629.66,-326.06"/>
</a>
</g>
</g>
<!-- Node8&#45;&gt;Node3 -->
<g id="edge8_Node000008_Node000003" class="edge">
<title>Node8&#45;&gt;Node3</title>
<g id="a_edge8_Node000008_Node000003"><a xlink:title=" ">
<path fill="none" stroke="#63b8ff" d="M238.49,-120.99C219.08,-111.29 187.11,-95.31 164.56,-84.03"/>
<polygon fill="#63b8ff" stroke="#63b8ff" points="166.04,-80.86 155.53,-79.52 162.91,-87.12 166.04,-80.86"/>
</a>
</g>
</g>
<!-- Node8&#45;&gt;Node6 -->
<g id="edge9_Node000008_Node000006" class="edge">
<title>Node8&#45;&gt;Node6</title>
<g id="a_edge9_Node000008_Node000006"><a xlink:title=" ">
<path fill="none" stroke="#63b8ff" d="M284.73,-120.99C319.71,-110.81 378.43,-93.72 417.32,-82.4"/>
<polygon fill="#63b8ff" stroke="#63b8ff" points="418.61,-85.67 427.24,-79.52 416.66,-78.95 418.61,-85.67"/>
</a>
</g>
</g>
<!-- Node9 -->
<g id="Node000009" class="node">
<title>Node9</title>
<g id="a_Node000009"><a xlink:title=" ">
<polygon fill="#e0e0e0" stroke="#999999" points="319,-19 278,-19 278,0 319,0 319,-19"/>
<text text-anchor="middle" x="298.5" y="-7" font-family="Helvetica,sans-Serif" font-size="10.00">tuple</text>
</a>
</g>
</g>
<!-- Node8&#45;&gt;Node9 -->
<g id="edge10_Node000008_Node000009" class="edge">
<title>Node8&#45;&gt;Node9</title>
<g id="a_edge10_Node000008_Node000009"><a xlink:title=" ">
<path fill="none" stroke="#63b8ff" d="M257.24,-120.59C260.16,-106.41 266.6,-77.98 275.5,-55 279.07,-45.78 284.01,-35.96 288.4,-27.91"/>
<polygon fill="#63b8ff" stroke="#63b8ff" points="291.5,-29.54 293.34,-19.11 285.39,-26.11 291.5,-29.54"/>
</a>
</g>
</g>
<!-- Node10 -->
<g id="Node000010" class="node">
<title>Node10</title>
<g id="a_Node000010"><a xlink:href="traits_8h.html" target="_top" xlink:title=" ">
<polygon fill="white" stroke="#666666" points="397,-85 284,-85 284,-55 397,-55 397,-85"/>
<text text-anchor="start" x="292" y="-73" font-family="Helvetica,sans-Serif" font-size="10.00">open62541pp/detail</text>
<text text-anchor="middle" x="340.5" y="-62" font-family="Helvetica,sans-Serif" font-size="10.00">/traits.h</text>
</a>
</g>
</g>
<!-- Node8&#45;&gt;Node10 -->
<g id="edge11_Node000008_Node000010" class="edge">
<title>Node8&#45;&gt;Node10</title>
<g id="a_edge11_Node000008_Node000010"><a xlink:title=" ">
<path fill="none" stroke="#63b8ff" d="M268.04,-120.87C279.47,-113 296.77,-101.09 311.61,-90.89"/>
<polygon fill="#63b8ff" stroke="#63b8ff" points="313.74,-93.67 319.99,-85.11 309.77,-87.9 313.74,-93.67"/>
</a>
</g>
</g>
<!-- Node8&#45;&gt;Node12 -->
<g id="edge14_Node000008_Node000012" class="edge">
<title>Node8&#45;&gt;Node12</title>
<g id="a_edge14_Node000008_Node000012"><a xlink:title=" ">
<path fill="none" stroke="#63b8ff" d="M325.15,-123.7C454.92,-112.91 733.23,-89.75 873.7,-78.06"/>
<polygon fill="#63b8ff" stroke="#63b8ff" points="874.3,-81.52 883.98,-77.2 873.72,-74.54 874.3,-81.52"/>
</a>
</g>
</g>
<!-- Node10&#45;&gt;Node9 -->
<g id="edge12_Node000010_Node000009" class="edge">
<title>Node10&#45;&gt;Node9</title>
<g id="a_edge12_Node000010_Node000009"><a xlink:title=" ">
<path fill="none" stroke="#63b8ff" d="M330.33,-54.84C324.42,-46.61 316.94,-36.18 310.71,-27.51"/>
<polygon fill="#63b8ff" stroke="#63b8ff" points="313.47,-25.35 304.79,-19.27 307.78,-29.43 313.47,-25.35"/>
</a>
</g>
</g>
<!-- Node11 -->
<g id="Node000011" class="node">
<title>Node11</title>
<g id="a_Node000011"><a xlink:title=" ">
<polygon fill="#e0e0e0" stroke="#999999" points="599,-19 530,-19 530,0 599,0 599,-19"/>
<text text-anchor="middle" x="564.5" y="-7" font-family="Helvetica,sans-Serif" font-size="10.00">type_traits</text>
</a>
</g>
</g>
<!-- Node10&#45;&gt;Node11 -->
<g id="edge13_Node000010_Node000011" class="edge">
<title>Node10&#45;&gt;Node11</title>
<g id="a_edge13_Node000010_Node000011"><a xlink:title=" ">
<path fill="none" stroke="#63b8ff" d="M394.15,-54.99C433.31,-44.76 485.68,-31.09 521.96,-21.61"/>
<polygon fill="#63b8ff" stroke="#63b8ff" points="522.96,-24.97 531.75,-19.05 521.19,-18.19 522.96,-24.97"/>
</a>
</g>
</g>
<!-- Node13 -->
<g id="Node000013" class="node">
<title>Node13</title>
<g id="a_Node000013"><a target="_blank" xlink:href="open62541/config_8h.html" xlink:title=" ">
<polygon fill="white" stroke="#666666" points="911.5,-19 799.5,-19 799.5,0 911.5,0 911.5,-19"/>
<text text-anchor="middle" x="855.5" y="-7" font-family="Helvetica,sans-Serif" font-size="10.00">open62541/config.h</text>
</a>
</g>
</g>
<!-- Node12&#45;&gt;Node13 -->
<g id="edge15_Node000012_Node000013" class="edge">
<title>Node12&#45;&gt;Node13</title>
<g id="a_edge15_Node000012_Node000013"><a xlink:title=" ">
<path fill="none" stroke="#63b8ff" d="M943.3,-60.37C926.49,-50.82 899.18,-35.31 879.48,-24.12"/>
<polygon fill="#63b8ff" stroke="#63b8ff" points="881.18,-21.06 870.76,-19.17 877.73,-27.15 881.18,-21.06"/>
</a>
</g>
</g>
<!-- Node14 -->
<g id="Node000014" class="node">
<title>Node14</title>
<g id="a_Node000014"><a target="_blank" xlink:href="open62541/nodeids_8h.html" xlink:title=" ">
<polygon fill="white" stroke="#666666" points="1051,-19 930,-19 930,0 1051,0 1051,-19"/>
<text text-anchor="middle" x="990.5" y="-7" font-family="Helvetica,sans-Serif" font-size="10.00">open62541/nodeids.h</text>
</a>
</g>
</g>
<!-- Node12&#45;&gt;Node14 -->
<g id="edge16_Node000012_Node000014" class="edge">
<title>Node12&#45;&gt;Node14</title>
<g id="a_edge16_Node000012_Node000014"><a xlink:title=" ">
<path fill="none" stroke="#63b8ff" d="M963.22,-60.37C967.85,-51.9 975.05,-38.74 980.89,-28.07"/>
<polygon fill="#63b8ff" stroke="#63b8ff" points="984.03,-29.62 985.76,-19.17 977.89,-26.26 984.03,-29.62"/>
</a>
</g>
</g>
<!-- Node15 -->
<g id="Node000015" class="node">
<title>Node15</title>
<g id="a_Node000015"><a target="_blank" xlink:href="open62541/statuscodes_8h.html" xlink:title=" ">
<polygon fill="white" stroke="#666666" points="1210,-19 1069,-19 1069,0 1210,0 1210,-19"/>
<text text-anchor="middle" x="1139.5" y="-7" font-family="Helvetica,sans-Serif" font-size="10.00">open62541/statuscodes.h</text>
</a>
</g>
</g>
<!-- Node12&#45;&gt;Node15 -->
<g id="edge17_Node000012_Node000015" class="edge">
<title>Node12&#45;&gt;Node15</title>
<g id="a_edge17_Node000012_Node000015"><a xlink:title=" ">
<path fill="none" stroke="#63b8ff" d="M984.82,-60.49C1016.05,-50.4 1068.3,-33.51 1103.32,-22.19"/>
<polygon fill="#63b8ff" stroke="#63b8ff" points="1104.71,-25.42 1113.15,-19.02 1102.56,-18.76 1104.71,-25.42"/>
</a>
</g>
</g>
<!-- Node16 -->
<g id="Node000016" class="node">
<title>Node16</title>
<g id="a_Node000016"><a target="_blank" xlink:href="open62541/types_8h.html" xlink:title=" ">
<polygon fill="white" stroke="#666666" points="1338.5,-19 1228.5,-19 1228.5,0 1338.5,0 1338.5,-19"/>
<text text-anchor="middle" x="1283.5" y="-7" font-family="Helvetica,sans-Serif" font-size="10.00">open62541/types.h</text>
</a>
</g>
</g>
<!-- Node12&#45;&gt;Node16 -->
<g id="edge18_Node000012_Node000016" class="edge">
<title>Node12&#45;&gt;Node16</title>
<g id="a_edge18_Node000012_Node000016"><a xlink:title=" ">
<path fill="none" stroke="#63b8ff" d="M1005.76,-60.49C1064.13,-49.99 1163.36,-32.12 1226.07,-20.84"/>
<polygon fill="#63b8ff" stroke="#63b8ff" points="1226.96,-24.23 1236.19,-19.02 1225.72,-17.34 1226.96,-24.23"/>
</a>
</g>
</g>
<!-- Node17 -->
<g id="Node000017" class="node">
<title>Node17</title>
<g id="a_Node000017"><a target="_blank" xlink:href="open62541/types__generated_8h.html" xlink:title=" ">
<polygon fill="white" stroke="#666666" points="781.5,-19 617.5,-19 617.5,0 781.5,0 781.5,-19"/>
<text text-anchor="middle" x="699.5" y="-7" font-family="Helvetica,sans-Serif" font-size="10.00">open62541/types_generated.h</text>
</a>
</g>
</g>
<!-- Node12&#45;&gt;Node17 -->
<g id="edge19_Node000012_Node000017" class="edge">
<title>Node12&#45;&gt;Node17</title>
<g id="a_edge19_Node000012_Node000017"><a xlink:title=" ">
<path fill="none" stroke="#63b8ff" d="M920.84,-60.49C874.9,-50.12 797.19,-32.57 747.14,-21.26"/>
<polygon fill="#63b8ff" stroke="#63b8ff" points="747.73,-17.81 737.21,-19.02 746.19,-24.63 747.73,-17.81"/>
</a>
</g>
</g>
<!-- Node19&#45;&gt;Node3 -->
<g id="edge23_Node000019_Node000003" class="edge">
<title>Node19&#45;&gt;Node3</title>
<g id="a_edge23_Node000019_Node000003"><a xlink:title=" ">
<path fill="none" stroke="#63b8ff" d="M377.18,-241.97C324.8,-228.7 232.28,-198.36 176.5,-140 162.36,-125.2 151.76,-104.12 145.4,-89.16"/>
<polygon fill="#63b8ff" stroke="#63b8ff" points="148.51,-87.5 141.53,-79.53 142.01,-90.11 148.51,-87.5"/>
</a>
</g>
</g>
<!-- Node19&#45;&gt;Node8 -->
<g id="edge26_Node000019_Node000008" class="edge">
<title>Node19&#45;&gt;Node8</title>
<g id="a_edge26_Node000019_Node000008"><a xlink:title=" ">
<path fill="none" stroke="#63b8ff" d="M390.13,-241.93C369.62,-234.46 341.11,-222.28 319.5,-206 298.1,-189.88 278.85,-165.47 267.18,-149.03"/>
<polygon fill="#63b8ff" stroke="#63b8ff" points="269.79,-146.64 261.23,-140.39 264.02,-150.61 269.79,-146.64"/>
</a>
</g>
</g>
<!-- Node19&#45;&gt;Node11 -->
<g id="edge24_Node000019_Node000011" class="edge">
<title>Node19&#45;&gt;Node11</title>
<g id="a_edge24_Node000019_Node000011"><a xlink:title=" ">
<path fill="none" stroke="#63b8ff" d="M461.7,-241.99C483.42,-235.62 508.04,-224.67 523.5,-206 566.8,-153.72 567.85,-67.08 565.95,-29.2"/>
<polygon fill="#63b8ff" stroke="#63b8ff" points="569.44,-28.86 565.31,-19.1 562.45,-29.3 569.44,-28.86"/>
</a>
</g>
</g>
<!-- Node19&#45;&gt;Node12 -->
<g id="edge39_Node000019_Node000012" class="edge">
<title>Node19&#45;&gt;Node12</title>
<g id="a_edge39_Node000019_Node000012"><a xlink:title=" ">
<path fill="none" stroke="#63b8ff" d="M495.65,-245.02C655.49,-233.88 1002.14,-209.37 1007.5,-206 1042.52,-183.96 1066.23,-156.82 1045.5,-121 1035.27,-103.32 1016.15,-91.34 998.44,-83.56"/>
<polygon fill="#63b8ff" stroke="#63b8ff" points="999.39,-80.16 988.81,-79.65 996.76,-86.65 999.39,-80.16"/>
</a>
</g>
</g>
<!-- Node20 -->
<g id="Node000020" class="node">
<title>Node20</title>
<g id="a_Node000020"><a xlink:title=" ">
<polygon fill="#e0e0e0" stroke="#999999" points="433.5,-140 381.5,-140 381.5,-121 433.5,-121 433.5,-140"/>
<text text-anchor="middle" x="407.5" y="-128" font-family="Helvetica,sans-Serif" font-size="10.00">cassert</text>
</a>
</g>
</g>
<!-- Node19&#45;&gt;Node20 -->
<g id="edge22_Node000019_Node000020" class="edge">
<title>Node19&#45;&gt;Node20</title>
<g id="a_edge22_Node000019_Node000020"><a xlink:title=" ">
<path fill="none" stroke="#63b8ff" d="M381.06,-241.99C362.24,-235.48 340.74,-224.38 329.5,-206 322.54,-194.63 322.8,-187.53 329.5,-176 338.71,-160.15 355.91,-149.47 371.83,-142.56"/>
<polygon fill="#63b8ff" stroke="#63b8ff" points="373.48,-145.66 381.49,-138.73 370.9,-139.16 373.48,-145.66"/>
</a>
</g>
</g>
<!-- Node21 -->
<g id="Node000021" class="node">
<title>Node21</title>
<g id="a_Node000021"><a xlink:title=" ">
<polygon fill="#e0e0e0" stroke="#999999" points="514,-200.5 469,-200.5 469,-181.5 514,-181.5 514,-200.5"/>
<text text-anchor="middle" x="491.5" y="-188.5" font-family="Helvetica,sans-Serif" font-size="10.00">utility</text>
</a>
</g>
</g>
<!-- Node19&#45;&gt;Node21 -->
<g id="edge25_Node000019_Node000021" class="edge">
<title>Node19&#45;&gt;Node21</title>
<g id="a_edge25_Node000019_Node000021"><a xlink:title=" ">
<path fill="none" stroke="#63b8ff" d="M427.57,-241.87C439.31,-232.71 458.09,-218.06 472.26,-207.01"/>
<polygon fill="#63b8ff" stroke="#63b8ff" points="474.66,-209.58 480.39,-200.67 470.35,-204.06 474.66,-209.58"/>
</a>
</g>
</g>
<!-- Node22 -->
<g id="Node000022" class="node">
<title>Node22</title>
<g id="a_Node000022"><a xlink:href="ErrorHandling_8h.html" target="_top" xlink:title=" ">
<polygon fill="white" stroke="#666666" points="998,-200.5 837,-200.5 837,-181.5 998,-181.5 998,-200.5"/>
<text text-anchor="middle" x="917.5" y="-188.5" font-family="Helvetica,sans-Serif" font-size="10.00">open62541pp/ErrorHandling.h</text>
</a>
</g>
</g>
<!-- Node19&#45;&gt;Node22 -->
<g id="edge27_Node000019_Node000022" class="edge">
<title>Node19&#45;&gt;Node22</title>
<g id="a_edge27_Node000019_Node000022"><a xlink:title=" ">
<path fill="none" stroke="#63b8ff" d="M489.35,-241.99C581.09,-231.28 738.32,-212.92 834.58,-201.68"/>
<polygon fill="#63b8ff" stroke="#63b8ff" points="835.04,-205.15 844.56,-200.52 834.22,-198.2 835.04,-205.15"/>
</a>
</g>
</g>
<!-- Node19&#45;&gt;Node24 -->
<g id="edge33_Node000019_Node000024" class="edge">
<title>Node19&#45;&gt;Node24</title>
<g id="a_edge33_Node000019_Node000024"><a xlink:title=" ">
<path fill="none" stroke="#63b8ff" d="M413.25,-241.87C410.66,-234.96 406.88,-224.93 403.4,-215.67"/>
<polygon fill="#63b8ff" stroke="#63b8ff" points="406.6,-214.24 399.81,-206.11 400.05,-216.71 406.6,-214.24"/>
</a>
</g>
</g>
<!-- Node25 -->
<g id="Node000025" class="node">
<title>Node25</title>
<g id="a_Node000025"><a xlink:href="comparison_8h.html" target="_top" xlink:title=" ">
<polygon fill="white" stroke="#666666" points="742.5,-206 608.5,-206 608.5,-176 742.5,-176 742.5,-206"/>
<text text-anchor="start" x="616.5" y="-194" font-family="Helvetica,sans-Serif" font-size="10.00">open62541pp/overloads</text>
<text text-anchor="middle" x="675.5" y="-183" font-family="Helvetica,sans-Serif" font-size="10.00">/comparison.h</text>
</a>
</g>
</g>
<!-- Node19&#45;&gt;Node25 -->
<g id="edge40_Node000019_Node000025" class="edge">
<title>Node19&#45;&gt;Node25</title>
<g id="a_edge40_Node000019_Node000025"><a xlink:title=" ">
<path fill="none" stroke="#63b8ff" d="M454.16,-241.99C493.21,-233.17 555.21,-219.17 603.67,-208.22"/>
<polygon fill="#63b8ff" stroke="#63b8ff" points="604.5,-211.62 613.48,-206.01 602.96,-204.8 604.5,-211.62"/>
</a>
</g>
</g>
<!-- Node22&#45;&gt;Node4 -->
<g id="edge28_Node000022_Node000004" class="edge">
<title>Node22&#45;&gt;Node4</title>
<g id="a_edge28_Node000022_Node000004"><a xlink:title=" ">
<path fill="none" stroke="#63b8ff" d="M930.19,-181.37C943.91,-172.04 966,-157.01 982.35,-145.88"/>
<polygon fill="#63b8ff" stroke="#63b8ff" points="984.46,-148.69 990.76,-140.17 980.52,-142.9 984.46,-148.69"/>
</a>
</g>
</g>
<!-- Node22&#45;&gt;Node5 -->
<g id="edge30_Node000022_Node000005" class="edge">
<title>Node22&#45;&gt;Node5</title>
<g id="a_edge30_Node000022_Node000005"><a xlink:title=" ">
<path fill="none" stroke="#63b8ff" d="M896.12,-181.49C871.19,-171.57 829.78,-155.09 801.36,-143.78"/>
<polygon fill="#63b8ff" stroke="#63b8ff" points="802.49,-140.46 791.9,-140.02 799.9,-146.97 802.49,-140.46"/>
</a>
</g>
</g>
<!-- Node22&#45;&gt;Node11 -->
<g id="edge31_Node000022_Node000011" class="edge">
<title>Node22&#45;&gt;Node11</title>
<g id="a_edge31_Node000022_Node000011"><a xlink:title=" ">
<path fill="none" stroke="#63b8ff" d="M904.18,-181.48C882.86,-167.98 839.61,-141.16 801.5,-121 728.22,-82.25 638.9,-42.56 593.7,-22.98"/>
<polygon fill="#63b8ff" stroke="#63b8ff" points="595.06,-19.76 584.49,-19.01 592.29,-26.19 595.06,-19.76"/>
</a>
</g>
</g>
<!-- Node22&#45;&gt;Node12 -->
<g id="edge32_Node000022_Node000012" class="edge">
<title>Node22&#45;&gt;Node12</title>
<g id="a_edge32_Node000022_Node000012"><a xlink:title=" ">
<path fill="none" stroke="#63b8ff" d="M920.45,-181.44C927.07,-162.24 943.22,-115.36 952.2,-89.27"/>
<polygon fill="#63b8ff" stroke="#63b8ff" points="955.52,-90.4 955.47,-79.8 948.9,-88.12 955.52,-90.4"/>
</a>
</g>
</g>
<!-- Node23 -->
<g id="Node000023" class="node">
<title>Node23</title>
<g id="a_Node000023"><a xlink:title=" ">
<polygon fill="#e0e0e0" stroke="#999999" points="914,-140 849,-140 849,-121 914,-121 914,-140"/>
<text text-anchor="middle" x="881.5" y="-128" font-family="Helvetica,sans-Serif" font-size="10.00">stdexcept</text>
</a>
</g>
</g>
<!-- Node22&#45;&gt;Node23 -->
<g id="edge29_Node000022_Node000023" class="edge">
<title>Node22&#45;&gt;Node23</title>
<g id="a_edge29_Node000022_Node000023"><a xlink:title=" ">
<path fill="none" stroke="#63b8ff" d="M912.19,-181.37C906.92,-172.81 898.71,-159.47 892.11,-148.74"/>
<polygon fill="#63b8ff" stroke="#63b8ff" points="895.06,-146.85 886.83,-140.17 889.09,-150.52 895.06,-146.85"/>
</a>
</g>
</g>
<!-- Node24&#45;&gt;Node5 -->
<g id="edge35_Node000024_Node000005" class="edge">
<title>Node24&#45;&gt;Node5</title>
<g id="a_edge35_Node000024_Node000005"><a xlink:title=" ">
<path fill="none" stroke="#63b8ff" d="M451.33,-177.69C454.43,-177.1 457.5,-176.53 460.5,-176 561.34,-158.09 681.61,-142.44 738.13,-135.43"/>
<polygon fill="#63b8ff" stroke="#63b8ff" points="738.74,-138.88 748.24,-134.18 737.89,-131.93 738.74,-138.88"/>
</a>
</g>
</g>
<!-- Node24&#45;&gt;Node6 -->
<g id="edge36_Node000024_Node000006" class="edge">
<title>Node24&#45;&gt;Node6</title>
<g id="a_edge36_Node000024_Node000006"><a xlink:title=" ">
<path fill="none" stroke="#63b8ff" d="M412.66,-175.66C422.98,-166.53 435.24,-153.86 442.5,-140 450.74,-124.28 454.13,-104.2 455.53,-89.76"/>
<polygon fill="#63b8ff" stroke="#63b8ff" points="459.04,-89.81 456.28,-79.58 452.06,-89.29 459.04,-89.81"/>
</a>
</g>
</g>
<!-- Node24&#45;&gt;Node8 -->
<g id="edge37_Node000024_Node000008" class="edge">
<title>Node24&#45;&gt;Node8</title>
<g id="a_edge37_Node000024_Node000008"><a xlink:title=" ">
<path fill="none" stroke="#63b8ff" d="M361.21,-175.99C338.12,-166.27 307.63,-153.44 285.34,-144.06"/>
<polygon fill="#63b8ff" stroke="#63b8ff" points="286.6,-140.79 276.03,-140.14 283.89,-147.24 286.6,-140.79"/>
</a>
</g>
</g>
<!-- Node24&#45;&gt;Node12 -->
<g id="edge38_Node000024_Node000012" class="edge">
<title>Node24&#45;&gt;Node12</title>
<g id="a_edge38_Node000024_Node000012"><a xlink:title=" ">
<path fill="none" stroke="#63b8ff" d="M451.24,-177.32C514.44,-163.27 619.69,-140.07 710.5,-121 777.46,-106.94 854.75,-91.48 905.01,-81.53"/>
<polygon fill="#63b8ff" stroke="#63b8ff" points="905.87,-84.92 915,-79.55 904.51,-78.06 905.87,-84.92"/>
</a>
</g>
</g>
<!-- Node24&#45;&gt;Node20 -->
<g id="edge34_Node000024_Node000020" class="edge">
<title>Node24&#45;&gt;Node20</title>
<g id="a_edge34_Node000024_Node000020"><a xlink:title=" ">
<path fill="none" stroke="#63b8ff" d="M397.65,-175.84C399.36,-168.13 401.5,-158.49 403.35,-150.17"/>
<polygon fill="#63b8ff" stroke="#63b8ff" points="406.8,-150.79 405.55,-140.27 399.97,-149.27 406.8,-150.79"/>
</a>
</g>
</g>
<!-- Node25&#45;&gt;Node12 -->
<g id="edge41_Node000025_Node000012" class="edge">
<title>Node25&#45;&gt;Node12</title>
<g id="a_edge41_Node000025_Node000012"><a xlink:title=" ">
<path fill="none" stroke="#63b8ff" d="M684.76,-175.73C695.84,-159.85 715.87,-134.65 739.5,-121 780.3,-97.44 831.37,-84.98 873.92,-78.39"/>
<polygon fill="#63b8ff" stroke="#63b8ff" points="874.6,-81.83 883.98,-76.92 873.58,-74.9 874.6,-81.83"/>
</a>
</g>
</g>
<!-- Node26&#45;&gt;Node3 -->
<g id="edge46_Node000026_Node000003" class="edge">
<title>Node26&#45;&gt;Node3</title>
<g id="a_edge46_Node000026_Node000003"><a xlink:title=" ">
<path fill="none" stroke="#63b8ff" d="M563.2,-305.35C472,-301.36 320.93,-282.47 219.5,-206 187.61,-181.95 178.14,-174.78 158.5,-140 149.6,-124.23 144.36,-104.16 141.49,-89.73"/>
<polygon fill="#63b8ff" stroke="#63b8ff" points="144.88,-88.79 139.68,-79.56 137.99,-90.02 144.88,-88.79"/>
</a>
</g>
</g>
<!-- Node26&#45;&gt;Node5 -->
<g id="edge48_Node000026_Node000005" class="edge">
<title>Node26&#45;&gt;Node5</title>
<g id="a_edge48_Node000026_Node000005"><a xlink:title=" ">
<path fill="none" stroke="#63b8ff" d="M711.86,-296.95C755.94,-289.98 806.89,-278.41 820.5,-261 837.15,-239.7 806.71,-230.12 794.5,-206 785.32,-187.85 778.67,-165.46 774.73,-149.99"/>
<polygon fill="#63b8ff" stroke="#63b8ff" points="778.09,-149.01 772.34,-140.11 771.29,-150.65 778.09,-149.01"/>
</a>
</g>
</g>
<!-- Node26&#45;&gt;Node6 -->
<g id="edge49_Node000026_Node000006" class="edge">
<title>Node26&#45;&gt;Node6</title>
<g id="a_edge49_Node000026_Node000006"><a xlink:title=" ">
<path fill="none" stroke="#63b8ff" d="M602.45,-296.96C581.72,-290.47 557.51,-279.4 542.5,-261 518.04,-231 538.36,-211.75 523.5,-176 509.54,-142.41 484.99,-107.62 469.8,-87.72"/>
<polygon fill="#63b8ff" stroke="#63b8ff" points="472.45,-85.42 463.55,-79.68 466.93,-89.72 472.45,-85.42"/>
</a>
</g>
</g>
<!-- Node26&#45;&gt;Node12 -->
<g id="edge54_Node000026_Node000012" class="edge">
<title>Node26&#45;&gt;Node12</title>
<g id="a_edge54_Node000026_Node000012"><a xlink:title=" ">
<path fill="none" stroke="#63b8ff" d="M708.63,-296.97C809.21,-282.86 992.17,-251.61 1038.5,-206 1066.47,-178.46 1083.4,-154.23 1062.5,-121 1050.62,-102.11 1029.4,-90.2 1009.21,-82.76"/>
<polygon fill="#63b8ff" stroke="#63b8ff" points="1010.33,-79.44 999.73,-79.55 1008.08,-86.07 1010.33,-79.44"/>
</a>
</g>
</g>
<!-- Node26&#45;&gt;Node19 -->
<g id="edge53_Node000026_Node000019" class="edge">
<title>Node26&#45;&gt;Node19</title>
<g id="a_edge53_Node000026_Node000019"><a xlink:title=" ">
<path fill="none" stroke="#63b8ff" d="M605.35,-296.98C566.59,-287.86 504.95,-273.33 462.7,-263.38"/>
<polygon fill="#63b8ff" stroke="#63b8ff" points="463.47,-259.97 452.93,-261.08 461.86,-266.78 463.47,-259.97"/>
</a>
</g>
</g>
<!-- Node26&#45;&gt;Node22 -->
<g id="edge52_Node000026_Node000022" class="edge">
<title>Node26&#45;&gt;Node22</title>
<g id="a_edge52_Node000026_Node000022"><a xlink:title=" ">
<path fill="none" stroke="#63b8ff" d="M719.59,-300.59C761.49,-295.21 812.75,-284.06 853.5,-261 875.85,-248.35 894.88,-225.23 906.24,-209.26"/>
<polygon fill="#63b8ff" stroke="#63b8ff" points="909.26,-211.05 912.01,-200.82 903.48,-207.1 909.26,-211.05"/>
</a>
</g>
</g>
<!-- Node27 -->
<g id="Node000027" class="node">
<title>Node27</title>
<g id="a_Node000027"><a xlink:title=" ">
<polygon fill="#e0e0e0" stroke="#999999" points="811.5,-261 769.5,-261 769.5,-242 811.5,-242 811.5,-261"/>
<text text-anchor="middle" x="790.5" y="-249" font-family="Helvetica,sans-Serif" font-size="10.00">array</text>
</a>
</g>
</g>
<!-- Node26&#45;&gt;Node27 -->
<g id="edge45_Node000026_Node000027" class="edge">
<title>Node26&#45;&gt;Node27</title>
<g id="a_edge45_Node000026_Node000027"><a xlink:title=" ">
<path fill="none" stroke="#63b8ff" d="M665.44,-296.98C690.94,-287.92 731.39,-273.53 759.35,-263.58"/>
<polygon fill="#63b8ff" stroke="#63b8ff" points="760.79,-266.78 769.04,-260.13 758.44,-260.19 760.79,-266.78"/>
</a>
</g>
</g>
<!-- Node28 -->
<g id="Node000028" class="node">
<title>Node28</title>
<g id="a_Node000028"><a xlink:title=" ">
<polygon fill="#e0e0e0" stroke="#999999" points="599.5,-261 551.5,-261 551.5,-242 599.5,-242 599.5,-261"/>
<text text-anchor="middle" x="575.5" y="-249" font-family="Helvetica,sans-Serif" font-size="10.00">iosfwd</text>
</a>
</g>
</g>
<!-- Node26&#45;&gt;Node28 -->
<g id="edge47_Node000026_Node000028" class="edge">
<title>Node26&#45;&gt;Node28</title>
<g id="a_edge47_Node000026_Node000028"><a xlink:title=" ">
<path fill="none" stroke="#63b8ff" d="M630.9,-296.98C621.04,-289.07 606.15,-277.11 594.28,-267.58"/>
<polygon fill="#63b8ff" stroke="#63b8ff" points="596.29,-264.7 586.3,-261.17 591.9,-270.16 596.29,-264.7"/>
</a>
</g>
</g>
<!-- Node29 -->
<g id="Node000029" class="node">
<title>Node29</title>
<g id="a_Node000029"><a xlink:title=" ">
<polygon fill="#e0e0e0" stroke="#999999" points="665,-261 618,-261 618,-242 665,-242 665,-261"/>
<text text-anchor="middle" x="641.5" y="-249" font-family="Helvetica,sans-Serif" font-size="10.00">vector</text>
</a>
</g>
</g>
<!-- Node26&#45;&gt;Node29 -->
<g id="edge50_Node000026_Node000029" class="edge">
<title>Node26&#45;&gt;Node29</title>
<g id="a_edge50_Node000026_Node000029"><a xlink:title=" ">
<path fill="none" stroke="#63b8ff" d="M641.5,-296.75C641.5,-289.8 641.5,-279.85 641.5,-271.13"/>
<polygon fill="#63b8ff" stroke="#63b8ff" points="645,-271.09 641.5,-261.09 638,-271.09 645,-271.09"/>
</a>
</g>
</g>
<!-- Node30 -->
<g id="Node000030" class="node">
<title>Node30</title>
<g id="a_Node000030"><a xlink:title=" ">
<polygon fill="#e0e0e0" stroke="#999999" points="751.5,-261 683.5,-261 683.5,-242 751.5,-242 751.5,-261"/>
<text text-anchor="middle" x="717.5" y="-249" font-family="Helvetica,sans-Serif" font-size="10.00">filesystem</text>
</a>
</g>
</g>
<!-- Node26&#45;&gt;Node30 -->
<g id="edge51_Node000026_Node000030" class="edge">
<title>Node26&#45;&gt;Node30</title>
<g id="a_edge51_Node000026_Node000030"><a xlink:title=" ">
<path fill="none" stroke="#63b8ff" d="M653.71,-296.98C665.28,-288.92 682.88,-276.65 696.66,-267.03"/>
<polygon fill="#63b8ff" stroke="#63b8ff" points="698.87,-269.76 705.07,-261.17 694.86,-264.02 698.87,-269.76"/>
</a>
</g>
</g>
</g>
</svg>
