<?xml version="1.0" encoding="UTF-8" standalone="no"?>
<!DOCTYPE svg PUBLIC "-//W3C//DTD SVG 1.1//EN"
 "http://www.w3.org/Graphics/SVG/1.1/DTD/svg11.dtd">
<!-- Generated by graphviz version 2.43.0 (0)
 -->
<!-- Title: /home/runner/work/open62541pp/open62541pp/include/open62541pp/types/NodeId.h Pages: 1 -->
<svg width="1636pt" height="544pt"
 viewBox="0.00 0.00 1636.18 544.00" xmlns="http://www.w3.org/2000/svg" xmlns:xlink="http://www.w3.org/1999/xlink">
<g id="graph0" class="graph" transform="scale(1 1) rotate(0) translate(4 540)">
<title>/home/runner/work/open62541pp/open62541pp/include/open62541pp/types/NodeId.h</title>
<!-- Node1 -->
<g id="Node000001" class="node">
<title>Node1</title>
<g id="a_Node000001"><a xlink:title=" ">
<polygon fill="#999999" stroke="#666666" points="1029,-536 836,-536 836,-495 1029,-495 1029,-536"/>
<text text-anchor="start" x="844" y="-524" font-family="Helvetica,sans-Serif" font-size="10.00">/home/runner/work/open62541pp</text>
<text text-anchor="start" x="844" y="-513" font-family="Helvetica,sans-Serif" font-size="10.00">/open62541pp/include/open62541pp</text>
<text text-anchor="middle" x="932.5" y="-502" font-family="Helvetica,sans-Serif" font-size="10.00">/types/NodeId.h</text>
</a>
</g>
</g>
<!-- Node2 -->
<g id="Node000002" class="node">
<title>Node2</title>
<g id="a_Node000002"><a xlink:title=" ">
<polygon fill="#e0e0e0" stroke="#999999" points="423,-459 370,-459 370,-440 423,-440 423,-459"/>
<text text-anchor="middle" x="396.5" y="-447" font-family="Helvetica,sans-Serif" font-size="10.00">cstddef</text>
</a>
</g>
</g>
<!-- Node1&#45;&gt;Node2 -->
<g id="edge1_Node000001_Node000002" class="edge">
<title>Node1&#45;&gt;Node2</title>
<g id="a_edge1_Node000001_Node000002"><a xlink:title=" ">
<path fill="none" stroke="#63b8ff" d="M835.86,-506.34C735.83,-497.26 575.2,-480.95 437.5,-459 436.21,-458.79 434.89,-458.58 433.57,-458.35"/>
<polygon fill="#63b8ff" stroke="#63b8ff" points="433.81,-454.83 423.34,-456.44 432.53,-461.71 433.81,-454.83"/>
</a>
</g>
</g>
<!-- Node3 -->
<g id="Node000003" class="node">
<title>Node3</title>
<g id="a_Node000003"><a xlink:title=" ">
<polygon fill="#e0e0e0" stroke="#999999" points="995.5,-266.5 945.5,-266.5 945.5,-247.5 995.5,-247.5 995.5,-266.5"/>
<text text-anchor="middle" x="970.5" y="-254.5" font-family="Helvetica,sans-Serif" font-size="10.00">cstdint</text>
</a>
</g>
</g>
<!-- Node1&#45;&gt;Node3 -->
<g id="edge2_Node000001_Node000003" class="edge">
<title>Node1&#45;&gt;Node3</title>
<g id="a_edge2_Node000001_Node000003"><a xlink:title=" ">
<path fill="none" stroke="#63b8ff" d="M952.89,-494.75C972.49,-474.2 1000.82,-440.05 1012.5,-404 1027.48,-357.76 999.13,-302.44 982.07,-275.07"/>
<polygon fill="#63b8ff" stroke="#63b8ff" points="984.97,-273.11 976.6,-266.62 979.09,-276.91 984.97,-273.11"/>
</a>
</g>
</g>
<!-- Node4 -->
<g id="Node000004" class="node">
<title>Node4</title>
<g id="a_Node000004"><a xlink:title=" ">
<polygon fill="#e0e0e0" stroke="#999999" points="545,-459 480,-459 480,-440 545,-440 545,-459"/>
<text text-anchor="middle" x="512.5" y="-447" font-family="Helvetica,sans-Serif" font-size="10.00">functional</text>
</a>
</g>
</g>
<!-- Node1&#45;&gt;Node4 -->
<g id="edge3_Node000001_Node000004" class="edge">
<title>Node1&#45;&gt;Node4</title>
<g id="a_edge3_Node000001_Node000004"><a xlink:title=" ">
<path fill="none" stroke="#63b8ff" d="M835.77,-500.95C760.39,-490.19 653.17,-474.43 559.5,-459 558.04,-458.76 556.56,-458.51 555.06,-458.26"/>
<polygon fill="#63b8ff" stroke="#63b8ff" points="555.54,-454.79 545.09,-456.53 554.35,-461.69 555.54,-454.79"/>
</a>
</g>
</g>
<!-- Node5 -->
<g id="Node000005" class="node">
<title>Node5</title>
<g id="a_Node000005"><a xlink:title=" ">
<polygon fill="#e0e0e0" stroke="#999999" points="1359.5,-332.5 1315.5,-332.5 1315.5,-313.5 1359.5,-313.5 1359.5,-332.5"/>
<text text-anchor="middle" x="1337.5" y="-320.5" font-family="Helvetica,sans-Serif" font-size="10.00">string</text>
</a>
</g>
</g>
<!-- Node1&#45;&gt;Node5 -->
<g id="edge4_Node000001_Node000005" class="edge">
<title>Node1&#45;&gt;Node5</title>
<g id="a_edge4_Node000001_Node000005"><a xlink:title=" ">
<path fill="none" stroke="#63b8ff" d="M1029.1,-501.89C1083.85,-493.14 1153.07,-479.33 1212.5,-459 1264.22,-441.31 1289.58,-447.64 1322.5,-404 1335.83,-386.32 1338.46,-360.32 1338.5,-342.8"/>
<polygon fill="#63b8ff" stroke="#63b8ff" points="1341.99,-342.59 1338.23,-332.69 1335,-342.77 1341.99,-342.59"/>
</a>
</g>
</g>
<!-- Node6 -->
<g id="Node000006" class="node">
<title>Node6</title>
<g id="a_Node000006"><a xlink:title=" ">
<polygon fill="#e0e0e0" stroke="#999999" points="1187,-332.5 1114,-332.5 1114,-313.5 1187,-313.5 1187,-332.5"/>
<text text-anchor="middle" x="1150.5" y="-320.5" font-family="Helvetica,sans-Serif" font-size="10.00">string_view</text>
</a>
</g>
</g>
<!-- Node1&#45;&gt;Node6 -->
<g id="edge5_Node000001_Node000006" class="edge">
<title>Node1&#45;&gt;Node6</title>
<g id="a_edge5_Node000001_Node000006"><a xlink:title=" ">
<path fill="none" stroke="#63b8ff" d="M1029.12,-502.61C1082.49,-493.85 1141.22,-479.79 1157.5,-459 1171.22,-441.48 1160.77,-375.84 1154.43,-342.98"/>
<polygon fill="#63b8ff" stroke="#63b8ff" points="1157.8,-341.98 1152.41,-332.86 1150.94,-343.35 1157.8,-341.98"/>
</a>
</g>
</g>
<!-- Node7 -->
<g id="Node000007" class="node">
<title>Node7</title>
<g id="a_Node000007"><a xlink:title=" ">
<polygon fill="#e0e0e0" stroke="#999999" points="765,-332.5 720,-332.5 720,-313.5 765,-313.5 765,-332.5"/>
<text text-anchor="middle" x="742.5" y="-320.5" font-family="Helvetica,sans-Serif" font-size="10.00">utility</text>
</a>
</g>
</g>
<!-- Node1&#45;&gt;Node7 -->
<g id="edge6_Node000001_Node000007" class="edge">
<title>Node1&#45;&gt;Node7</title>
<g id="a_edge6_Node000001_Node000007"><a xlink:title=" ">
<path fill="none" stroke="#63b8ff" d="M835.93,-506.24C797.53,-498.8 755.07,-484.89 723.5,-459 692.85,-433.86 682.1,-410.93 696.5,-374 701.79,-360.44 712.67,-348.33 722.53,-339.42"/>
<polygon fill="#63b8ff" stroke="#63b8ff" points="725.05,-341.87 730.42,-332.74 720.52,-336.53 725.05,-341.87"/>
</a>
</g>
</g>
<!-- Node8 -->
<g id="Node000008" class="node">
<title>Node8</title>
<g id="a_Node000008"><a xlink:title=" ">
<polygon fill="#e0e0e0" stroke="#999999" points="958,-459 907,-459 907,-440 958,-440 958,-459"/>
<text text-anchor="middle" x="932.5" y="-447" font-family="Helvetica,sans-Serif" font-size="10.00">variant</text>
</a>
</g>
</g>
<!-- Node1&#45;&gt;Node8 -->
<g id="edge7_Node000001_Node000008" class="edge">
<title>Node1&#45;&gt;Node8</title>
<g id="a_edge7_Node000001_Node000008"><a xlink:title=" ">
<path fill="none" stroke="#63b8ff" d="M932.5,-494.95C932.5,-486.85 932.5,-477.5 932.5,-469.47"/>
<polygon fill="#63b8ff" stroke="#63b8ff" points="936,-469.26 932.5,-459.26 929,-469.26 936,-469.26"/>
</a>
</g>
</g>
<!-- Node9 -->
<g id="Node000009" class="node">
<title>Node9</title>
<g id="a_Node000009"><a xlink:href="Common_8h.html" target="_top" xlink:title=" ">
<polygon fill="white" stroke="#666666" points="702,-332.5 563,-332.5 563,-313.5 702,-313.5 702,-332.5"/>
<text text-anchor="middle" x="632.5" y="-320.5" font-family="Helvetica,sans-Serif" font-size="10.00">open62541pp/Common.h</text>
</a>
</g>
</g>
<!-- Node1&#45;&gt;Node9 -->
<g id="edge8_Node000001_Node000009" class="edge">
<title>Node1&#45;&gt;Node9</title>
<g id="a_edge8_Node000001_Node000009"><a xlink:title=" ">
<path fill="none" stroke="#63b8ff" d="M835.76,-509.86C790.66,-503.37 738.66,-489.2 700.5,-459 662.36,-428.82 643.81,-371.59 636.47,-342.29"/>
<polygon fill="#63b8ff" stroke="#63b8ff" points="639.87,-341.48 634.19,-332.54 633.06,-343.07 639.87,-341.48"/>
</a>
</g>
</g>
<!-- Node12 -->
<g id="Node000012" class="node">
<title>Node12</title>
<g id="a_Node000012"><a xlink:href="NodeIds_8h.html" target="_top" xlink:title=" ">
<polygon fill="white" stroke="#666666" points="1148.5,-459 1014.5,-459 1014.5,-440 1148.5,-440 1148.5,-459"/>
<text text-anchor="middle" x="1081.5" y="-447" font-family="Helvetica,sans-Serif" font-size="10.00">open62541pp/NodeIds.h</text>
</a>
</g>
</g>
<!-- Node1&#45;&gt;Node12 -->
<g id="edge12_Node000001_Node000012" class="edge">
<title>Node1&#45;&gt;Node12</title>
<g id="a_edge12_Node000001_Node000012"><a xlink:title=" ">
<path fill="none" stroke="#63b8ff" d="M978.01,-494.95C1002.1,-484.6 1030.97,-472.2 1052.1,-463.13"/>
<polygon fill="#63b8ff" stroke="#63b8ff" points="1053.69,-466.25 1061.5,-459.09 1050.93,-459.82 1053.69,-466.25"/>
</a>
</g>
</g>
<!-- Node13 -->
<g id="Node000013" class="node">
<title>Node13</title>
<g id="a_Node000013"><a xlink:href="TypeWrapper_8h.html" target="_top" xlink:title=" ">
<polygon fill="white" stroke="#666666" points="537.5,-398.5 379.5,-398.5 379.5,-379.5 537.5,-379.5 537.5,-398.5"/>
<text text-anchor="middle" x="458.5" y="-386.5" font-family="Helvetica,sans-Serif" font-size="10.00">open62541pp/TypeWrapper.h</text>
</a>
</g>
</g>
<!-- Node1&#45;&gt;Node13 -->
<g id="edge13_Node000001_Node000013" class="edge">
<title>Node1&#45;&gt;Node13</title>
<g id="a_edge13_Node000001_Node000013"><a xlink:title=" ">
<path fill="none" stroke="#63b8ff" d="M835.88,-508.99C708.26,-500.79 496.49,-483.66 470.5,-459 457.16,-446.34 455.39,-424.55 456.18,-408.84"/>
<polygon fill="#63b8ff" stroke="#63b8ff" points="459.69,-408.96 457.08,-398.69 452.71,-408.34 459.69,-408.96"/>
</a>
</g>
</g>
<!-- Node18 -->
<g id="Node000018" class="node">
<title>Node18</title>
<g id="a_Node000018"><a xlink:href="common_8h.html" target="_top" xlink:title=" ">
<polygon fill="white" stroke="#666666" points="1034.5,-206 906.5,-206 906.5,-176 1034.5,-176 1034.5,-206"/>
<text text-anchor="start" x="914.5" y="-194" font-family="Helvetica,sans-Serif" font-size="10.00">open62541pp/detail</text>
<text text-anchor="middle" x="970.5" y="-183" font-family="Helvetica,sans-Serif" font-size="10.00">/open62541/common.h</text>
</a>
</g>
</g>
<!-- Node1&#45;&gt;Node18 -->
<g id="edge49_Node000001_Node000018" class="edge">
<title>Node1&#45;&gt;Node18</title>
<g id="a_edge49_Node000001_Node000018"><a xlink:title=" ">
<path fill="none" stroke="#63b8ff" d="M1029,-507.82C1163.63,-495.8 1391.5,-464.46 1391.5,-390 1391.5,-390 1391.5,-390 1391.5,-322 1391.5,-250.29 1165.71,-213.89 1044.84,-199.54"/>
<polygon fill="#63b8ff" stroke="#63b8ff" points="1045.24,-196.07 1034.9,-198.38 1044.43,-203.02 1045.24,-196.07"/>
</a>
</g>
</g>
<!-- Node35 -->
<g id="Node000035" class="node">
<title>Node35</title>
<g id="a_Node000035"><a xlink:href="string__utils_8h.html" target="_top" xlink:title=" ">
<polygon fill="white" stroke="#666666" points="1287,-404 1174,-404 1174,-374 1287,-374 1287,-404"/>
<text text-anchor="start" x="1182" y="-392" font-family="Helvetica,sans-Serif" font-size="10.00">open62541pp/detail</text>
<text text-anchor="middle" x="1230.5" y="-381" font-family="Helvetica,sans-Serif" font-size="10.00">/string_utils.h</text>
</a>
</g>
</g>
<!-- Node1&#45;&gt;Node35 -->
<g id="edge50_Node000001_Node000035" class="edge">
<title>Node1&#45;&gt;Node35</title>
<g id="a_edge50_Node000001_Node000035"><a xlink:title=" ">
<path fill="none" stroke="#63b8ff" d="M1029.11,-502C1091.16,-492.43 1164.79,-477.69 1190.5,-459 1205.93,-447.78 1216.34,-428.64 1222.66,-413.37"/>
<polygon fill="#63b8ff" stroke="#63b8ff" points="1225.94,-414.6 1226.24,-404.01 1219.4,-412.1 1225.94,-414.6"/>
</a>
</g>
</g>
<!-- Node37 -->
<g id="Node000037" class="node">
<title>Node37</title>
<g id="a_Node000037"><a xlink:href="Builtin_8h.html" target="_top" xlink:title=" ">
<polygon fill="white" stroke="#666666" points="888.5,-459 732.5,-459 732.5,-440 888.5,-440 888.5,-459"/>
<text text-anchor="middle" x="810.5" y="-447" font-family="Helvetica,sans-Serif" font-size="10.00">open62541pp/types/Builtin.h</text>
</a>
</g>
</g>
<!-- Node1&#45;&gt;Node37 -->
<g id="edge55_Node000001_Node000037" class="edge">
<title>Node1&#45;&gt;Node37</title>
<g id="a_edge55_Node000001_Node000037"><a xlink:title=" ">
<path fill="none" stroke="#63b8ff" d="M895.23,-494.95C875.96,-484.84 852.94,-472.76 835.76,-463.75"/>
<polygon fill="#63b8ff" stroke="#63b8ff" points="837.36,-460.64 826.88,-459.09 834.11,-466.84 837.36,-460.64"/>
</a>
</g>
</g>
<!-- Node9&#45;&gt;Node3 -->
<g id="edge9_Node000009_Node000003" class="edge">
<title>Node9&#45;&gt;Node3</title>
<g id="a_edge9_Node000009_Node000003"><a xlink:title=" ">
<path fill="none" stroke="#63b8ff" d="M680.1,-313.43C690.45,-311.61 701.34,-309.71 711.5,-308 811.36,-291.16 839.02,-299.46 936.5,-272 938.39,-271.47 940.32,-270.86 942.24,-270.21"/>
<polygon fill="#63b8ff" stroke="#63b8ff" points="943.59,-273.44 951.71,-266.64 941.12,-266.89 943.59,-273.44"/>
</a>
</g>
</g>
<!-- Node10 -->
<g id="Node000010" class="node">
<title>Node10</title>
<g id="a_Node000010"><a xlink:href="Bitmask_8h.html" target="_top" xlink:title=" ">
<polygon fill="white" stroke="#666666" points="589,-266.5 454,-266.5 454,-247.5 589,-247.5 589,-266.5"/>
<text text-anchor="middle" x="521.5" y="-254.5" font-family="Helvetica,sans-Serif" font-size="10.00">open62541pp/Bitmask.h</text>
</a>
</g>
</g>
<!-- Node9&#45;&gt;Node10 -->
<g id="edge10_Node000009_Node000010" class="edge">
<title>Node9&#45;&gt;Node10</title>
<g id="a_edge10_Node000009_Node000010"><a xlink:title=" ">
<path fill="none" stroke="#63b8ff" d="M617.53,-313.37C598.99,-302.68 567.19,-284.35 545.3,-271.72"/>
<polygon fill="#63b8ff" stroke="#63b8ff" points="547,-268.66 536.59,-266.7 543.5,-274.73 547,-268.66"/>
</a>
</g>
</g>
<!-- Node11 -->
<g id="Node000011" class="node">
<title>Node11</title>
<g id="a_Node000011"><a xlink:title=" ">
<polygon fill="#e0e0e0" stroke="#999999" points="299,-200.5 230,-200.5 230,-181.5 299,-181.5 299,-200.5"/>
<text text-anchor="middle" x="264.5" y="-188.5" font-family="Helvetica,sans-Serif" font-size="10.00">type_traits</text>
</a>
</g>
</g>
<!-- Node10&#45;&gt;Node11 -->
<g id="edge11_Node000010_Node000011" class="edge">
<title>Node10&#45;&gt;Node11</title>
<g id="a_edge11_Node000010_Node000011"><a xlink:title=" ">
<path fill="none" stroke="#63b8ff" d="M487.11,-247.44C441.04,-235.96 359.26,-215.6 308.68,-203"/>
<polygon fill="#63b8ff" stroke="#63b8ff" points="309.24,-199.53 298.69,-200.51 307.55,-206.33 309.24,-199.53"/>
</a>
</g>
</g>
<!-- Node13&#45;&gt;Node3 -->
<g id="edge15_Node000013_Node000003" class="edge">
<title>Node13&#45;&gt;Node3</title>
<g id="a_edge15_Node000013_Node000003"><a xlink:title=" ">
<path fill="none" stroke="#63b8ff" d="M467.29,-379.39C486.82,-360.47 533.61,-316.33 553.5,-308 711.19,-241.92 770.52,-313 936.5,-272 938.67,-271.47 940.87,-270.82 943.07,-270.09"/>
<polygon fill="#63b8ff" stroke="#63b8ff" points="944.34,-273.36 952.48,-266.58 941.89,-266.8 944.34,-273.36"/>
</a>
</g>
</g>
<!-- Node13&#45;&gt;Node7 -->
<g id="edge17_Node000013_Node000007" class="edge">
<title>Node13&#45;&gt;Node7</title>
<g id="a_edge17_Node000013_Node000007"><a xlink:title=" ">
<path fill="none" stroke="#63b8ff" d="M522.68,-379.47C574.45,-371.61 648.71,-358.09 711.5,-338 712.94,-337.54 714.4,-337.03 715.87,-336.49"/>
<polygon fill="#63b8ff" stroke="#63b8ff" points="717.48,-339.61 725.4,-332.57 714.82,-333.14 717.48,-339.61"/>
</a>
</g>
</g>
<!-- Node13&#45;&gt;Node9 -->
<g id="edge18_Node000013_Node000009" class="edge">
<title>Node13&#45;&gt;Node9</title>
<g id="a_edge18_Node000013_Node000009"><a xlink:title=" ">
<path fill="none" stroke="#63b8ff" d="M481.97,-379.37C512.28,-368.22 565.21,-348.75 599.54,-336.12"/>
<polygon fill="#63b8ff" stroke="#63b8ff" points="600.95,-339.33 609.13,-332.6 598.53,-332.76 600.95,-339.33"/>
</a>
</g>
</g>
<!-- Node13&#45;&gt;Node11 -->
<g id="edge16_Node000013_Node000011" class="edge">
<title>Node13&#45;&gt;Node11</title>
<g id="a_edge16_Node000013_Node000011"><a xlink:title=" ">
<path fill="none" stroke="#63b8ff" d="M379.35,-383.54C307.28,-374.54 206.36,-348.19 167.5,-272 161.44,-260.12 160.56,-253.38 167.5,-242 179.11,-222.95 200.56,-210.85 220.34,-203.33"/>
<polygon fill="#63b8ff" stroke="#63b8ff" points="221.58,-206.61 229.86,-200 219.27,-200 221.58,-206.61"/>
</a>
</g>
</g>
<!-- Node14 -->
<g id="Node000014" class="node">
<title>Node14</title>
<g id="a_Node000014"><a xlink:title=" ">
<polygon fill="#e0e0e0" stroke="#999999" points="228.5,-266.5 176.5,-266.5 176.5,-247.5 228.5,-247.5 228.5,-266.5"/>
<text text-anchor="middle" x="202.5" y="-254.5" font-family="Helvetica,sans-Serif" font-size="10.00">cassert</text>
</a>
</g>
</g>
<!-- Node13&#45;&gt;Node14 -->
<g id="edge14_Node000013_Node000014" class="edge">
<title>Node13&#45;&gt;Node14</title>
<g id="a_edge14_Node000013_Node000014"><a xlink:title=" ">
<path fill="none" stroke="#63b8ff" d="M421.74,-379.48C390.29,-371.36 344.38,-357.46 307.5,-338 273.45,-320.04 238.87,-291.2 219.12,-273.49"/>
<polygon fill="#63b8ff" stroke="#63b8ff" points="221.36,-270.8 211.61,-266.65 216.64,-275.97 221.36,-270.8"/>
</a>
</g>
</g>
<!-- Node15 -->
<g id="Node000015" class="node">
<title>Node15</title>
<g id="a_Node000015"><a xlink:href="ErrorHandling_8h.html" target="_top" xlink:title=" ">
<polygon fill="white" stroke="#666666" points="807,-266.5 646,-266.5 646,-247.5 807,-247.5 807,-266.5"/>
<text text-anchor="middle" x="726.5" y="-254.5" font-family="Helvetica,sans-Serif" font-size="10.00">open62541pp/ErrorHandling.h</text>
</a>
</g>
</g>
<!-- Node13&#45;&gt;Node15 -->
<g id="edge19_Node000013_Node000015" class="edge">
<title>Node13&#45;&gt;Node15</title>
<g id="a_edge19_Node000013_Node000015"><a xlink:title=" ">
<path fill="none" stroke="#63b8ff" d="M458.39,-379.28C458.69,-362.77 461.85,-326.89 482.5,-308 495.57,-296.05 591.85,-278.91 659.48,-268.13"/>
<polygon fill="#63b8ff" stroke="#63b8ff" points="660.33,-271.54 669.66,-266.52 659.23,-264.62 660.33,-271.54"/>
</a>
</g>
</g>
<!-- Node13&#45;&gt;Node18 -->
<g id="edge40_Node000013_Node000018" class="edge">
<title>Node13&#45;&gt;Node18</title>
<g id="a_edge40_Node000013_Node000018"><a xlink:title=" ">
<path fill="none" stroke="#63b8ff" d="M462.86,-379.45C472.61,-360.65 496.43,-316.74 510.5,-308 626.83,-235.75 689.99,-324.4 816.5,-272 836.38,-263.77 836.02,-253.02 854.5,-242 875.57,-229.44 900.38,-218.31 921.63,-209.75"/>
<polygon fill="#63b8ff" stroke="#63b8ff" points="923.1,-212.94 931.12,-206.01 920.53,-206.42 923.1,-212.94"/>
</a>
</g>
</g>
<!-- Node30 -->
<g id="Node000030" class="node">
<title>Node30</title>
<g id="a_Node000030"><a xlink:href="Wrapper_8h.html" target="_top" xlink:title=" ">
<polygon fill="white" stroke="#666666" points="135,-332.5 0,-332.5 0,-313.5 135,-313.5 135,-332.5"/>
<text text-anchor="middle" x="67.5" y="-320.5" font-family="Helvetica,sans-Serif" font-size="10.00">open62541pp/Wrapper.h</text>
</a>
</g>
</g>
<!-- Node13&#45;&gt;Node30 -->
<g id="edge38_Node000013_Node000030" class="edge">
<title>Node13&#45;&gt;Node30</title>
<g id="a_edge38_Node000013_Node000030"><a xlink:title=" ">
<path fill="none" stroke="#63b8ff" d="M404.89,-379.47C343.24,-369.63 239.02,-352.89 149.5,-338 142.17,-336.78 134.47,-335.49 126.85,-334.2"/>
<polygon fill="#63b8ff" stroke="#63b8ff" points="127.37,-330.73 116.92,-332.51 126.19,-337.63 127.37,-330.73"/>
</a>
</g>
</g>
<!-- Node31 -->
<g id="Node000031" class="node">
<title>Node31</title>
<g id="a_Node000031"><a xlink:href="types__handling_8h.html" target="_top" xlink:title=" ">
<polygon fill="white" stroke="#666666" points="430,-338 317,-338 317,-308 430,-308 430,-338"/>
<text text-anchor="start" x="325" y="-326" font-family="Helvetica,sans-Serif" font-size="10.00">open62541pp/detail</text>
<text text-anchor="middle" x="373.5" y="-315" font-family="Helvetica,sans-Serif" font-size="10.00">/types_handling.h</text>
</a>
</g>
</g>
<!-- Node13&#45;&gt;Node31 -->
<g id="edge41_Node000013_Node000031" class="edge">
<title>Node13&#45;&gt;Node31</title>
<g id="a_edge41_Node000013_Node000031"><a xlink:title=" ">
<path fill="none" stroke="#63b8ff" d="M447.04,-379.37C435.18,-370.44 416.25,-356.19 400.56,-344.38"/>
<polygon fill="#63b8ff" stroke="#63b8ff" points="402.34,-341.33 392.25,-338.12 398.13,-346.93 402.34,-341.33"/>
</a>
</g>
</g>
<!-- Node16 -->
<g id="Node000016" class="node">
<title>Node16</title>
<g id="a_Node000016"><a xlink:title=" ">
<polygon fill="#e0e0e0" stroke="#999999" points="710,-200.5 673,-200.5 673,-181.5 710,-181.5 710,-200.5"/>
<text text-anchor="middle" x="691.5" y="-188.5" font-family="Helvetica,sans-Serif" font-size="10.00">new</text>
</a>
</g>
</g>
<!-- Node15&#45;&gt;Node16 -->
<g id="edge20_Node000015_Node000016" class="edge">
<title>Node15&#45;&gt;Node16</title>
<g id="a_edge20_Node000015_Node000016"><a xlink:title=" ">
<path fill="none" stroke="#63b8ff" d="M721.78,-247.37C716.54,-237.78 707.93,-222.05 701.23,-209.8"/>
<polygon fill="#63b8ff" stroke="#63b8ff" points="704.24,-208 696.37,-200.91 698.1,-211.36 704.24,-208"/>
</a>
</g>
</g>
<!-- Node17 -->
<g id="Node000017" class="node">
<title>Node17</title>
<g id="a_Node000017"><a xlink:title=" ">
<polygon fill="#e0e0e0" stroke="#999999" points="793,-200.5 728,-200.5 728,-181.5 793,-181.5 793,-200.5"/>
<text text-anchor="middle" x="760.5" y="-188.5" font-family="Helvetica,sans-Serif" font-size="10.00">stdexcept</text>
</a>
</g>
</g>
<!-- Node15&#45;&gt;Node17 -->
<g id="edge21_Node000015_Node000017" class="edge">
<title>Node15&#45;&gt;Node17</title>
<g id="a_edge21_Node000015_Node000017"><a xlink:title=" ">
<path fill="none" stroke="#63b8ff" d="M731.09,-247.37C736.18,-237.78 744.54,-222.05 751.04,-209.8"/>
<polygon fill="#63b8ff" stroke="#63b8ff" points="754.17,-211.38 755.77,-200.91 747.99,-208.09 754.17,-211.38"/>
</a>
</g>
</g>
<!-- Node15&#45;&gt;Node18 -->
<g id="edge22_Node000015_Node000018" class="edge">
<title>Node15&#45;&gt;Node18</title>
<g id="a_edge22_Node000015_Node000018"><a xlink:title=" ">
<path fill="none" stroke="#63b8ff" d="M759.15,-247.44C796.86,-237.55 859.77,-221.05 907.17,-208.61"/>
<polygon fill="#63b8ff" stroke="#63b8ff" points="908.25,-211.95 917.03,-206.02 906.47,-205.18 908.25,-211.95"/>
</a>
</g>
</g>
<!-- Node19 -->
<g id="Node000019" class="node">
<title>Node19</title>
<g id="a_Node000019"><a xlink:href="push__options_8h.html" target="_top" xlink:title=" ">
<polygon fill="white" stroke="#666666" points="780.5,-30 630.5,-30 630.5,0 780.5,0 780.5,-30"/>
<text text-anchor="start" x="638.5" y="-18" font-family="Helvetica,sans-Serif" font-size="10.00">open62541pp/detail</text>
<text text-anchor="middle" x="705.5" y="-7" font-family="Helvetica,sans-Serif" font-size="10.00">/open62541/push_options.h</text>
</a>
</g>
</g>
<!-- Node18&#45;&gt;Node19 -->
<g id="edge23_Node000018_Node000019" class="edge">
<title>Node18&#45;&gt;Node19</title>
<g id="a_edge23_Node000018_Node000019"><a xlink:title=" ">
<path fill="none" stroke="#63b8ff" d="M906.33,-184.8C789.18,-174.99 551.56,-153.54 539.5,-140 498.96,-94.49 584.8,-54.9 647.49,-33.33"/>
<polygon fill="#63b8ff" stroke="#63b8ff" points="648.96,-36.53 657.33,-30.03 646.73,-29.9 648.96,-36.53"/>
</a>
</g>
</g>
<!-- Node20 -->
<g id="Node000020" class="node">
<title>Node20</title>
<g id="a_Node000020"><a target="_blank" xlink:href="open62541/nodeids_8h.html" xlink:title=" ">
<polygon fill="white" stroke="#666666" points="669,-140 548,-140 548,-121 669,-121 669,-140"/>
<text text-anchor="middle" x="608.5" y="-128" font-family="Helvetica,sans-Serif" font-size="10.00">open62541/nodeids.h</text>
</a>
</g>
</g>
<!-- Node18&#45;&gt;Node20 -->
<g id="edge24_Node000018_Node000020" class="edge">
<title>Node18&#45;&gt;Node20</title>
<g id="a_edge24_Node000018_Node000020"><a xlink:title=" ">
<path fill="none" stroke="#63b8ff" d="M906.2,-179.61C839.95,-168.9 737.35,-152.32 671.56,-141.69"/>
<polygon fill="#63b8ff" stroke="#63b8ff" points="671.76,-138.18 661.33,-140.04 670.64,-145.09 671.76,-138.18"/>
</a>
</g>
</g>
<!-- Node21 -->
<g id="Node000021" class="node">
<title>Node21</title>
<g id="a_Node000021"><a target="_blank" xlink:href="open62541/statuscodes_8h.html" xlink:title=" ">
<polygon fill="white" stroke="#666666" points="828,-140 687,-140 687,-121 828,-121 828,-140"/>
<text text-anchor="middle" x="757.5" y="-128" font-family="Helvetica,sans-Serif" font-size="10.00">open62541/statuscodes.h</text>
</a>
</g>
</g>
<!-- Node18&#45;&gt;Node21 -->
<g id="edge25_Node000018_Node000021" class="edge">
<title>Node18&#45;&gt;Node21</title>
<g id="a_edge25_Node000018_Node000021"><a xlink:title=" ">
<path fill="none" stroke="#63b8ff" d="M919.48,-175.99C882.4,-165.8 832.88,-152.2 798.39,-142.73"/>
<polygon fill="#63b8ff" stroke="#63b8ff" points="799.21,-139.33 788.64,-140.05 797.36,-146.08 799.21,-139.33"/>
</a>
</g>
</g>
<!-- Node22 -->
<g id="Node000022" class="node">
<title>Node22</title>
<g id="a_Node000022"><a target="_blank" xlink:href="open62541/types_8h.html" xlink:title=" ">
<polygon fill="white" stroke="#666666" points="956.5,-140 846.5,-140 846.5,-121 956.5,-121 956.5,-140"/>
<text text-anchor="middle" x="901.5" y="-128" font-family="Helvetica,sans-Serif" font-size="10.00">open62541/types.h</text>
</a>
</g>
</g>
<!-- Node18&#45;&gt;Node22 -->
<g id="edge26_Node000018_Node000022" class="edge">
<title>Node18&#45;&gt;Node22</title>
<g id="a_edge26_Node000018_Node000022"><a xlink:title=" ">
<path fill="none" stroke="#63b8ff" d="M947.92,-175.84C936.71,-167.26 923.71,-156.3 914.19,-147.42"/>
<polygon fill="#63b8ff" stroke="#63b8ff" points="916.46,-144.74 906.86,-140.27 911.57,-149.75 916.46,-144.74"/>
</a>
</g>
</g>
<!-- Node25 -->
<g id="Node000025" class="node">
<title>Node25</title>
<g id="a_Node000025"><a xlink:href="pop__options_8h.html" target="_top" xlink:title=" ">
<polygon fill="white" stroke="#666666" points="1413,-30 1268,-30 1268,0 1413,0 1413,-30"/>
<text text-anchor="start" x="1276" y="-18" font-family="Helvetica,sans-Serif" font-size="10.00">open62541pp/detail</text>
<text text-anchor="middle" x="1340.5" y="-7" font-family="Helvetica,sans-Serif" font-size="10.00">/open62541/pop_options.h</text>
</a>
</g>
</g>
<!-- Node18&#45;&gt;Node25 -->
<g id="edge37_Node000018_Node000025" class="edge">
<title>Node18&#45;&gt;Node25</title>
<g id="a_edge37_Node000018_Node000025"><a xlink:title=" ">
<path fill="none" stroke="#63b8ff" d="M1034.51,-189.84C1189.43,-188.78 1574.72,-181.91 1613.5,-140 1675.51,-72.98 1524.37,-39.59 1423.07,-25.2"/>
<polygon fill="#63b8ff" stroke="#63b8ff" points="1423.51,-21.73 1413.12,-23.83 1422.55,-28.66 1423.51,-21.73"/>
</a>
</g>
</g>
<!-- Node26 -->
<g id="Node000026" class="node">
<title>Node26</title>
<g id="a_Node000026"><a target="_blank" xlink:href="open62541/types__generated_8h.html" xlink:title=" ">
<polygon fill="white" stroke="#666666" points="1288.5,-140 1124.5,-140 1124.5,-121 1288.5,-121 1288.5,-140"/>
<text text-anchor="middle" x="1206.5" y="-128" font-family="Helvetica,sans-Serif" font-size="10.00">open62541/types_generated.h</text>
</a>
</g>
</g>
<!-- Node18&#45;&gt;Node26 -->
<g id="edge32_Node000018_Node000026" class="edge">
<title>Node18&#45;&gt;Node26</title>
<g id="a_edge32_Node000018_Node000026"><a xlink:title=" ">
<path fill="none" stroke="#63b8ff" d="M1027.03,-175.99C1068.46,-165.72 1123.93,-151.97 1162.17,-142.49"/>
<polygon fill="#63b8ff" stroke="#63b8ff" points="1163.13,-145.86 1171.99,-140.05 1161.44,-139.06 1163.13,-145.86"/>
</a>
</g>
</g>
<!-- Node27 -->
<g id="Node000027" class="node">
<title>Node27</title>
<g id="a_Node000027"><a target="_blank" xlink:href="open62541/util_8h.html" xlink:title=" ">
<polygon fill="white" stroke="#666666" points="1404.5,-140 1306.5,-140 1306.5,-121 1404.5,-121 1404.5,-140"/>
<text text-anchor="middle" x="1355.5" y="-128" font-family="Helvetica,sans-Serif" font-size="10.00">open62541/util.h</text>
</a>
</g>
</g>
<!-- Node18&#45;&gt;Node27 -->
<g id="edge33_Node000018_Node000027" class="edge">
<title>Node18&#45;&gt;Node27</title>
<g id="a_edge33_Node000018_Node000027"><a xlink:title=" ">
<path fill="none" stroke="#63b8ff" d="M1034.51,-180.27C1107.36,-169.2 1225.42,-151.27 1296.24,-140.5"/>
<polygon fill="#63b8ff" stroke="#63b8ff" points="1296.97,-143.93 1306.34,-138.97 1295.92,-137.01 1296.97,-143.93"/>
</a>
</g>
</g>
<!-- Node28 -->
<g id="Node000028" class="node">
<title>Node28</title>
<g id="a_Node000028"><a target="_blank" xlink:href="open62541/accesscontrol_8h.html" xlink:title=" ">
<polygon fill="white" stroke="#666666" points="1604.5,-140 1422.5,-140 1422.5,-121 1604.5,-121 1604.5,-140"/>
<text text-anchor="middle" x="1513.5" y="-128" font-family="Helvetica,sans-Serif" font-size="10.00">open62541/plugin/accesscontrol.h</text>
</a>
</g>
</g>
<!-- Node18&#45;&gt;Node28 -->
<g id="edge34_Node000018_Node000028" class="edge">
<title>Node18&#45;&gt;Node28</title>
<g id="a_edge34_Node000018_Node000028"><a xlink:title=" ">
<path fill="none" stroke="#63b8ff" d="M1034.65,-183.09C1131.4,-172.67 1314.95,-152.89 1424.55,-141.08"/>
<polygon fill="#63b8ff" stroke="#63b8ff" points="1425.03,-144.55 1434.6,-140 1424.28,-137.59 1425.03,-144.55"/>
</a>
</g>
</g>
<!-- Node29 -->
<g id="Node000029" class="node">
<title>Node29</title>
<g id="a_Node000029"><a target="_blank" xlink:href="open62541/log_8h.html" xlink:title=" ">
<polygon fill="white" stroke="#666666" points="1106,-140 975,-140 975,-121 1106,-121 1106,-140"/>
<text text-anchor="middle" x="1040.5" y="-128" font-family="Helvetica,sans-Serif" font-size="10.00">open62541/plugin/log.h</text>
</a>
</g>
</g>
<!-- Node18&#45;&gt;Node29 -->
<g id="edge35_Node000018_Node000029" class="edge">
<title>Node18&#45;&gt;Node29</title>
<g id="a_edge35_Node000018_Node000029"><a xlink:title=" ">
<path fill="none" stroke="#63b8ff" d="M987.45,-175.84C997.92,-167.09 1011.36,-155.85 1022.09,-146.88"/>
<polygon fill="#63b8ff" stroke="#63b8ff" points="1024.58,-149.36 1030.01,-140.27 1020.09,-143.99 1024.58,-149.36"/>
</a>
</g>
</g>
<!-- Node22&#45;&gt;Node18 -->
<g id="edge31_Node000022_Node000018" class="edge">
<title>Node22&#45;&gt;Node18</title>
<g id="a_edge31_Node000022_Node000018"><a xlink:title=" ">
<path fill="none" stroke="#63b8ff" d="M916.82,-140.27C927.36,-147.83 941.13,-159.07 952.19,-168.96"/>
<polygon fill="#63b8ff" stroke="#63b8ff" points="949.94,-171.65 959.68,-175.84 954.68,-166.49 949.94,-171.65"/>
</a>
</g>
</g>
<!-- Node23 -->
<g id="Node000023" class="node">
<title>Node23</title>
<g id="a_Node000023"><a xlink:href="config_8h.html" target="_top" xlink:title=" ">
<polygon fill="white" stroke="#666666" points="1026.5,-85 914.5,-85 914.5,-66 1026.5,-66 1026.5,-85"/>
<text text-anchor="middle" x="970.5" y="-73" font-family="Helvetica,sans-Serif" font-size="10.00">open62541/config.h</text>
</a>
</g>
</g>
<!-- Node22&#45;&gt;Node23 -->
<g id="edge27_Node000022_Node000023" class="edge">
<title>Node22&#45;&gt;Node23</title>
<g id="a_edge27_Node000022_Node000023"><a xlink:title=" ">
<path fill="none" stroke="#63b8ff" d="M912.59,-120.98C922.99,-113 938.76,-100.88 951.22,-91.31"/>
<polygon fill="#63b8ff" stroke="#63b8ff" points="953.41,-94.04 959.21,-85.17 949.15,-88.49 953.41,-94.04"/>
</a>
</g>
</g>
<!-- Node23&#45;&gt;Node19 -->
<g id="edge28_Node000023_Node000019" class="edge">
<title>Node23&#45;&gt;Node19</title>
<g id="a_edge28_Node000023_Node000019"><a xlink:title=" ">
<path fill="none" stroke="#63b8ff" d="M931.97,-65.99C892.01,-57.17 828.58,-43.17 778.99,-32.22"/>
<polygon fill="#63b8ff" stroke="#63b8ff" points="779.47,-28.75 768.95,-30.01 777.96,-35.58 779.47,-28.75"/>
</a>
</g>
</g>
<!-- Node24 -->
<g id="Node000024" class="node">
<title>Node24</title>
<g id="a_Node000024"><a xlink:title=" ">
<polygon fill="#e0e0e0" stroke="#999999" points="1026.5,-24.5 914.5,-24.5 914.5,-5.5 1026.5,-5.5 1026.5,-24.5"/>
<text text-anchor="middle" x="970.5" y="-12.5" font-family="Helvetica,sans-Serif" font-size="10.00">open62541/config.h</text>
</a>
</g>
</g>
<!-- Node23&#45;&gt;Node24 -->
<g id="edge29_Node000023_Node000024" class="edge">
<title>Node23&#45;&gt;Node24</title>
<g id="a_edge29_Node000023_Node000024"><a xlink:title=" ">
<path fill="none" stroke="#63b8ff" d="M970.5,-65.87C970.5,-57.75 970.5,-45.31 970.5,-34.89"/>
<polygon fill="#63b8ff" stroke="#63b8ff" points="974,-34.67 970.5,-24.67 967,-34.67 974,-34.67"/>
</a>
</g>
</g>
<!-- Node23&#45;&gt;Node25 -->
<g id="edge30_Node000023_Node000025" class="edge">
<title>Node23&#45;&gt;Node25</title>
<g id="a_edge30_Node000023_Node000025"><a xlink:title=" ">
<path fill="none" stroke="#63b8ff" d="M1024.3,-65.99C1085.53,-56.31 1186.25,-40.39 1257.55,-29.12"/>
<polygon fill="#63b8ff" stroke="#63b8ff" points="1258.51,-32.51 1267.85,-27.49 1257.42,-25.59 1258.51,-32.51"/>
</a>
</g>
</g>
<!-- Node29&#45;&gt;Node23 -->
<g id="edge36_Node000029_Node000023" class="edge">
<title>Node29&#45;&gt;Node23</title>
<g id="a_edge36_Node000029_Node000023"><a xlink:title=" ">
<path fill="none" stroke="#63b8ff" d="M1029.25,-120.98C1018.7,-113 1002.7,-100.88 990.06,-91.31"/>
<polygon fill="#63b8ff" stroke="#63b8ff" points="992.04,-88.42 981.95,-85.17 987.81,-94 992.04,-88.42"/>
</a>
</g>
</g>
<!-- Node30&#45;&gt;Node11 -->
<g id="edge39_Node000030_Node000011" class="edge">
<title>Node30&#45;&gt;Node11</title>
<g id="a_edge39_Node000030_Node000011"><a xlink:title=" ">
<path fill="none" stroke="#63b8ff" d="M72.66,-313.29C82.66,-297.11 106.2,-262.22 134.5,-242 160.23,-223.61 193.6,-210.96 220.09,-202.99"/>
<polygon fill="#63b8ff" stroke="#63b8ff" points="221.24,-206.3 229.88,-200.16 219.3,-199.57 221.24,-206.3"/>
</a>
</g>
</g>
<!-- Node31&#45;&gt;Node14 -->
<g id="edge43_Node000031_Node000014" class="edge">
<title>Node31&#45;&gt;Node14</title>
<g id="a_edge43_Node000031_Node000014"><a xlink:title=" ">
<path fill="none" stroke="#63b8ff" d="M334.41,-307.96C307.17,-298.09 270.03,-284.48 237.5,-272 236.09,-271.46 234.64,-270.9 233.19,-270.33"/>
<polygon fill="#63b8ff" stroke="#63b8ff" points="234.15,-266.95 223.56,-266.54 231.58,-273.46 234.15,-266.95"/>
</a>
</g>
</g>
<!-- Node31&#45;&gt;Node15 -->
<g id="edge45_Node000031_Node000015" class="edge">
<title>Node31&#45;&gt;Node15</title>
<g id="a_edge45_Node000031_Node000015"><a xlink:title=" ">
<path fill="none" stroke="#63b8ff" d="M430.06,-310.75C434.94,-309.8 439.81,-308.88 444.5,-308 521.15,-293.65 609.72,-278.12 666.84,-268.24"/>
<polygon fill="#63b8ff" stroke="#63b8ff" points="667.52,-271.67 676.78,-266.52 666.33,-264.77 667.52,-271.67"/>
</a>
</g>
</g>
<!-- Node31&#45;&gt;Node18 -->
<g id="edge46_Node000031_Node000018" class="edge">
<title>Node31&#45;&gt;Node18</title>
<g id="a_edge46_Node000031_Node000018"><a xlink:title=" ">
<path fill="none" stroke="#63b8ff" d="M430.09,-312.32C486.58,-302.15 569.09,-285.74 598.5,-272 618.31,-262.74 617.38,-250.56 637.5,-242 682.81,-222.72 812.7,-207.16 896.23,-198.77"/>
<polygon fill="#63b8ff" stroke="#63b8ff" points="896.82,-202.23 906.43,-197.76 896.13,-195.27 896.82,-202.23"/>
</a>
</g>
</g>
<!-- Node32 -->
<g id="Node000032" class="node">
<title>Node32</title>
<g id="a_Node000032"><a xlink:title=" ">
<polygon fill="#e0e0e0" stroke="#999999" points="927.5,-266.5 863.5,-266.5 863.5,-247.5 927.5,-247.5 927.5,-266.5"/>
<text text-anchor="middle" x="895.5" y="-254.5" font-family="Helvetica,sans-Serif" font-size="10.00">algorithm</text>
</a>
</g>
</g>
<!-- Node31&#45;&gt;Node32 -->
<g id="edge42_Node000031_Node000032" class="edge">
<title>Node31&#45;&gt;Node32</title>
<g id="a_edge42_Node000031_Node000032"><a xlink:title=" ">
<path fill="none" stroke="#63b8ff" d="M430.29,-316.75C514.72,-308.67 678.24,-292.03 816.5,-272 828.44,-270.27 841.35,-268.11 853.2,-266"/>
<polygon fill="#63b8ff" stroke="#63b8ff" points="854.07,-269.4 863.29,-264.18 852.82,-262.51 854.07,-269.4"/>
</a>
</g>
</g>
<!-- Node33 -->
<g id="Node000033" class="node">
<title>Node33</title>
<g id="a_Node000033"><a xlink:title=" ">
<polygon fill="#e0e0e0" stroke="#999999" points="304.5,-266.5 246.5,-266.5 246.5,-247.5 304.5,-247.5 304.5,-266.5"/>
<text text-anchor="middle" x="275.5" y="-254.5" font-family="Helvetica,sans-Serif" font-size="10.00">memory</text>
</a>
</g>
</g>
<!-- Node31&#45;&gt;Node33 -->
<g id="edge44_Node000031_Node000033" class="edge">
<title>Node31&#45;&gt;Node33</title>
<g id="a_edge44_Node000031_Node000033"><a xlink:title=" ">
<path fill="none" stroke="#63b8ff" d="M351.75,-307.8C335.63,-297.27 313.74,-282.97 297.55,-272.4"/>
<polygon fill="#63b8ff" stroke="#63b8ff" points="299.04,-269.2 288.76,-266.66 295.22,-275.06 299.04,-269.2"/>
</a>
</g>
</g>
<!-- Node34 -->
<g id="Node000034" class="node">
<title>Node34</title>
<g id="a_Node000034"><a xlink:href="traits_8h.html" target="_top" xlink:title=" ">
<polygon fill="white" stroke="#666666" points="436,-272 323,-272 323,-242 436,-242 436,-272"/>
<text text-anchor="start" x="331" y="-260" font-family="Helvetica,sans-Serif" font-size="10.00">open62541pp/detail</text>
<text text-anchor="middle" x="379.5" y="-249" font-family="Helvetica,sans-Serif" font-size="10.00">/traits.h</text>
</a>
</g>
</g>
<!-- Node31&#45;&gt;Node34 -->
<g id="edge47_Node000031_Node000034" class="edge">
<title>Node31&#45;&gt;Node34</title>
<g id="a_edge47_Node000031_Node000034"><a xlink:title=" ">
<path fill="none" stroke="#63b8ff" d="M374.83,-307.8C375.54,-300.26 376.43,-290.78 377.24,-282.13"/>
<polygon fill="#63b8ff" stroke="#63b8ff" points="380.72,-282.45 378.17,-272.16 373.75,-281.79 380.72,-282.45"/>
</a>
</g>
</g>
<!-- Node34&#45;&gt;Node11 -->
<g id="edge48_Node000034_Node000011" class="edge">
<title>Node34&#45;&gt;Node11</title>
<g id="a_edge48_Node000034_Node000011"><a xlink:title=" ">
<path fill="none" stroke="#63b8ff" d="M354.26,-241.95C334.72,-231.08 307.82,-216.11 288.57,-205.4"/>
<polygon fill="#63b8ff" stroke="#63b8ff" points="290.24,-202.32 279.8,-200.52 286.84,-208.44 290.24,-202.32"/>
</a>
</g>
</g>
<!-- Node35&#45;&gt;Node5 -->
<g id="edge52_Node000035_Node000005" class="edge">
<title>Node35&#45;&gt;Node5</title>
<g id="a_edge52_Node000035_Node000005"><a xlink:title=" ">
<path fill="none" stroke="#63b8ff" d="M1253.98,-373.95C1272,-363.18 1296.74,-348.38 1314.61,-337.69"/>
<polygon fill="#63b8ff" stroke="#63b8ff" points="1316.47,-340.65 1323.26,-332.52 1312.88,-334.65 1316.47,-340.65"/>
</a>
</g>
</g>
<!-- Node35&#45;&gt;Node6 -->
<g id="edge53_Node000035_Node000006" class="edge">
<title>Node35&#45;&gt;Node6</title>
<g id="a_edge53_Node000035_Node000006"><a xlink:title=" ">
<path fill="none" stroke="#63b8ff" d="M1212.75,-373.8C1199.91,-363.53 1182.58,-349.67 1169.47,-339.18"/>
<polygon fill="#63b8ff" stroke="#63b8ff" points="1171.55,-336.36 1161.56,-332.84 1167.18,-341.82 1171.55,-336.36"/>
</a>
</g>
</g>
<!-- Node35&#45;&gt;Node18 -->
<g id="edge54_Node000035_Node000018" class="edge">
<title>Node35&#45;&gt;Node18</title>
<g id="a_edge54_Node000035_Node000018"><a xlink:title=" ">
<path fill="none" stroke="#63b8ff" d="M1227.63,-373.95C1223.45,-356.59 1214.18,-327.01 1196.5,-308 1150.74,-258.8 1079.41,-227.08 1029.15,-209.46"/>
<polygon fill="#63b8ff" stroke="#63b8ff" points="1029.98,-206.04 1019.39,-206.12 1027.72,-212.67 1029.98,-206.04"/>
</a>
</g>
</g>
<!-- Node36 -->
<g id="Node000036" class="node">
<title>Node36</title>
<g id="a_Node000036"><a xlink:title=" ">
<polygon fill="#e0e0e0" stroke="#999999" points="1297,-332.5 1244,-332.5 1244,-313.5 1297,-313.5 1297,-332.5"/>
<text text-anchor="middle" x="1270.5" y="-320.5" font-family="Helvetica,sans-Serif" font-size="10.00">cstdarg</text>
</a>
</g>
</g>
<!-- Node35&#45;&gt;Node36 -->
<g id="edge51_Node000035_Node000036" class="edge">
<title>Node35&#45;&gt;Node36</title>
<g id="a_edge51_Node000035_Node000036"><a xlink:title=" ">
<path fill="none" stroke="#63b8ff" d="M1239.38,-373.8C1245.31,-364.31 1253.15,-351.76 1259.48,-341.63"/>
<polygon fill="#63b8ff" stroke="#63b8ff" points="1262.64,-343.18 1264.97,-332.84 1256.7,-339.47 1262.64,-343.18"/>
</a>
</g>
</g>
<!-- Node37&#45;&gt;Node3 -->
<g id="edge58_Node000037_Node000003" class="edge">
<title>Node37&#45;&gt;Node3</title>
<g id="a_edge58_Node000037_Node000003"><a xlink:title=" ">
<path fill="none" stroke="#63b8ff" d="M826.5,-439.95C840.52,-431.94 860.88,-418.97 875.5,-404 914.82,-363.75 947.17,-304.88 961.91,-275.72"/>
<polygon fill="#63b8ff" stroke="#63b8ff" points="965.06,-277.24 966.37,-266.73 958.79,-274.13 965.06,-277.24"/>
</a>
</g>
</g>
<!-- Node37&#45;&gt;Node5 -->
<g id="edge60_Node000037_Node000005" class="edge">
<title>Node37&#45;&gt;Node5</title>
<g id="a_edge60_Node000037_Node000005"><a xlink:title=" ">
<path fill="none" stroke="#63b8ff" d="M888.71,-440.92C892.02,-440.61 895.29,-440.3 898.5,-440 986.92,-431.73 1222.89,-453.68 1296.5,-404 1317.59,-389.77 1328.44,-361.22 1333.55,-342.37"/>
<polygon fill="#63b8ff" stroke="#63b8ff" points="1336.97,-343.11 1335.92,-332.56 1330.17,-341.46 1336.97,-343.11"/>
</a>
</g>
</g>
<!-- Node37&#45;&gt;Node6 -->
<g id="edge61_Node000037_Node000006" class="edge">
<title>Node37&#45;&gt;Node6</title>
<g id="a_edge61_Node000037_Node000006"><a xlink:title=" ">
<path fill="none" stroke="#63b8ff" d="M873.16,-439.96C932,-431.35 1015.35,-417.43 1045.5,-404 1081.04,-388.17 1115.61,-358.16 1134.88,-339.73"/>
<polygon fill="#63b8ff" stroke="#63b8ff" points="1137.45,-342.11 1142.15,-332.62 1132.56,-337.11 1137.45,-342.11"/>
</a>
</g>
</g>
<!-- Node37&#45;&gt;Node7 -->
<g id="edge62_Node000037_Node000007" class="edge">
<title>Node37&#45;&gt;Node7</title>
<g id="a_edge62_Node000037_Node000007"><a xlink:title=" ">
<path fill="none" stroke="#63b8ff" d="M818.63,-439.76C831.01,-425.34 851.83,-395.97 838.5,-374 824.72,-351.29 796.89,-338.42 774.73,-331.44"/>
<polygon fill="#63b8ff" stroke="#63b8ff" points="775.59,-328.04 765.01,-328.63 773.65,-334.77 775.59,-328.04"/>
</a>
</g>
</g>
<!-- Node37&#45;&gt;Node9 -->
<g id="edge64_Node000037_Node000009" class="edge">
<title>Node37&#45;&gt;Node9</title>
<g id="a_edge64_Node000037_Node000009"><a xlink:title=" ">
<path fill="none" stroke="#63b8ff" d="M751.87,-439.93C725.52,-433.62 695.49,-422.73 673.5,-404 654.52,-387.83 643.26,-360.69 637.48,-342.57"/>
<polygon fill="#63b8ff" stroke="#63b8ff" points="640.81,-341.46 634.63,-332.86 634.09,-343.44 640.81,-341.46"/>
</a>
</g>
</g>
<!-- Node37&#45;&gt;Node13 -->
<g id="edge66_Node000037_Node000013" class="edge">
<title>Node37&#45;&gt;Node13</title>
<g id="a_edge66_Node000037_Node000013"><a xlink:title=" ">
<path fill="none" stroke="#63b8ff" d="M759.32,-439.99C695.84,-429.44 587.73,-411.48 519.87,-400.2"/>
<polygon fill="#63b8ff" stroke="#63b8ff" points="520.18,-396.7 509.75,-398.52 519.04,-403.61 520.18,-396.7"/>
</a>
</g>
</g>
<!-- Node37&#45;&gt;Node15 -->
<g id="edge65_Node000037_Node000015" class="edge">
<title>Node37&#45;&gt;Node15</title>
<g id="a_edge65_Node000037_Node000015"><a xlink:title=" ">
<path fill="none" stroke="#63b8ff" d="M761.65,-439.95C741,-433.65 718.88,-422.77 706.5,-404 699.16,-392.87 699.62,-385.42 706.5,-374 724.14,-344.7 756.86,-367.3 774.5,-338 788.11,-315.4 764.96,-289.17 746.33,-273.08"/>
<polygon fill="#63b8ff" stroke="#63b8ff" points="748.44,-270.28 738.49,-266.65 744,-275.69 748.44,-270.28"/>
</a>
</g>
</g>
<!-- Node37&#45;&gt;Node18 -->
<g id="edge68_Node000037_Node000018" class="edge">
<title>Node37&#45;&gt;Node18</title>
<g id="a_edge68_Node000037_Node000018"><a xlink:title=" ">
<path fill="none" stroke="#63b8ff" d="M888.72,-441.3C938.66,-434.9 996.87,-423.45 1012.5,-404 1027.7,-385.09 1060.03,-404.73 1004.5,-242 1001.13,-232.12 995.24,-222.37 989.31,-214.14"/>
<polygon fill="#63b8ff" stroke="#63b8ff" points="992.07,-211.99 983.21,-206.17 986.51,-216.24 992.07,-211.99"/>
</a>
</g>
</g>
<!-- Node37&#45;&gt;Node30 -->
<g id="edge67_Node000037_Node000030" class="edge">
<title>Node37&#45;&gt;Node30</title>
<g id="a_edge67_Node000037_Node000030"><a xlink:title=" ">
<path fill="none" stroke="#63b8ff" d="M732.49,-444.33C644.13,-438.74 496.09,-426.78 370.5,-404 272.78,-386.27 160.36,-353.15 103.89,-335.6"/>
<polygon fill="#63b8ff" stroke="#63b8ff" points="104.93,-332.26 94.34,-332.62 102.84,-338.94 104.93,-332.26"/>
</a>
</g>
</g>
<!-- Node37&#45;&gt;Node32 -->
<g id="edge56_Node000037_Node000032" class="edge">
<title>Node37&#45;&gt;Node32</title>
<g id="a_edge56_Node000037_Node000032"><a xlink:title=" ">
<path fill="none" stroke="#63b8ff" d="M821.88,-439.82C831.87,-431.63 846.09,-418.46 854.5,-404 878.69,-362.41 889.24,-305.8 893.29,-276.81"/>
<polygon fill="#63b8ff" stroke="#63b8ff" points="896.77,-277.19 894.58,-266.82 889.83,-276.29 896.77,-277.19"/>
</a>
</g>
</g>
<!-- Node37&#45;&gt;Node35 -->
<g id="edge69_Node000037_Node000035" class="edge">
<title>Node37&#45;&gt;Node35</title>
<g id="a_edge69_Node000037_Node000035"><a xlink:title=" ">
<path fill="none" stroke="#63b8ff" d="M871.57,-439.99C949.35,-429.16 1083.29,-410.5 1163.71,-399.3"/>
<polygon fill="#63b8ff" stroke="#63b8ff" points="1164.31,-402.75 1173.73,-397.91 1163.34,-395.82 1164.31,-402.75"/>
</a>
</g>
</g>
<!-- Node38 -->
<g id="Node000038" class="node">
<title>Node38</title>
<g id="a_Node000038"><a xlink:title=" ">
<polygon fill="#e0e0e0" stroke="#999999" points="1003.5,-398.5 961.5,-398.5 961.5,-379.5 1003.5,-379.5 1003.5,-398.5"/>
<text text-anchor="middle" x="982.5" y="-386.5" font-family="Helvetica,sans-Serif" font-size="10.00">array</text>
</a>
</g>
</g>
<!-- Node37&#45;&gt;Node38 -->
<g id="edge57_Node000037_Node000038" class="edge">
<title>Node37&#45;&gt;Node38</title>
<g id="a_edge57_Node000037_Node000038"><a xlink:title=" ">
<path fill="none" stroke="#63b8ff" d="M838.76,-439.92C866.59,-431.33 910.23,-417.49 947.5,-404 949.11,-403.42 950.75,-402.81 952.41,-402.18"/>
<polygon fill="#63b8ff" stroke="#63b8ff" points="953.8,-405.4 961.86,-398.52 951.27,-398.87 953.8,-405.4"/>
</a>
</g>
</g>
<!-- Node39 -->
<g id="Node000039" class="node">
<title>Node39</title>
<g id="a_Node000039"><a xlink:title=" ">
<polygon fill="#e0e0e0" stroke="#999999" points="763.5,-398.5 715.5,-398.5 715.5,-379.5 763.5,-379.5 763.5,-398.5"/>
<text text-anchor="middle" x="739.5" y="-386.5" font-family="Helvetica,sans-Serif" font-size="10.00">iosfwd</text>
</a>
</g>
</g>
<!-- Node37&#45;&gt;Node39 -->
<g id="edge59_Node000037_Node000039" class="edge">
<title>Node37&#45;&gt;Node39</title>
<g id="a_edge59_Node000037_Node000039"><a xlink:title=" ">
<path fill="none" stroke="#63b8ff" d="M800.02,-439.87C789.01,-430.8 771.46,-416.34 758.09,-405.32"/>
<polygon fill="#63b8ff" stroke="#63b8ff" points="759.96,-402.33 750.02,-398.67 755.51,-407.73 759.96,-402.33"/>
</a>
</g>
</g>
<!-- Node40 -->
<g id="Node000040" class="node">
<title>Node40</title>
<g id="a_Node000040"><a xlink:title=" ">
<polygon fill="#e0e0e0" stroke="#999999" points="829,-398.5 782,-398.5 782,-379.5 829,-379.5 829,-398.5"/>
<text text-anchor="middle" x="805.5" y="-386.5" font-family="Helvetica,sans-Serif" font-size="10.00">vector</text>
</a>
</g>
</g>
<!-- Node37&#45;&gt;Node40 -->
<g id="edge63_Node000037_Node000040" class="edge">
<title>Node37&#45;&gt;Node40</title>
<g id="a_edge63_Node000037_Node000040"><a xlink:title=" ">
<path fill="none" stroke="#63b8ff" d="M809.76,-439.87C809.07,-431.75 808,-419.31 807.11,-408.89"/>
<polygon fill="#63b8ff" stroke="#63b8ff" points="810.58,-408.33 806.24,-398.67 803.61,-408.93 810.58,-408.33"/>
</a>
</g>
</g>
</g>
</svg>
