<?xml version="1.0" encoding="UTF-8" standalone="no"?>
<!DOCTYPE svg PUBLIC "-//W3C//DTD SVG 1.1//EN"
 "http://www.w3.org/Graphics/SVG/1.1/DTD/svg11.dtd">
<!-- Generated by graphviz version 2.43.0 (0)
 -->
<!-- Title: /home/runner/work/open62541pp/open62541pp/include/open62541pp/Node.h Pages: 1 -->
<svg width="1333pt" height="341pt"
 viewBox="0.00 0.00 1332.97 341.00" xmlns="http://www.w3.org/2000/svg" xmlns:xlink="http://www.w3.org/1999/xlink">
<g id="graph0" class="graph" transform="scale(1 1) rotate(0) translate(4 337)">
<title>/home/runner/work/open62541pp/open62541pp/include/open62541pp/Node.h</title>
<!-- Node1 -->
<g id="node1" class="node">
<title>Node1</title>
<g id="a_node1"><a xlink:title=" ">
<polygon fill="#bfbfbf" stroke="black" points="662.47,-291.5 662.47,-332.5 858.47,-332.5 858.47,-291.5 662.47,-291.5"/>
<text text-anchor="start" x="670.47" y="-320.5" font-family="Helvetica,sans-Serif" font-size="10.00">/home/runner/work/open62541pp</text>
<text text-anchor="start" x="670.47" y="-309.5" font-family="Helvetica,sans-Serif" font-size="10.00">/open62541pp/include/open62541pp/</text>
<text text-anchor="middle" x="760.47" y="-298.5" font-family="Helvetica,sans-Serif" font-size="10.00">Node.h</text>
</a>
</g>
</g>
<!-- Node2 -->
<g id="node2" class="node">
<title>Node2</title>
<g id="a_node2"><a xlink:title=" ">
<polygon fill="none" stroke="#bfbfbf" points="772.47,-67.5 772.47,-86.5 816.47,-86.5 816.47,-67.5 772.47,-67.5"/>
<text text-anchor="middle" x="794.47" y="-74.5" font-family="Helvetica,sans-Serif" font-size="10.00">string</text>
</a>
</g>
</g>
<!-- Node1&#45;&gt;Node2 -->
<g id="edge1" class="edge">
<title>Node1&#45;&gt;Node2</title>
<path fill="none" stroke="midnightblue" d="M764.22,-291.41C770.08,-260.14 781.5,-196.96 788.47,-143 790.47,-127.53 792.06,-109.9 793.1,-96.91"/>
<polygon fill="midnightblue" stroke="midnightblue" points="796.59,-97.09 793.86,-86.85 789.61,-96.56 796.59,-97.09"/>
</g>
<!-- Node3 -->
<g id="node3" class="node">
<title>Node3</title>
<g id="a_node3"><a xlink:title=" ">
<polygon fill="none" stroke="#bfbfbf" points="874.97,-67.5 874.97,-86.5 947.97,-86.5 947.97,-67.5 874.97,-67.5"/>
<text text-anchor="middle" x="911.47" y="-74.5" font-family="Helvetica,sans-Serif" font-size="10.00">string_view</text>
</a>
</g>
</g>
<!-- Node1&#45;&gt;Node3 -->
<g id="edge2" class="edge">
<title>Node1&#45;&gt;Node3</title>
<path fill="none" stroke="midnightblue" d="M797.73,-291.33C829.32,-272.37 872.59,-240.46 892.47,-199 908.51,-165.57 911.52,-121.54 911.8,-96.86"/>
<polygon fill="midnightblue" stroke="midnightblue" points="915.3,-96.7 911.77,-86.71 908.3,-96.72 915.3,-96.7"/>
</g>
<!-- Node4 -->
<g id="node4" class="node">
<title>Node4</title>
<g id="a_node4"><a xlink:title=" ">
<polygon fill="none" stroke="#bfbfbf" points="835.97,-179.5 835.97,-198.5 882.97,-198.5 882.97,-179.5 835.97,-179.5"/>
<text text-anchor="middle" x="859.47" y="-186.5" font-family="Helvetica,sans-Serif" font-size="10.00">vector</text>
</a>
</g>
</g>
<!-- Node1&#45;&gt;Node4 -->
<g id="edge3" class="edge">
<title>Node1&#45;&gt;Node4</title>
<path fill="none" stroke="midnightblue" d="M784.96,-291.49C796.8,-281.35 810.74,-268.32 821.47,-255 833.37,-240.24 843.99,-221.34 850.95,-207.73"/>
<polygon fill="midnightblue" stroke="midnightblue" points="854.22,-209.02 855.53,-198.51 847.95,-205.91 854.22,-209.02"/>
</g>
<!-- Node5 -->
<g id="node5" class="node">
<title>Node5</title>
<g id="a_node5"><a xlink:href="ErrorHandling_8h.html" target="_top" xlink:title=" ">
<polygon fill="none" stroke="black" points="191.97,-123.5 191.97,-142.5 352.97,-142.5 352.97,-123.5 191.97,-123.5"/>
<text text-anchor="middle" x="272.47" y="-130.5" font-family="Helvetica,sans-Serif" font-size="10.00">open62541pp/ErrorHandling.h</text>
</a>
</g>
</g>
<!-- Node1&#45;&gt;Node5 -->
<g id="edge4" class="edge">
<title>Node1&#45;&gt;Node5</title>
<path fill="none" stroke="midnightblue" d="M662.42,-311.05C545.76,-309.07 360.26,-298.84 308.47,-255 278.32,-229.48 272.78,-179.91 272.14,-152.81"/>
<polygon fill="midnightblue" stroke="midnightblue" points="275.64,-152.7 272.11,-142.71 268.64,-152.72 275.64,-152.7"/>
</g>
<!-- Node11 -->
<g id="node11" class="node">
<title>Node11</title>
<g id="a_node11"><a xlink:href="NodeId_8h.html" target="_top" xlink:title=" ">
<polygon fill="none" stroke="black" points="614.97,-235.5 614.97,-254.5 743.97,-254.5 743.97,-235.5 614.97,-235.5"/>
<text text-anchor="middle" x="679.47" y="-242.5" font-family="Helvetica,sans-Serif" font-size="10.00">open62541pp/NodeId.h</text>
</a>
</g>
</g>
<!-- Node1&#45;&gt;Node11 -->
<g id="edge11" class="edge">
<title>Node1&#45;&gt;Node11</title>
<path fill="none" stroke="midnightblue" d="M736.17,-291.5C723.99,-281.72 709.47,-270.07 698.17,-261.01"/>
<polygon fill="midnightblue" stroke="midnightblue" points="700.25,-258.18 690.26,-254.65 695.87,-263.64 700.25,-258.18"/>
</g>
<!-- Node21 -->
<g id="node21" class="node">
<title>Node21</title>
<g id="a_node21"><a xlink:href="Types_8h.html" target="_top" xlink:title=" ">
<polygon fill="none" stroke="black" points="13.47,-123.5 13.47,-142.5 135.47,-142.5 135.47,-123.5 13.47,-123.5"/>
<text text-anchor="middle" x="74.47" y="-130.5" font-family="Helvetica,sans-Serif" font-size="10.00">open62541pp/Types.h</text>
</a>
</g>
</g>
<!-- Node1&#45;&gt;Node21 -->
<g id="edge40" class="edge">
<title>Node1&#45;&gt;Node21</title>
<path fill="none" stroke="midnightblue" d="M662.24,-310.55C565.05,-307.53 413.17,-295.82 288.47,-255 211.07,-229.66 130.15,-174.86 93.97,-148.61"/>
<polygon fill="midnightblue" stroke="midnightblue" points="95.9,-145.68 85.76,-142.58 91.75,-151.32 95.9,-145.68"/>
</g>
<!-- Node22 -->
<g id="node22" class="node">
<title>Node22</title>
<g id="a_node22"><a xlink:href="Server_8h.html" target="_top" xlink:title=" ">
<polygon fill="none" stroke="black" points="965.97,-235.5 965.97,-254.5 1090.97,-254.5 1090.97,-235.5 965.97,-235.5"/>
<text text-anchor="middle" x="1028.47" y="-242.5" font-family="Helvetica,sans-Serif" font-size="10.00">open62541pp/Server.h</text>
</a>
</g>
</g>
<!-- Node1&#45;&gt;Node22 -->
<g id="edge30" class="edge">
<title>Node1&#45;&gt;Node22</title>
<path fill="none" stroke="midnightblue" d="M840.88,-291.5C887.45,-280.2 944.35,-266.4 983.19,-256.98"/>
<polygon fill="midnightblue" stroke="midnightblue" points="984.26,-260.33 993.15,-254.57 982.61,-253.52 984.26,-260.33"/>
</g>
<!-- Node27 -->
<g id="node27" class="node">
<title>Node27</title>
<g id="a_node27"><a xlink:href="Variant_8h.html" target="_top" xlink:title=" ">
<polygon fill="none" stroke="black" points="316.97,-235.5 316.97,-254.5 445.97,-254.5 445.97,-235.5 316.97,-235.5"/>
<text text-anchor="middle" x="381.47" y="-242.5" font-family="Helvetica,sans-Serif" font-size="10.00">open62541pp/Variant.h</text>
</a>
</g>
</g>
<!-- Node1&#45;&gt;Node27 -->
<g id="edge41" class="edge">
<title>Node1&#45;&gt;Node27</title>
<path fill="none" stroke="midnightblue" d="M662.38,-294.18C592.3,-282.16 500.29,-266.38 441.01,-256.21"/>
<polygon fill="midnightblue" stroke="midnightblue" points="441.51,-252.75 431.07,-254.51 440.33,-259.65 441.51,-252.75"/>
</g>
<!-- Node5&#45;&gt;Node2 -->
<g id="edge6" class="edge">
<title>Node5&#45;&gt;Node2</title>
<path fill="none" stroke="midnightblue" d="M353.26,-125.46C468.96,-115.91 676.07,-98.08 750.47,-87 754.24,-86.44 758.18,-85.76 762.08,-85.04"/>
<polygon fill="midnightblue" stroke="midnightblue" points="763.04,-88.42 772.17,-83.05 761.68,-81.55 763.04,-88.42"/>
</g>
<!-- Node6 -->
<g id="node6" class="node">
<title>Node6</title>
<g id="a_node6"><a xlink:title=" ">
<polygon fill="none" stroke="#bfbfbf" points="231.97,-67.5 231.97,-86.5 296.97,-86.5 296.97,-67.5 231.97,-67.5"/>
<text text-anchor="middle" x="264.47" y="-74.5" font-family="Helvetica,sans-Serif" font-size="10.00">stdexcept</text>
</a>
</g>
</g>
<!-- Node5&#45;&gt;Node6 -->
<g id="edge5" class="edge">
<title>Node5&#45;&gt;Node6</title>
<path fill="none" stroke="midnightblue" d="M271.15,-123.08C270.09,-115.93 268.57,-105.64 267.24,-96.69"/>
<polygon fill="midnightblue" stroke="midnightblue" points="270.7,-96.13 265.77,-86.75 263.77,-97.16 270.7,-96.13"/>
</g>
<!-- Node7 -->
<g id="node7" class="node">
<title>Node7</title>
<g id="a_node7"><a xlink:href="open62541_8h.html" target="_top" xlink:title=" ">
<polygon fill="none" stroke="black" points="314.97,-67.5 314.97,-86.5 463.97,-86.5 463.97,-67.5 314.97,-67.5"/>
<text text-anchor="middle" x="389.47" y="-74.5" font-family="Helvetica,sans-Serif" font-size="10.00">open62541pp/open62541.h</text>
</a>
</g>
</g>
<!-- Node5&#45;&gt;Node7 -->
<g id="edge7" class="edge">
<title>Node5&#45;&gt;Node7</title>
<path fill="none" stroke="midnightblue" d="M291.01,-123.44C310.1,-114.64 340.05,-100.81 361.91,-90.72"/>
<polygon fill="midnightblue" stroke="midnightblue" points="363.41,-93.88 371.02,-86.52 360.48,-87.53 363.41,-93.88"/>
</g>
<!-- Node8 -->
<g id="node8" class="node">
<title>Node8</title>
<g id="a_node8"><a xlink:href="open62541/nodeids_8h.html.html" xlink:title=" ">
<polygon fill="none" stroke="black" points="194.97,-6 194.97,-25 315.97,-25 315.97,-6 194.97,-6"/>
<text text-anchor="middle" x="255.47" y="-13" font-family="Helvetica,sans-Serif" font-size="10.00">open62541/nodeids.h</text>
</a>
</g>
</g>
<!-- Node7&#45;&gt;Node8 -->
<g id="edge8" class="edge">
<title>Node7&#45;&gt;Node8</title>
<path fill="none" stroke="midnightblue" d="M370.28,-67.48C347.69,-57.45 309.98,-40.7 283.97,-29.15"/>
<polygon fill="midnightblue" stroke="midnightblue" points="285.2,-25.87 274.64,-25.01 282.36,-32.27 285.2,-25.87"/>
</g>
<!-- Node9 -->
<g id="node9" class="node">
<title>Node9</title>
<g id="a_node9"><a xlink:href="open62541/types_8h.html.html" xlink:title=" ">
<polygon fill="none" stroke="black" points="334.47,-6 334.47,-25 444.47,-25 444.47,-6 334.47,-6"/>
<text text-anchor="middle" x="389.47" y="-13" font-family="Helvetica,sans-Serif" font-size="10.00">open62541/types.h</text>
</a>
</g>
</g>
<!-- Node7&#45;&gt;Node9 -->
<g id="edge9" class="edge">
<title>Node7&#45;&gt;Node9</title>
<path fill="none" stroke="midnightblue" d="M389.47,-67.48C389.47,-59.08 389.47,-45.98 389.47,-35.16"/>
<polygon fill="midnightblue" stroke="midnightblue" points="392.97,-35.01 389.47,-25.01 385.97,-35.01 392.97,-35.01"/>
</g>
<!-- Node10 -->
<g id="node10" class="node">
<title>Node10</title>
<g id="a_node10"><a xlink:href="open62541/types__generated__handling_8h.html.html" xlink:title=" ">
<polygon fill="none" stroke="black" points="462.97,-0.5 462.97,-30.5 617.97,-30.5 617.97,-0.5 462.97,-0.5"/>
<text text-anchor="start" x="470.97" y="-18.5" font-family="Helvetica,sans-Serif" font-size="10.00">open62541/types_generated</text>
<text text-anchor="middle" x="540.47" y="-7.5" font-family="Helvetica,sans-Serif" font-size="10.00">_handling.h</text>
</a>
</g>
</g>
<!-- Node7&#45;&gt;Node10 -->
<g id="edge10" class="edge">
<title>Node7&#45;&gt;Node10</title>
<path fill="none" stroke="midnightblue" d="M411.11,-67.48C432.99,-58.85 467.48,-45.26 495.34,-34.29"/>
<polygon fill="midnightblue" stroke="midnightblue" points="496.87,-37.45 504.89,-30.52 494.3,-30.93 496.87,-37.45"/>
</g>
<!-- Node11&#45;&gt;Node3 -->
<g id="edge13" class="edge">
<title>Node11&#45;&gt;Node3</title>
<path fill="none" stroke="midnightblue" d="M693.83,-235.36C708.33,-226.53 731.26,-212.27 750.47,-199 803.13,-162.61 862.81,-116.39 892.54,-93.01"/>
<polygon fill="midnightblue" stroke="midnightblue" points="895.08,-95.46 900.76,-86.52 890.74,-89.97 895.08,-95.46"/>
</g>
<!-- Node11&#45;&gt;Node7 -->
<g id="edge15" class="edge">
<title>Node11&#45;&gt;Node7</title>
<path fill="none" stroke="midnightblue" d="M656.31,-235.49C640.45,-228.35 620.54,-216.47 610.47,-199 593.59,-169.69 628.51,-148.66 606.47,-123 589.17,-102.84 527.38,-91.34 474.15,-85.02"/>
<polygon fill="midnightblue" stroke="midnightblue" points="474.31,-81.51 463.97,-83.86 473.51,-88.47 474.31,-81.51"/>
</g>
<!-- Node12 -->
<g id="node12" class="node">
<title>Node12</title>
<g id="a_node12"><a xlink:title=" ">
<polygon fill="none" stroke="#bfbfbf" points="619.47,-179.5 619.47,-198.5 671.47,-198.5 671.47,-179.5 619.47,-179.5"/>
<text text-anchor="middle" x="645.47" y="-186.5" font-family="Helvetica,sans-Serif" font-size="10.00">cassert</text>
</a>
</g>
</g>
<!-- Node11&#45;&gt;Node12 -->
<g id="edge12" class="edge">
<title>Node11&#45;&gt;Node12</title>
<path fill="none" stroke="midnightblue" d="M673.86,-235.08C669.11,-227.53 662.16,-216.49 656.32,-207.23"/>
<polygon fill="midnightblue" stroke="midnightblue" points="659.27,-205.35 650.98,-198.75 653.35,-209.08 659.27,-205.35"/>
</g>
<!-- Node13 -->
<g id="node13" class="node">
<title>Node13</title>
<g id="a_node13"><a xlink:title=" ">
<polygon fill="none" stroke="#bfbfbf" points="689.97,-179.5 689.97,-198.5 740.97,-198.5 740.97,-179.5 689.97,-179.5"/>
<text text-anchor="middle" x="715.47" y="-186.5" font-family="Helvetica,sans-Serif" font-size="10.00">variant</text>
</a>
</g>
</g>
<!-- Node11&#45;&gt;Node13 -->
<g id="edge14" class="edge">
<title>Node11&#45;&gt;Node13</title>
<path fill="none" stroke="midnightblue" d="M685.42,-235.08C690.45,-227.53 697.81,-216.49 703.99,-207.23"/>
<polygon fill="midnightblue" stroke="midnightblue" points="707.01,-209.01 709.64,-198.75 701.18,-205.13 707.01,-209.01"/>
</g>
<!-- Node14 -->
<g id="node14" class="node">
<title>Node14</title>
<g id="a_node14"><a xlink:href="TypeWrapper_8h.html" target="_top" xlink:title=" ">
<polygon fill="none" stroke="black" points="409.97,-179.5 409.97,-198.5 498.97,-198.5 498.97,-179.5 409.97,-179.5"/>
<text text-anchor="middle" x="454.47" y="-186.5" font-family="Helvetica,sans-Serif" font-size="10.00">TypeWrapper.h</text>
</a>
</g>
</g>
<!-- Node11&#45;&gt;Node14 -->
<g id="edge16" class="edge">
<title>Node11&#45;&gt;Node14</title>
<path fill="none" stroke="midnightblue" d="M643.82,-235.44C604.82,-226.08 542.21,-211.06 499.76,-200.87"/>
<polygon fill="midnightblue" stroke="midnightblue" points="500.5,-197.45 489.96,-198.52 498.87,-204.25 500.5,-197.45"/>
</g>
<!-- Node14&#45;&gt;Node5 -->
<g id="edge21" class="edge">
<title>Node14&#45;&gt;Node5</title>
<path fill="none" stroke="midnightblue" d="M425.64,-179.44C394.62,-170.24 345.14,-155.56 310.86,-145.39"/>
<polygon fill="midnightblue" stroke="midnightblue" points="311.76,-142.01 301.18,-142.52 309.77,-148.72 311.76,-142.01"/>
</g>
<!-- Node15 -->
<g id="node15" class="node">
<title>Node15</title>
<g id="a_node15"><a xlink:title=" ">
<polygon fill="none" stroke="#bfbfbf" points="533.47,-123.5 533.47,-142.5 597.47,-142.5 597.47,-123.5 533.47,-123.5"/>
<text text-anchor="middle" x="565.47" y="-130.5" font-family="Helvetica,sans-Serif" font-size="10.00">algorithm</text>
</a>
</g>
</g>
<!-- Node14&#45;&gt;Node15 -->
<g id="edge17" class="edge">
<title>Node14&#45;&gt;Node15</title>
<path fill="none" stroke="midnightblue" d="M472.31,-179.32C490.19,-170.62 517.95,-157.12 538.52,-147.11"/>
<polygon fill="midnightblue" stroke="midnightblue" points="540.22,-150.18 547.68,-142.65 537.16,-143.88 540.22,-150.18"/>
</g>
<!-- Node16 -->
<g id="node16" class="node">
<title>Node16</title>
<g id="a_node16"><a xlink:title=" ">
<polygon fill="none" stroke="#bfbfbf" points="409.47,-123.5 409.47,-142.5 451.47,-142.5 451.47,-123.5 409.47,-123.5"/>
<text text-anchor="middle" x="430.47" y="-130.5" font-family="Helvetica,sans-Serif" font-size="10.00">array</text>
</a>
</g>
</g>
<!-- Node14&#45;&gt;Node16 -->
<g id="edge18" class="edge">
<title>Node14&#45;&gt;Node16</title>
<path fill="none" stroke="midnightblue" d="M450.51,-179.08C447.26,-171.77 442.55,-161.18 438.52,-152.1"/>
<polygon fill="midnightblue" stroke="midnightblue" points="441.62,-150.47 434.36,-142.75 435.23,-153.31 441.62,-150.47"/>
</g>
<!-- Node17 -->
<g id="node17" class="node">
<title>Node17</title>
<g id="a_node17"><a xlink:title=" ">
<polygon fill="none" stroke="#bfbfbf" points="39.97,-67.5 39.97,-86.5 108.97,-86.5 108.97,-67.5 39.97,-67.5"/>
<text text-anchor="middle" x="74.47" y="-74.5" font-family="Helvetica,sans-Serif" font-size="10.00">type_traits</text>
</a>
</g>
</g>
<!-- Node14&#45;&gt;Node17 -->
<g id="edge19" class="edge">
<title>Node14&#45;&gt;Node17</title>
<path fill="none" stroke="midnightblue" d="M409.53,-185.65C354.69,-181.64 259.83,-170.97 183.47,-143 165.62,-136.46 122.27,-109.18 95.94,-92.11"/>
<polygon fill="midnightblue" stroke="midnightblue" points="97.69,-89.07 87.4,-86.54 93.87,-94.94 97.69,-89.07"/>
</g>
<!-- Node18 -->
<g id="node18" class="node">
<title>Node18</title>
<g id="a_node18"><a xlink:title=" ">
<polygon fill="none" stroke="#bfbfbf" points="469.97,-123.5 469.97,-142.5 514.97,-142.5 514.97,-123.5 469.97,-123.5"/>
<text text-anchor="middle" x="492.47" y="-130.5" font-family="Helvetica,sans-Serif" font-size="10.00">utility</text>
</a>
</g>
</g>
<!-- Node14&#45;&gt;Node18 -->
<g id="edge20" class="edge">
<title>Node14&#45;&gt;Node18</title>
<path fill="none" stroke="midnightblue" d="M460.75,-179.08C466.12,-171.46 473.99,-160.26 480.55,-150.94"/>
<polygon fill="midnightblue" stroke="midnightblue" points="483.42,-152.94 486.32,-142.75 477.7,-148.91 483.42,-152.94"/>
</g>
<!-- Node19 -->
<g id="node19" class="node">
<title>Node19</title>
<g id="a_node19"><a xlink:href="Helper_8h.html" target="_top" xlink:title=" ">
<polygon fill="none" stroke="black" points="653.47,-123.5 653.47,-142.5 779.47,-142.5 779.47,-123.5 653.47,-123.5"/>
<text text-anchor="middle" x="716.47" y="-130.5" font-family="Helvetica,sans-Serif" font-size="10.00">open62541pp/Helper.h</text>
</a>
</g>
</g>
<!-- Node14&#45;&gt;Node19 -->
<g id="edge22" class="edge">
<title>Node14&#45;&gt;Node19</title>
<path fill="none" stroke="midnightblue" d="M495.99,-179.44C541.89,-169.98 615.85,-154.74 665.3,-144.55"/>
<polygon fill="midnightblue" stroke="midnightblue" points="666.07,-147.96 675.15,-142.52 664.65,-141.11 666.07,-147.96"/>
</g>
<!-- Node14&#45;&gt;Node21 -->
<g id="edge27" class="edge">
<title>Node14&#45;&gt;Node21</title>
<path fill="none" stroke="midnightblue" d="M409.77,-181.65C344.33,-172.35 221.87,-154.95 144.44,-143.94"/>
<polygon fill="midnightblue" stroke="midnightblue" points="144.69,-140.44 134.29,-142.5 143.7,-147.37 144.69,-140.44"/>
</g>
<!-- Node19&#45;&gt;Node2 -->
<g id="edge24" class="edge">
<title>Node19&#45;&gt;Node2</title>
<path fill="none" stroke="midnightblue" d="M729.01,-123.32C741.06,-114.98 759.5,-102.21 773.74,-92.35"/>
<polygon fill="midnightblue" stroke="midnightblue" points="775.74,-95.22 781.97,-86.65 771.76,-89.47 775.74,-95.22"/>
</g>
<!-- Node19&#45;&gt;Node3 -->
<g id="edge25" class="edge">
<title>Node19&#45;&gt;Node3</title>
<path fill="none" stroke="midnightblue" d="M747.37,-123.44C780.75,-114.2 834.07,-99.44 870.82,-89.26"/>
<polygon fill="midnightblue" stroke="midnightblue" points="872.02,-92.56 880.72,-86.52 870.15,-85.81 872.02,-92.56"/>
</g>
<!-- Node19&#45;&gt;Node7 -->
<g id="edge26" class="edge">
<title>Node19&#45;&gt;Node7</title>
<path fill="none" stroke="midnightblue" d="M664.66,-123.44C606.66,-113.87 512.74,-98.36 451.04,-88.17"/>
<polygon fill="midnightblue" stroke="midnightblue" points="451.48,-84.69 441.05,-86.52 450.34,-91.6 451.48,-84.69"/>
</g>
<!-- Node20 -->
<g id="node20" class="node">
<title>Node20</title>
<g id="a_node20"><a xlink:title=" ">
<polygon fill="none" stroke="#bfbfbf" points="691.47,-67.5 691.47,-86.5 741.47,-86.5 741.47,-67.5 691.47,-67.5"/>
<text text-anchor="middle" x="716.47" y="-74.5" font-family="Helvetica,sans-Serif" font-size="10.00">cstring</text>
</a>
</g>
</g>
<!-- Node19&#45;&gt;Node20 -->
<g id="edge23" class="edge">
<title>Node19&#45;&gt;Node20</title>
<path fill="none" stroke="midnightblue" d="M716.47,-123.08C716.47,-116.01 716.47,-105.86 716.47,-96.99"/>
<polygon fill="midnightblue" stroke="midnightblue" points="719.97,-96.75 716.47,-86.75 712.97,-96.75 719.97,-96.75"/>
</g>
<!-- Node21&#45;&gt;Node7 -->
<g id="edge29" class="edge">
<title>Node21&#45;&gt;Node7</title>
<path fill="none" stroke="midnightblue" d="M124.39,-123.44C180.14,-113.89 270.36,-98.42 329.8,-88.23"/>
<polygon fill="midnightblue" stroke="midnightblue" points="330.53,-91.66 339.79,-86.52 329.35,-84.76 330.53,-91.66"/>
</g>
<!-- Node21&#45;&gt;Node17 -->
<g id="edge28" class="edge">
<title>Node21&#45;&gt;Node17</title>
<path fill="none" stroke="midnightblue" d="M74.47,-123.08C74.47,-116.01 74.47,-105.86 74.47,-96.99"/>
<polygon fill="midnightblue" stroke="midnightblue" points="77.97,-96.75 74.47,-86.75 70.97,-96.75 77.97,-96.75"/>
</g>
<!-- Node22&#45;&gt;Node2 -->
<g id="edge34" class="edge">
<title>Node22&#45;&gt;Node2</title>
<path fill="none" stroke="midnightblue" d="M1016.22,-235.31C978.23,-208.36 862.15,-126.01 814.85,-92.46"/>
<polygon fill="midnightblue" stroke="midnightblue" points="816.79,-89.54 806.6,-86.61 812.74,-95.25 816.79,-89.54"/>
</g>
<!-- Node22&#45;&gt;Node3 -->
<g id="edge35" class="edge">
<title>Node22&#45;&gt;Node3</title>
<path fill="none" stroke="midnightblue" d="M1032.5,-235.1C1037.76,-222.1 1045.29,-197.47 1036.47,-179 1016.62,-137.43 970.37,-107.46 940.04,-91.43"/>
<polygon fill="midnightblue" stroke="midnightblue" points="941.3,-88.14 930.8,-86.72 938.12,-94.38 941.3,-88.14"/>
</g>
<!-- Node22&#45;&gt;Node4 -->
<g id="edge36" class="edge">
<title>Node22&#45;&gt;Node4</title>
<path fill="none" stroke="midnightblue" d="M1001.7,-235.44C972.22,-226.02 924.79,-210.87 892.89,-200.68"/>
<polygon fill="midnightblue" stroke="midnightblue" points="893.72,-197.27 883.13,-197.56 891.59,-203.94 893.72,-197.27"/>
</g>
<!-- Node23 -->
<g id="node23" class="node">
<title>Node23</title>
<g id="a_node23"><a xlink:title=" ">
<polygon fill="none" stroke="#bfbfbf" points="977.47,-179.5 977.47,-198.5 1027.47,-198.5 1027.47,-179.5 977.47,-179.5"/>
<text text-anchor="middle" x="1002.47" y="-186.5" font-family="Helvetica,sans-Serif" font-size="10.00">atomic</text>
</a>
</g>
</g>
<!-- Node22&#45;&gt;Node23 -->
<g id="edge31" class="edge">
<title>Node22&#45;&gt;Node23</title>
<path fill="none" stroke="midnightblue" d="M1024.18,-235.08C1020.62,-227.69 1015.45,-216.95 1011.05,-207.81"/>
<polygon fill="midnightblue" stroke="midnightblue" points="1014.18,-206.24 1006.69,-198.75 1007.87,-209.28 1014.18,-206.24"/>
</g>
<!-- Node24 -->
<g id="node24" class="node">
<title>Node24</title>
<g id="a_node24"><a xlink:title=" ">
<polygon fill="none" stroke="#bfbfbf" points="1144.97,-123.5 1144.97,-142.5 1209.97,-142.5 1209.97,-123.5 1144.97,-123.5"/>
<text text-anchor="middle" x="1177.47" y="-130.5" font-family="Helvetica,sans-Serif" font-size="10.00">functional</text>
</a>
</g>
</g>
<!-- Node22&#45;&gt;Node24 -->
<g id="edge32" class="edge">
<title>Node22&#45;&gt;Node24</title>
<path fill="none" stroke="midnightblue" d="M1078.04,-235.44C1102.44,-229.01 1130.77,-217.92 1150.47,-199 1163.4,-186.59 1170.37,-167.07 1173.98,-152.66"/>
<polygon fill="midnightblue" stroke="midnightblue" points="1177.41,-153.35 1176.12,-142.84 1170.57,-151.86 1177.41,-153.35"/>
</g>
<!-- Node25 -->
<g id="node25" class="node">
<title>Node25</title>
<g id="a_node25"><a xlink:title=" ">
<polygon fill="none" stroke="#bfbfbf" points="1083.47,-179.5 1083.47,-198.5 1141.47,-198.5 1141.47,-179.5 1083.47,-179.5"/>
<text text-anchor="middle" x="1112.47" y="-186.5" font-family="Helvetica,sans-Serif" font-size="10.00">memory</text>
</a>
</g>
</g>
<!-- Node22&#45;&gt;Node25 -->
<g id="edge33" class="edge">
<title>Node22&#45;&gt;Node25</title>
<path fill="none" stroke="midnightblue" d="M1041.97,-235.32C1055.07,-226.9 1075.19,-213.97 1090.58,-204.07"/>
<polygon fill="midnightblue" stroke="midnightblue" points="1092.49,-207.01 1099.01,-198.65 1088.71,-201.12 1092.49,-207.01"/>
</g>
<!-- Node26 -->
<g id="node26" class="node">
<title>Node26</title>
<g id="a_node26"><a xlink:href="Logger_8h.html" target="_top" xlink:title=" ">
<polygon fill="none" stroke="black" points="1197.97,-179.5 1197.97,-198.5 1324.97,-198.5 1324.97,-179.5 1197.97,-179.5"/>
<text text-anchor="middle" x="1261.47" y="-186.5" font-family="Helvetica,sans-Serif" font-size="10.00">open62541pp/Logger.h</text>
</a>
</g>
</g>
<!-- Node22&#45;&gt;Node26 -->
<g id="edge37" class="edge">
<title>Node22&#45;&gt;Node26</title>
<path fill="none" stroke="midnightblue" d="M1065.39,-235.44C1105.87,-226.06 1170.89,-210.99 1214.86,-200.8"/>
<polygon fill="midnightblue" stroke="midnightblue" points="1215.78,-204.18 1224.73,-198.52 1214.2,-197.36 1215.78,-204.18"/>
</g>
<!-- Node26&#45;&gt;Node3 -->
<g id="edge39" class="edge">
<title>Node26&#45;&gt;Node3</title>
<path fill="none" stroke="midnightblue" d="M1258.49,-179.11C1253.14,-164.7 1240.5,-136.51 1219.47,-123 1177.14,-95.8 1033.39,-84.36 958.19,-80.14"/>
<polygon fill="midnightblue" stroke="midnightblue" points="958.23,-76.64 948.05,-79.6 957.85,-83.63 958.23,-76.64"/>
</g>
<!-- Node26&#45;&gt;Node24 -->
<g id="edge38" class="edge">
<title>Node26&#45;&gt;Node24</title>
<path fill="none" stroke="midnightblue" d="M1247.98,-179.32C1234.87,-170.9 1214.76,-157.97 1199.37,-148.07"/>
<polygon fill="midnightblue" stroke="midnightblue" points="1201.24,-145.12 1190.94,-142.65 1197.46,-151.01 1201.24,-145.12"/>
</g>
<!-- Node27&#45;&gt;Node4 -->
<g id="edge43" class="edge">
<title>Node27&#45;&gt;Node4</title>
<path fill="none" stroke="midnightblue" d="M446.44,-236.66C549.44,-225.02 746.64,-202.75 825.58,-193.83"/>
<polygon fill="midnightblue" stroke="midnightblue" points="826.37,-197.26 835.91,-192.66 825.58,-190.31 826.37,-197.26"/>
</g>
<!-- Node27&#45;&gt;Node5 -->
<g id="edge44" class="edge">
<title>Node27&#45;&gt;Node5</title>
<path fill="none" stroke="midnightblue" d="M372.92,-235.37C354.61,-216.89 311.41,-173.29 288.07,-149.74"/>
<polygon fill="midnightblue" stroke="midnightblue" points="290.51,-147.23 280.99,-142.59 285.54,-152.16 290.51,-147.23"/>
</g>
<!-- Node27&#45;&gt;Node7 -->
<g id="edge47" class="edge">
<title>Node27&#45;&gt;Node7</title>
<path fill="none" stroke="midnightblue" d="M381.9,-235.08C383.16,-208.95 386.86,-132.21 388.58,-96.58"/>
<polygon fill="midnightblue" stroke="midnightblue" points="392.08,-96.73 389.06,-86.57 385.08,-96.39 392.08,-96.73"/>
</g>
<!-- Node27&#45;&gt;Node14 -->
<g id="edge45" class="edge">
<title>Node27&#45;&gt;Node14</title>
<path fill="none" stroke="midnightblue" d="M393.2,-235.32C404.31,-227.11 421.22,-214.6 434.46,-204.81"/>
<polygon fill="midnightblue" stroke="midnightblue" points="436.57,-207.59 442.53,-198.83 432.41,-201.97 436.57,-207.59"/>
</g>
<!-- Node27&#45;&gt;Node17 -->
<g id="edge42" class="edge">
<title>Node27&#45;&gt;Node17</title>
<path fill="none" stroke="midnightblue" d="M316.86,-236.25C219.3,-223.06 41.78,-192.74 4.47,-143 -10.88,-122.53 17.7,-103.12 42.83,-90.93"/>
<polygon fill="midnightblue" stroke="midnightblue" points="44.58,-93.99 52.2,-86.63 41.65,-87.63 44.58,-93.99"/>
</g>
<!-- Node27&#45;&gt;Node21 -->
<g id="edge46" class="edge">
<title>Node27&#45;&gt;Node21</title>
<path fill="none" stroke="midnightblue" d="M357.64,-235.46C303.46,-216.05 170.9,-168.55 108.29,-146.12"/>
<polygon fill="midnightblue" stroke="midnightblue" points="109.1,-142.69 98.5,-142.61 106.74,-149.28 109.1,-142.69"/>
</g>
</g>
</svg>
