<?xml version="1.0" encoding="UTF-8" standalone="no"?>
<!DOCTYPE svg PUBLIC "-//W3C//DTD SVG 1.1//EN"
 "http://www.w3.org/Graphics/SVG/1.1/DTD/svg11.dtd">
<!-- Generated by graphviz version 2.43.0 (0)
 -->
<!-- Title: /home/runner/work/open62541pp/open62541pp/include/open62541pp/NodeId.h Pages: 1 -->
<svg width="266pt" height="206pt"
 viewBox="0.00 0.00 265.50 206.00" xmlns="http://www.w3.org/2000/svg" xmlns:xlink="http://www.w3.org/1999/xlink">
<g id="graph0" class="graph" transform="scale(1 1) rotate(0) translate(4 202)">
<title>/home/runner/work/open62541pp/open62541pp/include/open62541pp/NodeId.h</title>
<!-- Node1 -->
<g id="node1" class="node">
<title>Node1</title>
<g id="a_node1"><a xlink:title=" ">
<polygon fill="#bfbfbf" stroke="black" points="64.5,-156.5 64.5,-197.5 257.5,-197.5 257.5,-156.5 64.5,-156.5"/>
<text text-anchor="start" x="72.5" y="-185.5" font-family="Helvetica,sans-Serif" font-size="10.00">/home/runner/work/open62541pp</text>
<text text-anchor="start" x="72.5" y="-174.5" font-family="Helvetica,sans-Serif" font-size="10.00">/open62541pp/include/open62541pp</text>
<text text-anchor="middle" x="161" y="-163.5" font-family="Helvetica,sans-Serif" font-size="10.00">/NodeId.h</text>
</a>
</g>
</g>
<!-- Node2 -->
<g id="node2" class="node">
<title>Node2</title>
<g id="a_node2"><a xlink:href="Node_8h.html" target="_top" xlink:title=" ">
<polygon fill="none" stroke="black" points="0,-78.5 0,-119.5 196,-119.5 196,-78.5 0,-78.5"/>
<text text-anchor="start" x="8" y="-107.5" font-family="Helvetica,sans-Serif" font-size="10.00">/home/runner/work/open62541pp</text>
<text text-anchor="start" x="8" y="-96.5" font-family="Helvetica,sans-Serif" font-size="10.00">/open62541pp/include/open62541pp/</text>
<text text-anchor="middle" x="98" y="-85.5" font-family="Helvetica,sans-Serif" font-size="10.00">Node.h</text>
</a>
</g>
</g>
<!-- Node1&#45;&gt;Node2 -->
<g id="edge1" class="edge">
<title>Node1&#45;&gt;Node2</title>
<path fill="none" stroke="midnightblue" d="M138.31,-148.63C130.32,-138.99 121.51,-128.36 114.17,-119.51"/>
<polygon fill="midnightblue" stroke="midnightblue" points="135.7,-150.96 144.78,-156.43 141.09,-146.5 135.7,-150.96"/>
</g>
<!-- Node3 -->
<g id="node3" class="node">
<title>Node3</title>
<g id="a_node3"><a xlink:href="open62541pp_8h.html" target="_top" xlink:title=" ">
<polygon fill="none" stroke="black" points="64.5,-0.5 64.5,-41.5 257.5,-41.5 257.5,-0.5 64.5,-0.5"/>
<text text-anchor="start" x="72.5" y="-29.5" font-family="Helvetica,sans-Serif" font-size="10.00">/home/runner/work/open62541pp</text>
<text text-anchor="start" x="72.5" y="-18.5" font-family="Helvetica,sans-Serif" font-size="10.00">/open62541pp/include/open62541pp</text>
<text text-anchor="middle" x="161" y="-7.5" font-family="Helvetica,sans-Serif" font-size="10.00">/open62541pp.h</text>
</a>
</g>
</g>
<!-- Node1&#45;&gt;Node3 -->
<g id="edge3" class="edge">
<title>Node1&#45;&gt;Node3</title>
<path fill="none" stroke="midnightblue" d="M188.23,-148.78C195.04,-140.26 201.42,-130.36 205,-120 211.1,-102.36 211.1,-95.64 205,-78 200.27,-64.33 190.67,-51.46 181.65,-41.51"/>
<polygon fill="midnightblue" stroke="midnightblue" points="185.48,-146.61 181.65,-156.49 190.8,-151.16 185.48,-146.61"/>
</g>
<!-- Node2&#45;&gt;Node3 -->
<g id="edge2" class="edge">
<title>Node2&#45;&gt;Node3</title>
<path fill="none" stroke="midnightblue" d="M120.69,-70.63C128.68,-60.99 137.49,-50.36 144.83,-41.51"/>
<polygon fill="midnightblue" stroke="midnightblue" points="117.91,-68.5 114.22,-78.43 123.3,-72.96 117.91,-68.5"/>
</g>
</g>
</svg>
