<?xml version="1.0" encoding="UTF-8" standalone="no"?>
<!DOCTYPE svg PUBLIC "-//W3C//DTD SVG 1.1//EN"
 "http://www.w3.org/Graphics/SVG/1.1/DTD/svg11.dtd">
<!-- Generated by graphviz version 2.43.0 (0)
 -->
<!-- Title: /home/runner/work/open62541pp/open62541pp/include/open62541pp/services/NodeManagement.h Pages: 1 -->
<svg width="1384pt" height="456pt"
 viewBox="0.00 0.00 1384.44 456.00" xmlns="http://www.w3.org/2000/svg" xmlns:xlink="http://www.w3.org/1999/xlink">
<g id="graph0" class="graph" transform="scale(1 1) rotate(0) translate(4 452)">
<title>/home/runner/work/open62541pp/open62541pp/include/open62541pp/services/NodeManagement.h</title>
<!-- Node1 -->
<g id="Node000001" class="node">
<title>Node1</title>
<g id="a_Node000001"><a xlink:title=" ">
<polygon fill="#999999" stroke="#666666" points="296.94,-448 103.94,-448 103.94,-407 296.94,-407 296.94,-448"/>
<text text-anchor="start" x="111.94" y="-436" font-family="Helvetica,sans-Serif" font-size="10.00">/home/runner/work/open62541pp</text>
<text text-anchor="start" x="111.94" y="-425" font-family="Helvetica,sans-Serif" font-size="10.00">/open62541pp/include/open62541pp</text>
<text text-anchor="middle" x="200.44" y="-414" font-family="Helvetica,sans-Serif" font-size="10.00">/services/NodeManagement.h</text>
</a>
</g>
</g>
<!-- Node2 -->
<g id="Node000002" class="node">
<title>Node2</title>
<g id="a_Node000002"><a xlink:title=" ">
<polygon fill="#e0e0e0" stroke="#999999" points="185.44,-79.5 135.44,-79.5 135.44,-60.5 185.44,-60.5 185.44,-79.5"/>
<text text-anchor="middle" x="160.44" y="-67.5" font-family="Helvetica,sans-Serif" font-size="10.00">cstdint</text>
</a>
</g>
</g>
<!-- Node1&#45;&gt;Node2 -->
<g id="edge1_Node000001_Node000002" class="edge">
<title>Node1&#45;&gt;Node2</title>
<g id="a_edge1_Node000001_Node000002"><a xlink:title=" ">
<path fill="none" stroke="#63b8ff" d="M103.71,-415.04C73.33,-407.07 41.91,-393.62 19.44,-371 -1.32,-350.1 0.44,-336.96 0.44,-307.5 0.44,-307.5 0.44,-307.5 0.44,-190 0.44,-128.24 78.15,-94.76 125.26,-80.15"/>
<polygon fill="#63b8ff" stroke="#63b8ff" points="126.5,-83.43 135.09,-77.23 124.5,-76.72 126.5,-83.43"/>
</a>
</g>
</g>
<!-- Node3 -->
<g id="Node000003" class="node">
<title>Node3</title>
<g id="a_Node000003"><a xlink:title=" ">
<polygon fill="#e0e0e0" stroke="#999999" points="93.94,-371 28.94,-371 28.94,-352 93.94,-352 93.94,-371"/>
<text text-anchor="middle" x="61.44" y="-359" font-family="Helvetica,sans-Serif" font-size="10.00">functional</text>
</a>
</g>
</g>
<!-- Node1&#45;&gt;Node3 -->
<g id="edge2_Node000001_Node000003" class="edge">
<title>Node1&#45;&gt;Node3</title>
<g id="a_edge2_Node000001_Node000003"><a xlink:title=" ">
<path fill="none" stroke="#63b8ff" d="M157.98,-406.95C135.71,-396.7 109.06,-384.43 89.41,-375.38"/>
<polygon fill="#63b8ff" stroke="#63b8ff" points="90.65,-372.1 80.1,-371.09 87.72,-378.45 90.65,-372.1"/>
</a>
</g>
</g>
<!-- Node4 -->
<g id="Node000004" class="node">
<title>Node4</title>
<g id="a_Node000004"><a xlink:title=" ">
<polygon fill="#e0e0e0" stroke="#999999" points="348.94,-79.5 275.94,-79.5 275.94,-60.5 348.94,-60.5 348.94,-79.5"/>
<text text-anchor="middle" x="312.44" y="-67.5" font-family="Helvetica,sans-Serif" font-size="10.00">string_view</text>
</a>
</g>
</g>
<!-- Node1&#45;&gt;Node4 -->
<g id="edge3_Node000001_Node000004" class="edge">
<title>Node1&#45;&gt;Node4</title>
<g id="a_edge3_Node000001_Node000004"><a xlink:title=" ">
<path fill="none" stroke="#63b8ff" d="M170.75,-406.79C159.33,-397.44 147.58,-385.2 141.44,-371 138.09,-363.25 139.16,-360.13 141.44,-352 172.82,-240.09 262.38,-128.51 297.78,-87.47"/>
<polygon fill="#63b8ff" stroke="#63b8ff" points="300.53,-89.65 304.48,-79.81 295.26,-85.04 300.53,-89.65"/>
</a>
</g>
</g>
<!-- Node5 -->
<g id="Node000005" class="node">
<title>Node5</title>
<g id="a_Node000005"><a xlink:title=" ">
<polygon fill="#e0e0e0" stroke="#999999" points="197.94,-371 150.94,-371 150.94,-352 197.94,-352 197.94,-371"/>
<text text-anchor="middle" x="174.44" y="-359" font-family="Helvetica,sans-Serif" font-size="10.00">vector</text>
</a>
</g>
</g>
<!-- Node1&#45;&gt;Node5 -->
<g id="edge4_Node000001_Node000005" class="edge">
<title>Node1&#45;&gt;Node5</title>
<g id="a_edge4_Node000001_Node000005"><a xlink:title=" ">
<path fill="none" stroke="#63b8ff" d="M192.5,-406.95C189.1,-398.58 185.15,-388.85 181.81,-380.64"/>
<polygon fill="#63b8ff" stroke="#63b8ff" points="185.01,-379.21 178,-371.26 178.52,-381.84 185.01,-379.21"/>
</a>
</g>
</g>
<!-- Node6 -->
<g id="Node000006" class="node">
<title>Node6</title>
<g id="a_Node000006"><a xlink:href="Common_8h.html" target="_top" xlink:title=" ">
<polygon fill="white" stroke="#666666" points="479.94,-140 340.94,-140 340.94,-121 479.94,-121 479.94,-140"/>
<text text-anchor="middle" x="410.44" y="-128" font-family="Helvetica,sans-Serif" font-size="10.00">open62541pp/Common.h</text>
</a>
</g>
</g>
<!-- Node1&#45;&gt;Node6 -->
<g id="edge5_Node000001_Node000006" class="edge">
<title>Node1&#45;&gt;Node6</title>
<g id="a_edge5_Node000001_Node000006"><a xlink:title=" ">
<path fill="none" stroke="#63b8ff" d="M204.37,-406.87C210.28,-380.4 223.22,-332.51 245.44,-297 285.94,-232.28 356.06,-173.28 390.36,-146.56"/>
<polygon fill="#63b8ff" stroke="#63b8ff" points="392.86,-149.06 398.66,-140.19 388.59,-143.51 392.86,-149.06"/>
</a>
</g>
</g>
<!-- Node15 -->
<g id="Node000015" class="node">
<title>Node15</title>
<g id="a_Node000015"><a xlink:href="Config_8h.html" target="_top" xlink:title=" ">
<polygon fill="white" stroke="#666666" points="1335.94,-261 1210.94,-261 1210.94,-242 1335.94,-242 1335.94,-261"/>
<text text-anchor="middle" x="1273.44" y="-249" font-family="Helvetica,sans-Serif" font-size="10.00">open62541pp/Config.h</text>
</a>
</g>
</g>
<!-- Node1&#45;&gt;Node15 -->
<g id="edge17_Node000001_Node000015" class="edge">
<title>Node1&#45;&gt;Node15</title>
<g id="a_edge17_Node000001_Node000015"><a xlink:title=" ">
<path fill="none" stroke="#63b8ff" d="M297.12,-422.78C514.54,-413.31 1035.6,-384.01 1196.44,-316 1221.49,-305.41 1244.76,-283.94 1259.02,-268.91"/>
<polygon fill="#63b8ff" stroke="#63b8ff" points="1261.79,-271.07 1265.98,-261.33 1256.64,-266.33 1261.79,-271.07"/>
</a>
</g>
</g>
<!-- Node16 -->
<g id="Node000016" class="node">
<title>Node16</title>
<g id="a_Node000016"><a xlink:href="NodeIds_8h.html" target="_top" xlink:title=" ">
<polygon fill="white" stroke="#666666" points="388.44,-316 254.44,-316 254.44,-297 388.44,-297 388.44,-316"/>
<text text-anchor="middle" x="321.44" y="-304" font-family="Helvetica,sans-Serif" font-size="10.00">open62541pp/NodeIds.h</text>
</a>
</g>
</g>
<!-- Node1&#45;&gt;Node16 -->
<g id="edge19_Node000001_Node000016" class="edge">
<title>Node1&#45;&gt;Node16</title>
<g id="a_edge19_Node000001_Node000016"><a xlink:title=" ">
<path fill="none" stroke="#63b8ff" d="M220.42,-406.85C244.21,-383.45 283.48,-344.83 305.39,-323.28"/>
<polygon fill="#63b8ff" stroke="#63b8ff" points="307.94,-325.68 312.62,-316.18 303.04,-320.69 307.94,-325.68"/>
</a>
</g>
</g>
<!-- Node17 -->
<g id="Node000017" class="node">
<title>Node17</title>
<g id="a_Node000017"><a xlink:href="NodeId_8h.html" target="_top" xlink:title=" ">
<polygon fill="white" stroke="#666666" points="587.94,-371 428.94,-371 428.94,-352 587.94,-352 587.94,-371"/>
<text text-anchor="middle" x="508.44" y="-359" font-family="Helvetica,sans-Serif" font-size="10.00">open62541pp/types/NodeId.h</text>
</a>
</g>
</g>
<!-- Node1&#45;&gt;Node17 -->
<g id="edge20_Node000001_Node000017" class="edge">
<title>Node1&#45;&gt;Node17</title>
<g id="a_edge20_Node000001_Node000017"><a xlink:title=" ">
<path fill="none" stroke="#63b8ff" d="M294.52,-406.95C348.19,-395.8 413.36,-382.26 457.56,-373.07"/>
<polygon fill="#63b8ff" stroke="#63b8ff" points="458.42,-376.47 467.5,-371.01 456.99,-369.62 458.42,-376.47"/>
</a>
</g>
</g>
<!-- Node6&#45;&gt;Node2 -->
<g id="edge6_Node000006_Node000002" class="edge">
<title>Node6&#45;&gt;Node2</title>
<g id="a_edge6_Node000006_Node000002"><a xlink:title=" ">
<path fill="none" stroke="#63b8ff" d="M374.09,-120.99C326.14,-109.77 242.36,-90.17 195.21,-79.14"/>
<polygon fill="#63b8ff" stroke="#63b8ff" points="195.99,-75.72 185.46,-76.85 194.4,-82.54 195.99,-75.72"/>
</a>
</g>
</g>
<!-- Node6&#45;&gt;Node4 -->
<g id="edge7_Node000006_Node000004" class="edge">
<title>Node6&#45;&gt;Node4</title>
<g id="a_edge7_Node000006_Node000004"><a xlink:title=" ">
<path fill="none" stroke="#63b8ff" d="M395.98,-120.87C380.13,-111.41 354.47,-96.09 335.76,-84.92"/>
<polygon fill="#63b8ff" stroke="#63b8ff" points="337.34,-81.79 326.96,-79.67 333.75,-87.8 337.34,-81.79"/>
</a>
</g>
</g>
<!-- Node7 -->
<g id="Node000007" class="node">
<title>Node7</title>
<g id="a_Node000007"><a xlink:title=" ">
<polygon fill="#e0e0e0" stroke="#999999" points="475.94,-19 434.94,-19 434.94,0 475.94,0 475.94,-19"/>
<text text-anchor="middle" x="455.44" y="-7" font-family="Helvetica,sans-Serif" font-size="10.00">tuple</text>
</a>
</g>
</g>
<!-- Node6&#45;&gt;Node7 -->
<g id="edge8_Node000006_Node000007" class="edge">
<title>Node6&#45;&gt;Node7</title>
<g id="a_edge8_Node000006_Node000007"><a xlink:title=" ">
<path fill="none" stroke="#63b8ff" d="M412.09,-120.55C414.88,-106.32 421.14,-77.82 430.44,-55 434.24,-45.67 439.6,-35.84 444.39,-27.8"/>
<polygon fill="#63b8ff" stroke="#63b8ff" points="447.52,-29.39 449.79,-19.04 441.56,-25.72 447.52,-29.39"/>
</a>
</g>
</g>
<!-- Node8 -->
<g id="Node000008" class="node">
<title>Node8</title>
<g id="a_Node000008"><a xlink:href="traits_8h.html" target="_top" xlink:title=" ">
<polygon fill="white" stroke="#666666" points="551.94,-85 438.94,-85 438.94,-55 551.94,-55 551.94,-85"/>
<text text-anchor="start" x="446.94" y="-73" font-family="Helvetica,sans-Serif" font-size="10.00">open62541pp/detail</text>
<text text-anchor="middle" x="495.44" y="-62" font-family="Helvetica,sans-Serif" font-size="10.00">/traits.h</text>
</a>
</g>
</g>
<!-- Node6&#45;&gt;Node8 -->
<g id="edge9_Node000006_Node000008" class="edge">
<title>Node6&#45;&gt;Node8</title>
<g id="a_edge9_Node000006_Node000008"><a xlink:title=" ">
<path fill="none" stroke="#63b8ff" d="M422.98,-120.87C434.41,-113 451.71,-101.09 466.55,-90.89"/>
<polygon fill="#63b8ff" stroke="#63b8ff" points="468.68,-93.67 474.93,-85.11 464.71,-87.9 468.68,-93.67"/>
</a>
</g>
</g>
<!-- Node10 -->
<g id="Node000010" class="node">
<title>Node10</title>
<g id="a_Node000010"><a xlink:href="open62541_8h.html" target="_top" xlink:title=" ">
<polygon fill="white" stroke="#666666" points="1146.94,-79.5 997.94,-79.5 997.94,-60.5 1146.94,-60.5 1146.94,-79.5"/>
<text text-anchor="middle" x="1072.44" y="-67.5" font-family="Helvetica,sans-Serif" font-size="10.00">open62541pp/open62541.h</text>
</a>
</g>
</g>
<!-- Node6&#45;&gt;Node10 -->
<g id="edge12_Node000006_Node000010" class="edge">
<title>Node6&#45;&gt;Node10</title>
<g id="a_edge12_Node000006_Node000010"><a xlink:title=" ">
<path fill="none" stroke="#63b8ff" d="M480.22,-121.91C483.33,-121.6 486.42,-121.29 489.44,-121 666.61,-103.87 874.36,-86.77 987.83,-77.68"/>
<polygon fill="#63b8ff" stroke="#63b8ff" points="988.16,-81.16 997.85,-76.88 987.6,-74.19 988.16,-81.16"/>
</a>
</g>
</g>
<!-- Node8&#45;&gt;Node7 -->
<g id="edge10_Node000008_Node000007" class="edge">
<title>Node8&#45;&gt;Node7</title>
<g id="a_edge10_Node000008_Node000007"><a xlink:title=" ">
<path fill="none" stroke="#63b8ff" d="M485.76,-54.84C480.19,-46.69 473.15,-36.4 467.26,-27.78"/>
<polygon fill="#63b8ff" stroke="#63b8ff" points="469.97,-25.55 461.43,-19.27 464.19,-29.5 469.97,-25.55"/>
</a>
</g>
</g>
<!-- Node9 -->
<g id="Node000009" class="node">
<title>Node9</title>
<g id="a_Node000009"><a xlink:title=" ">
<polygon fill="#e0e0e0" stroke="#999999" points="568.94,-19 499.94,-19 499.94,0 568.94,0 568.94,-19"/>
<text text-anchor="middle" x="534.44" y="-7" font-family="Helvetica,sans-Serif" font-size="10.00">type_traits</text>
</a>
</g>
</g>
<!-- Node8&#45;&gt;Node9 -->
<g id="edge11_Node000008_Node000009" class="edge">
<title>Node8&#45;&gt;Node9</title>
<g id="a_edge11_Node000008_Node000009"><a xlink:title=" ">
<path fill="none" stroke="#63b8ff" d="M504.88,-54.84C510.31,-46.69 517.17,-36.4 522.92,-27.78"/>
<polygon fill="#63b8ff" stroke="#63b8ff" points="525.96,-29.53 528.6,-19.27 520.14,-25.65 525.96,-29.53"/>
</a>
</g>
</g>
<!-- Node11 -->
<g id="Node000011" class="node">
<title>Node11</title>
<g id="a_Node000011"><a target="_blank" xlink:href="open62541/config_8h.html" xlink:title=" ">
<polygon fill="white" stroke="#666666" points="926.44,-19 814.44,-19 814.44,0 926.44,0 926.44,-19"/>
<text text-anchor="middle" x="870.44" y="-7" font-family="Helvetica,sans-Serif" font-size="10.00">open62541/config.h</text>
</a>
</g>
</g>
<!-- Node10&#45;&gt;Node11 -->
<g id="edge13_Node000010_Node000011" class="edge">
<title>Node10&#45;&gt;Node11</title>
<g id="a_edge13_Node000010_Node000011"><a xlink:title=" ">
<path fill="none" stroke="#63b8ff" d="M1043.07,-60.49C1007.84,-50.29 948.65,-33.15 909.57,-21.83"/>
<polygon fill="#63b8ff" stroke="#63b8ff" points="910.43,-18.44 899.85,-19.02 908.48,-25.16 910.43,-18.44"/>
</a>
</g>
</g>
<!-- Node12 -->
<g id="Node000012" class="node">
<title>Node12</title>
<g id="a_Node000012"><a target="_blank" xlink:href="open62541/nodeids_8h.html" xlink:title=" ">
<polygon fill="white" stroke="#666666" points="1065.94,-19 944.94,-19 944.94,0 1065.94,0 1065.94,-19"/>
<text text-anchor="middle" x="1005.44" y="-7" font-family="Helvetica,sans-Serif" font-size="10.00">open62541/nodeids.h</text>
</a>
</g>
</g>
<!-- Node10&#45;&gt;Node12 -->
<g id="edge14_Node000010_Node000012" class="edge">
<title>Node10&#45;&gt;Node12</title>
<g id="a_edge14_Node000010_Node000012"><a xlink:title=" ">
<path fill="none" stroke="#63b8ff" d="M1062.55,-60.37C1052.16,-51.3 1035.6,-36.84 1022.99,-25.82"/>
<polygon fill="#63b8ff" stroke="#63b8ff" points="1025.2,-23.11 1015.37,-19.17 1020.6,-28.38 1025.2,-23.11"/>
</a>
</g>
</g>
<!-- Node13 -->
<g id="Node000013" class="node">
<title>Node13</title>
<g id="a_Node000013"><a target="_blank" xlink:href="open62541/types_8h.html" xlink:title=" ">
<polygon fill="white" stroke="#666666" points="1194.44,-19 1084.44,-19 1084.44,0 1194.44,0 1194.44,-19"/>
<text text-anchor="middle" x="1139.44" y="-7" font-family="Helvetica,sans-Serif" font-size="10.00">open62541/types.h</text>
</a>
</g>
</g>
<!-- Node10&#45;&gt;Node13 -->
<g id="edge15_Node000010_Node000013" class="edge">
<title>Node10&#45;&gt;Node13</title>
<g id="a_edge15_Node000010_Node000013"><a xlink:title=" ">
<path fill="none" stroke="#63b8ff" d="M1082.33,-60.37C1092.72,-51.3 1109.28,-36.84 1121.89,-25.82"/>
<polygon fill="#63b8ff" stroke="#63b8ff" points="1124.28,-28.38 1129.51,-19.17 1119.68,-23.11 1124.28,-28.38"/>
</a>
</g>
</g>
<!-- Node14 -->
<g id="Node000014" class="node">
<title>Node14</title>
<g id="a_Node000014"><a target="_blank" xlink:href="open62541/types__generated_8h.html" xlink:title=" ">
<polygon fill="white" stroke="#666666" points="1376.44,-19 1212.44,-19 1212.44,0 1376.44,0 1376.44,-19"/>
<text text-anchor="middle" x="1294.44" y="-7" font-family="Helvetica,sans-Serif" font-size="10.00">open62541/types_generated.h</text>
</a>
</g>
</g>
<!-- Node10&#45;&gt;Node14 -->
<g id="edge16_Node000010_Node000014" class="edge">
<title>Node10&#45;&gt;Node14</title>
<g id="a_edge16_Node000010_Node000014"><a xlink:title=" ">
<path fill="none" stroke="#63b8ff" d="M1104.72,-60.49C1143.69,-50.23 1209.32,-32.93 1252.26,-21.62"/>
<polygon fill="#63b8ff" stroke="#63b8ff" points="1253.34,-24.95 1262.12,-19.02 1251.56,-18.18 1253.34,-24.95"/>
</a>
</g>
</g>
<!-- Node15&#45;&gt;Node10 -->
<g id="edge18_Node000015_Node000010" class="edge">
<title>Node15&#45;&gt;Node10</title>
<g id="a_edge18_Node000015_Node000010"><a xlink:title=" ">
<path fill="none" stroke="#63b8ff" d="M1270.57,-241.96C1262.52,-219.16 1237.54,-156.24 1196.44,-121 1174.74,-102.39 1145.22,-90.12 1120.43,-82.39"/>
<polygon fill="#63b8ff" stroke="#63b8ff" points="1121.42,-79.03 1110.83,-79.54 1119.43,-85.74 1121.42,-79.03"/>
</a>
</g>
</g>
<!-- Node17&#45;&gt;Node2 -->
<g id="edge21_Node000017_Node000002" class="edge">
<title>Node17&#45;&gt;Node2</title>
<g id="a_edge21_Node000017_Node000002"><a xlink:title=" ">
<path fill="none" stroke="#63b8ff" d="M492.82,-351.88C445.52,-325.21 301.29,-239.81 207.44,-140 192.6,-124.21 179.06,-103.33 170.37,-88.69"/>
<polygon fill="#63b8ff" stroke="#63b8ff" points="173.2,-86.6 165.17,-79.69 167.14,-90.1 173.2,-86.6"/>
</a>
</g>
</g>
<!-- Node17&#45;&gt;Node4 -->
<g id="edge23_Node000017_Node000004" class="edge">
<title>Node17&#45;&gt;Node4</title>
<g id="a_edge23_Node000017_Node000004"><a xlink:title=" ">
<path fill="none" stroke="#63b8ff" d="M498.26,-351.89C472.37,-329.65 402.76,-267.68 356.44,-206 336.25,-179.11 329.57,-172.07 319.44,-140 314.28,-123.68 312.69,-104.2 312.3,-90.11"/>
<polygon fill="#63b8ff" stroke="#63b8ff" points="315.8,-89.69 312.2,-79.73 308.8,-89.76 315.8,-89.69"/>
</a>
</g>
</g>
<!-- Node17&#45;&gt;Node10 -->
<g id="edge45_Node000017_Node000010" class="edge">
<title>Node17&#45;&gt;Node10</title>
<g id="a_edge45_Node000017_Node000010"><a xlink:title=" ">
<path fill="none" stroke="#63b8ff" d="M588.07,-355.95C766.42,-344.71 1182.44,-312.09 1182.44,-252.5 1182.44,-252.5 1182.44,-252.5 1182.44,-190 1182.44,-141.09 1131.72,-103.73 1099.16,-84.79"/>
<polygon fill="#63b8ff" stroke="#63b8ff" points="1100.55,-81.56 1090.11,-79.73 1097.13,-87.67 1100.55,-81.56"/>
</a>
</g>
</g>
<!-- Node17&#45;&gt;Node16 -->
<g id="edge25_Node000017_Node000016" class="edge">
<title>Node17&#45;&gt;Node16</title>
<g id="a_edge25_Node000017_Node000016"><a xlink:title=" ">
<path fill="none" stroke="#63b8ff" d="M478.4,-351.98C446.73,-343.01 396.67,-328.82 361.63,-318.89"/>
<polygon fill="#63b8ff" stroke="#63b8ff" points="362.3,-315.44 351.72,-316.08 360.39,-322.18 362.3,-315.44"/>
</a>
</g>
</g>
<!-- Node18 -->
<g id="Node000018" class="node">
<title>Node18</title>
<g id="a_Node000018"><a xlink:title=" ">
<polygon fill="#e0e0e0" stroke="#999999" points="900.44,-140 856.44,-140 856.44,-121 900.44,-121 900.44,-140"/>
<text text-anchor="middle" x="878.44" y="-128" font-family="Helvetica,sans-Serif" font-size="10.00">string</text>
</a>
</g>
</g>
<!-- Node17&#45;&gt;Node18 -->
<g id="edge22_Node000017_Node000018" class="edge">
<title>Node17&#45;&gt;Node18</title>
<g id="a_edge22_Node000017_Node000018"><a xlink:title=" ">
<path fill="none" stroke="#63b8ff" d="M588.35,-352.77C694.24,-340.62 871.96,-312.88 908.44,-261 932.68,-226.53 907.08,-175.36 890.41,-148.84"/>
<polygon fill="#63b8ff" stroke="#63b8ff" points="893.19,-146.7 884.78,-140.26 887.34,-150.54 893.19,-146.7"/>
</a>
</g>
</g>
<!-- Node19 -->
<g id="Node000019" class="node">
<title>Node19</title>
<g id="a_Node000019"><a xlink:title=" ">
<polygon fill="#e0e0e0" stroke="#999999" points="533.94,-316 482.94,-316 482.94,-297 533.94,-297 533.94,-316"/>
<text text-anchor="middle" x="508.44" y="-304" font-family="Helvetica,sans-Serif" font-size="10.00">variant</text>
</a>
</g>
</g>
<!-- Node17&#45;&gt;Node19 -->
<g id="edge24_Node000017_Node000019" class="edge">
<title>Node17&#45;&gt;Node19</title>
<g id="a_edge24_Node000017_Node000019"><a xlink:title=" ">
<path fill="none" stroke="#63b8ff" d="M508.44,-351.75C508.44,-344.8 508.44,-334.85 508.44,-326.13"/>
<polygon fill="#63b8ff" stroke="#63b8ff" points="511.94,-326.09 508.44,-316.09 504.94,-326.09 511.94,-326.09"/>
</a>
</g>
</g>
<!-- Node20 -->
<g id="Node000020" class="node">
<title>Node20</title>
<g id="a_Node000020"><a xlink:href="TypeWrapper_8h.html" target="_top" xlink:title=" ">
<polygon fill="white" stroke="#666666" points="654.44,-261 496.44,-261 496.44,-242 654.44,-242 654.44,-261"/>
<text text-anchor="middle" x="575.44" y="-249" font-family="Helvetica,sans-Serif" font-size="10.00">open62541pp/TypeWrapper.h</text>
</a>
</g>
</g>
<!-- Node17&#45;&gt;Node20 -->
<g id="edge26_Node000017_Node000020" class="edge">
<title>Node17&#45;&gt;Node20</title>
<g id="a_edge26_Node000017_Node000020"><a xlink:title=" ">
<path fill="none" stroke="#63b8ff" d="M516.24,-351.69C523.73,-342.98 535.1,-329.1 543.44,-316 552.85,-301.21 561.67,-283.28 567.66,-270.25"/>
<polygon fill="#63b8ff" stroke="#63b8ff" points="570.9,-271.57 571.81,-261.01 564.52,-268.7 570.9,-271.57"/>
</a>
</g>
</g>
<!-- Node27 -->
<g id="Node000027" class="node">
<title>Node27</title>
<g id="a_Node000027"><a xlink:href="Builtin_8h.html" target="_top" xlink:title=" ">
<polygon fill="white" stroke="#666666" points="746.44,-316 590.44,-316 590.44,-297 746.44,-297 746.44,-316"/>
<text text-anchor="middle" x="668.44" y="-304" font-family="Helvetica,sans-Serif" font-size="10.00">open62541pp/types/Builtin.h</text>
</a>
</g>
</g>
<!-- Node17&#45;&gt;Node27 -->
<g id="edge46_Node000017_Node000027" class="edge">
<title>Node17&#45;&gt;Node27</title>
<g id="a_edge46_Node000017_Node000027"><a xlink:title=" ">
<path fill="none" stroke="#63b8ff" d="M534.15,-351.98C560.89,-343.13 602.97,-329.19 632.89,-319.28"/>
<polygon fill="#63b8ff" stroke="#63b8ff" points="634.14,-322.55 642.53,-316.08 631.94,-315.9 634.14,-322.55"/>
</a>
</g>
</g>
<!-- Node20&#45;&gt;Node2 -->
<g id="edge28_Node000020_Node000002" class="edge">
<title>Node20&#45;&gt;Node2</title>
<g id="a_edge28_Node000020_Node000002"><a xlink:title=" ">
<path fill="none" stroke="#63b8ff" d="M527.01,-241.99C490.8,-234.76 440.5,-222.85 398.44,-206 313.35,-171.9 221.31,-112.5 181.14,-85.32"/>
<polygon fill="#63b8ff" stroke="#63b8ff" points="182.96,-82.33 172.73,-79.58 179.02,-88.11 182.96,-82.33"/>
</a>
</g>
</g>
<!-- Node20&#45;&gt;Node6 -->
<g id="edge31_Node000020_Node000006" class="edge">
<title>Node20&#45;&gt;Node6</title>
<g id="a_edge31_Node000020_Node000006"><a xlink:title=" ">
<path fill="none" stroke="#63b8ff" d="M562.34,-241.84C549.11,-233.02 528.15,-218.86 510.44,-206 492.74,-193.15 488.94,-189.11 471.44,-176 458.06,-165.98 442.88,-154.9 431.01,-146.31"/>
<polygon fill="#63b8ff" stroke="#63b8ff" points="432.81,-143.29 422.66,-140.27 428.72,-148.97 432.81,-143.29"/>
</a>
</g>
</g>
<!-- Node20&#45;&gt;Node9 -->
<g id="edge29_Node000020_Node000009" class="edge">
<title>Node20&#45;&gt;Node9</title>
<g id="a_edge29_Node000020_Node000009"><a xlink:title=" ">
<path fill="none" stroke="#63b8ff" d="M598.22,-241.89C613.47,-234.79 632.36,-223.08 641.44,-206 647.7,-194.23 645.21,-188.79 641.44,-176 623.36,-114.74 574.75,-54.81 549.75,-26.85"/>
<polygon fill="#63b8ff" stroke="#63b8ff" points="552.13,-24.27 542.81,-19.24 546.96,-28.99 552.13,-24.27"/>
</a>
</g>
</g>
<!-- Node20&#45;&gt;Node10 -->
<g id="edge42_Node000020_Node000010" class="edge">
<title>Node20&#45;&gt;Node10</title>
<g id="a_edge42_Node000020_Node000010"><a xlink:title=" ">
<path fill="none" stroke="#63b8ff" d="M654.64,-246.4C794.76,-238.77 1073.03,-221.71 1087.44,-206 1116.96,-173.8 1095.9,-117.51 1082.01,-88.86"/>
<polygon fill="#63b8ff" stroke="#63b8ff" points="1084.98,-86.97 1077.32,-79.65 1078.74,-90.15 1084.98,-86.97"/>
</a>
</g>
</g>
<!-- Node21 -->
<g id="Node000021" class="node">
<title>Node21</title>
<g id="a_Node000021"><a xlink:title=" ">
<polygon fill="#e0e0e0" stroke="#999999" points="550.44,-140 498.44,-140 498.44,-121 550.44,-121 550.44,-140"/>
<text text-anchor="middle" x="524.44" y="-128" font-family="Helvetica,sans-Serif" font-size="10.00">cassert</text>
</a>
</g>
</g>
<!-- Node20&#45;&gt;Node21 -->
<g id="edge27_Node000020_Node000021" class="edge">
<title>Node20&#45;&gt;Node21</title>
<g id="a_edge27_Node000020_Node000021"><a xlink:title=" ">
<path fill="none" stroke="#63b8ff" d="M513.31,-241.94C471.38,-234.74 421.42,-222.89 408.44,-206 400.32,-195.43 400.89,-186.99 408.44,-176 417.85,-162.31 457.96,-148.98 488.4,-140.53"/>
<polygon fill="#63b8ff" stroke="#63b8ff" points="489.55,-143.85 498.29,-137.86 487.73,-137.09 489.55,-143.85"/>
</a>
</g>
</g>
<!-- Node22 -->
<g id="Node000022" class="node">
<title>Node22</title>
<g id="a_Node000022"><a xlink:title=" ">
<polygon fill="#e0e0e0" stroke="#999999" points="461.94,-200.5 416.94,-200.5 416.94,-181.5 461.94,-181.5 461.94,-200.5"/>
<text text-anchor="middle" x="439.44" y="-188.5" font-family="Helvetica,sans-Serif" font-size="10.00">utility</text>
</a>
</g>
</g>
<!-- Node20&#45;&gt;Node22 -->
<g id="edge30_Node000020_Node000022" class="edge">
<title>Node20&#45;&gt;Node22</title>
<g id="a_edge30_Node000020_Node000022"><a xlink:title=" ">
<path fill="none" stroke="#63b8ff" d="M555.66,-241.99C532.8,-232.16 494.95,-215.88 468.68,-204.58"/>
<polygon fill="#63b8ff" stroke="#63b8ff" points="469.81,-201.25 459.24,-200.52 467.04,-207.68 469.81,-201.25"/>
</a>
</g>
</g>
<!-- Node23 -->
<g id="Node000023" class="node">
<title>Node23</title>
<g id="a_Node000023"><a xlink:href="ErrorHandling_8h.html" target="_top" xlink:title=" ">
<polygon fill="white" stroke="#666666" points="849.94,-200.5 688.94,-200.5 688.94,-181.5 849.94,-181.5 849.94,-200.5"/>
<text text-anchor="middle" x="769.44" y="-188.5" font-family="Helvetica,sans-Serif" font-size="10.00">open62541pp/ErrorHandling.h</text>
</a>
</g>
</g>
<!-- Node20&#45;&gt;Node23 -->
<g id="edge32_Node000020_Node000023" class="edge">
<title>Node20&#45;&gt;Node23</title>
<g id="a_edge32_Node000020_Node000023"><a xlink:title=" ">
<path fill="none" stroke="#63b8ff" d="M603.65,-241.99C637.41,-231.81 694.09,-214.72 731.62,-203.4"/>
<polygon fill="#63b8ff" stroke="#63b8ff" points="732.63,-206.75 741.2,-200.52 730.61,-200.05 732.63,-206.75"/>
</a>
</g>
</g>
<!-- Node25 -->
<g id="Node000025" class="node">
<title>Node25</title>
<g id="a_Node000025"><a xlink:href="helper_8h.html" target="_top" xlink:title=" ">
<polygon fill="white" stroke="#666666" points="631.94,-206 518.94,-206 518.94,-176 631.94,-176 631.94,-206"/>
<text text-anchor="start" x="526.94" y="-194" font-family="Helvetica,sans-Serif" font-size="10.00">open62541pp/detail</text>
<text text-anchor="middle" x="575.44" y="-183" font-family="Helvetica,sans-Serif" font-size="10.00">/helper.h</text>
</a>
</g>
</g>
<!-- Node20&#45;&gt;Node25 -->
<g id="edge36_Node000020_Node000025" class="edge">
<title>Node20&#45;&gt;Node25</title>
<g id="a_edge36_Node000020_Node000025"><a xlink:title=" ">
<path fill="none" stroke="#63b8ff" d="M575.44,-241.87C575.44,-235.11 575.44,-225.35 575.44,-216.26"/>
<polygon fill="#63b8ff" stroke="#63b8ff" points="578.94,-216.11 575.44,-206.11 571.94,-216.11 578.94,-216.11"/>
</a>
</g>
</g>
<!-- Node26 -->
<g id="Node000026" class="node">
<title>Node26</title>
<g id="a_Node000026"><a xlink:href="comparison_8h.html" target="_top" xlink:title=" ">
<polygon fill="white" stroke="#666666" points="1078.44,-206 944.44,-206 944.44,-176 1078.44,-176 1078.44,-206"/>
<text text-anchor="start" x="952.44" y="-194" font-family="Helvetica,sans-Serif" font-size="10.00">open62541pp/overloads</text>
<text text-anchor="middle" x="1011.44" y="-183" font-family="Helvetica,sans-Serif" font-size="10.00">/comparison.h</text>
</a>
</g>
</g>
<!-- Node20&#45;&gt;Node26 -->
<g id="edge43_Node000020_Node000026" class="edge">
<title>Node20&#45;&gt;Node26</title>
<g id="a_edge43_Node000020_Node000026"><a xlink:title=" ">
<path fill="none" stroke="#63b8ff" d="M638.84,-241.99C717.14,-231.49 850.26,-213.63 934.38,-202.34"/>
<polygon fill="#63b8ff" stroke="#63b8ff" points="934.94,-205.8 944.38,-201 934.01,-198.86 934.94,-205.8"/>
</a>
</g>
</g>
<!-- Node23&#45;&gt;Node10 -->
<g id="edge35_Node000023_Node000010" class="edge">
<title>Node23&#45;&gt;Node10</title>
<g id="a_edge35_Node000023_Node000010"><a xlink:title=" ">
<path fill="none" stroke="#63b8ff" d="M776.62,-181.25C789.29,-166.41 817.16,-136.44 847.44,-121 890.93,-98.83 944.07,-86.43 987.78,-79.53"/>
<polygon fill="#63b8ff" stroke="#63b8ff" points="988.45,-82.97 997.82,-78.02 987.41,-76.05 988.45,-82.97"/>
</a>
</g>
</g>
<!-- Node23&#45;&gt;Node18 -->
<g id="edge34_Node000023_Node000018" class="edge">
<title>Node23&#45;&gt;Node18</title>
<g id="a_edge34_Node000023_Node000018"><a xlink:title=" ">
<path fill="none" stroke="#63b8ff" d="M785.52,-181.37C803.39,-171.78 832.48,-156.17 853.35,-144.97"/>
<polygon fill="#63b8ff" stroke="#63b8ff" points="855.13,-147.98 862.29,-140.17 851.82,-141.81 855.13,-147.98"/>
</a>
</g>
</g>
<!-- Node24 -->
<g id="Node000024" class="node">
<title>Node24</title>
<g id="a_Node000024"><a xlink:title=" ">
<polygon fill="#e0e0e0" stroke="#999999" points="799.94,-140 734.94,-140 734.94,-121 799.94,-121 799.94,-140"/>
<text text-anchor="middle" x="767.44" y="-128" font-family="Helvetica,sans-Serif" font-size="10.00">stdexcept</text>
</a>
</g>
</g>
<!-- Node23&#45;&gt;Node24 -->
<g id="edge33_Node000023_Node000024" class="edge">
<title>Node23&#45;&gt;Node24</title>
<g id="a_edge33_Node000023_Node000024"><a xlink:title=" ">
<path fill="none" stroke="#63b8ff" d="M769.14,-181.37C768.87,-173.25 768.44,-160.81 768.09,-150.39"/>
<polygon fill="#63b8ff" stroke="#63b8ff" points="771.58,-150.04 767.74,-140.17 764.58,-150.28 771.58,-150.04"/>
</a>
</g>
</g>
<!-- Node25&#45;&gt;Node4 -->
<g id="edge39_Node000025_Node000004" class="edge">
<title>Node25&#45;&gt;Node4</title>
<g id="a_edge39_Node000025_Node000004"><a xlink:title=" ">
<path fill="none" stroke="#63b8ff" d="M576.32,-175.97C576.49,-160.32 574.16,-135.32 559.44,-121 545.17,-107.13 426.46,-87.72 358.94,-77.65"/>
<polygon fill="#63b8ff" stroke="#63b8ff" points="359.38,-74.18 348.97,-76.18 358.35,-81.1 359.38,-74.18"/>
</a>
</g>
</g>
<!-- Node25&#45;&gt;Node6 -->
<g id="edge40_Node000025_Node000006" class="edge">
<title>Node25&#45;&gt;Node6</title>
<g id="a_edge40_Node000025_Node000006"><a xlink:title=" ">
<path fill="none" stroke="#63b8ff" d="M535.92,-175.99C508.02,-166.1 471.03,-152.98 444.44,-143.56"/>
<polygon fill="#63b8ff" stroke="#63b8ff" points="445.4,-140.18 434.81,-140.14 443.06,-146.78 445.4,-140.18"/>
</a>
</g>
</g>
<!-- Node25&#45;&gt;Node10 -->
<g id="edge41_Node000025_Node000010" class="edge">
<title>Node25&#45;&gt;Node10</title>
<g id="a_edge41_Node000025_Node000010"><a xlink:title=" ">
<path fill="none" stroke="#63b8ff" d="M600.23,-175.99C629.47,-160.11 679.99,-134.66 726.44,-121 813.43,-95.41 916.73,-82.66 987.68,-76.48"/>
<polygon fill="#63b8ff" stroke="#63b8ff" points="988.23,-79.94 997.9,-75.61 987.64,-72.97 988.23,-79.94"/>
</a>
</g>
</g>
<!-- Node25&#45;&gt;Node18 -->
<g id="edge38_Node000025_Node000018" class="edge">
<title>Node25&#45;&gt;Node18</title>
<g id="a_edge38_Node000025_Node000018"><a xlink:title=" ">
<path fill="none" stroke="#63b8ff" d="M632.08,-179.07C695.24,-166.87 795.22,-147.57 846.22,-137.72"/>
<polygon fill="#63b8ff" stroke="#63b8ff" points="847.17,-141.1 856.32,-135.77 845.84,-134.23 847.17,-141.1"/>
</a>
</g>
</g>
<!-- Node25&#45;&gt;Node21 -->
<g id="edge37_Node000025_Node000021" class="edge">
<title>Node25&#45;&gt;Node21</title>
<g id="a_edge37_Node000025_Node000021"><a xlink:title=" ">
<path fill="none" stroke="#63b8ff" d="M563.09,-175.84C555.77,-167.43 546.44,-156.74 538.79,-147.96"/>
<polygon fill="#63b8ff" stroke="#63b8ff" points="541.29,-145.5 532.08,-140.27 536.02,-150.1 541.29,-145.5"/>
</a>
</g>
</g>
<!-- Node26&#45;&gt;Node10 -->
<g id="edge44_Node000026_Node000010" class="edge">
<title>Node26&#45;&gt;Node10</title>
<g id="a_edge44_Node000026_Node000010"><a xlink:title=" ">
<path fill="none" stroke="#63b8ff" d="M1018.68,-175.88C1029.83,-154.12 1051.21,-112.41 1063.38,-88.67"/>
<polygon fill="#63b8ff" stroke="#63b8ff" points="1066.53,-90.21 1067.97,-79.71 1060.3,-87.01 1066.53,-90.21"/>
</a>
</g>
</g>
<!-- Node27&#45;&gt;Node2 -->
<g id="edge48_Node000027_Node000002" class="edge">
<title>Node27&#45;&gt;Node2</title>
<g id="a_edge48_Node000027_Node000002"><a xlink:title=" ">
<path fill="none" stroke="#63b8ff" d="M601.8,-296.93C556.4,-289.98 495.34,-278.44 443.44,-261 340.97,-226.57 316.61,-207.84 232.44,-140 211.51,-123.13 189.49,-101.35 175.39,-86.81"/>
<polygon fill="#63b8ff" stroke="#63b8ff" points="177.89,-84.35 168.44,-79.56 172.83,-89.2 177.89,-84.35"/>
</a>
</g>
</g>
<!-- Node27&#45;&gt;Node4 -->
<g id="edge50_Node000027_Node000004" class="edge">
<title>Node27&#45;&gt;Node4</title>
<g id="a_edge50_Node000027_Node000004"><a xlink:title=" ">
<path fill="none" stroke="#63b8ff" d="M615.17,-296.94C578.35,-289.94 528.77,-278.34 487.44,-261 444.56,-243.01 434.9,-234.86 398.44,-206 365.91,-180.26 353.55,-175.71 332.44,-140 323.23,-124.41 318.03,-104.31 315.26,-89.83"/>
<polygon fill="#63b8ff" stroke="#63b8ff" points="318.65,-88.89 313.53,-79.62 311.75,-90.06 318.65,-88.89"/>
</a>
</g>
</g>
<!-- Node27&#45;&gt;Node10 -->
<g id="edge52_Node000027_Node000010" class="edge">
<title>Node27&#45;&gt;Node10</title>
<g id="a_edge52_Node000027_Node000010"><a xlink:title=" ">
<path fill="none" stroke="#63b8ff" d="M746.53,-299.17C860.23,-288.16 1062.74,-261.18 1107.44,-206 1131.25,-176.61 1123.74,-156.76 1111.44,-121 1107.05,-108.25 1097.94,-96.25 1089.62,-87.21"/>
<polygon fill="#63b8ff" stroke="#63b8ff" points="1091.86,-84.49 1082.36,-79.79 1086.86,-89.39 1091.86,-84.49"/>
</a>
</g>
</g>
<!-- Node27&#45;&gt;Node18 -->
<g id="edge49_Node000027_Node000018" class="edge">
<title>Node27&#45;&gt;Node18</title>
<g id="a_edge49_Node000027_Node000018"><a xlink:title=" ">
<path fill="none" stroke="#63b8ff" d="M702.98,-296.89C746.16,-284.31 819.27,-256.7 859.44,-206 871.98,-190.17 876.34,-167.04 877.8,-150.75"/>
<polygon fill="#63b8ff" stroke="#63b8ff" points="881.32,-150.51 878.43,-140.31 874.33,-150.08 881.32,-150.51"/>
</a>
</g>
</g>
<!-- Node27&#45;&gt;Node20 -->
<g id="edge51_Node000027_Node000020" class="edge">
<title>Node27&#45;&gt;Node20</title>
<g id="a_edge51_Node000027_Node000020"><a xlink:title=" ">
<path fill="none" stroke="#63b8ff" d="M653.5,-296.98C638.94,-288.69 616.57,-275.94 599.51,-266.22"/>
<polygon fill="#63b8ff" stroke="#63b8ff" points="601.07,-263.08 590.65,-261.17 597.61,-269.16 601.07,-263.08"/>
</a>
</g>
</g>
<!-- Node28 -->
<g id="Node000028" class="node">
<title>Node28</title>
<g id="a_Node000028"><a xlink:title=" ">
<polygon fill="#e0e0e0" stroke="#999999" points="899.44,-261 857.44,-261 857.44,-242 899.44,-242 899.44,-261"/>
<text text-anchor="middle" x="878.44" y="-249" font-family="Helvetica,sans-Serif" font-size="10.00">array</text>
</a>
</g>
</g>
<!-- Node27&#45;&gt;Node28 -->
<g id="edge47_Node000027_Node000028" class="edge">
<title>Node27&#45;&gt;Node28</title>
<g id="a_edge47_Node000027_Node000028"><a xlink:title=" ">
<path fill="none" stroke="#63b8ff" d="M702.18,-296.98C742.3,-286.86 808.72,-270.1 847.55,-260.3"/>
<polygon fill="#63b8ff" stroke="#63b8ff" points="848.42,-263.69 857.26,-257.85 846.7,-256.9 848.42,-263.69"/>
</a>
</g>
</g>
</g>
</svg>
