<?xml version="1.0" encoding="UTF-8" standalone="no"?>
<!DOCTYPE svg PUBLIC "-//W3C//DTD SVG 1.1//EN"
 "http://www.w3.org/Graphics/SVG/1.1/DTD/svg11.dtd">
<!-- Generated by graphviz version 2.43.0 (0)
 -->
<!-- Title: /home/runner/work/open62541pp/open62541pp/include/open62541pp/services/NodeManagement.h Pages: 1 -->
<svg width="1289pt" height="456pt"
 viewBox="0.00 0.00 1289.00 456.00" xmlns="http://www.w3.org/2000/svg" xmlns:xlink="http://www.w3.org/1999/xlink">
<g id="graph0" class="graph" transform="scale(1 1) rotate(0) translate(4 452)">
<title>/home/runner/work/open62541pp/open62541pp/include/open62541pp/services/NodeManagement.h</title>
<!-- Node1 -->
<g id="Node000001" class="node">
<title>Node1</title>
<g id="a_Node000001"><a xlink:title=" ">
<polygon fill="#999999" stroke="#666666" points="229.5,-448 36.5,-448 36.5,-407 229.5,-407 229.5,-448"/>
<text text-anchor="start" x="44.5" y="-436" font-family="Helvetica,sans-Serif" font-size="10.00">/home/runner/work/open62541pp</text>
<text text-anchor="start" x="44.5" y="-425" font-family="Helvetica,sans-Serif" font-size="10.00">/open62541pp/include/open62541pp</text>
<text text-anchor="middle" x="133" y="-414" font-family="Helvetica,sans-Serif" font-size="10.00">/services/NodeManagement.h</text>
</a>
</g>
</g>
<!-- Node2 -->
<g id="Node000002" class="node">
<title>Node2</title>
<g id="a_Node000002"><a xlink:title=" ">
<polygon fill="#e0e0e0" stroke="#999999" points="203,-79.5 153,-79.5 153,-60.5 203,-60.5 203,-79.5"/>
<text text-anchor="middle" x="178" y="-67.5" font-family="Helvetica,sans-Serif" font-size="10.00">cstdint</text>
</a>
</g>
</g>
<!-- Node1&#45;&gt;Node2 -->
<g id="edge1_Node000001_Node000002" class="edge">
<title>Node1&#45;&gt;Node2</title>
<g id="a_edge1_Node000001_Node000002"><a xlink:title=" ">
<path fill="none" stroke="#63b8ff" d="M84.98,-406.86C46.89,-387.72 0,-354.6 0,-307.5 0,-307.5 0,-307.5 0,-190 0,-121.87 91.24,-90.3 143.07,-77.86"/>
<polygon fill="#63b8ff" stroke="#63b8ff" points="143.9,-81.26 152.87,-75.62 142.35,-74.43 143.9,-81.26"/>
</a>
</g>
</g>
<!-- Node3 -->
<g id="Node000003" class="node">
<title>Node3</title>
<g id="a_Node000003"><a xlink:title=" ">
<polygon fill="#e0e0e0" stroke="#999999" points="491.5,-79.5 418.5,-79.5 418.5,-60.5 491.5,-60.5 491.5,-79.5"/>
<text text-anchor="middle" x="455" y="-67.5" font-family="Helvetica,sans-Serif" font-size="10.00">string_view</text>
</a>
</g>
</g>
<!-- Node1&#45;&gt;Node3 -->
<g id="edge2_Node000001_Node000003" class="edge">
<title>Node1&#45;&gt;Node3</title>
<g id="a_edge2_Node000001_Node000003"><a xlink:title=" ">
<path fill="none" stroke="#63b8ff" d="M229.76,-414.58C336.71,-398.99 498.02,-367.43 529,-316 542.58,-293.45 517.44,-285.17 507,-261 493.39,-229.51 469.18,-130.7 459.34,-89.41"/>
<polygon fill="#63b8ff" stroke="#63b8ff" points="462.73,-88.53 457.01,-79.61 455.91,-90.14 462.73,-88.53"/>
</a>
</g>
</g>
<!-- Node4 -->
<g id="Node000004" class="node">
<title>Node4</title>
<g id="a_Node000004"><a xlink:href="Common_8h.html" target="_top" xlink:title=" ">
<polygon fill="white" stroke="#666666" points="383.5,-140 244.5,-140 244.5,-121 383.5,-121 383.5,-140"/>
<text text-anchor="middle" x="314" y="-128" font-family="Helvetica,sans-Serif" font-size="10.00">open62541pp/Common.h</text>
</a>
</g>
</g>
<!-- Node1&#45;&gt;Node4 -->
<g id="edge3_Node000001_Node000004" class="edge">
<title>Node1&#45;&gt;Node4</title>
<g id="a_edge3_Node000001_Node000004"><a xlink:title=" ">
<path fill="none" stroke="#63b8ff" d="M107.4,-406.97C77.7,-381.81 35.4,-336.59 57,-297 103.6,-211.56 215.32,-163.6 274.95,-143.27"/>
<polygon fill="#63b8ff" stroke="#63b8ff" points="276.37,-146.49 284.75,-140.02 274.16,-139.84 276.37,-146.49"/>
</a>
</g>
</g>
<!-- Node12 -->
<g id="Node000012" class="node">
<title>Node12</title>
<g id="a_Node000012"><a xlink:href="NodeIds_8h.html" target="_top" xlink:title=" ">
<polygon fill="white" stroke="#666666" points="200,-316 66,-316 66,-297 200,-297 200,-316"/>
<text text-anchor="middle" x="133" y="-304" font-family="Helvetica,sans-Serif" font-size="10.00">open62541pp/NodeIds.h</text>
</a>
</g>
</g>
<!-- Node1&#45;&gt;Node12 -->
<g id="edge14_Node000001_Node000012" class="edge">
<title>Node1&#45;&gt;Node12</title>
<g id="a_edge14_Node000001_Node000012"><a xlink:title=" ">
<path fill="none" stroke="#63b8ff" d="M133,-406.85C133,-384.48 133,-348.19 133,-326.21"/>
<polygon fill="#63b8ff" stroke="#63b8ff" points="136.5,-326.18 133,-316.18 129.5,-326.18 136.5,-326.18"/>
</a>
</g>
</g>
<!-- Node13 -->
<g id="Node000013" class="node">
<title>Node13</title>
<g id="a_Node000013"><a xlink:href="NodeId_8h.html" target="_top" xlink:title=" ">
<polygon fill="white" stroke="#666666" points="415.5,-371 256.5,-371 256.5,-352 415.5,-352 415.5,-371"/>
<text text-anchor="middle" x="336" y="-359" font-family="Helvetica,sans-Serif" font-size="10.00">open62541pp/types/NodeId.h</text>
</a>
</g>
</g>
<!-- Node1&#45;&gt;Node13 -->
<g id="edge15_Node000001_Node000013" class="edge">
<title>Node1&#45;&gt;Node13</title>
<g id="a_edge15_Node000001_Node000013"><a xlink:title=" ">
<path fill="none" stroke="#63b8ff" d="M195.01,-406.95C229.12,-396.2 270.27,-383.22 299.29,-374.07"/>
<polygon fill="#63b8ff" stroke="#63b8ff" points="300.53,-377.35 309.01,-371.01 298.42,-370.68 300.53,-377.35"/>
</a>
</g>
</g>
<!-- Node4&#45;&gt;Node2 -->
<g id="edge4_Node000004_Node000002" class="edge">
<title>Node4&#45;&gt;Node2</title>
<g id="a_edge4_Node000004_Node000002"><a xlink:title=" ">
<path fill="none" stroke="#63b8ff" d="M294.22,-120.99C271.36,-111.16 233.51,-94.88 207.24,-83.58"/>
<polygon fill="#63b8ff" stroke="#63b8ff" points="208.37,-80.25 197.8,-79.52 205.6,-86.68 208.37,-80.25"/>
</a>
</g>
</g>
<!-- Node4&#45;&gt;Node3 -->
<g id="edge5_Node000004_Node000003" class="edge">
<title>Node4&#45;&gt;Node3</title>
<g id="a_edge5_Node000004_Node000003"><a xlink:title=" ">
<path fill="none" stroke="#63b8ff" d="M334.5,-120.99C358.31,-111.12 397.79,-94.73 425.04,-83.43"/>
<polygon fill="#63b8ff" stroke="#63b8ff" points="426.58,-86.58 434.47,-79.52 423.89,-80.12 426.58,-86.58"/>
</a>
</g>
</g>
<!-- Node5 -->
<g id="Node000005" class="node">
<title>Node5</title>
<g id="a_Node000005"><a xlink:title=" ">
<polygon fill="#e0e0e0" stroke="#999999" points="324.5,-19 283.5,-19 283.5,0 324.5,0 324.5,-19"/>
<text text-anchor="middle" x="304" y="-7" font-family="Helvetica,sans-Serif" font-size="10.00">tuple</text>
</a>
</g>
</g>
<!-- Node4&#45;&gt;Node5 -->
<g id="edge6_Node000004_Node000005" class="edge">
<title>Node4&#45;&gt;Node5</title>
<g id="a_edge6_Node000004_Node000005"><a xlink:title=" ">
<path fill="none" stroke="#63b8ff" d="M304.12,-120.75C295.61,-112.5 283.95,-99.3 279,-85 274.64,-72.4 275.62,-67.9 279,-55 281.55,-45.26 286.75,-35.41 291.76,-27.46"/>
<polygon fill="#63b8ff" stroke="#63b8ff" points="294.69,-29.37 297.37,-19.12 288.89,-25.46 294.69,-29.37"/>
</a>
</g>
</g>
<!-- Node6 -->
<g id="Node000006" class="node">
<title>Node6</title>
<g id="a_Node000006"><a xlink:href="traits_8h.html" target="_top" xlink:title=" ">
<polygon fill="white" stroke="#666666" points="400.5,-85 287.5,-85 287.5,-55 400.5,-55 400.5,-85"/>
<text text-anchor="start" x="295.5" y="-73" font-family="Helvetica,sans-Serif" font-size="10.00">open62541pp/detail</text>
<text text-anchor="middle" x="344" y="-62" font-family="Helvetica,sans-Serif" font-size="10.00">/traits.h</text>
</a>
</g>
</g>
<!-- Node4&#45;&gt;Node6 -->
<g id="edge7_Node000004_Node000006" class="edge">
<title>Node4&#45;&gt;Node6</title>
<g id="a_edge7_Node000004_Node000006"><a xlink:title=" ">
<path fill="none" stroke="#63b8ff" d="M318.43,-120.87C322.04,-113.81 327.33,-103.5 332.16,-94.08"/>
<polygon fill="#63b8ff" stroke="#63b8ff" points="335.31,-95.61 336.76,-85.11 329.08,-92.42 335.31,-95.61"/>
</a>
</g>
</g>
<!-- Node8 -->
<g id="Node000008" class="node">
<title>Node8</title>
<g id="a_Node000008"><a xlink:href="open62541_8h.html" target="_top" xlink:title=" ">
<polygon fill="white" stroke="#666666" points="1023.5,-79.5 874.5,-79.5 874.5,-60.5 1023.5,-60.5 1023.5,-79.5"/>
<text text-anchor="middle" x="949" y="-67.5" font-family="Helvetica,sans-Serif" font-size="10.00">open62541pp/open62541.h</text>
</a>
</g>
</g>
<!-- Node4&#45;&gt;Node8 -->
<g id="edge10_Node000004_Node000008" class="edge">
<title>Node4&#45;&gt;Node8</title>
<g id="a_edge10_Node000004_Node000008"><a xlink:title=" ">
<path fill="none" stroke="#63b8ff" d="M383.77,-123.07C501.09,-112.26 737.44,-90.49 864.16,-78.82"/>
<polygon fill="#63b8ff" stroke="#63b8ff" points="864.57,-82.29 874.21,-77.89 863.93,-75.32 864.57,-82.29"/>
</a>
</g>
</g>
<!-- Node6&#45;&gt;Node5 -->
<g id="edge8_Node000006_Node000005" class="edge">
<title>Node6&#45;&gt;Node5</title>
<g id="a_edge8_Node000006_Node000005"><a xlink:title=" ">
<path fill="none" stroke="#63b8ff" d="M334.32,-54.84C328.75,-46.69 321.71,-36.4 315.82,-27.78"/>
<polygon fill="#63b8ff" stroke="#63b8ff" points="318.53,-25.55 309.99,-19.27 312.75,-29.5 318.53,-25.55"/>
</a>
</g>
</g>
<!-- Node7 -->
<g id="Node000007" class="node">
<title>Node7</title>
<g id="a_Node000007"><a xlink:title=" ">
<polygon fill="#e0e0e0" stroke="#999999" points="417.5,-19 348.5,-19 348.5,0 417.5,0 417.5,-19"/>
<text text-anchor="middle" x="383" y="-7" font-family="Helvetica,sans-Serif" font-size="10.00">type_traits</text>
</a>
</g>
</g>
<!-- Node6&#45;&gt;Node7 -->
<g id="edge9_Node000006_Node000007" class="edge">
<title>Node6&#45;&gt;Node7</title>
<g id="a_edge9_Node000006_Node000007"><a xlink:title=" ">
<path fill="none" stroke="#63b8ff" d="M353.44,-54.84C358.87,-46.69 365.73,-36.4 371.48,-27.78"/>
<polygon fill="#63b8ff" stroke="#63b8ff" points="374.52,-29.53 377.16,-19.27 368.7,-25.65 374.52,-29.53"/>
</a>
</g>
</g>
<!-- Node9 -->
<g id="Node000009" class="node">
<title>Node9</title>
<g id="a_Node000009"><a target="_blank" xlink:href="open62541/nodeids_8h.html" xlink:title=" ">
<polygon fill="white" stroke="#666666" points="1009.5,-19 888.5,-19 888.5,0 1009.5,0 1009.5,-19"/>
<text text-anchor="middle" x="949" y="-7" font-family="Helvetica,sans-Serif" font-size="10.00">open62541/nodeids.h</text>
</a>
</g>
</g>
<!-- Node8&#45;&gt;Node9 -->
<g id="edge11_Node000008_Node000009" class="edge">
<title>Node8&#45;&gt;Node9</title>
<g id="a_edge11_Node000008_Node000009"><a xlink:title=" ">
<path fill="none" stroke="#63b8ff" d="M949,-60.37C949,-52.25 949,-39.81 949,-29.39"/>
<polygon fill="#63b8ff" stroke="#63b8ff" points="952.5,-29.17 949,-19.17 945.5,-29.17 952.5,-29.17"/>
</a>
</g>
</g>
<!-- Node10 -->
<g id="Node000010" class="node">
<title>Node10</title>
<g id="a_Node000010"><a target="_blank" xlink:href="open62541/types_8h.html" xlink:title=" ">
<polygon fill="white" stroke="#666666" points="1138,-19 1028,-19 1028,0 1138,0 1138,-19"/>
<text text-anchor="middle" x="1083" y="-7" font-family="Helvetica,sans-Serif" font-size="10.00">open62541/types.h</text>
</a>
</g>
</g>
<!-- Node8&#45;&gt;Node10 -->
<g id="edge12_Node000008_Node000010" class="edge">
<title>Node8&#45;&gt;Node10</title>
<g id="a_edge12_Node000008_Node000010"><a xlink:title=" ">
<path fill="none" stroke="#63b8ff" d="M968.48,-60.49C991.01,-50.66 1028.31,-34.38 1054.19,-23.08"/>
<polygon fill="#63b8ff" stroke="#63b8ff" points="1055.73,-26.23 1063.49,-19.02 1052.93,-19.81 1055.73,-26.23"/>
</a>
</g>
</g>
<!-- Node11 -->
<g id="Node000011" class="node">
<title>Node11</title>
<g id="a_Node000011"><a target="_blank" xlink:href="open62541/types__generated_8h.html" xlink:title=" ">
<polygon fill="white" stroke="#666666" points="870,-19 706,-19 706,0 870,0 870,-19"/>
<text text-anchor="middle" x="788" y="-7" font-family="Helvetica,sans-Serif" font-size="10.00">open62541/types_generated.h</text>
</a>
</g>
</g>
<!-- Node8&#45;&gt;Node11 -->
<g id="edge13_Node000008_Node000011" class="edge">
<title>Node8&#45;&gt;Node11</title>
<g id="a_edge13_Node000008_Node000011"><a xlink:title=" ">
<path fill="none" stroke="#63b8ff" d="M925.59,-60.49C898.05,-50.49 852.13,-33.8 820.99,-22.49"/>
<polygon fill="#63b8ff" stroke="#63b8ff" points="822.03,-19.14 811.44,-19.02 819.64,-25.72 822.03,-19.14"/>
</a>
</g>
</g>
<!-- Node13&#45;&gt;Node2 -->
<g id="edge16_Node000013_Node000002" class="edge">
<title>Node13&#45;&gt;Node2</title>
<g id="a_edge16_Node000013_Node000002"><a xlink:title=" ">
<path fill="none" stroke="#63b8ff" d="M305.59,-351.92C286.55,-345.08 262.89,-333.67 248,-316 190.44,-247.68 180.13,-134.68 178.35,-90.01"/>
<polygon fill="#63b8ff" stroke="#63b8ff" points="181.84,-89.65 178.04,-79.76 174.84,-89.86 181.84,-89.65"/>
</a>
</g>
</g>
<!-- Node13&#45;&gt;Node3 -->
<g id="edge18_Node000013_Node000003" class="edge">
<title>Node13&#45;&gt;Node3</title>
<g id="a_edge18_Node000013_Node000003"><a xlink:title=" ">
<path fill="none" stroke="#63b8ff" d="M338.05,-351.71C342.82,-331.81 355.41,-281.97 371,-242 393.57,-184.14 428.22,-119.16 445.09,-88.63"/>
<polygon fill="#63b8ff" stroke="#63b8ff" points="448.28,-90.1 450.09,-79.66 442.16,-86.7 448.28,-90.1"/>
</a>
</g>
</g>
<!-- Node13&#45;&gt;Node8 -->
<g id="edge40_Node000013_Node000008" class="edge">
<title>Node13&#45;&gt;Node8</title>
<g id="a_edge40_Node000013_Node000008"><a xlink:title=" ">
<path fill="none" stroke="#63b8ff" d="M415.76,-359.7C643.58,-356.37 1281,-339.3 1281,-252.5 1281,-252.5 1281,-252.5 1281,-190 1281,-146.94 1250.99,-141.26 1213,-121 1157.8,-91.56 1087.99,-79.25 1034.02,-74.19"/>
<polygon fill="#63b8ff" stroke="#63b8ff" points="1034.05,-70.68 1023.79,-73.3 1033.45,-77.65 1034.05,-70.68"/>
</a>
</g>
</g>
<!-- Node13&#45;&gt;Node12 -->
<g id="edge20_Node000013_Node000012" class="edge">
<title>Node13&#45;&gt;Node12</title>
<g id="a_edge20_Node000013_Node000012"><a xlink:title=" ">
<path fill="none" stroke="#63b8ff" d="M303.38,-351.98C268.71,-342.93 213.74,-328.58 175.65,-318.64"/>
<polygon fill="#63b8ff" stroke="#63b8ff" points="176.43,-315.22 165.87,-316.08 174.66,-321.99 176.43,-315.22"/>
</a>
</g>
</g>
<!-- Node14 -->
<g id="Node000014" class="node">
<title>Node14</title>
<g id="a_Node000014"><a xlink:title=" ">
<polygon fill="#e0e0e0" stroke="#999999" points="1022,-140 978,-140 978,-121 1022,-121 1022,-140"/>
<text text-anchor="middle" x="1000" y="-128" font-family="Helvetica,sans-Serif" font-size="10.00">string</text>
</a>
</g>
</g>
<!-- Node13&#45;&gt;Node14 -->
<g id="edge17_Node000013_Node000014" class="edge">
<title>Node13&#45;&gt;Node14</title>
<g id="a_edge17_Node000013_Node000014"><a xlink:title=" ">
<path fill="none" stroke="#63b8ff" d="M415.66,-357.33C568.34,-349.82 894.96,-326.39 984,-261 1015.95,-237.54 1015.79,-215.35 1011,-176 1009.94,-167.31 1007.76,-157.87 1005.62,-149.93"/>
<polygon fill="#63b8ff" stroke="#63b8ff" points="1008.96,-148.89 1002.83,-140.25 1002.23,-150.83 1008.96,-148.89"/>
</a>
</g>
</g>
<!-- Node15 -->
<g id="Node000015" class="node">
<title>Node15</title>
<g id="a_Node000015"><a xlink:title=" ">
<polygon fill="#e0e0e0" stroke="#999999" points="307.5,-316 256.5,-316 256.5,-297 307.5,-297 307.5,-316"/>
<text text-anchor="middle" x="282" y="-304" font-family="Helvetica,sans-Serif" font-size="10.00">variant</text>
</a>
</g>
</g>
<!-- Node13&#45;&gt;Node15 -->
<g id="edge19_Node000013_Node000015" class="edge">
<title>Node13&#45;&gt;Node15</title>
<g id="a_edge19_Node000013_Node000015"><a xlink:title=" ">
<path fill="none" stroke="#63b8ff" d="M327.08,-351.75C319.22,-344.03 307.57,-332.6 298.08,-323.28"/>
<polygon fill="#63b8ff" stroke="#63b8ff" points="300.34,-320.6 290.75,-316.09 295.44,-325.59 300.34,-320.6"/>
</a>
</g>
</g>
<!-- Node16 -->
<g id="Node000016" class="node">
<title>Node16</title>
<g id="a_Node000016"><a xlink:href="TypeWrapper_8h.html" target="_top" xlink:title=" ">
<polygon fill="white" stroke="#666666" points="674,-261 516,-261 516,-242 674,-242 674,-261"/>
<text text-anchor="middle" x="595" y="-249" font-family="Helvetica,sans-Serif" font-size="10.00">open62541pp/TypeWrapper.h</text>
</a>
</g>
</g>
<!-- Node13&#45;&gt;Node16 -->
<g id="edge21_Node000013_Node000016" class="edge">
<title>Node13&#45;&gt;Node16</title>
<g id="a_edge21_Node000013_Node000016"><a xlink:title=" ">
<path fill="none" stroke="#63b8ff" d="M415.51,-352.01C451.75,-345.72 494.23,-334.83 529,-316 550.3,-304.46 569.63,-284.16 581.78,-269.62"/>
<polygon fill="#63b8ff" stroke="#63b8ff" points="584.83,-271.42 588.38,-261.44 579.38,-267.03 584.83,-271.42"/>
</a>
</g>
</g>
<!-- Node23 -->
<g id="Node000023" class="node">
<title>Node23</title>
<g id="a_Node000023"><a xlink:href="Builtin_8h.html" target="_top" xlink:title=" ">
<polygon fill="white" stroke="#666666" points="520,-316 364,-316 364,-297 520,-297 520,-316"/>
<text text-anchor="middle" x="442" y="-304" font-family="Helvetica,sans-Serif" font-size="10.00">open62541pp/types/Builtin.h</text>
</a>
</g>
</g>
<!-- Node13&#45;&gt;Node23 -->
<g id="edge41_Node000013_Node000023" class="edge">
<title>Node13&#45;&gt;Node23</title>
<g id="a_edge41_Node000013_Node000023"><a xlink:title=" ">
<path fill="none" stroke="#63b8ff" d="M353.03,-351.98C369.93,-343.54 396.06,-330.47 415.64,-320.68"/>
<polygon fill="#63b8ff" stroke="#63b8ff" points="417.28,-323.77 424.66,-316.17 414.15,-317.51 417.28,-323.77"/>
</a>
</g>
</g>
<!-- Node16&#45;&gt;Node2 -->
<g id="edge23_Node000016_Node000002" class="edge">
<title>Node16&#45;&gt;Node2</title>
<g id="a_edge23_Node000016_Node000002"><a xlink:title=" ">
<path fill="none" stroke="#63b8ff" d="M524.93,-241.98C448.18,-229.86 324.28,-201.8 236,-140 216.25,-126.18 199.27,-104.01 188.88,-88.54"/>
<polygon fill="#63b8ff" stroke="#63b8ff" points="191.66,-86.4 183.29,-79.91 185.79,-90.21 191.66,-86.4"/>
</a>
</g>
</g>
<!-- Node16&#45;&gt;Node4 -->
<g id="edge26_Node000016_Node000004" class="edge">
<title>Node16&#45;&gt;Node4</title>
<g id="a_edge26_Node000016_Node000004"><a xlink:title=" ">
<path fill="none" stroke="#63b8ff" d="M574.79,-241.94C525.9,-221.24 401.04,-168.36 343.66,-144.06"/>
<polygon fill="#63b8ff" stroke="#63b8ff" points="344.98,-140.82 334.4,-140.14 342.25,-147.26 344.98,-140.82"/>
</a>
</g>
</g>
<!-- Node16&#45;&gt;Node7 -->
<g id="edge24_Node000016_Node000007" class="edge">
<title>Node16&#45;&gt;Node7</title>
<g id="a_edge24_Node000016_Node000007"><a xlink:title=" ">
<path fill="none" stroke="#63b8ff" d="M591.28,-241.82C575.78,-205.77 516.41,-69.12 501,-55 480.66,-36.37 451.75,-25.29 427.65,-18.86"/>
<polygon fill="#63b8ff" stroke="#63b8ff" points="428.19,-15.39 417.65,-16.37 426.51,-22.18 428.19,-15.39"/>
</a>
</g>
</g>
<!-- Node16&#45;&gt;Node8 -->
<g id="edge37_Node000016_Node000008" class="edge">
<title>Node16&#45;&gt;Node8</title>
<g id="a_edge37_Node000016_Node000008"><a xlink:title=" ">
<path fill="none" stroke="#63b8ff" d="M674.28,-250.78C835.03,-250.53 1187.27,-245.42 1224,-206 1289.26,-135.96 1126.78,-97.67 1024.57,-81.11"/>
<polygon fill="#63b8ff" stroke="#63b8ff" points="1024.99,-77.63 1014.57,-79.53 1023.9,-84.55 1024.99,-77.63"/>
</a>
</g>
</g>
<!-- Node17 -->
<g id="Node000017" class="node">
<title>Node17</title>
<g id="a_Node000017"><a xlink:title=" ">
<polygon fill="#e0e0e0" stroke="#999999" points="610,-140 558,-140 558,-121 610,-121 610,-140"/>
<text text-anchor="middle" x="584" y="-128" font-family="Helvetica,sans-Serif" font-size="10.00">cassert</text>
</a>
</g>
</g>
<!-- Node16&#45;&gt;Node17 -->
<g id="edge22_Node000016_Node000017" class="edge">
<title>Node16&#45;&gt;Node17</title>
<g id="a_edge22_Node000016_Node000017"><a xlink:title=" ">
<path fill="none" stroke="#63b8ff" d="M592.17,-241.75C589.45,-232.86 585.54,-218.64 584,-206 581.71,-187.17 582.04,-165.47 582.74,-150.37"/>
<polygon fill="#63b8ff" stroke="#63b8ff" points="586.25,-150.44 583.32,-140.26 579.26,-150.04 586.25,-150.44"/>
</a>
</g>
</g>
<!-- Node18 -->
<g id="Node000018" class="node">
<title>Node18</title>
<g id="a_Node000018"><a xlink:title=" ">
<polygon fill="#e0e0e0" stroke="#999999" points="768.5,-200.5 723.5,-200.5 723.5,-181.5 768.5,-181.5 768.5,-200.5"/>
<text text-anchor="middle" x="746" y="-188.5" font-family="Helvetica,sans-Serif" font-size="10.00">utility</text>
</a>
</g>
</g>
<!-- Node16&#45;&gt;Node18 -->
<g id="edge25_Node000016_Node000018" class="edge">
<title>Node16&#45;&gt;Node18</title>
<g id="a_edge25_Node000016_Node000018"><a xlink:title=" ">
<path fill="none" stroke="#63b8ff" d="M619.55,-241.96C643.94,-233.34 682.32,-219.42 715,-206 716.17,-205.52 717.36,-205.02 718.55,-204.52"/>
<polygon fill="#63b8ff" stroke="#63b8ff" points="719.97,-207.72 727.73,-200.5 717.17,-201.3 719.97,-207.72"/>
</a>
</g>
</g>
<!-- Node19 -->
<g id="Node000019" class="node">
<title>Node19</title>
<g id="a_Node000019"><a xlink:href="ErrorHandling_8h.html" target="_top" xlink:title=" ">
<polygon fill="white" stroke="#666666" points="1214.5,-200.5 1053.5,-200.5 1053.5,-181.5 1214.5,-181.5 1214.5,-200.5"/>
<text text-anchor="middle" x="1134" y="-188.5" font-family="Helvetica,sans-Serif" font-size="10.00">open62541pp/ErrorHandling.h</text>
</a>
</g>
</g>
<!-- Node16&#45;&gt;Node19 -->
<g id="edge27_Node000016_Node000019" class="edge">
<title>Node16&#45;&gt;Node19</title>
<g id="a_edge27_Node000016_Node000019"><a xlink:title=" ">
<path fill="none" stroke="#63b8ff" d="M673.38,-241.99C772.27,-231.26 941.92,-212.85 1045.42,-201.61"/>
<polygon fill="#63b8ff" stroke="#63b8ff" points="1045.97,-205.08 1055.53,-200.52 1045.21,-198.12 1045.97,-205.08"/>
</a>
</g>
</g>
<!-- Node21 -->
<g id="Node000021" class="node">
<title>Node21</title>
<g id="a_Node000021"><a xlink:href="helper_8h.html" target="_top" xlink:title=" ">
<polygon fill="white" stroke="#666666" points="705.5,-206 592.5,-206 592.5,-176 705.5,-176 705.5,-206"/>
<text text-anchor="start" x="600.5" y="-194" font-family="Helvetica,sans-Serif" font-size="10.00">open62541pp/detail</text>
<text text-anchor="middle" x="649" y="-183" font-family="Helvetica,sans-Serif" font-size="10.00">/helper.h</text>
</a>
</g>
</g>
<!-- Node16&#45;&gt;Node21 -->
<g id="edge31_Node000016_Node000021" class="edge">
<title>Node16&#45;&gt;Node21</title>
<g id="a_edge31_Node000016_Node000021"><a xlink:title=" ">
<path fill="none" stroke="#63b8ff" d="M602.97,-241.87C609.82,-234.44 620,-223.42 629.05,-213.62"/>
<polygon fill="#63b8ff" stroke="#63b8ff" points="631.76,-215.84 635.97,-206.11 626.62,-211.09 631.76,-215.84"/>
</a>
</g>
</g>
<!-- Node22 -->
<g id="Node000022" class="node">
<title>Node22</title>
<g id="a_Node000022"><a xlink:href="comparison_8h.html" target="_top" xlink:title=" ">
<polygon fill="white" stroke="#666666" points="921,-206 787,-206 787,-176 921,-176 921,-206"/>
<text text-anchor="start" x="795" y="-194" font-family="Helvetica,sans-Serif" font-size="10.00">open62541pp/overloads</text>
<text text-anchor="middle" x="854" y="-183" font-family="Helvetica,sans-Serif" font-size="10.00">/comparison.h</text>
</a>
</g>
</g>
<!-- Node16&#45;&gt;Node22 -->
<g id="edge38_Node000016_Node000022" class="edge">
<title>Node16&#45;&gt;Node22</title>
<g id="a_edge38_Node000016_Node000022"><a xlink:title=" ">
<path fill="none" stroke="#63b8ff" d="M632.66,-241.99C671.71,-233.17 733.71,-219.17 782.17,-208.22"/>
<polygon fill="#63b8ff" stroke="#63b8ff" points="783,-211.62 791.98,-206.01 781.46,-204.8 783,-211.62"/>
</a>
</g>
</g>
<!-- Node19&#45;&gt;Node8 -->
<g id="edge30_Node000019_Node000008" class="edge">
<title>Node19&#45;&gt;Node8</title>
<g id="a_edge30_Node000019_Node000008"><a xlink:title=" ">
<path fill="none" stroke="#63b8ff" d="M1134.14,-181.05C1133.86,-166.47 1131.15,-137.54 1115,-121 1093.56,-99.04 1062.86,-86.64 1033.68,-79.67"/>
<polygon fill="#63b8ff" stroke="#63b8ff" points="1034.38,-76.24 1023.86,-77.51 1032.87,-83.08 1034.38,-76.24"/>
</a>
</g>
</g>
<!-- Node19&#45;&gt;Node14 -->
<g id="edge29_Node000019_Node000014" class="edge">
<title>Node19&#45;&gt;Node14</title>
<g id="a_edge29_Node000019_Node000014"><a xlink:title=" ">
<path fill="none" stroke="#63b8ff" d="M1114.52,-181.49C1091.99,-171.66 1054.69,-155.38 1028.81,-144.08"/>
<polygon fill="#63b8ff" stroke="#63b8ff" points="1030.07,-140.81 1019.51,-140.02 1027.27,-147.23 1030.07,-140.81"/>
</a>
</g>
</g>
<!-- Node20 -->
<g id="Node000020" class="node">
<title>Node20</title>
<g id="a_Node000020"><a xlink:title=" ">
<polygon fill="#e0e0e0" stroke="#999999" points="1105.5,-140 1040.5,-140 1040.5,-121 1105.5,-121 1105.5,-140"/>
<text text-anchor="middle" x="1073" y="-128" font-family="Helvetica,sans-Serif" font-size="10.00">stdexcept</text>
</a>
</g>
</g>
<!-- Node19&#45;&gt;Node20 -->
<g id="edge28_Node000019_Node000020" class="edge">
<title>Node19&#45;&gt;Node20</title>
<g id="a_edge28_Node000019_Node000020"><a xlink:title=" ">
<path fill="none" stroke="#63b8ff" d="M1125,-181.37C1115.63,-172.38 1100.75,-158.11 1089.3,-147.14"/>
<polygon fill="#63b8ff" stroke="#63b8ff" points="1091.68,-144.56 1082.04,-140.17 1086.83,-149.62 1091.68,-144.56"/>
</a>
</g>
</g>
<!-- Node21&#45;&gt;Node3 -->
<g id="edge34_Node000021_Node000003" class="edge">
<title>Node21&#45;&gt;Node3</title>
<g id="a_edge34_Node000021_Node000003"><a xlink:title=" ">
<path fill="none" stroke="#63b8ff" d="M646.48,-175.76C642.99,-160.16 635.18,-135.43 619,-121 586.55,-92.06 537.73,-79.87 501.79,-74.73"/>
<polygon fill="#63b8ff" stroke="#63b8ff" points="501.92,-71.22 491.56,-73.41 501.02,-78.16 501.92,-71.22"/>
</a>
</g>
</g>
<!-- Node21&#45;&gt;Node4 -->
<g id="edge35_Node000021_Node000004" class="edge">
<title>Node21&#45;&gt;Node4</title>
<g id="a_edge35_Node000021_Node000004"><a xlink:title=" ">
<path fill="none" stroke="#63b8ff" d="M592.17,-180.08C531.17,-169.42 434.71,-152.58 372.91,-141.79"/>
<polygon fill="#63b8ff" stroke="#63b8ff" points="373.38,-138.32 362.92,-140.04 372.17,-145.21 373.38,-138.32"/>
</a>
</g>
</g>
<!-- Node21&#45;&gt;Node8 -->
<g id="edge36_Node000021_Node000008" class="edge">
<title>Node21&#45;&gt;Node8</title>
<g id="a_edge36_Node000021_Node000008"><a xlink:title=" ">
<path fill="none" stroke="#63b8ff" d="M684.3,-176C743.47,-152.53 861.73,-105.62 917.94,-83.32"/>
<polygon fill="#63b8ff" stroke="#63b8ff" points="919.36,-86.52 927.37,-79.58 916.78,-80.01 919.36,-86.52"/>
</a>
</g>
</g>
<!-- Node21&#45;&gt;Node14 -->
<g id="edge33_Node000021_Node000014" class="edge">
<title>Node21&#45;&gt;Node14</title>
<g id="a_edge33_Node000021_Node000014"><a xlink:title=" ">
<path fill="none" stroke="#63b8ff" d="M705.84,-177.74C708.94,-177.13 712,-176.55 715,-176 806.23,-159.21 914.66,-143.42 967.62,-135.97"/>
<polygon fill="#63b8ff" stroke="#63b8ff" points="968.34,-139.41 977.76,-134.55 967.37,-132.47 968.34,-139.41"/>
</a>
</g>
</g>
<!-- Node21&#45;&gt;Node17 -->
<g id="edge32_Node000021_Node000017" class="edge">
<title>Node21&#45;&gt;Node17</title>
<g id="a_edge32_Node000021_Node000017"><a xlink:title=" ">
<path fill="none" stroke="#63b8ff" d="M633.27,-175.84C623.64,-167.17 611.31,-156.08 601.39,-147.15"/>
<polygon fill="#63b8ff" stroke="#63b8ff" points="603.51,-144.35 593.74,-140.27 598.83,-149.56 603.51,-144.35"/>
</a>
</g>
</g>
<!-- Node22&#45;&gt;Node8 -->
<g id="edge39_Node000022_Node000008" class="edge">
<title>Node22&#45;&gt;Node8</title>
<g id="a_edge39_Node000022_Node000008"><a xlink:title=" ">
<path fill="none" stroke="#63b8ff" d="M865.27,-175.88C882.88,-153.83 916.84,-111.29 935.64,-87.73"/>
<polygon fill="#63b8ff" stroke="#63b8ff" points="938.54,-89.71 942.05,-79.71 933.07,-85.34 938.54,-89.71"/>
</a>
</g>
</g>
<!-- Node23&#45;&gt;Node2 -->
<g id="edge43_Node000023_Node000002" class="edge">
<title>Node23&#45;&gt;Node2</title>
<g id="a_edge43_Node000023_Node000002"><a xlink:title=" ">
<path fill="none" stroke="#63b8ff" d="M423.67,-296.98C380.61,-276.1 272.03,-218.36 210,-140 197.87,-124.67 189.06,-103.99 183.8,-89.28"/>
<polygon fill="#63b8ff" stroke="#63b8ff" points="187.11,-88.14 180.59,-79.78 180.47,-90.38 187.11,-88.14"/>
</a>
</g>
</g>
<!-- Node23&#45;&gt;Node3 -->
<g id="edge45_Node000023_Node000003" class="edge">
<title>Node23&#45;&gt;Node3</title>
<g id="a_edge45_Node000023_Node000003"><a xlink:title=" ">
<path fill="none" stroke="#63b8ff" d="M442.48,-296.88C444.36,-262.98 451.26,-138.43 453.93,-90.22"/>
<polygon fill="#63b8ff" stroke="#63b8ff" points="457.44,-90.13 454.5,-79.95 450.46,-89.74 457.44,-90.13"/>
</a>
</g>
</g>
<!-- Node23&#45;&gt;Node8 -->
<g id="edge47_Node000023_Node000008" class="edge">
<title>Node23&#45;&gt;Node8</title>
<g id="a_edge47_Node000023_Node000008"><a xlink:title=" ">
<path fill="none" stroke="#63b8ff" d="M520.26,-300.42C643.8,-290.69 875.58,-264.91 930,-206 959.49,-174.07 956.45,-118.49 952.37,-89.61"/>
<polygon fill="#63b8ff" stroke="#63b8ff" points="955.81,-88.96 950.77,-79.64 948.9,-90.07 955.81,-88.96"/>
</a>
</g>
</g>
<!-- Node23&#45;&gt;Node14 -->
<g id="edge44_Node000023_Node000014" class="edge">
<title>Node23&#45;&gt;Node14</title>
<g id="a_edge44_Node000023_Node000014"><a xlink:title=" ">
<path fill="none" stroke="#63b8ff" d="M520.04,-303.66C657.06,-299.72 929.6,-288.5 963,-261 996,-233.83 1000.74,-179.42 1000.75,-150.54"/>
<polygon fill="#63b8ff" stroke="#63b8ff" points="1004.24,-150.12 1000.55,-140.19 997.24,-150.26 1004.24,-150.12"/>
</a>
</g>
</g>
<!-- Node23&#45;&gt;Node16 -->
<g id="edge46_Node000023_Node000016" class="edge">
<title>Node23&#45;&gt;Node16</title>
<g id="a_edge46_Node000023_Node000016"><a xlink:title=" ">
<path fill="none" stroke="#63b8ff" d="M466.58,-296.98C492.05,-288.16 532.04,-274.31 560.63,-264.41"/>
<polygon fill="#63b8ff" stroke="#63b8ff" points="561.92,-267.66 570.23,-261.08 559.63,-261.05 561.92,-267.66"/>
</a>
</g>
</g>
<!-- Node24 -->
<g id="Node000024" class="node">
<title>Node24</title>
<g id="a_Node000024"><a xlink:title=" ">
<polygon fill="#e0e0e0" stroke="#999999" points="422,-261 380,-261 380,-242 422,-242 422,-261"/>
<text text-anchor="middle" x="401" y="-249" font-family="Helvetica,sans-Serif" font-size="10.00">array</text>
</a>
</g>
</g>
<!-- Node23&#45;&gt;Node24 -->
<g id="edge42_Node000023_Node000024" class="edge">
<title>Node23&#45;&gt;Node24</title>
<g id="a_edge42_Node000023_Node000024"><a xlink:title=" ">
<path fill="none" stroke="#63b8ff" d="M435.23,-296.75C429.44,-289.26 420.94,-278.28 413.86,-269.13"/>
<polygon fill="#63b8ff" stroke="#63b8ff" points="416.53,-266.86 407.64,-261.09 410.99,-271.14 416.53,-266.86"/>
</a>
</g>
</g>
</g>
</svg>
