<?xml version="1.0" encoding="UTF-8" standalone="no"?>
<!DOCTYPE svg PUBLIC "-//W3C//DTD SVG 1.1//EN"
 "http://www.w3.org/Graphics/SVG/1.1/DTD/svg11.dtd">
<!-- Generated by graphviz version 2.43.0 (0)
 -->
<!-- Title: /home/runner/work/open62541pp/open62541pp/include/open62541pp/types/NodeId.h Pages: 1 -->
<svg width="1355pt" height="362pt"
 viewBox="0.00 0.00 1355.22 362.00" xmlns="http://www.w3.org/2000/svg" xmlns:xlink="http://www.w3.org/1999/xlink">
<g id="graph0" class="graph" transform="scale(1 1) rotate(0) translate(4 358)">
<title>/home/runner/work/open62541pp/open62541pp/include/open62541pp/types/NodeId.h</title>
<!-- Node1 -->
<g id="node1" class="node">
<title>Node1</title>
<g id="a_node1"><a xlink:title=" ">
<polygon fill="#bfbfbf" stroke="black" points="419.22,-312.5 419.22,-353.5 612.22,-353.5 612.22,-312.5 419.22,-312.5"/>
<text text-anchor="start" x="427.22" y="-341.5" font-family="Helvetica,sans-Serif" font-size="10.00">/home/runner/work/open62541pp</text>
<text text-anchor="start" x="427.22" y="-330.5" font-family="Helvetica,sans-Serif" font-size="10.00">/open62541pp/include/open62541pp</text>
<text text-anchor="middle" x="515.72" y="-319.5" font-family="Helvetica,sans-Serif" font-size="10.00">/types/NodeId.h</text>
</a>
</g>
</g>
<!-- Node2 -->
<g id="node2" class="node">
<title>Node2</title>
<g id="a_node2"><a xlink:href="Node_8h.html" target="_top" xlink:title=" ">
<polygon fill="none" stroke="black" points="346.72,-78.5 346.72,-119.5 542.72,-119.5 542.72,-78.5 346.72,-78.5"/>
<text text-anchor="start" x="354.72" y="-107.5" font-family="Helvetica,sans-Serif" font-size="10.00">/home/runner/work/open62541pp</text>
<text text-anchor="start" x="354.72" y="-96.5" font-family="Helvetica,sans-Serif" font-size="10.00">/open62541pp/include/open62541pp/</text>
<text text-anchor="middle" x="444.72" y="-85.5" font-family="Helvetica,sans-Serif" font-size="10.00">Node.h</text>
</a>
</g>
</g>
<!-- Node1&#45;&gt;Node2 -->
<g id="edge1" class="edge">
<title>Node1&#45;&gt;Node2</title>
<path fill="none" stroke="midnightblue" d="M409.01,-325.72C302.57,-318.07 147.4,-302.72 93.72,-276 50.11,-254.29 35.22,-243.06 16.72,-198 9.63,-180.73 4.41,-170.03 16.72,-156 38.16,-131.57 227.13,-114.53 346.7,-106.09"/>
<polygon fill="midnightblue" stroke="midnightblue" points="408.93,-329.23 419.16,-326.44 409.43,-322.24 408.93,-329.23"/>
</g>
<!-- Node3 -->
<g id="node3" class="node">
<title>Node3</title>
<g id="a_node3"><a xlink:href="open62541pp_8h.html" target="_top" xlink:title=" ">
<polygon fill="none" stroke="black" points="285.22,-0.5 285.22,-41.5 478.22,-41.5 478.22,-0.5 285.22,-0.5"/>
<text text-anchor="start" x="293.22" y="-29.5" font-family="Helvetica,sans-Serif" font-size="10.00">/home/runner/work/open62541pp</text>
<text text-anchor="start" x="293.22" y="-18.5" font-family="Helvetica,sans-Serif" font-size="10.00">/open62541pp/include/open62541pp</text>
<text text-anchor="middle" x="381.72" y="-7.5" font-family="Helvetica,sans-Serif" font-size="10.00">/open62541pp.h</text>
</a>
</g>
</g>
<!-- Node1&#45;&gt;Node3 -->
<g id="edge4" class="edge">
<title>Node1&#45;&gt;Node3</title>
<path fill="none" stroke="midnightblue" d="M408.76,-332.51C284.36,-330.93 88.82,-321.04 32.72,-276 4.11,-253.03 11.8,-234.18 5.72,-198 2.62,-179.59 -5.04,-171.25 5.72,-156 68.52,-66.94 196.04,-36.74 285.07,-26.68"/>
<polygon fill="midnightblue" stroke="midnightblue" points="409.05,-336.01 419.08,-332.62 409.12,-329.01 409.05,-336.01"/>
</g>
<!-- Node5 -->
<g id="node5" class="node">
<title>Node5</title>
<g id="a_node5"><a xlink:href="Server_8h.html" target="_top" xlink:title=" ">
<polygon fill="none" stroke="black" points="525.22,-234.5 525.22,-275.5 718.22,-275.5 718.22,-234.5 525.22,-234.5"/>
<text text-anchor="start" x="533.22" y="-263.5" font-family="Helvetica,sans-Serif" font-size="10.00">/home/runner/work/open62541pp</text>
<text text-anchor="start" x="533.22" y="-252.5" font-family="Helvetica,sans-Serif" font-size="10.00">/open62541pp/include/open62541pp</text>
<text text-anchor="middle" x="621.72" y="-241.5" font-family="Helvetica,sans-Serif" font-size="10.00">/Server.h</text>
</a>
</g>
</g>
<!-- Node1&#45;&gt;Node5 -->
<g id="edge5" class="edge">
<title>Node1&#45;&gt;Node5</title>
<path fill="none" stroke="midnightblue" d="M551.49,-306.35C565.55,-296.27 581.42,-284.89 594.51,-275.51"/>
<polygon fill="midnightblue" stroke="midnightblue" points="549.11,-303.76 543.02,-312.43 553.18,-309.45 549.11,-303.76"/>
</g>
<!-- Node9 -->
<g id="node9" class="node">
<title>Node9</title>
<g id="a_node9"><a xlink:href="Attribute_8h.html" target="_top" xlink:title=" ">
<polygon fill="none" stroke="black" points="736.22,-234.5 736.22,-275.5 929.22,-275.5 929.22,-234.5 736.22,-234.5"/>
<text text-anchor="start" x="744.22" y="-263.5" font-family="Helvetica,sans-Serif" font-size="10.00">/home/runner/work/open62541pp</text>
<text text-anchor="start" x="744.22" y="-252.5" font-family="Helvetica,sans-Serif" font-size="10.00">/open62541pp/include/open62541pp</text>
<text text-anchor="middle" x="832.72" y="-241.5" font-family="Helvetica,sans-Serif" font-size="10.00">/services/Attribute.h</text>
</a>
</g>
</g>
<!-- Node1&#45;&gt;Node9 -->
<g id="edge12" class="edge">
<title>Node1&#45;&gt;Node9</title>
<path fill="none" stroke="midnightblue" d="M607.22,-310.06C652.75,-299.15 707.31,-286.07 751.36,-275.51"/>
<polygon fill="midnightblue" stroke="midnightblue" points="606.26,-306.69 597.36,-312.43 607.9,-313.5 606.26,-306.69"/>
</g>
<!-- Node11 -->
<g id="node11" class="node">
<title>Node11</title>
<g id="a_node11"><a xlink:href="Browse_8h.html" target="_top" xlink:title=" ">
<polygon fill="none" stroke="black" points="103.22,-234.5 103.22,-275.5 296.22,-275.5 296.22,-234.5 103.22,-234.5"/>
<text text-anchor="start" x="111.22" y="-263.5" font-family="Helvetica,sans-Serif" font-size="10.00">/home/runner/work/open62541pp</text>
<text text-anchor="start" x="111.22" y="-252.5" font-family="Helvetica,sans-Serif" font-size="10.00">/open62541pp/include/open62541pp</text>
<text text-anchor="middle" x="199.72" y="-241.5" font-family="Helvetica,sans-Serif" font-size="10.00">/services/Browse.h</text>
</a>
</g>
</g>
<!-- Node1&#45;&gt;Node11 -->
<g id="edge18" class="edge">
<title>Node1&#45;&gt;Node11</title>
<path fill="none" stroke="midnightblue" d="M424.51,-310.06C379.12,-299.15 324.73,-286.07 280.82,-275.51"/>
<polygon fill="midnightblue" stroke="midnightblue" points="423.8,-313.49 434.34,-312.43 425.44,-306.69 423.8,-313.49"/>
</g>
<!-- Node12 -->
<g id="node12" class="node">
<title>Node12</title>
<g id="a_node12"><a xlink:href="NodeManagement_8h.html" target="_top" xlink:title=" ">
<polygon fill="none" stroke="black" points="314.22,-234.5 314.22,-275.5 507.22,-275.5 507.22,-234.5 314.22,-234.5"/>
<text text-anchor="start" x="322.22" y="-263.5" font-family="Helvetica,sans-Serif" font-size="10.00">/home/runner/work/open62541pp</text>
<text text-anchor="start" x="322.22" y="-252.5" font-family="Helvetica,sans-Serif" font-size="10.00">/open62541pp/include/open62541pp</text>
<text text-anchor="middle" x="410.72" y="-241.5" font-family="Helvetica,sans-Serif" font-size="10.00">/services/NodeManagement.h</text>
</a>
</g>
</g>
<!-- Node1&#45;&gt;Node12 -->
<g id="edge21" class="edge">
<title>Node1&#45;&gt;Node12</title>
<path fill="none" stroke="midnightblue" d="M480.28,-306.35C466.36,-296.27 450.64,-284.89 437.67,-275.51"/>
<polygon fill="midnightblue" stroke="midnightblue" points="478.53,-309.4 488.68,-312.43 482.63,-303.73 478.53,-309.4"/>
</g>
<!-- Node13 -->
<g id="node13" class="node">
<title>Node13</title>
<g id="a_node13"><a xlink:href="NodeId_8cpp.html" target="_top" xlink:title=" ">
<polygon fill="none" stroke="black" points="947.22,-240 947.22,-270 1138.22,-270 1138.22,-240 947.22,-240"/>
<text text-anchor="start" x="955.22" y="-258" font-family="Helvetica,sans-Serif" font-size="10.00">/home/runner/work/open62541pp</text>
<text text-anchor="middle" x="1042.72" y="-247" font-family="Helvetica,sans-Serif" font-size="10.00">/open62541pp/src/types/NodeId.cpp</text>
</a>
</g>
</g>
<!-- Node1&#45;&gt;Node13 -->
<g id="edge24" class="edge">
<title>Node1&#45;&gt;Node13</title>
<path fill="none" stroke="midnightblue" d="M622.55,-319.61C708.23,-309.25 831.46,-293.4 938.72,-276 949.79,-274.2 961.49,-272.13 972.89,-270.01"/>
<polygon fill="midnightblue" stroke="midnightblue" points="622.07,-316.14 612.56,-320.81 622.9,-323.09 622.07,-316.14"/>
</g>
<!-- Node14 -->
<g id="node14" class="node">
<title>Node14</title>
<g id="a_node14"><a xlink:href="Variant_8cpp.html" target="_top" xlink:title=" ">
<polygon fill="none" stroke="black" points="1156.22,-240 1156.22,-270 1347.22,-270 1347.22,-240 1156.22,-240"/>
<text text-anchor="start" x="1164.22" y="-258" font-family="Helvetica,sans-Serif" font-size="10.00">/home/runner/work/open62541pp</text>
<text text-anchor="middle" x="1251.72" y="-247" font-family="Helvetica,sans-Serif" font-size="10.00">/open62541pp/src/types/Variant.cpp</text>
</a>
</g>
</g>
<!-- Node1&#45;&gt;Node14 -->
<g id="edge25" class="edge">
<title>Node1&#45;&gt;Node14</title>
<path fill="none" stroke="midnightblue" d="M622.46,-325.86C748.42,-317.85 963.98,-301.74 1147.72,-276 1159.56,-274.34 1172.09,-272.24 1184.19,-270.02"/>
<polygon fill="midnightblue" stroke="midnightblue" points="622.19,-322.37 612.43,-326.49 622.63,-329.36 622.19,-322.37"/>
</g>
<!-- Node2&#45;&gt;Node3 -->
<g id="edge2" class="edge">
<title>Node2&#45;&gt;Node3</title>
<path fill="none" stroke="midnightblue" d="M422.03,-70.63C414.04,-60.99 405.23,-50.36 397.89,-41.51"/>
<polygon fill="midnightblue" stroke="midnightblue" points="419.42,-72.96 428.5,-78.43 424.81,-68.5 419.42,-72.96"/>
</g>
<!-- Node4 -->
<g id="node4" class="node">
<title>Node4</title>
<g id="a_node4"><a xlink:href="Server_8cpp.html" target="_top" xlink:title=" ">
<polygon fill="none" stroke="black" points="626.72,-6 626.72,-36 804.72,-36 804.72,-6 626.72,-6"/>
<text text-anchor="start" x="634.72" y="-24" font-family="Helvetica,sans-Serif" font-size="10.00">/home/runner/work/open62541pp</text>
<text text-anchor="middle" x="715.72" y="-13" font-family="Helvetica,sans-Serif" font-size="10.00">/open62541pp/src/Server.cpp</text>
</a>
</g>
</g>
<!-- Node2&#45;&gt;Node4 -->
<g id="edge3" class="edge">
<title>Node2&#45;&gt;Node4</title>
<path fill="none" stroke="midnightblue" d="M524.38,-75.66C570,-62.87 625.86,-47.2 665.42,-36.11"/>
<polygon fill="midnightblue" stroke="midnightblue" points="523.19,-72.36 514.51,-78.43 525.08,-79.1 523.19,-72.36"/>
</g>
<!-- Node5&#45;&gt;Node2 -->
<g id="edge6" class="edge">
<title>Node5&#45;&gt;Node2</title>
<path fill="none" stroke="midnightblue" d="M629.92,-224.19C633.83,-203.12 634.99,-175.31 620.72,-156 602.33,-131.12 572.79,-117.03 543.13,-109.15"/>
<polygon fill="midnightblue" stroke="midnightblue" points="626.44,-223.7 627.76,-234.21 633.28,-225.17 626.44,-223.7"/>
</g>
<!-- Node5&#45;&gt;Node3 -->
<g id="edge7" class="edge">
<title>Node5&#45;&gt;Node3</title>
<path fill="none" stroke="midnightblue" d="M635.71,-225.14C643.41,-205.02 649.6,-177.96 639.72,-156 611.3,-92.83 539.19,-58.87 478.41,-40.97"/>
<polygon fill="midnightblue" stroke="midnightblue" points="632.46,-223.82 631.87,-234.4 638.93,-226.5 632.46,-223.82"/>
</g>
<!-- Node5&#45;&gt;Node4 -->
<g id="edge8" class="edge">
<title>Node5&#45;&gt;Node4</title>
<path fill="none" stroke="midnightblue" d="M664.28,-228.37C674.85,-219.99 685.05,-209.76 691.72,-198 721.99,-144.62 719.7,-67.88 717.18,-36.35"/>
<polygon fill="midnightblue" stroke="midnightblue" points="662.1,-225.62 656.18,-234.41 666.29,-231.24 662.1,-225.62"/>
</g>
<!-- Node6 -->
<g id="node6" class="node">
<title>Node6</title>
<g id="a_node6"><a xlink:href="Attribute_8cpp.html" target="_top" xlink:title=" ">
<polygon fill="none" stroke="black" points="743.72,-156.5 743.72,-197.5 921.72,-197.5 921.72,-156.5 743.72,-156.5"/>
<text text-anchor="start" x="751.72" y="-185.5" font-family="Helvetica,sans-Serif" font-size="10.00">/home/runner/work/open62541pp</text>
<text text-anchor="start" x="751.72" y="-174.5" font-family="Helvetica,sans-Serif" font-size="10.00">/open62541pp/src/services</text>
<text text-anchor="middle" x="832.72" y="-163.5" font-family="Helvetica,sans-Serif" font-size="10.00">/Attribute.cpp</text>
</a>
</g>
</g>
<!-- Node5&#45;&gt;Node6 -->
<g id="edge9" class="edge">
<title>Node5&#45;&gt;Node6</title>
<path fill="none" stroke="midnightblue" d="M685.5,-231.03C715.21,-220.33 750.17,-207.73 778.57,-197.51"/>
<polygon fill="midnightblue" stroke="midnightblue" points="684.28,-227.75 676.06,-234.43 686.65,-234.33 684.28,-227.75"/>
</g>
<!-- Node7 -->
<g id="node7" class="node">
<title>Node7</title>
<g id="a_node7"><a xlink:href="Browse_8cpp.html" target="_top" xlink:title=" ">
<polygon fill="none" stroke="black" points="25.72,-156.5 25.72,-197.5 203.72,-197.5 203.72,-156.5 25.72,-156.5"/>
<text text-anchor="start" x="33.72" y="-185.5" font-family="Helvetica,sans-Serif" font-size="10.00">/home/runner/work/open62541pp</text>
<text text-anchor="start" x="33.72" y="-174.5" font-family="Helvetica,sans-Serif" font-size="10.00">/open62541pp/src/services</text>
<text text-anchor="middle" x="114.72" y="-163.5" font-family="Helvetica,sans-Serif" font-size="10.00">/Browse.cpp</text>
</a>
</g>
</g>
<!-- Node5&#45;&gt;Node7 -->
<g id="edge10" class="edge">
<title>Node5&#45;&gt;Node7</title>
<path fill="none" stroke="midnightblue" d="M514.8,-233.76C380.48,-213.55 343.77,-219.09 212.72,-198 209.81,-197.53 206.85,-197.04 203.86,-196.52"/>
<polygon fill="midnightblue" stroke="midnightblue" points="514.66,-237.28 525.07,-235.33 515.72,-230.36 514.66,-237.28"/>
</g>
<!-- Node8 -->
<g id="node8" class="node">
<title>Node8</title>
<g id="a_node8"><a xlink:href="NodeManagement_8cpp.html" target="_top" xlink:title=" ">
<polygon fill="none" stroke="black" points="433.72,-156.5 433.72,-197.5 611.72,-197.5 611.72,-156.5 433.72,-156.5"/>
<text text-anchor="start" x="441.72" y="-185.5" font-family="Helvetica,sans-Serif" font-size="10.00">/home/runner/work/open62541pp</text>
<text text-anchor="start" x="441.72" y="-174.5" font-family="Helvetica,sans-Serif" font-size="10.00">/open62541pp/src/services</text>
<text text-anchor="middle" x="522.72" y="-163.5" font-family="Helvetica,sans-Serif" font-size="10.00">/NodeManagement.cpp</text>
</a>
</g>
</g>
<!-- Node5&#45;&gt;Node8 -->
<g id="edge11" class="edge">
<title>Node5&#45;&gt;Node8</title>
<path fill="none" stroke="midnightblue" d="M587.94,-228.06C574.9,-218.06 560.24,-206.8 548.13,-197.51"/>
<polygon fill="midnightblue" stroke="midnightblue" points="586.16,-231.11 596.23,-234.43 590.42,-225.56 586.16,-231.11"/>
</g>
<!-- Node9&#45;&gt;Node4 -->
<g id="edge16" class="edge">
<title>Node9&#45;&gt;Node4</title>
<path fill="none" stroke="midnightblue" d="M898.46,-229.22C911.33,-221.26 923.17,-211.01 930.72,-198 940.09,-181.86 939.78,-172.32 930.72,-156 895.07,-91.78 814.44,-54.32 762.68,-36.04"/>
<polygon fill="midnightblue" stroke="midnightblue" points="896.37,-226.39 889.42,-234.38 899.84,-232.47 896.37,-226.39"/>
</g>
<!-- Node9&#45;&gt;Node6 -->
<g id="edge17" class="edge">
<title>Node9&#45;&gt;Node6</title>
<path fill="none" stroke="midnightblue" d="M832.72,-224.3C832.72,-215.3 832.72,-205.65 832.72,-197.51"/>
<polygon fill="midnightblue" stroke="midnightblue" points="829.22,-224.43 832.72,-234.43 836.22,-224.43 829.22,-224.43"/>
</g>
<!-- Node10 -->
<g id="node10" class="node">
<title>Node10</title>
<g id="a_node10"><a xlink:href="services_8h.html" target="_top" xlink:title=" ">
<polygon fill="none" stroke="black" points="222.22,-156.5 222.22,-197.5 415.22,-197.5 415.22,-156.5 222.22,-156.5"/>
<text text-anchor="start" x="230.22" y="-185.5" font-family="Helvetica,sans-Serif" font-size="10.00">/home/runner/work/open62541pp</text>
<text text-anchor="start" x="230.22" y="-174.5" font-family="Helvetica,sans-Serif" font-size="10.00">/open62541pp/include/open62541pp</text>
<text text-anchor="middle" x="318.72" y="-163.5" font-family="Helvetica,sans-Serif" font-size="10.00">/services/services.h</text>
</a>
</g>
</g>
<!-- Node9&#45;&gt;Node10 -->
<g id="edge13" class="edge">
<title>Node9&#45;&gt;Node10</title>
<path fill="none" stroke="midnightblue" d="M725.83,-233.76C591.93,-213.54 555.49,-218.08 424.72,-198 421.67,-197.53 418.56,-197.04 415.44,-196.53"/>
<polygon fill="midnightblue" stroke="midnightblue" points="725.66,-237.28 736.07,-235.33 726.72,-230.36 725.66,-237.28"/>
</g>
<!-- Node10&#45;&gt;Node2 -->
<g id="edge14" class="edge">
<title>Node10&#45;&gt;Node2</title>
<path fill="none" stroke="midnightblue" d="M359.83,-151.2C376.88,-140.92 396.38,-129.16 412.38,-119.51"/>
<polygon fill="midnightblue" stroke="midnightblue" points="357.92,-148.27 351.17,-156.43 361.54,-154.26 357.92,-148.27"/>
</g>
<!-- Node10&#45;&gt;Node3 -->
<g id="edge15" class="edge">
<title>Node10&#45;&gt;Node3</title>
<path fill="none" stroke="midnightblue" d="M320.81,-146.3C323.08,-126.27 327.83,-99.64 337.72,-78 343.79,-64.73 353.61,-51.8 362.43,-41.71"/>
<polygon fill="midnightblue" stroke="midnightblue" points="317.31,-146.1 319.8,-156.39 324.27,-146.79 317.31,-146.1"/>
</g>
<!-- Node11&#45;&gt;Node7 -->
<g id="edge20" class="edge">
<title>Node11&#45;&gt;Node7</title>
<path fill="none" stroke="midnightblue" d="M170.07,-227.49C159.04,-217.63 146.74,-206.63 136.54,-197.51"/>
<polygon fill="midnightblue" stroke="midnightblue" points="168.04,-230.37 177.83,-234.43 172.71,-225.15 168.04,-230.37"/>
</g>
<!-- Node11&#45;&gt;Node10 -->
<g id="edge19" class="edge">
<title>Node11&#45;&gt;Node10</title>
<path fill="none" stroke="midnightblue" d="M238.99,-228.92C254.99,-218.7 273.2,-207.07 288.18,-197.51"/>
<polygon fill="midnightblue" stroke="midnightblue" points="236.91,-226.1 230.37,-234.43 240.68,-232 236.91,-226.1"/>
</g>
<!-- Node12&#45;&gt;Node8 -->
<g id="edge23" class="edge">
<title>Node12&#45;&gt;Node8</title>
<path fill="none" stroke="midnightblue" d="M448.1,-228.64C463.06,-218.49 480.01,-206.98 493.98,-197.51"/>
<polygon fill="midnightblue" stroke="midnightblue" points="445.87,-225.92 439.56,-234.43 449.8,-231.71 445.87,-225.92"/>
</g>
<!-- Node12&#45;&gt;Node10 -->
<g id="edge22" class="edge">
<title>Node12&#45;&gt;Node10</title>
<path fill="none" stroke="midnightblue" d="M378.98,-227.78C366.95,-217.84 353.48,-206.72 342.33,-197.51"/>
<polygon fill="midnightblue" stroke="midnightblue" points="377.09,-230.76 387.03,-234.43 381.55,-225.36 377.09,-230.76"/>
</g>
</g>
</svg>
