<?xml version="1.0" encoding="UTF-8" standalone="no"?>
<!DOCTYPE svg PUBLIC "-//W3C//DTD SVG 1.1//EN"
 "http://www.w3.org/Graphics/SVG/1.1/DTD/svg11.dtd">
<!-- Generated by graphviz version 2.43.0 (0)
 -->
<!-- Title: /home/runner/work/open62541pp/open62541pp/include/open62541pp/open62541pp.h Pages: 1 -->
<svg width="1168pt" height="397pt"
 viewBox="0.00 0.00 1168.19 397.00" xmlns="http://www.w3.org/2000/svg" xmlns:xlink="http://www.w3.org/1999/xlink">
<g id="graph0" class="graph" transform="scale(1 1) rotate(0) translate(4 393)">
<title>/home/runner/work/open62541pp/open62541pp/include/open62541pp/open62541pp.h</title>
<!-- Node1 -->
<g id="node1" class="node">
<title>Node1</title>
<g id="a_node1"><a xlink:title=" ">
<polygon fill="#bfbfbf" stroke="black" points="573,-347.5 573,-388.5 766,-388.5 766,-347.5 573,-347.5"/>
<text text-anchor="start" x="581" y="-376.5" font-family="Helvetica,sans-Serif" font-size="10.00">/home/runner/work/open62541pp</text>
<text text-anchor="start" x="581" y="-365.5" font-family="Helvetica,sans-Serif" font-size="10.00">/open62541pp/include/open62541pp</text>
<text text-anchor="middle" x="669.5" y="-354.5" font-family="Helvetica,sans-Serif" font-size="10.00">/open62541pp.h</text>
</a>
</g>
</g>
<!-- Node2 -->
<g id="node2" class="node">
<title>Node2</title>
<g id="a_node2"><a xlink:href="ErrorHandling_8h.html" target="_top" xlink:title=" ">
<polygon fill="none" stroke="black" points="590,-123.5 590,-142.5 751,-142.5 751,-123.5 590,-123.5"/>
<text text-anchor="middle" x="670.5" y="-130.5" font-family="Helvetica,sans-Serif" font-size="10.00">open62541pp/ErrorHandling.h</text>
</a>
</g>
</g>
<!-- Node1&#45;&gt;Node2 -->
<g id="edge1" class="edge">
<title>Node1&#45;&gt;Node2</title>
<path fill="none" stroke="midnightblue" d="M669.59,-347.13C669.78,-302.78 670.23,-196.18 670.42,-152.82"/>
<polygon fill="midnightblue" stroke="midnightblue" points="673.92,-152.6 670.46,-142.59 666.92,-152.57 673.92,-152.6"/>
</g>
<!-- Node9 -->
<g id="node9" class="node">
<title>Node9</title>
<g id="a_node9"><a xlink:href="Helper_8h.html" target="_top" xlink:title=" ">
<polygon fill="none" stroke="black" points="445.5,-123.5 445.5,-142.5 571.5,-142.5 571.5,-123.5 445.5,-123.5"/>
<text text-anchor="middle" x="508.5" y="-130.5" font-family="Helvetica,sans-Serif" font-size="10.00">open62541pp/Helper.h</text>
</a>
</g>
</g>
<!-- Node1&#45;&gt;Node9 -->
<g id="edge8" class="edge">
<title>Node1&#45;&gt;Node9</title>
<path fill="none" stroke="midnightblue" d="M572.79,-352.13C549.48,-343.84 527.12,-330.96 512.5,-311 477.6,-263.33 492.85,-187.47 502.62,-152.62"/>
<polygon fill="midnightblue" stroke="midnightblue" points="506.03,-153.42 505.53,-142.83 499.32,-151.42 506.03,-153.42"/>
</g>
<!-- Node12 -->
<g id="node12" class="node">
<title>Node12</title>
<g id="a_node12"><a xlink:href="Logger_8h.html" target="_top" xlink:title=" ">
<polygon fill="none" stroke="black" points="0,-179.5 0,-198.5 127,-198.5 127,-179.5 0,-179.5"/>
<text text-anchor="middle" x="63.5" y="-186.5" font-family="Helvetica,sans-Serif" font-size="10.00">open62541pp/Logger.h</text>
</a>
</g>
</g>
<!-- Node1&#45;&gt;Node12 -->
<g id="edge13" class="edge">
<title>Node1&#45;&gt;Node12</title>
<path fill="none" stroke="midnightblue" d="M572.88,-354.33C512.31,-345.15 433.02,-330.84 364.5,-311 260.06,-280.75 141.96,-227.31 90.2,-202.86"/>
<polygon fill="midnightblue" stroke="midnightblue" points="91.57,-199.64 81.04,-198.51 88.57,-205.96 91.57,-199.64"/>
</g>
<!-- Node14 -->
<g id="node14" class="node">
<title>Node14</title>
<g id="a_node14"><a xlink:href="Node_8h.html" target="_top" xlink:title=" ">
<polygon fill="none" stroke="black" points="521.5,-291.5 521.5,-310.5 641.5,-310.5 641.5,-291.5 521.5,-291.5"/>
<text text-anchor="middle" x="581.5" y="-298.5" font-family="Helvetica,sans-Serif" font-size="10.00">open62541pp/Node.h</text>
</a>
</g>
</g>
<!-- Node1&#45;&gt;Node14 -->
<g id="edge16" class="edge">
<title>Node1&#45;&gt;Node14</title>
<path fill="none" stroke="midnightblue" d="M643.1,-347.5C629.73,-337.63 613.78,-325.84 601.46,-316.74"/>
<polygon fill="midnightblue" stroke="midnightblue" points="603.34,-313.78 593.21,-310.65 599.18,-319.41 603.34,-313.78"/>
</g>
<!-- Node16 -->
<g id="node16" class="node">
<title>Node16</title>
<g id="a_node16"><a xlink:href="NodeId_8h.html" target="_top" xlink:title=" ">
<polygon fill="none" stroke="black" points="698,-235.5 698,-254.5 827,-254.5 827,-235.5 698,-235.5"/>
<text text-anchor="middle" x="762.5" y="-242.5" font-family="Helvetica,sans-Serif" font-size="10.00">open62541pp/NodeId.h</text>
</a>
</g>
</g>
<!-- Node1&#45;&gt;Node16 -->
<g id="edge50" class="edge">
<title>Node1&#45;&gt;Node16</title>
<path fill="none" stroke="midnightblue" d="M684.65,-347.29C702.74,-323.75 732.69,-284.78 749.69,-262.67"/>
<polygon fill="midnightblue" stroke="midnightblue" points="752.59,-264.64 755.91,-254.57 747.04,-260.37 752.59,-264.64"/>
</g>
<!-- Node18 -->
<g id="node18" class="node">
<title>Node18</title>
<g id="a_node18"><a xlink:href="TypeWrapper_8h.html" target="_top" xlink:title=" ">
<polygon fill="none" stroke="black" points="844,-179.5 844,-198.5 933,-198.5 933,-179.5 844,-179.5"/>
<text text-anchor="middle" x="888.5" y="-186.5" font-family="Helvetica,sans-Serif" font-size="10.00">TypeWrapper.h</text>
</a>
</g>
</g>
<!-- Node1&#45;&gt;Node18 -->
<g id="edge52" class="edge">
<title>Node1&#45;&gt;Node18</title>
<path fill="none" stroke="midnightblue" d="M705.33,-347.32C740.77,-326.89 795.51,-292.68 836.5,-255 852.23,-240.54 867.14,-221.09 876.93,-207.25"/>
<polygon fill="midnightblue" stroke="midnightblue" points="880.03,-208.91 882.83,-198.69 874.27,-204.94 880.03,-208.91"/>
</g>
<!-- Node22 -->
<g id="node22" class="node">
<title>Node22</title>
<g id="a_node22"><a xlink:href="Types_8h.html" target="_top" xlink:title=" ">
<polygon fill="none" stroke="black" points="1025.5,-123.5 1025.5,-142.5 1147.5,-142.5 1147.5,-123.5 1025.5,-123.5"/>
<text text-anchor="middle" x="1086.5" y="-130.5" font-family="Helvetica,sans-Serif" font-size="10.00">open62541pp/Types.h</text>
</a>
</g>
</g>
<!-- Node1&#45;&gt;Node22 -->
<g id="edge53" class="edge">
<title>Node1&#45;&gt;Node22</title>
<path fill="none" stroke="midnightblue" d="M766.12,-361.93C849.84,-352.55 969.05,-326.51 1044.5,-255 1073.32,-227.68 1082.37,-179.6 1085.21,-153.01"/>
<polygon fill="midnightblue" stroke="midnightblue" points="1088.72,-153.03 1086.1,-142.76 1081.75,-152.42 1088.72,-153.03"/>
</g>
<!-- Node23 -->
<g id="node23" class="node">
<title>Node23</title>
<g id="a_node23"><a xlink:href="Server_8h.html" target="_top" xlink:title=" ">
<polygon fill="none" stroke="black" points="256,-235.5 256,-254.5 381,-254.5 381,-235.5 256,-235.5"/>
<text text-anchor="middle" x="318.5" y="-242.5" font-family="Helvetica,sans-Serif" font-size="10.00">open62541pp/Server.h</text>
</a>
</g>
</g>
<!-- Node1&#45;&gt;Node23 -->
<g id="edge51" class="edge">
<title>Node1&#45;&gt;Node23</title>
<path fill="none" stroke="midnightblue" d="M572.91,-358.15C519.8,-350.57 453.85,-336.61 399.5,-311 373.67,-298.83 348.79,-276.83 333.58,-261.83"/>
<polygon fill="midnightblue" stroke="midnightblue" points="336.07,-259.37 326.55,-254.72 331.09,-264.29 336.07,-259.37"/>
</g>
<!-- Node26 -->
<g id="node26" class="node">
<title>Node26</title>
<g id="a_node26"><a xlink:href="Variant_8h.html" target="_top" xlink:title=" ">
<polygon fill="none" stroke="black" points="884,-235.5 884,-254.5 1013,-254.5 1013,-235.5 884,-235.5"/>
<text text-anchor="middle" x="948.5" y="-242.5" font-family="Helvetica,sans-Serif" font-size="10.00">open62541pp/Variant.h</text>
</a>
</g>
</g>
<!-- Node1&#45;&gt;Node26 -->
<g id="edge54" class="edge">
<title>Node1&#45;&gt;Node26</title>
<path fill="none" stroke="midnightblue" d="M766.17,-348.53C800.02,-339.87 837.53,-327.67 869.5,-311 893.95,-298.25 917.8,-277.06 932.78,-262.35"/>
<polygon fill="midnightblue" stroke="midnightblue" points="935.58,-264.51 940.14,-254.95 930.61,-259.57 935.58,-264.51"/>
</g>
<!-- Node3 -->
<g id="node3" class="node">
<title>Node3</title>
<g id="a_node3"><a xlink:title=" ">
<polygon fill="none" stroke="#bfbfbf" points="630,-67.5 630,-86.5 695,-86.5 695,-67.5 630,-67.5"/>
<text text-anchor="middle" x="662.5" y="-74.5" font-family="Helvetica,sans-Serif" font-size="10.00">stdexcept</text>
</a>
</g>
</g>
<!-- Node2&#45;&gt;Node3 -->
<g id="edge2" class="edge">
<title>Node2&#45;&gt;Node3</title>
<path fill="none" stroke="midnightblue" d="M669.18,-123.08C668.12,-115.93 666.59,-105.64 665.27,-96.69"/>
<polygon fill="midnightblue" stroke="midnightblue" points="668.72,-96.13 663.8,-86.75 661.8,-97.16 668.72,-96.13"/>
</g>
<!-- Node4 -->
<g id="node4" class="node">
<title>Node4</title>
<g id="a_node4"><a xlink:title=" ">
<polygon fill="none" stroke="#bfbfbf" points="408.5,-67.5 408.5,-86.5 452.5,-86.5 452.5,-67.5 408.5,-67.5"/>
<text text-anchor="middle" x="430.5" y="-74.5" font-family="Helvetica,sans-Serif" font-size="10.00">string</text>
</a>
</g>
</g>
<!-- Node2&#45;&gt;Node4 -->
<g id="edge3" class="edge">
<title>Node2&#45;&gt;Node4</title>
<path fill="none" stroke="midnightblue" d="M632.47,-123.44C585.48,-112.87 506.38,-95.07 462.4,-85.18"/>
<polygon fill="midnightblue" stroke="midnightblue" points="463.07,-81.74 452.54,-82.96 461.53,-88.57 463.07,-81.74"/>
</g>
<!-- Node5 -->
<g id="node5" class="node">
<title>Node5</title>
<g id="a_node5"><a xlink:href="open62541_8h.html" target="_top" xlink:title=" ">
<polygon fill="none" stroke="black" points="713,-67.5 713,-86.5 862,-86.5 862,-67.5 713,-67.5"/>
<text text-anchor="middle" x="787.5" y="-74.5" font-family="Helvetica,sans-Serif" font-size="10.00">open62541pp/open62541.h</text>
</a>
</g>
</g>
<!-- Node2&#45;&gt;Node5 -->
<g id="edge4" class="edge">
<title>Node2&#45;&gt;Node5</title>
<path fill="none" stroke="midnightblue" d="M689.04,-123.44C708.12,-114.64 738.07,-100.81 759.94,-90.72"/>
<polygon fill="midnightblue" stroke="midnightblue" points="761.43,-93.88 769.05,-86.52 758.5,-87.53 761.43,-93.88"/>
</g>
<!-- Node6 -->
<g id="node6" class="node">
<title>Node6</title>
<g id="a_node6"><a xlink:href="open62541/nodeids_8h.html.html" xlink:title=" ">
<polygon fill="none" stroke="black" points="593,-6 593,-25 714,-25 714,-6 593,-6"/>
<text text-anchor="middle" x="653.5" y="-13" font-family="Helvetica,sans-Serif" font-size="10.00">open62541/nodeids.h</text>
</a>
</g>
</g>
<!-- Node5&#45;&gt;Node6 -->
<g id="edge5" class="edge">
<title>Node5&#45;&gt;Node6</title>
<path fill="none" stroke="midnightblue" d="M768.3,-67.48C745.71,-57.45 708,-40.7 682,-29.15"/>
<polygon fill="midnightblue" stroke="midnightblue" points="683.22,-25.87 672.66,-25.01 680.38,-32.27 683.22,-25.87"/>
</g>
<!-- Node7 -->
<g id="node7" class="node">
<title>Node7</title>
<g id="a_node7"><a xlink:href="open62541/types_8h.html.html" xlink:title=" ">
<polygon fill="none" stroke="black" points="732.5,-6 732.5,-25 842.5,-25 842.5,-6 732.5,-6"/>
<text text-anchor="middle" x="787.5" y="-13" font-family="Helvetica,sans-Serif" font-size="10.00">open62541/types.h</text>
</a>
</g>
</g>
<!-- Node5&#45;&gt;Node7 -->
<g id="edge6" class="edge">
<title>Node5&#45;&gt;Node7</title>
<path fill="none" stroke="midnightblue" d="M787.5,-67.48C787.5,-59.08 787.5,-45.98 787.5,-35.16"/>
<polygon fill="midnightblue" stroke="midnightblue" points="791,-35.01 787.5,-25.01 784,-35.01 791,-35.01"/>
</g>
<!-- Node8 -->
<g id="node8" class="node">
<title>Node8</title>
<g id="a_node8"><a xlink:href="open62541/types__generated__handling_8h.html.html" xlink:title=" ">
<polygon fill="none" stroke="black" points="861,-0.5 861,-30.5 1016,-30.5 1016,-0.5 861,-0.5"/>
<text text-anchor="start" x="869" y="-18.5" font-family="Helvetica,sans-Serif" font-size="10.00">open62541/types_generated</text>
<text text-anchor="middle" x="938.5" y="-7.5" font-family="Helvetica,sans-Serif" font-size="10.00">_handling.h</text>
</a>
</g>
</g>
<!-- Node5&#45;&gt;Node8 -->
<g id="edge7" class="edge">
<title>Node5&#45;&gt;Node8</title>
<path fill="none" stroke="midnightblue" d="M809.13,-67.48C831.02,-58.85 865.5,-45.26 893.36,-34.29"/>
<polygon fill="midnightblue" stroke="midnightblue" points="894.89,-37.45 902.91,-30.52 892.33,-30.93 894.89,-37.45"/>
</g>
<!-- Node9&#45;&gt;Node4 -->
<g id="edge10" class="edge">
<title>Node9&#45;&gt;Node4</title>
<path fill="none" stroke="midnightblue" d="M495.97,-123.32C483.91,-114.98 465.47,-102.21 451.23,-92.35"/>
<polygon fill="midnightblue" stroke="midnightblue" points="453.22,-89.47 443,-86.65 449.23,-95.22 453.22,-89.47"/>
</g>
<!-- Node9&#45;&gt;Node5 -->
<g id="edge12" class="edge">
<title>Node9&#45;&gt;Node5</title>
<path fill="none" stroke="midnightblue" d="M552.71,-123.44C601.79,-113.94 681.01,-98.61 733.66,-88.42"/>
<polygon fill="midnightblue" stroke="midnightblue" points="734.35,-91.85 743.5,-86.52 733.02,-84.98 734.35,-91.85"/>
</g>
<!-- Node10 -->
<g id="node10" class="node">
<title>Node10</title>
<g id="a_node10"><a xlink:title=" ">
<polygon fill="none" stroke="#bfbfbf" points="483.5,-67.5 483.5,-86.5 533.5,-86.5 533.5,-67.5 483.5,-67.5"/>
<text text-anchor="middle" x="508.5" y="-74.5" font-family="Helvetica,sans-Serif" font-size="10.00">cstring</text>
</a>
</g>
</g>
<!-- Node9&#45;&gt;Node10 -->
<g id="edge9" class="edge">
<title>Node9&#45;&gt;Node10</title>
<path fill="none" stroke="midnightblue" d="M508.5,-123.08C508.5,-116.01 508.5,-105.86 508.5,-96.99"/>
<polygon fill="midnightblue" stroke="midnightblue" points="512,-96.75 508.5,-86.75 505,-96.75 512,-96.75"/>
</g>
<!-- Node11 -->
<g id="node11" class="node">
<title>Node11</title>
<g id="a_node11"><a xlink:title=" ">
<polygon fill="none" stroke="#bfbfbf" points="267,-67.5 267,-86.5 340,-86.5 340,-67.5 267,-67.5"/>
<text text-anchor="middle" x="303.5" y="-74.5" font-family="Helvetica,sans-Serif" font-size="10.00">string_view</text>
</a>
</g>
</g>
<!-- Node9&#45;&gt;Node11 -->
<g id="edge11" class="edge">
<title>Node9&#45;&gt;Node11</title>
<path fill="none" stroke="midnightblue" d="M476.02,-123.44C440.78,-114.16 384.4,-99.31 345.74,-89.13"/>
<polygon fill="midnightblue" stroke="midnightblue" points="346.39,-85.68 335.83,-86.52 344.61,-92.45 346.39,-85.68"/>
</g>
<!-- Node12&#45;&gt;Node11 -->
<g id="edge15" class="edge">
<title>Node12&#45;&gt;Node11</title>
<path fill="none" stroke="midnightblue" d="M64.24,-179.35C65.94,-165.28 71.37,-137.57 88.5,-123 113.38,-101.83 201.26,-88.84 256.67,-82.56"/>
<polygon fill="midnightblue" stroke="midnightblue" points="257.06,-86.04 266.62,-81.47 256.29,-79.08 257.06,-86.04"/>
</g>
<!-- Node13 -->
<g id="node13" class="node">
<title>Node13</title>
<g id="a_node13"><a xlink:title=" ">
<polygon fill="none" stroke="#bfbfbf" points="98,-123.5 98,-142.5 163,-142.5 163,-123.5 98,-123.5"/>
<text text-anchor="middle" x="130.5" y="-130.5" font-family="Helvetica,sans-Serif" font-size="10.00">functional</text>
</a>
</g>
</g>
<!-- Node12&#45;&gt;Node13 -->
<g id="edge14" class="edge">
<title>Node12&#45;&gt;Node13</title>
<path fill="none" stroke="midnightblue" d="M74.26,-179.32C84.27,-171.26 99.39,-159.08 111.43,-149.37"/>
<polygon fill="midnightblue" stroke="midnightblue" points="113.95,-151.83 119.54,-142.83 109.56,-146.38 113.95,-151.83"/>
</g>
<!-- Node14&#45;&gt;Node2 -->
<g id="edge20" class="edge">
<title>Node14&#45;&gt;Node2</title>
<path fill="none" stroke="midnightblue" d="M586.29,-291.08C600.42,-264.72 642.15,-186.88 661.03,-151.66"/>
<polygon fill="midnightblue" stroke="midnightblue" points="664.27,-153.04 665.91,-142.57 658.1,-149.73 664.27,-153.04"/>
</g>
<!-- Node14&#45;&gt;Node4 -->
<g id="edge17" class="edge">
<title>Node14&#45;&gt;Node4</title>
<path fill="none" stroke="midnightblue" d="M569.37,-291.45C540.36,-270.21 467.13,-211.81 436.5,-143 430.08,-128.59 428.87,-110.63 429.1,-97.24"/>
<polygon fill="midnightblue" stroke="midnightblue" points="432.61,-97.01 429.58,-86.86 425.62,-96.69 432.61,-97.01"/>
</g>
<!-- Node14&#45;&gt;Node11 -->
<g id="edge18" class="edge">
<title>Node14&#45;&gt;Node11</title>
<path fill="none" stroke="midnightblue" d="M563.43,-291.44C546.54,-283.09 520.93,-269.57 500.5,-255 427.34,-202.82 351.07,-127.15 319.08,-94.27"/>
<polygon fill="midnightblue" stroke="midnightblue" points="321.39,-91.63 311.93,-86.87 316.36,-96.5 321.39,-91.63"/>
</g>
<!-- Node15 -->
<g id="node15" class="node">
<title>Node15</title>
<g id="a_node15"><a xlink:title=" ">
<polygon fill="none" stroke="#bfbfbf" points="518,-179.5 518,-198.5 565,-198.5 565,-179.5 518,-179.5"/>
<text text-anchor="middle" x="541.5" y="-186.5" font-family="Helvetica,sans-Serif" font-size="10.00">vector</text>
</a>
</g>
</g>
<!-- Node14&#45;&gt;Node15 -->
<g id="edge19" class="edge">
<title>Node14&#45;&gt;Node15</title>
<path fill="none" stroke="midnightblue" d="M578.36,-291.37C571.88,-273.54 556.88,-232.3 548.14,-208.27"/>
<polygon fill="midnightblue" stroke="midnightblue" points="551.33,-206.79 544.62,-198.59 544.75,-209.19 551.33,-206.79"/>
</g>
<!-- Node14&#45;&gt;Node16 -->
<g id="edge21" class="edge">
<title>Node14&#45;&gt;Node16</title>
<path fill="none" stroke="midnightblue" d="M610.18,-291.44C641.03,-282.24 690.23,-267.56 724.33,-257.39"/>
<polygon fill="midnightblue" stroke="midnightblue" points="725.37,-260.73 733.95,-254.52 723.37,-254.02 725.37,-260.73"/>
</g>
<!-- Node14&#45;&gt;Node22 -->
<g id="edge42" class="edge">
<title>Node14&#45;&gt;Node22</title>
<path fill="none" stroke="midnightblue" d="M641.81,-300.72C747.75,-300.87 961.79,-295.91 1022.5,-255 1041.1,-242.47 1067.06,-182.64 1079.42,-152.07"/>
<polygon fill="midnightblue" stroke="midnightblue" points="1082.74,-153.19 1083.19,-142.6 1076.24,-150.6 1082.74,-153.19"/>
</g>
<!-- Node14&#45;&gt;Node23 -->
<g id="edge34" class="edge">
<title>Node14&#45;&gt;Node23</title>
<path fill="none" stroke="midnightblue" d="M539.83,-291.44C493.75,-281.98 419.5,-266.74 369.87,-256.55"/>
<polygon fill="midnightblue" stroke="midnightblue" points="370.48,-253.1 359.98,-254.52 369.07,-259.96 370.48,-253.1"/>
</g>
<!-- Node14&#45;&gt;Node26 -->
<g id="edge43" class="edge">
<title>Node14&#45;&gt;Node26</title>
<path fill="none" stroke="midnightblue" d="M639.65,-291.44C705.15,-281.81 811.46,-266.16 880.69,-255.98"/>
<polygon fill="midnightblue" stroke="midnightblue" points="881.24,-259.43 890.62,-254.52 880.22,-252.51 881.24,-259.43"/>
</g>
<!-- Node16&#45;&gt;Node5 -->
<g id="edge24" class="edge">
<title>Node16&#45;&gt;Node5</title>
<path fill="none" stroke="midnightblue" d="M763.84,-235.08C767.78,-208.95 779.34,-132.21 784.7,-96.58"/>
<polygon fill="midnightblue" stroke="midnightblue" points="788.18,-96.98 786.21,-86.57 781.26,-95.94 788.18,-96.98"/>
</g>
<!-- Node16&#45;&gt;Node11 -->
<g id="edge22" class="edge">
<title>Node16&#45;&gt;Node11</title>
<path fill="none" stroke="midnightblue" d="M739.53,-235.41C704.3,-222.38 634.66,-197.22 574.5,-179 513.83,-160.63 495.94,-165.03 436.5,-143 397.01,-128.37 353.58,-105.83 327.43,-91.51"/>
<polygon fill="midnightblue" stroke="midnightblue" points="329.07,-88.41 318.62,-86.63 325.68,-94.54 329.07,-88.41"/>
</g>
<!-- Node17 -->
<g id="node17" class="node">
<title>Node17</title>
<g id="a_node17"><a xlink:title=" ">
<polygon fill="none" stroke="#bfbfbf" points="698,-179.5 698,-198.5 749,-198.5 749,-179.5 698,-179.5"/>
<text text-anchor="middle" x="723.5" y="-186.5" font-family="Helvetica,sans-Serif" font-size="10.00">variant</text>
</a>
</g>
</g>
<!-- Node16&#45;&gt;Node17 -->
<g id="edge23" class="edge">
<title>Node16&#45;&gt;Node17</title>
<path fill="none" stroke="midnightblue" d="M756.06,-235.08C750.55,-227.46 742.47,-216.26 735.74,-206.94"/>
<polygon fill="midnightblue" stroke="midnightblue" points="738.51,-204.81 729.82,-198.75 732.84,-208.91 738.51,-204.81"/>
</g>
<!-- Node16&#45;&gt;Node18 -->
<g id="edge25" class="edge">
<title>Node16&#45;&gt;Node18</title>
<path fill="none" stroke="midnightblue" d="M782.47,-235.44C803.11,-226.6 835.56,-212.69 859.13,-202.59"/>
<polygon fill="midnightblue" stroke="midnightblue" points="860.82,-205.67 868.63,-198.52 858.06,-199.24 860.82,-205.67"/>
</g>
<!-- Node18&#45;&gt;Node2 -->
<g id="edge29" class="edge">
<title>Node18&#45;&gt;Node2</title>
<path fill="none" stroke="midnightblue" d="M853.96,-179.44C816.25,-170.1 755.76,-155.12 714.64,-144.93"/>
<polygon fill="midnightblue" stroke="midnightblue" points="715.43,-141.52 704.88,-142.52 713.75,-148.32 715.43,-141.52"/>
</g>
<!-- Node18&#45;&gt;Node9 -->
<g id="edge30" class="edge">
<title>Node18&#45;&gt;Node9</title>
<path fill="none" stroke="midnightblue" d="M843.79,-181.65C778.36,-172.35 655.89,-154.95 578.47,-143.94"/>
<polygon fill="midnightblue" stroke="midnightblue" points="578.71,-140.44 568.32,-142.5 577.73,-147.37 578.71,-140.44"/>
</g>
<!-- Node19 -->
<g id="node19" class="node">
<title>Node19</title>
<g id="a_node19"><a xlink:title=" ">
<polygon fill="none" stroke="#bfbfbf" points="867.5,-123.5 867.5,-142.5 931.5,-142.5 931.5,-123.5 867.5,-123.5"/>
<text text-anchor="middle" x="899.5" y="-130.5" font-family="Helvetica,sans-Serif" font-size="10.00">algorithm</text>
</a>
</g>
</g>
<!-- Node18&#45;&gt;Node19 -->
<g id="edge26" class="edge">
<title>Node18&#45;&gt;Node19</title>
<path fill="none" stroke="midnightblue" d="M890.32,-179.08C891.77,-171.93 893.87,-161.64 895.69,-152.69"/>
<polygon fill="midnightblue" stroke="midnightblue" points="899.15,-153.25 897.72,-142.75 892.29,-151.85 899.15,-153.25"/>
</g>
<!-- Node20 -->
<g id="node20" class="node">
<title>Node20</title>
<g id="a_node20"><a xlink:title=" ">
<polygon fill="none" stroke="#bfbfbf" points="807.5,-123.5 807.5,-142.5 849.5,-142.5 849.5,-123.5 807.5,-123.5"/>
<text text-anchor="middle" x="828.5" y="-130.5" font-family="Helvetica,sans-Serif" font-size="10.00">array</text>
</a>
</g>
</g>
<!-- Node18&#45;&gt;Node20 -->
<g id="edge27" class="edge">
<title>Node18&#45;&gt;Node20</title>
<path fill="none" stroke="midnightblue" d="M878.86,-179.32C869.99,-171.34 856.63,-159.31 845.89,-149.65"/>
<polygon fill="midnightblue" stroke="midnightblue" points="848.09,-146.92 838.32,-142.83 843.41,-152.13 848.09,-146.92"/>
</g>
<!-- Node21 -->
<g id="node21" class="node">
<title>Node21</title>
<g id="a_node21"><a xlink:title=" ">
<polygon fill="none" stroke="#bfbfbf" points="1052,-67.5 1052,-86.5 1121,-86.5 1121,-67.5 1052,-67.5"/>
<text text-anchor="middle" x="1086.5" y="-74.5" font-family="Helvetica,sans-Serif" font-size="10.00">type_traits</text>
</a>
</g>
</g>
<!-- Node18&#45;&gt;Node21 -->
<g id="edge28" class="edge">
<title>Node18&#45;&gt;Node21</title>
<path fill="none" stroke="midnightblue" d="M904.04,-179.37C938.38,-160.29 1020.94,-114.42 1062.19,-91.51"/>
<polygon fill="midnightblue" stroke="midnightblue" points="1063.99,-94.51 1071.04,-86.59 1060.59,-88.39 1063.99,-94.51"/>
</g>
<!-- Node18&#45;&gt;Node22 -->
<g id="edge31" class="edge">
<title>Node18&#45;&gt;Node22</title>
<path fill="none" stroke="midnightblue" d="M919.87,-179.44C953.76,-170.2 1007.9,-155.44 1045.22,-145.26"/>
<polygon fill="midnightblue" stroke="midnightblue" points="1046.55,-148.52 1055.27,-142.52 1044.7,-141.77 1046.55,-148.52"/>
</g>
<!-- Node22&#45;&gt;Node5 -->
<g id="edge33" class="edge">
<title>Node22&#45;&gt;Node5</title>
<path fill="none" stroke="midnightblue" d="M1039.12,-123.44C986.42,-113.92 901.27,-98.55 844.84,-88.36"/>
<polygon fill="midnightblue" stroke="midnightblue" points="845.12,-84.85 834.66,-86.52 843.87,-91.74 845.12,-84.85"/>
</g>
<!-- Node22&#45;&gt;Node21 -->
<g id="edge32" class="edge">
<title>Node22&#45;&gt;Node21</title>
<path fill="none" stroke="midnightblue" d="M1086.5,-123.08C1086.5,-116.01 1086.5,-105.86 1086.5,-96.99"/>
<polygon fill="midnightblue" stroke="midnightblue" points="1090,-96.75 1086.5,-86.75 1083,-96.75 1090,-96.75"/>
</g>
<!-- Node23&#45;&gt;Node4 -->
<g id="edge38" class="edge">
<title>Node23&#45;&gt;Node4</title>
<path fill="none" stroke="midnightblue" d="M326.48,-235.36C334.48,-226.53 346.93,-212.27 356.5,-199 363.39,-189.45 401.3,-126.61 420.03,-95.45"/>
<polygon fill="midnightblue" stroke="midnightblue" points="423.22,-96.93 425.37,-86.56 417.22,-93.33 423.22,-96.93"/>
</g>
<!-- Node23&#45;&gt;Node11 -->
<g id="edge39" class="edge">
<title>Node23&#45;&gt;Node11</title>
<path fill="none" stroke="midnightblue" d="M268.73,-235.45C247.67,-229.1 225.13,-218.09 212.5,-199 185.87,-158.76 244.24,-114 279.39,-91.91"/>
<polygon fill="midnightblue" stroke="midnightblue" points="281.46,-94.74 288.18,-86.54 277.82,-88.76 281.46,-94.74"/>
</g>
<!-- Node23&#45;&gt;Node12 -->
<g id="edge41" class="edge">
<title>Node23&#45;&gt;Node12</title>
<path fill="none" stroke="midnightblue" d="M278.09,-235.44C233.52,-226 161.73,-210.8 113.61,-200.61"/>
<polygon fill="midnightblue" stroke="midnightblue" points="114.22,-197.16 103.72,-198.52 112.77,-204.01 114.22,-197.16"/>
</g>
<!-- Node23&#45;&gt;Node13 -->
<g id="edge36" class="edge">
<title>Node23&#45;&gt;Node13</title>
<path fill="none" stroke="midnightblue" d="M268.17,-235.47C240.15,-228.91 205.74,-217.69 179.5,-199 162.11,-186.61 148.17,-166.2 139.67,-151.55"/>
<polygon fill="midnightblue" stroke="midnightblue" points="142.58,-149.57 134.69,-142.5 136.45,-152.95 142.58,-149.57"/>
</g>
<!-- Node23&#45;&gt;Node15 -->
<g id="edge40" class="edge">
<title>Node23&#45;&gt;Node15</title>
<path fill="none" stroke="midnightblue" d="M353.84,-235.44C396.18,-225.19 466.59,-208.14 508.07,-198.09"/>
<polygon fill="midnightblue" stroke="midnightblue" points="509.06,-201.46 517.96,-195.7 507.42,-194.65 509.06,-201.46"/>
</g>
<!-- Node24 -->
<g id="node24" class="node">
<title>Node24</title>
<g id="a_node24"><a xlink:title=" ">
<polygon fill="none" stroke="#bfbfbf" points="221.5,-179.5 221.5,-198.5 271.5,-198.5 271.5,-179.5 221.5,-179.5"/>
<text text-anchor="middle" x="246.5" y="-186.5" font-family="Helvetica,sans-Serif" font-size="10.00">atomic</text>
</a>
</g>
</g>
<!-- Node23&#45;&gt;Node24 -->
<g id="edge35" class="edge">
<title>Node23&#45;&gt;Node24</title>
<path fill="none" stroke="midnightblue" d="M306.93,-235.32C296.08,-227.18 279.62,-214.84 266.62,-205.09"/>
<polygon fill="midnightblue" stroke="midnightblue" points="268.38,-202.03 258.28,-198.83 264.18,-207.63 268.38,-202.03"/>
</g>
<!-- Node25 -->
<g id="node25" class="node">
<title>Node25</title>
<g id="a_node25"><a xlink:title=" ">
<polygon fill="none" stroke="#bfbfbf" points="289.5,-179.5 289.5,-198.5 347.5,-198.5 347.5,-179.5 289.5,-179.5"/>
<text text-anchor="middle" x="318.5" y="-186.5" font-family="Helvetica,sans-Serif" font-size="10.00">memory</text>
</a>
</g>
</g>
<!-- Node23&#45;&gt;Node25 -->
<g id="edge37" class="edge">
<title>Node23&#45;&gt;Node25</title>
<path fill="none" stroke="midnightblue" d="M318.5,-235.08C318.5,-228.01 318.5,-217.86 318.5,-208.99"/>
<polygon fill="midnightblue" stroke="midnightblue" points="322,-208.75 318.5,-198.75 315,-208.75 322,-208.75"/>
</g>
<!-- Node26&#45;&gt;Node2 -->
<g id="edge46" class="edge">
<title>Node26&#45;&gt;Node2</title>
<path fill="none" stroke="midnightblue" d="M926.69,-235.37C877.66,-215.97 758.62,-168.87 701.76,-146.37"/>
<polygon fill="midnightblue" stroke="midnightblue" points="702.8,-143.02 692.21,-142.59 700.22,-149.53 702.8,-143.02"/>
</g>
<!-- Node26&#45;&gt;Node5 -->
<g id="edge49" class="edge">
<title>Node26&#45;&gt;Node5</title>
<path fill="none" stroke="midnightblue" d="M950.97,-235.2C956.49,-213.45 967.35,-156.52 940.5,-123 923.77,-102.11 897.86,-90.58 872.09,-84.32"/>
<polygon fill="midnightblue" stroke="midnightblue" points="872.76,-80.89 862.24,-82.17 871.27,-87.73 872.76,-80.89"/>
</g>
<!-- Node26&#45;&gt;Node15 -->
<g id="edge45" class="edge">
<title>Node26&#45;&gt;Node15</title>
<path fill="none" stroke="midnightblue" d="M884.01,-235.44C796.35,-223.81 642.77,-203.44 575.12,-194.46"/>
<polygon fill="midnightblue" stroke="midnightblue" points="575.4,-190.97 565.02,-193.12 574.48,-197.91 575.4,-190.97"/>
</g>
<!-- Node26&#45;&gt;Node18 -->
<g id="edge47" class="edge">
<title>Node26&#45;&gt;Node18</title>
<path fill="none" stroke="midnightblue" d="M938.86,-235.32C929.99,-227.34 916.63,-215.31 905.89,-205.65"/>
<polygon fill="midnightblue" stroke="midnightblue" points="908.09,-202.92 898.32,-198.83 903.41,-208.13 908.09,-202.92"/>
</g>
<!-- Node26&#45;&gt;Node21 -->
<g id="edge44" class="edge">
<title>Node26&#45;&gt;Node21</title>
<path fill="none" stroke="midnightblue" d="M998.08,-235.44C1047.86,-223.92 1121.99,-198.12 1156.5,-143 1169.92,-121.56 1142.51,-102.6 1118.15,-90.77"/>
<polygon fill="midnightblue" stroke="midnightblue" points="1119.6,-87.58 1109.05,-86.59 1116.68,-93.95 1119.6,-87.58"/>
</g>
<!-- Node26&#45;&gt;Node22 -->
<g id="edge48" class="edge">
<title>Node26&#45;&gt;Node22</title>
<path fill="none" stroke="midnightblue" d="M959.33,-235.37C982.81,-216.65 1038.64,-172.15 1067.89,-148.83"/>
<polygon fill="midnightblue" stroke="midnightblue" points="1070.08,-151.56 1075.72,-142.59 1065.72,-146.09 1070.08,-151.56"/>
</g>
</g>
</svg>
