<?xml version="1.0" encoding="UTF-8" standalone="no"?>
<!DOCTYPE svg PUBLIC "-//W3C//DTD SVG 1.1//EN"
 "http://www.w3.org/Graphics/SVG/1.1/DTD/svg11.dtd">
<!-- Generated by graphviz version 2.43.0 (0)
 -->
<!-- Title: /home/runner/work/open62541pp/open62541pp/include/open62541pp/open62541pp.h Pages: 1 -->
<svg width="3538pt" height="786pt"
 viewBox="0.00 0.00 3537.50 786.00" xmlns="http://www.w3.org/2000/svg" xmlns:xlink="http://www.w3.org/1999/xlink">
<g id="graph0" class="graph" transform="scale(1 1) rotate(0) translate(4 782)">
<title>/home/runner/work/open62541pp/open62541pp/include/open62541pp/open62541pp.h</title>
<!-- Node1 -->
<g id="node1" class="node">
<title>Node1</title>
<g id="a_node1"><a xlink:title=" ">
<polygon fill="#999999" stroke="#666666" points="1743.5,-778 1550.5,-778 1550.5,-737 1743.5,-737 1743.5,-778"/>
<text text-anchor="start" x="1558.5" y="-766" font-family="Helvetica,sans-Serif" font-size="10.00">/home/runner/work/open62541pp</text>
<text text-anchor="start" x="1558.5" y="-755" font-family="Helvetica,sans-Serif" font-size="10.00">/open62541pp/include/open62541pp</text>
<text text-anchor="middle" x="1647" y="-744" font-family="Helvetica,sans-Serif" font-size="10.00">/open62541pp.h</text>
</a>
</g>
</g>
<!-- Node2 -->
<g id="node2" class="node">
<title>Node2</title>
<g id="a_node2"><a xlink:href="Auth_8h.html" target="_top" xlink:title=" ">
<polygon fill="white" stroke="#666666" points="3377.5,-629.5 3260.5,-629.5 3260.5,-610.5 3377.5,-610.5 3377.5,-629.5"/>
<text text-anchor="middle" x="3319" y="-617.5" font-family="Helvetica,sans-Serif" font-size="10.00">open62541pp/Auth.h</text>
</a>
</g>
</g>
<!-- Node1&#45;&gt;Node2 -->
<g id="edge1" class="edge">
<title>Node1&#45;&gt;Node2</title>
<path fill="none" stroke="#63b8ff" d="M1743.64,-756.97C2066.29,-758 3093.76,-756.84 3231,-701 3263.36,-687.83 3291.39,-657.12 3306.67,-637.81"/>
<polygon fill="#63b8ff" stroke="#63b8ff" points="3309.65,-639.68 3312.94,-629.61 3304.09,-635.43 3309.65,-639.68"/>
</g>
<!-- Node4 -->
<g id="node4" class="node">
<title>Node4</title>
<g id="a_node4"><a xlink:href="Client_8h.html" target="_top" xlink:title=" ">
<polygon fill="white" stroke="#666666" points="2830.5,-695.5 2707.5,-695.5 2707.5,-676.5 2830.5,-676.5 2830.5,-695.5"/>
<text text-anchor="middle" x="2769" y="-683.5" font-family="Helvetica,sans-Serif" font-size="10.00">open62541pp/Client.h</text>
</a>
</g>
</g>
<!-- Node1&#45;&gt;Node4 -->
<g id="edge3" class="edge">
<title>Node1&#45;&gt;Node4</title>
<path fill="none" stroke="#63b8ff" d="M1743.71,-752.25C1919.09,-744.25 2301.26,-725.56 2623,-701 2647.11,-699.16 2673.42,-696.76 2696.98,-694.47"/>
<polygon fill="#63b8ff" stroke="#63b8ff" points="2697.63,-697.92 2707.24,-693.46 2696.95,-690.95 2697.63,-697.92"/>
</g>
<!-- Node9 -->
<g id="node9" class="node">
<title>Node9</title>
<g id="a_node9"><a xlink:href="Logger_8h.html" target="_top" xlink:title=" ">
<polygon fill="white" stroke="#666666" points="3089.5,-629.5 2962.5,-629.5 2962.5,-610.5 3089.5,-610.5 3089.5,-629.5"/>
<text text-anchor="middle" x="3026" y="-617.5" font-family="Helvetica,sans-Serif" font-size="10.00">open62541pp/Logger.h</text>
</a>
</g>
</g>
<!-- Node1&#45;&gt;Node9 -->
<g id="edge110" class="edge">
<title>Node1&#45;&gt;Node9</title>
<path fill="none" stroke="#63b8ff" d="M1743.63,-756.43C1989.04,-755.53 2631.52,-748.57 2839,-701 2900.66,-686.86 2967.6,-653.33 3002.24,-634.48"/>
<polygon fill="#63b8ff" stroke="#63b8ff" points="3004.05,-637.47 3011.12,-629.57 3000.67,-631.34 3004.05,-637.47"/>
</g>
<!-- Node10 -->
<g id="node10" class="node">
<title>Node10</title>
<g id="a_node10"><a xlink:href="Subscription_8h.html" target="_top" xlink:title=" ">
<polygon fill="white" stroke="#666666" points="2793.5,-629.5 2638.5,-629.5 2638.5,-610.5 2793.5,-610.5 2793.5,-629.5"/>
<text text-anchor="middle" x="2716" y="-617.5" font-family="Helvetica,sans-Serif" font-size="10.00">open62541pp/Subscription.h</text>
</a>
</g>
</g>
<!-- Node1&#45;&gt;Node10 -->
<g id="edge169" class="edge">
<title>Node1&#45;&gt;Node10</title>
<path fill="none" stroke="#63b8ff" d="M1743.65,-753.65C1934.97,-747.44 2355.64,-730.79 2497,-701 2568.54,-685.92 2648.14,-652.3 2688.82,-633.81"/>
<polygon fill="#63b8ff" stroke="#63b8ff" points="2690.44,-636.91 2698.06,-629.56 2687.51,-630.55 2690.44,-636.91"/>
</g>
<!-- Node12 -->
<g id="node12" class="node">
<title>Node12</title>
<g id="a_node12"><a xlink:href="Common_8h.html" target="_top" xlink:title=" ">
<polygon fill="white" stroke="#666666" points="1523.5,-140 1384.5,-140 1384.5,-121 1523.5,-121 1523.5,-140"/>
<text text-anchor="middle" x="1454" y="-128" font-family="Helvetica,sans-Serif" font-size="10.00">open62541pp/Common.h</text>
</a>
</g>
</g>
<!-- Node1&#45;&gt;Node12 -->
<g id="edge108" class="edge">
<title>Node1&#45;&gt;Node12</title>
<path fill="none" stroke="#63b8ff" d="M1550.44,-742.66C1511.37,-734.35 1466.88,-721.3 1430,-701 1355.08,-659.76 1326.24,-646.46 1290,-569 1215.29,-409.34 1385.6,-205.48 1438.78,-147.52"/>
<polygon fill="#63b8ff" stroke="#63b8ff" points="1441.48,-149.75 1445.73,-140.04 1436.36,-144.98 1441.48,-149.75"/>
</g>
<!-- Node14 -->
<g id="node14" class="node">
<title>Node14</title>
<g id="a_node14"><a xlink:href="traits_8h.html" target="_top" xlink:title=" ">
<polygon fill="white" stroke="#666666" points="874.5,-85 761.5,-85 761.5,-55 874.5,-55 874.5,-85"/>
<text text-anchor="start" x="769.5" y="-73" font-family="Helvetica,sans-Serif" font-size="10.00">open62541pp/detail</text>
<text text-anchor="middle" x="818" y="-62" font-family="Helvetica,sans-Serif" font-size="10.00">/traits.h</text>
</a>
</g>
</g>
<!-- Node1&#45;&gt;Node14 -->
<g id="edge173" class="edge">
<title>Node1&#45;&gt;Node14</title>
<path fill="none" stroke="#63b8ff" d="M1550.46,-755.02C1302.01,-750.74 644.97,-736.33 430,-701 303.13,-680.15 152,-749.57 152,-621 152,-621 152,-621 152,-360.5 152,-302.11 214.37,-322.27 267,-297 362.76,-251.03 389.9,-246.74 488,-206 578.33,-168.49 600.38,-157.81 691,-121 717.82,-110.11 747.97,-98.22 772.15,-88.78"/>
<polygon fill="#63b8ff" stroke="#63b8ff" points="773.74,-91.91 781.79,-85.02 771.2,-85.39 773.74,-91.91"/>
</g>
<!-- Node20 -->
<g id="node17" class="node">
<title>Node20</title>
<g id="a_node17"><a xlink:href="MonitoredItem_8h.html" target="_top" xlink:title=" ">
<polygon fill="white" stroke="#666666" points="2680.5,-563.5 2513.5,-563.5 2513.5,-544.5 2680.5,-544.5 2680.5,-563.5"/>
<text text-anchor="middle" x="2597" y="-551.5" font-family="Helvetica,sans-Serif" font-size="10.00">open62541pp/MonitoredItem.h</text>
</a>
</g>
</g>
<!-- Node1&#45;&gt;Node20 -->
<g id="edge111" class="edge">
<title>Node1&#45;&gt;Node20</title>
<path fill="none" stroke="#63b8ff" d="M1743.52,-752.99C1901.05,-746.5 2206.26,-730.5 2310,-701 2416.65,-670.67 2530.31,-599.7 2576.11,-569.27"/>
<polygon fill="#63b8ff" stroke="#63b8ff" points="2578.23,-572.06 2584.58,-563.58 2574.33,-566.25 2578.23,-572.06"/>
</g>
<!-- Node22 -->
<g id="node19" class="node">
<title>Node22</title>
<g id="a_node19"><a xlink:href="ExtensionObject_8h.html" target="_top" xlink:title=" ">
<polygon fill="white" stroke="#666666" points="744,-437 580,-437 580,-407 744,-407 744,-437"/>
<text text-anchor="start" x="588" y="-425" font-family="Helvetica,sans-Serif" font-size="10.00">open62541pp/types/Extension</text>
<text text-anchor="middle" x="662" y="-414" font-family="Helvetica,sans-Serif" font-size="10.00">Object.h</text>
</a>
</g>
</g>
<!-- Node1&#45;&gt;Node22 -->
<g id="edge191" class="edge">
<title>Node1&#45;&gt;Node22</title>
<path fill="none" stroke="#63b8ff" d="M1550.19,-755.01C1334.16,-751.04 826.3,-737.86 758,-701 718.89,-679.89 698,-665.44 698,-621 698,-621 698,-621 698,-553 698,-514.55 683.19,-471.94 672.57,-446.33"/>
<polygon fill="#63b8ff" stroke="#63b8ff" points="675.76,-444.89 668.6,-437.07 669.32,-447.64 675.76,-444.89"/>
</g>
<!-- Node24 -->
<g id="node21" class="node">
<title>Node24</title>
<g id="a_node21"><a xlink:href="TypeConverter_8h.html" target="_top" xlink:title=" ">
<polygon fill="white" stroke="#666666" points="838,-371 674,-371 674,-352 838,-352 838,-371"/>
<text text-anchor="middle" x="756" y="-359" font-family="Helvetica,sans-Serif" font-size="10.00">open62541pp/TypeConverter.h</text>
</a>
</g>
</g>
<!-- Node1&#45;&gt;Node24 -->
<g id="edge170" class="edge">
<title>Node1&#45;&gt;Node24</title>
<path fill="none" stroke="#63b8ff" d="M1550.39,-755.21C1344.57,-751.74 876.63,-739.63 816,-701 781.78,-679.19 772,-661.58 772,-621 772,-621 772,-621 772,-487 772,-449.19 764.65,-405.43 759.91,-381.17"/>
<polygon fill="#63b8ff" stroke="#63b8ff" points="763.31,-380.31 757.9,-371.21 756.45,-381.7 763.31,-380.31"/>
</g>
<!-- Node28 -->
<g id="node25" class="node">
<title>Node28</title>
<g id="a_node25"><a xlink:href="ErrorHandling_8h.html" target="_top" xlink:title=" ">
<polygon fill="white" stroke="#666666" points="263.5,-200.5 102.5,-200.5 102.5,-181.5 263.5,-181.5 263.5,-200.5"/>
<text text-anchor="middle" x="183" y="-188.5" font-family="Helvetica,sans-Serif" font-size="10.00">open62541pp/ErrorHandling.h</text>
</a>
</g>
</g>
<!-- Node1&#45;&gt;Node28 -->
<g id="edge109" class="edge">
<title>Node1&#45;&gt;Node28</title>
<path fill="none" stroke="#63b8ff" d="M1550.33,-755.41C1216.08,-751.36 126.16,-735.54 60,-701 20.6,-680.43 0,-665.44 0,-621 0,-621 0,-621 0,-360.5 0,-279.59 98,-226.86 150.57,-204.4"/>
<polygon fill="#63b8ff" stroke="#63b8ff" points="151.93,-207.63 159.82,-200.56 149.25,-201.16 151.93,-207.63"/>
</g>
<!-- Node30 -->
<g id="node27" class="node">
<title>Node30</title>
<g id="a_node27"><a xlink:href="TypeWrapper_8h.html" target="_top" xlink:title=" ">
<polygon fill="white" stroke="#666666" points="718,-261 560,-261 560,-242 718,-242 718,-261"/>
<text text-anchor="middle" x="639" y="-249" font-family="Helvetica,sans-Serif" font-size="10.00">open62541pp/TypeWrapper.h</text>
</a>
</g>
</g>
<!-- Node1&#45;&gt;Node30 -->
<g id="edge171" class="edge">
<title>Node1&#45;&gt;Node30</title>
<path fill="none" stroke="#63b8ff" d="M1550.3,-752.34C1230.62,-737.96 228,-687.57 228,-621 228,-621 228,-621 228,-360.5 228,-294.48 428.87,-267.99 549.76,-258.02"/>
<polygon fill="#63b8ff" stroke="#63b8ff" points="550.07,-261.5 559.76,-257.22 549.51,-254.53 550.07,-261.5"/>
</g>
<!-- Node33 -->
<g id="node30" class="node">
<title>Node33</title>
<g id="a_node30"><a xlink:href="helper_8h.html" target="_top" xlink:title=" ">
<polygon fill="white" stroke="#666666" points="1079.5,-206 966.5,-206 966.5,-176 1079.5,-176 1079.5,-206"/>
<text text-anchor="start" x="974.5" y="-194" font-family="Helvetica,sans-Serif" font-size="10.00">open62541pp/detail</text>
<text text-anchor="middle" x="1023" y="-183" font-family="Helvetica,sans-Serif" font-size="10.00">/helper.h</text>
</a>
</g>
</g>
<!-- Node1&#45;&gt;Node33 -->
<g id="edge172" class="edge">
<title>Node1&#45;&gt;Node33</title>
<path fill="none" stroke="#63b8ff" d="M1583.97,-737C1455.62,-692.93 1176,-572.79 1176,-362.5 1176,-362.5 1176,-362.5 1176,-305.5 1176,-256.76 1125.31,-226.53 1082.28,-209.64"/>
<polygon fill="#63b8ff" stroke="#63b8ff" points="1083.27,-206.27 1072.67,-206.04 1080.81,-212.83 1083.27,-206.27"/>
</g>
<!-- Node34 -->
<g id="node31" class="node">
<title>Node34</title>
<g id="a_node31"><a xlink:href="comparison_8h.html" target="_top" xlink:title=" ">
<polygon fill="white" stroke="#666666" points="454,-206 320,-206 320,-176 454,-176 454,-206"/>
<text text-anchor="start" x="328" y="-194" font-family="Helvetica,sans-Serif" font-size="10.00">open62541pp/overloads</text>
<text text-anchor="middle" x="387" y="-183" font-family="Helvetica,sans-Serif" font-size="10.00">/comparison.h</text>
</a>
</g>
</g>
<!-- Node1&#45;&gt;Node34 -->
<g id="edge174" class="edge">
<title>Node1&#45;&gt;Node34</title>
<path fill="none" stroke="#63b8ff" d="M1550.46,-756.46C1238.44,-755.83 269.66,-749.92 138,-701 84.65,-681.18 38,-677.92 38,-621 38,-621 38,-621 38,-360.5 38,-297.83 222.82,-237.14 323.47,-208.73"/>
<polygon fill="#63b8ff" stroke="#63b8ff" points="324.54,-212.07 333.23,-206.01 322.66,-205.33 324.54,-212.07"/>
</g>
<!-- Node35 -->
<g id="node32" class="node">
<title>Node35</title>
<g id="a_node32"><a xlink:href="DateTime_8h.html" target="_top" xlink:title=" ">
<polygon fill="white" stroke="#666666" points="1109.5,-316 936.5,-316 936.5,-297 1109.5,-297 1109.5,-316"/>
<text text-anchor="middle" x="1023" y="-304" font-family="Helvetica,sans-Serif" font-size="10.00">open62541pp/types/DateTime.h</text>
</a>
</g>
</g>
<!-- Node1&#45;&gt;Node35 -->
<g id="edge190" class="edge">
<title>Node1&#45;&gt;Node35</title>
<path fill="none" stroke="#63b8ff" d="M1550.44,-754.2C1388.13,-749.41 1067.88,-735.77 961,-701 896.13,-679.9 830,-689.22 830,-621 830,-621 830,-621 830,-553 830,-455.48 837.91,-407.64 918,-352 938.35,-337.86 963.91,-326.91 984.71,-319.41"/>
<polygon fill="#63b8ff" stroke="#63b8ff" points="985.9,-322.7 994.2,-316.11 983.6,-316.09 985.9,-322.7"/>
</g>
<!-- Node38 -->
<g id="node35" class="node">
<title>Node38</title>
<g id="a_node35"><a xlink:href="NodeId_8h.html" target="_top" xlink:title=" ">
<polygon fill="white" stroke="#666666" points="2452.5,-371 2293.5,-371 2293.5,-352 2452.5,-352 2452.5,-371"/>
<text text-anchor="middle" x="2373" y="-359" font-family="Helvetica,sans-Serif" font-size="10.00">open62541pp/types/NodeId.h</text>
</a>
</g>
</g>
<!-- Node1&#45;&gt;Node38 -->
<g id="edge192" class="edge">
<title>Node1&#45;&gt;Node38</title>
<path fill="none" stroke="#63b8ff" d="M1743.79,-747.6C1892.91,-732.15 2169.64,-696.03 2246,-635 2330.54,-567.44 2361.45,-430.55 2370.14,-380.96"/>
<polygon fill="#63b8ff" stroke="#63b8ff" points="2373.61,-381.48 2371.79,-371.04 2366.7,-380.33 2373.61,-381.48"/>
</g>
<!-- Node40 -->
<g id="node37" class="node">
<title>Node40</title>
<g id="a_node37"><a xlink:href="NodeIds_8h.html" target="_top" xlink:title=" ">
<polygon fill="white" stroke="#666666" points="2162,-316 2028,-316 2028,-297 2162,-297 2162,-316"/>
<text text-anchor="middle" x="2095" y="-304" font-family="Helvetica,sans-Serif" font-size="10.00">open62541pp/NodeIds.h</text>
</a>
</g>
</g>
<!-- Node1&#45;&gt;Node40 -->
<g id="edge158" class="edge">
<title>Node1&#45;&gt;Node40</title>
<path fill="none" stroke="#63b8ff" d="M1689.22,-736.83C1729.48,-714.81 1784,-675.03 1784,-621 1784,-621 1784,-621 1784,-487 1784,-379.03 1926.34,-335 2018.43,-317.8"/>
<polygon fill="#63b8ff" stroke="#63b8ff" points="2019.06,-321.25 2028.28,-316.03 2017.82,-314.36 2019.06,-321.25"/>
</g>
<!-- Node41 -->
<g id="node38" class="node">
<title>Node41</title>
<g id="a_node38"><a xlink:href="Builtin_8h.html" target="_top" xlink:title=" ">
<polygon fill="white" stroke="#666666" points="1854,-316 1698,-316 1698,-297 1854,-297 1854,-316"/>
<text text-anchor="middle" x="1776" y="-304" font-family="Helvetica,sans-Serif" font-size="10.00">open62541pp/types/Builtin.h</text>
</a>
</g>
</g>
<!-- Node1&#45;&gt;Node41 -->
<g id="edge187" class="edge">
<title>Node1&#45;&gt;Node41</title>
<path fill="none" stroke="#63b8ff" d="M1652.45,-736.93C1659.25,-710.74 1670,-662.76 1670,-621 1670,-621 1670,-621 1670,-553 1670,-460.26 1676.93,-430.69 1726,-352 1733.23,-340.41 1744.36,-330.08 1754.29,-322.3"/>
<polygon fill="#63b8ff" stroke="#63b8ff" points="1756.63,-324.92 1762.58,-316.14 1752.46,-319.3 1756.63,-324.92"/>
</g>
<!-- Node42 -->
<g id="node39" class="node">
<title>Node42</title>
<g id="a_node39"><a xlink:href="Composed_8h.html" target="_top" xlink:title=" ">
<polygon fill="white" stroke="#666666" points="2026,-431.5 1850,-431.5 1850,-412.5 2026,-412.5 2026,-431.5"/>
<text text-anchor="middle" x="1938" y="-419.5" font-family="Helvetica,sans-Serif" font-size="10.00">open62541pp/types/Composed.h</text>
</a>
</g>
</g>
<!-- Node1&#45;&gt;Node42 -->
<g id="edge188" class="edge">
<title>Node1&#45;&gt;Node42</title>
<path fill="none" stroke="#63b8ff" d="M1735.79,-736.94C1794.23,-718.24 1860,-683.34 1860,-621 1860,-621 1860,-621 1860,-553 1860,-506.15 1897.71,-461.6 1920.69,-438.8"/>
<polygon fill="#63b8ff" stroke="#63b8ff" points="1923.33,-441.12 1928.12,-431.67 1918.48,-436.07 1923.33,-441.12"/>
</g>
<!-- Node44 -->
<g id="node41" class="node">
<title>Node44</title>
<g id="a_node41"><a xlink:href="Node_8h.html" target="_top" xlink:title=" ">
<polygon fill="white" stroke="#666666" points="1602,-629.5 1482,-629.5 1482,-610.5 1602,-610.5 1602,-629.5"/>
<text text-anchor="middle" x="1542" y="-617.5" font-family="Helvetica,sans-Serif" font-size="10.00">open62541pp/Node.h</text>
</a>
</g>
</g>
<!-- Node1&#45;&gt;Node44 -->
<g id="edge112" class="edge">
<title>Node1&#45;&gt;Node44</title>
<path fill="none" stroke="#63b8ff" d="M1631.73,-736.8C1611.06,-710.13 1574.54,-662.99 1555.07,-637.87"/>
<polygon fill="#63b8ff" stroke="#63b8ff" points="1557.62,-635.45 1548.73,-629.69 1552.09,-639.73 1557.62,-635.45"/>
</g>
<!-- Node46 -->
<g id="node43" class="node">
<title>Node46</title>
<g id="a_node43"><a xlink:href="DataValue_8h.html" target="_top" xlink:title=" ">
<polygon fill="white" stroke="#666666" points="1185.5,-497.5 1010.5,-497.5 1010.5,-478.5 1185.5,-478.5 1185.5,-497.5"/>
<text text-anchor="middle" x="1098" y="-485.5" font-family="Helvetica,sans-Serif" font-size="10.00">open62541pp/types/DataValue.h</text>
</a>
</g>
</g>
<!-- Node1&#45;&gt;Node46 -->
<g id="edge189" class="edge">
<title>Node1&#45;&gt;Node46</title>
<path fill="none" stroke="#63b8ff" d="M1550.35,-755.12C1436.03,-751.7 1254.38,-740.07 1200,-701 1133.45,-653.2 1108.57,-550.13 1100.91,-507.77"/>
<polygon fill="#63b8ff" stroke="#63b8ff" points="1104.34,-507.01 1099.22,-497.74 1097.43,-508.18 1104.34,-507.01"/>
</g>
<!-- Node47 -->
<g id="node44" class="node">
<title>Node47</title>
<g id="a_node44"><a xlink:href="Variant_8h.html" target="_top" xlink:title=" ">
<polygon fill="white" stroke="#666666" points="1034.5,-431.5 875.5,-431.5 875.5,-412.5 1034.5,-412.5 1034.5,-431.5"/>
<text text-anchor="middle" x="955" y="-419.5" font-family="Helvetica,sans-Serif" font-size="10.00">open62541pp/types/Variant.h</text>
</a>
</g>
</g>
<!-- Node1&#45;&gt;Node47 -->
<g id="edge193" class="edge">
<title>Node1&#45;&gt;Node47</title>
<path fill="none" stroke="#63b8ff" d="M1550.31,-749.65C1341.68,-733.57 868,-689.51 868,-621 868,-621 868,-621 868,-553 868,-504.69 910.01,-460.75 935.64,-438.43"/>
<polygon fill="#63b8ff" stroke="#63b8ff" points="938.23,-440.83 943.63,-431.71 933.72,-435.47 938.23,-440.83"/>
</g>
<!-- Node49 -->
<g id="node46" class="node">
<title>Node49</title>
<g id="a_node46"><a xlink:href="Server_8h.html" target="_top" xlink:title=" ">
<polygon fill="white" stroke="#666666" points="3222.5,-695.5 3097.5,-695.5 3097.5,-676.5 3222.5,-676.5 3222.5,-695.5"/>
<text text-anchor="middle" x="3160" y="-683.5" font-family="Helvetica,sans-Serif" font-size="10.00">open62541pp/Server.h</text>
</a>
</g>
</g>
<!-- Node1&#45;&gt;Node49 -->
<g id="edge159" class="edge">
<title>Node1&#45;&gt;Node49</title>
<path fill="none" stroke="#63b8ff" d="M1743.6,-753.28C1960.61,-745.87 2503.29,-726.25 2957,-701 3000.23,-698.59 3048.59,-695.28 3087.26,-692.49"/>
<polygon fill="#63b8ff" stroke="#63b8ff" points="3087.66,-695.97 3097.38,-691.75 3087.16,-688.98 3087.66,-695.97"/>
</g>
<!-- Node50 -->
<g id="node47" class="node">
<title>Node50</title>
<g id="a_node47"><a xlink:href="ostream_8h.html" target="_top" xlink:title=" ">
<polygon fill="white" stroke="#666666" points="3524,-701 3390,-701 3390,-671 3524,-671 3524,-701"/>
<text text-anchor="start" x="3398" y="-689" font-family="Helvetica,sans-Serif" font-size="10.00">open62541pp/overloads</text>
<text text-anchor="middle" x="3457" y="-678" font-family="Helvetica,sans-Serif" font-size="10.00">/ostream.h</text>
</a>
</g>
</g>
<!-- Node1&#45;&gt;Node50 -->
<g id="edge175" class="edge">
<title>Node1&#45;&gt;Node50</title>
<path fill="none" stroke="#63b8ff" d="M1743.64,-755.35C1999.46,-751.87 2715.42,-739.2 3310,-701 3332.63,-699.55 3357.17,-697.43 3379.6,-695.27"/>
<polygon fill="#63b8ff" stroke="#63b8ff" points="3380.13,-698.74 3389.74,-694.28 3379.45,-691.77 3380.13,-698.74"/>
</g>
<!-- Node52 -->
<g id="node49" class="node">
<title>Node52</title>
<g id="a_node49"><a xlink:href="services_8h.html" target="_top" xlink:title=" ">
<polygon fill="white" stroke="#666666" points="2237,-635 2111,-635 2111,-605 2237,-605 2237,-635"/>
<text text-anchor="start" x="2119" y="-623" font-family="Helvetica,sans-Serif" font-size="10.00">open62541pp/services</text>
<text text-anchor="middle" x="2174" y="-612" font-family="Helvetica,sans-Serif" font-size="10.00">/services.h</text>
</a>
</g>
</g>
<!-- Node1&#45;&gt;Node52 -->
<g id="edge177" class="edge">
<title>Node1&#45;&gt;Node52</title>
<path fill="none" stroke="#63b8ff" d="M1728.79,-736.94C1772.02,-726.49 1825.95,-713.28 1874,-701 1956.86,-679.82 2052.25,-654.17 2112.81,-637.72"/>
<polygon fill="#63b8ff" stroke="#63b8ff" points="2113.86,-641.06 2122.59,-635.06 2112.02,-634.3 2113.86,-641.06"/>
</g>
<!-- Node3 -->
<g id="node3" class="node">
<title>Node3</title>
<g id="a_node3"><a xlink:title=" ">
<polygon fill="#e0e0e0" stroke="#999999" points="2003,-140 1959,-140 1959,-121 2003,-121 2003,-140"/>
<text text-anchor="middle" x="1981" y="-128" font-family="Helvetica,sans-Serif" font-size="10.00">string</text>
</a>
</g>
</g>
<!-- Node2&#45;&gt;Node3 -->
<g id="edge2" class="edge">
<title>Node2&#45;&gt;Node3</title>
<path fill="none" stroke="#63b8ff" d="M3317.72,-610.5C3311.37,-569.4 3282.12,-391.71 3245,-352 3198.5,-302.26 3167.86,-314.3 3102,-297 2680.08,-186.17 2148.02,-143.17 2013.18,-133.64"/>
<polygon fill="#63b8ff" stroke="#63b8ff" points="2013.33,-130.15 2003.11,-132.94 2012.84,-137.13 2013.33,-130.15"/>
</g>
<!-- Node4&#45;&gt;Node2 -->
<g id="edge9" class="edge">
<title>Node4&#45;&gt;Node2</title>
<path fill="none" stroke="#63b8ff" d="M2830.76,-677.81C2934.33,-665.76 3142.31,-641.56 3250.33,-628.99"/>
<polygon fill="#63b8ff" stroke="#63b8ff" points="3250.94,-632.44 3260.47,-627.81 3250.13,-625.49 3250.94,-632.44"/>
</g>
<!-- Node4&#45;&gt;Node3 -->
<g id="edge6" class="edge">
<title>Node4&#45;&gt;Node3</title>
<path fill="none" stroke="#63b8ff" d="M2796.8,-676.46C2824.56,-667.54 2868.14,-652.41 2904,-635 2926.97,-623.85 2930.13,-616.36 2953,-605 2992.32,-585.46 3016.24,-602.18 3045,-569 3093.02,-513.61 3119.42,-466.06 3076,-407 2861.91,-115.8 2616.9,-381.08 2276,-261 2212.63,-238.68 2212.29,-203.51 2151,-176 2094.24,-150.53 2073.21,-157.06 2013.07,-141.29"/>
<polygon fill="#63b8ff" stroke="#63b8ff" points="2013.64,-137.82 2003.07,-138.56 2011.8,-144.57 2013.64,-137.82"/>
</g>
<!-- Node5 -->
<g id="node5" class="node">
<title>Node5</title>
<g id="a_node5"><a xlink:title=" ">
<polygon fill="#e0e0e0" stroke="#999999" points="3067.5,-431.5 3002.5,-431.5 3002.5,-412.5 3067.5,-412.5 3067.5,-431.5"/>
<text text-anchor="middle" x="3035" y="-419.5" font-family="Helvetica,sans-Serif" font-size="10.00">functional</text>
</a>
</g>
</g>
<!-- Node4&#45;&gt;Node5 -->
<g id="edge4" class="edge">
<title>Node4&#45;&gt;Node5</title>
<path fill="none" stroke="#63b8ff" d="M2783.63,-676.29C2810.19,-660.7 2868.34,-627.56 2920,-605 2964.44,-585.59 2993.33,-607.36 3023,-569 3051.83,-531.72 3045.21,-471.9 3039.35,-441.71"/>
<polygon fill="#63b8ff" stroke="#63b8ff" points="3042.73,-440.76 3037.22,-431.7 3035.88,-442.21 3042.73,-440.76"/>
</g>
<!-- Node6 -->
<g id="node6" class="node">
<title>Node6</title>
<g id="a_node6"><a xlink:title=" ">
<polygon fill="#e0e0e0" stroke="#999999" points="3166,-629.5 3108,-629.5 3108,-610.5 3166,-610.5 3166,-629.5"/>
<text text-anchor="middle" x="3137" y="-617.5" font-family="Helvetica,sans-Serif" font-size="10.00">memory</text>
</a>
</g>
</g>
<!-- Node4&#45;&gt;Node6 -->
<g id="edge5" class="edge">
<title>Node4&#45;&gt;Node6</title>
<path fill="none" stroke="#63b8ff" d="M2830.65,-679.24C2897.29,-672.18 3006.28,-658.2 3098,-635 3100.5,-634.37 3103.07,-633.64 3105.63,-632.85"/>
<polygon fill="#63b8ff" stroke="#63b8ff" points="3106.99,-636.09 3115.37,-629.61 3104.77,-629.45 3106.99,-636.09"/>
</g>
<!-- Node7 -->
<g id="node7" class="node">
<title>Node7</title>
<g id="a_node7"><a xlink:title=" ">
<polygon fill="#e0e0e0" stroke="#999999" points="2147.5,-79.5 2074.5,-79.5 2074.5,-60.5 2147.5,-60.5 2147.5,-79.5"/>
<text text-anchor="middle" x="2111" y="-67.5" font-family="Helvetica,sans-Serif" font-size="10.00">string_view</text>
</a>
</g>
</g>
<!-- Node4&#45;&gt;Node7 -->
<g id="edge7" class="edge">
<title>Node4&#45;&gt;Node7</title>
<path fill="none" stroke="#63b8ff" d="M2776.16,-676.36C2783.7,-666.82 2795.38,-650.72 2802,-635 2851.11,-518.39 2909.4,-452.86 2833,-352 2701.07,-177.82 2605.68,-191.91 2399,-121 2316.98,-92.86 2216.15,-80.01 2158.16,-74.57"/>
<polygon fill="#63b8ff" stroke="#63b8ff" points="2158.11,-71.06 2147.84,-73.64 2157.49,-78.03 2158.11,-71.06"/>
</g>
<!-- Node8 -->
<g id="node8" class="node">
<title>Node8</title>
<g id="a_node8"><a xlink:title=" ">
<polygon fill="#e0e0e0" stroke="#999999" points="2715.5,-316 2668.5,-316 2668.5,-297 2715.5,-297 2715.5,-316"/>
<text text-anchor="middle" x="2692" y="-304" font-family="Helvetica,sans-Serif" font-size="10.00">vector</text>
</a>
</g>
</g>
<!-- Node4&#45;&gt;Node8 -->
<g id="edge8" class="edge">
<title>Node4&#45;&gt;Node8</title>
<path fill="none" stroke="#63b8ff" d="M2707.4,-678.15C2643.32,-667.31 2546.52,-639.54 2504,-569 2441.82,-465.86 2640.3,-481.15 2689,-371 2695.21,-356.95 2695.56,-339.4 2694.58,-326.31"/>
<polygon fill="#63b8ff" stroke="#63b8ff" points="2698.03,-325.73 2693.49,-316.16 2691.07,-326.48 2698.03,-325.73"/>
</g>
<!-- Node4&#45;&gt;Node9 -->
<g id="edge10" class="edge">
<title>Node4&#45;&gt;Node9</title>
<path fill="none" stroke="#63b8ff" d="M2803.39,-676.44C2849.46,-664.96 2931.24,-644.6 2981.82,-632"/>
<polygon fill="#63b8ff" stroke="#63b8ff" points="2982.95,-635.33 2991.81,-629.51 2981.26,-628.53 2982.95,-635.33"/>
</g>
<!-- Node4&#45;&gt;Node10 -->
<g id="edge13" class="edge">
<title>Node4&#45;&gt;Node10</title>
<path fill="none" stroke="#63b8ff" d="M2761.85,-676.37C2753.68,-666.5 2740.11,-650.11 2729.84,-637.72"/>
<polygon fill="#63b8ff" stroke="#63b8ff" points="2732.45,-635.37 2723.37,-629.91 2727.06,-639.84 2732.45,-635.37"/>
</g>
<!-- Node4&#45;&gt;Node38 -->
<g id="edge107" class="edge">
<title>Node4&#45;&gt;Node38</title>
<path fill="none" stroke="#63b8ff" d="M2707.37,-681.94C2598.34,-675.88 2380.76,-660.69 2358,-635 2329.71,-603.06 2347.3,-580.3 2358,-539 2362.59,-521.28 2373.41,-520.72 2378,-503 2388.7,-461.7 2380.39,-449.6 2378,-407 2377.52,-398.45 2376.53,-389.03 2375.55,-381.06"/>
<polygon fill="#63b8ff" stroke="#63b8ff" points="2379.01,-380.47 2374.24,-371.01 2372.07,-381.38 2379.01,-380.47"/>
</g>
<!-- Node4&#45;&gt;Node41 -->
<g id="edge95" class="edge">
<title>Node4&#45;&gt;Node41</title>
<path fill="none" stroke="#63b8ff" d="M2707.45,-684.93C2557.18,-684.07 2175.17,-677.64 2056,-635 1881.11,-572.42 1804.99,-541.81 1732,-371 1724.22,-352.79 1740.05,-334.46 1754.85,-322.21"/>
<polygon fill="#63b8ff" stroke="#63b8ff" points="1757.03,-324.95 1762.8,-316.07 1752.75,-319.41 1757.03,-324.95"/>
</g>
<!-- Node4&#45;&gt;Node42 -->
<g id="edge96" class="edge">
<title>Node4&#45;&gt;Node42</title>
<path fill="none" stroke="#63b8ff" d="M2707.22,-683.22C2552.05,-678.35 2154.51,-663.25 2102,-635 2018.89,-590.29 1964.53,-483.36 1945.53,-440.86"/>
<polygon fill="#63b8ff" stroke="#63b8ff" points="1948.67,-439.29 1941.47,-431.52 1942.25,-442.09 1948.67,-439.29"/>
</g>
<!-- Node9&#45;&gt;Node5 -->
<g id="edge11" class="edge">
<title>Node9&#45;&gt;Node5</title>
<path fill="none" stroke="#63b8ff" d="M3033.12,-610.47C3040.5,-601.02 3051.57,-585 3056,-569 3067.39,-527.88 3064.43,-514.83 3056,-473 3053.73,-461.75 3048.86,-449.87 3044.38,-440.52"/>
<polygon fill="#63b8ff" stroke="#63b8ff" points="3047.46,-438.85 3039.82,-431.51 3041.22,-442.02 3047.46,-438.85"/>
</g>
<!-- Node9&#45;&gt;Node7 -->
<g id="edge12" class="edge">
<title>Node9&#45;&gt;Node7</title>
<path fill="none" stroke="#63b8ff" d="M3035.19,-610.36C3045.03,-600.82 3060.74,-584.73 3072,-569 3115,-508.96 3137.57,-475.1 3109,-407 3080.5,-339.06 3049.63,-332.36 2985,-297 2696.56,-139.19 2293.94,-88.25 2157.97,-75.01"/>
<polygon fill="#63b8ff" stroke="#63b8ff" points="2158.18,-71.51 2147.89,-74.05 2157.51,-78.48 2158.18,-71.51"/>
</g>
<!-- Node10&#45;&gt;Node5 -->
<g id="edge15" class="edge">
<title>Node10&#45;&gt;Node5</title>
<path fill="none" stroke="#63b8ff" d="M2730.23,-610.35C2746.6,-600.39 2774.26,-583.55 2798,-569 2876.91,-520.64 2970.39,-462.92 3012.48,-436.92"/>
<polygon fill="#63b8ff" stroke="#63b8ff" points="3014.46,-439.81 3021.12,-431.58 3010.78,-433.86 3014.46,-439.81"/>
</g>
<!-- Node10&#45;&gt;Node8 -->
<g id="edge16" class="edge">
<title>Node10&#45;&gt;Node8</title>
<path fill="none" stroke="#63b8ff" d="M2724.5,-610.41C2758.07,-575.43 2876.56,-441.41 2814,-352 2794.2,-323.7 2754.41,-313.34 2725.65,-309.57"/>
<polygon fill="#63b8ff" stroke="#63b8ff" points="2725.93,-306.08 2715.61,-308.47 2725.16,-313.04 2725.93,-306.08"/>
</g>
<!-- Node11 -->
<g id="node11" class="node">
<title>Node11</title>
<g id="a_node11"><a xlink:title=" ">
<polygon fill="#e0e0e0" stroke="#999999" points="2657,-79.5 2607,-79.5 2607,-60.5 2657,-60.5 2657,-79.5"/>
<text text-anchor="middle" x="2632" y="-67.5" font-family="Helvetica,sans-Serif" font-size="10.00">cstdint</text>
</a>
</g>
</g>
<!-- Node10&#45;&gt;Node11 -->
<g id="edge14" class="edge">
<title>Node10&#45;&gt;Node11</title>
<path fill="none" stroke="#63b8ff" d="M2793.6,-611.96C2965.24,-594.24 3362,-540.57 3362,-423 3362,-423 3362,-423 3362,-190 3362,-118.75 2813.3,-81.6 2667.32,-72.97"/>
<polygon fill="#63b8ff" stroke="#63b8ff" points="2667.32,-69.47 2657.13,-72.38 2666.91,-76.46 2667.32,-69.47"/>
</g>
<!-- Node10&#45;&gt;Node12 -->
<g id="edge17" class="edge">
<title>Node10&#45;&gt;Node12</title>
<path fill="none" stroke="#63b8ff" d="M2638.34,-616.17C2491.66,-609.04 2165.15,-584.58 1904,-503 1841.39,-483.44 1825.5,-474.95 1772,-437 1670.48,-364.99 1660.91,-328.07 1571,-242 1535.41,-207.93 1493.33,-168.37 1470.6,-147.04"/>
<polygon fill="#63b8ff" stroke="#63b8ff" points="1472.83,-144.34 1463.14,-140.06 1468.04,-149.45 1472.83,-144.34"/>
</g>
<!-- Node10&#45;&gt;Node20 -->
<g id="edge25" class="edge">
<title>Node10&#45;&gt;Node20</title>
<path fill="none" stroke="#63b8ff" d="M2699.95,-610.37C2679.99,-599.63 2645.68,-581.18 2622.2,-568.55"/>
<polygon fill="#63b8ff" stroke="#63b8ff" points="2623.64,-565.35 2613.17,-563.7 2620.32,-571.52 2623.64,-565.35"/>
</g>
<!-- Node21 -->
<g id="node18" class="node">
<title>Node21</title>
<g id="a_node18"><a xlink:href="services_2MonitoredItem_8h.html" target="_top" xlink:title=" ">
<polygon fill="white" stroke="#666666" points="2718,-503 2592,-503 2592,-473 2718,-473 2718,-503"/>
<text text-anchor="start" x="2600" y="-491" font-family="Helvetica,sans-Serif" font-size="10.00">open62541pp/services</text>
<text text-anchor="middle" x="2655" y="-480" font-family="Helvetica,sans-Serif" font-size="10.00">/MonitoredItem.h</text>
</a>
</g>
</g>
<!-- Node10&#45;&gt;Node21 -->
<g id="edge76" class="edge">
<title>Node10&#45;&gt;Node21</title>
<path fill="none" stroke="#63b8ff" d="M2713.89,-610.29C2710.08,-595.25 2701.27,-563.68 2689,-539 2684.28,-529.51 2678,-519.73 2672.12,-511.37"/>
<polygon fill="#63b8ff" stroke="#63b8ff" points="2674.92,-509.27 2666.22,-503.23 2669.26,-513.38 2674.92,-509.27"/>
</g>
<!-- Node37 -->
<g id="node34" class="node">
<title>Node37</title>
<g id="a_node34"><a xlink:href="services_2Subscription_8h.html" target="_top" xlink:title=" ">
<polygon fill="white" stroke="#666666" points="3014,-569 2888,-569 2888,-539 3014,-539 3014,-569"/>
<text text-anchor="start" x="2896" y="-557" font-family="Helvetica,sans-Serif" font-size="10.00">open62541pp/services</text>
<text text-anchor="middle" x="2951" y="-546" font-family="Helvetica,sans-Serif" font-size="10.00">/Subscription.h</text>
</a>
</g>
</g>
<!-- Node10&#45;&gt;Node37 -->
<g id="edge77" class="edge">
<title>Node10&#45;&gt;Node37</title>
<path fill="none" stroke="#63b8ff" d="M2747.69,-610.37C2783.88,-600.51 2843.93,-584.16 2889.41,-571.77"/>
<polygon fill="#63b8ff" stroke="#63b8ff" points="2890.44,-575.12 2899.17,-569.12 2888.6,-568.37 2890.44,-575.12"/>
</g>
<!-- Node10&#45;&gt;Node38 -->
<g id="edge80" class="edge">
<title>Node10&#45;&gt;Node38</title>
<path fill="none" stroke="#63b8ff" d="M2719.84,-610.33C2729.8,-586.47 2753.83,-518.56 2727,-473 2696.31,-420.89 2664.88,-427.55 2608,-407 2561.07,-390.04 2506.43,-379.2 2461.64,-372.47"/>
<polygon fill="#63b8ff" stroke="#63b8ff" points="2462.06,-368.99 2451.66,-371.01 2461.05,-375.92 2462.06,-368.99"/>
</g>
<!-- Node12&#45;&gt;Node7 -->
<g id="edge19" class="edge">
<title>Node12&#45;&gt;Node7</title>
<path fill="none" stroke="#63b8ff" d="M1523.69,-123.29C1658.19,-111.32 1950.35,-85.3 2064.23,-75.16"/>
<polygon fill="#63b8ff" stroke="#63b8ff" points="2064.71,-78.64 2074.36,-74.26 2064.09,-71.66 2064.71,-78.64"/>
</g>
<!-- Node12&#45;&gt;Node11 -->
<g id="edge18" class="edge">
<title>Node12&#45;&gt;Node11</title>
<path fill="none" stroke="#63b8ff" d="M1523.73,-126.04C1745.96,-115 2432.57,-80.9 2596.56,-72.76"/>
<polygon fill="#63b8ff" stroke="#63b8ff" points="2596.78,-76.25 2606.6,-72.26 2596.43,-69.26 2596.78,-76.25"/>
</g>
<!-- Node13 -->
<g id="node13" class="node">
<title>Node13</title>
<g id="a_node13"><a xlink:title=" ">
<polygon fill="#e0e0e0" stroke="#999999" points="1015.5,-19 974.5,-19 974.5,0 1015.5,0 1015.5,-19"/>
<text text-anchor="middle" x="995" y="-7" font-family="Helvetica,sans-Serif" font-size="10.00">tuple</text>
</a>
</g>
</g>
<!-- Node12&#45;&gt;Node13 -->
<g id="edge20" class="edge">
<title>Node12&#45;&gt;Node13</title>
<path fill="none" stroke="#63b8ff" d="M1420.99,-120.94C1335.54,-98.79 1108.01,-39.8 1025.46,-18.4"/>
<polygon fill="#63b8ff" stroke="#63b8ff" points="1026.25,-14.98 1015.69,-15.86 1024.49,-21.76 1026.25,-14.98"/>
</g>
<!-- Node12&#45;&gt;Node14 -->
<g id="edge21" class="edge">
<title>Node12&#45;&gt;Node14</title>
<path fill="none" stroke="#63b8ff" d="M1384.42,-123.1C1261.18,-111.76 1006.12,-88.3 884.85,-77.15"/>
<polygon fill="#63b8ff" stroke="#63b8ff" points="884.88,-73.64 874.6,-76.21 884.24,-80.61 884.88,-73.64"/>
</g>
<!-- Node16 -->
<g id="node16" class="node">
<title>Node16</title>
<g id="a_node16"><a xlink:href="open62541_8h.html" target="_top" xlink:title=" ">
<polygon fill="#fff0f0" stroke="red" points="619.5,-79.5 470.5,-79.5 470.5,-60.5 619.5,-60.5 619.5,-79.5"/>
<text text-anchor="middle" x="545" y="-67.5" font-family="Helvetica,sans-Serif" font-size="10.00">open62541pp/open62541.h</text>
</a>
</g>
</g>
<!-- Node12&#45;&gt;Node16 -->
<g id="edge24" class="edge">
<title>Node12&#45;&gt;Node16</title>
<path fill="none" stroke="#63b8ff" d="M1384.25,-125.18C1258.07,-117.33 983.53,-100.17 752,-85 711.92,-82.37 667.48,-79.38 630.08,-76.84"/>
<polygon fill="#63b8ff" stroke="#63b8ff" points="629.94,-73.32 619.73,-76.13 629.47,-80.3 629.94,-73.32"/>
</g>
<!-- Node14&#45;&gt;Node13 -->
<g id="edge22" class="edge">
<title>Node14&#45;&gt;Node13</title>
<path fill="none" stroke="#63b8ff" d="M860.4,-54.99C892.6,-44.34 936.1,-29.97 964.83,-20.47"/>
<polygon fill="#63b8ff" stroke="#63b8ff" points="965.93,-23.79 974.33,-17.33 963.73,-17.15 965.93,-23.79"/>
</g>
<!-- Node15 -->
<g id="node15" class="node">
<title>Node15</title>
<g id="a_node15"><a xlink:title=" ">
<polygon fill="#e0e0e0" stroke="#999999" points="706.5,-19 637.5,-19 637.5,0 706.5,0 706.5,-19"/>
<text text-anchor="middle" x="672" y="-7" font-family="Helvetica,sans-Serif" font-size="10.00">type_traits</text>
</a>
</g>
</g>
<!-- Node14&#45;&gt;Node15 -->
<g id="edge23" class="edge">
<title>Node14&#45;&gt;Node15</title>
<path fill="none" stroke="#63b8ff" d="M783.03,-54.99C758.67,-45.23 726.47,-32.33 703.03,-22.93"/>
<polygon fill="#63b8ff" stroke="#63b8ff" points="704.15,-19.61 693.56,-19.14 701.54,-26.11 704.15,-19.61"/>
</g>
<!-- Node20&#45;&gt;Node11 -->
<g id="edge26" class="edge">
<title>Node20&#45;&gt;Node11</title>
<path fill="none" stroke="#63b8ff" d="M2619.59,-544.45C2645.56,-534.59 2689.44,-517.83 2727,-503 2856.47,-451.9 2910.08,-466.86 3011,-371 3035.01,-348.19 3050,-340.62 3050,-307.5 3050,-307.5 3050,-307.5 3050,-190 3050,-110.66 2767.9,-81.37 2667.2,-73.44"/>
<polygon fill="#63b8ff" stroke="#63b8ff" points="2667.44,-69.95 2657.21,-72.67 2666.91,-76.93 2667.44,-69.95"/>
</g>
<!-- Node20&#45;&gt;Node12 -->
<g id="edge27" class="edge">
<title>Node20&#45;&gt;Node12</title>
<path fill="none" stroke="#63b8ff" d="M2540.37,-544.47C2527.14,-542.57 2513.08,-540.64 2500,-539 2199.39,-501.26 2097.68,-571.07 1826,-437 1753.15,-401.05 1741.12,-378.32 1689,-316 1642.3,-260.16 1661.65,-220.44 1604,-176 1582.35,-159.31 1554.54,-148.86 1528.76,-142.33"/>
<polygon fill="#63b8ff" stroke="#63b8ff" points="1529.53,-138.92 1518.99,-140.02 1527.92,-145.73 1529.53,-138.92"/>
</g>
<!-- Node20&#45;&gt;Node21 -->
<g id="edge28" class="edge">
<title>Node20&#45;&gt;Node21</title>
<path fill="none" stroke="#63b8ff" d="M2604.82,-544.37C2612.56,-535.83 2624.72,-522.41 2635.13,-510.92"/>
<polygon fill="#63b8ff" stroke="#63b8ff" points="2637.86,-513.12 2641.99,-503.36 2632.68,-508.42 2637.86,-513.12"/>
</g>
<!-- Node21&#45;&gt;Node5 -->
<g id="edge30" class="edge">
<title>Node21&#45;&gt;Node5</title>
<path fill="none" stroke="#63b8ff" d="M2718.18,-476.36C2795.7,-463.3 2925.07,-441.51 2991.99,-430.24"/>
<polygon fill="#63b8ff" stroke="#63b8ff" points="2992.89,-433.64 3002.17,-428.53 2991.73,-426.74 2992.89,-433.64"/>
</g>
<!-- Node21&#45;&gt;Node8 -->
<g id="edge31" class="edge">
<title>Node21&#45;&gt;Node8</title>
<path fill="none" stroke="#63b8ff" d="M2685.55,-472.95C2720.44,-454.96 2775.58,-420.16 2798,-371 2813.05,-337.99 2761.97,-320.89 2725.55,-313.07"/>
<polygon fill="#63b8ff" stroke="#63b8ff" points="2726.23,-309.64 2715.74,-311.11 2724.86,-316.5 2726.23,-309.64"/>
</g>
<!-- Node21&#45;&gt;Node11 -->
<g id="edge29" class="edge">
<title>Node21&#45;&gt;Node11</title>
<path fill="none" stroke="#63b8ff" d="M2718.19,-475.48C2753.92,-467.53 2798.75,-455.08 2836,-437 2923.37,-394.59 3012,-404.62 3012,-307.5 3012,-307.5 3012,-307.5 3012,-190 3012,-118.19 2761.76,-84.56 2667.42,-74.44"/>
<polygon fill="#63b8ff" stroke="#63b8ff" points="2667.54,-70.93 2657.23,-73.37 2666.81,-77.89 2667.54,-70.93"/>
</g>
<!-- Node21&#45;&gt;Node12 -->
<g id="edge32" class="edge">
<title>Node21&#45;&gt;Node12</title>
<path fill="none" stroke="#63b8ff" d="M2591.93,-484.27C2403,-475.96 1853.84,-450.66 1841,-437 1797.85,-391.12 1895.11,-351.19 1863,-297 1855.86,-284.96 1655.07,-181.02 1642,-176 1601.5,-160.45 1553.94,-149.25 1516.78,-141.98"/>
<polygon fill="#63b8ff" stroke="#63b8ff" points="1517.07,-138.47 1506.59,-140.03 1515.76,-145.35 1517.07,-138.47"/>
</g>
<!-- Node21&#45;&gt;Node22 -->
<g id="edge33" class="edge">
<title>Node21&#45;&gt;Node22</title>
<path fill="none" stroke="#63b8ff" d="M2591.83,-484.17C2522.11,-481.11 2406.56,-476.25 2307,-473 1666.7,-452.12 1505.94,-466.94 866,-437 829.53,-435.29 789.44,-432.7 754.52,-430.2"/>
<polygon fill="#63b8ff" stroke="#63b8ff" points="754.56,-426.7 744.34,-429.47 754.06,-433.68 754.56,-426.7"/>
</g>
<!-- Node22&#45;&gt;Node16 -->
<g id="edge75" class="edge">
<title>Node22&#45;&gt;Node16</title>
<path fill="none" stroke="#63b8ff" d="M579.82,-412.04C548.23,-405.09 513.62,-392.78 488,-371 467.4,-353.49 467.92,-342.38 462,-316 460.15,-307.76 460.5,-305.31 462,-297 469.68,-254.51 481.08,-246.51 496,-206 511.38,-164.24 529.14,-115.08 538.48,-89.14"/>
<polygon fill="#63b8ff" stroke="#63b8ff" points="541.84,-90.13 541.93,-79.54 535.25,-87.76 541.84,-90.13"/>
</g>
<!-- Node23 -->
<g id="node20" class="node">
<title>Node23</title>
<g id="a_node20"><a xlink:title=" ">
<polygon fill="#e0e0e0" stroke="#999999" points="983,-371 927,-371 927,-352 983,-352 983,-371"/>
<text text-anchor="middle" x="955" y="-359" font-family="Helvetica,sans-Serif" font-size="10.00">optional</text>
</a>
</g>
</g>
<!-- Node22&#45;&gt;Node23 -->
<g id="edge34" class="edge">
<title>Node22&#45;&gt;Node23</title>
<path fill="none" stroke="#63b8ff" d="M732.18,-406.99C790.1,-395.42 870.11,-379.45 916.82,-370.12"/>
<polygon fill="#63b8ff" stroke="#63b8ff" points="917.7,-373.52 926.82,-368.13 916.33,-366.65 917.7,-373.52"/>
</g>
<!-- Node22&#45;&gt;Node24 -->
<g id="edge35" class="edge">
<title>Node22&#45;&gt;Node24</title>
<path fill="none" stroke="#63b8ff" d="M684.75,-406.84C699.6,-397.6 718.9,-385.59 733.66,-376.4"/>
<polygon fill="#63b8ff" stroke="#63b8ff" points="735.55,-379.35 742.19,-371.09 731.85,-373.41 735.55,-379.35"/>
</g>
<!-- Node22&#45;&gt;Node30 -->
<g id="edge74" class="edge">
<title>Node22&#45;&gt;Node30</title>
<path fill="none" stroke="#63b8ff" d="M579.7,-410.92C546.45,-403.8 509.13,-391.67 480,-371 455.77,-353.81 450.85,-344.36 442,-316 439.49,-307.94 436.73,-303.6 442,-297 455.89,-279.62 504.44,-268.53 549.87,-261.77"/>
<polygon fill="#63b8ff" stroke="#63b8ff" points="550.4,-265.23 559.8,-260.35 549.41,-258.3 550.4,-265.23"/>
</g>
<!-- Node24&#45;&gt;Node3 -->
<g id="edge39" class="edge">
<title>Node24&#45;&gt;Node3</title>
<path fill="none" stroke="#63b8ff" d="M838.32,-355.53C929.18,-349.14 1069.04,-336.38 1118,-316 1210.92,-277.33 1202.01,-211.99 1296,-176 1417.42,-129.51 1829.46,-129.94 1948.53,-131.08"/>
<polygon fill="#63b8ff" stroke="#63b8ff" points="1948.77,-134.59 1958.81,-131.19 1948.84,-127.59 1948.77,-134.59"/>
</g>
<!-- Node24&#45;&gt;Node8 -->
<g id="edge41" class="edge">
<title>Node24&#45;&gt;Node8</title>
<path fill="none" stroke="#63b8ff" d="M838.39,-355.71C863.9,-354.36 892.11,-352.98 918,-352 1603.03,-326.04 1774.79,-336.55 2460,-316 2530.49,-313.89 2613,-310.69 2658.17,-308.88"/>
<polygon fill="#63b8ff" stroke="#63b8ff" points="2658.44,-312.37 2668.29,-308.47 2658.16,-305.38 2658.44,-312.37"/>
</g>
<!-- Node24&#45;&gt;Node12 -->
<g id="edge42" class="edge">
<title>Node24&#45;&gt;Node12</title>
<path fill="none" stroke="#63b8ff" d="M757.57,-351.93C760.08,-339.38 765.7,-315.51 775,-297 788.69,-269.76 792.37,-261.27 816,-242 869.63,-198.28 890.2,-194.02 957,-176 1033.39,-155.39 1253.83,-141.53 1373.84,-135.29"/>
<polygon fill="#63b8ff" stroke="#63b8ff" points="1374.26,-138.77 1384.07,-134.76 1373.9,-131.78 1374.26,-138.77"/>
</g>
<!-- Node24&#45;&gt;Node14 -->
<g id="edge64" class="edge">
<title>Node24&#45;&gt;Node14</title>
<path fill="none" stroke="#63b8ff" d="M756.79,-351.83C757.98,-339.56 760.46,-316.46 764,-297 777.52,-222.68 800.16,-136.16 811.34,-95.05"/>
<polygon fill="#63b8ff" stroke="#63b8ff" points="814.78,-95.73 814.04,-85.16 808.03,-93.88 814.78,-95.73"/>
</g>
<!-- Node24&#45;&gt;Node15 -->
<g id="edge40" class="edge">
<title>Node24&#45;&gt;Node15</title>
<path fill="none" stroke="#63b8ff" d="M708.25,-351.96C672.24,-344.68 622.02,-332.72 580,-316 563.92,-309.6 562.33,-302.75 546,-297 352.3,-228.8 220.97,-366.61 93,-206 -50.8,-25.52 467.7,-10.6 626.9,-10.19"/>
<polygon fill="#63b8ff" stroke="#63b8ff" points="627.3,-13.69 637.29,-10.18 627.29,-6.69 627.3,-13.69"/>
</g>
<!-- Node24&#45;&gt;Node16 -->
<g id="edge65" class="edge">
<title>Node24&#45;&gt;Node16</title>
<path fill="none" stroke="#63b8ff" d="M739.34,-351.89C713.72,-338.86 662.93,-313.9 618,-297 584.7,-284.48 332.28,-234.51 311,-206 260.26,-138.04 397.97,-98.73 483.21,-81.5"/>
<polygon fill="#63b8ff" stroke="#63b8ff" points="483.94,-84.93 493.07,-79.56 482.59,-78.06 483.94,-84.93"/>
</g>
<!-- Node25 -->
<g id="node22" class="node">
<title>Node25</title>
<g id="a_node22"><a xlink:title=" ">
<polygon fill="#e0e0e0" stroke="#999999" points="1562,-261 1520,-261 1520,-242 1562,-242 1562,-261"/>
<text text-anchor="middle" x="1541" y="-249" font-family="Helvetica,sans-Serif" font-size="10.00">array</text>
</a>
</g>
</g>
<!-- Node24&#45;&gt;Node25 -->
<g id="edge36" class="edge">
<title>Node24&#45;&gt;Node25</title>
<path fill="none" stroke="#63b8ff" d="M838.18,-355.41C932.6,-348.94 1092.03,-336.14 1228,-316 1332.09,-300.58 1453.85,-273.13 1509.89,-259.96"/>
<polygon fill="#63b8ff" stroke="#63b8ff" points="1510.96,-263.3 1519.88,-257.59 1509.35,-256.49 1510.96,-263.3"/>
</g>
<!-- Node26 -->
<g id="node23" class="node">
<title>Node26</title>
<g id="a_node23"><a xlink:title=" ">
<polygon fill="#e0e0e0" stroke="#999999" points="900,-261 850,-261 850,-242 900,-242 900,-261"/>
<text text-anchor="middle" x="875" y="-249" font-family="Helvetica,sans-Serif" font-size="10.00">chrono</text>
</a>
</g>
</g>
<!-- Node24&#45;&gt;Node26 -->
<g id="edge37" class="edge">
<title>Node24&#45;&gt;Node26</title>
<path fill="none" stroke="#63b8ff" d="M827.16,-351.95C848.97,-345.6 870.71,-334.69 884,-316 893.36,-302.84 889.22,-284.21 883.88,-270.53"/>
<polygon fill="#63b8ff" stroke="#63b8ff" points="887.01,-268.94 879.76,-261.21 880.6,-271.77 887.01,-268.94"/>
</g>
<!-- Node27 -->
<g id="node24" class="node">
<title>Node27</title>
<g id="a_node24"><a xlink:title=" ">
<polygon fill="#e0e0e0" stroke="#999999" points="537.5,-316 484.5,-316 484.5,-297 537.5,-297 537.5,-316"/>
<text text-anchor="middle" x="511" y="-304" font-family="Helvetica,sans-Serif" font-size="10.00">iterator</text>
</a>
</g>
</g>
<!-- Node24&#45;&gt;Node27 -->
<g id="edge38" class="edge">
<title>Node24&#45;&gt;Node27</title>
<path fill="none" stroke="#63b8ff" d="M716.64,-351.98C670.08,-341.91 593.19,-325.28 547.79,-315.46"/>
<polygon fill="#63b8ff" stroke="#63b8ff" points="548.29,-311.99 537.78,-313.29 546.81,-318.83 548.29,-311.99"/>
</g>
<!-- Node24&#45;&gt;Node28 -->
<g id="edge43" class="edge">
<title>Node24&#45;&gt;Node28</title>
<path fill="none" stroke="#63b8ff" d="M730.39,-351.95C704.46,-343.22 663.29,-329.11 628,-316 606.49,-308.01 602,-303.51 580,-297 502.19,-273.98 479.58,-281.27 401,-261 334.81,-243.92 259.03,-218.6 216.51,-203.85"/>
<polygon fill="#63b8ff" stroke="#63b8ff" points="217.54,-200.5 206.95,-200.52 215.24,-207.11 217.54,-200.5"/>
</g>
<!-- Node24&#45;&gt;Node30 -->
<g id="edge47" class="edge">
<title>Node24&#45;&gt;Node30</title>
<path fill="none" stroke="#63b8ff" d="M745.47,-351.83C734.83,-343.01 718.03,-328.83 704,-316 686.84,-300.31 667.89,-281.63 654.9,-268.61"/>
<polygon fill="#63b8ff" stroke="#63b8ff" points="657.18,-265.94 647.65,-261.31 652.22,-270.88 657.18,-265.94"/>
</g>
<!-- Node24&#45;&gt;Node33 -->
<g id="edge63" class="edge">
<title>Node24&#45;&gt;Node33</title>
<path fill="none" stroke="#63b8ff" d="M759.71,-351.8C769.52,-329.81 798.41,-271.66 841,-242 874.92,-218.38 919.6,-205.9 956.2,-199.31"/>
<polygon fill="#63b8ff" stroke="#63b8ff" points="957.02,-202.72 966.29,-197.6 955.85,-195.82 957.02,-202.72"/>
</g>
<!-- Node24&#45;&gt;Node35 -->
<g id="edge66" class="edge">
<title>Node24&#45;&gt;Node35</title>
<path fill="none" stroke="#63b8ff" d="M798.9,-351.98C845.37,-342.76 919.59,-328.03 969.76,-318.07"/>
<polygon fill="#63b8ff" stroke="#63b8ff" points="970.64,-321.46 979.77,-316.08 969.28,-314.6 970.64,-321.46"/>
</g>
<!-- Node28&#45;&gt;Node3 -->
<g id="edge45" class="edge">
<title>Node28&#45;&gt;Node3</title>
<path fill="none" stroke="#63b8ff" d="M251.33,-181.47C270.6,-179.36 291.6,-177.32 311,-176 479.96,-164.53 1730.65,-136.95 1948.64,-132.2"/>
<polygon fill="#63b8ff" stroke="#63b8ff" points="1948.87,-135.7 1958.79,-131.98 1948.71,-128.7 1948.87,-135.7"/>
</g>
<!-- Node28&#45;&gt;Node16 -->
<g id="edge46" class="edge">
<title>Node28&#45;&gt;Node16</title>
<path fill="none" stroke="#63b8ff" d="M191.84,-181.43C207.7,-166.59 242.62,-136.24 278,-121 335.99,-96.03 406.34,-83.5 460.27,-77.23"/>
<polygon fill="#63b8ff" stroke="#63b8ff" points="460.93,-80.68 470.49,-76.1 460.16,-73.72 460.93,-80.68"/>
</g>
<!-- Node29 -->
<g id="node26" class="node">
<title>Node29</title>
<g id="a_node26"><a xlink:title=" ">
<polygon fill="#e0e0e0" stroke="#999999" points="215.5,-140 150.5,-140 150.5,-121 215.5,-121 215.5,-140"/>
<text text-anchor="middle" x="183" y="-128" font-family="Helvetica,sans-Serif" font-size="10.00">stdexcept</text>
</a>
</g>
</g>
<!-- Node28&#45;&gt;Node29 -->
<g id="edge44" class="edge">
<title>Node28&#45;&gt;Node29</title>
<path fill="none" stroke="#63b8ff" d="M183,-181.37C183,-173.25 183,-160.81 183,-150.39"/>
<polygon fill="#63b8ff" stroke="#63b8ff" points="186.5,-150.17 183,-140.17 179.5,-150.17 186.5,-150.17"/>
</g>
<!-- Node30&#45;&gt;Node11 -->
<g id="edge49" class="edge">
<title>Node30&#45;&gt;Node11</title>
<path fill="none" stroke="#63b8ff" d="M660.38,-241.9C697.9,-227.02 778.24,-196.15 848,-176 955.63,-144.91 982.86,-135.1 1094,-121 1132.52,-116.11 2370.37,-78.84 2596.67,-72.06"/>
<polygon fill="#63b8ff" stroke="#63b8ff" points="2597.07,-75.55 2606.96,-71.75 2596.86,-68.55 2597.07,-75.55"/>
</g>
<!-- Node30&#45;&gt;Node12 -->
<g id="edge52" class="edge">
<title>Node30&#45;&gt;Node12</title>
<path fill="none" stroke="#63b8ff" d="M657.53,-241.97C693.41,-225.9 775.25,-191.34 848,-176 1033.36,-136.91 1256.87,-130.76 1373.79,-130.58"/>
<polygon fill="#63b8ff" stroke="#63b8ff" points="1374.08,-134.08 1384.08,-130.58 1374.08,-127.08 1374.08,-134.08"/>
</g>
<!-- Node30&#45;&gt;Node15 -->
<g id="edge50" class="edge">
<title>Node30&#45;&gt;Node15</title>
<path fill="none" stroke="#63b8ff" d="M640.17,-241.96C644.92,-207.48 662.71,-78.08 669.42,-29.28"/>
<polygon fill="#63b8ff" stroke="#63b8ff" points="672.91,-29.57 670.81,-19.19 665.98,-28.62 672.91,-29.57"/>
</g>
<!-- Node30&#45;&gt;Node16 -->
<g id="edge60" class="edge">
<title>Node30&#45;&gt;Node16</title>
<path fill="none" stroke="#63b8ff" d="M634.47,-241.84C619.92,-214.06 574.2,-126.77 554.35,-88.86"/>
<polygon fill="#63b8ff" stroke="#63b8ff" points="557.23,-86.81 549.49,-79.57 551.03,-90.05 557.23,-86.81"/>
</g>
<!-- Node30&#45;&gt;Node28 -->
<g id="edge53" class="edge">
<title>Node30&#45;&gt;Node28</title>
<path fill="none" stroke="#63b8ff" d="M572.69,-241.99C489.53,-231.32 347.24,-213.07 259.54,-201.82"/>
<polygon fill="#63b8ff" stroke="#63b8ff" points="259.75,-198.32 249.39,-200.52 258.86,-205.26 259.75,-198.32"/>
</g>
<!-- Node31 -->
<g id="node28" class="node">
<title>Node31</title>
<g id="a_node28"><a xlink:title=" ">
<polygon fill="#e0e0e0" stroke="#999999" points="752,-140 700,-140 700,-121 752,-121 752,-140"/>
<text text-anchor="middle" x="726" y="-128" font-family="Helvetica,sans-Serif" font-size="10.00">cassert</text>
</a>
</g>
</g>
<!-- Node30&#45;&gt;Node31 -->
<g id="edge48" class="edge">
<title>Node30&#45;&gt;Node31</title>
<path fill="none" stroke="#63b8ff" d="M650.04,-241.81C660.23,-233.4 675.35,-219.93 686,-206 699.47,-188.37 710.98,-165.6 718.15,-149.89"/>
<polygon fill="#63b8ff" stroke="#63b8ff" points="721.54,-150.86 722.38,-140.3 715.14,-148.03 721.54,-150.86"/>
</g>
<!-- Node32 -->
<g id="node29" class="node">
<title>Node32</title>
<g id="a_node29"><a xlink:title=" ">
<polygon fill="#e0e0e0" stroke="#999999" points="1350.5,-200.5 1305.5,-200.5 1305.5,-181.5 1350.5,-181.5 1350.5,-200.5"/>
<text text-anchor="middle" x="1328" y="-188.5" font-family="Helvetica,sans-Serif" font-size="10.00">utility</text>
</a>
</g>
</g>
<!-- Node30&#45;&gt;Node32 -->
<g id="edge51" class="edge">
<title>Node30&#45;&gt;Node32</title>
<path fill="none" stroke="#63b8ff" d="M718.04,-243.79C868.76,-230.99 1191.51,-203.59 1295.2,-194.79"/>
<polygon fill="#63b8ff" stroke="#63b8ff" points="1295.7,-198.26 1305.37,-193.92 1295.11,-191.28 1295.7,-198.26"/>
</g>
<!-- Node30&#45;&gt;Node33 -->
<g id="edge54" class="edge">
<title>Node30&#45;&gt;Node33</title>
<path fill="none" stroke="#63b8ff" d="M694.84,-241.99C764.17,-231.43 882.31,-213.43 956.33,-202.16"/>
<polygon fill="#63b8ff" stroke="#63b8ff" points="957.11,-205.58 966.47,-200.61 956.06,-198.66 957.11,-205.58"/>
</g>
<!-- Node30&#45;&gt;Node34 -->
<g id="edge61" class="edge">
<title>Node30&#45;&gt;Node34</title>
<path fill="none" stroke="#63b8ff" d="M602.36,-241.99C564.51,-233.21 504.49,-219.27 457.42,-208.35"/>
<polygon fill="#63b8ff" stroke="#63b8ff" points="458.12,-204.92 447.58,-206.06 456.53,-211.73 458.12,-204.92"/>
</g>
<!-- Node33&#45;&gt;Node3 -->
<g id="edge56" class="edge">
<title>Node33&#45;&gt;Node3</title>
<path fill="none" stroke="#63b8ff" d="M1079.77,-181.89C1096.56,-179.71 1114.99,-177.54 1132,-176 1449.92,-147.29 1836.62,-135.33 1948.98,-132.31"/>
<polygon fill="#63b8ff" stroke="#63b8ff" points="1949.08,-135.81 1958.98,-132.04 1948.89,-128.81 1949.08,-135.81"/>
</g>
<!-- Node33&#45;&gt;Node7 -->
<g id="edge57" class="edge">
<title>Node33&#45;&gt;Node7</title>
<path fill="none" stroke="#63b8ff" d="M1032.58,-175.82C1044.69,-159.26 1067.2,-132.65 1094,-121 1183.6,-82.05 1876.86,-73.08 2064.37,-71.36"/>
<polygon fill="#63b8ff" stroke="#63b8ff" points="2064.49,-74.86 2074.46,-71.27 2064.43,-67.86 2064.49,-74.86"/>
</g>
<!-- Node33&#45;&gt;Node12 -->
<g id="edge58" class="edge">
<title>Node33&#45;&gt;Node12</title>
<path fill="none" stroke="#63b8ff" d="M1079.79,-182.29C1157.22,-171.78 1295.98,-152.95 1381.04,-141.4"/>
<polygon fill="#63b8ff" stroke="#63b8ff" points="1381.7,-144.85 1391.14,-140.03 1380.76,-137.91 1381.7,-144.85"/>
</g>
<!-- Node33&#45;&gt;Node16 -->
<g id="edge59" class="edge">
<title>Node33&#45;&gt;Node16</title>
<path fill="none" stroke="#63b8ff" d="M980.71,-175.94C935,-161.06 859.86,-137.49 794,-121 729.78,-104.91 655.23,-90.5 604.56,-81.32"/>
<polygon fill="#63b8ff" stroke="#63b8ff" points="604.9,-77.83 594.44,-79.5 603.66,-84.72 604.9,-77.83"/>
</g>
<!-- Node33&#45;&gt;Node31 -->
<g id="edge55" class="edge">
<title>Node33&#45;&gt;Node31</title>
<path fill="none" stroke="#63b8ff" d="M966.44,-178.86C906.29,-167.01 812.96,-148.63 762.08,-138.61"/>
<polygon fill="#63b8ff" stroke="#63b8ff" points="762.68,-135.16 752.2,-136.66 761.33,-142.03 762.68,-135.16"/>
</g>
<!-- Node34&#45;&gt;Node16 -->
<g id="edge62" class="edge">
<title>Node34&#45;&gt;Node16</title>
<path fill="none" stroke="#63b8ff" d="M402.33,-175.89C418.27,-161.49 444.16,-138.78 468,-121 485.46,-107.98 506.22,-94.61 521.78,-84.98"/>
<polygon fill="#63b8ff" stroke="#63b8ff" points="524.02,-87.71 530.72,-79.5 520.37,-81.74 524.02,-87.71"/>
</g>
<!-- Node35&#45;&gt;Node3 -->
<g id="edge70" class="edge">
<title>Node35&#45;&gt;Node3</title>
<path fill="none" stroke="#63b8ff" d="M1045.44,-296.94C1064.57,-289.09 1092.34,-276.37 1114,-261 1157.83,-229.9 1150.89,-197.83 1200,-176 1269.1,-145.29 1809.1,-134.33 1948.34,-132"/>
<polygon fill="#63b8ff" stroke="#63b8ff" points="1948.81,-135.5 1958.75,-131.83 1948.69,-128.5 1948.81,-135.5"/>
</g>
<!-- Node35&#45;&gt;Node7 -->
<g id="edge71" class="edge">
<title>Node35&#45;&gt;Node7</title>
<path fill="none" stroke="#63b8ff" d="M1022.14,-296.97C1020.48,-284.06 1015.89,-259.24 1004,-242 989.06,-220.34 968.65,-229.59 957,-206 951.1,-194.04 950.08,-187.39 957,-176 984.56,-130.64 1011.75,-134.81 1063,-121 1255.82,-69.06 1887.11,-69.41 2064.35,-70.58"/>
<polygon fill="#63b8ff" stroke="#63b8ff" points="2064.37,-74.08 2074.39,-70.65 2064.42,-67.08 2064.37,-74.08"/>
</g>
<!-- Node35&#45;&gt;Node11 -->
<g id="edge68" class="edge">
<title>Node35&#45;&gt;Node11</title>
<path fill="none" stroke="#63b8ff" d="M1029.55,-296.67C1047.47,-273.17 1099.94,-208.66 1159,-176 1245.69,-128.06 1276.97,-135.27 1375,-121 1498.69,-103 2406.32,-77.21 2596.94,-71.96"/>
<polygon fill="#63b8ff" stroke="#63b8ff" points="2597.07,-75.45 2606.97,-71.68 2596.88,-68.46 2597.07,-75.45"/>
</g>
<!-- Node35&#45;&gt;Node16 -->
<g id="edge73" class="edge">
<title>Node35&#45;&gt;Node16</title>
<path fill="none" stroke="#63b8ff" d="M1007.25,-296.98C991.65,-288.38 967.24,-274.47 947,-261 903.94,-232.33 807.89,-142.86 761,-121 718.05,-100.97 666.44,-88.64 624.45,-81.24"/>
<polygon fill="#63b8ff" stroke="#63b8ff" points="624.99,-77.78 614.54,-79.55 623.81,-84.68 624.99,-77.78"/>
</g>
<!-- Node35&#45;&gt;Node26 -->
<g id="edge67" class="edge">
<title>Node35&#45;&gt;Node26</title>
<path fill="none" stroke="#63b8ff" d="M999.22,-296.98C974.77,-288.23 936.47,-274.51 908.85,-264.62"/>
<polygon fill="#63b8ff" stroke="#63b8ff" points="909.81,-261.25 899.21,-261.17 907.45,-267.84 909.81,-261.25"/>
</g>
<!-- Node35&#45;&gt;Node30 -->
<g id="edge72" class="edge">
<title>Node35&#45;&gt;Node30</title>
<path fill="none" stroke="#63b8ff" d="M961.3,-296.98C892.97,-287.55 782.93,-272.36 710.78,-262.41"/>
<polygon fill="#63b8ff" stroke="#63b8ff" points="711.25,-258.94 700.86,-261.04 710.29,-265.87 711.25,-258.94"/>
</g>
<!-- Node36 -->
<g id="node33" class="node">
<title>Node36</title>
<g id="a_node33"><a xlink:title=" ">
<polygon fill="#e0e0e0" stroke="#999999" points="995.5,-261 956.5,-261 956.5,-242 995.5,-242 995.5,-261"/>
<text text-anchor="middle" x="976" y="-249" font-family="Helvetica,sans-Serif" font-size="10.00">ratio</text>
</a>
</g>
</g>
<!-- Node35&#45;&gt;Node36 -->
<g id="edge69" class="edge">
<title>Node35&#45;&gt;Node36</title>
<path fill="none" stroke="#63b8ff" d="M1015.24,-296.75C1008.53,-289.18 998.66,-278.05 990.49,-268.84"/>
<polygon fill="#63b8ff" stroke="#63b8ff" points="992.87,-266.25 983.62,-261.09 987.63,-270.89 992.87,-266.25"/>
</g>
<!-- Node37&#45;&gt;Node5 -->
<g id="edge79" class="edge">
<title>Node37&#45;&gt;Node5</title>
<path fill="none" stroke="#63b8ff" d="M2956.51,-538.77C2963.23,-522.25 2975.49,-494.52 2990,-473 2998.36,-460.59 3009.63,-448.08 3018.79,-438.68"/>
<polygon fill="#63b8ff" stroke="#63b8ff" points="3021.3,-441.12 3025.89,-431.58 3016.35,-436.18 3021.3,-441.12"/>
</g>
<!-- Node37&#45;&gt;Node11 -->
<g id="edge78" class="edge">
<title>Node37&#45;&gt;Node11</title>
<path fill="none" stroke="#63b8ff" d="M2971.42,-538.74C3024.74,-499.65 3164,-384.87 3164,-252.5 3164,-252.5 3164,-252.5 3164,-190 3164,-87.91 2786.18,-73.38 2667.34,-71.33"/>
<polygon fill="#63b8ff" stroke="#63b8ff" points="2667.35,-67.83 2657.3,-71.18 2667.25,-74.83 2667.35,-67.83"/>
</g>
<!-- Node38&#45;&gt;Node3 -->
<g id="edge82" class="edge">
<title>Node38&#45;&gt;Node3</title>
<path fill="none" stroke="#63b8ff" d="M2403.12,-351.92C2435.74,-341.15 2480.54,-321.14 2460,-297 2395.22,-220.87 2330.79,-298.15 2238,-261 2175.97,-236.16 2173.81,-205.78 2114,-176 2081.14,-159.64 2040.87,-147.12 2013.3,-139.59"/>
<polygon fill="#63b8ff" stroke="#63b8ff" points="2013.96,-136.14 2003.4,-136.95 2012.16,-142.91 2013.96,-136.14"/>
</g>
<!-- Node38&#45;&gt;Node7 -->
<g id="edge83" class="edge">
<title>Node38&#45;&gt;Node7</title>
<path fill="none" stroke="#63b8ff" d="M2374.7,-351.89C2382.09,-313.32 2409.78,-156.83 2380,-121 2352.27,-87.64 2227.21,-76.43 2157.8,-72.75"/>
<polygon fill="#63b8ff" stroke="#63b8ff" points="2157.73,-69.24 2147.57,-72.24 2157.38,-76.23 2157.73,-69.24"/>
</g>
<!-- Node38&#45;&gt;Node11 -->
<g id="edge81" class="edge">
<title>Node38&#45;&gt;Node11</title>
<path fill="none" stroke="#63b8ff" d="M2408.16,-351.96C2430.06,-345.19 2457.65,-333.83 2477,-316 2549.08,-249.58 2521.04,-199.29 2580,-121 2589.63,-108.21 2602.61,-95.73 2613.19,-86.43"/>
<polygon fill="#63b8ff" stroke="#63b8ff" points="2615.72,-88.87 2621.05,-79.72 2611.18,-83.55 2615.72,-88.87"/>
</g>
<!-- Node38&#45;&gt;Node16 -->
<g id="edge87" class="edge">
<title>Node38&#45;&gt;Node16</title>
<path fill="none" stroke="#63b8ff" d="M2364.27,-351.87C2326.45,-315.16 2171.51,-171.6 2012,-121 1878.5,-78.65 891.9,-91.73 752,-85 711.88,-83.07 667.43,-80.17 630.04,-77.5"/>
<polygon fill="#63b8ff" stroke="#63b8ff" points="629.92,-73.98 619.69,-76.76 629.42,-80.97 629.92,-73.98"/>
</g>
<!-- Node38&#45;&gt;Node30 -->
<g id="edge86" class="edge">
<title>Node38&#45;&gt;Node30</title>
<path fill="none" stroke="#63b8ff" d="M2293.46,-358.08C1991.28,-348.87 931.27,-316.53 927,-316 837.08,-304.8 733.84,-278.74 678.67,-263.71"/>
<polygon fill="#63b8ff" stroke="#63b8ff" points="679.52,-260.32 668.95,-261.04 677.66,-267.07 679.52,-260.32"/>
</g>
<!-- Node39 -->
<g id="node36" class="node">
<title>Node39</title>
<g id="a_node36"><a xlink:title=" ">
<polygon fill="#e0e0e0" stroke="#999999" points="2451.5,-316 2400.5,-316 2400.5,-297 2451.5,-297 2451.5,-316"/>
<text text-anchor="middle" x="2426" y="-304" font-family="Helvetica,sans-Serif" font-size="10.00">variant</text>
</a>
</g>
</g>
<!-- Node38&#45;&gt;Node39 -->
<g id="edge84" class="edge">
<title>Node38&#45;&gt;Node39</title>
<path fill="none" stroke="#63b8ff" d="M2381.75,-351.75C2389.47,-344.03 2400.9,-332.6 2410.22,-323.28"/>
<polygon fill="#63b8ff" stroke="#63b8ff" points="2412.81,-325.64 2417.41,-316.09 2407.86,-320.69 2412.81,-325.64"/>
</g>
<!-- Node38&#45;&gt;Node40 -->
<g id="edge85" class="edge">
<title>Node38&#45;&gt;Node40</title>
<path fill="none" stroke="#63b8ff" d="M2328.33,-351.98C2279.84,-342.74 2202.35,-327.97 2150.11,-318.01"/>
<polygon fill="#63b8ff" stroke="#63b8ff" points="2150.49,-314.52 2140.02,-316.08 2149.18,-321.39 2150.49,-314.52"/>
</g>
<!-- Node38&#45;&gt;Node41 -->
<g id="edge88" class="edge">
<title>Node38&#45;&gt;Node41</title>
<path fill="none" stroke="#63b8ff" d="M2293.41,-353.43C2182.02,-343.55 1980.27,-325.63 1864.35,-315.34"/>
<polygon fill="#63b8ff" stroke="#63b8ff" points="1864.36,-311.83 1854.09,-314.43 1863.74,-318.8 1864.36,-311.83"/>
</g>
<!-- Node41&#45;&gt;Node3 -->
<g id="edge91" class="edge">
<title>Node41&#45;&gt;Node3</title>
<path fill="none" stroke="#63b8ff" d="M1801.14,-296.93C1821.04,-289.39 1848.91,-277.11 1870,-261 1913.37,-227.88 1951.82,-175.34 1969.96,-148.5"/>
<polygon fill="#63b8ff" stroke="#63b8ff" points="1972.88,-150.42 1975.5,-140.15 1967.05,-146.55 1972.88,-150.42"/>
</g>
<!-- Node41&#45;&gt;Node7 -->
<g id="edge92" class="edge">
<title>Node41&#45;&gt;Node7</title>
<path fill="none" stroke="#63b8ff" d="M1781.78,-296.67C1801.55,-267.19 1869.69,-171.11 1950,-121 1985.1,-99.09 2030.54,-86.13 2064.18,-78.92"/>
<polygon fill="#63b8ff" stroke="#63b8ff" points="2065.13,-82.3 2074.22,-76.86 2063.73,-75.44 2065.13,-82.3"/>
</g>
<!-- Node41&#45;&gt;Node11 -->
<g id="edge90" class="edge">
<title>Node41&#45;&gt;Node11</title>
<path fill="none" stroke="#63b8ff" d="M1807.23,-296.95C1939.96,-260.58 2456.95,-118.95 2596.9,-80.62"/>
<polygon fill="#63b8ff" stroke="#63b8ff" points="2597.97,-83.95 2606.69,-77.93 2596.12,-77.2 2597.97,-83.95"/>
</g>
<!-- Node41&#45;&gt;Node16 -->
<g id="edge94" class="edge">
<title>Node41&#45;&gt;Node16</title>
<path fill="none" stroke="#63b8ff" d="M1769.24,-296.89C1743.1,-264.5 1644.55,-150.32 1532,-121 1364.09,-77.25 925.24,-94.85 752,-85 711.9,-82.72 667.45,-79.77 630.06,-77.16"/>
<polygon fill="#63b8ff" stroke="#63b8ff" points="629.93,-73.65 619.71,-76.44 629.44,-80.63 629.93,-73.65"/>
</g>
<!-- Node41&#45;&gt;Node25 -->
<g id="edge89" class="edge">
<title>Node41&#45;&gt;Node25</title>
<path fill="none" stroke="#63b8ff" d="M1738.24,-296.98C1692.1,-286.58 1614.88,-269.16 1572.03,-259.5"/>
<polygon fill="#63b8ff" stroke="#63b8ff" points="1572.69,-256.06 1562.17,-257.27 1571.15,-262.89 1572.69,-256.06"/>
</g>
<!-- Node41&#45;&gt;Node30 -->
<g id="edge93" class="edge">
<title>Node41&#45;&gt;Node30</title>
<path fill="none" stroke="#63b8ff" d="M1697.85,-301.86C1493.51,-292.33 944.24,-266.73 728.11,-256.65"/>
<polygon fill="#63b8ff" stroke="#63b8ff" points="728.23,-253.16 718.08,-256.19 727.9,-260.15 728.23,-253.16"/>
</g>
<!-- Node42&#45;&gt;Node3 -->
<g id="edge105" class="edge">
<title>Node42&#45;&gt;Node3</title>
<path fill="none" stroke="#63b8ff" d="M1984.04,-412.44C2025.15,-403.76 2080.84,-389.04 2094,-371 2124.92,-328.61 2046.79,-351.57 2019,-316 1980.12,-266.24 1978.27,-186.57 1979.71,-150.43"/>
<polygon fill="#63b8ff" stroke="#63b8ff" points="1983.22,-150.49 1980.25,-140.32 1976.23,-150.11 1983.22,-150.49"/>
</g>
<!-- Node42&#45;&gt;Node8 -->
<g id="edge106" class="edge">
<title>Node42&#45;&gt;Node8</title>
<path fill="none" stroke="#63b8ff" d="M1993.07,-412.48C2006.75,-410.52 2021.39,-408.56 2035,-407 2223.78,-385.42 2273.94,-404.32 2461,-371 2532.61,-358.24 2614.18,-333.28 2658.68,-318.75"/>
<polygon fill="#63b8ff" stroke="#63b8ff" points="2659.99,-322 2668.39,-315.55 2657.8,-315.35 2659.99,-322"/>
</g>
<!-- Node42&#45;&gt;Node11 -->
<g id="edge97" class="edge">
<title>Node42&#45;&gt;Node11</title>
<path fill="none" stroke="#63b8ff" d="M1977.99,-412.44C2013.88,-404.08 2067.59,-389.86 2112,-371 2217.18,-326.34 2523.7,-138.08 2609.47,-84.99"/>
<polygon fill="#63b8ff" stroke="#63b8ff" points="2611.5,-87.85 2618.16,-79.6 2607.81,-81.9 2611.5,-87.85"/>
</g>
<!-- Node42&#45;&gt;Node12 -->
<g id="edge98" class="edge">
<title>Node42&#45;&gt;Node12</title>
<path fill="none" stroke="#63b8ff" d="M1937.21,-412.46C1934.8,-390.79 1925.78,-332.84 1896,-297 1805.12,-187.64 1634.34,-150.49 1533.75,-137.91"/>
<polygon fill="#63b8ff" stroke="#63b8ff" points="1533.98,-134.41 1523.64,-136.7 1533.15,-141.36 1533.98,-134.41"/>
</g>
<!-- Node42&#45;&gt;Node24 -->
<g id="edge100" class="edge">
<title>Node42&#45;&gt;Node24</title>
<path fill="none" stroke="#63b8ff" d="M1849.99,-416.79C1673.31,-408.31 1262.84,-388.5 918,-371 895.46,-369.86 871.15,-368.6 848.4,-367.4"/>
<polygon fill="#63b8ff" stroke="#63b8ff" points="848.58,-363.91 838.41,-366.88 848.21,-370.9 848.58,-363.91"/>
</g>
<!-- Node42&#45;&gt;Node30 -->
<g id="edge101" class="edge">
<title>Node42&#45;&gt;Node30</title>
<path fill="none" stroke="#63b8ff" d="M1849.91,-419.99C1659.66,-416.22 1197.07,-398.55 820,-316 764.78,-303.91 703.21,-279.94 667.99,-265.15"/>
<polygon fill="#63b8ff" stroke="#63b8ff" points="668.94,-261.75 658.36,-261.06 666.2,-268.19 668.94,-261.75"/>
</g>
<!-- Node42&#45;&gt;Node38 -->
<g id="edge103" class="edge">
<title>Node42&#45;&gt;Node38</title>
<path fill="none" stroke="#63b8ff" d="M1996.2,-412.48C2008.98,-410.64 2022.44,-408.73 2035,-407 2124.51,-394.65 2227.46,-381.2 2295.99,-372.36"/>
<polygon fill="#63b8ff" stroke="#63b8ff" points="2296.8,-375.79 2306.27,-371.04 2295.9,-368.84 2296.8,-375.79"/>
</g>
<!-- Node42&#45;&gt;Node40 -->
<g id="edge99" class="edge">
<title>Node42&#45;&gt;Node40</title>
<path fill="none" stroke="#63b8ff" d="M1943.02,-412.24C1951.6,-397.91 1970.4,-369.35 1993,-352 2011.83,-337.54 2036.09,-326.71 2056.22,-319.36"/>
<polygon fill="#63b8ff" stroke="#63b8ff" points="2057.45,-322.63 2065.73,-316.02 2055.14,-316.03 2057.45,-322.63"/>
</g>
<!-- Node42&#45;&gt;Node41 -->
<g id="edge102" class="edge">
<title>Node42&#45;&gt;Node41</title>
<path fill="none" stroke="#63b8ff" d="M1931.79,-412.33C1921.27,-398.14 1898.65,-369.77 1874,-352 1854.94,-338.26 1830.96,-327.28 1811.49,-319.66"/>
<polygon fill="#63b8ff" stroke="#63b8ff" points="1812.64,-316.36 1802.05,-316.1 1810.17,-322.91 1812.64,-316.36"/>
</g>
<!-- Node43 -->
<g id="node40" class="node">
<title>Node43</title>
<g id="a_node40"><a xlink:title=" ">
<polygon fill="#e0e0e0" stroke="#999999" points="2085.5,-371 2002.5,-371 2002.5,-352 2085.5,-352 2085.5,-371"/>
<text text-anchor="middle" x="2044" y="-359" font-family="Helvetica,sans-Serif" font-size="10.00">initializer_list</text>
</a>
</g>
</g>
<!-- Node42&#45;&gt;Node43 -->
<g id="edge104" class="edge">
<title>Node42&#45;&gt;Node43</title>
<path fill="none" stroke="#63b8ff" d="M1953.64,-412.37C1970.94,-402.82 1999.05,-387.31 2019.33,-376.12"/>
<polygon fill="#63b8ff" stroke="#63b8ff" points="2021.23,-379.06 2028.3,-371.17 2017.85,-372.93 2021.23,-379.06"/>
</g>
<!-- Node44&#45;&gt;Node7 -->
<g id="edge114" class="edge">
<title>Node44&#45;&gt;Node7</title>
<path fill="none" stroke="#63b8ff" d="M1495.53,-610.47C1471.93,-603.53 1445.28,-591.1 1431,-569 1405.34,-529.3 1454.27,-453.4 1559,-352 1696.11,-219.24 1746.17,-197.54 1921,-121 1967.85,-100.49 2025,-86.85 2064.32,-79.07"/>
<polygon fill="#63b8ff" stroke="#63b8ff" points="2065,-82.5 2074.16,-77.17 2063.68,-75.63 2065,-82.5"/>
</g>
<!-- Node44&#45;&gt;Node8 -->
<g id="edge116" class="edge">
<title>Node44&#45;&gt;Node8</title>
<path fill="none" stroke="#63b8ff" d="M1602.07,-612.69C1796.07,-591.65 2403.61,-520.5 2581,-437 2625.23,-416.18 2639.91,-410.29 2669,-371 2678.92,-357.6 2684.92,-339.5 2688.29,-326.05"/>
<polygon fill="#63b8ff" stroke="#63b8ff" points="2691.76,-326.57 2690.53,-316.05 2684.93,-325.04 2691.76,-326.57"/>
</g>
<!-- Node44&#45;&gt;Node11 -->
<g id="edge113" class="edge">
<title>Node44&#45;&gt;Node11</title>
<path fill="none" stroke="#63b8ff" d="M1602.01,-618.81C1771.7,-616.25 2266.69,-594.78 2637,-437 2742.44,-392.07 2860,-422.11 2860,-307.5 2860,-307.5 2860,-307.5 2860,-190 2860,-104.14 2731.36,-80.12 2667.33,-73.49"/>
<polygon fill="#63b8ff" stroke="#63b8ff" points="2667.56,-69.99 2657.27,-72.53 2666.9,-76.96 2667.56,-69.99"/>
</g>
<!-- Node44&#45;&gt;Node12 -->
<g id="edge117" class="edge">
<title>Node44&#45;&gt;Node12</title>
<path fill="none" stroke="#63b8ff" d="M1481.8,-614.16C1451.4,-608.31 1417.02,-595.74 1398,-569 1373.3,-534.28 1433.87,-229.28 1450.12,-150.17"/>
<polygon fill="#63b8ff" stroke="#63b8ff" points="1453.58,-150.7 1452.18,-140.2 1446.73,-149.29 1453.58,-150.7"/>
</g>
<!-- Node44&#45;&gt;Node24 -->
<g id="edge118" class="edge">
<title>Node44&#45;&gt;Node24</title>
<path fill="none" stroke="#63b8ff" d="M1481.78,-616.01C1372.73,-610.04 1147,-594.92 1073,-569 945.46,-524.32 818.18,-418.08 773.11,-378.09"/>
<polygon fill="#63b8ff" stroke="#63b8ff" points="775.23,-375.28 765.44,-371.21 770.55,-380.5 775.23,-375.28"/>
</g>
<!-- Node44&#45;&gt;Node32 -->
<g id="edge115" class="edge">
<title>Node44&#45;&gt;Node32</title>
<path fill="none" stroke="#63b8ff" d="M1481.82,-612.72C1422.72,-605.37 1338.03,-591.28 1314,-569 1286.78,-543.76 1290,-526.12 1290,-489 1290,-489 1290,-489 1290,-421 1290,-348.81 1306.6,-332.29 1318,-261 1320.72,-244.01 1323.5,-224.6 1325.44,-210.71"/>
<polygon fill="#63b8ff" stroke="#63b8ff" points="1328.95,-210.9 1326.85,-200.51 1322.01,-209.94 1328.95,-210.9"/>
</g>
<!-- Node44&#45;&gt;Node38 -->
<g id="edge156" class="edge">
<title>Node44&#45;&gt;Node38</title>
<path fill="none" stroke="#63b8ff" d="M1584.2,-610.44C1691.51,-588.07 1982.77,-523.52 2215,-437 2263.47,-418.94 2317.48,-391.88 2348.14,-375.83"/>
<polygon fill="#63b8ff" stroke="#63b8ff" points="2350.02,-378.79 2357.23,-371.03 2346.76,-372.6 2350.02,-378.79"/>
</g>
<!-- Node44&#45;&gt;Node41 -->
<g id="edge153" class="edge">
<title>Node44&#45;&gt;Node41</title>
<path fill="none" stroke="#63b8ff" d="M1549.1,-610.33C1556.59,-600.77 1568.23,-584.66 1575,-569 1589.51,-535.46 1594,-525.54 1594,-489 1594,-489 1594,-489 1594,-421 1594,-388.53 1594.36,-374.26 1618,-352 1637.05,-334.06 1662.76,-323.27 1687.9,-316.8"/>
<polygon fill="#63b8ff" stroke="#63b8ff" points="1688.94,-320.15 1697.86,-314.45 1687.33,-313.34 1688.94,-320.15"/>
</g>
<!-- Node44&#45;&gt;Node42 -->
<g id="edge154" class="edge">
<title>Node44&#45;&gt;Node42</title>
<path fill="none" stroke="#63b8ff" d="M1559.27,-610.45C1621.67,-579.57 1835.75,-473.61 1911.32,-436.2"/>
<polygon fill="#63b8ff" stroke="#63b8ff" points="1913.23,-439.17 1920.64,-431.59 1910.12,-432.89 1913.23,-439.17"/>
</g>
<!-- Node45 -->
<g id="node42" class="node">
<title>Node45</title>
<g id="a_node42"><a xlink:href="Attribute_8h.html" target="_top" xlink:title=" ">
<polygon fill="white" stroke="#666666" points="1566,-569 1440,-569 1440,-539 1566,-539 1566,-569"/>
<text text-anchor="start" x="1448" y="-557" font-family="Helvetica,sans-Serif" font-size="10.00">open62541pp/services</text>
<text text-anchor="middle" x="1503" y="-546" font-family="Helvetica,sans-Serif" font-size="10.00">/Attribute.h</text>
</a>
</g>
</g>
<!-- Node44&#45;&gt;Node45 -->
<g id="edge119" class="edge">
<title>Node44&#45;&gt;Node45</title>
<path fill="none" stroke="#63b8ff" d="M1536.74,-610.37C1531.69,-602.08 1523.83,-589.18 1516.97,-577.92"/>
<polygon fill="#63b8ff" stroke="#63b8ff" points="1519.94,-576.08 1511.75,-569.36 1513.97,-579.72 1519.94,-576.08"/>
</g>
<!-- Node44&#45;&gt;Node46 -->
<g id="edge155" class="edge">
<title>Node44&#45;&gt;Node46</title>
<path fill="none" stroke="#63b8ff" d="M1481.85,-611.83C1427.28,-604.36 1345.04,-590.67 1276,-569 1219.22,-551.18 1156.55,-520.15 1122.81,-502.43"/>
<polygon fill="#63b8ff" stroke="#63b8ff" points="1124.17,-499.19 1113.7,-497.59 1120.89,-505.37 1124.17,-499.19"/>
</g>
<!-- Node44&#45;&gt;Node47 -->
<g id="edge157" class="edge">
<title>Node44&#45;&gt;Node47</title>
<path fill="none" stroke="#63b8ff" d="M1481.66,-613.01C1356.54,-599.51 1074.39,-563.1 1001,-503 981.1,-486.71 968.08,-459.4 961.12,-441.29"/>
<polygon fill="#63b8ff" stroke="#63b8ff" points="964.4,-440.07 957.73,-431.85 957.82,-442.44 964.4,-440.07"/>
</g>
<!-- Node48 -->
<g id="node45" class="node">
<title>Node48</title>
<g id="a_node45"><a xlink:href="NodeManagement_8h.html" target="_top" xlink:title=" ">
<polygon fill="white" stroke="#666666" points="2170,-437 2044,-437 2044,-407 2170,-407 2170,-437"/>
<text text-anchor="start" x="2052" y="-425" font-family="Helvetica,sans-Serif" font-size="10.00">open62541pp/services</text>
<text text-anchor="middle" x="2107" y="-414" font-family="Helvetica,sans-Serif" font-size="10.00">/NodeManagement.h</text>
</a>
</g>
</g>
<!-- Node44&#45;&gt;Node48 -->
<g id="edge147" class="edge">
<title>Node44&#45;&gt;Node48</title>
<path fill="none" stroke="#63b8ff" d="M1567.07,-610.46C1596.17,-600.54 1645.58,-583.65 1688,-569 1821.54,-522.87 1978.8,-467.9 2057.24,-440.43"/>
<polygon fill="#63b8ff" stroke="#63b8ff" points="2058.59,-443.67 2066.87,-437.06 2056.27,-437.06 2058.59,-443.67"/>
</g>
<!-- Node45&#45;&gt;Node8 -->
<g id="edge121" class="edge">
<title>Node45&#45;&gt;Node8</title>
<path fill="none" stroke="#63b8ff" d="M1566.25,-547.4C1657.09,-539.12 1829.68,-522.46 1976,-503 2059.44,-491.91 2079.77,-485.6 2163,-473 2275.3,-456 2306.63,-467.64 2416,-437 2515.21,-409.21 2623.12,-348.81 2669.14,-321.46"/>
<polygon fill="#63b8ff" stroke="#63b8ff" points="2671.22,-324.29 2678,-316.15 2667.62,-318.29 2671.22,-324.29"/>
</g>
<!-- Node45&#45;&gt;Node11 -->
<g id="edge120" class="edge">
<title>Node45&#45;&gt;Node11</title>
<path fill="none" stroke="#63b8ff" d="M1566.2,-552.8C1702.38,-551.56 2033.34,-544.15 2307,-503 2430.87,-484.38 2465.26,-484.91 2581,-437 2667.13,-401.35 2746,-400.72 2746,-307.5 2746,-307.5 2746,-307.5 2746,-190 2746,-140.05 2692.98,-102.88 2659.26,-84.3"/>
<polygon fill="#63b8ff" stroke="#63b8ff" points="2660.79,-81.15 2650.32,-79.55 2657.51,-87.33 2660.79,-81.15"/>
</g>
<!-- Node45&#45;&gt;Node12 -->
<g id="edge122" class="edge">
<title>Node45&#45;&gt;Node12</title>
<path fill="none" stroke="#63b8ff" d="M1503.38,-538.78C1504.22,-499.89 1505.36,-388.58 1494,-297 1487.23,-242.41 1482.05,-229.18 1468,-176 1465.72,-167.39 1462.82,-157.96 1460.25,-150.01"/>
<polygon fill="#63b8ff" stroke="#63b8ff" points="1463.5,-148.69 1457.03,-140.29 1456.85,-150.89 1463.5,-148.69"/>
</g>
<!-- Node45&#45;&gt;Node30 -->
<g id="edge123" class="edge">
<title>Node45&#45;&gt;Node30</title>
<path fill="none" stroke="#63b8ff" d="M1439.78,-552C1244.57,-547.97 654.54,-528.34 490,-437 429.69,-403.52 379.42,-350.47 423,-297 439.22,-277.1 497.72,-265.84 549.75,-259.62"/>
<polygon fill="#63b8ff" stroke="#63b8ff" points="550.18,-263.1 559.72,-258.48 549.39,-256.14 550.18,-263.1"/>
</g>
<!-- Node45&#45;&gt;Node33 -->
<g id="edge124" class="edge">
<title>Node45&#45;&gt;Node33</title>
<path fill="none" stroke="#63b8ff" d="M1492.88,-538.79C1457.27,-489.84 1332.21,-326.58 1190,-242 1159.37,-223.78 1121.58,-211.75 1089.71,-204.06"/>
<polygon fill="#63b8ff" stroke="#63b8ff" points="1090.11,-200.56 1079.58,-201.71 1088.53,-207.38 1090.11,-200.56"/>
</g>
<!-- Node45&#45;&gt;Node38 -->
<g id="edge145" class="edge">
<title>Node45&#45;&gt;Node38</title>
<path fill="none" stroke="#63b8ff" d="M1566.24,-545.73C1712.05,-528.38 2067.88,-482.62 2179,-437 2200.56,-428.15 2201,-417.09 2222,-407 2253.54,-391.85 2291.3,-380.72 2321.17,-373.38"/>
<polygon fill="#63b8ff" stroke="#63b8ff" points="2322.06,-376.77 2330.98,-371.04 2320.44,-369.96 2322.06,-376.77"/>
</g>
<!-- Node45&#45;&gt;Node41 -->
<g id="edge125" class="edge">
<title>Node45&#45;&gt;Node41</title>
<path fill="none" stroke="#63b8ff" d="M1504.01,-538.76C1507.42,-501.85 1521.83,-402.42 1580,-352 1597.78,-336.59 1651.22,-325.07 1697.81,-317.61"/>
<polygon fill="#63b8ff" stroke="#63b8ff" points="1698.6,-321.03 1707.94,-316.04 1697.52,-314.12 1698.6,-321.03"/>
</g>
<!-- Node45&#45;&gt;Node46 -->
<g id="edge126" class="edge">
<title>Node45&#45;&gt;Node46</title>
<path fill="none" stroke="#63b8ff" d="M1439.72,-543C1364.03,-531.04 1238.04,-511.13 1162.02,-499.12"/>
<polygon fill="#63b8ff" stroke="#63b8ff" points="1162.52,-495.65 1152.09,-497.55 1161.43,-502.57 1162.52,-495.65"/>
</g>
<!-- Node45&#45;&gt;Node47 -->
<g id="edge146" class="edge">
<title>Node45&#45;&gt;Node47</title>
<path fill="none" stroke="#63b8ff" d="M1451.79,-538.95C1390.64,-522.36 1285.19,-494.33 1194,-473 1130.61,-458.17 1057.26,-443.14 1008.72,-433.49"/>
<polygon fill="#63b8ff" stroke="#63b8ff" points="1009.24,-430.02 998.75,-431.51 1007.88,-436.89 1009.24,-430.02"/>
</g>
<!-- Node46&#45;&gt;Node11 -->
<g id="edge127" class="edge">
<title>Node46&#45;&gt;Node11</title>
<path fill="none" stroke="#63b8ff" d="M1185.65,-487.84C1370.24,-488.55 1812.2,-484.58 2179,-437 2317.4,-419.05 2366.9,-443.76 2486,-371 2590.29,-307.29 2621.85,-144.81 2629.72,-89.65"/>
<polygon fill="#63b8ff" stroke="#63b8ff" points="2633.21,-89.96 2631.06,-79.58 2626.27,-89.03 2633.21,-89.96"/>
</g>
<!-- Node46&#45;&gt;Node16 -->
<g id="edge131" class="edge">
<title>Node46&#45;&gt;Node16</title>
<path fill="none" stroke="#63b8ff" d="M1010.21,-483.57C852.84,-476.86 534.89,-460.57 490,-437 428.93,-404.93 406.25,-363.92 423,-297 434.15,-252.47 506.28,-133.38 534.09,-88.47"/>
<polygon fill="#63b8ff" stroke="#63b8ff" points="537.15,-90.18 539.45,-79.84 531.2,-86.48 537.15,-90.18"/>
</g>
<!-- Node46&#45;&gt;Node23 -->
<g id="edge128" class="edge">
<title>Node46&#45;&gt;Node23</title>
<path fill="none" stroke="#63b8ff" d="M1093.97,-478.49C1086.12,-462.65 1067.36,-428.3 1043,-407 1027.23,-393.22 1006.43,-382.44 989.02,-374.95"/>
<polygon fill="#63b8ff" stroke="#63b8ff" points="990.32,-371.7 979.74,-371.13 987.66,-378.18 990.32,-371.7"/>
</g>
<!-- Node46&#45;&gt;Node30 -->
<g id="edge130" class="edge">
<title>Node46&#45;&gt;Node30</title>
<path fill="none" stroke="#63b8ff" d="M1039.81,-478.48C1025.5,-476.53 1010.21,-474.58 996,-473 807.59,-452.1 752.05,-493.18 571,-437 514.35,-419.42 493.26,-416.32 455,-371 433.02,-344.97 413.63,-323.53 435,-297 449.73,-278.71 501.78,-267.54 549.62,-260.96"/>
<polygon fill="#63b8ff" stroke="#63b8ff" points="550.29,-264.4 559.75,-259.63 549.37,-257.46 550.29,-264.4"/>
</g>
<!-- Node46&#45;&gt;Node32 -->
<g id="edge129" class="edge">
<title>Node46&#45;&gt;Node32</title>
<path fill="none" stroke="#63b8ff" d="M1108.61,-478.31C1136.99,-454.64 1215.94,-386.11 1266,-316 1290.84,-281.21 1311.06,-235 1321.11,-209.97"/>
<polygon fill="#63b8ff" stroke="#63b8ff" points="1324.38,-211.22 1324.78,-200.63 1317.86,-208.66 1324.38,-211.22"/>
</g>
<!-- Node46&#45;&gt;Node35 -->
<g id="edge132" class="edge">
<title>Node46&#45;&gt;Node35</title>
<path fill="none" stroke="#63b8ff" d="M1095.5,-478.47C1091.09,-463.7 1081.41,-432.52 1071,-407 1059.03,-377.66 1042.52,-344.75 1032.31,-325.1"/>
<polygon fill="#63b8ff" stroke="#63b8ff" points="1035.35,-323.35 1027.61,-316.12 1029.15,-326.6 1035.35,-323.35"/>
</g>
<!-- Node46&#45;&gt;Node47 -->
<g id="edge133" class="edge">
<title>Node46&#45;&gt;Node47</title>
<path fill="none" stroke="#63b8ff" d="M1078.71,-478.37C1054.3,-467.44 1012.03,-448.52 983.79,-435.88"/>
<polygon fill="#63b8ff" stroke="#63b8ff" points="984.99,-432.59 974.44,-431.7 982.13,-438.98 984.99,-432.59"/>
</g>
<!-- Node47&#45;&gt;Node8 -->
<g id="edge138" class="edge">
<title>Node47&#45;&gt;Node8</title>
<path fill="none" stroke="#63b8ff" d="M1034.76,-415.62C1208.75,-403.91 1635.48,-375.26 1993,-352 2248.81,-335.35 2557.34,-315.95 2658.27,-309.61"/>
<polygon fill="#63b8ff" stroke="#63b8ff" points="2658.7,-313.09 2668.47,-308.97 2658.27,-306.11 2658.7,-313.09"/>
</g>
<!-- Node47&#45;&gt;Node11 -->
<g id="edge135" class="edge">
<title>Node47&#45;&gt;Node11</title>
<path fill="none" stroke="#63b8ff" d="M993.23,-412.47C1090.52,-390.46 1355.14,-328.72 1571,-261 1742.34,-207.25 1774.51,-159.05 1950,-121 2075.3,-93.83 2474.62,-76.92 2596.4,-72.29"/>
<polygon fill="#63b8ff" stroke="#63b8ff" points="2596.79,-75.78 2606.65,-71.91 2596.53,-68.78 2596.79,-75.78"/>
</g>
<!-- Node47&#45;&gt;Node12 -->
<g id="edge139" class="edge">
<title>Node47&#45;&gt;Node12</title>
<path fill="none" stroke="#63b8ff" d="M990.86,-412.45C1019.86,-404.52 1060.98,-390.92 1093,-371 1199.23,-304.92 1187.43,-238.15 1296,-176 1324.66,-159.59 1359.76,-148.92 1389.59,-142.15"/>
<polygon fill="#63b8ff" stroke="#63b8ff" points="1390.45,-145.55 1399.48,-140 1388.97,-138.71 1390.45,-145.55"/>
</g>
<!-- Node47&#45;&gt;Node16 -->
<g id="edge144" class="edge">
<title>Node47&#45;&gt;Node16</title>
<path fill="none" stroke="#63b8ff" d="M875.31,-415.26C719.17,-403.88 385.99,-378.87 362,-371 228.74,-327.26 161.51,-328.39 93,-206 71.81,-168.14 102.68,-141.35 141,-121 194.63,-92.52 358.31,-79.74 460.12,-74.42"/>
<polygon fill="#63b8ff" stroke="#63b8ff" points="460.58,-77.9 470.39,-73.9 460.22,-70.91 460.58,-77.9"/>
</g>
<!-- Node47&#45;&gt;Node23 -->
<g id="edge137" class="edge">
<title>Node47&#45;&gt;Node23</title>
<path fill="none" stroke="#63b8ff" d="M955,-412.37C955,-404.25 955,-391.81 955,-381.39"/>
<polygon fill="#63b8ff" stroke="#63b8ff" points="958.5,-381.17 955,-371.17 951.5,-381.17 958.5,-381.17"/>
</g>
<!-- Node47&#45;&gt;Node24 -->
<g id="edge141" class="edge">
<title>Node47&#45;&gt;Node24</title>
<path fill="none" stroke="#63b8ff" d="M926.06,-412.49C891.43,-402.31 833.3,-385.22 794.79,-373.9"/>
<polygon fill="#63b8ff" stroke="#63b8ff" points="795.55,-370.48 784.97,-371.02 793.58,-377.2 795.55,-370.48"/>
</g>
<!-- Node47&#45;&gt;Node27 -->
<g id="edge136" class="edge">
<title>Node47&#45;&gt;Node27</title>
<path fill="none" stroke="#63b8ff" d="M878.56,-412.49C819.47,-404.8 736.05,-391.5 665,-371 618.82,-357.67 567.69,-334.88 537.5,-320.54"/>
<polygon fill="#63b8ff" stroke="#63b8ff" points="538.63,-317.2 528.1,-316.02 535.6,-323.51 538.63,-317.2"/>
</g>
<!-- Node47&#45;&gt;Node28 -->
<g id="edge140" class="edge">
<title>Node47&#45;&gt;Node28</title>
<path fill="none" stroke="#63b8ff" d="M875.22,-414.99C727.74,-403.71 425.47,-379.72 404,-371 312.52,-333.86 229.11,-245.52 196.98,-208.63"/>
<polygon fill="#63b8ff" stroke="#63b8ff" points="199.43,-206.12 190.26,-200.81 194.12,-210.67 199.43,-206.12"/>
</g>
<!-- Node47&#45;&gt;Node30 -->
<g id="edge142" class="edge">
<title>Node47&#45;&gt;Node30</title>
<path fill="none" stroke="#63b8ff" d="M875.38,-416.4C750.72,-407.22 519.09,-381.57 475,-316 470.29,-308.99 469.87,-303.71 475,-297 486.76,-281.62 529.58,-270.31 568.52,-262.94"/>
<polygon fill="#63b8ff" stroke="#63b8ff" points="569.63,-266.3 578.84,-261.06 568.37,-259.41 569.63,-266.3"/>
</g>
<!-- Node47&#45;&gt;Node31 -->
<g id="edge134" class="edge">
<title>Node47&#45;&gt;Node31</title>
<path fill="none" stroke="#63b8ff" d="M875.05,-414.55C759.16,-404.77 554.88,-385.76 524,-371 492.53,-355.95 481.5,-348.17 468,-316 464.73,-308.21 464.01,-304.44 468,-297 480.96,-272.86 640.1,-180.42 701.78,-145.22"/>
<polygon fill="#63b8ff" stroke="#63b8ff" points="703.85,-148.07 710.81,-140.08 700.39,-141.99 703.85,-148.07"/>
</g>
<!-- Node47&#45;&gt;Node33 -->
<g id="edge143" class="edge">
<title>Node47&#45;&gt;Node33</title>
<path fill="none" stroke="#63b8ff" d="M982.86,-412.46C1021.33,-398.99 1089.23,-368.75 1118,-316 1139.85,-275.94 1091.95,-234.98 1056.54,-211.6"/>
<polygon fill="#63b8ff" stroke="#63b8ff" points="1058.17,-208.49 1047.86,-206.05 1054.39,-214.39 1058.17,-208.49"/>
</g>
<!-- Node48&#45;&gt;Node7 -->
<g id="edge149" class="edge">
<title>Node48&#45;&gt;Node7</title>
<path fill="none" stroke="#63b8ff" d="M2163.97,-406.91C2196.44,-397.6 2232.51,-384.64 2242,-371 2310.43,-272.69 2177.39,-132.91 2128.23,-86.58"/>
<polygon fill="#63b8ff" stroke="#63b8ff" points="2130.57,-83.97 2120.85,-79.74 2125.81,-89.1 2130.57,-83.97"/>
</g>
<!-- Node48&#45;&gt;Node11 -->
<g id="edge148" class="edge">
<title>Node48&#45;&gt;Node11</title>
<path fill="none" stroke="#63b8ff" d="M2170.2,-418.04C2258.53,-412.9 2413.43,-399.98 2461,-371 2516.06,-337.46 2599.31,-148.51 2624.51,-88.97"/>
<polygon fill="#63b8ff" stroke="#63b8ff" points="2627.76,-90.28 2628.41,-79.71 2621.3,-87.57 2627.76,-90.28"/>
</g>
<!-- Node48&#45;&gt;Node12 -->
<g id="edge150" class="edge">
<title>Node48&#45;&gt;Node12</title>
<path fill="none" stroke="#63b8ff" d="M2124.37,-406.73C2151.5,-382.7 2198.18,-333.24 2171,-297 2094.8,-195.41 1704.51,-151.79 1533.94,-137.38"/>
<polygon fill="#63b8ff" stroke="#63b8ff" points="1534.03,-133.87 1523.77,-136.53 1533.45,-140.85 1534.03,-133.87"/>
</g>
<!-- Node48&#45;&gt;Node38 -->
<g id="edge152" class="edge">
<title>Node48&#45;&gt;Node38</title>
<path fill="none" stroke="#63b8ff" d="M2170.04,-407.14C2217.26,-396.75 2280.93,-382.75 2324.28,-373.21"/>
<polygon fill="#63b8ff" stroke="#63b8ff" points="2325.28,-376.58 2334.29,-371.01 2323.78,-369.74 2325.28,-376.58"/>
</g>
<!-- Node48&#45;&gt;Node40 -->
<g id="edge151" class="edge">
<title>Node48&#45;&gt;Node40</title>
<path fill="none" stroke="#63b8ff" d="M2116.45,-406.93C2124.63,-392.94 2134.24,-370.9 2128,-352 2124.54,-341.54 2117.57,-331.53 2110.92,-323.66"/>
<polygon fill="#63b8ff" stroke="#63b8ff" points="2113.33,-321.1 2104.02,-316.04 2108.14,-325.8 2113.33,-321.1"/>
</g>
<!-- Node49&#45;&gt;Node2 -->
<g id="edge165" class="edge">
<title>Node49&#45;&gt;Node2</title>
<path fill="none" stroke="#63b8ff" d="M3181.44,-676.37C3208.9,-665.32 3256.68,-646.08 3288.07,-633.45"/>
<polygon fill="#63b8ff" stroke="#63b8ff" points="3289.67,-636.58 3297.64,-629.6 3287.06,-630.08 3289.67,-636.58"/>
</g>
<!-- Node49&#45;&gt;Node3 -->
<g id="edge162" class="edge">
<title>Node49&#45;&gt;Node3</title>
<path fill="none" stroke="#63b8ff" d="M3167.88,-676.21C3175.74,-666.79 3187.31,-651.02 3192,-635 3195.74,-622.2 3194.63,-618.07 3192,-605 3159.48,-443.31 3135.62,-364.21 2985,-297 2936.71,-275.45 2126.83,-161.79 2013.17,-140.77"/>
<polygon fill="#63b8ff" stroke="#63b8ff" points="2013.52,-137.27 2003.03,-138.72 2012.14,-144.14 2013.52,-137.27"/>
</g>
<!-- Node49&#45;&gt;Node6 -->
<g id="edge161" class="edge">
<title>Node49&#45;&gt;Node6</title>
<path fill="none" stroke="#63b8ff" d="M3156.9,-676.37C3153.52,-666.97 3148.02,-651.67 3143.66,-639.53"/>
<polygon fill="#63b8ff" stroke="#63b8ff" points="3146.88,-638.13 3140.2,-629.91 3140.29,-640.5 3146.88,-638.13"/>
</g>
<!-- Node49&#45;&gt;Node7 -->
<g id="edge163" class="edge">
<title>Node49&#45;&gt;Node7</title>
<path fill="none" stroke="#63b8ff" d="M3222.73,-679.86C3282.64,-673.49 3366.71,-660.24 3387,-635 3418.88,-595.33 3479.27,-577.58 3265,-352 3026.84,-101.27 2862.81,-179.63 2522,-121 2390.91,-98.45 2234.59,-82.38 2158.01,-75.2"/>
<polygon fill="#63b8ff" stroke="#63b8ff" points="2158.02,-71.68 2147.74,-74.24 2157.37,-78.65 2158.02,-71.68"/>
</g>
<!-- Node49&#45;&gt;Node8 -->
<g id="edge164" class="edge">
<title>Node49&#45;&gt;Node8</title>
<path fill="none" stroke="#63b8ff" d="M3163.45,-676.32C3167.16,-666.49 3172.82,-649.88 3175,-635 3181.2,-592.73 3184.54,-579.17 3170,-539 3145.49,-471.28 3135.33,-447.83 3076,-407 2964.3,-330.13 2797.27,-312.64 2726.1,-308.67"/>
<polygon fill="#63b8ff" stroke="#63b8ff" points="2726.08,-305.16 2715.91,-308.16 2725.72,-312.16 2726.08,-305.16"/>
</g>
<!-- Node49&#45;&gt;Node9 -->
<g id="edge166" class="edge">
<title>Node49&#45;&gt;Node9</title>
<path fill="none" stroke="#63b8ff" d="M3141.93,-676.37C3119.15,-665.49 3079.78,-646.69 3053.32,-634.05"/>
<polygon fill="#63b8ff" stroke="#63b8ff" points="3054.75,-630.85 3044.21,-629.7 3051.73,-637.17 3054.75,-630.85"/>
</g>
<!-- Node49&#45;&gt;Node10 -->
<g id="edge167" class="edge">
<title>Node49&#45;&gt;Node10</title>
<path fill="none" stroke="#63b8ff" d="M3100.58,-676.44C3018.75,-664.64 2871.69,-643.44 2785.06,-630.96"/>
<polygon fill="#63b8ff" stroke="#63b8ff" points="2785.46,-627.48 2775.07,-629.51 2784.47,-634.41 2785.46,-627.48"/>
</g>
<!-- Node49&#45;&gt;Node11 -->
<g id="edge160" class="edge">
<title>Node49&#45;&gt;Node11</title>
<path fill="none" stroke="#63b8ff" d="M3222.7,-680.35C3290.16,-674.09 3391.6,-660.65 3420,-635 3447.55,-610.12 3444,-592.12 3444,-555 3444,-555 3444,-555 3444,-190 3444,-110.26 2823.11,-78.98 2667.19,-72.39"/>
<polygon fill="#63b8ff" stroke="#63b8ff" points="2667.33,-68.89 2657.19,-71.97 2667.04,-75.88 2667.33,-68.89"/>
</g>
<!-- Node49&#45;&gt;Node38 -->
<g id="edge168" class="edge">
<title>Node49&#45;&gt;Node38</title>
<path fill="none" stroke="#63b8ff" d="M3097.26,-682.16C2976.31,-676.19 2715.18,-660.7 2629,-635 2568.8,-617.04 2550.15,-611.62 2504,-569 2471.96,-539.41 2406.97,-424.3 2382.55,-380.01"/>
<polygon fill="#63b8ff" stroke="#63b8ff" points="2385.62,-378.32 2377.74,-371.24 2379.49,-381.69 2385.62,-378.32"/>
</g>
<!-- Node51 -->
<g id="node48" class="node">
<title>Node51</title>
<g id="a_node48"><a xlink:title=" ">
<polygon fill="#e0e0e0" stroke="#999999" points="3529.5,-629.5 3472.5,-629.5 3472.5,-610.5 3529.5,-610.5 3529.5,-629.5"/>
<text text-anchor="middle" x="3501" y="-617.5" font-family="Helvetica,sans-Serif" font-size="10.00">ostream</text>
</a>
</g>
</g>
<!-- Node50&#45;&gt;Node51 -->
<g id="edge176" class="edge">
<title>Node50&#45;&gt;Node51</title>
<path fill="none" stroke="#63b8ff" d="M3466.77,-670.8C3473.36,-661.21 3482.09,-648.5 3489.09,-638.32"/>
<polygon fill="#63b8ff" stroke="#63b8ff" points="3492.14,-640.07 3494.92,-629.84 3486.37,-636.1 3492.14,-640.07"/>
</g>
<!-- Node52&#45;&gt;Node21 -->
<g id="edge179" class="edge">
<title>Node52&#45;&gt;Node21</title>
<path fill="none" stroke="#63b8ff" d="M2225.93,-604.96C2315.2,-580.84 2497.37,-531.6 2593.09,-505.73"/>
<polygon fill="#63b8ff" stroke="#63b8ff" points="2594.18,-509.06 2602.92,-503.08 2592.35,-502.31 2594.18,-509.06"/>
</g>
<!-- Node52&#45;&gt;Node37 -->
<g id="edge181" class="edge">
<title>Node52&#45;&gt;Node37</title>
<path fill="none" stroke="#63b8ff" d="M2237.26,-613.79C2379.9,-602.04 2725.98,-573.53 2877.68,-561.04"/>
<polygon fill="#63b8ff" stroke="#63b8ff" points="2878.15,-564.51 2887.83,-560.2 2877.57,-557.54 2878.15,-564.51"/>
</g>
<!-- Node52&#45;&gt;Node45 -->
<g id="edge178" class="edge">
<title>Node52&#45;&gt;Node45</title>
<path fill="none" stroke="#63b8ff" d="M2110.87,-612.98C1986.23,-601.09 1709.14,-574.66 1576.51,-562.01"/>
<polygon fill="#63b8ff" stroke="#63b8ff" points="1576.73,-558.52 1566.45,-561.05 1576.07,-565.49 1576.73,-558.52"/>
</g>
<!-- Node52&#45;&gt;Node48 -->
<g id="edge180" class="edge">
<title>Node52&#45;&gt;Node48</title>
<path fill="none" stroke="#63b8ff" d="M2169.18,-604.9C2157.81,-571.65 2129.22,-488 2115.12,-446.75"/>
<polygon fill="#63b8ff" stroke="#63b8ff" points="2118.41,-445.56 2111.86,-437.23 2111.79,-447.83 2118.41,-445.56"/>
</g>
<!-- Node53 -->
<g id="node50" class="node">
<title>Node53</title>
<g id="a_node50"><a xlink:href="View_8h.html" target="_top" xlink:title=" ">
<polygon fill="white" stroke="#666666" points="2298,-503 2172,-503 2172,-473 2298,-473 2298,-503"/>
<text text-anchor="start" x="2180" y="-491" font-family="Helvetica,sans-Serif" font-size="10.00">open62541pp/services</text>
<text text-anchor="middle" x="2235" y="-480" font-family="Helvetica,sans-Serif" font-size="10.00">/View.h</text>
</a>
</g>
</g>
<!-- Node52&#45;&gt;Node53 -->
<g id="edge182" class="edge">
<title>Node52&#45;&gt;Node53</title>
<path fill="none" stroke="#63b8ff" d="M2180.64,-604.84C2191.09,-582.57 2211.48,-539.13 2224.1,-512.23"/>
<polygon fill="#63b8ff" stroke="#63b8ff" points="2227.28,-513.68 2228.36,-503.14 2220.95,-510.71 2227.28,-513.68"/>
</g>
<!-- Node53&#45;&gt;Node8 -->
<g id="edge184" class="edge">
<title>Node53&#45;&gt;Node8</title>
<path fill="none" stroke="#63b8ff" d="M2298.02,-475.45C2302.75,-474.61 2307.45,-473.79 2312,-473 2409.63,-456.14 2438.71,-470.37 2532,-437 2587.13,-417.28 2602.54,-410.23 2646,-371 2660.8,-357.64 2673.72,-338.78 2682.07,-325.09"/>
<polygon fill="#63b8ff" stroke="#63b8ff" points="2685.25,-326.58 2687.3,-316.19 2679.22,-323.04 2685.25,-326.58"/>
</g>
<!-- Node53&#45;&gt;Node11 -->
<g id="edge183" class="edge">
<title>Node53&#45;&gt;Node11</title>
<path fill="none" stroke="#63b8ff" d="M2298.21,-478.11C2370.51,-465.2 2489.29,-435.39 2570,-371 2616.45,-333.94 2629.02,-317.95 2646,-261 2663.78,-201.37 2654.47,-182.64 2646,-121 2644.54,-110.34 2641.4,-98.76 2638.46,-89.43"/>
<polygon fill="#63b8ff" stroke="#63b8ff" points="2641.7,-88.08 2635.22,-79.7 2635.06,-90.29 2641.7,-88.08"/>
</g>
<!-- Node53&#45;&gt;Node38 -->
<g id="edge186" class="edge">
<title>Node53&#45;&gt;Node38</title>
<path fill="none" stroke="#63b8ff" d="M2250.56,-472.96C2276.63,-449.45 2328.9,-402.29 2355.93,-377.9"/>
<polygon fill="#63b8ff" stroke="#63b8ff" points="2358.38,-380.41 2363.46,-371.11 2353.69,-375.21 2358.38,-380.41"/>
</g>
<!-- Node53&#45;&gt;Node42 -->
<g id="edge185" class="edge">
<title>Node53&#45;&gt;Node42</title>
<path fill="none" stroke="#63b8ff" d="M2171.65,-473.35C2116.66,-461.5 2038.15,-444.58 1987.63,-433.69"/>
<polygon fill="#63b8ff" stroke="#63b8ff" points="1988.11,-430.22 1977.6,-431.53 1986.64,-437.06 1988.11,-430.22"/>
</g>
</g>
</svg>
