<?xml version="1.0" encoding="UTF-8" standalone="no"?>
<!DOCTYPE svg PUBLIC "-//W3C//DTD SVG 1.1//EN"
 "http://www.w3.org/Graphics/SVG/1.1/DTD/svg11.dtd">
<!-- Generated by graphviz version 2.43.0 (0)
 -->
<!-- Title: /home/runner/work/open62541pp/open62541pp/include/open62541pp/open62541pp.h Pages: 1 -->
<svg width="1945pt" height="498pt"
 viewBox="0.00 0.00 1944.50 498.00" xmlns="http://www.w3.org/2000/svg" xmlns:xlink="http://www.w3.org/1999/xlink">
<g id="graph0" class="graph" transform="scale(1 1) rotate(0) translate(4 494)">
<title>/home/runner/work/open62541pp/open62541pp/include/open62541pp/open62541pp.h</title>
<!-- Node1 -->
<g id="node1" class="node">
<title>Node1</title>
<g id="a_node1"><a xlink:title=" ">
<polygon fill="#bfbfbf" stroke="black" points="1016,-448.5 1016,-489.5 1209,-489.5 1209,-448.5 1016,-448.5"/>
<text text-anchor="start" x="1024" y="-477.5" font-family="Helvetica,sans-Serif" font-size="10.00">/home/runner/work/open62541pp</text>
<text text-anchor="start" x="1024" y="-466.5" font-family="Helvetica,sans-Serif" font-size="10.00">/open62541pp/include/open62541pp</text>
<text text-anchor="middle" x="1112.5" y="-455.5" font-family="Helvetica,sans-Serif" font-size="10.00">/open62541pp.h</text>
</a>
</g>
</g>
<!-- Node2 -->
<g id="node2" class="node">
<title>Node2</title>
<g id="a_node2"><a xlink:href="Comparison_8h.html" target="_top" xlink:title=" ">
<polygon fill="none" stroke="black" points="1603,-168.5 1603,-187.5 1756,-187.5 1756,-168.5 1603,-168.5"/>
<text text-anchor="middle" x="1679.5" y="-175.5" font-family="Helvetica,sans-Serif" font-size="10.00">open62541pp/Comparison.h</text>
</a>
</g>
</g>
<!-- Node1&#45;&gt;Node2 -->
<g id="edge1" class="edge">
<title>Node1&#45;&gt;Node2</title>
<path fill="none" stroke="midnightblue" d="M1209.27,-463.05C1419.36,-451.01 1898.5,-415.99 1898.5,-347 1898.5,-347 1898.5,-347 1898.5,-289 1898.5,-226.93 1827.39,-199.88 1766.21,-188.1"/>
<polygon fill="midnightblue" stroke="midnightblue" points="1766.56,-184.6 1756.1,-186.27 1765.31,-191.49 1766.56,-184.6"/>
</g>
<!-- Node7 -->
<g id="node7" class="node">
<title>Node7</title>
<g id="a_node7"><a xlink:href="ErrorHandling_8h.html" target="_top" xlink:title=" ">
<polygon fill="none" stroke="black" points="771,-168.5 771,-187.5 932,-187.5 932,-168.5 771,-168.5"/>
<text text-anchor="middle" x="851.5" y="-175.5" font-family="Helvetica,sans-Serif" font-size="10.00">open62541pp/ErrorHandling.h</text>
</a>
</g>
</g>
<!-- Node1&#45;&gt;Node7 -->
<g id="edge6" class="edge">
<title>Node1&#45;&gt;Node7</title>
<path fill="none" stroke="midnightblue" d="M1015.84,-459.55C945.49,-447.46 862.5,-418.12 862.5,-347 862.5,-347 862.5,-347 862.5,-289 862.5,-256.79 857.77,-219.53 854.52,-197.69"/>
<polygon fill="midnightblue" stroke="midnightblue" points="857.93,-196.87 852.94,-187.53 851.01,-197.95 857.93,-196.87"/>
</g>
<!-- Node10 -->
<g id="node10" class="node">
<title>Node10</title>
<g id="a_node10"><a xlink:href="Helper_8h.html" target="_top" xlink:title=" ">
<polygon fill="none" stroke="black" points="1344.5,-168.5 1344.5,-187.5 1470.5,-187.5 1470.5,-168.5 1344.5,-168.5"/>
<text text-anchor="middle" x="1407.5" y="-175.5" font-family="Helvetica,sans-Serif" font-size="10.00">open62541pp/Helper.h</text>
</a>
</g>
</g>
<!-- Node1&#45;&gt;Node10 -->
<g id="edge10" class="edge">
<title>Node1&#45;&gt;Node10</title>
<path fill="none" stroke="midnightblue" d="M1209.05,-459.73C1333.62,-446.34 1534.5,-414.31 1534.5,-347 1534.5,-347 1534.5,-347 1534.5,-289 1534.5,-239.87 1479.51,-207.77 1441.9,-191.56"/>
<polygon fill="midnightblue" stroke="midnightblue" points="1442.87,-188.17 1432.29,-187.59 1440.2,-194.64 1442.87,-188.17"/>
</g>
<!-- Node13 -->
<g id="node13" class="node">
<title>Node13</title>
<g id="a_node13"><a xlink:href="Types_8h.html" target="_top" xlink:title=" ">
<polygon fill="none" stroke="black" points="1255.5,-112.5 1255.5,-131.5 1377.5,-131.5 1377.5,-112.5 1255.5,-112.5"/>
<text text-anchor="middle" x="1316.5" y="-119.5" font-family="Helvetica,sans-Serif" font-size="10.00">open62541pp/Types.h</text>
</a>
</g>
</g>
<!-- Node1&#45;&gt;Node13 -->
<g id="edge89" class="edge">
<title>Node1&#45;&gt;Node13</title>
<path fill="none" stroke="midnightblue" d="M1209.21,-462.06C1344.13,-451.07 1572.5,-421.47 1572.5,-347 1572.5,-347 1572.5,-347 1572.5,-289 1572.5,-225.49 1547.91,-205.28 1496.5,-168 1465.05,-145.19 1423.29,-133.89 1387.91,-128.31"/>
<polygon fill="midnightblue" stroke="midnightblue" points="1388.03,-124.79 1377.63,-126.82 1387.03,-131.72 1388.03,-124.79"/>
</g>
<!-- Node16 -->
<g id="node16" class="node">
<title>Node16</title>
<g id="a_node16"><a xlink:href="Traits_8h.html" target="_top" xlink:title=" ">
<polygon fill="none" stroke="black" points="1679,-56.5 1679,-75.5 1800,-75.5 1800,-56.5 1679,-56.5"/>
<text text-anchor="middle" x="1739.5" y="-63.5" font-family="Helvetica,sans-Serif" font-size="10.00">open62541pp/Traits.h</text>
</a>
</g>
</g>
<!-- Node1&#45;&gt;Node16 -->
<g id="edge86" class="edge">
<title>Node1&#45;&gt;Node16</title>
<path fill="none" stroke="midnightblue" d="M1209.22,-464.23C1370.53,-457.25 1687.48,-440.38 1795.5,-412 1862.24,-394.47 1936.5,-416 1936.5,-347 1936.5,-347 1936.5,-347 1936.5,-289 1936.5,-187.16 1819.09,-110.25 1765.55,-80.48"/>
<polygon fill="midnightblue" stroke="midnightblue" points="1767.09,-77.33 1756.64,-75.63 1763.75,-83.48 1767.09,-77.33"/>
</g>
<!-- Node17 -->
<g id="node17" class="node">
<title>Node17</title>
<g id="a_node17"><a xlink:href="Logger_8h.html" target="_top" xlink:title=" ">
<polygon fill="none" stroke="black" points="0,-280.5 0,-299.5 127,-299.5 127,-280.5 0,-280.5"/>
<text text-anchor="middle" x="63.5" y="-287.5" font-family="Helvetica,sans-Serif" font-size="10.00">open62541pp/Logger.h</text>
</a>
</g>
</g>
<!-- Node1&#45;&gt;Node17 -->
<g id="edge23" class="edge">
<title>Node1&#45;&gt;Node17</title>
<path fill="none" stroke="midnightblue" d="M1015.77,-465.59C874.52,-460.96 603.87,-447.85 376.5,-412 271.72,-395.48 239.71,-402.76 144.5,-356 119.1,-343.53 94.4,-321.92 79.09,-307.06"/>
<polygon fill="midnightblue" stroke="midnightblue" points="81.16,-304.18 71.6,-299.61 76.22,-309.14 81.16,-304.18"/>
</g>
<!-- Node19 -->
<g id="node19" class="node">
<title>Node19</title>
<g id="a_node19"><a xlink:href="Node_8h.html" target="_top" xlink:title=" ">
<polygon fill="none" stroke="black" points="593.5,-392.5 593.5,-411.5 713.5,-411.5 713.5,-392.5 593.5,-392.5"/>
<text text-anchor="middle" x="653.5" y="-399.5" font-family="Helvetica,sans-Serif" font-size="10.00">open62541pp/Node.h</text>
</a>
</g>
</g>
<!-- Node1&#45;&gt;Node19 -->
<g id="edge26" class="edge">
<title>Node1&#45;&gt;Node19</title>
<path fill="none" stroke="midnightblue" d="M1016,-454.33C928.68,-441.97 802.13,-424.05 723.98,-412.98"/>
<polygon fill="midnightblue" stroke="midnightblue" points="724.14,-409.47 713.75,-411.53 723.16,-416.4 724.14,-409.47"/>
</g>
<!-- Node22 -->
<g id="node22" class="node">
<title>Node22</title>
<g id="a_node22"><a xlink:href="NodeId_8h.html" target="_top" xlink:title=" ">
<polygon fill="none" stroke="black" points="412,-280.5 412,-299.5 541,-299.5 541,-280.5 412,-280.5"/>
<text text-anchor="middle" x="476.5" y="-287.5" font-family="Helvetica,sans-Serif" font-size="10.00">open62541pp/NodeId.h</text>
</a>
</g>
</g>
<!-- Node1&#45;&gt;Node22 -->
<g id="edge84" class="edge">
<title>Node1&#45;&gt;Node22</title>
<path fill="none" stroke="midnightblue" d="M1015.93,-466.01C884.57,-461.91 657.55,-449.47 584.5,-412 538.31,-388.31 502.64,-335.99 486.29,-308.56"/>
<polygon fill="midnightblue" stroke="midnightblue" points="489.19,-306.59 481.16,-299.68 483.13,-310.09 489.19,-306.59"/>
</g>
<!-- Node24 -->
<g id="node24" class="node">
<title>Node24</title>
<g id="a_node24"><a xlink:href="TypeWrapper_8h.html" target="_top" xlink:title=" ">
<polygon fill="none" stroke="black" points="972.5,-224.5 972.5,-243.5 1130.5,-243.5 1130.5,-224.5 972.5,-224.5"/>
<text text-anchor="middle" x="1051.5" y="-231.5" font-family="Helvetica,sans-Serif" font-size="10.00">open62541pp/TypeWrapper.h</text>
</a>
</g>
</g>
<!-- Node1&#45;&gt;Node24 -->
<g id="edge88" class="edge">
<title>Node1&#45;&gt;Node24</title>
<path fill="none" stroke="midnightblue" d="M1122.93,-448.23C1135.35,-421.93 1152.73,-374.32 1138.5,-336 1125.06,-299.8 1092.18,-267.88 1070.91,-250.04"/>
<polygon fill="midnightblue" stroke="midnightblue" points="1073.09,-247.31 1063.13,-243.71 1068.67,-252.74 1073.09,-247.31"/>
</g>
<!-- Node27 -->
<g id="node27" class="node">
<title>Node27</title>
<g id="a_node27"><a xlink:href="Server_8h.html" target="_top" xlink:title=" ">
<polygon fill="none" stroke="black" points="154,-336.5 154,-355.5 279,-355.5 279,-336.5 154,-336.5"/>
<text text-anchor="middle" x="216.5" y="-343.5" font-family="Helvetica,sans-Serif" font-size="10.00">open62541pp/Server.h</text>
</a>
</g>
</g>
<!-- Node1&#45;&gt;Node27 -->
<g id="edge85" class="edge">
<title>Node1&#45;&gt;Node27</title>
<path fill="none" stroke="midnightblue" d="M1015.77,-464.44C889.73,-458.7 662.85,-444.52 471.5,-412 392.87,-398.63 302.89,-373.27 253.61,-358.49"/>
<polygon fill="midnightblue" stroke="midnightblue" points="254.32,-355.04 243.73,-355.5 252.29,-361.74 254.32,-355.04"/>
</g>
<!-- Node29 -->
<g id="node29" class="node">
<title>Node29</title>
<g id="a_node29"><a xlink:href="Variant_8h.html" target="_top" xlink:title=" ">
<polygon fill="none" stroke="black" points="1001,-336.5 1001,-355.5 1130,-355.5 1130,-336.5 1001,-336.5"/>
<text text-anchor="middle" x="1065.5" y="-343.5" font-family="Helvetica,sans-Serif" font-size="10.00">open62541pp/Variant.h</text>
</a>
</g>
</g>
<!-- Node1&#45;&gt;Node29 -->
<g id="edge90" class="edge">
<title>Node1&#45;&gt;Node29</title>
<path fill="none" stroke="midnightblue" d="M1104.84,-448.29C1095.9,-425.27 1081.23,-387.5 1072.56,-365.17"/>
<polygon fill="midnightblue" stroke="midnightblue" points="1075.71,-363.63 1068.83,-355.57 1069.19,-366.16 1075.71,-363.63"/>
</g>
<!-- Node33 -->
<g id="node33" class="node">
<title>Node33</title>
<g id="a_node33"><a xlink:href="TypeConverter_8h.html" target="_top" xlink:title=" ">
<polygon fill="none" stroke="black" points="1323.5,-280.5 1323.5,-299.5 1487.5,-299.5 1487.5,-280.5 1323.5,-280.5"/>
<text text-anchor="middle" x="1405.5" y="-287.5" font-family="Helvetica,sans-Serif" font-size="10.00">open62541pp/TypeConverter.h</text>
</a>
</g>
</g>
<!-- Node1&#45;&gt;Node33 -->
<g id="edge87" class="edge">
<title>Node1&#45;&gt;Node33</title>
<path fill="none" stroke="midnightblue" d="M1144.98,-448.38C1204.73,-412.28 1330.71,-336.18 1382.51,-304.89"/>
<polygon fill="midnightblue" stroke="midnightblue" points="1384.54,-307.75 1391.29,-299.58 1380.92,-301.76 1384.54,-307.75"/>
</g>
<!-- Node3 -->
<g id="node3" class="node">
<title>Node3</title>
<g id="a_node3"><a xlink:href="open62541_8h.html" target="_top" xlink:title=" ">
<polygon fill="none" stroke="black" points="1254,-56.5 1254,-75.5 1403,-75.5 1403,-56.5 1254,-56.5"/>
<text text-anchor="middle" x="1328.5" y="-63.5" font-family="Helvetica,sans-Serif" font-size="10.00">open62541pp/open62541.h</text>
</a>
</g>
</g>
<!-- Node2&#45;&gt;Node3 -->
<g id="edge2" class="edge">
<title>Node2&#45;&gt;Node3</title>
<path fill="none" stroke="midnightblue" d="M1670.28,-168.2C1654.76,-153.93 1621.82,-125.92 1588.5,-112 1532.83,-88.74 1465.61,-77.5 1413.47,-72.07"/>
<polygon fill="midnightblue" stroke="midnightblue" points="1413.55,-68.56 1403.25,-71.06 1412.86,-75.53 1413.55,-68.56"/>
</g>
<!-- Node4 -->
<g id="node4" class="node">
<title>Node4</title>
<g id="a_node4"><a xlink:href="open62541/nodeids_8h.html.html" xlink:title=" ">
<polygon fill="none" stroke="black" points="1268,-0.5 1268,-19.5 1389,-19.5 1389,-0.5 1268,-0.5"/>
<text text-anchor="middle" x="1328.5" y="-7.5" font-family="Helvetica,sans-Serif" font-size="10.00">open62541/nodeids.h</text>
</a>
</g>
</g>
<!-- Node3&#45;&gt;Node4 -->
<g id="edge3" class="edge">
<title>Node3&#45;&gt;Node4</title>
<path fill="none" stroke="midnightblue" d="M1328.5,-56.08C1328.5,-49.01 1328.5,-38.86 1328.5,-29.99"/>
<polygon fill="midnightblue" stroke="midnightblue" points="1332,-29.75 1328.5,-19.75 1325,-29.75 1332,-29.75"/>
</g>
<!-- Node5 -->
<g id="node5" class="node">
<title>Node5</title>
<g id="a_node5"><a xlink:href="open62541/types_8h.html.html" xlink:title=" ">
<polygon fill="none" stroke="black" points="1407.5,-0.5 1407.5,-19.5 1517.5,-19.5 1517.5,-0.5 1407.5,-0.5"/>
<text text-anchor="middle" x="1462.5" y="-7.5" font-family="Helvetica,sans-Serif" font-size="10.00">open62541/types.h</text>
</a>
</g>
</g>
<!-- Node3&#45;&gt;Node5 -->
<g id="edge4" class="edge">
<title>Node3&#45;&gt;Node5</title>
<path fill="none" stroke="midnightblue" d="M1349.73,-56.44C1371.88,-47.52 1406.82,-33.44 1431.94,-23.32"/>
<polygon fill="midnightblue" stroke="midnightblue" points="1433.4,-26.5 1441.37,-19.52 1430.78,-20.01 1433.4,-26.5"/>
</g>
<!-- Node6 -->
<g id="node6" class="node">
<title>Node6</title>
<g id="a_node6"><a xlink:href="open62541/types__generated_8h.html.html" xlink:title=" ">
<polygon fill="none" stroke="black" points="1085.5,-0.5 1085.5,-19.5 1249.5,-19.5 1249.5,-0.5 1085.5,-0.5"/>
<text text-anchor="middle" x="1167.5" y="-7.5" font-family="Helvetica,sans-Serif" font-size="10.00">open62541/types_generated.h</text>
</a>
</g>
</g>
<!-- Node3&#45;&gt;Node6 -->
<g id="edge5" class="edge">
<title>Node3&#45;&gt;Node6</title>
<path fill="none" stroke="midnightblue" d="M1302.99,-56.44C1275.9,-47.36 1232.91,-32.94 1202.63,-22.78"/>
<polygon fill="midnightblue" stroke="midnightblue" points="1203.49,-19.38 1192.89,-19.52 1201.26,-26.01 1203.49,-19.38"/>
</g>
<!-- Node7&#45;&gt;Node3 -->
<g id="edge9" class="edge">
<title>Node7&#45;&gt;Node3</title>
<path fill="none" stroke="midnightblue" d="M885.83,-168.42C936.91,-155.73 1035.97,-131.35 1120.5,-112 1174.07,-99.74 1235.6,-86.53 1277.76,-77.62"/>
<polygon fill="midnightblue" stroke="midnightblue" points="1278.72,-81 1287.78,-75.51 1277.28,-74.15 1278.72,-81"/>
</g>
<!-- Node8 -->
<g id="node8" class="node">
<title>Node8</title>
<g id="a_node8"><a xlink:title=" ">
<polygon fill="none" stroke="#bfbfbf" points="819,-112.5 819,-131.5 884,-131.5 884,-112.5 819,-112.5"/>
<text text-anchor="middle" x="851.5" y="-119.5" font-family="Helvetica,sans-Serif" font-size="10.00">stdexcept</text>
</a>
</g>
</g>
<!-- Node7&#45;&gt;Node8 -->
<g id="edge7" class="edge">
<title>Node7&#45;&gt;Node8</title>
<path fill="none" stroke="midnightblue" d="M851.5,-168.08C851.5,-161.01 851.5,-150.86 851.5,-141.99"/>
<polygon fill="midnightblue" stroke="midnightblue" points="855,-141.75 851.5,-131.75 848,-141.75 855,-141.75"/>
</g>
<!-- Node9 -->
<g id="node9" class="node">
<title>Node9</title>
<g id="a_node9"><a xlink:title=" ">
<polygon fill="none" stroke="#bfbfbf" points="720.5,-112.5 720.5,-131.5 764.5,-131.5 764.5,-112.5 720.5,-112.5"/>
<text text-anchor="middle" x="742.5" y="-119.5" font-family="Helvetica,sans-Serif" font-size="10.00">string</text>
</a>
</g>
</g>
<!-- Node7&#45;&gt;Node9 -->
<g id="edge8" class="edge">
<title>Node7&#45;&gt;Node9</title>
<path fill="none" stroke="midnightblue" d="M833.99,-168.32C816.43,-159.62 789.17,-146.12 768.97,-136.11"/>
<polygon fill="midnightblue" stroke="midnightblue" points="770.48,-132.96 759.97,-131.65 767.38,-139.23 770.48,-132.96"/>
</g>
<!-- Node10&#45;&gt;Node3 -->
<g id="edge22" class="edge">
<title>Node10&#45;&gt;Node3</title>
<path fill="none" stroke="midnightblue" d="M1406.36,-168.28C1404.28,-155.07 1398.89,-129.67 1386.5,-112 1377.69,-99.45 1364.35,-88.75 1352.68,-80.94"/>
<polygon fill="midnightblue" stroke="midnightblue" points="1354.51,-77.95 1344.19,-75.55 1350.76,-83.86 1354.51,-77.95"/>
</g>
<!-- Node10&#45;&gt;Node9 -->
<g id="edge11" class="edge">
<title>Node10&#45;&gt;Node9</title>
<path fill="none" stroke="midnightblue" d="M1344.23,-172.01C1327.42,-170.69 1309.27,-169.28 1292.5,-168 1077.86,-151.6 1023.6,-154.34 809.5,-132 798.18,-130.82 785.82,-129.24 774.83,-127.74"/>
<polygon fill="midnightblue" stroke="midnightblue" points="775.18,-124.25 764.79,-126.33 774.21,-131.18 775.18,-124.25"/>
</g>
<!-- Node11 -->
<g id="node11" class="node">
<title>Node11</title>
<g id="a_node11"><a xlink:title=" ">
<polygon fill="none" stroke="#bfbfbf" points="300,-56.5 300,-75.5 373,-75.5 373,-56.5 300,-56.5"/>
<text text-anchor="middle" x="336.5" y="-63.5" font-family="Helvetica,sans-Serif" font-size="10.00">string_view</text>
</a>
</g>
</g>
<!-- Node10&#45;&gt;Node11 -->
<g id="edge12" class="edge">
<title>Node10&#45;&gt;Node11</title>
<path fill="none" stroke="midnightblue" d="M1353.6,-168.45C1266.22,-154.83 1088.15,-128.13 936.5,-112 936.5,-112 524.29,-81.08 383.2,-70.5"/>
<polygon fill="midnightblue" stroke="midnightblue" points="383.36,-67.01 373.13,-69.75 382.84,-73.99 383.36,-67.01"/>
</g>
<!-- Node12 -->
<g id="node12" class="node">
<title>Node12</title>
<g id="a_node12"><a xlink:title=" ">
<polygon fill="none" stroke="#bfbfbf" points="1633,-0.5 1633,-19.5 1702,-19.5 1702,-0.5 1633,-0.5"/>
<text text-anchor="middle" x="1667.5" y="-7.5" font-family="Helvetica,sans-Serif" font-size="10.00">type_traits</text>
</a>
</g>
</g>
<!-- Node10&#45;&gt;Node12 -->
<g id="edge13" class="edge">
<title>Node10&#45;&gt;Node12</title>
<path fill="none" stroke="midnightblue" d="M1421.11,-168.31C1463.5,-141.25 1593.38,-58.32 1645.51,-25.04"/>
<polygon fill="midnightblue" stroke="midnightblue" points="1647.48,-27.94 1654.02,-19.61 1643.71,-22.04 1647.48,-27.94"/>
</g>
<!-- Node10&#45;&gt;Node13 -->
<g id="edge14" class="edge">
<title>Node10&#45;&gt;Node13</title>
<path fill="none" stroke="midnightblue" d="M1392.88,-168.32C1378.55,-159.82 1356.49,-146.73 1339.75,-136.8"/>
<polygon fill="midnightblue" stroke="midnightblue" points="1341.47,-133.75 1331.08,-131.65 1337.9,-139.77 1341.47,-133.75"/>
</g>
<!-- Node13&#45;&gt;Node3 -->
<g id="edge21" class="edge">
<title>Node13&#45;&gt;Node3</title>
<path fill="none" stroke="midnightblue" d="M1318.48,-112.08C1320.07,-104.93 1322.36,-94.64 1324.35,-85.69"/>
<polygon fill="midnightblue" stroke="midnightblue" points="1327.8,-86.27 1326.56,-75.75 1320.97,-84.75 1327.8,-86.27"/>
</g>
<!-- Node13&#45;&gt;Node11 -->
<g id="edge16" class="edge">
<title>Node13&#45;&gt;Node11</title>
<path fill="none" stroke="midnightblue" d="M1255.47,-118.28C1114.64,-111.9 756.03,-95.07 456.5,-76 432.38,-74.46 405.56,-72.48 383.4,-70.76"/>
<polygon fill="midnightblue" stroke="midnightblue" points="383.49,-67.26 373.25,-69.97 382.95,-74.24 383.49,-67.26"/>
</g>
<!-- Node14 -->
<g id="node14" class="node">
<title>Node14</title>
<g id="a_node14"><a xlink:title=" ">
<polygon fill="none" stroke="#bfbfbf" points="465.5,-56.5 465.5,-75.5 515.5,-75.5 515.5,-56.5 465.5,-56.5"/>
<text text-anchor="middle" x="490.5" y="-63.5" font-family="Helvetica,sans-Serif" font-size="10.00">cstdint</text>
</a>
</g>
</g>
<!-- Node13&#45;&gt;Node14 -->
<g id="edge15" class="edge">
<title>Node13&#45;&gt;Node14</title>
<path fill="none" stroke="midnightblue" d="M1255.43,-117.01C1092.79,-106.38 652.93,-77.62 525.52,-69.29"/>
<polygon fill="midnightblue" stroke="midnightblue" points="525.74,-65.8 515.53,-68.64 525.28,-72.78 525.74,-65.8"/>
</g>
<!-- Node15 -->
<g id="node15" class="node">
<title>Node15</title>
<g id="a_node15"><a xlink:title=" ">
<polygon fill="none" stroke="#bfbfbf" points="1549,-0.5 1549,-19.5 1590,-19.5 1590,-0.5 1549,-0.5"/>
<text text-anchor="middle" x="1569.5" y="-7.5" font-family="Helvetica,sans-Serif" font-size="10.00">tuple</text>
</a>
</g>
</g>
<!-- Node13&#45;&gt;Node15 -->
<g id="edge17" class="edge">
<title>Node13&#45;&gt;Node15</title>
<path fill="none" stroke="midnightblue" d="M1336.35,-112.37C1380.78,-93.05 1488.4,-46.26 1540.41,-23.65"/>
<polygon fill="midnightblue" stroke="midnightblue" points="1541.96,-26.79 1549.74,-19.59 1539.17,-20.37 1541.96,-26.79"/>
</g>
<!-- Node13&#45;&gt;Node16 -->
<g id="edge18" class="edge">
<title>Node13&#45;&gt;Node16</title>
<path fill="none" stroke="midnightblue" d="M1377.56,-113.21C1454.68,-103.36 1587.13,-86.45 1668.64,-76.05"/>
<polygon fill="midnightblue" stroke="midnightblue" points="1669.33,-79.49 1678.81,-74.75 1668.44,-72.54 1669.33,-79.49"/>
</g>
<!-- Node16&#45;&gt;Node12 -->
<g id="edge20" class="edge">
<title>Node16&#45;&gt;Node12</title>
<path fill="none" stroke="midnightblue" d="M1727.93,-56.32C1717.08,-48.18 1700.62,-35.84 1687.62,-26.09"/>
<polygon fill="midnightblue" stroke="midnightblue" points="1689.38,-23.03 1679.28,-19.83 1685.18,-28.63 1689.38,-23.03"/>
</g>
<!-- Node16&#45;&gt;Node15 -->
<g id="edge19" class="edge">
<title>Node16&#45;&gt;Node15</title>
<path fill="none" stroke="midnightblue" d="M1712.56,-56.44C1681.9,-46.7 1631.92,-30.83 1599.88,-20.65"/>
<polygon fill="midnightblue" stroke="midnightblue" points="1600.75,-17.25 1590.16,-17.56 1598.63,-23.93 1600.75,-17.25"/>
</g>
<!-- Node17&#45;&gt;Node11 -->
<g id="edge25" class="edge">
<title>Node17&#45;&gt;Node11</title>
<path fill="none" stroke="midnightblue" d="M59.37,-280.36C53.91,-267.68 45.71,-243.45 52.5,-224 73.45,-163.97 87.73,-145.94 141.5,-112 186.73,-83.45 248.08,-72.96 289.81,-69.14"/>
<polygon fill="midnightblue" stroke="midnightblue" points="290.29,-72.61 299.97,-68.31 289.72,-65.64 290.29,-72.61"/>
</g>
<!-- Node18 -->
<g id="node18" class="node">
<title>Node18</title>
<g id="a_node18"><a xlink:title=" ">
<polygon fill="none" stroke="#bfbfbf" points="62,-224.5 62,-243.5 127,-243.5 127,-224.5 62,-224.5"/>
<text text-anchor="middle" x="94.5" y="-231.5" font-family="Helvetica,sans-Serif" font-size="10.00">functional</text>
</a>
</g>
</g>
<!-- Node17&#45;&gt;Node18 -->
<g id="edge24" class="edge">
<title>Node17&#45;&gt;Node18</title>
<path fill="none" stroke="midnightblue" d="M68.62,-280.08C72.91,-272.61 79.16,-261.72 84.44,-252.52"/>
<polygon fill="midnightblue" stroke="midnightblue" points="87.53,-254.17 89.48,-243.75 81.46,-250.68 87.53,-254.17"/>
</g>
<!-- Node19&#45;&gt;Node7 -->
<g id="edge32" class="edge">
<title>Node19&#45;&gt;Node7</title>
<path fill="none" stroke="midnightblue" d="M663.85,-392.44C674.24,-383.67 690.53,-369.45 703.5,-356 757.12,-300.39 813.95,-228.11 838.72,-195.84"/>
<polygon fill="midnightblue" stroke="midnightblue" points="841.54,-197.92 844.83,-187.84 835.97,-193.67 841.54,-197.92"/>
</g>
<!-- Node19&#45;&gt;Node9 -->
<g id="edge28" class="edge">
<title>Node19&#45;&gt;Node9</title>
<path fill="none" stroke="midnightblue" d="M650.99,-392.25C640.37,-354.46 600.85,-205.47 626.5,-168 645.22,-140.66 683.16,-129.93 710.56,-125.72"/>
<polygon fill="midnightblue" stroke="midnightblue" points="711.03,-129.18 720.48,-124.4 710.11,-122.24 711.03,-129.18"/>
</g>
<!-- Node19&#45;&gt;Node11 -->
<g id="edge29" class="edge">
<title>Node19&#45;&gt;Node11</title>
<path fill="none" stroke="midnightblue" d="M596,-392.44C509.78,-378.21 354.03,-346.54 325.5,-300 283.05,-230.76 313.86,-127.02 329.2,-85.32"/>
<polygon fill="midnightblue" stroke="midnightblue" points="332.5,-86.49 332.79,-75.9 325.96,-84 332.5,-86.49"/>
</g>
<!-- Node19&#45;&gt;Node13 -->
<g id="edge61" class="edge">
<title>Node19&#45;&gt;Node13</title>
<path fill="none" stroke="midnightblue" d="M653.56,-392.32C653.9,-350.56 655.55,-172.13 659.5,-168 679.54,-147.09 1079.48,-131.09 1245.36,-125.33"/>
<polygon fill="midnightblue" stroke="midnightblue" points="1245.59,-128.82 1255.47,-124.98 1245.35,-121.82 1245.59,-128.82"/>
</g>
<!-- Node19&#45;&gt;Node14 -->
<g id="edge27" class="edge">
<title>Node19&#45;&gt;Node14</title>
<path fill="none" stroke="midnightblue" d="M593.23,-395.53C533.47,-386.53 444.9,-362.76 402.5,-300 376.45,-261.44 238.74,-418.29 426.5,-112 434.78,-98.49 448.81,-87.95 461.63,-80.47"/>
<polygon fill="midnightblue" stroke="midnightblue" points="463.53,-83.42 470.64,-75.57 460.19,-77.27 463.53,-83.42"/>
</g>
<!-- Node20 -->
<g id="node20" class="node">
<title>Node20</title>
<g id="a_node20"><a xlink:title=" ">
<polygon fill="none" stroke="#bfbfbf" points="669,-168.5 669,-187.5 714,-187.5 714,-168.5 669,-168.5"/>
<text text-anchor="middle" x="691.5" y="-175.5" font-family="Helvetica,sans-Serif" font-size="10.00">utility</text>
</a>
</g>
</g>
<!-- Node19&#45;&gt;Node20 -->
<g id="edge30" class="edge">
<title>Node19&#45;&gt;Node20</title>
<path fill="none" stroke="midnightblue" d="M662.43,-392.31C670.41,-383.88 681.6,-370.3 686.5,-356 705.33,-301.12 699.11,-230.95 694.54,-197.87"/>
<polygon fill="midnightblue" stroke="midnightblue" points="697.98,-197.17 693.04,-187.8 691.06,-198.2 697.98,-197.17"/>
</g>
<!-- Node21 -->
<g id="node21" class="node">
<title>Node21</title>
<g id="a_node21"><a xlink:title=" ">
<polygon fill="none" stroke="#bfbfbf" points="559,-280.5 559,-299.5 606,-299.5 606,-280.5 559,-280.5"/>
<text text-anchor="middle" x="582.5" y="-287.5" font-family="Helvetica,sans-Serif" font-size="10.00">vector</text>
</a>
</g>
</g>
<!-- Node19&#45;&gt;Node21 -->
<g id="edge31" class="edge">
<title>Node19&#45;&gt;Node21</title>
<path fill="none" stroke="midnightblue" d="M646.65,-392.23C639.77,-383.3 629.01,-368.96 620.5,-356 610.21,-340.33 599.52,-321.81 592.11,-308.56"/>
<polygon fill="midnightblue" stroke="midnightblue" points="595.05,-306.64 587.14,-299.58 588.93,-310.03 595.05,-306.64"/>
</g>
<!-- Node19&#45;&gt;Node22 -->
<g id="edge33" class="edge">
<title>Node19&#45;&gt;Node22</title>
<path fill="none" stroke="midnightblue" d="M639.61,-392.37C609.11,-373.41 536.04,-328 498.93,-304.94"/>
<polygon fill="midnightblue" stroke="midnightblue" points="500.67,-301.9 490.32,-299.59 496.97,-307.84 500.67,-301.9"/>
</g>
<!-- Node19&#45;&gt;Node24 -->
<g id="edge60" class="edge">
<title>Node19&#45;&gt;Node24</title>
<path fill="none" stroke="midnightblue" d="M691.07,-392.5C721.41,-384.93 764.76,-372.51 800.5,-356 857.47,-329.68 862.95,-307.21 919.5,-280 948.71,-265.94 983.48,-254.28 1009.99,-246.35"/>
<polygon fill="midnightblue" stroke="midnightblue" points="1011.11,-249.67 1019.72,-243.5 1009.14,-242.96 1011.11,-249.67"/>
</g>
<!-- Node19&#45;&gt;Node27 -->
<g id="edge53" class="edge">
<title>Node19&#45;&gt;Node27</title>
<path fill="none" stroke="midnightblue" d="M593.2,-393.55C513.77,-383.73 374.24,-366.49 289.11,-355.97"/>
<polygon fill="midnightblue" stroke="midnightblue" points="289.36,-352.48 279.01,-354.72 288.5,-359.42 289.36,-352.48"/>
</g>
<!-- Node19&#45;&gt;Node29 -->
<g id="edge62" class="edge">
<title>Node19&#45;&gt;Node29</title>
<path fill="none" stroke="midnightblue" d="M713.85,-393.09C787.37,-383.45 911.56,-367.18 990.98,-356.77"/>
<polygon fill="midnightblue" stroke="midnightblue" points="991.45,-360.24 1000.91,-355.47 990.54,-353.29 991.45,-360.24"/>
</g>
<!-- Node22&#45;&gt;Node3 -->
<g id="edge52" class="edge">
<title>Node22&#45;&gt;Node3</title>
<path fill="none" stroke="midnightblue" d="M496.72,-280.49C511.27,-273.17 529.8,-261.06 538.5,-244 554.71,-212.2 490.95,-196.46 512.5,-168 567.98,-94.76 621,-127.87 711.5,-112 899.61,-79.02 1124.08,-70.14 1243.64,-67.8"/>
<polygon fill="midnightblue" stroke="midnightblue" points="1243.89,-71.3 1253.83,-67.61 1243.76,-64.3 1243.89,-71.3"/>
</g>
<!-- Node22&#45;&gt;Node9 -->
<g id="edge35" class="edge">
<title>Node22&#45;&gt;Node9</title>
<path fill="none" stroke="midnightblue" d="M473.28,-280.33C469.06,-267.62 462.93,-243.34 469.5,-224 479.59,-194.29 485.82,-184.52 512.5,-168 574.75,-129.44 663.16,-122.86 710.17,-122.35"/>
<polygon fill="midnightblue" stroke="midnightblue" points="710.38,-125.85 720.37,-122.33 710.36,-118.85 710.38,-125.85"/>
</g>
<!-- Node22&#45;&gt;Node11 -->
<g id="edge36" class="edge">
<title>Node22&#45;&gt;Node11</title>
<path fill="none" stroke="midnightblue" d="M468.69,-280.37C460.88,-271.54 448.74,-257.29 439.5,-244 400.86,-188.42 362.72,-117.61 345.71,-84.97"/>
<polygon fill="midnightblue" stroke="midnightblue" points="348.66,-83.05 340.96,-75.78 342.44,-86.27 348.66,-83.05"/>
</g>
<!-- Node22&#45;&gt;Node13 -->
<g id="edge51" class="edge">
<title>Node22&#45;&gt;Node13</title>
<path fill="none" stroke="midnightblue" d="M503.86,-280.45C524.32,-273.1 552.15,-260.99 572.5,-244 604.31,-217.44 590.32,-188.19 626.5,-168 679.54,-138.4 1079.97,-127.48 1245.37,-124.2"/>
<polygon fill="midnightblue" stroke="midnightblue" points="1245.51,-127.7 1255.44,-124 1245.38,-120.7 1245.51,-127.7"/>
</g>
<!-- Node22&#45;&gt;Node14 -->
<g id="edge34" class="edge">
<title>Node22&#45;&gt;Node14</title>
<path fill="none" stroke="midnightblue" d="M470.85,-280.47C454.19,-254.18 408.17,-172.48 436.5,-112 442.54,-99.09 454.31,-88.6 465.32,-81"/>
<polygon fill="midnightblue" stroke="midnightblue" points="467.33,-83.87 473.87,-75.54 463.56,-77.97 467.33,-83.87"/>
</g>
<!-- Node23 -->
<g id="node23" class="node">
<title>Node23</title>
<g id="a_node23"><a xlink:title=" ">
<polygon fill="none" stroke="#bfbfbf" points="479,-224.5 479,-243.5 530,-243.5 530,-224.5 479,-224.5"/>
<text text-anchor="middle" x="504.5" y="-231.5" font-family="Helvetica,sans-Serif" font-size="10.00">variant</text>
</a>
</g>
</g>
<!-- Node22&#45;&gt;Node23 -->
<g id="edge37" class="edge">
<title>Node22&#45;&gt;Node23</title>
<path fill="none" stroke="midnightblue" d="M481.12,-280.08C484.96,-272.69 490.52,-261.95 495.26,-252.81"/>
<polygon fill="midnightblue" stroke="midnightblue" points="498.47,-254.24 499.96,-243.75 492.25,-251.02 498.47,-254.24"/>
</g>
<!-- Node22&#45;&gt;Node24 -->
<g id="edge38" class="edge">
<title>Node22&#45;&gt;Node24</title>
<path fill="none" stroke="midnightblue" d="M541.37,-280.89C544.11,-280.58 546.83,-280.28 549.5,-280 693.77,-264.64 861.74,-250.3 962.19,-242.1"/>
<polygon fill="midnightblue" stroke="midnightblue" points="962.62,-245.58 972.3,-241.28 962.05,-238.6 962.62,-245.58"/>
</g>
<!-- Node24&#45;&gt;Node2 -->
<g id="edge46" class="edge">
<title>Node24&#45;&gt;Node2</title>
<path fill="none" stroke="midnightblue" d="M1130.72,-226.19C1248.91,-216.03 1470.56,-196.97 1592.9,-186.45"/>
<polygon fill="midnightblue" stroke="midnightblue" points="1593.31,-189.92 1602.97,-185.58 1592.71,-182.95 1593.31,-189.92"/>
</g>
<!-- Node24&#45;&gt;Node3 -->
<g id="edge50" class="edge">
<title>Node24&#45;&gt;Node3</title>
<path fill="none" stroke="midnightblue" d="M1063.87,-224.3C1082.13,-211.55 1117.48,-187.22 1148.5,-168 1191.14,-141.58 1202.73,-136.51 1246.5,-112 1265.69,-101.25 1287.52,-89.28 1303.83,-80.39"/>
<polygon fill="midnightblue" stroke="midnightblue" points="1305.63,-83.4 1312.74,-75.55 1302.28,-77.25 1305.63,-83.4"/>
</g>
<!-- Node24&#45;&gt;Node7 -->
<g id="edge47" class="edge">
<title>Node24&#45;&gt;Node7</title>
<path fill="none" stroke="midnightblue" d="M1019.81,-224.44C985.43,-215.16 930.42,-200.31 892.71,-190.13"/>
<polygon fill="midnightblue" stroke="midnightblue" points="893.61,-186.74 883.04,-187.52 891.78,-193.5 893.61,-186.74"/>
</g>
<!-- Node24&#45;&gt;Node9 -->
<g id="edge42" class="edge">
<title>Node24&#45;&gt;Node9</title>
<path fill="none" stroke="midnightblue" d="M972.32,-230.08C897.43,-225.71 792.09,-214.84 761.5,-188 748.4,-176.51 744.1,-156.53 742.8,-141.75"/>
<polygon fill="midnightblue" stroke="midnightblue" points="746.29,-141.5 742.3,-131.69 739.3,-141.85 746.29,-141.5"/>
</g>
<!-- Node24&#45;&gt;Node10 -->
<g id="edge48" class="edge">
<title>Node24&#45;&gt;Node10</title>
<path fill="none" stroke="midnightblue" d="M1107.91,-224.44C1171.31,-214.83 1274.15,-199.23 1341.3,-189.04"/>
<polygon fill="midnightblue" stroke="midnightblue" points="1341.99,-192.48 1351.35,-187.52 1340.94,-185.56 1341.99,-192.48"/>
</g>
<!-- Node24&#45;&gt;Node11 -->
<g id="edge43" class="edge">
<title>Node24&#45;&gt;Node11</title>
<path fill="none" stroke="midnightblue" d="M1040.28,-224.18C1005.47,-196.87 901.13,-115.3 892.5,-112 886.57,-109.73 516.87,-80.95 383.68,-70.64"/>
<polygon fill="midnightblue" stroke="midnightblue" points="383.63,-67.13 373.39,-69.85 383.09,-74.11 383.63,-67.13"/>
</g>
<!-- Node24&#45;&gt;Node12 -->
<g id="edge44" class="edge">
<title>Node24&#45;&gt;Node12</title>
<path fill="none" stroke="midnightblue" d="M1057.6,-224.22C1079.1,-194.12 1154.96,-94.74 1245.5,-56 1390.89,6.22 1442.43,-38.38 1599.5,-20 1607.07,-19.11 1615.1,-18.11 1622.89,-17.1"/>
<polygon fill="midnightblue" stroke="midnightblue" points="1623.47,-20.55 1632.93,-15.78 1622.56,-13.61 1623.47,-20.55"/>
</g>
<!-- Node24&#45;&gt;Node13 -->
<g id="edge49" class="edge">
<title>Node24&#45;&gt;Node13</title>
<path fill="none" stroke="midnightblue" d="M1070.1,-224.38C1089.63,-215.32 1121.22,-200.67 1148.5,-188 1167.62,-179.12 1172.01,-176.02 1191.5,-168 1221.25,-155.76 1255.69,-143.49 1280.88,-134.87"/>
<polygon fill="midnightblue" stroke="midnightblue" points="1282.05,-138.17 1290.39,-131.64 1279.79,-131.54 1282.05,-138.17"/>
</g>
<!-- Node24&#45;&gt;Node14 -->
<g id="edge41" class="edge">
<title>Node24&#45;&gt;Node14</title>
<path fill="none" stroke="midnightblue" d="M1044.63,-224.35C1024.28,-198.93 963.96,-125.46 936.5,-112 864.32,-76.63 618.23,-69.04 525.89,-67.43"/>
<polygon fill="midnightblue" stroke="midnightblue" points="525.72,-63.93 515.66,-67.26 525.61,-70.92 525.72,-63.93"/>
</g>
<!-- Node24&#45;&gt;Node20 -->
<g id="edge45" class="edge">
<title>Node24&#45;&gt;Node20</title>
<path fill="none" stroke="midnightblue" d="M974.46,-224.47C908.8,-216.67 812.06,-203.94 728.5,-188 727.04,-187.72 725.55,-187.42 724.05,-187.11"/>
<polygon fill="midnightblue" stroke="midnightblue" points="724.64,-183.66 714.12,-184.88 723.11,-190.49 724.64,-183.66"/>
</g>
<!-- Node25 -->
<g id="node25" class="node">
<title>Node25</title>
<g id="a_node25"><a xlink:title=" ">
<polygon fill="none" stroke="#bfbfbf" points="1026.5,-168.5 1026.5,-187.5 1068.5,-187.5 1068.5,-168.5 1026.5,-168.5"/>
<text text-anchor="middle" x="1047.5" y="-175.5" font-family="Helvetica,sans-Serif" font-size="10.00">array</text>
</a>
</g>
</g>
<!-- Node24&#45;&gt;Node25 -->
<g id="edge39" class="edge">
<title>Node24&#45;&gt;Node25</title>
<path fill="none" stroke="midnightblue" d="M1050.84,-224.08C1050.32,-217.01 1049.56,-206.86 1048.91,-197.99"/>
<polygon fill="midnightblue" stroke="midnightblue" points="1052.38,-197.47 1048.15,-187.75 1045.4,-197.98 1052.38,-197.47"/>
</g>
<!-- Node26 -->
<g id="node26" class="node">
<title>Node26</title>
<g id="a_node26"><a xlink:title=" ">
<polygon fill="none" stroke="#bfbfbf" points="1200.5,-168.5 1200.5,-187.5 1250.5,-187.5 1250.5,-168.5 1200.5,-168.5"/>
<text text-anchor="middle" x="1225.5" y="-175.5" font-family="Helvetica,sans-Serif" font-size="10.00">chrono</text>
</a>
</g>
</g>
<!-- Node24&#45;&gt;Node26 -->
<g id="edge40" class="edge">
<title>Node24&#45;&gt;Node26</title>
<path fill="none" stroke="midnightblue" d="M1079.07,-224.44C1109.29,-215.06 1157.84,-200 1190.67,-189.81"/>
<polygon fill="midnightblue" stroke="midnightblue" points="1191.8,-193.12 1200.32,-186.82 1189.73,-186.44 1191.8,-193.12"/>
</g>
<!-- Node27&#45;&gt;Node9 -->
<g id="edge56" class="edge">
<title>Node27&#45;&gt;Node9</title>
<path fill="none" stroke="midnightblue" d="M230.66,-336.35C245.25,-327.39 268.59,-312.92 288.5,-300 376.6,-242.83 387.07,-207.22 484.5,-168 561.52,-137 659.93,-127.33 710.03,-124.33"/>
<polygon fill="midnightblue" stroke="midnightblue" points="710.46,-127.81 720.25,-123.77 710.07,-120.82 710.46,-127.81"/>
</g>
<!-- Node27&#45;&gt;Node11 -->
<g id="edge57" class="edge">
<title>Node27&#45;&gt;Node11</title>
<path fill="none" stroke="midnightblue" d="M207.76,-336.49C190.89,-319.12 155.5,-277.58 155.5,-235 155.5,-235 155.5,-235 155.5,-177 155.5,-114.13 236.24,-86.17 289.87,-74.54"/>
<polygon fill="midnightblue" stroke="midnightblue" points="290.78,-77.92 299.87,-72.48 289.37,-71.06 290.78,-77.92"/>
</g>
<!-- Node27&#45;&gt;Node14 -->
<g id="edge54" class="edge">
<title>Node27&#45;&gt;Node14</title>
<path fill="none" stroke="midnightblue" d="M214.57,-336.49C212.05,-323.97 208.41,-299.94 212.5,-280 228.83,-200.42 221.87,-163.74 284.5,-112 310.18,-90.79 403.43,-76.99 455.22,-70.79"/>
<polygon fill="midnightblue" stroke="midnightblue" points="455.77,-74.25 465.3,-69.62 454.96,-67.3 455.77,-74.25"/>
</g>
<!-- Node27&#45;&gt;Node17 -->
<g id="edge59" class="edge">
<title>Node27&#45;&gt;Node17</title>
<path fill="none" stroke="midnightblue" d="M192.26,-336.44C166.63,-327.4 126.01,-313.06 97.26,-302.92"/>
<polygon fill="midnightblue" stroke="midnightblue" points="98.22,-299.54 87.63,-299.52 95.89,-306.15 98.22,-299.54"/>
</g>
<!-- Node27&#45;&gt;Node21 -->
<g id="edge58" class="edge">
<title>Node27&#45;&gt;Node21</title>
<path fill="none" stroke="midnightblue" d="M279.21,-339.02C344.29,-332.25 449.14,-319.78 548.85,-299.88"/>
<polygon fill="midnightblue" stroke="midnightblue" points="549.69,-303.28 558.8,-297.87 548.3,-296.42 549.69,-303.28"/>
</g>
<!-- Node28 -->
<g id="node28" class="node">
<title>Node28</title>
<g id="a_node28"><a xlink:title=" ">
<polygon fill="none" stroke="#bfbfbf" points="221.5,-280.5 221.5,-299.5 279.5,-299.5 279.5,-280.5 221.5,-280.5"/>
<text text-anchor="middle" x="250.5" y="-287.5" font-family="Helvetica,sans-Serif" font-size="10.00">memory</text>
</a>
</g>
</g>
<!-- Node27&#45;&gt;Node28 -->
<g id="edge55" class="edge">
<title>Node27&#45;&gt;Node28</title>
<path fill="none" stroke="midnightblue" d="M222.11,-336.08C226.87,-328.53 233.82,-317.49 239.65,-308.23"/>
<polygon fill="midnightblue" stroke="midnightblue" points="242.62,-310.08 244.99,-299.75 236.7,-306.35 242.62,-310.08"/>
</g>
<!-- Node29&#45;&gt;Node3 -->
<g id="edge83" class="edge">
<title>Node29&#45;&gt;Node3</title>
<path fill="none" stroke="midnightblue" d="M1087.39,-336.38C1107.16,-328.2 1136.71,-314.96 1160.5,-300 1205.99,-271.41 1205.43,-245.87 1254.5,-224 1347,-182.77 1413.79,-265.06 1479.5,-188 1519.8,-140.74 1423.12,-98.63 1366.3,-78.88"/>
<polygon fill="midnightblue" stroke="midnightblue" points="1367.13,-75.46 1356.54,-75.57 1364.88,-82.09 1367.13,-75.46"/>
</g>
<!-- Node29&#45;&gt;Node7 -->
<g id="edge68" class="edge">
<title>Node29&#45;&gt;Node7</title>
<path fill="none" stroke="midnightblue" d="M1002.66,-336.43C974.84,-330.08 943.14,-319.07 919.5,-300 918.36,-299.08 879.92,-230.11 861.35,-196.72"/>
<polygon fill="midnightblue" stroke="midnightblue" points="864.21,-194.66 856.29,-187.62 858.09,-198.06 864.21,-194.66"/>
</g>
<!-- Node29&#45;&gt;Node10 -->
<g id="edge69" class="edge">
<title>Node29&#45;&gt;Node10</title>
<path fill="none" stroke="midnightblue" d="M1079.92,-336.45C1094.17,-327.8 1116.41,-313.78 1134.5,-300 1175.08,-269.1 1175.25,-247.55 1220.5,-224 1255.7,-205.68 1298.51,-194.67 1334.28,-188.13"/>
<polygon fill="midnightblue" stroke="midnightblue" points="1334.93,-191.57 1344.17,-186.41 1333.72,-184.68 1334.93,-191.57"/>
</g>
<!-- Node29&#45;&gt;Node13 -->
<g id="edge82" class="edge">
<title>Node29&#45;&gt;Node13</title>
<path fill="none" stroke="midnightblue" d="M1072.35,-336.42C1089.65,-315.18 1137.24,-259.3 1186.5,-224 1215.9,-202.93 1230.8,-210.02 1259.5,-188 1277.47,-174.21 1294.07,-154.08 1304.66,-139.89"/>
<polygon fill="midnightblue" stroke="midnightblue" points="1307.67,-141.69 1310.71,-131.54 1302.01,-137.59 1307.67,-141.69"/>
</g>
<!-- Node29&#45;&gt;Node14 -->
<g id="edge64" class="edge">
<title>Node29&#45;&gt;Node14</title>
<path fill="none" stroke="midnightblue" d="M1029.1,-336.45C996.34,-328.36 947.1,-315.22 905.5,-300 792.68,-258.73 763.49,-248.14 659.5,-188 601.78,-154.62 539.35,-106.4 509.07,-82.14"/>
<polygon fill="midnightblue" stroke="midnightblue" points="511.06,-79.25 501.08,-75.7 506.66,-84.7 511.06,-79.25"/>
</g>
<!-- Node29&#45;&gt;Node21 -->
<g id="edge67" class="edge">
<title>Node29&#45;&gt;Node21</title>
<path fill="none" stroke="midnightblue" d="M1000.86,-337.77C896.8,-326.14 695.75,-303.66 616.14,-294.76"/>
<polygon fill="midnightblue" stroke="midnightblue" points="616.5,-291.28 606.17,-293.65 615.72,-298.24 616.5,-291.28"/>
</g>
<!-- Node29&#45;&gt;Node24 -->
<g id="edge81" class="edge">
<title>Node29&#45;&gt;Node24</title>
<path fill="none" stroke="midnightblue" d="M1065.87,-336.11C1066.24,-323.54 1066.42,-299.88 1063.5,-280 1062.19,-271.09 1059.75,-261.42 1057.41,-253.33"/>
<polygon fill="midnightblue" stroke="midnightblue" points="1060.68,-252.04 1054.4,-243.5 1053.98,-254.09 1060.68,-252.04"/>
</g>
<!-- Node30 -->
<g id="node30" class="node">
<title>Node30</title>
<g id="a_node30"><a xlink:title=" ">
<polygon fill="none" stroke="#bfbfbf" points="928.5,-280.5 928.5,-299.5 980.5,-299.5 980.5,-280.5 928.5,-280.5"/>
<text text-anchor="middle" x="954.5" y="-287.5" font-family="Helvetica,sans-Serif" font-size="10.00">cassert</text>
</a>
</g>
</g>
<!-- Node29&#45;&gt;Node30 -->
<g id="edge63" class="edge">
<title>Node29&#45;&gt;Node30</title>
<path fill="none" stroke="midnightblue" d="M1047.67,-336.32C1029.78,-327.62 1002.02,-314.12 981.45,-304.11"/>
<polygon fill="midnightblue" stroke="midnightblue" points="982.81,-300.88 972.29,-299.65 979.75,-307.18 982.81,-300.88"/>
</g>
<!-- Node31 -->
<g id="node31" class="node">
<title>Node31</title>
<g id="a_node31"><a xlink:title=" ">
<polygon fill="none" stroke="#bfbfbf" points="1263,-224.5 1263,-243.5 1316,-243.5 1316,-224.5 1263,-224.5"/>
<text text-anchor="middle" x="1289.5" y="-231.5" font-family="Helvetica,sans-Serif" font-size="10.00">iterator</text>
</a>
</g>
</g>
<!-- Node29&#45;&gt;Node31 -->
<g id="edge65" class="edge">
<title>Node29&#45;&gt;Node31</title>
<path fill="none" stroke="midnightblue" d="M1130.21,-341.04C1167.7,-336 1214.13,-324.78 1248.5,-300 1264.7,-288.32 1275.97,-268.08 1282.54,-253.28"/>
<polygon fill="midnightblue" stroke="midnightblue" points="1285.93,-254.25 1286.5,-243.67 1279.45,-251.58 1285.93,-254.25"/>
</g>
<!-- Node32 -->
<g id="node32" class="node">
<title>Node32</title>
<g id="a_node32"><a xlink:title=" ">
<polygon fill="none" stroke="#bfbfbf" points="998.5,-280.5 998.5,-299.5 1054.5,-299.5 1054.5,-280.5 998.5,-280.5"/>
<text text-anchor="middle" x="1026.5" y="-287.5" font-family="Helvetica,sans-Serif" font-size="10.00">optional</text>
</a>
</g>
</g>
<!-- Node29&#45;&gt;Node32 -->
<g id="edge66" class="edge">
<title>Node29&#45;&gt;Node32</title>
<path fill="none" stroke="midnightblue" d="M1059.06,-336.08C1053.55,-328.46 1045.47,-317.26 1038.74,-307.94"/>
<polygon fill="midnightblue" stroke="midnightblue" points="1041.51,-305.81 1032.82,-299.75 1035.84,-309.91 1041.51,-305.81"/>
</g>
<!-- Node29&#45;&gt;Node33 -->
<g id="edge70" class="edge">
<title>Node29&#45;&gt;Node33</title>
<path fill="none" stroke="midnightblue" d="M1119.37,-336.44C1179.81,-326.85 1277.74,-311.29 1341.88,-301.1"/>
<polygon fill="midnightblue" stroke="midnightblue" points="1342.55,-304.54 1351.88,-299.52 1341.45,-297.63 1342.55,-304.54"/>
</g>
<!-- Node33&#45;&gt;Node3 -->
<g id="edge80" class="edge">
<title>Node33&#45;&gt;Node3</title>
<path fill="none" stroke="midnightblue" d="M1487.62,-289.47C1614.05,-287.09 1834.88,-268.93 1765.5,-168 1726.1,-110.7 1528.96,-84.19 1413.36,-73.4"/>
<polygon fill="midnightblue" stroke="midnightblue" points="1413.4,-69.89 1403.13,-72.46 1412.77,-76.86 1413.4,-69.89"/>
</g>
<!-- Node33&#45;&gt;Node7 -->
<g id="edge75" class="edge">
<title>Node33&#45;&gt;Node7</title>
<path fill="none" stroke="midnightblue" d="M1396.25,-280.32C1378.84,-264.16 1341.48,-230.54 1325.5,-224 1291.03,-209.89 1070.12,-193.34 942.4,-184.78"/>
<polygon fill="midnightblue" stroke="midnightblue" points="942.45,-181.28 932.24,-184.11 941.98,-188.26 942.45,-181.28"/>
</g>
<!-- Node33&#45;&gt;Node9 -->
<g id="edge73" class="edge">
<title>Node33&#45;&gt;Node9</title>
<path fill="none" stroke="midnightblue" d="M1404.6,-280.32C1402.75,-266.71 1397.38,-240.24 1382.5,-224 1341.92,-179.72 1317.65,-183.07 1259.5,-168 1065.28,-117.67 1009,-153.36 809.5,-132 798.18,-130.79 785.82,-129.2 774.83,-127.7"/>
<polygon fill="midnightblue" stroke="midnightblue" points="775.18,-124.22 764.8,-126.3 774.22,-131.15 775.18,-124.22"/>
</g>
<!-- Node33&#45;&gt;Node10 -->
<g id="edge76" class="edge">
<title>Node33&#45;&gt;Node10</title>
<path fill="none" stroke="midnightblue" d="M1413.17,-280.46C1420.28,-271.93 1430.35,-258.09 1434.5,-244 1439.44,-227.21 1430.4,-208.86 1421.48,-195.95"/>
<polygon fill="midnightblue" stroke="midnightblue" points="1424.01,-193.5 1415.2,-187.61 1418.42,-197.71 1424.01,-193.5"/>
</g>
<!-- Node33&#45;&gt;Node12 -->
<g id="edge74" class="edge">
<title>Node33&#45;&gt;Node12</title>
<path fill="none" stroke="midnightblue" d="M1487.68,-284.75C1595.97,-278.36 1775.38,-264.78 1797.5,-244 1858.52,-186.67 1858.96,-123.56 1809.5,-56 1787.44,-25.87 1745.1,-15.42 1712.37,-12.02"/>
<polygon fill="midnightblue" stroke="midnightblue" points="1712.38,-8.51 1702.12,-11.15 1711.79,-15.49 1712.38,-8.51"/>
</g>
<!-- Node33&#45;&gt;Node13 -->
<g id="edge79" class="edge">
<title>Node33&#45;&gt;Node13</title>
<path fill="none" stroke="midnightblue" d="M1418.01,-280.4C1446.14,-260.03 1509.63,-207.58 1479.5,-168 1467.66,-152.44 1424,-140.89 1384.85,-133.39"/>
<polygon fill="midnightblue" stroke="midnightblue" points="1385.49,-129.95 1375.02,-131.57 1384.21,-136.83 1385.49,-129.95"/>
</g>
<!-- Node33&#45;&gt;Node16 -->
<g id="edge77" class="edge">
<title>Node33&#45;&gt;Node16</title>
<path fill="none" stroke="midnightblue" d="M1487.66,-284.42C1591.02,-277.85 1757.51,-264.26 1777.5,-244 1820.86,-200.05 1775.3,-119.32 1751.75,-84.14"/>
<polygon fill="midnightblue" stroke="midnightblue" points="1754.6,-82.11 1746.05,-75.86 1748.84,-86.08 1754.6,-82.11"/>
</g>
<!-- Node33&#45;&gt;Node24 -->
<g id="edge78" class="edge">
<title>Node33&#45;&gt;Node24</title>
<path fill="none" stroke="midnightblue" d="M1349.41,-280.44C1286.36,-270.83 1184.1,-255.23 1117.32,-245.04"/>
<polygon fill="midnightblue" stroke="midnightblue" points="1117.74,-241.56 1107.33,-243.52 1116.69,-248.48 1117.74,-241.56"/>
</g>
<!-- Node33&#45;&gt;Node26 -->
<g id="edge71" class="edge">
<title>Node33&#45;&gt;Node26</title>
<path fill="none" stroke="midnightblue" d="M1401.33,-280.08C1394.38,-266.13 1379.12,-239.21 1358.5,-224 1342.77,-212.4 1294.53,-197.67 1260.7,-188.28"/>
<polygon fill="midnightblue" stroke="midnightblue" points="1261.29,-184.82 1250.72,-185.55 1259.44,-191.57 1261.29,-184.82"/>
</g>
<!-- Node33&#45;&gt;Node31 -->
<g id="edge72" class="edge">
<title>Node33&#45;&gt;Node31</title>
<path fill="none" stroke="midnightblue" d="M1387.12,-280.44C1368.28,-271.68 1338.77,-257.94 1317.12,-247.86"/>
<polygon fill="midnightblue" stroke="midnightblue" points="1318.34,-244.56 1307.79,-243.52 1315.38,-250.91 1318.34,-244.56"/>
</g>
</g>
</svg>
