<?xml version="1.0" encoding="UTF-8" standalone="no"?>
<!DOCTYPE svg PUBLIC "-//W3C//DTD SVG 1.1//EN"
 "http://www.w3.org/Graphics/SVG/1.1/DTD/svg11.dtd">
<!-- Generated by graphviz version 2.43.0 (0)
 -->
<!-- Title: /home/runner/work/open62541pp/open62541pp/include/open62541pp/open62541pp.h Pages: 1 -->
<svg width="1265pt" height="386pt"
 viewBox="0.00 0.00 1264.83 386.00" xmlns="http://www.w3.org/2000/svg" xmlns:xlink="http://www.w3.org/1999/xlink">
<g id="graph0" class="graph" transform="scale(1 1) rotate(0) translate(4 382)">
<title>/home/runner/work/open62541pp/open62541pp/include/open62541pp/open62541pp.h</title>
<!-- Node1 -->
<g id="node1" class="node">
<title>Node1</title>
<g id="a_node1"><a xlink:title=" ">
<polygon fill="#bfbfbf" stroke="black" points="361.5,-336.5 361.5,-377.5 554.5,-377.5 554.5,-336.5 361.5,-336.5"/>
<text text-anchor="start" x="369.5" y="-365.5" font-family="Helvetica,sans-Serif" font-size="10.00">/home/runner/work/open62541pp</text>
<text text-anchor="start" x="369.5" y="-354.5" font-family="Helvetica,sans-Serif" font-size="10.00">/open62541pp/include/open62541pp</text>
<text text-anchor="middle" x="458" y="-343.5" font-family="Helvetica,sans-Serif" font-size="10.00">/open62541pp.h</text>
</a>
</g>
</g>
<!-- Node2 -->
<g id="node2" class="node">
<title>Node2</title>
<g id="a_node2"><a xlink:href="ErrorHandling_8h.html" target="_top" xlink:title=" ">
<polygon fill="none" stroke="black" points="317.5,-112.5 317.5,-131.5 478.5,-131.5 478.5,-112.5 317.5,-112.5"/>
<text text-anchor="middle" x="398" y="-119.5" font-family="Helvetica,sans-Serif" font-size="10.00">open62541pp/ErrorHandling.h</text>
</a>
</g>
</g>
<!-- Node1&#45;&gt;Node2 -->
<g id="edge1" class="edge">
<title>Node1&#45;&gt;Node2</title>
<path fill="none" stroke="midnightblue" d="M414.38,-336.35C376.97,-317.5 324.03,-285.75 291,-244 274.51,-223.16 274.74,-214.15 270,-188 268.41,-179.25 264.86,-175.25 270,-168 281.53,-151.72 299.44,-141.29 318.25,-134.62"/>
<polygon fill="midnightblue" stroke="midnightblue" points="319.38,-137.93 327.83,-131.54 317.24,-131.26 319.38,-137.93"/>
</g>
<!-- Node9 -->
<g id="node9" class="node">
<title>Node9</title>
<g id="a_node9"><a xlink:href="Helper_8h.html" target="_top" xlink:title=" ">
<polygon fill="none" stroke="black" points="932,-168.5 932,-187.5 1058,-187.5 1058,-168.5 932,-168.5"/>
<text text-anchor="middle" x="995" y="-175.5" font-family="Helvetica,sans-Serif" font-size="10.00">open62541pp/Helper.h</text>
</a>
</g>
</g>
<!-- Node1&#45;&gt;Node9 -->
<g id="edge8" class="edge">
<title>Node1&#45;&gt;Node9</title>
<path fill="none" stroke="midnightblue" d="M554.67,-354.92C660.88,-349.31 832.26,-326.74 952,-244 968.82,-232.38 980.77,-211.82 987.73,-196.94"/>
<polygon fill="midnightblue" stroke="midnightblue" points="990.97,-198.28 991.76,-187.71 984.55,-195.48 990.97,-198.28"/>
</g>
<!-- Node11 -->
<g id="node11" class="node">
<title>Node11</title>
<g id="a_node11"><a xlink:href="Logger_8h.html" target="_top" xlink:title=" ">
<polygon fill="none" stroke="black" points="1114.5,-168.5 1114.5,-187.5 1241.5,-187.5 1241.5,-168.5 1114.5,-168.5"/>
<text text-anchor="middle" x="1178" y="-175.5" font-family="Helvetica,sans-Serif" font-size="10.00">open62541pp/Logger.h</text>
</a>
</g>
</g>
<!-- Node1&#45;&gt;Node11 -->
<g id="edge12" class="edge">
<title>Node1&#45;&gt;Node11</title>
<path fill="none" stroke="midnightblue" d="M554.7,-350.24C641.33,-343.43 771.27,-329.1 881,-300 985.19,-272.37 1101.64,-217.33 1152.23,-192.14"/>
<polygon fill="midnightblue" stroke="midnightblue" points="1154.08,-195.13 1161.45,-187.52 1150.94,-188.87 1154.08,-195.13"/>
</g>
<!-- Node13 -->
<g id="node13" class="node">
<title>Node13</title>
<g id="a_node13"><a xlink:href="Node_8h.html" target="_top" xlink:title=" ">
<polygon fill="none" stroke="black" points="518,-280.5 518,-299.5 638,-299.5 638,-280.5 518,-280.5"/>
<text text-anchor="middle" x="578" y="-287.5" font-family="Helvetica,sans-Serif" font-size="10.00">open62541pp/Node.h</text>
</a>
</g>
</g>
<!-- Node1&#45;&gt;Node13 -->
<g id="edge15" class="edge">
<title>Node1&#45;&gt;Node13</title>
<path fill="none" stroke="midnightblue" d="M494,-336.5C513.11,-326.15 536.1,-313.69 553.2,-304.43"/>
<polygon fill="midnightblue" stroke="midnightblue" points="554.9,-307.49 562.03,-299.65 551.57,-301.34 554.9,-307.49"/>
</g>
<!-- Node17 -->
<g id="node17" class="node">
<title>Node17</title>
<g id="a_node17"><a xlink:href="NodeId_8h.html" target="_top" xlink:title=" ">
<polygon fill="none" stroke="black" points="300.5,-224.5 300.5,-243.5 429.5,-243.5 429.5,-224.5 300.5,-224.5"/>
<text text-anchor="middle" x="365" y="-231.5" font-family="Helvetica,sans-Serif" font-size="10.00">open62541pp/NodeId.h</text>
</a>
</g>
</g>
<!-- Node1&#45;&gt;Node17 -->
<g id="edge53" class="edge">
<title>Node1&#45;&gt;Node17</title>
<path fill="none" stroke="midnightblue" d="M442.85,-336.29C424.76,-312.75 394.81,-273.78 377.81,-251.67"/>
<polygon fill="midnightblue" stroke="midnightblue" points="380.46,-249.37 371.59,-243.57 374.91,-253.64 380.46,-249.37"/>
</g>
<!-- Node19 -->
<g id="node19" class="node">
<title>Node19</title>
<g id="a_node19"><a xlink:href="TypeWrapper_8h.html" target="_top" xlink:title=" ">
<polygon fill="none" stroke="black" points="348,-168.5 348,-187.5 506,-187.5 506,-168.5 348,-168.5"/>
<text text-anchor="middle" x="427" y="-175.5" font-family="Helvetica,sans-Serif" font-size="10.00">open62541pp/TypeWrapper.h</text>
</a>
</g>
</g>
<!-- Node1&#45;&gt;Node19 -->
<g id="edge55" class="edge">
<title>Node1&#45;&gt;Node19</title>
<path fill="none" stroke="midnightblue" d="M455.56,-336.22C452.25,-310.33 445.82,-263.57 438,-224 436.26,-215.21 433.96,-205.55 431.9,-197.45"/>
<polygon fill="midnightblue" stroke="midnightblue" points="435.24,-196.37 429.34,-187.58 428.47,-198.13 435.24,-196.37"/>
</g>
<!-- Node22 -->
<g id="node22" class="node">
<title>Node22</title>
<g id="a_node22"><a xlink:href="Types_8h.html" target="_top" xlink:title=" ">
<polygon fill="none" stroke="black" points="0,-112.5 0,-131.5 122,-131.5 122,-112.5 0,-112.5"/>
<text text-anchor="middle" x="61" y="-119.5" font-family="Helvetica,sans-Serif" font-size="10.00">open62541pp/Types.h</text>
</a>
</g>
</g>
<!-- Node1&#45;&gt;Node22 -->
<g id="edge56" class="edge">
<title>Node1&#45;&gt;Node22</title>
<path fill="none" stroke="midnightblue" d="M361.19,-339.8C260.22,-320.9 111.37,-286.73 73,-244 47.7,-215.83 51.96,-167.73 56.78,-141.46"/>
<polygon fill="midnightblue" stroke="midnightblue" points="60.21,-142.16 58.8,-131.66 53.35,-140.75 60.21,-142.16"/>
</g>
<!-- Node23 -->
<g id="node23" class="node">
<title>Node23</title>
<g id="a_node23"><a xlink:href="Server_8h.html" target="_top" xlink:title=" ">
<polygon fill="none" stroke="black" points="818.5,-224.5 818.5,-243.5 943.5,-243.5 943.5,-224.5 818.5,-224.5"/>
<text text-anchor="middle" x="881" y="-231.5" font-family="Helvetica,sans-Serif" font-size="10.00">open62541pp/Server.h</text>
</a>
</g>
</g>
<!-- Node1&#45;&gt;Node23 -->
<g id="edge54" class="edge">
<title>Node1&#45;&gt;Node23</title>
<path fill="none" stroke="midnightblue" d="M526.43,-336.42C615.76,-310.87 769.19,-266.98 841.33,-246.35"/>
<polygon fill="midnightblue" stroke="midnightblue" points="842.3,-249.71 850.95,-243.6 840.37,-242.98 842.3,-249.71"/>
</g>
<!-- Node25 -->
<g id="node25" class="node">
<title>Node25</title>
<g id="a_node25"><a xlink:href="Variant_8h.html" target="_top" xlink:title=" ">
<polygon fill="none" stroke="black" points="101.5,-224.5 101.5,-243.5 230.5,-243.5 230.5,-224.5 101.5,-224.5"/>
<text text-anchor="middle" x="166" y="-231.5" font-family="Helvetica,sans-Serif" font-size="10.00">open62541pp/Variant.h</text>
</a>
</g>
</g>
<!-- Node1&#45;&gt;Node25 -->
<g id="edge57" class="edge">
<title>Node1&#45;&gt;Node25</title>
<path fill="none" stroke="midnightblue" d="M361.48,-339.86C323.8,-331.23 281.08,-318.46 245,-300 220.18,-287.31 196.1,-265.75 181.19,-250.96"/>
<polygon fill="midnightblue" stroke="midnightblue" points="183.4,-248.22 173.89,-243.55 178.41,-253.13 183.4,-248.22"/>
</g>
<!-- Node3 -->
<g id="node3" class="node">
<title>Node3</title>
<g id="a_node3"><a xlink:title=" ">
<polygon fill="none" stroke="#bfbfbf" points="365.5,-56.5 365.5,-75.5 430.5,-75.5 430.5,-56.5 365.5,-56.5"/>
<text text-anchor="middle" x="398" y="-63.5" font-family="Helvetica,sans-Serif" font-size="10.00">stdexcept</text>
</a>
</g>
</g>
<!-- Node2&#45;&gt;Node3 -->
<g id="edge2" class="edge">
<title>Node2&#45;&gt;Node3</title>
<path fill="none" stroke="midnightblue" d="M398,-112.08C398,-105.01 398,-94.86 398,-85.99"/>
<polygon fill="midnightblue" stroke="midnightblue" points="401.5,-85.75 398,-75.75 394.5,-85.75 401.5,-85.75"/>
</g>
<!-- Node4 -->
<g id="node4" class="node">
<title>Node4</title>
<g id="a_node4"><a xlink:title=" ">
<polygon fill="none" stroke="#bfbfbf" points="973,-56.5 973,-75.5 1017,-75.5 1017,-56.5 973,-56.5"/>
<text text-anchor="middle" x="995" y="-63.5" font-family="Helvetica,sans-Serif" font-size="10.00">string</text>
</a>
</g>
</g>
<!-- Node2&#45;&gt;Node4 -->
<g id="edge3" class="edge">
<title>Node2&#45;&gt;Node4</title>
<path fill="none" stroke="midnightblue" d="M478.95,-112.86C482,-112.57 485.03,-112.28 488,-112 667.34,-95.07 882.54,-76.57 962.78,-69.73"/>
<polygon fill="midnightblue" stroke="midnightblue" points="963.09,-73.22 972.75,-68.89 962.49,-66.25 963.09,-73.22"/>
</g>
<!-- Node5 -->
<g id="node5" class="node">
<title>Node5</title>
<g id="a_node5"><a xlink:href="open62541_8h.html" target="_top" xlink:title=" ">
<polygon fill="none" stroke="black" points="177.5,-56.5 177.5,-75.5 326.5,-75.5 326.5,-56.5 177.5,-56.5"/>
<text text-anchor="middle" x="252" y="-63.5" font-family="Helvetica,sans-Serif" font-size="10.00">open62541pp/open62541.h</text>
</a>
</g>
</g>
<!-- Node2&#45;&gt;Node5 -->
<g id="edge4" class="edge">
<title>Node2&#45;&gt;Node5</title>
<path fill="none" stroke="midnightblue" d="M374.87,-112.44C350.52,-103.44 311.99,-89.19 284.58,-79.05"/>
<polygon fill="midnightblue" stroke="midnightblue" points="285.62,-75.7 275.03,-75.52 283.19,-82.27 285.62,-75.7"/>
</g>
<!-- Node6 -->
<g id="node6" class="node">
<title>Node6</title>
<g id="a_node6"><a xlink:href="open62541/nodeids_8h.html.html" xlink:title=" ">
<polygon fill="none" stroke="black" points="57.5,-0.5 57.5,-19.5 178.5,-19.5 178.5,-0.5 57.5,-0.5"/>
<text text-anchor="middle" x="118" y="-7.5" font-family="Helvetica,sans-Serif" font-size="10.00">open62541/nodeids.h</text>
</a>
</g>
</g>
<!-- Node5&#45;&gt;Node6 -->
<g id="edge5" class="edge">
<title>Node5&#45;&gt;Node6</title>
<path fill="none" stroke="midnightblue" d="M230.77,-56.44C208.62,-47.52 173.68,-33.44 148.56,-23.32"/>
<polygon fill="midnightblue" stroke="midnightblue" points="149.72,-20.01 139.13,-19.52 147.1,-26.5 149.72,-20.01"/>
</g>
<!-- Node7 -->
<g id="node7" class="node">
<title>Node7</title>
<g id="a_node7"><a xlink:href="open62541/types_8h.html.html" xlink:title=" ">
<polygon fill="none" stroke="black" points="197,-0.5 197,-19.5 307,-19.5 307,-0.5 197,-0.5"/>
<text text-anchor="middle" x="252" y="-7.5" font-family="Helvetica,sans-Serif" font-size="10.00">open62541/types.h</text>
</a>
</g>
</g>
<!-- Node5&#45;&gt;Node7 -->
<g id="edge6" class="edge">
<title>Node5&#45;&gt;Node7</title>
<path fill="none" stroke="midnightblue" d="M252,-56.08C252,-49.01 252,-38.86 252,-29.99"/>
<polygon fill="midnightblue" stroke="midnightblue" points="255.5,-29.75 252,-19.75 248.5,-29.75 255.5,-29.75"/>
</g>
<!-- Node8 -->
<g id="node8" class="node">
<title>Node8</title>
<g id="a_node8"><a xlink:href="open62541/types__generated_8h.html.html" xlink:title=" ">
<polygon fill="none" stroke="black" points="325,-0.5 325,-19.5 489,-19.5 489,-0.5 325,-0.5"/>
<text text-anchor="middle" x="407" y="-7.5" font-family="Helvetica,sans-Serif" font-size="10.00">open62541/types_generated.h</text>
</a>
</g>
</g>
<!-- Node5&#45;&gt;Node8 -->
<g id="edge7" class="edge">
<title>Node5&#45;&gt;Node8</title>
<path fill="none" stroke="midnightblue" d="M276.56,-56.44C302.52,-47.4 343.67,-33.06 372.8,-22.92"/>
<polygon fill="midnightblue" stroke="midnightblue" points="374.26,-26.11 382.55,-19.52 371.96,-19.5 374.26,-26.11"/>
</g>
<!-- Node9&#45;&gt;Node4 -->
<g id="edge9" class="edge">
<title>Node9&#45;&gt;Node4</title>
<path fill="none" stroke="midnightblue" d="M995,-168.37C995,-150.62 995,-109.67 995,-85.6"/>
<polygon fill="midnightblue" stroke="midnightblue" points="998.5,-85.59 995,-75.59 991.5,-85.59 998.5,-85.59"/>
</g>
<!-- Node9&#45;&gt;Node5 -->
<g id="edge11" class="edge">
<title>Node9&#45;&gt;Node5</title>
<path fill="none" stroke="midnightblue" d="M980.83,-168.35C956.11,-153.77 903.07,-124.64 854,-112 639.1,-56.66 577.21,-93.57 356,-76 349.78,-75.51 343.34,-74.98 336.87,-74.44"/>
<polygon fill="midnightblue" stroke="midnightblue" points="336.95,-70.94 326.69,-73.59 336.36,-77.91 336.95,-70.94"/>
</g>
<!-- Node10 -->
<g id="node10" class="node">
<title>Node10</title>
<g id="a_node10"><a xlink:title=" ">
<polygon fill="none" stroke="#bfbfbf" points="772.5,-112.5 772.5,-131.5 845.5,-131.5 845.5,-112.5 772.5,-112.5"/>
<text text-anchor="middle" x="809" y="-119.5" font-family="Helvetica,sans-Serif" font-size="10.00">string_view</text>
</a>
</g>
</g>
<!-- Node9&#45;&gt;Node10 -->
<g id="edge10" class="edge">
<title>Node9&#45;&gt;Node10</title>
<path fill="none" stroke="midnightblue" d="M965.53,-168.44C933.83,-159.24 883.27,-144.56 848.23,-134.39"/>
<polygon fill="midnightblue" stroke="midnightblue" points="848.91,-130.94 838.33,-131.52 846.96,-137.67 848.91,-130.94"/>
</g>
<!-- Node11&#45;&gt;Node10 -->
<g id="edge14" class="edge">
<title>Node11&#45;&gt;Node10</title>
<path fill="none" stroke="midnightblue" d="M1119.53,-168.44C1046.52,-157.76 923.07,-139.69 855.92,-129.87"/>
<polygon fill="midnightblue" stroke="midnightblue" points="856.04,-126.35 845.64,-128.36 855.03,-133.27 856.04,-126.35"/>
</g>
<!-- Node12 -->
<g id="node12" class="node">
<title>Node12</title>
<g id="a_node12"><a xlink:title=" ">
<polygon fill="none" stroke="#bfbfbf" points="1145.5,-112.5 1145.5,-131.5 1210.5,-131.5 1210.5,-112.5 1145.5,-112.5"/>
<text text-anchor="middle" x="1178" y="-119.5" font-family="Helvetica,sans-Serif" font-size="10.00">functional</text>
</a>
</g>
</g>
<!-- Node11&#45;&gt;Node12 -->
<g id="edge13" class="edge">
<title>Node11&#45;&gt;Node12</title>
<path fill="none" stroke="midnightblue" d="M1178,-168.08C1178,-161.01 1178,-150.86 1178,-141.99"/>
<polygon fill="midnightblue" stroke="midnightblue" points="1181.5,-141.75 1178,-131.75 1174.5,-141.75 1181.5,-141.75"/>
</g>
<!-- Node13&#45;&gt;Node2 -->
<g id="edge21" class="edge">
<title>Node13&#45;&gt;Node2</title>
<path fill="none" stroke="midnightblue" d="M575.81,-280.36C569.83,-258.48 551.21,-200.34 515,-168 496.91,-151.85 472.4,-141.23 450.49,-134.39"/>
<polygon fill="midnightblue" stroke="midnightblue" points="451.22,-130.96 440.64,-131.51 449.25,-137.67 451.22,-130.96"/>
</g>
<!-- Node13&#45;&gt;Node4 -->
<g id="edge17" class="edge">
<title>Node13&#45;&gt;Node4</title>
<path fill="none" stroke="midnightblue" d="M638.19,-289.65C788.32,-289.85 1172.79,-281.07 1250,-188 1270.54,-163.24 1239.1,-126.71 1219,-112 1188.84,-89.93 1081.71,-75.97 1027.27,-70.14"/>
<polygon fill="midnightblue" stroke="midnightblue" points="1027.43,-66.63 1017.12,-69.08 1026.7,-73.6 1027.43,-66.63"/>
</g>
<!-- Node13&#45;&gt;Node10 -->
<g id="edge18" class="edge">
<title>Node13&#45;&gt;Node10</title>
<path fill="none" stroke="midnightblue" d="M605.51,-280.46C627.76,-272.83 659.34,-260.35 684,-244 729.94,-213.55 773.9,-165.03 795.36,-139.67"/>
<polygon fill="midnightblue" stroke="midnightblue" points="798.26,-141.66 801.98,-131.74 792.89,-137.17 798.26,-141.66"/>
</g>
<!-- Node14 -->
<g id="node14" class="node">
<title>Node14</title>
<g id="a_node14"><a xlink:title=" ">
<polygon fill="none" stroke="#bfbfbf" points="659,-112.5 659,-131.5 709,-131.5 709,-112.5 659,-112.5"/>
<text text-anchor="middle" x="684" y="-119.5" font-family="Helvetica,sans-Serif" font-size="10.00">cstdint</text>
</a>
</g>
</g>
<!-- Node13&#45;&gt;Node14 -->
<g id="edge16" class="edge">
<title>Node13&#45;&gt;Node14</title>
<path fill="none" stroke="midnightblue" d="M583.7,-280.08C600.6,-253.61 650.66,-175.21 673.01,-140.21"/>
<polygon fill="midnightblue" stroke="midnightblue" points="676.1,-141.88 678.53,-131.57 670.2,-138.11 676.1,-141.88"/>
</g>
<!-- Node15 -->
<g id="node15" class="node">
<title>Node15</title>
<g id="a_node15"><a xlink:title=" ">
<polygon fill="none" stroke="#bfbfbf" points="595.5,-112.5 595.5,-131.5 640.5,-131.5 640.5,-112.5 595.5,-112.5"/>
<text text-anchor="middle" x="618" y="-119.5" font-family="Helvetica,sans-Serif" font-size="10.00">utility</text>
</a>
</g>
</g>
<!-- Node13&#45;&gt;Node15 -->
<g id="edge19" class="edge">
<title>Node13&#45;&gt;Node15</title>
<path fill="none" stroke="midnightblue" d="M580.15,-280.08C586.45,-253.95 604.94,-177.21 613.52,-141.58"/>
<polygon fill="midnightblue" stroke="midnightblue" points="617,-142.11 615.94,-131.57 610.19,-140.47 617,-142.11"/>
</g>
<!-- Node16 -->
<g id="node16" class="node">
<title>Node16</title>
<g id="a_node16"><a xlink:title=" ">
<polygon fill="none" stroke="#bfbfbf" points="676.5,-168.5 676.5,-187.5 723.5,-187.5 723.5,-168.5 676.5,-168.5"/>
<text text-anchor="middle" x="700" y="-175.5" font-family="Helvetica,sans-Serif" font-size="10.00">vector</text>
</a>
</g>
</g>
<!-- Node13&#45;&gt;Node16 -->
<g id="edge20" class="edge">
<title>Node13&#45;&gt;Node16</title>
<path fill="none" stroke="midnightblue" d="M601.56,-280.5C619.73,-273.04 644.61,-260.76 662,-244 675.8,-230.7 686.26,-211.31 692.68,-197.17"/>
<polygon fill="midnightblue" stroke="midnightblue" points="696.07,-198.14 696.78,-187.57 689.63,-195.39 696.07,-198.14"/>
</g>
<!-- Node13&#45;&gt;Node17 -->
<g id="edge22" class="edge">
<title>Node13&#45;&gt;Node17</title>
<path fill="none" stroke="midnightblue" d="M544.25,-280.44C507.48,-271.12 448.55,-256.18 408.38,-246"/>
<polygon fill="midnightblue" stroke="midnightblue" points="409.15,-242.58 398.59,-243.52 407.43,-249.37 409.15,-242.58"/>
</g>
<!-- Node13&#45;&gt;Node19 -->
<g id="edge45" class="edge">
<title>Node13&#45;&gt;Node19</title>
<path fill="none" stroke="midnightblue" d="M566.15,-280.37C540.35,-261.57 478.85,-216.77 446.95,-193.53"/>
<polygon fill="midnightblue" stroke="midnightblue" points="448.94,-190.65 438.79,-187.59 444.82,-196.31 448.94,-190.65"/>
</g>
<!-- Node13&#45;&gt;Node22 -->
<g id="edge46" class="edge">
<title>Node13&#45;&gt;Node22</title>
<path fill="none" stroke="midnightblue" d="M517.98,-287.26C395.12,-283.16 123.79,-271.12 92,-244 62.26,-218.64 59.03,-169 59.72,-141.85"/>
<polygon fill="midnightblue" stroke="midnightblue" points="63.23,-141.88 60.2,-131.73 56.23,-141.55 63.23,-141.88"/>
</g>
<!-- Node13&#45;&gt;Node23 -->
<g id="edge38" class="edge">
<title>Node13&#45;&gt;Node23</title>
<path fill="none" stroke="midnightblue" d="M626.01,-280.44C679.53,-270.9 766.07,-255.48 823.24,-245.29"/>
<polygon fill="midnightblue" stroke="midnightblue" points="823.98,-248.72 833.21,-243.52 822.75,-241.83 823.98,-248.72"/>
</g>
<!-- Node13&#45;&gt;Node25 -->
<g id="edge47" class="edge">
<title>Node13&#45;&gt;Node25</title>
<path fill="none" stroke="midnightblue" d="M517.65,-281.09C444.13,-271.45 319.94,-255.18 240.52,-244.77"/>
<polygon fill="midnightblue" stroke="midnightblue" points="240.96,-241.29 230.59,-243.47 240.05,-248.24 240.96,-241.29"/>
</g>
<!-- Node17&#45;&gt;Node5 -->
<g id="edge37" class="edge">
<title>Node17&#45;&gt;Node5</title>
<path fill="none" stroke="midnightblue" d="M327.46,-224.42C307.29,-217.84 283.81,-206.62 270,-188 247.62,-157.82 247.58,-111.57 249.68,-85.87"/>
<polygon fill="midnightblue" stroke="midnightblue" points="253.19,-85.95 250.73,-75.64 246.23,-85.23 253.19,-85.95"/>
</g>
<!-- Node17&#45;&gt;Node10 -->
<g id="edge23" class="edge">
<title>Node17&#45;&gt;Node10</title>
<path fill="none" stroke="midnightblue" d="M399.47,-224.46C479.22,-204.7 676.38,-155.86 764.82,-133.94"/>
<polygon fill="midnightblue" stroke="midnightblue" points="765.69,-137.34 774.55,-131.53 764,-130.54 765.69,-137.34"/>
</g>
<!-- Node18 -->
<g id="node18" class="node">
<title>Node18</title>
<g id="a_node18"><a xlink:title=" ">
<polygon fill="none" stroke="#bfbfbf" points="279.5,-168.5 279.5,-187.5 330.5,-187.5 330.5,-168.5 279.5,-168.5"/>
<text text-anchor="middle" x="305" y="-175.5" font-family="Helvetica,sans-Serif" font-size="10.00">variant</text>
</a>
</g>
</g>
<!-- Node17&#45;&gt;Node18 -->
<g id="edge24" class="edge">
<title>Node17&#45;&gt;Node18</title>
<path fill="none" stroke="midnightblue" d="M355.36,-224.32C346.49,-216.34 333.13,-204.31 322.39,-194.65"/>
<polygon fill="midnightblue" stroke="midnightblue" points="324.59,-191.92 314.82,-187.83 319.91,-197.13 324.59,-191.92"/>
</g>
<!-- Node17&#45;&gt;Node19 -->
<g id="edge25" class="edge">
<title>Node17&#45;&gt;Node19</title>
<path fill="none" stroke="midnightblue" d="M374.96,-224.32C384.13,-216.34 397.94,-204.31 409.03,-194.65"/>
<polygon fill="midnightblue" stroke="midnightblue" points="411.62,-197.04 416.86,-187.83 407.02,-191.76 411.62,-197.04"/>
</g>
<!-- Node19&#45;&gt;Node2 -->
<g id="edge32" class="edge">
<title>Node19&#45;&gt;Node2</title>
<path fill="none" stroke="midnightblue" d="M422.21,-168.08C418.24,-160.69 412.47,-149.95 407.57,-140.81"/>
<polygon fill="midnightblue" stroke="midnightblue" points="410.51,-138.91 402.7,-131.75 404.35,-142.22 410.51,-138.91"/>
</g>
<!-- Node19&#45;&gt;Node4 -->
<g id="edge28" class="edge">
<title>Node19&#45;&gt;Node4</title>
<path fill="none" stroke="midnightblue" d="M452.88,-168.46C477.64,-160.03 515.87,-146.36 548,-132 565.42,-124.21 567.75,-117.59 586,-112 721.19,-70.62 891.8,-66.33 962.26,-66.51"/>
<polygon fill="midnightblue" stroke="midnightblue" points="962.67,-70.01 972.69,-66.57 962.71,-63.01 962.67,-70.01"/>
</g>
<!-- Node19&#45;&gt;Node5 -->
<g id="edge36" class="edge">
<title>Node19&#45;&gt;Node5</title>
<path fill="none" stroke="midnightblue" d="M391.18,-168.5C366.31,-161.44 333.24,-149.67 308,-132 289.58,-119.11 273.41,-98.82 263.25,-84.34"/>
<polygon fill="midnightblue" stroke="midnightblue" points="265.97,-82.13 257.47,-75.8 260.17,-86.05 265.97,-82.13"/>
</g>
<!-- Node19&#45;&gt;Node10 -->
<g id="edge29" class="edge">
<title>Node19&#45;&gt;Node10</title>
<path fill="none" stroke="midnightblue" d="M487.53,-168.44C563.77,-157.67 693.14,-139.38 762.23,-129.61"/>
<polygon fill="midnightblue" stroke="midnightblue" points="762.96,-133.04 772.38,-128.18 761.98,-126.11 762.96,-133.04"/>
</g>
<!-- Node19&#45;&gt;Node14 -->
<g id="edge27" class="edge">
<title>Node19&#45;&gt;Node14</title>
<path fill="none" stroke="midnightblue" d="M472.64,-168.46C517.63,-159.88 588.25,-145.96 649,-132 649.1,-131.98 649.2,-131.95 649.3,-131.93"/>
<polygon fill="midnightblue" stroke="midnightblue" points="649.9,-135.39 658.8,-129.65 648.26,-128.58 649.9,-135.39"/>
</g>
<!-- Node19&#45;&gt;Node15 -->
<g id="edge31" class="edge">
<title>Node19&#45;&gt;Node15</title>
<path fill="none" stroke="midnightblue" d="M457.26,-168.44C492.21,-158.56 549.48,-142.37 585.39,-132.22"/>
<polygon fill="midnightblue" stroke="midnightblue" points="586.68,-135.49 595.35,-129.4 584.78,-128.76 586.68,-135.49"/>
</g>
<!-- Node20 -->
<g id="node20" class="node">
<title>Node20</title>
<g id="a_node20"><a xlink:title=" ">
<polygon fill="none" stroke="#bfbfbf" points="497,-112.5 497,-131.5 539,-131.5 539,-112.5 497,-112.5"/>
<text text-anchor="middle" x="518" y="-119.5" font-family="Helvetica,sans-Serif" font-size="10.00">array</text>
</a>
</g>
</g>
<!-- Node19&#45;&gt;Node20 -->
<g id="edge26" class="edge">
<title>Node19&#45;&gt;Node20</title>
<path fill="none" stroke="midnightblue" d="M441.62,-168.32C455.95,-159.82 478.01,-146.73 494.75,-136.8"/>
<polygon fill="midnightblue" stroke="midnightblue" points="496.6,-139.77 503.42,-131.65 493.03,-133.75 496.6,-139.77"/>
</g>
<!-- Node21 -->
<g id="node21" class="node">
<title>Node21</title>
<g id="a_node21"><a xlink:title=" ">
<polygon fill="none" stroke="#bfbfbf" points="48.5,-56.5 48.5,-75.5 117.5,-75.5 117.5,-56.5 48.5,-56.5"/>
<text text-anchor="middle" x="83" y="-63.5" font-family="Helvetica,sans-Serif" font-size="10.00">type_traits</text>
</a>
</g>
</g>
<!-- Node19&#45;&gt;Node21 -->
<g id="edge30" class="edge">
<title>Node19&#45;&gt;Node21</title>
<path fill="none" stroke="midnightblue" d="M399.36,-168.47C370.35,-159.48 323.43,-144.89 283,-132 225.28,-113.6 158.35,-91.74 118.41,-78.64"/>
<polygon fill="midnightblue" stroke="midnightblue" points="119.45,-75.3 108.86,-75.51 117.27,-81.95 119.45,-75.3"/>
</g>
<!-- Node19&#45;&gt;Node22 -->
<g id="edge33" class="edge">
<title>Node19&#45;&gt;Node22</title>
<path fill="none" stroke="midnightblue" d="M369.01,-168.44C303.69,-158.81 197.66,-143.16 128.63,-132.98"/>
<polygon fill="midnightblue" stroke="midnightblue" points="129.13,-129.51 118.72,-131.52 128.1,-136.44 129.13,-129.51"/>
</g>
<!-- Node22&#45;&gt;Node5 -->
<g id="edge35" class="edge">
<title>Node22&#45;&gt;Node5</title>
<path fill="none" stroke="midnightblue" d="M91.26,-112.44C123.96,-103.2 176.18,-88.44 212.18,-78.26"/>
<polygon fill="midnightblue" stroke="midnightblue" points="213.21,-81.61 221.88,-75.52 211.3,-74.87 213.21,-81.61"/>
</g>
<!-- Node22&#45;&gt;Node21 -->
<g id="edge34" class="edge">
<title>Node22&#45;&gt;Node21</title>
<path fill="none" stroke="midnightblue" d="M64.63,-112.08C67.61,-104.77 71.93,-94.18 75.62,-85.1"/>
<polygon fill="midnightblue" stroke="midnightblue" points="78.9,-86.33 79.43,-75.75 72.42,-83.69 78.9,-86.33"/>
</g>
<!-- Node23&#45;&gt;Node4 -->
<g id="edge41" class="edge">
<title>Node23&#45;&gt;Node4</title>
<path fill="none" stroke="midnightblue" d="M943.78,-226.11C991.6,-219.42 1051.75,-207.39 1067,-188 1094.79,-152.68 1045.53,-105.68 1015.56,-82"/>
<polygon fill="midnightblue" stroke="midnightblue" points="1017.4,-79 1007.34,-75.7 1013.14,-84.56 1017.4,-79"/>
</g>
<!-- Node23&#45;&gt;Node10 -->
<g id="edge42" class="edge">
<title>Node23&#45;&gt;Node10</title>
<path fill="none" stroke="midnightblue" d="M873.91,-224.26C866.8,-215.35 855.69,-201.04 847,-188 836.6,-172.4 825.92,-153.88 818.55,-140.6"/>
<polygon fill="midnightblue" stroke="midnightblue" points="821.49,-138.69 813.61,-131.61 815.35,-142.06 821.49,-138.69"/>
</g>
<!-- Node23&#45;&gt;Node11 -->
<g id="edge44" class="edge">
<title>Node23&#45;&gt;Node11</title>
<path fill="none" stroke="midnightblue" d="M928.06,-224.44C980.41,-214.92 1064.99,-199.55 1121.04,-189.36"/>
<polygon fill="midnightblue" stroke="midnightblue" points="1121.95,-192.75 1131.16,-187.52 1120.69,-185.86 1121.95,-192.75"/>
</g>
<!-- Node23&#45;&gt;Node14 -->
<g id="edge39" class="edge">
<title>Node23&#45;&gt;Node14</title>
<path fill="none" stroke="midnightblue" d="M865.54,-224.37C831.38,-205.29 749.23,-159.42 708.19,-136.51"/>
<polygon fill="midnightblue" stroke="midnightblue" points="709.82,-133.41 699.39,-131.59 706.41,-139.52 709.82,-133.41"/>
</g>
<!-- Node23&#45;&gt;Node16 -->
<g id="edge43" class="edge">
<title>Node23&#45;&gt;Node16</title>
<path fill="none" stroke="midnightblue" d="M852.32,-224.44C820.07,-214.82 767.76,-199.21 733.61,-189.03"/>
<polygon fill="midnightblue" stroke="midnightblue" points="734.23,-185.56 723.64,-186.05 732.22,-192.27 734.23,-185.56"/>
</g>
<!-- Node24 -->
<g id="node24" class="node">
<title>Node24</title>
<g id="a_node24"><a xlink:title=" ">
<polygon fill="none" stroke="#bfbfbf" points="856,-168.5 856,-187.5 914,-187.5 914,-168.5 856,-168.5"/>
<text text-anchor="middle" x="885" y="-175.5" font-family="Helvetica,sans-Serif" font-size="10.00">memory</text>
</a>
</g>
</g>
<!-- Node23&#45;&gt;Node24 -->
<g id="edge40" class="edge">
<title>Node23&#45;&gt;Node24</title>
<path fill="none" stroke="midnightblue" d="M881.66,-224.08C882.18,-217.01 882.94,-206.86 883.59,-197.99"/>
<polygon fill="midnightblue" stroke="midnightblue" points="887.1,-197.98 884.35,-187.75 880.12,-197.47 887.1,-197.98"/>
</g>
<!-- Node25&#45;&gt;Node2 -->
<g id="edge49" class="edge">
<title>Node25&#45;&gt;Node2</title>
<path fill="none" stroke="midnightblue" d="M172.93,-224.46C184.66,-210.57 209.83,-183.09 237,-168 266.86,-151.42 303.3,-140.57 333.95,-133.69"/>
<polygon fill="midnightblue" stroke="midnightblue" points="335.06,-137.03 344.1,-131.51 333.59,-130.19 335.06,-137.03"/>
</g>
<!-- Node25&#45;&gt;Node5 -->
<g id="edge52" class="edge">
<title>Node25&#45;&gt;Node5</title>
<path fill="none" stroke="midnightblue" d="M166.61,-224.38C168.43,-203.53 175.28,-149.3 199,-112 206.69,-99.91 218.65,-89.35 229.27,-81.51"/>
<polygon fill="midnightblue" stroke="midnightblue" points="231.55,-84.18 237.74,-75.58 227.54,-78.44 231.55,-84.18"/>
</g>
<!-- Node25&#45;&gt;Node16 -->
<g id="edge48" class="edge">
<title>Node25&#45;&gt;Node16</title>
<path fill="none" stroke="midnightblue" d="M230.68,-226.46C345.03,-214.9 579.06,-191.23 666.26,-182.41"/>
<polygon fill="midnightblue" stroke="midnightblue" points="666.79,-185.88 676.39,-181.39 666.09,-178.91 666.79,-185.88"/>
</g>
<!-- Node25&#45;&gt;Node19 -->
<g id="edge50" class="edge">
<title>Node25&#45;&gt;Node19</title>
<path fill="none" stroke="midnightblue" d="M207.36,-224.44C253.08,-214.98 326.76,-199.74 376.02,-189.55"/>
<polygon fill="midnightblue" stroke="midnightblue" points="376.75,-192.97 385.84,-187.52 375.34,-186.12 376.75,-192.97"/>
</g>
<!-- Node25&#45;&gt;Node22 -->
<g id="edge51" class="edge">
<title>Node25&#45;&gt;Node22</title>
<path fill="none" stroke="midnightblue" d="M157.75,-224.38C149.1,-215.32 135.09,-200.66 123,-188 107.13,-171.37 88.98,-152.34 76.43,-139.19"/>
<polygon fill="midnightblue" stroke="midnightblue" points="78.86,-136.66 69.42,-131.83 73.79,-141.49 78.86,-136.66"/>
</g>
</g>
</svg>
