<?xml version="1.0" encoding="UTF-8" standalone="no"?>
<!DOCTYPE svg PUBLIC "-//W3C//DTD SVG 1.1//EN"
 "http://www.w3.org/Graphics/SVG/1.1/DTD/svg11.dtd">
<!-- Generated by graphviz version 2.43.0 (0)
 -->
<!-- Title: /home/runner/work/open62541pp/open62541pp/include/open62541pp/open62541pp.h Pages: 1 -->
<svg width="1303pt" height="397pt"
 viewBox="0.00 0.00 1303.22 397.00" xmlns="http://www.w3.org/2000/svg" xmlns:xlink="http://www.w3.org/1999/xlink">
<g id="graph0" class="graph" transform="scale(1 1) rotate(0) translate(4 393)">
<title>/home/runner/work/open62541pp/open62541pp/include/open62541pp/open62541pp.h</title>
<!-- Node1 -->
<g id="node1" class="node">
<title>Node1</title>
<g id="a_node1"><a xlink:title=" ">
<polygon fill="#bfbfbf" stroke="black" points="675,-347.5 675,-388.5 868,-388.5 868,-347.5 675,-347.5"/>
<text text-anchor="start" x="683" y="-376.5" font-family="Helvetica,sans-Serif" font-size="10.00">/home/runner/work/open62541pp</text>
<text text-anchor="start" x="683" y="-365.5" font-family="Helvetica,sans-Serif" font-size="10.00">/open62541pp/include/open62541pp</text>
<text text-anchor="middle" x="771.5" y="-354.5" font-family="Helvetica,sans-Serif" font-size="10.00">/open62541pp.h</text>
</a>
</g>
</g>
<!-- Node2 -->
<g id="node2" class="node">
<title>Node2</title>
<g id="a_node2"><a xlink:href="ErrorHandling_8h.html" target="_top" xlink:title=" ">
<polygon fill="none" stroke="black" points="700,-123.5 700,-142.5 861,-142.5 861,-123.5 700,-123.5"/>
<text text-anchor="middle" x="780.5" y="-130.5" font-family="Helvetica,sans-Serif" font-size="10.00">open62541pp/ErrorHandling.h</text>
</a>
</g>
</g>
<!-- Node1&#45;&gt;Node2 -->
<g id="edge1" class="edge">
<title>Node1&#45;&gt;Node2</title>
<path fill="none" stroke="midnightblue" d="M777.69,-347.27C780.7,-336.64 783.99,-323.23 785.5,-311 792.56,-253.66 786.56,-185.13 782.87,-152.73"/>
<polygon fill="midnightblue" stroke="midnightblue" points="786.31,-152.03 781.64,-142.52 779.36,-152.86 786.31,-152.03"/>
</g>
<!-- Node9 -->
<g id="node9" class="node">
<title>Node9</title>
<g id="a_node9"><a xlink:href="Helper_8h.html" target="_top" xlink:title=" ">
<polygon fill="none" stroke="black" points="517.5,-123.5 517.5,-142.5 643.5,-142.5 643.5,-123.5 517.5,-123.5"/>
<text text-anchor="middle" x="580.5" y="-130.5" font-family="Helvetica,sans-Serif" font-size="10.00">open62541pp/Helper.h</text>
</a>
</g>
</g>
<!-- Node1&#45;&gt;Node9 -->
<g id="edge8" class="edge">
<title>Node1&#45;&gt;Node9</title>
<path fill="none" stroke="midnightblue" d="M775.91,-347.47C783.13,-309.93 792.89,-227.18 751.5,-179 738.1,-163.4 691.9,-151.81 650.9,-144.3"/>
<polygon fill="midnightblue" stroke="midnightblue" points="651.34,-140.82 640.89,-142.52 650.12,-147.71 651.34,-140.82"/>
</g>
<!-- Node12 -->
<g id="node12" class="node">
<title>Node12</title>
<g id="a_node12"><a xlink:href="Logger_8h.html" target="_top" xlink:title=" ">
<polygon fill="none" stroke="black" points="0,-179.5 0,-198.5 127,-198.5 127,-179.5 0,-179.5"/>
<text text-anchor="middle" x="63.5" y="-186.5" font-family="Helvetica,sans-Serif" font-size="10.00">open62541pp/Logger.h</text>
</a>
</g>
</g>
<!-- Node1&#45;&gt;Node12 -->
<g id="edge13" class="edge">
<title>Node1&#45;&gt;Node12</title>
<path fill="none" stroke="midnightblue" d="M674.81,-354.61C561.96,-338.56 370.64,-306.39 212.5,-255 167.89,-240.5 118.4,-217.43 89.17,-203.03"/>
<polygon fill="midnightblue" stroke="midnightblue" points="90.58,-199.82 80.07,-198.5 87.46,-206.09 90.58,-199.82"/>
</g>
<!-- Node14 -->
<g id="node14" class="node">
<title>Node14</title>
<g id="a_node14"><a xlink:href="Node_8h.html" target="_top" xlink:title=" ">
<polygon fill="none" stroke="black" points="623.5,-291.5 623.5,-310.5 743.5,-310.5 743.5,-291.5 623.5,-291.5"/>
<text text-anchor="middle" x="683.5" y="-298.5" font-family="Helvetica,sans-Serif" font-size="10.00">open62541pp/Node.h</text>
</a>
</g>
</g>
<!-- Node1&#45;&gt;Node14 -->
<g id="edge16" class="edge">
<title>Node1&#45;&gt;Node14</title>
<path fill="none" stroke="midnightblue" d="M745.1,-347.5C731.73,-337.63 715.78,-325.84 703.46,-316.74"/>
<polygon fill="midnightblue" stroke="midnightblue" points="705.34,-313.78 695.21,-310.65 701.18,-319.41 705.34,-313.78"/>
</g>
<!-- Node16 -->
<g id="node16" class="node">
<title>Node16</title>
<g id="a_node16"><a xlink:href="NodeId_8h.html" target="_top" xlink:title=" ">
<polygon fill="none" stroke="black" points="511,-235.5 511,-254.5 640,-254.5 640,-235.5 511,-235.5"/>
<text text-anchor="middle" x="575.5" y="-242.5" font-family="Helvetica,sans-Serif" font-size="10.00">open62541pp/NodeId.h</text>
</a>
</g>
</g>
<!-- Node1&#45;&gt;Node16 -->
<g id="edge52" class="edge">
<title>Node1&#45;&gt;Node16</title>
<path fill="none" stroke="midnightblue" d="M683.67,-347.44C659.47,-339.07 634.42,-327.32 614.5,-311 599.43,-298.65 588.75,-278.84 582.42,-264.33"/>
<polygon fill="midnightblue" stroke="midnightblue" points="585.58,-262.84 578.58,-254.89 579.1,-265.47 585.58,-262.84"/>
</g>
<!-- Node19 -->
<g id="node19" class="node">
<title>Node19</title>
<g id="a_node19"><a xlink:href="TypeWrapper_8h.html" target="_top" xlink:title=" ">
<polygon fill="none" stroke="black" points="926,-179.5 926,-198.5 1015,-198.5 1015,-179.5 926,-179.5"/>
<text text-anchor="middle" x="970.5" y="-186.5" font-family="Helvetica,sans-Serif" font-size="10.00">TypeWrapper.h</text>
</a>
</g>
</g>
<!-- Node1&#45;&gt;Node19 -->
<g id="edge54" class="edge">
<title>Node1&#45;&gt;Node19</title>
<path fill="none" stroke="midnightblue" d="M812.26,-347.39C828.9,-338 847.49,-325.61 861.5,-311 888.36,-282.99 878.23,-263.56 904.5,-235 915.98,-222.52 931.56,-211.69 944.7,-203.78"/>
<polygon fill="midnightblue" stroke="midnightblue" points="946.83,-206.6 953.74,-198.56 943.33,-200.53 946.83,-206.6"/>
</g>
<!-- Node24 -->
<g id="node24" class="node">
<title>Node24</title>
<g id="a_node24"><a xlink:href="Types_8h.html" target="_top" xlink:title=" ">
<polygon fill="none" stroke="black" points="1160.5,-123.5 1160.5,-142.5 1282.5,-142.5 1282.5,-123.5 1160.5,-123.5"/>
<text text-anchor="middle" x="1221.5" y="-130.5" font-family="Helvetica,sans-Serif" font-size="10.00">open62541pp/Types.h</text>
</a>
</g>
</g>
<!-- Node1&#45;&gt;Node24 -->
<g id="edge55" class="edge">
<title>Node1&#45;&gt;Node24</title>
<path fill="none" stroke="midnightblue" d="M840.55,-347.41C907.73,-327.42 1012.02,-293.87 1098.5,-255 1144.61,-234.28 1164.75,-237.51 1197.5,-199 1208.82,-185.7 1215.02,-166.58 1218.26,-152.52"/>
<polygon fill="midnightblue" stroke="midnightblue" points="1221.73,-153.03 1220.28,-142.53 1214.87,-151.64 1221.73,-153.03"/>
</g>
<!-- Node25 -->
<g id="node25" class="node">
<title>Node25</title>
<g id="a_node25"><a xlink:href="Server_8h.html" target="_top" xlink:title=" ">
<polygon fill="none" stroke="black" points="222,-235.5 222,-254.5 347,-254.5 347,-235.5 222,-235.5"/>
<text text-anchor="middle" x="284.5" y="-242.5" font-family="Helvetica,sans-Serif" font-size="10.00">open62541pp/Server.h</text>
</a>
</g>
</g>
<!-- Node1&#45;&gt;Node25 -->
<g id="edge53" class="edge">
<title>Node1&#45;&gt;Node25</title>
<path fill="none" stroke="midnightblue" d="M692.98,-347.49C589.55,-321.79 411.13,-277.46 328.66,-256.97"/>
<polygon fill="midnightblue" stroke="midnightblue" points="329.4,-253.55 318.85,-254.53 327.71,-260.34 329.4,-253.55"/>
</g>
<!-- Node28 -->
<g id="node28" class="node">
<title>Node28</title>
<g id="a_node28"><a xlink:href="Variant_8h.html" target="_top" xlink:title=" ">
<polygon fill="none" stroke="black" points="914,-235.5 914,-254.5 1043,-254.5 1043,-235.5 914,-235.5"/>
<text text-anchor="middle" x="978.5" y="-242.5" font-family="Helvetica,sans-Serif" font-size="10.00">open62541pp/Variant.h</text>
</a>
</g>
</g>
<!-- Node1&#45;&gt;Node28 -->
<g id="edge56" class="edge">
<title>Node1&#45;&gt;Node28</title>
<path fill="none" stroke="midnightblue" d="M825.15,-347.39C848.71,-337.82 876.24,-325.27 899.5,-311 922.75,-296.73 946.53,-276.19 961.84,-262.04"/>
<polygon fill="midnightblue" stroke="midnightblue" points="964.53,-264.32 969.42,-254.92 959.74,-259.22 964.53,-264.32"/>
</g>
<!-- Node3 -->
<g id="node3" class="node">
<title>Node3</title>
<g id="a_node3"><a xlink:title=" ">
<polygon fill="none" stroke="#bfbfbf" points="832,-67.5 832,-86.5 897,-86.5 897,-67.5 832,-67.5"/>
<text text-anchor="middle" x="864.5" y="-74.5" font-family="Helvetica,sans-Serif" font-size="10.00">stdexcept</text>
</a>
</g>
</g>
<!-- Node2&#45;&gt;Node3 -->
<g id="edge2" class="edge">
<title>Node2&#45;&gt;Node3</title>
<path fill="none" stroke="midnightblue" d="M794,-123.32C807.1,-114.9 827.21,-101.97 842.61,-92.07"/>
<polygon fill="midnightblue" stroke="midnightblue" points="844.52,-95.01 851.04,-86.65 840.73,-89.12 844.52,-95.01"/>
</g>
<!-- Node4 -->
<g id="node4" class="node">
<title>Node4</title>
<g id="a_node4"><a xlink:title=" ">
<polygon fill="none" stroke="#bfbfbf" points="480.5,-67.5 480.5,-86.5 524.5,-86.5 524.5,-67.5 480.5,-67.5"/>
<text text-anchor="middle" x="502.5" y="-74.5" font-family="Helvetica,sans-Serif" font-size="10.00">string</text>
</a>
</g>
</g>
<!-- Node2&#45;&gt;Node4 -->
<g id="edge3" class="edge">
<title>Node2&#45;&gt;Node4</title>
<path fill="none" stroke="midnightblue" d="M735.17,-123.45C688.01,-114.51 612.03,-100 546.5,-87 542.76,-86.26 538.85,-85.47 534.96,-84.68"/>
<polygon fill="midnightblue" stroke="midnightblue" points="535.37,-81.2 524.87,-82.63 533.97,-88.06 535.37,-81.2"/>
</g>
<!-- Node5 -->
<g id="node5" class="node">
<title>Node5</title>
<g id="a_node5"><a xlink:href="open62541_8h.html" target="_top" xlink:title=" ">
<polygon fill="none" stroke="black" points="665,-67.5 665,-86.5 814,-86.5 814,-67.5 665,-67.5"/>
<text text-anchor="middle" x="739.5" y="-74.5" font-family="Helvetica,sans-Serif" font-size="10.00">open62541pp/open62541.h</text>
</a>
</g>
</g>
<!-- Node2&#45;&gt;Node5 -->
<g id="edge4" class="edge">
<title>Node2&#45;&gt;Node5</title>
<path fill="none" stroke="midnightblue" d="M773.73,-123.08C767.94,-115.46 759.44,-104.26 752.36,-94.94"/>
<polygon fill="midnightblue" stroke="midnightblue" points="754.98,-92.6 746.14,-86.75 749.4,-96.83 754.98,-92.6"/>
</g>
<!-- Node6 -->
<g id="node6" class="node">
<title>Node6</title>
<g id="a_node6"><a xlink:href="open62541/nodeids_8h.html.html" xlink:title=" ">
<polygon fill="none" stroke="black" points="545,-6 545,-25 666,-25 666,-6 545,-6"/>
<text text-anchor="middle" x="605.5" y="-13" font-family="Helvetica,sans-Serif" font-size="10.00">open62541/nodeids.h</text>
</a>
</g>
</g>
<!-- Node5&#45;&gt;Node6 -->
<g id="edge5" class="edge">
<title>Node5&#45;&gt;Node6</title>
<path fill="none" stroke="midnightblue" d="M720.3,-67.48C697.71,-57.45 660,-40.7 634,-29.15"/>
<polygon fill="midnightblue" stroke="midnightblue" points="635.22,-25.87 624.66,-25.01 632.38,-32.27 635.22,-25.87"/>
</g>
<!-- Node7 -->
<g id="node7" class="node">
<title>Node7</title>
<g id="a_node7"><a xlink:href="open62541/types_8h.html.html" xlink:title=" ">
<polygon fill="none" stroke="black" points="684.5,-6 684.5,-25 794.5,-25 794.5,-6 684.5,-6"/>
<text text-anchor="middle" x="739.5" y="-13" font-family="Helvetica,sans-Serif" font-size="10.00">open62541/types.h</text>
</a>
</g>
</g>
<!-- Node5&#45;&gt;Node7 -->
<g id="edge6" class="edge">
<title>Node5&#45;&gt;Node7</title>
<path fill="none" stroke="midnightblue" d="M739.5,-67.48C739.5,-59.08 739.5,-45.98 739.5,-35.16"/>
<polygon fill="midnightblue" stroke="midnightblue" points="743,-35.01 739.5,-25.01 736,-35.01 743,-35.01"/>
</g>
<!-- Node8 -->
<g id="node8" class="node">
<title>Node8</title>
<g id="a_node8"><a xlink:href="open62541/types__generated__handling_8h.html.html" xlink:title=" ">
<polygon fill="none" stroke="black" points="813,-0.5 813,-30.5 968,-30.5 968,-0.5 813,-0.5"/>
<text text-anchor="start" x="821" y="-18.5" font-family="Helvetica,sans-Serif" font-size="10.00">open62541/types_generated</text>
<text text-anchor="middle" x="890.5" y="-7.5" font-family="Helvetica,sans-Serif" font-size="10.00">_handling.h</text>
</a>
</g>
</g>
<!-- Node5&#45;&gt;Node8 -->
<g id="edge7" class="edge">
<title>Node5&#45;&gt;Node8</title>
<path fill="none" stroke="midnightblue" d="M761.13,-67.48C783.02,-58.85 817.5,-45.26 845.36,-34.29"/>
<polygon fill="midnightblue" stroke="midnightblue" points="846.89,-37.45 854.91,-30.52 844.33,-30.93 846.89,-37.45"/>
</g>
<!-- Node9&#45;&gt;Node4 -->
<g id="edge10" class="edge">
<title>Node9&#45;&gt;Node4</title>
<path fill="none" stroke="midnightblue" d="M567.97,-123.32C555.91,-114.98 537.47,-102.21 523.23,-92.35"/>
<polygon fill="midnightblue" stroke="midnightblue" points="525.22,-89.47 515,-86.65 521.23,-95.22 525.22,-89.47"/>
</g>
<!-- Node9&#45;&gt;Node5 -->
<g id="edge12" class="edge">
<title>Node9&#45;&gt;Node5</title>
<path fill="none" stroke="midnightblue" d="M605.69,-123.44C632.44,-114.36 674.9,-99.94 704.81,-89.78"/>
<polygon fill="midnightblue" stroke="midnightblue" points="706.08,-93.05 714.42,-86.52 703.83,-86.42 706.08,-93.05"/>
</g>
<!-- Node10 -->
<g id="node10" class="node">
<title>Node10</title>
<g id="a_node10"><a xlink:title=" ">
<polygon fill="none" stroke="#bfbfbf" points="555.5,-67.5 555.5,-86.5 605.5,-86.5 605.5,-67.5 555.5,-67.5"/>
<text text-anchor="middle" x="580.5" y="-74.5" font-family="Helvetica,sans-Serif" font-size="10.00">cstring</text>
</a>
</g>
</g>
<!-- Node9&#45;&gt;Node10 -->
<g id="edge9" class="edge">
<title>Node9&#45;&gt;Node10</title>
<path fill="none" stroke="midnightblue" d="M580.5,-123.08C580.5,-116.01 580.5,-105.86 580.5,-96.99"/>
<polygon fill="midnightblue" stroke="midnightblue" points="584,-96.75 580.5,-86.75 577,-96.75 584,-96.75"/>
</g>
<!-- Node11 -->
<g id="node11" class="node">
<title>Node11</title>
<g id="a_node11"><a xlink:title=" ">
<polygon fill="none" stroke="#bfbfbf" points="339,-67.5 339,-86.5 412,-86.5 412,-67.5 339,-67.5"/>
<text text-anchor="middle" x="375.5" y="-74.5" font-family="Helvetica,sans-Serif" font-size="10.00">string_view</text>
</a>
</g>
</g>
<!-- Node9&#45;&gt;Node11 -->
<g id="edge11" class="edge">
<title>Node9&#45;&gt;Node11</title>
<path fill="none" stroke="midnightblue" d="M548.02,-123.44C512.78,-114.16 456.4,-99.31 417.74,-89.13"/>
<polygon fill="midnightblue" stroke="midnightblue" points="418.39,-85.68 407.83,-86.52 416.61,-92.45 418.39,-85.68"/>
</g>
<!-- Node12&#45;&gt;Node11 -->
<g id="edge15" class="edge">
<title>Node12&#45;&gt;Node11</title>
<path fill="none" stroke="midnightblue" d="M66.52,-179.16C71.91,-164.82 84.61,-136.72 105.5,-123 141.41,-99.41 261.3,-86.7 328.62,-81.26"/>
<polygon fill="midnightblue" stroke="midnightblue" points="329.25,-84.72 338.95,-80.45 328.71,-77.74 329.25,-84.72"/>
</g>
<!-- Node13 -->
<g id="node13" class="node">
<title>Node13</title>
<g id="a_node13"><a xlink:title=" ">
<polygon fill="none" stroke="#bfbfbf" points="115,-123.5 115,-142.5 180,-142.5 180,-123.5 115,-123.5"/>
<text text-anchor="middle" x="147.5" y="-130.5" font-family="Helvetica,sans-Serif" font-size="10.00">functional</text>
</a>
</g>
</g>
<!-- Node12&#45;&gt;Node13 -->
<g id="edge14" class="edge">
<title>Node12&#45;&gt;Node13</title>
<path fill="none" stroke="midnightblue" d="M77,-179.32C90.1,-170.9 110.21,-157.97 125.61,-148.07"/>
<polygon fill="midnightblue" stroke="midnightblue" points="127.52,-151.01 134.04,-142.65 123.73,-145.12 127.52,-151.01"/>
</g>
<!-- Node14&#45;&gt;Node2 -->
<g id="edge20" class="edge">
<title>Node14&#45;&gt;Node2</title>
<path fill="none" stroke="midnightblue" d="M689.76,-291.46C696.3,-282.47 706.8,-267.86 715.5,-255 732.08,-230.49 737.43,-225.03 751.5,-199 759.84,-183.56 767.86,-165.24 773.34,-152"/>
<polygon fill="midnightblue" stroke="midnightblue" points="776.63,-153.19 777.15,-142.61 770.14,-150.56 776.63,-153.19"/>
</g>
<!-- Node14&#45;&gt;Node4 -->
<g id="edge17" class="edge">
<title>Node14&#45;&gt;Node4</title>
<path fill="none" stroke="midnightblue" d="M680.81,-291.49C673.4,-269.41 650.52,-209.86 610.5,-179 572.43,-149.64 538.04,-180.93 508.5,-143 498.39,-130.02 497.82,-110.86 499.22,-96.7"/>
<polygon fill="midnightblue" stroke="midnightblue" points="502.71,-97.02 500.62,-86.63 495.77,-96.05 502.71,-97.02"/>
</g>
<!-- Node14&#45;&gt;Node11 -->
<g id="edge18" class="edge">
<title>Node14&#45;&gt;Node11</title>
<path fill="none" stroke="midnightblue" d="M623.16,-293.3C586.22,-287.26 539.01,-275.95 501.5,-255 442.98,-222.31 433.61,-201.28 400.5,-143 392.1,-128.22 385.39,-110.06 381.04,-96.7"/>
<polygon fill="midnightblue" stroke="midnightblue" points="384.27,-95.29 377.96,-86.78 377.58,-97.37 384.27,-95.29"/>
</g>
<!-- Node15 -->
<g id="node15" class="node">
<title>Node15</title>
<g id="a_node15"><a xlink:title=" ">
<polygon fill="none" stroke="#bfbfbf" points="696,-179.5 696,-198.5 743,-198.5 743,-179.5 696,-179.5"/>
<text text-anchor="middle" x="719.5" y="-186.5" font-family="Helvetica,sans-Serif" font-size="10.00">vector</text>
</a>
</g>
</g>
<!-- Node14&#45;&gt;Node15 -->
<g id="edge19" class="edge">
<title>Node14&#45;&gt;Node15</title>
<path fill="none" stroke="midnightblue" d="M686.32,-291.37C692.16,-273.54 705.66,-232.3 713.52,-208.27"/>
<polygon fill="midnightblue" stroke="midnightblue" points="716.9,-209.18 716.69,-198.59 710.25,-207.01 716.9,-209.18"/>
</g>
<!-- Node14&#45;&gt;Node16 -->
<g id="edge21" class="edge">
<title>Node14&#45;&gt;Node16</title>
<path fill="none" stroke="midnightblue" d="M666.15,-291.32C648.83,-282.66 621.98,-269.24 602,-259.25"/>
<polygon fill="midnightblue" stroke="midnightblue" points="603.32,-256 592.81,-254.65 600.19,-262.26 603.32,-256"/>
</g>
<!-- Node14&#45;&gt;Node24 -->
<g id="edge44" class="edge">
<title>Node14&#45;&gt;Node24</title>
<path fill="none" stroke="midnightblue" d="M743.73,-298.34C817.72,-295.01 946.47,-285.01 1052.5,-255 1109.91,-238.75 1128.39,-236.86 1174.5,-199 1190.59,-185.79 1203.92,-165.84 1212.22,-151.53"/>
<polygon fill="midnightblue" stroke="midnightblue" points="1215.34,-153.12 1217.14,-142.67 1209.22,-149.72 1215.34,-153.12"/>
</g>
<!-- Node14&#45;&gt;Node25 -->
<g id="edge36" class="edge">
<title>Node14&#45;&gt;Node25</title>
<path fill="none" stroke="midnightblue" d="M623.33,-291.86C552.08,-282.21 433.46,-266.16 357.15,-255.83"/>
<polygon fill="midnightblue" stroke="midnightblue" points="357.51,-252.35 347.13,-254.48 356.57,-259.29 357.51,-252.35"/>
</g>
<!-- Node14&#45;&gt;Node28 -->
<g id="edge45" class="edge">
<title>Node14&#45;&gt;Node28</title>
<path fill="none" stroke="midnightblue" d="M730.24,-291.44C782.25,-281.92 866.25,-266.55 921.92,-256.36"/>
<polygon fill="midnightblue" stroke="midnightblue" points="922.77,-259.76 931.98,-254.52 921.51,-252.87 922.77,-259.76"/>
</g>
<!-- Node16&#45;&gt;Node5 -->
<g id="edge25" class="edge">
<title>Node16&#45;&gt;Node5</title>
<path fill="none" stroke="midnightblue" d="M583.39,-235.3C601.76,-215.14 648.96,-163.84 690.5,-123 700.69,-112.98 712.48,-102.13 721.94,-93.6"/>
<polygon fill="midnightblue" stroke="midnightblue" points="724.45,-96.05 729.56,-86.77 719.77,-90.84 724.45,-96.05"/>
</g>
<!-- Node16&#45;&gt;Node11 -->
<g id="edge23" class="edge">
<title>Node16&#45;&gt;Node11</title>
<path fill="none" stroke="midnightblue" d="M544.87,-235.38C522.7,-228.13 492.83,-216.16 470.5,-199 432.17,-169.55 400.56,-121.27 385.32,-95.5"/>
<polygon fill="midnightblue" stroke="midnightblue" points="388.17,-93.43 380.14,-86.52 382.11,-96.93 388.17,-93.43"/>
</g>
<!-- Node17 -->
<g id="node17" class="node">
<title>Node17</title>
<g id="a_node17"><a xlink:title=" ">
<polygon fill="none" stroke="#bfbfbf" points="549.5,-179.5 549.5,-198.5 601.5,-198.5 601.5,-179.5 549.5,-179.5"/>
<text text-anchor="middle" x="575.5" y="-186.5" font-family="Helvetica,sans-Serif" font-size="10.00">cassert</text>
</a>
</g>
</g>
<!-- Node16&#45;&gt;Node17 -->
<g id="edge22" class="edge">
<title>Node16&#45;&gt;Node17</title>
<path fill="none" stroke="midnightblue" d="M575.5,-235.08C575.5,-228.01 575.5,-217.86 575.5,-208.99"/>
<polygon fill="midnightblue" stroke="midnightblue" points="579,-208.75 575.5,-198.75 572,-208.75 579,-208.75"/>
</g>
<!-- Node18 -->
<g id="node18" class="node">
<title>Node18</title>
<g id="a_node18"><a xlink:title=" ">
<polygon fill="none" stroke="#bfbfbf" points="480,-179.5 480,-198.5 531,-198.5 531,-179.5 480,-179.5"/>
<text text-anchor="middle" x="505.5" y="-186.5" font-family="Helvetica,sans-Serif" font-size="10.00">variant</text>
</a>
</g>
</g>
<!-- Node16&#45;&gt;Node18 -->
<g id="edge24" class="edge">
<title>Node16&#45;&gt;Node18</title>
<path fill="none" stroke="midnightblue" d="M564.25,-235.32C553.7,-227.18 537.7,-214.84 525.06,-205.09"/>
<polygon fill="midnightblue" stroke="midnightblue" points="527.01,-202.17 516.95,-198.83 522.73,-207.71 527.01,-202.17"/>
</g>
<!-- Node16&#45;&gt;Node19 -->
<g id="edge26" class="edge">
<title>Node16&#45;&gt;Node19</title>
<path fill="none" stroke="midnightblue" d="M638.09,-235.44C714.6,-224.98 842.85,-207.45 915.65,-197.5"/>
<polygon fill="midnightblue" stroke="midnightblue" points="916.54,-200.91 925.98,-196.09 915.6,-193.97 916.54,-200.91"/>
</g>
<!-- Node19&#45;&gt;Node2 -->
<g id="edge31" class="edge">
<title>Node19&#45;&gt;Node2</title>
<path fill="none" stroke="midnightblue" d="M940.39,-179.44C907.87,-170.2 855.92,-155.44 820.11,-145.26"/>
<polygon fill="midnightblue" stroke="midnightblue" points="821.04,-141.88 810.47,-142.52 819.13,-148.62 821.04,-141.88"/>
</g>
<!-- Node19&#45;&gt;Node9 -->
<g id="edge32" class="edge">
<title>Node19&#45;&gt;Node9</title>
<path fill="none" stroke="midnightblue" d="M925.76,-181.81C858.8,-172.53 731.85,-154.96 651.95,-143.89"/>
<polygon fill="midnightblue" stroke="midnightblue" points="652.35,-140.42 641.97,-142.51 651.39,-147.35 652.35,-140.42"/>
</g>
<!-- Node20 -->
<g id="node20" class="node">
<title>Node20</title>
<g id="a_node20"><a xlink:title=" ">
<polygon fill="none" stroke="#bfbfbf" points="942.5,-123.5 942.5,-142.5 1006.5,-142.5 1006.5,-123.5 942.5,-123.5"/>
<text text-anchor="middle" x="974.5" y="-130.5" font-family="Helvetica,sans-Serif" font-size="10.00">algorithm</text>
</a>
</g>
</g>
<!-- Node19&#45;&gt;Node20 -->
<g id="edge27" class="edge">
<title>Node19&#45;&gt;Node20</title>
<path fill="none" stroke="midnightblue" d="M971.16,-179.08C971.68,-172.01 972.44,-161.86 973.09,-152.99"/>
<polygon fill="midnightblue" stroke="midnightblue" points="976.6,-152.98 973.85,-142.75 969.62,-152.47 976.6,-152.98"/>
</g>
<!-- Node21 -->
<g id="node21" class="node">
<title>Node21</title>
<g id="a_node21"><a xlink:title=" ">
<polygon fill="none" stroke="#bfbfbf" points="1024.5,-123.5 1024.5,-142.5 1066.5,-142.5 1066.5,-123.5 1024.5,-123.5"/>
<text text-anchor="middle" x="1045.5" y="-130.5" font-family="Helvetica,sans-Serif" font-size="10.00">array</text>
</a>
</g>
</g>
<!-- Node19&#45;&gt;Node21 -->
<g id="edge28" class="edge">
<title>Node19&#45;&gt;Node21</title>
<path fill="none" stroke="midnightblue" d="M982.55,-179.32C993.96,-171.11 1011.33,-158.6 1024.93,-148.81"/>
<polygon fill="midnightblue" stroke="midnightblue" points="1027.16,-151.52 1033.23,-142.83 1023.07,-145.84 1027.16,-151.52"/>
</g>
<!-- Node22 -->
<g id="node22" class="node">
<title>Node22</title>
<g id="a_node22"><a xlink:title=" ">
<polygon fill="none" stroke="#bfbfbf" points="1187,-67.5 1187,-86.5 1256,-86.5 1256,-67.5 1187,-67.5"/>
<text text-anchor="middle" x="1221.5" y="-74.5" font-family="Helvetica,sans-Serif" font-size="10.00">type_traits</text>
</a>
</g>
</g>
<!-- Node19&#45;&gt;Node22 -->
<g id="edge29" class="edge">
<title>Node19&#45;&gt;Node22</title>
<path fill="none" stroke="midnightblue" d="M990.67,-179.46C1011.83,-170.47 1046.06,-155.86 1075.5,-143 1116.39,-125.14 1163.52,-104.07 1192.92,-90.87"/>
<polygon fill="midnightblue" stroke="midnightblue" points="1194.49,-94 1202.17,-86.71 1191.62,-87.61 1194.49,-94"/>
</g>
<!-- Node23 -->
<g id="node23" class="node">
<title>Node23</title>
<g id="a_node23"><a xlink:title=" ">
<polygon fill="none" stroke="#bfbfbf" points="879,-123.5 879,-142.5 924,-142.5 924,-123.5 879,-123.5"/>
<text text-anchor="middle" x="901.5" y="-130.5" font-family="Helvetica,sans-Serif" font-size="10.00">utility</text>
</a>
</g>
</g>
<!-- Node19&#45;&gt;Node23 -->
<g id="edge30" class="edge">
<title>Node19&#45;&gt;Node23</title>
<path fill="none" stroke="midnightblue" d="M959.41,-179.32C949.01,-171.18 933.24,-158.84 920.78,-149.09"/>
<polygon fill="midnightblue" stroke="midnightblue" points="922.82,-146.24 912.79,-142.83 918.51,-151.75 922.82,-146.24"/>
</g>
<!-- Node19&#45;&gt;Node24 -->
<g id="edge33" class="edge">
<title>Node19&#45;&gt;Node24</title>
<path fill="none" stroke="midnightblue" d="M1010.27,-179.44C1054.06,-170.02 1124.51,-154.87 1171.88,-144.68"/>
<polygon fill="midnightblue" stroke="midnightblue" points="1172.87,-148.04 1181.91,-142.52 1171.4,-141.2 1172.87,-148.04"/>
</g>
<!-- Node24&#45;&gt;Node5 -->
<g id="edge35" class="edge">
<title>Node24&#45;&gt;Node5</title>
<path fill="none" stroke="midnightblue" d="M1160.11,-124.59C1155.51,-124.04 1150.93,-123.51 1146.5,-123 1086.16,-116.04 925.03,-98.32 824.55,-87.31"/>
<polygon fill="midnightblue" stroke="midnightblue" points="824.74,-83.81 814.42,-86.2 823.98,-90.77 824.74,-83.81"/>
</g>
<!-- Node24&#45;&gt;Node22 -->
<g id="edge34" class="edge">
<title>Node24&#45;&gt;Node22</title>
<path fill="none" stroke="midnightblue" d="M1221.5,-123.08C1221.5,-116.01 1221.5,-105.86 1221.5,-96.99"/>
<polygon fill="midnightblue" stroke="midnightblue" points="1225,-96.75 1221.5,-86.75 1218,-96.75 1225,-96.75"/>
</g>
<!-- Node25&#45;&gt;Node4 -->
<g id="edge40" class="edge">
<title>Node25&#45;&gt;Node4</title>
<path fill="none" stroke="midnightblue" d="M295.91,-235.31C331.23,-208.42 439,-126.35 483.24,-92.67"/>
<polygon fill="midnightblue" stroke="midnightblue" points="485.36,-95.45 491.2,-86.61 481.12,-89.88 485.36,-95.45"/>
</g>
<!-- Node25&#45;&gt;Node11 -->
<g id="edge41" class="edge">
<title>Node25&#45;&gt;Node11</title>
<path fill="none" stroke="midnightblue" d="M291.84,-235.42C299.14,-226.63 310.4,-212.41 318.5,-199 339.64,-164.03 358.65,-119.97 368.47,-95.83"/>
<polygon fill="midnightblue" stroke="midnightblue" points="371.73,-97.11 372.2,-86.52 365.23,-94.5 371.73,-97.11"/>
</g>
<!-- Node25&#45;&gt;Node12 -->
<g id="edge43" class="edge">
<title>Node25&#45;&gt;Node12</title>
<path fill="none" stroke="midnightblue" d="M249.48,-235.44C211.25,-226.1 149.93,-211.12 108.24,-200.93"/>
<polygon fill="midnightblue" stroke="midnightblue" points="108.9,-197.49 98.35,-198.52 107.24,-204.29 108.9,-197.49"/>
</g>
<!-- Node25&#45;&gt;Node13 -->
<g id="edge38" class="edge">
<title>Node25&#45;&gt;Node13</title>
<path fill="none" stroke="midnightblue" d="M243.54,-235.47C220.73,-228.87 193.23,-217.62 174.5,-199 161.8,-186.36 154.79,-166.88 151.12,-152.54"/>
<polygon fill="midnightblue" stroke="midnightblue" points="154.53,-151.76 148.92,-142.77 147.7,-153.29 154.53,-151.76"/>
</g>
<!-- Node25&#45;&gt;Node15 -->
<g id="edge42" class="edge">
<title>Node25&#45;&gt;Node15</title>
<path fill="none" stroke="midnightblue" d="M347.29,-236.21C440.8,-224.6 613.43,-203.17 685.99,-194.16"/>
<polygon fill="midnightblue" stroke="midnightblue" points="686.45,-197.63 695.95,-192.92 685.59,-190.68 686.45,-197.63"/>
</g>
<!-- Node26 -->
<g id="node26" class="node">
<title>Node26</title>
<g id="a_node26"><a xlink:title=" ">
<polygon fill="none" stroke="#bfbfbf" points="183.5,-179.5 183.5,-198.5 233.5,-198.5 233.5,-179.5 183.5,-179.5"/>
<text text-anchor="middle" x="208.5" y="-186.5" font-family="Helvetica,sans-Serif" font-size="10.00">atomic</text>
</a>
</g>
</g>
<!-- Node25&#45;&gt;Node26 -->
<g id="edge37" class="edge">
<title>Node25&#45;&gt;Node26</title>
<path fill="none" stroke="midnightblue" d="M272.29,-235.32C260.72,-227.11 243.12,-214.6 229.34,-204.81"/>
<polygon fill="midnightblue" stroke="midnightblue" points="231.11,-201.77 220.93,-198.83 227.06,-207.48 231.11,-201.77"/>
</g>
<!-- Node27 -->
<g id="node27" class="node">
<title>Node27</title>
<g id="a_node27"><a xlink:title=" ">
<polygon fill="none" stroke="#bfbfbf" points="251.5,-179.5 251.5,-198.5 309.5,-198.5 309.5,-179.5 251.5,-179.5"/>
<text text-anchor="middle" x="280.5" y="-186.5" font-family="Helvetica,sans-Serif" font-size="10.00">memory</text>
</a>
</g>
</g>
<!-- Node25&#45;&gt;Node27 -->
<g id="edge39" class="edge">
<title>Node25&#45;&gt;Node27</title>
<path fill="none" stroke="midnightblue" d="M283.84,-235.08C283.32,-228.01 282.56,-217.86 281.91,-208.99"/>
<polygon fill="midnightblue" stroke="midnightblue" points="285.38,-208.47 281.15,-198.75 278.4,-208.98 285.38,-208.47"/>
</g>
<!-- Node28&#45;&gt;Node2 -->
<g id="edge48" class="edge">
<title>Node28&#45;&gt;Node2</title>
<path fill="none" stroke="midnightblue" d="M962.96,-235.37C928.62,-216.29 846.06,-170.42 804.81,-147.51"/>
<polygon fill="midnightblue" stroke="midnightblue" points="806.41,-144.39 795.96,-142.59 803.01,-150.51 806.41,-144.39"/>
</g>
<!-- Node28&#45;&gt;Node5 -->
<g id="edge51" class="edge">
<title>Node28&#45;&gt;Node5</title>
<path fill="none" stroke="midnightblue" d="M994.67,-235.43C1030.62,-215.35 1111.22,-163.83 1075.5,-123 1071.32,-118.23 920.39,-99.47 822.26,-87.74"/>
<polygon fill="midnightblue" stroke="midnightblue" points="822.39,-84.23 812.05,-86.52 821.56,-91.18 822.39,-84.23"/>
</g>
<!-- Node28&#45;&gt;Node15 -->
<g id="edge47" class="edge">
<title>Node28&#45;&gt;Node15</title>
<path fill="none" stroke="midnightblue" d="M937.46,-235.44C886.54,-224.83 800.66,-206.92 753.33,-197.05"/>
<polygon fill="midnightblue" stroke="midnightblue" points="753.79,-193.57 743.29,-194.96 752.36,-200.43 753.79,-193.57"/>
</g>
<!-- Node28&#45;&gt;Node19 -->
<g id="edge49" class="edge">
<title>Node28&#45;&gt;Node19</title>
<path fill="none" stroke="midnightblue" d="M977.18,-235.08C976.12,-227.93 974.59,-217.64 973.27,-208.69"/>
<polygon fill="midnightblue" stroke="midnightblue" points="976.72,-208.13 971.8,-198.75 969.8,-209.16 976.72,-208.13"/>
</g>
<!-- Node28&#45;&gt;Node22 -->
<g id="edge46" class="edge">
<title>Node28&#45;&gt;Node22</title>
<path fill="none" stroke="midnightblue" d="M1029.89,-235.49C1111.2,-220.8 1263.23,-187.87 1291.5,-143 1304.98,-121.6 1277.55,-102.63 1253.18,-90.79"/>
<polygon fill="midnightblue" stroke="midnightblue" points="1254.62,-87.6 1244.08,-86.61 1251.7,-93.96 1254.62,-87.6"/>
</g>
<!-- Node28&#45;&gt;Node24 -->
<g id="edge50" class="edge">
<title>Node28&#45;&gt;Node24</title>
<path fill="none" stroke="midnightblue" d="M1034.94,-235.48C1068.72,-228.8 1111.69,-217.47 1146.5,-199 1170.39,-186.32 1193.17,-164.76 1207.23,-149.97"/>
<polygon fill="midnightblue" stroke="midnightblue" points="1209.87,-152.27 1214.09,-142.55 1204.73,-147.52 1209.87,-152.27"/>
</g>
</g>
</svg>
