<?xml version="1.0" encoding="UTF-8" standalone="no"?>
<!DOCTYPE svg PUBLIC "-//W3C//DTD SVG 1.1//EN"
 "http://www.w3.org/Graphics/SVG/1.1/DTD/svg11.dtd">
<!-- Generated by graphviz version 2.43.0 (0)
 -->
<!-- Title: /home/runner/work/open62541pp/open62541pp/src/open62541_impl.h Pages: 1 -->
<svg width="1664pt" height="184pt"
 viewBox="0.00 0.00 1663.50 184.00" xmlns="http://www.w3.org/2000/svg" xmlns:xlink="http://www.w3.org/1999/xlink">
<g id="graph0" class="graph" transform="scale(1 1) rotate(0) translate(4 180)">
<title>/home/runner/work/open62541pp/open62541pp/src/open62541_impl.h</title>
<!-- Node1 -->
<g id="node1" class="node">
<title>Node1</title>
<g id="a_node1"><a xlink:title=" ">
<polygon fill="#bfbfbf" stroke="black" points="617,-145.5 617,-175.5 813,-175.5 813,-145.5 617,-145.5"/>
<text text-anchor="start" x="625" y="-163.5" font-family="Helvetica,sans-Serif" font-size="10.00">/home/runner/work/open62541pp</text>
<text text-anchor="middle" x="715" y="-152.5" font-family="Helvetica,sans-Serif" font-size="10.00">/open62541pp/src/open62541_impl.h</text>
</a>
</g>
</g>
<!-- Node2 -->
<g id="node2" class="node">
<title>Node2</title>
<g id="a_node2"><a xlink:href="Helper_8cpp.html" target="_top" xlink:title=" ">
<polygon fill="none" stroke="black" points="0,-73 0,-103 178,-103 178,-73 0,-73"/>
<text text-anchor="start" x="8" y="-91" font-family="Helvetica,sans-Serif" font-size="10.00">/home/runner/work/open62541pp</text>
<text text-anchor="middle" x="89" y="-80" font-family="Helvetica,sans-Serif" font-size="10.00">/open62541pp/src/Helper.cpp</text>
</a>
</g>
</g>
<!-- Node1&#45;&gt;Node2 -->
<g id="edge1" class="edge">
<title>Node1&#45;&gt;Node2</title>
<path fill="none" stroke="midnightblue" d="M606.76,-152.08C500.74,-144.1 334.77,-129.71 192,-109 180.37,-107.31 168.07,-105.21 156.16,-103"/>
<polygon fill="midnightblue" stroke="midnightblue" points="606.59,-155.58 616.83,-152.83 607.12,-148.6 606.59,-155.58"/>
</g>
<!-- Node3 -->
<g id="node3" class="node">
<title>Node3</title>
<g id="a_node3"><a xlink:href="Server_8cpp.html" target="_top" xlink:title=" ">
<polygon fill="none" stroke="black" points="175,-0.5 175,-30.5 353,-30.5 353,-0.5 175,-0.5"/>
<text text-anchor="start" x="183" y="-18.5" font-family="Helvetica,sans-Serif" font-size="10.00">/home/runner/work/open62541pp</text>
<text text-anchor="middle" x="264" y="-7.5" font-family="Helvetica,sans-Serif" font-size="10.00">/open62541pp/src/Server.cpp</text>
</a>
</g>
</g>
<!-- Node1&#45;&gt;Node3 -->
<g id="edge2" class="edge">
<title>Node1&#45;&gt;Node3</title>
<path fill="none" stroke="midnightblue" d="M606.68,-155.89C470.13,-150.2 250.08,-136.8 225,-109 204.22,-85.97 231.19,-50.24 249.56,-30.61"/>
<polygon fill="midnightblue" stroke="midnightblue" points="606.64,-159.39 616.77,-156.3 606.92,-152.39 606.64,-159.39"/>
</g>
<!-- Node4 -->
<g id="node4" class="node">
<title>Node4</title>
<g id="a_node4"><a xlink:href="version_8h.html" target="_top" xlink:title=" ">
<polygon fill="none" stroke="black" points="234,-73 234,-103 412,-103 412,-73 234,-73"/>
<text text-anchor="start" x="242" y="-91" font-family="Helvetica,sans-Serif" font-size="10.00">/home/runner/work/open62541pp</text>
<text text-anchor="middle" x="323" y="-80" font-family="Helvetica,sans-Serif" font-size="10.00">/open62541pp/src/version.h</text>
</a>
</g>
</g>
<!-- Node1&#45;&gt;Node4 -->
<g id="edge3" class="edge">
<title>Node1&#45;&gt;Node4</title>
<path fill="none" stroke="midnightblue" d="M618.84,-143.76C561.35,-134.16 486.9,-121.38 421,-109 411.1,-107.14 400.66,-105.1 390.42,-103.05"/>
<polygon fill="midnightblue" stroke="midnightblue" points="618.56,-147.26 629,-145.45 619.71,-140.36 618.56,-147.26"/>
</g>
<!-- Node5 -->
<g id="node5" class="node">
<title>Node5</title>
<g id="a_node5"><a xlink:href="Attribute_8cpp.html" target="_top" xlink:title=" ">
<polygon fill="none" stroke="black" points="430,-67.5 430,-108.5 608,-108.5 608,-67.5 430,-67.5"/>
<text text-anchor="start" x="438" y="-96.5" font-family="Helvetica,sans-Serif" font-size="10.00">/home/runner/work/open62541pp</text>
<text text-anchor="start" x="438" y="-85.5" font-family="Helvetica,sans-Serif" font-size="10.00">/open62541pp/src/services</text>
<text text-anchor="middle" x="519" y="-74.5" font-family="Helvetica,sans-Serif" font-size="10.00">/Attribute.cpp</text>
</a>
</g>
</g>
<!-- Node1&#45;&gt;Node5 -->
<g id="edge5" class="edge">
<title>Node1&#45;&gt;Node5</title>
<path fill="none" stroke="midnightblue" d="M666.16,-141.93C637.96,-131.79 602.43,-119.01 573.34,-108.55"/>
<polygon fill="midnightblue" stroke="midnightblue" points="665.21,-145.31 675.81,-145.4 667.58,-138.72 665.21,-145.31"/>
</g>
<!-- Node6 -->
<g id="node6" class="node">
<title>Node6</title>
<g id="a_node6"><a xlink:href="Browse_8cpp.html" target="_top" xlink:title=" ">
<polygon fill="none" stroke="black" points="626,-67.5 626,-108.5 804,-108.5 804,-67.5 626,-67.5"/>
<text text-anchor="start" x="634" y="-96.5" font-family="Helvetica,sans-Serif" font-size="10.00">/home/runner/work/open62541pp</text>
<text text-anchor="start" x="634" y="-85.5" font-family="Helvetica,sans-Serif" font-size="10.00">/open62541pp/src/services</text>
<text text-anchor="middle" x="715" y="-74.5" font-family="Helvetica,sans-Serif" font-size="10.00">/Browse.cpp</text>
</a>
</g>
</g>
<!-- Node1&#45;&gt;Node6 -->
<g id="edge6" class="edge">
<title>Node1&#45;&gt;Node6</title>
<path fill="none" stroke="midnightblue" d="M715,-134.98C715,-126.35 715,-116.76 715,-108.59"/>
<polygon fill="midnightblue" stroke="midnightblue" points="711.5,-135.23 715,-145.23 718.5,-135.23 711.5,-135.23"/>
</g>
<!-- Node7 -->
<g id="node7" class="node">
<title>Node7</title>
<g id="a_node7"><a xlink:href="NodeManagement_8cpp.html" target="_top" xlink:title=" ">
<polygon fill="none" stroke="black" points="822,-67.5 822,-108.5 1000,-108.5 1000,-67.5 822,-67.5"/>
<text text-anchor="start" x="830" y="-96.5" font-family="Helvetica,sans-Serif" font-size="10.00">/home/runner/work/open62541pp</text>
<text text-anchor="start" x="830" y="-85.5" font-family="Helvetica,sans-Serif" font-size="10.00">/open62541pp/src/services</text>
<text text-anchor="middle" x="911" y="-74.5" font-family="Helvetica,sans-Serif" font-size="10.00">/NodeManagement.cpp</text>
</a>
</g>
</g>
<!-- Node1&#45;&gt;Node7 -->
<g id="edge7" class="edge">
<title>Node1&#45;&gt;Node7</title>
<path fill="none" stroke="midnightblue" d="M763.84,-141.93C792.04,-131.79 827.57,-119.01 856.66,-108.55"/>
<polygon fill="midnightblue" stroke="midnightblue" points="762.42,-138.72 754.19,-145.4 764.79,-145.31 762.42,-138.72"/>
</g>
<!-- Node8 -->
<g id="node8" class="node">
<title>Node8</title>
<g id="a_node8"><a xlink:href="DataValue_8cpp.html" target="_top" xlink:title=" ">
<polygon fill="none" stroke="black" points="1018,-73 1018,-103 1224,-103 1224,-73 1018,-73"/>
<text text-anchor="start" x="1026" y="-91" font-family="Helvetica,sans-Serif" font-size="10.00">/home/runner/work/open62541pp</text>
<text text-anchor="middle" x="1121" y="-80" font-family="Helvetica,sans-Serif" font-size="10.00">/open62541pp/src/types/DataValue.cpp</text>
</a>
</g>
</g>
<!-- Node1&#45;&gt;Node8 -->
<g id="edge8" class="edge">
<title>Node1&#45;&gt;Node8</title>
<path fill="none" stroke="midnightblue" d="M807.26,-143.81C865.21,-133.92 941.49,-120.83 1009,-109 1019.9,-107.09 1031.38,-105.06 1042.68,-103.05"/>
<polygon fill="midnightblue" stroke="midnightblue" points="806.67,-140.36 797.4,-145.5 807.84,-147.26 806.67,-140.36"/>
</g>
<!-- Node9 -->
<g id="node9" class="node">
<title>Node9</title>
<g id="a_node9"><a xlink:href="DateTime_8cpp.html" target="_top" xlink:title=" ">
<polygon fill="none" stroke="black" points="1242,-73 1242,-103 1446,-103 1446,-73 1242,-73"/>
<text text-anchor="start" x="1250" y="-91" font-family="Helvetica,sans-Serif" font-size="10.00">/home/runner/work/open62541pp</text>
<text text-anchor="middle" x="1344" y="-80" font-family="Helvetica,sans-Serif" font-size="10.00">/open62541pp/src/types/DateTime.cpp</text>
</a>
</g>
</g>
<!-- Node1&#45;&gt;Node9 -->
<g id="edge9" class="edge">
<title>Node1&#45;&gt;Node9</title>
<path fill="none" stroke="midnightblue" d="M823.11,-151.53C928.11,-143.18 1091.89,-128.56 1233,-109 1245.32,-107.29 1258.35,-105.2 1270.99,-103.02"/>
<polygon fill="midnightblue" stroke="midnightblue" points="822.83,-148.04 813.14,-152.32 823.38,-155.02 822.83,-148.04"/>
</g>
<!-- Node10 -->
<g id="node10" class="node">
<title>Node10</title>
<g id="a_node10"><a xlink:href="NodeId_8cpp.html" target="_top" xlink:title=" ">
<polygon fill="none" stroke="black" points="1464.5,-73 1464.5,-103 1655.5,-103 1655.5,-73 1464.5,-73"/>
<text text-anchor="start" x="1472.5" y="-91" font-family="Helvetica,sans-Serif" font-size="10.00">/home/runner/work/open62541pp</text>
<text text-anchor="middle" x="1560" y="-80" font-family="Helvetica,sans-Serif" font-size="10.00">/open62541pp/src/types/NodeId.cpp</text>
</a>
</g>
</g>
<!-- Node1&#45;&gt;Node10 -->
<g id="edge10" class="edge">
<title>Node1&#45;&gt;Node10</title>
<path fill="none" stroke="midnightblue" d="M823.43,-156.18C967.98,-150.82 1231.59,-137.79 1455,-109 1467.33,-107.41 1480.4,-105.28 1492.98,-103.01"/>
<polygon fill="midnightblue" stroke="midnightblue" points="823.09,-152.69 813.22,-156.55 823.35,-159.68 823.09,-152.69"/>
</g>
<!-- Node4&#45;&gt;Node3 -->
<g id="edge4" class="edge">
<title>Node4&#45;&gt;Node3</title>
<path fill="none" stroke="midnightblue" d="M304.62,-65.04C295.26,-53.86 284.15,-40.58 275.92,-30.75"/>
<polygon fill="midnightblue" stroke="midnightblue" points="301.96,-67.31 311.06,-72.73 307.33,-62.82 301.96,-67.31"/>
</g>
</g>
</svg>
