<?xml version="1.0" encoding="UTF-8" standalone="no"?>
<!DOCTYPE svg PUBLIC "-//W3C//DTD SVG 1.1//EN"
 "http://www.w3.org/Graphics/SVG/1.1/DTD/svg11.dtd">
<!-- Generated by graphviz version 2.43.0 (0)
 -->
<!-- Title: /home/runner/work/open62541pp/open62541pp/include/open62541pp/overloads/ostream.h Pages: 1 -->
<svg width="1002pt" height="408pt"
 viewBox="0.00 0.00 1001.50 408.00" xmlns="http://www.w3.org/2000/svg" xmlns:xlink="http://www.w3.org/1999/xlink">
<g id="graph0" class="graph" transform="scale(1 1) rotate(0) translate(4 404)">
<title>/home/runner/work/open62541pp/open62541pp/include/open62541pp/overloads/ostream.h</title>
<!-- Node1 -->
<g id="node1" class="node">
<title>Node1</title>
<g id="a_node1"><a xlink:title=" ">
<polygon fill="#bfbfbf" stroke="black" points="133.5,-358.5 133.5,-399.5 326.5,-399.5 326.5,-358.5 133.5,-358.5"/>
<text text-anchor="start" x="141.5" y="-387.5" font-family="Helvetica,sans-Serif" font-size="10.00">/home/runner/work/open62541pp</text>
<text text-anchor="start" x="141.5" y="-376.5" font-family="Helvetica,sans-Serif" font-size="10.00">/open62541pp/include/open62541pp</text>
<text text-anchor="middle" x="230" y="-365.5" font-family="Helvetica,sans-Serif" font-size="10.00">/overloads/ostream.h</text>
</a>
</g>
</g>
<!-- Node2 -->
<g id="node2" class="node">
<title>Node2</title>
<g id="a_node2"><a xlink:title=" ">
<polygon fill="none" stroke="#bfbfbf" points="139.5,-302.5 139.5,-321.5 196.5,-321.5 196.5,-302.5 139.5,-302.5"/>
<text text-anchor="middle" x="168" y="-309.5" font-family="Helvetica,sans-Serif" font-size="10.00">ostream</text>
</a>
</g>
</g>
<!-- Node1&#45;&gt;Node2 -->
<g id="edge1" class="edge">
<title>Node1&#45;&gt;Node2</title>
<path fill="none" stroke="midnightblue" d="M211.4,-358.5C202.44,-349.11 191.83,-337.98 183.34,-329.08"/>
<polygon fill="midnightblue" stroke="midnightblue" points="185.69,-326.47 176.25,-321.65 180.62,-331.3 185.69,-326.47"/>
</g>
<!-- Node3 -->
<g id="node3" class="node">
<title>Node3</title>
<g id="a_node3"><a xlink:href="Builtin_8h.html" target="_top" xlink:title=" ">
<polygon fill="none" stroke="black" points="215,-302.5 215,-321.5 371,-321.5 371,-302.5 215,-302.5"/>
<text text-anchor="middle" x="293" y="-309.5" font-family="Helvetica,sans-Serif" font-size="10.00">open62541pp/types/Builtin.h</text>
</a>
</g>
</g>
<!-- Node1&#45;&gt;Node3 -->
<g id="edge2" class="edge">
<title>Node1&#45;&gt;Node3</title>
<path fill="none" stroke="midnightblue" d="M248.9,-358.5C258,-349.11 268.79,-337.98 277.41,-329.08"/>
<polygon fill="midnightblue" stroke="midnightblue" points="280.17,-331.27 284.61,-321.65 275.14,-326.4 280.17,-331.27"/>
</g>
<!-- Node4 -->
<g id="node4" class="node">
<title>Node4</title>
<g id="a_node4"><a xlink:title=" ">
<polygon fill="none" stroke="#bfbfbf" points="0,-246.5 0,-265.5 42,-265.5 42,-246.5 0,-246.5"/>
<text text-anchor="middle" x="21" y="-253.5" font-family="Helvetica,sans-Serif" font-size="10.00">array</text>
</a>
</g>
</g>
<!-- Node3&#45;&gt;Node4 -->
<g id="edge3" class="edge">
<title>Node3&#45;&gt;Node4</title>
<path fill="none" stroke="midnightblue" d="M242.87,-302.44C194.77,-294.01 120.17,-280.33 56,-266 54.73,-265.72 53.43,-265.42 52.12,-265.11"/>
<polygon fill="midnightblue" stroke="midnightblue" points="52.59,-261.62 42.05,-262.64 50.93,-268.42 52.59,-261.62"/>
</g>
<!-- Node5 -->
<g id="node5" class="node">
<title>Node5</title>
<g id="a_node5"><a xlink:title=" ">
<polygon fill="none" stroke="#bfbfbf" points="100,-62 100,-81 150,-81 150,-62 100,-62"/>
<text text-anchor="middle" x="125" y="-69" font-family="Helvetica,sans-Serif" font-size="10.00">cstdint</text>
</a>
</g>
</g>
<!-- Node3&#45;&gt;Node5 -->
<g id="edge4" class="edge">
<title>Node3&#45;&gt;Node5</title>
<path fill="none" stroke="midnightblue" d="M283.22,-302.18C257.82,-278.77 189.17,-212.07 152,-143 142.89,-126.08 135.36,-105.41 130.59,-90.84"/>
<polygon fill="midnightblue" stroke="midnightblue" points="133.84,-89.53 127.49,-81.05 127.17,-91.64 133.84,-89.53"/>
</g>
<!-- Node6 -->
<g id="node6" class="node">
<title>Node6</title>
<g id="a_node6"><a xlink:title=" ">
<polygon fill="none" stroke="#bfbfbf" points="516,-123.5 516,-142.5 560,-142.5 560,-123.5 516,-123.5"/>
<text text-anchor="middle" x="538" y="-130.5" font-family="Helvetica,sans-Serif" font-size="10.00">string</text>
</a>
</g>
</g>
<!-- Node3&#45;&gt;Node6 -->
<g id="edge5" class="edge">
<title>Node3&#45;&gt;Node6</title>
<path fill="none" stroke="midnightblue" d="M300.54,-302.3C323.51,-275.94 392.77,-197.66 421,-179 435.35,-169.51 476.61,-154.58 506.07,-144.54"/>
<polygon fill="midnightblue" stroke="midnightblue" points="507.19,-147.86 515.54,-141.34 504.95,-141.23 507.19,-147.86"/>
</g>
<!-- Node7 -->
<g id="node7" class="node">
<title>Node7</title>
<g id="a_node7"><a xlink:title=" ">
<polygon fill="none" stroke="#bfbfbf" points="185.5,-62 185.5,-81 258.5,-81 258.5,-62 185.5,-62"/>
<text text-anchor="middle" x="222" y="-69" font-family="Helvetica,sans-Serif" font-size="10.00">string_view</text>
</a>
</g>
</g>
<!-- Node3&#45;&gt;Node7 -->
<g id="edge6" class="edge">
<title>Node3&#45;&gt;Node7</title>
<path fill="none" stroke="midnightblue" d="M287.69,-302.43C277.39,-285.42 254.59,-245.97 242,-210 231.95,-181.29 232.41,-173.1 228,-143 225.44,-125.55 223.87,-105.49 222.98,-91.24"/>
<polygon fill="midnightblue" stroke="midnightblue" points="226.47,-91.01 222.4,-81.22 219.48,-91.41 226.47,-91.01"/>
</g>
<!-- Node8 -->
<g id="node8" class="node">
<title>Node8</title>
<g id="a_node8"><a xlink:href="TypeWrapper_8h.html" target="_top" xlink:title=" ">
<polygon fill="none" stroke="black" points="430,-246.5 430,-265.5 588,-265.5 588,-246.5 430,-246.5"/>
<text text-anchor="middle" x="509" y="-253.5" font-family="Helvetica,sans-Serif" font-size="10.00">open62541pp/TypeWrapper.h</text>
</a>
</g>
</g>
<!-- Node3&#45;&gt;Node8 -->
<g id="edge7" class="edge">
<title>Node3&#45;&gt;Node8</title>
<path fill="none" stroke="midnightblue" d="M327.23,-302.44C364.51,-293.12 424.27,-278.18 465.01,-268"/>
<polygon fill="midnightblue" stroke="midnightblue" points="466.08,-271.34 474.93,-265.52 464.38,-264.55 466.08,-271.34"/>
</g>
<!-- Node15 -->
<g id="node15" class="node">
<title>Node15</title>
<g id="a_node15"><a xlink:href="open62541_8h.html" target="_top" xlink:title=" ">
<polygon fill="none" stroke="black" points="697.5,-62 697.5,-81 846.5,-81 846.5,-62 697.5,-62"/>
<text text-anchor="middle" x="772" y="-69" font-family="Helvetica,sans-Serif" font-size="10.00">open62541pp/open62541.h</text>
</a>
</g>
</g>
<!-- Node3&#45;&gt;Node15 -->
<g id="edge37" class="edge">
<title>Node3&#45;&gt;Node15</title>
<path fill="none" stroke="midnightblue" d="M371.23,-310.37C522.01,-307.3 843.99,-291.17 912,-210 933.72,-184.08 884.36,-123.35 884,-123 864.91,-104.66 838,-92.23 815.34,-84.29"/>
<polygon fill="midnightblue" stroke="midnightblue" points="816.19,-80.89 805.6,-81.06 813.99,-87.53 816.19,-80.89"/>
</g>
<!-- Node8&#45;&gt;Node5 -->
<g id="edge9" class="edge">
<title>Node8&#45;&gt;Node5</title>
<path fill="none" stroke="midnightblue" d="M429.95,-247.7C363.12,-240.44 273.37,-227.81 242,-210 190.57,-180.8 151.4,-119.96 134.35,-89.97"/>
<polygon fill="midnightblue" stroke="midnightblue" points="137.33,-88.13 129.43,-81.08 131.21,-91.52 137.33,-88.13"/>
</g>
<!-- Node9 -->
<g id="node9" class="node">
<title>Node9</title>
<g id="a_node9"><a xlink:title=" ">
<polygon fill="none" stroke="#bfbfbf" points="446,-123.5 446,-142.5 498,-142.5 498,-123.5 446,-123.5"/>
<text text-anchor="middle" x="472" y="-130.5" font-family="Helvetica,sans-Serif" font-size="10.00">cassert</text>
</a>
</g>
</g>
<!-- Node8&#45;&gt;Node9 -->
<g id="edge8" class="edge">
<title>Node8&#45;&gt;Node9</title>
<path fill="none" stroke="midnightblue" d="M506.34,-246.3C500.34,-226.68 485.65,-178.64 477.56,-152.19"/>
<polygon fill="midnightblue" stroke="midnightblue" points="480.91,-151.16 474.64,-142.62 474.21,-153.21 480.91,-151.16"/>
</g>
<!-- Node10 -->
<g id="node10" class="node">
<title>Node10</title>
<g id="a_node10"><a xlink:title=" ">
<polygon fill="none" stroke="#bfbfbf" points="409.5,-0.5 409.5,-19.5 478.5,-19.5 478.5,-0.5 409.5,-0.5"/>
<text text-anchor="middle" x="444" y="-7.5" font-family="Helvetica,sans-Serif" font-size="10.00">type_traits</text>
</a>
</g>
</g>
<!-- Node8&#45;&gt;Node10 -->
<g id="edge10" class="edge">
<title>Node8&#45;&gt;Node10</title>
<path fill="none" stroke="midnightblue" d="M514.91,-246.45C532.05,-221.2 579.83,-147.25 569,-123 548.64,-77.43 499.57,-42.7 469.32,-24.71"/>
<polygon fill="midnightblue" stroke="midnightblue" points="471,-21.64 460.59,-19.67 467.5,-27.7 471,-21.64"/>
</g>
<!-- Node11 -->
<g id="node11" class="node">
<title>Node11</title>
<g id="a_node11"><a xlink:title=" ">
<polygon fill="none" stroke="#bfbfbf" points="430.5,-185 430.5,-204 475.5,-204 475.5,-185 430.5,-185"/>
<text text-anchor="middle" x="453" y="-192" font-family="Helvetica,sans-Serif" font-size="10.00">utility</text>
</a>
</g>
</g>
<!-- Node8&#45;&gt;Node11 -->
<g id="edge11" class="edge">
<title>Node8&#45;&gt;Node11</title>
<path fill="none" stroke="midnightblue" d="M500.98,-246.48C492.41,-237.37 478.64,-222.74 468.04,-211.48"/>
<polygon fill="midnightblue" stroke="midnightblue" points="470.41,-208.89 461.01,-204.01 465.31,-213.69 470.41,-208.89"/>
</g>
<!-- Node12 -->
<g id="node12" class="node">
<title>Node12</title>
<g id="a_node12"><a xlink:href="Common_8h.html" target="_top" xlink:title=" ">
<polygon fill="none" stroke="black" points="250.5,-123.5 250.5,-142.5 389.5,-142.5 389.5,-123.5 250.5,-123.5"/>
<text text-anchor="middle" x="320" y="-130.5" font-family="Helvetica,sans-Serif" font-size="10.00">open62541pp/Common.h</text>
</a>
</g>
</g>
<!-- Node8&#45;&gt;Node12 -->
<g id="edge12" class="edge">
<title>Node8&#45;&gt;Node12</title>
<path fill="none" stroke="midnightblue" d="M429.82,-252.05C362.61,-247.67 273.57,-236.84 251,-210 242.13,-199.45 244.44,-191.11 251,-179 258.75,-164.7 273.23,-154.22 286.94,-146.99"/>
<polygon fill="midnightblue" stroke="midnightblue" points="288.74,-150.01 296.21,-142.5 285.69,-143.71 288.74,-150.01"/>
</g>
<!-- Node8&#45;&gt;Node15 -->
<g id="edge34" class="edge">
<title>Node8&#45;&gt;Node15</title>
<path fill="none" stroke="midnightblue" d="M588.24,-251.25C694.75,-245.39 873.12,-232.35 893,-210 933.44,-164.55 845.85,-110.24 799.01,-85.69"/>
<polygon fill="midnightblue" stroke="midnightblue" points="800.46,-82.5 789.97,-81.06 797.27,-88.73 800.46,-82.5"/>
</g>
<!-- Node19 -->
<g id="node19" class="node">
<title>Node19</title>
<g id="a_node19"><a xlink:href="ErrorHandling_8h.html" target="_top" xlink:title=" ">
<polygon fill="none" stroke="black" points="570.5,-185 570.5,-204 731.5,-204 731.5,-185 570.5,-185"/>
<text text-anchor="middle" x="651" y="-192" font-family="Helvetica,sans-Serif" font-size="10.00">open62541pp/ErrorHandling.h</text>
</a>
</g>
</g>
<!-- Node8&#45;&gt;Node19 -->
<g id="edge23" class="edge">
<title>Node8&#45;&gt;Node19</title>
<path fill="none" stroke="midnightblue" d="M529.35,-246.48C553.39,-236.4 593.6,-219.55 621.16,-208"/>
<polygon fill="midnightblue" stroke="midnightblue" points="622.82,-211.1 630.69,-204.01 620.12,-204.65 622.82,-211.1"/>
</g>
<!-- Node21 -->
<g id="node21" class="node">
<title>Node21</title>
<g id="a_node21"><a xlink:href="helper_8h.html" target="_top" xlink:title=" ">
<polygon fill="none" stroke="black" points="260.5,-179.5 260.5,-209.5 373.5,-209.5 373.5,-179.5 260.5,-179.5"/>
<text text-anchor="start" x="268.5" y="-197.5" font-family="Helvetica,sans-Serif" font-size="10.00">open62541pp/detail</text>
<text text-anchor="middle" x="317" y="-186.5" font-family="Helvetica,sans-Serif" font-size="10.00">/helper.h</text>
</a>
</g>
</g>
<!-- Node8&#45;&gt;Node21 -->
<g id="edge27" class="edge">
<title>Node8&#45;&gt;Node21</title>
<path fill="none" stroke="midnightblue" d="M481.49,-246.48C453.06,-237.66 407.9,-223.67 372.08,-212.57"/>
<polygon fill="midnightblue" stroke="midnightblue" points="372.84,-209.14 362.25,-209.52 370.77,-215.83 372.84,-209.14"/>
</g>
<!-- Node22 -->
<g id="node22" class="node">
<title>Node22</title>
<g id="a_node22"><a xlink:href="comparison_8h.html" target="_top" xlink:title=" ">
<polygon fill="none" stroke="black" points="750,-179.5 750,-209.5 884,-209.5 884,-179.5 750,-179.5"/>
<text text-anchor="start" x="758" y="-197.5" font-family="Helvetica,sans-Serif" font-size="10.00">open62541pp/overloads</text>
<text text-anchor="middle" x="817" y="-186.5" font-family="Helvetica,sans-Serif" font-size="10.00">/comparison.h</text>
</a>
</g>
</g>
<!-- Node8&#45;&gt;Node22 -->
<g id="edge35" class="edge">
<title>Node8&#45;&gt;Node22</title>
<path fill="none" stroke="midnightblue" d="M553.13,-246.48C601.79,-237.07 681.01,-221.77 739.96,-210.38"/>
<polygon fill="midnightblue" stroke="midnightblue" points="740.83,-213.78 749.98,-208.45 739.5,-206.91 740.83,-213.78"/>
</g>
<!-- Node12&#45;&gt;Node5 -->
<g id="edge13" class="edge">
<title>Node12&#45;&gt;Node5</title>
<path fill="none" stroke="midnightblue" d="M292.06,-123.48C257.16,-112.83 197.45,-94.61 159.67,-83.08"/>
<polygon fill="midnightblue" stroke="midnightblue" points="160.69,-79.73 150.1,-80.16 158.64,-86.43 160.69,-79.73"/>
</g>
<!-- Node12&#45;&gt;Node7 -->
<g id="edge14" class="edge">
<title>Node12&#45;&gt;Node7</title>
<path fill="none" stroke="midnightblue" d="M305.96,-123.48C289.95,-113.75 263.55,-97.73 244.63,-86.24"/>
<polygon fill="midnightblue" stroke="midnightblue" points="246.38,-83.21 236.01,-81.01 242.75,-89.19 246.38,-83.21"/>
</g>
<!-- Node13 -->
<g id="node13" class="node">
<title>Node13</title>
<g id="a_node13"><a xlink:title=" ">
<polygon fill="none" stroke="#bfbfbf" points="344.5,-0.5 344.5,-19.5 385.5,-19.5 385.5,-0.5 344.5,-0.5"/>
<text text-anchor="middle" x="365" y="-7.5" font-family="Helvetica,sans-Serif" font-size="10.00">tuple</text>
</a>
</g>
</g>
<!-- Node12&#45;&gt;Node13 -->
<g id="edge15" class="edge">
<title>Node12&#45;&gt;Node13</title>
<path fill="none" stroke="midnightblue" d="M321.36,-123.32C323.78,-108.94 329.51,-79.45 339,-56 342.89,-46.38 348.53,-36.32 353.57,-28.16"/>
<polygon fill="midnightblue" stroke="midnightblue" points="356.61,-29.9 359.06,-19.59 350.72,-26.12 356.61,-29.9"/>
</g>
<!-- Node14 -->
<g id="node14" class="node">
<title>Node14</title>
<g id="a_node14"><a xlink:href="traits_8h.html" target="_top" xlink:title=" ">
<polygon fill="none" stroke="black" points="348.5,-56.5 348.5,-86.5 461.5,-86.5 461.5,-56.5 348.5,-56.5"/>
<text text-anchor="start" x="356.5" y="-74.5" font-family="Helvetica,sans-Serif" font-size="10.00">open62541pp/detail</text>
<text text-anchor="middle" x="405" y="-63.5" font-family="Helvetica,sans-Serif" font-size="10.00">/traits.h</text>
</a>
</g>
</g>
<!-- Node12&#45;&gt;Node14 -->
<g id="edge16" class="edge">
<title>Node12&#45;&gt;Node14</title>
<path fill="none" stroke="midnightblue" d="M332.18,-123.48C343.69,-115.42 361.4,-103.02 376.47,-92.47"/>
<polygon fill="midnightblue" stroke="midnightblue" points="378.78,-95.12 384.97,-86.52 374.77,-89.39 378.78,-95.12"/>
</g>
<!-- Node12&#45;&gt;Node15 -->
<g id="edge19" class="edge">
<title>Node12&#45;&gt;Node15</title>
<path fill="none" stroke="midnightblue" d="M384.76,-123.48C467.41,-112.59 610.1,-93.81 697.27,-82.34"/>
<polygon fill="midnightblue" stroke="midnightblue" points="697.9,-85.78 707.36,-81.01 696.99,-78.84 697.9,-85.78"/>
</g>
<!-- Node14&#45;&gt;Node10 -->
<g id="edge18" class="edge">
<title>Node14&#45;&gt;Node10</title>
<path fill="none" stroke="midnightblue" d="M414.24,-56.4C419.79,-47.93 426.89,-37.1 432.77,-28.14"/>
<polygon fill="midnightblue" stroke="midnightblue" points="435.77,-29.94 438.33,-19.66 429.92,-26.1 435.77,-29.94"/>
</g>
<!-- Node14&#45;&gt;Node13 -->
<g id="edge17" class="edge">
<title>Node14&#45;&gt;Node13</title>
<path fill="none" stroke="midnightblue" d="M395.52,-56.4C389.83,-47.93 382.55,-37.1 376.52,-28.14"/>
<polygon fill="midnightblue" stroke="midnightblue" points="379.3,-26 370.82,-19.66 373.49,-29.91 379.3,-26"/>
</g>
<!-- Node16 -->
<g id="node16" class="node">
<title>Node16</title>
<g id="a_node16"><a target="_blank" xlink:href="open62541/nodeids_8h.html.html" xlink:title=" ">
<polygon fill="none" stroke="black" points="872.5,-0.5 872.5,-19.5 993.5,-19.5 993.5,-0.5 872.5,-0.5"/>
<text text-anchor="middle" x="933" y="-7.5" font-family="Helvetica,sans-Serif" font-size="10.00">open62541/nodeids.h</text>
</a>
</g>
</g>
<!-- Node15&#45;&gt;Node16 -->
<g id="edge20" class="edge">
<title>Node15&#45;&gt;Node16</title>
<path fill="none" stroke="midnightblue" d="M795.07,-61.98C822.68,-51.77 869.12,-34.61 900.4,-23.05"/>
<polygon fill="midnightblue" stroke="midnightblue" points="901.81,-26.26 909.98,-19.51 899.38,-19.69 901.81,-26.26"/>
</g>
<!-- Node17 -->
<g id="node17" class="node">
<title>Node17</title>
<g id="a_node17"><a target="_blank" xlink:href="open62541/types_8h.html.html" xlink:title=" ">
<polygon fill="none" stroke="black" points="562,-0.5 562,-19.5 672,-19.5 672,-0.5 562,-0.5"/>
<text text-anchor="middle" x="617" y="-7.5" font-family="Helvetica,sans-Serif" font-size="10.00">open62541/types.h</text>
</a>
</g>
</g>
<!-- Node15&#45;&gt;Node17 -->
<g id="edge21" class="edge">
<title>Node15&#45;&gt;Node17</title>
<path fill="none" stroke="midnightblue" d="M749.79,-61.98C723.32,-51.81 678.89,-34.76 648.78,-23.2"/>
<polygon fill="midnightblue" stroke="midnightblue" points="649.76,-19.83 639.17,-19.51 647.25,-26.36 649.76,-19.83"/>
</g>
<!-- Node18 -->
<g id="node18" class="node">
<title>Node18</title>
<g id="a_node18"><a target="_blank" xlink:href="open62541/types__generated_8h.html.html" xlink:title=" ">
<polygon fill="none" stroke="black" points="690,-0.5 690,-19.5 854,-19.5 854,-0.5 690,-0.5"/>
<text text-anchor="middle" x="772" y="-7.5" font-family="Helvetica,sans-Serif" font-size="10.00">open62541/types_generated.h</text>
</a>
</g>
</g>
<!-- Node15&#45;&gt;Node18 -->
<g id="edge22" class="edge">
<title>Node15&#45;&gt;Node18</title>
<path fill="none" stroke="midnightblue" d="M772,-61.98C772,-53.58 772,-40.48 772,-29.66"/>
<polygon fill="midnightblue" stroke="midnightblue" points="775.5,-29.51 772,-19.51 768.5,-29.51 775.5,-29.51"/>
</g>
<!-- Node19&#45;&gt;Node6 -->
<g id="edge25" class="edge">
<title>Node19&#45;&gt;Node6</title>
<path fill="none" stroke="midnightblue" d="M634.81,-184.98C616.1,-175.12 585.08,-158.79 563.2,-147.27"/>
<polygon fill="midnightblue" stroke="midnightblue" points="564.64,-144.07 554.16,-142.51 561.38,-150.27 564.64,-144.07"/>
</g>
<!-- Node19&#45;&gt;Node15 -->
<g id="edge26" class="edge">
<title>Node19&#45;&gt;Node15</title>
<path fill="none" stroke="midnightblue" d="M659.7,-184.8C679.93,-164.57 730.38,-114.12 756.21,-88.29"/>
<polygon fill="midnightblue" stroke="midnightblue" points="758.78,-90.67 763.38,-81.12 753.83,-85.72 758.78,-90.67"/>
</g>
<!-- Node20 -->
<g id="node20" class="node">
<title>Node20</title>
<g id="a_node20"><a xlink:title=" ">
<polygon fill="none" stroke="#bfbfbf" points="618.5,-123.5 618.5,-142.5 683.5,-142.5 683.5,-123.5 618.5,-123.5"/>
<text text-anchor="middle" x="651" y="-130.5" font-family="Helvetica,sans-Serif" font-size="10.00">stdexcept</text>
</a>
</g>
</g>
<!-- Node19&#45;&gt;Node20 -->
<g id="edge24" class="edge">
<title>Node19&#45;&gt;Node20</title>
<path fill="none" stroke="midnightblue" d="M651,-184.98C651,-176.58 651,-163.48 651,-152.66"/>
<polygon fill="midnightblue" stroke="midnightblue" points="654.5,-152.51 651,-142.51 647.5,-152.51 654.5,-152.51"/>
</g>
<!-- Node21&#45;&gt;Node5 -->
<g id="edge29" class="edge">
<title>Node21&#45;&gt;Node5</title>
<path fill="none" stroke="midnightblue" d="M290.96,-179.48C273.03,-169.64 248.8,-155.98 228,-143 198.54,-124.6 165.59,-101.61 145.07,-86.98"/>
<polygon fill="midnightblue" stroke="midnightblue" points="147,-84.06 136.83,-81.08 142.93,-89.75 147,-84.06"/>
</g>
<!-- Node21&#45;&gt;Node6 -->
<g id="edge30" class="edge">
<title>Node21&#45;&gt;Node6</title>
<path fill="none" stroke="midnightblue" d="M371.14,-179.46C406.9,-170.11 455.04,-157.36 505.82,-143.29"/>
<polygon fill="midnightblue" stroke="midnightblue" points="506.97,-146.6 515.67,-140.55 505.09,-139.86 506.97,-146.6"/>
</g>
<!-- Node21&#45;&gt;Node7 -->
<g id="edge31" class="edge">
<title>Node21&#45;&gt;Node7</title>
<path fill="none" stroke="midnightblue" d="M285.61,-179.37C270.08,-170.89 252.29,-158.69 241,-143 230.03,-127.75 225.39,-106.53 223.43,-91.36"/>
<polygon fill="midnightblue" stroke="midnightblue" points="226.89,-90.73 222.4,-81.14 219.92,-91.44 226.89,-90.73"/>
</g>
<!-- Node21&#45;&gt;Node9 -->
<g id="edge28" class="edge">
<title>Node21&#45;&gt;Node9</title>
<path fill="none" stroke="midnightblue" d="M353.73,-179.4C379.97,-169.33 414.93,-155.91 440.02,-146.28"/>
<polygon fill="midnightblue" stroke="midnightblue" points="441.36,-149.51 449.45,-142.66 438.86,-142.97 441.36,-149.51"/>
</g>
<!-- Node21&#45;&gt;Node12 -->
<g id="edge32" class="edge">
<title>Node21&#45;&gt;Node12</title>
<path fill="none" stroke="midnightblue" d="M317.71,-179.4C318.11,-171.47 318.62,-161.46 319.05,-152.86"/>
<polygon fill="midnightblue" stroke="midnightblue" points="322.56,-152.82 319.56,-142.66 315.56,-152.47 322.56,-152.82"/>
</g>
<!-- Node21&#45;&gt;Node15 -->
<g id="edge33" class="edge">
<title>Node21&#45;&gt;Node15</title>
<path fill="none" stroke="midnightblue" d="M340,-179.35C371.89,-159.82 426.78,-126.62 437,-123 518.87,-94 617.76,-81.66 686.79,-76.4"/>
<polygon fill="midnightblue" stroke="midnightblue" points="687.46,-79.86 697.18,-75.64 686.95,-72.88 687.46,-79.86"/>
</g>
<!-- Node22&#45;&gt;Node15 -->
<g id="edge36" class="edge">
<title>Node22&#45;&gt;Node15</title>
<path fill="none" stroke="midnightblue" d="M811.66,-179.14C803.43,-157 787.64,-114.57 778.67,-90.44"/>
<polygon fill="midnightblue" stroke="midnightblue" points="781.95,-89.2 775.18,-81.05 775.39,-91.65 781.95,-89.2"/>
</g>
</g>
</svg>
