<?xml version="1.0" encoding="UTF-8" standalone="no"?>
<!DOCTYPE svg PUBLIC "-//W3C//DTD SVG 1.1//EN"
 "http://www.w3.org/Graphics/SVG/1.1/DTD/svg11.dtd">
<!-- Generated by graphviz version 2.43.0 (0)
 -->
<!-- Title: /home/runner/work/open62541pp/open62541pp/include/open62541pp/plugin/pluginadapter.hpp Pages: 1 -->
<svg width="983pt" height="357pt"
 viewBox="0.00 0.00 983.47 357.00" xmlns="http://www.w3.org/2000/svg" xmlns:xlink="http://www.w3.org/1999/xlink">
<g id="graph0" class="graph" transform="scale(1 1) rotate(0) translate(4 353)">
<title>/home/runner/work/open62541pp/open62541pp/include/open62541pp/plugin/pluginadapter.hpp</title>
<!-- Node1 -->
<g id="Node000001" class="node">
<title>Node1</title>
<g id="a_Node000001"><a xlink:title=" ">
<polygon fill="#999999" stroke="#666666" points="791.06,-349 598.06,-349 598.06,-308 791.06,-308 791.06,-349"/>
<text text-anchor="start" x="606.06" y="-337" font-family="Helvetica,sans-Serif" font-size="10.00">/home/runner/work/open62541pp</text>
<text text-anchor="start" x="606.06" y="-326" font-family="Helvetica,sans-Serif" font-size="10.00">/open62541pp/include/open62541pp</text>
<text text-anchor="middle" x="694.56" y="-315" font-family="Helvetica,sans-Serif" font-size="10.00">/plugin/pluginadapter.hpp</text>
</a>
</g>
</g>
<!-- Node2 -->
<g id="Node000002" class="node">
<title>Node2</title>
<g id="a_Node000002"><a xlink:href="open62541pp_8hpp.html" target="_top" xlink:title=" ">
<polygon fill="white" stroke="#666666" points="529.06,-41 336.06,-41 336.06,0 529.06,0 529.06,-41"/>
<text text-anchor="start" x="344.06" y="-29" font-family="Helvetica,sans-Serif" font-size="10.00">/home/runner/work/open62541pp</text>
<text text-anchor="start" x="344.06" y="-18" font-family="Helvetica,sans-Serif" font-size="10.00">/open62541pp/include/open62541pp</text>
<text text-anchor="middle" x="432.56" y="-7" font-family="Helvetica,sans-Serif" font-size="10.00">/open62541pp.hpp</text>
</a>
</g>
</g>
<!-- Node1&#45;&gt;Node2 -->
<g id="edge1_Node000001_Node000002" class="edge">
<title>Node1&#45;&gt;Node2</title>
<g id="a_edge1_Node000001_Node000002"><a xlink:title=" ">
<path fill="none" stroke="#63b8ff" d="M753.39,-303.91C852.71,-260.85 1035.41,-165.77 955.56,-77 927.62,-45.94 672.37,-30.93 529.07,-24.89"/>
<polygon fill="#63b8ff" stroke="#63b8ff" points="751.86,-300.75 744.04,-307.91 754.62,-307.19 751.86,-300.75"/>
</a>
</g>
</g>
<!-- Node3 -->
<g id="Node000003" class="node">
<title>Node3</title>
<g id="a_Node000003"><a xlink:href="accesscontrol_8hpp.html" target="_top" xlink:title=" ">
<polygon fill="white" stroke="#666666" points="602.06,-195 409.06,-195 409.06,-154 602.06,-154 602.06,-195"/>
<text text-anchor="start" x="417.06" y="-183" font-family="Helvetica,sans-Serif" font-size="10.00">/home/runner/work/open62541pp</text>
<text text-anchor="start" x="417.06" y="-172" font-family="Helvetica,sans-Serif" font-size="10.00">/open62541pp/include/open62541pp</text>
<text text-anchor="middle" x="505.56" y="-161" font-family="Helvetica,sans-Serif" font-size="10.00">/plugin/accesscontrol.hpp</text>
</a>
</g>
</g>
<!-- Node1&#45;&gt;Node3 -->
<g id="edge2_Node000001_Node000003" class="edge">
<title>Node1&#45;&gt;Node3</title>
<g id="a_edge2_Node000001_Node000003"><a xlink:title=" ">
<path fill="none" stroke="#63b8ff" d="M662.16,-301.44C624.69,-271.31 563.84,-222.37 530.08,-195.23"/>
<polygon fill="#63b8ff" stroke="#63b8ff" points="660.25,-304.4 670.24,-307.94 664.64,-298.95 660.25,-304.4"/>
</a>
</g>
</g>
<!-- Node6 -->
<g id="Node000006" class="node">
<title>Node6</title>
<g id="a_Node000006"><a xlink:href="log_8hpp.html" target="_top" xlink:title=" ">
<polygon fill="white" stroke="#666666" points="342.06,-272 149.06,-272 149.06,-231 342.06,-231 342.06,-272"/>
<text text-anchor="start" x="157.06" y="-260" font-family="Helvetica,sans-Serif" font-size="10.00">/home/runner/work/open62541pp</text>
<text text-anchor="start" x="157.06" y="-249" font-family="Helvetica,sans-Serif" font-size="10.00">/open62541pp/include/open62541pp</text>
<text text-anchor="middle" x="245.56" y="-238" font-family="Helvetica,sans-Serif" font-size="10.00">/plugin/log.hpp</text>
</a>
</g>
</g>
<!-- Node1&#45;&gt;Node6 -->
<g id="edge8_Node000001_Node000006" class="edge">
<title>Node1&#45;&gt;Node6</title>
<g id="a_edge8_Node000001_Node000006"><a xlink:title=" ">
<path fill="none" stroke="#63b8ff" d="M588.07,-309.71C513.52,-297.26 414.7,-280.75 342.38,-268.67"/>
<polygon fill="#63b8ff" stroke="#63b8ff" points="587.52,-313.17 597.96,-311.36 588.67,-306.26 587.52,-313.17"/>
</a>
</g>
</g>
<!-- Node9 -->
<g id="Node000009" class="node">
<title>Node9</title>
<g id="a_Node000009"><a xlink:href="nodestore_8hpp.html" target="_top" xlink:title=" ">
<polygon fill="white" stroke="#666666" points="886.06,-195 693.06,-195 693.06,-154 886.06,-154 886.06,-195"/>
<text text-anchor="start" x="701.06" y="-183" font-family="Helvetica,sans-Serif" font-size="10.00">/home/runner/work/open62541pp</text>
<text text-anchor="start" x="701.06" y="-172" font-family="Helvetica,sans-Serif" font-size="10.00">/open62541pp/include/open62541pp</text>
<text text-anchor="middle" x="789.56" y="-161" font-family="Helvetica,sans-Serif" font-size="10.00">/plugin/nodestore.hpp</text>
</a>
</g>
</g>
<!-- Node1&#45;&gt;Node9 -->
<g id="edge17_Node000001_Node000009" class="edge">
<title>Node1&#45;&gt;Node9</title>
<g id="a_edge17_Node000001_Node000009"><a xlink:title=" ">
<path fill="none" stroke="#63b8ff" d="M712.27,-299.15C731.14,-268.97 760.5,-221.98 777.08,-195.47"/>
<polygon fill="#63b8ff" stroke="#63b8ff" points="709.11,-297.6 706.78,-307.94 715.05,-301.31 709.11,-297.6"/>
</a>
</g>
</g>
<!-- Node3&#45;&gt;Node2 -->
<g id="edge3_Node000003_Node000002" class="edge">
<title>Node3&#45;&gt;Node2</title>
<g id="a_edge3_Node000003_Node000002"><a xlink:title=" ">
<path fill="none" stroke="#63b8ff" d="M499.28,-143.92C494.41,-124.25 486.62,-98.23 475.56,-77 468.86,-64.14 459.09,-51.24 450.56,-41.12"/>
<polygon fill="#63b8ff" stroke="#63b8ff" points="495.92,-144.92 501.62,-153.85 502.73,-143.31 495.92,-144.92"/>
</a>
</g>
</g>
<!-- Node4 -->
<g id="Node000004" class="node">
<title>Node4</title>
<g id="a_Node000004"><a xlink:href="accesscontrol__default_8hpp.html" target="_top" xlink:title=" ">
<polygon fill="white" stroke="#666666" points="717.06,-118 524.06,-118 524.06,-77 717.06,-77 717.06,-118"/>
<text text-anchor="start" x="532.06" y="-106" font-family="Helvetica,sans-Serif" font-size="10.00">/home/runner/work/open62541pp</text>
<text text-anchor="start" x="532.06" y="-95" font-family="Helvetica,sans-Serif" font-size="10.00">/open62541pp/include/open62541pp</text>
<text text-anchor="middle" x="620.56" y="-84" font-family="Helvetica,sans-Serif" font-size="10.00">/plugin/accesscontrol_default.hpp</text>
</a>
</g>
</g>
<!-- Node3&#45;&gt;Node4 -->
<g id="edge4_Node000003_Node000004" class="edge">
<title>Node3&#45;&gt;Node4</title>
<g id="a_edge4_Node000003_Node000004"><a xlink:title=" ">
<path fill="none" stroke="#63b8ff" d="M544.09,-148.37C559.18,-138.53 576.23,-127.41 590.39,-118.17"/>
<polygon fill="#63b8ff" stroke="#63b8ff" points="541.94,-145.6 535.47,-153.99 545.76,-151.46 541.94,-145.6"/>
</a>
</g>
</g>
<!-- Node5 -->
<g id="Node000005" class="node">
<title>Node5</title>
<g id="a_Node000005"><a xlink:href="server_8hpp.html" target="_top" xlink:title=" ">
<polygon fill="white" stroke="#666666" points="467.06,-118 274.06,-118 274.06,-77 467.06,-77 467.06,-118"/>
<text text-anchor="start" x="282.06" y="-106" font-family="Helvetica,sans-Serif" font-size="10.00">/home/runner/work/open62541pp</text>
<text text-anchor="start" x="282.06" y="-95" font-family="Helvetica,sans-Serif" font-size="10.00">/open62541pp/include/open62541pp</text>
<text text-anchor="middle" x="370.56" y="-84" font-family="Helvetica,sans-Serif" font-size="10.00">/server.hpp</text>
</a>
</g>
</g>
<!-- Node3&#45;&gt;Node5 -->
<g id="edge6_Node000003_Node000005" class="edge">
<title>Node3&#45;&gt;Node5</title>
<g id="a_edge6_Node000003_Node000005"><a xlink:title=" ">
<path fill="none" stroke="#63b8ff" d="M461.31,-148.92C443.36,-138.95 422.91,-127.58 405.97,-118.17"/>
<polygon fill="#63b8ff" stroke="#63b8ff" points="460,-152.19 470.44,-153.99 463.4,-146.07 460,-152.19"/>
</a>
</g>
</g>
<!-- Node4&#45;&gt;Node2 -->
<g id="edge5_Node000004_Node000002" class="edge">
<title>Node4&#45;&gt;Node2</title>
<g id="a_edge5_Node000004_Node000002"><a xlink:title=" ">
<path fill="none" stroke="#63b8ff" d="M562.32,-73.27C536.42,-62.94 506.26,-50.9 481.54,-41.04"/>
<polygon fill="#63b8ff" stroke="#63b8ff" points="561.07,-76.54 571.65,-76.99 563.66,-70.03 561.07,-76.54"/>
</a>
</g>
</g>
<!-- Node5&#45;&gt;Node2 -->
<g id="edge7_Node000005_Node000002" class="edge">
<title>Node5&#45;&gt;Node2</title>
<g id="a_edge7_Node000005_Node000002"><a xlink:title=" ">
<path fill="none" stroke="#63b8ff" d="M393.33,-68.95C400.98,-59.7 409.34,-49.58 416.38,-41.07"/>
<polygon fill="#63b8ff" stroke="#63b8ff" points="390.52,-66.86 386.85,-76.79 395.92,-71.32 390.52,-66.86"/>
</a>
</g>
</g>
<!-- Node6&#45;&gt;Node2 -->
<g id="edge11_Node000006_Node000002" class="edge">
<title>Node6&#45;&gt;Node2</title>
<g id="a_edge11_Node000006_Node000002"><a xlink:title=" ">
<path fill="none" stroke="#63b8ff" d="M168.98,-227.7C81.6,-197.94 -42.3,-141.91 14.56,-77 35.42,-53.18 218.98,-36.21 335.81,-27.71"/>
<polygon fill="#63b8ff" stroke="#63b8ff" points="168.05,-231.08 178.64,-230.94 170.27,-224.45 168.05,-231.08"/>
</a>
</g>
</g>
<!-- Node6&#45;&gt;Node5 -->
<g id="edge16_Node000006_Node000005" class="edge">
<title>Node6&#45;&gt;Node5</title>
<g id="a_edge16_Node000006_Node000005"><a xlink:title=" ">
<path fill="none" stroke="#63b8ff" d="M312.65,-226.29C327,-218.31 340.76,-208.04 350.56,-195 367.41,-172.57 370.88,-139.27 371.2,-118.24"/>
<polygon fill="#63b8ff" stroke="#63b8ff" points="310.92,-223.25 303.67,-230.97 314.16,-229.46 310.92,-223.25"/>
</a>
</g>
</g>
<!-- Node7 -->
<g id="Node000007" class="node">
<title>Node7</title>
<g id="a_Node000007"><a xlink:href="client_8hpp.html" target="_top" xlink:title=" ">
<polygon fill="white" stroke="#666666" points="217.06,-118 24.06,-118 24.06,-77 217.06,-77 217.06,-118"/>
<text text-anchor="start" x="32.06" y="-106" font-family="Helvetica,sans-Serif" font-size="10.00">/home/runner/work/open62541pp</text>
<text text-anchor="start" x="32.06" y="-95" font-family="Helvetica,sans-Serif" font-size="10.00">/open62541pp/include/open62541pp</text>
<text text-anchor="middle" x="120.56" y="-84" font-family="Helvetica,sans-Serif" font-size="10.00">/client.hpp</text>
</a>
</g>
</g>
<!-- Node6&#45;&gt;Node7 -->
<g id="edge9_Node000006_Node000007" class="edge">
<title>Node6&#45;&gt;Node7</title>
<g id="a_edge9_Node000006_Node000007"><a xlink:title=" ">
<path fill="none" stroke="#63b8ff" d="M177.28,-226.23C162.97,-218.27 149.28,-208.03 139.56,-195 122.8,-172.56 119.72,-139.27 119.66,-118.24"/>
<polygon fill="#63b8ff" stroke="#63b8ff" points="175.76,-229.38 186.25,-230.88 178.99,-223.17 175.76,-229.38"/>
</a>
</g>
</g>
<!-- Node8 -->
<g id="Node000008" class="node">
<title>Node8</title>
<g id="a_Node000008"><a xlink:href="log__default_8hpp.html" target="_top" xlink:title=" ">
<polygon fill="white" stroke="#666666" points="342.06,-195 149.06,-195 149.06,-154 342.06,-154 342.06,-195"/>
<text text-anchor="start" x="157.06" y="-183" font-family="Helvetica,sans-Serif" font-size="10.00">/home/runner/work/open62541pp</text>
<text text-anchor="start" x="157.06" y="-172" font-family="Helvetica,sans-Serif" font-size="10.00">/open62541pp/include/open62541pp</text>
<text text-anchor="middle" x="245.56" y="-161" font-family="Helvetica,sans-Serif" font-size="10.00">/plugin/log_default.hpp</text>
</a>
</g>
</g>
<!-- Node6&#45;&gt;Node8 -->
<g id="edge12_Node000006_Node000008" class="edge">
<title>Node6&#45;&gt;Node8</title>
<g id="a_edge12_Node000006_Node000008"><a xlink:title=" ">
<path fill="none" stroke="#63b8ff" d="M245.56,-220.69C245.56,-212.08 245.56,-202.9 245.56,-195.07"/>
<polygon fill="#63b8ff" stroke="#63b8ff" points="242.06,-220.79 245.56,-230.79 249.06,-220.79 242.06,-220.79"/>
</a>
</g>
</g>
<!-- Node7&#45;&gt;Node2 -->
<g id="edge10_Node000007_Node000002" class="edge">
<title>Node7&#45;&gt;Node2</title>
<g id="a_edge10_Node000007_Node000002"><a xlink:title=" ">
<path fill="none" stroke="#63b8ff" d="M211.59,-74.62C255.78,-63.99 308.44,-51.34 351.26,-41.04"/>
<polygon fill="#63b8ff" stroke="#63b8ff" points="210.62,-71.25 201.72,-76.99 212.26,-78.06 210.62,-71.25"/>
</a>
</g>
</g>
<!-- Node8&#45;&gt;Node2 -->
<g id="edge14_Node000008_Node000002" class="edge">
<title>Node8&#45;&gt;Node2</title>
<g id="a_edge14_Node000008_Node000002"><a xlink:title=" ">
<path fill="none" stroke="#63b8ff" d="M243.96,-143.95C244.42,-122.89 248.51,-95.18 264.56,-77 282.95,-56.16 309.34,-43.11 335.76,-34.96"/>
<polygon fill="#63b8ff" stroke="#63b8ff" points="240.46,-144 244,-153.99 247.46,-143.97 240.46,-144"/>
</a>
</g>
</g>
<!-- Node8&#45;&gt;Node5 -->
<g id="edge15_Node000008_Node000005" class="edge">
<title>Node8&#45;&gt;Node5</title>
<g id="a_edge15_Node000008_Node000005"><a xlink:title=" ">
<path fill="none" stroke="#63b8ff" d="M286.98,-148.64C303.5,-138.74 322.23,-127.5 337.77,-118.17"/>
<polygon fill="#63b8ff" stroke="#63b8ff" points="284.85,-145.84 278.07,-153.99 288.45,-151.85 284.85,-145.84"/>
</a>
</g>
</g>
<!-- Node8&#45;&gt;Node7 -->
<g id="edge13_Node000008_Node000007" class="edge">
<title>Node8&#45;&gt;Node7</title>
<g id="a_edge13_Node000008_Node000007"><a xlink:title=" ">
<path fill="none" stroke="#63b8ff" d="M204.13,-148.64C187.62,-138.74 168.88,-127.5 153.34,-118.17"/>
<polygon fill="#63b8ff" stroke="#63b8ff" points="202.67,-151.85 213.04,-153.99 206.27,-145.84 202.67,-151.85"/>
</a>
</g>
</g>
<!-- Node9&#45;&gt;Node2 -->
<g id="edge19_Node000009_Node000002" class="edge">
<title>Node9&#45;&gt;Node2</title>
<g id="a_edge19_Node000009_Node000002"><a xlink:title=" ">
<path fill="none" stroke="#63b8ff" d="M895.58,-152C912.11,-144 927.14,-133.03 937.56,-118 947.94,-103.02 949.72,-90.57 937.56,-77 910.85,-47.19 668.17,-31.75 529.18,-25.29"/>
<polygon fill="#63b8ff" stroke="#63b8ff" points="893.98,-148.88 886.26,-156.15 896.82,-155.28 893.98,-148.88"/>
</a>
</g>
</g>
<!-- Node9&#45;&gt;Node5 -->
<g id="edge20_Node000009_Node000005" class="edge">
<title>Node9&#45;&gt;Node5</title>
<g id="a_edge20_Node000009_Node000005"><a xlink:title=" ">
<path fill="none" stroke="#63b8ff" d="M682.82,-154.39C616.35,-142.5 531.54,-127.32 467.09,-115.78"/>
<polygon fill="#63b8ff" stroke="#63b8ff" points="682.44,-157.88 692.9,-156.2 683.68,-150.99 682.44,-157.88"/>
</a>
</g>
</g>
<!-- Node10 -->
<g id="Node000010" class="node">
<title>Node10</title>
<g id="a_Node000010"><a xlink:href="server__context_8hpp.html" target="_top" xlink:title=" ">
<polygon fill="white" stroke="#666666" points="928.06,-118 735.06,-118 735.06,-77 928.06,-77 928.06,-118"/>
<text text-anchor="start" x="743.06" y="-106" font-family="Helvetica,sans-Serif" font-size="10.00">/home/runner/work/open62541pp</text>
<text text-anchor="start" x="743.06" y="-95" font-family="Helvetica,sans-Serif" font-size="10.00">/open62541pp/include/open62541pp</text>
<text text-anchor="middle" x="831.56" y="-84" font-family="Helvetica,sans-Serif" font-size="10.00">/detail/server_context.hpp</text>
</a>
</g>
</g>
<!-- Node9&#45;&gt;Node10 -->
<g id="edge18_Node000009_Node000010" class="edge">
<title>Node9&#45;&gt;Node10</title>
<g id="a_edge18_Node000009_Node000010"><a xlink:title=" ">
<path fill="none" stroke="#63b8ff" d="M805.61,-144.83C810.62,-135.89 816.02,-126.24 820.6,-118.07"/>
<polygon fill="#63b8ff" stroke="#63b8ff" points="802.42,-143.36 800.59,-153.79 808.53,-146.78 802.42,-143.36"/>
</a>
</g>
</g>
</g>
</svg>
