<?xml version="1.0" encoding="UTF-8" standalone="no"?>
<!DOCTYPE svg PUBLIC "-//W3C//DTD SVG 1.1//EN"
 "http://www.w3.org/Graphics/SVG/1.1/DTD/svg11.dtd">
<!-- Generated by graphviz version 2.43.0 (0)
 -->
<!-- Title: /home/runner/work/open62541pp/open62541pp/include/open62541pp/detail/result_util.h Pages: 1 -->
<svg width="1313pt" height="599pt"
 viewBox="0.00 0.00 1312.50 599.00" xmlns="http://www.w3.org/2000/svg" xmlns:xlink="http://www.w3.org/1999/xlink">
<g id="graph0" class="graph" transform="scale(1 1) rotate(0) translate(4 595)">
<title>/home/runner/work/open62541pp/open62541pp/include/open62541pp/detail/result_util.h</title>
<!-- Node1 -->
<g id="Node000001" class="node">
<title>Node1</title>
<g id="a_Node000001"><a xlink:title=" ">
<polygon fill="#999999" stroke="#666666" points="1213,-591 1020,-591 1020,-550 1213,-550 1213,-591"/>
<text text-anchor="start" x="1028" y="-579" font-family="Helvetica,sans-Serif" font-size="10.00">/home/runner/work/open62541pp</text>
<text text-anchor="start" x="1028" y="-568" font-family="Helvetica,sans-Serif" font-size="10.00">/open62541pp/include/open62541pp</text>
<text text-anchor="middle" x="1116.5" y="-557" font-family="Helvetica,sans-Serif" font-size="10.00">/detail/result_util.h</text>
</a>
</g>
</g>
<!-- Node2 -->
<g id="Node000002" class="node">
<title>Node2</title>
<g id="a_Node000002"><a xlink:title=" ">
<polygon fill="#e0e0e0" stroke="#999999" points="65,-459 0,-459 0,-440 65,-440 65,-459"/>
<text text-anchor="middle" x="32.5" y="-447" font-family="Helvetica,sans-Serif" font-size="10.00">functional</text>
</a>
</g>
</g>
<!-- Node1&#45;&gt;Node2 -->
<g id="edge1_Node000001_Node000002" class="edge">
<title>Node1&#45;&gt;Node2</title>
<g id="a_edge1_Node000001_Node000002"><a xlink:title=" ">
<path fill="none" stroke="#63b8ff" d="M1019.71,-561.55C835.93,-545.94 424.05,-508.45 79.5,-459 78.04,-458.79 76.55,-458.57 75.05,-458.34"/>
<polygon fill="#63b8ff" stroke="#63b8ff" points="75.5,-454.86 65.07,-456.71 74.37,-461.77 75.5,-454.86"/>
</a>
</g>
</g>
<!-- Node3 -->
<g id="Node000003" class="node">
<title>Node3</title>
<g id="a_Node000003"><a xlink:title=" ">
<polygon fill="#e0e0e0" stroke="#999999" points="1192,-200.5 1123,-200.5 1123,-181.5 1192,-181.5 1192,-200.5"/>
<text text-anchor="middle" x="1157.5" y="-188.5" font-family="Helvetica,sans-Serif" font-size="10.00">type_traits</text>
</a>
</g>
</g>
<!-- Node1&#45;&gt;Node3 -->
<g id="edge2_Node000001_Node000003" class="edge">
<title>Node1&#45;&gt;Node3</title>
<g id="a_edge2_Node000001_Node000003"><a xlink:title=" ">
<path fill="none" stroke="#63b8ff" d="M1202.52,-549.92C1252.02,-533 1304.5,-502.74 1304.5,-450.5 1304.5,-450.5 1304.5,-450.5 1304.5,-322 1304.5,-261.82 1234.51,-222.8 1191.12,-204.38"/>
<polygon fill="#63b8ff" stroke="#63b8ff" points="1192.35,-201.11 1181.77,-200.56 1189.7,-207.59 1192.35,-201.11"/>
</a>
</g>
</g>
<!-- Node4 -->
<g id="Node000004" class="node">
<title>Node4</title>
<g id="a_Node000004"><a xlink:href="Result_8h.html" target="_top" xlink:title=" ">
<polygon fill="white" stroke="#666666" points="1179,-514 1054,-514 1054,-495 1179,-495 1179,-514"/>
<text text-anchor="middle" x="1116.5" y="-502" font-family="Helvetica,sans-Serif" font-size="10.00">open62541pp/Result.h</text>
</a>
</g>
</g>
<!-- Node1&#45;&gt;Node4 -->
<g id="edge3_Node000001_Node000004" class="edge">
<title>Node1&#45;&gt;Node4</title>
<g id="a_edge3_Node000001_Node000004"><a xlink:title=" ">
<path fill="none" stroke="#63b8ff" d="M1116.5,-549.95C1116.5,-541.85 1116.5,-532.5 1116.5,-524.47"/>
<polygon fill="#63b8ff" stroke="#63b8ff" points="1120,-524.26 1116.5,-514.26 1113,-524.26 1120,-524.26"/>
</a>
</g>
</g>
<!-- Node4&#45;&gt;Node2 -->
<g id="edge5_Node000004_Node000002" class="edge">
<title>Node4&#45;&gt;Node2</title>
<g id="a_edge5_Node000004_Node000002"><a xlink:title=" ">
<path fill="none" stroke="#63b8ff" d="M1053.73,-503.77C891.84,-503.84 447.09,-499.93 79.5,-459 78.03,-458.84 76.54,-458.65 75.04,-458.46"/>
<polygon fill="#63b8ff" stroke="#63b8ff" points="75.44,-454.98 65.03,-456.98 74.41,-461.9 75.44,-454.98"/>
</a>
</g>
</g>
<!-- Node4&#45;&gt;Node3 -->
<g id="edge7_Node000004_Node000003" class="edge">
<title>Node4&#45;&gt;Node3</title>
<g id="a_edge7_Node000004_Node000003"><a xlink:title=" ">
<path fill="none" stroke="#63b8ff" d="M1179.05,-495.09C1203.37,-488.84 1229.62,-477.96 1247.5,-459 1269.32,-435.86 1266.5,-421.81 1266.5,-390 1266.5,-390 1266.5,-390 1266.5,-322 1266.5,-269.46 1213.57,-227.02 1181.48,-206.11"/>
<polygon fill="#63b8ff" stroke="#63b8ff" points="1182.98,-202.92 1172.66,-200.56 1179.26,-208.85 1182.98,-202.92"/>
</a>
</g>
</g>
<!-- Node5 -->
<g id="Node000005" class="node">
<title>Node5</title>
<g id="a_Node000005"><a xlink:title=" ">
<polygon fill="#e0e0e0" stroke="#999999" points="1110.5,-266.5 1058.5,-266.5 1058.5,-247.5 1110.5,-247.5 1110.5,-266.5"/>
<text text-anchor="middle" x="1084.5" y="-254.5" font-family="Helvetica,sans-Serif" font-size="10.00">cassert</text>
</a>
</g>
</g>
<!-- Node4&#45;&gt;Node5 -->
<g id="edge4_Node000004_Node000005" class="edge">
<title>Node4&#45;&gt;Node5</title>
<g id="a_edge4_Node000004_Node000005"><a xlink:title=" ">
<path fill="none" stroke="#63b8ff" d="M1123.21,-494.56C1148.11,-460.92 1232.57,-342.08 1209.5,-308 1189.75,-278.83 1149.92,-266.67 1120.51,-261.61"/>
<polygon fill="#63b8ff" stroke="#63b8ff" points="1121,-258.15 1110.59,-260.1 1119.95,-265.07 1121,-258.15"/>
</a>
</g>
</g>
<!-- Node6 -->
<g id="Node000006" class="node">
<title>Node6</title>
<g id="a_Node000006"><a xlink:title=" ">
<polygon fill="#e0e0e0" stroke="#999999" points="1238.5,-459 1182.5,-459 1182.5,-440 1238.5,-440 1238.5,-459"/>
<text text-anchor="middle" x="1210.5" y="-447" font-family="Helvetica,sans-Serif" font-size="10.00">optional</text>
</a>
</g>
</g>
<!-- Node4&#45;&gt;Node6 -->
<g id="edge6_Node000004_Node000006" class="edge">
<title>Node4&#45;&gt;Node6</title>
<g id="a_edge6_Node000004_Node000006"><a xlink:title=" ">
<path fill="none" stroke="#63b8ff" d="M1131.6,-494.98C1146.32,-486.69 1168.92,-473.94 1186.17,-464.22"/>
<polygon fill="#63b8ff" stroke="#63b8ff" points="1188.13,-467.13 1195.12,-459.17 1184.69,-461.03 1188.13,-467.13"/>
</a>
</g>
</g>
<!-- Node7 -->
<g id="Node000007" class="node">
<title>Node7</title>
<g id="a_Node000007"><a xlink:title=" ">
<polygon fill="#e0e0e0" stroke="#999999" points="1200,-332.5 1155,-332.5 1155,-313.5 1200,-313.5 1200,-332.5"/>
<text text-anchor="middle" x="1177.5" y="-320.5" font-family="Helvetica,sans-Serif" font-size="10.00">utility</text>
</a>
</g>
</g>
<!-- Node4&#45;&gt;Node7 -->
<g id="edge8_Node000004_Node000007" class="edge">
<title>Node4&#45;&gt;Node7</title>
<g id="a_edge8_Node000004_Node000007"><a xlink:title=" ">
<path fill="none" stroke="#63b8ff" d="M1119.44,-494.84C1128.84,-467.18 1158.29,-380.51 1171.26,-342.35"/>
<polygon fill="#63b8ff" stroke="#63b8ff" points="1174.68,-343.17 1174.59,-332.57 1168.06,-340.91 1174.68,-343.17"/>
</a>
</g>
</g>
<!-- Node8 -->
<g id="Node000008" class="node">
<title>Node8</title>
<g id="a_Node000008"><a xlink:href="ErrorHandling_8h.html" target="_top" xlink:title=" ">
<polygon fill="white" stroke="#666666" points="193,-266.5 32,-266.5 32,-247.5 193,-247.5 193,-266.5"/>
<text text-anchor="middle" x="112.5" y="-254.5" font-family="Helvetica,sans-Serif" font-size="10.00">open62541pp/ErrorHandling.h</text>
</a>
</g>
</g>
<!-- Node4&#45;&gt;Node8 -->
<g id="edge9_Node000004_Node000008" class="edge">
<title>Node4&#45;&gt;Node8</title>
<g id="a_edge9_Node000004_Node000008"><a xlink:title=" ">
<path fill="none" stroke="#63b8ff" d="M1053.99,-501.32C847.85,-493.57 198.66,-464.53 128.5,-404 92.06,-372.56 100.66,-308.12 107.69,-276.43"/>
<polygon fill="#63b8ff" stroke="#63b8ff" points="111.09,-277.23 110.03,-266.69 104.29,-275.59 111.09,-277.23"/>
</a>
</g>
</g>
<!-- Node23 -->
<g id="Node000023" class="node">
<title>Node23</title>
<g id="a_Node000023"><a xlink:href="Builtin_8h.html" target="_top" xlink:title=" ">
<polygon fill="white" stroke="#666666" points="752.5,-459 596.5,-459 596.5,-440 752.5,-440 752.5,-459"/>
<text text-anchor="middle" x="674.5" y="-447" font-family="Helvetica,sans-Serif" font-size="10.00">open62541pp/types/Builtin.h</text>
</a>
</g>
</g>
<!-- Node4&#45;&gt;Node23 -->
<g id="edge28_Node000004_Node000023" class="edge">
<title>Node4&#45;&gt;Node23</title>
<g id="a_edge28_Node000004_Node000023"><a xlink:title=" ">
<path fill="none" stroke="#63b8ff" d="M1053.64,-495.96C975.35,-486.57 841.45,-470.52 755.53,-460.22"/>
<polygon fill="#63b8ff" stroke="#63b8ff" points="755.9,-456.74 745.55,-459.02 755.07,-463.69 755.9,-456.74"/>
</a>
</g>
</g>
<!-- Node9 -->
<g id="Node000009" class="node">
<title>Node9</title>
<g id="a_Node000009"><a xlink:title=" ">
<polygon fill="#e0e0e0" stroke="#999999" points="97,-200.5 60,-200.5 60,-181.5 97,-181.5 97,-200.5"/>
<text text-anchor="middle" x="78.5" y="-188.5" font-family="Helvetica,sans-Serif" font-size="10.00">new</text>
</a>
</g>
</g>
<!-- Node8&#45;&gt;Node9 -->
<g id="edge10_Node000008_Node000009" class="edge">
<title>Node8&#45;&gt;Node9</title>
<g id="a_edge10_Node000008_Node000009"><a xlink:title=" ">
<path fill="none" stroke="#63b8ff" d="M107.91,-247.37C102.82,-237.78 94.46,-222.05 87.96,-209.8"/>
<polygon fill="#63b8ff" stroke="#63b8ff" points="91.01,-208.09 83.23,-200.91 84.83,-211.38 91.01,-208.09"/>
</a>
</g>
</g>
<!-- Node10 -->
<g id="Node000010" class="node">
<title>Node10</title>
<g id="a_Node000010"><a xlink:title=" ">
<polygon fill="#e0e0e0" stroke="#999999" points="180,-200.5 115,-200.5 115,-181.5 180,-181.5 180,-200.5"/>
<text text-anchor="middle" x="147.5" y="-188.5" font-family="Helvetica,sans-Serif" font-size="10.00">stdexcept</text>
</a>
</g>
</g>
<!-- Node8&#45;&gt;Node10 -->
<g id="edge11_Node000008_Node000010" class="edge">
<title>Node8&#45;&gt;Node10</title>
<g id="a_edge11_Node000008_Node000010"><a xlink:title=" ">
<path fill="none" stroke="#63b8ff" d="M117.22,-247.37C122.46,-237.78 131.07,-222.05 137.77,-209.8"/>
<polygon fill="#63b8ff" stroke="#63b8ff" points="140.9,-211.36 142.63,-200.91 134.76,-208 140.9,-211.36"/>
</a>
</g>
</g>
<!-- Node11 -->
<g id="Node000011" class="node">
<title>Node11</title>
<g id="a_Node000011"><a xlink:href="common_8h.html" target="_top" xlink:title=" ">
<polygon fill="white" stroke="#666666" points="506.5,-206 378.5,-206 378.5,-176 506.5,-176 506.5,-206"/>
<text text-anchor="start" x="386.5" y="-194" font-family="Helvetica,sans-Serif" font-size="10.00">open62541pp/detail</text>
<text text-anchor="middle" x="442.5" y="-183" font-family="Helvetica,sans-Serif" font-size="10.00">/open62541/common.h</text>
</a>
</g>
</g>
<!-- Node8&#45;&gt;Node11 -->
<g id="edge12_Node000008_Node000011" class="edge">
<title>Node8&#45;&gt;Node11</title>
<g id="a_edge12_Node000008_Node000011"><a xlink:title=" ">
<path fill="none" stroke="#63b8ff" d="M156.66,-247.44C210.68,-236.96 302.93,-219.07 368,-206.45"/>
<polygon fill="#63b8ff" stroke="#63b8ff" points="369.05,-209.81 378.2,-204.47 367.72,-202.94 369.05,-209.81"/>
</a>
</g>
</g>
<!-- Node12 -->
<g id="Node000012" class="node">
<title>Node12</title>
<g id="a_Node000012"><a xlink:href="push__options_8h.html" target="_top" xlink:title=" ">
<polygon fill="white" stroke="#666666" points="167.5,-30 17.5,-30 17.5,0 167.5,0 167.5,-30"/>
<text text-anchor="start" x="25.5" y="-18" font-family="Helvetica,sans-Serif" font-size="10.00">open62541pp/detail</text>
<text text-anchor="middle" x="92.5" y="-7" font-family="Helvetica,sans-Serif" font-size="10.00">/open62541/push_options.h</text>
</a>
</g>
</g>
<!-- Node11&#45;&gt;Node12 -->
<g id="edge13_Node000011_Node000012" class="edge">
<title>Node11&#45;&gt;Node12</title>
<g id="a_edge13_Node000011_Node000012"><a xlink:title=" ">
<path fill="none" stroke="#63b8ff" d="M378.4,-189.8C290.15,-188.04 137.96,-179.23 101.5,-140 76.72,-113.34 80.68,-68.01 86.27,-40.16"/>
<polygon fill="#63b8ff" stroke="#63b8ff" points="89.76,-40.6 88.52,-30.08 82.92,-39.08 89.76,-40.6"/>
</a>
</g>
</g>
<!-- Node13 -->
<g id="Node000013" class="node">
<title>Node13</title>
<g id="a_Node000013"><a target="_blank" xlink:href="open62541/nodeids_8h.html" xlink:title=" ">
<polygon fill="white" stroke="#666666" points="548,-140 427,-140 427,-121 548,-121 548,-140"/>
<text text-anchor="middle" x="487.5" y="-128" font-family="Helvetica,sans-Serif" font-size="10.00">open62541/nodeids.h</text>
</a>
</g>
</g>
<!-- Node11&#45;&gt;Node13 -->
<g id="edge14_Node000011_Node000013" class="edge">
<title>Node11&#45;&gt;Node13</title>
<g id="a_edge14_Node000011_Node000013"><a xlink:title=" ">
<path fill="none" stroke="#63b8ff" d="M453.39,-175.84C459.79,-167.52 467.92,-156.96 474.63,-148.23"/>
<polygon fill="#63b8ff" stroke="#63b8ff" points="477.43,-150.33 480.76,-140.27 471.89,-146.06 477.43,-150.33"/>
</a>
</g>
</g>
<!-- Node14 -->
<g id="Node000014" class="node">
<title>Node14</title>
<g id="a_Node000014"><a target="_blank" xlink:href="open62541/statuscodes_8h.html" xlink:title=" ">
<polygon fill="white" stroke="#666666" points="707,-140 566,-140 566,-121 707,-121 707,-140"/>
<text text-anchor="middle" x="636.5" y="-128" font-family="Helvetica,sans-Serif" font-size="10.00">open62541/statuscodes.h</text>
</a>
</g>
</g>
<!-- Node11&#45;&gt;Node14 -->
<g id="edge15_Node000011_Node000014" class="edge">
<title>Node11&#45;&gt;Node14</title>
<g id="a_edge15_Node000011_Node000014"><a xlink:title=" ">
<path fill="none" stroke="#63b8ff" d="M488.97,-175.99C522.45,-165.89 567.07,-152.44 598.44,-142.98"/>
<polygon fill="#63b8ff" stroke="#63b8ff" points="599.57,-146.29 608.13,-140.05 597.55,-139.59 599.57,-146.29"/>
</a>
</g>
</g>
<!-- Node15 -->
<g id="Node000015" class="node">
<title>Node15</title>
<g id="a_Node000015"><a target="_blank" xlink:href="open62541/types_8h.html" xlink:title=" ">
<polygon fill="white" stroke="#666666" points="370.5,-140 260.5,-140 260.5,-121 370.5,-121 370.5,-140"/>
<text text-anchor="middle" x="315.5" y="-128" font-family="Helvetica,sans-Serif" font-size="10.00">open62541/types.h</text>
</a>
</g>
</g>
<!-- Node11&#45;&gt;Node15 -->
<g id="edge16_Node000011_Node000015" class="edge">
<title>Node11&#45;&gt;Node15</title>
<g id="a_edge16_Node000011_Node000015"><a xlink:title=" ">
<path fill="none" stroke="#63b8ff" d="M406.22,-175.99C384.38,-166.49 357.33,-154.02 338.39,-144.69"/>
<polygon fill="#63b8ff" stroke="#63b8ff" points="339.81,-141.49 329.3,-140.14 336.67,-147.75 339.81,-141.49"/>
</a>
</g>
</g>
<!-- Node18 -->
<g id="Node000018" class="node">
<title>Node18</title>
<g id="a_Node000018"><a xlink:href="pop__options_8h.html" target="_top" xlink:title=" ">
<polygon fill="white" stroke="#666666" points="468,-30 323,-30 323,0 468,0 468,-30"/>
<text text-anchor="start" x="331" y="-18" font-family="Helvetica,sans-Serif" font-size="10.00">open62541pp/detail</text>
<text text-anchor="middle" x="395.5" y="-7" font-family="Helvetica,sans-Serif" font-size="10.00">/open62541/pop_options.h</text>
</a>
</g>
</g>
<!-- Node11&#45;&gt;Node18 -->
<g id="edge27_Node000011_Node000018" class="edge">
<title>Node11&#45;&gt;Node18</title>
<g id="a_edge27_Node000011_Node000018"><a xlink:title=" ">
<path fill="none" stroke="#63b8ff" d="M433.9,-175.6C428.44,-165.86 421.65,-152.53 417.5,-140 406.37,-106.37 400.52,-65.64 397.72,-40.27"/>
<polygon fill="#63b8ff" stroke="#63b8ff" points="401.18,-39.67 396.67,-30.08 394.21,-40.39 401.18,-39.67"/>
</a>
</g>
</g>
<!-- Node19 -->
<g id="Node000019" class="node">
<title>Node19</title>
<g id="a_Node000019"><a target="_blank" xlink:href="open62541/types__generated_8h.html" xlink:title=" ">
<polygon fill="white" stroke="#666666" points="889.5,-140 725.5,-140 725.5,-121 889.5,-121 889.5,-140"/>
<text text-anchor="middle" x="807.5" y="-128" font-family="Helvetica,sans-Serif" font-size="10.00">open62541/types_generated.h</text>
</a>
</g>
</g>
<!-- Node11&#45;&gt;Node19 -->
<g id="edge22_Node000011_Node000019" class="edge">
<title>Node11&#45;&gt;Node19</title>
<g id="a_edge22_Node000011_Node000019"><a xlink:title=" ">
<path fill="none" stroke="#63b8ff" d="M506.91,-179.68C573.88,-168.94 678.02,-152.25 744.46,-141.6"/>
<polygon fill="#63b8ff" stroke="#63b8ff" points="745.07,-145.05 754.39,-140.01 743.96,-138.14 745.07,-145.05"/>
</a>
</g>
</g>
<!-- Node20 -->
<g id="Node000020" class="node">
<title>Node20</title>
<g id="a_Node000020"><a target="_blank" xlink:href="open62541/util_8h.html" xlink:title=" ">
<polygon fill="white" stroke="#666666" points="1005.5,-140 907.5,-140 907.5,-121 1005.5,-121 1005.5,-140"/>
<text text-anchor="middle" x="956.5" y="-128" font-family="Helvetica,sans-Serif" font-size="10.00">open62541/util.h</text>
</a>
</g>
</g>
<!-- Node11&#45;&gt;Node20 -->
<g id="edge23_Node000011_Node000020" class="edge">
<title>Node11&#45;&gt;Node20</title>
<g id="a_edge23_Node000011_Node000020"><a xlink:title=" ">
<path fill="none" stroke="#63b8ff" d="M506.78,-183.69C593.16,-175.06 751.75,-158.61 897.45,-140.09"/>
<polygon fill="#63b8ff" stroke="#63b8ff" points="897.99,-143.55 907.47,-138.81 897.11,-136.61 897.99,-143.55"/>
</a>
</g>
</g>
<!-- Node21 -->
<g id="Node000021" class="node">
<title>Node21</title>
<g id="a_Node000021"><a target="_blank" xlink:href="open62541/accesscontrol_8h.html" xlink:title=" ">
<polygon fill="white" stroke="#666666" points="1205.5,-140 1023.5,-140 1023.5,-121 1205.5,-121 1205.5,-140"/>
<text text-anchor="middle" x="1114.5" y="-128" font-family="Helvetica,sans-Serif" font-size="10.00">open62541/plugin/accesscontrol.h</text>
</a>
</g>
</g>
<!-- Node11&#45;&gt;Node21 -->
<g id="edge24_Node000011_Node000021" class="edge">
<title>Node11&#45;&gt;Node21</title>
<g id="a_edge24_Node000011_Node000021"><a xlink:title=" ">
<path fill="none" stroke="#63b8ff" d="M506.63,-184.42C623.69,-174.23 872.83,-152.54 1013.09,-140.33"/>
<polygon fill="#63b8ff" stroke="#63b8ff" points="1013.75,-143.78 1023.41,-139.43 1013.15,-136.81 1013.75,-143.78"/>
</a>
</g>
</g>
<!-- Node22 -->
<g id="Node000022" class="node">
<title>Node22</title>
<g id="a_Node000022"><a target="_blank" xlink:href="open62541/log_8h.html" xlink:title=" ">
<polygon fill="white" stroke="#666666" points="242,-140 111,-140 111,-121 242,-121 242,-140"/>
<text text-anchor="middle" x="176.5" y="-128" font-family="Helvetica,sans-Serif" font-size="10.00">open62541/plugin/log.h</text>
</a>
</g>
</g>
<!-- Node11&#45;&gt;Node22 -->
<g id="edge25_Node000011_Node000022" class="edge">
<title>Node11&#45;&gt;Node22</title>
<g id="a_edge25_Node000011_Node000022"><a xlink:title=" ">
<path fill="none" stroke="#63b8ff" d="M378.79,-175.99C331.69,-165.63 268.51,-151.73 225.36,-142.25"/>
<polygon fill="#63b8ff" stroke="#63b8ff" points="225.91,-138.78 215.39,-140.05 224.41,-145.62 225.91,-138.78"/>
</a>
</g>
</g>
<!-- Node15&#45;&gt;Node11 -->
<g id="edge21_Node000015_Node000011" class="edge">
<title>Node15&#45;&gt;Node11</title>
<g id="a_edge21_Node000015_Node000011"><a xlink:title=" ">
<path fill="none" stroke="#63b8ff" d="M339.21,-140.14C358.83,-148.36 386.72,-161 408.65,-171.49"/>
<polygon fill="#63b8ff" stroke="#63b8ff" points="407.41,-174.78 417.94,-175.99 410.46,-168.48 407.41,-174.78"/>
</a>
</g>
</g>
<!-- Node16 -->
<g id="Node000016" class="node">
<title>Node16</title>
<g id="a_Node000016"><a xlink:href="config_8h.html" target="_top" xlink:title=" ">
<polygon fill="white" stroke="#666666" points="302.5,-85 190.5,-85 190.5,-66 302.5,-66 302.5,-85"/>
<text text-anchor="middle" x="246.5" y="-73" font-family="Helvetica,sans-Serif" font-size="10.00">open62541/config.h</text>
</a>
</g>
</g>
<!-- Node15&#45;&gt;Node16 -->
<g id="edge17_Node000015_Node000016" class="edge">
<title>Node15&#45;&gt;Node16</title>
<g id="a_edge17_Node000015_Node000016"><a xlink:title=" ">
<path fill="none" stroke="#63b8ff" d="M304.41,-120.98C294.01,-113 278.24,-100.88 265.78,-91.31"/>
<polygon fill="#63b8ff" stroke="#63b8ff" points="267.85,-88.49 257.79,-85.17 263.59,-94.04 267.85,-88.49"/>
</a>
</g>
</g>
<!-- Node16&#45;&gt;Node12 -->
<g id="edge18_Node000016_Node000012" class="edge">
<title>Node16&#45;&gt;Node12</title>
<g id="a_edge18_Node000016_Node000012"><a xlink:title=" ">
<path fill="none" stroke="#63b8ff" d="M224.11,-65.99C201.94,-57.57 167.35,-44.43 139.19,-33.73"/>
<polygon fill="#63b8ff" stroke="#63b8ff" points="140.11,-30.34 129.52,-30.06 137.63,-36.89 140.11,-30.34"/>
</a>
</g>
</g>
<!-- Node17 -->
<g id="Node000017" class="node">
<title>Node17</title>
<g id="a_Node000017"><a xlink:title=" ">
<polygon fill="#e0e0e0" stroke="#999999" points="302.5,-24.5 190.5,-24.5 190.5,-5.5 302.5,-5.5 302.5,-24.5"/>
<text text-anchor="middle" x="246.5" y="-12.5" font-family="Helvetica,sans-Serif" font-size="10.00">open62541/config.h</text>
</a>
</g>
</g>
<!-- Node16&#45;&gt;Node17 -->
<g id="edge19_Node000016_Node000017" class="edge">
<title>Node16&#45;&gt;Node17</title>
<g id="a_edge19_Node000016_Node000017"><a xlink:title=" ">
<path fill="none" stroke="#63b8ff" d="M246.5,-65.87C246.5,-57.75 246.5,-45.31 246.5,-34.89"/>
<polygon fill="#63b8ff" stroke="#63b8ff" points="250,-34.67 246.5,-24.67 243,-34.67 250,-34.67"/>
</a>
</g>
</g>
<!-- Node16&#45;&gt;Node18 -->
<g id="edge20_Node000016_Node000018" class="edge">
<title>Node16&#45;&gt;Node18</title>
<g id="a_edge20_Node000016_Node000018"><a xlink:title=" ">
<path fill="none" stroke="#63b8ff" d="M268.17,-65.99C289.61,-57.57 323.08,-44.43 350.33,-33.73"/>
<polygon fill="#63b8ff" stroke="#63b8ff" points="351.65,-36.98 359.68,-30.06 349.09,-30.46 351.65,-36.98"/>
</a>
</g>
</g>
<!-- Node22&#45;&gt;Node16 -->
<g id="edge26_Node000022_Node000016" class="edge">
<title>Node22&#45;&gt;Node16</title>
<g id="a_edge26_Node000022_Node000016"><a xlink:title=" ">
<path fill="none" stroke="#63b8ff" d="M187.75,-120.98C198.3,-113 214.3,-100.88 226.94,-91.31"/>
<polygon fill="#63b8ff" stroke="#63b8ff" points="229.19,-94 235.05,-85.17 224.96,-88.42 229.19,-94"/>
</a>
</g>
</g>
<!-- Node23&#45;&gt;Node7 -->
<g id="edge35_Node000023_Node000007" class="edge">
<title>Node23&#45;&gt;Node7</title>
<g id="a_edge35_Node000023_Node000007"><a xlink:title=" ">
<path fill="none" stroke="#63b8ff" d="M752.52,-446.27C824.15,-442.42 932.5,-432.02 1022.5,-404 1073.11,-388.24 1126.98,-356.63 1155.99,-338.21"/>
<polygon fill="#63b8ff" stroke="#63b8ff" points="1157.99,-341.09 1164.5,-332.73 1154.2,-335.2 1157.99,-341.09"/>
</a>
</g>
</g>
<!-- Node23&#45;&gt;Node8 -->
<g id="edge42_Node000023_Node000008" class="edge">
<title>Node23&#45;&gt;Node8</title>
<g id="a_edge42_Node000023_Node000008"><a xlink:title=" ">
<path fill="none" stroke="#63b8ff" d="M596.24,-446.59C459.61,-442.57 188.83,-431.23 155.5,-404 117.04,-372.59 111.88,-308.62 111.85,-276.82"/>
<polygon fill="#63b8ff" stroke="#63b8ff" points="115.35,-276.74 112.02,-266.68 108.35,-276.62 115.35,-276.74"/>
</a>
</g>
</g>
<!-- Node23&#45;&gt;Node11 -->
<g id="edge62_Node000023_Node000011" class="edge">
<title>Node23&#45;&gt;Node11</title>
<g id="a_edge62_Node000023_Node000011"><a xlink:title=" ">
<path fill="none" stroke="#63b8ff" d="M596.44,-445.28C477.28,-439.68 260.87,-426.52 233.5,-404 199.85,-376.31 191.45,-345.59 213.5,-308 246.08,-252.45 314.85,-222.65 368.56,-207.23"/>
<polygon fill="#63b8ff" stroke="#63b8ff" points="369.7,-210.55 378.41,-204.52 367.84,-203.8 369.7,-210.55"/>
</a>
</g>
</g>
<!-- Node24 -->
<g id="Node000024" class="node">
<title>Node24</title>
<g id="a_Node000024"><a xlink:title=" ">
<polygon fill="#e0e0e0" stroke="#999999" points="1040.5,-266.5 976.5,-266.5 976.5,-247.5 1040.5,-247.5 1040.5,-266.5"/>
<text text-anchor="middle" x="1008.5" y="-254.5" font-family="Helvetica,sans-Serif" font-size="10.00">algorithm</text>
</a>
</g>
</g>
<!-- Node23&#45;&gt;Node24 -->
<g id="edge29_Node000023_Node000024" class="edge">
<title>Node23&#45;&gt;Node24</title>
<g id="a_edge29_Node000023_Node000024"><a xlink:title=" ">
<path fill="none" stroke="#63b8ff" d="M752.66,-444.7C824.24,-439.71 923.48,-428.5 953.5,-404 963.81,-395.58 990.72,-313.99 1002.66,-276.58"/>
<polygon fill="#63b8ff" stroke="#63b8ff" points="1006.04,-277.49 1005.72,-266.9 999.36,-275.38 1006.04,-277.49"/>
</a>
</g>
</g>
<!-- Node25 -->
<g id="Node000025" class="node">
<title>Node25</title>
<g id="a_Node000025"><a xlink:title=" ">
<polygon fill="#e0e0e0" stroke="#999999" points="813.5,-398.5 771.5,-398.5 771.5,-379.5 813.5,-379.5 813.5,-398.5"/>
<text text-anchor="middle" x="792.5" y="-386.5" font-family="Helvetica,sans-Serif" font-size="10.00">array</text>
</a>
</g>
</g>
<!-- Node23&#45;&gt;Node25 -->
<g id="edge30_Node000023_Node000025" class="edge">
<title>Node23&#45;&gt;Node25</title>
<g id="a_edge30_Node000023_Node000025"><a xlink:title=" ">
<path fill="none" stroke="#63b8ff" d="M691.66,-439.99C711.23,-430.29 743.47,-414.31 766.22,-403.03"/>
<polygon fill="#63b8ff" stroke="#63b8ff" points="767.92,-406.09 775.32,-398.52 764.81,-399.82 767.92,-406.09"/>
</a>
</g>
</g>
<!-- Node26 -->
<g id="Node000026" class="node">
<title>Node26</title>
<g id="a_Node000026"><a xlink:title=" ">
<polygon fill="#e0e0e0" stroke="#999999" points="520.5,-266.5 470.5,-266.5 470.5,-247.5 520.5,-247.5 520.5,-266.5"/>
<text text-anchor="middle" x="495.5" y="-254.5" font-family="Helvetica,sans-Serif" font-size="10.00">cstdint</text>
</a>
</g>
</g>
<!-- Node23&#45;&gt;Node26 -->
<g id="edge31_Node000023_Node000026" class="edge">
<title>Node23&#45;&gt;Node26</title>
<g id="a_edge31_Node000023_Node000026"><a xlink:title=" ">
<path fill="none" stroke="#63b8ff" d="M648.24,-439.87C627.4,-432.29 598.12,-419.99 575.5,-404 542.39,-380.59 531.43,-373.86 512.5,-338 502.37,-318.82 498.28,-294.05 496.62,-277.18"/>
<polygon fill="#63b8ff" stroke="#63b8ff" points="500.09,-276.64 495.82,-266.94 493.11,-277.18 500.09,-276.64"/>
</a>
</g>
</g>
<!-- Node27 -->
<g id="Node000027" class="node">
<title>Node27</title>
<g id="a_Node000027"><a xlink:title=" ">
<polygon fill="#e0e0e0" stroke="#999999" points="879.5,-398.5 831.5,-398.5 831.5,-379.5 879.5,-379.5 879.5,-398.5"/>
<text text-anchor="middle" x="855.5" y="-386.5" font-family="Helvetica,sans-Serif" font-size="10.00">iosfwd</text>
</a>
</g>
</g>
<!-- Node23&#45;&gt;Node27 -->
<g id="edge32_Node000023_Node000027" class="edge">
<title>Node23&#45;&gt;Node27</title>
<g id="a_edge32_Node000023_Node000027"><a xlink:title=" ">
<path fill="none" stroke="#63b8ff" d="M706.59,-439.94C736.79,-431.63 783.13,-418.22 822.5,-404 823.93,-403.48 825.38,-402.94 826.84,-402.38"/>
<polygon fill="#63b8ff" stroke="#63b8ff" points="828.48,-405.49 836.45,-398.5 825.86,-399 828.48,-405.49"/>
</a>
</g>
</g>
<!-- Node28 -->
<g id="Node000028" class="node">
<title>Node28</title>
<g id="a_Node000028"><a xlink:title=" ">
<polygon fill="#e0e0e0" stroke="#999999" points="279.5,-332.5 235.5,-332.5 235.5,-313.5 279.5,-313.5 279.5,-332.5"/>
<text text-anchor="middle" x="257.5" y="-320.5" font-family="Helvetica,sans-Serif" font-size="10.00">string</text>
</a>
</g>
</g>
<!-- Node23&#45;&gt;Node28 -->
<g id="edge33_Node000023_Node000028" class="edge">
<title>Node23&#45;&gt;Node28</title>
<g id="a_edge33_Node000023_Node000028"><a xlink:title=" ">
<path fill="none" stroke="#63b8ff" d="M596.44,-446.22C504.87,-442.3 359.7,-431.78 313.5,-404 289.59,-389.63 273.29,-360.68 264.68,-341.84"/>
<polygon fill="#63b8ff" stroke="#63b8ff" points="267.86,-340.37 260.7,-332.56 261.43,-343.13 267.86,-340.37"/>
</a>
</g>
</g>
<!-- Node29 -->
<g id="Node000029" class="node">
<title>Node29</title>
<g id="a_Node000029"><a xlink:title=" ">
<polygon fill="#e0e0e0" stroke="#999999" points="414,-266.5 341,-266.5 341,-247.5 414,-247.5 414,-266.5"/>
<text text-anchor="middle" x="377.5" y="-254.5" font-family="Helvetica,sans-Serif" font-size="10.00">string_view</text>
</a>
</g>
</g>
<!-- Node23&#45;&gt;Node29 -->
<g id="edge34_Node000023_Node000029" class="edge">
<title>Node23&#45;&gt;Node29</title>
<g id="a_edge34_Node000023_Node000029"><a xlink:title=" ">
<path fill="none" stroke="#63b8ff" d="M596.35,-446.68C497.09,-443.19 332.32,-433.08 279.5,-404 236.8,-380.5 197.96,-347.51 226.5,-308 250.12,-275.3 295.95,-263.64 330.95,-259.65"/>
<polygon fill="#63b8ff" stroke="#63b8ff" points="331.35,-263.13 340.97,-258.68 330.68,-256.16 331.35,-263.13"/>
</a>
</g>
</g>
<!-- Node30 -->
<g id="Node000030" class="node">
<title>Node30</title>
<g id="a_Node000030"><a xlink:title=" ">
<polygon fill="#e0e0e0" stroke="#999999" points="945,-398.5 898,-398.5 898,-379.5 945,-379.5 945,-398.5"/>
<text text-anchor="middle" x="921.5" y="-386.5" font-family="Helvetica,sans-Serif" font-size="10.00">vector</text>
</a>
</g>
</g>
<!-- Node23&#45;&gt;Node30 -->
<g id="edge36_Node000023_Node000030" class="edge">
<title>Node23&#45;&gt;Node30</title>
<g id="a_edge36_Node000023_Node000030"><a xlink:title=" ">
<path fill="none" stroke="#63b8ff" d="M730.24,-440C773.88,-432.6 835.8,-420.48 888.5,-404 890.13,-403.49 891.8,-402.93 893.46,-402.33"/>
<polygon fill="#63b8ff" stroke="#63b8ff" points="894.85,-405.54 902.89,-398.65 892.3,-399.03 894.85,-405.54"/>
</a>
</g>
</g>
<!-- Node31 -->
<g id="Node000031" class="node">
<title>Node31</title>
<g id="a_Node000031"><a xlink:href="Common_8h.html" target="_top" xlink:title=" ">
<polygon fill="white" stroke="#666666" points="661,-332.5 522,-332.5 522,-313.5 661,-313.5 661,-332.5"/>
<text text-anchor="middle" x="591.5" y="-320.5" font-family="Helvetica,sans-Serif" font-size="10.00">open62541pp/Common.h</text>
</a>
</g>
</g>
<!-- Node23&#45;&gt;Node31 -->
<g id="edge37_Node000023_Node000031" class="edge">
<title>Node23&#45;&gt;Node31</title>
<g id="a_edge37_Node000023_Node000031"><a xlink:title=" ">
<path fill="none" stroke="#63b8ff" d="M638.21,-439.94C619.29,-433.44 597.8,-422.38 586.5,-404 575.14,-385.52 579.47,-359.89 584.59,-342.67"/>
<polygon fill="#63b8ff" stroke="#63b8ff" points="588.06,-343.31 587.91,-332.72 581.42,-341.09 588.06,-343.31"/>
</a>
</g>
</g>
<!-- Node33 -->
<g id="Node000033" class="node">
<title>Node33</title>
<g id="a_Node000033"><a xlink:href="TypeWrapper_8h.html" target="_top" xlink:title=" ">
<polygon fill="white" stroke="#666666" points="753.5,-398.5 595.5,-398.5 595.5,-379.5 753.5,-379.5 753.5,-398.5"/>
<text text-anchor="middle" x="674.5" y="-386.5" font-family="Helvetica,sans-Serif" font-size="10.00">open62541pp/TypeWrapper.h</text>
</a>
</g>
</g>
<!-- Node23&#45;&gt;Node33 -->
<g id="edge43_Node000023_Node000033" class="edge">
<title>Node23&#45;&gt;Node33</title>
<g id="a_edge43_Node000023_Node000033"><a xlink:title=" ">
<path fill="none" stroke="#63b8ff" d="M674.5,-439.87C674.5,-431.75 674.5,-419.31 674.5,-408.89"/>
<polygon fill="#63b8ff" stroke="#63b8ff" points="678,-408.67 674.5,-398.67 671,-408.67 678,-408.67"/>
</a>
</g>
</g>
<!-- Node34 -->
<g id="Node000034" class="node">
<title>Node34</title>
<g id="a_Node000034"><a xlink:href="Wrapper_8h.html" target="_top" xlink:title=" ">
<polygon fill="white" stroke="#666666" points="1137,-332.5 1002,-332.5 1002,-313.5 1137,-313.5 1137,-332.5"/>
<text text-anchor="middle" x="1069.5" y="-320.5" font-family="Helvetica,sans-Serif" font-size="10.00">open62541pp/Wrapper.h</text>
</a>
</g>
</g>
<!-- Node23&#45;&gt;Node34 -->
<g id="edge61_Node000023_Node000034" class="edge">
<title>Node23&#45;&gt;Node34</title>
<g id="a_edge61_Node000023_Node000034"><a xlink:title=" ">
<path fill="none" stroke="#63b8ff" d="M752.52,-442.97C831.44,-436.39 947.36,-423.74 987.5,-404 1017.41,-389.29 1043.3,-359.56 1057.61,-340.77"/>
<polygon fill="#63b8ff" stroke="#63b8ff" points="1060.56,-342.67 1063.68,-332.55 1054.93,-338.52 1060.56,-342.67"/>
</a>
</g>
</g>
<!-- Node38 -->
<g id="Node000038" class="node">
<title>Node38</title>
<g id="a_Node000038"><a xlink:href="string__utils_8h.html" target="_top" xlink:title=" ">
<polygon fill="white" stroke="#666666" points="436,-404 323,-404 323,-374 436,-374 436,-404"/>
<text text-anchor="start" x="331" y="-392" font-family="Helvetica,sans-Serif" font-size="10.00">open62541pp/detail</text>
<text text-anchor="middle" x="379.5" y="-381" font-family="Helvetica,sans-Serif" font-size="10.00">/string_utils.h</text>
</a>
</g>
</g>
<!-- Node23&#45;&gt;Node38 -->
<g id="edge63_Node000023_Node000038" class="edge">
<title>Node23&#45;&gt;Node38</title>
<g id="a_edge63_Node000023_Node000038"><a xlink:title=" ">
<path fill="none" stroke="#63b8ff" d="M631.6,-439.99C582.91,-430.34 502.89,-414.47 446.07,-403.2"/>
<polygon fill="#63b8ff" stroke="#63b8ff" points="446.59,-399.74 436.1,-401.22 445.22,-406.6 446.59,-399.74"/>
</a>
</g>
</g>
<!-- Node31&#45;&gt;Node26 -->
<g id="edge38_Node000031_Node000026" class="edge">
<title>Node31&#45;&gt;Node26</title>
<g id="a_edge38_Node000031_Node000026"><a xlink:title=" ">
<path fill="none" stroke="#63b8ff" d="M578.55,-313.37C562.81,-302.87 536,-285 517.1,-272.4"/>
<polygon fill="#63b8ff" stroke="#63b8ff" points="518.81,-269.33 508.55,-266.7 514.93,-275.16 518.81,-269.33"/>
</a>
</g>
</g>
<!-- Node31&#45;&gt;Node29 -->
<g id="edge39_Node000031_Node000029" class="edge">
<title>Node31&#45;&gt;Node29</title>
<g id="a_edge39_Node000031_Node000029"><a xlink:title=" ">
<path fill="none" stroke="#63b8ff" d="M562.64,-313.37C524.72,-302.03 458.02,-282.08 415.88,-269.48"/>
<polygon fill="#63b8ff" stroke="#63b8ff" points="416.83,-266.11 406.24,-266.6 414.82,-272.82 416.83,-266.11"/>
</a>
</g>
</g>
<!-- Node32 -->
<g id="Node000032" class="node">
<title>Node32</title>
<g id="a_Node000032"><a xlink:href="Bitmask_8h.html" target="_top" xlink:title=" ">
<polygon fill="white" stroke="#666666" points="674,-266.5 539,-266.5 539,-247.5 674,-247.5 674,-266.5"/>
<text text-anchor="middle" x="606.5" y="-254.5" font-family="Helvetica,sans-Serif" font-size="10.00">open62541pp/Bitmask.h</text>
</a>
</g>
</g>
<!-- Node31&#45;&gt;Node32 -->
<g id="edge40_Node000031_Node000032" class="edge">
<title>Node31&#45;&gt;Node32</title>
<g id="a_edge40_Node000031_Node000032"><a xlink:title=" ">
<path fill="none" stroke="#63b8ff" d="M593.52,-313.37C595.7,-304.07 599.24,-288.98 602.07,-276.9"/>
<polygon fill="#63b8ff" stroke="#63b8ff" points="605.54,-277.44 604.41,-266.91 598.72,-275.84 605.54,-277.44"/>
</a>
</g>
</g>
<!-- Node32&#45;&gt;Node3 -->
<g id="edge41_Node000032_Node000003" class="edge">
<title>Node32&#45;&gt;Node3</title>
<g id="a_edge41_Node000032_Node000003"><a xlink:title=" ">
<path fill="none" stroke="#63b8ff" d="M674.06,-248.15C788.3,-234.88 1016.56,-208.37 1112.93,-197.18"/>
<polygon fill="#63b8ff" stroke="#63b8ff" points="1113.4,-200.65 1122.93,-196.02 1112.59,-193.69 1113.4,-200.65"/>
</a>
</g>
</g>
<!-- Node33&#45;&gt;Node3 -->
<g id="edge46_Node000033_Node000003" class="edge">
<title>Node33&#45;&gt;Node3</title>
<g id="a_edge46_Node000033_Node000003"><a xlink:title=" ">
<path fill="none" stroke="#63b8ff" d="M726.83,-379.49C775.64,-370.98 850.23,-356.51 913.5,-338 949.55,-327.46 956.84,-319.8 992.5,-308 1048.2,-289.57 1074.7,-309.88 1119.5,-272 1138.26,-256.14 1148.4,-228.92 1153.38,-210.7"/>
<polygon fill="#63b8ff" stroke="#63b8ff" points="1156.79,-211.47 1155.79,-200.93 1150,-209.8 1156.79,-211.47"/>
</a>
</g>
</g>
<!-- Node33&#45;&gt;Node5 -->
<g id="edge44_Node000033_Node000005" class="edge">
<title>Node33&#45;&gt;Node5</title>
<g id="a_edge44_Node000033_Node000005"><a xlink:title=" ">
<path fill="none" stroke="#63b8ff" d="M732.3,-379.43C773.93,-371.92 830.77,-358.87 877.5,-338 899.11,-328.35 900.05,-318 921.5,-308 975.06,-283.03 993.54,-291 1049.5,-272 1051.16,-271.44 1052.86,-270.84 1054.57,-270.21"/>
<polygon fill="#63b8ff" stroke="#63b8ff" points="1056.18,-273.35 1064.28,-266.51 1053.69,-266.8 1056.18,-273.35"/>
</a>
</g>
</g>
<!-- Node33&#45;&gt;Node7 -->
<g id="edge47_Node000033_Node000007" class="edge">
<title>Node33&#45;&gt;Node7</title>
<g id="a_edge47_Node000033_Node000007"><a xlink:title=" ">
<path fill="none" stroke="#63b8ff" d="M724.68,-379.45C737.02,-377.5 750.22,-375.55 762.5,-374 932.56,-352.52 980.8,-381.87 1146.5,-338 1148.19,-337.55 1149.9,-337.02 1151.61,-336.43"/>
<polygon fill="#63b8ff" stroke="#63b8ff" points="1153.17,-339.58 1161.14,-332.6 1150.56,-333.08 1153.17,-339.58"/>
</a>
</g>
</g>
<!-- Node33&#45;&gt;Node8 -->
<g id="edge49_Node000033_Node000008" class="edge">
<title>Node33&#45;&gt;Node8</title>
<g id="a_edge49_Node000033_Node000008"><a xlink:title=" ">
<path fill="none" stroke="#63b8ff" d="M642.88,-379.42C586.26,-364.19 463.75,-331.77 359.5,-308 294.05,-293.07 218.33,-278.08 168.16,-268.46"/>
<polygon fill="#63b8ff" stroke="#63b8ff" points="168.65,-264.99 158.17,-266.55 167.33,-271.86 168.65,-264.99"/>
</a>
</g>
</g>
<!-- Node33&#45;&gt;Node11 -->
<g id="edge52_Node000033_Node000011" class="edge">
<title>Node33&#45;&gt;Node11</title>
<g id="a_edge52_Node000033_Node000011"><a xlink:title=" ">
<path fill="none" stroke="#63b8ff" d="M678.65,-379.38C689.97,-354.45 718.27,-281.53 682.5,-242 660.62,-217.82 578.96,-204.68 516.91,-198.02"/>
<polygon fill="#63b8ff" stroke="#63b8ff" points="517.05,-194.51 506.75,-196.96 516.33,-201.47 517.05,-194.51"/>
</a>
</g>
</g>
<!-- Node33&#45;&gt;Node26 -->
<g id="edge45_Node000033_Node000026" class="edge">
<title>Node33&#45;&gt;Node26</title>
<g id="a_edge45_Node000033_Node000026"><a xlink:title=" ">
<path fill="none" stroke="#63b8ff" d="M676.91,-379.36C680.82,-363.3 686.52,-328.59 669.5,-308 628.57,-258.48 590.46,-292.28 529.5,-272 527.88,-271.46 526.22,-270.88 524.55,-270.27"/>
<polygon fill="#63b8ff" stroke="#63b8ff" points="525.69,-266.96 515.1,-266.61 523.16,-273.49 525.69,-266.96"/>
</a>
</g>
</g>
<!-- Node33&#45;&gt;Node31 -->
<g id="edge48_Node000033_Node000031" class="edge">
<title>Node33&#45;&gt;Node31</title>
<g id="a_edge48_Node000033_Node000031"><a xlink:title=" ">
<path fill="none" stroke="#63b8ff" d="M663.31,-379.37C649.94,-369.06 627.35,-351.65 611.08,-339.09"/>
<polygon fill="#63b8ff" stroke="#63b8ff" points="612.84,-336.03 602.78,-332.7 608.56,-341.58 612.84,-336.03"/>
</a>
</g>
</g>
<!-- Node33&#45;&gt;Node34 -->
<g id="edge50_Node000033_Node000034" class="edge">
<title>Node33&#45;&gt;Node34</title>
<g id="a_edge50_Node000033_Node000034"><a xlink:title=" ">
<path fill="none" stroke="#63b8ff" d="M727.36,-379.44C799.79,-367.7 929.67,-346.66 1006.88,-334.15"/>
<polygon fill="#63b8ff" stroke="#63b8ff" points="1007.64,-337.57 1016.95,-332.51 1006.52,-330.66 1007.64,-337.57"/>
</a>
</g>
</g>
<!-- Node35 -->
<g id="Node000035" class="node">
<title>Node35</title>
<g id="a_Node000035"><a xlink:href="types__handling_8h.html" target="_top" xlink:title=" ">
<polygon fill="white" stroke="#666666" points="869,-338 756,-338 756,-308 869,-308 869,-338"/>
<text text-anchor="start" x="764" y="-326" font-family="Helvetica,sans-Serif" font-size="10.00">open62541pp/detail</text>
<text text-anchor="middle" x="812.5" y="-315" font-family="Helvetica,sans-Serif" font-size="10.00">/types_handling.h</text>
</a>
</g>
</g>
<!-- Node33&#45;&gt;Node35 -->
<g id="edge53_Node000033_Node000035" class="edge">
<title>Node33&#45;&gt;Node35</title>
<g id="a_edge53_Node000033_Node000035"><a xlink:title=" ">
<path fill="none" stroke="#63b8ff" d="M693.11,-379.37C713.42,-369.95 746.55,-354.59 772.76,-342.43"/>
<polygon fill="#63b8ff" stroke="#63b8ff" points="774.46,-345.5 782.06,-338.12 771.52,-339.15 774.46,-345.5"/>
</a>
</g>
</g>
<!-- Node34&#45;&gt;Node3 -->
<g id="edge51_Node000034_Node000003" class="edge">
<title>Node34&#45;&gt;Node3</title>
<g id="a_edge51_Node000034_Node000003"><a xlink:title=" ">
<path fill="none" stroke="#63b8ff" d="M1096.44,-313.39C1115.58,-305.76 1140.02,-292.56 1152.5,-272 1163.75,-253.46 1163.16,-227.84 1160.97,-210.64"/>
<polygon fill="#63b8ff" stroke="#63b8ff" points="1164.42,-210.04 1159.41,-200.7 1157.5,-211.13 1164.42,-210.04"/>
</a>
</g>
</g>
<!-- Node35&#45;&gt;Node5 -->
<g id="edge55_Node000035_Node000005" class="edge">
<title>Node35&#45;&gt;Node5</title>
<g id="a_edge55_Node000035_Node000005"><a xlink:title=" ">
<path fill="none" stroke="#63b8ff" d="M869.26,-310.56C933.79,-297.47 1032.42,-277.18 1049.5,-272 1051.38,-271.43 1053.3,-270.8 1055.22,-270.14"/>
<polygon fill="#63b8ff" stroke="#63b8ff" points="1056.57,-273.37 1064.72,-266.6 1054.13,-266.81 1056.57,-273.37"/>
</a>
</g>
</g>
<!-- Node35&#45;&gt;Node8 -->
<g id="edge57_Node000035_Node000008" class="edge">
<title>Node35&#45;&gt;Node8</title>
<g id="a_edge57_Node000035_Node000008"><a xlink:title=" ">
<path fill="none" stroke="#63b8ff" d="M755.79,-316.34C729.54,-313.75 697.94,-310.67 669.5,-308 505.22,-292.59 313.59,-275.6 203.32,-265.93"/>
<polygon fill="#63b8ff" stroke="#63b8ff" points="203.5,-262.43 193.23,-265.04 202.89,-269.4 203.5,-262.43"/>
</a>
</g>
</g>
<!-- Node35&#45;&gt;Node11 -->
<g id="edge58_Node000035_Node000011" class="edge">
<title>Node35&#45;&gt;Node11</title>
<g id="a_edge58_Node000035_Node000011"><a xlink:title=" ">
<path fill="none" stroke="#63b8ff" d="M797.56,-307.91C775.36,-287.27 734.38,-250.37 716.5,-242 653.08,-212.33 573.74,-200.22 516.78,-195.31"/>
<polygon fill="#63b8ff" stroke="#63b8ff" points="517.02,-191.82 506.77,-194.5 516.45,-198.8 517.02,-191.82"/>
</a>
</g>
</g>
<!-- Node35&#45;&gt;Node24 -->
<g id="edge54_Node000035_Node000024" class="edge">
<title>Node35&#45;&gt;Node24</title>
<g id="a_edge54_Node000035_Node000024"><a xlink:title=" ">
<path fill="none" stroke="#63b8ff" d="M856.66,-307.97C887.71,-298.06 930.2,-284.38 967.5,-272 969.73,-271.26 972.02,-270.49 974.33,-269.71"/>
<polygon fill="#63b8ff" stroke="#63b8ff" points="975.46,-273.03 983.81,-266.51 973.21,-266.4 975.46,-273.03"/>
</a>
</g>
</g>
<!-- Node36 -->
<g id="Node000036" class="node">
<title>Node36</title>
<g id="a_Node000036"><a xlink:title=" ">
<polygon fill="#e0e0e0" stroke="#999999" points="958.5,-266.5 900.5,-266.5 900.5,-247.5 958.5,-247.5 958.5,-266.5"/>
<text text-anchor="middle" x="929.5" y="-254.5" font-family="Helvetica,sans-Serif" font-size="10.00">memory</text>
</a>
</g>
</g>
<!-- Node35&#45;&gt;Node36 -->
<g id="edge56_Node000035_Node000036" class="edge">
<title>Node35&#45;&gt;Node36</title>
<g id="a_edge56_Node000035_Node000036"><a xlink:title=" ">
<path fill="none" stroke="#63b8ff" d="M838.18,-307.95C858.06,-297.08 885.43,-282.11 905.01,-271.4"/>
<polygon fill="#63b8ff" stroke="#63b8ff" points="906.84,-274.39 913.93,-266.52 903.48,-268.25 906.84,-274.39"/>
</a>
</g>
</g>
<!-- Node37 -->
<g id="Node000037" class="node">
<title>Node37</title>
<g id="a_Node000037"><a xlink:href="traits_8h.html" target="_top" xlink:title=" ">
<polygon fill="white" stroke="#666666" points="882,-272 769,-272 769,-242 882,-242 882,-272"/>
<text text-anchor="start" x="777" y="-260" font-family="Helvetica,sans-Serif" font-size="10.00">open62541pp/detail</text>
<text text-anchor="middle" x="825.5" y="-249" font-family="Helvetica,sans-Serif" font-size="10.00">/traits.h</text>
</a>
</g>
</g>
<!-- Node35&#45;&gt;Node37 -->
<g id="edge59_Node000035_Node000037" class="edge">
<title>Node35&#45;&gt;Node37</title>
<g id="a_edge59_Node000035_Node000037"><a xlink:title=" ">
<path fill="none" stroke="#63b8ff" d="M815.39,-307.8C816.92,-300.26 818.84,-290.78 820.6,-282.13"/>
<polygon fill="#63b8ff" stroke="#63b8ff" points="824.06,-282.66 822.62,-272.16 817.2,-281.27 824.06,-282.66"/>
</a>
</g>
</g>
<!-- Node37&#45;&gt;Node3 -->
<g id="edge60_Node000037_Node000003" class="edge">
<title>Node37&#45;&gt;Node3</title>
<g id="a_edge60_Node000037_Node000003"><a xlink:title=" ">
<path fill="none" stroke="#63b8ff" d="M882.01,-243.92C885.22,-243.27 888.4,-242.62 891.5,-242 969.04,-226.49 1059.58,-209.77 1112.52,-200.13"/>
<polygon fill="#63b8ff" stroke="#63b8ff" points="1113.38,-203.53 1122.59,-198.29 1112.13,-196.64 1113.38,-203.53"/>
</a>
</g>
</g>
<!-- Node38&#45;&gt;Node11 -->
<g id="edge67_Node000038_Node000011" class="edge">
<title>Node38&#45;&gt;Node11</title>
<g id="a_edge67_Node000038_Node000011"><a xlink:title=" ">
<path fill="none" stroke="#63b8ff" d="M385.31,-373.89C394.09,-352.22 410.95,-309.34 422.5,-272 428.24,-253.44 433.51,-232.08 437.2,-216.1"/>
<polygon fill="#63b8ff" stroke="#63b8ff" points="440.7,-216.53 439.49,-206 433.87,-214.98 440.7,-216.53"/>
</a>
</g>
</g>
<!-- Node38&#45;&gt;Node28 -->
<g id="edge65_Node000038_Node000028" class="edge">
<title>Node38&#45;&gt;Node28</title>
<g id="a_edge65_Node000038_Node000028"><a xlink:title=" ">
<path fill="none" stroke="#63b8ff" d="M352.73,-373.95C331.9,-363.03 303.19,-347.97 282.76,-337.25"/>
<polygon fill="#63b8ff" stroke="#63b8ff" points="284.22,-334.06 273.74,-332.52 280.97,-340.26 284.22,-334.06"/>
</a>
</g>
</g>
<!-- Node38&#45;&gt;Node29 -->
<g id="edge66_Node000038_Node000029" class="edge">
<title>Node38&#45;&gt;Node29</title>
<g id="a_edge66_Node000038_Node000029"><a xlink:title=" ">
<path fill="none" stroke="#63b8ff" d="M379.28,-373.84C378.92,-350.34 378.2,-303.26 377.79,-276.93"/>
<polygon fill="#63b8ff" stroke="#63b8ff" points="381.29,-276.69 377.63,-266.75 374.29,-276.8 381.29,-276.69"/>
</a>
</g>
</g>
<!-- Node39 -->
<g id="Node000039" class="node">
<title>Node39</title>
<g id="a_Node000039"><a xlink:title=" ">
<polygon fill="#e0e0e0" stroke="#999999" points="351,-332.5 298,-332.5 298,-313.5 351,-313.5 351,-332.5"/>
<text text-anchor="middle" x="324.5" y="-320.5" font-family="Helvetica,sans-Serif" font-size="10.00">cstdarg</text>
</a>
</g>
</g>
<!-- Node38&#45;&gt;Node39 -->
<g id="edge64_Node000038_Node000039" class="edge">
<title>Node38&#45;&gt;Node39</title>
<g id="a_edge64_Node000038_Node000039"><a xlink:title=" ">
<path fill="none" stroke="#63b8ff" d="M367.29,-373.8C358.89,-364.01 347.69,-350.98 338.85,-340.7"/>
<polygon fill="#63b8ff" stroke="#63b8ff" points="341.27,-338.15 332.1,-332.84 335.96,-342.71 341.27,-338.15"/>
</a>
</g>
</g>
</g>
</svg>
