<?xml version="1.0" encoding="UTF-8" standalone="no"?>
<!DOCTYPE svg PUBLIC "-//W3C//DTD SVG 1.1//EN"
 "http://www.w3.org/Graphics/SVG/1.1/DTD/svg11.dtd">
<!-- Generated by graphviz version 2.43.0 (0)
 -->
<!-- Title: /home/runner/work/open62541pp/open62541pp/include/open62541pp/services/services.h Pages: 1 -->
<svg width="1831pt" height="632pt"
 viewBox="0.00 0.00 1830.50 632.00" xmlns="http://www.w3.org/2000/svg" xmlns:xlink="http://www.w3.org/1999/xlink">
<g id="graph0" class="graph" transform="scale(1 1) rotate(0) translate(4 628)">
<title>/home/runner/work/open62541pp/open62541pp/include/open62541pp/services/services.h</title>
<!-- Node1 -->
<g id="node1" class="node">
<title>Node1</title>
<g id="a_node1"><a xlink:title=" ">
<polygon fill="#bfbfbf" stroke="black" points="1467,-582.5 1467,-623.5 1660,-623.5 1660,-582.5 1467,-582.5"/>
<text text-anchor="start" x="1475" y="-611.5" font-family="Helvetica,sans-Serif" font-size="10.00">/home/runner/work/open62541pp</text>
<text text-anchor="start" x="1475" y="-600.5" font-family="Helvetica,sans-Serif" font-size="10.00">/open62541pp/include/open62541pp</text>
<text text-anchor="middle" x="1563.5" y="-589.5" font-family="Helvetica,sans-Serif" font-size="10.00">/services/services.h</text>
</a>
</g>
</g>
<!-- Node2 -->
<g id="node2" class="node">
<title>Node2</title>
<g id="a_node2"><a xlink:href="Attribute_8h.html" target="_top" xlink:title=" ">
<polygon fill="none" stroke="black" points="1332.5,-515.5 1332.5,-545.5 1458.5,-545.5 1458.5,-515.5 1332.5,-515.5"/>
<text text-anchor="start" x="1340.5" y="-533.5" font-family="Helvetica,sans-Serif" font-size="10.00">open62541pp/services</text>
<text text-anchor="middle" x="1395.5" y="-522.5" font-family="Helvetica,sans-Serif" font-size="10.00">/Attribute.h</text>
</a>
</g>
</g>
<!-- Node1&#45;&gt;Node2 -->
<g id="edge1" class="edge">
<title>Node1&#45;&gt;Node2</title>
<path fill="none" stroke="midnightblue" d="M1516.7,-582.36C1492.21,-572.08 1462.43,-559.59 1438.52,-549.55"/>
<polygon fill="midnightblue" stroke="midnightblue" points="1439.58,-546.2 1429,-545.56 1436.87,-552.66 1439.58,-546.2"/>
</g>
<!-- Node34 -->
<g id="node34" class="node">
<title>Node34</title>
<g id="a_node34"><a xlink:href="NodeManagement_8h.html" target="_top" xlink:title=" ">
<polygon fill="none" stroke="black" points="1668.5,-392.5 1668.5,-422.5 1794.5,-422.5 1794.5,-392.5 1668.5,-392.5"/>
<text text-anchor="start" x="1676.5" y="-410.5" font-family="Helvetica,sans-Serif" font-size="10.00">open62541pp/services</text>
<text text-anchor="middle" x="1731.5" y="-399.5" font-family="Helvetica,sans-Serif" font-size="10.00">/NodeManagement.h</text>
</a>
</g>
</g>
<!-- Node1&#45;&gt;Node34 -->
<g id="edge85" class="edge">
<title>Node1&#45;&gt;Node34</title>
<path fill="none" stroke="midnightblue" d="M1580.53,-582.38C1612.1,-546.03 1679.46,-468.44 1712.47,-430.42"/>
<polygon fill="midnightblue" stroke="midnightblue" points="1715.43,-432.35 1719.34,-422.51 1710.14,-427.76 1715.43,-432.35"/>
</g>
<!-- Node3 -->
<g id="node3" class="node">
<title>Node3</title>
<g id="a_node3"><a xlink:title=" ">
<polygon fill="none" stroke="#bfbfbf" points="1031.5,-112.5 1031.5,-131.5 1075.5,-131.5 1075.5,-112.5 1031.5,-112.5"/>
<text text-anchor="middle" x="1053.5" y="-119.5" font-family="Helvetica,sans-Serif" font-size="10.00">string</text>
</a>
</g>
</g>
<!-- Node2&#45;&gt;Node3 -->
<g id="edge2" class="edge">
<title>Node2&#45;&gt;Node3</title>
<path fill="none" stroke="midnightblue" d="M1395.5,-515.34C1395.5,-492.75 1395.5,-447.15 1395.5,-408.5 1395.5,-408.5 1395.5,-408.5 1395.5,-345 1395.5,-223.43 1280.29,-242.26 1171.5,-188 1138.2,-171.39 1100.72,-150.33 1077.12,-136.75"/>
<polygon fill="midnightblue" stroke="midnightblue" points="1078.61,-133.57 1068.2,-131.6 1075.1,-139.63 1078.61,-133.57"/>
</g>
<!-- Node4 -->
<g id="node4" class="node">
<title>Node4</title>
<g id="a_node4"><a xlink:title=" ">
<polygon fill="none" stroke="#bfbfbf" points="1604,-56.5 1604,-75.5 1677,-75.5 1677,-56.5 1604,-56.5"/>
<text text-anchor="middle" x="1640.5" y="-63.5" font-family="Helvetica,sans-Serif" font-size="10.00">string_view</text>
</a>
</g>
</g>
<!-- Node2&#45;&gt;Node4 -->
<g id="edge3" class="edge">
<title>Node2&#45;&gt;Node4</title>
<path fill="none" stroke="midnightblue" d="M1458.51,-524.8C1577.28,-514.19 1822.5,-483.24 1822.5,-408.5 1822.5,-408.5 1822.5,-408.5 1822.5,-177 1822.5,-113.87 1741.31,-86 1687.39,-74.45"/>
<polygon fill="midnightblue" stroke="midnightblue" points="1687.83,-70.97 1677.33,-72.42 1686.44,-77.83 1687.83,-70.97"/>
</g>
<!-- Node5 -->
<g id="node5" class="node">
<title>Node5</title>
<g id="a_node5"><a xlink:title=" ">
<polygon fill="none" stroke="#bfbfbf" points="0,-336.5 0,-355.5 47,-355.5 47,-336.5 0,-336.5"/>
<text text-anchor="middle" x="23.5" y="-343.5" font-family="Helvetica,sans-Serif" font-size="10.00">vector</text>
</a>
</g>
</g>
<!-- Node2&#45;&gt;Node5 -->
<g id="edge4" class="edge">
<title>Node2&#45;&gt;Node5</title>
<path fill="none" stroke="midnightblue" d="M1332.31,-528.74C1124.14,-525.92 461.21,-514.32 250.5,-479 164.1,-464.52 128.64,-479.28 61.5,-423 43.79,-408.15 33.52,-383.01 28.22,-365.74"/>
<polygon fill="midnightblue" stroke="midnightblue" points="31.48,-364.4 25.43,-355.71 24.74,-366.28 31.48,-364.4"/>
</g>
<!-- Node6 -->
<g id="node6" class="node">
<title>Node6</title>
<g id="a_node6"><a xlink:href="Common_8h.html" target="_top" xlink:title=" ">
<polygon fill="none" stroke="black" points="1403,-112.5 1403,-131.5 1542,-131.5 1542,-112.5 1403,-112.5"/>
<text text-anchor="middle" x="1472.5" y="-119.5" font-family="Helvetica,sans-Serif" font-size="10.00">open62541pp/Common.h</text>
</a>
</g>
</g>
<!-- Node2&#45;&gt;Node6 -->
<g id="edge5" class="edge">
<title>Node2&#45;&gt;Node6</title>
<path fill="none" stroke="midnightblue" d="M1444.04,-515.44C1528.48,-487.67 1693.5,-417.24 1693.5,-291 1693.5,-291 1693.5,-291 1693.5,-233 1693.5,-167.81 1615.47,-141.25 1552.15,-130.43"/>
<polygon fill="midnightblue" stroke="midnightblue" points="1552.55,-126.95 1542.12,-128.83 1551.44,-133.87 1552.55,-126.95"/>
</g>
<!-- Node15 -->
<g id="node15" class="node">
<title>Node15</title>
<g id="a_node15"><a xlink:href="Builtin_8h.html" target="_top" xlink:title=" ">
<polygon fill="none" stroke="black" points="1211.5,-280.5 1211.5,-299.5 1367.5,-299.5 1367.5,-280.5 1211.5,-280.5"/>
<text text-anchor="middle" x="1289.5" y="-287.5" font-family="Helvetica,sans-Serif" font-size="10.00">open62541pp/types/Builtin.h</text>
</a>
</g>
</g>
<!-- Node2&#45;&gt;Node15 -->
<g id="edge16" class="edge">
<title>Node2&#45;&gt;Node15</title>
<path fill="none" stroke="midnightblue" d="M1389.19,-515.29C1370.91,-474.17 1317.97,-355.05 1297.61,-309.24"/>
<polygon fill="midnightblue" stroke="midnightblue" points="1300.74,-307.66 1293.48,-299.95 1294.34,-310.51 1300.74,-307.66"/>
</g>
<!-- Node24 -->
<g id="node24" class="node">
<title>Node24</title>
<g id="a_node24"><a xlink:href="DataValue_8h.html" target="_top" xlink:title=" ">
<polygon fill="none" stroke="black" points="260,-459.5 260,-478.5 435,-478.5 435,-459.5 260,-459.5"/>
<text text-anchor="middle" x="347.5" y="-466.5" font-family="Helvetica,sans-Serif" font-size="10.00">open62541pp/types/DataValue.h</text>
</a>
</g>
</g>
<!-- Node2&#45;&gt;Node24 -->
<g id="edge41" class="edge">
<title>Node2&#45;&gt;Node24</title>
<path fill="none" stroke="midnightblue" d="M1332.3,-525.91C1155.96,-515.9 657.6,-487.61 445.27,-475.55"/>
<polygon fill="midnightblue" stroke="midnightblue" points="445.25,-472.04 435.07,-474.97 444.86,-479.03 445.25,-472.04"/>
</g>
<!-- Node29 -->
<g id="node29" class="node">
<title>Node29</title>
<g id="a_node29"><a xlink:href="Variant_8h.html" target="_top" xlink:title=" ">
<polygon fill="none" stroke="black" points="538,-398 538,-417 697,-417 697,-398 538,-398"/>
<text text-anchor="middle" x="617.5" y="-405" font-family="Helvetica,sans-Serif" font-size="10.00">open62541pp/types/Variant.h</text>
</a>
</g>
</g>
<!-- Node2&#45;&gt;Node29 -->
<g id="edge84" class="edge">
<title>Node2&#45;&gt;Node29</title>
<path fill="none" stroke="midnightblue" d="M1332.49,-519.7C1187.21,-497.11 829.93,-441.54 682.62,-418.63"/>
<polygon fill="midnightblue" stroke="midnightblue" points="682.8,-415.11 672.38,-417.04 681.72,-422.03 682.8,-415.11"/>
</g>
<!-- Node32 -->
<g id="node32" class="node">
<title>Node32</title>
<g id="a_node32"><a xlink:href="NodeId_8h.html" target="_top" xlink:title=" ">
<polygon fill="none" stroke="black" points="1423,-336.5 1423,-355.5 1582,-355.5 1582,-336.5 1423,-336.5"/>
<text text-anchor="middle" x="1502.5" y="-343.5" font-family="Helvetica,sans-Serif" font-size="10.00">open62541pp/types/NodeId.h</text>
</a>
</g>
</g>
<!-- Node2&#45;&gt;Node32 -->
<g id="edge76" class="edge">
<title>Node2&#45;&gt;Node32</title>
<path fill="none" stroke="midnightblue" d="M1403.72,-515.48C1422.95,-482.68 1470.87,-400.95 1492.1,-364.74"/>
<polygon fill="midnightblue" stroke="midnightblue" points="1495.29,-366.22 1497.33,-355.82 1489.25,-362.68 1495.29,-366.22"/>
</g>
<!-- Node6&#45;&gt;Node4 -->
<g id="edge7" class="edge">
<title>Node6&#45;&gt;Node4</title>
<path fill="none" stroke="midnightblue" d="M1499.12,-112.44C1527.51,-103.32 1572.64,-88.81 1604.25,-78.65"/>
<polygon fill="midnightblue" stroke="midnightblue" points="1605.56,-81.91 1614,-75.52 1603.41,-75.24 1605.56,-81.91"/>
</g>
<!-- Node7 -->
<g id="node7" class="node">
<title>Node7</title>
<g id="a_node7"><a xlink:title=" ">
<polygon fill="none" stroke="#bfbfbf" points="1096.5,-56.5 1096.5,-75.5 1146.5,-75.5 1146.5,-56.5 1096.5,-56.5"/>
<text text-anchor="middle" x="1121.5" y="-63.5" font-family="Helvetica,sans-Serif" font-size="10.00">cstdint</text>
</a>
</g>
</g>
<!-- Node6&#45;&gt;Node7 -->
<g id="edge6" class="edge">
<title>Node6&#45;&gt;Node7</title>
<path fill="none" stroke="midnightblue" d="M1416.88,-112.44C1343.79,-101.2 1217.55,-81.78 1156.53,-72.39"/>
<polygon fill="midnightblue" stroke="midnightblue" points="1157.04,-68.93 1146.62,-70.86 1155.97,-75.84 1157.04,-68.93"/>
</g>
<!-- Node8 -->
<g id="node8" class="node">
<title>Node8</title>
<g id="a_node8"><a xlink:title=" ">
<polygon fill="none" stroke="#bfbfbf" points="1444,-0.5 1444,-19.5 1485,-19.5 1485,-0.5 1444,-0.5"/>
<text text-anchor="middle" x="1464.5" y="-7.5" font-family="Helvetica,sans-Serif" font-size="10.00">tuple</text>
</a>
</g>
</g>
<!-- Node6&#45;&gt;Node8 -->
<g id="edge8" class="edge">
<title>Node6&#45;&gt;Node8</title>
<path fill="none" stroke="midnightblue" d="M1471.87,-112.37C1470.58,-94.62 1467.6,-53.67 1465.85,-29.6"/>
<polygon fill="midnightblue" stroke="midnightblue" points="1469.34,-29.31 1465.12,-19.59 1462.36,-29.82 1469.34,-29.31"/>
</g>
<!-- Node9 -->
<g id="node9" class="node">
<title>Node9</title>
<g id="a_node9"><a xlink:href="Traits_8h.html" target="_top" xlink:title=" ">
<polygon fill="none" stroke="black" points="1323,-56.5 1323,-75.5 1444,-75.5 1444,-56.5 1323,-56.5"/>
<text text-anchor="middle" x="1383.5" y="-63.5" font-family="Helvetica,sans-Serif" font-size="10.00">open62541pp/Traits.h</text>
</a>
</g>
</g>
<!-- Node6&#45;&gt;Node9 -->
<g id="edge9" class="edge">
<title>Node6&#45;&gt;Node9</title>
<path fill="none" stroke="midnightblue" d="M1458.2,-112.32C1444.32,-103.9 1423.01,-90.97 1406.7,-81.07"/>
<polygon fill="midnightblue" stroke="midnightblue" points="1408.13,-77.85 1397.76,-75.65 1404.5,-83.83 1408.13,-77.85"/>
</g>
<!-- Node11 -->
<g id="node11" class="node">
<title>Node11</title>
<g id="a_node11"><a xlink:href="open62541_8h.html" target="_top" xlink:title=" ">
<polygon fill="none" stroke="black" points="474,-56.5 474,-75.5 623,-75.5 623,-56.5 474,-56.5"/>
<text text-anchor="middle" x="548.5" y="-63.5" font-family="Helvetica,sans-Serif" font-size="10.00">open62541pp/open62541.h</text>
</a>
</g>
</g>
<!-- Node6&#45;&gt;Node11 -->
<g id="edge12" class="edge">
<title>Node6&#45;&gt;Node11</title>
<path fill="none" stroke="midnightblue" d="M1402.67,-116.92C1235.76,-107.16 814.15,-82.52 633.17,-71.95"/>
<polygon fill="midnightblue" stroke="midnightblue" points="633.35,-68.45 623.16,-71.36 632.94,-75.44 633.35,-68.45"/>
</g>
<!-- Node9&#45;&gt;Node8 -->
<g id="edge10" class="edge">
<title>Node9&#45;&gt;Node8</title>
<path fill="none" stroke="midnightblue" d="M1396.51,-56.32C1409.03,-47.98 1428.18,-35.21 1442.97,-25.35"/>
<polygon fill="midnightblue" stroke="midnightblue" points="1445.14,-28.11 1451.52,-19.65 1441.26,-22.29 1445.14,-28.11"/>
</g>
<!-- Node10 -->
<g id="node10" class="node">
<title>Node10</title>
<g id="a_node10"><a xlink:title=" ">
<polygon fill="none" stroke="#bfbfbf" points="1349,-0.5 1349,-19.5 1418,-19.5 1418,-0.5 1349,-0.5"/>
<text text-anchor="middle" x="1383.5" y="-7.5" font-family="Helvetica,sans-Serif" font-size="10.00">type_traits</text>
</a>
</g>
</g>
<!-- Node9&#45;&gt;Node10 -->
<g id="edge11" class="edge">
<title>Node9&#45;&gt;Node10</title>
<path fill="none" stroke="midnightblue" d="M1383.5,-56.08C1383.5,-49.01 1383.5,-38.86 1383.5,-29.99"/>
<polygon fill="midnightblue" stroke="midnightblue" points="1387,-29.75 1383.5,-19.75 1380,-29.75 1387,-29.75"/>
</g>
<!-- Node12 -->
<g id="node12" class="node">
<title>Node12</title>
<g id="a_node12"><a target="_blank" xlink:href="open62541/nodeids_8h.html.html" xlink:title=" ">
<polygon fill="none" stroke="black" points="354,-0.5 354,-19.5 475,-19.5 475,-0.5 354,-0.5"/>
<text text-anchor="middle" x="414.5" y="-7.5" font-family="Helvetica,sans-Serif" font-size="10.00">open62541/nodeids.h</text>
</a>
</g>
</g>
<!-- Node11&#45;&gt;Node12 -->
<g id="edge13" class="edge">
<title>Node11&#45;&gt;Node12</title>
<path fill="none" stroke="midnightblue" d="M527.27,-56.44C505.12,-47.52 470.18,-33.44 445.06,-23.32"/>
<polygon fill="midnightblue" stroke="midnightblue" points="446.22,-20.01 435.63,-19.52 443.6,-26.5 446.22,-20.01"/>
</g>
<!-- Node13 -->
<g id="node13" class="node">
<title>Node13</title>
<g id="a_node13"><a target="_blank" xlink:href="open62541/types_8h.html.html" xlink:title=" ">
<polygon fill="none" stroke="black" points="493.5,-0.5 493.5,-19.5 603.5,-19.5 603.5,-0.5 493.5,-0.5"/>
<text text-anchor="middle" x="548.5" y="-7.5" font-family="Helvetica,sans-Serif" font-size="10.00">open62541/types.h</text>
</a>
</g>
</g>
<!-- Node11&#45;&gt;Node13 -->
<g id="edge14" class="edge">
<title>Node11&#45;&gt;Node13</title>
<path fill="none" stroke="midnightblue" d="M548.5,-56.08C548.5,-49.01 548.5,-38.86 548.5,-29.99"/>
<polygon fill="midnightblue" stroke="midnightblue" points="552,-29.75 548.5,-19.75 545,-29.75 552,-29.75"/>
</g>
<!-- Node14 -->
<g id="node14" class="node">
<title>Node14</title>
<g id="a_node14"><a target="_blank" xlink:href="open62541/types__generated_8h.html.html" xlink:title=" ">
<polygon fill="none" stroke="black" points="621.5,-0.5 621.5,-19.5 785.5,-19.5 785.5,-0.5 621.5,-0.5"/>
<text text-anchor="middle" x="703.5" y="-7.5" font-family="Helvetica,sans-Serif" font-size="10.00">open62541/types_generated.h</text>
</a>
</g>
</g>
<!-- Node11&#45;&gt;Node14 -->
<g id="edge15" class="edge">
<title>Node11&#45;&gt;Node14</title>
<path fill="none" stroke="midnightblue" d="M573.06,-56.44C599.02,-47.4 640.17,-33.06 669.3,-22.92"/>
<polygon fill="midnightblue" stroke="midnightblue" points="670.76,-26.11 679.05,-19.52 668.46,-19.5 670.76,-26.11"/>
</g>
<!-- Node15&#45;&gt;Node4 -->
<g id="edge19" class="edge">
<title>Node15&#45;&gt;Node4</title>
<path fill="none" stroke="midnightblue" d="M1319.83,-280.5C1367.31,-266.28 1460.87,-234.59 1529.5,-188 1572.56,-158.77 1610.66,-109.69 1628.97,-83.94"/>
<polygon fill="midnightblue" stroke="midnightblue" points="1631.95,-85.79 1634.8,-75.59 1626.21,-81.79 1631.95,-85.79"/>
</g>
<!-- Node15&#45;&gt;Node7 -->
<g id="edge18" class="edge">
<title>Node15&#45;&gt;Node7</title>
<path fill="none" stroke="midnightblue" d="M1302.28,-280.37C1312.89,-272.36 1327.23,-259.38 1333.5,-244 1355.92,-188.99 1357.09,-151.25 1312.5,-112 1289.63,-91.87 1205.47,-77.9 1156.83,-71.31"/>
<polygon fill="midnightblue" stroke="midnightblue" points="1157.11,-67.82 1146.74,-69.98 1156.2,-74.76 1157.11,-67.82"/>
</g>
<!-- Node15&#45;&gt;Node11 -->
<g id="edge40" class="edge">
<title>Node15&#45;&gt;Node11</title>
<path fill="none" stroke="midnightblue" d="M1282.91,-280.27C1259.7,-250.31 1178.13,-151.36 1084.5,-112 1005.4,-78.74 763.65,-70.04 633.53,-67.78"/>
<polygon fill="midnightblue" stroke="midnightblue" points="633.27,-64.28 623.21,-67.61 633.15,-71.28 633.27,-64.28"/>
</g>
<!-- Node16 -->
<g id="node16" class="node">
<title>Node16</title>
<g id="a_node16"><a xlink:title=" ">
<polygon fill="none" stroke="#bfbfbf" points="1135.5,-224.5 1135.5,-243.5 1177.5,-243.5 1177.5,-224.5 1135.5,-224.5"/>
<text text-anchor="middle" x="1156.5" y="-231.5" font-family="Helvetica,sans-Serif" font-size="10.00">array</text>
</a>
</g>
</g>
<!-- Node15&#45;&gt;Node16 -->
<g id="edge17" class="edge">
<title>Node15&#45;&gt;Node16</title>
<path fill="none" stroke="midnightblue" d="M1268.43,-280.44C1246.44,-271.52 1211.77,-257.44 1186.84,-247.32"/>
<polygon fill="midnightblue" stroke="midnightblue" points="1188.06,-244.04 1177.48,-243.52 1185.42,-250.52 1188.06,-244.04"/>
</g>
<!-- Node17 -->
<g id="node17" class="node">
<title>Node17</title>
<g id="a_node17"><a xlink:href="TypeWrapper_8h.html" target="_top" xlink:title=" ">
<polygon fill="none" stroke="black" points="533.5,-224.5 533.5,-243.5 691.5,-243.5 691.5,-224.5 533.5,-224.5"/>
<text text-anchor="middle" x="612.5" y="-231.5" font-family="Helvetica,sans-Serif" font-size="10.00">open62541pp/TypeWrapper.h</text>
</a>
</g>
</g>
<!-- Node15&#45;&gt;Node17 -->
<g id="edge20" class="edge">
<title>Node15&#45;&gt;Node17</title>
<path fill="none" stroke="midnightblue" d="M1211.18,-282.75C1084.48,-272.65 835.32,-252.77 701.87,-242.13"/>
<polygon fill="midnightblue" stroke="midnightblue" points="701.93,-238.62 691.68,-241.32 701.37,-245.6 701.93,-238.62"/>
</g>
<!-- Node17&#45;&gt;Node6 -->
<g id="edge25" class="edge">
<title>Node17&#45;&gt;Node6</title>
<path fill="none" stroke="midnightblue" d="M691.56,-225.55C776.43,-217.32 915.18,-203.21 1034.5,-188 1168.6,-170.91 1325.14,-146.63 1410.02,-133.1"/>
<polygon fill="midnightblue" stroke="midnightblue" points="1410.68,-136.54 1420.01,-131.5 1409.58,-129.62 1410.68,-136.54"/>
</g>
<!-- Node17&#45;&gt;Node7 -->
<g id="edge22" class="edge">
<title>Node17&#45;&gt;Node7</title>
<path fill="none" stroke="midnightblue" d="M617.16,-224.34C630.06,-201.36 668.72,-138.76 720.5,-112 783.92,-79.23 1000.47,-70.12 1086.17,-67.76"/>
<polygon fill="midnightblue" stroke="midnightblue" points="1086.52,-71.26 1096.43,-67.5 1086.34,-64.26 1086.52,-71.26"/>
</g>
<!-- Node17&#45;&gt;Node10 -->
<g id="edge23" class="edge">
<title>Node17&#45;&gt;Node10</title>
<path fill="none" stroke="midnightblue" d="M614.71,-224.39C621.24,-200.95 642.93,-136.2 688.5,-112 802.5,-51.46 1203.35,-21.97 1338.57,-13.58"/>
<polygon fill="midnightblue" stroke="midnightblue" points="1338.82,-17.08 1348.59,-12.97 1338.39,-10.09 1338.82,-17.08"/>
</g>
<!-- Node17&#45;&gt;Node11 -->
<g id="edge39" class="edge">
<title>Node17&#45;&gt;Node11</title>
<path fill="none" stroke="midnightblue" d="M609.06,-224.08C598.94,-197.83 569.14,-120.55 555.48,-85.12"/>
<polygon fill="midnightblue" stroke="midnightblue" points="558.67,-83.64 551.8,-75.57 552.14,-86.16 558.67,-83.64"/>
</g>
<!-- Node18 -->
<g id="node18" class="node">
<title>Node18</title>
<g id="a_node18"><a xlink:title=" ">
<polygon fill="none" stroke="#bfbfbf" points="465.5,-112.5 465.5,-131.5 517.5,-131.5 517.5,-112.5 465.5,-112.5"/>
<text text-anchor="middle" x="491.5" y="-119.5" font-family="Helvetica,sans-Serif" font-size="10.00">cassert</text>
</a>
</g>
</g>
<!-- Node17&#45;&gt;Node18 -->
<g id="edge21" class="edge">
<title>Node17&#45;&gt;Node18</title>
<path fill="none" stroke="midnightblue" d="M553.39,-224.42C531.34,-218.09 508.32,-207.1 494.5,-188 484.89,-174.71 485.21,-155.59 487.3,-141.52"/>
<polygon fill="midnightblue" stroke="midnightblue" points="490.77,-142.01 489.19,-131.54 483.89,-140.71 490.77,-142.01"/>
</g>
<!-- Node19 -->
<g id="node19" class="node">
<title>Node19</title>
<g id="a_node19"><a xlink:title=" ">
<polygon fill="none" stroke="#bfbfbf" points="504,-168.5 504,-187.5 549,-187.5 549,-168.5 504,-168.5"/>
<text text-anchor="middle" x="526.5" y="-175.5" font-family="Helvetica,sans-Serif" font-size="10.00">utility</text>
</a>
</g>
</g>
<!-- Node17&#45;&gt;Node19 -->
<g id="edge24" class="edge">
<title>Node17&#45;&gt;Node19</title>
<path fill="none" stroke="midnightblue" d="M598.68,-224.32C585.27,-215.9 564.68,-202.97 548.91,-193.07"/>
<polygon fill="midnightblue" stroke="midnightblue" points="550.61,-190.01 540.28,-187.65 546.89,-195.94 550.61,-190.01"/>
</g>
<!-- Node20 -->
<g id="node20" class="node">
<title>Node20</title>
<g id="a_node20"><a xlink:href="Comparison_8h.html" target="_top" xlink:title=" ">
<polygon fill="none" stroke="black" points="180,-168.5 180,-187.5 333,-187.5 333,-168.5 180,-168.5"/>
<text text-anchor="middle" x="256.5" y="-175.5" font-family="Helvetica,sans-Serif" font-size="10.00">open62541pp/Comparison.h</text>
</a>
</g>
</g>
<!-- Node17&#45;&gt;Node20 -->
<g id="edge26" class="edge">
<title>Node17&#45;&gt;Node20</title>
<path fill="none" stroke="midnightblue" d="M556.09,-224.44C492.69,-214.83 389.85,-199.23 322.7,-189.04"/>
<polygon fill="midnightblue" stroke="midnightblue" points="323.06,-185.56 312.65,-187.52 322.01,-192.48 323.06,-185.56"/>
</g>
<!-- Node21 -->
<g id="node21" class="node">
<title>Node21</title>
<g id="a_node21"><a xlink:href="ErrorHandling_8h.html" target="_top" xlink:title=" ">
<polygon fill="none" stroke="black" points="682,-168.5 682,-187.5 843,-187.5 843,-168.5 682,-168.5"/>
<text text-anchor="middle" x="762.5" y="-175.5" font-family="Helvetica,sans-Serif" font-size="10.00">open62541pp/ErrorHandling.h</text>
</a>
</g>
</g>
<!-- Node17&#45;&gt;Node21 -->
<g id="edge28" class="edge">
<title>Node17&#45;&gt;Node21</title>
<path fill="none" stroke="midnightblue" d="M636.27,-224.44C661.39,-215.4 701.21,-201.06 729.4,-190.92"/>
<polygon fill="midnightblue" stroke="midnightblue" points="730.62,-194.2 738.84,-187.52 728.25,-187.61 730.62,-194.2"/>
</g>
<!-- Node23 -->
<g id="node23" class="node">
<title>Node23</title>
<g id="a_node23"><a xlink:href="Helper_8h.html" target="_top" xlink:title=" ">
<polygon fill="none" stroke="black" points="899.5,-168.5 899.5,-187.5 1025.5,-187.5 1025.5,-168.5 899.5,-168.5"/>
<text text-anchor="middle" x="962.5" y="-175.5" font-family="Helvetica,sans-Serif" font-size="10.00">open62541pp/Helper.h</text>
</a>
</g>
</g>
<!-- Node17&#45;&gt;Node23 -->
<g id="edge32" class="edge">
<title>Node17&#45;&gt;Node23</title>
<path fill="none" stroke="midnightblue" d="M667.96,-224.44C730.17,-214.85 830.98,-199.29 897.01,-189.1"/>
<polygon fill="midnightblue" stroke="midnightblue" points="897.95,-192.5 907.3,-187.52 896.88,-185.58 897.95,-192.5"/>
</g>
<!-- Node20&#45;&gt;Node11 -->
<g id="edge27" class="edge">
<title>Node20&#45;&gt;Node11</title>
<path fill="none" stroke="midnightblue" d="M265.8,-168.38C281.43,-154.37 314.53,-126.73 347.5,-112 385.71,-94.92 431,-84.06 468.9,-77.29"/>
<polygon fill="midnightblue" stroke="midnightblue" points="469.61,-80.72 478.88,-75.57 468.43,-73.82 469.61,-80.72"/>
</g>
<!-- Node21&#45;&gt;Node3 -->
<g id="edge30" class="edge">
<title>Node21&#45;&gt;Node3</title>
<path fill="none" stroke="midnightblue" d="M808.61,-168.44C867.98,-157.43 969.65,-138.56 1021.32,-128.97"/>
<polygon fill="midnightblue" stroke="midnightblue" points="1022.06,-132.39 1031.26,-127.13 1020.79,-125.51 1022.06,-132.39"/>
</g>
<!-- Node21&#45;&gt;Node11 -->
<g id="edge31" class="edge">
<title>Node21&#45;&gt;Node11</title>
<path fill="none" stroke="midnightblue" d="M745.71,-168.37C708.44,-149.21 618.61,-103.04 574.21,-80.22"/>
<polygon fill="midnightblue" stroke="midnightblue" points="575.71,-77.05 565.21,-75.59 572.51,-83.28 575.71,-77.05"/>
</g>
<!-- Node22 -->
<g id="node22" class="node">
<title>Node22</title>
<g id="a_node22"><a xlink:title=" ">
<polygon fill="none" stroke="#bfbfbf" points="730,-112.5 730,-131.5 795,-131.5 795,-112.5 730,-112.5"/>
<text text-anchor="middle" x="762.5" y="-119.5" font-family="Helvetica,sans-Serif" font-size="10.00">stdexcept</text>
</a>
</g>
</g>
<!-- Node21&#45;&gt;Node22 -->
<g id="edge29" class="edge">
<title>Node21&#45;&gt;Node22</title>
<path fill="none" stroke="midnightblue" d="M762.5,-168.08C762.5,-161.01 762.5,-150.86 762.5,-141.99"/>
<polygon fill="midnightblue" stroke="midnightblue" points="766,-141.75 762.5,-131.75 759,-141.75 766,-141.75"/>
</g>
<!-- Node23&#45;&gt;Node3 -->
<g id="edge35" class="edge">
<title>Node23&#45;&gt;Node3</title>
<path fill="none" stroke="midnightblue" d="M977.12,-168.32C991.45,-159.82 1013.51,-146.73 1030.25,-136.8"/>
<polygon fill="midnightblue" stroke="midnightblue" points="1032.1,-139.77 1038.92,-131.65 1028.53,-133.75 1032.1,-139.77"/>
</g>
<!-- Node23&#45;&gt;Node4 -->
<g id="edge36" class="edge">
<title>Node23&#45;&gt;Node4</title>
<path fill="none" stroke="midnightblue" d="M967.45,-168.33C976.32,-153.71 996.49,-124.53 1022.5,-112 1048.12,-99.65 1453.19,-76.99 1593.27,-69.49"/>
<polygon fill="midnightblue" stroke="midnightblue" points="1593.87,-72.96 1603.67,-68.93 1593.5,-65.97 1593.87,-72.96"/>
</g>
<!-- Node23&#45;&gt;Node6 -->
<g id="edge37" class="edge">
<title>Node23&#45;&gt;Node6</title>
<path fill="none" stroke="midnightblue" d="M1025.55,-170.32C1118.18,-160.52 1291.01,-142.22 1392.47,-131.47"/>
<polygon fill="midnightblue" stroke="midnightblue" points="1393.09,-134.93 1402.66,-130.39 1392.35,-127.97 1393.09,-134.93"/>
</g>
<!-- Node23&#45;&gt;Node7 -->
<g id="edge34" class="edge">
<title>Node23&#45;&gt;Node7</title>
<path fill="none" stroke="midnightblue" d="M963.66,-168.12C965.94,-154.23 972.26,-127.38 988.5,-112 1015.33,-86.58 1057.04,-75.49 1086.58,-70.67"/>
<polygon fill="midnightblue" stroke="midnightblue" points="1087.1,-74.13 1096.48,-69.21 1086.08,-67.2 1087.1,-74.13"/>
</g>
<!-- Node23&#45;&gt;Node11 -->
<g id="edge38" class="edge">
<title>Node23&#45;&gt;Node11</title>
<path fill="none" stroke="midnightblue" d="M955.45,-168.5C943,-154.13 915.57,-125.32 885.5,-112 841.68,-92.59 717.84,-79.7 633.14,-72.86"/>
<polygon fill="midnightblue" stroke="midnightblue" points="633.25,-69.36 623.01,-72.06 632.7,-76.34 633.25,-69.36"/>
</g>
<!-- Node23&#45;&gt;Node18 -->
<g id="edge33" class="edge">
<title>Node23&#45;&gt;Node18</title>
<path fill="none" stroke="midnightblue" d="M899.47,-169.77C799.43,-158.3 607.48,-136.3 527.68,-127.15"/>
<polygon fill="midnightblue" stroke="midnightblue" points="527.96,-123.66 517.63,-126 527.16,-130.61 527.96,-123.66"/>
</g>
<!-- Node24&#45;&gt;Node7 -->
<g id="edge42" class="edge">
<title>Node24&#45;&gt;Node7</title>
<path fill="none" stroke="midnightblue" d="M328.22,-459.49C294.3,-443.05 227.5,-403.51 227.5,-347 227.5,-347 227.5,-347 227.5,-289 227.5,-281.37 430.42,-114.85 437.5,-112 497.83,-87.69 953.89,-72.09 1085.84,-68.04"/>
<polygon fill="midnightblue" stroke="midnightblue" points="1086.29,-71.53 1096.18,-67.73 1086.08,-64.54 1086.29,-71.53"/>
</g>
<!-- Node24&#45;&gt;Node11 -->
<g id="edge45" class="edge">
<title>Node24&#45;&gt;Node11</title>
<path fill="none" stroke="midnightblue" d="M259.94,-464.44C180.43,-455.95 75.5,-429.18 75.5,-347 75.5,-347 75.5,-347 75.5,-177 75.5,-98.19 327.74,-75.82 463.82,-69.49"/>
<polygon fill="midnightblue" stroke="midnightblue" points="463.98,-72.99 473.81,-69.05 463.67,-65.99 463.98,-72.99"/>
</g>
<!-- Node24&#45;&gt;Node17 -->
<g id="edge44" class="edge">
<title>Node24&#45;&gt;Node17</title>
<path fill="none" stroke="midnightblue" d="M345.76,-459.22C341.67,-435.82 334.09,-371.3 366.5,-336 414.33,-283.91 457.05,-329.11 521.5,-300 549.78,-287.23 578.22,-265.06 595.6,-250.22"/>
<polygon fill="midnightblue" stroke="midnightblue" points="597.96,-252.8 603.19,-243.59 593.36,-247.53 597.96,-252.8"/>
</g>
<!-- Node25 -->
<g id="node25" class="node">
<title>Node25</title>
<g id="a_node25"><a xlink:title=" ">
<polygon fill="none" stroke="#bfbfbf" points="375.5,-336.5 375.5,-355.5 431.5,-355.5 431.5,-336.5 375.5,-336.5"/>
<text text-anchor="middle" x="403.5" y="-343.5" font-family="Helvetica,sans-Serif" font-size="10.00">optional</text>
</a>
</g>
</g>
<!-- Node24&#45;&gt;Node25 -->
<g id="edge43" class="edge">
<title>Node24&#45;&gt;Node25</title>
<path fill="none" stroke="midnightblue" d="M351.53,-459.3C360.65,-439.59 383.04,-391.21 395.24,-364.84"/>
<polygon fill="midnightblue" stroke="midnightblue" points="398.49,-366.17 399.51,-355.62 392.13,-363.23 398.49,-366.17"/>
</g>
<!-- Node26 -->
<g id="node26" class="node">
<title>Node26</title>
<g id="a_node26"><a xlink:href="DateTime_8h.html" target="_top" xlink:title=" ">
<polygon fill="none" stroke="black" points="340,-280.5 340,-299.5 513,-299.5 513,-280.5 340,-280.5"/>
<text text-anchor="middle" x="426.5" y="-287.5" font-family="Helvetica,sans-Serif" font-size="10.00">open62541pp/types/DateTime.h</text>
</a>
</g>
</g>
<!-- Node24&#45;&gt;Node26 -->
<g id="edge46" class="edge">
<title>Node24&#45;&gt;Node26</title>
<path fill="none" stroke="midnightblue" d="M343.22,-459.46C332.71,-437.18 308.28,-376.22 333.5,-336 343.38,-320.25 360.5,-309.87 377.39,-303.11"/>
<polygon fill="midnightblue" stroke="midnightblue" points="379.04,-306.23 387.25,-299.52 376.65,-299.65 379.04,-306.23"/>
</g>
<!-- Node24&#45;&gt;Node29 -->
<g id="edge52" class="edge">
<title>Node24&#45;&gt;Node29</title>
<path fill="none" stroke="midnightblue" d="M386.18,-459.48C434.3,-448.87 516.49,-430.76 568.83,-419.22"/>
<polygon fill="midnightblue" stroke="midnightblue" points="569.87,-422.58 578.89,-417.01 568.37,-415.74 569.87,-422.58"/>
</g>
<!-- Node26&#45;&gt;Node7 -->
<g id="edge48" class="edge">
<title>Node26&#45;&gt;Node7</title>
<path fill="none" stroke="midnightblue" d="M424.74,-280.29C419.42,-251.24 406.8,-156.95 456.5,-112 503.4,-69.58 955.11,-66.79 1086.08,-66.88"/>
<polygon fill="midnightblue" stroke="midnightblue" points="1086.34,-70.38 1096.35,-66.9 1086.35,-63.38 1086.34,-70.38"/>
</g>
<!-- Node26&#45;&gt;Node11 -->
<g id="edge51" class="edge">
<title>Node26&#45;&gt;Node11</title>
<path fill="none" stroke="midnightblue" d="M408.63,-280.42C381.2,-267.41 326.89,-242.25 279.5,-224 231.89,-205.66 200.39,-229.35 170.5,-188 165.29,-180.8 165.53,-175.37 170.5,-168 203.16,-119.63 362.31,-90.69 463.41,-76.89"/>
<polygon fill="midnightblue" stroke="midnightblue" points="464.16,-80.32 473.61,-75.52 463.23,-73.38 464.16,-80.32"/>
</g>
<!-- Node26&#45;&gt;Node17 -->
<g id="edge50" class="edge">
<title>Node26&#45;&gt;Node17</title>
<path fill="none" stroke="midnightblue" d="M455.97,-280.44C487.67,-271.24 538.23,-256.56 573.27,-246.39"/>
<polygon fill="midnightblue" stroke="midnightblue" points="574.54,-249.67 583.17,-243.52 572.59,-242.94 574.54,-249.67"/>
</g>
<!-- Node27 -->
<g id="node27" class="node">
<title>Node27</title>
<g id="a_node27"><a xlink:title=" ">
<polygon fill="none" stroke="#bfbfbf" points="465.5,-224.5 465.5,-243.5 515.5,-243.5 515.5,-224.5 465.5,-224.5"/>
<text text-anchor="middle" x="490.5" y="-231.5" font-family="Helvetica,sans-Serif" font-size="10.00">chrono</text>
</a>
</g>
</g>
<!-- Node26&#45;&gt;Node27 -->
<g id="edge47" class="edge">
<title>Node26&#45;&gt;Node27</title>
<path fill="none" stroke="midnightblue" d="M436.78,-280.32C446.34,-272.26 460.78,-260.08 472.28,-250.37"/>
<polygon fill="midnightblue" stroke="midnightblue" points="474.64,-252.96 480.03,-243.83 470.13,-247.61 474.64,-252.96"/>
</g>
<!-- Node28 -->
<g id="node28" class="node">
<title>Node28</title>
<g id="a_node28"><a xlink:title=" ">
<polygon fill="none" stroke="#bfbfbf" points="370,-224.5 370,-243.5 409,-243.5 409,-224.5 370,-224.5"/>
<text text-anchor="middle" x="389.5" y="-231.5" font-family="Helvetica,sans-Serif" font-size="10.00">ratio</text>
</a>
</g>
</g>
<!-- Node26&#45;&gt;Node28 -->
<g id="edge49" class="edge">
<title>Node26&#45;&gt;Node28</title>
<path fill="none" stroke="midnightblue" d="M420.39,-280.08C415.22,-272.53 407.65,-261.49 401.31,-252.23"/>
<polygon fill="midnightblue" stroke="midnightblue" points="404.04,-250.02 395.5,-243.75 398.26,-253.98 404.04,-250.02"/>
</g>
<!-- Node29&#45;&gt;Node5 -->
<g id="edge57" class="edge">
<title>Node29&#45;&gt;Node5</title>
<path fill="none" stroke="midnightblue" d="M537.7,-398.51C406.22,-385.34 149.45,-359.62 57.37,-350.39"/>
<polygon fill="midnightblue" stroke="midnightblue" points="57.53,-346.89 47.23,-349.38 56.83,-353.86 57.53,-346.89"/>
</g>
<!-- Node29&#45;&gt;Node6 -->
<g id="edge58" class="edge">
<title>Node29&#45;&gt;Node6</title>
<path fill="none" stroke="midnightblue" d="M697.31,-405.12C924.07,-400.85 1557.99,-386.24 1590.5,-356 1659.25,-292.06 1539.58,-179.12 1491.32,-138.28"/>
<polygon fill="midnightblue" stroke="midnightblue" points="1493.38,-135.44 1483.46,-131.73 1488.9,-140.81 1493.38,-135.44"/>
</g>
<!-- Node29&#45;&gt;Node7 -->
<g id="edge54" class="edge">
<title>Node29&#45;&gt;Node7</title>
<path fill="none" stroke="midnightblue" d="M697.13,-398.19C825.98,-383.48 1073,-349.65 1144.5,-300 1176.2,-277.99 1191.22,-262.3 1186.5,-224 1180.23,-173.07 1181.58,-157.83 1158.5,-112 1153.18,-101.43 1144.99,-91.12 1137.67,-83.05"/>
<polygon fill="midnightblue" stroke="midnightblue" points="1140.2,-80.63 1130.78,-75.78 1135.12,-85.45 1140.2,-80.63"/>
</g>
<!-- Node29&#45;&gt;Node11 -->
<g id="edge75" class="edge">
<title>Node29&#45;&gt;Node11</title>
<path fill="none" stroke="midnightblue" d="M587.55,-397.99C557.92,-389.11 511.59,-373.98 473.5,-356 457.99,-348.68 456.2,-342.91 440.5,-336 388.37,-313.04 368.62,-325.12 317.5,-300 241.54,-262.67 201.9,-263.42 163.5,-188 142.3,-146.36 218.12,-113.17 220.5,-112 262.04,-91.6 381.11,-79.06 463.73,-72.56"/>
<polygon fill="midnightblue" stroke="midnightblue" points="464.16,-76.04 473.87,-71.78 463.63,-69.06 464.16,-76.04"/>
</g>
<!-- Node29&#45;&gt;Node17 -->
<g id="edge74" class="edge">
<title>Node29&#45;&gt;Node17</title>
<path fill="none" stroke="midnightblue" d="M614.28,-397.71C610.82,-387.76 605.54,-370.96 603.5,-356 598.95,-322.53 600.17,-313.61 603.5,-280 604.37,-271.17 606.19,-261.51 607.97,-253.4"/>
<polygon fill="midnightblue" stroke="midnightblue" points="611.4,-254.08 610.27,-243.55 604.58,-252.49 611.4,-254.08"/>
</g>
<!-- Node29&#45;&gt;Node18 -->
<g id="edge53" class="edge">
<title>Node29&#45;&gt;Node18</title>
<path fill="none" stroke="midnightblue" d="M602.41,-397.8C576.69,-383.26 522.38,-353.9 473.5,-336 411.96,-313.47 370.79,-351.69 330.5,-300 279.82,-234.98 404.47,-164.4 463.07,-135.96"/>
<polygon fill="midnightblue" stroke="midnightblue" points="464.68,-139.07 472.2,-131.6 461.67,-132.75 464.68,-139.07"/>
</g>
<!-- Node29&#45;&gt;Node21 -->
<g id="edge59" class="edge">
<title>Node29&#45;&gt;Node21</title>
<path fill="none" stroke="midnightblue" d="M616.38,-397.9C614.02,-376.05 610.65,-317.48 636.5,-280 655.03,-253.13 674.73,-264.03 700.5,-244 719.06,-229.58 737.25,-209.61 749.08,-195.62"/>
<polygon fill="midnightblue" stroke="midnightblue" points="751.89,-197.72 755.57,-187.79 746.5,-193.26 751.89,-197.72"/>
</g>
<!-- Node29&#45;&gt;Node23 -->
<g id="edge60" class="edge">
<title>Node29&#45;&gt;Node23</title>
<path fill="none" stroke="midnightblue" d="M697.06,-404.05C779.31,-399.78 900.14,-388.07 932.5,-356 975.45,-313.44 970.53,-233.73 965.63,-197.63"/>
<polygon fill="midnightblue" stroke="midnightblue" points="969.06,-196.9 964.1,-187.54 962.14,-197.95 969.06,-196.9"/>
</g>
<!-- Node29&#45;&gt;Node25 -->
<g id="edge56" class="edge">
<title>Node29&#45;&gt;Node25</title>
<path fill="none" stroke="midnightblue" d="M586.84,-397.98C548.51,-387.32 482.91,-369.08 441.45,-357.55"/>
<polygon fill="midnightblue" stroke="midnightblue" points="442.29,-354.15 431.72,-354.85 440.41,-360.9 442.29,-354.15"/>
</g>
<!-- Node30 -->
<g id="node30" class="node">
<title>Node30</title>
<g id="a_node30"><a xlink:title=" ">
<polygon fill="none" stroke="#bfbfbf" points="646,-280.5 646,-299.5 699,-299.5 699,-280.5 646,-280.5"/>
<text text-anchor="middle" x="672.5" y="-287.5" font-family="Helvetica,sans-Serif" font-size="10.00">iterator</text>
</a>
</g>
</g>
<!-- Node29&#45;&gt;Node30 -->
<g id="edge55" class="edge">
<title>Node29&#45;&gt;Node30</title>
<path fill="none" stroke="midnightblue" d="M621.63,-397.82C630.59,-379.01 651.95,-334.15 663.95,-308.96"/>
<polygon fill="midnightblue" stroke="midnightblue" points="667.18,-310.32 668.32,-299.78 660.86,-307.31 667.18,-310.32"/>
</g>
<!-- Node31 -->
<g id="node31" class="node">
<title>Node31</title>
<g id="a_node31"><a xlink:href="TypeConverter_8h.html" target="_top" xlink:title=" ">
<polygon fill="none" stroke="black" points="759.5,-336.5 759.5,-355.5 923.5,-355.5 923.5,-336.5 759.5,-336.5"/>
<text text-anchor="middle" x="841.5" y="-343.5" font-family="Helvetica,sans-Serif" font-size="10.00">open62541pp/TypeConverter.h</text>
</a>
</g>
</g>
<!-- Node29&#45;&gt;Node31 -->
<g id="edge61" class="edge">
<title>Node29&#45;&gt;Node31</title>
<path fill="none" stroke="midnightblue" d="M649.59,-397.98C689.1,-387.48 756.28,-369.64 799.76,-358.09"/>
<polygon fill="midnightblue" stroke="midnightblue" points="800.7,-361.46 809.47,-355.51 798.9,-354.69 800.7,-361.46"/>
</g>
<!-- Node31&#45;&gt;Node3 -->
<g id="edge65" class="edge">
<title>Node31&#45;&gt;Node3</title>
<path fill="none" stroke="midnightblue" d="M848.52,-336.26C870.3,-309.19 935.61,-228.24 941.5,-224 977.45,-198.08 1004.52,-220.64 1034.5,-188 1046.05,-175.43 1050.61,-156.21 1052.39,-141.93"/>
<polygon fill="midnightblue" stroke="midnightblue" points="1055.9,-142.03 1053.31,-131.75 1048.93,-141.4 1055.9,-142.03"/>
</g>
<!-- Node31&#45;&gt;Node6 -->
<g id="edge67" class="edge">
<title>Node31&#45;&gt;Node6</title>
<path fill="none" stroke="midnightblue" d="M871.44,-336.45C897.85,-328.44 937.06,-315.43 969.5,-300 1027.87,-272.24 1034.09,-249.48 1093.5,-224 1201.61,-177.64 1336.39,-147.85 1412.62,-133.39"/>
<polygon fill="midnightblue" stroke="midnightblue" points="1413.34,-136.81 1422.52,-131.53 1412.05,-129.93 1413.34,-136.81"/>
</g>
<!-- Node31&#45;&gt;Node9 -->
<g id="edge70" class="edge">
<title>Node31&#45;&gt;Node9</title>
<path fill="none" stroke="midnightblue" d="M855.54,-336.38C888.98,-315.97 976.2,-263.42 1051.5,-224 1161.5,-166.42 1296.26,-105.59 1354.46,-79.78"/>
<polygon fill="midnightblue" stroke="midnightblue" points="1356.04,-82.9 1363.77,-75.66 1353.21,-76.5 1356.04,-82.9"/>
</g>
<!-- Node31&#45;&gt;Node10 -->
<g id="edge66" class="edge">
<title>Node31&#45;&gt;Node10</title>
<path fill="none" stroke="midnightblue" d="M883.68,-336.44C916.58,-328.99 963,-316.74 1001.5,-300 1031.31,-287.03 1096.31,-236.06 1126.5,-224 1305.58,-152.48 1429.47,-282.11 1550.5,-132 1591.59,-81.04 1488.82,-41.16 1426.71,-22.52"/>
<polygon fill="midnightblue" stroke="midnightblue" points="1427.32,-19.05 1416.74,-19.6 1425.36,-25.77 1427.32,-19.05"/>
</g>
<!-- Node31&#45;&gt;Node11 -->
<g id="edge72" class="edge">
<title>Node31&#45;&gt;Node11</title>
<path fill="none" stroke="midnightblue" d="M842.93,-336.11C847.84,-304.72 863.09,-199.32 851.5,-168 840.13,-137.26 831.97,-128.24 803.5,-112 774.97,-95.73 695.94,-83.37 633.35,-75.76"/>
<polygon fill="midnightblue" stroke="midnightblue" points="633.4,-72.24 623.06,-74.53 632.57,-79.19 633.4,-72.24"/>
</g>
<!-- Node31&#45;&gt;Node16 -->
<g id="edge62" class="edge">
<title>Node31&#45;&gt;Node16</title>
<path fill="none" stroke="midnightblue" d="M923.68,-339.81C994.63,-333.91 1090.45,-322.08 1121.5,-300 1137.13,-288.88 1146.45,-268.55 1151.49,-253.57"/>
<polygon fill="midnightblue" stroke="midnightblue" points="1154.9,-254.41 1154.44,-243.82 1148.2,-252.38 1154.9,-254.41"/>
</g>
<!-- Node31&#45;&gt;Node17 -->
<g id="edge71" class="edge">
<title>Node31&#45;&gt;Node17</title>
<path fill="none" stroke="midnightblue" d="M830.34,-336.45C812.4,-323.02 775.71,-296.78 741.5,-280 713.11,-266.08 679.31,-254.45 653.43,-246.51"/>
<polygon fill="midnightblue" stroke="midnightblue" points="654.16,-243.07 643.57,-243.54 652.14,-249.77 654.16,-243.07"/>
</g>
<!-- Node31&#45;&gt;Node21 -->
<g id="edge68" class="edge">
<title>Node31&#45;&gt;Node21</title>
<path fill="none" stroke="midnightblue" d="M837.25,-336.08C824.71,-309.72 787.66,-231.88 770.9,-196.66"/>
<polygon fill="midnightblue" stroke="midnightblue" points="774.04,-195.09 766.58,-187.57 767.71,-198.1 774.04,-195.09"/>
</g>
<!-- Node31&#45;&gt;Node23 -->
<g id="edge69" class="edge">
<title>Node31&#45;&gt;Node23</title>
<path fill="none" stroke="midnightblue" d="M844.42,-336.32C851.79,-315.31 872.76,-260.76 903.5,-224 913.57,-211.95 927.44,-201.17 939.19,-193.19"/>
<polygon fill="midnightblue" stroke="midnightblue" points="941.21,-196.05 947.67,-187.65 937.39,-190.18 941.21,-196.05"/>
</g>
<!-- Node31&#45;&gt;Node26 -->
<g id="edge73" class="edge">
<title>Node31&#45;&gt;Node26</title>
<path fill="none" stroke="midnightblue" d="M775.74,-336.44C701.37,-326.77 580.47,-311.04 502.22,-300.85"/>
<polygon fill="midnightblue" stroke="midnightblue" points="502.32,-297.34 491.95,-299.52 501.42,-304.28 502.32,-297.34"/>
</g>
<!-- Node31&#45;&gt;Node27 -->
<g id="edge63" class="edge">
<title>Node31&#45;&gt;Node27</title>
<path fill="none" stroke="midnightblue" d="M820.5,-336.34C800.05,-327.72 768.22,-313.82 741.5,-300 725.93,-291.95 723.89,-286.22 707.5,-280 633.04,-251.72 607.29,-261.74 525.91,-244.15"/>
<polygon fill="midnightblue" stroke="midnightblue" points="526.23,-240.64 515.71,-241.87 524.7,-247.47 526.23,-240.64"/>
</g>
<!-- Node31&#45;&gt;Node30 -->
<g id="edge64" class="edge">
<title>Node31&#45;&gt;Node30</title>
<path fill="none" stroke="midnightblue" d="M814.72,-336.44C786.17,-327.32 740.77,-312.81 708.96,-302.65"/>
<polygon fill="midnightblue" stroke="midnightblue" points="709.74,-299.23 699.15,-299.52 707.61,-305.89 709.74,-299.23"/>
</g>
<!-- Node32&#45;&gt;Node3 -->
<g id="edge78" class="edge">
<title>Node32&#45;&gt;Node3</title>
<path fill="none" stroke="midnightblue" d="M1491.79,-336.47C1474.94,-323.3 1440.91,-297.68 1409.5,-280 1294.96,-215.53 1148.86,-158.36 1085.35,-134.64"/>
<polygon fill="midnightblue" stroke="midnightblue" points="1086.48,-131.32 1075.89,-131.12 1084.05,-137.89 1086.48,-131.32"/>
</g>
<!-- Node32&#45;&gt;Node4 -->
<g id="edge79" class="edge">
<title>Node32&#45;&gt;Node4</title>
<path fill="none" stroke="midnightblue" d="M1539.32,-336.39C1559.51,-329.77 1583.26,-318.52 1597.5,-300 1647.8,-234.58 1645.67,-128.61 1642.4,-85.82"/>
<polygon fill="midnightblue" stroke="midnightblue" points="1645.87,-85.37 1641.51,-75.72 1638.9,-85.99 1645.87,-85.37"/>
</g>
<!-- Node32&#45;&gt;Node7 -->
<g id="edge77" class="edge">
<title>Node32&#45;&gt;Node7</title>
<path fill="none" stroke="midnightblue" d="M1499.19,-336.49C1485.33,-302.07 1428.37,-172.07 1336.5,-112 1281.09,-75.78 1201.98,-67.99 1156.78,-66.73"/>
<polygon fill="midnightblue" stroke="midnightblue" points="1156.65,-63.22 1146.59,-66.54 1156.52,-70.22 1156.65,-63.22"/>
</g>
<!-- Node32&#45;&gt;Node11 -->
<g id="edge82" class="edge">
<title>Node32&#45;&gt;Node11</title>
<path fill="none" stroke="midnightblue" d="M1492.7,-336.48C1451.03,-300.86 1283.17,-163.34 1117.5,-112 1029.57,-84.75 769.59,-73.35 633.59,-69.15"/>
<polygon fill="midnightblue" stroke="midnightblue" points="633.32,-65.64 623.22,-68.84 633.11,-72.64 633.32,-65.64"/>
</g>
<!-- Node32&#45;&gt;Node15 -->
<g id="edge83" class="edge">
<title>Node32&#45;&gt;Node15</title>
<path fill="none" stroke="midnightblue" d="M1468.75,-336.44C1431.98,-327.12 1373.05,-312.18 1332.88,-302"/>
<polygon fill="midnightblue" stroke="midnightblue" points="1333.65,-298.58 1323.09,-299.52 1331.93,-305.37 1333.65,-298.58"/>
</g>
<!-- Node32&#45;&gt;Node17 -->
<g id="edge81" class="edge">
<title>Node32&#45;&gt;Node17</title>
<path fill="none" stroke="midnightblue" d="M1433.4,-336.46C1270.62,-316.34 863.83,-266.06 691.56,-244.77"/>
<polygon fill="midnightblue" stroke="midnightblue" points="691.91,-241.29 681.55,-243.53 691.05,-248.23 691.91,-241.29"/>
</g>
<!-- Node33 -->
<g id="node33" class="node">
<title>Node33</title>
<g id="a_node33"><a xlink:title=" ">
<polygon fill="none" stroke="#bfbfbf" points="1538,-280.5 1538,-299.5 1589,-299.5 1589,-280.5 1538,-280.5"/>
<text text-anchor="middle" x="1563.5" y="-287.5" font-family="Helvetica,sans-Serif" font-size="10.00">variant</text>
</a>
</g>
</g>
<!-- Node32&#45;&gt;Node33 -->
<g id="edge80" class="edge">
<title>Node32&#45;&gt;Node33</title>
<path fill="none" stroke="midnightblue" d="M1512.3,-336.32C1521.32,-328.34 1534.91,-316.31 1545.82,-306.65"/>
<polygon fill="midnightblue" stroke="midnightblue" points="1548.35,-309.08 1553.52,-299.83 1543.71,-303.84 1548.35,-309.08"/>
</g>
<!-- Node34&#45;&gt;Node4 -->
<g id="edge86" class="edge">
<title>Node34&#45;&gt;Node4</title>
<path fill="none" stroke="midnightblue" d="M1739.37,-392.41C1750.5,-371.13 1769.5,-329.21 1769.5,-291 1769.5,-291 1769.5,-291 1769.5,-177 1769.5,-127.35 1713.48,-95.37 1675.27,-79.33"/>
<polygon fill="midnightblue" stroke="midnightblue" points="1676.57,-76.08 1665.99,-75.59 1673.96,-82.57 1676.57,-76.08"/>
</g>
<!-- Node34&#45;&gt;Node6 -->
<g id="edge87" class="edge">
<title>Node34&#45;&gt;Node6</title>
<path fill="none" stroke="midnightblue" d="M1731.5,-392.28C1731.5,-370.48 1731.5,-327.49 1731.5,-291 1731.5,-291 1731.5,-291 1731.5,-233 1731.5,-202.2 1730.99,-187.91 1707.5,-168 1684.32,-148.35 1610.9,-136.47 1552.22,-129.89"/>
<polygon fill="midnightblue" stroke="midnightblue" points="1552.52,-126.4 1542.2,-128.8 1551.76,-133.36 1552.52,-126.4"/>
</g>
<!-- Node34&#45;&gt;Node32 -->
<g id="edge88" class="edge">
<title>Node34&#45;&gt;Node32</title>
<path fill="none" stroke="midnightblue" d="M1677.52,-392.47C1637.15,-381.99 1582.7,-367.84 1545.31,-358.12"/>
<polygon fill="midnightblue" stroke="midnightblue" points="1545.8,-354.63 1535.24,-355.51 1544.04,-361.41 1545.8,-354.63"/>
</g>
</g>
</svg>
