<?xml version="1.0" encoding="UTF-8" standalone="no"?>
<!DOCTYPE svg PUBLIC "-//W3C//DTD SVG 1.1//EN"
 "http://www.w3.org/Graphics/SVG/1.1/DTD/svg11.dtd">
<!-- Generated by graphviz version 2.43.0 (0)
 -->
<!-- Title: /home/runner/work/open62541pp/open62541pp/include/open62541pp/detail/open62541/server.h Pages: 1 -->
<svg width="263pt" height="280pt"
 viewBox="0.00 0.00 263.00 280.00" xmlns="http://www.w3.org/2000/svg" xmlns:xlink="http://www.w3.org/1999/xlink">
<g id="graph0" class="graph" transform="scale(1 1) rotate(0) translate(4 276)">
<title>/home/runner/work/open62541pp/open62541pp/include/open62541pp/detail/open62541/server.h</title>
<!-- Node1 -->
<g id="Node000001" class="node">
<title>Node1</title>
<g id="a_Node000001"><a xlink:title=" ">
<polygon fill="#999999" stroke="#666666" points="255,-272 62,-272 62,-231 255,-231 255,-272"/>
<text text-anchor="start" x="70" y="-260" font-family="Helvetica,sans-Serif" font-size="10.00">/home/runner/work/open62541pp</text>
<text text-anchor="start" x="70" y="-249" font-family="Helvetica,sans-Serif" font-size="10.00">/open62541pp/include/open62541pp</text>
<text text-anchor="middle" x="158.5" y="-238" font-family="Helvetica,sans-Serif" font-size="10.00">/detail/open62541/server.h</text>
</a>
</g>
</g>
<!-- Node2 -->
<g id="Node000002" class="node">
<title>Node2</title>
<g id="a_Node000002"><a xlink:href="server__utils_8hpp.html" target="_top" xlink:title=" ">
<polygon fill="white" stroke="#666666" points="193,-195 0,-195 0,-154 193,-154 193,-195"/>
<text text-anchor="start" x="8" y="-183" font-family="Helvetica,sans-Serif" font-size="10.00">/home/runner/work/open62541pp</text>
<text text-anchor="start" x="8" y="-172" font-family="Helvetica,sans-Serif" font-size="10.00">/open62541pp/include/open62541pp</text>
<text text-anchor="middle" x="96.5" y="-161" font-family="Helvetica,sans-Serif" font-size="10.00">/detail/server_utils.hpp</text>
</a>
</g>
</g>
<!-- Node1&#45;&gt;Node2 -->
<g id="edge1_Node000001_Node000002" class="edge">
<title>Node1&#45;&gt;Node2</title>
<g id="a_edge1_Node000001_Node000002"><a xlink:title=" ">
<path fill="none" stroke="#63b8ff" d="M135.73,-222.95C128.08,-213.7 119.72,-203.58 112.68,-195.07"/>
<polygon fill="#63b8ff" stroke="#63b8ff" points="133.14,-225.32 142.21,-230.79 138.54,-220.86 133.14,-225.32"/>
</a>
</g>
</g>
<!-- Node3 -->
<g id="Node000003" class="node">
<title>Node3</title>
<g id="a_Node000003"><a xlink:href="server_8hpp.html" target="_top" xlink:title=" ">
<polygon fill="white" stroke="#666666" points="255,-118 62,-118 62,-77 255,-77 255,-118"/>
<text text-anchor="start" x="70" y="-106" font-family="Helvetica,sans-Serif" font-size="10.00">/home/runner/work/open62541pp</text>
<text text-anchor="start" x="70" y="-95" font-family="Helvetica,sans-Serif" font-size="10.00">/open62541pp/include/open62541pp</text>
<text text-anchor="middle" x="158.5" y="-84" font-family="Helvetica,sans-Serif" font-size="10.00">/server.hpp</text>
</a>
</g>
</g>
<!-- Node1&#45;&gt;Node3 -->
<g id="edge4_Node000001_Node000003" class="edge">
<title>Node1&#45;&gt;Node3</title>
<g id="a_edge4_Node000001_Node000003"><a xlink:title=" ">
<path fill="none" stroke="#63b8ff" d="M185.9,-223.34C192.64,-214.95 198.94,-205.21 202.5,-195 208.49,-177.79 208.49,-171.21 202.5,-154 197.81,-140.53 188.33,-127.87 179.38,-118.06"/>
<polygon fill="#63b8ff" stroke="#63b8ff" points="183.23,-221.08 179.38,-230.94 188.54,-225.63 183.23,-221.08"/>
</a>
</g>
</g>
<!-- Node2&#45;&gt;Node3 -->
<g id="edge2_Node000002_Node000003" class="edge">
<title>Node2&#45;&gt;Node3</title>
<g id="a_edge2_Node000002_Node000003"><a xlink:title=" ">
<path fill="none" stroke="#63b8ff" d="M119.27,-145.95C126.92,-136.7 135.28,-126.58 142.32,-118.07"/>
<polygon fill="#63b8ff" stroke="#63b8ff" points="116.46,-143.86 112.79,-153.79 121.86,-148.32 116.46,-143.86"/>
</a>
</g>
</g>
<!-- Node4 -->
<g id="Node000004" class="node">
<title>Node4</title>
<g id="a_Node000004"><a xlink:href="open62541pp_8hpp.html" target="_top" xlink:title=" ">
<polygon fill="white" stroke="#666666" points="255,-41 62,-41 62,0 255,0 255,-41"/>
<text text-anchor="start" x="70" y="-29" font-family="Helvetica,sans-Serif" font-size="10.00">/home/runner/work/open62541pp</text>
<text text-anchor="start" x="70" y="-18" font-family="Helvetica,sans-Serif" font-size="10.00">/open62541pp/include/open62541pp</text>
<text text-anchor="middle" x="158.5" y="-7" font-family="Helvetica,sans-Serif" font-size="10.00">/open62541pp.hpp</text>
</a>
</g>
</g>
<!-- Node3&#45;&gt;Node4 -->
<g id="edge3_Node000003_Node000004" class="edge">
<title>Node3&#45;&gt;Node4</title>
<g id="a_edge3_Node000003_Node000004"><a xlink:title=" ">
<path fill="none" stroke="#63b8ff" d="M158.5,-66.69C158.5,-58.08 158.5,-48.9 158.5,-41.07"/>
<polygon fill="#63b8ff" stroke="#63b8ff" points="155,-66.79 158.5,-76.79 162,-66.79 155,-66.79"/>
</a>
</g>
</g>
</g>
</svg>
