<?xml version="1.0" encoding="UTF-8" standalone="no"?>
<!DOCTYPE svg PUBLIC "-//W3C//DTD SVG 1.1//EN"
 "http://www.w3.org/Graphics/SVG/1.1/DTD/svg11.dtd">
<!-- Generated by graphviz version 2.43.0 (0)
 -->
<!-- Title: /home/runner/work/open62541pp/open62541pp/include/open62541pp/services/MonitoredItem.h Pages: 1 -->
<svg width="1442pt" height="533pt"
 viewBox="0.00 0.00 1441.50 533.00" xmlns="http://www.w3.org/2000/svg" xmlns:xlink="http://www.w3.org/1999/xlink">
<g id="graph0" class="graph" transform="scale(1 1) rotate(0) translate(4 529)">
<title>/home/runner/work/open62541pp/open62541pp/include/open62541pp/services/MonitoredItem.h</title>
<!-- Node1 -->
<g id="Node000001" class="node">
<title>Node1</title>
<g id="a_Node000001"><a xlink:title=" ">
<polygon fill="#999999" stroke="#666666" points="357.5,-525 164.5,-525 164.5,-484 357.5,-484 357.5,-525"/>
<text text-anchor="start" x="172.5" y="-513" font-family="Helvetica,sans-Serif" font-size="10.00">/home/runner/work/open62541pp</text>
<text text-anchor="start" x="172.5" y="-502" font-family="Helvetica,sans-Serif" font-size="10.00">/open62541pp/include/open62541pp</text>
<text text-anchor="middle" x="261" y="-491" font-family="Helvetica,sans-Serif" font-size="10.00">/services/MonitoredItem.h</text>
</a>
</g>
</g>
<!-- Node2 -->
<g id="Node000002" class="node">
<title>Node2</title>
<g id="a_Node000002"><a xlink:title=" ">
<polygon fill="#e0e0e0" stroke="#999999" points="74,-79.5 24,-79.5 24,-60.5 74,-60.5 74,-79.5"/>
<text text-anchor="middle" x="49" y="-67.5" font-family="Helvetica,sans-Serif" font-size="10.00">cstdint</text>
</a>
</g>
</g>
<!-- Node1&#45;&gt;Node2 -->
<g id="edge1_Node000001_Node000002" class="edge">
<title>Node1&#45;&gt;Node2</title>
<g id="a_edge1_Node000001_Node000002"><a xlink:title=" ">
<path fill="none" stroke="#63b8ff" d="M164.18,-494.21C89.91,-481.12 0,-449.56 0,-373.5 0,-373.5 0,-373.5 0,-190 0,-151.29 22.44,-110.47 36.95,-88.13"/>
<polygon fill="#63b8ff" stroke="#63b8ff" points="39.91,-90 42.59,-79.74 34.11,-86.09 39.91,-90"/>
</a>
</g>
</g>
<!-- Node3 -->
<g id="Node000003" class="node">
<title>Node3</title>
<g id="a_Node000003"><a xlink:title=" ">
<polygon fill="#e0e0e0" stroke="#999999" points="673.5,-442.5 608.5,-442.5 608.5,-423.5 673.5,-423.5 673.5,-442.5"/>
<text text-anchor="middle" x="641" y="-430.5" font-family="Helvetica,sans-Serif" font-size="10.00">functional</text>
</a>
</g>
</g>
<!-- Node1&#45;&gt;Node3 -->
<g id="edge2_Node000001_Node000003" class="edge">
<title>Node1&#45;&gt;Node3</title>
<g id="a_edge2_Node000001_Node000003"><a xlink:title=" ">
<path fill="none" stroke="#63b8ff" d="M357.8,-490.61C424.59,-480.93 515.2,-466.23 594,-448 597.42,-447.21 600.96,-446.31 604.49,-445.36"/>
<polygon fill="#63b8ff" stroke="#63b8ff" points="605.64,-448.67 614.31,-442.58 603.74,-441.93 605.64,-448.67"/>
</a>
</g>
</g>
<!-- Node4 -->
<g id="Node000004" class="node">
<title>Node4</title>
<g id="a_Node000004"><a xlink:title=" ">
<polygon fill="#e0e0e0" stroke="#999999" points="203.5,-321.5 156.5,-321.5 156.5,-302.5 203.5,-302.5 203.5,-321.5"/>
<text text-anchor="middle" x="180" y="-309.5" font-family="Helvetica,sans-Serif" font-size="10.00">vector</text>
</a>
</g>
</g>
<!-- Node1&#45;&gt;Node4 -->
<g id="edge3_Node000001_Node000004" class="edge">
<title>Node1&#45;&gt;Node4</title>
<g id="a_edge3_Node000001_Node000004"><a xlink:title=" ">
<path fill="none" stroke="#63b8ff" d="M252.64,-483.83C236.89,-446.79 203.03,-367.17 187.76,-331.25"/>
<polygon fill="#63b8ff" stroke="#63b8ff" points="190.79,-329.43 183.66,-321.6 184.35,-332.17 190.79,-329.43"/>
</a>
</g>
</g>
<!-- Node5 -->
<g id="Node000005" class="node">
<title>Node5</title>
<g id="a_Node000005"><a xlink:href="Common_8h.html" target="_top" xlink:title=" ">
<polygon fill="white" stroke="#666666" points="281.5,-140 142.5,-140 142.5,-121 281.5,-121 281.5,-140"/>
<text text-anchor="middle" x="212" y="-128" font-family="Helvetica,sans-Serif" font-size="10.00">open62541pp/Common.h</text>
</a>
</g>
</g>
<!-- Node1&#45;&gt;Node5 -->
<g id="edge4_Node000001_Node000005" class="edge">
<title>Node1&#45;&gt;Node5</title>
<g id="a_edge4_Node000001_Node000005"><a xlink:title=" ">
<path fill="none" stroke="#63b8ff" d="M218.55,-483.96C179.63,-462.79 128,-425 128,-373.5 128,-373.5 128,-373.5 128,-250.5 128,-206.39 167,-167.14 191.85,-146.61"/>
<polygon fill="#63b8ff" stroke="#63b8ff" points="194.32,-149.12 199.96,-140.15 189.96,-143.64 194.32,-149.12"/>
</a>
</g>
</g>
<!-- Node15 -->
<g id="Node000015" class="node">
<title>Node15</title>
<g id="a_Node000015"><a xlink:href="Config_8h.html" target="_top" xlink:title=" ">
<polygon fill="white" stroke="#666666" points="1433.5,-382 1308.5,-382 1308.5,-363 1433.5,-363 1433.5,-382"/>
<text text-anchor="middle" x="1371" y="-370" font-family="Helvetica,sans-Serif" font-size="10.00">open62541pp/Config.h</text>
</a>
</g>
</g>
<!-- Node1&#45;&gt;Node15 -->
<g id="edge16_Node000001_Node000015" class="edge">
<title>Node1&#45;&gt;Node15</title>
<g id="a_edge16_Node000001_Node000015"><a xlink:title=" ">
<path fill="none" stroke="#63b8ff" d="M357.65,-497.24C418.2,-490.54 496.66,-476.68 561,-448 580.97,-439.1 579.49,-425.58 600,-418 744.87,-364.5 1140.08,-394.48 1294,-382 1295.47,-381.88 1296.95,-381.76 1298.44,-381.63"/>
<polygon fill="#63b8ff" stroke="#63b8ff" points="1298.77,-385.11 1308.41,-380.72 1298.14,-378.14 1298.77,-385.11"/>
</a>
</g>
</g>
<!-- Node16 -->
<g id="Node000016" class="node">
<title>Node16</title>
<g id="a_Node000016"><a xlink:href="ExtensionObject_8h.html" target="_top" xlink:title=" ">
<polygon fill="white" stroke="#666666" points="552,-448 388,-448 388,-418 552,-418 552,-448"/>
<text text-anchor="start" x="396" y="-436" font-family="Helvetica,sans-Serif" font-size="10.00">open62541pp/types/Extension</text>
<text text-anchor="middle" x="470" y="-425" font-family="Helvetica,sans-Serif" font-size="10.00">Object.h</text>
</a>
</g>
</g>
<!-- Node1&#45;&gt;Node16 -->
<g id="edge18_Node000001_Node000016" class="edge">
<title>Node1&#45;&gt;Node16</title>
<g id="a_edge18_Node000001_Node000016"><a xlink:title=" ">
<path fill="none" stroke="#63b8ff" d="M319.77,-483.96C350.69,-473.68 388.26,-461.18 418.09,-451.26"/>
<polygon fill="#63b8ff" stroke="#63b8ff" points="419.5,-454.48 427.89,-448 417.29,-447.84 419.5,-454.48"/>
</a>
</g>
</g>
<!-- Node5&#45;&gt;Node2 -->
<g id="edge5_Node000005_Node000002" class="edge">
<title>Node5&#45;&gt;Node2</title>
<g id="a_edge5_Node000005_Node000002"><a xlink:title=" ">
<path fill="none" stroke="#63b8ff" d="M188.3,-120.99C160.41,-110.99 113.93,-94.3 82.4,-82.99"/>
<polygon fill="#63b8ff" stroke="#63b8ff" points="83.32,-79.6 72.73,-79.52 80.96,-86.19 83.32,-79.6"/>
</a>
</g>
</g>
<!-- Node6 -->
<g id="Node000006" class="node">
<title>Node6</title>
<g id="a_Node000006"><a xlink:title=" ">
<polygon fill="#e0e0e0" stroke="#999999" points="383.5,-79.5 310.5,-79.5 310.5,-60.5 383.5,-60.5 383.5,-79.5"/>
<text text-anchor="middle" x="347" y="-67.5" font-family="Helvetica,sans-Serif" font-size="10.00">string_view</text>
</a>
</g>
</g>
<!-- Node5&#45;&gt;Node6 -->
<g id="edge6_Node000005_Node000006" class="edge">
<title>Node5&#45;&gt;Node6</title>
<g id="a_edge6_Node000005_Node000006"><a xlink:title=" ">
<path fill="none" stroke="#63b8ff" d="M231.63,-120.99C254.33,-111.16 291.9,-94.88 317.97,-83.58"/>
<polygon fill="#63b8ff" stroke="#63b8ff" points="319.56,-86.7 327.35,-79.52 316.78,-80.28 319.56,-86.7"/>
</a>
</g>
</g>
<!-- Node7 -->
<g id="Node000007" class="node">
<title>Node7</title>
<g id="a_Node000007"><a xlink:title=" ">
<polygon fill="#e0e0e0" stroke="#999999" points="202.5,-19 161.5,-19 161.5,0 202.5,0 202.5,-19"/>
<text text-anchor="middle" x="182" y="-7" font-family="Helvetica,sans-Serif" font-size="10.00">tuple</text>
</a>
</g>
</g>
<!-- Node5&#45;&gt;Node7 -->
<g id="edge7_Node000005_Node000007" class="edge">
<title>Node5&#45;&gt;Node7</title>
<g id="a_edge7_Node000005_Node000007"><a xlink:title=" ">
<path fill="none" stroke="#63b8ff" d="M215.35,-120.93C220.36,-106.74 228.37,-77.7 220,-55 215.94,-43.99 207.81,-33.86 200.1,-26.05"/>
<polygon fill="#63b8ff" stroke="#63b8ff" points="202.39,-23.39 192.71,-19.07 197.58,-28.48 202.39,-23.39"/>
</a>
</g>
</g>
<!-- Node8 -->
<g id="Node000008" class="node">
<title>Node8</title>
<g id="a_Node000008"><a xlink:href="traits_8h.html" target="_top" xlink:title=" ">
<polygon fill="white" stroke="#666666" points="210.5,-85 97.5,-85 97.5,-55 210.5,-55 210.5,-85"/>
<text text-anchor="start" x="105.5" y="-73" font-family="Helvetica,sans-Serif" font-size="10.00">open62541pp/detail</text>
<text text-anchor="middle" x="154" y="-62" font-family="Helvetica,sans-Serif" font-size="10.00">/traits.h</text>
</a>
</g>
</g>
<!-- Node5&#45;&gt;Node8 -->
<g id="edge8_Node000005_Node000008" class="edge">
<title>Node5&#45;&gt;Node8</title>
<g id="a_edge8_Node000005_Node000008"><a xlink:title=" ">
<path fill="none" stroke="#63b8ff" d="M203.44,-120.87C196.01,-113.37 184.93,-102.2 175.14,-92.33"/>
<polygon fill="#63b8ff" stroke="#63b8ff" points="177.52,-89.75 167.99,-85.11 172.55,-94.68 177.52,-89.75"/>
</a>
</g>
</g>
<!-- Node10 -->
<g id="Node000010" class="node">
<title>Node10</title>
<g id="a_Node000010"><a xlink:href="open62541_8h.html" target="_top" xlink:title=" ">
<polygon fill="white" stroke="#666666" points="989.5,-79.5 840.5,-79.5 840.5,-60.5 989.5,-60.5 989.5,-79.5"/>
<text text-anchor="middle" x="915" y="-67.5" font-family="Helvetica,sans-Serif" font-size="10.00">open62541pp/open62541.h</text>
</a>
</g>
</g>
<!-- Node5&#45;&gt;Node10 -->
<g id="edge11_Node000005_Node000010" class="edge">
<title>Node5&#45;&gt;Node10</title>
<g id="a_edge11_Node000005_Node000010"><a xlink:title=" ">
<path fill="none" stroke="#63b8ff" d="M281.65,-123.7C411.42,-112.91 689.73,-89.75 830.2,-78.06"/>
<polygon fill="#63b8ff" stroke="#63b8ff" points="830.8,-81.52 840.48,-77.2 830.22,-74.54 830.8,-81.52"/>
</a>
</g>
</g>
<!-- Node8&#45;&gt;Node7 -->
<g id="edge9_Node000008_Node000007" class="edge">
<title>Node8&#45;&gt;Node7</title>
<g id="a_edge9_Node000008_Node000007"><a xlink:title=" ">
<path fill="none" stroke="#63b8ff" d="M160.78,-54.84C164.59,-46.87 169.39,-36.84 173.46,-28.33"/>
<polygon fill="#63b8ff" stroke="#63b8ff" points="176.64,-29.8 177.8,-19.27 170.33,-26.77 176.64,-29.8"/>
</a>
</g>
</g>
<!-- Node9 -->
<g id="Node000009" class="node">
<title>Node9</title>
<g id="a_Node000009"><a xlink:title=" ">
<polygon fill="#e0e0e0" stroke="#999999" points="316.5,-19 247.5,-19 247.5,0 316.5,0 316.5,-19"/>
<text text-anchor="middle" x="282" y="-7" font-family="Helvetica,sans-Serif" font-size="10.00">type_traits</text>
</a>
</g>
</g>
<!-- Node8&#45;&gt;Node9 -->
<g id="edge10_Node000008_Node000009" class="edge">
<title>Node8&#45;&gt;Node9</title>
<g id="a_edge10_Node000008_Node000009"><a xlink:title=" ">
<path fill="none" stroke="#63b8ff" d="M184.66,-54.99C205.73,-45.36 233.49,-32.67 253.97,-23.31"/>
<polygon fill="#63b8ff" stroke="#63b8ff" points="255.46,-26.48 263.1,-19.14 252.55,-20.11 255.46,-26.48"/>
</a>
</g>
</g>
<!-- Node11 -->
<g id="Node000011" class="node">
<title>Node11</title>
<g id="a_Node000011"><a target="_blank" xlink:href="open62541/config_8h.html" xlink:title=" ">
<polygon fill="white" stroke="#666666" points="1049,-19 937,-19 937,0 1049,0 1049,-19"/>
<text text-anchor="middle" x="993" y="-7" font-family="Helvetica,sans-Serif" font-size="10.00">open62541/config.h</text>
</a>
</g>
</g>
<!-- Node10&#45;&gt;Node11 -->
<g id="edge12_Node000010_Node000011" class="edge">
<title>Node10&#45;&gt;Node11</title>
<g id="a_edge12_Node000010_Node000011"><a xlink:title=" ">
<path fill="none" stroke="#63b8ff" d="M926.51,-60.37C938.84,-51.12 958.62,-36.28 973.41,-25.19"/>
<polygon fill="#63b8ff" stroke="#63b8ff" points="975.54,-27.97 981.44,-19.17 971.34,-22.37 975.54,-27.97"/>
</a>
</g>
</g>
<!-- Node12 -->
<g id="Node000012" class="node">
<title>Node12</title>
<g id="a_Node000012"><a target="_blank" xlink:href="open62541/nodeids_8h.html" xlink:title=" ">
<polygon fill="white" stroke="#666666" points="1188.5,-19 1067.5,-19 1067.5,0 1188.5,0 1188.5,-19"/>
<text text-anchor="middle" x="1128" y="-7" font-family="Helvetica,sans-Serif" font-size="10.00">open62541/nodeids.h</text>
</a>
</g>
</g>
<!-- Node10&#45;&gt;Node12 -->
<g id="edge13_Node000010_Node000012" class="edge">
<title>Node10&#45;&gt;Node12</title>
<g id="a_edge13_Node000010_Node000012"><a xlink:title=" ">
<path fill="none" stroke="#63b8ff" d="M945.97,-60.49C983.28,-50.25 1046.06,-33 1087.27,-21.69"/>
<polygon fill="#63b8ff" stroke="#63b8ff" points="1088.27,-25.04 1096.99,-19.02 1086.42,-18.29 1088.27,-25.04"/>
</a>
</g>
</g>
<!-- Node13 -->
<g id="Node000013" class="node">
<title>Node13</title>
<g id="a_Node000013"><a target="_blank" xlink:href="open62541/types_8h.html" xlink:title=" ">
<polygon fill="white" stroke="#666666" points="737,-19 627,-19 627,0 737,0 737,-19"/>
<text text-anchor="middle" x="682" y="-7" font-family="Helvetica,sans-Serif" font-size="10.00">open62541/types.h</text>
</a>
</g>
</g>
<!-- Node10&#45;&gt;Node13 -->
<g id="edge14_Node000010_Node000013" class="edge">
<title>Node10&#45;&gt;Node13</title>
<g id="a_edge14_Node000010_Node000013"><a xlink:title=" ">
<path fill="none" stroke="#63b8ff" d="M881.12,-60.49C840.05,-50.18 770.76,-32.78 725.7,-21.47"/>
<polygon fill="#63b8ff" stroke="#63b8ff" points="726.47,-18.06 715.92,-19.02 724.77,-24.85 726.47,-18.06"/>
</a>
</g>
</g>
<!-- Node14 -->
<g id="Node000014" class="node">
<title>Node14</title>
<g id="a_Node000014"><a target="_blank" xlink:href="open62541/types__generated_8h.html" xlink:title=" ">
<polygon fill="white" stroke="#666666" points="919,-19 755,-19 755,0 919,0 919,-19"/>
<text text-anchor="middle" x="837" y="-7" font-family="Helvetica,sans-Serif" font-size="10.00">open62541/types_generated.h</text>
</a>
</g>
</g>
<!-- Node10&#45;&gt;Node14 -->
<g id="edge15_Node000010_Node000014" class="edge">
<title>Node10&#45;&gt;Node14</title>
<g id="a_edge15_Node000010_Node000014"><a xlink:title=" ">
<path fill="none" stroke="#63b8ff" d="M903.49,-60.37C891.16,-51.12 871.38,-36.28 856.59,-25.19"/>
<polygon fill="#63b8ff" stroke="#63b8ff" points="858.66,-22.37 848.56,-19.17 854.46,-27.97 858.66,-22.37"/>
</a>
</g>
</g>
<!-- Node15&#45;&gt;Node10 -->
<g id="edge17_Node000015_Node000010" class="edge">
<title>Node15&#45;&gt;Node10</title>
<g id="a_edge17_Node000015_Node000010"><a xlink:title=" ">
<path fill="none" stroke="#63b8ff" d="M1367.81,-362.98C1360.87,-343.64 1345,-294.79 1345,-252.5 1345,-252.5 1345,-252.5 1345,-190 1345,-151.87 1326.85,-140.37 1294,-121 1245.68,-92.51 1095.96,-79.85 999.79,-74.53"/>
<polygon fill="#63b8ff" stroke="#63b8ff" points="999.97,-71.03 989.79,-73.99 999.59,-78.02 999.97,-71.03"/>
</a>
</g>
</g>
<!-- Node16&#45;&gt;Node10 -->
<g id="edge63_Node000016_Node000010" class="edge">
<title>Node16&#45;&gt;Node10</title>
<g id="a_edge63_Node000016_Node000010"><a xlink:title=" ">
<path fill="none" stroke="#63b8ff" d="M552.42,-418.67C553.96,-418.44 555.49,-418.22 557,-418 637.34,-406.35 1280,-394.18 1280,-313 1280,-313 1280,-313 1280,-190 1280,-130.76 1104,-96.41 996.43,-80.95"/>
<polygon fill="#63b8ff" stroke="#63b8ff" points="996.63,-77.44 986.24,-79.51 995.66,-84.38 996.63,-77.44"/>
</a>
</g>
</g>
<!-- Node17 -->
<g id="Node000017" class="node">
<title>Node17</title>
<g id="a_Node000017"><a xlink:title=" ">
<polygon fill="#e0e0e0" stroke="#999999" points="803,-382 747,-382 747,-363 803,-363 803,-382"/>
<text text-anchor="middle" x="775" y="-370" font-family="Helvetica,sans-Serif" font-size="10.00">optional</text>
</a>
</g>
</g>
<!-- Node16&#45;&gt;Node17 -->
<g id="edge19_Node000016_Node000017" class="edge">
<title>Node16&#45;&gt;Node17</title>
<g id="a_edge19_Node000016_Node000017"><a xlink:title=" ">
<path fill="none" stroke="#63b8ff" d="M549.91,-417.98C600.78,-408.85 668.3,-396.35 736.66,-382.21"/>
<polygon fill="#63b8ff" stroke="#63b8ff" points="737.67,-385.58 746.74,-380.12 736.24,-378.73 737.67,-385.58"/>
</a>
</g>
</g>
<!-- Node18 -->
<g id="Node000018" class="node">
<title>Node18</title>
<g id="a_Node000018"><a xlink:href="TypeConverter_8h.html" target="_top" xlink:title=" ">
<polygon fill="white" stroke="#666666" points="729,-382 565,-382 565,-363 729,-363 729,-382"/>
<text text-anchor="middle" x="647" y="-370" font-family="Helvetica,sans-Serif" font-size="10.00">open62541pp/TypeConverter.h</text>
</a>
</g>
</g>
<!-- Node16&#45;&gt;Node18 -->
<g id="edge20_Node000016_Node000018" class="edge">
<title>Node16&#45;&gt;Node18</title>
<g id="a_edge20_Node000016_Node000018"><a xlink:title=" ">
<path fill="none" stroke="#63b8ff" d="M512.4,-417.99C542.68,-407.98 582.95,-394.67 611.53,-385.22"/>
<polygon fill="#63b8ff" stroke="#63b8ff" points="612.72,-388.52 621.12,-382.05 610.53,-381.87 612.72,-388.52"/>
</a>
</g>
</g>
<!-- Node25 -->
<g id="Node000025" class="node">
<title>Node25</title>
<g id="a_Node000025"><a xlink:href="TypeWrapper_8h.html" target="_top" xlink:title=" ">
<polygon fill="white" stroke="#666666" points="578,-261 420,-261 420,-242 578,-242 578,-261"/>
<text text-anchor="middle" x="499" y="-249" font-family="Helvetica,sans-Serif" font-size="10.00">open62541pp/TypeWrapper.h</text>
</a>
</g>
</g>
<!-- Node16&#45;&gt;Node25 -->
<g id="edge62_Node000016_Node000025" class="edge">
<title>Node16&#45;&gt;Node25</title>
<g id="a_edge62_Node000016_Node000025"><a xlink:title=" ">
<path fill="none" stroke="#63b8ff" d="M433.97,-417.91C380.32,-394.86 289.62,-346.65 328,-297 340.22,-281.19 384.28,-269.95 424.61,-262.72"/>
<polygon fill="#63b8ff" stroke="#63b8ff" points="425.23,-266.17 434.49,-261.01 424.04,-259.27 425.23,-266.17"/>
</a>
</g>
</g>
<!-- Node18&#45;&gt;Node4 -->
<g id="edge26_Node000018_Node000004" class="edge">
<title>Node18&#45;&gt;Node4</title>
<g id="a_edge26_Node000018_Node000004"><a xlink:title=" ">
<path fill="none" stroke="#63b8ff" d="M564.96,-369.06C477.87,-365.07 336.71,-354.57 218,-327 215.33,-326.38 212.59,-325.62 209.87,-324.79"/>
<polygon fill="#63b8ff" stroke="#63b8ff" points="210.82,-321.41 200.22,-321.51 208.57,-328.04 210.82,-321.41"/>
</a>
</g>
</g>
<!-- Node18&#45;&gt;Node5 -->
<g id="edge27_Node000018_Node000005" class="edge">
<title>Node18&#45;&gt;Node5</title>
<g id="a_edge27_Node000018_Node000005"><a xlink:title=" ">
<path fill="none" stroke="#63b8ff" d="M564.91,-369.98C498.99,-366.43 405.03,-356.08 328,-327 278.18,-308.19 256.07,-306.25 228,-261 206.68,-226.62 207.32,-177.19 209.65,-150.44"/>
<polygon fill="#63b8ff" stroke="#63b8ff" points="213.17,-150.48 210.74,-140.17 206.21,-149.75 213.17,-150.48"/>
</a>
</g>
</g>
<!-- Node18&#45;&gt;Node8 -->
<g id="edge49_Node000018_Node000008" class="edge">
<title>Node18&#45;&gt;Node8</title>
<g id="a_edge49_Node000018_Node000008"><a xlink:title=" ">
<path fill="none" stroke="#63b8ff" d="M564.92,-370.25C465.78,-367.37 306.07,-357.91 256,-327 171.56,-274.88 162.28,-235.12 134,-140 129.45,-124.7 134.45,-107.46 140.58,-94.04"/>
<polygon fill="#63b8ff" stroke="#63b8ff" points="143.75,-95.53 145.13,-85.02 137.5,-92.38 143.75,-95.53"/>
</a>
</g>
</g>
<!-- Node18&#45;&gt;Node9 -->
<g id="edge25_Node000018_Node000009" class="edge">
<title>Node18&#45;&gt;Node9</title>
<g id="a_edge25_Node000018_Node000009"><a xlink:title=" ">
<path fill="none" stroke="#63b8ff" d="M605.15,-362.92C549.81,-349.68 452.06,-319.43 390,-261 319.75,-194.86 292.91,-75.34 284.88,-29.29"/>
<polygon fill="#63b8ff" stroke="#63b8ff" points="288.31,-28.54 283.23,-19.24 281.4,-29.68 288.31,-28.54"/>
</a>
</g>
</g>
<!-- Node18&#45;&gt;Node10 -->
<g id="edge50_Node000018_Node000010" class="edge">
<title>Node18&#45;&gt;Node10</title>
<g id="a_edge50_Node000018_Node000010"><a xlink:title=" ">
<path fill="none" stroke="#63b8ff" d="M726.19,-362.98C816.15,-352.96 953.46,-336.49 976,-327 996.14,-318.52 1121.42,-225.64 1131,-206 1165.24,-135.83 1049.49,-98.23 974.37,-81.66"/>
<polygon fill="#63b8ff" stroke="#63b8ff" points="975.02,-78.22 964.51,-79.55 973.56,-85.06 975.02,-78.22"/>
</a>
</g>
</g>
<!-- Node19 -->
<g id="Node000019" class="node">
<title>Node19</title>
<g id="a_Node000019"><a xlink:title=" ">
<polygon fill="#e0e0e0" stroke="#999999" points="1078,-321.5 1036,-321.5 1036,-302.5 1078,-302.5 1078,-321.5"/>
<text text-anchor="middle" x="1057" y="-309.5" font-family="Helvetica,sans-Serif" font-size="10.00">array</text>
</a>
</g>
</g>
<!-- Node18&#45;&gt;Node19 -->
<g id="edge21_Node000018_Node000019" class="edge">
<title>Node18&#45;&gt;Node19</title>
<g id="a_edge21_Node000018_Node000019"><a xlink:title=" ">
<path fill="none" stroke="#63b8ff" d="M728.39,-362.99C830.11,-352.17 994.28,-334.06 1022,-327 1024.16,-326.45 1026.37,-325.8 1028.58,-325.08"/>
<polygon fill="#63b8ff" stroke="#63b8ff" points="1029.85,-328.34 1038.05,-321.63 1027.45,-321.76 1029.85,-328.34"/>
</a>
</g>
</g>
<!-- Node20 -->
<g id="Node000020" class="node">
<title>Node20</title>
<g id="a_Node000020"><a xlink:title=" ">
<polygon fill="#e0e0e0" stroke="#999999" points="866,-261 816,-261 816,-242 866,-242 866,-261"/>
<text text-anchor="middle" x="841" y="-249" font-family="Helvetica,sans-Serif" font-size="10.00">chrono</text>
</a>
</g>
</g>
<!-- Node18&#45;&gt;Node20 -->
<g id="edge22_Node000018_Node000020" class="edge">
<title>Node18&#45;&gt;Node20</title>
<g id="a_edge22_Node000018_Node000020"><a xlink:title=" ">
<path fill="none" stroke="#63b8ff" d="M669.03,-362.89C688.95,-354.73 718.76,-341.59 743,-327 772.85,-309.03 804.43,-283.73 823.42,-267.73"/>
<polygon fill="#63b8ff" stroke="#63b8ff" points="825.87,-270.24 831.22,-261.09 821.33,-264.91 825.87,-270.24"/>
</a>
</g>
</g>
<!-- Node21 -->
<g id="Node000021" class="node">
<title>Node21</title>
<g id="a_Node000021"><a xlink:title=" ">
<polygon fill="#e0e0e0" stroke="#999999" points="389.5,-321.5 336.5,-321.5 336.5,-302.5 389.5,-302.5 389.5,-321.5"/>
<text text-anchor="middle" x="363" y="-309.5" font-family="Helvetica,sans-Serif" font-size="10.00">iterator</text>
</a>
</g>
</g>
<!-- Node18&#45;&gt;Node21 -->
<g id="edge23_Node000018_Node000021" class="edge">
<title>Node18&#45;&gt;Node21</title>
<g id="a_edge23_Node000018_Node000021"><a xlink:title=" ">
<path fill="none" stroke="#63b8ff" d="M586.54,-362.97C537.04,-355.39 465.42,-343.02 404,-327 401.36,-326.31 398.65,-325.54 395.93,-324.72"/>
<polygon fill="#63b8ff" stroke="#63b8ff" points="396.83,-321.33 386.23,-321.6 394.68,-327.99 396.83,-321.33"/>
</a>
</g>
</g>
<!-- Node22 -->
<g id="Node000022" class="node">
<title>Node22</title>
<g id="a_Node000022"><a xlink:title=" ">
<polygon fill="#e0e0e0" stroke="#999999" points="934,-140 890,-140 890,-121 934,-121 934,-140"/>
<text text-anchor="middle" x="912" y="-128" font-family="Helvetica,sans-Serif" font-size="10.00">string</text>
</a>
</g>
</g>
<!-- Node18&#45;&gt;Node22 -->
<g id="edge24_Node000018_Node000022" class="edge">
<title>Node18&#45;&gt;Node22</title>
<g id="a_edge24_Node000018_Node000022"><a xlink:title=" ">
<path fill="none" stroke="#63b8ff" d="M702.47,-362.98C751.12,-354.74 817.49,-341.42 840,-327 871.21,-307 876.25,-295.01 891,-261 907.04,-224.04 910.94,-176.32 911.82,-150.36"/>
<polygon fill="#63b8ff" stroke="#63b8ff" points="915.32,-150.16 912.04,-140.08 908.32,-150 915.32,-150.16"/>
</a>
</g>
</g>
<!-- Node23 -->
<g id="Node000023" class="node">
<title>Node23</title>
<g id="a_Node000023"><a xlink:href="ErrorHandling_8h.html" target="_top" xlink:title=" ">
<polygon fill="white" stroke="#666666" points="1121.5,-200.5 960.5,-200.5 960.5,-181.5 1121.5,-181.5 1121.5,-200.5"/>
<text text-anchor="middle" x="1041" y="-188.5" font-family="Helvetica,sans-Serif" font-size="10.00">open62541pp/ErrorHandling.h</text>
</a>
</g>
</g>
<!-- Node18&#45;&gt;Node23 -->
<g id="edge28_Node000018_Node000023" class="edge">
<title>Node18&#45;&gt;Node23</title>
<g id="a_edge28_Node000018_Node000023"><a xlink:title=" ">
<path fill="none" stroke="#63b8ff" d="M726.13,-362.98C808.33,-353.61 927.55,-338.38 946,-327 991.4,-299 1021.01,-240.34 1033.78,-210.42"/>
<polygon fill="#63b8ff" stroke="#63b8ff" points="1037.17,-211.38 1037.72,-200.8 1030.69,-208.72 1037.17,-211.38"/>
</a>
</g>
</g>
<!-- Node18&#45;&gt;Node25 -->
<g id="edge32_Node000018_Node000025" class="edge">
<title>Node18&#45;&gt;Node25</title>
<g id="a_edge32_Node000018_Node000025"><a xlink:title=" ">
<path fill="none" stroke="#63b8ff" d="M619.5,-362.9C599.3,-355.61 572,-343.68 552,-327 533.02,-311.17 517.53,-287.04 508.29,-270.56"/>
<polygon fill="#63b8ff" stroke="#63b8ff" points="511.2,-268.58 503.38,-261.43 505.04,-271.9 511.2,-268.58"/>
</a>
</g>
</g>
<!-- Node28 -->
<g id="Node000028" class="node">
<title>Node28</title>
<g id="a_Node000028"><a xlink:href="helper_8h.html" target="_top" xlink:title=" ">
<polygon fill="white" stroke="#666666" points="789.5,-206 676.5,-206 676.5,-176 789.5,-176 789.5,-206"/>
<text text-anchor="start" x="684.5" y="-194" font-family="Helvetica,sans-Serif" font-size="10.00">open62541pp/detail</text>
<text text-anchor="middle" x="733" y="-183" font-family="Helvetica,sans-Serif" font-size="10.00">/helper.h</text>
</a>
</g>
</g>
<!-- Node18&#45;&gt;Node28 -->
<g id="edge48_Node000018_Node000028" class="edge">
<title>Node18&#45;&gt;Node28</title>
<g id="a_edge48_Node000018_Node000028"><a xlink:title=" ">
<path fill="none" stroke="#63b8ff" d="M704.15,-362.97C760.13,-351.11 841.73,-323.52 875,-261 893.77,-225.72 845.1,-208.25 799.72,-199.74"/>
<polygon fill="#63b8ff" stroke="#63b8ff" points="800.26,-196.28 789.81,-198.01 799.06,-203.18 800.26,-196.28"/>
</a>
</g>
</g>
<!-- Node30 -->
<g id="Node000030" class="node">
<title>Node30</title>
<g id="a_Node000030"><a xlink:href="DateTime_8h.html" target="_top" xlink:title=" ">
<polygon fill="white" stroke="#666666" points="733.5,-321.5 560.5,-321.5 560.5,-302.5 733.5,-302.5 733.5,-321.5"/>
<text text-anchor="middle" x="647" y="-309.5" font-family="Helvetica,sans-Serif" font-size="10.00">open62541pp/types/DateTime.h</text>
</a>
</g>
</g>
<!-- Node18&#45;&gt;Node30 -->
<g id="edge51_Node000018_Node000030" class="edge">
<title>Node18&#45;&gt;Node30</title>
<g id="a_edge51_Node000018_Node000030"><a xlink:title=" ">
<path fill="none" stroke="#63b8ff" d="M647,-362.87C647,-354.75 647,-342.31 647,-331.89"/>
<polygon fill="#63b8ff" stroke="#63b8ff" points="650.5,-331.67 647,-321.67 643.5,-331.67 650.5,-331.67"/>
</a>
</g>
</g>
<!-- Node32 -->
<g id="Node000032" class="node">
<title>Node32</title>
<g id="a_Node000032"><a xlink:href="TypeConverterNative_8h.html" target="_top" xlink:title=" ">
<polygon fill="white" stroke="#666666" points="1252,-327 1096,-327 1096,-297 1252,-297 1252,-327"/>
<text text-anchor="start" x="1104" y="-315" font-family="Helvetica,sans-Serif" font-size="10.00">open62541pp/TypeConverter</text>
<text text-anchor="middle" x="1174" y="-304" font-family="Helvetica,sans-Serif" font-size="10.00">Native.h</text>
</a>
</g>
</g>
<!-- Node18&#45;&gt;Node32 -->
<g id="edge59_Node000018_Node000032" class="edge">
<title>Node18&#45;&gt;Node32</title>
<g id="a_edge59_Node000018_Node000032"><a xlink:title=" ">
<path fill="none" stroke="#63b8ff" d="M729.23,-363.17C834.87,-352.86 1012.24,-335.61 1078,-327 1080.52,-326.67 1083.08,-326.32 1085.67,-325.96"/>
<polygon fill="#63b8ff" stroke="#63b8ff" points="1086.35,-329.4 1095.75,-324.52 1085.36,-322.47 1086.35,-329.4"/>
</a>
</g>
</g>
<!-- Node23&#45;&gt;Node10 -->
<g id="edge31_Node000023_Node000010" class="edge">
<title>Node23&#45;&gt;Node10</title>
<g id="a_edge31_Node000023_Node000010"><a xlink:title=" ">
<path fill="none" stroke="#63b8ff" d="M1031.94,-181.44C1010.97,-161.64 958.85,-112.41 931.84,-86.9"/>
<polygon fill="#63b8ff" stroke="#63b8ff" points="933.99,-84.12 924.32,-79.8 929.19,-89.21 933.99,-84.12"/>
</a>
</g>
</g>
<!-- Node23&#45;&gt;Node22 -->
<g id="edge30_Node000023_Node000022" class="edge">
<title>Node23&#45;&gt;Node22</title>
<g id="a_edge30_Node000023_Node000022"><a xlink:title=" ">
<path fill="none" stroke="#63b8ff" d="M1022.24,-181.49C1000.65,-171.7 964.97,-155.52 940.07,-144.23"/>
<polygon fill="#63b8ff" stroke="#63b8ff" points="941.33,-140.96 930.78,-140.02 938.44,-147.33 941.33,-140.96"/>
</a>
</g>
</g>
<!-- Node24 -->
<g id="Node000024" class="node">
<title>Node24</title>
<g id="a_Node000024"><a xlink:title=" ">
<polygon fill="#e0e0e0" stroke="#999999" points="1073.5,-140 1008.5,-140 1008.5,-121 1073.5,-121 1073.5,-140"/>
<text text-anchor="middle" x="1041" y="-128" font-family="Helvetica,sans-Serif" font-size="10.00">stdexcept</text>
</a>
</g>
</g>
<!-- Node23&#45;&gt;Node24 -->
<g id="edge29_Node000023_Node000024" class="edge">
<title>Node23&#45;&gt;Node24</title>
<g id="a_edge29_Node000023_Node000024"><a xlink:title=" ">
<path fill="none" stroke="#63b8ff" d="M1041,-181.37C1041,-173.25 1041,-160.81 1041,-150.39"/>
<polygon fill="#63b8ff" stroke="#63b8ff" points="1044.5,-150.17 1041,-140.17 1037.5,-150.17 1044.5,-150.17"/>
</a>
</g>
</g>
<!-- Node25&#45;&gt;Node2 -->
<g id="edge34_Node000025_Node000002" class="edge">
<title>Node25&#45;&gt;Node2</title>
<g id="a_edge34_Node000025_Node000002"><a xlink:title=" ">
<path fill="none" stroke="#63b8ff" d="M443.9,-241.96C369.57,-228.68 234.88,-198.32 134,-140 107.94,-124.93 81.59,-102.1 65.28,-86.87"/>
<polygon fill="#63b8ff" stroke="#63b8ff" points="67.38,-84.04 57.72,-79.69 62.56,-89.11 67.38,-84.04"/>
</a>
</g>
</g>
<!-- Node25&#45;&gt;Node5 -->
<g id="edge37_Node000025_Node000005" class="edge">
<title>Node25&#45;&gt;Node5</title>
<g id="a_edge37_Node000025_Node000005"><a xlink:title=" ">
<path fill="none" stroke="#63b8ff" d="M474.68,-241.88C450.51,-233.21 412.47,-219.26 380,-206 330.21,-185.67 273.15,-159.81 239.98,-144.52"/>
<polygon fill="#63b8ff" stroke="#63b8ff" points="241.04,-141.15 230.49,-140.13 238.1,-147.51 241.04,-141.15"/>
</a>
</g>
</g>
<!-- Node25&#45;&gt;Node9 -->
<g id="edge35_Node000025_Node000009" class="edge">
<title>Node25&#45;&gt;Node9</title>
<g id="a_edge35_Node000025_Node000009"><a xlink:title=" ">
<path fill="none" stroke="#63b8ff" d="M484.72,-241.95C472.59,-234.01 455.53,-221.17 445,-206 404.54,-147.68 441.93,-106.42 393,-55 375.36,-36.46 348.97,-25.46 326.35,-19.03"/>
<polygon fill="#63b8ff" stroke="#63b8ff" points="327.16,-15.63 316.6,-16.47 325.38,-22.4 327.16,-15.63"/>
</a>
</g>
</g>
<!-- Node25&#45;&gt;Node10 -->
<g id="edge45_Node000025_Node000010" class="edge">
<title>Node25&#45;&gt;Node10</title>
<g id="a_edge45_Node000025_Node000010"><a xlink:title=" ">
<path fill="none" stroke="#63b8ff" d="M578.34,-242.53C661.12,-233.61 781.33,-218.74 799,-206 833.34,-181.23 814.11,-152.85 842,-121 855.16,-105.98 873.78,-93.32 888.92,-84.49"/>
<polygon fill="#63b8ff" stroke="#63b8ff" points="890.81,-87.45 897.82,-79.51 887.39,-81.34 890.81,-87.45"/>
</a>
</g>
</g>
<!-- Node25&#45;&gt;Node23 -->
<g id="edge38_Node000025_Node000023" class="edge">
<title>Node25&#45;&gt;Node23</title>
<g id="a_edge38_Node000025_Node000023"><a xlink:title=" ">
<path fill="none" stroke="#63b8ff" d="M577.81,-241.99C677.26,-231.26 847.85,-212.85 951.92,-201.61"/>
<polygon fill="#63b8ff" stroke="#63b8ff" points="952.53,-205.07 962.09,-200.52 951.78,-198.11 952.53,-205.07"/>
</a>
</g>
</g>
<!-- Node26 -->
<g id="Node000026" class="node">
<title>Node26</title>
<g id="a_Node000026"><a xlink:title=" ">
<polygon fill="#e0e0e0" stroke="#999999" points="507,-140 455,-140 455,-121 507,-121 507,-140"/>
<text text-anchor="middle" x="481" y="-128" font-family="Helvetica,sans-Serif" font-size="10.00">cassert</text>
</a>
</g>
</g>
<!-- Node25&#45;&gt;Node26 -->
<g id="edge33_Node000025_Node000026" class="edge">
<title>Node25&#45;&gt;Node26</title>
<g id="a_edge33_Node000025_Node000026"><a xlink:title=" ">
<path fill="none" stroke="#63b8ff" d="M484.93,-241.89C473.65,-234.1 458.66,-221.48 452,-206 443.56,-186.39 455.73,-163.45 466.79,-148.26"/>
<polygon fill="#63b8ff" stroke="#63b8ff" points="469.62,-150.33 473.01,-140.3 464.1,-146.02 469.62,-150.33"/>
</a>
</g>
</g>
<!-- Node27 -->
<g id="Node000027" class="node">
<title>Node27</title>
<g id="a_Node000027"><a xlink:title=" ">
<polygon fill="#e0e0e0" stroke="#999999" points="505.5,-200.5 460.5,-200.5 460.5,-181.5 505.5,-181.5 505.5,-200.5"/>
<text text-anchor="middle" x="483" y="-188.5" font-family="Helvetica,sans-Serif" font-size="10.00">utility</text>
</a>
</g>
</g>
<!-- Node25&#45;&gt;Node27 -->
<g id="edge36_Node000025_Node000027" class="edge">
<title>Node25&#45;&gt;Node27</title>
<g id="a_edge36_Node000025_Node000027"><a xlink:title=" ">
<path fill="none" stroke="#63b8ff" d="M496.64,-241.87C494.39,-233.66 490.94,-221.04 488.07,-210.55"/>
<polygon fill="#63b8ff" stroke="#63b8ff" points="491.38,-209.39 485.37,-200.67 484.63,-211.24 491.38,-209.39"/>
</a>
</g>
</g>
<!-- Node25&#45;&gt;Node28 -->
<g id="edge39_Node000025_Node000028" class="edge">
<title>Node25&#45;&gt;Node28</title>
<g id="a_edge39_Node000025_Node000028"><a xlink:title=" ">
<path fill="none" stroke="#63b8ff" d="M533.03,-241.99C567.95,-233.26 623.2,-219.45 666.79,-208.55"/>
<polygon fill="#63b8ff" stroke="#63b8ff" points="667.89,-211.89 676.74,-206.06 666.19,-205.09 667.89,-211.89"/>
</a>
</g>
</g>
<!-- Node29 -->
<g id="Node000029" class="node">
<title>Node29</title>
<g id="a_Node000029"><a xlink:href="comparison_8h.html" target="_top" xlink:title=" ">
<polygon fill="white" stroke="#666666" points="658,-206 524,-206 524,-176 658,-176 658,-206"/>
<text text-anchor="start" x="532" y="-194" font-family="Helvetica,sans-Serif" font-size="10.00">open62541pp/overloads</text>
<text text-anchor="middle" x="591" y="-183" font-family="Helvetica,sans-Serif" font-size="10.00">/comparison.h</text>
</a>
</g>
</g>
<!-- Node25&#45;&gt;Node29 -->
<g id="edge46_Node000025_Node000029" class="edge">
<title>Node25&#45;&gt;Node29</title>
<g id="a_edge46_Node000025_Node000029"><a xlink:title=" ">
<path fill="none" stroke="#63b8ff" d="M512.57,-241.87C525.06,-233.93 544.02,-221.87 560.18,-211.6"/>
<polygon fill="#63b8ff" stroke="#63b8ff" points="562.24,-214.43 568.8,-206.11 558.49,-208.53 562.24,-214.43"/>
</a>
</g>
</g>
<!-- Node28&#45;&gt;Node5 -->
<g id="edge43_Node000028_Node000005" class="edge">
<title>Node28&#45;&gt;Node5</title>
<g id="a_edge43_Node000028_Node000005"><a xlink:title=" ">
<path fill="none" stroke="#63b8ff" d="M676.19,-177.53C673.09,-176.98 670.01,-176.46 667,-176 536.2,-155.8 382.75,-143.03 291.66,-136.59"/>
<polygon fill="#63b8ff" stroke="#63b8ff" points="291.9,-133.1 281.68,-135.89 291.41,-140.08 291.9,-133.1"/>
</a>
</g>
</g>
<!-- Node28&#45;&gt;Node6 -->
<g id="edge42_Node000028_Node000006" class="edge">
<title>Node28&#45;&gt;Node6</title>
<g id="a_edge42_Node000028_Node000006"><a xlink:title=" ">
<path fill="none" stroke="#63b8ff" d="M689.85,-176C646.12,-161.87 576.47,-139.56 516,-121 471.67,-107.4 420.61,-92.38 386.31,-82.39"/>
<polygon fill="#63b8ff" stroke="#63b8ff" points="387.25,-79.01 376.67,-79.58 385.29,-85.73 387.25,-79.01"/>
</a>
</g>
</g>
<!-- Node28&#45;&gt;Node10 -->
<g id="edge44_Node000028_Node000010" class="edge">
<title>Node28&#45;&gt;Node10</title>
<g id="a_edge44_Node000028_Node000010"><a xlink:title=" ">
<path fill="none" stroke="#63b8ff" d="M744.89,-175.81C758.11,-160.71 780.69,-136.85 804,-121 827.6,-104.95 857.18,-91.92 879.87,-83.19"/>
<polygon fill="#63b8ff" stroke="#63b8ff" points="881.31,-86.39 889.45,-79.61 878.86,-79.84 881.31,-86.39"/>
</a>
</g>
</g>
<!-- Node28&#45;&gt;Node22 -->
<g id="edge41_Node000028_Node000022" class="edge">
<title>Node28&#45;&gt;Node22</title>
<g id="a_edge41_Node000028_Node000022"><a xlink:title=" ">
<path fill="none" stroke="#63b8ff" d="M775.87,-175.99C807.89,-165.53 850.94,-151.46 879.99,-141.96"/>
<polygon fill="#63b8ff" stroke="#63b8ff" points="881.22,-145.24 889.64,-138.81 879.04,-138.59 881.22,-145.24"/>
</a>
</g>
</g>
<!-- Node28&#45;&gt;Node26 -->
<g id="edge40_Node000028_Node000026" class="edge">
<title>Node28&#45;&gt;Node26</title>
<g id="a_edge40_Node000028_Node000026"><a xlink:title=" ">
<path fill="none" stroke="#63b8ff" d="M676.45,-176.87C627.75,-165.57 558.93,-149.59 517.28,-139.92"/>
<polygon fill="#63b8ff" stroke="#63b8ff" points="517.84,-136.46 507.31,-137.61 516.26,-143.28 517.84,-136.46"/>
</a>
</g>
</g>
<!-- Node29&#45;&gt;Node10 -->
<g id="edge47_Node000029_Node000010" class="edge">
<title>Node29&#45;&gt;Node10</title>
<g id="a_edge47_Node000029_Node000010"><a xlink:title=" ">
<path fill="none" stroke="#63b8ff" d="M628.16,-176C665.48,-161.96 724.66,-139.81 776,-121 811.82,-107.88 852.93,-93.13 881.1,-83.07"/>
<polygon fill="#63b8ff" stroke="#63b8ff" points="882.62,-86.24 890.86,-79.59 880.27,-79.65 882.62,-86.24"/>
</a>
</g>
</g>
<!-- Node30&#45;&gt;Node2 -->
<g id="edge53_Node000030_Node000002" class="edge">
<title>Node30&#45;&gt;Node2</title>
<g id="a_edge53_Node000030_Node000002"><a xlink:title=" ">
<path fill="none" stroke="#63b8ff" d="M576.19,-302.45C487.44,-289.85 332.17,-261.55 210,-206 159.48,-183.03 145.45,-176.9 104,-140 86.73,-124.63 70.7,-103.39 60.46,-88.56"/>
<polygon fill="#63b8ff" stroke="#63b8ff" points="63.09,-86.2 54.61,-79.86 57.29,-90.11 63.09,-86.2"/>
</a>
</g>
</g>
<!-- Node30&#45;&gt;Node6 -->
<g id="edge56_Node000030_Node000006" class="edge">
<title>Node30&#45;&gt;Node6</title>
<g id="a_edge56_Node000030_Node000006"><a xlink:title=" ">
<path fill="none" stroke="#63b8ff" d="M566.38,-302.5C507.39,-294.73 433.84,-281.33 411,-261 360.11,-215.7 349.62,-128.59 347.51,-90.09"/>
<polygon fill="#63b8ff" stroke="#63b8ff" points="350.99,-89.65 347.09,-79.81 344,-89.94 350.99,-89.65"/>
</a>
</g>
</g>
<!-- Node30&#45;&gt;Node10 -->
<g id="edge58_Node000030_Node000010" class="edge">
<title>Node30&#45;&gt;Node10</title>
<g id="a_edge58_Node000030_Node000010"><a xlink:title=" ">
<path fill="none" stroke="#63b8ff" d="M661.68,-302.36C703.35,-277.81 819.6,-209.2 823,-206 823.64,-205.4 878.48,-124.74 903.18,-88.4"/>
<polygon fill="#63b8ff" stroke="#63b8ff" points="906.29,-90.05 909.01,-79.81 900.5,-86.11 906.29,-90.05"/>
</a>
</g>
</g>
<!-- Node30&#45;&gt;Node20 -->
<g id="edge52_Node000030_Node000020" class="edge">
<title>Node30&#45;&gt;Node20</title>
<g id="a_edge52_Node000030_Node000020"><a xlink:title=" ">
<path fill="none" stroke="#63b8ff" d="M675.21,-302.49C709.79,-292.07 768.4,-274.39 805.87,-263.09"/>
<polygon fill="#63b8ff" stroke="#63b8ff" points="807.28,-266.32 815.84,-260.09 805.26,-259.62 807.28,-266.32"/>
</a>
</g>
</g>
<!-- Node30&#45;&gt;Node22 -->
<g id="edge55_Node000030_Node000022" class="edge">
<title>Node30&#45;&gt;Node22</title>
<g id="a_edge55_Node000030_Node000022"><a xlink:title=" ">
<path fill="none" stroke="#63b8ff" d="M668.35,-302.44C691.97,-292.84 731.04,-276.57 764,-261 788,-249.67 850.91,-224.44 870,-206 886.47,-190.09 898.34,-166.31 905.17,-149.92"/>
<polygon fill="#63b8ff" stroke="#63b8ff" points="908.53,-150.96 908.93,-140.37 902.01,-148.39 908.53,-150.96"/>
</a>
</g>
</g>
<!-- Node30&#45;&gt;Node25 -->
<g id="edge57_Node000030_Node000025" class="edge">
<title>Node30&#45;&gt;Node25</title>
<g id="a_edge57_Node000030_Node000025"><a xlink:title=" ">
<path fill="none" stroke="#63b8ff" d="M625.48,-302.49C600.38,-292.57 558.68,-276.09 530.07,-264.78"/>
<polygon fill="#63b8ff" stroke="#63b8ff" points="531.13,-261.44 520.55,-261.02 528.56,-267.95 531.13,-261.44"/>
</a>
</g>
</g>
<!-- Node31 -->
<g id="Node000031" class="node">
<title>Node31</title>
<g id="a_Node000031"><a xlink:title=" ">
<polygon fill="#e0e0e0" stroke="#999999" points="666.5,-261 627.5,-261 627.5,-242 666.5,-242 666.5,-261"/>
<text text-anchor="middle" x="647" y="-249" font-family="Helvetica,sans-Serif" font-size="10.00">ratio</text>
</a>
</g>
</g>
<!-- Node30&#45;&gt;Node31 -->
<g id="edge54_Node000030_Node000031" class="edge">
<title>Node30&#45;&gt;Node31</title>
<g id="a_edge54_Node000030_Node000031"><a xlink:title=" ">
<path fill="none" stroke="#63b8ff" d="M647,-302.37C647,-294.25 647,-281.81 647,-271.39"/>
<polygon fill="#63b8ff" stroke="#63b8ff" points="650.5,-271.17 647,-261.17 643.5,-271.17 650.5,-271.17"/>
</a>
</g>
</g>
<!-- Node32&#45;&gt;Node10 -->
<g id="edge61_Node000032_Node000010" class="edge">
<title>Node32&#45;&gt;Node10</title>
<g id="a_edge61_Node000032_Node000010"><a xlink:title=" ">
<path fill="none" stroke="#63b8ff" d="M1178.38,-296.98C1188.25,-262.37 1208.06,-171.99 1164,-121 1142.72,-96.38 1063.21,-83.53 999.68,-77.06"/>
<polygon fill="#63b8ff" stroke="#63b8ff" points="999.93,-73.57 989.63,-76.07 999.24,-80.53 999.93,-73.57"/>
</a>
</g>
</g>
<!-- Node32&#45;&gt;Node18 -->
<g id="edge60_Node000032_Node000018" class="edge">
<title>Node32&#45;&gt;Node18</title>
<g id="a_edge60_Node000032_Node000018"><a xlink:title=" ">
<path fill="none" stroke="#63b8ff" d="M1096.46,-326.94C1096.3,-326.96 1096.15,-326.98 1096,-327 1029.83,-335.66 850.66,-353.08 739.64,-363.37"/>
<polygon fill="#63b8ff" stroke="#63b8ff" points="739.08,-359.9 729.44,-364.31 739.72,-366.87 739.08,-359.9"/>
</a>
</g>
</g>
</g>
</svg>
