<?xml version="1.0" encoding="UTF-8" standalone="no"?>
<!DOCTYPE svg PUBLIC "-//W3C//DTD SVG 1.1//EN"
 "http://www.w3.org/Graphics/SVG/1.1/DTD/svg11.dtd">
<!-- Generated by graphviz version 2.43.0 (0)
 -->
<!-- Title: /home/runner/work/open62541pp/open62541pp/include/open62541pp/Server.h Pages: 1 -->
<svg width="837pt" height="206pt"
 viewBox="0.00 0.00 836.50 206.00" xmlns="http://www.w3.org/2000/svg" xmlns:xlink="http://www.w3.org/1999/xlink">
<g id="graph0" class="graph" transform="scale(1 1) rotate(0) translate(4 202)">
<title>/home/runner/work/open62541pp/open62541pp/include/open62541pp/Server.h</title>
<!-- Node1 -->
<g id="node1" class="node">
<title>Node1</title>
<g id="a_node1"><a xlink:title=" ">
<polygon fill="#bfbfbf" stroke="black" points="330,-156.5 330,-197.5 523,-197.5 523,-156.5 330,-156.5"/>
<text text-anchor="start" x="338" y="-185.5" font-family="Helvetica,sans-Serif" font-size="10.00">/home/runner/work/open62541pp</text>
<text text-anchor="start" x="338" y="-174.5" font-family="Helvetica,sans-Serif" font-size="10.00">/open62541pp/include/open62541pp</text>
<text text-anchor="middle" x="426.5" y="-163.5" font-family="Helvetica,sans-Serif" font-size="10.00">/Server.h</text>
</a>
</g>
</g>
<!-- Node2 -->
<g id="node2" class="node">
<title>Node2</title>
<g id="a_node2"><a xlink:href="Node_8h.html" target="_top" xlink:title=" ">
<polygon fill="none" stroke="black" points="202.5,-78.5 202.5,-119.5 398.5,-119.5 398.5,-78.5 202.5,-78.5"/>
<text text-anchor="start" x="210.5" y="-107.5" font-family="Helvetica,sans-Serif" font-size="10.00">/home/runner/work/open62541pp</text>
<text text-anchor="start" x="210.5" y="-96.5" font-family="Helvetica,sans-Serif" font-size="10.00">/open62541pp/include/open62541pp/</text>
<text text-anchor="middle" x="300.5" y="-85.5" font-family="Helvetica,sans-Serif" font-size="10.00">Node.h</text>
</a>
</g>
</g>
<!-- Node1&#45;&gt;Node2 -->
<g id="edge1" class="edge">
<title>Node1&#45;&gt;Node2</title>
<path fill="none" stroke="midnightblue" d="M385.39,-151.2C368.34,-140.92 348.84,-129.16 332.84,-119.51"/>
<polygon fill="midnightblue" stroke="midnightblue" points="383.68,-154.26 394.05,-156.43 387.3,-148.27 383.68,-154.26"/>
</g>
<!-- Node3 -->
<g id="node3" class="node">
<title>Node3</title>
<g id="a_node3"><a xlink:href="open62541pp_8h.html" target="_top" xlink:title=" ">
<polygon fill="none" stroke="black" points="0,-0.5 0,-41.5 193,-41.5 193,-0.5 0,-0.5"/>
<text text-anchor="start" x="8" y="-29.5" font-family="Helvetica,sans-Serif" font-size="10.00">/home/runner/work/open62541pp</text>
<text text-anchor="start" x="8" y="-18.5" font-family="Helvetica,sans-Serif" font-size="10.00">/open62541pp/include/open62541pp</text>
<text text-anchor="middle" x="96.5" y="-7.5" font-family="Helvetica,sans-Serif" font-size="10.00">/open62541pp.h</text>
</a>
</g>
</g>
<!-- Node1&#45;&gt;Node3 -->
<g id="edge5" class="edge">
<title>Node1&#45;&gt;Node3</title>
<path fill="none" stroke="midnightblue" d="M320.1,-163.21C278.67,-155.03 232,-141.7 193.5,-120 158.46,-100.25 127.64,-64.22 110.59,-41.78"/>
<polygon fill="midnightblue" stroke="midnightblue" points="319.48,-166.65 329.96,-165.07 320.79,-159.77 319.48,-166.65"/>
</g>
<!-- Node5 -->
<g id="node5" class="node">
<title>Node5</title>
<g id="a_node5"><a xlink:href="Server_8cpp.html" target="_top" xlink:title=" ">
<polygon fill="none" stroke="black" points="407.5,-6 407.5,-36 585.5,-36 585.5,-6 407.5,-6"/>
<text text-anchor="start" x="415.5" y="-24" font-family="Helvetica,sans-Serif" font-size="10.00">/home/runner/work/open62541pp</text>
<text text-anchor="middle" x="496.5" y="-13" font-family="Helvetica,sans-Serif" font-size="10.00">/open62541pp/src/Server.cpp</text>
</a>
</g>
</g>
<!-- Node1&#45;&gt;Node5 -->
<g id="edge6" class="edge">
<title>Node1&#45;&gt;Node5</title>
<path fill="none" stroke="midnightblue" d="M428.08,-146.06C430.14,-125.92 434.83,-99.27 445.5,-78 453.64,-61.78 467.82,-46.78 479.17,-36.39"/>
<polygon fill="midnightblue" stroke="midnightblue" points="424.58,-145.95 427.21,-156.21 431.55,-146.55 424.58,-145.95"/>
</g>
<!-- Node6 -->
<g id="node6" class="node">
<title>Node6</title>
<g id="a_node6"><a xlink:href="Attribute_8cpp.html" target="_top" xlink:title=" ">
<polygon fill="none" stroke="black" points="454.5,-78.5 454.5,-119.5 632.5,-119.5 632.5,-78.5 454.5,-78.5"/>
<text text-anchor="start" x="462.5" y="-107.5" font-family="Helvetica,sans-Serif" font-size="10.00">/home/runner/work/open62541pp</text>
<text text-anchor="start" x="462.5" y="-96.5" font-family="Helvetica,sans-Serif" font-size="10.00">/open62541pp/src/services</text>
<text text-anchor="middle" x="543.5" y="-85.5" font-family="Helvetica,sans-Serif" font-size="10.00">/Attribute.cpp</text>
</a>
</g>
</g>
<!-- Node1&#45;&gt;Node6 -->
<g id="edge7" class="edge">
<title>Node1&#45;&gt;Node6</title>
<path fill="none" stroke="midnightblue" d="M465.11,-150.92C480.84,-140.7 498.75,-129.07 513.47,-119.51"/>
<polygon fill="midnightblue" stroke="midnightblue" points="463.11,-148.05 456.63,-156.43 466.92,-153.92 463.11,-148.05"/>
</g>
<!-- Node7 -->
<g id="node7" class="node">
<title>Node7</title>
<g id="a_node7"><a xlink:href="NodeManagement_8cpp.html" target="_top" xlink:title=" ">
<polygon fill="none" stroke="black" points="650.5,-78.5 650.5,-119.5 828.5,-119.5 828.5,-78.5 650.5,-78.5"/>
<text text-anchor="start" x="658.5" y="-107.5" font-family="Helvetica,sans-Serif" font-size="10.00">/home/runner/work/open62541pp</text>
<text text-anchor="start" x="658.5" y="-96.5" font-family="Helvetica,sans-Serif" font-size="10.00">/open62541pp/src/services</text>
<text text-anchor="middle" x="739.5" y="-85.5" font-family="Helvetica,sans-Serif" font-size="10.00">/NodeManagement.cpp</text>
</a>
</g>
</g>
<!-- Node1&#45;&gt;Node7 -->
<g id="edge8" class="edge">
<title>Node1&#45;&gt;Node7</title>
<path fill="none" stroke="midnightblue" d="M516.85,-154.06C561.8,-143.15 615.67,-130.07 659.17,-119.51"/>
<polygon fill="midnightblue" stroke="midnightblue" points="516,-150.67 507.11,-156.43 517.65,-157.47 516,-150.67"/>
</g>
<!-- Node2&#45;&gt;Node3 -->
<g id="edge2" class="edge">
<title>Node2&#45;&gt;Node3</title>
<path fill="none" stroke="midnightblue" d="M238.46,-74.89C209.82,-64.22 176.19,-51.69 148.86,-41.51"/>
<polygon fill="midnightblue" stroke="midnightblue" points="237.37,-78.22 247.96,-78.43 239.82,-71.66 237.37,-78.22"/>
</g>
<!-- Node4 -->
<g id="node4" class="node">
<title>Node4</title>
<g id="a_node4"><a xlink:href="Node_8cpp.html" target="_top" xlink:title=" ">
<polygon fill="none" stroke="black" points="211.5,-6 211.5,-36 389.5,-36 389.5,-6 211.5,-6"/>
<text text-anchor="start" x="219.5" y="-24" font-family="Helvetica,sans-Serif" font-size="10.00">/home/runner/work/open62541pp</text>
<text text-anchor="middle" x="300.5" y="-13" font-family="Helvetica,sans-Serif" font-size="10.00">/open62541pp/src/Node.cpp</text>
</a>
</g>
</g>
<!-- Node2&#45;&gt;Node4 -->
<g id="edge3" class="edge">
<title>Node2&#45;&gt;Node4</title>
<path fill="none" stroke="midnightblue" d="M300.5,-68.28C300.5,-57.25 300.5,-45.25 300.5,-36.23"/>
<polygon fill="midnightblue" stroke="midnightblue" points="297,-68.43 300.5,-78.43 304,-68.43 297,-68.43"/>
</g>
<!-- Node2&#45;&gt;Node5 -->
<g id="edge4" class="edge">
<title>Node2&#45;&gt;Node5</title>
<path fill="none" stroke="midnightblue" d="M360.41,-74.77C392.97,-62.15 432.17,-46.94 460.12,-36.11"/>
<polygon fill="midnightblue" stroke="midnightblue" points="359.03,-71.55 350.97,-78.43 361.56,-78.08 359.03,-71.55"/>
</g>
</g>
</svg>
