<?xml version="1.0" encoding="UTF-8" standalone="no"?>
<!DOCTYPE svg PUBLIC "-//W3C//DTD SVG 1.1//EN"
 "http://www.w3.org/Graphics/SVG/1.1/DTD/svg11.dtd">
<!-- Generated by graphviz version 2.43.0 (0)
 -->
<!-- Title: /home/runner/work/open62541pp/open62541pp/include/open62541pp/services/MonitoredItem.h Pages: 1 -->
<svg width="1434pt" height="533pt"
 viewBox="0.00 0.00 1433.50 533.00" xmlns="http://www.w3.org/2000/svg" xmlns:xlink="http://www.w3.org/1999/xlink">
<g id="graph0" class="graph" transform="scale(1 1) rotate(0) translate(4 529)">
<title>/home/runner/work/open62541pp/open62541pp/include/open62541pp/services/MonitoredItem.h</title>
<!-- Node1 -->
<g id="Node000001" class="node">
<title>Node1</title>
<g id="a_Node000001"><a xlink:title=" ">
<polygon fill="#999999" stroke="#666666" points="705,-525 512,-525 512,-484 705,-484 705,-525"/>
<text text-anchor="start" x="520" y="-513" font-family="Helvetica,sans-Serif" font-size="10.00">/home/runner/work/open62541pp</text>
<text text-anchor="start" x="520" y="-502" font-family="Helvetica,sans-Serif" font-size="10.00">/open62541pp/include/open62541pp</text>
<text text-anchor="middle" x="608.5" y="-491" font-family="Helvetica,sans-Serif" font-size="10.00">/services/MonitoredItem.h</text>
</a>
</g>
</g>
<!-- Node2 -->
<g id="Node000002" class="node">
<title>Node2</title>
<g id="a_Node000002"><a xlink:title=" ">
<polygon fill="#e0e0e0" stroke="#999999" points="1355.5,-79.5 1305.5,-79.5 1305.5,-60.5 1355.5,-60.5 1355.5,-79.5"/>
<text text-anchor="middle" x="1330.5" y="-67.5" font-family="Helvetica,sans-Serif" font-size="10.00">cstdint</text>
</a>
</g>
</g>
<!-- Node1&#45;&gt;Node2 -->
<g id="edge1_Node000001_Node000002" class="edge">
<title>Node1&#45;&gt;Node2</title>
<g id="a_edge1_Node000001_Node000002"><a xlink:title=" ">
<path fill="none" stroke="#63b8ff" d="M705.08,-499.51C856.5,-492.49 1142.6,-475.97 1240.5,-448 1310.93,-427.88 1387.5,-446.74 1387.5,-373.5 1387.5,-373.5 1387.5,-373.5 1387.5,-190 1387.5,-150.14 1361.16,-109.48 1344.29,-87.53"/>
<polygon fill="#63b8ff" stroke="#63b8ff" points="1346.92,-85.21 1337.95,-79.57 1341.45,-89.57 1346.92,-85.21"/>
</a>
</g>
</g>
<!-- Node3 -->
<g id="Node000003" class="node">
<title>Node3</title>
<g id="a_Node000003"><a xlink:title=" ">
<polygon fill="#e0e0e0" stroke="#999999" points="525,-442.5 460,-442.5 460,-423.5 525,-423.5 525,-442.5"/>
<text text-anchor="middle" x="492.5" y="-430.5" font-family="Helvetica,sans-Serif" font-size="10.00">functional</text>
</a>
</g>
</g>
<!-- Node1&#45;&gt;Node3 -->
<g id="edge2_Node000001_Node000003" class="edge">
<title>Node1&#45;&gt;Node3</title>
<g id="a_edge2_Node000001_Node000003"><a xlink:title=" ">
<path fill="none" stroke="#63b8ff" d="M575.88,-483.96C556.65,-472.44 532.8,-458.14 515.53,-447.8"/>
<polygon fill="#63b8ff" stroke="#63b8ff" points="517.07,-444.64 506.69,-442.5 513.47,-450.65 517.07,-444.64"/>
</a>
</g>
</g>
<!-- Node4 -->
<g id="Node000004" class="node">
<title>Node4</title>
<g id="a_Node000004"><a xlink:title=" ">
<polygon fill="#e0e0e0" stroke="#999999" points="229,-321.5 182,-321.5 182,-302.5 229,-302.5 229,-321.5"/>
<text text-anchor="middle" x="205.5" y="-309.5" font-family="Helvetica,sans-Serif" font-size="10.00">vector</text>
</a>
</g>
</g>
<!-- Node1&#45;&gt;Node4 -->
<g id="edge3_Node000001_Node000004" class="edge">
<title>Node1&#45;&gt;Node4</title>
<g id="a_edge3_Node000001_Node000004"><a xlink:title=" ">
<path fill="none" stroke="#63b8ff" d="M595.94,-483.72C582.65,-464.33 559.97,-435.24 533.5,-418 420.31,-344.26 371.36,-370.59 243.5,-327 241.65,-326.37 239.76,-325.71 237.85,-325.04"/>
<polygon fill="#63b8ff" stroke="#63b8ff" points="238.94,-321.71 228.34,-321.62 236.57,-328.3 238.94,-321.71"/>
</a>
</g>
</g>
<!-- Node5 -->
<g id="Node000005" class="node">
<title>Node5</title>
<g id="a_Node000005"><a xlink:href="Common_8h.html" target="_top" xlink:title=" ">
<polygon fill="white" stroke="#666666" points="1169,-140 1030,-140 1030,-121 1169,-121 1169,-140"/>
<text text-anchor="middle" x="1099.5" y="-128" font-family="Helvetica,sans-Serif" font-size="10.00">open62541pp/Common.h</text>
</a>
</g>
</g>
<!-- Node1&#45;&gt;Node5 -->
<g id="edge4_Node000001_Node000005" class="edge">
<title>Node1&#45;&gt;Node5</title>
<g id="a_edge4_Node000001_Node000005"><a xlink:title=" ">
<path fill="none" stroke="#63b8ff" d="M705.2,-504.4C889.63,-503.51 1273.5,-487.9 1273.5,-373.5 1273.5,-373.5 1273.5,-373.5 1273.5,-250.5 1273.5,-189.82 1200.5,-157.82 1149.07,-142.81"/>
<polygon fill="#63b8ff" stroke="#63b8ff" points="1149.99,-139.43 1139.42,-140.11 1148.11,-146.17 1149.99,-139.43"/>
</a>
</g>
</g>
<!-- Node15 -->
<g id="Node000015" class="node">
<title>Node15</title>
<g id="a_Node000015"><a xlink:href="Config_8h.html" target="_top" xlink:title=" ">
<polygon fill="white" stroke="#666666" points="125,-382 0,-382 0,-363 125,-363 125,-382"/>
<text text-anchor="middle" x="62.5" y="-370" font-family="Helvetica,sans-Serif" font-size="10.00">open62541pp/Config.h</text>
</a>
</g>
</g>
<!-- Node1&#45;&gt;Node15 -->
<g id="edge16_Node000001_Node000015" class="edge">
<title>Node1&#45;&gt;Node15</title>
<g id="a_edge16_Node000001_Node000015"><a xlink:title=" ">
<path fill="none" stroke="#63b8ff" d="M526.46,-483.97C409.96,-456.23 200.51,-406.36 108.25,-384.39"/>
<polygon fill="#63b8ff" stroke="#63b8ff" points="108.92,-380.96 98.38,-382.04 107.3,-387.76 108.92,-380.96"/>
</a>
</g>
</g>
<!-- Node16 -->
<g id="Node000016" class="node">
<title>Node16</title>
<g id="a_Node000016"><a xlink:href="ExtensionObject_8h.html" target="_top" xlink:title=" ">
<polygon fill="white" stroke="#666666" points="745.5,-448 581.5,-448 581.5,-418 745.5,-418 745.5,-448"/>
<text text-anchor="start" x="589.5" y="-436" font-family="Helvetica,sans-Serif" font-size="10.00">open62541pp/types/Extension</text>
<text text-anchor="middle" x="663.5" y="-425" font-family="Helvetica,sans-Serif" font-size="10.00">Object.h</text>
</a>
</g>
</g>
<!-- Node1&#45;&gt;Node16 -->
<g id="edge18_Node000001_Node000016" class="edge">
<title>Node1&#45;&gt;Node16</title>
<g id="a_edge18_Node000001_Node000016"><a xlink:title=" ">
<path fill="none" stroke="#63b8ff" d="M624.11,-483.77C630.95,-475.13 639,-464.96 646.03,-456.08"/>
<polygon fill="#63b8ff" stroke="#63b8ff" points="648.93,-458.05 652.39,-448.04 643.44,-453.71 648.93,-458.05"/>
</a>
</g>
</g>
<!-- Node5&#45;&gt;Node2 -->
<g id="edge5_Node000005_Node000002" class="edge">
<title>Node5&#45;&gt;Node2</title>
<g id="a_edge5_Node000005_Node000002"><a xlink:title=" ">
<path fill="none" stroke="#63b8ff" d="M1133.09,-120.99C1176.42,-110.02 1251.42,-91.03 1295.45,-79.88"/>
<polygon fill="#63b8ff" stroke="#63b8ff" points="1296.57,-83.2 1305.41,-77.35 1294.85,-76.42 1296.57,-83.2"/>
</a>
</g>
</g>
<!-- Node6 -->
<g id="Node000006" class="node">
<title>Node6</title>
<g id="a_Node000006"><a xlink:title=" ">
<polygon fill="#e0e0e0" stroke="#999999" points="1018,-79.5 945,-79.5 945,-60.5 1018,-60.5 1018,-79.5"/>
<text text-anchor="middle" x="981.5" y="-67.5" font-family="Helvetica,sans-Serif" font-size="10.00">string_view</text>
</a>
</g>
</g>
<!-- Node5&#45;&gt;Node6 -->
<g id="edge6_Node000005_Node000006" class="edge">
<title>Node5&#45;&gt;Node6</title>
<g id="a_edge6_Node000005_Node000006"><a xlink:title=" ">
<path fill="none" stroke="#63b8ff" d="M1082.34,-120.99C1062.77,-111.29 1030.53,-95.31 1007.78,-84.03"/>
<polygon fill="#63b8ff" stroke="#63b8ff" points="1009.19,-80.82 998.68,-79.52 1006.08,-87.09 1009.19,-80.82"/>
</a>
</g>
</g>
<!-- Node7 -->
<g id="Node000007" class="node">
<title>Node7</title>
<g id="a_Node000007"><a xlink:title=" ">
<polygon fill="#e0e0e0" stroke="#999999" points="1110,-19 1069,-19 1069,0 1110,0 1110,-19"/>
<text text-anchor="middle" x="1089.5" y="-7" font-family="Helvetica,sans-Serif" font-size="10.00">tuple</text>
</a>
</g>
</g>
<!-- Node5&#45;&gt;Node7 -->
<g id="edge7_Node000005_Node000007" class="edge">
<title>Node5&#45;&gt;Node7</title>
<g id="a_edge7_Node000005_Node000007"><a xlink:title=" ">
<path fill="none" stroke="#63b8ff" d="M1089.89,-120.69C1081.63,-112.41 1070.3,-99.18 1065.5,-85 1061.23,-72.37 1062.24,-67.93 1065.5,-55 1067.91,-45.44 1072.83,-35.7 1077.59,-27.78"/>
<polygon fill="#63b8ff" stroke="#63b8ff" points="1080.67,-29.46 1083.13,-19.16 1074.78,-25.68 1080.67,-29.46"/>
</a>
</g>
</g>
<!-- Node8 -->
<g id="Node000008" class="node">
<title>Node8</title>
<g id="a_Node000008"><a xlink:href="traits_8h.html" target="_top" xlink:title=" ">
<polygon fill="white" stroke="#666666" points="1188,-85 1075,-85 1075,-55 1188,-55 1188,-85"/>
<text text-anchor="start" x="1083" y="-73" font-family="Helvetica,sans-Serif" font-size="10.00">open62541pp/detail</text>
<text text-anchor="middle" x="1131.5" y="-62" font-family="Helvetica,sans-Serif" font-size="10.00">/traits.h</text>
</a>
</g>
</g>
<!-- Node5&#45;&gt;Node8 -->
<g id="edge8_Node000005_Node000008" class="edge">
<title>Node5&#45;&gt;Node8</title>
<g id="a_edge8_Node000005_Node000008"><a xlink:title=" ">
<path fill="none" stroke="#63b8ff" d="M1104.22,-120.87C1108.08,-113.81 1113.72,-103.5 1118.87,-94.08"/>
<polygon fill="#63b8ff" stroke="#63b8ff" points="1122.05,-95.57 1123.78,-85.11 1115.91,-92.21 1122.05,-95.57"/>
</a>
</g>
</g>
<!-- Node10 -->
<g id="Node000010" class="node">
<title>Node10</title>
<g id="a_Node000010"><a xlink:href="open62541_8h.html" target="_top" xlink:title=" ">
<polygon fill="white" stroke="#666666" points="602,-79.5 453,-79.5 453,-60.5 602,-60.5 602,-79.5"/>
<text text-anchor="middle" x="527.5" y="-67.5" font-family="Helvetica,sans-Serif" font-size="10.00">open62541pp/open62541.h</text>
</a>
</g>
</g>
<!-- Node5&#45;&gt;Node10 -->
<g id="edge11_Node000005_Node000010" class="edge">
<title>Node5&#45;&gt;Node10</title>
<g id="a_edge11_Node000005_Node000010"><a xlink:title=" ">
<path fill="none" stroke="#63b8ff" d="M1029.93,-122.39C924.73,-111.63 725.45,-91.24 612.04,-79.65"/>
<polygon fill="#63b8ff" stroke="#63b8ff" points="612.31,-76.16 602.01,-78.62 611.6,-83.12 612.31,-76.16"/>
</a>
</g>
</g>
<!-- Node8&#45;&gt;Node7 -->
<g id="edge9_Node000008_Node000007" class="edge">
<title>Node8&#45;&gt;Node7</title>
<g id="a_edge9_Node000008_Node000007"><a xlink:title=" ">
<path fill="none" stroke="#63b8ff" d="M1121.33,-54.84C1115.42,-46.61 1107.94,-36.18 1101.71,-27.51"/>
<polygon fill="#63b8ff" stroke="#63b8ff" points="1104.47,-25.35 1095.79,-19.27 1098.78,-29.43 1104.47,-25.35"/>
</a>
</g>
</g>
<!-- Node9 -->
<g id="Node000009" class="node">
<title>Node9</title>
<g id="a_Node000009"><a xlink:title=" ">
<polygon fill="#e0e0e0" stroke="#999999" points="1251,-19 1182,-19 1182,0 1251,0 1251,-19"/>
<text text-anchor="middle" x="1216.5" y="-7" font-family="Helvetica,sans-Serif" font-size="10.00">type_traits</text>
</a>
</g>
</g>
<!-- Node8&#45;&gt;Node9 -->
<g id="edge10_Node000008_Node000009" class="edge">
<title>Node8&#45;&gt;Node9</title>
<g id="a_edge10_Node000008_Node000009"><a xlink:title=" ">
<path fill="none" stroke="#63b8ff" d="M1152.08,-54.84C1165.17,-45.83 1182.09,-34.18 1195.3,-25.09"/>
<polygon fill="#63b8ff" stroke="#63b8ff" points="1197.51,-27.82 1203.76,-19.27 1193.54,-22.05 1197.51,-27.82"/>
</a>
</g>
</g>
<!-- Node11 -->
<g id="Node000011" class="node">
<title>Node11</title>
<g id="a_Node000011"><a target="_blank" xlink:href="open62541/config_8h.html" xlink:title=" ">
<polygon fill="white" stroke="#666666" points="381.5,-19 269.5,-19 269.5,0 381.5,0 381.5,-19"/>
<text text-anchor="middle" x="325.5" y="-7" font-family="Helvetica,sans-Serif" font-size="10.00">open62541/config.h</text>
</a>
</g>
</g>
<!-- Node10&#45;&gt;Node11 -->
<g id="edge12_Node000010_Node000011" class="edge">
<title>Node10&#45;&gt;Node11</title>
<g id="a_edge12_Node000010_Node000011"><a xlink:title=" ">
<path fill="none" stroke="#63b8ff" d="M498.13,-60.49C462.9,-50.29 403.71,-33.15 364.63,-21.83"/>
<polygon fill="#63b8ff" stroke="#63b8ff" points="365.49,-18.44 354.91,-19.02 363.54,-25.16 365.49,-18.44"/>
</a>
</g>
</g>
<!-- Node12 -->
<g id="Node000012" class="node">
<title>Node12</title>
<g id="a_Node000012"><a target="_blank" xlink:href="open62541/nodeids_8h.html" xlink:title=" ">
<polygon fill="white" stroke="#666666" points="521,-19 400,-19 400,0 521,0 521,-19"/>
<text text-anchor="middle" x="460.5" y="-7" font-family="Helvetica,sans-Serif" font-size="10.00">open62541/nodeids.h</text>
</a>
</g>
</g>
<!-- Node10&#45;&gt;Node12 -->
<g id="edge13_Node000010_Node000012" class="edge">
<title>Node10&#45;&gt;Node12</title>
<g id="a_edge13_Node000010_Node000012"><a xlink:title=" ">
<path fill="none" stroke="#63b8ff" d="M517.61,-60.37C507.22,-51.3 490.66,-36.84 478.05,-25.82"/>
<polygon fill="#63b8ff" stroke="#63b8ff" points="480.26,-23.11 470.43,-19.17 475.66,-28.38 480.26,-23.11"/>
</a>
</g>
</g>
<!-- Node13 -->
<g id="Node000013" class="node">
<title>Node13</title>
<g id="a_Node000013"><a target="_blank" xlink:href="open62541/types_8h.html" xlink:title=" ">
<polygon fill="white" stroke="#666666" points="649.5,-19 539.5,-19 539.5,0 649.5,0 649.5,-19"/>
<text text-anchor="middle" x="594.5" y="-7" font-family="Helvetica,sans-Serif" font-size="10.00">open62541/types.h</text>
</a>
</g>
</g>
<!-- Node10&#45;&gt;Node13 -->
<g id="edge14_Node000010_Node000013" class="edge">
<title>Node10&#45;&gt;Node13</title>
<g id="a_edge14_Node000010_Node000013"><a xlink:title=" ">
<path fill="none" stroke="#63b8ff" d="M537.39,-60.37C547.78,-51.3 564.34,-36.84 576.95,-25.82"/>
<polygon fill="#63b8ff" stroke="#63b8ff" points="579.34,-28.38 584.57,-19.17 574.74,-23.11 579.34,-28.38"/>
</a>
</g>
</g>
<!-- Node14 -->
<g id="Node000014" class="node">
<title>Node14</title>
<g id="a_Node000014"><a target="_blank" xlink:href="open62541/types__generated_8h.html" xlink:title=" ">
<polygon fill="white" stroke="#666666" points="831.5,-19 667.5,-19 667.5,0 831.5,0 831.5,-19"/>
<text text-anchor="middle" x="749.5" y="-7" font-family="Helvetica,sans-Serif" font-size="10.00">open62541/types_generated.h</text>
</a>
</g>
</g>
<!-- Node10&#45;&gt;Node14 -->
<g id="edge15_Node000010_Node000014" class="edge">
<title>Node10&#45;&gt;Node14</title>
<g id="a_edge15_Node000010_Node000014"><a xlink:title=" ">
<path fill="none" stroke="#63b8ff" d="M559.78,-60.49C598.75,-50.23 664.38,-32.93 707.32,-21.62"/>
<polygon fill="#63b8ff" stroke="#63b8ff" points="708.4,-24.95 717.18,-19.02 706.62,-18.18 708.4,-24.95"/>
</a>
</g>
</g>
<!-- Node15&#45;&gt;Node10 -->
<g id="edge17_Node000015_Node000010" class="edge">
<title>Node15&#45;&gt;Node10</title>
<g id="a_edge17_Node000015_Node000010"><a xlink:title=" ">
<path fill="none" stroke="#63b8ff" d="M65.69,-362.98C72.63,-343.64 88.5,-294.79 88.5,-252.5 88.5,-252.5 88.5,-252.5 88.5,-190 88.5,-151.87 106.62,-140.32 139.5,-121 189.27,-91.76 344.01,-79.3 442.38,-74.24"/>
<polygon fill="#63b8ff" stroke="#63b8ff" points="442.79,-77.72 452.61,-73.73 442.44,-70.73 442.79,-77.72"/>
</a>
</g>
</g>
<!-- Node16&#45;&gt;Node10 -->
<g id="edge64_Node000016_Node000010" class="edge">
<title>Node16&#45;&gt;Node10</title>
<g id="a_edge64_Node000016_Node000010"><a xlink:title=" ">
<path fill="none" stroke="#63b8ff" d="M581.28,-421.24C437.02,-401.23 153.5,-356.39 153.5,-313 153.5,-313 153.5,-313 153.5,-190 153.5,-129.71 332.24,-95.9 442.59,-80.78"/>
<polygon fill="#63b8ff" stroke="#63b8ff" points="443.27,-84.22 452.71,-79.42 442.34,-77.28 443.27,-84.22"/>
</a>
</g>
</g>
<!-- Node17 -->
<g id="Node000017" class="node">
<title>Node17</title>
<g id="a_Node000017"><a xlink:title=" ">
<polygon fill="#e0e0e0" stroke="#999999" points="1245.5,-382 1189.5,-382 1189.5,-363 1245.5,-363 1245.5,-382"/>
<text text-anchor="middle" x="1217.5" y="-370" font-family="Helvetica,sans-Serif" font-size="10.00">optional</text>
</a>
</g>
</g>
<!-- Node16&#45;&gt;Node17 -->
<g id="edge19_Node000016_Node000017" class="edge">
<title>Node16&#45;&gt;Node17</title>
<g id="a_edge19_Node000016_Node000017"><a xlink:title=" ">
<path fill="none" stroke="#63b8ff" d="M745.84,-426.57C847.27,-419.27 1024.68,-404.57 1175.5,-382 1176.6,-381.83 1177.72,-381.66 1178.85,-381.48"/>
<polygon fill="#63b8ff" stroke="#63b8ff" points="1179.87,-384.85 1189.1,-379.66 1178.65,-377.96 1179.87,-384.85"/>
</a>
</g>
</g>
<!-- Node18 -->
<g id="Node000018" class="node">
<title>Node18</title>
<g id="a_Node000018"><a xlink:href="TypeConverter_8h.html" target="_top" xlink:title=" ">
<polygon fill="white" stroke="#666666" points="745.5,-382 581.5,-382 581.5,-363 745.5,-363 745.5,-382"/>
<text text-anchor="middle" x="663.5" y="-370" font-family="Helvetica,sans-Serif" font-size="10.00">open62541pp/TypeConverter.h</text>
</a>
</g>
</g>
<!-- Node16&#45;&gt;Node18 -->
<g id="edge20_Node000016_Node000018" class="edge">
<title>Node16&#45;&gt;Node18</title>
<g id="a_edge20_Node000016_Node000018"><a xlink:title=" ">
<path fill="none" stroke="#63b8ff" d="M663.5,-417.84C663.5,-410.21 663.5,-400.7 663.5,-392.45"/>
<polygon fill="#63b8ff" stroke="#63b8ff" points="667,-392.27 663.5,-382.27 660,-392.27 667,-392.27"/>
</a>
</g>
</g>
<!-- Node25 -->
<g id="Node000025" class="node">
<title>Node25</title>
<g id="a_Node000025"><a xlink:href="TypeWrapper_8h.html" target="_top" xlink:title=" ">
<polygon fill="white" stroke="#666666" points="1000.5,-261 842.5,-261 842.5,-242 1000.5,-242 1000.5,-261"/>
<text text-anchor="middle" x="921.5" y="-249" font-family="Helvetica,sans-Serif" font-size="10.00">open62541pp/TypeWrapper.h</text>
</a>
</g>
</g>
<!-- Node16&#45;&gt;Node25 -->
<g id="edge63_Node000016_Node000025" class="edge">
<title>Node16&#45;&gt;Node25</title>
<g id="a_edge63_Node000016_Node000025"><a xlink:title=" ">
<path fill="none" stroke="#63b8ff" d="M745.55,-426.08C868.85,-415.28 1092.71,-387.67 1141.5,-327 1181.47,-277.3 1088.09,-260.58 1010.87,-255.05"/>
<polygon fill="#63b8ff" stroke="#63b8ff" points="1010.79,-251.54 1000.58,-254.37 1010.33,-258.52 1010.79,-251.54"/>
</a>
</g>
</g>
<!-- Node18&#45;&gt;Node4 -->
<g id="edge27_Node000018_Node000004" class="edge">
<title>Node18&#45;&gt;Node4</title>
<g id="a_edge27_Node000018_Node000004"><a xlink:title=" ">
<path fill="none" stroke="#63b8ff" d="M581.04,-363.87C468.06,-353.24 275.45,-334.46 243.5,-327 240.83,-326.38 238.1,-325.62 235.37,-324.78"/>
<polygon fill="#63b8ff" stroke="#63b8ff" points="236.32,-321.41 225.73,-321.5 234.07,-328.04 236.32,-321.41"/>
</a>
</g>
</g>
<!-- Node18&#45;&gt;Node5 -->
<g id="edge28_Node000018_Node000005" class="edge">
<title>Node18&#45;&gt;Node5</title>
<g id="a_edge28_Node000018_Node000005"><a xlink:title=" ">
<path fill="none" stroke="#63b8ff" d="M745.67,-368.21C828.26,-360.53 954,-336.24 1030.5,-261 1063.38,-228.66 1084.27,-177.29 1093.68,-149.98"/>
<polygon fill="#63b8ff" stroke="#63b8ff" points="1097.1,-150.77 1096.91,-140.18 1090.45,-148.58 1097.1,-150.77"/>
</a>
</g>
</g>
<!-- Node18&#45;&gt;Node6 -->
<g id="edge25_Node000018_Node000006" class="edge">
<title>Node18&#45;&gt;Node6</title>
<g id="a_edge25_Node000018_Node000006"><a xlink:title=" ">
<path fill="none" stroke="#63b8ff" d="M745.51,-369.15C874.43,-364.68 1112.85,-352.99 1141.5,-327 1210.34,-264.56 1234.52,-194.4 1177.5,-121 1168.25,-109.09 1083.13,-90.65 1028.15,-79.8"/>
<polygon fill="#63b8ff" stroke="#63b8ff" points="1028.75,-76.35 1018.26,-77.87 1027.4,-83.22 1028.75,-76.35"/>
</a>
</g>
</g>
<!-- Node18&#45;&gt;Node8 -->
<g id="edge50_Node000018_Node000008" class="edge">
<title>Node18&#45;&gt;Node8</title>
<g id="a_edge50_Node000018_Node000008"><a xlink:title=" ">
<path fill="none" stroke="#63b8ff" d="M745.61,-371.2C869.49,-369.59 1097.47,-361.82 1170.5,-327 1247.14,-290.46 1327.39,-250.94 1287.5,-176 1265.11,-133.94 1217.54,-105.71 1180.78,-89.21"/>
<polygon fill="#63b8ff" stroke="#63b8ff" points="1181.78,-85.83 1171.21,-85.07 1179,-92.25 1181.78,-85.83"/>
</a>
</g>
</g>
<!-- Node18&#45;&gt;Node9 -->
<g id="edge26_Node000018_Node000009" class="edge">
<title>Node18&#45;&gt;Node9</title>
<g id="a_edge26_Node000018_Node000009"><a xlink:title=" ">
<path fill="none" stroke="#63b8ff" d="M745.52,-371.4C853.84,-369.8 1049.98,-361.74 1213.5,-327 1311.19,-306.25 1425.5,-352.37 1425.5,-252.5 1425.5,-252.5 1425.5,-252.5 1425.5,-129.5 1425.5,-54.51 1322.62,-26.17 1261.22,-15.93"/>
<polygon fill="#63b8ff" stroke="#63b8ff" points="1261.43,-12.42 1251.01,-14.33 1260.35,-19.34 1261.43,-12.42"/>
</a>
</g>
</g>
<!-- Node18&#45;&gt;Node10 -->
<g id="edge51_Node000018_Node000010" class="edge">
<title>Node18&#45;&gt;Node10</title>
<g id="a_edge51_Node000018_Node000010"><a xlink:title=" ">
<path fill="none" stroke="#63b8ff" d="M581.37,-367.78C473.79,-362.06 296.42,-349.34 276.5,-327 213.59,-256.44 255.19,-179.44 329.5,-121 361.6,-95.75 404.91,-83.1 442.84,-76.82"/>
<polygon fill="#63b8ff" stroke="#63b8ff" points="443.51,-80.26 452.86,-75.29 442.45,-73.34 443.51,-80.26"/>
</a>
</g>
</g>
<!-- Node19 -->
<g id="Node000019" class="node">
<title>Node19</title>
<g id="a_Node000019"><a xlink:title=" ">
<polygon fill="#e0e0e0" stroke="#999999" points="1132.5,-321.5 1090.5,-321.5 1090.5,-302.5 1132.5,-302.5 1132.5,-321.5"/>
<text text-anchor="middle" x="1111.5" y="-309.5" font-family="Helvetica,sans-Serif" font-size="10.00">array</text>
</a>
</g>
</g>
<!-- Node18&#45;&gt;Node19 -->
<g id="edge21_Node000018_Node000019" class="edge">
<title>Node18&#45;&gt;Node19</title>
<g id="a_edge21_Node000018_Node000019"><a xlink:title=" ">
<path fill="none" stroke="#63b8ff" d="M745.76,-369.23C829.94,-365.38 964,-355 1076.5,-327 1078.8,-326.43 1081.16,-325.73 1083.5,-324.97"/>
<polygon fill="#63b8ff" stroke="#63b8ff" points="1084.73,-328.25 1092.92,-321.52 1082.33,-321.67 1084.73,-328.25"/>
</a>
</g>
</g>
<!-- Node20 -->
<g id="Node000020" class="node">
<title>Node20</title>
<g id="a_Node000020"><a xlink:title=" ">
<polygon fill="#e0e0e0" stroke="#999999" points="585.5,-261 535.5,-261 535.5,-242 585.5,-242 585.5,-261"/>
<text text-anchor="middle" x="560.5" y="-249" font-family="Helvetica,sans-Serif" font-size="10.00">chrono</text>
</a>
</g>
</g>
<!-- Node18&#45;&gt;Node20 -->
<g id="edge22_Node000018_Node000020" class="edge">
<title>Node18&#45;&gt;Node20</title>
<g id="a_edge22_Node000018_Node000020"><a xlink:title=" ">
<path fill="none" stroke="#63b8ff" d="M628.51,-362.97C609.01,-356.38 586.01,-345.23 572.5,-327 560.7,-311.08 558.65,-287.96 558.96,-271.71"/>
<polygon fill="#63b8ff" stroke="#63b8ff" points="562.47,-271.45 559.49,-261.29 555.48,-271.1 562.47,-271.45"/>
</a>
</g>
</g>
<!-- Node21 -->
<g id="Node000021" class="node">
<title>Node21</title>
<g id="a_Node000021"><a xlink:title=" ">
<polygon fill="#e0e0e0" stroke="#999999" points="635,-321.5 582,-321.5 582,-302.5 635,-302.5 635,-321.5"/>
<text text-anchor="middle" x="608.5" y="-309.5" font-family="Helvetica,sans-Serif" font-size="10.00">iterator</text>
</a>
</g>
</g>
<!-- Node18&#45;&gt;Node21 -->
<g id="edge23_Node000018_Node000021" class="edge">
<title>Node18&#45;&gt;Node21</title>
<g id="a_edge23_Node000018_Node000021"><a xlink:title=" ">
<path fill="none" stroke="#63b8ff" d="M655.38,-362.87C647.1,-354.05 634.03,-340.16 623.8,-329.27"/>
<polygon fill="#63b8ff" stroke="#63b8ff" points="626.05,-326.56 616.65,-321.67 620.95,-331.35 626.05,-326.56"/>
</a>
</g>
</g>
<!-- Node22 -->
<g id="Node000022" class="node">
<title>Node22</title>
<g id="a_Node000022"><a xlink:title=" ">
<polygon fill="#e0e0e0" stroke="#999999" points="549.5,-140 505.5,-140 505.5,-121 549.5,-121 549.5,-140"/>
<text text-anchor="middle" x="527.5" y="-128" font-family="Helvetica,sans-Serif" font-size="10.00">string</text>
</a>
</g>
</g>
<!-- Node18&#45;&gt;Node22 -->
<g id="edge24_Node000018_Node000022" class="edge">
<title>Node18&#45;&gt;Node22</title>
<g id="a_edge24_Node000018_Node000022"><a xlink:title=" ">
<path fill="none" stroke="#63b8ff" d="M625.86,-362.98C603.68,-356.33 576.37,-345.1 557.5,-327 508.56,-280.05 517.28,-189.18 523.82,-150.1"/>
<polygon fill="#63b8ff" stroke="#63b8ff" points="527.28,-150.6 525.63,-140.14 520.4,-149.35 527.28,-150.6"/>
</a>
</g>
</g>
<!-- Node23 -->
<g id="Node000023" class="node">
<title>Node23</title>
<g id="a_Node000023"><a xlink:href="ErrorHandling_8h.html" target="_top" xlink:title=" ">
<polygon fill="white" stroke="#666666" points="479,-200.5 318,-200.5 318,-181.5 479,-181.5 479,-200.5"/>
<text text-anchor="middle" x="398.5" y="-188.5" font-family="Helvetica,sans-Serif" font-size="10.00">open62541pp/ErrorHandling.h</text>
</a>
</g>
</g>
<!-- Node18&#45;&gt;Node23 -->
<g id="edge29_Node000018_Node000023" class="edge">
<title>Node18&#45;&gt;Node23</title>
<g id="a_edge29_Node000018_Node000023"><a xlink:title=" ">
<path fill="none" stroke="#63b8ff" d="M585.88,-362.92C555.05,-356.64 520.57,-345.79 493.5,-327 449.68,-296.58 419.36,-239.02 406.07,-209.88"/>
<polygon fill="#63b8ff" stroke="#63b8ff" points="409.19,-208.27 401.96,-200.53 402.78,-211.09 409.19,-208.27"/>
</a>
</g>
</g>
<!-- Node18&#45;&gt;Node25 -->
<g id="edge33_Node000018_Node000025" class="edge">
<title>Node18&#45;&gt;Node25</title>
<g id="a_edge33_Node000018_Node000025"><a xlink:title=" ">
<path fill="none" stroke="#63b8ff" d="M745.62,-368.84C787.03,-364.03 836.22,-352.7 873.5,-327 893.54,-313.19 907.14,-288 914.61,-270.77"/>
<polygon fill="#63b8ff" stroke="#63b8ff" points="917.96,-271.83 918.47,-261.24 911.47,-269.2 917.96,-271.83"/>
</a>
</g>
</g>
<!-- Node28 -->
<g id="Node000028" class="node">
<title>Node28</title>
<g id="a_Node000028"><a xlink:href="helper_8h.html" target="_top" xlink:title=" ">
<polygon fill="white" stroke="#666666" points="877,-206 764,-206 764,-176 877,-176 877,-206"/>
<text text-anchor="start" x="772" y="-194" font-family="Helvetica,sans-Serif" font-size="10.00">open62541pp/detail</text>
<text text-anchor="middle" x="820.5" y="-183" font-family="Helvetica,sans-Serif" font-size="10.00">/helper.h</text>
</a>
</g>
</g>
<!-- Node18&#45;&gt;Node28 -->
<g id="edge49_Node000018_Node000028" class="edge">
<title>Node18&#45;&gt;Node28</title>
<g id="a_edge49_Node000018_Node000028"><a xlink:title=" ">
<path fill="none" stroke="#63b8ff" d="M664,-362.53C665.18,-347.78 669.17,-317.95 682.5,-297 706.99,-258.51 750.84,-228.79 782.55,-210.95"/>
<polygon fill="#63b8ff" stroke="#63b8ff" points="784.47,-213.89 791.56,-206.02 781.11,-207.75 784.47,-213.89"/>
</a>
</g>
</g>
<!-- Node30 -->
<g id="Node000030" class="node">
<title>Node30</title>
<g id="a_Node000030"><a xlink:href="DateTime_8h.html" target="_top" xlink:title=" ">
<polygon fill="white" stroke="#666666" points="865,-321.5 692,-321.5 692,-302.5 865,-302.5 865,-321.5"/>
<text text-anchor="middle" x="778.5" y="-309.5" font-family="Helvetica,sans-Serif" font-size="10.00">open62541pp/types/DateTime.h</text>
</a>
</g>
</g>
<!-- Node18&#45;&gt;Node30 -->
<g id="edge52_Node000018_Node000030" class="edge">
<title>Node18&#45;&gt;Node30</title>
<g id="a_edge52_Node000018_Node000030"><a xlink:title=" ">
<path fill="none" stroke="#63b8ff" d="M680.47,-362.87C699.41,-353.23 730.29,-337.53 752.33,-326.31"/>
<polygon fill="#63b8ff" stroke="#63b8ff" points="754.14,-329.32 761.46,-321.67 750.96,-323.08 754.14,-329.32"/>
</a>
</g>
</g>
<!-- Node32 -->
<g id="Node000032" class="node">
<title>Node32</title>
<g id="a_Node000032"><a xlink:href="TypeConverterNative_8h.html" target="_top" xlink:title=" ">
<polygon fill="white" stroke="#666666" points="441.5,-327 285.5,-327 285.5,-297 441.5,-297 441.5,-327"/>
<text text-anchor="start" x="293.5" y="-315" font-family="Helvetica,sans-Serif" font-size="10.00">open62541pp/TypeConverter</text>
<text text-anchor="middle" x="363.5" y="-304" font-family="Helvetica,sans-Serif" font-size="10.00">Native.h</text>
</a>
</g>
</g>
<!-- Node18&#45;&gt;Node32 -->
<g id="edge60_Node000018_Node000032" class="edge">
<title>Node18&#45;&gt;Node32</title>
<g id="a_edge60_Node000018_Node000032"><a xlink:title=" ">
<path fill="none" stroke="#63b8ff" d="M614.95,-362.99C567.49,-354.12 494.67,-339.99 439.55,-329.02"/>
<polygon fill="#63b8ff" stroke="#63b8ff" points="439.97,-325.53 429.48,-327.01 438.6,-332.4 439.97,-325.53"/>
</a>
</g>
</g>
<!-- Node23&#45;&gt;Node10 -->
<g id="edge32_Node000023_Node000010" class="edge">
<title>Node23&#45;&gt;Node10</title>
<g id="a_edge32_Node000023_Node000010"><a xlink:title=" ">
<path fill="none" stroke="#63b8ff" d="M407.78,-181.44C429.24,-161.64 482.61,-112.41 510.26,-86.9"/>
<polygon fill="#63b8ff" stroke="#63b8ff" points="512.98,-89.15 517.96,-79.8 508.24,-84.01 512.98,-89.15"/>
</a>
</g>
</g>
<!-- Node23&#45;&gt;Node22 -->
<g id="edge31_Node000023_Node000022" class="edge">
<title>Node23&#45;&gt;Node22</title>
<g id="a_edge31_Node000023_Node000022"><a xlink:title=" ">
<path fill="none" stroke="#63b8ff" d="M417.26,-181.49C438.85,-171.7 474.53,-155.52 499.43,-144.23"/>
<polygon fill="#63b8ff" stroke="#63b8ff" points="501.06,-147.33 508.72,-140.02 498.17,-140.96 501.06,-147.33"/>
</a>
</g>
</g>
<!-- Node24 -->
<g id="Node000024" class="node">
<title>Node24</title>
<g id="a_Node000024"><a xlink:title=" ">
<polygon fill="#e0e0e0" stroke="#999999" points="431,-140 366,-140 366,-121 431,-121 431,-140"/>
<text text-anchor="middle" x="398.5" y="-128" font-family="Helvetica,sans-Serif" font-size="10.00">stdexcept</text>
</a>
</g>
</g>
<!-- Node23&#45;&gt;Node24 -->
<g id="edge30_Node000023_Node000024" class="edge">
<title>Node23&#45;&gt;Node24</title>
<g id="a_edge30_Node000023_Node000024"><a xlink:title=" ">
<path fill="none" stroke="#63b8ff" d="M398.5,-181.37C398.5,-173.25 398.5,-160.81 398.5,-150.39"/>
<polygon fill="#63b8ff" stroke="#63b8ff" points="402,-150.17 398.5,-140.17 395,-150.17 402,-150.17"/>
</a>
</g>
</g>
<!-- Node25&#45;&gt;Node2 -->
<g id="edge35_Node000025_Node000002" class="edge">
<title>Node25&#45;&gt;Node2</title>
<g id="a_edge35_Node000025_Node000002"><a xlink:title=" ">
<path fill="none" stroke="#63b8ff" d="M999.28,-241.97C1040.9,-235.53 1092.34,-224.52 1135.5,-206 1208.1,-174.85 1281.4,-114.57 1313.58,-86.31"/>
<polygon fill="#63b8ff" stroke="#63b8ff" points="1316.04,-88.81 1321.19,-79.55 1311.39,-83.58 1316.04,-88.81"/>
</a>
</g>
</g>
<!-- Node25&#45;&gt;Node5 -->
<g id="edge38_Node000025_Node000005" class="edge">
<title>Node25&#45;&gt;Node5</title>
<g id="a_edge38_Node000025_Node000005"><a xlink:title=" ">
<path fill="none" stroke="#63b8ff" d="M949.02,-241.99C970.87,-234.48 1001.62,-222.22 1025.5,-206 1049.42,-189.75 1072.11,-165.04 1085.91,-148.59"/>
<polygon fill="#63b8ff" stroke="#63b8ff" points="1088.98,-150.36 1092.61,-140.4 1083.57,-145.92 1088.98,-150.36"/>
</a>
</g>
</g>
<!-- Node25&#45;&gt;Node9 -->
<g id="edge36_Node000025_Node000009" class="edge">
<title>Node25&#45;&gt;Node9</title>
<g id="a_edge36_Node000025_Node000009"><a xlink:title=" ">
<path fill="none" stroke="#63b8ff" d="M953.17,-241.96C981.14,-233.99 1022.75,-221.09 1057.5,-206 1113.33,-181.76 1138.27,-186.54 1177.5,-140 1204.77,-107.64 1212.98,-56.65 1215.44,-29.3"/>
<polygon fill="#63b8ff" stroke="#63b8ff" points="1218.94,-29.39 1216.19,-19.16 1211.96,-28.87 1218.94,-29.39"/>
</a>
</g>
</g>
<!-- Node25&#45;&gt;Node10 -->
<g id="edge46_Node000025_Node000010" class="edge">
<title>Node25&#45;&gt;Node10</title>
<g id="a_edge46_Node000025_Node000010"><a xlink:title=" ">
<path fill="none" stroke="#63b8ff" d="M924.8,-241.91C932.98,-218.99 951.4,-155.81 920.5,-121 900.38,-98.34 721.69,-83.18 612.3,-75.94"/>
<polygon fill="#63b8ff" stroke="#63b8ff" points="612.47,-72.44 602.27,-75.28 612.02,-79.42 612.47,-72.44"/>
</a>
</g>
</g>
<!-- Node25&#45;&gt;Node23 -->
<g id="edge39_Node000025_Node000023" class="edge">
<title>Node25&#45;&gt;Node23</title>
<g id="a_edge39_Node000025_Node000023"><a xlink:title=" ">
<path fill="none" stroke="#63b8ff" d="M845.45,-241.99C749.59,-231.27 585.21,-212.88 484.76,-201.65"/>
<polygon fill="#63b8ff" stroke="#63b8ff" points="484.97,-198.15 474.64,-200.52 484.19,-205.11 484.97,-198.15"/>
</a>
</g>
</g>
<!-- Node26 -->
<g id="Node000026" class="node">
<title>Node26</title>
<g id="a_Node000026"><a xlink:title=" ">
<polygon fill="#e0e0e0" stroke="#999999" points="911.5,-140 859.5,-140 859.5,-121 911.5,-121 911.5,-140"/>
<text text-anchor="middle" x="885.5" y="-128" font-family="Helvetica,sans-Serif" font-size="10.00">cassert</text>
</a>
</g>
</g>
<!-- Node25&#45;&gt;Node26 -->
<g id="edge34_Node000025_Node000026" class="edge">
<title>Node25&#45;&gt;Node26</title>
<g id="a_edge34_Node000025_Node000026"><a xlink:title=" ">
<path fill="none" stroke="#63b8ff" d="M918.91,-241.94C913.13,-222.82 899.05,-176.27 891.13,-150.12"/>
<polygon fill="#63b8ff" stroke="#63b8ff" points="894.41,-148.86 888.16,-140.3 887.71,-150.89 894.41,-148.86"/>
</a>
</g>
</g>
<!-- Node27 -->
<g id="Node000027" class="node">
<title>Node27</title>
<g id="a_Node000027"><a xlink:title=" ">
<polygon fill="#e0e0e0" stroke="#999999" points="1017,-200.5 972,-200.5 972,-181.5 1017,-181.5 1017,-200.5"/>
<text text-anchor="middle" x="994.5" y="-188.5" font-family="Helvetica,sans-Serif" font-size="10.00">utility</text>
</a>
</g>
</g>
<!-- Node25&#45;&gt;Node27 -->
<g id="edge37_Node000025_Node000027" class="edge">
<title>Node25&#45;&gt;Node27</title>
<g id="a_edge37_Node000025_Node000027"><a xlink:title=" ">
<path fill="none" stroke="#63b8ff" d="M932.27,-241.87C943.7,-232.71 961.98,-218.06 975.78,-207.01"/>
<polygon fill="#63b8ff" stroke="#63b8ff" points="978.07,-209.65 983.68,-200.67 973.69,-204.19 978.07,-209.65"/>
</a>
</g>
</g>
<!-- Node25&#45;&gt;Node28 -->
<g id="edge40_Node000025_Node000028" class="edge">
<title>Node25&#45;&gt;Node28</title>
<g id="a_edge40_Node000025_Node000028"><a xlink:title=" ">
<path fill="none" stroke="#63b8ff" d="M906.6,-241.87C892.77,-233.86 871.69,-221.65 853.85,-211.31"/>
<polygon fill="#63b8ff" stroke="#63b8ff" points="855.28,-208.1 844.87,-206.11 851.77,-214.16 855.28,-208.1"/>
</a>
</g>
</g>
<!-- Node29 -->
<g id="Node000029" class="node">
<title>Node29</title>
<g id="a_Node000029"><a xlink:href="comparison_8h.html" target="_top" xlink:title=" ">
<polygon fill="white" stroke="#666666" points="745.5,-206 611.5,-206 611.5,-176 745.5,-176 745.5,-206"/>
<text text-anchor="start" x="619.5" y="-194" font-family="Helvetica,sans-Serif" font-size="10.00">open62541pp/overloads</text>
<text text-anchor="middle" x="678.5" y="-183" font-family="Helvetica,sans-Serif" font-size="10.00">/comparison.h</text>
</a>
</g>
</g>
<!-- Node25&#45;&gt;Node29 -->
<g id="edge47_Node000025_Node000029" class="edge">
<title>Node25&#45;&gt;Node29</title>
<g id="a_edge47_Node000025_Node000029"><a xlink:title=" ">
<path fill="none" stroke="#63b8ff" d="M886.17,-241.99C849.74,-233.23 792.04,-219.33 746.69,-208.42"/>
<polygon fill="#63b8ff" stroke="#63b8ff" points="747.46,-205 736.92,-206.06 745.82,-211.81 747.46,-205"/>
</a>
</g>
</g>
<!-- Node28&#45;&gt;Node5 -->
<g id="edge44_Node000028_Node000005" class="edge">
<title>Node28&#45;&gt;Node5</title>
<g id="a_edge44_Node000028_Node000005"><a xlink:title=" ">
<path fill="none" stroke="#63b8ff" d="M877.3,-178.09C927.57,-167.55 1000.28,-152.3 1048.67,-142.16"/>
<polygon fill="#63b8ff" stroke="#63b8ff" points="1049.54,-145.55 1058.61,-140.07 1048.11,-138.7 1049.54,-145.55"/>
</a>
</g>
</g>
<!-- Node28&#45;&gt;Node6 -->
<g id="edge43_Node000028_Node000006" class="edge">
<title>Node28&#45;&gt;Node6</title>
<g id="a_edge43_Node000028_Node000006"><a xlink:title=" ">
<path fill="none" stroke="#63b8ff" d="M823.2,-175.97C826.86,-160.55 834.82,-135.98 850.5,-121 873.62,-98.91 907.51,-86.32 935.02,-79.3"/>
<polygon fill="#63b8ff" stroke="#63b8ff" points="935.93,-82.69 944.84,-76.96 934.3,-75.88 935.93,-82.69"/>
</a>
</g>
</g>
<!-- Node28&#45;&gt;Node10 -->
<g id="edge45_Node000028_Node000010" class="edge">
<title>Node28&#45;&gt;Node10</title>
<g id="a_edge45_Node000028_Node000010"><a xlink:title=" ">
<path fill="none" stroke="#63b8ff" d="M786.03,-176C728.35,-152.57 613.21,-105.81 558.18,-83.46"/>
<polygon fill="#63b8ff" stroke="#63b8ff" points="559.21,-80.1 548.63,-79.58 556.57,-86.59 559.21,-80.1"/>
</a>
</g>
</g>
<!-- Node28&#45;&gt;Node22 -->
<g id="edge42_Node000028_Node000022" class="edge">
<title>Node28&#45;&gt;Node22</title>
<g id="a_edge42_Node000028_Node000022"><a xlink:title=" ">
<path fill="none" stroke="#63b8ff" d="M763.99,-177.95C760.78,-177.29 757.6,-176.63 754.5,-176 685.1,-161.84 603.59,-146.07 559.59,-137.63"/>
<polygon fill="#63b8ff" stroke="#63b8ff" points="560.24,-134.19 549.76,-135.74 558.92,-141.06 560.24,-134.19"/>
</a>
</g>
</g>
<!-- Node28&#45;&gt;Node26 -->
<g id="edge41_Node000028_Node000026" class="edge">
<title>Node28&#45;&gt;Node26</title>
<g id="a_edge41_Node000028_Node000026"><a xlink:title=" ">
<path fill="none" stroke="#63b8ff" d="M836.23,-175.84C845.86,-167.17 858.19,-156.08 868.11,-147.15"/>
<polygon fill="#63b8ff" stroke="#63b8ff" points="870.67,-149.56 875.76,-140.27 865.99,-144.35 870.67,-149.56"/>
</a>
</g>
</g>
<!-- Node29&#45;&gt;Node10 -->
<g id="edge48_Node000029_Node000010" class="edge">
<title>Node29&#45;&gt;Node10</title>
<g id="a_edge48_Node000029_Node000010"><a xlink:title=" ">
<path fill="none" stroke="#63b8ff" d="M662.7,-175.84C646.61,-161.6 620.8,-139.19 597.5,-121 581.47,-108.48 562.69,-95.14 548.62,-85.38"/>
<polygon fill="#63b8ff" stroke="#63b8ff" points="550.35,-82.33 540.13,-79.54 546.38,-88.09 550.35,-82.33"/>
</a>
</g>
</g>
<!-- Node30&#45;&gt;Node2 -->
<g id="edge54_Node000030_Node000002" class="edge">
<title>Node30&#45;&gt;Node2</title>
<g id="a_edge54_Node000030_Node000002"><a xlink:title=" ">
<path fill="none" stroke="#63b8ff" d="M847.33,-302.5C929.84,-290.2 1070.48,-262.44 1178.5,-206 1224.07,-182.19 1235.66,-174.81 1273.5,-140 1290.92,-123.97 1307.8,-102.58 1318.61,-87.88"/>
<polygon fill="#63b8ff" stroke="#63b8ff" points="1321.49,-89.87 1324.5,-79.71 1315.81,-85.77 1321.49,-89.87"/>
</a>
</g>
</g>
<!-- Node30&#45;&gt;Node6 -->
<g id="edge57_Node000030_Node000006" class="edge">
<title>Node30&#45;&gt;Node6</title>
<g id="a_edge57_Node000030_Node000006"><a xlink:title=" ">
<path fill="none" stroke="#63b8ff" d="M858.26,-302.47C916.03,-294.73 987.67,-281.36 1009.5,-261 1057.85,-215.91 1014.51,-126.69 992.5,-88.74"/>
<polygon fill="#63b8ff" stroke="#63b8ff" points="995.33,-86.66 987.2,-79.87 989.32,-90.25 995.33,-86.66"/>
</a>
</g>
</g>
<!-- Node30&#45;&gt;Node10 -->
<g id="edge59_Node000030_Node000010" class="edge">
<title>Node30&#45;&gt;Node10</title>
<g id="a_edge59_Node000030_Node000010"><a xlink:title=" ">
<path fill="none" stroke="#63b8ff" d="M761.6,-302.45C722.47,-282.41 627.13,-232.16 602.5,-206 573.34,-175.03 579.5,-157.99 558.5,-121 552.22,-109.94 544.72,-97.81 538.67,-88.27"/>
<polygon fill="#63b8ff" stroke="#63b8ff" points="541.54,-86.26 533.2,-79.73 535.64,-90.04 541.54,-86.26"/>
</a>
</g>
</g>
<!-- Node30&#45;&gt;Node20 -->
<g id="edge53_Node000030_Node000020" class="edge">
<title>Node30&#45;&gt;Node20</title>
<g id="a_edge53_Node000030_Node000020"><a xlink:title=" ">
<path fill="none" stroke="#63b8ff" d="M746.8,-302.49C706.55,-291.69 637.31,-273.11 595.53,-261.9"/>
<polygon fill="#63b8ff" stroke="#63b8ff" points="596.35,-258.5 585.78,-259.28 594.53,-265.26 596.35,-258.5"/>
</a>
</g>
</g>
<!-- Node30&#45;&gt;Node22 -->
<g id="edge56_Node000030_Node000022" class="edge">
<title>Node30&#45;&gt;Node22</title>
<g id="a_edge56_Node000030_Node000022"><a xlink:title=" ">
<path fill="none" stroke="#63b8ff" d="M749.25,-302.42C705.6,-288.38 622.84,-256.85 569.5,-206 552.93,-190.2 541.08,-166.4 534.28,-149.97"/>
<polygon fill="#63b8ff" stroke="#63b8ff" points="537.44,-148.44 530.54,-140.4 530.92,-150.99 537.44,-148.44"/>
</a>
</g>
</g>
<!-- Node30&#45;&gt;Node25 -->
<g id="edge58_Node000030_Node000025" class="edge">
<title>Node30&#45;&gt;Node25</title>
<g id="a_edge58_Node000030_Node000025"><a xlink:title=" ">
<path fill="none" stroke="#63b8ff" d="M799.29,-302.49C823.44,-292.62 863.48,-276.23 891.12,-264.93"/>
<polygon fill="#63b8ff" stroke="#63b8ff" points="892.75,-268.04 900.68,-261.02 890.1,-261.56 892.75,-268.04"/>
</a>
</g>
</g>
<!-- Node31 -->
<g id="Node000031" class="node">
<title>Node31</title>
<g id="a_Node000031"><a xlink:title=" ">
<polygon fill="#e0e0e0" stroke="#999999" points="798,-261 759,-261 759,-242 798,-242 798,-261"/>
<text text-anchor="middle" x="778.5" y="-249" font-family="Helvetica,sans-Serif" font-size="10.00">ratio</text>
</a>
</g>
</g>
<!-- Node30&#45;&gt;Node31 -->
<g id="edge55_Node000030_Node000031" class="edge">
<title>Node30&#45;&gt;Node31</title>
<g id="a_edge55_Node000030_Node000031"><a xlink:title=" ">
<path fill="none" stroke="#63b8ff" d="M778.5,-302.37C778.5,-294.25 778.5,-281.81 778.5,-271.39"/>
<polygon fill="#63b8ff" stroke="#63b8ff" points="782,-271.17 778.5,-261.17 775,-271.17 782,-271.17"/>
</a>
</g>
</g>
<!-- Node32&#45;&gt;Node10 -->
<g id="edge62_Node000032_Node000010" class="edge">
<title>Node32&#45;&gt;Node10</title>
<g id="a_edge62_Node000032_Node000010"><a xlink:title=" ">
<path fill="none" stroke="#63b8ff" d="M350.38,-296.91C329.29,-272.47 291.79,-220.55 308.5,-176 329.48,-120.06 394.31,-93.88 448.04,-81.65"/>
<polygon fill="#63b8ff" stroke="#63b8ff" points="448.89,-85.05 457.93,-79.53 447.42,-78.21 448.89,-85.05"/>
</a>
</g>
</g>
<!-- Node32&#45;&gt;Node18 -->
<g id="edge61_Node000032_Node000018" class="edge">
<title>Node32&#45;&gt;Node18</title>
<g id="a_edge61_Node000032_Node000018"><a xlink:title=" ">
<path fill="none" stroke="#63b8ff" d="M441.19,-327.01C496.08,-337.45 567.89,-351.49 614.88,-360.98"/>
<polygon fill="#63b8ff" stroke="#63b8ff" points="614.31,-364.44 624.81,-362.99 615.7,-357.58 614.31,-364.44"/>
</a>
</g>
</g>
</g>
</svg>
