<?xml version="1.0" encoding="UTF-8" standalone="no"?>
<!DOCTYPE svg PUBLIC "-//W3C//DTD SVG 1.1//EN"
 "http://www.w3.org/Graphics/SVG/1.1/DTD/svg11.dtd">
<!-- Generated by graphviz version 2.43.0 (0)
 -->
<!-- Title: /home/runner/work/open62541pp/open62541pp/include/open62541pp/services/monitoreditem.hpp Pages: 1 -->
<svg width="1169pt" height="742pt"
 viewBox="0.00 0.00 1169.32 742.00" xmlns="http://www.w3.org/2000/svg" xmlns:xlink="http://www.w3.org/1999/xlink">
<g id="graph0" class="graph" transform="scale(1 1) rotate(0) translate(4 738)">
<title>/home/runner/work/open62541pp/open62541pp/include/open62541pp/services/monitoreditem.hpp</title>
<!-- Node1 -->
<g id="Node000001" class="node">
<title>Node1</title>
<g id="a_Node000001"><a xlink:title=" ">
<polygon fill="#999999" stroke="#666666" points="321.5,-734 128.5,-734 128.5,-693 321.5,-693 321.5,-734"/>
<text text-anchor="start" x="136.5" y="-722" font-family="Helvetica,sans-Serif" font-size="10.00">/home/runner/work/open62541pp</text>
<text text-anchor="start" x="136.5" y="-711" font-family="Helvetica,sans-Serif" font-size="10.00">/open62541pp/include/open62541pp</text>
<text text-anchor="middle" x="225" y="-700" font-family="Helvetica,sans-Serif" font-size="10.00">/services/monitoreditem.hpp</text>
</a>
</g>
</g>
<!-- Node2 -->
<g id="Node000002" class="node">
<title>Node2</title>
<g id="a_Node000002"><a xlink:href="monitoreditem_8hpp.html" target="_top" xlink:title=" ">
<polygon fill="white" stroke="#666666" points="196.5,-657 3.5,-657 3.5,-616 196.5,-616 196.5,-657"/>
<text text-anchor="start" x="11.5" y="-645" font-family="Helvetica,sans-Serif" font-size="10.00">/home/runner/work/open62541pp</text>
<text text-anchor="start" x="11.5" y="-634" font-family="Helvetica,sans-Serif" font-size="10.00">/open62541pp/include/open62541pp</text>
<text text-anchor="middle" x="100" y="-623" font-family="Helvetica,sans-Serif" font-size="10.00">/monitoreditem.hpp</text>
</a>
</g>
</g>
<!-- Node1&#45;&gt;Node2 -->
<g id="edge1_Node000001_Node000002" class="edge">
<title>Node1&#45;&gt;Node2</title>
<g id="a_edge1_Node000001_Node000002"><a xlink:title=" ">
<path fill="none" stroke="#63b8ff" d="M183.57,-687.64C167.06,-677.74 148.33,-666.5 132.79,-657.17"/>
<polygon fill="#63b8ff" stroke="#63b8ff" points="182.11,-690.85 192.48,-692.99 185.71,-684.84 182.11,-690.85"/>
</a>
</g>
</g>
<!-- Node4 -->
<g id="Node000004" class="node">
<title>Node4</title>
<g id="a_Node000004"><a xlink:href="subscription_8hpp.html" target="_top" xlink:title=" ">
<polygon fill="white" stroke="#666666" points="259.5,-580 66.5,-580 66.5,-539 259.5,-539 259.5,-580"/>
<text text-anchor="start" x="74.5" y="-568" font-family="Helvetica,sans-Serif" font-size="10.00">/home/runner/work/open62541pp</text>
<text text-anchor="start" x="74.5" y="-557" font-family="Helvetica,sans-Serif" font-size="10.00">/open62541pp/include/open62541pp</text>
<text text-anchor="middle" x="163" y="-546" font-family="Helvetica,sans-Serif" font-size="10.00">/subscription.hpp</text>
</a>
</g>
</g>
<!-- Node1&#45;&gt;Node4 -->
<g id="edge30_Node000001_Node000004" class="edge">
<title>Node1&#45;&gt;Node4</title>
<g id="a_edge30_Node000001_Node000004"><a xlink:title=" ">
<path fill="none" stroke="#63b8ff" d="M222.72,-682.63C220.36,-662.99 215.6,-637.11 206,-616 200.05,-602.91 190.45,-590.09 181.82,-580.08"/>
<polygon fill="#63b8ff" stroke="#63b8ff" points="219.26,-683.26 223.79,-692.83 226.23,-682.52 219.26,-683.26"/>
</a>
</g>
</g>
<!-- Node11 -->
<g id="Node000011" class="node">
<title>Node11</title>
<g id="a_Node000011"><a xlink:href="services_8hpp.html" target="_top" xlink:title=" ">
<polygon fill="white" stroke="#666666" points="707.5,-118 514.5,-118 514.5,-77 707.5,-77 707.5,-118"/>
<text text-anchor="start" x="522.5" y="-106" font-family="Helvetica,sans-Serif" font-size="10.00">/home/runner/work/open62541pp</text>
<text text-anchor="start" x="522.5" y="-95" font-family="Helvetica,sans-Serif" font-size="10.00">/open62541pp/include/open62541pp</text>
<text text-anchor="middle" x="611" y="-84" font-family="Helvetica,sans-Serif" font-size="10.00">/services/services.hpp</text>
</a>
</g>
</g>
<!-- Node1&#45;&gt;Node11 -->
<g id="edge29_Node000001_Node000011" class="edge">
<title>Node1&#45;&gt;Node11</title>
<g id="a_edge29_Node000001_Node000011"><a xlink:title=" ">
<path fill="none" stroke="#63b8ff" d="M331.76,-706.14C576.67,-690.14 1158,-643.41 1158,-560.5 1158,-560.5 1158,-560.5 1158,-250.5 1158,-206.79 1171.26,-183.49 1139,-154 1107.88,-125.55 851.44,-109.41 707.72,-102.52"/>
<polygon fill="#63b8ff" stroke="#63b8ff" points="331.52,-702.65 321.77,-706.79 331.98,-709.64 331.52,-702.65"/>
</a>
</g>
</g>
<!-- Node3 -->
<g id="Node000003" class="node">
<title>Node3</title>
<g id="a_Node000003"><a xlink:href="open62541pp_8hpp.html" target="_top" xlink:title=" ">
<polygon fill="white" stroke="#666666" points="275.5,-41 82.5,-41 82.5,0 275.5,0 275.5,-41"/>
<text text-anchor="start" x="90.5" y="-29" font-family="Helvetica,sans-Serif" font-size="10.00">/home/runner/work/open62541pp</text>
<text text-anchor="start" x="90.5" y="-18" font-family="Helvetica,sans-Serif" font-size="10.00">/open62541pp/include/open62541pp</text>
<text text-anchor="middle" x="179" y="-7" font-family="Helvetica,sans-Serif" font-size="10.00">/open62541pp.hpp</text>
</a>
</g>
</g>
<!-- Node2&#45;&gt;Node3 -->
<g id="edge2_Node000002_Node000003" class="edge">
<title>Node2&#45;&gt;Node3</title>
<g id="a_edge2_Node000002_Node000003"><a xlink:title=" ">
<path fill="none" stroke="#63b8ff" d="M68.46,-608.83C39.15,-580.89 0,-534.1 0,-483.5 0,-483.5 0,-483.5 0,-173.5 0,-124.99 15.4,-109.96 51,-77 67.97,-61.29 90.1,-49.57 111.16,-41.06"/>
<polygon fill="#63b8ff" stroke="#63b8ff" points="66.33,-611.62 76.05,-615.85 71.09,-606.49 66.33,-611.62"/>
</a>
</g>
</g>
<!-- Node2&#45;&gt;Node4 -->
<g id="edge3_Node000002_Node000004" class="edge">
<title>Node2&#45;&gt;Node4</title>
<g id="a_edge3_Node000002_Node000004"><a xlink:title=" ">
<path fill="none" stroke="#63b8ff" d="M123.14,-607.95C130.91,-598.7 139.41,-588.58 146.56,-580.07"/>
<polygon fill="#63b8ff" stroke="#63b8ff" points="120.3,-605.89 116.55,-615.79 125.66,-610.39 120.3,-605.89"/>
</a>
</g>
</g>
<!-- Node4&#45;&gt;Node3 -->
<g id="edge26_Node000004_Node000003" class="edge">
<title>Node4&#45;&gt;Node3</title>
<g id="a_edge26_Node000004_Node000003"><a xlink:title=" ">
<path fill="none" stroke="#63b8ff" d="M122.6,-532.85C86.08,-506.17 38,-460.75 38,-406.5 38,-406.5 38,-406.5 38,-173.5 38,-112.67 99.45,-65.91 141.21,-41.16"/>
<polygon fill="#63b8ff" stroke="#63b8ff" points="120.95,-535.97 131.13,-538.9 125,-530.26 120.95,-535.97"/>
</a>
</g>
</g>
<!-- Node5 -->
<g id="Node000005" class="node">
<title>Node5</title>
<g id="a_Node000005"><a xlink:href="client_8hpp.html" target="_top" xlink:title=" ">
<polygon fill="white" stroke="#666666" points="465.5,-503 272.5,-503 272.5,-462 465.5,-462 465.5,-503"/>
<text text-anchor="start" x="280.5" y="-491" font-family="Helvetica,sans-Serif" font-size="10.00">/home/runner/work/open62541pp</text>
<text text-anchor="start" x="280.5" y="-480" font-family="Helvetica,sans-Serif" font-size="10.00">/open62541pp/include/open62541pp</text>
<text text-anchor="middle" x="369" y="-469" font-family="Helvetica,sans-Serif" font-size="10.00">/client.hpp</text>
</a>
</g>
</g>
<!-- Node4&#45;&gt;Node5 -->
<g id="edge4_Node000004_Node000005" class="edge">
<title>Node4&#45;&gt;Node5</title>
<g id="a_edge4_Node000004_Node000005"><a xlink:title=" ">
<path fill="none" stroke="#63b8ff" d="M226.07,-535.54C254.61,-525.15 288,-512.99 315.32,-503.04"/>
<polygon fill="#63b8ff" stroke="#63b8ff" points="224.79,-532.28 216.59,-538.99 227.18,-538.86 224.79,-532.28"/>
</a>
</g>
</g>
<!-- Node15 -->
<g id="Node000015" class="node">
<title>Node15</title>
<g id="a_Node000015"><a xlink:href="server_8hpp.html" target="_top" xlink:title=" ">
<polygon fill="white" stroke="#666666" points="259.5,-426 66.5,-426 66.5,-385 259.5,-385 259.5,-426"/>
<text text-anchor="start" x="74.5" y="-414" font-family="Helvetica,sans-Serif" font-size="10.00">/home/runner/work/open62541pp</text>
<text text-anchor="start" x="74.5" y="-403" font-family="Helvetica,sans-Serif" font-size="10.00">/open62541pp/include/open62541pp</text>
<text text-anchor="middle" x="163" y="-392" font-family="Helvetica,sans-Serif" font-size="10.00">/server.hpp</text>
</a>
</g>
</g>
<!-- Node4&#45;&gt;Node15 -->
<g id="edge27_Node000004_Node000015" class="edge">
<title>Node4&#45;&gt;Node15</title>
<g id="a_edge27_Node000004_Node000015"><a xlink:title=" ">
<path fill="none" stroke="#63b8ff" d="M163,-528.58C163,-498.36 163,-452.53 163,-426.47"/>
<polygon fill="#63b8ff" stroke="#63b8ff" points="159.5,-528.94 163,-538.94 166.5,-528.94 159.5,-528.94"/>
</a>
</g>
</g>
<!-- Node5&#45;&gt;Node3 -->
<g id="edge24_Node000005_Node000003" class="edge">
<title>Node5&#45;&gt;Node3</title>
<g id="a_edge24_Node000005_Node000003"><a xlink:title=" ">
<path fill="none" stroke="#63b8ff" d="M355.82,-452.68C332.45,-401.27 282.57,-290.21 244,-195 221.6,-139.7 197.53,-73.44 185.98,-41.15"/>
<polygon fill="#63b8ff" stroke="#63b8ff" points="352.67,-454.2 360,-461.85 359.04,-451.3 352.67,-454.2"/>
</a>
</g>
</g>
<!-- Node6 -->
<g id="Node000006" class="node">
<title>Node6</title>
<g id="a_Node000006"><a xlink:href="client__context_8hpp.html" target="_top" xlink:title=" ">
<polygon fill="white" stroke="#666666" points="547.5,-426 354.5,-426 354.5,-385 547.5,-385 547.5,-426"/>
<text text-anchor="start" x="362.5" y="-414" font-family="Helvetica,sans-Serif" font-size="10.00">/home/runner/work/open62541pp</text>
<text text-anchor="start" x="362.5" y="-403" font-family="Helvetica,sans-Serif" font-size="10.00">/open62541pp/include/open62541pp</text>
<text text-anchor="middle" x="451" y="-392" font-family="Helvetica,sans-Serif" font-size="10.00">/detail/client_context.hpp</text>
</a>
</g>
</g>
<!-- Node5&#45;&gt;Node6 -->
<g id="edge5_Node000005_Node000006" class="edge">
<title>Node5&#45;&gt;Node6</title>
<g id="a_edge5_Node000005_Node000006"><a xlink:title=" ">
<path fill="none" stroke="#63b8ff" d="M398.2,-454.79C408.56,-445.32 420.01,-434.84 429.6,-426.07"/>
<polygon fill="#63b8ff" stroke="#63b8ff" points="395.56,-452.46 390.54,-461.79 400.29,-457.63 395.56,-452.46"/>
</a>
</g>
</g>
<!-- Node7 -->
<g id="Node000007" class="node">
<title>Node7</title>
<g id="a_Node000007"><a xlink:href="client__services_8hpp.html" target="_top" xlink:title=" ">
<polygon fill="white" stroke="#666666" points="693.5,-349 500.5,-349 500.5,-308 693.5,-308 693.5,-349"/>
<text text-anchor="start" x="508.5" y="-337" font-family="Helvetica,sans-Serif" font-size="10.00">/home/runner/work/open62541pp</text>
<text text-anchor="start" x="508.5" y="-326" font-family="Helvetica,sans-Serif" font-size="10.00">/open62541pp/include/open62541pp</text>
<text text-anchor="middle" x="597" y="-315" font-family="Helvetica,sans-Serif" font-size="10.00">/services/detail/client_services.hpp</text>
</a>
</g>
</g>
<!-- Node5&#45;&gt;Node7 -->
<g id="edge25_Node000005_Node000007" class="edge">
<title>Node5&#45;&gt;Node7</title>
<g id="a_edge25_Node000005_Node000007"><a xlink:title=" ">
<path fill="none" stroke="#63b8ff" d="M475.5,-467.43C504.63,-459.25 534.38,-446.34 557,-426 579.52,-405.75 589.68,-370.85 594.02,-349.04"/>
<polygon fill="#63b8ff" stroke="#63b8ff" points="474.43,-464.09 465.65,-470.02 476.21,-470.86 474.43,-464.09"/>
</a>
</g>
</g>
<!-- Node6&#45;&gt;Node7 -->
<g id="edge6_Node000006_Node000007" class="edge">
<title>Node6&#45;&gt;Node7</title>
<g id="a_edge6_Node000006_Node000007"><a xlink:title=" ">
<path fill="none" stroke="#63b8ff" d="M498.09,-380.31C517.77,-370.2 540.35,-358.6 558.96,-349.04"/>
<polygon fill="#63b8ff" stroke="#63b8ff" points="496.27,-377.31 488.98,-384.99 499.47,-383.53 496.27,-377.31"/>
</a>
</g>
</g>
<!-- Node8 -->
<g id="Node000008" class="node">
<title>Node8</title>
<g id="a_Node000008"><a xlink:href="attribute_8hpp.html" target="_top" xlink:title=" ">
<polygon fill="white" stroke="#666666" points="515.5,-272 322.5,-272 322.5,-231 515.5,-231 515.5,-272"/>
<text text-anchor="start" x="330.5" y="-260" font-family="Helvetica,sans-Serif" font-size="10.00">/home/runner/work/open62541pp</text>
<text text-anchor="start" x="330.5" y="-249" font-family="Helvetica,sans-Serif" font-size="10.00">/open62541pp/include/open62541pp</text>
<text text-anchor="middle" x="419" y="-238" font-family="Helvetica,sans-Serif" font-size="10.00">/services/attribute.hpp</text>
</a>
</g>
</g>
<!-- Node7&#45;&gt;Node8 -->
<g id="edge7_Node000007_Node000008" class="edge">
<title>Node7&#45;&gt;Node8</title>
<g id="a_edge7_Node000007_Node000008"><a xlink:title=" ">
<path fill="none" stroke="#63b8ff" d="M541.22,-304C516.84,-293.72 488.58,-281.82 465.38,-272.04"/>
<polygon fill="#63b8ff" stroke="#63b8ff" points="540.12,-307.33 550.7,-307.99 542.84,-300.88 540.12,-307.33"/>
</a>
</g>
</g>
<!-- Node12 -->
<g id="Node000012" class="node">
<title>Node12</title>
<g id="a_Node000012"><a xlink:href="method_8hpp.html" target="_top" xlink:title=" ">
<polygon fill="white" stroke="#666666" points="707.5,-195 514.5,-195 514.5,-154 707.5,-154 707.5,-195"/>
<text text-anchor="start" x="522.5" y="-183" font-family="Helvetica,sans-Serif" font-size="10.00">/home/runner/work/open62541pp</text>
<text text-anchor="start" x="522.5" y="-172" font-family="Helvetica,sans-Serif" font-size="10.00">/open62541pp/include/open62541pp</text>
<text text-anchor="middle" x="611" y="-161" font-family="Helvetica,sans-Serif" font-size="10.00">/services/method.hpp</text>
</a>
</g>
</g>
<!-- Node7&#45;&gt;Node12 -->
<g id="edge15_Node000007_Node000012" class="edge">
<title>Node7&#45;&gt;Node12</title>
<g id="a_edge15_Node000007_Node000012"><a xlink:title=" ">
<path fill="none" stroke="#63b8ff" d="M599.72,-297.98C602.5,-267.76 606.75,-221.64 609.16,-195.47"/>
<polygon fill="#63b8ff" stroke="#63b8ff" points="596.23,-297.66 598.8,-307.94 603.2,-298.3 596.23,-297.66"/>
</a>
</g>
</g>
<!-- Node13 -->
<g id="Node000013" class="node">
<title>Node13</title>
<g id="a_Node000013"><a xlink:href="nodemanagement_8hpp.html" target="_top" xlink:title=" ">
<polygon fill="white" stroke="#666666" points="918.5,-195 725.5,-195 725.5,-154 918.5,-154 918.5,-195"/>
<text text-anchor="start" x="733.5" y="-183" font-family="Helvetica,sans-Serif" font-size="10.00">/home/runner/work/open62541pp</text>
<text text-anchor="start" x="733.5" y="-172" font-family="Helvetica,sans-Serif" font-size="10.00">/open62541pp/include/open62541pp</text>
<text text-anchor="middle" x="822" y="-161" font-family="Helvetica,sans-Serif" font-size="10.00">/services/nodemanagement.hpp</text>
</a>
</g>
</g>
<!-- Node7&#45;&gt;Node13 -->
<g id="edge18_Node000007_Node000013" class="edge">
<title>Node7&#45;&gt;Node13</title>
<g id="a_edge18_Node000007_Node000013"><a xlink:title=" ">
<path fill="none" stroke="#63b8ff" d="M634.45,-302.2C678.96,-272.13 752.28,-222.6 792.8,-195.23"/>
<polygon fill="#63b8ff" stroke="#63b8ff" points="632.28,-299.44 625.95,-307.94 636.2,-305.24 632.28,-299.44"/>
</a>
</g>
</g>
<!-- Node14 -->
<g id="Node000014" class="node">
<title>Node14</title>
<g id="a_Node000014"><a xlink:href="view_8hpp.html" target="_top" xlink:title=" ">
<polygon fill="white" stroke="#666666" points="1129.5,-195 936.5,-195 936.5,-154 1129.5,-154 1129.5,-195"/>
<text text-anchor="start" x="944.5" y="-183" font-family="Helvetica,sans-Serif" font-size="10.00">/home/runner/work/open62541pp</text>
<text text-anchor="start" x="944.5" y="-172" font-family="Helvetica,sans-Serif" font-size="10.00">/open62541pp/include/open62541pp</text>
<text text-anchor="middle" x="1033" y="-161" font-family="Helvetica,sans-Serif" font-size="10.00">/services/view.hpp</text>
</a>
</g>
</g>
<!-- Node7&#45;&gt;Node14 -->
<g id="edge21_Node000007_Node000014" class="edge">
<title>Node7&#45;&gt;Node14</title>
<g id="a_edge21_Node000007_Node000014"><a xlink:title=" ">
<path fill="none" stroke="#63b8ff" d="M662.71,-304.59C748.22,-274.78 896.19,-223.19 976.76,-195.11"/>
<polygon fill="#63b8ff" stroke="#63b8ff" points="661.4,-301.34 653.11,-307.94 663.7,-307.95 661.4,-301.34"/>
</a>
</g>
</g>
<!-- Node9 -->
<g id="Node000009" class="node">
<title>Node9</title>
<g id="a_Node000009"><a xlink:href="node_8hpp.html" target="_top" xlink:title=" ">
<polygon fill="white" stroke="#666666" points="476.5,-118 283.5,-118 283.5,-77 476.5,-77 476.5,-118"/>
<text text-anchor="start" x="291.5" y="-106" font-family="Helvetica,sans-Serif" font-size="10.00">/home/runner/work/open62541pp</text>
<text text-anchor="start" x="291.5" y="-95" font-family="Helvetica,sans-Serif" font-size="10.00">/open62541pp/include/open62541pp</text>
<text text-anchor="middle" x="380" y="-84" font-family="Helvetica,sans-Serif" font-size="10.00">/node.hpp</text>
</a>
</g>
</g>
<!-- Node8&#45;&gt;Node9 -->
<g id="edge8_Node000008_Node000009" class="edge">
<title>Node8&#45;&gt;Node9</title>
<g id="a_edge8_Node000008_Node000009"><a xlink:title=" ">
<path fill="none" stroke="#63b8ff" d="M312.86,-235.19C290.63,-226.9 269.78,-214.25 256,-195 245.39,-180.18 246.09,-169.29 256,-154 266.52,-137.77 283.02,-126.24 300.59,-118.07"/>
<polygon fill="#63b8ff" stroke="#63b8ff" points="311.86,-238.55 322.45,-238.49 314.13,-231.93 311.86,-238.55"/>
</a>
</g>
</g>
<!-- Node10 -->
<g id="Node000010" class="node">
<title>Node10</title>
<g id="a_Node000010"><a xlink:href="attribute__highlevel_8hpp.html" target="_top" xlink:title=" ">
<polygon fill="white" stroke="#666666" points="457.5,-195 264.5,-195 264.5,-154 457.5,-154 457.5,-195"/>
<text text-anchor="start" x="272.5" y="-183" font-family="Helvetica,sans-Serif" font-size="10.00">/home/runner/work/open62541pp</text>
<text text-anchor="start" x="272.5" y="-172" font-family="Helvetica,sans-Serif" font-size="10.00">/open62541pp/include/open62541pp</text>
<text text-anchor="middle" x="361" y="-161" font-family="Helvetica,sans-Serif" font-size="10.00">/services/attribute_highlevel.hpp</text>
</a>
</g>
</g>
<!-- Node8&#45;&gt;Node10 -->
<g id="edge10_Node000008_Node000010" class="edge">
<title>Node8&#45;&gt;Node10</title>
<g id="a_edge10_Node000008_Node000010"><a xlink:title=" ">
<path fill="none" stroke="#63b8ff" d="M397.48,-222.67C390.39,-213.5 382.65,-203.5 376.14,-195.07"/>
<polygon fill="#63b8ff" stroke="#63b8ff" points="394.87,-225.03 403.76,-230.79 400.41,-220.74 394.87,-225.03"/>
</a>
</g>
</g>
<!-- Node8&#45;&gt;Node11 -->
<g id="edge14_Node000008_Node000011" class="edge">
<title>Node8&#45;&gt;Node11</title>
<g id="a_edge14_Node000008_Node000011"><a xlink:title=" ">
<path fill="none" stroke="#63b8ff" d="M442.96,-222.95C466.15,-196.45 498.82,-159.59 506,-154 524.14,-139.87 546.4,-127.52 565.74,-118.08"/>
<polygon fill="#63b8ff" stroke="#63b8ff" points="440.05,-220.97 436.1,-230.8 445.32,-225.57 440.05,-220.97"/>
</a>
</g>
</g>
<!-- Node9&#45;&gt;Node3 -->
<g id="edge9_Node000009_Node000003" class="edge">
<title>Node9&#45;&gt;Node3</title>
<g id="a_edge9_Node000009_Node000003"><a xlink:title=" ">
<path fill="none" stroke="#63b8ff" d="M318.1,-73.4C290.33,-63.04 257.92,-50.95 231.37,-41.04"/>
<polygon fill="#63b8ff" stroke="#63b8ff" points="317.12,-76.77 327.71,-76.99 319.57,-70.22 317.12,-76.77"/>
</a>
</g>
</g>
<!-- Node10&#45;&gt;Node9 -->
<g id="edge11_Node000010_Node000009" class="edge">
<title>Node10&#45;&gt;Node9</title>
<g id="a_edge11_Node000010_Node000009"><a xlink:title=" ">
<path fill="none" stroke="#63b8ff" d="M368.48,-143.98C370.68,-135.28 373.04,-125.98 375.04,-118.07"/>
<polygon fill="#63b8ff" stroke="#63b8ff" points="365.06,-143.24 365.99,-153.79 371.84,-144.96 365.06,-143.24"/>
</a>
</g>
</g>
<!-- Node10&#45;&gt;Node11 -->
<g id="edge12_Node000010_Node000011" class="edge">
<title>Node10&#45;&gt;Node11</title>
<g id="a_edge12_Node000010_Node000011"><a xlink:title=" ">
<path fill="none" stroke="#63b8ff" d="M435.73,-151.08C470.77,-140.57 512.12,-128.16 545.86,-118.04"/>
<polygon fill="#63b8ff" stroke="#63b8ff" points="434.6,-147.76 426.03,-153.99 436.62,-154.47 434.6,-147.76"/>
</a>
</g>
</g>
<!-- Node11&#45;&gt;Node3 -->
<g id="edge13_Node000011_Node000003" class="edge">
<title>Node11&#45;&gt;Node3</title>
<g id="a_edge13_Node000011_Node000003"><a xlink:title=" ">
<path fill="none" stroke="#63b8ff" d="M504.16,-77.95C434.21,-65.81 343.56,-50.07 275.74,-38.3"/>
<polygon fill="#63b8ff" stroke="#63b8ff" points="503.87,-81.45 514.32,-79.72 505.07,-74.56 503.87,-81.45"/>
</a>
</g>
</g>
<!-- Node12&#45;&gt;Node9 -->
<g id="edge16_Node000012_Node000009" class="edge">
<title>Node12&#45;&gt;Node9</title>
<g id="a_edge16_Node000012_Node000009"><a xlink:title=" ">
<path fill="none" stroke="#63b8ff" d="M541.11,-150.81C508.92,-140.36 471.1,-128.08 440.19,-118.04"/>
<polygon fill="#63b8ff" stroke="#63b8ff" points="540.32,-154.23 550.91,-153.99 542.48,-147.57 540.32,-154.23"/>
</a>
</g>
</g>
<!-- Node12&#45;&gt;Node11 -->
<g id="edge17_Node000012_Node000011" class="edge">
<title>Node12&#45;&gt;Node11</title>
<g id="a_edge17_Node000012_Node000011"><a xlink:title=" ">
<path fill="none" stroke="#63b8ff" d="M611,-143.69C611,-135.08 611,-125.9 611,-118.07"/>
<polygon fill="#63b8ff" stroke="#63b8ff" points="607.5,-143.79 611,-153.79 614.5,-143.79 607.5,-143.79"/>
</a>
</g>
</g>
<!-- Node13&#45;&gt;Node9 -->
<g id="edge19_Node000013_Node000009" class="edge">
<title>Node13&#45;&gt;Node9</title>
<g id="a_edge19_Node000013_Node000009"><a xlink:title=" ">
<path fill="none" stroke="#63b8ff" d="M715.38,-153.73C629.31,-138.72 541.6,-124.34 476.69,-113.89"/>
<polygon fill="#63b8ff" stroke="#63b8ff" points="714.87,-157.19 725.32,-155.47 716.08,-150.3 714.87,-157.19"/>
</a>
</g>
</g>
<!-- Node13&#45;&gt;Node11 -->
<g id="edge20_Node000013_Node000011" class="edge">
<title>Node13&#45;&gt;Node11</title>
<g id="a_edge20_Node000013_Node000011"><a xlink:title=" ">
<path fill="none" stroke="#63b8ff" d="M757.4,-150.54C728.16,-140.15 693.97,-127.99 665.98,-118.04"/>
<polygon fill="#63b8ff" stroke="#63b8ff" points="756.52,-153.94 767.11,-153.99 758.86,-147.34 756.52,-153.94"/>
</a>
</g>
</g>
<!-- Node14&#45;&gt;Node9 -->
<g id="edge22_Node000014_Node000009" class="edge">
<title>Node14&#45;&gt;Node9</title>
<g id="a_edge22_Node000014_Node000009"><a xlink:title=" ">
<path fill="none" stroke="#63b8ff" d="M926.22,-153.83C739.71,-129.18 689.61,-140.01 506,-118 496.44,-116.85 486.49,-115.53 476.56,-114.13"/>
<polygon fill="#63b8ff" stroke="#63b8ff" points="925.99,-157.33 936.37,-155.18 926.92,-150.39 925.99,-157.33"/>
</a>
</g>
</g>
<!-- Node14&#45;&gt;Node11 -->
<g id="edge23_Node000014_Node000011" class="edge">
<title>Node14&#45;&gt;Node11</title>
<g id="a_edge23_Node000014_Node000011"><a xlink:title=" ">
<path fill="none" stroke="#63b8ff" d="M926.2,-153.68C847.36,-139.49 768.03,-125.62 707.81,-115.18"/>
<polygon fill="#63b8ff" stroke="#63b8ff" points="925.85,-157.18 936.32,-155.51 927.1,-150.29 925.85,-157.18"/>
</a>
</g>
</g>
<!-- Node15&#45;&gt;Node3 -->
<g id="edge28_Node000015_Node000003" class="edge">
<title>Node15&#45;&gt;Node3</title>
<g id="a_edge28_Node000015_Node000003"><a xlink:title=" ">
<path fill="none" stroke="#63b8ff" d="M162.07,-374.8C161.19,-344.17 160,-295 160,-252.5 160,-252.5 160,-252.5 160,-173.5 160,-125.63 169.39,-69.93 174.97,-41.08"/>
<polygon fill="#63b8ff" stroke="#63b8ff" points="158.57,-374.93 162.36,-384.83 165.57,-374.73 158.57,-374.93"/>
</a>
</g>
</g>
</g>
</svg>
