<?xml version="1.0" encoding="UTF-8" standalone="no"?>
<!DOCTYPE svg PUBLIC "-//W3C//DTD SVG 1.1//EN"
 "http://www.w3.org/Graphics/SVG/1.1/DTD/svg11.dtd">
<!-- Generated by graphviz version 2.43.0 (0)
 -->
<!-- Title: /home/runner/work/open62541pp/open62541pp/include/open62541pp/session.hpp Pages: 1 -->
<svg width="475pt" height="280pt"
 viewBox="0.00 0.00 475.00 280.00" xmlns="http://www.w3.org/2000/svg" xmlns:xlink="http://www.w3.org/1999/xlink">
<g id="graph0" class="graph" transform="scale(1 1) rotate(0) translate(4 276)">
<title>/home/runner/work/open62541pp/open62541pp/include/open62541pp/session.hpp</title>
<!-- Node1 -->
<g id="Node000001" class="node">
<title>Node1</title>
<g id="a_Node000001"><a xlink:title=" ">
<polygon fill="#999999" stroke="#666666" points="256,-272 63,-272 63,-231 256,-231 256,-272"/>
<text text-anchor="start" x="71" y="-260" font-family="Helvetica,sans-Serif" font-size="10.00">/home/runner/work/open62541pp</text>
<text text-anchor="start" x="71" y="-249" font-family="Helvetica,sans-Serif" font-size="10.00">/open62541pp/include/open62541pp</text>
<text text-anchor="middle" x="159.5" y="-238" font-family="Helvetica,sans-Serif" font-size="10.00">/session.hpp</text>
</a>
</g>
</g>
<!-- Node2 -->
<g id="Node000002" class="node">
<title>Node2</title>
<g id="a_Node000002"><a xlink:href="open62541pp_8hpp.html" target="_top" xlink:title=" ">
<polygon fill="white" stroke="#666666" points="193,-41 0,-41 0,0 193,0 193,-41"/>
<text text-anchor="start" x="8" y="-29" font-family="Helvetica,sans-Serif" font-size="10.00">/home/runner/work/open62541pp</text>
<text text-anchor="start" x="8" y="-18" font-family="Helvetica,sans-Serif" font-size="10.00">/open62541pp/include/open62541pp</text>
<text text-anchor="middle" x="96.5" y="-7" font-family="Helvetica,sans-Serif" font-size="10.00">/open62541pp.hpp</text>
</a>
</g>
</g>
<!-- Node1&#45;&gt;Node2 -->
<g id="edge1_Node000001_Node000002" class="edge">
<title>Node1&#45;&gt;Node2</title>
<g id="a_edge1_Node000001_Node000002"><a xlink:title=" ">
<path fill="none" stroke="#63b8ff" d="M89.18,-226.03C75.38,-218.15 62.43,-207.99 53.5,-195 23.7,-151.66 25.17,-125.91 44.5,-77 49.98,-63.12 60.76,-50.68 71.08,-41.12"/>
<polygon fill="#63b8ff" stroke="#63b8ff" points="87.86,-229.29 98.34,-230.88 91.14,-223.1 87.86,-229.29"/>
</a>
</g>
</g>
<!-- Node3 -->
<g id="Node000003" class="node">
<title>Node3</title>
<g id="a_Node000003"><a xlink:href="accesscontrol_8hpp.html" target="_top" xlink:title=" ">
<polygon fill="white" stroke="#666666" points="256,-195 63,-195 63,-154 256,-154 256,-195"/>
<text text-anchor="start" x="71" y="-183" font-family="Helvetica,sans-Serif" font-size="10.00">/home/runner/work/open62541pp</text>
<text text-anchor="start" x="71" y="-172" font-family="Helvetica,sans-Serif" font-size="10.00">/open62541pp/include/open62541pp</text>
<text text-anchor="middle" x="159.5" y="-161" font-family="Helvetica,sans-Serif" font-size="10.00">/plugin/accesscontrol.hpp</text>
</a>
</g>
</g>
<!-- Node1&#45;&gt;Node3 -->
<g id="edge2_Node000001_Node000003" class="edge">
<title>Node1&#45;&gt;Node3</title>
<g id="a_edge2_Node000001_Node000003"><a xlink:title=" ">
<path fill="none" stroke="#63b8ff" d="M159.5,-220.69C159.5,-212.08 159.5,-202.9 159.5,-195.07"/>
<polygon fill="#63b8ff" stroke="#63b8ff" points="156,-220.79 159.5,-230.79 163,-220.79 156,-220.79"/>
</a>
</g>
</g>
<!-- Node5 -->
<g id="Node000005" class="node">
<title>Node5</title>
<g id="a_Node000005"><a xlink:href="server_8hpp.html" target="_top" xlink:title=" ">
<polygon fill="white" stroke="#666666" points="467,-118 274,-118 274,-77 467,-77 467,-118"/>
<text text-anchor="start" x="282" y="-106" font-family="Helvetica,sans-Serif" font-size="10.00">/home/runner/work/open62541pp</text>
<text text-anchor="start" x="282" y="-95" font-family="Helvetica,sans-Serif" font-size="10.00">/open62541pp/include/open62541pp</text>
<text text-anchor="middle" x="370.5" y="-84" font-family="Helvetica,sans-Serif" font-size="10.00">/server.hpp</text>
</a>
</g>
</g>
<!-- Node1&#45;&gt;Node5 -->
<g id="edge8_Node000001_Node000005" class="edge">
<title>Node1&#45;&gt;Node5</title>
<g id="a_edge8_Node000001_Node000005"><a xlink:title=" ">
<path fill="none" stroke="#63b8ff" d="M212.03,-226.42C229.61,-217.48 248.93,-206.65 265.5,-195 298.51,-171.79 332.05,-139.01 352.07,-118.26"/>
<polygon fill="#63b8ff" stroke="#63b8ff" points="210.4,-223.32 203.02,-230.91 213.53,-229.58 210.4,-223.32"/>
</a>
</g>
</g>
<!-- Node3&#45;&gt;Node2 -->
<g id="edge3_Node000003_Node000002" class="edge">
<title>Node3&#45;&gt;Node2</title>
<g id="a_edge3_Node000003_Node000002"><a xlink:title=" ">
<path fill="none" stroke="#63b8ff" d="M86.93,-149.12C73.62,-141.29 61.44,-131.12 53.5,-118 38.21,-92.74 59.16,-61.08 76.81,-41.07"/>
<polygon fill="#63b8ff" stroke="#63b8ff" points="85.34,-152.24 95.8,-153.93 88.68,-146.09 85.34,-152.24"/>
</a>
</g>
</g>
<!-- Node4 -->
<g id="Node000004" class="node">
<title>Node4</title>
<g id="a_Node000004"><a xlink:href="accesscontrol__default_8hpp.html" target="_top" xlink:title=" ">
<polygon fill="white" stroke="#666666" points="256,-118 63,-118 63,-77 256,-77 256,-118"/>
<text text-anchor="start" x="71" y="-106" font-family="Helvetica,sans-Serif" font-size="10.00">/home/runner/work/open62541pp</text>
<text text-anchor="start" x="71" y="-95" font-family="Helvetica,sans-Serif" font-size="10.00">/open62541pp/include/open62541pp</text>
<text text-anchor="middle" x="159.5" y="-84" font-family="Helvetica,sans-Serif" font-size="10.00">/plugin/accesscontrol_default.hpp</text>
</a>
</g>
</g>
<!-- Node3&#45;&gt;Node4 -->
<g id="edge4_Node000003_Node000004" class="edge">
<title>Node3&#45;&gt;Node4</title>
<g id="a_edge4_Node000003_Node000004"><a xlink:title=" ">
<path fill="none" stroke="#63b8ff" d="M159.5,-143.69C159.5,-135.08 159.5,-125.9 159.5,-118.07"/>
<polygon fill="#63b8ff" stroke="#63b8ff" points="156,-143.79 159.5,-153.79 163,-143.79 156,-143.79"/>
</a>
</g>
</g>
<!-- Node3&#45;&gt;Node5 -->
<g id="edge6_Node000003_Node000005" class="edge">
<title>Node3&#45;&gt;Node5</title>
<g id="a_edge6_Node000003_Node000005"><a xlink:title=" ">
<path fill="none" stroke="#63b8ff" d="M224.1,-150.54C253.34,-140.15 287.53,-127.99 315.52,-118.04"/>
<polygon fill="#63b8ff" stroke="#63b8ff" points="222.64,-147.34 214.39,-153.99 224.98,-153.94 222.64,-147.34"/>
</a>
</g>
</g>
<!-- Node4&#45;&gt;Node2 -->
<g id="edge5_Node000004_Node000002" class="edge">
<title>Node4&#45;&gt;Node2</title>
<g id="a_edge5_Node000004_Node000002"><a xlink:title=" ">
<path fill="none" stroke="#63b8ff" d="M136.36,-68.95C128.59,-59.7 120.09,-49.58 112.94,-41.07"/>
<polygon fill="#63b8ff" stroke="#63b8ff" points="133.84,-71.39 142.95,-76.79 139.2,-66.89 133.84,-71.39"/>
</a>
</g>
</g>
<!-- Node5&#45;&gt;Node2 -->
<g id="edge7_Node000005_Node000002" class="edge">
<title>Node5&#45;&gt;Node2</title>
<g id="a_edge7_Node000005_Node000002"><a xlink:title=" ">
<path fill="none" stroke="#63b8ff" d="M289.57,-74.35C250.97,-63.78 205.19,-51.25 167.89,-41.04"/>
<polygon fill="#63b8ff" stroke="#63b8ff" points="288.66,-77.73 299.22,-76.99 290.5,-70.97 288.66,-77.73"/>
</a>
</g>
</g>
</g>
</svg>
