<?xml version="1.0" encoding="UTF-8" standalone="no"?>
<!DOCTYPE svg PUBLIC "-//W3C//DTD SVG 1.1//EN"
 "http://www.w3.org/Graphics/SVG/1.1/DTD/svg11.dtd">
<!-- Generated by graphviz version 2.43.0 (0)
 -->
<!-- Title: /home/runner/work/open62541pp/open62541pp/include/open62541pp/Traits.h Pages: 1 -->
<svg width="1947pt" height="908pt"
 viewBox="0.00 0.00 1946.50 908.00" xmlns="http://www.w3.org/2000/svg" xmlns:xlink="http://www.w3.org/1999/xlink">
<g id="graph0" class="graph" transform="scale(1 1) rotate(0) translate(4 904)">
<title>/home/runner/work/open62541pp/open62541pp/include/open62541pp/Traits.h</title>
<!-- Node1 -->
<g id="node1" class="node">
<title>Node1</title>
<g id="a_node1"><a xlink:title=" ">
<polygon fill="#bfbfbf" stroke="black" points="0,-858.5 0,-899.5 193,-899.5 193,-858.5 0,-858.5"/>
<text text-anchor="start" x="8" y="-887.5" font-family="Helvetica,sans-Serif" font-size="10.00">/home/runner/work/open62541pp</text>
<text text-anchor="start" x="8" y="-876.5" font-family="Helvetica,sans-Serif" font-size="10.00">/open62541pp/include/open62541pp</text>
<text text-anchor="middle" x="96.5" y="-865.5" font-family="Helvetica,sans-Serif" font-size="10.00">/Traits.h</text>
</a>
</g>
</g>
<!-- Node2 -->
<g id="node2" class="node">
<title>Node2</title>
<g id="a_node2"><a xlink:href="Common_8h.html" target="_top" xlink:title=" ">
<polygon fill="none" stroke="black" points="708,-780.5 708,-821.5 901,-821.5 901,-780.5 708,-780.5"/>
<text text-anchor="start" x="716" y="-809.5" font-family="Helvetica,sans-Serif" font-size="10.00">/home/runner/work/open62541pp</text>
<text text-anchor="start" x="716" y="-798.5" font-family="Helvetica,sans-Serif" font-size="10.00">/open62541pp/include/open62541pp</text>
<text text-anchor="middle" x="804.5" y="-787.5" font-family="Helvetica,sans-Serif" font-size="10.00">/Common.h</text>
</a>
</g>
</g>
<!-- Node1&#45;&gt;Node2 -->
<g id="edge1" class="edge">
<title>Node1&#45;&gt;Node2</title>
<path fill="none" stroke="midnightblue" d="M203.18,-866.55C340.13,-851.85 575.78,-826.55 707.75,-812.39"/>
<polygon fill="midnightblue" stroke="midnightblue" points="202.66,-863.08 193.09,-867.63 203.41,-870.04 202.66,-863.08"/>
</g>
<!-- Node4 -->
<g id="node4" class="node">
<title>Node4</title>
<g id="a_node4"><a xlink:href="open62541pp_8h.html" target="_top" xlink:title=" ">
<polygon fill="none" stroke="black" points="190,-0.5 190,-41.5 383,-41.5 383,-0.5 190,-0.5"/>
<text text-anchor="start" x="198" y="-29.5" font-family="Helvetica,sans-Serif" font-size="10.00">/home/runner/work/open62541pp</text>
<text text-anchor="start" x="198" y="-18.5" font-family="Helvetica,sans-Serif" font-size="10.00">/open62541pp/include/open62541pp</text>
<text text-anchor="middle" x="286.5" y="-7.5" font-family="Helvetica,sans-Serif" font-size="10.00">/open62541pp.h</text>
</a>
</g>
</g>
<!-- Node1&#45;&gt;Node4 -->
<g id="edge67" class="edge">
<title>Node1&#45;&gt;Node4</title>
<path fill="none" stroke="midnightblue" d="M72.91,-850C50.6,-820.6 20.5,-772.03 20.5,-724 20.5,-724 20.5,-724 20.5,-176 20.5,-126.27 35.3,-108.6 74.5,-78 107.36,-52.35 150.9,-38.4 189.96,-30.83"/>
<polygon fill="midnightblue" stroke="midnightblue" points="70.34,-852.4 79.25,-858.13 75.86,-848.09 70.34,-852.4"/>
</g>
<!-- Node5 -->
<g id="node5" class="node">
<title>Node5</title>
<g id="a_node5"><a xlink:href="TypeConverter_8h.html" target="_top" xlink:title=" ">
<polygon fill="none" stroke="black" points="239,-468.5 239,-509.5 432,-509.5 432,-468.5 239,-468.5"/>
<text text-anchor="start" x="247" y="-497.5" font-family="Helvetica,sans-Serif" font-size="10.00">/home/runner/work/open62541pp</text>
<text text-anchor="start" x="247" y="-486.5" font-family="Helvetica,sans-Serif" font-size="10.00">/open62541pp/include/open62541pp</text>
<text text-anchor="middle" x="335.5" y="-475.5" font-family="Helvetica,sans-Serif" font-size="10.00">/TypeConverter.h</text>
</a>
</g>
</g>
<!-- Node1&#45;&gt;Node5 -->
<g id="edge68" class="edge">
<title>Node1&#45;&gt;Node5</title>
<path fill="none" stroke="midnightblue" d="M96.5,-847.91C96.5,-816.87 96.5,-767.05 96.5,-724 96.5,-724 96.5,-724 96.5,-644 96.5,-570.33 177.74,-530.22 245.48,-509.57"/>
<polygon fill="midnightblue" stroke="midnightblue" points="93,-848.06 96.5,-858.07 100,-848.07 93,-848.06"/>
</g>
<!-- Node3 -->
<g id="node3" class="node">
<title>Node3</title>
<g id="a_node3"><a xlink:href="Helper_8h.html" target="_top" xlink:title=" ">
<polygon fill="none" stroke="black" points="1009,-702.5 1009,-743.5 1202,-743.5 1202,-702.5 1009,-702.5"/>
<text text-anchor="start" x="1017" y="-731.5" font-family="Helvetica,sans-Serif" font-size="10.00">/home/runner/work/open62541pp</text>
<text text-anchor="start" x="1017" y="-720.5" font-family="Helvetica,sans-Serif" font-size="10.00">/open62541pp/include/open62541pp</text>
<text text-anchor="middle" x="1105.5" y="-709.5" font-family="Helvetica,sans-Serif" font-size="10.00">/Helper.h</text>
</a>
</g>
</g>
<!-- Node2&#45;&gt;Node3 -->
<g id="edge2" class="edge">
<title>Node2&#45;&gt;Node3</title>
<path fill="none" stroke="midnightblue" d="M891.93,-777.92C935.05,-767.04 986.6,-754.02 1028.25,-743.51"/>
<polygon fill="midnightblue" stroke="midnightblue" points="890.85,-774.59 882.01,-780.43 892.57,-781.37 890.85,-774.59"/>
</g>
<!-- Node2&#45;&gt;Node4 -->
<g id="edge60" class="edge">
<title>Node2&#45;&gt;Node4</title>
<path fill="none" stroke="midnightblue" d="M697.49,-799.9C491.16,-796.79 58.5,-774.91 58.5,-646 58.5,-646 58.5,-646 58.5,-176 58.5,-103.28 139.14,-62.58 204.51,-41.55"/>
<polygon fill="midnightblue" stroke="midnightblue" points="697.69,-803.4 707.74,-800.04 697.79,-796.4 697.69,-803.4"/>
</g>
<!-- Node2&#45;&gt;Node5 -->
<g id="edge64" class="edge">
<title>Node2&#45;&gt;Node5</title>
<path fill="none" stroke="midnightblue" d="M724.65,-777.53C651.66,-755.13 542.21,-716.76 455.5,-666 408.65,-638.57 390.74,-633.74 361.5,-588 346.05,-563.82 339.73,-530.7 337.18,-509.83"/>
<polygon fill="midnightblue" stroke="midnightblue" points="723.67,-780.89 734.26,-780.45 725.71,-774.19 723.67,-780.89"/>
</g>
<!-- Node6 -->
<g id="node6" class="node">
<title>Node6</title>
<g id="a_node6"><a xlink:href="Node_8h.html" target="_top" xlink:title=" ">
<polygon fill="none" stroke="black" points="869.5,-78.5 869.5,-119.5 1065.5,-119.5 1065.5,-78.5 869.5,-78.5"/>
<text text-anchor="start" x="877.5" y="-107.5" font-family="Helvetica,sans-Serif" font-size="10.00">/home/runner/work/open62541pp</text>
<text text-anchor="start" x="877.5" y="-96.5" font-family="Helvetica,sans-Serif" font-size="10.00">/open62541pp/include/open62541pp/</text>
<text text-anchor="middle" x="967.5" y="-85.5" font-family="Helvetica,sans-Serif" font-size="10.00">Node.h</text>
</a>
</g>
</g>
<!-- Node2&#45;&gt;Node6 -->
<g id="edge59" class="edge">
<title>Node2&#45;&gt;Node6</title>
<path fill="none" stroke="midnightblue" d="M911.27,-796.23C1188.63,-785.03 1910.5,-746.24 1910.5,-646 1910.5,-646 1910.5,-646 1910.5,-566 1910.5,-417.43 1974.97,-340.61 1871.5,-234 1761.55,-120.72 1276.29,-102.58 1065.64,-100.12"/>
<polygon fill="midnightblue" stroke="midnightblue" points="911.05,-792.74 901.2,-796.63 911.33,-799.73 911.05,-792.74"/>
</g>
<!-- Node8 -->
<g id="node8" class="node">
<title>Node8</title>
<g id="a_node8"><a xlink:href="Variant_8h.html" target="_top" xlink:title=" ">
<polygon fill="none" stroke="black" points="718,-390.5 718,-431.5 911,-431.5 911,-390.5 718,-390.5"/>
<text text-anchor="start" x="726" y="-419.5" font-family="Helvetica,sans-Serif" font-size="10.00">/home/runner/work/open62541pp</text>
<text text-anchor="start" x="726" y="-408.5" font-family="Helvetica,sans-Serif" font-size="10.00">/open62541pp/include/open62541pp</text>
<text text-anchor="middle" x="814.5" y="-397.5" font-family="Helvetica,sans-Serif" font-size="10.00">/types/Variant.h</text>
</a>
</g>
</g>
<!-- Node2&#45;&gt;Node8 -->
<g id="edge65" class="edge">
<title>Node2&#45;&gt;Node8</title>
<path fill="none" stroke="midnightblue" d="M817.29,-770.42C829.32,-739.86 845.5,-690.49 845.5,-646 845.5,-646 845.5,-646 845.5,-566 845.5,-516.91 830.17,-460.72 821.07,-431.68"/>
<polygon fill="midnightblue" stroke="midnightblue" points="813.91,-769.44 813.4,-780.03 820.39,-772.07 813.91,-769.44"/>
</g>
<!-- Node9 -->
<g id="node9" class="node">
<title>Node9</title>
<g id="a_node9"><a xlink:href="Attribute_8h.html" target="_top" xlink:title=" ">
<polygon fill="none" stroke="black" points="964,-234.5 964,-275.5 1157,-275.5 1157,-234.5 964,-234.5"/>
<text text-anchor="start" x="972" y="-263.5" font-family="Helvetica,sans-Serif" font-size="10.00">/home/runner/work/open62541pp</text>
<text text-anchor="start" x="972" y="-252.5" font-family="Helvetica,sans-Serif" font-size="10.00">/open62541pp/include/open62541pp</text>
<text text-anchor="middle" x="1060.5" y="-241.5" font-family="Helvetica,sans-Serif" font-size="10.00">/services/Attribute.h</text>
</a>
</g>
</g>
<!-- Node2&#45;&gt;Node9 -->
<g id="edge61" class="edge">
<title>Node2&#45;&gt;Node9</title>
<path fill="none" stroke="midnightblue" d="M911.39,-786.5C993.58,-775.83 1109.89,-760.09 1211.5,-744 1450.24,-706.19 1631.76,-807.72 1732.5,-588 1786.22,-470.84 1760.92,-365.14 1643.5,-312 1561.99,-275.11 1331.53,-284.89 1242.5,-276 1214.82,-273.24 1184.8,-270.03 1157.28,-267"/>
<polygon fill="midnightblue" stroke="midnightblue" points="910.76,-783.05 901.29,-787.81 911.65,-790 910.76,-783.05"/>
</g>
<!-- Node15 -->
<g id="node15" class="node">
<title>Node15</title>
<g id="a_node15"><a xlink:href="TypeWrapper_8h.html" target="_top" xlink:title=" ">
<polygon fill="none" stroke="black" points="624,-624.5 624,-665.5 817,-665.5 817,-624.5 624,-624.5"/>
<text text-anchor="start" x="632" y="-653.5" font-family="Helvetica,sans-Serif" font-size="10.00">/home/runner/work/open62541pp</text>
<text text-anchor="start" x="632" y="-642.5" font-family="Helvetica,sans-Serif" font-size="10.00">/open62541pp/include/open62541pp</text>
<text text-anchor="middle" x="720.5" y="-631.5" font-family="Helvetica,sans-Serif" font-size="10.00">/TypeWrapper.h</text>
</a>
</g>
</g>
<!-- Node2&#45;&gt;Node15 -->
<g id="edge66" class="edge">
<title>Node2&#45;&gt;Node15</title>
<path fill="none" stroke="midnightblue" d="M788.99,-771.56C772.23,-740.85 745.98,-692.71 731.32,-665.83"/>
<polygon fill="midnightblue" stroke="midnightblue" points="786,-773.39 793.86,-780.5 792.15,-770.04 786,-773.39"/>
</g>
<!-- Node17 -->
<g id="node17" class="node">
<title>Node17</title>
<g id="a_node17"><a xlink:href="Browse_8h.html" target="_top" xlink:title=" ">
<polygon fill="none" stroke="black" points="1214,-312.5 1214,-353.5 1407,-353.5 1407,-312.5 1214,-312.5"/>
<text text-anchor="start" x="1222" y="-341.5" font-family="Helvetica,sans-Serif" font-size="10.00">/home/runner/work/open62541pp</text>
<text text-anchor="start" x="1222" y="-330.5" font-family="Helvetica,sans-Serif" font-size="10.00">/open62541pp/include/open62541pp</text>
<text text-anchor="middle" x="1310.5" y="-319.5" font-family="Helvetica,sans-Serif" font-size="10.00">/services/Browse.h</text>
</a>
</g>
</g>
<!-- Node2&#45;&gt;Node17 -->
<g id="edge62" class="edge">
<title>Node2&#45;&gt;Node17</title>
<path fill="none" stroke="midnightblue" d="M839.08,-774.22C932.18,-704.42 1185.61,-511.71 1253.5,-432 1274.3,-407.58 1291.72,-374.52 1301.63,-353.73"/>
<polygon fill="midnightblue" stroke="midnightblue" points="836.75,-771.59 830.84,-780.39 840.95,-777.2 836.75,-771.59"/>
</g>
<!-- Node20 -->
<g id="node20" class="node">
<title>Node20</title>
<g id="a_node20"><a xlink:href="NodeManagement_8h.html" target="_top" xlink:title=" ">
<polygon fill="none" stroke="black" points="717,-312.5 717,-353.5 910,-353.5 910,-312.5 717,-312.5"/>
<text text-anchor="start" x="725" y="-341.5" font-family="Helvetica,sans-Serif" font-size="10.00">/home/runner/work/open62541pp</text>
<text text-anchor="start" x="725" y="-330.5" font-family="Helvetica,sans-Serif" font-size="10.00">/open62541pp/include/open62541pp</text>
<text text-anchor="middle" x="813.5" y="-319.5" font-family="Helvetica,sans-Serif" font-size="10.00">/services/NodeManagement.h</text>
</a>
</g>
</g>
<!-- Node2&#45;&gt;Node20 -->
<g id="edge63" class="edge">
<title>Node2&#45;&gt;Node20</title>
<path fill="none" stroke="midnightblue" d="M697.79,-795.83C517.61,-785.86 172.5,-752.82 172.5,-646 172.5,-646 172.5,-646 172.5,-566 172.5,-515.61 188.93,-497.88 229.5,-468 306.14,-411.56 571.63,-367.34 716.82,-346.71"/>
<polygon fill="midnightblue" stroke="midnightblue" points="697.65,-799.33 707.82,-796.37 698.03,-792.34 697.65,-799.33"/>
</g>
<!-- Node3&#45;&gt;Node4 -->
<g id="edge3" class="edge">
<title>Node3&#45;&gt;Node4</title>
<path fill="none" stroke="midnightblue" d="M998.7,-718.15C841.08,-711.56 554.16,-695.84 455.5,-666 299.76,-618.89 134.5,-652.7 134.5,-490 134.5,-490 134.5,-490 134.5,-176 134.5,-126.9 151.24,-113.17 185.5,-78 200.26,-62.85 220.01,-50.67 238.12,-41.6"/>
<polygon fill="midnightblue" stroke="midnightblue" points="998.76,-721.65 1008.9,-718.57 999.05,-714.66 998.76,-721.65"/>
</g>
<!-- Node3&#45;&gt;Node5 -->
<g id="edge4" class="edge">
<title>Node3&#45;&gt;Node5</title>
<path fill="none" stroke="midnightblue" d="M998.44,-717.08C898.32,-710.77 745.19,-696.7 615.5,-666 517.4,-642.78 482.08,-649.9 402.5,-588 375.33,-566.87 355.1,-531.6 344.31,-509.64"/>
<polygon fill="midnightblue" stroke="midnightblue" points="998.37,-720.58 1008.57,-717.71 998.8,-713.6 998.37,-720.58"/>
</g>
<!-- Node7 -->
<g id="node7" class="node">
<title>Node7</title>
<g id="a_node7"><a xlink:href="Server_8cpp.html" target="_top" xlink:title=" ">
<polygon fill="none" stroke="black" points="1577.5,-6 1577.5,-36 1755.5,-36 1755.5,-6 1577.5,-6"/>
<text text-anchor="start" x="1585.5" y="-24" font-family="Helvetica,sans-Serif" font-size="10.00">/home/runner/work/open62541pp</text>
<text text-anchor="middle" x="1666.5" y="-13" font-family="Helvetica,sans-Serif" font-size="10.00">/open62541pp/src/Server.cpp</text>
</a>
</g>
</g>
<!-- Node3&#45;&gt;Node7 -->
<g id="edge53" class="edge">
<title>Node3&#45;&gt;Node7</title>
<path fill="none" stroke="midnightblue" d="M1212.36,-701.56C1338.87,-688.82 1630.32,-723 1727.5,-666 1795.43,-626.16 1938.5,-526.66 1938.5,-334 1938.5,-334 1938.5,-334 1938.5,-176 1938.5,-90.26 1834.89,-51.69 1755.56,-34.73"/>
<polygon fill="midnightblue" stroke="midnightblue" points="1211.62,-698.12 1202.09,-702.74 1212.43,-705.07 1211.62,-698.12"/>
</g>
<!-- Node3&#45;&gt;Node8 -->
<g id="edge22" class="edge">
<title>Node3&#45;&gt;Node8</title>
<path fill="none" stroke="midnightblue" d="M1054.38,-697.56C1038.77,-688.8 1022.13,-678.07 1008.5,-666 926.04,-593 927.11,-554.94 859.5,-468 850.01,-455.79 839.15,-442.27 830.48,-431.57"/>
<polygon fill="midnightblue" stroke="midnightblue" points="1052.98,-700.77 1063.43,-702.48 1056.32,-694.63 1052.98,-700.77"/>
</g>
<!-- Node11 -->
<g id="node11" class="node">
<title>Node11</title>
<g id="a_node11"><a xlink:href="Attribute_8cpp.html" target="_top" xlink:title=" ">
<polygon fill="none" stroke="black" points="1299.5,-156.5 1299.5,-197.5 1477.5,-197.5 1477.5,-156.5 1299.5,-156.5"/>
<text text-anchor="start" x="1307.5" y="-185.5" font-family="Helvetica,sans-Serif" font-size="10.00">/home/runner/work/open62541pp</text>
<text text-anchor="start" x="1307.5" y="-174.5" font-family="Helvetica,sans-Serif" font-size="10.00">/open62541pp/src/services</text>
<text text-anchor="middle" x="1388.5" y="-163.5" font-family="Helvetica,sans-Serif" font-size="10.00">/Attribute.cpp</text>
</a>
</g>
</g>
<!-- Node3&#45;&gt;Node11 -->
<g id="edge54" class="edge">
<title>Node3&#45;&gt;Node11</title>
<path fill="none" stroke="midnightblue" d="M1212.05,-701.57C1330.46,-689.17 1599.87,-715.48 1692.5,-666 1731.32,-645.27 1733.48,-627.19 1753.5,-588 1827.35,-443.43 1951.05,-355.6 1843.5,-234 1831.5,-220.44 1606.59,-197.85 1477.57,-185.93"/>
<polygon fill="midnightblue" stroke="midnightblue" points="1211.61,-698.1 1202.09,-702.76 1212.43,-705.05 1211.61,-698.1"/>
</g>
<!-- Node14 -->
<g id="node14" class="node">
<title>Node14</title>
<g id="a_node14"><a xlink:href="Variant_8cpp.html" target="_top" xlink:title=" ">
<polygon fill="none" stroke="black" points="928,-318 928,-348 1119,-348 1119,-318 928,-318"/>
<text text-anchor="start" x="936" y="-336" font-family="Helvetica,sans-Serif" font-size="10.00">/home/runner/work/open62541pp</text>
<text text-anchor="middle" x="1023.5" y="-325" font-family="Helvetica,sans-Serif" font-size="10.00">/open62541pp/src/types/Variant.cpp</text>
</a>
</g>
</g>
<!-- Node3&#45;&gt;Node14 -->
<g id="edge58" class="edge">
<title>Node3&#45;&gt;Node14</title>
<path fill="none" stroke="midnightblue" d="M1067.48,-695.96C1057.64,-687.49 1048,-677.31 1041.5,-666 1019.39,-627.54 1022.5,-612.37 1022.5,-568 1022.5,-568 1022.5,-568 1022.5,-488 1022.5,-436.4 1023.07,-375.07 1023.35,-348.01"/>
<polygon fill="midnightblue" stroke="midnightblue" points="1065.39,-698.78 1075.35,-702.39 1069.82,-693.35 1065.39,-698.78"/>
</g>
<!-- Node3&#45;&gt;Node15 -->
<g id="edge23" class="edge">
<title>Node3&#45;&gt;Node15</title>
<path fill="none" stroke="midnightblue" d="M998.74,-700.93C941.88,-689.7 872.46,-676 817.19,-665.09"/>
<polygon fill="midnightblue" stroke="midnightblue" points="998.36,-704.42 1008.85,-702.92 999.71,-697.55 998.36,-704.42"/>
</g>
<!-- Node21 -->
<g id="node21" class="node">
<title>Node21</title>
<g id="a_node21"><a xlink:href="NodeManagement_8cpp.html" target="_top" xlink:title=" ">
<polygon fill="none" stroke="black" points="1656.5,-234.5 1656.5,-275.5 1834.5,-275.5 1834.5,-234.5 1656.5,-234.5"/>
<text text-anchor="start" x="1664.5" y="-263.5" font-family="Helvetica,sans-Serif" font-size="10.00">/home/runner/work/open62541pp</text>
<text text-anchor="start" x="1664.5" y="-252.5" font-family="Helvetica,sans-Serif" font-size="10.00">/open62541pp/src/services</text>
<text text-anchor="middle" x="1745.5" y="-241.5" font-family="Helvetica,sans-Serif" font-size="10.00">/NodeManagement.cpp</text>
</a>
</g>
</g>
<!-- Node3&#45;&gt;Node21 -->
<g id="edge55" class="edge">
<title>Node3&#45;&gt;Node21</title>
<path fill="none" stroke="midnightblue" d="M1212.6,-718.78C1347.66,-713.38 1571.34,-699.55 1646.5,-666 1693.62,-644.96 1710.68,-634.76 1732.5,-588 1783.12,-479.54 1760.22,-328.78 1749.73,-275.55"/>
<polygon fill="midnightblue" stroke="midnightblue" points="1212.08,-715.3 1202.22,-719.19 1212.35,-722.3 1212.08,-715.3"/>
</g>
<!-- Node22 -->
<g id="node22" class="node">
<title>Node22</title>
<g id="a_node22"><a xlink:href="NodeId_8cpp.html" target="_top" xlink:title=" ">
<polygon fill="none" stroke="black" points="1425,-318 1425,-348 1616,-348 1616,-318 1425,-318"/>
<text text-anchor="start" x="1433" y="-336" font-family="Helvetica,sans-Serif" font-size="10.00">/home/runner/work/open62541pp</text>
<text text-anchor="middle" x="1520.5" y="-325" font-family="Helvetica,sans-Serif" font-size="10.00">/open62541pp/src/types/NodeId.cpp</text>
</a>
</g>
</g>
<!-- Node3&#45;&gt;Node22 -->
<g id="edge57" class="edge">
<title>Node3&#45;&gt;Node22</title>
<path fill="none" stroke="midnightblue" d="M1212.35,-717.09C1388.48,-706.05 1720.5,-671.52 1720.5,-568 1720.5,-568 1720.5,-568 1720.5,-488 1720.5,-443.63 1731.12,-423.03 1701.5,-390 1679.65,-365.64 1647.44,-351.75 1616.23,-343.88"/>
<polygon fill="midnightblue" stroke="midnightblue" points="1212.04,-713.61 1202.27,-717.71 1212.47,-720.59 1212.04,-713.61"/>
</g>
<!-- Node23 -->
<g id="node23" class="node">
<title>Node23</title>
<g id="a_node23"><a xlink:href="Builtin_8cpp.html" target="_top" xlink:title=" ">
<polygon fill="none" stroke="black" points="1504.5,-396 1504.5,-426 1692.5,-426 1692.5,-396 1504.5,-396"/>
<text text-anchor="start" x="1512.5" y="-414" font-family="Helvetica,sans-Serif" font-size="10.00">/home/runner/work/open62541pp</text>
<text text-anchor="middle" x="1598.5" y="-403" font-family="Helvetica,sans-Serif" font-size="10.00">/open62541pp/src/types/Builtin.cpp</text>
</a>
</g>
</g>
<!-- Node3&#45;&gt;Node23 -->
<g id="edge56" class="edge">
<title>Node3&#45;&gt;Node23</title>
<path fill="none" stroke="midnightblue" d="M1165.36,-698.45C1247.27,-664.47 1396.52,-596.23 1505.5,-510 1538.43,-483.95 1570.78,-446.42 1587.26,-426.19"/>
<polygon fill="midnightblue" stroke="midnightblue" points="1163.63,-695.37 1155.71,-702.42 1166.29,-701.85 1163.63,-695.37"/>
</g>
<!-- Node26 -->
<g id="node26" class="node">
<title>Node26</title>
<g id="a_node26"><a xlink:href="Helper_8cpp.html" target="_top" xlink:title=" ">
<polygon fill="none" stroke="black" points="1050.5,-630 1050.5,-660 1228.5,-660 1228.5,-630 1050.5,-630"/>
<text text-anchor="start" x="1058.5" y="-648" font-family="Helvetica,sans-Serif" font-size="10.00">/home/runner/work/open62541pp</text>
<text text-anchor="middle" x="1139.5" y="-637" font-family="Helvetica,sans-Serif" font-size="10.00">/open62541pp/src/Helper.cpp</text>
</a>
</g>
</g>
<!-- Node3&#45;&gt;Node26 -->
<g id="edge52" class="edge">
<title>Node3&#45;&gt;Node26</title>
<path fill="none" stroke="midnightblue" d="M1118.49,-692.96C1123.51,-681.75 1129.02,-669.43 1133.14,-660.23"/>
<polygon fill="midnightblue" stroke="midnightblue" points="1115.14,-691.87 1114.26,-702.43 1121.53,-694.73 1115.14,-691.87"/>
</g>
<!-- Node5&#45;&gt;Node4 -->
<g id="edge8" class="edge">
<title>Node5&#45;&gt;Node4</title>
<path fill="none" stroke="midnightblue" d="M308.39,-460.48C282.86,-431.53 248.5,-383.4 248.5,-334 248.5,-334 248.5,-334 248.5,-176 248.5,-126.43 267.29,-70.43 278.44,-41.55"/>
<polygon fill="midnightblue" stroke="midnightblue" points="306.01,-463.06 315.32,-468.12 311.19,-458.36 306.01,-463.06"/>
</g>
<!-- Node5&#45;&gt;Node6 -->
<g id="edge5" class="edge">
<title>Node5&#45;&gt;Node6</title>
<path fill="none" stroke="midnightblue" d="M326.38,-458.46C312.46,-406.97 292.55,-299.99 343.5,-234 406.77,-152.05 710.18,-118.34 869.42,-106.11"/>
<polygon fill="midnightblue" stroke="midnightblue" points="323.07,-459.6 329.15,-468.28 329.8,-457.7 323.07,-459.6"/>
</g>
<!-- Node5&#45;&gt;Node8 -->
<g id="edge9" class="edge">
<title>Node5&#45;&gt;Node8</title>
<path fill="none" stroke="midnightblue" d="M442.19,-467.91C542,-451.13 644.78,-435.94 717.74,-425.51"/>
<polygon fill="midnightblue" stroke="midnightblue" points="441.51,-464.48 432.24,-469.59 442.68,-471.38 441.51,-464.48"/>
</g>
<!-- Node6&#45;&gt;Node4 -->
<g id="edge6" class="edge">
<title>Node6&#45;&gt;Node4</title>
<path fill="none" stroke="midnightblue" d="M859.49,-84.43C841.46,-82.23 822.96,-80.02 805.5,-78 658.31,-60.97 487.43,-42.85 383.16,-31.98"/>
<polygon fill="midnightblue" stroke="midnightblue" points="859.09,-87.91 869.44,-85.65 859.94,-80.96 859.09,-87.91"/>
</g>
<!-- Node6&#45;&gt;Node7 -->
<g id="edge7" class="edge">
<title>Node6&#45;&gt;Node7</title>
<path fill="none" stroke="midnightblue" d="M1075.96,-86.21C1213.87,-71.21 1449.38,-45.61 1577.36,-31.69"/>
<polygon fill="midnightblue" stroke="midnightblue" points="1075.36,-82.75 1065.8,-87.31 1076.12,-89.71 1075.36,-82.75"/>
</g>
<!-- Node8&#45;&gt;Node4 -->
<g id="edge11" class="edge">
<title>Node8&#45;&gt;Node4</title>
<path fill="none" stroke="midnightblue" d="M707.93,-403.84C577.53,-395.3 370.74,-378.15 344.5,-354 311.79,-323.89 324.5,-300.45 324.5,-256 324.5,-256 324.5,-256 324.5,-176 324.5,-126.43 305.71,-70.43 294.56,-41.55"/>
<polygon fill="midnightblue" stroke="midnightblue" points="707.75,-407.33 717.96,-404.49 708.2,-400.35 707.75,-407.33"/>
</g>
<!-- Node8&#45;&gt;Node6 -->
<g id="edge10" class="edge">
<title>Node8&#45;&gt;Node6</title>
<path fill="none" stroke="midnightblue" d="M731.12,-385.77C716.98,-377.91 704.11,-367.57 695.5,-354 685.5,-338.24 688.06,-329.12 695.5,-312 738.07,-213.97 853.52,-149.58 919.51,-119.57"/>
<polygon fill="midnightblue" stroke="midnightblue" points="729.57,-388.91 740.07,-390.36 732.76,-382.68 729.57,-388.91"/>
</g>
<!-- Node8&#45;&gt;Node9 -->
<g id="edge12" class="edge">
<title>Node8&#45;&gt;Node9</title>
<path fill="none" stroke="midnightblue" d="M742.36,-385.54C728.88,-377.61 716.52,-367.31 708.5,-354 698.86,-338.01 696.38,-326.2 708.5,-312 740.79,-274.17 871.32,-261.77 963.98,-257.78"/>
<polygon fill="midnightblue" stroke="midnightblue" points="740.88,-388.72 751.34,-390.41 744.22,-382.57 740.88,-388.72"/>
</g>
<!-- Node12 -->
<g id="node12" class="node">
<title>Node12</title>
<g id="a_node12"><a xlink:href="DataValue_8h.html" target="_top" xlink:title=" ">
<polygon fill="none" stroke="black" points="353,-312.5 353,-353.5 546,-353.5 546,-312.5 353,-312.5"/>
<text text-anchor="start" x="361" y="-341.5" font-family="Helvetica,sans-Serif" font-size="10.00">/home/runner/work/open62541pp</text>
<text text-anchor="start" x="361" y="-330.5" font-family="Helvetica,sans-Serif" font-size="10.00">/open62541pp/include/open62541pp</text>
<text text-anchor="middle" x="449.5" y="-319.5" font-family="Helvetica,sans-Serif" font-size="10.00">/types/DataValue.h</text>
</a>
</g>
</g>
<!-- Node8&#45;&gt;Node12 -->
<g id="edge17" class="edge">
<title>Node8&#45;&gt;Node12</title>
<path fill="none" stroke="midnightblue" d="M710.46,-388.34C657.78,-377.37 594.32,-364.16 543.18,-353.51"/>
<polygon fill="midnightblue" stroke="midnightblue" points="710,-391.82 720.5,-390.43 711.43,-384.96 710,-391.82"/>
</g>
<!-- Node8&#45;&gt;Node14 -->
<g id="edge21" class="edge">
<title>Node8&#45;&gt;Node14</title>
<path fill="none" stroke="midnightblue" d="M877.93,-386.93C912.74,-374.28 954.77,-358.99 984.71,-348.11"/>
<polygon fill="midnightblue" stroke="midnightblue" points="876.52,-383.72 868.32,-390.43 878.92,-390.3 876.52,-383.72"/>
</g>
<!-- Node10 -->
<g id="node10" class="node">
<title>Node10</title>
<g id="a_node10"><a xlink:href="services_8h.html" target="_top" xlink:title=" ">
<polygon fill="none" stroke="black" points="871,-156.5 871,-197.5 1064,-197.5 1064,-156.5 871,-156.5"/>
<text text-anchor="start" x="879" y="-185.5" font-family="Helvetica,sans-Serif" font-size="10.00">/home/runner/work/open62541pp</text>
<text text-anchor="start" x="879" y="-174.5" font-family="Helvetica,sans-Serif" font-size="10.00">/open62541pp/include/open62541pp</text>
<text text-anchor="middle" x="967.5" y="-163.5" font-family="Helvetica,sans-Serif" font-size="10.00">/services/services.h</text>
</a>
</g>
</g>
<!-- Node9&#45;&gt;Node10 -->
<g id="edge13" class="edge">
<title>Node9&#45;&gt;Node10</title>
<path fill="none" stroke="midnightblue" d="M1028.76,-228.06C1016.52,-218.06 1002.75,-206.8 991.37,-197.51"/>
<polygon fill="midnightblue" stroke="midnightblue" points="1026.59,-230.81 1036.55,-234.43 1031.02,-225.39 1026.59,-230.81"/>
</g>
<!-- Node9&#45;&gt;Node11 -->
<g id="edge16" class="edge">
<title>Node9&#45;&gt;Node11</title>
<path fill="none" stroke="midnightblue" d="M1154.88,-232.13C1202.05,-221.2 1258.64,-208.09 1304.32,-197.51"/>
<polygon fill="midnightblue" stroke="midnightblue" points="1153.92,-228.76 1144.97,-234.43 1155.5,-235.58 1153.92,-228.76"/>
</g>
<!-- Node10&#45;&gt;Node4 -->
<g id="edge15" class="edge">
<title>Node10&#45;&gt;Node4</title>
<path fill="none" stroke="midnightblue" d="M880.68,-154C798.81,-133.49 672.6,-102.48 562.5,-78 503.08,-64.79 436.18,-51.18 383.12,-40.69"/>
<polygon fill="midnightblue" stroke="midnightblue" points="879.88,-157.41 890.43,-156.45 881.59,-150.62 879.88,-157.41"/>
</g>
<!-- Node10&#45;&gt;Node6 -->
<g id="edge14" class="edge">
<title>Node10&#45;&gt;Node6</title>
<path fill="none" stroke="midnightblue" d="M967.5,-146.3C967.5,-137.3 967.5,-127.65 967.5,-119.51"/>
<polygon fill="midnightblue" stroke="midnightblue" points="964,-146.43 967.5,-156.43 971,-146.43 964,-146.43"/>
</g>
<!-- Node12&#45;&gt;Node6 -->
<g id="edge18" class="edge">
<title>Node12&#45;&gt;Node6</title>
<path fill="none" stroke="midnightblue" d="M515.36,-308.27C533.46,-299.83 552.27,-289.09 567.5,-276 616.29,-234.05 594.52,-191.02 648.5,-156 684.23,-132.82 789.4,-117.46 869.29,-108.79"/>
<polygon fill="midnightblue" stroke="midnightblue" points="513.68,-305.19 505.99,-312.48 516.54,-311.58 513.68,-305.19"/>
</g>
<!-- Node12&#45;&gt;Node9 -->
<g id="edge19" class="edge">
<title>Node12&#45;&gt;Node9</title>
<path fill="none" stroke="midnightblue" d="M556.34,-317.49C570.51,-315.62 584.85,-313.74 598.5,-312 724.53,-295.9 870.05,-278.45 963.56,-267.38"/>
<polygon fill="midnightblue" stroke="midnightblue" points="555.51,-314.07 546.06,-318.86 556.43,-321.01 555.51,-314.07"/>
</g>
<!-- Node13 -->
<g id="node13" class="node">
<title>Node13</title>
<g id="a_node13"><a xlink:href="DataValue_8cpp.html" target="_top" xlink:title=" ">
<polygon fill="none" stroke="black" points="352.5,-240 352.5,-270 558.5,-270 558.5,-240 352.5,-240"/>
<text text-anchor="start" x="360.5" y="-258" font-family="Helvetica,sans-Serif" font-size="10.00">/home/runner/work/open62541pp</text>
<text text-anchor="middle" x="455.5" y="-247" font-family="Helvetica,sans-Serif" font-size="10.00">/open62541pp/src/types/DataValue.cpp</text>
</a>
</g>
</g>
<!-- Node12&#45;&gt;Node13 -->
<g id="edge20" class="edge">
<title>Node12&#45;&gt;Node13</title>
<path fill="none" stroke="midnightblue" d="M451.85,-302.28C452.72,-291.25 453.66,-279.25 454.38,-270.23"/>
<polygon fill="midnightblue" stroke="midnightblue" points="448.34,-302.18 451.05,-312.43 455.32,-302.73 448.34,-302.18"/>
</g>
<!-- Node15&#45;&gt;Node4 -->
<g id="edge24" class="edge">
<title>Node15&#45;&gt;Node4</title>
<path fill="none" stroke="midnightblue" d="M613.45,-631.92C551.01,-623.21 471.26,-609.19 402.5,-588 321.9,-563.16 285.76,-572.84 229.5,-510 174.66,-448.74 172.5,-416.22 172.5,-334 172.5,-334 172.5,-334 172.5,-176 172.5,-118.29 224.86,-68.07 258.61,-41.69"/>
<polygon fill="midnightblue" stroke="midnightblue" points="613.33,-635.44 623.71,-633.33 614.28,-628.5 613.33,-635.44"/>
</g>
<!-- Node15&#45;&gt;Node5 -->
<g id="edge25" class="edge">
<title>Node15&#45;&gt;Node5</title>
<path fill="none" stroke="midnightblue" d="M613.93,-628.9C569.84,-620.31 518.97,-607.29 475.5,-588 429.94,-567.78 383.89,-531.89 357.61,-509.61"/>
<polygon fill="midnightblue" stroke="midnightblue" points="613.33,-632.35 623.81,-630.77 614.64,-625.47 613.33,-632.35"/>
</g>
<!-- Node15&#45;&gt;Node8 -->
<g id="edge51" class="edge">
<title>Node15&#45;&gt;Node8</title>
<path fill="none" stroke="midnightblue" d="M732.37,-614.72C751.81,-566.73 789.94,-472.61 806.51,-431.73"/>
<polygon fill="midnightblue" stroke="midnightblue" points="729.03,-613.64 728.51,-624.22 735.51,-616.27 729.03,-613.64"/>
</g>
<!-- Node15&#45;&gt;Node12 -->
<g id="edge45" class="edge">
<title>Node15&#45;&gt;Node12</title>
<path fill="none" stroke="midnightblue" d="M719.1,-614.02C714.74,-559.07 696.86,-442.99 623.5,-390 600.73,-373.56 572.91,-361.79 546.25,-353.43"/>
<polygon fill="midnightblue" stroke="midnightblue" points="715.62,-614.43 719.8,-624.16 722.6,-613.94 715.62,-614.43"/>
</g>
<!-- Node16 -->
<g id="node16" class="node">
<title>Node16</title>
<g id="a_node16"><a xlink:href="Builtin_8h.html" target="_top" xlink:title=" ">
<polygon fill="none" stroke="black" points="1303,-468.5 1303,-509.5 1496,-509.5 1496,-468.5 1303,-468.5"/>
<text text-anchor="start" x="1311" y="-497.5" font-family="Helvetica,sans-Serif" font-size="10.00">/home/runner/work/open62541pp</text>
<text text-anchor="start" x="1311" y="-486.5" font-family="Helvetica,sans-Serif" font-size="10.00">/open62541pp/include/open62541pp</text>
<text text-anchor="middle" x="1399.5" y="-475.5" font-family="Helvetica,sans-Serif" font-size="10.00">/types/Builtin.h</text>
</a>
</g>
</g>
<!-- Node15&#45;&gt;Node16 -->
<g id="edge26" class="edge">
<title>Node15&#45;&gt;Node16</title>
<path fill="none" stroke="midnightblue" d="M816.64,-622.19C949.26,-592.12 1186.31,-538.35 1313.4,-509.53"/>
<polygon fill="midnightblue" stroke="midnightblue" points="815.47,-618.87 806.5,-624.5 817.02,-625.7 815.47,-618.87"/>
</g>
<!-- Node19 -->
<g id="node19" class="node">
<title>Node19</title>
<g id="a_node19"><a xlink:href="NodeId_8h.html" target="_top" xlink:title=" ">
<polygon fill="none" stroke="black" points="1051,-390.5 1051,-431.5 1244,-431.5 1244,-390.5 1051,-390.5"/>
<text text-anchor="start" x="1059" y="-419.5" font-family="Helvetica,sans-Serif" font-size="10.00">/home/runner/work/open62541pp</text>
<text text-anchor="start" x="1059" y="-408.5" font-family="Helvetica,sans-Serif" font-size="10.00">/open62541pp/include/open62541pp</text>
<text text-anchor="middle" x="1147.5" y="-397.5" font-family="Helvetica,sans-Serif" font-size="10.00">/types/NodeId.h</text>
</a>
</g>
</g>
<!-- Node15&#45;&gt;Node19 -->
<g id="edge50" class="edge">
<title>Node15&#45;&gt;Node19</title>
<path fill="none" stroke="midnightblue" d="M765.44,-619.58C850.55,-573.34 1033.66,-473.85 1111.41,-431.61"/>
<polygon fill="midnightblue" stroke="midnightblue" points="763.65,-616.57 756.54,-624.42 767,-622.72 763.65,-616.57"/>
</g>
<!-- Node24 -->
<g id="node24" class="node">
<title>Node24</title>
<g id="a_node24"><a xlink:href="DateTime_8h.html" target="_top" xlink:title=" ">
<polygon fill="none" stroke="black" points="484,-546.5 484,-587.5 677,-587.5 677,-546.5 484,-546.5"/>
<text text-anchor="start" x="492" y="-575.5" font-family="Helvetica,sans-Serif" font-size="10.00">/home/runner/work/open62541pp</text>
<text text-anchor="start" x="492" y="-564.5" font-family="Helvetica,sans-Serif" font-size="10.00">/open62541pp/include/open62541pp</text>
<text text-anchor="middle" x="580.5" y="-553.5" font-family="Helvetica,sans-Serif" font-size="10.00">/types/DateTime.h</text>
</a>
</g>
</g>
<!-- Node15&#45;&gt;Node24 -->
<g id="edge46" class="edge">
<title>Node15&#45;&gt;Node24</title>
<path fill="none" stroke="midnightblue" d="M675.6,-619.63C656.47,-609.24 634.46,-597.29 616.43,-587.51"/>
<polygon fill="midnightblue" stroke="midnightblue" points="673.99,-622.73 684.45,-624.43 677.33,-616.58 673.99,-622.73"/>
</g>
<!-- Node16&#45;&gt;Node4 -->
<g id="edge28" class="edge">
<title>Node16&#45;&gt;Node4</title>
<path fill="none" stroke="midnightblue" d="M1292.39,-476.2C1220.97,-467.11 1125.34,-452.59 1042.5,-432 986.85,-418.17 976.25,-403.42 920.5,-390 809.65,-363.32 765.96,-409.75 666.5,-354 606.19,-320.19 617.44,-281.82 567.5,-234 484.07,-154.12 370.67,-76.64 317.02,-41.55"/>
<polygon fill="midnightblue" stroke="midnightblue" points="1292.39,-479.72 1302.75,-477.5 1293.26,-472.78 1292.39,-479.72"/>
</g>
<!-- Node16&#45;&gt;Node6 -->
<g id="edge27" class="edge">
<title>Node16&#45;&gt;Node6</title>
<path fill="none" stroke="midnightblue" d="M1410.63,-459.03C1420.75,-436.65 1437.89,-406.76 1462.5,-390 1530.29,-343.83 1591.47,-417.4 1643.5,-354 1655.34,-339.57 1650.67,-329.23 1643.5,-312 1638.78,-300.65 1497.6,-161.29 1486.5,-156 1414.31,-121.58 1194.96,-108.01 1065.68,-102.89"/>
<polygon fill="midnightblue" stroke="midnightblue" points="1407.33,-457.84 1406.59,-468.4 1413.76,-460.6 1407.33,-457.84"/>
</g>
<!-- Node16&#45;&gt;Node7 -->
<g id="edge43" class="edge">
<title>Node16&#45;&gt;Node7</title>
<path fill="none" stroke="midnightblue" d="M1427.88,-461.33C1437.43,-452.17 1448.05,-441.76 1457.5,-432 1475.01,-413.91 1473.72,-402.62 1495.5,-390 1560.45,-352.37 1613.42,-412.46 1660.5,-354 1682.54,-326.63 1653.56,-310.62 1647.5,-276 1631.68,-185.62 1653.99,-74.88 1663.01,-36.16"/>
<polygon fill="midnightblue" stroke="midnightblue" points="1425.32,-458.94 1420.5,-468.38 1430.15,-464 1425.32,-458.94"/>
</g>
<!-- Node16&#45;&gt;Node9 -->
<g id="edge29" class="edge">
<title>Node16&#45;&gt;Node9</title>
<path fill="none" stroke="midnightblue" d="M1399.03,-458.2C1400.36,-436.22 1405.94,-407.26 1424.5,-390 1490.96,-328.2 1567.26,-423.6 1625.5,-354 1637.48,-339.68 1638.07,-325.8 1625.5,-312 1596.72,-280.39 1285.02,-280.33 1242.5,-276 1214.83,-273.18 1184.81,-269.95 1157.28,-266.92"/>
<polygon fill="midnightblue" stroke="midnightblue" points="1395.52,-458.23 1398.67,-468.34 1402.52,-458.47 1395.52,-458.23"/>
</g>
<!-- Node16&#45;&gt;Node17 -->
<g id="edge30" class="edge">
<title>Node16&#45;&gt;Node17</title>
<path fill="none" stroke="midnightblue" d="M1383.07,-459.56C1365.31,-428.85 1337.49,-380.71 1321.96,-353.83"/>
<polygon fill="midnightblue" stroke="midnightblue" points="1380.19,-461.59 1388.23,-468.5 1386.25,-458.09 1380.19,-461.59"/>
</g>
<!-- Node16&#45;&gt;Node19 -->
<g id="edge33" class="edge">
<title>Node16&#45;&gt;Node19</title>
<path fill="none" stroke="midnightblue" d="M1324.7,-465.44C1288.94,-454.66 1246.53,-441.87 1212.18,-431.51"/>
<polygon fill="midnightblue" stroke="midnightblue" points="1324.02,-468.89 1334.6,-468.43 1326.04,-462.19 1324.02,-468.89"/>
</g>
<!-- Node16&#45;&gt;Node23 -->
<g id="edge44" class="edge">
<title>Node16&#45;&gt;Node23</title>
<path fill="none" stroke="midnightblue" d="M1460.32,-464.77C1493.38,-452.15 1533.18,-436.94 1561.56,-426.11"/>
<polygon fill="midnightblue" stroke="midnightblue" points="1458.84,-461.59 1450.75,-468.43 1461.34,-468.13 1458.84,-461.59"/>
</g>
<!-- Node17&#45;&gt;Node10 -->
<g id="edge31" class="edge">
<title>Node17&#45;&gt;Node10</title>
<path fill="none" stroke="midnightblue" d="M1279.14,-306.23C1251.12,-284.32 1208.17,-253.41 1166.5,-234 1133.15,-218.47 1094.61,-206.39 1060.37,-197.5"/>
<polygon fill="midnightblue" stroke="midnightblue" points="1276.97,-308.98 1286.99,-312.43 1281.31,-303.49 1276.97,-308.98"/>
</g>
<!-- Node18 -->
<g id="node18" class="node">
<title>Node18</title>
<g id="a_node18"><a xlink:href="Browse_8cpp.html" target="_top" xlink:title=" ">
<polygon fill="none" stroke="black" points="1251.5,-234.5 1251.5,-275.5 1429.5,-275.5 1429.5,-234.5 1251.5,-234.5"/>
<text text-anchor="start" x="1259.5" y="-263.5" font-family="Helvetica,sans-Serif" font-size="10.00">/home/runner/work/open62541pp</text>
<text text-anchor="start" x="1259.5" y="-252.5" font-family="Helvetica,sans-Serif" font-size="10.00">/open62541pp/src/services</text>
<text text-anchor="middle" x="1340.5" y="-241.5" font-family="Helvetica,sans-Serif" font-size="10.00">/Browse.cpp</text>
</a>
</g>
</g>
<!-- Node17&#45;&gt;Node18 -->
<g id="edge32" class="edge">
<title>Node17&#45;&gt;Node18</title>
<path fill="none" stroke="midnightblue" d="M1321.99,-302.88C1325.61,-293.72 1329.51,-283.83 1332.8,-275.51"/>
<polygon fill="midnightblue" stroke="midnightblue" points="1318.64,-301.84 1318.23,-312.43 1325.15,-304.41 1318.64,-301.84"/>
</g>
<!-- Node19&#45;&gt;Node4 -->
<g id="edge35" class="edge">
<title>Node19&#45;&gt;Node4</title>
<path fill="none" stroke="midnightblue" d="M1040.92,-398.64C915.54,-384.95 722.53,-362.69 708.5,-354 645.84,-315.17 585.05,-120.04 524.5,-78 483.27,-49.37 429.35,-35.24 383.26,-28.33"/>
<polygon fill="midnightblue" stroke="midnightblue" points="1040.63,-402.13 1050.95,-399.74 1041.39,-395.17 1040.63,-402.13"/>
</g>
<!-- Node19&#45;&gt;Node6 -->
<g id="edge34" class="edge">
<title>Node19&#45;&gt;Node6</title>
<path fill="none" stroke="midnightblue" d="M1159.55,-380.96C1172.62,-344.77 1188.83,-281.86 1166.5,-234 1139.56,-176.25 1073.74,-139.66 1025.14,-119.57"/>
<polygon fill="midnightblue" stroke="midnightblue" points="1156.23,-379.83 1155.98,-390.43 1162.78,-382.3 1156.23,-379.83"/>
</g>
<!-- Node19&#45;&gt;Node9 -->
<g id="edge36" class="edge">
<title>Node19&#45;&gt;Node9</title>
<path fill="none" stroke="midnightblue" d="M1146.93,-380.19C1145.35,-359.74 1140.8,-332.67 1128.5,-312 1119.82,-297.41 1105.88,-284.95 1092.88,-275.5"/>
<polygon fill="midnightblue" stroke="midnightblue" points="1143.44,-380.43 1147.52,-390.21 1150.43,-380.02 1143.44,-380.43"/>
</g>
<!-- Node19&#45;&gt;Node14 -->
<g id="edge42" class="edge">
<title>Node19&#45;&gt;Node14</title>
<path fill="none" stroke="midnightblue" d="M1106.96,-385.15C1086.99,-372.91 1063.63,-358.59 1046.71,-348.23"/>
<polygon fill="midnightblue" stroke="midnightblue" points="1105.21,-388.19 1115.57,-390.43 1108.87,-382.22 1105.21,-388.19"/>
</g>
<!-- Node19&#45;&gt;Node17 -->
<g id="edge37" class="edge">
<title>Node19&#45;&gt;Node17</title>
<path fill="none" stroke="midnightblue" d="M1198.57,-386.19C1221.12,-375.67 1247.3,-363.47 1268.67,-353.51"/>
<polygon fill="midnightblue" stroke="midnightblue" points="1197.06,-383.03 1189.48,-390.43 1200.02,-389.37 1197.06,-383.03"/>
</g>
<!-- Node19&#45;&gt;Node20 -->
<g id="edge38" class="edge">
<title>Node19&#45;&gt;Node20</title>
<path fill="none" stroke="midnightblue" d="M1051.69,-388.2C1003.61,-377.26 945.83,-364.11 899.22,-353.51"/>
<polygon fill="midnightblue" stroke="midnightblue" points="1050.96,-391.62 1061.49,-390.43 1052.51,-384.8 1050.96,-391.62"/>
</g>
<!-- Node19&#45;&gt;Node22 -->
<g id="edge41" class="edge">
<title>Node19&#45;&gt;Node22</title>
<path fill="none" stroke="midnightblue" d="M1253.62,-388.38C1317.15,-375.43 1396.07,-359.35 1451.56,-348.05"/>
<polygon fill="midnightblue" stroke="midnightblue" points="1252.66,-385 1243.56,-390.43 1254.05,-391.86 1252.66,-385"/>
</g>
<!-- Node20&#45;&gt;Node10 -->
<g id="edge39" class="edge">
<title>Node20&#45;&gt;Node10</title>
<path fill="none" stroke="midnightblue" d="M840.36,-305.14C870.99,-274.51 920.33,-225.17 947.67,-197.83"/>
<polygon fill="midnightblue" stroke="midnightblue" points="837.6,-302.95 833,-312.5 842.55,-307.9 837.6,-302.95"/>
</g>
<!-- Node20&#45;&gt;Node21 -->
<g id="edge40" class="edge">
<title>Node20&#45;&gt;Node21</title>
<path fill="none" stroke="midnightblue" d="M920.29,-312.3C998.1,-305.66 1459.09,-274.99 1656.27,-261.91"/>
<polygon fill="midnightblue" stroke="midnightblue" points="919.81,-308.82 910.19,-313.27 920.48,-315.79 919.81,-308.82"/>
</g>
<!-- Node24&#45;&gt;Node5 -->
<g id="edge47" class="edge">
<title>Node24&#45;&gt;Node5</title>
<path fill="none" stroke="midnightblue" d="M507.78,-543.44C473.01,-532.66 431.78,-519.87 398.38,-509.51"/>
<polygon fill="midnightblue" stroke="midnightblue" points="506.82,-546.81 517.41,-546.43 508.89,-540.12 506.82,-546.81"/>
</g>
<!-- Node24&#45;&gt;Node12 -->
<g id="edge48" class="edge">
<title>Node24&#45;&gt;Node12</title>
<path fill="none" stroke="midnightblue" d="M634.45,-540.78C646.08,-532.67 656.87,-522.47 663.5,-510 672.26,-493.52 672.54,-484.33 663.5,-468 631.22,-409.71 561.83,-373.4 510.78,-353.52"/>
<polygon fill="midnightblue" stroke="midnightblue" points="632.37,-537.95 625.87,-546.32 636.17,-543.83 632.37,-537.95"/>
</g>
<!-- Node25 -->
<g id="node25" class="node">
<title>Node25</title>
<g id="a_node25"><a xlink:href="DateTime_8cpp.html" target="_top" xlink:title=" ">
<polygon fill="none" stroke="black" points="450.5,-474 450.5,-504 654.5,-504 654.5,-474 450.5,-474"/>
<text text-anchor="start" x="458.5" y="-492" font-family="Helvetica,sans-Serif" font-size="10.00">/home/runner/work/open62541pp</text>
<text text-anchor="middle" x="552.5" y="-481" font-family="Helvetica,sans-Serif" font-size="10.00">/open62541pp/src/types/DateTime.cpp</text>
</a>
</g>
</g>
<!-- Node24&#45;&gt;Node25 -->
<g id="edge49" class="edge">
<title>Node24&#45;&gt;Node25</title>
<path fill="none" stroke="midnightblue" d="M569.8,-536.96C565.67,-525.75 561.13,-513.43 557.74,-504.23"/>
<polygon fill="midnightblue" stroke="midnightblue" points="566.55,-538.25 573.29,-546.43 573.12,-535.83 566.55,-538.25"/>
</g>
</g>
</svg>
