<?xml version="1.0" encoding="UTF-8" standalone="no"?>
<!DOCTYPE svg PUBLIC "-//W3C//DTD SVG 1.1//EN"
 "http://www.w3.org/Graphics/SVG/1.1/DTD/svg11.dtd">
<!-- Generated by graphviz version 2.43.0 (0)
 -->
<!-- Title: /home/runner/work/open62541pp/open62541pp/include/open62541pp/TypeRegistryNative.h Pages: 1 -->
<svg width="1811pt" height="533pt"
 viewBox="0.00 0.00 1810.50 533.00" xmlns="http://www.w3.org/2000/svg" xmlns:xlink="http://www.w3.org/1999/xlink">
<g id="graph0" class="graph" transform="scale(1 1) rotate(0) translate(4 529)">
<title>/home/runner/work/open62541pp/open62541pp/include/open62541pp/TypeRegistryNative.h</title>
<!-- Node1 -->
<g id="Node000001" class="node">
<title>Node1</title>
<g id="a_Node000001"><a xlink:title=" ">
<polygon fill="#999999" stroke="#666666" points="880,-525 687,-525 687,-484 880,-484 880,-525"/>
<text text-anchor="start" x="695" y="-513" font-family="Helvetica,sans-Serif" font-size="10.00">/home/runner/work/open62541pp</text>
<text text-anchor="start" x="695" y="-502" font-family="Helvetica,sans-Serif" font-size="10.00">/open62541pp/include/open62541pp</text>
<text text-anchor="middle" x="783.5" y="-491" font-family="Helvetica,sans-Serif" font-size="10.00">/TypeRegistryNative.h</text>
</a>
</g>
</g>
<!-- Node2 -->
<g id="Node000002" class="node">
<title>Node2</title>
<g id="a_Node000002"><a xlink:href="TypeRegistry_8h.html" target="_top" xlink:title=" ">
<polygon fill="white" stroke="#666666" points="861.5,-448 705.5,-448 705.5,-429 861.5,-429 861.5,-448"/>
<text text-anchor="middle" x="783.5" y="-436" font-family="Helvetica,sans-Serif" font-size="10.00">open62541pp/TypeRegistry.h</text>
</a>
</g>
</g>
<!-- Node1&#45;&gt;Node2 -->
<g id="edge1_Node000001_Node000002" class="edge">
<title>Node1&#45;&gt;Node2</title>
<g id="a_edge1_Node000001_Node000002"><a xlink:title=" ">
<path fill="none" stroke="#63b8ff" d="M777.23,-483.95C776.57,-475.76 776.59,-466.28 777.3,-458.19"/>
<polygon fill="#63b8ff" stroke="#63b8ff" points="780.77,-458.65 778.68,-448.26 773.84,-457.68 780.77,-458.65"/>
</a>
</g>
</g>
<!-- Node13 -->
<g id="Node000013" class="node">
<title>Node13</title>
<g id="a_Node000013"><a xlink:href="common_8h.html" target="_top" xlink:title=" ">
<polygon fill="white" stroke="#666666" points="1103.5,-206 975.5,-206 975.5,-176 1103.5,-176 1103.5,-206"/>
<text text-anchor="start" x="983.5" y="-194" font-family="Helvetica,sans-Serif" font-size="10.00">open62541pp/detail</text>
<text text-anchor="middle" x="1039.5" y="-183" font-family="Helvetica,sans-Serif" font-size="10.00">/open62541/common.h</text>
</a>
</g>
</g>
<!-- Node1&#45;&gt;Node13 -->
<g id="edge45_Node000001_Node000013" class="edge">
<title>Node1&#45;&gt;Node13</title>
<g id="a_edge45_Node000001_Node000013"><a xlink:title=" ">
<path fill="none" stroke="#63b8ff" d="M880.42,-488.06C978.41,-469.64 1115.5,-434.86 1115.5,-384.5 1115.5,-384.5 1115.5,-384.5 1115.5,-322 1115.5,-279.02 1084.15,-237.62 1061.72,-213.51"/>
<polygon fill="#63b8ff" stroke="#63b8ff" points="1063.97,-210.79 1054.52,-206.01 1058.92,-215.65 1063.97,-210.79"/>
</a>
</g>
</g>
<!-- Node2&#45;&gt;Node1 -->
<g id="edge44_Node000002_Node000001" class="edge">
<title>Node2&#45;&gt;Node1</title>
<g id="a_edge44_Node000002_Node000001"><a xlink:title=" ">
<path fill="none" stroke="#63b8ff" d="M788.32,-448.26C789.72,-454.9 790.36,-464.45 790.24,-473.74"/>
<polygon fill="#63b8ff" stroke="#63b8ff" points="786.73,-473.8 789.77,-483.95 793.72,-474.12 786.73,-473.8"/>
</a>
</g>
</g>
<!-- Node3 -->
<g id="Node000003" class="node">
<title>Node3</title>
<g id="a_Node000003"><a xlink:title=" ">
<polygon fill="#e0e0e0" stroke="#999999" points="294,-200.5 225,-200.5 225,-181.5 294,-181.5 294,-200.5"/>
<text text-anchor="middle" x="259.5" y="-188.5" font-family="Helvetica,sans-Serif" font-size="10.00">type_traits</text>
</a>
</g>
</g>
<!-- Node2&#45;&gt;Node3 -->
<g id="edge2_Node000002_Node000003" class="edge">
<title>Node2&#45;&gt;Node3</title>
<g id="a_edge2_Node000002_Node000003"><a xlink:title=" ">
<path fill="none" stroke="#63b8ff" d="M785.95,-428.92C794.08,-398.43 816.78,-294.37 764.5,-242 732.29,-209.73 421.98,-196.96 304.38,-193.25"/>
<polygon fill="#63b8ff" stroke="#63b8ff" points="304.37,-189.75 294.27,-192.94 304.16,-196.74 304.37,-189.75"/>
</a>
</g>
</g>
<!-- Node4 -->
<g id="Node000004" class="node">
<title>Node4</title>
<g id="a_Node000004"><a xlink:href="TypeWrapper_8h.html" target="_top" xlink:title=" ">
<polygon fill="white" stroke="#666666" points="519.5,-393 361.5,-393 361.5,-374 519.5,-374 519.5,-393"/>
<text text-anchor="middle" x="440.5" y="-381" font-family="Helvetica,sans-Serif" font-size="10.00">open62541pp/TypeWrapper.h</text>
</a>
</g>
</g>
<!-- Node2&#45;&gt;Node4 -->
<g id="edge3_Node000002_Node000004" class="edge">
<title>Node2&#45;&gt;Node4</title>
<g id="a_edge3_Node000002_Node000004"><a xlink:title=" ">
<path fill="none" stroke="#63b8ff" d="M728.39,-428.98C667.72,-419.61 570.26,-404.55 505.81,-394.59"/>
<polygon fill="#63b8ff" stroke="#63b8ff" points="506.17,-391.11 495.76,-393.04 505.1,-398.02 506.17,-391.11"/>
</a>
</g>
</g>
<!-- Node2&#45;&gt;Node13 -->
<g id="edge42_Node000002_Node000013" class="edge">
<title>Node2&#45;&gt;Node13</title>
<g id="a_edge42_Node000002_Node000013"><a xlink:title=" ">
<path fill="none" stroke="#63b8ff" d="M810.36,-428.93C863.94,-410.25 983.34,-360.29 1034.5,-272 1044.23,-255.21 1044.84,-232.97 1043.38,-216.21"/>
<polygon fill="#63b8ff" stroke="#63b8ff" points="1046.84,-215.61 1042.2,-206.09 1039.89,-216.43 1046.84,-215.61"/>
</a>
</g>
</g>
<!-- Node29 -->
<g id="Node000029" class="node">
<title>Node29</title>
<g id="a_Node000029"><a xlink:href="traits_8h.html" target="_top" xlink:title=" ">
<polygon fill="white" stroke="#666666" points="597,-272 484,-272 484,-242 597,-242 597,-272"/>
<text text-anchor="start" x="492" y="-260" font-family="Helvetica,sans-Serif" font-size="10.00">open62541pp/detail</text>
<text text-anchor="middle" x="540.5" y="-249" font-family="Helvetica,sans-Serif" font-size="10.00">/traits.h</text>
</a>
</g>
</g>
<!-- Node2&#45;&gt;Node29 -->
<g id="edge43_Node000002_Node000029" class="edge">
<title>Node2&#45;&gt;Node29</title>
<g id="a_edge43_Node000002_Node000029"><a xlink:title=" ">
<path fill="none" stroke="#63b8ff" d="M750.93,-428.9C707.01,-415.84 628.67,-387.18 579.5,-338 563.94,-322.44 553.62,-299.43 547.53,-282.07"/>
<polygon fill="#63b8ff" stroke="#63b8ff" points="550.71,-280.53 544.27,-272.12 544.05,-282.71 550.71,-280.53"/>
</a>
</g>
</g>
<!-- Node4&#45;&gt;Node3 -->
<g id="edge6_Node000004_Node000003" class="edge">
<title>Node4&#45;&gt;Node3</title>
<g id="a_edge6_Node000004_Node000003"><a xlink:title=" ">
<path fill="none" stroke="#63b8ff" d="M361.27,-375.47C303.51,-368.86 231.5,-357.08 208.5,-338 174.48,-309.78 161.41,-280.85 182.5,-242 191.72,-225.02 209.47,-212.91 225.61,-204.87"/>
<polygon fill="#63b8ff" stroke="#63b8ff" points="227.24,-207.97 234.84,-200.59 224.3,-201.62 227.24,-207.97"/>
</a>
</g>
</g>
<!-- Node5 -->
<g id="Node000005" class="node">
<title>Node5</title>
<g id="a_Node000005"><a xlink:title=" ">
<polygon fill="#e0e0e0" stroke="#999999" points="465.5,-266.5 413.5,-266.5 413.5,-247.5 465.5,-247.5 465.5,-266.5"/>
<text text-anchor="middle" x="439.5" y="-254.5" font-family="Helvetica,sans-Serif" font-size="10.00">cassert</text>
</a>
</g>
</g>
<!-- Node4&#45;&gt;Node5 -->
<g id="edge4_Node000004_Node000005" class="edge">
<title>Node4&#45;&gt;Node5</title>
<g id="a_edge4_Node000004_Node000005"><a xlink:title=" ">
<path fill="none" stroke="#63b8ff" d="M448.17,-373.7C455.02,-365.21 464.55,-351.68 468.5,-338 472.2,-325.19 471.96,-320.88 468.5,-308 465.29,-296.08 458.47,-284.07 452.25,-274.81"/>
<polygon fill="#63b8ff" stroke="#63b8ff" points="455.04,-272.69 446.39,-266.57 449.34,-276.75 455.04,-272.69"/>
</a>
</g>
</g>
<!-- Node6 -->
<g id="Node000006" class="node">
<title>Node6</title>
<g id="a_Node000006"><a xlink:title=" ">
<polygon fill="#e0e0e0" stroke="#999999" points="395.5,-266.5 345.5,-266.5 345.5,-247.5 395.5,-247.5 395.5,-266.5"/>
<text text-anchor="middle" x="370.5" y="-254.5" font-family="Helvetica,sans-Serif" font-size="10.00">cstdint</text>
</a>
</g>
</g>
<!-- Node4&#45;&gt;Node6 -->
<g id="edge5_Node000004_Node000006" class="edge">
<title>Node4&#45;&gt;Node6</title>
<g id="a_edge5_Node000004_Node000006"><a xlink:title=" ">
<path fill="none" stroke="#63b8ff" d="M432.55,-373.79C424.94,-365.15 413.48,-351.32 405.5,-338 393.49,-317.94 383.25,-293.02 377,-276.37"/>
<polygon fill="#63b8ff" stroke="#63b8ff" points="380.21,-274.95 373.5,-266.76 373.64,-277.35 380.21,-274.95"/>
</a>
</g>
</g>
<!-- Node7 -->
<g id="Node000007" class="node">
<title>Node7</title>
<g id="a_Node000007"><a xlink:title=" ">
<polygon fill="#e0e0e0" stroke="#999999" points="459,-332.5 414,-332.5 414,-313.5 459,-313.5 459,-332.5"/>
<text text-anchor="middle" x="436.5" y="-320.5" font-family="Helvetica,sans-Serif" font-size="10.00">utility</text>
</a>
</g>
</g>
<!-- Node4&#45;&gt;Node7 -->
<g id="edge7_Node000004_Node000007" class="edge">
<title>Node4&#45;&gt;Node7</title>
<g id="a_edge7_Node000004_Node000007"><a xlink:title=" ">
<path fill="none" stroke="#63b8ff" d="M439.91,-373.87C439.35,-365.75 438.5,-353.31 437.79,-342.89"/>
<polygon fill="#63b8ff" stroke="#63b8ff" points="441.27,-342.41 437.09,-332.67 434.28,-342.88 441.27,-342.41"/>
</a>
</g>
</g>
<!-- Node8 -->
<g id="Node000008" class="node">
<title>Node8</title>
<g id="a_Node000008"><a xlink:href="Common_8h.html" target="_top" xlink:title=" ">
<polygon fill="white" stroke="#666666" points="357,-332.5 218,-332.5 218,-313.5 357,-313.5 357,-332.5"/>
<text text-anchor="middle" x="287.5" y="-320.5" font-family="Helvetica,sans-Serif" font-size="10.00">open62541pp/Common.h</text>
</a>
</g>
</g>
<!-- Node4&#45;&gt;Node8 -->
<g id="edge8_Node000004_Node000008" class="edge">
<title>Node4&#45;&gt;Node8</title>
<g id="a_edge8_Node000004_Node000008"><a xlink:title=" ">
<path fill="none" stroke="#63b8ff" d="M418.25,-373.99C392.19,-364.03 348.82,-347.45 319.23,-336.13"/>
<polygon fill="#63b8ff" stroke="#63b8ff" points="320.36,-332.82 309.77,-332.52 317.86,-339.36 320.36,-332.82"/>
</a>
</g>
</g>
<!-- Node10 -->
<g id="Node000010" class="node">
<title>Node10</title>
<g id="a_Node000010"><a xlink:href="ErrorHandling_8h.html" target="_top" xlink:title=" ">
<polygon fill="white" stroke="#666666" points="973,-266.5 812,-266.5 812,-247.5 973,-247.5 973,-266.5"/>
<text text-anchor="middle" x="892.5" y="-254.5" font-family="Helvetica,sans-Serif" font-size="10.00">open62541pp/ErrorHandling.h</text>
</a>
</g>
</g>
<!-- Node4&#45;&gt;Node10 -->
<g id="edge12_Node000004_Node000010" class="edge">
<title>Node4&#45;&gt;Node10</title>
<g id="a_edge12_Node000004_Node000010"><a xlink:title=" ">
<path fill="none" stroke="#63b8ff" d="M519.65,-374.75C574.1,-368.14 647.65,-356.67 710.5,-338 768.87,-320.66 833.22,-289.23 867.59,-271.36"/>
<polygon fill="#63b8ff" stroke="#63b8ff" points="869.23,-274.45 876.46,-266.7 865.98,-268.25 869.23,-274.45"/>
</a>
</g>
</g>
<!-- Node4&#45;&gt;Node13 -->
<g id="edge33_Node000004_Node000013" class="edge">
<title>Node4&#45;&gt;Node13</title>
<g id="a_edge33_Node000004_Node000013"><a xlink:title=" ">
<path fill="none" stroke="#63b8ff" d="M519.65,-377.33C659.19,-366.61 940.91,-337.32 1011.5,-272 1027.14,-257.53 1034.04,-233.84 1037.09,-215.99"/>
<polygon fill="#63b8ff" stroke="#63b8ff" points="1040.57,-216.41 1038.51,-206.01 1033.64,-215.42 1040.57,-216.41"/>
</a>
</g>
</g>
<!-- Node25 -->
<g id="Node000025" class="node">
<title>Node25</title>
<g id="a_Node000025"><a xlink:href="Wrapper_8h.html" target="_top" xlink:title=" ">
<polygon fill="white" stroke="#666666" points="135,-332.5 0,-332.5 0,-313.5 135,-313.5 135,-332.5"/>
<text text-anchor="middle" x="67.5" y="-320.5" font-family="Helvetica,sans-Serif" font-size="10.00">open62541pp/Wrapper.h</text>
</a>
</g>
</g>
<!-- Node4&#45;&gt;Node25 -->
<g id="edge31_Node000004_Node000025" class="edge">
<title>Node4&#45;&gt;Node25</title>
<g id="a_edge31_Node000004_Node000025"><a xlink:title=" ">
<path fill="none" stroke="#63b8ff" d="M382.76,-373.97C324.01,-365.22 230.35,-351.08 149.5,-338 142.07,-336.8 134.26,-335.5 126.54,-334.21"/>
<polygon fill="#63b8ff" stroke="#63b8ff" points="126.92,-330.72 116.47,-332.5 125.75,-337.62 126.92,-330.72"/>
</a>
</g>
</g>
<!-- Node26 -->
<g id="Node000026" class="node">
<title>Node26</title>
<g id="a_Node000026"><a xlink:href="types__handling_8h.html" target="_top" xlink:title=" ">
<polygon fill="white" stroke="#666666" points="701,-338 588,-338 588,-308 701,-308 701,-338"/>
<text text-anchor="start" x="596" y="-326" font-family="Helvetica,sans-Serif" font-size="10.00">open62541pp/detail</text>
<text text-anchor="middle" x="644.5" y="-315" font-family="Helvetica,sans-Serif" font-size="10.00">/types_handling.h</text>
</a>
</g>
</g>
<!-- Node4&#45;&gt;Node26 -->
<g id="edge34_Node000004_Node000026" class="edge">
<title>Node4&#45;&gt;Node26</title>
<g id="a_edge34_Node000004_Node000026"><a xlink:title=" ">
<path fill="none" stroke="#63b8ff" d="M470.16,-373.99C500.29,-365.35 547.77,-351.74 585.57,-340.9"/>
<polygon fill="#63b8ff" stroke="#63b8ff" points="586.81,-344.19 595.46,-338.06 584.88,-337.46 586.81,-344.19"/>
</a>
</g>
</g>
<!-- Node8&#45;&gt;Node6 -->
<g id="edge9_Node000008_Node000006" class="edge">
<title>Node8&#45;&gt;Node6</title>
<g id="a_edge9_Node000008_Node000006"><a xlink:title=" ">
<path fill="none" stroke="#63b8ff" d="M298.69,-313.37C312.06,-303.06 334.65,-285.65 350.92,-273.09"/>
<polygon fill="#63b8ff" stroke="#63b8ff" points="353.44,-275.58 359.22,-266.7 349.16,-270.03 353.44,-275.58"/>
</a>
</g>
</g>
<!-- Node9 -->
<g id="Node000009" class="node">
<title>Node9</title>
<g id="a_Node000009"><a xlink:href="Bitmask_8h.html" target="_top" xlink:title=" ">
<polygon fill="white" stroke="#666666" points="327,-266.5 192,-266.5 192,-247.5 327,-247.5 327,-266.5"/>
<text text-anchor="middle" x="259.5" y="-254.5" font-family="Helvetica,sans-Serif" font-size="10.00">open62541pp/Bitmask.h</text>
</a>
</g>
</g>
<!-- Node8&#45;&gt;Node9 -->
<g id="edge10_Node000008_Node000009" class="edge">
<title>Node8&#45;&gt;Node9</title>
<g id="a_edge10_Node000008_Node000009"><a xlink:title=" ">
<path fill="none" stroke="#63b8ff" d="M283.72,-313.37C279.57,-303.88 272.78,-288.36 267.45,-276.16"/>
<polygon fill="#63b8ff" stroke="#63b8ff" points="270.61,-274.66 263.4,-266.91 264.2,-277.47 270.61,-274.66"/>
</a>
</g>
</g>
<!-- Node9&#45;&gt;Node3 -->
<g id="edge11_Node000009_Node000003" class="edge">
<title>Node9&#45;&gt;Node3</title>
<g id="a_edge11_Node000009_Node000003"><a xlink:title=" ">
<path fill="none" stroke="#63b8ff" d="M259.5,-247.37C259.5,-238.16 259.5,-223.29 259.5,-211.27"/>
<polygon fill="#63b8ff" stroke="#63b8ff" points="263,-210.91 259.5,-200.91 256,-210.91 263,-210.91"/>
</a>
</g>
</g>
<!-- Node11 -->
<g id="Node000011" class="node">
<title>Node11</title>
<g id="a_Node000011"><a xlink:title=" ">
<polygon fill="#e0e0e0" stroke="#999999" points="934,-200.5 897,-200.5 897,-181.5 934,-181.5 934,-200.5"/>
<text text-anchor="middle" x="915.5" y="-188.5" font-family="Helvetica,sans-Serif" font-size="10.00">new</text>
</a>
</g>
</g>
<!-- Node10&#45;&gt;Node11 -->
<g id="edge13_Node000010_Node000011" class="edge">
<title>Node10&#45;&gt;Node11</title>
<g id="a_edge13_Node000010_Node000011"><a xlink:title=" ">
<path fill="none" stroke="#63b8ff" d="M895.6,-247.37C898.98,-237.97 904.48,-222.67 908.84,-210.53"/>
<polygon fill="#63b8ff" stroke="#63b8ff" points="912.21,-211.5 912.3,-200.91 905.62,-209.13 912.21,-211.5"/>
</a>
</g>
</g>
<!-- Node12 -->
<g id="Node000012" class="node">
<title>Node12</title>
<g id="a_Node000012"><a xlink:title=" ">
<polygon fill="#e0e0e0" stroke="#999999" points="879,-200.5 814,-200.5 814,-181.5 879,-181.5 879,-200.5"/>
<text text-anchor="middle" x="846.5" y="-188.5" font-family="Helvetica,sans-Serif" font-size="10.00">stdexcept</text>
</a>
</g>
</g>
<!-- Node10&#45;&gt;Node12 -->
<g id="edge14_Node000010_Node000012" class="edge">
<title>Node10&#45;&gt;Node12</title>
<g id="a_edge14_Node000010_Node000012"><a xlink:title=" ">
<path fill="none" stroke="#63b8ff" d="M886.3,-247.37C879.27,-237.59 867.65,-221.42 858.77,-209.08"/>
<polygon fill="#63b8ff" stroke="#63b8ff" points="861.58,-206.98 852.9,-200.91 855.89,-211.07 861.58,-206.98"/>
</a>
</g>
</g>
<!-- Node10&#45;&gt;Node13 -->
<g id="edge15_Node000010_Node000013" class="edge">
<title>Node10&#45;&gt;Node13</title>
<g id="a_edge15_Node000010_Node000013"><a xlink:title=" ">
<path fill="none" stroke="#63b8ff" d="M912.33,-247.37C934.15,-237.87 969.86,-222.32 997.9,-210.11"/>
<polygon fill="#63b8ff" stroke="#63b8ff" points="999.31,-213.32 1007.08,-206.12 996.51,-206.9 999.31,-213.32"/>
</a>
</g>
</g>
<!-- Node14 -->
<g id="Node000014" class="node">
<title>Node14</title>
<g id="a_Node000014"><a xlink:href="push__options_8h.html" target="_top" xlink:title=" ">
<polygon fill="white" stroke="#666666" points="757.5,-30 607.5,-30 607.5,0 757.5,0 757.5,-30"/>
<text text-anchor="start" x="615.5" y="-18" font-family="Helvetica,sans-Serif" font-size="10.00">open62541pp/detail</text>
<text text-anchor="middle" x="682.5" y="-7" font-family="Helvetica,sans-Serif" font-size="10.00">/open62541/push_options.h</text>
</a>
</g>
</g>
<!-- Node13&#45;&gt;Node14 -->
<g id="edge16_Node000013_Node000014" class="edge">
<title>Node13&#45;&gt;Node14</title>
<g id="a_edge16_Node000013_Node000014"><a xlink:title=" ">
<path fill="none" stroke="#63b8ff" d="M975.4,-180.63C876.67,-166.2 698.65,-140.15 698.5,-140 672.84,-113.9 674.04,-68.38 677.85,-40.36"/>
<polygon fill="#63b8ff" stroke="#63b8ff" points="681.35,-40.63 679.45,-30.2 674.44,-39.54 681.35,-40.63"/>
</a>
</g>
</g>
<!-- Node15 -->
<g id="Node000015" class="node">
<title>Node15</title>
<g id="a_Node000015"><a target="_blank" xlink:href="open62541/nodeids_8h.html" xlink:title=" ">
<polygon fill="white" stroke="#666666" points="1145,-140 1024,-140 1024,-121 1145,-121 1145,-140"/>
<text text-anchor="middle" x="1084.5" y="-128" font-family="Helvetica,sans-Serif" font-size="10.00">open62541/nodeids.h</text>
</a>
</g>
</g>
<!-- Node13&#45;&gt;Node15 -->
<g id="edge17_Node000013_Node000015" class="edge">
<title>Node13&#45;&gt;Node15</title>
<g id="a_edge17_Node000013_Node000015"><a xlink:title=" ">
<path fill="none" stroke="#63b8ff" d="M1050.39,-175.84C1056.79,-167.52 1064.92,-156.96 1071.63,-148.23"/>
<polygon fill="#63b8ff" stroke="#63b8ff" points="1074.43,-150.33 1077.76,-140.27 1068.89,-146.06 1074.43,-150.33"/>
</a>
</g>
</g>
<!-- Node16 -->
<g id="Node000016" class="node">
<title>Node16</title>
<g id="a_Node000016"><a target="_blank" xlink:href="open62541/statuscodes_8h.html" xlink:title=" ">
<polygon fill="white" stroke="#666666" points="1304,-140 1163,-140 1163,-121 1304,-121 1304,-140"/>
<text text-anchor="middle" x="1233.5" y="-128" font-family="Helvetica,sans-Serif" font-size="10.00">open62541/statuscodes.h</text>
</a>
</g>
</g>
<!-- Node13&#45;&gt;Node16 -->
<g id="edge18_Node000013_Node000016" class="edge">
<title>Node13&#45;&gt;Node16</title>
<g id="a_edge18_Node000013_Node000016"><a xlink:title=" ">
<path fill="none" stroke="#63b8ff" d="M1085.97,-175.99C1119.45,-165.89 1164.07,-152.44 1195.44,-142.98"/>
<polygon fill="#63b8ff" stroke="#63b8ff" points="1196.57,-146.29 1205.13,-140.05 1194.55,-139.59 1196.57,-146.29"/>
</a>
</g>
</g>
<!-- Node17 -->
<g id="Node000017" class="node">
<title>Node17</title>
<g id="a_Node000017"><a target="_blank" xlink:href="open62541/types_8h.html" xlink:title=" ">
<polygon fill="white" stroke="#666666" points="817.5,-140 707.5,-140 707.5,-121 817.5,-121 817.5,-140"/>
<text text-anchor="middle" x="762.5" y="-128" font-family="Helvetica,sans-Serif" font-size="10.00">open62541/types.h</text>
</a>
</g>
</g>
<!-- Node13&#45;&gt;Node17 -->
<g id="edge19_Node000013_Node000017" class="edge">
<title>Node13&#45;&gt;Node17</title>
<g id="a_edge19_Node000013_Node000017"><a xlink:title=" ">
<path fill="none" stroke="#63b8ff" d="M975.47,-177.67C924.16,-167.16 853.52,-152.23 807.88,-142.22"/>
<polygon fill="#63b8ff" stroke="#63b8ff" points="808.49,-138.77 797.97,-140.03 806.99,-145.6 808.49,-138.77"/>
</a>
</g>
</g>
<!-- Node20 -->
<g id="Node000020" class="node">
<title>Node20</title>
<g id="a_Node000020"><a xlink:href="pop__options_8h.html" target="_top" xlink:title=" ">
<polygon fill="white" stroke="#666666" points="1066,-30 921,-30 921,0 1066,0 1066,-30"/>
<text text-anchor="start" x="929" y="-18" font-family="Helvetica,sans-Serif" font-size="10.00">open62541pp/detail</text>
<text text-anchor="middle" x="993.5" y="-7" font-family="Helvetica,sans-Serif" font-size="10.00">/open62541/pop_options.h</text>
</a>
</g>
</g>
<!-- Node13&#45;&gt;Node20 -->
<g id="edge30_Node000013_Node000020" class="edge">
<title>Node13&#45;&gt;Node20</title>
<g id="a_edge30_Node000013_Node000020"><a xlink:title=" ">
<path fill="none" stroke="#63b8ff" d="M1031.5,-175.99C1026.23,-166.19 1019.57,-152.65 1015.5,-140 1004.64,-106.28 998.71,-65.57 995.83,-40.23"/>
<polygon fill="#63b8ff" stroke="#63b8ff" points="999.28,-39.63 994.74,-30.06 992.32,-40.38 999.28,-39.63"/>
</a>
</g>
</g>
<!-- Node21 -->
<g id="Node000021" class="node">
<title>Node21</title>
<g id="a_Node000021"><a target="_blank" xlink:href="open62541/types__generated_8h.html" xlink:title=" ">
<polygon fill="white" stroke="#666666" points="1486.5,-140 1322.5,-140 1322.5,-121 1486.5,-121 1486.5,-140"/>
<text text-anchor="middle" x="1404.5" y="-128" font-family="Helvetica,sans-Serif" font-size="10.00">open62541/types_generated.h</text>
</a>
</g>
</g>
<!-- Node13&#45;&gt;Node21 -->
<g id="edge25_Node000013_Node000021" class="edge">
<title>Node13&#45;&gt;Node21</title>
<g id="a_edge25_Node000013_Node000021"><a xlink:title=" ">
<path fill="none" stroke="#63b8ff" d="M1103.91,-179.68C1170.88,-168.94 1275.02,-152.25 1341.46,-141.6"/>
<polygon fill="#63b8ff" stroke="#63b8ff" points="1342.07,-145.05 1351.39,-140.01 1340.96,-138.14 1342.07,-145.05"/>
</a>
</g>
</g>
<!-- Node22 -->
<g id="Node000022" class="node">
<title>Node22</title>
<g id="a_Node000022"><a target="_blank" xlink:href="open62541/util_8h.html" xlink:title=" ">
<polygon fill="white" stroke="#666666" points="1602.5,-140 1504.5,-140 1504.5,-121 1602.5,-121 1602.5,-140"/>
<text text-anchor="middle" x="1553.5" y="-128" font-family="Helvetica,sans-Serif" font-size="10.00">open62541/util.h</text>
</a>
</g>
</g>
<!-- Node13&#45;&gt;Node22 -->
<g id="edge26_Node000013_Node000022" class="edge">
<title>Node13&#45;&gt;Node22</title>
<g id="a_edge26_Node000013_Node000022"><a xlink:title=" ">
<path fill="none" stroke="#63b8ff" d="M1103.78,-183.69C1190.16,-175.06 1348.75,-158.61 1494.45,-140.09"/>
<polygon fill="#63b8ff" stroke="#63b8ff" points="1494.99,-143.55 1504.47,-138.81 1494.11,-136.61 1494.99,-143.55"/>
</a>
</g>
</g>
<!-- Node23 -->
<g id="Node000023" class="node">
<title>Node23</title>
<g id="a_Node000023"><a target="_blank" xlink:href="open62541/accesscontrol_8h.html" xlink:title=" ">
<polygon fill="white" stroke="#666666" points="1802.5,-140 1620.5,-140 1620.5,-121 1802.5,-121 1802.5,-140"/>
<text text-anchor="middle" x="1711.5" y="-128" font-family="Helvetica,sans-Serif" font-size="10.00">open62541/plugin/accesscontrol.h</text>
</a>
</g>
</g>
<!-- Node13&#45;&gt;Node23 -->
<g id="edge27_Node000013_Node000023" class="edge">
<title>Node13&#45;&gt;Node23</title>
<g id="a_edge27_Node000013_Node000023"><a xlink:title=" ">
<path fill="none" stroke="#63b8ff" d="M1103.63,-184.42C1220.69,-174.23 1469.83,-152.54 1610.09,-140.33"/>
<polygon fill="#63b8ff" stroke="#63b8ff" points="1610.75,-143.78 1620.41,-139.43 1610.15,-136.81 1610.75,-143.78"/>
</a>
</g>
</g>
<!-- Node24 -->
<g id="Node000024" class="node">
<title>Node24</title>
<g id="a_Node000024"><a target="_blank" xlink:href="open62541/log_8h.html" xlink:title=" ">
<polygon fill="white" stroke="#666666" points="967,-140 836,-140 836,-121 967,-121 967,-140"/>
<text text-anchor="middle" x="901.5" y="-128" font-family="Helvetica,sans-Serif" font-size="10.00">open62541/plugin/log.h</text>
</a>
</g>
</g>
<!-- Node13&#45;&gt;Node24 -->
<g id="edge28_Node000013_Node000024" class="edge">
<title>Node13&#45;&gt;Node24</title>
<g id="a_edge28_Node000013_Node000024"><a xlink:title=" ">
<path fill="none" stroke="#63b8ff" d="M1006.45,-175.99C983.52,-166.27 953.26,-153.44 931.12,-144.06"/>
<polygon fill="#63b8ff" stroke="#63b8ff" points="932.45,-140.82 921.88,-140.14 929.72,-147.26 932.45,-140.82"/>
</a>
</g>
</g>
<!-- Node17&#45;&gt;Node13 -->
<g id="edge24_Node000017_Node000013" class="edge">
<title>Node17&#45;&gt;Node13</title>
<g id="a_edge24_Node000017_Node000013"><a xlink:title=" ">
<path fill="none" stroke="#63b8ff" d="M807.94,-140.05C851.73,-148.89 918.47,-162.91 969.11,-173.84"/>
<polygon fill="#63b8ff" stroke="#63b8ff" points="968.5,-177.29 979.01,-175.99 969.98,-170.45 968.5,-177.29"/>
</a>
</g>
</g>
<!-- Node18 -->
<g id="Node000018" class="node">
<title>Node18</title>
<g id="a_Node000018"><a xlink:href="config_8h.html" target="_top" xlink:title=" ">
<polygon fill="white" stroke="#666666" points="897.5,-85 785.5,-85 785.5,-66 897.5,-66 897.5,-85"/>
<text text-anchor="middle" x="841.5" y="-73" font-family="Helvetica,sans-Serif" font-size="10.00">open62541/config.h</text>
</a>
</g>
</g>
<!-- Node17&#45;&gt;Node18 -->
<g id="edge20_Node000017_Node000018" class="edge">
<title>Node17&#45;&gt;Node18</title>
<g id="a_edge20_Node000017_Node000018"><a xlink:title=" ">
<path fill="none" stroke="#63b8ff" d="M775.19,-120.98C787.33,-112.84 805.86,-100.41 820.25,-90.76"/>
<polygon fill="#63b8ff" stroke="#63b8ff" points="822.22,-93.65 828.58,-85.17 818.32,-87.84 822.22,-93.65"/>
</a>
</g>
</g>
<!-- Node18&#45;&gt;Node14 -->
<g id="edge21_Node000018_Node000014" class="edge">
<title>Node18&#45;&gt;Node14</title>
<g id="a_edge21_Node000018_Node000014"><a xlink:title=" ">
<path fill="none" stroke="#63b8ff" d="M818.38,-65.99C795.4,-57.54 759.46,-44.32 730.32,-33.59"/>
<polygon fill="#63b8ff" stroke="#63b8ff" points="731.32,-30.23 720.73,-30.06 728.9,-36.8 731.32,-30.23"/>
</a>
</g>
</g>
<!-- Node19 -->
<g id="Node000019" class="node">
<title>Node19</title>
<g id="a_Node000019"><a xlink:title=" ">
<polygon fill="#e0e0e0" stroke="#999999" points="897.5,-24.5 785.5,-24.5 785.5,-5.5 897.5,-5.5 897.5,-24.5"/>
<text text-anchor="middle" x="841.5" y="-12.5" font-family="Helvetica,sans-Serif" font-size="10.00">open62541/config.h</text>
</a>
</g>
</g>
<!-- Node18&#45;&gt;Node19 -->
<g id="edge22_Node000018_Node000019" class="edge">
<title>Node18&#45;&gt;Node19</title>
<g id="a_edge22_Node000018_Node000019"><a xlink:title=" ">
<path fill="none" stroke="#63b8ff" d="M841.5,-65.87C841.5,-57.75 841.5,-45.31 841.5,-34.89"/>
<polygon fill="#63b8ff" stroke="#63b8ff" points="845,-34.67 841.5,-24.67 838,-34.67 845,-34.67"/>
</a>
</g>
</g>
<!-- Node18&#45;&gt;Node20 -->
<g id="edge23_Node000018_Node000020" class="edge">
<title>Node18&#45;&gt;Node20</title>
<g id="a_edge23_Node000018_Node000020"><a xlink:title=" ">
<path fill="none" stroke="#63b8ff" d="M863.6,-65.99C885.48,-57.57 919.63,-44.43 947.42,-33.73"/>
<polygon fill="#63b8ff" stroke="#63b8ff" points="948.88,-36.92 956.96,-30.06 946.37,-30.39 948.88,-36.92"/>
</a>
</g>
</g>
<!-- Node24&#45;&gt;Node18 -->
<g id="edge29_Node000024_Node000018" class="edge">
<title>Node24&#45;&gt;Node18</title>
<g id="a_edge29_Node000024_Node000018"><a xlink:title=" ">
<path fill="none" stroke="#63b8ff" d="M891.86,-120.98C882.99,-113.15 869.63,-101.34 858.89,-91.86"/>
<polygon fill="#63b8ff" stroke="#63b8ff" points="861.13,-89.17 851.32,-85.17 856.49,-94.41 861.13,-89.17"/>
</a>
</g>
</g>
<!-- Node25&#45;&gt;Node3 -->
<g id="edge32_Node000025_Node000003" class="edge">
<title>Node25&#45;&gt;Node3</title>
<g id="a_edge32_Node000025_Node000003"><a xlink:title=" ">
<path fill="none" stroke="#63b8ff" d="M74.61,-313.29C87.93,-297.42 118.14,-263.44 149.5,-242 172.88,-226.01 202.2,-212.98 224.68,-204.23"/>
<polygon fill="#63b8ff" stroke="#63b8ff" points="226.07,-207.45 234.18,-200.64 223.59,-200.91 226.07,-207.45"/>
</a>
</g>
</g>
<!-- Node26&#45;&gt;Node5 -->
<g id="edge36_Node000026_Node000005" class="edge">
<title>Node26&#45;&gt;Node5</title>
<g id="a_edge36_Node000026_Node000005"><a xlink:title=" ">
<path fill="none" stroke="#63b8ff" d="M592.75,-307.9C559.12,-298.43 514.44,-285.31 475.5,-272 473.84,-271.43 472.15,-270.84 470.44,-270.22"/>
<polygon fill="#63b8ff" stroke="#63b8ff" points="471.3,-266.81 460.71,-266.59 468.85,-273.37 471.3,-266.81"/>
</a>
</g>
</g>
<!-- Node26&#45;&gt;Node10 -->
<g id="edge38_Node000026_Node000010" class="edge">
<title>Node26&#45;&gt;Node10</title>
<g id="a_edge38_Node000026_Node000010"><a xlink:title=" ">
<path fill="none" stroke="#63b8ff" d="M698.92,-307.95C744.24,-296.26 807.88,-279.84 849.64,-269.06"/>
<polygon fill="#63b8ff" stroke="#63b8ff" points="850.69,-272.41 859.5,-266.52 848.94,-265.63 850.69,-272.41"/>
</a>
</g>
</g>
<!-- Node26&#45;&gt;Node13 -->
<g id="edge39_Node000026_Node000013" class="edge">
<title>Node26&#45;&gt;Node13</title>
<g id="a_edge39_Node000026_Node000013"><a xlink:title=" ">
<path fill="none" stroke="#63b8ff" d="M701.01,-318.97C784.63,-313.6 936.4,-300.22 982.5,-272 1004.08,-258.79 1019.79,-234.03 1029.18,-215.54"/>
<polygon fill="#63b8ff" stroke="#63b8ff" points="1032.46,-216.81 1033.64,-206.28 1026.15,-213.77 1032.46,-216.81"/>
</a>
</g>
</g>
<!-- Node27 -->
<g id="Node000027" class="node">
<title>Node27</title>
<g id="a_Node000027"><a xlink:title=" ">
<polygon fill="#e0e0e0" stroke="#999999" points="755.5,-266.5 691.5,-266.5 691.5,-247.5 755.5,-247.5 755.5,-266.5"/>
<text text-anchor="middle" x="723.5" y="-254.5" font-family="Helvetica,sans-Serif" font-size="10.00">algorithm</text>
</a>
</g>
</g>
<!-- Node26&#45;&gt;Node27 -->
<g id="edge35_Node000026_Node000027" class="edge">
<title>Node26&#45;&gt;Node27</title>
<g id="a_edge35_Node000026_Node000027"><a xlink:title=" ">
<path fill="none" stroke="#63b8ff" d="M662.03,-307.8C674.71,-297.53 691.82,-283.67 704.76,-273.18"/>
<polygon fill="#63b8ff" stroke="#63b8ff" points="707.02,-275.86 712.58,-266.84 702.61,-270.42 707.02,-275.86"/>
</a>
</g>
</g>
<!-- Node28 -->
<g id="Node000028" class="node">
<title>Node28</title>
<g id="a_Node000028"><a xlink:title=" ">
<polygon fill="#e0e0e0" stroke="#999999" points="673.5,-266.5 615.5,-266.5 615.5,-247.5 673.5,-247.5 673.5,-266.5"/>
<text text-anchor="middle" x="644.5" y="-254.5" font-family="Helvetica,sans-Serif" font-size="10.00">memory</text>
</a>
</g>
</g>
<!-- Node26&#45;&gt;Node28 -->
<g id="edge37_Node000026_Node000028" class="edge">
<title>Node26&#45;&gt;Node28</title>
<g id="a_edge37_Node000026_Node000028"><a xlink:title=" ">
<path fill="none" stroke="#63b8ff" d="M644.5,-307.8C644.5,-298.7 644.5,-286.79 644.5,-276.9"/>
<polygon fill="#63b8ff" stroke="#63b8ff" points="648,-276.84 644.5,-266.84 641,-276.84 648,-276.84"/>
</a>
</g>
</g>
<!-- Node26&#45;&gt;Node29 -->
<g id="edge40_Node000026_Node000029" class="edge">
<title>Node26&#45;&gt;Node29</title>
<g id="a_edge40_Node000026_Node000029"><a xlink:title=" ">
<path fill="none" stroke="#63b8ff" d="M621.68,-307.95C607.05,-298.95 587.86,-287.14 571.81,-277.27"/>
<polygon fill="#63b8ff" stroke="#63b8ff" points="573.62,-274.27 563.27,-272.01 569.95,-280.23 573.62,-274.27"/>
</a>
</g>
</g>
<!-- Node29&#45;&gt;Node3 -->
<g id="edge41_Node000029_Node000003" class="edge">
<title>Node29&#45;&gt;Node3</title>
<g id="a_edge41_Node000029_Node000003"><a xlink:title=" ">
<path fill="none" stroke="#63b8ff" d="M483.97,-243.13C431.01,-231.06 352.89,-213.27 304.16,-202.17"/>
<polygon fill="#63b8ff" stroke="#63b8ff" points="304.76,-198.72 294.23,-199.91 303.2,-205.54 304.76,-198.72"/>
</a>
</g>
</g>
</g>
</svg>
