<?xml version="1.0" encoding="UTF-8" standalone="no"?>
<!DOCTYPE svg PUBLIC "-//W3C//DTD SVG 1.1//EN"
 "http://www.w3.org/Graphics/SVG/1.1/DTD/svg11.dtd">
<!-- Generated by graphviz version 2.43.0 (0)
 -->
<!-- Title: /home/runner/work/open62541pp/open62541pp/include/open62541pp/detail/types_conversion.hpp Pages: 1 -->
<svg width="1826pt" height="423pt"
 viewBox="0.00 0.00 1825.77 423.00" xmlns="http://www.w3.org/2000/svg" xmlns:xlink="http://www.w3.org/1999/xlink">
<g id="graph0" class="graph" transform="scale(1 1) rotate(0) translate(4 419)">
<title>/home/runner/work/open62541pp/open62541pp/include/open62541pp/detail/types_conversion.hpp</title>
<!-- Node1 -->
<g id="Node000001" class="node">
<title>Node1</title>
<g id="a_Node000001"><a xlink:title=" ">
<polygon fill="#999999" stroke="#666666" points="1430.5,-415 1237.5,-415 1237.5,-374 1430.5,-374 1430.5,-415"/>
<text text-anchor="start" x="1245.5" y="-403" font-family="Helvetica,sans-Serif" font-size="10.00">/home/runner/work/open62541pp</text>
<text text-anchor="start" x="1245.5" y="-392" font-family="Helvetica,sans-Serif" font-size="10.00">/open62541pp/include/open62541pp</text>
<text text-anchor="middle" x="1334" y="-381" font-family="Helvetica,sans-Serif" font-size="10.00">/detail/types_conversion.hpp</text>
</a>
</g>
</g>
<!-- Node2 -->
<g id="Node000002" class="node">
<title>Node2</title>
<g id="a_Node000002"><a xlink:title=" ">
<polygon fill="#e0e0e0" stroke="#999999" points="458.5,-266.5 385.5,-266.5 385.5,-247.5 458.5,-247.5 458.5,-266.5"/>
<text text-anchor="middle" x="422" y="-254.5" font-family="Helvetica,sans-Serif" font-size="10.00">string_view</text>
</a>
</g>
</g>
<!-- Node1&#45;&gt;Node2 -->
<g id="edge1_Node000001_Node000002" class="edge">
<title>Node1&#45;&gt;Node2</title>
<g id="a_edge1_Node000001_Node000002"><a xlink:title=" ">
<path fill="none" stroke="#63b8ff" d="M1237.47,-391.28C1030.48,-385.93 557.38,-370.3 492,-338 464.52,-324.43 443.24,-294.8 431.68,-275.66"/>
<polygon fill="#63b8ff" stroke="#63b8ff" points="434.56,-273.66 426.53,-266.75 428.5,-277.16 434.56,-273.66"/>
</a>
</g>
</g>
<!-- Node3 -->
<g id="Node000003" class="node">
<title>Node3</title>
<g id="a_Node000003"><a xlink:title=" ">
<polygon fill="#e0e0e0" stroke="#999999" points="1817.5,-200.5 1748.5,-200.5 1748.5,-181.5 1817.5,-181.5 1817.5,-200.5"/>
<text text-anchor="middle" x="1783" y="-188.5" font-family="Helvetica,sans-Serif" font-size="10.00">type_traits</text>
</a>
</g>
</g>
<!-- Node1&#45;&gt;Node3 -->
<g id="edge2_Node000001_Node000003" class="edge">
<title>Node1&#45;&gt;Node3</title>
<g id="a_edge2_Node000001_Node000003"><a xlink:title=" ">
<path fill="none" stroke="#63b8ff" d="M1430.67,-391.38C1543.4,-387.21 1721.3,-374.81 1776,-338 1813.93,-312.47 1825.21,-286.07 1813,-242 1809.68,-230 1802.62,-217.99 1796.19,-208.75"/>
<polygon fill="#63b8ff" stroke="#63b8ff" points="1798.88,-206.5 1790.12,-200.53 1793.25,-210.66 1798.88,-206.5"/>
</a>
</g>
</g>
<!-- Node4 -->
<g id="Node000004" class="node">
<title>Node4</title>
<g id="a_Node000004"><a xlink:href="string__utils_8hpp.html" target="_top" xlink:title=" ">
<polygon fill="white" stroke="#666666" points="614.5,-338 501.5,-338 501.5,-308 614.5,-308 614.5,-338"/>
<text text-anchor="start" x="509.5" y="-326" font-family="Helvetica,sans-Serif" font-size="10.00">open62541pp/detail</text>
<text text-anchor="middle" x="558" y="-315" font-family="Helvetica,sans-Serif" font-size="10.00">/string_utils.hpp</text>
</a>
</g>
</g>
<!-- Node1&#45;&gt;Node4 -->
<g id="edge3_Node000001_Node000004" class="edge">
<title>Node1&#45;&gt;Node4</title>
<g id="a_edge3_Node000001_Node000004"><a xlink:title=" ">
<path fill="none" stroke="#63b8ff" d="M1237.29,-384.84C1077.35,-370.51 761.81,-342.25 624.47,-329.95"/>
<polygon fill="#63b8ff" stroke="#63b8ff" points="624.77,-326.47 614.5,-329.06 624.15,-333.44 624.77,-326.47"/>
</a>
</g>
</g>
<!-- Node20 -->
<g id="Node000020" class="node">
<title>Node20</title>
<g id="a_Node000020"><a xlink:href="types__handling_8hpp.html" target="_top" xlink:title=" ">
<polygon fill="white" stroke="#666666" points="1071.5,-338 956.5,-338 956.5,-308 1071.5,-308 1071.5,-338"/>
<text text-anchor="start" x="964.5" y="-326" font-family="Helvetica,sans-Serif" font-size="10.00">open62541pp/detail</text>
<text text-anchor="middle" x="1014" y="-315" font-family="Helvetica,sans-Serif" font-size="10.00">/types_handling.hpp</text>
</a>
</g>
</g>
<!-- Node1&#45;&gt;Node20 -->
<g id="edge24_Node000001_Node000020" class="edge">
<title>Node1&#45;&gt;Node20</title>
<g id="a_edge24_Node000001_Node000020"><a xlink:title=" ">
<path fill="none" stroke="#63b8ff" d="M1244.01,-373.96C1192.41,-362.75 1128.7,-348.91 1081.43,-338.65"/>
<polygon fill="#63b8ff" stroke="#63b8ff" points="1082.12,-335.21 1071.6,-336.51 1080.63,-342.05 1082.12,-335.21"/>
</a>
</g>
</g>
<!-- Node31 -->
<g id="Node000031" class="node">
<title>Node31</title>
<g id="a_Node000031"><a xlink:href="span_8hpp.html" target="_top" xlink:title=" ">
<polygon fill="white" stroke="#666666" points="1399,-332.5 1269,-332.5 1269,-313.5 1399,-313.5 1399,-332.5"/>
<text text-anchor="middle" x="1334" y="-320.5" font-family="Helvetica,sans-Serif" font-size="10.00">open62541pp/span.hpp</text>
</a>
</g>
</g>
<!-- Node1&#45;&gt;Node31 -->
<g id="edge39_Node000001_Node000031" class="edge">
<title>Node1&#45;&gt;Node31</title>
<g id="a_edge39_Node000001_Node000031"><a xlink:title=" ">
<path fill="none" stroke="#63b8ff" d="M1334,-373.77C1334,-364.08 1334,-352.46 1334,-342.88"/>
<polygon fill="#63b8ff" stroke="#63b8ff" points="1337.5,-342.82 1334,-332.82 1330.5,-342.82 1337.5,-342.82"/>
</a>
</g>
</g>
<!-- Node36 -->
<g id="Node000036" class="node">
<title>Node36</title>
<g id="a_Node000036"><a xlink:href="typeregistry_8hpp.html" target="_top" xlink:title=" ">
<polygon fill="white" stroke="#666666" points="1592,-332.5 1428,-332.5 1428,-313.5 1592,-313.5 1592,-332.5"/>
<text text-anchor="middle" x="1510" y="-320.5" font-family="Helvetica,sans-Serif" font-size="10.00">open62541pp/typeregistry.hpp</text>
</a>
</g>
</g>
<!-- Node1&#45;&gt;Node36 -->
<g id="edge51_Node000001_Node000036" class="edge">
<title>Node1&#45;&gt;Node36</title>
<g id="a_edge51_Node000001_Node000036"><a xlink:title=" ">
<path fill="none" stroke="#63b8ff" d="M1383.49,-373.96C1414.15,-361.85 1452.56,-346.68 1478.97,-336.25"/>
<polygon fill="#63b8ff" stroke="#63b8ff" points="1480.45,-339.43 1488.47,-332.5 1477.88,-332.92 1480.45,-339.43"/>
</a>
</g>
</g>
<!-- Node37 -->
<g id="Node000037" class="node">
<title>Node37</title>
<g id="a_Node000037"><a xlink:href="wrapper_8hpp.html" target="_top" xlink:title=" ">
<polygon fill="white" stroke="#666666" points="1767,-332.5 1621,-332.5 1621,-313.5 1767,-313.5 1767,-332.5"/>
<text text-anchor="middle" x="1694" y="-320.5" font-family="Helvetica,sans-Serif" font-size="10.00">open62541pp/wrapper.hpp</text>
</a>
</g>
</g>
<!-- Node1&#45;&gt;Node37 -->
<g id="edge55_Node000001_Node000037" class="edge">
<title>Node1&#45;&gt;Node37</title>
<g id="a_edge55_Node000001_Node000037"><a xlink:title=" ">
<path fill="none" stroke="#63b8ff" d="M1430.95,-374.78C1498,-361.84 1584.74,-345.09 1639.89,-334.45"/>
<polygon fill="#63b8ff" stroke="#63b8ff" points="1640.66,-337.86 1649.81,-332.53 1639.33,-330.99 1640.66,-337.86"/>
</a>
</g>
</g>
<!-- Node4&#45;&gt;Node2 -->
<g id="edge6_Node000004_Node000002" class="edge">
<title>Node4&#45;&gt;Node2</title>
<g id="a_edge6_Node000004_Node000002"><a xlink:title=" ">
<path fill="none" stroke="#63b8ff" d="M528.15,-307.95C504.62,-296.88 472.07,-281.56 449.23,-270.82"/>
<polygon fill="#63b8ff" stroke="#63b8ff" points="450.64,-267.61 440.1,-266.52 447.66,-273.94 450.64,-267.61"/>
</a>
</g>
</g>
<!-- Node5 -->
<g id="Node000005" class="node">
<title>Node5</title>
<g id="a_Node000005"><a xlink:title=" ">
<polygon fill="#e0e0e0" stroke="#999999" points="529.5,-266.5 476.5,-266.5 476.5,-247.5 529.5,-247.5 529.5,-266.5"/>
<text text-anchor="middle" x="503" y="-254.5" font-family="Helvetica,sans-Serif" font-size="10.00">cstdarg</text>
</a>
</g>
</g>
<!-- Node4&#45;&gt;Node5 -->
<g id="edge4_Node000004_Node000005" class="edge">
<title>Node4&#45;&gt;Node5</title>
<g id="a_edge4_Node000004_Node000005"><a xlink:title=" ">
<path fill="none" stroke="#63b8ff" d="M545.79,-307.8C537.39,-298.01 526.19,-284.98 517.35,-274.7"/>
<polygon fill="#63b8ff" stroke="#63b8ff" points="519.77,-272.15 510.6,-266.84 514.46,-276.71 519.77,-272.15"/>
</a>
</g>
</g>
<!-- Node6 -->
<g id="Node000006" class="node">
<title>Node6</title>
<g id="a_Node000006"><a xlink:title=" ">
<polygon fill="#e0e0e0" stroke="#999999" points="736,-266.5 692,-266.5 692,-247.5 736,-247.5 736,-266.5"/>
<text text-anchor="middle" x="714" y="-254.5" font-family="Helvetica,sans-Serif" font-size="10.00">string</text>
</a>
</g>
</g>
<!-- Node4&#45;&gt;Node6 -->
<g id="edge5_Node000004_Node000006" class="edge">
<title>Node4&#45;&gt;Node6</title>
<g id="a_edge5_Node000004_Node000006"><a xlink:title=" ">
<path fill="none" stroke="#63b8ff" d="M594.27,-307.97C619.32,-298.17 653.32,-284.63 683,-272 684.01,-271.57 685.03,-271.13 686.06,-270.69"/>
<polygon fill="#63b8ff" stroke="#63b8ff" points="687.64,-273.82 695.37,-266.57 684.81,-267.41 687.64,-273.82"/>
</a>
</g>
</g>
<!-- Node7 -->
<g id="Node000007" class="node">
<title>Node7</title>
<g id="a_Node000007"><a xlink:href="common_8h.html" target="_top" xlink:title=" ">
<polygon fill="white" stroke="#666666" points="759,-206 631,-206 631,-176 759,-176 759,-206"/>
<text text-anchor="start" x="639" y="-194" font-family="Helvetica,sans-Serif" font-size="10.00">open62541pp/detail</text>
<text text-anchor="middle" x="695" y="-183" font-family="Helvetica,sans-Serif" font-size="10.00">/open62541/common.h</text>
</a>
</g>
</g>
<!-- Node4&#45;&gt;Node7 -->
<g id="edge7_Node000004_Node000007" class="edge">
<title>Node4&#45;&gt;Node7</title>
<g id="a_edge7_Node000004_Node000007"><a xlink:title=" ">
<path fill="none" stroke="#63b8ff" d="M558.73,-307.85C560.34,-290.39 565.5,-260.7 582,-242 594.57,-227.75 611.98,-217.37 629.36,-209.9"/>
<polygon fill="#63b8ff" stroke="#63b8ff" points="631.01,-213.01 638.99,-206.03 628.4,-206.51 631.01,-213.01"/>
</a>
</g>
</g>
<!-- Node8 -->
<g id="Node000008" class="node">
<title>Node8</title>
<g id="a_Node000008"><a xlink:title=" ">
<polygon fill="#e0e0e0" stroke="#999999" points="136,-140 0,-140 0,-121 136,-121 136,-140"/>
<text text-anchor="middle" x="68" y="-128" font-family="Helvetica,sans-Serif" font-size="10.00">open62541pp/config.hpp</text>
</a>
</g>
</g>
<!-- Node7&#45;&gt;Node8 -->
<g id="edge8_Node000007_Node000008" class="edge">
<title>Node7&#45;&gt;Node8</title>
<g id="a_edge8_Node000007_Node000008"><a xlink:title=" ">
<path fill="none" stroke="#63b8ff" d="M630.79,-184.36C528.86,-175.34 323.76,-156.98 150,-140 148.72,-139.87 147.42,-139.75 146.12,-139.62"/>
<polygon fill="#63b8ff" stroke="#63b8ff" points="146.3,-136.12 136.01,-138.61 145.61,-143.09 146.3,-136.12"/>
</a>
</g>
</g>
<!-- Node9 -->
<g id="Node000009" class="node">
<title>Node9</title>
<g id="a_Node000009"><a xlink:href="push__options_8h.html" target="_top" xlink:title=" ">
<polygon fill="white" stroke="#666666" points="430,-30 280,-30 280,0 430,0 430,-30"/>
<text text-anchor="start" x="288" y="-18" font-family="Helvetica,sans-Serif" font-size="10.00">open62541pp/detail</text>
<text text-anchor="middle" x="355" y="-7" font-family="Helvetica,sans-Serif" font-size="10.00">/open62541/push_options.h</text>
</a>
</g>
</g>
<!-- Node7&#45;&gt;Node9 -->
<g id="edge9_Node000007_Node000009" class="edge">
<title>Node7&#45;&gt;Node9</title>
<g id="a_edge9_Node000007_Node000009"><a xlink:title=" ">
<path fill="none" stroke="#63b8ff" d="M630.66,-188.45C499.82,-184.63 212.55,-172.58 183,-140 141.13,-93.84 229.87,-54.5 294.78,-33.15"/>
<polygon fill="#63b8ff" stroke="#63b8ff" points="296.12,-36.39 304.57,-30 293.98,-29.73 296.12,-36.39"/>
</a>
</g>
</g>
<!-- Node10 -->
<g id="Node000010" class="node">
<title>Node10</title>
<g id="a_Node000010"><a target="_blank" xlink:href="open62541/nodeids_8h.html" xlink:title=" ">
<polygon fill="white" stroke="#666666" points="313.5,-140 192.5,-140 192.5,-121 313.5,-121 313.5,-140"/>
<text text-anchor="middle" x="253" y="-128" font-family="Helvetica,sans-Serif" font-size="10.00">open62541/nodeids.h</text>
</a>
</g>
</g>
<!-- Node7&#45;&gt;Node10 -->
<g id="edge10_Node000007_Node000010" class="edge">
<title>Node7&#45;&gt;Node10</title>
<g id="a_edge10_Node000007_Node000010"><a xlink:title=" ">
<path fill="none" stroke="#63b8ff" d="M630.73,-181.49C549.05,-170.68 408.53,-152.09 323.84,-140.88"/>
<polygon fill="#63b8ff" stroke="#63b8ff" points="324.17,-137.39 313.79,-139.55 323.25,-144.33 324.17,-137.39"/>
</a>
</g>
</g>
<!-- Node11 -->
<g id="Node000011" class="node">
<title>Node11</title>
<g id="a_Node000011"><a target="_blank" xlink:href="open62541/statuscodes_8h.html" xlink:title=" ">
<polygon fill="white" stroke="#666666" points="472.5,-140 331.5,-140 331.5,-121 472.5,-121 472.5,-140"/>
<text text-anchor="middle" x="402" y="-128" font-family="Helvetica,sans-Serif" font-size="10.00">open62541/statuscodes.h</text>
</a>
</g>
</g>
<!-- Node7&#45;&gt;Node11 -->
<g id="edge11_Node000007_Node000011" class="edge">
<title>Node7&#45;&gt;Node11</title>
<g id="a_edge11_Node000007_Node000011"><a xlink:title=" ">
<path fill="none" stroke="#63b8ff" d="M630.7,-177.16C577.9,-166.62 504.05,-151.88 454.7,-142.02"/>
<polygon fill="#63b8ff" stroke="#63b8ff" points="455.36,-138.58 444.87,-140.06 453.99,-145.45 455.36,-138.58"/>
</a>
</g>
</g>
<!-- Node12 -->
<g id="Node000012" class="node">
<title>Node12</title>
<g id="a_Node000012"><a target="_blank" xlink:href="open62541/types_8h.html" xlink:title=" ">
<polygon fill="white" stroke="#666666" points="750,-140 640,-140 640,-121 750,-121 750,-140"/>
<text text-anchor="middle" x="695" y="-128" font-family="Helvetica,sans-Serif" font-size="10.00">open62541/types.h</text>
</a>
</g>
</g>
<!-- Node7&#45;&gt;Node12 -->
<g id="edge12_Node000007_Node000012" class="edge">
<title>Node7&#45;&gt;Node12</title>
<g id="a_edge12_Node000007_Node000012"><a xlink:title=" ">
<path fill="none" stroke="#63b8ff" d="M689.12,-175.84C688.15,-168.21 687.99,-158.7 688.64,-150.45"/>
<polygon fill="#63b8ff" stroke="#63b8ff" points="692.14,-150.65 690.02,-140.27 685.21,-149.71 692.14,-150.65"/>
</a>
</g>
</g>
<!-- Node15 -->
<g id="Node000015" class="node">
<title>Node15</title>
<g id="a_Node000015"><a xlink:href="pop__options_8h.html" target="_top" xlink:title=" ">
<polygon fill="white" stroke="#666666" points="1062.5,-30 917.5,-30 917.5,0 1062.5,0 1062.5,-30"/>
<text text-anchor="start" x="925.5" y="-18" font-family="Helvetica,sans-Serif" font-size="10.00">open62541pp/detail</text>
<text text-anchor="middle" x="990" y="-7" font-family="Helvetica,sans-Serif" font-size="10.00">/open62541/pop_options.h</text>
</a>
</g>
</g>
<!-- Node7&#45;&gt;Node15 -->
<g id="edge23_Node000007_Node000015" class="edge">
<title>Node7&#45;&gt;Node15</title>
<g id="a_edge23_Node000007_Node000015"><a xlink:title=" ">
<path fill="none" stroke="#63b8ff" d="M759.19,-184.57C906.21,-172.09 1254.91,-142.28 1257,-140 1317.12,-74.29 1171.67,-40.58 1072.66,-25.75"/>
<polygon fill="#63b8ff" stroke="#63b8ff" points="1073.03,-22.27 1062.63,-24.29 1072.02,-29.2 1073.03,-22.27"/>
</a>
</g>
</g>
<!-- Node16 -->
<g id="Node000016" class="node">
<title>Node16</title>
<g id="a_Node000016"><a target="_blank" xlink:href="open62541/types__generated_8h.html" xlink:title=" ">
<polygon fill="white" stroke="#666666" points="932,-140 768,-140 768,-121 932,-121 932,-140"/>
<text text-anchor="middle" x="850" y="-128" font-family="Helvetica,sans-Serif" font-size="10.00">open62541/types_generated.h</text>
</a>
</g>
</g>
<!-- Node7&#45;&gt;Node16 -->
<g id="edge18_Node000007_Node000016" class="edge">
<title>Node7&#45;&gt;Node16</title>
<g id="a_edge18_Node000007_Node000016"><a xlink:title=" ">
<path fill="none" stroke="#63b8ff" d="M732.13,-175.99C758.22,-166.14 792.78,-153.1 817.73,-143.68"/>
<polygon fill="#63b8ff" stroke="#63b8ff" points="818.99,-146.94 827.11,-140.14 816.52,-140.4 818.99,-146.94"/>
</a>
</g>
</g>
<!-- Node17 -->
<g id="Node000017" class="node">
<title>Node17</title>
<g id="a_Node000017"><a target="_blank" xlink:href="open62541/util_8h.html" xlink:title=" ">
<polygon fill="white" stroke="#666666" points="1048,-140 950,-140 950,-121 1048,-121 1048,-140"/>
<text text-anchor="middle" x="999" y="-128" font-family="Helvetica,sans-Serif" font-size="10.00">open62541/util.h</text>
</a>
</g>
</g>
<!-- Node7&#45;&gt;Node17 -->
<g id="edge19_Node000007_Node000017" class="edge">
<title>Node7&#45;&gt;Node17</title>
<g id="a_edge19_Node000007_Node000017"><a xlink:title=" ">
<path fill="none" stroke="#63b8ff" d="M759.1,-177.67C814.14,-167.07 892.6,-151.98 944.62,-141.97"/>
<polygon fill="#63b8ff" stroke="#63b8ff" points="945.5,-145.36 954.65,-140.03 944.17,-138.49 945.5,-145.36"/>
</a>
</g>
</g>
<!-- Node18 -->
<g id="Node000018" class="node">
<title>Node18</title>
<g id="a_Node000018"><a target="_blank" xlink:href="open62541/accesscontrol_8h.html" xlink:title=" ">
<polygon fill="white" stroke="#666666" points="1248,-140 1066,-140 1066,-121 1248,-121 1248,-140"/>
<text text-anchor="middle" x="1157" y="-128" font-family="Helvetica,sans-Serif" font-size="10.00">open62541/plugin/accesscontrol.h</text>
</a>
</g>
</g>
<!-- Node7&#45;&gt;Node18 -->
<g id="edge20_Node000007_Node000018" class="edge">
<title>Node7&#45;&gt;Node18</title>
<g id="a_edge20_Node000007_Node000018"><a xlink:title=" ">
<path fill="none" stroke="#63b8ff" d="M759.24,-181.87C843.04,-171.26 989.52,-152.71 1079.42,-141.32"/>
<polygon fill="#63b8ff" stroke="#63b8ff" points="1080.08,-144.77 1089.56,-140.04 1079.2,-137.82 1080.08,-144.77"/>
</a>
</g>
</g>
<!-- Node19 -->
<g id="Node000019" class="node">
<title>Node19</title>
<g id="a_Node000019"><a target="_blank" xlink:href="open62541/log_8h.html" xlink:title=" ">
<polygon fill="white" stroke="#666666" points="621.5,-140 490.5,-140 490.5,-121 621.5,-121 621.5,-140"/>
<text text-anchor="middle" x="556" y="-128" font-family="Helvetica,sans-Serif" font-size="10.00">open62541/plugin/log.h</text>
</a>
</g>
</g>
<!-- Node7&#45;&gt;Node19 -->
<g id="edge21_Node000007_Node000019" class="edge">
<title>Node7&#45;&gt;Node19</title>
<g id="a_edge21_Node000007_Node000019"><a xlink:title=" ">
<path fill="none" stroke="#63b8ff" d="M661.71,-175.99C638.62,-166.27 608.13,-153.44 585.84,-144.06"/>
<polygon fill="#63b8ff" stroke="#63b8ff" points="587.1,-140.79 576.53,-140.14 584.39,-147.24 587.1,-140.79"/>
</a>
</g>
</g>
<!-- Node12&#45;&gt;Node7 -->
<g id="edge17_Node000012_Node000007" class="edge">
<title>Node12&#45;&gt;Node7</title>
<g id="a_edge17_Node000012_Node000007"><a xlink:title=" ">
<path fill="none" stroke="#63b8ff" d="M699.98,-140.27C701.42,-147.03 701.98,-156.72 701.66,-165.75"/>
<polygon fill="#63b8ff" stroke="#63b8ff" points="698.16,-165.6 700.88,-175.84 705.14,-166.14 698.16,-165.6"/>
</a>
</g>
</g>
<!-- Node13 -->
<g id="Node000013" class="node">
<title>Node13</title>
<g id="a_Node000013"><a xlink:href="config_8h.html" target="_top" xlink:title=" ">
<polygon fill="white" stroke="#666666" points="681,-85 569,-85 569,-66 681,-66 681,-85"/>
<text text-anchor="middle" x="625" y="-73" font-family="Helvetica,sans-Serif" font-size="10.00">open62541/config.h</text>
</a>
</g>
</g>
<!-- Node12&#45;&gt;Node13 -->
<g id="edge13_Node000012_Node000013" class="edge">
<title>Node12&#45;&gt;Node13</title>
<g id="a_edge13_Node000012_Node000013"><a xlink:title=" ">
<path fill="none" stroke="#63b8ff" d="M683.75,-120.98C673.2,-113 657.2,-100.88 644.56,-91.31"/>
<polygon fill="#63b8ff" stroke="#63b8ff" points="646.54,-88.42 636.45,-85.17 642.31,-94 646.54,-88.42"/>
</a>
</g>
</g>
<!-- Node13&#45;&gt;Node9 -->
<g id="edge14_Node000013_Node000009" class="edge">
<title>Node13&#45;&gt;Node9</title>
<g id="a_edge14_Node000013_Node000009"><a xlink:title=" ">
<path fill="none" stroke="#63b8ff" d="M585.74,-65.99C544.95,-57.16 480.13,-43.11 429.56,-32.16"/>
<polygon fill="#63b8ff" stroke="#63b8ff" points="430.17,-28.7 419.65,-30.01 428.68,-35.55 430.17,-28.7"/>
</a>
</g>
</g>
<!-- Node14 -->
<g id="Node000014" class="node">
<title>Node14</title>
<g id="a_Node000014"><a xlink:title=" ">
<polygon fill="#e0e0e0" stroke="#999999" points="681,-24.5 569,-24.5 569,-5.5 681,-5.5 681,-24.5"/>
<text text-anchor="middle" x="625" y="-12.5" font-family="Helvetica,sans-Serif" font-size="10.00">open62541/config.h</text>
</a>
</g>
</g>
<!-- Node13&#45;&gt;Node14 -->
<g id="edge15_Node000013_Node000014" class="edge">
<title>Node13&#45;&gt;Node14</title>
<g id="a_edge15_Node000013_Node000014"><a xlink:title=" ">
<path fill="none" stroke="#63b8ff" d="M625,-65.87C625,-57.75 625,-45.31 625,-34.89"/>
<polygon fill="#63b8ff" stroke="#63b8ff" points="628.5,-34.67 625,-24.67 621.5,-34.67 628.5,-34.67"/>
</a>
</g>
</g>
<!-- Node13&#45;&gt;Node15 -->
<g id="edge16_Node000013_Node000015" class="edge">
<title>Node13&#45;&gt;Node15</title>
<g id="a_edge16_Node000013_Node000015"><a xlink:title=" ">
<path fill="none" stroke="#63b8ff" d="M678.07,-65.99C738.19,-56.36 836.91,-40.54 907.18,-29.27"/>
<polygon fill="#63b8ff" stroke="#63b8ff" points="908.01,-32.69 917.33,-27.65 906.91,-25.77 908.01,-32.69"/>
</a>
</g>
</g>
<!-- Node19&#45;&gt;Node13 -->
<g id="edge22_Node000019_Node000013" class="edge">
<title>Node19&#45;&gt;Node13</title>
<g id="a_edge22_Node000019_Node000013"><a xlink:title=" ">
<path fill="none" stroke="#63b8ff" d="M567.09,-120.98C577.49,-113 593.26,-100.88 605.72,-91.31"/>
<polygon fill="#63b8ff" stroke="#63b8ff" points="607.91,-94.04 613.71,-85.17 603.65,-88.49 607.91,-94.04"/>
</a>
</g>
</g>
<!-- Node20&#45;&gt;Node7 -->
<g id="edge30_Node000020_Node000007" class="edge">
<title>Node20&#45;&gt;Node7</title>
<g id="a_edge30_Node000020_Node000007"><a xlink:title=" ">
<path fill="none" stroke="#63b8ff" d="M956.22,-318.92C851.08,-312.73 637.2,-297.16 615,-272 595.71,-250.14 625.68,-226.73 654.28,-210.92"/>
<polygon fill="#63b8ff" stroke="#63b8ff" points="656.25,-213.84 663.45,-206.07 652.98,-207.65 656.25,-213.84"/>
</a>
</g>
</g>
<!-- Node21 -->
<g id="Node000021" class="node">
<title>Node21</title>
<g id="a_Node000021"><a xlink:title=" ">
<polygon fill="#e0e0e0" stroke="#999999" points="1176,-266.5 1112,-266.5 1112,-247.5 1176,-247.5 1176,-266.5"/>
<text text-anchor="middle" x="1144" y="-254.5" font-family="Helvetica,sans-Serif" font-size="10.00">algorithm</text>
</a>
</g>
</g>
<!-- Node20&#45;&gt;Node21 -->
<g id="edge25_Node000020_Node000021" class="edge">
<title>Node20&#45;&gt;Node21</title>
<g id="a_edge25_Node000020_Node000021"><a xlink:title=" ">
<path fill="none" stroke="#63b8ff" d="M1042.53,-307.95C1064.93,-296.93 1095.86,-281.7 1117.67,-270.96"/>
<polygon fill="#63b8ff" stroke="#63b8ff" points="1119.27,-274.07 1126.7,-266.52 1116.18,-267.79 1119.27,-274.07"/>
</a>
</g>
</g>
<!-- Node22 -->
<g id="Node000022" class="node">
<title>Node22</title>
<g id="a_Node000022"><a xlink:title=" ">
<polygon fill="#e0e0e0" stroke="#999999" points="1094,-266.5 1042,-266.5 1042,-247.5 1094,-247.5 1094,-266.5"/>
<text text-anchor="middle" x="1068" y="-254.5" font-family="Helvetica,sans-Serif" font-size="10.00">cassert</text>
</a>
</g>
</g>
<!-- Node20&#45;&gt;Node22 -->
<g id="edge26_Node000020_Node000022" class="edge">
<title>Node20&#45;&gt;Node22</title>
<g id="a_edge26_Node000020_Node000022"><a xlink:title=" ">
<path fill="none" stroke="#63b8ff" d="M1025.98,-307.8C1034.24,-298.01 1045.24,-284.98 1053.91,-274.7"/>
<polygon fill="#63b8ff" stroke="#63b8ff" points="1056.76,-276.74 1060.54,-266.84 1051.41,-272.23 1056.76,-276.74"/>
</a>
</g>
</g>
<!-- Node23 -->
<g id="Node000023" class="node">
<title>Node23</title>
<g id="a_Node000023"><a xlink:title=" ">
<polygon fill="#e0e0e0" stroke="#999999" points="674,-266.5 624,-266.5 624,-247.5 674,-247.5 674,-266.5"/>
<text text-anchor="middle" x="649" y="-254.5" font-family="Helvetica,sans-Serif" font-size="10.00">cstring</text>
</a>
</g>
</g>
<!-- Node20&#45;&gt;Node23 -->
<g id="edge27_Node000020_Node000023" class="edge">
<title>Node20&#45;&gt;Node23</title>
<g id="a_edge27_Node000020_Node000023"><a xlink:title=" ">
<path fill="none" stroke="#63b8ff" d="M956.31,-317.52C889.57,-311.38 776.81,-297.99 683,-272 681.06,-271.46 679.09,-270.85 677.11,-270.18"/>
<polygon fill="#63b8ff" stroke="#63b8ff" points="678.01,-266.78 667.42,-266.53 675.55,-273.33 678.01,-266.78"/>
</a>
</g>
</g>
<!-- Node24 -->
<g id="Node000024" class="node">
<title>Node24</title>
<g id="a_Node000024"><a xlink:title=" ">
<polygon fill="#e0e0e0" stroke="#999999" points="812,-266.5 754,-266.5 754,-247.5 812,-247.5 812,-266.5"/>
<text text-anchor="middle" x="783" y="-254.5" font-family="Helvetica,sans-Serif" font-size="10.00">memory</text>
</a>
</g>
</g>
<!-- Node20&#45;&gt;Node24 -->
<g id="edge28_Node000020_Node000024" class="edge">
<title>Node20&#45;&gt;Node24</title>
<g id="a_edge28_Node000020_Node000024"><a xlink:title=" ">
<path fill="none" stroke="#63b8ff" d="M956.15,-308.61C917.59,-299.29 865.93,-286.06 821,-272 818.87,-271.33 816.69,-270.62 814.5,-269.88"/>
<polygon fill="#63b8ff" stroke="#63b8ff" points="815.57,-266.54 804.98,-266.52 813.24,-273.14 815.57,-266.54"/>
</a>
</g>
</g>
<!-- Node25 -->
<g id="Node000025" class="node">
<title>Node25</title>
<g id="a_Node000025"><a xlink:title=" ">
<polygon fill="#e0e0e0" stroke="#999999" points="1014.5,-200.5 977.5,-200.5 977.5,-181.5 1014.5,-181.5 1014.5,-200.5"/>
<text text-anchor="middle" x="996" y="-188.5" font-family="Helvetica,sans-Serif" font-size="10.00">new</text>
</a>
</g>
</g>
<!-- Node20&#45;&gt;Node25 -->
<g id="edge29_Node000020_Node000025" class="edge">
<title>Node20&#45;&gt;Node25</title>
<g id="a_edge29_Node000020_Node000025"><a xlink:title=" ">
<path fill="none" stroke="#63b8ff" d="M1012.04,-307.84C1008.79,-284.34 1002.27,-237.26 998.62,-210.93"/>
<polygon fill="#63b8ff" stroke="#63b8ff" points="1002.05,-210.17 997.21,-200.75 995.12,-211.13 1002.05,-210.17"/>
</a>
</g>
</g>
<!-- Node26 -->
<g id="Node000026" class="node">
<title>Node26</title>
<g id="a_Node000026"><a xlink:href="traits_8hpp.html" target="_top" xlink:title=" ">
<polygon fill="white" stroke="#666666" points="1513.5,-272 1400.5,-272 1400.5,-242 1513.5,-242 1513.5,-272"/>
<text text-anchor="start" x="1408.5" y="-260" font-family="Helvetica,sans-Serif" font-size="10.00">open62541pp/detail</text>
<text text-anchor="middle" x="1457" y="-249" font-family="Helvetica,sans-Serif" font-size="10.00">/traits.hpp</text>
</a>
</g>
</g>
<!-- Node20&#45;&gt;Node26 -->
<g id="edge31_Node000020_Node000026" class="edge">
<title>Node20&#45;&gt;Node26</title>
<g id="a_edge31_Node000020_Node000026"><a xlink:title=" ">
<path fill="none" stroke="#63b8ff" d="M1071.91,-313.63C1154.03,-301.77 1303.93,-280.11 1390.5,-267.61"/>
<polygon fill="#63b8ff" stroke="#63b8ff" points="1391.08,-271.06 1400.47,-266.17 1390.07,-264.13 1391.08,-271.06"/>
</a>
</g>
</g>
<!-- Node28 -->
<g id="Node000028" class="node">
<title>Node28</title>
<g id="a_Node000028"><a xlink:href="exception_8hpp.html" target="_top" xlink:title=" ">
<polygon fill="white" stroke="#666666" points="985.5,-266.5 830.5,-266.5 830.5,-247.5 985.5,-247.5 985.5,-266.5"/>
<text text-anchor="middle" x="908" y="-254.5" font-family="Helvetica,sans-Serif" font-size="10.00">open62541pp/exception.hpp</text>
</a>
</g>
</g>
<!-- Node20&#45;&gt;Node28 -->
<g id="edge34_Node000020_Node000028" class="edge">
<title>Node20&#45;&gt;Node28</title>
<g id="a_edge34_Node000020_Node000028"><a xlink:title=" ">
<path fill="none" stroke="#63b8ff" d="M990.74,-307.95C972.89,-297.18 948.38,-282.38 930.67,-271.69"/>
<polygon fill="#63b8ff" stroke="#63b8ff" points="932.48,-268.69 922.11,-266.52 928.86,-274.68 932.48,-268.69"/>
</a>
</g>
</g>
<!-- Node26&#45;&gt;Node3 -->
<g id="edge33_Node000026_Node000003" class="edge">
<title>Node26&#45;&gt;Node3</title>
<g id="a_edge33_Node000026_Node000003"><a xlink:title=" ">
<path fill="none" stroke="#63b8ff" d="M1513.7,-243.71C1516.51,-243.12 1519.29,-242.55 1522,-242 1597.87,-226.56 1686.42,-209.88 1738.43,-200.22"/>
<polygon fill="#63b8ff" stroke="#63b8ff" points="1739.14,-203.65 1748.33,-198.38 1737.86,-196.76 1739.14,-203.65"/>
</a>
</g>
</g>
<!-- Node27 -->
<g id="Node000027" class="node">
<title>Node27</title>
<g id="a_Node000027"><a xlink:title=" ">
<polygon fill="#e0e0e0" stroke="#999999" points="1440.5,-200.5 1387.5,-200.5 1387.5,-181.5 1440.5,-181.5 1440.5,-200.5"/>
<text text-anchor="middle" x="1414" y="-188.5" font-family="Helvetica,sans-Serif" font-size="10.00">iterator</text>
</a>
</g>
</g>
<!-- Node26&#45;&gt;Node27 -->
<g id="edge32_Node000026_Node000027" class="edge">
<title>Node26&#45;&gt;Node27</title>
<g id="a_edge32_Node000026_Node000027"><a xlink:title=" ">
<path fill="none" stroke="#63b8ff" d="M1447.46,-241.8C1441.02,-232.21 1432.48,-219.5 1425.64,-209.32"/>
<polygon fill="#63b8ff" stroke="#63b8ff" points="1428.42,-207.19 1419.94,-200.84 1422.61,-211.1 1428.42,-207.19"/>
</a>
</g>
</g>
<!-- Node28&#45;&gt;Node7 -->
<g id="edge38_Node000028_Node000007" class="edge">
<title>Node28&#45;&gt;Node7</title>
<g id="a_edge38_Node000028_Node000007"><a xlink:title=" ">
<path fill="none" stroke="#63b8ff" d="M879.27,-247.37C846.68,-237.58 792.73,-221.37 751.6,-209.01"/>
<polygon fill="#63b8ff" stroke="#63b8ff" points="752.56,-205.64 741.98,-206.12 750.55,-212.35 752.56,-205.64"/>
</a>
</g>
</g>
<!-- Node28&#45;&gt;Node25 -->
<g id="edge36_Node000028_Node000025" class="edge">
<title>Node28&#45;&gt;Node25</title>
<g id="a_edge36_Node000028_Node000025"><a xlink:title=" ">
<path fill="none" stroke="#63b8ff" d="M919.87,-247.37C934.17,-236.97 958.43,-219.32 975.72,-206.75"/>
<polygon fill="#63b8ff" stroke="#63b8ff" points="978.01,-209.41 984.04,-200.7 973.89,-203.75 978.01,-209.41"/>
</a>
</g>
</g>
<!-- Node29 -->
<g id="Node000029" class="node">
<title>Node29</title>
<g id="a_Node000029"><a xlink:title=" ">
<polygon fill="#e0e0e0" stroke="#999999" points="940.5,-200.5 875.5,-200.5 875.5,-181.5 940.5,-181.5 940.5,-200.5"/>
<text text-anchor="middle" x="908" y="-188.5" font-family="Helvetica,sans-Serif" font-size="10.00">exception</text>
</a>
</g>
</g>
<!-- Node28&#45;&gt;Node29 -->
<g id="edge35_Node000028_Node000029" class="edge">
<title>Node28&#45;&gt;Node29</title>
<g id="a_edge35_Node000028_Node000029"><a xlink:title=" ">
<path fill="none" stroke="#63b8ff" d="M908,-247.37C908,-238.16 908,-223.29 908,-211.27"/>
<polygon fill="#63b8ff" stroke="#63b8ff" points="911.5,-210.91 908,-200.91 904.5,-210.91 911.5,-210.91"/>
</a>
</g>
</g>
<!-- Node30 -->
<g id="Node000030" class="node">
<title>Node30</title>
<g id="a_Node000030"><a xlink:title=" ">
<polygon fill="#e0e0e0" stroke="#999999" points="1254.5,-200.5 1189.5,-200.5 1189.5,-181.5 1254.5,-181.5 1254.5,-200.5"/>
<text text-anchor="middle" x="1222" y="-188.5" font-family="Helvetica,sans-Serif" font-size="10.00">stdexcept</text>
</a>
</g>
</g>
<!-- Node28&#45;&gt;Node30 -->
<g id="edge37_Node000028_Node000030" class="edge">
<title>Node28&#45;&gt;Node30</title>
<g id="a_edge37_Node000028_Node000030"><a xlink:title=" ">
<path fill="none" stroke="#63b8ff" d="M950.02,-247.44C1009.89,-235.23 1119.15,-212.96 1179.36,-200.69"/>
<polygon fill="#63b8ff" stroke="#63b8ff" points="1180.2,-204.09 1189.3,-198.67 1178.8,-197.23 1180.2,-204.09"/>
</a>
</g>
</g>
<!-- Node31&#45;&gt;Node3 -->
<g id="edge48_Node000031_Node000003" class="edge">
<title>Node31&#45;&gt;Node3</title>
<g id="a_edge48_Node000031_Node000003"><a xlink:title=" ">
<path fill="none" stroke="#63b8ff" d="M1385.13,-313.47C1466.67,-299.83 1617.56,-274.38 1623,-272 1643.03,-263.21 1643.06,-252.94 1662,-242 1689.16,-226.31 1722.2,-213.01 1746.88,-204.08"/>
<polygon fill="#63b8ff" stroke="#63b8ff" points="1748.32,-207.28 1756.57,-200.64 1745.98,-200.69 1748.32,-207.28"/>
</a>
</g>
</g>
<!-- Node31&#45;&gt;Node6 -->
<g id="edge47_Node000031_Node000006" class="edge">
<title>Node31&#45;&gt;Node6</title>
<g id="a_edge47_Node000031_Node000006"><a xlink:title=" ">
<path fill="none" stroke="#63b8ff" d="M1268.91,-317.72C1126.22,-308.17 794.66,-284.92 745,-272 743.31,-271.56 741.6,-271.04 739.89,-270.45"/>
<polygon fill="#63b8ff" stroke="#63b8ff" points="740.94,-267.1 730.35,-266.63 738.33,-273.6 740.94,-267.1"/>
</a>
</g>
</g>
<!-- Node31&#45;&gt;Node21 -->
<g id="edge40_Node000031_Node000021" class="edge">
<title>Node31&#45;&gt;Node21</title>
<g id="a_edge40_Node000031_Node000021"><a xlink:title=" ">
<path fill="none" stroke="#63b8ff" d="M1308.41,-313.46C1278.72,-303.54 1228.29,-286.65 1185,-272 1182.92,-271.29 1180.77,-270.57 1178.61,-269.83"/>
<polygon fill="#63b8ff" stroke="#63b8ff" points="1179.74,-266.52 1169.14,-266.61 1177.48,-273.15 1179.74,-266.52"/>
</a>
</g>
</g>
<!-- Node31&#45;&gt;Node22 -->
<g id="edge41_Node000031_Node000022" class="edge">
<title>Node31&#45;&gt;Node22</title>
<g id="a_edge41_Node000031_Node000022"><a xlink:title=" ">
<path fill="none" stroke="#63b8ff" d="M1282.9,-313.48C1235.67,-305.01 1163.82,-290.6 1103,-272 1101.12,-271.43 1099.2,-270.79 1097.28,-270.13"/>
<polygon fill="#63b8ff" stroke="#63b8ff" points="1098.38,-266.8 1087.78,-266.58 1095.93,-273.36 1098.38,-266.8"/>
</a>
</g>
</g>
<!-- Node31&#45;&gt;Node26 -->
<g id="edge50_Node000031_Node000026" class="edge">
<title>Node31&#45;&gt;Node26</title>
<g id="a_edge50_Node000031_Node000026"><a xlink:title=" ">
<path fill="none" stroke="#63b8ff" d="M1350.59,-313.37C1368.53,-304.03 1397.7,-288.86 1420.96,-276.75"/>
<polygon fill="#63b8ff" stroke="#63b8ff" points="1422.62,-279.84 1429.87,-272.12 1419.38,-273.63 1422.62,-279.84"/>
</a>
</g>
</g>
<!-- Node31&#45;&gt;Node27 -->
<g id="edge44_Node000031_Node000027" class="edge">
<title>Node31&#45;&gt;Node27</title>
<g id="a_edge44_Node000031_Node000027"><a xlink:title=" ">
<path fill="none" stroke="#63b8ff" d="M1339.25,-313.47C1352.18,-292.45 1385.8,-237.82 1403.21,-209.54"/>
<polygon fill="#63b8ff" stroke="#63b8ff" points="1406.37,-211.08 1408.63,-200.73 1400.4,-207.41 1406.37,-211.08"/>
</a>
</g>
</g>
<!-- Node31&#45;&gt;Node30 -->
<g id="edge46_Node000031_Node000030" class="edge">
<title>Node31&#45;&gt;Node30</title>
<g id="a_edge46_Node000031_Node000030"><a xlink:title=" ">
<path fill="none" stroke="#63b8ff" d="M1334.16,-313.33C1334.01,-297.51 1331.62,-263.62 1315,-242 1301.43,-224.34 1279.8,-212.19 1260.81,-204.28"/>
<polygon fill="#63b8ff" stroke="#63b8ff" points="1262.05,-201.01 1251.46,-200.64 1259.51,-207.53 1262.05,-201.01"/>
</a>
</g>
</g>
<!-- Node32 -->
<g id="Node000032" class="node">
<title>Node32</title>
<g id="a_Node000032"><a xlink:title=" ">
<polygon fill="#e0e0e0" stroke="#999999" points="1306,-266.5 1256,-266.5 1256,-247.5 1306,-247.5 1306,-266.5"/>
<text text-anchor="middle" x="1281" y="-254.5" font-family="Helvetica,sans-Serif" font-size="10.00">cstdint</text>
</a>
</g>
</g>
<!-- Node31&#45;&gt;Node32 -->
<g id="edge42_Node000031_Node000032" class="edge">
<title>Node31&#45;&gt;Node32</title>
<g id="a_edge42_Node000031_Node000032"><a xlink:title=" ">
<path fill="none" stroke="#63b8ff" d="M1326.85,-313.37C1318.68,-303.5 1305.11,-287.11 1294.84,-274.72"/>
<polygon fill="#63b8ff" stroke="#63b8ff" points="1297.45,-272.37 1288.37,-266.91 1292.06,-276.84 1297.45,-272.37"/>
</a>
</g>
</g>
<!-- Node33 -->
<g id="Node000033" class="node">
<title>Node33</title>
<g id="a_Node000033"><a xlink:title=" ">
<polygon fill="#e0e0e0" stroke="#999999" points="1614.5,-266.5 1531.5,-266.5 1531.5,-247.5 1614.5,-247.5 1614.5,-266.5"/>
<text text-anchor="middle" x="1573" y="-254.5" font-family="Helvetica,sans-Serif" font-size="10.00">initializer_list</text>
</a>
</g>
</g>
<!-- Node31&#45;&gt;Node33 -->
<g id="edge43_Node000031_Node000033" class="edge">
<title>Node31&#45;&gt;Node33</title>
<g id="a_edge43_Node000031_Node000033"><a xlink:title=" ">
<path fill="none" stroke="#63b8ff" d="M1366.29,-313.5C1403.76,-303.61 1467.39,-286.76 1522,-272 1525.34,-271.1 1528.79,-270.16 1532.27,-269.21"/>
<polygon fill="#63b8ff" stroke="#63b8ff" points="1533.27,-272.57 1542,-266.55 1531.43,-265.81 1533.27,-272.57"/>
</a>
</g>
</g>
<!-- Node34 -->
<g id="Node000034" class="node">
<title>Node34</title>
<g id="a_Node000034"><a xlink:title=" ">
<polygon fill="#e0e0e0" stroke="#999999" points="1238,-266.5 1194,-266.5 1194,-247.5 1238,-247.5 1238,-266.5"/>
<text text-anchor="middle" x="1216" y="-254.5" font-family="Helvetica,sans-Serif" font-size="10.00">limits</text>
</a>
</g>
</g>
<!-- Node31&#45;&gt;Node34 -->
<g id="edge45_Node000031_Node000034" class="edge">
<title>Node31&#45;&gt;Node34</title>
<g id="a_edge45_Node000031_Node000034"><a xlink:title=" ">
<path fill="none" stroke="#63b8ff" d="M1318.09,-313.37C1298.29,-302.63 1264.27,-284.18 1240.99,-271.55"/>
<polygon fill="#63b8ff" stroke="#63b8ff" points="1242.5,-268.39 1232.04,-266.7 1239.16,-274.54 1242.5,-268.39"/>
</a>
</g>
</g>
<!-- Node35 -->
<g id="Node000035" class="node">
<title>Node35</title>
<g id="a_Node000035"><a xlink:title=" ">
<polygon fill="#e0e0e0" stroke="#999999" points="1716.5,-266.5 1671.5,-266.5 1671.5,-247.5 1716.5,-247.5 1716.5,-266.5"/>
<text text-anchor="middle" x="1694" y="-254.5" font-family="Helvetica,sans-Serif" font-size="10.00">utility</text>
</a>
</g>
</g>
<!-- Node31&#45;&gt;Node35 -->
<g id="edge49_Node000031_Node000035" class="edge">
<title>Node31&#45;&gt;Node35</title>
<g id="a_edge49_Node000031_Node000035"><a xlink:title=" ">
<path fill="none" stroke="#63b8ff" d="M1385.22,-313.45C1396.35,-311.63 1408.07,-309.73 1419,-308 1524.67,-291.31 1553.5,-299.08 1657,-272 1659.3,-271.4 1661.65,-270.7 1664,-269.95"/>
<polygon fill="#63b8ff" stroke="#63b8ff" points="1665.22,-273.23 1673.51,-266.64 1662.91,-266.63 1665.22,-273.23"/>
</a>
</g>
</g>
<!-- Node36&#45;&gt;Node3 -->
<g id="edge52_Node000036_Node000003" class="edge">
<title>Node36&#45;&gt;Node3</title>
<g id="a_edge52_Node000036_Node000003"><a xlink:title=" ">
<path fill="none" stroke="#63b8ff" d="M1568.61,-313.46C1637.71,-302.9 1745,-284.75 1759,-272 1776.13,-256.39 1781.23,-229.09 1782.64,-210.78"/>
<polygon fill="#63b8ff" stroke="#63b8ff" points="1786.14,-210.88 1783.11,-200.73 1779.14,-210.55 1786.14,-210.88"/>
</a>
</g>
</g>
<!-- Node36&#45;&gt;Node7 -->
<g id="edge53_Node000036_Node000007" class="edge">
<title>Node36&#45;&gt;Node7</title>
<g id="a_edge53_Node000036_Node000007"><a xlink:title=" ">
<path fill="none" stroke="#63b8ff" d="M1561.71,-313.48C1622.28,-302.97 1715.73,-284.92 1726,-272 1734.3,-261.56 1735.23,-251.62 1726,-242 1692.9,-207.49 913.73,-208.95 866,-206 834.21,-204.03 799.15,-201.27 769.1,-198.71"/>
<polygon fill="#63b8ff" stroke="#63b8ff" points="769.37,-195.22 759.11,-197.86 768.77,-202.2 769.37,-195.22"/>
</a>
</g>
</g>
<!-- Node36&#45;&gt;Node26 -->
<g id="edge54_Node000036_Node000026" class="edge">
<title>Node36&#45;&gt;Node26</title>
<g id="a_edge54_Node000036_Node000026"><a xlink:title=" ">
<path fill="none" stroke="#63b8ff" d="M1502.85,-313.37C1495.85,-304.91 1484.88,-291.67 1475.43,-280.25"/>
<polygon fill="#63b8ff" stroke="#63b8ff" points="1477.97,-277.83 1468.89,-272.36 1472.57,-282.29 1477.97,-277.83"/>
</a>
</g>
</g>
<!-- Node37&#45;&gt;Node3 -->
<g id="edge56_Node000037_Node000003" class="edge">
<title>Node37&#45;&gt;Node3</title>
<g id="a_edge56_Node000037_Node000003"><a xlink:title=" ">
<path fill="none" stroke="#63b8ff" d="M1734.59,-313.42C1757.14,-306.36 1783.34,-293.82 1797,-272 1808.89,-253.02 1800.63,-226.8 1792.66,-209.62"/>
<polygon fill="#63b8ff" stroke="#63b8ff" points="1795.78,-208.03 1788.15,-200.68 1789.53,-211.19 1795.78,-208.03"/>
</a>
</g>
</g>
<!-- Node37&#45;&gt;Node35 -->
<g id="edge57_Node000037_Node000035" class="edge">
<title>Node37&#45;&gt;Node35</title>
<g id="a_edge57_Node000037_Node000035"><a xlink:title=" ">
<path fill="none" stroke="#63b8ff" d="M1694,-313.37C1694,-304.16 1694,-289.29 1694,-277.27"/>
<polygon fill="#63b8ff" stroke="#63b8ff" points="1697.5,-276.91 1694,-266.91 1690.5,-276.91 1697.5,-276.91"/>
</a>
</g>
</g>
</g>
</svg>
