<?xml version="1.0" encoding="UTF-8" standalone="no"?>
<!DOCTYPE svg PUBLIC "-//W3C//DTD SVG 1.1//EN"
 "http://www.w3.org/Graphics/SVG/1.1/DTD/svg11.dtd">
<!-- Generated by graphviz version 2.43.0 (0)
 -->
<!-- Title: /home/runner/work/open62541pp/open62541pp/include/open62541pp/TypeWrapper.h Pages: 1 -->
<svg width="2201pt" height="674pt"
 viewBox="0.00 0.00 2201.04 674.00" xmlns="http://www.w3.org/2000/svg" xmlns:xlink="http://www.w3.org/1999/xlink">
<g id="graph0" class="graph" transform="scale(1 1) rotate(0) translate(4 670)">
<title>/home/runner/work/open62541pp/open62541pp/include/open62541pp/TypeWrapper.h</title>
<!-- Node1 -->
<g id="node1" class="node">
<title>Node1</title>
<g id="a_node1"><a xlink:title=" ">
<polygon fill="#bfbfbf" stroke="black" points="495.79,-624.5 495.79,-665.5 688.79,-665.5 688.79,-624.5 495.79,-624.5"/>
<text text-anchor="start" x="503.79" y="-653.5" font-family="Helvetica,sans-Serif" font-size="10.00">/home/runner/work/open62541pp</text>
<text text-anchor="start" x="503.79" y="-642.5" font-family="Helvetica,sans-Serif" font-size="10.00">/open62541pp/include/open62541pp</text>
<text text-anchor="middle" x="592.29" y="-631.5" font-family="Helvetica,sans-Serif" font-size="10.00">/TypeWrapper.h</text>
</a>
</g>
</g>
<!-- Node2 -->
<g id="node2" class="node">
<title>Node2</title>
<g id="a_node2"><a xlink:href="open62541pp_8h.html" target="_top" xlink:title=" ">
<polygon fill="none" stroke="black" points="1016.79,-0.5 1016.79,-41.5 1209.79,-41.5 1209.79,-0.5 1016.79,-0.5"/>
<text text-anchor="start" x="1024.79" y="-29.5" font-family="Helvetica,sans-Serif" font-size="10.00">/home/runner/work/open62541pp</text>
<text text-anchor="start" x="1024.79" y="-18.5" font-family="Helvetica,sans-Serif" font-size="10.00">/open62541pp/include/open62541pp</text>
<text text-anchor="middle" x="1113.29" y="-7.5" font-family="Helvetica,sans-Serif" font-size="10.00">/open62541pp.h</text>
</a>
</g>
</g>
<!-- Node1&#45;&gt;Node2 -->
<g id="edge1" class="edge">
<title>Node1&#45;&gt;Node2</title>
<path fill="none" stroke="midnightblue" d="M698.97,-644.59C1049.01,-645.12 2140.29,-635.13 2140.29,-490 2140.29,-490 2140.29,-490 2140.29,-176 2140.29,-119.27 2354.3,-176.58 1918.29,-78 1786,-48.09 1393.31,-31.39 1209.81,-25.03"/>
<polygon fill="midnightblue" stroke="midnightblue" points="698.83,-641.09 688.83,-644.57 698.82,-648.09 698.83,-641.09"/>
</g>
<!-- Node3 -->
<g id="node3" class="node">
<title>Node3</title>
<g id="a_node3"><a xlink:href="TypeConverter_8h.html" target="_top" xlink:title=" ">
<polygon fill="none" stroke="black" points="370.79,-468.5 370.79,-509.5 563.79,-509.5 563.79,-468.5 370.79,-468.5"/>
<text text-anchor="start" x="378.79" y="-497.5" font-family="Helvetica,sans-Serif" font-size="10.00">/home/runner/work/open62541pp</text>
<text text-anchor="start" x="378.79" y="-486.5" font-family="Helvetica,sans-Serif" font-size="10.00">/open62541pp/include/open62541pp</text>
<text text-anchor="middle" x="467.29" y="-475.5" font-family="Helvetica,sans-Serif" font-size="10.00">/TypeConverter.h</text>
</a>
</g>
</g>
<!-- Node1&#45;&gt;Node3 -->
<g id="edge2" class="edge">
<title>Node1&#45;&gt;Node3</title>
<path fill="none" stroke="midnightblue" d="M569.85,-616.36C544.95,-585.68 505.38,-536.94 483.38,-509.83"/>
<polygon fill="midnightblue" stroke="midnightblue" points="567.44,-618.94 576.46,-624.5 572.87,-614.53 567.44,-618.94"/>
</g>
<!-- Node6 -->
<g id="node6" class="node">
<title>Node6</title>
<g id="a_node6"><a xlink:href="Variant_8h.html" target="_top" xlink:title=" ">
<polygon fill="none" stroke="black" points="363.79,-390.5 363.79,-431.5 556.79,-431.5 556.79,-390.5 363.79,-390.5"/>
<text text-anchor="start" x="371.79" y="-419.5" font-family="Helvetica,sans-Serif" font-size="10.00">/home/runner/work/open62541pp</text>
<text text-anchor="start" x="371.79" y="-408.5" font-family="Helvetica,sans-Serif" font-size="10.00">/open62541pp/include/open62541pp</text>
<text text-anchor="middle" x="460.29" y="-397.5" font-family="Helvetica,sans-Serif" font-size="10.00">/types/Variant.h</text>
</a>
</g>
</g>
<!-- Node1&#45;&gt;Node6 -->
<g id="edge54" class="edge">
<title>Node1&#45;&gt;Node6</title>
<path fill="none" stroke="midnightblue" d="M597.19,-614.2C601.69,-576.6 603.69,-511.59 573.29,-468 561.95,-451.75 544.51,-439.99 526.69,-431.58"/>
<polygon fill="midnightblue" stroke="midnightblue" points="593.67,-614.11 595.81,-624.49 600.61,-615.04 593.67,-614.11"/>
</g>
<!-- Node10 -->
<g id="node10" class="node">
<title>Node10</title>
<g id="a_node10"><a xlink:href="DataValue_8h.html" target="_top" xlink:title=" ">
<polygon fill="none" stroke="black" points="23.79,-312.5 23.79,-353.5 216.79,-353.5 216.79,-312.5 23.79,-312.5"/>
<text text-anchor="start" x="31.79" y="-341.5" font-family="Helvetica,sans-Serif" font-size="10.00">/home/runner/work/open62541pp</text>
<text text-anchor="start" x="31.79" y="-330.5" font-family="Helvetica,sans-Serif" font-size="10.00">/open62541pp/include/open62541pp</text>
<text text-anchor="middle" x="120.29" y="-319.5" font-family="Helvetica,sans-Serif" font-size="10.00">/types/DataValue.h</text>
</a>
</g>
</g>
<!-- Node1&#45;&gt;Node10 -->
<g id="edge48" class="edge">
<title>Node1&#45;&gt;Node10</title>
<path fill="none" stroke="midnightblue" d="M485.27,-643.2C406.55,-639.12 298.51,-626.08 211.29,-588 160.59,-565.87 140.4,-558.77 114.29,-510 87.09,-459.19 103.2,-387.78 113.58,-353.66"/>
<polygon fill="midnightblue" stroke="midnightblue" points="485.54,-646.72 495.69,-643.7 485.87,-639.73 485.54,-646.72"/>
</g>
<!-- Node13 -->
<g id="node13" class="node">
<title>Node13</title>
<g id="a_node13"><a xlink:href="Builtin_8h.html" target="_top" xlink:title=" ">
<polygon fill="none" stroke="black" points="1704.79,-390.5 1704.79,-431.5 1897.79,-431.5 1897.79,-390.5 1704.79,-390.5"/>
<text text-anchor="start" x="1712.79" y="-419.5" font-family="Helvetica,sans-Serif" font-size="10.00">/home/runner/work/open62541pp</text>
<text text-anchor="start" x="1712.79" y="-408.5" font-family="Helvetica,sans-Serif" font-size="10.00">/open62541pp/include/open62541pp</text>
<text text-anchor="middle" x="1801.29" y="-397.5" font-family="Helvetica,sans-Serif" font-size="10.00">/types/Builtin.h</text>
</a>
</g>
</g>
<!-- Node1&#45;&gt;Node13 -->
<g id="edge22" class="edge">
<title>Node1&#45;&gt;Node13</title>
<path fill="none" stroke="midnightblue" d="M698.82,-623.66C754.4,-613.05 823.51,-599.84 885.29,-588 1184.09,-530.74 1537.66,-462.73 1704.69,-430.59"/>
<polygon fill="midnightblue" stroke="midnightblue" points="698.12,-620.23 688.96,-625.55 699.44,-627.11 698.12,-620.23"/>
</g>
<!-- Node16 -->
<g id="node16" class="node">
<title>Node16</title>
<g id="a_node16"><a xlink:href="NodeId_8h.html" target="_top" xlink:title=" ">
<polygon fill="none" stroke="black" points="953.79,-312.5 953.79,-353.5 1146.79,-353.5 1146.79,-312.5 953.79,-312.5"/>
<text text-anchor="start" x="961.79" y="-341.5" font-family="Helvetica,sans-Serif" font-size="10.00">/home/runner/work/open62541pp</text>
<text text-anchor="start" x="961.79" y="-330.5" font-family="Helvetica,sans-Serif" font-size="10.00">/open62541pp/include/open62541pp</text>
<text text-anchor="middle" x="1050.29" y="-319.5" font-family="Helvetica,sans-Serif" font-size="10.00">/types/NodeId.h</text>
</a>
</g>
</g>
<!-- Node1&#45;&gt;Node16 -->
<g id="edge53" class="edge">
<title>Node1&#45;&gt;Node16</title>
<path fill="none" stroke="midnightblue" d="M629.72,-618.66C718.78,-558.38 941.74,-407.47 1021.42,-353.54"/>
<polygon fill="midnightblue" stroke="midnightblue" points="627.6,-615.87 621.28,-624.37 631.53,-621.67 627.6,-615.87"/>
</g>
<!-- Node22 -->
<g id="node22" class="node">
<title>Node22</title>
<g id="a_node22"><a xlink:href="DateTime_8h.html" target="_top" xlink:title=" ">
<polygon fill="none" stroke="black" points="220.79,-546.5 220.79,-587.5 413.79,-587.5 413.79,-546.5 220.79,-546.5"/>
<text text-anchor="start" x="228.79" y="-575.5" font-family="Helvetica,sans-Serif" font-size="10.00">/home/runner/work/open62541pp</text>
<text text-anchor="start" x="228.79" y="-564.5" font-family="Helvetica,sans-Serif" font-size="10.00">/open62541pp/include/open62541pp</text>
<text text-anchor="middle" x="317.29" y="-553.5" font-family="Helvetica,sans-Serif" font-size="10.00">/types/DateTime.h</text>
</a>
</g>
</g>
<!-- Node1&#45;&gt;Node22 -->
<g id="edge49" class="edge">
<title>Node1&#45;&gt;Node22</title>
<path fill="none" stroke="midnightblue" d="M511.66,-621.72C472.42,-610.87 425.68,-597.96 387.87,-587.51"/>
<polygon fill="midnightblue" stroke="midnightblue" points="510.9,-625.14 521.47,-624.43 512.76,-618.39 510.9,-625.14"/>
</g>
<!-- Node3&#45;&gt;Node2 -->
<g id="edge6" class="edge">
<title>Node3&#45;&gt;Node2</title>
<path fill="none" stroke="midnightblue" d="M370.6,-464.14C355.03,-456.28 340.65,-445.84 330.29,-432 256.57,-333.51 283.13,-258.41 351.29,-156 386.32,-103.35 410.48,-98.55 470.29,-78 655.85,-14.25 714.87,-59.62 910.29,-42 945.03,-38.87 983.09,-35.18 1016.77,-31.84"/>
<polygon fill="midnightblue" stroke="midnightblue" points="369.34,-467.42 379.88,-468.48 372.3,-461.07 369.34,-467.42"/>
</g>
<!-- Node4 -->
<g id="node4" class="node">
<title>Node4</title>
<g id="a_node4"><a xlink:href="Node_8h.html" target="_top" xlink:title=" ">
<polygon fill="none" stroke="black" points="714.29,-78.5 714.29,-119.5 910.29,-119.5 910.29,-78.5 714.29,-78.5"/>
<text text-anchor="start" x="722.29" y="-107.5" font-family="Helvetica,sans-Serif" font-size="10.00">/home/runner/work/open62541pp</text>
<text text-anchor="start" x="722.29" y="-96.5" font-family="Helvetica,sans-Serif" font-size="10.00">/open62541pp/include/open62541pp/</text>
<text text-anchor="middle" x="812.29" y="-85.5" font-family="Helvetica,sans-Serif" font-size="10.00">Node.h</text>
</a>
</g>
</g>
<!-- Node3&#45;&gt;Node4 -->
<g id="edge3" class="edge">
<title>Node3&#45;&gt;Node4</title>
<path fill="none" stroke="midnightblue" d="M389.06,-463.62C375.24,-455.74 362.62,-445.43 354.29,-432 284.66,-319.79 351.69,-224.98 464.29,-156 505.12,-130.99 626.08,-115.63 713.94,-107.47"/>
<polygon fill="midnightblue" stroke="midnightblue" points="387.81,-466.91 398.29,-468.45 391.06,-460.71 387.81,-466.91"/>
</g>
<!-- Node3&#45;&gt;Node6 -->
<g id="edge7" class="edge">
<title>Node3&#45;&gt;Node6</title>
<path fill="none" stroke="midnightblue" d="M464.55,-458.3C463.72,-449.3 462.83,-439.65 462.08,-431.51"/>
<polygon fill="midnightblue" stroke="midnightblue" points="461.08,-458.79 465.48,-468.43 468.05,-458.15 461.08,-458.79"/>
</g>
<!-- Node4&#45;&gt;Node2 -->
<g id="edge4" class="edge">
<title>Node4&#45;&gt;Node2</title>
<path fill="none" stroke="midnightblue" d="M899.72,-75.92C942.83,-65.04 994.38,-52.02 1036.03,-41.51"/>
<polygon fill="midnightblue" stroke="midnightblue" points="898.64,-72.59 889.8,-78.43 900.35,-79.37 898.64,-72.59"/>
</g>
<!-- Node5 -->
<g id="node5" class="node">
<title>Node5</title>
<g id="a_node5"><a xlink:href="Server_8cpp.html" target="_top" xlink:title=" ">
<polygon fill="none" stroke="black" points="723.29,-6 723.29,-36 901.29,-36 901.29,-6 723.29,-6"/>
<text text-anchor="start" x="731.29" y="-24" font-family="Helvetica,sans-Serif" font-size="10.00">/home/runner/work/open62541pp</text>
<text text-anchor="middle" x="812.29" y="-13" font-family="Helvetica,sans-Serif" font-size="10.00">/open62541pp/src/Server.cpp</text>
</a>
</g>
</g>
<!-- Node4&#45;&gt;Node5 -->
<g id="edge5" class="edge">
<title>Node4&#45;&gt;Node5</title>
<path fill="none" stroke="midnightblue" d="M812.29,-68.28C812.29,-57.25 812.29,-45.25 812.29,-36.23"/>
<polygon fill="midnightblue" stroke="midnightblue" points="808.79,-68.43 812.29,-78.43 815.79,-68.43 808.79,-68.43"/>
</g>
<!-- Node6&#45;&gt;Node2 -->
<g id="edge9" class="edge">
<title>Node6&#45;&gt;Node2</title>
<path fill="none" stroke="midnightblue" d="M431.04,-383.31C403.12,-354.78 365.29,-306.75 365.29,-256 365.29,-256 365.29,-256 365.29,-176 365.29,-110.25 814.44,-53.93 1016.65,-31.9"/>
<polygon fill="midnightblue" stroke="midnightblue" points="428.69,-385.91 438.25,-390.48 433.63,-380.95 428.69,-385.91"/>
</g>
<!-- Node6&#45;&gt;Node4 -->
<g id="edge8" class="edge">
<title>Node6&#45;&gt;Node4</title>
<path fill="none" stroke="midnightblue" d="M442.3,-381.55C421.65,-344.9 394.03,-280.4 422.29,-234 453.29,-183.09 608.94,-141.72 713.98,-119.02"/>
<polygon fill="midnightblue" stroke="midnightblue" points="439.3,-383.36 447.36,-390.24 445.35,-379.84 439.3,-383.36"/>
</g>
<!-- Node6&#45;&gt;Node5 -->
<g id="edge20" class="edge">
<title>Node6&#45;&gt;Node5</title>
<path fill="none" stroke="midnightblue" d="M393.3,-385.95C377.81,-377.79 362.58,-367.27 351.29,-354 268.82,-257.11 190.11,-172.52 275.29,-78 304.66,-45.4 578.37,-30.53 723.26,-24.89"/>
<polygon fill="midnightblue" stroke="midnightblue" points="391.91,-389.16 402.42,-390.48 395.02,-382.89 391.91,-389.16"/>
</g>
<!-- Node7 -->
<g id="node7" class="node">
<title>Node7</title>
<g id="a_node7"><a xlink:href="Attribute_8h.html" target="_top" xlink:title=" ">
<polygon fill="none" stroke="black" points="431.79,-234.5 431.79,-275.5 624.79,-275.5 624.79,-234.5 431.79,-234.5"/>
<text text-anchor="start" x="439.79" y="-263.5" font-family="Helvetica,sans-Serif" font-size="10.00">/home/runner/work/open62541pp</text>
<text text-anchor="start" x="439.79" y="-252.5" font-family="Helvetica,sans-Serif" font-size="10.00">/open62541pp/include/open62541pp</text>
<text text-anchor="middle" x="528.29" y="-241.5" font-family="Helvetica,sans-Serif" font-size="10.00">/services/Attribute.h</text>
</a>
</g>
</g>
<!-- Node6&#45;&gt;Node7 -->
<g id="edge10" class="edge">
<title>Node6&#45;&gt;Node7</title>
<path fill="none" stroke="midnightblue" d="M473.02,-381.17C486.59,-350.43 507.71,-302.59 519.53,-275.83"/>
<polygon fill="midnightblue" stroke="midnightblue" points="469.74,-379.93 468.9,-390.5 476.14,-382.76 469.74,-379.93"/>
</g>
<!-- Node6&#45;&gt;Node10 -->
<g id="edge16" class="edge">
<title>Node6&#45;&gt;Node10</title>
<path fill="none" stroke="midnightblue" d="M362.76,-388.2C313.81,-377.26 254.99,-364.11 207.55,-353.51"/>
<polygon fill="midnightblue" stroke="midnightblue" points="362.21,-391.66 372.73,-390.43 363.73,-384.83 362.21,-391.66"/>
</g>
<!-- Node12 -->
<g id="node12" class="node">
<title>Node12</title>
<g id="a_node12"><a xlink:href="Variant_8cpp.html" target="_top" xlink:title=" ">
<polygon fill="none" stroke="black" points="642.79,-240 642.79,-270 833.79,-270 833.79,-240 642.79,-240"/>
<text text-anchor="start" x="650.79" y="-258" font-family="Helvetica,sans-Serif" font-size="10.00">/home/runner/work/open62541pp</text>
<text text-anchor="middle" x="738.29" y="-247" font-family="Helvetica,sans-Serif" font-size="10.00">/open62541pp/src/types/Variant.cpp</text>
</a>
</g>
</g>
<!-- Node6&#45;&gt;Node12 -->
<g id="edge21" class="edge">
<title>Node6&#45;&gt;Node12</title>
<path fill="none" stroke="midnightblue" d="M504.55,-385.48C563.41,-352.87 665.48,-296.33 712.82,-270.11"/>
<polygon fill="midnightblue" stroke="midnightblue" points="502.55,-382.59 495.5,-390.5 505.94,-388.71 502.55,-382.59"/>
</g>
<!-- Node7&#45;&gt;Node5 -->
<g id="edge14" class="edge">
<title>Node7&#45;&gt;Node5</title>
<path fill="none" stroke="midnightblue" d="M536.55,-224.66C543.62,-203.66 555.51,-175.72 573.29,-156 628.24,-95.06 717.65,-55.4 770.13,-36.02"/>
<polygon fill="midnightblue" stroke="midnightblue" points="533.16,-223.76 533.46,-234.35 539.83,-225.89 533.16,-223.76"/>
</g>
<!-- Node8 -->
<g id="node8" class="node">
<title>Node8</title>
<g id="a_node8"><a xlink:href="services_8h.html" target="_top" xlink:title=" ">
<polygon fill="none" stroke="black" points="1349.79,-156.5 1349.79,-197.5 1542.79,-197.5 1542.79,-156.5 1349.79,-156.5"/>
<text text-anchor="start" x="1357.79" y="-185.5" font-family="Helvetica,sans-Serif" font-size="10.00">/home/runner/work/open62541pp</text>
<text text-anchor="start" x="1357.79" y="-174.5" font-family="Helvetica,sans-Serif" font-size="10.00">/open62541pp/include/open62541pp</text>
<text text-anchor="middle" x="1446.29" y="-163.5" font-family="Helvetica,sans-Serif" font-size="10.00">/services/services.h</text>
</a>
</g>
</g>
<!-- Node7&#45;&gt;Node8 -->
<g id="edge11" class="edge">
<title>Node7&#45;&gt;Node8</title>
<path fill="none" stroke="midnightblue" d="M634.98,-234C882.11,-203.28 947.11,-215.47 1191.29,-198 1243.66,-194.25 1302.06,-189.7 1349.74,-185.89"/>
<polygon fill="midnightblue" stroke="midnightblue" points="634.46,-230.54 624.97,-235.25 635.33,-237.48 634.46,-230.54"/>
</g>
<!-- Node9 -->
<g id="node9" class="node">
<title>Node9</title>
<g id="a_node9"><a xlink:href="Attribute_8cpp.html" target="_top" xlink:title=" ">
<polygon fill="none" stroke="black" points="582.29,-156.5 582.29,-197.5 760.29,-197.5 760.29,-156.5 582.29,-156.5"/>
<text text-anchor="start" x="590.29" y="-185.5" font-family="Helvetica,sans-Serif" font-size="10.00">/home/runner/work/open62541pp</text>
<text text-anchor="start" x="590.29" y="-174.5" font-family="Helvetica,sans-Serif" font-size="10.00">/open62541pp/src/services</text>
<text text-anchor="middle" x="671.29" y="-163.5" font-family="Helvetica,sans-Serif" font-size="10.00">/Attribute.cpp</text>
</a>
</g>
</g>
<!-- Node7&#45;&gt;Node9 -->
<g id="edge15" class="edge">
<title>Node7&#45;&gt;Node9</title>
<path fill="none" stroke="midnightblue" d="M574.15,-229.63C593.69,-219.24 616.17,-207.29 634.59,-197.51"/>
<polygon fill="midnightblue" stroke="midnightblue" points="572.3,-226.64 565.11,-234.43 575.59,-232.83 572.3,-226.64"/>
</g>
<!-- Node8&#45;&gt;Node2 -->
<g id="edge13" class="edge">
<title>Node8&#45;&gt;Node2</title>
<path fill="none" stroke="midnightblue" d="M1394.77,-152.17C1329.05,-121.78 1216.63,-69.79 1155.64,-41.59"/>
<polygon fill="midnightblue" stroke="midnightblue" points="1393.57,-155.47 1404.11,-156.5 1396.5,-149.12 1393.57,-155.47"/>
</g>
<!-- Node8&#45;&gt;Node4 -->
<g id="edge12" class="edge">
<title>Node8&#45;&gt;Node4</title>
<path fill="none" stroke="midnightblue" d="M1339.72,-163.23C1219.83,-148.85 1026.72,-125.71 910.41,-111.76"/>
<polygon fill="midnightblue" stroke="midnightblue" points="1339.31,-166.7 1349.65,-164.42 1340.14,-159.75 1339.31,-166.7"/>
</g>
<!-- Node10&#45;&gt;Node4 -->
<g id="edge17" class="edge">
<title>Node10&#45;&gt;Node4</title>
<path fill="none" stroke="midnightblue" d="M42.97,-307.63C29.18,-299.74 16.58,-289.43 8.29,-276 -1.53,-260.12 -3.64,-248.36 8.29,-234 96.75,-127.55 519.5,-105.54 713.98,-101.08"/>
<polygon fill="midnightblue" stroke="midnightblue" points="41.7,-310.91 52.18,-312.47 44.96,-304.72 41.7,-310.91"/>
</g>
<!-- Node10&#45;&gt;Node7 -->
<g id="edge18" class="edge">
<title>Node10&#45;&gt;Node7</title>
<path fill="none" stroke="midnightblue" d="M227,-312.12C290.36,-300.32 370.07,-285.47 431.58,-274.01"/>
<polygon fill="midnightblue" stroke="midnightblue" points="226.17,-308.72 216.98,-313.99 227.45,-315.6 226.17,-308.72"/>
</g>
<!-- Node11 -->
<g id="node11" class="node">
<title>Node11</title>
<g id="a_node11"><a xlink:href="DataValue_8cpp.html" target="_top" xlink:title=" ">
<polygon fill="none" stroke="black" points="17.29,-240 17.29,-270 223.29,-270 223.29,-240 17.29,-240"/>
<text text-anchor="start" x="25.29" y="-258" font-family="Helvetica,sans-Serif" font-size="10.00">/home/runner/work/open62541pp</text>
<text text-anchor="middle" x="120.29" y="-247" font-family="Helvetica,sans-Serif" font-size="10.00">/open62541pp/src/types/DataValue.cpp</text>
</a>
</g>
</g>
<!-- Node10&#45;&gt;Node11 -->
<g id="edge19" class="edge">
<title>Node10&#45;&gt;Node11</title>
<path fill="none" stroke="midnightblue" d="M120.29,-302.28C120.29,-291.25 120.29,-279.25 120.29,-270.23"/>
<polygon fill="midnightblue" stroke="midnightblue" points="116.79,-302.43 120.29,-312.43 123.79,-302.43 116.79,-302.43"/>
</g>
<!-- Node13&#45;&gt;Node2 -->
<g id="edge24" class="edge">
<title>Node13&#45;&gt;Node2</title>
<path fill="none" stroke="midnightblue" d="M1908.26,-397.65C1970.24,-388.53 2040.59,-374.18 2064.29,-354 2099.85,-323.71 2102.29,-302.72 2102.29,-256 2102.29,-256 2102.29,-256 2102.29,-176 2102.29,-86.29 1458.77,-41.1 1209.92,-26.98"/>
<polygon fill="midnightblue" stroke="midnightblue" points="1907.39,-394.23 1897.99,-399.12 1908.39,-401.16 1907.39,-394.23"/>
</g>
<!-- Node13&#45;&gt;Node4 -->
<g id="edge23" class="edge">
<title>Node13&#45;&gt;Node4</title>
<path fill="none" stroke="midnightblue" d="M1799.96,-380.11C1796.6,-319.43 1785.5,-185.12 1752.29,-156 1690.1,-101.47 1138.79,-98.16 910.56,-99.16"/>
<polygon fill="midnightblue" stroke="midnightblue" points="1796.47,-380.39 1800.49,-390.2 1803.46,-380.03 1796.47,-380.39"/>
</g>
<!-- Node13&#45;&gt;Node5 -->
<g id="edge46" class="edge">
<title>Node13&#45;&gt;Node5</title>
<path fill="none" stroke="midnightblue" d="M1807.19,-380.04C1812.77,-349.11 1820.29,-299.38 1820.29,-256 1820.29,-256 1820.29,-256 1820.29,-176 1820.29,-129.72 1147.63,-56.29 901.3,-30.94"/>
<polygon fill="midnightblue" stroke="midnightblue" points="1803.7,-379.69 1805.32,-390.16 1810.58,-380.97 1803.7,-379.69"/>
</g>
<!-- Node13&#45;&gt;Node7 -->
<g id="edge25" class="edge">
<title>Node13&#45;&gt;Node7</title>
<path fill="none" stroke="midnightblue" d="M1694.78,-408.68C1532.28,-405.4 1213.1,-393.95 945.29,-354 820.43,-335.38 677.81,-298.36 595.88,-275.53"/>
<polygon fill="midnightblue" stroke="midnightblue" points="1694.71,-412.18 1704.77,-408.88 1694.84,-405.18 1694.71,-412.18"/>
</g>
<!-- Node14 -->
<g id="node14" class="node">
<title>Node14</title>
<g id="a_node14"><a xlink:href="Browse_8h.html" target="_top" xlink:title=" ">
<polygon fill="none" stroke="black" points="1560.79,-234.5 1560.79,-275.5 1753.79,-275.5 1753.79,-234.5 1560.79,-234.5"/>
<text text-anchor="start" x="1568.79" y="-263.5" font-family="Helvetica,sans-Serif" font-size="10.00">/home/runner/work/open62541pp</text>
<text text-anchor="start" x="1568.79" y="-252.5" font-family="Helvetica,sans-Serif" font-size="10.00">/open62541pp/include/open62541pp</text>
<text text-anchor="middle" x="1657.29" y="-241.5" font-family="Helvetica,sans-Serif" font-size="10.00">/services/Browse.h</text>
</a>
</g>
</g>
<!-- Node13&#45;&gt;Node14 -->
<g id="edge26" class="edge">
<title>Node13&#45;&gt;Node14</title>
<path fill="none" stroke="midnightblue" d="M1907.9,-401.12C1993.17,-389.94 2091.43,-365.28 2045.29,-312 2008.36,-269.36 1856.6,-258.46 1754.18,-256.08"/>
<polygon fill="midnightblue" stroke="midnightblue" points="1907.33,-397.66 1897.85,-402.38 1908.2,-404.61 1907.33,-397.66"/>
</g>
<!-- Node13&#45;&gt;Node16 -->
<g id="edge29" class="edge">
<title>Node13&#45;&gt;Node16</title>
<path fill="none" stroke="midnightblue" d="M1694.31,-399.17C1547.97,-384.36 1287.54,-358.01 1146.85,-343.77"/>
<polygon fill="midnightblue" stroke="midnightblue" points="1694.34,-402.7 1704.64,-400.22 1695.05,-395.73 1694.34,-402.7"/>
</g>
<!-- Node21 -->
<g id="node21" class="node">
<title>Node21</title>
<g id="a_node21"><a xlink:href="Builtin_8cpp.html" target="_top" xlink:title=" ">
<polygon fill="none" stroke="black" points="1848.29,-318 1848.29,-348 2036.29,-348 2036.29,-318 1848.29,-318"/>
<text text-anchor="start" x="1856.29" y="-336" font-family="Helvetica,sans-Serif" font-size="10.00">/home/runner/work/open62541pp</text>
<text text-anchor="middle" x="1942.29" y="-325" font-family="Helvetica,sans-Serif" font-size="10.00">/open62541pp/src/types/Builtin.cpp</text>
</a>
</g>
</g>
<!-- Node13&#45;&gt;Node21 -->
<g id="edge47" class="edge">
<title>Node13&#45;&gt;Node21</title>
<path fill="none" stroke="midnightblue" d="M1846.47,-385.64C1869.38,-373.3 1896.4,-358.73 1915.89,-348.23"/>
<polygon fill="midnightblue" stroke="midnightblue" points="1844.74,-382.6 1837.6,-390.43 1848.06,-388.76 1844.74,-382.6"/>
</g>
<!-- Node14&#45;&gt;Node8 -->
<g id="edge27" class="edge">
<title>Node14&#45;&gt;Node8</title>
<path fill="none" stroke="midnightblue" d="M1593.5,-231.03C1563.8,-220.33 1528.84,-207.73 1500.44,-197.51"/>
<polygon fill="midnightblue" stroke="midnightblue" points="1592.35,-234.33 1602.95,-234.43 1594.73,-227.75 1592.35,-234.33"/>
</g>
<!-- Node15 -->
<g id="node15" class="node">
<title>Node15</title>
<g id="a_node15"><a xlink:href="Browse_8cpp.html" target="_top" xlink:title=" ">
<polygon fill="none" stroke="black" points="1565.29,-156.5 1565.29,-197.5 1743.29,-197.5 1743.29,-156.5 1565.29,-156.5"/>
<text text-anchor="start" x="1573.29" y="-185.5" font-family="Helvetica,sans-Serif" font-size="10.00">/home/runner/work/open62541pp</text>
<text text-anchor="start" x="1573.29" y="-174.5" font-family="Helvetica,sans-Serif" font-size="10.00">/open62541pp/src/services</text>
<text text-anchor="middle" x="1654.29" y="-163.5" font-family="Helvetica,sans-Serif" font-size="10.00">/Browse.cpp</text>
</a>
</g>
</g>
<!-- Node14&#45;&gt;Node15 -->
<g id="edge28" class="edge">
<title>Node14&#45;&gt;Node15</title>
<path fill="none" stroke="midnightblue" d="M1656.11,-224.3C1655.76,-215.3 1655.38,-205.65 1655.06,-197.51"/>
<polygon fill="midnightblue" stroke="midnightblue" points="1652.62,-224.57 1656.51,-234.43 1659.62,-224.3 1652.62,-224.57"/>
</g>
<!-- Node16&#45;&gt;Node2 -->
<g id="edge31" class="edge">
<title>Node16&#45;&gt;Node2</title>
<path fill="none" stroke="midnightblue" d="M1071.92,-304.15C1091.48,-279.36 1119.15,-245.32 1132.29,-234 1155.56,-213.95 1176.25,-224.79 1191.29,-198 1221.88,-143.5 1166.16,-74.71 1133.9,-41.59"/>
<polygon fill="midnightblue" stroke="midnightblue" points="1069.06,-302.13 1065.63,-312.15 1074.56,-306.45 1069.06,-302.13"/>
</g>
<!-- Node16&#45;&gt;Node4 -->
<g id="edge30" class="edge">
<title>Node16&#45;&gt;Node4</title>
<path fill="none" stroke="midnightblue" d="M943.98,-312C921.55,-303.8 899.49,-292.26 882.29,-276 836.51,-232.75 820.05,-155.72 814.66,-119.65"/>
<polygon fill="midnightblue" stroke="midnightblue" points="943.01,-315.36 953.6,-315.31 945.28,-308.74 943.01,-315.36"/>
</g>
<!-- Node16&#45;&gt;Node7 -->
<g id="edge39" class="edge">
<title>Node16&#45;&gt;Node7</title>
<path fill="none" stroke="midnightblue" d="M943.33,-319.17C859.17,-308.7 739.02,-292.92 634.29,-276 631.24,-275.51 628.14,-274.99 625.01,-274.47"/>
<polygon fill="midnightblue" stroke="midnightblue" points="943.05,-322.67 953.41,-320.43 943.91,-315.72 943.05,-322.67"/>
</g>
<!-- Node16&#45;&gt;Node12 -->
<g id="edge45" class="edge">
<title>Node16&#45;&gt;Node12</title>
<path fill="none" stroke="midnightblue" d="M959.9,-309.98C907.13,-297.13 842.12,-281.29 796.2,-270.11"/>
<polygon fill="midnightblue" stroke="midnightblue" points="959.39,-313.46 969.94,-312.43 961.05,-306.66 959.39,-313.46"/>
</g>
<!-- Node16&#45;&gt;Node14 -->
<g id="edge40" class="edge">
<title>Node16&#45;&gt;Node14</title>
<path fill="none" stroke="midnightblue" d="M1156.8,-322.52C1258.63,-312.89 1416.34,-296.5 1552.29,-276 1555.04,-275.58 1557.83,-275.15 1560.64,-274.7"/>
<polygon fill="midnightblue" stroke="midnightblue" points="1156.44,-319.04 1146.81,-323.46 1157.1,-326.01 1156.44,-319.04"/>
</g>
<!-- Node17 -->
<g id="node17" class="node">
<title>Node17</title>
<g id="a_node17"><a xlink:href="Server_8h.html" target="_top" xlink:title=" ">
<polygon fill="none" stroke="black" points="890.79,-234.5 890.79,-275.5 1083.79,-275.5 1083.79,-234.5 890.79,-234.5"/>
<text text-anchor="start" x="898.79" y="-263.5" font-family="Helvetica,sans-Serif" font-size="10.00">/home/runner/work/open62541pp</text>
<text text-anchor="start" x="898.79" y="-252.5" font-family="Helvetica,sans-Serif" font-size="10.00">/open62541pp/include/open62541pp</text>
<text text-anchor="middle" x="987.29" y="-241.5" font-family="Helvetica,sans-Serif" font-size="10.00">/Server.h</text>
</a>
</g>
</g>
<!-- Node16&#45;&gt;Node17 -->
<g id="edge32" class="edge">
<title>Node16&#45;&gt;Node17</title>
<path fill="none" stroke="midnightblue" d="M1027.6,-304.63C1019.61,-294.99 1010.8,-284.36 1003.46,-275.51"/>
<polygon fill="midnightblue" stroke="midnightblue" points="1024.99,-306.96 1034.06,-312.43 1030.37,-302.5 1024.99,-306.96"/>
</g>
<!-- Node19 -->
<g id="node19" class="node">
<title>Node19</title>
<g id="a_node19"><a xlink:href="NodeManagement_8h.html" target="_top" xlink:title=" ">
<polygon fill="none" stroke="black" points="1349.79,-234.5 1349.79,-275.5 1542.79,-275.5 1542.79,-234.5 1349.79,-234.5"/>
<text text-anchor="start" x="1357.79" y="-263.5" font-family="Helvetica,sans-Serif" font-size="10.00">/home/runner/work/open62541pp</text>
<text text-anchor="start" x="1357.79" y="-252.5" font-family="Helvetica,sans-Serif" font-size="10.00">/open62541pp/include/open62541pp</text>
<text text-anchor="middle" x="1446.29" y="-241.5" font-family="Helvetica,sans-Serif" font-size="10.00">/services/NodeManagement.h</text>
</a>
</g>
</g>
<!-- Node16&#45;&gt;Node19 -->
<g id="edge41" class="edge">
<title>Node16&#45;&gt;Node19</title>
<path fill="none" stroke="midnightblue" d="M1156.79,-311.56C1216.83,-300.04 1291.26,-285.75 1349.61,-274.55"/>
<polygon fill="midnightblue" stroke="midnightblue" points="1156.07,-308.13 1146.91,-313.46 1157.39,-315.01 1156.07,-308.13"/>
</g>
<!-- Node20 -->
<g id="node20" class="node">
<title>Node20</title>
<g id="a_node20"><a xlink:href="NodeId_8cpp.html" target="_top" xlink:title=" ">
<polygon fill="none" stroke="black" points="1140.79,-240 1140.79,-270 1331.79,-270 1331.79,-240 1140.79,-240"/>
<text text-anchor="start" x="1148.79" y="-258" font-family="Helvetica,sans-Serif" font-size="10.00">/home/runner/work/open62541pp</text>
<text text-anchor="middle" x="1236.29" y="-247" font-family="Helvetica,sans-Serif" font-size="10.00">/open62541pp/src/types/NodeId.cpp</text>
</a>
</g>
</g>
<!-- Node16&#45;&gt;Node20 -->
<g id="edge44" class="edge">
<title>Node16&#45;&gt;Node20</title>
<path fill="none" stroke="midnightblue" d="M1107.53,-308.61C1138.35,-296.02 1175.35,-280.9 1201.76,-270.11"/>
<polygon fill="midnightblue" stroke="midnightblue" points="1106.12,-305.41 1098.19,-312.43 1108.77,-311.89 1106.12,-305.41"/>
</g>
<!-- Node17&#45;&gt;Node2 -->
<g id="edge34" class="edge">
<title>Node17&#45;&gt;Node2</title>
<path fill="none" stroke="midnightblue" d="M984.94,-224.25C984.49,-204.2 986.12,-177.58 995.29,-156 1015.65,-108.07 1060.1,-65.34 1088.26,-41.62"/>
<polygon fill="midnightblue" stroke="midnightblue" points="981.45,-224.51 985.36,-234.36 988.44,-224.22 981.45,-224.51"/>
</g>
<!-- Node17&#45;&gt;Node4 -->
<g id="edge33" class="edge">
<title>Node17&#45;&gt;Node4</title>
<path fill="none" stroke="midnightblue" d="M957.7,-227.81C935.35,-208.05 903.92,-180.29 876.29,-156 862.54,-143.91 847.09,-130.4 834.82,-119.67"/>
<polygon fill="midnightblue" stroke="midnightblue" points="955.39,-230.44 965.2,-234.45 960.03,-225.2 955.39,-230.44"/>
</g>
<!-- Node17&#45;&gt;Node5 -->
<g id="edge35" class="edge">
<title>Node17&#45;&gt;Node5</title>
<path fill="none" stroke="midnightblue" d="M982.52,-224.57C975.04,-186.65 957.27,-120.55 919.29,-78 902.11,-58.76 876.74,-45.08 855.01,-36.06"/>
<polygon fill="midnightblue" stroke="midnightblue" points="979.1,-225.28 984.37,-234.47 985.98,-224 979.1,-225.28"/>
</g>
<!-- Node17&#45;&gt;Node9 -->
<g id="edge36" class="edge">
<title>Node17&#45;&gt;Node9</title>
<path fill="none" stroke="midnightblue" d="M896.07,-232.06C850.69,-221.15 796.3,-208.07 752.39,-197.51"/>
<polygon fill="midnightblue" stroke="midnightblue" points="895.37,-235.49 905.91,-234.43 897,-228.69 895.37,-235.49"/>
</g>
<!-- Node17&#45;&gt;Node15 -->
<g id="edge37" class="edge">
<title>Node17&#45;&gt;Node15</title>
<path fill="none" stroke="midnightblue" d="M1094.17,-238.62C1107,-236.96 1119.93,-235.38 1132.29,-234 1318.48,-213.19 1366.76,-224.06 1552.29,-198 1556.49,-197.41 1560.77,-196.76 1565.1,-196.07"/>
<polygon fill="midnightblue" stroke="midnightblue" points="1093.38,-235.2 1083.91,-239.97 1094.28,-242.14 1093.38,-235.2"/>
</g>
<!-- Node18 -->
<g id="node18" class="node">
<title>Node18</title>
<g id="a_node18"><a xlink:href="NodeManagement_8cpp.html" target="_top" xlink:title=" ">
<polygon fill="none" stroke="black" points="1004.29,-156.5 1004.29,-197.5 1182.29,-197.5 1182.29,-156.5 1004.29,-156.5"/>
<text text-anchor="start" x="1012.29" y="-185.5" font-family="Helvetica,sans-Serif" font-size="10.00">/home/runner/work/open62541pp</text>
<text text-anchor="start" x="1012.29" y="-174.5" font-family="Helvetica,sans-Serif" font-size="10.00">/open62541pp/src/services</text>
<text text-anchor="middle" x="1093.29" y="-163.5" font-family="Helvetica,sans-Serif" font-size="10.00">/NodeManagement.cpp</text>
</a>
</g>
</g>
<!-- Node17&#45;&gt;Node18 -->
<g id="edge38" class="edge">
<title>Node17&#45;&gt;Node18</title>
<path fill="none" stroke="midnightblue" d="M1023.06,-228.35C1037.12,-218.27 1052.99,-206.89 1066.08,-197.51"/>
<polygon fill="midnightblue" stroke="midnightblue" points="1020.67,-225.76 1014.58,-234.43 1024.75,-231.45 1020.67,-225.76"/>
</g>
<!-- Node19&#45;&gt;Node8 -->
<g id="edge42" class="edge">
<title>Node19&#45;&gt;Node8</title>
<path fill="none" stroke="midnightblue" d="M1446.29,-224.3C1446.29,-215.3 1446.29,-205.65 1446.29,-197.51"/>
<polygon fill="midnightblue" stroke="midnightblue" points="1442.79,-224.43 1446.29,-234.43 1449.79,-224.43 1442.79,-224.43"/>
</g>
<!-- Node19&#45;&gt;Node18 -->
<g id="edge43" class="edge">
<title>Node19&#45;&gt;Node18</title>
<path fill="none" stroke="midnightblue" d="M1345.57,-232.32C1294.11,-221.24 1232.05,-207.88 1182.36,-197.18"/>
<polygon fill="midnightblue" stroke="midnightblue" points="1344.87,-235.74 1355.38,-234.43 1346.34,-228.9 1344.87,-235.74"/>
</g>
<!-- Node22&#45;&gt;Node3 -->
<g id="edge50" class="edge">
<title>Node22&#45;&gt;Node3</title>
<path fill="none" stroke="midnightblue" d="M364.84,-541.91C385.46,-531.46 409.3,-519.38 428.79,-509.51"/>
<polygon fill="midnightblue" stroke="midnightblue" points="363.25,-538.79 355.92,-546.43 366.42,-545.03 363.25,-538.79"/>
</g>
<!-- Node22&#45;&gt;Node10 -->
<g id="edge51" class="edge">
<title>Node22&#45;&gt;Node10</title>
<path fill="none" stroke="midnightblue" d="M210.61,-553.58C183.61,-545.33 157.21,-531.87 139.29,-510 102.17,-464.73 109.77,-389.37 116.09,-353.78"/>
<polygon fill="midnightblue" stroke="midnightblue" points="210,-557.05 220.57,-556.39 211.9,-550.31 210,-557.05"/>
</g>
<!-- Node23 -->
<g id="node23" class="node">
<title>Node23</title>
<g id="a_node23"><a xlink:href="DateTime_8cpp.html" target="_top" xlink:title=" ">
<polygon fill="none" stroke="black" points="148.29,-474 148.29,-504 352.29,-504 352.29,-474 148.29,-474"/>
<text text-anchor="start" x="156.29" y="-492" font-family="Helvetica,sans-Serif" font-size="10.00">/home/runner/work/open62541pp</text>
<text text-anchor="middle" x="250.29" y="-481" font-family="Helvetica,sans-Serif" font-size="10.00">/open62541pp/src/types/DateTime.cpp</text>
</a>
</g>
</g>
<!-- Node22&#45;&gt;Node23 -->
<g id="edge52" class="edge">
<title>Node22&#45;&gt;Node23</title>
<path fill="none" stroke="midnightblue" d="M293.18,-538.65C282.91,-527 271.35,-513.9 262.83,-504.23"/>
<polygon fill="midnightblue" stroke="midnightblue" points="290.79,-541.24 300.03,-546.43 296.04,-536.61 290.79,-541.24"/>
</g>
</g>
</svg>
