<?xml version="1.0" encoding="UTF-8" standalone="no"?>
<!DOCTYPE svg PUBLIC "-//W3C//DTD SVG 1.1//EN"
 "http://www.w3.org/Graphics/SVG/1.1/DTD/svg11.dtd">
<!-- Generated by graphviz version 2.43.0 (0)
 -->
<!-- Title: /home/runner/work/open62541pp/open62541pp/include/open62541pp/TypeWrapper.h Pages: 1 -->
<svg width="2082pt" height="665pt"
 viewBox="0.00 0.00 2081.92 665.00" xmlns="http://www.w3.org/2000/svg" xmlns:xlink="http://www.w3.org/1999/xlink">
<g id="graph0" class="graph" transform="scale(1 1) rotate(0) translate(4 661)">
<title>/home/runner/work/open62541pp/open62541pp/include/open62541pp/TypeWrapper.h</title>
<!-- Node1 -->
<g id="Node000001" class="node">
<title>Node1</title>
<g id="a_Node000001"><a xlink:title=" ">
<polygon fill="#999999" stroke="#666666" points="844.92,-657 651.92,-657 651.92,-616 844.92,-616 844.92,-657"/>
<text text-anchor="start" x="659.92" y="-645" font-family="Helvetica,sans-Serif" font-size="10.00">/home/runner/work/open62541pp</text>
<text text-anchor="start" x="659.92" y="-634" font-family="Helvetica,sans-Serif" font-size="10.00">/open62541pp/include/open62541pp</text>
<text text-anchor="middle" x="748.42" y="-623" font-family="Helvetica,sans-Serif" font-size="10.00">/TypeWrapper.h</text>
</a>
</g>
</g>
<!-- Node2 -->
<g id="Node000002" class="node">
<title>Node2</title>
<g id="a_Node000002"><a xlink:href="TypeConverter_8h.html" target="_top" xlink:title=" ">
<polygon fill="white" stroke="#666666" points="550.92,-503 357.92,-503 357.92,-462 550.92,-462 550.92,-503"/>
<text text-anchor="start" x="365.92" y="-491" font-family="Helvetica,sans-Serif" font-size="10.00">/home/runner/work/open62541pp</text>
<text text-anchor="start" x="365.92" y="-480" font-family="Helvetica,sans-Serif" font-size="10.00">/open62541pp/include/open62541pp</text>
<text text-anchor="middle" x="454.42" y="-469" font-family="Helvetica,sans-Serif" font-size="10.00">/TypeConverter.h</text>
</a>
</g>
</g>
<!-- Node1&#45;&gt;Node2 -->
<g id="edge1_Node000001_Node000002" class="edge">
<title>Node1&#45;&gt;Node2</title>
<g id="a_edge1_Node000001_Node000002"><a xlink:title=" ">
<path fill="none" stroke="#63b8ff" d="M701.64,-611.32C643.73,-581.37 546.19,-530.94 492.57,-503.23"/>
<polygon fill="#63b8ff" stroke="#63b8ff" points="700.1,-614.46 710.59,-615.94 703.31,-608.24 700.1,-614.46"/>
</a>
</g>
</g>
<!-- Node4 -->
<g id="Node000004" class="node">
<title>Node4</title>
<g id="a_Node000004"><a xlink:href="open62541pp_8h.html" target="_top" xlink:title=" ">
<polygon fill="white" stroke="#666666" points="971.92,-41 778.92,-41 778.92,0 971.92,0 971.92,-41"/>
<text text-anchor="start" x="786.92" y="-29" font-family="Helvetica,sans-Serif" font-size="10.00">/home/runner/work/open62541pp</text>
<text text-anchor="start" x="786.92" y="-18" font-family="Helvetica,sans-Serif" font-size="10.00">/open62541pp/include/open62541pp</text>
<text text-anchor="middle" x="875.42" y="-7" font-family="Helvetica,sans-Serif" font-size="10.00">/open62541pp.h</text>
</a>
</g>
</g>
<!-- Node1&#45;&gt;Node4 -->
<g id="edge42_Node000001_Node000004" class="edge">
<title>Node1&#45;&gt;Node4</title>
<g id="a_edge42_Node000001_Node000004"><a xlink:title=" ">
<path fill="none" stroke="#63b8ff" d="M641.85,-634.36C451.27,-631.3 67.65,-620.18 22.42,-580 -10.26,-550.97 3.42,-527.21 3.42,-483.5 3.42,-483.5 3.42,-483.5 3.42,-173.5 3.42,-123.46 18.73,-103.11 61.42,-77 121.28,-40.4 576.04,-27.21 778.6,-23.11"/>
<polygon fill="#63b8ff" stroke="#63b8ff" points="641.84,-637.86 651.89,-634.51 641.95,-630.86 641.84,-637.86"/>
</a>
</g>
</g>
<!-- Node6 -->
<g id="Node000006" class="node">
<title>Node6</title>
<g id="a_Node000006"><a xlink:href="Composed_8h.html" target="_top" xlink:title=" ">
<polygon fill="white" stroke="#666666" points="1083.92,-272 890.92,-272 890.92,-231 1083.92,-231 1083.92,-272"/>
<text text-anchor="start" x="898.92" y="-260" font-family="Helvetica,sans-Serif" font-size="10.00">/home/runner/work/open62541pp</text>
<text text-anchor="start" x="898.92" y="-249" font-family="Helvetica,sans-Serif" font-size="10.00">/open62541pp/include/open62541pp</text>
<text text-anchor="middle" x="987.42" y="-238" font-family="Helvetica,sans-Serif" font-size="10.00">/types/Composed.h</text>
</a>
</g>
</g>
<!-- Node1&#45;&gt;Node6 -->
<g id="edge63_Node000001_Node000006" class="edge">
<title>Node1&#45;&gt;Node6</title>
<g id="a_edge63_Node000001_Node000006"><a xlink:title=" ">
<path fill="none" stroke="#63b8ff" d="M803.69,-611.09C850.28,-586.32 909.42,-543.14 909.42,-483.5 909.42,-483.5 909.42,-483.5 909.42,-404.5 909.42,-352.3 946.29,-300.03 969.33,-272.46"/>
<polygon fill="#63b8ff" stroke="#63b8ff" points="801.84,-608.1 794.56,-615.79 805.05,-614.32 801.84,-608.1"/>
</a>
</g>
</g>
<!-- Node11 -->
<g id="Node000011" class="node">
<title>Node11</title>
<g id="a_Node000011"><a xlink:href="ExtensionObject_8h.html" target="_top" xlink:title=" ">
<polygon fill="white" stroke="#666666" points="751.92,-426 558.92,-426 558.92,-385 751.92,-385 751.92,-426"/>
<text text-anchor="start" x="566.92" y="-414" font-family="Helvetica,sans-Serif" font-size="10.00">/home/runner/work/open62541pp</text>
<text text-anchor="start" x="566.92" y="-403" font-family="Helvetica,sans-Serif" font-size="10.00">/open62541pp/include/open62541pp</text>
<text text-anchor="middle" x="655.42" y="-392" font-family="Helvetica,sans-Serif" font-size="10.00">/types/ExtensionObject.h</text>
</a>
</g>
</g>
<!-- Node1&#45;&gt;Node11 -->
<g id="edge69_Node000001_Node000011" class="edge">
<title>Node1&#45;&gt;Node11</title>
<g id="a_edge69_Node000001_Node000011"><a xlink:title=" ">
<path fill="none" stroke="#63b8ff" d="M736.69,-606.62C717.51,-559.39 679.92,-466.83 663.46,-426.3"/>
<polygon fill="#63b8ff" stroke="#63b8ff" points="733.49,-608.03 740.49,-615.98 739.97,-605.39 733.49,-608.03"/>
</a>
</g>
</g>
<!-- Node16 -->
<g id="Node000016" class="node">
<title>Node16</title>
<g id="a_Node000016"><a xlink:href="Variant_8h.html" target="_top" xlink:title=" ">
<polygon fill="white" stroke="#666666" points="618.92,-349 425.92,-349 425.92,-308 618.92,-308 618.92,-349"/>
<text text-anchor="start" x="433.92" y="-337" font-family="Helvetica,sans-Serif" font-size="10.00">/home/runner/work/open62541pp</text>
<text text-anchor="start" x="433.92" y="-326" font-family="Helvetica,sans-Serif" font-size="10.00">/open62541pp/include/open62541pp</text>
<text text-anchor="middle" x="522.42" y="-315" font-family="Helvetica,sans-Serif" font-size="10.00">/types/Variant.h</text>
</a>
</g>
</g>
<!-- Node1&#45;&gt;Node16 -->
<g id="edge71_Node000001_Node000016" class="edge">
<title>Node1&#45;&gt;Node16</title>
<g id="a_edge71_Node000001_Node000016"><a xlink:title=" ">
<path fill="none" stroke="#63b8ff" d="M761.03,-606.55C781.01,-555.69 812.72,-449.57 761.42,-385 752.13,-373.31 681.29,-357.77 619.12,-346.11"/>
<polygon fill="#63b8ff" stroke="#63b8ff" points="757.73,-605.38 757.21,-615.96 764.21,-608 757.73,-605.38"/>
</a>
</g>
</g>
<!-- Node17 -->
<g id="Node000017" class="node">
<title>Node17</title>
<g id="a_Node000017"><a xlink:href="Attribute_8h.html" target="_top" xlink:title=" ">
<polygon fill="white" stroke="#666666" points="732.92,-195 539.92,-195 539.92,-154 732.92,-154 732.92,-195"/>
<text text-anchor="start" x="547.92" y="-183" font-family="Helvetica,sans-Serif" font-size="10.00">/home/runner/work/open62541pp</text>
<text text-anchor="start" x="547.92" y="-172" font-family="Helvetica,sans-Serif" font-size="10.00">/open62541pp/include/open62541pp</text>
<text text-anchor="middle" x="636.42" y="-161" font-family="Helvetica,sans-Serif" font-size="10.00">/services/Attribute.h</text>
</a>
</g>
</g>
<!-- Node1&#45;&gt;Node17 -->
<g id="edge43_Node000001_Node000017" class="edge">
<title>Node1&#45;&gt;Node17</title>
<g id="a_edge43_Node000001_Node000017"><a xlink:title=" ">
<path fill="none" stroke="#63b8ff" d="M772.78,-607.84C779.09,-599.4 785.27,-589.76 789.42,-580 810.05,-531.44 808.14,-514.45 802.42,-462 798.62,-427.16 806.73,-412.82 785.42,-385 764.39,-357.54 740.27,-374.05 716.42,-349 672.96,-303.36 649.94,-229.9 640.96,-195.05"/>
<polygon fill="#63b8ff" stroke="#63b8ff" points="769.92,-605.82 766.5,-615.85 775.43,-610.14 769.92,-605.82"/>
</a>
</g>
</g>
<!-- Node18 -->
<g id="Node000018" class="node">
<title>Node18</title>
<g id="a_Node000018"><a xlink:href="DataValue_8h.html" target="_top" xlink:title=" ">
<polygon fill="white" stroke="#666666" points="406.92,-272 213.92,-272 213.92,-231 406.92,-231 406.92,-272"/>
<text text-anchor="start" x="221.92" y="-260" font-family="Helvetica,sans-Serif" font-size="10.00">/home/runner/work/open62541pp</text>
<text text-anchor="start" x="221.92" y="-249" font-family="Helvetica,sans-Serif" font-size="10.00">/open62541pp/include/open62541pp</text>
<text text-anchor="middle" x="310.42" y="-238" font-family="Helvetica,sans-Serif" font-size="10.00">/types/DataValue.h</text>
</a>
</g>
</g>
<!-- Node1&#45;&gt;Node18 -->
<g id="edge64_Node000001_Node000018" class="edge">
<title>Node1&#45;&gt;Node18</title>
<g id="a_edge64_Node000001_Node000018"><a xlink:title=" ">
<path fill="none" stroke="#63b8ff" d="M641.64,-630.14C513.46,-617.08 305.53,-573.03 223.42,-426 192.86,-371.28 252.63,-304.49 287.61,-272.05"/>
<polygon fill="#63b8ff" stroke="#63b8ff" points="641.58,-633.65 651.87,-631.14 642.25,-626.69 641.58,-633.65"/>
</a>
</g>
</g>
<!-- Node19 -->
<g id="Node000019" class="node">
<title>Node19</title>
<g id="a_Node000019"><a xlink:href="Builtin_8h.html" target="_top" xlink:title=" ">
<polygon fill="white" stroke="#666666" points="1265.92,-426 1072.92,-426 1072.92,-385 1265.92,-385 1265.92,-426"/>
<text text-anchor="start" x="1080.92" y="-414" font-family="Helvetica,sans-Serif" font-size="10.00">/home/runner/work/open62541pp</text>
<text text-anchor="start" x="1080.92" y="-403" font-family="Helvetica,sans-Serif" font-size="10.00">/open62541pp/include/open62541pp</text>
<text text-anchor="middle" x="1169.42" y="-392" font-family="Helvetica,sans-Serif" font-size="10.00">/types/Builtin.h</text>
</a>
</g>
</g>
<!-- Node1&#45;&gt;Node19 -->
<g id="edge44_Node000001_Node000019" class="edge">
<title>Node1&#45;&gt;Node19</title>
<g id="a_edge44_Node000001_Node000019"><a xlink:title=" ">
<path fill="none" stroke="#63b8ff" d="M855.01,-623.22C898,-615.16 946.9,-601.86 987.42,-580 1061.18,-540.2 1126.68,-462.5 1154.81,-426.15"/>
<polygon fill="#63b8ff" stroke="#63b8ff" points="854.3,-619.79 845.08,-625.01 855.54,-626.68 854.3,-619.79"/>
</a>
</g>
</g>
<!-- Node21 -->
<g id="Node000021" class="node">
<title>Node21</title>
<g id="a_Node000021"><a xlink:href="NodeId_8h.html" target="_top" xlink:title=" ">
<polygon fill="white" stroke="#666666" points="1265.92,-349 1072.92,-349 1072.92,-308 1265.92,-308 1265.92,-349"/>
<text text-anchor="start" x="1080.92" y="-337" font-family="Helvetica,sans-Serif" font-size="10.00">/home/runner/work/open62541pp</text>
<text text-anchor="start" x="1080.92" y="-326" font-family="Helvetica,sans-Serif" font-size="10.00">/open62541pp/include/open62541pp</text>
<text text-anchor="middle" x="1169.42" y="-315" font-family="Helvetica,sans-Serif" font-size="10.00">/types/NodeId.h</text>
</a>
</g>
</g>
<!-- Node1&#45;&gt;Node21 -->
<g id="edge70_Node000001_Node000021" class="edge">
<title>Node1&#45;&gt;Node21</title>
<g id="a_edge70_Node000001_Node000021"><a xlink:title=" ">
<path fill="none" stroke="#63b8ff" d="M855.16,-613.51C879.02,-605.47 903.21,-594.61 923.42,-580 1010.09,-517.34 983.7,-455.16 1064.42,-385 1081.23,-370.39 1102.54,-358.23 1121.57,-349.05"/>
<polygon fill="#63b8ff" stroke="#63b8ff" points="853.77,-610.28 845.32,-616.68 855.91,-616.94 853.77,-610.28"/>
</a>
</g>
</g>
<!-- Node22 -->
<g id="Node000022" class="node">
<title>Node22</title>
<g id="a_Node000022"><a xlink:href="DateTime_8h.html" target="_top" xlink:title=" ">
<polygon fill="white" stroke="#666666" points="224.92,-580 31.92,-580 31.92,-539 224.92,-539 224.92,-580"/>
<text text-anchor="start" x="39.92" y="-568" font-family="Helvetica,sans-Serif" font-size="10.00">/home/runner/work/open62541pp</text>
<text text-anchor="start" x="39.92" y="-557" font-family="Helvetica,sans-Serif" font-size="10.00">/open62541pp/include/open62541pp</text>
<text text-anchor="middle" x="128.42" y="-546" font-family="Helvetica,sans-Serif" font-size="10.00">/types/DateTime.h</text>
</a>
</g>
</g>
<!-- Node1&#45;&gt;Node22 -->
<g id="edge65_Node000001_Node000022" class="edge">
<title>Node1&#45;&gt;Node22</title>
<g id="a_edge65_Node000001_Node000022"><a xlink:title=" ">
<path fill="none" stroke="#63b8ff" d="M641.44,-625.88C538.26,-616.13 377.82,-599.68 239.42,-580 234.67,-579.33 229.82,-578.6 224.92,-577.84"/>
<polygon fill="#63b8ff" stroke="#63b8ff" points="641.27,-629.38 651.55,-626.84 641.93,-622.41 641.27,-629.38"/>
</a>
</g>
</g>
<!-- Node3 -->
<g id="Node000003" class="node">
<title>Node3</title>
<g id="a_Node000003"><a xlink:href="Node_8h.html" target="_top" xlink:title=" ">
<polygon fill="white" stroke="#666666" points="847.42,-118 651.42,-118 651.42,-77 847.42,-77 847.42,-118"/>
<text text-anchor="start" x="659.42" y="-106" font-family="Helvetica,sans-Serif" font-size="10.00">/home/runner/work/open62541pp</text>
<text text-anchor="start" x="659.42" y="-95" font-family="Helvetica,sans-Serif" font-size="10.00">/open62541pp/include/open62541pp/</text>
<text text-anchor="middle" x="749.42" y="-84" font-family="Helvetica,sans-Serif" font-size="10.00">Node.h</text>
</a>
</g>
</g>
<!-- Node2&#45;&gt;Node3 -->
<g id="edge2_Node000002_Node000003" class="edge">
<title>Node2&#45;&gt;Node3</title>
<g id="a_edge2_Node000002_Node000003"><a xlink:title=" ">
<path fill="none" stroke="#63b8ff" d="M450.31,-451.83C447.14,-432.46 441.99,-406.82 434.42,-385 428.56,-368.1 420.53,-366.41 416.42,-349 412.23,-331.27 411.57,-325.57 416.42,-308 437.63,-231.14 443.97,-200.93 508.42,-154 549.55,-124.05 604.24,-109.94 651.13,-103.42"/>
<polygon fill="#63b8ff" stroke="#63b8ff" points="446.88,-452.53 451.88,-461.88 453.8,-451.46 446.88,-452.53"/>
</a>
</g>
</g>
<!-- Node2&#45;&gt;Node4 -->
<g id="edge7_Node000002_Node000004" class="edge">
<title>Node2&#45;&gt;Node4</title>
<g id="a_edge7_Node000002_Node000004"><a xlink:title=" ">
<path fill="none" stroke="#63b8ff" d="M348,-471.36C306.59,-463.61 260.32,-449.98 223.42,-426 141.95,-373.06 90.42,-349.66 90.42,-252.5 90.42,-252.5 90.42,-252.5 90.42,-173.5 90.42,-99.75 156.21,-102.49 225.42,-77 324.33,-40.57 623,-27.78 778.68,-23.51"/>
<polygon fill="#63b8ff" stroke="#63b8ff" points="347.41,-474.8 357.87,-473.11 348.63,-467.91 347.41,-474.8"/>
</a>
</g>
</g>
<!-- Node5 -->
<g id="Node000005" class="node">
<title>Node5</title>
<g id="a_Node000005"><a xlink:href="TypeConverterNative_8h.html" target="_top" xlink:title=" ">
<polygon fill="white" stroke="#666666" points="425.92,-426 232.92,-426 232.92,-385 425.92,-385 425.92,-426"/>
<text text-anchor="start" x="240.92" y="-414" font-family="Helvetica,sans-Serif" font-size="10.00">/home/runner/work/open62541pp</text>
<text text-anchor="start" x="240.92" y="-403" font-family="Helvetica,sans-Serif" font-size="10.00">/open62541pp/include/open62541pp</text>
<text text-anchor="middle" x="329.42" y="-392" font-family="Helvetica,sans-Serif" font-size="10.00">/TypeConverterNative.h</text>
</a>
</g>
</g>
<!-- Node2&#45;&gt;Node5 -->
<g id="edge4_Node000002_Node000005" class="edge">
<title>Node2&#45;&gt;Node5</title>
<g id="a_edge4_Node000002_Node000005"><a xlink:title=" ">
<path fill="none" stroke="#63b8ff" d="M407.07,-456.92C389.86,-446.95 371.04,-435.58 356.19,-426.17"/>
<polygon fill="#63b8ff" stroke="#63b8ff" points="405.48,-460.04 415.9,-461.99 408.97,-453.97 405.48,-460.04"/>
</a>
</g>
</g>
<!-- Node2&#45;&gt;Node6 -->
<g id="edge8_Node000002_Node000006" class="edge">
<title>Node2&#45;&gt;Node6</title>
<g id="a_edge8_Node000002_Node000006"><a xlink:title=" ">
<path fill="none" stroke="#63b8ff" d="M478.58,-454.08C501.1,-429.07 533.53,-394.6 549.42,-385 609.68,-348.59 796.47,-299.08 905.69,-272.06"/>
<polygon fill="#63b8ff" stroke="#63b8ff" points="475.71,-452.04 471.65,-461.83 480.92,-456.71 475.71,-452.04"/>
</a>
</g>
</g>
<!-- Node2&#45;&gt;Node11 -->
<g id="edge19_Node000002_Node000011" class="edge">
<title>Node2&#45;&gt;Node11</title>
<g id="a_edge19_Node000002_Node000011"><a xlink:title=" ">
<path fill="none" stroke="#63b8ff" d="M516.32,-458.4C544.09,-448.04 576.5,-435.95 603.05,-426.04"/>
<polygon fill="#63b8ff" stroke="#63b8ff" points="514.85,-455.22 506.71,-461.99 517.3,-461.77 514.85,-455.22"/>
</a>
</g>
</g>
<!-- Node2&#45;&gt;Node16 -->
<g id="edge31_Node000002_Node000016" class="edge">
<title>Node2&#45;&gt;Node16</title>
<g id="a_edge31_Node000002_Node000016"><a xlink:title=" ">
<path fill="none" stroke="#63b8ff" d="M467.28,-452.76C480.78,-422.57 501.68,-375.87 513.49,-349.47"/>
<polygon fill="#63b8ff" stroke="#63b8ff" points="464.06,-451.38 463.17,-461.94 470.45,-454.24 464.06,-451.38"/>
</a>
</g>
</g>
<!-- Node3&#45;&gt;Node4 -->
<g id="edge3_Node000003_Node000004" class="edge">
<title>Node3&#45;&gt;Node4</title>
<g id="a_edge3_Node000003_Node000004"><a xlink:title=" ">
<path fill="none" stroke="#63b8ff" d="M791.18,-71.64C807.82,-61.74 826.71,-50.5 842.37,-41.17"/>
<polygon fill="#63b8ff" stroke="#63b8ff" points="789,-68.87 782.2,-76.99 792.58,-74.88 789,-68.87"/>
</a>
</g>
</g>
<!-- Node5&#45;&gt;Node2 -->
<g id="edge5_Node000005_Node000002" class="edge">
<title>Node5&#45;&gt;Node2</title>
<g id="a_edge5_Node000005_Node000002"><a xlink:title=" ">
<path fill="none" stroke="#63b8ff" d="M377.07,-431.25C394.3,-441.24 413.1,-452.6 427.91,-461.99"/>
<polygon fill="#63b8ff" stroke="#63b8ff" points="378.64,-428.12 368.23,-426.17 375.15,-434.19 378.64,-428.12"/>
</a>
</g>
</g>
<!-- Node5&#45;&gt;Node4 -->
<g id="edge6_Node000005_Node000004" class="edge">
<title>Node5&#45;&gt;Node4</title>
<g id="a_edge6_Node000005_Node000004"><a xlink:title=" ">
<path fill="none" stroke="#63b8ff" d="M289.61,-378.99C257.13,-355.61 213.61,-317.73 194.42,-272 157.04,-182.93 203.72,-119.61 290.42,-77 373.91,-35.97 635.34,-25.23 778.81,-22.45"/>
<polygon fill="#63b8ff" stroke="#63b8ff" points="287.83,-382.02 298.02,-384.91 291.85,-376.3 287.83,-382.02"/>
</a>
</g>
</g>
<!-- Node6&#45;&gt;Node3 -->
<g id="edge11_Node000006_Node000003" class="edge">
<title>Node6&#45;&gt;Node3</title>
<g id="a_edge11_Node000006_Node000003"><a xlink:title=" ">
<path fill="none" stroke="#63b8ff" d="M924.19,-226.98C903.52,-218.17 880.88,-207.28 861.42,-195 858.96,-193.45 803.99,-145.85 771.99,-118.1"/>
<polygon fill="#63b8ff" stroke="#63b8ff" points="922.96,-230.26 933.54,-230.88 925.66,-223.8 922.96,-230.26"/>
</a>
</g>
</g>
<!-- Node6&#45;&gt;Node4 -->
<g id="edge12_Node000006_Node000004" class="edge">
<title>Node6&#45;&gt;Node4</title>
<g id="a_edge12_Node000006_Node000004"><a xlink:title=" ">
<path fill="none" stroke="#63b8ff" d="M928.02,-225.56C915.39,-217.58 903.45,-207.49 895.42,-195 864.43,-146.8 868.3,-75.2 872.44,-41.03"/>
<polygon fill="#63b8ff" stroke="#63b8ff" points="926.45,-228.69 936.84,-230.74 930,-222.66 926.45,-228.69"/>
</a>
</g>
</g>
<!-- Node7 -->
<g id="Node000007" class="node">
<title>Node7</title>
<g id="a_Node000007"><a xlink:href="Client_8h.html" target="_top" xlink:title=" ">
<polygon fill="white" stroke="#666666" points="1574.92,-118 1381.92,-118 1381.92,-77 1574.92,-77 1574.92,-118"/>
<text text-anchor="start" x="1389.92" y="-106" font-family="Helvetica,sans-Serif" font-size="10.00">/home/runner/work/open62541pp</text>
<text text-anchor="start" x="1389.92" y="-95" font-family="Helvetica,sans-Serif" font-size="10.00">/open62541pp/include/open62541pp</text>
<text text-anchor="middle" x="1478.42" y="-84" font-family="Helvetica,sans-Serif" font-size="10.00">/Client.h</text>
</a>
</g>
</g>
<!-- Node6&#45;&gt;Node7 -->
<g id="edge9_Node000006_Node000007" class="edge">
<title>Node6&#45;&gt;Node7</title>
<g id="a_edge9_Node000006_Node000007"><a xlink:title=" ">
<path fill="none" stroke="#63b8ff" d="M1094.08,-242.72C1160.01,-235.45 1245.48,-221.53 1317.42,-195 1368.79,-176.06 1422.07,-140.42 1452.63,-118.15"/>
<polygon fill="#63b8ff" stroke="#63b8ff" points="1093.66,-239.25 1084.09,-243.79 1094.4,-246.21 1093.66,-239.25"/>
</a>
</g>
</g>
<!-- Node8 -->
<g id="Node000008" class="node">
<title>Node8</title>
<g id="a_Node000008"><a xlink:href="NodeManagement_8h.html" target="_top" xlink:title=" ">
<polygon fill="white" stroke="#666666" points="1096.92,-195 903.92,-195 903.92,-154 1096.92,-154 1096.92,-195"/>
<text text-anchor="start" x="911.92" y="-183" font-family="Helvetica,sans-Serif" font-size="10.00">/home/runner/work/open62541pp</text>
<text text-anchor="start" x="911.92" y="-172" font-family="Helvetica,sans-Serif" font-size="10.00">/open62541pp/include/open62541pp</text>
<text text-anchor="middle" x="1000.42" y="-161" font-family="Helvetica,sans-Serif" font-size="10.00">/services/NodeManagement.h</text>
</a>
</g>
</g>
<!-- Node6&#45;&gt;Node8 -->
<g id="edge13_Node000006_Node000008" class="edge">
<title>Node6&#45;&gt;Node8</title>
<g id="a_edge13_Node000006_Node000008"><a xlink:title=" ">
<path fill="none" stroke="#63b8ff" d="M992.59,-220.69C994.08,-212.08 995.67,-202.9 997.03,-195.07"/>
<polygon fill="#63b8ff" stroke="#63b8ff" points="989.09,-220.34 990.84,-230.79 995.99,-221.54 989.09,-220.34"/>
</a>
</g>
</g>
<!-- Node10 -->
<g id="Node000010" class="node">
<title>Node10</title>
<g id="a_Node000010"><a xlink:href="View_8h.html" target="_top" xlink:title=" ">
<polygon fill="white" stroke="#666666" points="1307.92,-195 1114.92,-195 1114.92,-154 1307.92,-154 1307.92,-195"/>
<text text-anchor="start" x="1122.92" y="-183" font-family="Helvetica,sans-Serif" font-size="10.00">/home/runner/work/open62541pp</text>
<text text-anchor="start" x="1122.92" y="-172" font-family="Helvetica,sans-Serif" font-size="10.00">/open62541pp/include/open62541pp</text>
<text text-anchor="middle" x="1211.42" y="-161" font-family="Helvetica,sans-Serif" font-size="10.00">/services/View.h</text>
</a>
</g>
</g>
<!-- Node6&#45;&gt;Node10 -->
<g id="edge17_Node000006_Node000010" class="edge">
<title>Node6&#45;&gt;Node10</title>
<g id="a_edge17_Node000006_Node000010"><a xlink:title=" ">
<path fill="none" stroke="#63b8ff" d="M1055.19,-227.81C1086.4,-217.36 1123.08,-205.08 1153.05,-195.04"/>
<polygon fill="#63b8ff" stroke="#63b8ff" points="1054.06,-224.5 1045.69,-230.99 1056.28,-231.13 1054.06,-224.5"/>
</a>
</g>
</g>
<!-- Node7&#45;&gt;Node4 -->
<g id="edge10_Node000007_Node000004" class="edge">
<title>Node7&#45;&gt;Node4</title>
<g id="a_edge10_Node000007_Node000004"><a xlink:title=" ">
<path fill="none" stroke="#63b8ff" d="M1371.9,-77.65C1370.4,-77.43 1368.9,-77.21 1367.42,-77 1230.65,-57.29 1071.65,-40.45 972.27,-30.65"/>
<polygon fill="#63b8ff" stroke="#63b8ff" points="1371.5,-81.13 1381.92,-79.18 1372.56,-74.21 1371.5,-81.13"/>
</a>
</g>
</g>
<!-- Node8&#45;&gt;Node3 -->
<g id="edge14_Node000008_Node000003" class="edge">
<title>Node8&#45;&gt;Node3</title>
<g id="a_edge14_Node000008_Node000003"><a xlink:title=" ">
<path fill="none" stroke="#63b8ff" d="M925.39,-151.08C890.21,-140.57 848.69,-128.16 814.82,-118.04"/>
<polygon fill="#63b8ff" stroke="#63b8ff" points="924.54,-154.48 935.13,-153.99 926.55,-147.77 924.54,-154.48"/>
</a>
</g>
</g>
<!-- Node9 -->
<g id="Node000009" class="node">
<title>Node9</title>
<g id="a_Node000009"><a xlink:href="services_8h.html" target="_top" xlink:title=" ">
<polygon fill="white" stroke="#666666" points="1096.92,-118 903.92,-118 903.92,-77 1096.92,-77 1096.92,-118"/>
<text text-anchor="start" x="911.92" y="-106" font-family="Helvetica,sans-Serif" font-size="10.00">/home/runner/work/open62541pp</text>
<text text-anchor="start" x="911.92" y="-95" font-family="Helvetica,sans-Serif" font-size="10.00">/open62541pp/include/open62541pp</text>
<text text-anchor="middle" x="1000.42" y="-84" font-family="Helvetica,sans-Serif" font-size="10.00">/services/services.h</text>
</a>
</g>
</g>
<!-- Node8&#45;&gt;Node9 -->
<g id="edge15_Node000008_Node000009" class="edge">
<title>Node8&#45;&gt;Node9</title>
<g id="a_edge15_Node000008_Node000009"><a xlink:title=" ">
<path fill="none" stroke="#63b8ff" d="M1000.42,-143.69C1000.42,-135.08 1000.42,-125.9 1000.42,-118.07"/>
<polygon fill="#63b8ff" stroke="#63b8ff" points="996.92,-143.79 1000.42,-153.79 1003.92,-143.79 996.92,-143.79"/>
</a>
</g>
</g>
<!-- Node9&#45;&gt;Node4 -->
<g id="edge16_Node000009_Node000004" class="edge">
<title>Node9&#45;&gt;Node4</title>
<g id="a_edge16_Node000009_Node000004"><a xlink:title=" ">
<path fill="none" stroke="#63b8ff" d="M958.99,-71.64C942.48,-61.74 923.75,-50.5 908.21,-41.17"/>
<polygon fill="#63b8ff" stroke="#63b8ff" points="957.53,-74.85 967.9,-76.99 961.13,-68.84 957.53,-74.85"/>
</a>
</g>
</g>
<!-- Node10&#45;&gt;Node9 -->
<g id="edge18_Node000010_Node000009" class="edge">
<title>Node10&#45;&gt;Node9</title>
<g id="a_edge18_Node000010_Node000009"><a xlink:title=" ">
<path fill="none" stroke="#63b8ff" d="M1146.82,-150.54C1117.58,-140.15 1083.39,-127.99 1055.4,-118.04"/>
<polygon fill="#63b8ff" stroke="#63b8ff" points="1145.94,-153.94 1156.53,-153.99 1148.28,-147.34 1145.94,-153.94"/>
</a>
</g>
</g>
<!-- Node11&#45;&gt;Node4 -->
<g id="edge20_Node000011_Node000004" class="edge">
<title>Node11&#45;&gt;Node4</title>
<g id="a_edge20_Node000011_Node000004"><a xlink:title=" ">
<path fill="none" stroke="#63b8ff" d="M548.79,-388.65C428.39,-368.24 244.05,-328.56 204.42,-272 193.96,-257.08 197.03,-247.66 204.42,-231 245.75,-137.8 281.47,-118.87 374.42,-77 444.44,-45.46 653.91,-31.08 778.73,-25.16"/>
<polygon fill="#63b8ff" stroke="#63b8ff" points="548.35,-392.12 558.79,-390.32 549.5,-385.22 548.35,-392.12"/>
</a>
</g>
</g>
<!-- Node12 -->
<g id="Node000012" class="node">
<title>Node12</title>
<g id="a_Node000012"><a xlink:href="services_2MonitoredItem_8h.html" target="_top" xlink:title=" ">
<polygon fill="white" stroke="#666666" points="1538.92,-349 1345.92,-349 1345.92,-308 1538.92,-308 1538.92,-349"/>
<text text-anchor="start" x="1353.92" y="-337" font-family="Helvetica,sans-Serif" font-size="10.00">/home/runner/work/open62541pp</text>
<text text-anchor="start" x="1353.92" y="-326" font-family="Helvetica,sans-Serif" font-size="10.00">/open62541pp/include/open62541pp</text>
<text text-anchor="middle" x="1442.42" y="-315" font-family="Helvetica,sans-Serif" font-size="10.00">/services/MonitoredItem.h</text>
</a>
</g>
</g>
<!-- Node11&#45;&gt;Node12 -->
<g id="edge21_Node000011_Node000012" class="edge">
<title>Node11&#45;&gt;Node12</title>
<g id="a_edge21_Node000011_Node000012"><a xlink:title=" ">
<path fill="none" stroke="#63b8ff" d="M762.37,-395.81C886.01,-385.55 1095.58,-367.55 1275.42,-349 1298.21,-346.65 1322.73,-343.91 1345.77,-341.23"/>
<polygon fill="#63b8ff" stroke="#63b8ff" points="761.83,-392.34 752.15,-396.65 762.4,-399.32 761.83,-392.34"/>
</a>
</g>
</g>
<!-- Node12&#45;&gt;Node9 -->
<g id="edge30_Node000012_Node000009" class="edge">
<title>Node12&#45;&gt;Node9</title>
<g id="a_edge30_Node000012_Node000009"><a xlink:title=" ">
<path fill="none" stroke="#63b8ff" d="M1417.4,-300.06C1409.77,-291.3 1401.52,-281.43 1394.42,-272 1356.74,-221.98 1369.7,-188.47 1317.42,-154 1281.91,-130.59 1176.52,-115.39 1096.92,-106.92"/>
<polygon fill="#63b8ff" stroke="#63b8ff" points="1414.95,-302.57 1424.19,-307.75 1420.2,-297.93 1414.95,-302.57"/>
</a>
</g>
</g>
<!-- Node13 -->
<g id="Node000013" class="node">
<title>Node13</title>
<g id="a_Node000013"><a xlink:href="MonitoredItem_8h.html" target="_top" xlink:title=" ">
<polygon fill="white" stroke="#666666" points="1595.92,-272 1402.92,-272 1402.92,-231 1595.92,-231 1595.92,-272"/>
<text text-anchor="start" x="1410.92" y="-260" font-family="Helvetica,sans-Serif" font-size="10.00">/home/runner/work/open62541pp</text>
<text text-anchor="start" x="1410.92" y="-249" font-family="Helvetica,sans-Serif" font-size="10.00">/open62541pp/include/open62541pp</text>
<text text-anchor="middle" x="1499.42" y="-238" font-family="Helvetica,sans-Serif" font-size="10.00">/MonitoredItem.h</text>
</a>
</g>
</g>
<!-- Node12&#45;&gt;Node13 -->
<g id="edge22_Node000012_Node000013" class="edge">
<title>Node12&#45;&gt;Node13</title>
<g id="a_edge22_Node000012_Node000013"><a xlink:title=" ">
<path fill="none" stroke="#63b8ff" d="M1463.57,-299.67C1470.54,-290.5 1478.14,-280.5 1484.54,-272.07"/>
<polygon fill="#63b8ff" stroke="#63b8ff" points="1460.66,-297.72 1457.4,-307.79 1466.23,-301.95 1460.66,-297.72"/>
</a>
</g>
</g>
<!-- Node14 -->
<g id="Node000014" class="node">
<title>Node14</title>
<g id="a_Node000014"><a xlink:href="Subscription_8h.html" target="_top" xlink:title=" ">
<polygon fill="white" stroke="#666666" points="1633.92,-195 1440.92,-195 1440.92,-154 1633.92,-154 1633.92,-195"/>
<text text-anchor="start" x="1448.92" y="-183" font-family="Helvetica,sans-Serif" font-size="10.00">/home/runner/work/open62541pp</text>
<text text-anchor="start" x="1448.92" y="-172" font-family="Helvetica,sans-Serif" font-size="10.00">/open62541pp/include/open62541pp</text>
<text text-anchor="middle" x="1537.42" y="-161" font-family="Helvetica,sans-Serif" font-size="10.00">/Subscription.h</text>
</a>
</g>
</g>
<!-- Node12&#45;&gt;Node14 -->
<g id="edge29_Node000012_Node000014" class="edge">
<title>Node12&#45;&gt;Node14</title>
<g id="a_edge29_Node000012_Node000014"><a xlink:title=" ">
<path fill="none" stroke="#63b8ff" d="M1548.56,-312.19C1570.79,-303.9 1591.64,-291.25 1605.42,-272 1616.03,-257.18 1613.23,-247.46 1605.42,-231 1598.43,-216.27 1585.4,-204.16 1572.61,-195.05"/>
<polygon fill="#63b8ff" stroke="#63b8ff" points="1547.29,-308.93 1538.97,-315.49 1549.56,-315.55 1547.29,-308.93"/>
</a>
</g>
</g>
<!-- Node13&#45;&gt;Node4 -->
<g id="edge28_Node000013_Node000004" class="edge">
<title>Node13&#45;&gt;Node4</title>
<g id="a_edge28_Node000013_Node000004"><a xlink:title=" ">
<path fill="none" stroke="#63b8ff" d="M1465.82,-224.97C1436.58,-203.69 1392.42,-173.78 1350.42,-154 1225.92,-95.36 1070.48,-58.12 972.05,-38.52"/>
<polygon fill="#63b8ff" stroke="#63b8ff" points="1463.89,-227.9 1474.02,-231 1468.04,-222.25 1463.89,-227.9"/>
</a>
</g>
</g>
<!-- Node13&#45;&gt;Node14 -->
<g id="edge23_Node000013_Node000014" class="edge">
<title>Node13&#45;&gt;Node14</title>
<g id="a_edge23_Node000013_Node000014"><a xlink:title=" ">
<path fill="none" stroke="#63b8ff" d="M1513.95,-221.83C1518.48,-212.89 1523.37,-203.24 1527.5,-195.07"/>
<polygon fill="#63b8ff" stroke="#63b8ff" points="1510.8,-220.29 1509.4,-230.79 1517.05,-223.46 1510.8,-220.29"/>
</a>
</g>
</g>
<!-- Node14&#45;&gt;Node4 -->
<g id="edge27_Node000014_Node000004" class="edge">
<title>Node14&#45;&gt;Node4</title>
<g id="a_edge27_Node000014_Node000004"><a xlink:title=" ">
<path fill="none" stroke="#63b8ff" d="M1448.15,-150.87C1423.01,-142.52 1396.31,-131.66 1373.42,-118 1350.47,-104.3 1353.65,-88.29 1329.42,-77 1267.88,-48.34 1085.98,-33.2 971.98,-26.31"/>
<polygon fill="#63b8ff" stroke="#63b8ff" points="1447.1,-154.21 1457.69,-153.95 1449.25,-147.55 1447.1,-154.21"/>
</a>
</g>
</g>
<!-- Node14&#45;&gt;Node7 -->
<g id="edge24_Node000014_Node000007" class="edge">
<title>Node14&#45;&gt;Node7</title>
<g id="a_edge24_Node000014_Node000007"><a xlink:title=" ">
<path fill="none" stroke="#63b8ff" d="M1515.53,-145.67C1508.31,-136.5 1500.44,-126.5 1493.82,-118.07"/>
<polygon fill="#63b8ff" stroke="#63b8ff" points="1512.98,-148.1 1521.92,-153.79 1518.49,-143.77 1512.98,-148.1"/>
</a>
</g>
</g>
<!-- Node15 -->
<g id="Node000015" class="node">
<title>Node15</title>
<g id="a_Node000015"><a xlink:href="Server_8h.html" target="_top" xlink:title=" ">
<polygon fill="white" stroke="#666666" points="1785.92,-118 1592.92,-118 1592.92,-77 1785.92,-77 1785.92,-118"/>
<text text-anchor="start" x="1600.92" y="-106" font-family="Helvetica,sans-Serif" font-size="10.00">/home/runner/work/open62541pp</text>
<text text-anchor="start" x="1600.92" y="-95" font-family="Helvetica,sans-Serif" font-size="10.00">/open62541pp/include/open62541pp</text>
<text text-anchor="middle" x="1689.42" y="-84" font-family="Helvetica,sans-Serif" font-size="10.00">/Server.h</text>
</a>
</g>
</g>
<!-- Node14&#45;&gt;Node15 -->
<g id="edge25_Node000014_Node000015" class="edge">
<title>Node14&#45;&gt;Node15</title>
<g id="a_edge25_Node000014_Node000015"><a xlink:title=" ">
<path fill="none" stroke="#63b8ff" d="M1586.16,-149.45C1606.73,-139.3 1630.35,-127.64 1649.81,-118.04"/>
<polygon fill="#63b8ff" stroke="#63b8ff" points="1584.38,-146.43 1576.96,-153.99 1587.48,-152.7 1584.38,-146.43"/>
</a>
</g>
</g>
<!-- Node15&#45;&gt;Node4 -->
<g id="edge26_Node000015_Node000004" class="edge">
<title>Node15&#45;&gt;Node4</title>
<g id="a_edge26_Node000015_Node000004"><a xlink:title=" ">
<path fill="none" stroke="#63b8ff" d="M1582.83,-76.86C1359.01,-47.86 1106.87,-32.59 972.09,-25.83"/>
<polygon fill="#63b8ff" stroke="#63b8ff" points="1582.42,-80.33 1592.79,-78.16 1583.33,-73.39 1582.42,-80.33"/>
</a>
</g>
</g>
<!-- Node16&#45;&gt;Node3 -->
<g id="edge32_Node000016_Node000003" class="edge">
<title>Node16&#45;&gt;Node3</title>
<g id="a_edge32_Node000016_Node000003"><a xlink:title=" ">
<path fill="none" stroke="#63b8ff" d="M514.17,-298.1C505.49,-260.29 497.23,-194.68 530.42,-154 546.23,-134.63 600.61,-120.78 651.23,-111.77"/>
<polygon fill="#63b8ff" stroke="#63b8ff" points="510.81,-299.1 516.59,-307.98 517.61,-297.43 510.81,-299.1"/>
</a>
</g>
</g>
<!-- Node16&#45;&gt;Node4 -->
<g id="edge33_Node000016_Node000004" class="edge">
<title>Node16&#45;&gt;Node4</title>
<g id="a_edge33_Node000016_Node000004"><a xlink:title=" ">
<path fill="none" stroke="#63b8ff" d="M510.08,-298.16C496.76,-261.5 480.89,-198.2 508.42,-154 564.74,-63.58 690.34,-34.25 778.86,-25.07"/>
<polygon fill="#63b8ff" stroke="#63b8ff" points="506.91,-299.66 513.73,-307.76 513.45,-297.17 506.91,-299.66"/>
</a>
</g>
</g>
<!-- Node16&#45;&gt;Node6 -->
<g id="edge37_Node000016_Node000006" class="edge">
<title>Node16&#45;&gt;Node6</title>
<g id="a_edge37_Node000016_Node000006"><a xlink:title=" ">
<path fill="none" stroke="#63b8ff" d="M628.96,-308.74C630.45,-308.49 631.94,-308.25 633.42,-308 720.41,-293.54 819.6,-278.08 890.81,-267.16"/>
<polygon fill="#63b8ff" stroke="#63b8ff" points="628.24,-305.32 618.96,-310.43 629.41,-312.22 628.24,-305.32"/>
</a>
</g>
</g>
<!-- Node16&#45;&gt;Node17 -->
<g id="edge34_Node000016_Node000017" class="edge">
<title>Node16&#45;&gt;Node17</title>
<g id="a_edge34_Node000016_Node000017"><a xlink:title=" ">
<path fill="none" stroke="#63b8ff" d="M543.1,-299.93C565.71,-269.78 601.39,-222.21 621.44,-195.47"/>
<polygon fill="#63b8ff" stroke="#63b8ff" points="540.29,-297.84 537.09,-307.94 545.89,-302.04 540.29,-297.84"/>
</a>
</g>
</g>
<!-- Node16&#45;&gt;Node18 -->
<g id="edge38_Node000016_Node000018" class="edge">
<title>Node16&#45;&gt;Node18</title>
<g id="a_edge38_Node000016_Node000018"><a xlink:title=" ">
<path fill="none" stroke="#63b8ff" d="M457.52,-304.54C428.14,-294.15 393.78,-281.99 365.66,-272.04"/>
<polygon fill="#63b8ff" stroke="#63b8ff" points="456.68,-307.95 467.27,-307.99 459.01,-301.36 456.68,-307.95"/>
</a>
</g>
</g>
<!-- Node17&#45;&gt;Node3 -->
<g id="edge35_Node000017_Node000003" class="edge">
<title>Node17&#45;&gt;Node3</title>
<g id="a_edge35_Node000017_Node000003"><a xlink:title=" ">
<path fill="none" stroke="#63b8ff" d="M674.28,-148.37C689.11,-138.53 705.86,-127.41 719.78,-118.17"/>
<polygon fill="#63b8ff" stroke="#63b8ff" points="672.21,-145.54 665.81,-153.99 676.08,-151.38 672.21,-145.54"/>
</a>
</g>
</g>
<!-- Node17&#45;&gt;Node9 -->
<g id="edge36_Node000017_Node000009" class="edge">
<title>Node17&#45;&gt;Node9</title>
<g id="a_edge36_Node000017_Node000009"><a xlink:title=" ">
<path fill="none" stroke="#63b8ff" d="M741,-151.95C792.89,-141.26 855.09,-128.44 905.58,-118.04"/>
<polygon fill="#63b8ff" stroke="#63b8ff" points="740.19,-148.54 731.11,-153.99 741.61,-155.4 740.19,-148.54"/>
</a>
</g>
</g>
<!-- Node18&#45;&gt;Node3 -->
<g id="edge39_Node000018_Node000003" class="edge">
<title>Node18&#45;&gt;Node3</title>
<g id="a_edge39_Node000018_Node000003"><a xlink:title=" ">
<path fill="none" stroke="#63b8ff" d="M342.17,-224.7C371.04,-202.57 415.69,-171.56 459.42,-154 520.66,-129.4 593.66,-115.51 651.09,-107.77"/>
<polygon fill="#63b8ff" stroke="#63b8ff" points="339.85,-222.07 334.1,-230.97 344.15,-227.6 339.85,-222.07"/>
</a>
</g>
</g>
<!-- Node18&#45;&gt;Node4 -->
<g id="edge40_Node000018_Node000004" class="edge">
<title>Node18&#45;&gt;Node4</title>
<g id="a_edge40_Node000018_Node000004"><a xlink:title=" ">
<path fill="none" stroke="#63b8ff" d="M320.07,-221.38C334.96,-181.48 367.57,-110.88 421.42,-77 479.09,-40.71 663.49,-28.13 778.77,-23.79"/>
<polygon fill="#63b8ff" stroke="#63b8ff" points="316.76,-220.23 316.67,-230.83 323.35,-222.61 316.76,-220.23"/>
</a>
</g>
</g>
<!-- Node18&#45;&gt;Node17 -->
<g id="edge41_Node000018_Node000017" class="edge">
<title>Node18&#45;&gt;Node17</title>
<g id="a_edge41_Node000018_Node000017"><a xlink:title=" ">
<path fill="none" stroke="#63b8ff" d="M405.25,-228.68C451.48,-218.05 506.64,-205.36 551.48,-195.04"/>
<polygon fill="#63b8ff" stroke="#63b8ff" points="404.18,-225.34 395.22,-230.99 405.75,-232.16 404.18,-225.34"/>
</a>
</g>
</g>
<!-- Node19&#45;&gt;Node3 -->
<g id="edge48_Node000019_Node000003" class="edge">
<title>Node19&#45;&gt;Node3</title>
<g id="a_edge48_Node000019_Node000003"><a xlink:title=" ">
<path fill="none" stroke="#63b8ff" d="M1067.74,-382.25C995.27,-362.51 898.63,-327.95 828.42,-272 778.73,-232.39 759.14,-154.6 752.45,-118.18"/>
<polygon fill="#63b8ff" stroke="#63b8ff" points="1067.24,-385.73 1077.81,-384.93 1069.05,-378.97 1067.24,-385.73"/>
</a>
</g>
</g>
<!-- Node19&#45;&gt;Node4 -->
<g id="edge50_Node000019_Node000004" class="edge">
<title>Node19&#45;&gt;Node4</title>
<g id="a_edge50_Node000019_Node000004"><a xlink:title=" ">
<path fill="none" stroke="#63b8ff" d="M1276.32,-402.61C1468.47,-396.29 1852.42,-369.08 1852.42,-252.5 1852.42,-252.5 1852.42,-252.5 1852.42,-173.5 1852.42,-128.31 1856.26,-104.51 1820.42,-77 1754.3,-26.25 1199.49,-21.08 972.07,-21.12"/>
<polygon fill="#63b8ff" stroke="#63b8ff" points="1276.07,-399.12 1266.19,-402.93 1276.3,-406.11 1276.07,-399.12"/>
</a>
</g>
</g>
<!-- Node19&#45;&gt;Node6 -->
<g id="edge52_Node000019_Node000006" class="edge">
<title>Node19&#45;&gt;Node6</title>
<g id="a_edge52_Node000019_Node000006"><a xlink:title=" ">
<path fill="none" stroke="#63b8ff" d="M1113.55,-380.36C1096.85,-371.76 1079.09,-361.15 1064.42,-349 1037.35,-326.58 1013.36,-293.28 999.62,-272.24"/>
<polygon fill="#63b8ff" stroke="#63b8ff" points="1112.19,-383.59 1122.7,-384.93 1115.32,-377.33 1112.19,-383.59"/>
</a>
</g>
</g>
<!-- Node19&#45;&gt;Node7 -->
<g id="edge45_Node000019_Node000007" class="edge">
<title>Node19&#45;&gt;Node7</title>
<g id="a_edge45_Node000019_Node000007"><a xlink:title=" ">
<path fill="none" stroke="#63b8ff" d="M1276.41,-395.44C1371.04,-386.24 1501.19,-370.31 1548.42,-349 1596.71,-327.21 1609.89,-315.99 1639.42,-272 1669.3,-227.49 1696.45,-196.99 1664.42,-154 1652.84,-138.46 1614.13,-125.69 1575,-116.32"/>
<polygon fill="#63b8ff" stroke="#63b8ff" points="1275.83,-391.98 1266.22,-396.42 1276.5,-398.95 1275.83,-391.98"/>
</a>
</g>
</g>
<!-- Node19&#45;&gt;Node15 -->
<g id="edge49_Node000019_Node000015" class="edge">
<title>Node19&#45;&gt;Node15</title>
<g id="a_edge49_Node000019_Node000015"><a xlink:title=" ">
<path fill="none" stroke="#63b8ff" d="M1276.26,-398.65C1383.3,-391.36 1539.67,-376.38 1593.42,-349 1667.46,-311.29 1682.71,-276.39 1699.42,-195 1704.8,-168.77 1699.64,-137.89 1694.96,-118.27"/>
<polygon fill="#63b8ff" stroke="#63b8ff" points="1275.8,-395.18 1266.06,-399.34 1276.27,-402.16 1275.8,-395.18"/>
</a>
</g>
</g>
<!-- Node19&#45;&gt;Node17 -->
<g id="edge51_Node000019_Node000017" class="edge">
<title>Node19&#45;&gt;Node17</title>
<g id="a_edge51_Node000019_Node000017"><a xlink:title=" ">
<path fill="none" stroke="#63b8ff" d="M1062.47,-402.45C953.91,-398.31 795.2,-385.9 747.42,-349 702.61,-314.39 732.2,-277.16 699.42,-231 689.71,-217.33 676.02,-204.74 663.87,-195.02"/>
<polygon fill="#63b8ff" stroke="#63b8ff" points="1062.37,-405.95 1072.49,-402.82 1062.62,-398.96 1062.37,-405.95"/>
</a>
</g>
</g>
<!-- Node20 -->
<g id="Node000020" class="node">
<title>Node20</title>
<g id="a_Node000020"><a xlink:href="Crypto_8h.html" target="_top" xlink:title=" ">
<polygon fill="white" stroke="#666666" points="2073.92,-272 1880.92,-272 1880.92,-231 2073.92,-231 2073.92,-272"/>
<text text-anchor="start" x="1888.92" y="-260" font-family="Helvetica,sans-Serif" font-size="10.00">/home/runner/work/open62541pp</text>
<text text-anchor="start" x="1888.92" y="-249" font-family="Helvetica,sans-Serif" font-size="10.00">/open62541pp/include/open62541pp</text>
<text text-anchor="middle" x="1977.42" y="-238" font-family="Helvetica,sans-Serif" font-size="10.00">/Crypto.h</text>
</a>
</g>
</g>
<!-- Node19&#45;&gt;Node20 -->
<g id="edge46_Node000019_Node000020" class="edge">
<title>Node19&#45;&gt;Node20</title>
<g id="a_edge46_Node000019_Node000020"><a xlink:title=" ">
<path fill="none" stroke="#63b8ff" d="M1276.04,-404.1C1444.25,-402.12 1762.77,-392.52 1866.42,-349 1906.44,-332.19 1942.26,-295.15 1961.81,-272.16"/>
<polygon fill="#63b8ff" stroke="#63b8ff" points="1275.88,-400.6 1265.92,-404.21 1275.96,-407.6 1275.88,-400.6"/>
</a>
</g>
</g>
<!-- Node19&#45;&gt;Node21 -->
<g id="edge53_Node000019_Node000021" class="edge">
<title>Node19&#45;&gt;Node21</title>
<g id="a_edge53_Node000019_Node000021"><a xlink:title=" ">
<path fill="none" stroke="#63b8ff" d="M1169.42,-374.69C1169.42,-366.08 1169.42,-356.9 1169.42,-349.07"/>
<polygon fill="#63b8ff" stroke="#63b8ff" points="1165.92,-374.79 1169.42,-384.79 1172.92,-374.79 1165.92,-374.79"/>
</a>
</g>
</g>
<!-- Node20&#45;&gt;Node4 -->
<g id="edge47_Node000020_Node000004" class="edge">
<title>Node20&#45;&gt;Node4</title>
<g id="a_edge47_Node000020_Node000004"><a xlink:title=" ">
<path fill="none" stroke="#63b8ff" d="M1968.18,-221.2C1953.71,-180.75 1921.49,-109.18 1866.42,-77 1790.54,-32.66 1206.3,-23.75 972.08,-21.95"/>
<polygon fill="#63b8ff" stroke="#63b8ff" points="1964.92,-222.46 1971.48,-230.77 1971.53,-220.17 1964.92,-222.46"/>
</a>
</g>
</g>
<!-- Node21&#45;&gt;Node3 -->
<g id="edge55_Node000021_Node000003" class="edge">
<title>Node21&#45;&gt;Node3</title>
<g id="a_edge55_Node000021_Node000003"><a xlink:title=" ">
<path fill="none" stroke="#63b8ff" d="M1062.61,-323.17C1006.01,-316.98 937.09,-302.98 882.42,-272 818.53,-235.79 775.24,-155.2 757.91,-118"/>
<polygon fill="#63b8ff" stroke="#63b8ff" points="1062.36,-326.66 1072.67,-324.2 1063.08,-319.7 1062.36,-326.66"/>
</a>
</g>
</g>
<!-- Node21&#45;&gt;Node4 -->
<g id="edge58_Node000021_Node000004" class="edge">
<title>Node21&#45;&gt;Node4</title>
<g id="a_edge58_Node000021_Node000004"><a xlink:title=" ">
<path fill="none" stroke="#63b8ff" d="M1276.43,-314.96C1296.68,-312.62 1317.7,-310.22 1337.42,-308 1410.95,-299.73 1603.3,-307.13 1668.42,-272 1759.44,-222.89 1866.32,-152.3 1795.42,-77 1767.52,-47.36 1202.63,-29.77 972.11,-23.81"/>
<polygon fill="#63b8ff" stroke="#63b8ff" points="1275.77,-311.51 1266.24,-316.14 1276.58,-318.47 1275.77,-311.51"/>
</a>
</g>
</g>
<!-- Node21&#45;&gt;Node6 -->
<g id="edge62_Node000021_Node000006" class="edge">
<title>Node21&#45;&gt;Node6</title>
<g id="a_edge62_Node000021_Node000006"><a xlink:title=" ">
<path fill="none" stroke="#63b8ff" d="M1112.71,-304.13C1087.71,-293.83 1058.67,-281.86 1034.84,-272.04"/>
<polygon fill="#63b8ff" stroke="#63b8ff" points="1111.5,-307.42 1122.08,-307.99 1114.16,-300.94 1111.5,-307.42"/>
</a>
</g>
</g>
<!-- Node21&#45;&gt;Node7 -->
<g id="edge54_Node000021_Node000007" class="edge">
<title>Node21&#45;&gt;Node7</title>
<g id="a_edge54_Node000021_Node000007"><a xlink:title=" ">
<path fill="none" stroke="#63b8ff" d="M1276.28,-315.15C1403.19,-300.3 1598.72,-276.78 1605.42,-272 1650.28,-240.01 1675.57,-198.74 1643.42,-154 1633.45,-140.13 1600.14,-127.7 1566.03,-118.13"/>
<polygon fill="#63b8ff" stroke="#63b8ff" points="1275.65,-311.7 1266.12,-316.34 1276.46,-318.65 1275.65,-311.7"/>
</a>
</g>
</g>
<!-- Node21&#45;&gt;Node8 -->
<g id="edge60_Node000021_Node000008" class="edge">
<title>Node21&#45;&gt;Node8</title>
<g id="a_edge60_Node000021_Node000008"><a xlink:title=" ">
<path fill="none" stroke="#63b8ff" d="M1151.35,-299.3C1137.25,-278.73 1116.27,-251.08 1093.42,-231 1077.6,-217.1 1057.82,-204.74 1040.58,-195.23"/>
<polygon fill="#63b8ff" stroke="#63b8ff" points="1148.47,-301.29 1156.96,-307.63 1154.28,-297.38 1148.47,-301.29"/>
</a>
</g>
</g>
<!-- Node21&#45;&gt;Node10 -->
<g id="edge61_Node000021_Node000010" class="edge">
<title>Node21&#45;&gt;Node10</title>
<g id="a_edge61_Node000021_Node000010"><a xlink:title=" ">
<path fill="none" stroke="#63b8ff" d="M1177.58,-297.98C1185.93,-267.76 1198.67,-221.64 1205.9,-195.47"/>
<polygon fill="#63b8ff" stroke="#63b8ff" points="1174.11,-297.37 1174.82,-307.94 1180.86,-299.23 1174.11,-297.37"/>
</a>
</g>
</g>
<!-- Node21&#45;&gt;Node14 -->
<g id="edge57_Node000021_Node000014" class="edge">
<title>Node21&#45;&gt;Node14</title>
<g id="a_edge57_Node000021_Node000014"><a xlink:title=" ">
<path fill="none" stroke="#63b8ff" d="M1222.99,-303.9C1268.43,-284.03 1335.46,-255.08 1394.42,-231 1424.5,-218.72 1458.39,-205.54 1485.62,-195.1"/>
<polygon fill="#63b8ff" stroke="#63b8ff" points="1221.38,-300.78 1213.63,-308 1224.19,-307.19 1221.38,-300.78"/>
</a>
</g>
</g>
<!-- Node21&#45;&gt;Node15 -->
<g id="edge56_Node000021_Node000015" class="edge">
<title>Node21&#45;&gt;Node15</title>
<g id="a_edge56_Node000021_Node000015"><a xlink:title=" ">
<path fill="none" stroke="#63b8ff" d="M1276.23,-315.06C1414.64,-298.92 1638.54,-272.72 1639.42,-272 1686.07,-233.72 1690.83,-154.91 1690.33,-118.16"/>
<polygon fill="#63b8ff" stroke="#63b8ff" points="1275.53,-311.62 1266,-316.26 1276.34,-318.57 1275.53,-311.62"/>
</a>
</g>
</g>
<!-- Node21&#45;&gt;Node17 -->
<g id="edge59_Node000021_Node000017" class="edge">
<title>Node21&#45;&gt;Node17</title>
<g id="a_edge59_Node000021_Node000017"><a xlink:title=" ">
<path fill="none" stroke="#63b8ff" d="M1062.68,-319.2C993.21,-311.66 901.36,-297.63 823.42,-272 807.89,-266.89 722.65,-221.75 672.78,-195.05"/>
<polygon fill="#63b8ff" stroke="#63b8ff" points="1062.45,-322.69 1072.76,-320.26 1063.19,-315.73 1062.45,-322.69"/>
</a>
</g>
</g>
<!-- Node22&#45;&gt;Node2 -->
<g id="edge66_Node000022_Node000002" class="edge">
<title>Node22&#45;&gt;Node2</title>
<g id="a_edge66_Node000022_Node000002"><a xlink:title=" ">
<path fill="none" stroke="#63b8ff" d="M223.25,-536.68C269.48,-526.05 324.64,-513.36 369.48,-503.04"/>
<polygon fill="#63b8ff" stroke="#63b8ff" points="222.18,-533.34 213.22,-538.99 223.75,-540.16 222.18,-533.34"/>
</a>
</g>
</g>
<!-- Node22&#45;&gt;Node4 -->
<g id="edge67_Node000022_Node000004" class="edge">
<title>Node22&#45;&gt;Node4</title>
<g id="a_edge67_Node000022_Node000004"><a xlink:title=" ">
<path fill="none" stroke="#63b8ff" d="M104.83,-530.92C82.52,-501.93 52.42,-454.03 52.42,-406.5 52.42,-406.5 52.42,-406.5 52.42,-173.5 52.42,-123 69.2,-103.12 112.42,-77 168.15,-43.32 586.32,-28.67 778.88,-23.66"/>
<polygon fill="#63b8ff" stroke="#63b8ff" points="102.22,-533.26 111.17,-538.93 107.71,-528.92 102.22,-533.26"/>
</a>
</g>
</g>
<!-- Node22&#45;&gt;Node18 -->
<g id="edge68_Node000022_Node000018" class="edge">
<title>Node22&#45;&gt;Node18</title>
<g id="a_edge68_Node000022_Node000018"><a xlink:title=" ">
<path fill="none" stroke="#63b8ff" d="M126.49,-528.59C124.87,-476.08 129.63,-367.28 190.42,-308 206.44,-292.38 227.67,-280.6 247.81,-272.01"/>
<polygon fill="#63b8ff" stroke="#63b8ff" points="123.01,-529.05 126.92,-538.9 130,-528.76 123.01,-529.05"/>
</a>
</g>
</g>
</g>
</svg>
