<?xml version="1.0" encoding="UTF-8" standalone="no"?>
<!DOCTYPE svg PUBLIC "-//W3C//DTD SVG 1.1//EN"
 "http://www.w3.org/Graphics/SVG/1.1/DTD/svg11.dtd">
<!-- Generated by graphviz version 2.43.0 (0)
 -->
<!-- Title: /home/runner/work/open62541pp/open62541pp/include/open62541pp/TypeConverter.h Pages: 1 -->
<svg width="961pt" height="330pt"
 viewBox="0.00 0.00 961.00 330.00" xmlns="http://www.w3.org/2000/svg" xmlns:xlink="http://www.w3.org/1999/xlink">
<g id="graph0" class="graph" transform="scale(1 1) rotate(0) translate(4 326)">
<title>/home/runner/work/open62541pp/open62541pp/include/open62541pp/TypeConverter.h</title>
<!-- Node1 -->
<g id="node1" class="node">
<title>Node1</title>
<g id="a_node1"><a xlink:title=" ">
<polygon fill="#bfbfbf" stroke="black" points="241,-280.5 241,-321.5 434,-321.5 434,-280.5 241,-280.5"/>
<text text-anchor="start" x="249" y="-309.5" font-family="Helvetica,sans-Serif" font-size="10.00">/home/runner/work/open62541pp</text>
<text text-anchor="start" x="249" y="-298.5" font-family="Helvetica,sans-Serif" font-size="10.00">/open62541pp/include/open62541pp</text>
<text text-anchor="middle" x="337.5" y="-287.5" font-family="Helvetica,sans-Serif" font-size="10.00">/TypeConverter.h</text>
</a>
</g>
</g>
<!-- Node2 -->
<g id="node2" class="node">
<title>Node2</title>
<g id="a_node2"><a xlink:title=" ">
<polygon fill="none" stroke="#bfbfbf" points="0,-224.5 0,-243.5 53,-243.5 53,-224.5 0,-224.5"/>
<text text-anchor="middle" x="26.5" y="-231.5" font-family="Helvetica,sans-Serif" font-size="10.00">iterator</text>
</a>
</g>
</g>
<!-- Node1&#45;&gt;Node2 -->
<g id="edge1" class="edge">
<title>Node1&#45;&gt;Node2</title>
<path fill="none" stroke="midnightblue" d="M241.85,-280.44C190.19,-269.81 125.32,-256.34 67.5,-244 66.22,-243.73 64.91,-243.45 63.59,-243.16"/>
<polygon fill="midnightblue" stroke="midnightblue" points="63.91,-239.65 53.4,-240.95 62.43,-246.49 63.91,-239.65"/>
</g>
<!-- Node3 -->
<g id="node3" class="node">
<title>Node3</title>
<g id="a_node3"><a xlink:title=" ">
<polygon fill="none" stroke="#bfbfbf" points="307.5,-112.5 307.5,-131.5 351.5,-131.5 351.5,-112.5 307.5,-112.5"/>
<text text-anchor="middle" x="329.5" y="-119.5" font-family="Helvetica,sans-Serif" font-size="10.00">string</text>
</a>
</g>
</g>
<!-- Node1&#45;&gt;Node3 -->
<g id="edge2" class="edge">
<title>Node1&#45;&gt;Node3</title>
<path fill="none" stroke="midnightblue" d="M331.31,-280.27C328.3,-269.64 325.01,-256.23 323.5,-244 319.37,-210.48 321.26,-201.7 323.5,-168 324.07,-159.34 325.27,-149.81 326.44,-141.75"/>
<polygon fill="midnightblue" stroke="midnightblue" points="329.94,-142.01 328.01,-131.59 323.02,-140.94 329.94,-142.01"/>
</g>
<!-- Node4 -->
<g id="node4" class="node">
<title>Node4</title>
<g id="a_node4"><a xlink:title=" ">
<polygon fill="none" stroke="#bfbfbf" points="379,-112.5 379,-131.5 448,-131.5 448,-112.5 379,-112.5"/>
<text text-anchor="middle" x="413.5" y="-119.5" font-family="Helvetica,sans-Serif" font-size="10.00">type_traits</text>
</a>
</g>
</g>
<!-- Node1&#45;&gt;Node4 -->
<g id="edge3" class="edge">
<title>Node1&#45;&gt;Node4</title>
<path fill="none" stroke="midnightblue" d="M345.92,-280.38C360.78,-245.78 391.42,-174.43 405.77,-141.01"/>
<polygon fill="midnightblue" stroke="midnightblue" points="409.08,-142.15 409.81,-131.58 402.65,-139.39 409.08,-142.15"/>
</g>
<!-- Node5 -->
<g id="node5" class="node">
<title>Node5</title>
<g id="a_node5"><a xlink:href="ErrorHandling_8h.html" target="_top" xlink:title=" ">
<polygon fill="none" stroke="black" points="110,-168.5 110,-187.5 271,-187.5 271,-168.5 110,-168.5"/>
<text text-anchor="middle" x="190.5" y="-175.5" font-family="Helvetica,sans-Serif" font-size="10.00">open62541pp/ErrorHandling.h</text>
</a>
</g>
</g>
<!-- Node1&#45;&gt;Node5 -->
<g id="edge4" class="edge">
<title>Node1&#45;&gt;Node5</title>
<path fill="none" stroke="midnightblue" d="M313.55,-280.29C284.19,-256.12 235.07,-215.69 208.65,-193.94"/>
<polygon fill="midnightblue" stroke="midnightblue" points="210.86,-191.23 200.92,-187.57 206.41,-196.63 210.86,-191.23"/>
</g>
<!-- Node7 -->
<g id="node7" class="node">
<title>Node7</title>
<g id="a_node7"><a xlink:href="open62541_8h.html" target="_top" xlink:title=" ">
<polygon fill="none" stroke="black" points="430,-56.5 430,-75.5 579,-75.5 579,-56.5 430,-56.5"/>
<text text-anchor="middle" x="504.5" y="-63.5" font-family="Helvetica,sans-Serif" font-size="10.00">open62541pp/open62541.h</text>
</a>
</g>
</g>
<!-- Node1&#45;&gt;Node7 -->
<g id="edge36" class="edge">
<title>Node1&#45;&gt;Node7</title>
<path fill="none" stroke="midnightblue" d="M240.76,-285.83C164.74,-269.42 75.54,-235.47 100.5,-168 111.87,-137.26 119.64,-127.54 148.5,-112 193.92,-87.54 329.57,-75.9 419.69,-70.72"/>
<polygon fill="midnightblue" stroke="midnightblue" points="420.11,-74.2 429.9,-70.15 419.72,-67.21 420.11,-74.2"/>
</g>
<!-- Node11 -->
<g id="node11" class="node">
<title>Node11</title>
<g id="a_node11"><a xlink:href="Helper_8h.html" target="_top" xlink:title=" ">
<polygon fill="none" stroke="black" points="441.5,-168.5 441.5,-187.5 567.5,-187.5 567.5,-168.5 441.5,-168.5"/>
<text text-anchor="middle" x="504.5" y="-175.5" font-family="Helvetica,sans-Serif" font-size="10.00">open62541pp/Helper.h</text>
</a>
</g>
</g>
<!-- Node1&#45;&gt;Node11 -->
<g id="edge11" class="edge">
<title>Node1&#45;&gt;Node11</title>
<path fill="none" stroke="midnightblue" d="M364.7,-280.29C398.21,-256.01 454.35,-215.34 484.27,-193.66"/>
<polygon fill="midnightblue" stroke="midnightblue" points="486.62,-196.28 492.67,-187.57 482.51,-190.61 486.62,-196.28"/>
</g>
<!-- Node13 -->
<g id="node13" class="node">
<title>Node13</title>
<g id="a_node13"><a xlink:href="Types_8h.html" target="_top" xlink:title=" ">
<polygon fill="none" stroke="black" points="674.5,-112.5 674.5,-131.5 796.5,-131.5 796.5,-112.5 674.5,-112.5"/>
<text text-anchor="middle" x="735.5" y="-119.5" font-family="Helvetica,sans-Serif" font-size="10.00">open62541pp/Types.h</text>
</a>
</g>
</g>
<!-- Node1&#45;&gt;Node13 -->
<g id="edge35" class="edge">
<title>Node1&#45;&gt;Node13</title>
<path fill="none" stroke="midnightblue" d="M434.16,-292.51C561.18,-280.28 773.06,-250.79 814.5,-188 829.38,-165.46 798.7,-146.76 771.35,-135.3"/>
<polygon fill="midnightblue" stroke="midnightblue" points="772.47,-131.98 761.89,-131.55 769.89,-138.48 772.47,-131.98"/>
</g>
<!-- Node16 -->
<g id="node16" class="node">
<title>Node16</title>
<g id="a_node16"><a xlink:href="Traits_8h.html" target="_top" xlink:title=" ">
<polygon fill="none" stroke="black" points="832,-56.5 832,-75.5 953,-75.5 953,-56.5 832,-56.5"/>
<text text-anchor="middle" x="892.5" y="-63.5" font-family="Helvetica,sans-Serif" font-size="10.00">open62541pp/Traits.h</text>
</a>
</g>
</g>
<!-- Node1&#45;&gt;Node16 -->
<g id="edge23" class="edge">
<title>Node1&#45;&gt;Node16</title>
<path fill="none" stroke="midnightblue" d="M434.12,-292.68C538.74,-283.75 698.2,-266.97 754.5,-244 793.02,-228.28 802.55,-219.69 829.5,-188 856.63,-156.1 876.34,-110.53 885.94,-85.41"/>
<polygon fill="midnightblue" stroke="midnightblue" points="889.34,-86.3 889.52,-75.7 882.77,-83.87 889.34,-86.3"/>
</g>
<!-- Node17 -->
<g id="node17" class="node">
<title>Node17</title>
<g id="a_node17"><a xlink:href="TypeWrapper_8h.html" target="_top" xlink:title=" ">
<polygon fill="none" stroke="black" points="516.5,-224.5 516.5,-243.5 674.5,-243.5 674.5,-224.5 516.5,-224.5"/>
<text text-anchor="middle" x="595.5" y="-231.5" font-family="Helvetica,sans-Serif" font-size="10.00">open62541pp/TypeWrapper.h</text>
</a>
</g>
</g>
<!-- Node1&#45;&gt;Node17 -->
<g id="edge24" class="edge">
<title>Node1&#45;&gt;Node17</title>
<path fill="none" stroke="midnightblue" d="M414.91,-280.5C459.54,-269.25 514.05,-255.52 551.43,-246.1"/>
<polygon fill="midnightblue" stroke="midnightblue" points="552.65,-249.4 561.5,-243.57 550.94,-242.62 552.65,-249.4"/>
</g>
<!-- Node5&#45;&gt;Node3 -->
<g id="edge6" class="edge">
<title>Node5&#45;&gt;Node3</title>
<path fill="none" stroke="midnightblue" d="M212.52,-168.44C235.6,-159.48 272.06,-145.31 298.14,-135.18"/>
<polygon fill="midnightblue" stroke="midnightblue" points="299.52,-138.4 307.58,-131.52 296.99,-131.88 299.52,-138.4"/>
</g>
<!-- Node6 -->
<g id="node6" class="node">
<title>Node6</title>
<g id="a_node6"><a xlink:title=" ">
<polygon fill="none" stroke="#bfbfbf" points="158,-112.5 158,-131.5 223,-131.5 223,-112.5 158,-112.5"/>
<text text-anchor="middle" x="190.5" y="-119.5" font-family="Helvetica,sans-Serif" font-size="10.00">stdexcept</text>
</a>
</g>
</g>
<!-- Node5&#45;&gt;Node6 -->
<g id="edge5" class="edge">
<title>Node5&#45;&gt;Node6</title>
<path fill="none" stroke="midnightblue" d="M190.5,-168.08C190.5,-161.01 190.5,-150.86 190.5,-141.99"/>
<polygon fill="midnightblue" stroke="midnightblue" points="194,-141.75 190.5,-131.75 187,-141.75 194,-141.75"/>
</g>
<!-- Node5&#45;&gt;Node7 -->
<g id="edge7" class="edge">
<title>Node5&#45;&gt;Node7</title>
<path fill="none" stroke="midnightblue" d="M201.82,-168.45C220.8,-154.54 260.68,-127.04 298.5,-112 340.52,-95.29 389.96,-84.23 429.86,-77.26"/>
<polygon fill="midnightblue" stroke="midnightblue" points="430.52,-80.7 439.79,-75.57 429.35,-73.79 430.52,-80.7"/>
</g>
<!-- Node8 -->
<g id="node8" class="node">
<title>Node8</title>
<g id="a_node8"><a xlink:href="open62541/nodeids_8h.html.html" xlink:title=" ">
<polygon fill="none" stroke="black" points="310,-0.5 310,-19.5 431,-19.5 431,-0.5 310,-0.5"/>
<text text-anchor="middle" x="370.5" y="-7.5" font-family="Helvetica,sans-Serif" font-size="10.00">open62541/nodeids.h</text>
</a>
</g>
</g>
<!-- Node7&#45;&gt;Node8 -->
<g id="edge8" class="edge">
<title>Node7&#45;&gt;Node8</title>
<path fill="none" stroke="midnightblue" d="M483.27,-56.44C461.12,-47.52 426.18,-33.44 401.06,-23.32"/>
<polygon fill="midnightblue" stroke="midnightblue" points="402.22,-20.01 391.63,-19.52 399.6,-26.5 402.22,-20.01"/>
</g>
<!-- Node9 -->
<g id="node9" class="node">
<title>Node9</title>
<g id="a_node9"><a xlink:href="open62541/types_8h.html.html" xlink:title=" ">
<polygon fill="none" stroke="black" points="449.5,-0.5 449.5,-19.5 559.5,-19.5 559.5,-0.5 449.5,-0.5"/>
<text text-anchor="middle" x="504.5" y="-7.5" font-family="Helvetica,sans-Serif" font-size="10.00">open62541/types.h</text>
</a>
</g>
</g>
<!-- Node7&#45;&gt;Node9 -->
<g id="edge9" class="edge">
<title>Node7&#45;&gt;Node9</title>
<path fill="none" stroke="midnightblue" d="M504.5,-56.08C504.5,-49.01 504.5,-38.86 504.5,-29.99"/>
<polygon fill="midnightblue" stroke="midnightblue" points="508,-29.75 504.5,-19.75 501,-29.75 508,-29.75"/>
</g>
<!-- Node10 -->
<g id="node10" class="node">
<title>Node10</title>
<g id="a_node10"><a xlink:href="open62541/types__generated_8h.html.html" xlink:title=" ">
<polygon fill="none" stroke="black" points="577.5,-0.5 577.5,-19.5 741.5,-19.5 741.5,-0.5 577.5,-0.5"/>
<text text-anchor="middle" x="659.5" y="-7.5" font-family="Helvetica,sans-Serif" font-size="10.00">open62541/types_generated.h</text>
</a>
</g>
</g>
<!-- Node7&#45;&gt;Node10 -->
<g id="edge10" class="edge">
<title>Node7&#45;&gt;Node10</title>
<path fill="none" stroke="midnightblue" d="M529.06,-56.44C555.02,-47.4 596.17,-33.06 625.3,-22.92"/>
<polygon fill="midnightblue" stroke="midnightblue" points="626.76,-26.11 635.05,-19.52 624.46,-19.5 626.76,-26.11"/>
</g>
<!-- Node11&#45;&gt;Node3 -->
<g id="edge12" class="edge">
<title>Node11&#45;&gt;Node3</title>
<path fill="none" stroke="midnightblue" d="M476.77,-168.44C445.33,-158.74 394.16,-142.95 361.17,-132.77"/>
<polygon fill="midnightblue" stroke="midnightblue" points="362.15,-129.41 351.56,-129.81 360.08,-136.1 362.15,-129.41"/>
</g>
<!-- Node11&#45;&gt;Node4 -->
<g id="edge14" class="edge">
<title>Node11&#45;&gt;Node4</title>
<path fill="none" stroke="midnightblue" d="M489.88,-168.32C475.55,-159.82 453.49,-146.73 436.75,-136.8"/>
<polygon fill="midnightblue" stroke="midnightblue" points="438.47,-133.75 428.08,-131.65 434.9,-139.77 438.47,-133.75"/>
</g>
<!-- Node11&#45;&gt;Node7 -->
<g id="edge22" class="edge">
<title>Node11&#45;&gt;Node7</title>
<path fill="none" stroke="midnightblue" d="M504.5,-168.37C504.5,-150.62 504.5,-109.67 504.5,-85.6"/>
<polygon fill="midnightblue" stroke="midnightblue" points="508,-85.59 504.5,-75.59 501,-85.59 508,-85.59"/>
</g>
<!-- Node12 -->
<g id="node12" class="node">
<title>Node12</title>
<g id="a_node12"><a xlink:title=" ">
<polygon fill="none" stroke="#bfbfbf" points="597,-56.5 597,-75.5 670,-75.5 670,-56.5 597,-56.5"/>
<text text-anchor="middle" x="633.5" y="-63.5" font-family="Helvetica,sans-Serif" font-size="10.00">string_view</text>
</a>
</g>
</g>
<!-- Node11&#45;&gt;Node12 -->
<g id="edge13" class="edge">
<title>Node11&#45;&gt;Node12</title>
<path fill="none" stroke="midnightblue" d="M514.62,-168.37C536.48,-149.73 588.31,-105.53 615.75,-82.13"/>
<polygon fill="midnightblue" stroke="midnightblue" points="618.09,-84.74 623.42,-75.59 613.54,-79.42 618.09,-84.74"/>
</g>
<!-- Node11&#45;&gt;Node13 -->
<g id="edge15" class="edge">
<title>Node11&#45;&gt;Node13</title>
<path fill="none" stroke="midnightblue" d="M541.1,-168.44C581.23,-159.06 645.7,-143.99 689.28,-133.8"/>
<polygon fill="midnightblue" stroke="midnightblue" points="690.13,-137.2 699.07,-131.52 688.53,-130.38 690.13,-137.2"/>
</g>
<!-- Node13&#45;&gt;Node7 -->
<g id="edge21" class="edge">
<title>Node13&#45;&gt;Node7</title>
<path fill="none" stroke="midnightblue" d="M698.9,-112.44C658.77,-103.06 594.3,-87.99 550.72,-77.8"/>
<polygon fill="midnightblue" stroke="midnightblue" points="551.47,-74.38 540.93,-75.52 549.87,-81.2 551.47,-74.38"/>
</g>
<!-- Node13&#45;&gt;Node12 -->
<g id="edge17" class="edge">
<title>Node13&#45;&gt;Node12</title>
<path fill="none" stroke="midnightblue" d="M719.11,-112.32C702.83,-103.7 677.63,-90.36 658.78,-80.39"/>
<polygon fill="midnightblue" stroke="midnightblue" points="660.32,-77.24 649.85,-75.65 657.05,-83.43 660.32,-77.24"/>
</g>
<!-- Node14 -->
<g id="node14" class="node">
<title>Node14</title>
<g id="a_node14"><a xlink:title=" ">
<polygon fill="none" stroke="#bfbfbf" points="763.5,-56.5 763.5,-75.5 813.5,-75.5 813.5,-56.5 763.5,-56.5"/>
<text text-anchor="middle" x="788.5" y="-63.5" font-family="Helvetica,sans-Serif" font-size="10.00">cstdint</text>
</a>
</g>
</g>
<!-- Node13&#45;&gt;Node14 -->
<g id="edge16" class="edge">
<title>Node13&#45;&gt;Node14</title>
<path fill="none" stroke="midnightblue" d="M744.25,-112.08C751.97,-104.22 763.4,-92.57 772.72,-83.08"/>
<polygon fill="midnightblue" stroke="midnightblue" points="775.4,-85.34 779.91,-75.75 770.41,-80.44 775.4,-85.34"/>
</g>
<!-- Node15 -->
<g id="node15" class="node">
<title>Node15</title>
<g id="a_node15"><a xlink:title=" ">
<polygon fill="none" stroke="#bfbfbf" points="816,-0.5 816,-19.5 857,-19.5 857,-0.5 816,-0.5"/>
<text text-anchor="middle" x="836.5" y="-7.5" font-family="Helvetica,sans-Serif" font-size="10.00">tuple</text>
</a>
</g>
</g>
<!-- Node13&#45;&gt;Node15 -->
<g id="edge18" class="edge">
<title>Node13&#45;&gt;Node15</title>
<path fill="none" stroke="midnightblue" d="M735.95,-112.47C737.07,-99.07 740.95,-72.87 754.5,-56 767.76,-39.49 788.79,-28.12 806.23,-20.94"/>
<polygon fill="midnightblue" stroke="midnightblue" points="807.92,-24.04 816,-17.19 805.41,-17.51 807.92,-24.04"/>
</g>
<!-- Node13&#45;&gt;Node16 -->
<g id="edge19" class="edge">
<title>Node13&#45;&gt;Node16</title>
<path fill="none" stroke="midnightblue" d="M760.38,-112.44C786.79,-103.36 828.72,-88.94 858.24,-78.78"/>
<polygon fill="midnightblue" stroke="midnightblue" points="859.42,-82.08 867.74,-75.52 857.14,-75.46 859.42,-82.08"/>
</g>
<!-- Node16&#45;&gt;Node15 -->
<g id="edge20" class="edge">
<title>Node16&#45;&gt;Node15</title>
<path fill="none" stroke="midnightblue" d="M883.5,-56.32C875.31,-48.42 862.99,-36.55 853.03,-26.94"/>
<polygon fill="midnightblue" stroke="midnightblue" points="855.29,-24.26 845.66,-19.83 850.43,-29.29 855.29,-24.26"/>
</g>
<!-- Node17&#45;&gt;Node3 -->
<g id="edge27" class="edge">
<title>Node17&#45;&gt;Node3</title>
<path fill="none" stroke="midnightblue" d="M536.72,-224.47C500.52,-217.74 453.86,-206.34 415.5,-188 388.76,-175.21 362.19,-153.36 345.81,-138.56"/>
<polygon fill="midnightblue" stroke="midnightblue" points="347.95,-135.77 338.23,-131.55 343.19,-140.91 347.95,-135.77"/>
</g>
<!-- Node17&#45;&gt;Node4 -->
<g id="edge29" class="edge">
<title>Node17&#45;&gt;Node4</title>
<path fill="none" stroke="midnightblue" d="M516.45,-227.33C486.72,-221.41 454.77,-209.94 432.5,-188 420.34,-176.02 415.86,-156.72 414.26,-142.26"/>
<polygon fill="midnightblue" stroke="midnightblue" points="417.73,-141.65 413.51,-131.93 410.75,-142.16 417.73,-141.65"/>
</g>
<!-- Node17&#45;&gt;Node5 -->
<g id="edge31" class="edge">
<title>Node17&#45;&gt;Node5</title>
<path fill="none" stroke="midnightblue" d="M531.33,-224.44C458.75,-214.77 340.76,-199.04 264.4,-188.85"/>
<polygon fill="midnightblue" stroke="midnightblue" points="264.75,-185.37 254.37,-187.52 263.82,-192.31 264.75,-185.37"/>
</g>
<!-- Node17&#45;&gt;Node7 -->
<g id="edge34" class="edge">
<title>Node17&#45;&gt;Node7</title>
<path fill="none" stroke="midnightblue" d="M593.91,-224.25C591.38,-211.44 585.74,-187.04 576.5,-168 560.76,-135.58 534.83,-102.38 518.76,-83.28"/>
<polygon fill="midnightblue" stroke="midnightblue" points="521.3,-80.87 512.14,-75.55 515.98,-85.42 521.3,-80.87"/>
</g>
<!-- Node17&#45;&gt;Node11 -->
<g id="edge32" class="edge">
<title>Node17&#45;&gt;Node11</title>
<path fill="none" stroke="midnightblue" d="M580.88,-224.32C566.55,-215.82 544.49,-202.73 527.75,-192.8"/>
<polygon fill="midnightblue" stroke="midnightblue" points="529.47,-189.75 519.08,-187.65 525.9,-195.77 529.47,-189.75"/>
</g>
<!-- Node17&#45;&gt;Node12 -->
<g id="edge28" class="edge">
<title>Node17&#45;&gt;Node12</title>
<path fill="none" stroke="midnightblue" d="M598.46,-224.45C601.5,-215.45 606.24,-200.85 609.5,-188 618.61,-152.15 626.35,-109.59 630.42,-85.7"/>
<polygon fill="midnightblue" stroke="midnightblue" points="633.92,-86.02 632.12,-75.58 627.02,-84.86 633.92,-86.02"/>
</g>
<!-- Node17&#45;&gt;Node13 -->
<g id="edge33" class="edge">
<title>Node17&#45;&gt;Node13</title>
<path fill="none" stroke="midnightblue" d="M648.59,-224.42C672.28,-218.05 698.79,-207.03 716.5,-188 728.13,-175.51 732.68,-156.28 734.44,-141.97"/>
<polygon fill="midnightblue" stroke="midnightblue" points="737.95,-142.04 735.33,-131.77 730.97,-141.43 737.95,-142.04"/>
</g>
<!-- Node17&#45;&gt;Node14 -->
<g id="edge26" class="edge">
<title>Node17&#45;&gt;Node14</title>
<path fill="none" stroke="midnightblue" d="M674.72,-227.1C729.99,-221.15 796.87,-209.62 814.5,-188 839.06,-157.88 815.93,-109.91 800.24,-84.36"/>
<polygon fill="midnightblue" stroke="midnightblue" points="803.06,-82.27 794.71,-75.74 797.17,-86.05 803.06,-82.27"/>
</g>
<!-- Node18 -->
<g id="node18" class="node">
<title>Node18</title>
<g id="a_node18"><a xlink:title=" ">
<polygon fill="none" stroke="#bfbfbf" points="763.5,-168.5 763.5,-187.5 805.5,-187.5 805.5,-168.5 763.5,-168.5"/>
<text text-anchor="middle" x="784.5" y="-175.5" font-family="Helvetica,sans-Serif" font-size="10.00">array</text>
</a>
</g>
</g>
<!-- Node17&#45;&gt;Node18 -->
<g id="edge25" class="edge">
<title>Node17&#45;&gt;Node18</title>
<path fill="none" stroke="midnightblue" d="M625.45,-224.44C660.5,-214.43 718.25,-197.93 753.68,-187.81"/>
<polygon fill="midnightblue" stroke="midnightblue" points="754.82,-191.12 763.47,-185.01 752.89,-184.39 754.82,-191.12"/>
</g>
<!-- Node19 -->
<g id="node19" class="node">
<title>Node19</title>
<g id="a_node19"><a xlink:title=" ">
<polygon fill="none" stroke="#bfbfbf" points="662,-168.5 662,-187.5 707,-187.5 707,-168.5 662,-168.5"/>
<text text-anchor="middle" x="684.5" y="-175.5" font-family="Helvetica,sans-Serif" font-size="10.00">utility</text>
</a>
</g>
</g>
<!-- Node17&#45;&gt;Node19 -->
<g id="edge30" class="edge">
<title>Node17&#45;&gt;Node19</title>
<path fill="none" stroke="midnightblue" d="M609.8,-224.32C623.68,-215.9 644.99,-202.97 661.3,-193.07"/>
<polygon fill="midnightblue" stroke="midnightblue" points="663.5,-195.83 670.24,-187.65 659.87,-189.85 663.5,-195.83"/>
</g>
</g>
</svg>
