<?xml version="1.0" encoding="UTF-8" standalone="no"?>
<!DOCTYPE svg PUBLIC "-//W3C//DTD SVG 1.1//EN"
 "http://www.w3.org/Graphics/SVG/1.1/DTD/svg11.dtd">
<!-- Generated by graphviz version 2.43.0 (0)
 -->
<!-- Title: /home/runner/work/open62541pp/open62541pp/include/open62541pp/detail/types_conversion.hpp Pages: 1 -->
<svg width="1597pt" height="478pt"
 viewBox="0.00 0.00 1596.64 478.00" xmlns="http://www.w3.org/2000/svg" xmlns:xlink="http://www.w3.org/1999/xlink">
<g id="graph0" class="graph" transform="scale(1 1) rotate(0) translate(4 474)">
<title>/home/runner/work/open62541pp/open62541pp/include/open62541pp/detail/types_conversion.hpp</title>
<!-- Node1 -->
<g id="Node000001" class="node">
<title>Node1</title>
<g id="a_Node000001"><a xlink:title=" ">
<polygon fill="#999999" stroke="#666666" points="468.01,-470 275.01,-470 275.01,-429 468.01,-429 468.01,-470"/>
<text text-anchor="start" x="283.01" y="-458" font-family="Helvetica,sans-Serif" font-size="10.00">/home/runner/work/open62541pp</text>
<text text-anchor="start" x="283.01" y="-447" font-family="Helvetica,sans-Serif" font-size="10.00">/open62541pp/include/open62541pp</text>
<text text-anchor="middle" x="371.51" y="-436" font-family="Helvetica,sans-Serif" font-size="10.00">/detail/types_conversion.hpp</text>
</a>
</g>
</g>
<!-- Node2 -->
<g id="Node000002" class="node">
<title>Node2</title>
<g id="a_Node000002"><a xlink:title=" ">
<polygon fill="#e0e0e0" stroke="#999999" points="167.01,-266.5 94.01,-266.5 94.01,-247.5 167.01,-247.5 167.01,-266.5"/>
<text text-anchor="middle" x="130.51" y="-254.5" font-family="Helvetica,sans-Serif" font-size="10.00">string_view</text>
</a>
</g>
</g>
<!-- Node1&#45;&gt;Node2 -->
<g id="edge1_Node000001_Node000002" class="edge">
<title>Node1&#45;&gt;Node2</title>
<g id="a_edge1_Node000001_Node000002"><a xlink:title=" ">
<path fill="none" stroke="#63b8ff" d="M320.26,-428.86C277.5,-410.47 217.07,-379.59 175.51,-338 157.7,-320.17 144.72,-293.83 137.4,-276.31"/>
<polygon fill="#63b8ff" stroke="#63b8ff" points="140.53,-274.69 133.58,-266.69 134.02,-277.27 140.53,-274.69"/>
</a>
</g>
</g>
<!-- Node3 -->
<g id="Node000003" class="node">
<title>Node3</title>
<g id="a_Node000003"><a xlink:title=" ">
<polygon fill="#e0e0e0" stroke="#999999" points="432.01,-200.5 363.01,-200.5 363.01,-181.5 432.01,-181.5 432.01,-200.5"/>
<text text-anchor="middle" x="397.51" y="-188.5" font-family="Helvetica,sans-Serif" font-size="10.00">type_traits</text>
</a>
</g>
</g>
<!-- Node1&#45;&gt;Node3 -->
<g id="edge2_Node000001_Node000003" class="edge">
<title>Node1&#45;&gt;Node3</title>
<g id="a_edge2_Node000001_Node000003"><a xlink:title=" ">
<path fill="none" stroke="#63b8ff" d="M275.01,-448.6C152.91,-444.18 -36.67,-419.7 6.51,-308 20.81,-271.02 31.56,-260.71 66.51,-242 115.25,-215.92 274.29,-200.99 352.82,-195.04"/>
<polygon fill="#63b8ff" stroke="#63b8ff" points="353.18,-198.52 362.9,-194.29 352.67,-191.54 353.18,-198.52"/>
</a>
</g>
</g>
<!-- Node4 -->
<g id="Node000004" class="node">
<title>Node4</title>
<g id="a_Node000004"><a xlink:href="types__handling_8hpp.html" target="_top" xlink:title=" ">
<polygon fill="white" stroke="#666666" points="819.01,-338 704.01,-338 704.01,-308 819.01,-308 819.01,-338"/>
<text text-anchor="start" x="712.01" y="-326" font-family="Helvetica,sans-Serif" font-size="10.00">open62541pp/detail</text>
<text text-anchor="middle" x="761.51" y="-315" font-family="Helvetica,sans-Serif" font-size="10.00">/types_handling.hpp</text>
</a>
</g>
</g>
<!-- Node1&#45;&gt;Node4 -->
<g id="edge3_Node000001_Node000004" class="edge">
<title>Node1&#45;&gt;Node4</title>
<g id="a_edge3_Node000001_Node000004"><a xlink:title=" ">
<path fill="none" stroke="#63b8ff" d="M437.72,-428.9C472.55,-418.46 515.92,-405.28 554.51,-393 607.98,-375.98 668.88,-355.56 710.71,-341.37"/>
<polygon fill="#63b8ff" stroke="#63b8ff" points="712.04,-344.61 720.38,-338.08 709.79,-337.98 712.04,-344.61"/>
</a>
</g>
</g>
<!-- Node29 -->
<g id="Node000029" class="node">
<title>Node29</title>
<g id="a_Node000029"><a xlink:href="span_8hpp.html" target="_top" xlink:title=" ">
<polygon fill="white" stroke="#666666" points="1372.51,-332.5 1242.51,-332.5 1242.51,-313.5 1372.51,-313.5 1372.51,-332.5"/>
<text text-anchor="middle" x="1307.51" y="-320.5" font-family="Helvetica,sans-Serif" font-size="10.00">open62541pp/span.hpp</text>
</a>
</g>
</g>
<!-- Node1&#45;&gt;Node29 -->
<g id="edge37_Node000001_Node000029" class="edge">
<title>Node1&#45;&gt;Node29</title>
<g id="a_edge37_Node000001_Node000029"><a xlink:title=" ">
<path fill="none" stroke="#63b8ff" d="M468.16,-435.65C655.71,-410.7 1065.35,-356.21 1233.37,-333.86"/>
<polygon fill="#63b8ff" stroke="#63b8ff" points="1233.91,-337.32 1243.36,-332.53 1232.98,-330.38 1233.91,-337.32"/>
</a>
</g>
</g>
<!-- Node33 -->
<g id="Node000033" class="node">
<title>Node33</title>
<g id="a_Node000033"><a xlink:href="string__utils_8hpp.html" target="_top" xlink:title=" ">
<polygon fill="white" stroke="#666666" points="129.01,-338 16.01,-338 16.01,-308 129.01,-308 129.01,-338"/>
<text text-anchor="start" x="24.01" y="-326" font-family="Helvetica,sans-Serif" font-size="10.00">open62541pp/detail</text>
<text text-anchor="middle" x="72.51" y="-315" font-family="Helvetica,sans-Serif" font-size="10.00">/string_utils.hpp</text>
</a>
</g>
</g>
<!-- Node1&#45;&gt;Node33 -->
<g id="edge48_Node000001_Node000033" class="edge">
<title>Node1&#45;&gt;Node33</title>
<g id="a_edge48_Node000001_Node000033"><a xlink:title=" ">
<path fill="none" stroke="#63b8ff" d="M275,-436.69C232.73,-428.63 183.72,-415.22 143.51,-393 122.32,-381.28 102.95,-361.56 89.81,-346.2"/>
<polygon fill="#63b8ff" stroke="#63b8ff" points="92.25,-343.66 83.18,-338.19 86.86,-348.12 92.25,-343.66"/>
</a>
</g>
</g>
<!-- Node34 -->
<g id="Node000034" class="node">
<title>Node34</title>
<g id="a_Node000034"><a xlink:href="typeregistry_8hpp.html" target="_top" xlink:title=" ">
<polygon fill="white" stroke="#666666" points="554.51,-332.5 390.51,-332.5 390.51,-313.5 554.51,-313.5 554.51,-332.5"/>
<text text-anchor="middle" x="472.51" y="-320.5" font-family="Helvetica,sans-Serif" font-size="10.00">open62541pp/typeregistry.hpp</text>
</a>
</g>
</g>
<!-- Node1&#45;&gt;Node34 -->
<g id="edge51_Node000001_Node000034" class="edge">
<title>Node1&#45;&gt;Node34</title>
<g id="a_edge51_Node000001_Node000034"><a xlink:title=" ">
<path fill="none" stroke="#63b8ff" d="M372.5,-428.72C374.2,-412.61 378.69,-389.99 390.51,-374 402.89,-357.26 422.7,-344.95 439.75,-336.74"/>
<polygon fill="#63b8ff" stroke="#63b8ff" points="441.22,-339.91 448.88,-332.59 438.33,-333.54 441.22,-339.91"/>
</a>
</g>
</g>
<!-- Node35 -->
<g id="Node000035" class="node">
<title>Node35</title>
<g id="a_Node000035"><a xlink:href="wrapper_8hpp.html" target="_top" xlink:title=" ">
<polygon fill="white" stroke="#666666" points="545.51,-393 399.51,-393 399.51,-374 545.51,-374 545.51,-393"/>
<text text-anchor="middle" x="472.51" y="-381" font-family="Helvetica,sans-Serif" font-size="10.00">open62541pp/wrapper.hpp</text>
</a>
</g>
</g>
<!-- Node1&#45;&gt;Node35 -->
<g id="edge55_Node000001_Node000035" class="edge">
<title>Node1&#45;&gt;Node35</title>
<g id="a_edge55_Node000001_Node000035"><a xlink:title=" ">
<path fill="none" stroke="#63b8ff" d="M402.37,-428.95C417.88,-419.12 436.33,-407.43 450.41,-398.51"/>
<polygon fill="#63b8ff" stroke="#63b8ff" points="452.38,-401.4 458.96,-393.09 448.64,-395.49 452.38,-401.4"/>
</a>
</g>
</g>
<!-- Node4&#45;&gt;Node3 -->
<g id="edge10_Node000004_Node000003" class="edge">
<title>Node4&#45;&gt;Node3</title>
<g id="a_edge10_Node000004_Node000003"><a xlink:title=" ">
<path fill="none" stroke="#63b8ff" d="M703.79,-319.78C647.47,-315.69 560.57,-304.19 492.51,-272 459.72,-256.49 429,-226.82 411.79,-208.29"/>
<polygon fill="#63b8ff" stroke="#63b8ff" points="414.19,-205.72 404.88,-200.66 409,-210.42 414.19,-205.72"/>
</a>
</g>
</g>
<!-- Node5 -->
<g id="Node000005" class="node">
<title>Node5</title>
<g id="a_Node000005"><a xlink:title=" ">
<polygon fill="#e0e0e0" stroke="#999999" points="1266.51,-266.5 1202.51,-266.5 1202.51,-247.5 1266.51,-247.5 1266.51,-266.5"/>
<text text-anchor="middle" x="1234.51" y="-254.5" font-family="Helvetica,sans-Serif" font-size="10.00">algorithm</text>
</a>
</g>
</g>
<!-- Node4&#45;&gt;Node5 -->
<g id="edge4_Node000004_Node000005" class="edge">
<title>Node4&#45;&gt;Node5</title>
<g id="a_edge4_Node000004_Node000005"><a xlink:title=" ">
<path fill="none" stroke="#63b8ff" d="M819.12,-319.25C902.56,-314.39 1061.51,-301.82 1193.51,-272 1196.5,-271.33 1199.57,-270.51 1202.63,-269.62"/>
<polygon fill="#63b8ff" stroke="#63b8ff" points="1203.73,-272.94 1212.21,-266.58 1201.62,-266.27 1203.73,-272.94"/>
</a>
</g>
</g>
<!-- Node6 -->
<g id="Node000006" class="node">
<title>Node6</title>
<g id="a_Node000006"><a xlink:title=" ">
<polygon fill="#e0e0e0" stroke="#999999" points="1184.51,-266.5 1132.51,-266.5 1132.51,-247.5 1184.51,-247.5 1184.51,-266.5"/>
<text text-anchor="middle" x="1158.51" y="-254.5" font-family="Helvetica,sans-Serif" font-size="10.00">cassert</text>
</a>
</g>
</g>
<!-- Node4&#45;&gt;Node6 -->
<g id="edge5_Node000004_Node000006" class="edge">
<title>Node4&#45;&gt;Node6</title>
<g id="a_edge5_Node000004_Node000006"><a xlink:title=" ">
<path fill="none" stroke="#63b8ff" d="M819.05,-317.47C890.16,-311.06 1014.51,-297.22 1118.51,-272 1121.17,-271.36 1123.9,-270.6 1126.62,-269.79"/>
<polygon fill="#63b8ff" stroke="#63b8ff" points="1127.89,-273.06 1136.32,-266.64 1125.73,-266.4 1127.89,-273.06"/>
</a>
</g>
</g>
<!-- Node7 -->
<g id="Node000007" class="node">
<title>Node7</title>
<g id="a_Node000007"><a xlink:title=" ">
<polygon fill="#e0e0e0" stroke="#999999" points="733.51,-266.5 683.51,-266.5 683.51,-247.5 733.51,-247.5 733.51,-266.5"/>
<text text-anchor="middle" x="708.51" y="-254.5" font-family="Helvetica,sans-Serif" font-size="10.00">cstring</text>
</a>
</g>
</g>
<!-- Node4&#45;&gt;Node7 -->
<g id="edge6_Node000004_Node000007" class="edge">
<title>Node4&#45;&gt;Node7</title>
<g id="a_edge6_Node000004_Node000007"><a xlink:title=" ">
<path fill="none" stroke="#63b8ff" d="M749.75,-307.8C741.65,-298.01 730.86,-284.98 722.34,-274.7"/>
<polygon fill="#63b8ff" stroke="#63b8ff" points="724.91,-272.31 715.84,-266.84 719.52,-276.78 724.91,-272.31"/>
</a>
</g>
</g>
<!-- Node8 -->
<g id="Node000008" class="node">
<title>Node8</title>
<g id="a_Node000008"><a xlink:title=" ">
<polygon fill="#e0e0e0" stroke="#999999" points="1131.01,-200.5 1078.01,-200.5 1078.01,-181.5 1131.01,-181.5 1131.01,-200.5"/>
<text text-anchor="middle" x="1104.51" y="-188.5" font-family="Helvetica,sans-Serif" font-size="10.00">iterator</text>
</a>
</g>
</g>
<!-- Node4&#45;&gt;Node8 -->
<g id="edge7_Node000004_Node000008" class="edge">
<title>Node4&#45;&gt;Node8</title>
<g id="a_edge7_Node000004_Node000008"><a xlink:title=" ">
<path fill="none" stroke="#63b8ff" d="M819.24,-320.62C901.78,-317.44 1047.72,-306.89 1085.51,-272 1102.28,-256.53 1105.52,-229.19 1105.58,-210.84"/>
<polygon fill="#63b8ff" stroke="#63b8ff" points="1109.08,-210.66 1105.31,-200.76 1102.08,-210.85 1109.08,-210.66"/>
</a>
</g>
</g>
<!-- Node9 -->
<g id="Node000009" class="node">
<title>Node9</title>
<g id="a_Node000009"><a xlink:title=" ">
<polygon fill="#e0e0e0" stroke="#999999" points="627.51,-266.5 569.51,-266.5 569.51,-247.5 627.51,-247.5 627.51,-266.5"/>
<text text-anchor="middle" x="598.51" y="-254.5" font-family="Helvetica,sans-Serif" font-size="10.00">memory</text>
</a>
</g>
</g>
<!-- Node4&#45;&gt;Node9 -->
<g id="edge8_Node000004_Node000009" class="edge">
<title>Node4&#45;&gt;Node9</title>
<g id="a_edge8_Node000004_Node000009"><a xlink:title=" ">
<path fill="none" stroke="#63b8ff" d="M725.74,-307.95C697.03,-296.68 657.13,-281.01 629.7,-270.25"/>
<polygon fill="#63b8ff" stroke="#63b8ff" points="630.79,-266.91 620.21,-266.52 628.24,-273.43 630.79,-266.91"/>
</a>
</g>
</g>
<!-- Node10 -->
<g id="Node000010" class="node">
<title>Node10</title>
<g id="a_Node000010"><a xlink:title=" ">
<polygon fill="#e0e0e0" stroke="#999999" points="864.01,-200.5 827.01,-200.5 827.01,-181.5 864.01,-181.5 864.01,-200.5"/>
<text text-anchor="middle" x="845.51" y="-188.5" font-family="Helvetica,sans-Serif" font-size="10.00">new</text>
</a>
</g>
</g>
<!-- Node4&#45;&gt;Node10 -->
<g id="edge9_Node000004_Node000010" class="edge">
<title>Node4&#45;&gt;Node10</title>
<g id="a_edge9_Node000004_Node000010"><a xlink:title=" ">
<path fill="none" stroke="#63b8ff" d="M762.28,-307.89C763.78,-290.99 768.25,-262.41 781.51,-242 791.19,-227.11 806.84,-214.77 820.23,-206.07"/>
<polygon fill="#63b8ff" stroke="#63b8ff" points="822.37,-208.87 829.05,-200.65 818.7,-202.91 822.37,-208.87"/>
</a>
</g>
</g>
<!-- Node11 -->
<g id="Node000011" class="node">
<title>Node11</title>
<g id="a_Node000011"><a xlink:title=" ">
<polygon fill="#e0e0e0" stroke="#999999" points="1330.01,-266.5 1285.01,-266.5 1285.01,-247.5 1330.01,-247.5 1330.01,-266.5"/>
<text text-anchor="middle" x="1307.51" y="-254.5" font-family="Helvetica,sans-Serif" font-size="10.00">utility</text>
</a>
</g>
</g>
<!-- Node4&#45;&gt;Node11 -->
<g id="edge11_Node000004_Node000011" class="edge">
<title>Node4&#45;&gt;Node11</title>
<g id="a_edge11_Node000004_Node000011"><a xlink:title=" ">
<path fill="none" stroke="#63b8ff" d="M819.41,-318.67C935.01,-311.64 1190.59,-294.11 1275.51,-272 1277.41,-271.51 1279.33,-270.92 1281.25,-270.26"/>
<polygon fill="#63b8ff" stroke="#63b8ff" points="1282.57,-273.5 1290.6,-266.58 1280.01,-266.99 1282.57,-273.5"/>
</a>
</g>
</g>
<!-- Node12 -->
<g id="Node000012" class="node">
<title>Node12</title>
<g id="a_Node000012"><a xlink:href="common_8h.html" target="_top" xlink:title=" ">
<polygon fill="white" stroke="#666666" points="649.51,-206 521.51,-206 521.51,-176 649.51,-176 649.51,-206"/>
<text text-anchor="start" x="529.51" y="-194" font-family="Helvetica,sans-Serif" font-size="10.00">open62541pp/detail</text>
<text text-anchor="middle" x="585.51" y="-183" font-family="Helvetica,sans-Serif" font-size="10.00">/open62541/common.h</text>
</a>
</g>
</g>
<!-- Node4&#45;&gt;Node12 -->
<g id="edge12_Node000004_Node000012" class="edge">
<title>Node4&#45;&gt;Node12</title>
<g id="a_edge12_Node000004_Node000012"><a xlink:title=" ">
<path fill="none" stroke="#63b8ff" d="M733.56,-307.88C716.03,-298.56 693.28,-285.59 674.51,-272 649.71,-254.03 623.96,-230.23 606.58,-213.27"/>
<polygon fill="#63b8ff" stroke="#63b8ff" points="608.79,-210.54 599.21,-206 603.87,-215.52 608.79,-210.54"/>
</a>
</g>
</g>
<!-- Node25 -->
<g id="Node000025" class="node">
<title>Node25</title>
<g id="a_Node000025"><a xlink:href="traits_8hpp.html" target="_top" xlink:title=" ">
<polygon fill="white" stroke="#666666" points="903.01,-272 790.01,-272 790.01,-242 903.01,-242 903.01,-272"/>
<text text-anchor="start" x="798.01" y="-260" font-family="Helvetica,sans-Serif" font-size="10.00">open62541pp/detail</text>
<text text-anchor="middle" x="846.51" y="-249" font-family="Helvetica,sans-Serif" font-size="10.00">/traits.hpp</text>
</a>
</g>
</g>
<!-- Node4&#45;&gt;Node25 -->
<g id="edge29_Node000004_Node000025" class="edge">
<title>Node4&#45;&gt;Node25</title>
<g id="a_edge29_Node000004_Node000025"><a xlink:title=" ">
<path fill="none" stroke="#63b8ff" d="M780.38,-307.8C791.93,-299.1 806.91,-287.82 819.68,-278.2"/>
<polygon fill="#63b8ff" stroke="#63b8ff" points="821.82,-280.98 827.7,-272.16 817.61,-275.38 821.82,-280.98"/>
</a>
</g>
</g>
<!-- Node26 -->
<g id="Node000026" class="node">
<title>Node26</title>
<g id="a_Node000026"><a xlink:href="exception_8hpp.html" target="_top" xlink:title=" ">
<polygon fill="white" stroke="#666666" points="1076.01,-266.5 921.01,-266.5 921.01,-247.5 1076.01,-247.5 1076.01,-266.5"/>
<text text-anchor="middle" x="998.51" y="-254.5" font-family="Helvetica,sans-Serif" font-size="10.00">open62541pp/exception.hpp</text>
</a>
</g>
</g>
<!-- Node4&#45;&gt;Node26 -->
<g id="edge32_Node000004_Node000026" class="edge">
<title>Node4&#45;&gt;Node26</title>
<g id="a_edge32_Node000004_Node000026"><a xlink:title=" ">
<path fill="none" stroke="#63b8ff" d="M813.53,-307.95C856.74,-296.29 917.39,-279.91 957.3,-269.13"/>
<polygon fill="#63b8ff" stroke="#63b8ff" points="958.23,-272.5 966.97,-266.52 956.41,-265.75 958.23,-272.5"/>
</a>
</g>
</g>
<!-- Node13 -->
<g id="Node000013" class="node">
<title>Node13</title>
<g id="a_Node000013"><a xlink:title=" ">
<polygon fill="#e0e0e0" stroke="#999999" points="241.51,-140 105.51,-140 105.51,-121 241.51,-121 241.51,-140"/>
<text text-anchor="middle" x="173.51" y="-128" font-family="Helvetica,sans-Serif" font-size="10.00">open62541pp/config.hpp</text>
</a>
</g>
</g>
<!-- Node12&#45;&gt;Node13 -->
<g id="edge13_Node000012_Node000013" class="edge">
<title>Node12&#45;&gt;Node13</title>
<g id="a_edge13_Node000012_Node000013"><a xlink:title=" ">
<path fill="none" stroke="#63b8ff" d="M521.14,-180.86C445.77,-170.16 321.36,-152.49 243.61,-141.45"/>
<polygon fill="#63b8ff" stroke="#63b8ff" points="243.82,-137.95 233.42,-140.01 242.83,-144.88 243.82,-137.95"/>
</a>
</g>
</g>
<!-- Node14 -->
<g id="Node000014" class="node">
<title>Node14</title>
<g id="a_Node000014"><a xlink:href="push__options_8h.html" target="_top" xlink:title=" ">
<polygon fill="white" stroke="#666666" points="347.51,-30 197.51,-30 197.51,0 347.51,0 347.51,-30"/>
<text text-anchor="start" x="205.51" y="-18" font-family="Helvetica,sans-Serif" font-size="10.00">open62541pp/detail</text>
<text text-anchor="middle" x="272.51" y="-7" font-family="Helvetica,sans-Serif" font-size="10.00">/open62541/push_options.h</text>
</a>
</g>
</g>
<!-- Node12&#45;&gt;Node14 -->
<g id="edge14_Node000012_Node000014" class="edge">
<title>Node12&#45;&gt;Node14</title>
<g id="a_edge14_Node000012_Node000014"><a xlink:title=" ">
<path fill="none" stroke="#63b8ff" d="M521.3,-183.26C438.86,-173.99 304.47,-156.58 288.51,-140 263.14,-113.63 264.25,-68.2 267.96,-40.26"/>
<polygon fill="#63b8ff" stroke="#63b8ff" points="271.46,-40.56 269.53,-30.14 264.54,-39.49 271.46,-40.56"/>
</a>
</g>
</g>
<!-- Node15 -->
<g id="Node000015" class="node">
<title>Node15</title>
<g id="a_Node000015"><a target="_blank" xlink:href="open62541/nodeids_8h.html" xlink:title=" ">
<polygon fill="white" stroke="#666666" points="735.01,-140 614.01,-140 614.01,-121 735.01,-121 735.01,-140"/>
<text text-anchor="middle" x="674.51" y="-128" font-family="Helvetica,sans-Serif" font-size="10.00">open62541/nodeids.h</text>
</a>
</g>
</g>
<!-- Node12&#45;&gt;Node15 -->
<g id="edge15_Node000012_Node000015" class="edge">
<title>Node12&#45;&gt;Node15</title>
<g id="a_edge15_Node000012_Node000015"><a xlink:title=" ">
<path fill="none" stroke="#63b8ff" d="M607.06,-175.84C620.99,-166.68 639.04,-154.82 652.97,-145.66"/>
<polygon fill="#63b8ff" stroke="#63b8ff" points="655.01,-148.51 661.44,-140.09 651.16,-142.66 655.01,-148.51"/>
</a>
</g>
</g>
<!-- Node16 -->
<g id="Node000016" class="node">
<title>Node16</title>
<g id="a_Node000016"><a target="_blank" xlink:href="open62541/statuscodes_8h.html" xlink:title=" ">
<polygon fill="white" stroke="#666666" points="894.01,-140 753.01,-140 753.01,-121 894.01,-121 894.01,-140"/>
<text text-anchor="middle" x="823.51" y="-128" font-family="Helvetica,sans-Serif" font-size="10.00">open62541/statuscodes.h</text>
</a>
</g>
</g>
<!-- Node12&#45;&gt;Node16 -->
<g id="edge16_Node000012_Node000016" class="edge">
<title>Node12&#45;&gt;Node16</title>
<g id="a_edge16_Node000012_Node000016"><a xlink:title=" ">
<path fill="none" stroke="#63b8ff" d="M642.52,-175.99C684.31,-165.72 740.24,-151.97 778.81,-142.49"/>
<polygon fill="#63b8ff" stroke="#63b8ff" points="779.84,-145.84 788.72,-140.05 778.17,-139.04 779.84,-145.84"/>
</a>
</g>
</g>
<!-- Node17 -->
<g id="Node000017" class="node">
<title>Node17</title>
<g id="a_Node000017"><a target="_blank" xlink:href="open62541/types_8h.html" xlink:title=" ">
<polygon fill="white" stroke="#666666" points="407.51,-140 297.51,-140 297.51,-121 407.51,-121 407.51,-140"/>
<text text-anchor="middle" x="352.51" y="-128" font-family="Helvetica,sans-Serif" font-size="10.00">open62541/types.h</text>
</a>
</g>
</g>
<!-- Node12&#45;&gt;Node17 -->
<g id="edge17_Node000012_Node000017" class="edge">
<title>Node12&#45;&gt;Node17</title>
<g id="a_edge17_Node000012_Node000017"><a xlink:title=" ">
<path fill="none" stroke="#63b8ff" d="M523.85,-175.99C481.8,-165.76 427.47,-152.09 391.33,-142.61"/>
<polygon fill="#63b8ff" stroke="#63b8ff" points="392.21,-139.22 381.64,-140.05 390.42,-145.99 392.21,-139.22"/>
</a>
</g>
</g>
<!-- Node20 -->
<g id="Node000020" class="node">
<title>Node20</title>
<g id="a_Node000020"><a xlink:href="pop__options_8h.html" target="_top" xlink:title=" ">
<polygon fill="white" stroke="#666666" points="656.01,-30 511.01,-30 511.01,0 656.01,0 656.01,-30"/>
<text text-anchor="start" x="519.01" y="-18" font-family="Helvetica,sans-Serif" font-size="10.00">open62541pp/detail</text>
<text text-anchor="middle" x="583.51" y="-7" font-family="Helvetica,sans-Serif" font-size="10.00">/open62541/pop_options.h</text>
</a>
</g>
</g>
<!-- Node12&#45;&gt;Node20 -->
<g id="edge28_Node000012_Node000020" class="edge">
<title>Node12&#45;&gt;Node20</title>
<g id="a_edge28_Node000012_Node000020"><a xlink:title=" ">
<path fill="none" stroke="#63b8ff" d="M585.35,-175.76C585.01,-146.19 584.23,-77.82 583.8,-40.83"/>
<polygon fill="#63b8ff" stroke="#63b8ff" points="587.3,-40.39 583.68,-30.44 580.3,-40.48 587.3,-40.39"/>
</a>
</g>
</g>
<!-- Node21 -->
<g id="Node000021" class="node">
<title>Node21</title>
<g id="a_Node000021"><a target="_blank" xlink:href="open62541/types__generated_8h.html" xlink:title=" ">
<polygon fill="white" stroke="#666666" points="1076.51,-140 912.51,-140 912.51,-121 1076.51,-121 1076.51,-140"/>
<text text-anchor="middle" x="994.51" y="-128" font-family="Helvetica,sans-Serif" font-size="10.00">open62541/types_generated.h</text>
</a>
</g>
</g>
<!-- Node12&#45;&gt;Node21 -->
<g id="edge23_Node000012_Node000021" class="edge">
<title>Node12&#45;&gt;Node21</title>
<g id="a_edge23_Node000012_Node000021"><a xlink:title=" ">
<path fill="none" stroke="#63b8ff" d="M649.87,-180.8C724.69,-170.09 847.72,-152.5 924.76,-141.48"/>
<polygon fill="#63b8ff" stroke="#63b8ff" points="925.45,-144.91 934.85,-140.03 924.46,-137.98 925.45,-144.91"/>
</a>
</g>
</g>
<!-- Node22 -->
<g id="Node000022" class="node">
<title>Node22</title>
<g id="a_Node000022"><a target="_blank" xlink:href="open62541/util_8h.html" xlink:title=" ">
<polygon fill="white" stroke="#666666" points="1192.51,-140 1094.51,-140 1094.51,-121 1192.51,-121 1192.51,-140"/>
<text text-anchor="middle" x="1143.51" y="-128" font-family="Helvetica,sans-Serif" font-size="10.00">open62541/util.h</text>
</a>
</g>
</g>
<!-- Node12&#45;&gt;Node22 -->
<g id="edge24_Node000012_Node000022" class="edge">
<title>Node12&#45;&gt;Node22</title>
<g id="a_edge24_Node000012_Node000022"><a xlink:title=" ">
<path fill="none" stroke="#63b8ff" d="M649.55,-184.54C742.81,-176.39 921.7,-159.95 1084.3,-140.1"/>
<polygon fill="#63b8ff" stroke="#63b8ff" points="1084.99,-143.54 1094.49,-138.85 1084.14,-136.59 1084.99,-143.54"/>
</a>
</g>
</g>
<!-- Node23 -->
<g id="Node000023" class="node">
<title>Node23</title>
<g id="a_Node000023"><a target="_blank" xlink:href="open62541/accesscontrol_8h.html" xlink:title=" ">
<polygon fill="white" stroke="#666666" points="1392.51,-140 1210.51,-140 1210.51,-121 1392.51,-121 1392.51,-140"/>
<text text-anchor="middle" x="1301.51" y="-128" font-family="Helvetica,sans-Serif" font-size="10.00">open62541/plugin/accesscontrol.h</text>
</a>
</g>
</g>
<!-- Node12&#45;&gt;Node23 -->
<g id="edge25_Node000012_Node000023" class="edge">
<title>Node12&#45;&gt;Node23</title>
<g id="a_edge25_Node000012_Node000023"><a xlink:title=" ">
<path fill="none" stroke="#63b8ff" d="M649.82,-184.86C760.07,-176.03 992.57,-157.34 1200.31,-140.1"/>
<polygon fill="#63b8ff" stroke="#63b8ff" points="1200.82,-143.57 1210.5,-139.25 1200.24,-136.59 1200.82,-143.57"/>
</a>
</g>
</g>
<!-- Node24 -->
<g id="Node000024" class="node">
<title>Node24</title>
<g id="a_Node000024"><a target="_blank" xlink:href="open62541/log_8h.html" xlink:title=" ">
<polygon fill="white" stroke="#666666" points="557.01,-140 426.01,-140 426.01,-121 557.01,-121 557.01,-140"/>
<text text-anchor="middle" x="491.51" y="-128" font-family="Helvetica,sans-Serif" font-size="10.00">open62541/plugin/log.h</text>
</a>
</g>
</g>
<!-- Node12&#45;&gt;Node24 -->
<g id="edge26_Node000012_Node000024" class="edge">
<title>Node12&#45;&gt;Node24</title>
<g id="a_edge26_Node000012_Node000024"><a xlink:title=" ">
<path fill="none" stroke="#63b8ff" d="M562.76,-175.84C547.91,-166.6 528.62,-154.59 513.85,-145.4"/>
<polygon fill="#63b8ff" stroke="#63b8ff" points="515.66,-142.41 505.32,-140.09 511.97,-148.35 515.66,-142.41"/>
</a>
</g>
</g>
<!-- Node17&#45;&gt;Node12 -->
<g id="edge22_Node000017_Node000012" class="edge">
<title>Node17&#45;&gt;Node12</title>
<g id="a_edge22_Node000017_Node000012"><a xlink:title=" ">
<path fill="none" stroke="#63b8ff" d="M391.52,-140.05C428.2,-148.78 483.46,-162.56 525.68,-173.43"/>
<polygon fill="#63b8ff" stroke="#63b8ff" points="525.01,-176.87 535.56,-175.99 526.76,-170.1 525.01,-176.87"/>
</a>
</g>
</g>
<!-- Node18 -->
<g id="Node000018" class="node">
<title>Node18</title>
<g id="a_Node000018"><a xlink:href="config_8h.html" target="_top" xlink:title=" ">
<polygon fill="white" stroke="#666666" points="487.51,-85 375.51,-85 375.51,-66 487.51,-66 487.51,-85"/>
<text text-anchor="middle" x="431.51" y="-73" font-family="Helvetica,sans-Serif" font-size="10.00">open62541/config.h</text>
</a>
</g>
</g>
<!-- Node17&#45;&gt;Node18 -->
<g id="edge18_Node000017_Node000018" class="edge">
<title>Node17&#45;&gt;Node18</title>
<g id="a_edge18_Node000017_Node000018"><a xlink:title=" ">
<path fill="none" stroke="#63b8ff" d="M365.21,-120.98C377.34,-112.84 395.87,-100.41 410.26,-90.76"/>
<polygon fill="#63b8ff" stroke="#63b8ff" points="412.24,-93.65 418.59,-85.17 408.34,-87.84 412.24,-93.65"/>
</a>
</g>
</g>
<!-- Node18&#45;&gt;Node14 -->
<g id="edge19_Node000018_Node000014" class="edge">
<title>Node18&#45;&gt;Node14</title>
<g id="a_edge19_Node000018_Node000014"><a xlink:title=" ">
<path fill="none" stroke="#63b8ff" d="M408.39,-65.99C385.41,-57.54 349.48,-44.32 320.34,-33.59"/>
<polygon fill="#63b8ff" stroke="#63b8ff" points="321.33,-30.23 310.74,-30.06 318.92,-36.8 321.33,-30.23"/>
</a>
</g>
</g>
<!-- Node19 -->
<g id="Node000019" class="node">
<title>Node19</title>
<g id="a_Node000019"><a xlink:title=" ">
<polygon fill="#e0e0e0" stroke="#999999" points="487.51,-24.5 375.51,-24.5 375.51,-5.5 487.51,-5.5 487.51,-24.5"/>
<text text-anchor="middle" x="431.51" y="-12.5" font-family="Helvetica,sans-Serif" font-size="10.00">open62541/config.h</text>
</a>
</g>
</g>
<!-- Node18&#45;&gt;Node19 -->
<g id="edge20_Node000018_Node000019" class="edge">
<title>Node18&#45;&gt;Node19</title>
<g id="a_edge20_Node000018_Node000019"><a xlink:title=" ">
<path fill="none" stroke="#63b8ff" d="M431.51,-65.87C431.51,-57.75 431.51,-45.31 431.51,-34.89"/>
<polygon fill="#63b8ff" stroke="#63b8ff" points="435.01,-34.67 431.51,-24.67 428.01,-34.67 435.01,-34.67"/>
</a>
</g>
</g>
<!-- Node18&#45;&gt;Node20 -->
<g id="edge21_Node000018_Node000020" class="edge">
<title>Node18&#45;&gt;Node20</title>
<g id="a_edge21_Node000018_Node000020"><a xlink:title=" ">
<path fill="none" stroke="#63b8ff" d="M453.62,-65.99C475.49,-57.57 509.64,-44.43 537.44,-33.73"/>
<polygon fill="#63b8ff" stroke="#63b8ff" points="538.9,-36.92 546.97,-30.06 536.38,-30.39 538.9,-36.92"/>
</a>
</g>
</g>
<!-- Node24&#45;&gt;Node18 -->
<g id="edge27_Node000024_Node000018" class="edge">
<title>Node24&#45;&gt;Node18</title>
<g id="a_edge27_Node000024_Node000018"><a xlink:title=" ">
<path fill="none" stroke="#63b8ff" d="M481.87,-120.98C473.01,-113.15 459.64,-101.34 448.91,-91.86"/>
<polygon fill="#63b8ff" stroke="#63b8ff" points="451.14,-89.17 441.33,-85.17 446.51,-94.41 451.14,-89.17"/>
</a>
</g>
</g>
<!-- Node25&#45;&gt;Node3 -->
<g id="edge31_Node000025_Node000003" class="edge">
<title>Node25&#45;&gt;Node3</title>
<g id="a_edge31_Node000025_Node000003"><a xlink:title=" ">
<path fill="none" stroke="#63b8ff" d="M789.65,-247.89C699.13,-234.99 524.14,-210.05 442.06,-198.35"/>
<polygon fill="#63b8ff" stroke="#63b8ff" points="442.44,-194.87 432.05,-196.92 441.45,-201.8 442.44,-194.87"/>
</a>
</g>
</g>
<!-- Node25&#45;&gt;Node8 -->
<g id="edge30_Node000025_Node000008" class="edge">
<title>Node25&#45;&gt;Node8</title>
<g id="a_edge30_Node000025_Node000008"><a xlink:title=" ">
<path fill="none" stroke="#63b8ff" d="M903.13,-241.95C953.39,-229.49 1025.33,-211.64 1068.24,-201"/>
<polygon fill="#63b8ff" stroke="#63b8ff" points="1069.11,-204.39 1077.97,-198.58 1067.42,-197.59 1069.11,-204.39"/>
</a>
</g>
</g>
<!-- Node26&#45;&gt;Node10 -->
<g id="edge34_Node000026_Node000010" class="edge">
<title>Node26&#45;&gt;Node10</title>
<g id="a_edge34_Node000026_Node000010"><a xlink:title=" ">
<path fill="none" stroke="#63b8ff" d="M977.88,-247.37C951.06,-236.15 904.09,-216.5 873.92,-203.88"/>
<polygon fill="#63b8ff" stroke="#63b8ff" points="874.96,-200.52 864.38,-199.89 872.26,-206.98 874.96,-200.52"/>
</a>
</g>
</g>
<!-- Node26&#45;&gt;Node12 -->
<g id="edge36_Node000026_Node000012" class="edge">
<title>Node26&#45;&gt;Node12</title>
<g id="a_edge36_Node000026_Node000012"><a xlink:title=" ">
<path fill="none" stroke="#63b8ff" d="M946.68,-247.48C935.42,-245.65 923.57,-243.75 912.51,-242 825.78,-228.31 726,-213.14 659.7,-203.14"/>
<polygon fill="#63b8ff" stroke="#63b8ff" points="660.17,-199.67 649.76,-201.64 659.13,-206.59 660.17,-199.67"/>
</a>
</g>
</g>
<!-- Node27 -->
<g id="Node000027" class="node">
<title>Node27</title>
<g id="a_Node000027"><a xlink:title=" ">
<polygon fill="#e0e0e0" stroke="#999999" points="1031.01,-200.5 966.01,-200.5 966.01,-181.5 1031.01,-181.5 1031.01,-200.5"/>
<text text-anchor="middle" x="998.51" y="-188.5" font-family="Helvetica,sans-Serif" font-size="10.00">exception</text>
</a>
</g>
</g>
<!-- Node26&#45;&gt;Node27 -->
<g id="edge33_Node000026_Node000027" class="edge">
<title>Node26&#45;&gt;Node27</title>
<g id="a_edge33_Node000026_Node000027"><a xlink:title=" ">
<path fill="none" stroke="#63b8ff" d="M998.51,-247.37C998.51,-238.16 998.51,-223.29 998.51,-211.27"/>
<polygon fill="#63b8ff" stroke="#63b8ff" points="1002.01,-210.91 998.51,-200.91 995.01,-210.91 1002.01,-210.91"/>
</a>
</g>
</g>
<!-- Node28 -->
<g id="Node000028" class="node">
<title>Node28</title>
<g id="a_Node000028"><a xlink:title=" ">
<polygon fill="#e0e0e0" stroke="#999999" points="1422.01,-200.5 1357.01,-200.5 1357.01,-181.5 1422.01,-181.5 1422.01,-200.5"/>
<text text-anchor="middle" x="1389.51" y="-188.5" font-family="Helvetica,sans-Serif" font-size="10.00">stdexcept</text>
</a>
</g>
</g>
<!-- Node26&#45;&gt;Node28 -->
<g id="edge35_Node000026_Node000028" class="edge">
<title>Node26&#45;&gt;Node28</title>
<g id="a_edge35_Node000026_Node000028"><a xlink:title=" ">
<path fill="none" stroke="#63b8ff" d="M1050.84,-247.44C1128.99,-234.64 1274.69,-210.79 1346.81,-198.99"/>
<polygon fill="#63b8ff" stroke="#63b8ff" points="1347.6,-202.41 1356.9,-197.34 1346.47,-195.5 1347.6,-202.41"/>
</a>
</g>
</g>
<!-- Node29&#45;&gt;Node3 -->
<g id="edge45_Node000029_Node000003" class="edge">
<title>Node29&#45;&gt;Node3</title>
<g id="a_edge45_Node000029_Node000003"><a xlink:title=" ">
<path fill="none" stroke="#63b8ff" d="M1316.24,-313.39C1331.45,-297.37 1359.38,-262.75 1339.51,-242 1307.71,-208.78 558.35,-209.78 512.51,-206 489.26,-204.08 463.46,-201.03 442.21,-198.26"/>
<polygon fill="#63b8ff" stroke="#63b8ff" points="442.54,-194.77 432.17,-196.93 441.62,-201.71 442.54,-194.77"/>
</a>
</g>
</g>
<!-- Node29&#45;&gt;Node5 -->
<g id="edge38_Node000029_Node000005" class="edge">
<title>Node29&#45;&gt;Node5</title>
<g id="a_edge38_Node000029_Node000005"><a xlink:title=" ">
<path fill="none" stroke="#63b8ff" d="M1297.67,-313.37C1286.09,-303.21 1266.63,-286.16 1252.37,-273.65"/>
<polygon fill="#63b8ff" stroke="#63b8ff" points="1254.5,-270.87 1244.67,-266.91 1249.88,-276.13 1254.5,-270.87"/>
</a>
</g>
</g>
<!-- Node29&#45;&gt;Node6 -->
<g id="edge39_Node000029_Node000006" class="edge">
<title>Node29&#45;&gt;Node6</title>
<g id="a_edge39_Node000029_Node000006"><a xlink:title=" ">
<path fill="none" stroke="#63b8ff" d="M1287.42,-313.37C1261.87,-302.39 1217.55,-283.36 1188.13,-270.72"/>
<polygon fill="#63b8ff" stroke="#63b8ff" points="1189.34,-267.43 1178.77,-266.7 1186.57,-273.86 1189.34,-267.43"/>
</a>
</g>
</g>
<!-- Node29&#45;&gt;Node8 -->
<g id="edge42_Node000029_Node000008" class="edge">
<title>Node29&#45;&gt;Node8</title>
<g id="a_edge42_Node000029_Node000008"><a xlink:title=" ">
<path fill="none" stroke="#63b8ff" d="M1323.8,-313.31C1349.36,-298.56 1393.9,-267.74 1372.51,-242 1343.52,-207.1 1207.61,-196.43 1141.21,-193.27"/>
<polygon fill="#63b8ff" stroke="#63b8ff" points="1141.33,-189.77 1131.18,-192.83 1141.02,-196.77 1141.33,-189.77"/>
</a>
</g>
</g>
<!-- Node29&#45;&gt;Node11 -->
<g id="edge46_Node000029_Node000011" class="edge">
<title>Node29&#45;&gt;Node11</title>
<g id="a_edge46_Node000029_Node000011"><a xlink:title=" ">
<path fill="none" stroke="#63b8ff" d="M1307.51,-313.37C1307.51,-304.16 1307.51,-289.29 1307.51,-277.27"/>
<polygon fill="#63b8ff" stroke="#63b8ff" points="1311.01,-276.91 1307.51,-266.91 1304.01,-276.91 1311.01,-276.91"/>
</a>
</g>
</g>
<!-- Node29&#45;&gt;Node25 -->
<g id="edge47_Node000029_Node000025" class="edge">
<title>Node29&#45;&gt;Node25</title>
<g id="a_edge47_Node000029_Node000025"><a xlink:title=" ">
<path fill="none" stroke="#63b8ff" d="M1242.27,-315.42C1165.82,-307.34 1035.16,-292.35 913.22,-272.03"/>
<polygon fill="#63b8ff" stroke="#63b8ff" points="913.78,-268.57 903.34,-270.37 912.62,-275.48 913.78,-268.57"/>
</a>
</g>
</g>
<!-- Node29&#45;&gt;Node28 -->
<g id="edge44_Node000029_Node000028" class="edge">
<title>Node29&#45;&gt;Node28</title>
<g id="a_edge44_Node000029_Node000028"><a xlink:title=" ">
<path fill="none" stroke="#63b8ff" d="M1372.69,-319.32C1444.63,-314.84 1553.7,-302.99 1579.51,-272 1622.44,-220.47 1500.73,-201.51 1432.4,-195.05"/>
<polygon fill="#63b8ff" stroke="#63b8ff" points="1432.6,-191.56 1422.33,-194.16 1431.98,-198.53 1432.6,-191.56"/>
</a>
</g>
</g>
<!-- Node30 -->
<g id="Node000030" class="node">
<title>Node30</title>
<g id="a_Node000030"><a xlink:title=" ">
<polygon fill="#e0e0e0" stroke="#999999" points="551.51,-266.5 501.51,-266.5 501.51,-247.5 551.51,-247.5 551.51,-266.5"/>
<text text-anchor="middle" x="526.51" y="-254.5" font-family="Helvetica,sans-Serif" font-size="10.00">cstdint</text>
</a>
</g>
</g>
<!-- Node29&#45;&gt;Node30 -->
<g id="edge40_Node000029_Node000030" class="edge">
<title>Node29&#45;&gt;Node30</title>
<g id="a_edge40_Node000029_Node000030"><a xlink:title=" ">
<path fill="none" stroke="#63b8ff" d="M1242.4,-320.34C1085.38,-315.89 689.32,-301.99 560.51,-272 558.29,-271.48 556.03,-270.84 553.77,-270.11"/>
<polygon fill="#63b8ff" stroke="#63b8ff" points="554.75,-266.74 544.16,-266.53 552.31,-273.3 554.75,-266.74"/>
</a>
</g>
</g>
<!-- Node31 -->
<g id="Node000031" class="node">
<title>Node31</title>
<g id="a_Node000031"><a xlink:title=" ">
<polygon fill="#e0e0e0" stroke="#999999" points="1570.01,-266.5 1487.01,-266.5 1487.01,-247.5 1570.01,-247.5 1570.01,-266.5"/>
<text text-anchor="middle" x="1528.51" y="-254.5" font-family="Helvetica,sans-Serif" font-size="10.00">initializer_list</text>
</a>
</g>
</g>
<!-- Node29&#45;&gt;Node31 -->
<g id="edge41_Node000029_Node000031" class="edge">
<title>Node29&#45;&gt;Node31</title>
<g id="a_edge41_Node000029_Node000031"><a xlink:title=" ">
<path fill="none" stroke="#63b8ff" d="M1337.32,-313.37C1376.56,-302 1445.65,-282 1489.16,-269.4"/>
<polygon fill="#63b8ff" stroke="#63b8ff" points="1490.2,-272.74 1498.83,-266.6 1488.25,-266.02 1490.2,-272.74"/>
</a>
</g>
</g>
<!-- Node32 -->
<g id="Node000032" class="node">
<title>Node32</title>
<g id="a_Node000032"><a xlink:title=" ">
<polygon fill="#e0e0e0" stroke="#999999" points="1468.51,-266.5 1424.51,-266.5 1424.51,-247.5 1468.51,-247.5 1468.51,-266.5"/>
<text text-anchor="middle" x="1446.51" y="-254.5" font-family="Helvetica,sans-Serif" font-size="10.00">limits</text>
</a>
</g>
</g>
<!-- Node29&#45;&gt;Node32 -->
<g id="edge43_Node000029_Node000032" class="edge">
<title>Node29&#45;&gt;Node32</title>
<g id="a_edge43_Node000029_Node000032"><a xlink:title=" ">
<path fill="none" stroke="#63b8ff" d="M1326.26,-313.37C1349.99,-302.44 1391.08,-283.52 1418.53,-270.88"/>
<polygon fill="#63b8ff" stroke="#63b8ff" points="1420,-274.06 1427.62,-266.7 1417.07,-267.7 1420,-274.06"/>
</a>
</g>
</g>
<!-- Node33&#45;&gt;Node2 -->
<g id="edge49_Node000033_Node000002" class="edge">
<title>Node33&#45;&gt;Node2</title>
<g id="a_edge49_Node000033_Node000002"><a xlink:title=" ">
<path fill="none" stroke="#63b8ff" d="M85.39,-307.8C94.34,-297.92 106.3,-284.72 115.66,-274.39"/>
<polygon fill="#63b8ff" stroke="#63b8ff" points="118.38,-276.6 122.5,-266.84 113.19,-271.9 118.38,-276.6"/>
</a>
</g>
</g>
<!-- Node33&#45;&gt;Node12 -->
<g id="edge50_Node000033_Node000012" class="edge">
<title>Node33&#45;&gt;Node12</title>
<g id="a_edge50_Node000033_Node000012"><a xlink:title=" ">
<path fill="none" stroke="#63b8ff" d="M69.97,-307.82C67.63,-289.75 66.81,-258.85 84.51,-242 85.47,-241.09 372.03,-212.91 511.28,-199.26"/>
<polygon fill="#63b8ff" stroke="#63b8ff" points="511.84,-202.73 521.45,-198.27 511.15,-195.76 511.84,-202.73"/>
</a>
</g>
</g>
<!-- Node34&#45;&gt;Node3 -->
<g id="edge52_Node000034_Node000003" class="edge">
<title>Node34&#45;&gt;Node3</title>
<g id="a_edge52_Node000034_Node000003"><a xlink:title=" ">
<path fill="none" stroke="#63b8ff" d="M460.71,-313.34C449.13,-304.27 431.77,-288.98 421.51,-272 409.94,-252.84 403.6,-227.7 400.39,-210.75"/>
<polygon fill="#63b8ff" stroke="#63b8ff" points="403.77,-209.78 398.64,-200.51 396.87,-210.95 403.77,-209.78"/>
</a>
</g>
</g>
<!-- Node34&#45;&gt;Node12 -->
<g id="edge53_Node000034_Node000012" class="edge">
<title>Node34&#45;&gt;Node12</title>
<g id="a_edge53_Node000034_Node000012"><a xlink:title=" ">
<path fill="none" stroke="#63b8ff" d="M472.48,-313.32C472.85,-297.49 475.72,-263.58 492.51,-242 503.05,-228.46 518.31,-218.14 533.43,-210.49"/>
<polygon fill="#63b8ff" stroke="#63b8ff" points="535.24,-213.51 542.79,-206.07 532.25,-207.18 535.24,-213.51"/>
</a>
</g>
</g>
<!-- Node34&#45;&gt;Node25 -->
<g id="edge54_Node000034_Node000025" class="edge">
<title>Node34&#45;&gt;Node25</title>
<g id="a_edge54_Node000034_Node000025"><a xlink:title=" ">
<path fill="none" stroke="#63b8ff" d="M522.57,-313.44C588.82,-302.1 705.84,-282.07 779.62,-269.45"/>
<polygon fill="#63b8ff" stroke="#63b8ff" points="780.46,-272.85 789.73,-267.72 779.28,-265.95 780.46,-272.85"/>
</a>
</g>
</g>
<!-- Node35&#45;&gt;Node3 -->
<g id="edge56_Node000035_Node000003" class="edge">
<title>Node35&#45;&gt;Node3</title>
<g id="a_edge56_Node000035_Node000003"><a xlink:title=" ">
<path fill="none" stroke="#63b8ff" d="M434.09,-373.96C414.77,-367.52 393.06,-356.5 381.51,-338 356.5,-297.93 376.07,-239.4 388.79,-210.11"/>
<polygon fill="#63b8ff" stroke="#63b8ff" points="392.11,-211.28 393.08,-200.73 385.74,-208.37 392.11,-211.28"/>
</a>
</g>
</g>
<!-- Node35&#45;&gt;Node4 -->
<g id="edge63_Node000035_Node000004" class="edge">
<title>Node35&#45;&gt;Node4</title>
<g id="a_edge63_Node000035_Node000004"><a xlink:title=" ">
<path fill="none" stroke="#63b8ff" d="M514.54,-373.99C561.55,-364.48 638.38,-348.92 693.88,-337.69"/>
<polygon fill="#63b8ff" stroke="#63b8ff" points="694.87,-341.06 703.98,-335.65 693.48,-334.2 694.87,-341.06"/>
</a>
</g>
</g>
<!-- Node35&#45;&gt;Node11 -->
<g id="edge57_Node000035_Node000011" class="edge">
<title>Node35&#45;&gt;Node11</title>
<g id="a_edge57_Node000035_Node000011"><a xlink:title=" ">
<path fill="none" stroke="#63b8ff" d="M544.51,-373.98C616.47,-365.35 730.23,-351.4 828.51,-338 1027.5,-310.88 1082.49,-327.4 1275.51,-272 1277.2,-271.52 1278.91,-270.96 1280.62,-270.37"/>
<polygon fill="#63b8ff" stroke="#63b8ff" points="1282.21,-273.5 1290.22,-266.56 1279.63,-266.99 1282.21,-273.5"/>
</a>
</g>
</g>
<!-- Node35&#45;&gt;Node34 -->
<g id="edge64_Node000035_Node000034" class="edge">
<title>Node35&#45;&gt;Node34</title>
<g id="a_edge64_Node000035_Node000034"><a xlink:title=" ">
<path fill="none" stroke="#63b8ff" d="M472.51,-373.87C472.51,-365.75 472.51,-353.31 472.51,-342.89"/>
<polygon fill="#63b8ff" stroke="#63b8ff" points="476.01,-342.67 472.51,-332.67 469.01,-342.67 476.01,-342.67"/>
</a>
</g>
</g>
<!-- Node36 -->
<g id="Node000036" class="node">
<title>Node36</title>
<g id="a_Node000036"><a xlink:href="common_8hpp.html" target="_top" xlink:title=" ">
<polygon fill="white" stroke="#666666" points="334.01,-332.5 185.01,-332.5 185.01,-313.5 334.01,-313.5 334.01,-332.5"/>
<text text-anchor="middle" x="259.51" y="-320.5" font-family="Helvetica,sans-Serif" font-size="10.00">open62541pp/common.hpp</text>
</a>
</g>
</g>
<!-- Node35&#45;&gt;Node36 -->
<g id="edge58_Node000035_Node000036" class="edge">
<title>Node35&#45;&gt;Node36</title>
<g id="a_edge58_Node000035_Node000036"><a xlink:title=" ">
<path fill="none" stroke="#63b8ff" d="M441.54,-373.99C404.24,-363.75 341.45,-346.5 300.25,-335.19"/>
<polygon fill="#63b8ff" stroke="#63b8ff" points="301.09,-331.79 290.52,-332.52 299.24,-338.54 301.09,-331.79"/>
</a>
</g>
</g>
<!-- Node36&#45;&gt;Node2 -->
<g id="edge60_Node000036_Node000002" class="edge">
<title>Node36&#45;&gt;Node2</title>
<g id="a_edge60_Node000036_Node000002"><a xlink:title=" ">
<path fill="none" stroke="#63b8ff" d="M242.12,-313.37C220.29,-302.54 182.62,-283.85 157.15,-271.22"/>
<polygon fill="#63b8ff" stroke="#63b8ff" points="158.56,-268.01 148.05,-266.7 155.45,-274.28 158.56,-268.01"/>
</a>
</g>
</g>
<!-- Node36&#45;&gt;Node30 -->
<g id="edge59_Node000036_Node000030" class="edge">
<title>Node36&#45;&gt;Node30</title>
<g id="a_edge59_Node000036_Node000030"><a xlink:title=" ">
<path fill="none" stroke="#63b8ff" d="M295.25,-313.44C346.56,-301.13 440.54,-278.61 491.47,-266.4"/>
<polygon fill="#63b8ff" stroke="#63b8ff" points="492.45,-269.77 501.36,-264.03 490.82,-262.96 492.45,-269.77"/>
</a>
</g>
</g>
<!-- Node37 -->
<g id="Node000037" class="node">
<title>Node37</title>
<g id="a_Node000037"><a xlink:href="bitmask_8hpp.html" target="_top" xlink:title=" ">
<polygon fill="white" stroke="#666666" points="331.51,-266.5 185.51,-266.5 185.51,-247.5 331.51,-247.5 331.51,-266.5"/>
<text text-anchor="middle" x="258.51" y="-254.5" font-family="Helvetica,sans-Serif" font-size="10.00">open62541pp/bitmask.hpp</text>
</a>
</g>
</g>
<!-- Node36&#45;&gt;Node37 -->
<g id="edge61_Node000036_Node000037" class="edge">
<title>Node36&#45;&gt;Node37</title>
<g id="a_edge61_Node000036_Node000037"><a xlink:title=" ">
<path fill="none" stroke="#63b8ff" d="M259.38,-313.37C259.24,-304.16 259,-289.29 258.82,-277.27"/>
<polygon fill="#63b8ff" stroke="#63b8ff" points="262.31,-276.85 258.65,-266.91 255.31,-276.96 262.31,-276.85"/>
</a>
</g>
</g>
<!-- Node37&#45;&gt;Node3 -->
<g id="edge62_Node000037_Node000003" class="edge">
<title>Node37&#45;&gt;Node3</title>
<g id="a_edge62_Node000037_Node000003"><a xlink:title=" ">
<path fill="none" stroke="#63b8ff" d="M277.26,-247.37C300.99,-236.44 342.08,-217.52 369.53,-204.88"/>
<polygon fill="#63b8ff" stroke="#63b8ff" points="371,-208.06 378.62,-200.7 368.07,-201.7 371,-208.06"/>
</a>
</g>
</g>
</g>
</svg>
