<?xml version="1.0" encoding="UTF-8" standalone="no"?>
<!DOCTYPE svg PUBLIC "-//W3C//DTD SVG 1.1//EN"
 "http://www.w3.org/Graphics/SVG/1.1/DTD/svg11.dtd">
<!-- Generated by graphviz version 2.43.0 (0)
 -->
<!-- Title: /home/runner/work/open62541pp/open62541pp/include/open62541pp/detail/types_conversion.hpp Pages: 1 -->
<svg width="1450pt" height="918pt"
 viewBox="0.00 0.00 1450.29 918.00" xmlns="http://www.w3.org/2000/svg" xmlns:xlink="http://www.w3.org/1999/xlink">
<g id="graph0" class="graph" transform="scale(1 1) rotate(0) translate(4 914)">
<title>/home/runner/work/open62541pp/open62541pp/include/open62541pp/detail/types_conversion.hpp</title>
<!-- Node1 -->
<g id="Node000001" class="node">
<title>Node1</title>
<g id="a_Node000001"><a xlink:title=" ">
<polygon fill="#999999" stroke="#666666" points="690.67,-910 497.67,-910 497.67,-869 690.67,-869 690.67,-910"/>
<text text-anchor="start" x="505.67" y="-898" font-family="Helvetica,sans-Serif" font-size="10.00">/home/runner/work/open62541pp</text>
<text text-anchor="start" x="505.67" y="-887" font-family="Helvetica,sans-Serif" font-size="10.00">/open62541pp/include/open62541pp</text>
<text text-anchor="middle" x="594.17" y="-876" font-family="Helvetica,sans-Serif" font-size="10.00">/detail/types_conversion.hpp</text>
</a>
</g>
</g>
<!-- Node2 -->
<g id="Node000002" class="node">
<title>Node2</title>
<g id="a_Node000002"><a xlink:href="types__composed_8hpp.html" target="_top" xlink:title=" ">
<polygon fill="white" stroke="#666666" points="690.67,-833 497.67,-833 497.67,-792 690.67,-792 690.67,-833"/>
<text text-anchor="start" x="505.67" y="-821" font-family="Helvetica,sans-Serif" font-size="10.00">/home/runner/work/open62541pp</text>
<text text-anchor="start" x="505.67" y="-810" font-family="Helvetica,sans-Serif" font-size="10.00">/open62541pp/include/open62541pp</text>
<text text-anchor="middle" x="594.17" y="-799" font-family="Helvetica,sans-Serif" font-size="10.00">/types_composed.hpp</text>
</a>
</g>
</g>
<!-- Node1&#45;&gt;Node2 -->
<g id="edge1_Node000001_Node000002" class="edge">
<title>Node1&#45;&gt;Node2</title>
<g id="a_edge1_Node000001_Node000002"><a xlink:title=" ">
<path fill="none" stroke="#63b8ff" d="M594.17,-858.69C594.17,-850.08 594.17,-840.9 594.17,-833.07"/>
<polygon fill="#63b8ff" stroke="#63b8ff" points="590.67,-858.79 594.17,-868.79 597.67,-858.79 590.67,-858.79"/>
</a>
</g>
</g>
<!-- Node3 -->
<g id="Node000003" class="node">
<title>Node3</title>
<g id="a_Node000003"><a xlink:href="client_8hpp.html" target="_top" xlink:title=" ">
<polygon fill="white" stroke="#666666" points="750.67,-503 557.67,-503 557.67,-462 750.67,-462 750.67,-503"/>
<text text-anchor="start" x="565.67" y="-491" font-family="Helvetica,sans-Serif" font-size="10.00">/home/runner/work/open62541pp</text>
<text text-anchor="start" x="565.67" y="-480" font-family="Helvetica,sans-Serif" font-size="10.00">/open62541pp/include/open62541pp</text>
<text text-anchor="middle" x="654.17" y="-469" font-family="Helvetica,sans-Serif" font-size="10.00">/client.hpp</text>
</a>
</g>
</g>
<!-- Node2&#45;&gt;Node3 -->
<g id="edge2_Node000002_Node000003" class="edge">
<title>Node2&#45;&gt;Node3</title>
<g id="a_edge2_Node000002_Node000003"><a xlink:title=" ">
<path fill="none" stroke="#63b8ff" d="M661.29,-787.24C675.86,-779.25 689.96,-768.98 700.17,-756 725.1,-724.32 717.24,-708.01 722.17,-668 724.4,-649.91 726.17,-644.78 722.17,-627 711.58,-579.93 683.69,-530.16 667.1,-503.37"/>
<polygon fill="#63b8ff" stroke="#63b8ff" points="659.47,-784.24 652.18,-791.93 662.67,-790.46 659.47,-784.24"/>
</a>
</g>
</g>
<!-- Node6 -->
<g id="Node000006" class="node">
<title>Node6</title>
<g id="a_Node000006"><a xlink:href="attribute_8hpp.html" target="_top" xlink:title=" ">
<polygon fill="white" stroke="#666666" points="702.67,-272 509.67,-272 509.67,-231 702.67,-231 702.67,-272"/>
<text text-anchor="start" x="517.67" y="-260" font-family="Helvetica,sans-Serif" font-size="10.00">/home/runner/work/open62541pp</text>
<text text-anchor="start" x="517.67" y="-249" font-family="Helvetica,sans-Serif" font-size="10.00">/open62541pp/include/open62541pp</text>
<text text-anchor="middle" x="606.17" y="-238" font-family="Helvetica,sans-Serif" font-size="10.00">/services/attribute.hpp</text>
</a>
</g>
</g>
<!-- Node2&#45;&gt;Node6 -->
<g id="edge32_Node000002_Node000006" class="edge">
<title>Node2&#45;&gt;Node6</title>
<g id="a_edge32_Node000002_Node000006"><a xlink:title=" ">
<path fill="none" stroke="#63b8ff" d="M672.38,-787.96C690.52,-779.9 708.72,-769.42 723.17,-756 762.64,-719.34 779.17,-702.37 779.17,-648.5 779.17,-648.5 779.17,-648.5 779.17,-404.5 779.17,-339.13 708.6,-295.26 657.61,-272.09"/>
<polygon fill="#63b8ff" stroke="#63b8ff" points="670.77,-784.84 662.92,-791.96 673.49,-791.29 670.77,-784.84"/>
</a>
</g>
</g>
<!-- Node7 -->
<g id="Node000007" class="node">
<title>Node7</title>
<g id="a_Node000007"><a xlink:href="node_8hpp.html" target="_top" xlink:title=" ">
<polygon fill="white" stroke="#666666" points="511.67,-118 318.67,-118 318.67,-77 511.67,-77 511.67,-118"/>
<text text-anchor="start" x="326.67" y="-106" font-family="Helvetica,sans-Serif" font-size="10.00">/home/runner/work/open62541pp</text>
<text text-anchor="start" x="326.67" y="-95" font-family="Helvetica,sans-Serif" font-size="10.00">/open62541pp/include/open62541pp</text>
<text text-anchor="middle" x="415.17" y="-84" font-family="Helvetica,sans-Serif" font-size="10.00">/node.hpp</text>
</a>
</g>
</g>
<!-- Node2&#45;&gt;Node7 -->
<g id="edge24_Node000002_Node000007" class="edge">
<title>Node2&#45;&gt;Node7</title>
<g id="a_edge24_Node000002_Node000007"><a xlink:title=" ">
<path fill="none" stroke="#63b8ff" d="M487.31,-802.74C388.26,-793.51 248.81,-777.34 198.17,-756 126.2,-725.68 59.17,-726.6 59.17,-648.5 59.17,-648.5 59.17,-648.5 59.17,-250.5 59.17,-137.43 212.94,-107.33 318.36,-99.98"/>
<polygon fill="#63b8ff" stroke="#63b8ff" points="487.09,-806.24 497.37,-803.67 487.73,-799.27 487.09,-806.24"/>
</a>
</g>
</g>
<!-- Node8 -->
<g id="Node000008" class="node">
<title>Node8</title>
<g id="a_Node000008"><a xlink:href="open62541pp_8hpp.html" target="_top" xlink:title=" ">
<polygon fill="white" stroke="#666666" points="1125.67,-41 932.67,-41 932.67,0 1125.67,0 1125.67,-41"/>
<text text-anchor="start" x="940.67" y="-29" font-family="Helvetica,sans-Serif" font-size="10.00">/home/runner/work/open62541pp</text>
<text text-anchor="start" x="940.67" y="-18" font-family="Helvetica,sans-Serif" font-size="10.00">/open62541pp/include/open62541pp</text>
<text text-anchor="middle" x="1029.17" y="-7" font-family="Helvetica,sans-Serif" font-size="10.00">/open62541pp.hpp</text>
</a>
</g>
</g>
<!-- Node2&#45;&gt;Node8 -->
<g id="edge25_Node000002_Node000008" class="edge">
<title>Node2&#45;&gt;Node8</title>
<g id="a_edge25_Node000002_Node000008"><a xlink:title=" ">
<path fill="none" stroke="#63b8ff" d="M487.27,-811.77C355.42,-810.13 140.77,-800.42 76.17,-756 31.94,-725.59 21.17,-702.17 21.17,-648.5 21.17,-648.5 21.17,-648.5 21.17,-173.5 21.17,-154.08 -114.77,-161.52 309.17,-77 529.1,-33.15 793.21,-23.48 932.38,-21.64"/>
<polygon fill="#63b8ff" stroke="#63b8ff" points="487.37,-815.27 497.41,-811.88 487.45,-808.27 487.37,-815.27"/>
</a>
</g>
</g>
<!-- Node11 -->
<g id="Node000011" class="node">
<title>Node11</title>
<g id="a_Node000011"><a xlink:href="method_8hpp.html" target="_top" xlink:title=" ">
<polygon fill="white" stroke="#666666" points="280.67,-272 87.67,-272 87.67,-231 280.67,-231 280.67,-272"/>
<text text-anchor="start" x="95.67" y="-260" font-family="Helvetica,sans-Serif" font-size="10.00">/home/runner/work/open62541pp</text>
<text text-anchor="start" x="95.67" y="-249" font-family="Helvetica,sans-Serif" font-size="10.00">/open62541pp/include/open62541pp</text>
<text text-anchor="middle" x="184.17" y="-238" font-family="Helvetica,sans-Serif" font-size="10.00">/services/method.hpp</text>
</a>
</g>
</g>
<!-- Node2&#45;&gt;Node11 -->
<g id="edge43_Node000002_Node000011" class="edge">
<title>Node2&#45;&gt;Node11</title>
<g id="a_edge43_Node000002_Node000011"><a xlink:title=" ">
<path fill="none" stroke="#63b8ff" d="M487.31,-805.35C399.11,-798.35 282.58,-784.02 245.17,-756 202.84,-724.3 194.17,-701.38 194.17,-648.5 194.17,-648.5 194.17,-648.5 194.17,-404.5 194.17,-356.9 189.22,-301.09 186.29,-272.15"/>
<polygon fill="#63b8ff" stroke="#63b8ff" points="487.13,-808.85 497.37,-806.13 487.67,-801.87 487.13,-808.85"/>
</a>
</g>
</g>
<!-- Node12 -->
<g id="Node000012" class="node">
<title>Node12</title>
<g id="a_Node000012"><a xlink:href="nodemanagement_8hpp.html" target="_top" xlink:title=" ">
<polygon fill="white" stroke="#666666" points="913.67,-272 720.67,-272 720.67,-231 913.67,-231 913.67,-272"/>
<text text-anchor="start" x="728.67" y="-260" font-family="Helvetica,sans-Serif" font-size="10.00">/home/runner/work/open62541pp</text>
<text text-anchor="start" x="728.67" y="-249" font-family="Helvetica,sans-Serif" font-size="10.00">/open62541pp/include/open62541pp</text>
<text text-anchor="middle" x="817.17" y="-238" font-family="Helvetica,sans-Serif" font-size="10.00">/services/nodemanagement.hpp</text>
</a>
</g>
</g>
<!-- Node2&#45;&gt;Node12 -->
<g id="edge53_Node000002_Node000012" class="edge">
<title>Node2&#45;&gt;Node12</title>
<g id="a_edge53_Node000002_Node000012"><a xlink:title=" ">
<path fill="none" stroke="#63b8ff" d="M700.47,-788.85C721.47,-780.92 742.23,-770.27 759.17,-756 800.68,-721.02 817.17,-702.79 817.17,-648.5 817.17,-648.5 817.17,-648.5 817.17,-404.5 817.17,-357 817.17,-301.15 817.17,-272.18"/>
<polygon fill="#63b8ff" stroke="#63b8ff" points="699.05,-785.64 690.81,-792.31 701.41,-792.23 699.05,-785.64"/>
</a>
</g>
</g>
<!-- Node13 -->
<g id="Node000013" class="node">
<title>Node13</title>
<g id="a_Node000013"><a xlink:href="view_8hpp.html" target="_top" xlink:title=" ">
<polygon fill="white" stroke="#666666" points="491.67,-272 298.67,-272 298.67,-231 491.67,-231 491.67,-272"/>
<text text-anchor="start" x="306.67" y="-260" font-family="Helvetica,sans-Serif" font-size="10.00">/home/runner/work/open62541pp</text>
<text text-anchor="start" x="306.67" y="-249" font-family="Helvetica,sans-Serif" font-size="10.00">/open62541pp/include/open62541pp</text>
<text text-anchor="middle" x="395.17" y="-238" font-family="Helvetica,sans-Serif" font-size="10.00">/services/view.hpp</text>
</a>
</g>
</g>
<!-- Node2&#45;&gt;Node13 -->
<g id="edge57_Node000002_Node000013" class="edge">
<title>Node2&#45;&gt;Node13</title>
<g id="a_edge57_Node000002_Node000013"><a xlink:title=" ">
<path fill="none" stroke="#63b8ff" d="M487.3,-802.18C413.12,-793.81 322.41,-779.22 292.17,-756 250.22,-723.8 241.17,-701.38 241.17,-648.5 241.17,-648.5 241.17,-648.5 241.17,-404.5 241.17,-357.72 250.92,-341.88 283.17,-308 297.9,-292.52 317.88,-280.73 336.88,-272.09"/>
<polygon fill="#63b8ff" stroke="#63b8ff" points="487.32,-805.7 497.65,-803.32 488.09,-798.74 487.32,-805.7"/>
</a>
</g>
</g>
<!-- Node14 -->
<g id="Node000014" class="node">
<title>Node14</title>
<g id="a_Node000014"><a xlink:href="accesscontrol_8hpp.html" target="_top" xlink:title=" ">
<polygon fill="white" stroke="#666666" points="1250.67,-195 1057.67,-195 1057.67,-154 1250.67,-154 1250.67,-195"/>
<text text-anchor="start" x="1065.67" y="-183" font-family="Helvetica,sans-Serif" font-size="10.00">/home/runner/work/open62541pp</text>
<text text-anchor="start" x="1065.67" y="-172" font-family="Helvetica,sans-Serif" font-size="10.00">/open62541pp/include/open62541pp</text>
<text text-anchor="middle" x="1154.17" y="-161" font-family="Helvetica,sans-Serif" font-size="10.00">/plugin/accesscontrol.hpp</text>
</a>
</g>
</g>
<!-- Node2&#45;&gt;Node14 -->
<g id="edge26_Node000002_Node000014" class="edge">
<title>Node2&#45;&gt;Node14</title>
<g id="a_edge26_Node000002_Node000014"><a xlink:title=" ">
<path fill="none" stroke="#63b8ff" d="M700.63,-796.61C840.11,-774.06 1067.17,-725.53 1067.17,-648.5 1067.17,-648.5 1067.17,-648.5 1067.17,-327.5 1067.17,-273.99 1108.29,-222.21 1133.99,-195.08"/>
<polygon fill="#63b8ff" stroke="#63b8ff" points="700.07,-793.16 690.74,-798.19 701.17,-800.07 700.07,-793.16"/>
</a>
</g>
</g>
<!-- Node17 -->
<g id="Node000017" class="node">
<title>Node17</title>
<g id="a_Node000017"><a xlink:href="monitoreditem__context_8hpp.html" target="_top" xlink:title=" ">
<polygon fill="white" stroke="#666666" points="690.67,-756 497.67,-756 497.67,-704 690.67,-704 690.67,-756"/>
<text text-anchor="start" x="505.67" y="-744" font-family="Helvetica,sans-Serif" font-size="10.00">/home/runner/work/open62541pp</text>
<text text-anchor="start" x="505.67" y="-733" font-family="Helvetica,sans-Serif" font-size="10.00">/open62541pp/include/open62541pp</text>
<text text-anchor="start" x="505.67" y="-722" font-family="Helvetica,sans-Serif" font-size="10.00">/services/detail/monitoreditem</text>
<text text-anchor="middle" x="594.17" y="-711" font-family="Helvetica,sans-Serif" font-size="10.00">_context.hpp</text>
</a>
</g>
</g>
<!-- Node2&#45;&gt;Node17 -->
<g id="edge33_Node000002_Node000017" class="edge">
<title>Node2&#45;&gt;Node17</title>
<g id="a_edge33_Node000002_Node000017"><a xlink:title=" ">
<path fill="none" stroke="#63b8ff" d="M594.17,-781.49C594.17,-773.15 594.17,-764.19 594.17,-756.16"/>
<polygon fill="#63b8ff" stroke="#63b8ff" points="590.67,-781.6 594.17,-791.6 597.67,-781.6 590.67,-781.6"/>
</a>
</g>
</g>
<!-- Node19 -->
<g id="Node000019" class="node">
<title>Node19</title>
<g id="a_Node000019"><a xlink:href="request__handling_8hpp.html" target="_top" xlink:title=" ">
<polygon fill="white" stroke="#666666" points="491.67,-349 292.67,-349 292.67,-308 491.67,-308 491.67,-349"/>
<text text-anchor="start" x="300.67" y="-337" font-family="Helvetica,sans-Serif" font-size="10.00">/home/runner/work/open62541pp</text>
<text text-anchor="start" x="300.67" y="-326" font-family="Helvetica,sans-Serif" font-size="10.00">/open62541pp/include/open62541pp</text>
<text text-anchor="middle" x="392.17" y="-315" font-family="Helvetica,sans-Serif" font-size="10.00">/services/detail/request_handling.hpp</text>
</a>
</g>
</g>
<!-- Node2&#45;&gt;Node19 -->
<g id="edge36_Node000002_Node000019" class="edge">
<title>Node2&#45;&gt;Node19</title>
<g id="a_edge36_Node000002_Node000019"><a xlink:title=" ">
<path fill="none" stroke="#63b8ff" d="M487.64,-800.31C396.24,-784.11 279.17,-744.6 279.17,-648.5 279.17,-648.5 279.17,-648.5 279.17,-481.5 279.17,-424.61 330.77,-375.2 364.24,-349.13"/>
<polygon fill="#63b8ff" stroke="#63b8ff" points="487.07,-803.76 497.52,-801.99 488.25,-796.86 487.07,-803.76"/>
</a>
</g>
</g>
<!-- Node20 -->
<g id="Node000020" class="node">
<title>Node20</title>
<g id="a_Node000020"><a xlink:href="subscription__context_8hpp.html" target="_top" xlink:title=" ">
<polygon fill="white" stroke="#666666" points="500.67,-591 307.67,-591 307.67,-539 500.67,-539 500.67,-591"/>
<text text-anchor="start" x="315.67" y="-579" font-family="Helvetica,sans-Serif" font-size="10.00">/home/runner/work/open62541pp</text>
<text text-anchor="start" x="315.67" y="-568" font-family="Helvetica,sans-Serif" font-size="10.00">/open62541pp/include/open62541pp</text>
<text text-anchor="start" x="315.67" y="-557" font-family="Helvetica,sans-Serif" font-size="10.00">/services/detail/subscription</text>
<text text-anchor="middle" x="404.17" y="-546" font-family="Helvetica,sans-Serif" font-size="10.00">_context.hpp</text>
</a>
</g>
</g>
<!-- Node2&#45;&gt;Node20 -->
<g id="edge41_Node000002_Node000020" class="edge">
<title>Node2&#45;&gt;Node20</title>
<g id="a_edge41_Node000002_Node000020"><a xlink:title=" ">
<path fill="none" stroke="#63b8ff" d="M532.16,-787.37C516.69,-779.17 501.13,-768.77 489.17,-756 443.72,-707.47 419.69,-630.55 409.77,-591.12"/>
<polygon fill="#63b8ff" stroke="#63b8ff" points="530.72,-790.57 541.23,-791.95 533.88,-784.32 530.72,-790.57"/>
</a>
</g>
</g>
<!-- Node21 -->
<g id="Node000021" class="node">
<title>Node21</title>
<g id="a_Node000021"><a xlink:href="services_2monitoreditem_8hpp.html" target="_top" xlink:title=" ">
<polygon fill="white" stroke="#666666" points="1288.67,-750.5 1095.67,-750.5 1095.67,-709.5 1288.67,-709.5 1288.67,-750.5"/>
<text text-anchor="start" x="1103.67" y="-738.5" font-family="Helvetica,sans-Serif" font-size="10.00">/home/runner/work/open62541pp</text>
<text text-anchor="start" x="1103.67" y="-727.5" font-family="Helvetica,sans-Serif" font-size="10.00">/open62541pp/include/open62541pp</text>
<text text-anchor="middle" x="1192.17" y="-716.5" font-family="Helvetica,sans-Serif" font-size="10.00">/services/monitoreditem.hpp</text>
</a>
</g>
</g>
<!-- Node2&#45;&gt;Node21 -->
<g id="edge44_Node000002_Node000021" class="edge">
<title>Node2&#45;&gt;Node21</title>
<g id="a_edge44_Node000002_Node000021"><a xlink:title=" ">
<path fill="none" stroke="#63b8ff" d="M700.71,-802.7C799.69,-793.73 950.97,-778.01 1081.17,-756 1090.52,-754.42 1100.26,-752.55 1109.93,-750.56"/>
<polygon fill="#63b8ff" stroke="#63b8ff" points="700.35,-799.22 690.7,-803.6 700.97,-806.19 700.35,-799.22"/>
</a>
</g>
</g>
<!-- Node24 -->
<g id="Node000024" class="node">
<title>Node24</title>
<g id="a_Node000024"><a xlink:href="services_2subscription_8hpp.html" target="_top" xlink:title=" ">
<polygon fill="white" stroke="#666666" points="1038.67,-668 845.67,-668 845.67,-627 1038.67,-627 1038.67,-668"/>
<text text-anchor="start" x="853.67" y="-656" font-family="Helvetica,sans-Serif" font-size="10.00">/home/runner/work/open62541pp</text>
<text text-anchor="start" x="853.67" y="-645" font-family="Helvetica,sans-Serif" font-size="10.00">/open62541pp/include/open62541pp</text>
<text text-anchor="middle" x="942.17" y="-634" font-family="Helvetica,sans-Serif" font-size="10.00">/services/subscription.hpp</text>
</a>
</g>
</g>
<!-- Node2&#45;&gt;Node24 -->
<g id="edge54_Node000002_Node000024" class="edge">
<title>Node2&#45;&gt;Node24</title>
<g id="a_edge54_Node000002_Node000024"><a xlink:title=" ">
<path fill="none" stroke="#63b8ff" d="M700.77,-799.09C743.22,-791.01 791.34,-777.75 831.17,-756 871.9,-733.76 908.27,-692.49 927.58,-668.06"/>
<polygon fill="#63b8ff" stroke="#63b8ff" points="699.89,-795.69 690.68,-800.93 701.15,-802.58 699.89,-795.69"/>
</a>
</g>
</g>
<!-- Node4 -->
<g id="Node000004" class="node">
<title>Node4</title>
<g id="a_Node000004"><a xlink:href="client__context_8hpp.html" target="_top" xlink:title=" ">
<polygon fill="white" stroke="#666666" points="625.67,-426 432.67,-426 432.67,-385 625.67,-385 625.67,-426"/>
<text text-anchor="start" x="440.67" y="-414" font-family="Helvetica,sans-Serif" font-size="10.00">/home/runner/work/open62541pp</text>
<text text-anchor="start" x="440.67" y="-403" font-family="Helvetica,sans-Serif" font-size="10.00">/open62541pp/include/open62541pp</text>
<text text-anchor="middle" x="529.17" y="-392" font-family="Helvetica,sans-Serif" font-size="10.00">/detail/client_context.hpp</text>
</a>
</g>
</g>
<!-- Node3&#45;&gt;Node4 -->
<g id="edge3_Node000003_Node000004" class="edge">
<title>Node3&#45;&gt;Node4</title>
<g id="a_edge3_Node000003_Node000004"><a xlink:title=" ">
<path fill="none" stroke="#63b8ff" d="M612.74,-456.64C596.23,-446.74 577.5,-435.5 561.96,-426.17"/>
<polygon fill="#63b8ff" stroke="#63b8ff" points="611.28,-459.85 621.65,-461.99 614.88,-453.84 611.28,-459.85"/>
</a>
</g>
</g>
<!-- Node5 -->
<g id="Node000005" class="node">
<title>Node5</title>
<g id="a_Node000005"><a xlink:href="client__services_8hpp.html" target="_top" xlink:title=" ">
<polygon fill="white" stroke="#666666" points="702.67,-349 509.67,-349 509.67,-308 702.67,-308 702.67,-349"/>
<text text-anchor="start" x="517.67" y="-337" font-family="Helvetica,sans-Serif" font-size="10.00">/home/runner/work/open62541pp</text>
<text text-anchor="start" x="517.67" y="-326" font-family="Helvetica,sans-Serif" font-size="10.00">/open62541pp/include/open62541pp</text>
<text text-anchor="middle" x="606.17" y="-315" font-family="Helvetica,sans-Serif" font-size="10.00">/services/detail/client_services.hpp</text>
</a>
</g>
</g>
<!-- Node3&#45;&gt;Node5 -->
<g id="edge23_Node000003_Node000005" class="edge">
<title>Node3&#45;&gt;Node5</title>
<g id="a_edge23_Node000003_Node000005"><a xlink:title=" ">
<path fill="none" stroke="#63b8ff" d="M650.57,-451.78C647.68,-432.39 642.81,-406.75 635.17,-385 630.81,-372.59 624.09,-359.51 618.22,-349.17"/>
<polygon fill="#63b8ff" stroke="#63b8ff" points="647.13,-452.42 651.98,-461.84 654.06,-451.45 647.13,-452.42"/>
</a>
</g>
</g>
<!-- Node3&#45;&gt;Node8 -->
<g id="edge22_Node000003_Node000008" class="edge">
<title>Node3&#45;&gt;Node8</title>
<g id="a_edge22_Node000003_Node000008"><a xlink:title=" ">
<path fill="none" stroke="#63b8ff" d="M708.84,-457.5C773.67,-425.68 878.53,-362.75 923.17,-272 961.42,-194.23 879.25,-151.12 924.17,-77 933.84,-61.04 949.8,-49.43 966.38,-41.09"/>
<polygon fill="#63b8ff" stroke="#63b8ff" points="707.06,-454.47 699.58,-461.97 710.11,-460.78 707.06,-454.47"/>
</a>
</g>
</g>
<!-- Node4&#45;&gt;Node5 -->
<g id="edge4_Node000004_Node000005" class="edge">
<title>Node4&#45;&gt;Node5</title>
<g id="a_edge4_Node000004_Node000005"><a xlink:title=" ">
<path fill="none" stroke="#63b8ff" d="M556.59,-377.79C566.32,-368.32 577.07,-357.84 586.07,-349.07"/>
<polygon fill="#63b8ff" stroke="#63b8ff" points="554.12,-375.31 549.4,-384.79 559.01,-380.32 554.12,-375.31"/>
</a>
</g>
</g>
<!-- Node5&#45;&gt;Node6 -->
<g id="edge5_Node000005_Node000006" class="edge">
<title>Node5&#45;&gt;Node6</title>
<g id="a_edge5_Node000005_Node000006"><a xlink:title=" ">
<path fill="none" stroke="#63b8ff" d="M606.17,-297.69C606.17,-289.08 606.17,-279.9 606.17,-272.07"/>
<polygon fill="#63b8ff" stroke="#63b8ff" points="602.67,-297.79 606.17,-307.79 609.67,-297.79 602.67,-297.79"/>
</a>
</g>
</g>
<!-- Node5&#45;&gt;Node11 -->
<g id="edge13_Node000005_Node000011" class="edge">
<title>Node5&#45;&gt;Node11</title>
<g id="a_edge13_Node000005_Node000011"><a xlink:title=" ">
<path fill="none" stroke="#63b8ff" d="M499.54,-307.72C405.41,-291.09 380.14,-288.17 289.17,-272 286.43,-271.51 283.65,-271.02 280.85,-270.51"/>
<polygon fill="#63b8ff" stroke="#63b8ff" points="499.03,-311.19 509.49,-309.49 500.25,-304.3 499.03,-311.19"/>
</a>
</g>
</g>
<!-- Node5&#45;&gt;Node12 -->
<g id="edge16_Node000005_Node000012" class="edge">
<title>Node5&#45;&gt;Node12</title>
<g id="a_edge16_Node000005_Node000012"><a xlink:title=" ">
<path fill="none" stroke="#63b8ff" d="M670.77,-304.54C700,-294.15 734.2,-281.99 762.19,-272.04"/>
<polygon fill="#63b8ff" stroke="#63b8ff" points="669.31,-301.34 661.06,-307.99 671.65,-307.94 669.31,-301.34"/>
</a>
</g>
</g>
<!-- Node5&#45;&gt;Node13 -->
<g id="edge19_Node000005_Node000013" class="edge">
<title>Node5&#45;&gt;Node13</title>
<g id="a_edge19_Node000005_Node000013"><a xlink:title=" ">
<path fill="none" stroke="#63b8ff" d="M541.57,-304.54C512.33,-294.15 478.14,-281.99 450.15,-272.04"/>
<polygon fill="#63b8ff" stroke="#63b8ff" points="540.69,-307.94 551.28,-307.99 543.03,-301.34 540.69,-307.94"/>
</a>
</g>
</g>
<!-- Node6&#45;&gt;Node7 -->
<g id="edge6_Node000006_Node000007" class="edge">
<title>Node6&#45;&gt;Node7</title>
<g id="a_edge6_Node000006_Node000007"><a xlink:title=" ">
<path fill="none" stroke="#63b8ff" d="M558.29,-225.74C542.71,-216.86 525.69,-206.23 511.17,-195 480.7,-171.43 450.11,-138.75 431.91,-118.12"/>
<polygon fill="#63b8ff" stroke="#63b8ff" points="556.83,-228.94 567.27,-230.77 560.25,-222.83 556.83,-228.94"/>
</a>
</g>
</g>
<!-- Node9 -->
<g id="Node000009" class="node">
<title>Node9</title>
<g id="a_Node000009"><a xlink:href="attribute__highlevel_8hpp.html" target="_top" xlink:title=" ">
<polygon fill="white" stroke="#666666" points="712.67,-195 519.67,-195 519.67,-154 712.67,-154 712.67,-195"/>
<text text-anchor="start" x="527.67" y="-183" font-family="Helvetica,sans-Serif" font-size="10.00">/home/runner/work/open62541pp</text>
<text text-anchor="start" x="527.67" y="-172" font-family="Helvetica,sans-Serif" font-size="10.00">/open62541pp/include/open62541pp</text>
<text text-anchor="middle" x="616.17" y="-161" font-family="Helvetica,sans-Serif" font-size="10.00">/services/attribute_highlevel.hpp</text>
</a>
</g>
</g>
<!-- Node6&#45;&gt;Node9 -->
<g id="edge8_Node000006_Node000009" class="edge">
<title>Node6&#45;&gt;Node9</title>
<g id="a_edge8_Node000006_Node000009"><a xlink:title=" ">
<path fill="none" stroke="#63b8ff" d="M610.14,-220.69C611.29,-212.08 612.52,-202.9 613.56,-195.07"/>
<polygon fill="#63b8ff" stroke="#63b8ff" points="606.65,-220.42 608.8,-230.79 613.59,-221.34 606.65,-220.42"/>
</a>
</g>
</g>
<!-- Node10 -->
<g id="Node000010" class="node">
<title>Node10</title>
<g id="a_Node000010"><a xlink:href="services_8hpp.html" target="_top" xlink:title=" ">
<polygon fill="white" stroke="#666666" points="875.67,-118 682.67,-118 682.67,-77 875.67,-77 875.67,-118"/>
<text text-anchor="start" x="690.67" y="-106" font-family="Helvetica,sans-Serif" font-size="10.00">/home/runner/work/open62541pp</text>
<text text-anchor="start" x="690.67" y="-95" font-family="Helvetica,sans-Serif" font-size="10.00">/open62541pp/include/open62541pp</text>
<text text-anchor="middle" x="779.17" y="-84" font-family="Helvetica,sans-Serif" font-size="10.00">/services/services.hpp</text>
</a>
</g>
</g>
<!-- Node6&#45;&gt;Node10 -->
<g id="edge12_Node000006_Node000010" class="edge">
<title>Node6&#45;&gt;Node10</title>
<g id="a_edge12_Node000006_Node000010"><a xlink:title=" ">
<path fill="none" stroke="#63b8ff" d="M673.18,-226.64C690.43,-218.4 708.07,-207.92 722.17,-195 745.84,-173.31 762.68,-139.49 771.65,-118.19"/>
<polygon fill="#63b8ff" stroke="#63b8ff" points="671.31,-223.65 663.67,-230.98 674.22,-230.01 671.31,-223.65"/>
</a>
</g>
</g>
<!-- Node7&#45;&gt;Node8 -->
<g id="edge7_Node000007_Node000008" class="edge">
<title>Node7&#45;&gt;Node8</title>
<g id="a_edge7_Node000007_Node000008"><a xlink:title=" ">
<path fill="none" stroke="#63b8ff" d="M521.73,-83.48C637.52,-69.34 820.9,-46.94 932.61,-33.29"/>
<polygon fill="#63b8ff" stroke="#63b8ff" points="521.28,-80.01 511.78,-84.7 522.13,-86.96 521.28,-80.01"/>
</a>
</g>
</g>
<!-- Node9&#45;&gt;Node7 -->
<g id="edge9_Node000009_Node000007" class="edge">
<title>Node9&#45;&gt;Node7</title>
<g id="a_edge9_Node000009_Node000007"><a xlink:title=" ">
<path fill="none" stroke="#63b8ff" d="M554.27,-150.4C526.5,-140.04 494.09,-127.95 467.54,-118.04"/>
<polygon fill="#63b8ff" stroke="#63b8ff" points="553.29,-153.77 563.88,-153.99 555.74,-147.22 553.29,-153.77"/>
</a>
</g>
</g>
<!-- Node9&#45;&gt;Node10 -->
<g id="edge10_Node000009_Node000010" class="edge">
<title>Node9&#45;&gt;Node10</title>
<g id="a_edge10_Node000009_Node000010"><a xlink:title=" ">
<path fill="none" stroke="#63b8ff" d="M667.85,-149.72C690.03,-139.51 715.64,-127.73 736.7,-118.04"/>
<polygon fill="#63b8ff" stroke="#63b8ff" points="666.19,-146.63 658.57,-153.99 669.12,-152.99 666.19,-146.63"/>
</a>
</g>
</g>
<!-- Node10&#45;&gt;Node8 -->
<g id="edge11_Node000010_Node000008" class="edge">
<title>Node10&#45;&gt;Node8</title>
<g id="a_edge11_Node000010_Node000008"><a xlink:title=" ">
<path fill="none" stroke="#63b8ff" d="M853.9,-74.08C888.94,-63.57 930.29,-51.16 964.03,-41.04"/>
<polygon fill="#63b8ff" stroke="#63b8ff" points="852.77,-70.76 844.2,-76.99 854.78,-77.47 852.77,-70.76"/>
</a>
</g>
</g>
<!-- Node11&#45;&gt;Node7 -->
<g id="edge14_Node000011_Node000007" class="edge">
<title>Node11&#45;&gt;Node7</title>
<g id="a_edge14_Node000011_Node000007"><a xlink:title=" ">
<path fill="none" stroke="#63b8ff" d="M222.34,-225.39C268,-195.34 343.5,-145.66 385.19,-118.23"/>
<polygon fill="#63b8ff" stroke="#63b8ff" points="220.32,-222.52 213.9,-230.94 224.17,-228.37 220.32,-222.52"/>
</a>
</g>
</g>
<!-- Node11&#45;&gt;Node10 -->
<g id="edge15_Node000011_Node000010" class="edge">
<title>Node11&#45;&gt;Node10</title>
<g id="a_edge15_Node000011_Node000010"><a xlink:title=" ">
<path fill="none" stroke="#63b8ff" d="M243.34,-227.37C300.05,-205.91 388.41,-174.31 467.17,-154 538.42,-135.63 620.39,-121.3 682.42,-111.81"/>
<polygon fill="#63b8ff" stroke="#63b8ff" points="241.92,-224.16 233.82,-230.99 244.41,-230.7 241.92,-224.16"/>
</a>
</g>
</g>
<!-- Node12&#45;&gt;Node7 -->
<g id="edge17_Node000012_Node000007" class="edge">
<title>Node12&#45;&gt;Node7</title>
<g id="a_edge17_Node000012_Node000007"><a xlink:title=" ">
<path fill="none" stroke="#63b8ff" d="M797.47,-222.58C780.23,-200.36 753.13,-170.36 722.17,-154 657.16,-119.65 574.77,-106.13 511.71,-101"/>
<polygon fill="#63b8ff" stroke="#63b8ff" points="794.77,-224.8 803.59,-230.67 800.35,-220.58 794.77,-224.8"/>
</a>
</g>
</g>
<!-- Node12&#45;&gt;Node10 -->
<g id="edge18_Node000012_Node000010" class="edge">
<title>Node12&#45;&gt;Node10</title>
<g id="a_edge18_Node000012_Node000010"><a xlink:title=" ">
<path fill="none" stroke="#63b8ff" d="M809.86,-221C805.12,-201.89 798.8,-176.47 793.17,-154 790.17,-142.05 786.8,-128.65 784.11,-118.02"/>
<polygon fill="#63b8ff" stroke="#63b8ff" points="806.51,-222.04 812.32,-230.9 813.31,-220.36 806.51,-222.04"/>
</a>
</g>
</g>
<!-- Node13&#45;&gt;Node7 -->
<g id="edge20_Node000013_Node000007" class="edge">
<title>Node13&#45;&gt;Node7</title>
<g id="a_edge20_Node000013_Node000007"><a xlink:title=" ">
<path fill="none" stroke="#63b8ff" d="M395.6,-220.58C396.23,-201.45 397.72,-176.15 401.17,-154 403.05,-141.92 406.36,-128.64 409.28,-118.1"/>
<polygon fill="#63b8ff" stroke="#63b8ff" points="392.1,-220.7 395.33,-230.79 399.1,-220.89 392.1,-220.7"/>
</a>
</g>
</g>
<!-- Node13&#45;&gt;Node10 -->
<g id="edge21_Node000013_Node000010" class="edge">
<title>Node13&#45;&gt;Node10</title>
<g id="a_edge21_Node000013_Node000010"><a xlink:title=" ">
<path fill="none" stroke="#63b8ff" d="M430,-224.69C441.97,-215.55 455.34,-205.04 467.17,-195 487.55,-177.71 487.42,-166.28 511.17,-154 564.14,-126.61 629.58,-112.74 682.54,-105.71"/>
<polygon fill="#63b8ff" stroke="#63b8ff" points="427.82,-221.95 421.97,-230.78 432.05,-227.53 427.82,-221.95"/>
</a>
</g>
</g>
<!-- Node14&#45;&gt;Node8 -->
<g id="edge27_Node000014_Node000008" class="edge">
<title>Node14&#45;&gt;Node8</title>
<g id="a_edge27_Node000014_Node000008"><a xlink:title=" ">
<path fill="none" stroke="#63b8ff" d="M1154.8,-143.66C1153.79,-123.09 1149.44,-96.11 1135.17,-77 1123.42,-61.27 1105.91,-49.59 1088.48,-41.12"/>
<polygon fill="#63b8ff" stroke="#63b8ff" points="1151.31,-143.86 1155.06,-153.76 1158.31,-143.68 1151.31,-143.86"/>
</a>
</g>
</g>
<!-- Node15 -->
<g id="Node000015" class="node">
<title>Node15</title>
<g id="a_Node000015"><a xlink:href="accesscontrol__default_8hpp.html" target="_top" xlink:title=" ">
<polygon fill="white" stroke="#666666" points="1125.67,-118 932.67,-118 932.67,-77 1125.67,-77 1125.67,-118"/>
<text text-anchor="start" x="940.67" y="-106" font-family="Helvetica,sans-Serif" font-size="10.00">/home/runner/work/open62541pp</text>
<text text-anchor="start" x="940.67" y="-95" font-family="Helvetica,sans-Serif" font-size="10.00">/open62541pp/include/open62541pp</text>
<text text-anchor="middle" x="1029.17" y="-84" font-family="Helvetica,sans-Serif" font-size="10.00">/plugin/accesscontrol_default.hpp</text>
</a>
</g>
</g>
<!-- Node14&#45;&gt;Node15 -->
<g id="edge28_Node000014_Node000015" class="edge">
<title>Node14&#45;&gt;Node15</title>
<g id="a_edge28_Node000014_Node000015"><a xlink:title=" ">
<path fill="none" stroke="#63b8ff" d="M1112.74,-148.64C1096.23,-138.74 1077.5,-127.5 1061.96,-118.17"/>
<polygon fill="#63b8ff" stroke="#63b8ff" points="1111.28,-151.85 1121.65,-153.99 1114.88,-145.84 1111.28,-151.85"/>
</a>
</g>
</g>
<!-- Node16 -->
<g id="Node000016" class="node">
<title>Node16</title>
<g id="a_Node000016"><a xlink:href="server_8hpp.html" target="_top" xlink:title=" ">
<polygon fill="white" stroke="#666666" points="1375.67,-118 1182.67,-118 1182.67,-77 1375.67,-77 1375.67,-118"/>
<text text-anchor="start" x="1190.67" y="-106" font-family="Helvetica,sans-Serif" font-size="10.00">/home/runner/work/open62541pp</text>
<text text-anchor="start" x="1190.67" y="-95" font-family="Helvetica,sans-Serif" font-size="10.00">/open62541pp/include/open62541pp</text>
<text text-anchor="middle" x="1279.17" y="-84" font-family="Helvetica,sans-Serif" font-size="10.00">/server.hpp</text>
</a>
</g>
</g>
<!-- Node14&#45;&gt;Node16 -->
<g id="edge30_Node000014_Node000016" class="edge">
<title>Node14&#45;&gt;Node16</title>
<g id="a_edge30_Node000014_Node000016"><a xlink:title=" ">
<path fill="none" stroke="#63b8ff" d="M1195.59,-148.64C1212.11,-138.74 1230.84,-127.5 1246.38,-118.17"/>
<polygon fill="#63b8ff" stroke="#63b8ff" points="1193.46,-145.84 1186.68,-153.99 1197.06,-151.85 1193.46,-145.84"/>
</a>
</g>
</g>
<!-- Node15&#45;&gt;Node8 -->
<g id="edge29_Node000015_Node000008" class="edge">
<title>Node15&#45;&gt;Node8</title>
<g id="a_edge29_Node000015_Node000008"><a xlink:title=" ">
<path fill="none" stroke="#63b8ff" d="M1029.17,-66.69C1029.17,-58.08 1029.17,-48.9 1029.17,-41.07"/>
<polygon fill="#63b8ff" stroke="#63b8ff" points="1025.67,-66.79 1029.17,-76.79 1032.67,-66.79 1025.67,-66.79"/>
</a>
</g>
</g>
<!-- Node16&#45;&gt;Node8 -->
<g id="edge31_Node000016_Node000008" class="edge">
<title>Node16&#45;&gt;Node8</title>
<g id="a_edge31_Node000016_Node000008"><a xlink:title=" ">
<path fill="none" stroke="#63b8ff" d="M1204.43,-74.08C1169.4,-63.57 1128.05,-51.16 1094.31,-41.04"/>
<polygon fill="#63b8ff" stroke="#63b8ff" points="1203.55,-77.47 1214.14,-76.99 1205.56,-70.76 1203.55,-77.47"/>
</a>
</g>
</g>
<!-- Node17&#45;&gt;Node4 -->
<g id="edge34_Node000017_Node000004" class="edge">
<title>Node17&#45;&gt;Node4</title>
<g id="a_edge34_Node000017_Node000004"><a xlink:title=" ">
<path fill="none" stroke="#63b8ff" d="M536.1,-697.5C526.04,-689.29 516.97,-679.46 511.17,-668 505.72,-657.24 521.64,-484.97 527.27,-426.07"/>
<polygon fill="#63b8ff" stroke="#63b8ff" points="534.25,-700.49 544.33,-703.74 538.48,-694.91 534.25,-700.49"/>
</a>
</g>
</g>
<!-- Node18 -->
<g id="Node000018" class="node">
<title>Node18</title>
<g id="a_Node000018"><a xlink:href="server__context_8hpp.html" target="_top" xlink:title=" ">
<polygon fill="white" stroke="#666666" points="712.67,-668 519.67,-668 519.67,-627 712.67,-627 712.67,-668"/>
<text text-anchor="start" x="527.67" y="-656" font-family="Helvetica,sans-Serif" font-size="10.00">/home/runner/work/open62541pp</text>
<text text-anchor="start" x="527.67" y="-645" font-family="Helvetica,sans-Serif" font-size="10.00">/open62541pp/include/open62541pp</text>
<text text-anchor="middle" x="616.17" y="-634" font-family="Helvetica,sans-Serif" font-size="10.00">/detail/server_context.hpp</text>
</a>
</g>
</g>
<!-- Node17&#45;&gt;Node18 -->
<g id="edge35_Node000017_Node000018" class="edge">
<title>Node17&#45;&gt;Node18</title>
<g id="a_edge35_Node000017_Node000018"><a xlink:title=" ">
<path fill="none" stroke="#63b8ff" d="M603.69,-694.16C606.12,-685.25 608.66,-675.99 610.8,-668.15"/>
<polygon fill="#63b8ff" stroke="#63b8ff" points="600.27,-693.4 601.01,-703.97 607.02,-695.25 600.27,-693.4"/>
</a>
</g>
</g>
<!-- Node19&#45;&gt;Node6 -->
<g id="edge37_Node000019_Node000006" class="edge">
<title>Node19&#45;&gt;Node6</title>
<g id="a_edge37_Node000019_Node000006"><a xlink:title=" ">
<path fill="none" stroke="#63b8ff" d="M457.3,-304.67C487.04,-294.25 521.9,-282.03 550.41,-272.04"/>
<polygon fill="#63b8ff" stroke="#63b8ff" points="456.12,-301.38 447.84,-307.99 458.43,-307.99 456.12,-301.38"/>
</a>
</g>
</g>
<!-- Node19&#45;&gt;Node11 -->
<g id="edge38_Node000019_Node000011" class="edge">
<title>Node19&#45;&gt;Node11</title>
<g id="a_edge38_Node000019_Node000011"><a xlink:title=" ">
<path fill="none" stroke="#63b8ff" d="M328.49,-304.54C299.67,-294.15 265.96,-281.99 238.37,-272.04"/>
<polygon fill="#63b8ff" stroke="#63b8ff" points="327.47,-307.89 338.06,-307.99 329.84,-301.31 327.47,-307.89"/>
</a>
</g>
</g>
<!-- Node19&#45;&gt;Node12 -->
<g id="edge39_Node000019_Node000012" class="edge">
<title>Node19&#45;&gt;Node12</title>
<g id="a_edge39_Node000019_Node000012"><a xlink:title=" ">
<path fill="none" stroke="#63b8ff" d="M501.95,-307.87C596.53,-291.41 621.62,-288.13 712.17,-272 714.91,-271.51 717.68,-271.01 720.49,-270.51"/>
<polygon fill="#63b8ff" stroke="#63b8ff" points="501.21,-304.45 491.96,-309.62 502.41,-311.34 501.21,-304.45"/>
</a>
</g>
</g>
<!-- Node19&#45;&gt;Node13 -->
<g id="edge40_Node000019_Node000013" class="edge">
<title>Node19&#45;&gt;Node13</title>
<g id="a_edge40_Node000019_Node000013"><a xlink:title=" ">
<path fill="none" stroke="#63b8ff" d="M393.36,-297.69C393.71,-289.08 394.07,-279.9 394.39,-272.07"/>
<polygon fill="#63b8ff" stroke="#63b8ff" points="389.86,-297.66 392.96,-307.79 396.85,-297.94 389.86,-297.66"/>
</a>
</g>
</g>
<!-- Node20&#45;&gt;Node4 -->
<g id="edge42_Node000020_Node000004" class="edge">
<title>Node20&#45;&gt;Node4</title>
<g id="a_edge42_Node000020_Node000004"><a xlink:title=" ">
<path fill="none" stroke="#63b8ff" d="M430.69,-530.59C455.82,-498.92 492.73,-452.42 513.49,-426.26"/>
<polygon fill="#63b8ff" stroke="#63b8ff" points="427.73,-528.69 424.25,-538.69 433.21,-533.04 427.73,-528.69"/>
</a>
</g>
</g>
<!-- Node21&#45;&gt;Node10 -->
<g id="edge51_Node000021_Node000010" class="edge">
<title>Node21&#45;&gt;Node10</title>
<g id="a_edge51_Node000021_Node000010"><a xlink:title=" ">
<path fill="none" stroke="#63b8ff" d="M1166.68,-701.54C1141.01,-670.91 1105.17,-618.71 1105.17,-566 1105.17,-566 1105.17,-566 1105.17,-404.5 1105.17,-274.27 1055.48,-234.57 953.17,-154 930.87,-136.44 902.9,-124.38 875.94,-116.11"/>
<polygon fill="#63b8ff" stroke="#63b8ff" points="1164.12,-703.92 1173.29,-709.22 1169.42,-699.35 1164.12,-703.92"/>
</a>
</g>
</g>
<!-- Node22 -->
<g id="Node000022" class="node">
<title>Node22</title>
<g id="a_Node000022"><a xlink:href="monitoreditem_8hpp.html" target="_top" xlink:title=" ">
<polygon fill="white" stroke="#666666" points="1413.67,-668 1220.67,-668 1220.67,-627 1413.67,-627 1413.67,-668"/>
<text text-anchor="start" x="1228.67" y="-656" font-family="Helvetica,sans-Serif" font-size="10.00">/home/runner/work/open62541pp</text>
<text text-anchor="start" x="1228.67" y="-645" font-family="Helvetica,sans-Serif" font-size="10.00">/open62541pp/include/open62541pp</text>
<text text-anchor="middle" x="1317.17" y="-634" font-family="Helvetica,sans-Serif" font-size="10.00">/monitoreditem.hpp</text>
</a>
</g>
</g>
<!-- Node21&#45;&gt;Node22 -->
<g id="edge45_Node000021_Node000022" class="edge">
<title>Node21&#45;&gt;Node22</title>
<g id="a_edge45_Node000021_Node000022"><a xlink:title=" ">
<path fill="none" stroke="#63b8ff" d="M1231.22,-703.85C1249.03,-692.38 1269.81,-679 1286.47,-668.27"/>
<polygon fill="#63b8ff" stroke="#63b8ff" points="1229.26,-700.95 1222.75,-709.31 1233.05,-706.84 1229.26,-700.95"/>
</a>
</g>
</g>
<!-- Node23 -->
<g id="Node000023" class="node">
<title>Node23</title>
<g id="a_Node000023"><a xlink:href="subscription_8hpp.html" target="_top" xlink:title=" ">
<polygon fill="white" stroke="#666666" points="1351.67,-585.5 1158.67,-585.5 1158.67,-544.5 1351.67,-544.5 1351.67,-585.5"/>
<text text-anchor="start" x="1166.67" y="-573.5" font-family="Helvetica,sans-Serif" font-size="10.00">/home/runner/work/open62541pp</text>
<text text-anchor="start" x="1166.67" y="-562.5" font-family="Helvetica,sans-Serif" font-size="10.00">/open62541pp/include/open62541pp</text>
<text text-anchor="middle" x="1255.17" y="-551.5" font-family="Helvetica,sans-Serif" font-size="10.00">/subscription.hpp</text>
</a>
</g>
</g>
<!-- Node21&#45;&gt;Node23 -->
<g id="edge52_Node000021_Node000023" class="edge">
<title>Node21&#45;&gt;Node23</title>
<g id="a_edge52_Node000021_Node000023"><a xlink:title=" ">
<path fill="none" stroke="#63b8ff" d="M1194.67,-699.31C1197.22,-678.42 1202.27,-650.17 1212.17,-627 1218.58,-611.99 1229.1,-596.98 1238.13,-585.6"/>
<polygon fill="#63b8ff" stroke="#63b8ff" points="1191.16,-699.17 1193.56,-709.49 1198.12,-699.93 1191.16,-699.17"/>
</a>
</g>
</g>
<!-- Node22&#45;&gt;Node8 -->
<g id="edge46_Node000022_Node000008" class="edge">
<title>Node22&#45;&gt;Node8</title>
<g id="a_edge46_Node000022_Node000008"><a xlink:title=" ">
<path fill="none" stroke="#63b8ff" d="M1354.56,-620.69C1391.39,-591.91 1442.17,-541.69 1442.17,-483.5 1442.17,-483.5 1442.17,-483.5 1442.17,-173.5 1442.17,-128.17 1444.04,-105.96 1409.17,-77 1367.24,-42.17 1223.87,-29.19 1125.73,-24.36"/>
<polygon fill="#63b8ff" stroke="#63b8ff" points="1352.31,-618.01 1346.48,-626.85 1356.55,-623.58 1352.31,-618.01"/>
</a>
</g>
</g>
<!-- Node22&#45;&gt;Node23 -->
<g id="edge47_Node000022_Node000023" class="edge">
<title>Node22&#45;&gt;Node23</title>
<g id="a_edge47_Node000022_Node000023"><a xlink:title=" ">
<path fill="none" stroke="#63b8ff" d="M1295.69,-618.62C1287.33,-607.76 1277.95,-595.58 1270.32,-585.67"/>
<polygon fill="#63b8ff" stroke="#63b8ff" points="1292.97,-620.81 1301.84,-626.6 1298.51,-616.54 1292.97,-620.81"/>
</a>
</g>
</g>
<!-- Node23&#45;&gt;Node3 -->
<g id="edge48_Node000023_Node000003" class="edge">
<title>Node23&#45;&gt;Node3</title>
<g id="a_edge48_Node000023_Node000003"><a xlink:title=" ">
<path fill="none" stroke="#63b8ff" d="M1148.58,-549.72C1035.93,-534.63 859.8,-511.04 750.99,-496.47"/>
<polygon fill="#63b8ff" stroke="#63b8ff" points="1148.23,-553.21 1158.61,-551.07 1149.16,-546.27 1148.23,-553.21"/>
</a>
</g>
</g>
<!-- Node23&#45;&gt;Node8 -->
<g id="edge49_Node000023_Node000008" class="edge">
<title>Node23&#45;&gt;Node8</title>
<g id="a_edge49_Node000023_Node000008"><a xlink:title=" ">
<path fill="none" stroke="#63b8ff" d="M1303.1,-539.1C1346.66,-512.64 1404.17,-466.37 1404.17,-406.5 1404.17,-406.5 1404.17,-406.5 1404.17,-173.5 1404.17,-129.79 1416.69,-107.29 1385.17,-77 1348.97,-42.22 1218.23,-29.23 1125.72,-24.39"/>
<polygon fill="#63b8ff" stroke="#63b8ff" points="1301.15,-536.18 1294.32,-544.28 1304.71,-542.21 1301.15,-536.18"/>
</a>
</g>
</g>
<!-- Node23&#45;&gt;Node16 -->
<g id="edge50_Node000023_Node000016" class="edge">
<title>Node23&#45;&gt;Node16</title>
<g id="a_edge50_Node000023_Node000016"><a xlink:title=" ">
<path fill="none" stroke="#63b8ff" d="M1262.42,-534.37C1269.48,-502.87 1279.17,-451.48 1279.17,-406.5 1279.17,-406.5 1279.17,-406.5 1279.17,-250.5 1279.17,-203 1279.17,-147.15 1279.17,-118.18"/>
<polygon fill="#63b8ff" stroke="#63b8ff" points="1258.98,-533.73 1260.14,-544.26 1265.8,-535.3 1258.98,-533.73"/>
</a>
</g>
</g>
<!-- Node24&#45;&gt;Node10 -->
<g id="edge55_Node000024_Node000010" class="edge">
<title>Node24&#45;&gt;Node10</title>
<g id="a_edge55_Node000024_Node000010"><a xlink:title=" ">
<path fill="none" stroke="#63b8ff" d="M953.32,-617.07C964.53,-584.79 980.17,-531.22 980.17,-483.5 980.17,-483.5 980.17,-483.5 980.17,-250.5 980.17,-181.59 904.09,-139.94 845.54,-118.09"/>
<polygon fill="#63b8ff" stroke="#63b8ff" points="949.92,-616.18 949.86,-626.77 956.52,-618.53 949.92,-616.18"/>
</a>
</g>
</g>
<!-- Node24&#45;&gt;Node23 -->
<g id="edge56_Node000024_Node000023" class="edge">
<title>Node24&#45;&gt;Node23</title>
<g id="a_edge56_Node000024_Node000023"><a xlink:title=" ">
<path fill="none" stroke="#63b8ff" d="M1028.25,-624.36C1075.52,-612.2 1133.63,-597.26 1179.2,-585.54"/>
<polygon fill="#63b8ff" stroke="#63b8ff" points="1027.15,-621.03 1018.34,-626.91 1028.89,-627.81 1027.15,-621.03"/>
</a>
</g>
</g>
</g>
</svg>
