<?xml version="1.0" encoding="UTF-8" standalone="no"?>
<!DOCTYPE svg PUBLIC "-//W3C//DTD SVG 1.1//EN"
 "http://www.w3.org/Graphics/SVG/1.1/DTD/svg11.dtd">
<!-- Generated by graphviz version 2.43.0 (0)
 -->
<!-- Title: /home/runner/work/open62541pp/open62541pp/include/open62541pp/TypeRegistry.h Pages: 1 -->
<svg width="1628pt" height="489pt"
 viewBox="0.00 0.00 1628.18 489.00" xmlns="http://www.w3.org/2000/svg" xmlns:xlink="http://www.w3.org/1999/xlink">
<g id="graph0" class="graph" transform="scale(1 1) rotate(0) translate(4 485)">
<title>/home/runner/work/open62541pp/open62541pp/include/open62541pp/TypeRegistry.h</title>
<!-- Node1 -->
<g id="Node000001" class="node">
<title>Node1</title>
<g id="a_Node000001"><a xlink:title=" ">
<polygon fill="#999999" stroke="#666666" points="769,-481 576,-481 576,-440 769,-440 769,-481"/>
<text text-anchor="start" x="584" y="-469" font-family="Helvetica,sans-Serif" font-size="10.00">/home/runner/work/open62541pp</text>
<text text-anchor="start" x="584" y="-458" font-family="Helvetica,sans-Serif" font-size="10.00">/open62541pp/include/open62541pp</text>
<text text-anchor="middle" x="672.5" y="-447" font-family="Helvetica,sans-Serif" font-size="10.00">/TypeRegistry.h</text>
</a>
</g>
</g>
<!-- Node2 -->
<g id="Node000002" class="node">
<title>Node2</title>
<g id="a_Node000002"><a xlink:title=" ">
<polygon fill="#e0e0e0" stroke="#999999" points="69,-200.5 0,-200.5 0,-181.5 69,-181.5 69,-200.5"/>
<text text-anchor="middle" x="34.5" y="-188.5" font-family="Helvetica,sans-Serif" font-size="10.00">type_traits</text>
</a>
</g>
</g>
<!-- Node1&#45;&gt;Node2 -->
<g id="edge1_Node000001_Node000002" class="edge">
<title>Node1&#45;&gt;Node2</title>
<g id="a_edge1_Node000001_Node000002"><a xlink:title=" ">
<path fill="none" stroke="#63b8ff" d="M575.89,-455.54C412.27,-446.67 91.29,-419.12 18.5,-338 -13.63,-302.19 10.29,-239.86 25.09,-209.55"/>
<polygon fill="#63b8ff" stroke="#63b8ff" points="28.24,-211.09 29.67,-200.59 22.01,-207.9 28.24,-211.09"/>
</a>
</g>
</g>
<!-- Node3 -->
<g id="Node000003" class="node">
<title>Node3</title>
<g id="a_Node000003"><a xlink:href="TypeWrapper_8h.html" target="_top" xlink:title=" ">
<polygon fill="white" stroke="#666666" points="666.5,-398.5 508.5,-398.5 508.5,-379.5 666.5,-379.5 666.5,-398.5"/>
<text text-anchor="middle" x="587.5" y="-386.5" font-family="Helvetica,sans-Serif" font-size="10.00">open62541pp/TypeWrapper.h</text>
</a>
</g>
</g>
<!-- Node1&#45;&gt;Node3 -->
<g id="edge2_Node000001_Node000003" class="edge">
<title>Node1&#45;&gt;Node3</title>
<g id="a_edge2_Node000001_Node000003"><a xlink:title=" ">
<path fill="none" stroke="#63b8ff" d="M648.37,-439.77C634.97,-428.81 618.55,-415.39 606.15,-405.25"/>
<polygon fill="#63b8ff" stroke="#63b8ff" points="608.24,-402.44 598.29,-398.82 603.81,-407.86 608.24,-402.44"/>
</a>
</g>
</g>
<!-- Node13 -->
<g id="Node000013" class="node">
<title>Node13</title>
<g id="a_Node000013"><a xlink:href="common_8h.html" target="_top" xlink:title=" ">
<polygon fill="white" stroke="#666666" points="1026.5,-206 898.5,-206 898.5,-176 1026.5,-176 1026.5,-206"/>
<text text-anchor="start" x="906.5" y="-194" font-family="Helvetica,sans-Serif" font-size="10.00">open62541pp/detail</text>
<text text-anchor="middle" x="962.5" y="-183" font-family="Helvetica,sans-Serif" font-size="10.00">/open62541/common.h</text>
</a>
</g>
</g>
<!-- Node1&#45;&gt;Node13 -->
<g id="edge42_Node000001_Node000013" class="edge">
<title>Node1&#45;&gt;Node13</title>
<g id="a_edge42_Node000001_Node000013"><a xlink:title=" ">
<path fill="none" stroke="#63b8ff" d="M769.14,-451.75C844.7,-440.06 945.25,-410.83 996.5,-338 1021.08,-303.08 1014.13,-282.47 1000.5,-242 997.05,-231.77 990.59,-221.98 983.96,-213.81"/>
<polygon fill="#63b8ff" stroke="#63b8ff" points="986.58,-211.48 977.38,-206.23 981.29,-216.07 986.58,-211.48"/>
</a>
</g>
</g>
<!-- Node29 -->
<g id="Node000029" class="node">
<title>Node29</title>
<g id="a_Node000029"><a xlink:href="traits_8h.html" target="_top" xlink:title=" ">
<polygon fill="white" stroke="#666666" points="489,-272 376,-272 376,-242 489,-242 489,-272"/>
<text text-anchor="start" x="384" y="-260" font-family="Helvetica,sans-Serif" font-size="10.00">open62541pp/detail</text>
<text text-anchor="middle" x="432.5" y="-249" font-family="Helvetica,sans-Serif" font-size="10.00">/traits.h</text>
</a>
</g>
</g>
<!-- Node1&#45;&gt;Node29 -->
<g id="edge43_Node000001_Node000029" class="edge">
<title>Node1&#45;&gt;Node29</title>
<g id="a_edge43_Node000001_Node000029"><a xlink:title=" ">
<path fill="none" stroke="#63b8ff" d="M575.85,-443.65C548.73,-435.43 520.86,-422.94 499.5,-404 462.76,-371.41 444.86,-314.58 437.27,-282.27"/>
<polygon fill="#63b8ff" stroke="#63b8ff" points="440.65,-281.34 435.08,-272.32 433.81,-282.84 440.65,-281.34"/>
</a>
</g>
</g>
<!-- Node30 -->
<g id="Node000030" class="node">
<title>Node30</title>
<g id="a_Node000030"><a xlink:href="TypeRegistryNative_8h.html" target="_top" xlink:title=" ">
<polygon fill="white" stroke="#666666" points="833,-404 684,-404 684,-374 833,-374 833,-404"/>
<text text-anchor="start" x="692" y="-392" font-family="Helvetica,sans-Serif" font-size="10.00">open62541pp/TypeRegistry</text>
<text text-anchor="middle" x="758.5" y="-381" font-family="Helvetica,sans-Serif" font-size="10.00">Native.h</text>
</a>
</g>
</g>
<!-- Node1&#45;&gt;Node30 -->
<g id="edge44_Node000001_Node000030" class="edge">
<title>Node1&#45;&gt;Node30</title>
<g id="a_edge44_Node000001_Node000030"><a xlink:title=" ">
<path fill="none" stroke="#63b8ff" d="M690.76,-439.77C701.44,-430.51 715.06,-419.49 727.35,-410.17"/>
<polygon fill="#63b8ff" stroke="#63b8ff" points="729.65,-412.82 735.58,-404.04 725.47,-407.2 729.65,-412.82"/>
</a>
</g>
</g>
<!-- Node3&#45;&gt;Node2 -->
<g id="edge5_Node000003_Node000002" class="edge">
<title>Node3&#45;&gt;Node2</title>
<g id="a_edge5_Node000003_Node000002"><a xlink:title=" ">
<path fill="none" stroke="#63b8ff" d="M508.29,-386.52C363.71,-383 68.94,-371.73 37.5,-338 5.17,-303.32 18.48,-241.38 28,-210.53"/>
<polygon fill="#63b8ff" stroke="#63b8ff" points="31.44,-211.27 31.24,-200.68 24.79,-209.08 31.44,-211.27"/>
</a>
</g>
</g>
<!-- Node4 -->
<g id="Node000004" class="node">
<title>Node4</title>
<g id="a_Node000004"><a xlink:title=" ">
<polygon fill="#e0e0e0" stroke="#999999" points="934.5,-266.5 882.5,-266.5 882.5,-247.5 934.5,-247.5 934.5,-266.5"/>
<text text-anchor="middle" x="908.5" y="-254.5" font-family="Helvetica,sans-Serif" font-size="10.00">cassert</text>
</a>
</g>
</g>
<!-- Node3&#45;&gt;Node4 -->
<g id="edge3_Node000003_Node000004" class="edge">
<title>Node3&#45;&gt;Node4</title>
<g id="a_edge3_Node000003_Node000004"><a xlink:title=" ">
<path fill="none" stroke="#63b8ff" d="M634.7,-379.46C670.75,-371.77 720.96,-358.48 761.5,-338 781.02,-328.14 781.8,-319.33 800.5,-308 825.02,-293.15 854.69,-279.71 876.72,-270.51"/>
<polygon fill="#63b8ff" stroke="#63b8ff" points="878.34,-273.63 886.26,-266.59 875.68,-267.15 878.34,-273.63"/>
</a>
</g>
</g>
<!-- Node5 -->
<g id="Node000005" class="node">
<title>Node5</title>
<g id="a_Node000005"><a xlink:title=" ">
<polygon fill="#e0e0e0" stroke="#999999" points="357.5,-266.5 307.5,-266.5 307.5,-247.5 357.5,-247.5 357.5,-266.5"/>
<text text-anchor="middle" x="332.5" y="-254.5" font-family="Helvetica,sans-Serif" font-size="10.00">cstdint</text>
</a>
</g>
</g>
<!-- Node3&#45;&gt;Node5 -->
<g id="edge4_Node000003_Node000005" class="edge">
<title>Node3&#45;&gt;Node5</title>
<g id="a_edge4_Node000003_Node000005"><a xlink:title=" ">
<path fill="none" stroke="#63b8ff" d="M570.77,-379.47C527.27,-357.3 410.4,-297.72 358.25,-271.13"/>
<polygon fill="#63b8ff" stroke="#63b8ff" points="359.79,-267.98 349.29,-266.56 356.61,-274.22 359.79,-267.98"/>
</a>
</g>
</g>
<!-- Node6 -->
<g id="Node000006" class="node">
<title>Node6</title>
<g id="a_Node000006"><a xlink:title=" ">
<polygon fill="#e0e0e0" stroke="#999999" points="854,-332.5 809,-332.5 809,-313.5 854,-313.5 854,-332.5"/>
<text text-anchor="middle" x="831.5" y="-320.5" font-family="Helvetica,sans-Serif" font-size="10.00">utility</text>
</a>
</g>
</g>
<!-- Node3&#45;&gt;Node6 -->
<g id="edge6_Node000003_Node000006" class="edge">
<title>Node3&#45;&gt;Node6</title>
<g id="a_edge6_Node000003_Node000006"><a xlink:title=" ">
<path fill="none" stroke="#63b8ff" d="M629.55,-379.46C671.67,-370.52 738.15,-355.39 794.5,-338 796.42,-337.41 798.38,-336.77 800.36,-336.1"/>
<polygon fill="#63b8ff" stroke="#63b8ff" points="801.9,-339.26 810.14,-332.6 799.54,-332.67 801.9,-339.26"/>
</a>
</g>
</g>
<!-- Node7 -->
<g id="Node000007" class="node">
<title>Node7</title>
<g id="a_Node000007"><a xlink:href="Common_8h.html" target="_top" xlink:title=" ">
<polygon fill="white" stroke="#666666" points="381,-332.5 242,-332.5 242,-313.5 381,-313.5 381,-332.5"/>
<text text-anchor="middle" x="311.5" y="-320.5" font-family="Helvetica,sans-Serif" font-size="10.00">open62541pp/Common.h</text>
</a>
</g>
</g>
<!-- Node3&#45;&gt;Node7 -->
<g id="edge7_Node000003_Node000007" class="edge">
<title>Node3&#45;&gt;Node7</title>
<g id="a_edge7_Node000003_Node000007"><a xlink:title=" ">
<path fill="none" stroke="#63b8ff" d="M550.56,-379.44C500.89,-367.92 412.53,-347.43 358.26,-334.84"/>
<polygon fill="#63b8ff" stroke="#63b8ff" points="358.75,-331.36 348.22,-332.51 357.17,-338.18 358.75,-331.36"/>
</a>
</g>
</g>
<!-- Node10 -->
<g id="Node000010" class="node">
<title>Node10</title>
<g id="a_Node000010"><a xlink:href="ErrorHandling_8h.html" target="_top" xlink:title=" ">
<polygon fill="white" stroke="#666666" points="668,-266.5 507,-266.5 507,-247.5 668,-247.5 668,-266.5"/>
<text text-anchor="middle" x="587.5" y="-254.5" font-family="Helvetica,sans-Serif" font-size="10.00">open62541pp/ErrorHandling.h</text>
</a>
</g>
</g>
<!-- Node3&#45;&gt;Node10 -->
<g id="edge12_Node000003_Node000010" class="edge">
<title>Node3&#45;&gt;Node10</title>
<g id="a_edge12_Node000003_Node000010"><a xlink:title=" ">
<path fill="none" stroke="#63b8ff" d="M587.5,-379.47C587.5,-358.82 587.5,-305.72 587.5,-277.04"/>
<polygon fill="#63b8ff" stroke="#63b8ff" points="591,-276.73 587.5,-266.73 584,-276.73 591,-276.73"/>
</a>
</g>
</g>
<!-- Node3&#45;&gt;Node13 -->
<g id="edge33_Node000003_Node000013" class="edge">
<title>Node3&#45;&gt;Node13</title>
<g id="a_edge33_Node000003_Node000013"><a xlink:title=" ">
<path fill="none" stroke="#63b8ff" d="M638.3,-379.48C715.2,-366.48 853.34,-342.71 863.5,-338 905.31,-318.6 919.13,-311.12 943.5,-272 954.03,-255.1 958.72,-232.88 960.82,-216.14"/>
<polygon fill="#63b8ff" stroke="#63b8ff" points="964.31,-216.35 961.85,-206.05 957.35,-215.64 964.31,-216.35"/>
</a>
</g>
</g>
<!-- Node25 -->
<g id="Node000025" class="node">
<title>Node25</title>
<g id="a_Node000025"><a xlink:href="Wrapper_8h.html" target="_top" xlink:title=" ">
<polygon fill="white" stroke="#666666" points="182,-332.5 47,-332.5 47,-313.5 182,-313.5 182,-332.5"/>
<text text-anchor="middle" x="114.5" y="-320.5" font-family="Helvetica,sans-Serif" font-size="10.00">open62541pp/Wrapper.h</text>
</a>
</g>
</g>
<!-- Node3&#45;&gt;Node25 -->
<g id="edge31_Node000003_Node000025" class="edge">
<title>Node3&#45;&gt;Node25</title>
<g id="a_edge31_Node000003_Node000025"><a xlink:title=" ">
<path fill="none" stroke="#63b8ff" d="M524.2,-379.44C436.85,-367.62 279.72,-346.36 187.51,-333.88"/>
<polygon fill="#63b8ff" stroke="#63b8ff" points="187.8,-330.39 177.43,-332.51 186.87,-337.32 187.8,-330.39"/>
</a>
</g>
</g>
<!-- Node26 -->
<g id="Node000026" class="node">
<title>Node26</title>
<g id="a_Node000026"><a xlink:href="types__handling_8h.html" target="_top" xlink:title=" ">
<polygon fill="white" stroke="#666666" points="752,-338 639,-338 639,-308 752,-308 752,-338"/>
<text text-anchor="start" x="647" y="-326" font-family="Helvetica,sans-Serif" font-size="10.00">open62541pp/detail</text>
<text text-anchor="middle" x="695.5" y="-315" font-family="Helvetica,sans-Serif" font-size="10.00">/types_handling.h</text>
</a>
</g>
</g>
<!-- Node3&#45;&gt;Node26 -->
<g id="edge34_Node000003_Node000026" class="edge">
<title>Node3&#45;&gt;Node26</title>
<g id="a_edge34_Node000003_Node000026"><a xlink:title=" ">
<path fill="none" stroke="#63b8ff" d="M602.07,-379.37C617.61,-370.16 642.75,-355.26 663.04,-343.24"/>
<polygon fill="#63b8ff" stroke="#63b8ff" points="664.86,-346.22 671.68,-338.12 661.29,-340.2 664.86,-346.22"/>
</a>
</g>
</g>
<!-- Node7&#45;&gt;Node5 -->
<g id="edge8_Node000007_Node000005" class="edge">
<title>Node7&#45;&gt;Node5</title>
<g id="a_edge8_Node000007_Node000005"><a xlink:title=" ">
<path fill="none" stroke="#63b8ff" d="M314.33,-313.37C317.41,-303.97 322.44,-288.67 326.42,-276.53"/>
<polygon fill="#63b8ff" stroke="#63b8ff" points="329.79,-277.5 329.58,-266.91 323.13,-275.32 329.79,-277.5"/>
</a>
</g>
</g>
<!-- Node8 -->
<g id="Node000008" class="node">
<title>Node8</title>
<g id="a_Node000008"><a xlink:title=" ">
<polygon fill="#e0e0e0" stroke="#999999" points="136,-266.5 63,-266.5 63,-247.5 136,-247.5 136,-266.5"/>
<text text-anchor="middle" x="99.5" y="-254.5" font-family="Helvetica,sans-Serif" font-size="10.00">string_view</text>
</a>
</g>
</g>
<!-- Node7&#45;&gt;Node8 -->
<g id="edge9_Node000007_Node000008" class="edge">
<title>Node7&#45;&gt;Node8</title>
<g id="a_edge9_Node000007_Node000008"><a xlink:title=" ">
<path fill="none" stroke="#63b8ff" d="M283,-313.44C249.93,-303.51 193.75,-286.61 145.5,-272 142.89,-271.21 140.2,-270.4 137.5,-269.57"/>
<polygon fill="#63b8ff" stroke="#63b8ff" points="138.3,-266.16 127.72,-266.6 136.27,-272.86 138.3,-266.16"/>
</a>
</g>
</g>
<!-- Node9 -->
<g id="Node000009" class="node">
<title>Node9</title>
<g id="a_Node000009"><a xlink:href="Bitmask_8h.html" target="_top" xlink:title=" ">
<polygon fill="white" stroke="#666666" points="289,-266.5 154,-266.5 154,-247.5 289,-247.5 289,-266.5"/>
<text text-anchor="middle" x="221.5" y="-254.5" font-family="Helvetica,sans-Serif" font-size="10.00">open62541pp/Bitmask.h</text>
</a>
</g>
</g>
<!-- Node7&#45;&gt;Node9 -->
<g id="edge10_Node000007_Node000009" class="edge">
<title>Node7&#45;&gt;Node9</title>
<g id="a_edge10_Node000007_Node000009"><a xlink:title=" ">
<path fill="none" stroke="#63b8ff" d="M299.36,-313.37C284.73,-302.97 259.92,-285.32 242.24,-272.75"/>
<polygon fill="#63b8ff" stroke="#63b8ff" points="243.91,-269.64 233.73,-266.7 239.85,-275.35 243.91,-269.64"/>
</a>
</g>
</g>
<!-- Node9&#45;&gt;Node2 -->
<g id="edge11_Node000009_Node000002" class="edge">
<title>Node9&#45;&gt;Node2</title>
<g id="a_edge11_Node000009_Node000002"><a xlink:title=" ">
<path fill="none" stroke="#63b8ff" d="M196.28,-247.37C163.57,-236.17 106.33,-216.58 69.44,-203.96"/>
<polygon fill="#63b8ff" stroke="#63b8ff" points="70.21,-200.52 59.62,-200.6 67.95,-207.15 70.21,-200.52"/>
</a>
</g>
</g>
<!-- Node11 -->
<g id="Node000011" class="node">
<title>Node11</title>
<g id="a_Node000011"><a xlink:title=" ">
<polygon fill="#e0e0e0" stroke="#999999" points="640,-200.5 603,-200.5 603,-181.5 640,-181.5 640,-200.5"/>
<text text-anchor="middle" x="621.5" y="-188.5" font-family="Helvetica,sans-Serif" font-size="10.00">new</text>
</a>
</g>
</g>
<!-- Node10&#45;&gt;Node11 -->
<g id="edge13_Node000010_Node000011" class="edge">
<title>Node10&#45;&gt;Node11</title>
<g id="a_edge13_Node000010_Node000011"><a xlink:title=" ">
<path fill="none" stroke="#63b8ff" d="M592.09,-247.37C597.18,-237.78 605.54,-222.05 612.04,-209.8"/>
<polygon fill="#63b8ff" stroke="#63b8ff" points="615.17,-211.38 616.77,-200.91 608.99,-208.09 615.17,-211.38"/>
</a>
</g>
</g>
<!-- Node12 -->
<g id="Node000012" class="node">
<title>Node12</title>
<g id="a_Node000012"><a xlink:title=" ">
<polygon fill="#e0e0e0" stroke="#999999" points="585,-200.5 520,-200.5 520,-181.5 585,-181.5 585,-200.5"/>
<text text-anchor="middle" x="552.5" y="-188.5" font-family="Helvetica,sans-Serif" font-size="10.00">stdexcept</text>
</a>
</g>
</g>
<!-- Node10&#45;&gt;Node12 -->
<g id="edge14_Node000010_Node000012" class="edge">
<title>Node10&#45;&gt;Node12</title>
<g id="a_edge14_Node000010_Node000012"><a xlink:title=" ">
<path fill="none" stroke="#63b8ff" d="M582.78,-247.37C577.54,-237.78 568.93,-222.05 562.23,-209.8"/>
<polygon fill="#63b8ff" stroke="#63b8ff" points="565.24,-208 557.37,-200.91 559.1,-211.36 565.24,-208"/>
</a>
</g>
</g>
<!-- Node10&#45;&gt;Node13 -->
<g id="edge15_Node000010_Node000013" class="edge">
<title>Node10&#45;&gt;Node13</title>
<g id="a_edge15_Node000010_Node000013"><a xlink:title=" ">
<path fill="none" stroke="#63b8ff" d="M637.69,-247.44C701.92,-236.47 813.76,-217.39 887.96,-204.72"/>
<polygon fill="#63b8ff" stroke="#63b8ff" points="888.9,-208.11 898.17,-202.98 887.73,-201.21 888.9,-208.11"/>
</a>
</g>
</g>
<!-- Node14 -->
<g id="Node000014" class="node">
<title>Node14</title>
<g id="a_Node000014"><a xlink:href="push__options_8h.html" target="_top" xlink:title=" ">
<polygon fill="white" stroke="#666666" points="772.5,-30 622.5,-30 622.5,0 772.5,0 772.5,-30"/>
<text text-anchor="start" x="630.5" y="-18" font-family="Helvetica,sans-Serif" font-size="10.00">open62541pp/detail</text>
<text text-anchor="middle" x="697.5" y="-7" font-family="Helvetica,sans-Serif" font-size="10.00">/open62541/push_options.h</text>
</a>
</g>
</g>
<!-- Node13&#45;&gt;Node14 -->
<g id="edge16_Node000013_Node000014" class="edge">
<title>Node13&#45;&gt;Node14</title>
<g id="a_edge16_Node000013_Node000014"><a xlink:title=" ">
<path fill="none" stroke="#63b8ff" d="M898.33,-187.18C784.17,-181.51 555.46,-166.89 531.5,-140 490.96,-94.49 576.8,-54.9 639.49,-33.33"/>
<polygon fill="#63b8ff" stroke="#63b8ff" points="640.96,-36.53 649.33,-30.03 638.73,-29.9 640.96,-36.53"/>
</a>
</g>
</g>
<!-- Node15 -->
<g id="Node000015" class="node">
<title>Node15</title>
<g id="a_Node000015"><a target="_blank" xlink:href="open62541/nodeids_8h.html" xlink:title=" ">
<polygon fill="white" stroke="#666666" points="661,-140 540,-140 540,-121 661,-121 661,-140"/>
<text text-anchor="middle" x="600.5" y="-128" font-family="Helvetica,sans-Serif" font-size="10.00">open62541/nodeids.h</text>
</a>
</g>
</g>
<!-- Node13&#45;&gt;Node15 -->
<g id="edge17_Node000013_Node000015" class="edge">
<title>Node13&#45;&gt;Node15</title>
<g id="a_edge17_Node000013_Node000015"><a xlink:title=" ">
<path fill="none" stroke="#63b8ff" d="M898.2,-179.61C831.95,-168.9 729.35,-152.32 663.56,-141.69"/>
<polygon fill="#63b8ff" stroke="#63b8ff" points="663.76,-138.18 653.33,-140.04 662.64,-145.09 663.76,-138.18"/>
</a>
</g>
</g>
<!-- Node16 -->
<g id="Node000016" class="node">
<title>Node16</title>
<g id="a_Node000016"><a target="_blank" xlink:href="open62541/statuscodes_8h.html" xlink:title=" ">
<polygon fill="white" stroke="#666666" points="820,-140 679,-140 679,-121 820,-121 820,-140"/>
<text text-anchor="middle" x="749.5" y="-128" font-family="Helvetica,sans-Serif" font-size="10.00">open62541/statuscodes.h</text>
</a>
</g>
</g>
<!-- Node13&#45;&gt;Node16 -->
<g id="edge18_Node000013_Node000016" class="edge">
<title>Node13&#45;&gt;Node16</title>
<g id="a_edge18_Node000013_Node000016"><a xlink:title=" ">
<path fill="none" stroke="#63b8ff" d="M911.48,-175.99C874.4,-165.8 824.88,-152.2 790.39,-142.73"/>
<polygon fill="#63b8ff" stroke="#63b8ff" points="791.21,-139.33 780.64,-140.05 789.36,-146.08 791.21,-139.33"/>
</a>
</g>
</g>
<!-- Node17 -->
<g id="Node000017" class="node">
<title>Node17</title>
<g id="a_Node000017"><a target="_blank" xlink:href="open62541/types_8h.html" xlink:title=" ">
<polygon fill="white" stroke="#666666" points="948.5,-140 838.5,-140 838.5,-121 948.5,-121 948.5,-140"/>
<text text-anchor="middle" x="893.5" y="-128" font-family="Helvetica,sans-Serif" font-size="10.00">open62541/types.h</text>
</a>
</g>
</g>
<!-- Node13&#45;&gt;Node17 -->
<g id="edge19_Node000013_Node000017" class="edge">
<title>Node13&#45;&gt;Node17</title>
<g id="a_edge19_Node000013_Node000017"><a xlink:title=" ">
<path fill="none" stroke="#63b8ff" d="M939.92,-175.84C928.71,-167.26 915.71,-156.3 906.19,-147.42"/>
<polygon fill="#63b8ff" stroke="#63b8ff" points="908.46,-144.74 898.86,-140.27 903.57,-149.75 908.46,-144.74"/>
</a>
</g>
</g>
<!-- Node20 -->
<g id="Node000020" class="node">
<title>Node20</title>
<g id="a_Node000020"><a xlink:href="pop__options_8h.html" target="_top" xlink:title=" ">
<polygon fill="white" stroke="#666666" points="1405,-30 1260,-30 1260,0 1405,0 1405,-30"/>
<text text-anchor="start" x="1268" y="-18" font-family="Helvetica,sans-Serif" font-size="10.00">open62541pp/detail</text>
<text text-anchor="middle" x="1332.5" y="-7" font-family="Helvetica,sans-Serif" font-size="10.00">/open62541/pop_options.h</text>
</a>
</g>
</g>
<!-- Node13&#45;&gt;Node20 -->
<g id="edge30_Node000013_Node000020" class="edge">
<title>Node13&#45;&gt;Node20</title>
<g id="a_edge30_Node000013_Node000020"><a xlink:title=" ">
<path fill="none" stroke="#63b8ff" d="M1026.51,-189.84C1181.43,-188.78 1566.72,-181.91 1605.5,-140 1667.51,-72.98 1516.37,-39.59 1415.07,-25.2"/>
<polygon fill="#63b8ff" stroke="#63b8ff" points="1415.51,-21.73 1405.12,-23.83 1414.55,-28.66 1415.51,-21.73"/>
</a>
</g>
</g>
<!-- Node21 -->
<g id="Node000021" class="node">
<title>Node21</title>
<g id="a_Node000021"><a target="_blank" xlink:href="open62541/types__generated_8h.html" xlink:title=" ">
<polygon fill="white" stroke="#666666" points="1280.5,-140 1116.5,-140 1116.5,-121 1280.5,-121 1280.5,-140"/>
<text text-anchor="middle" x="1198.5" y="-128" font-family="Helvetica,sans-Serif" font-size="10.00">open62541/types_generated.h</text>
</a>
</g>
</g>
<!-- Node13&#45;&gt;Node21 -->
<g id="edge25_Node000013_Node000021" class="edge">
<title>Node13&#45;&gt;Node21</title>
<g id="a_edge25_Node000013_Node000021"><a xlink:title=" ">
<path fill="none" stroke="#63b8ff" d="M1019.03,-175.99C1060.46,-165.72 1115.93,-151.97 1154.17,-142.49"/>
<polygon fill="#63b8ff" stroke="#63b8ff" points="1155.13,-145.86 1163.99,-140.05 1153.44,-139.06 1155.13,-145.86"/>
</a>
</g>
</g>
<!-- Node22 -->
<g id="Node000022" class="node">
<title>Node22</title>
<g id="a_Node000022"><a target="_blank" xlink:href="open62541/util_8h.html" xlink:title=" ">
<polygon fill="white" stroke="#666666" points="1396.5,-140 1298.5,-140 1298.5,-121 1396.5,-121 1396.5,-140"/>
<text text-anchor="middle" x="1347.5" y="-128" font-family="Helvetica,sans-Serif" font-size="10.00">open62541/util.h</text>
</a>
</g>
</g>
<!-- Node13&#45;&gt;Node22 -->
<g id="edge26_Node000013_Node000022" class="edge">
<title>Node13&#45;&gt;Node22</title>
<g id="a_edge26_Node000013_Node000022"><a xlink:title=" ">
<path fill="none" stroke="#63b8ff" d="M1026.51,-180.27C1099.36,-169.2 1217.42,-151.27 1288.24,-140.5"/>
<polygon fill="#63b8ff" stroke="#63b8ff" points="1288.97,-143.93 1298.34,-138.97 1287.92,-137.01 1288.97,-143.93"/>
</a>
</g>
</g>
<!-- Node23 -->
<g id="Node000023" class="node">
<title>Node23</title>
<g id="a_Node000023"><a target="_blank" xlink:href="open62541/accesscontrol_8h.html" xlink:title=" ">
<polygon fill="white" stroke="#666666" points="1596.5,-140 1414.5,-140 1414.5,-121 1596.5,-121 1596.5,-140"/>
<text text-anchor="middle" x="1505.5" y="-128" font-family="Helvetica,sans-Serif" font-size="10.00">open62541/plugin/accesscontrol.h</text>
</a>
</g>
</g>
<!-- Node13&#45;&gt;Node23 -->
<g id="edge27_Node000013_Node000023" class="edge">
<title>Node13&#45;&gt;Node23</title>
<g id="a_edge27_Node000013_Node000023"><a xlink:title=" ">
<path fill="none" stroke="#63b8ff" d="M1026.65,-183.09C1123.4,-172.67 1306.95,-152.89 1416.55,-141.08"/>
<polygon fill="#63b8ff" stroke="#63b8ff" points="1417.03,-144.55 1426.6,-140 1416.28,-137.59 1417.03,-144.55"/>
</a>
</g>
</g>
<!-- Node24 -->
<g id="Node000024" class="node">
<title>Node24</title>
<g id="a_Node000024"><a target="_blank" xlink:href="open62541/log_8h.html" xlink:title=" ">
<polygon fill="white" stroke="#666666" points="1098,-140 967,-140 967,-121 1098,-121 1098,-140"/>
<text text-anchor="middle" x="1032.5" y="-128" font-family="Helvetica,sans-Serif" font-size="10.00">open62541/plugin/log.h</text>
</a>
</g>
</g>
<!-- Node13&#45;&gt;Node24 -->
<g id="edge28_Node000013_Node000024" class="edge">
<title>Node13&#45;&gt;Node24</title>
<g id="a_edge28_Node000013_Node000024"><a xlink:title=" ">
<path fill="none" stroke="#63b8ff" d="M979.45,-175.84C989.92,-167.09 1003.36,-155.85 1014.09,-146.88"/>
<polygon fill="#63b8ff" stroke="#63b8ff" points="1016.58,-149.36 1022.01,-140.27 1012.09,-143.99 1016.58,-149.36"/>
</a>
</g>
</g>
<!-- Node17&#45;&gt;Node13 -->
<g id="edge24_Node000017_Node000013" class="edge">
<title>Node17&#45;&gt;Node13</title>
<g id="a_edge24_Node000017_Node000013"><a xlink:title=" ">
<path fill="none" stroke="#63b8ff" d="M908.82,-140.27C919.36,-147.83 933.13,-159.07 944.19,-168.96"/>
<polygon fill="#63b8ff" stroke="#63b8ff" points="941.94,-171.65 951.68,-175.84 946.68,-166.49 941.94,-171.65"/>
</a>
</g>
</g>
<!-- Node18 -->
<g id="Node000018" class="node">
<title>Node18</title>
<g id="a_Node000018"><a xlink:href="config_8h.html" target="_top" xlink:title=" ">
<polygon fill="white" stroke="#666666" points="1018.5,-85 906.5,-85 906.5,-66 1018.5,-66 1018.5,-85"/>
<text text-anchor="middle" x="962.5" y="-73" font-family="Helvetica,sans-Serif" font-size="10.00">open62541/config.h</text>
</a>
</g>
</g>
<!-- Node17&#45;&gt;Node18 -->
<g id="edge20_Node000017_Node000018" class="edge">
<title>Node17&#45;&gt;Node18</title>
<g id="a_edge20_Node000017_Node000018"><a xlink:title=" ">
<path fill="none" stroke="#63b8ff" d="M904.59,-120.98C914.99,-113 930.76,-100.88 943.22,-91.31"/>
<polygon fill="#63b8ff" stroke="#63b8ff" points="945.41,-94.04 951.21,-85.17 941.15,-88.49 945.41,-94.04"/>
</a>
</g>
</g>
<!-- Node18&#45;&gt;Node14 -->
<g id="edge21_Node000018_Node000014" class="edge">
<title>Node18&#45;&gt;Node14</title>
<g id="a_edge21_Node000018_Node000014"><a xlink:title=" ">
<path fill="none" stroke="#63b8ff" d="M923.97,-65.99C884.01,-57.17 820.58,-43.17 770.99,-32.22"/>
<polygon fill="#63b8ff" stroke="#63b8ff" points="771.47,-28.75 760.95,-30.01 769.96,-35.58 771.47,-28.75"/>
</a>
</g>
</g>
<!-- Node19 -->
<g id="Node000019" class="node">
<title>Node19</title>
<g id="a_Node000019"><a xlink:title=" ">
<polygon fill="#e0e0e0" stroke="#999999" points="1018.5,-24.5 906.5,-24.5 906.5,-5.5 1018.5,-5.5 1018.5,-24.5"/>
<text text-anchor="middle" x="962.5" y="-12.5" font-family="Helvetica,sans-Serif" font-size="10.00">open62541/config.h</text>
</a>
</g>
</g>
<!-- Node18&#45;&gt;Node19 -->
<g id="edge22_Node000018_Node000019" class="edge">
<title>Node18&#45;&gt;Node19</title>
<g id="a_edge22_Node000018_Node000019"><a xlink:title=" ">
<path fill="none" stroke="#63b8ff" d="M962.5,-65.87C962.5,-57.75 962.5,-45.31 962.5,-34.89"/>
<polygon fill="#63b8ff" stroke="#63b8ff" points="966,-34.67 962.5,-24.67 959,-34.67 966,-34.67"/>
</a>
</g>
</g>
<!-- Node18&#45;&gt;Node20 -->
<g id="edge23_Node000018_Node000020" class="edge">
<title>Node18&#45;&gt;Node20</title>
<g id="a_edge23_Node000018_Node000020"><a xlink:title=" ">
<path fill="none" stroke="#63b8ff" d="M1016.3,-65.99C1077.53,-56.31 1178.25,-40.39 1249.55,-29.12"/>
<polygon fill="#63b8ff" stroke="#63b8ff" points="1250.51,-32.51 1259.85,-27.49 1249.42,-25.59 1250.51,-32.51"/>
</a>
</g>
</g>
<!-- Node24&#45;&gt;Node18 -->
<g id="edge29_Node000024_Node000018" class="edge">
<title>Node24&#45;&gt;Node18</title>
<g id="a_edge29_Node000024_Node000018"><a xlink:title=" ">
<path fill="none" stroke="#63b8ff" d="M1021.25,-120.98C1010.7,-113 994.7,-100.88 982.06,-91.31"/>
<polygon fill="#63b8ff" stroke="#63b8ff" points="984.04,-88.42 973.95,-85.17 979.81,-94 984.04,-88.42"/>
</a>
</g>
</g>
<!-- Node25&#45;&gt;Node2 -->
<g id="edge32_Node000025_Node000002" class="edge">
<title>Node25&#45;&gt;Node2</title>
<g id="a_edge32_Node000025_Node000002"><a xlink:title=" ">
<path fill="none" stroke="#63b8ff" d="M99.03,-313.36C85,-304.72 64.82,-290.11 53.5,-272 41.82,-253.31 37.32,-228.07 35.58,-210.98"/>
<polygon fill="#63b8ff" stroke="#63b8ff" points="39.04,-210.32 34.77,-200.62 32.06,-210.87 39.04,-210.32"/>
</a>
</g>
</g>
<!-- Node26&#45;&gt;Node4 -->
<g id="edge36_Node000026_Node000004" class="edge">
<title>Node26&#45;&gt;Node4</title>
<g id="a_edge36_Node000026_Node000004"><a xlink:title=" ">
<path fill="none" stroke="#63b8ff" d="M746.82,-307.97C781.36,-298.33 827.85,-284.98 868.5,-272 870.75,-271.28 873.06,-270.53 875.38,-269.75"/>
<polygon fill="#63b8ff" stroke="#63b8ff" points="876.55,-273.05 884.88,-266.51 874.29,-266.42 876.55,-273.05"/>
</a>
</g>
</g>
<!-- Node26&#45;&gt;Node10 -->
<g id="edge38_Node000026_Node000010" class="edge">
<title>Node26&#45;&gt;Node10</title>
<g id="a_edge38_Node000026_Node000010"><a xlink:title=" ">
<path fill="none" stroke="#63b8ff" d="M671.8,-307.95C653.61,-297.18 628.64,-282.38 610.6,-271.69"/>
<polygon fill="#63b8ff" stroke="#63b8ff" points="612.26,-268.6 601.87,-266.52 608.69,-274.63 612.26,-268.6"/>
</a>
</g>
</g>
<!-- Node26&#45;&gt;Node13 -->
<g id="edge39_Node000026_Node000013" class="edge">
<title>Node26&#45;&gt;Node13</title>
<g id="a_edge39_Node000026_Node000013"><a xlink:title=" ">
<path fill="none" stroke="#63b8ff" d="M747.11,-307.99C774.32,-299.52 807.73,-287.38 835.5,-272 854.32,-261.58 855.62,-253.97 873.5,-242 890.12,-230.87 909.38,-219.84 925.73,-210.98"/>
<polygon fill="#63b8ff" stroke="#63b8ff" points="927.81,-213.83 934.97,-206.03 924.5,-207.66 927.81,-213.83"/>
</a>
</g>
</g>
<!-- Node27 -->
<g id="Node000027" class="node">
<title>Node27</title>
<g id="a_Node000027"><a xlink:title=" ">
<polygon fill="#e0e0e0" stroke="#999999" points="750.5,-266.5 686.5,-266.5 686.5,-247.5 750.5,-247.5 750.5,-266.5"/>
<text text-anchor="middle" x="718.5" y="-254.5" font-family="Helvetica,sans-Serif" font-size="10.00">algorithm</text>
</a>
</g>
</g>
<!-- Node26&#45;&gt;Node27 -->
<g id="edge35_Node000026_Node000027" class="edge">
<title>Node26&#45;&gt;Node27</title>
<g id="a_edge35_Node000026_Node000027"><a xlink:title=" ">
<path fill="none" stroke="#63b8ff" d="M700.6,-307.8C703.94,-298.5 708.34,-286.27 711.94,-276.26"/>
<polygon fill="#63b8ff" stroke="#63b8ff" points="715.23,-277.44 715.32,-266.84 708.65,-275.07 715.23,-277.44"/>
</a>
</g>
</g>
<!-- Node28 -->
<g id="Node000028" class="node">
<title>Node28</title>
<g id="a_Node000028"><a xlink:title=" ">
<polygon fill="#e0e0e0" stroke="#999999" points="826.5,-266.5 768.5,-266.5 768.5,-247.5 826.5,-247.5 826.5,-266.5"/>
<text text-anchor="middle" x="797.5" y="-254.5" font-family="Helvetica,sans-Serif" font-size="10.00">memory</text>
</a>
</g>
</g>
<!-- Node26&#45;&gt;Node28 -->
<g id="edge37_Node000026_Node000028" class="edge">
<title>Node26&#45;&gt;Node28</title>
<g id="a_edge37_Node000026_Node000028"><a xlink:title=" ">
<path fill="none" stroke="#63b8ff" d="M717.88,-307.95C734.91,-297.27 758.21,-282.65 775.21,-271.98"/>
<polygon fill="#63b8ff" stroke="#63b8ff" points="777.32,-274.8 783.93,-266.52 773.59,-268.87 777.32,-274.8"/>
</a>
</g>
</g>
<!-- Node26&#45;&gt;Node29 -->
<g id="edge40_Node000026_Node000029" class="edge">
<title>Node26&#45;&gt;Node29</title>
<g id="a_edge40_Node000026_Node000029"><a xlink:title=" ">
<path fill="none" stroke="#63b8ff" d="M638.76,-308.19C597.71,-298.2 542.11,-284.67 498.98,-274.18"/>
<polygon fill="#63b8ff" stroke="#63b8ff" points="499.69,-270.75 489.14,-271.78 498.03,-277.55 499.69,-270.75"/>
</a>
</g>
</g>
<!-- Node29&#45;&gt;Node2 -->
<g id="edge41_Node000029_Node000002" class="edge">
<title>Node29&#45;&gt;Node2</title>
<g id="a_edge41_Node000029_Node000002"><a xlink:title=" ">
<path fill="none" stroke="#63b8ff" d="M375.66,-243.72C372.57,-243.12 369.5,-242.54 366.5,-242 264.09,-223.44 143.02,-206.45 79.15,-197.86"/>
<polygon fill="#63b8ff" stroke="#63b8ff" points="79.4,-194.37 69.02,-196.51 78.47,-201.3 79.4,-194.37"/>
</a>
</g>
</g>
<!-- Node30&#45;&gt;Node1 -->
<g id="edge45_Node000030_Node000001" class="edge">
<title>Node30&#45;&gt;Node1</title>
<g id="a_edge45_Node000030_Node000001"><a xlink:title=" ">
<path fill="none" stroke="#63b8ff" d="M746.67,-404.04C737.37,-412.46 724.13,-423.44 711.35,-433.41"/>
<polygon fill="#63b8ff" stroke="#63b8ff" points="708.87,-430.9 703.07,-439.77 713.13,-436.45 708.87,-430.9"/>
</a>
</g>
</g>
<!-- Node30&#45;&gt;Node13 -->
<g id="edge46_Node000030_Node000013" class="edge">
<title>Node30&#45;&gt;Node13</title>
<g id="a_edge46_Node000030_Node000013"><a xlink:title=" ">
<path fill="none" stroke="#63b8ff" d="M833.17,-380.74C889,-373.59 958.66,-360.4 976.5,-338 1004.42,-302.96 987.34,-247.11 973.94,-215.62"/>
<polygon fill="#63b8ff" stroke="#63b8ff" points="977.05,-214 969.78,-206.3 970.66,-216.86 977.05,-214"/>
</a>
</g>
</g>
</g>
</svg>
