<?xml version="1.0" encoding="UTF-8" standalone="no"?>
<!DOCTYPE svg PUBLIC "-//W3C//DTD SVG 1.1//EN"
 "http://www.w3.org/Graphics/SVG/1.1/DTD/svg11.dtd">
<!-- Generated by graphviz version 2.43.0 (0)
 -->
<!-- Title: /home/runner/work/open62541pp/open62541pp/include/open62541pp/TypeWrapper.h Pages: 1 -->
<svg width="1303pt" height="518pt"
 viewBox="0.00 0.00 1303.21 518.00" xmlns="http://www.w3.org/2000/svg" xmlns:xlink="http://www.w3.org/1999/xlink">
<g id="graph0" class="graph" transform="scale(1 1) rotate(0) translate(4 514)">
<title>/home/runner/work/open62541pp/open62541pp/include/open62541pp/TypeWrapper.h</title>
<!-- Node1 -->
<g id="node1" class="node">
<title>Node1</title>
<g id="a_node1"><a xlink:title=" ">
<polygon fill="#bfbfbf" stroke="black" points="647.5,-468.5 647.5,-509.5 840.5,-509.5 840.5,-468.5 647.5,-468.5"/>
<text text-anchor="start" x="655.5" y="-497.5" font-family="Helvetica,sans-Serif" font-size="10.00">/home/runner/work/open62541pp</text>
<text text-anchor="start" x="655.5" y="-486.5" font-family="Helvetica,sans-Serif" font-size="10.00">/open62541pp/include/open62541pp</text>
<text text-anchor="middle" x="744" y="-475.5" font-family="Helvetica,sans-Serif" font-size="10.00">/TypeWrapper.h</text>
</a>
</g>
</g>
<!-- Node2 -->
<g id="node2" class="node">
<title>Node2</title>
<g id="a_node2"><a xlink:href="Node_8h.html" target="_top" xlink:title=" ">
<polygon fill="none" stroke="black" points="768,-78.5 768,-119.5 964,-119.5 964,-78.5 768,-78.5"/>
<text text-anchor="start" x="776" y="-107.5" font-family="Helvetica,sans-Serif" font-size="10.00">/home/runner/work/open62541pp</text>
<text text-anchor="start" x="776" y="-96.5" font-family="Helvetica,sans-Serif" font-size="10.00">/open62541pp/include/open62541pp/</text>
<text text-anchor="middle" x="866" y="-85.5" font-family="Helvetica,sans-Serif" font-size="10.00">Node.h</text>
</a>
</g>
</g>
<!-- Node1&#45;&gt;Node2 -->
<g id="edge1" class="edge">
<title>Node1&#45;&gt;Node2</title>
<path fill="none" stroke="midnightblue" d="M706.53,-461.72C697.09,-453.29 687.96,-443.2 682,-432 661.33,-393.16 668,-378 668,-334 668,-334 668,-334 668,-254 668,-184.54 744.86,-141.85 802.81,-119.54"/>
<polygon fill="midnightblue" stroke="midnightblue" points="704.56,-464.63 714.46,-468.39 709.06,-459.27 704.56,-464.63"/>
</g>
<!-- Node3 -->
<g id="node3" class="node">
<title>Node3</title>
<g id="a_node3"><a xlink:href="open62541pp_8h.html" target="_top" xlink:title=" ">
<polygon fill="none" stroke="black" points="832.5,-0.5 832.5,-41.5 1025.5,-41.5 1025.5,-0.5 832.5,-0.5"/>
<text text-anchor="start" x="840.5" y="-29.5" font-family="Helvetica,sans-Serif" font-size="10.00">/home/runner/work/open62541pp</text>
<text text-anchor="start" x="840.5" y="-18.5" font-family="Helvetica,sans-Serif" font-size="10.00">/open62541pp/include/open62541pp</text>
<text text-anchor="middle" x="929" y="-7.5" font-family="Helvetica,sans-Serif" font-size="10.00">/open62541pp.h</text>
</a>
</g>
</g>
<!-- Node1&#45;&gt;Node3 -->
<g id="edge5" class="edge">
<title>Node1&#45;&gt;Node3</title>
<path fill="none" stroke="midnightblue" d="M851.25,-480.87C959.3,-472.48 1117.85,-456.49 1174,-432 1236.49,-404.75 1292,-402.17 1292,-334 1292,-334 1292,-334 1292,-176 1292,-131.63 1304.84,-108.9 1273,-78 1238.59,-44.61 1114.92,-31.1 1025.71,-25.65"/>
<polygon fill="midnightblue" stroke="midnightblue" points="850.65,-477.41 840.95,-481.66 851.19,-484.39 850.65,-477.41"/>
</g>
<!-- Node4 -->
<g id="node4" class="node">
<title>Node4</title>
<g id="a_node4"><a xlink:href="Node_8cpp.html" target="_top" xlink:title=" ">
<polygon fill="none" stroke="black" points="91,-6 91,-36 269,-36 269,-6 91,-6"/>
<text text-anchor="start" x="99" y="-24" font-family="Helvetica,sans-Serif" font-size="10.00">/home/runner/work/open62541pp</text>
<text text-anchor="middle" x="180" y="-13" font-family="Helvetica,sans-Serif" font-size="10.00">/open62541pp/src/Node.cpp</text>
</a>
</g>
</g>
<!-- Node1&#45;&gt;Node4 -->
<g id="edge33" class="edge">
<title>Node1&#45;&gt;Node4</title>
<path fill="none" stroke="midnightblue" d="M637.27,-487.84C431.5,-484.63 0,-462.58 0,-334 0,-334 0,-334 0,-176 0,-103.21 86.05,-57.45 139.16,-36.15"/>
<polygon fill="midnightblue" stroke="midnightblue" points="637.45,-491.34 647.5,-487.99 637.55,-484.34 637.45,-491.34"/>
</g>
<!-- Node6 -->
<g id="node6" class="node">
<title>Node6</title>
<g id="a_node6"><a xlink:href="TypeConverter_8h.html" target="_top" xlink:title=" ">
<polygon fill="none" stroke="black" points="772.5,-312.5 772.5,-353.5 965.5,-353.5 965.5,-312.5 772.5,-312.5"/>
<text text-anchor="start" x="780.5" y="-341.5" font-family="Helvetica,sans-Serif" font-size="10.00">/home/runner/work/open62541pp</text>
<text text-anchor="start" x="780.5" y="-330.5" font-family="Helvetica,sans-Serif" font-size="10.00">/open62541pp/include/open62541pp</text>
<text text-anchor="middle" x="869" y="-319.5" font-family="Helvetica,sans-Serif" font-size="10.00">/TypeConverter.h</text>
</a>
</g>
</g>
<!-- Node1&#45;&gt;Node6 -->
<g id="edge6" class="edge">
<title>Node1&#45;&gt;Node6</title>
<path fill="none" stroke="midnightblue" d="M766.44,-460.36C791.34,-429.68 830.9,-380.94 852.9,-353.83"/>
<polygon fill="midnightblue" stroke="midnightblue" points="763.42,-458.53 759.83,-468.5 768.85,-462.94 763.42,-458.53"/>
</g>
<!-- Node7 -->
<g id="node7" class="node">
<title>Node7</title>
<g id="a_node7"><a xlink:href="Variant_8h.html" target="_top" xlink:title=" ">
<polygon fill="none" stroke="black" points="769.5,-234.5 769.5,-275.5 962.5,-275.5 962.5,-234.5 769.5,-234.5"/>
<text text-anchor="start" x="777.5" y="-263.5" font-family="Helvetica,sans-Serif" font-size="10.00">/home/runner/work/open62541pp</text>
<text text-anchor="start" x="777.5" y="-252.5" font-family="Helvetica,sans-Serif" font-size="10.00">/open62541pp/include/open62541pp</text>
<text text-anchor="middle" x="866" y="-241.5" font-family="Helvetica,sans-Serif" font-size="10.00">/types/Variant.h</text>
</a>
</g>
</g>
<!-- Node1&#45;&gt;Node7 -->
<g id="edge32" class="edge">
<title>Node1&#45;&gt;Node7</title>
<path fill="none" stroke="midnightblue" d="M739.56,-458.09C735.64,-420.63 734.45,-356.05 764,-312 774.75,-295.98 791.67,-284.12 808.67,-275.54"/>
<polygon fill="midnightblue" stroke="midnightblue" points="736.12,-458.82 740.78,-468.34 743.07,-458 736.12,-458.82"/>
</g>
<!-- Node8 -->
<g id="node8" class="node">
<title>Node8</title>
<g id="a_node8"><a xlink:href="DataValue_8h.html" target="_top" xlink:title=" ">
<polygon fill="none" stroke="black" points="1064.5,-156.5 1064.5,-197.5 1257.5,-197.5 1257.5,-156.5 1064.5,-156.5"/>
<text text-anchor="start" x="1072.5" y="-185.5" font-family="Helvetica,sans-Serif" font-size="10.00">/home/runner/work/open62541pp</text>
<text text-anchor="start" x="1072.5" y="-174.5" font-family="Helvetica,sans-Serif" font-size="10.00">/open62541pp/include/open62541pp</text>
<text text-anchor="middle" x="1161" y="-163.5" font-family="Helvetica,sans-Serif" font-size="10.00">/types/DataValue.h</text>
</a>
</g>
</g>
<!-- Node1&#45;&gt;Node8 -->
<g id="edge26" class="edge">
<title>Node1&#45;&gt;Node8</title>
<path fill="none" stroke="midnightblue" d="M850.81,-478.86C945.98,-469.52 1077.36,-453.39 1125,-432 1174.22,-409.91 1195.2,-402.89 1218,-354 1225.29,-338.37 1221.27,-250.98 1214,-234 1207.99,-219.97 1196.83,-207.33 1186.29,-197.63"/>
<polygon fill="midnightblue" stroke="midnightblue" points="850.46,-475.37 840.84,-479.82 851.13,-482.34 850.46,-475.37"/>
</g>
<!-- Node11 -->
<g id="node11" class="node">
<title>Node11</title>
<g id="a_node11"><a xlink:href="Builtin_8h.html" target="_top" xlink:title=" ">
<polygon fill="none" stroke="black" points="272.5,-234.5 272.5,-275.5 465.5,-275.5 465.5,-234.5 272.5,-234.5"/>
<text text-anchor="start" x="280.5" y="-263.5" font-family="Helvetica,sans-Serif" font-size="10.00">/home/runner/work/open62541pp</text>
<text text-anchor="start" x="280.5" y="-252.5" font-family="Helvetica,sans-Serif" font-size="10.00">/open62541pp/include/open62541pp</text>
<text text-anchor="middle" x="369" y="-241.5" font-family="Helvetica,sans-Serif" font-size="10.00">/types/Builtin.h</text>
</a>
</g>
</g>
<!-- Node1&#45;&gt;Node11 -->
<g id="edge16" class="edge">
<title>Node1&#45;&gt;Node11</title>
<path fill="none" stroke="midnightblue" d="M703.62,-463.02C628.49,-416.54 468.7,-317.68 400.7,-275.61"/>
<polygon fill="midnightblue" stroke="midnightblue" points="702.01,-466.13 712.35,-468.42 705.69,-460.18 702.01,-466.13"/>
</g>
<!-- Node12 -->
<g id="node12" class="node">
<title>Node12</title>
<g id="a_node12"><a xlink:href="NodeId_8h.html" target="_top" xlink:title=" ">
<polygon fill="none" stroke="black" points="408.5,-156.5 408.5,-197.5 601.5,-197.5 601.5,-156.5 408.5,-156.5"/>
<text text-anchor="start" x="416.5" y="-185.5" font-family="Helvetica,sans-Serif" font-size="10.00">/home/runner/work/open62541pp</text>
<text text-anchor="start" x="416.5" y="-174.5" font-family="Helvetica,sans-Serif" font-size="10.00">/open62541pp/include/open62541pp</text>
<text text-anchor="middle" x="505" y="-163.5" font-family="Helvetica,sans-Serif" font-size="10.00">/types/NodeId.h</text>
</a>
</g>
</g>
<!-- Node1&#45;&gt;Node12 -->
<g id="edge31" class="edge">
<title>Node1&#45;&gt;Node12</title>
<path fill="none" stroke="midnightblue" d="M727.47,-459.74C715.5,-439.8 698.56,-412.71 682,-390 628.06,-315.99 556.08,-234.41 523.01,-197.75"/>
<polygon fill="midnightblue" stroke="midnightblue" points="724.48,-461.55 732.61,-468.35 730.5,-457.97 724.48,-461.55"/>
</g>
<!-- Node15 -->
<g id="node15" class="node">
<title>Node15</title>
<g id="a_node15"><a xlink:href="DateTime_8h.html" target="_top" xlink:title=" ">
<polygon fill="none" stroke="black" points="922.5,-390.5 922.5,-431.5 1115.5,-431.5 1115.5,-390.5 922.5,-390.5"/>
<text text-anchor="start" x="930.5" y="-419.5" font-family="Helvetica,sans-Serif" font-size="10.00">/home/runner/work/open62541pp</text>
<text text-anchor="start" x="930.5" y="-408.5" font-family="Helvetica,sans-Serif" font-size="10.00">/open62541pp/include/open62541pp</text>
<text text-anchor="middle" x="1019" y="-397.5" font-family="Helvetica,sans-Serif" font-size="10.00">/types/DateTime.h</text>
</a>
</g>
</g>
<!-- Node1&#45;&gt;Node15 -->
<g id="edge27" class="edge">
<title>Node1&#45;&gt;Node15</title>
<path fill="none" stroke="midnightblue" d="M824.62,-465.72C863.86,-454.87 910.61,-441.96 948.42,-431.51"/>
<polygon fill="midnightblue" stroke="midnightblue" points="823.53,-462.39 814.82,-468.43 825.39,-469.14 823.53,-462.39"/>
</g>
<!-- Node2&#45;&gt;Node3 -->
<g id="edge2" class="edge">
<title>Node2&#45;&gt;Node3</title>
<path fill="none" stroke="midnightblue" d="M888.69,-70.63C896.68,-60.99 905.49,-50.36 912.83,-41.51"/>
<polygon fill="midnightblue" stroke="midnightblue" points="885.91,-68.5 882.22,-78.43 891.3,-72.96 885.91,-68.5"/>
</g>
<!-- Node2&#45;&gt;Node4 -->
<g id="edge3" class="edge">
<title>Node2&#45;&gt;Node4</title>
<path fill="none" stroke="midnightblue" d="M757.68,-77.87C578.75,-52.93 380.88,-36.44 269.07,-28.16"/>
<polygon fill="midnightblue" stroke="midnightblue" points="757.42,-81.37 767.81,-79.3 758.39,-74.44 757.42,-81.37"/>
</g>
<!-- Node5 -->
<g id="node5" class="node">
<title>Node5</title>
<g id="a_node5"><a xlink:href="Server_8cpp.html" target="_top" xlink:title=" ">
<polygon fill="none" stroke="black" points="520,-6 520,-36 698,-36 698,-6 520,-6"/>
<text text-anchor="start" x="528" y="-24" font-family="Helvetica,sans-Serif" font-size="10.00">/home/runner/work/open62541pp</text>
<text text-anchor="middle" x="609" y="-13" font-family="Helvetica,sans-Serif" font-size="10.00">/open62541pp/src/Server.cpp</text>
</a>
</g>
</g>
<!-- Node2&#45;&gt;Node5 -->
<g id="edge4" class="edge">
<title>Node2&#45;&gt;Node5</title>
<path fill="none" stroke="midnightblue" d="M790.19,-75.58C746.97,-62.8 694.14,-47.18 656.7,-36.11"/>
<polygon fill="midnightblue" stroke="midnightblue" points="789.23,-78.95 799.82,-78.43 791.22,-72.24 789.23,-78.95"/>
</g>
<!-- Node6&#45;&gt;Node2 -->
<g id="edge7" class="edge">
<title>Node6&#45;&gt;Node2</title>
<path fill="none" stroke="midnightblue" d="M938.5,-307.56C951.84,-299.6 964.11,-289.28 972,-276 981.54,-259.96 978.13,-251.63 972,-234 955.54,-186.65 914.61,-143.42 888.7,-119.5"/>
<polygon fill="midnightblue" stroke="midnightblue" points="936.67,-304.57 929.6,-312.45 940.05,-310.7 936.67,-304.57"/>
</g>
<!-- Node6&#45;&gt;Node3 -->
<g id="edge8" class="edge">
<title>Node6&#45;&gt;Node3</title>
<path fill="none" stroke="midnightblue" d="M952.06,-307.87C966.3,-299.99 979.29,-289.62 988,-276 1035.39,-201.85 1024.07,-158.71 989,-78 982.7,-63.49 970.58,-51.04 958.87,-41.58"/>
<polygon fill="midnightblue" stroke="midnightblue" points="950.38,-304.8 943.05,-312.46 953.55,-311.03 950.38,-304.8"/>
</g>
<!-- Node6&#45;&gt;Node7 -->
<g id="edge9" class="edge">
<title>Node6&#45;&gt;Node7</title>
<path fill="none" stroke="midnightblue" d="M867.83,-302.3C867.47,-293.3 867.09,-283.65 866.77,-275.51"/>
<polygon fill="midnightblue" stroke="midnightblue" points="864.34,-302.57 868.23,-312.43 871.33,-302.3 864.34,-302.57"/>
</g>
<!-- Node7&#45;&gt;Node2 -->
<g id="edge10" class="edge">
<title>Node7&#45;&gt;Node2</title>
<path fill="none" stroke="midnightblue" d="M866,-224.36C866,-193.61 866,-146.36 866,-119.83"/>
<polygon fill="midnightblue" stroke="midnightblue" points="862.5,-224.5 866,-234.5 869.5,-224.5 862.5,-224.5"/>
</g>
<!-- Node7&#45;&gt;Node3 -->
<g id="edge11" class="edge">
<title>Node7&#45;&gt;Node3</title>
<path fill="none" stroke="midnightblue" d="M896.76,-227.21C922.71,-202.41 957.95,-162.96 973,-120 979.17,-102.38 979.1,-95.64 973,-78 968.27,-64.33 958.67,-51.46 949.65,-41.51"/>
<polygon fill="midnightblue" stroke="midnightblue" points="894.29,-224.73 889.38,-234.12 899.07,-229.84 894.29,-224.73"/>
</g>
<!-- Node7&#45;&gt;Node8 -->
<g id="edge12" class="edge">
<title>Node7&#45;&gt;Node8</title>
<path fill="none" stroke="midnightblue" d="M951.69,-231.92C993.94,-221.04 1044.47,-208.02 1085.29,-197.51"/>
<polygon fill="midnightblue" stroke="midnightblue" points="950.78,-228.54 941.97,-234.43 952.53,-235.32 950.78,-228.54"/>
</g>
<!-- Node10 -->
<g id="node10" class="node">
<title>Node10</title>
<g id="a_node10"><a xlink:href="Variant_8cpp.html" target="_top" xlink:title=" ">
<polygon fill="none" stroke="black" points="558.5,-84 558.5,-114 749.5,-114 749.5,-84 558.5,-84"/>
<text text-anchor="start" x="566.5" y="-102" font-family="Helvetica,sans-Serif" font-size="10.00">/home/runner/work/open62541pp</text>
<text text-anchor="middle" x="654" y="-91" font-family="Helvetica,sans-Serif" font-size="10.00">/open62541pp/src/types/Variant.cpp</text>
</a>
</g>
</g>
<!-- Node7&#45;&gt;Node10 -->
<g id="edge15" class="edge">
<title>Node7&#45;&gt;Node10</title>
<path fill="none" stroke="midnightblue" d="M830.85,-228.46C785.76,-195.71 709.15,-140.06 673.42,-114.11"/>
<polygon fill="midnightblue" stroke="midnightblue" points="829,-231.45 839.15,-234.5 833.12,-225.79 829,-231.45"/>
</g>
<!-- Node8&#45;&gt;Node2 -->
<g id="edge13" class="edge">
<title>Node8&#45;&gt;Node2</title>
<path fill="none" stroke="midnightblue" d="M1075.31,-153.92C1033.06,-143.04 982.53,-130.02 941.71,-119.51"/>
<polygon fill="midnightblue" stroke="midnightblue" points="1074.47,-157.32 1085.03,-156.43 1076.22,-150.54 1074.47,-157.32"/>
</g>
<!-- Node9 -->
<g id="node9" class="node">
<title>Node9</title>
<g id="a_node9"><a xlink:href="DataValue_8cpp.html" target="_top" xlink:title=" ">
<polygon fill="none" stroke="black" points="1058,-84 1058,-114 1264,-114 1264,-84 1058,-84"/>
<text text-anchor="start" x="1066" y="-102" font-family="Helvetica,sans-Serif" font-size="10.00">/home/runner/work/open62541pp</text>
<text text-anchor="middle" x="1161" y="-91" font-family="Helvetica,sans-Serif" font-size="10.00">/open62541pp/src/types/DataValue.cpp</text>
</a>
</g>
</g>
<!-- Node8&#45;&gt;Node9 -->
<g id="edge14" class="edge">
<title>Node8&#45;&gt;Node9</title>
<path fill="none" stroke="midnightblue" d="M1161,-146.28C1161,-135.25 1161,-123.25 1161,-114.23"/>
<polygon fill="midnightblue" stroke="midnightblue" points="1157.5,-146.43 1161,-156.43 1164.5,-146.43 1157.5,-146.43"/>
</g>
<!-- Node11&#45;&gt;Node2 -->
<g id="edge17" class="edge">
<title>Node11&#45;&gt;Node2</title>
<path fill="none" stroke="midnightblue" d="M475.38,-242.23C519.34,-234.17 569.58,-220.65 611,-198 634.44,-185.18 630.76,-169.18 654,-156 674.86,-144.17 726.54,-130.42 773.65,-119.5"/>
<polygon fill="midnightblue" stroke="midnightblue" points="474.77,-238.78 465.53,-243.96 475.98,-245.68 474.77,-238.78"/>
</g>
<!-- Node11&#45;&gt;Node3 -->
<g id="edge18" class="edge">
<title>Node11&#45;&gt;Node3</title>
<path fill="none" stroke="midnightblue" d="M343.11,-226.8C310.37,-189.14 262.75,-120.9 302,-78 332.5,-44.67 662,-46.03 707,-42 748.05,-38.33 793.37,-34.25 832.29,-30.74"/>
<polygon fill="midnightblue" stroke="midnightblue" points="340.57,-229.21 349.83,-234.35 345.79,-224.56 340.57,-229.21"/>
</g>
<!-- Node11&#45;&gt;Node5 -->
<g id="edge24" class="edge">
<title>Node11&#45;&gt;Node5</title>
<path fill="none" stroke="midnightblue" d="M301.25,-229.57C288,-221.59 275.8,-211.25 268,-198 240.93,-152.04 233.48,-118.65 268,-78 299.7,-40.67 429.64,-28.18 519.63,-24.03"/>
<polygon fill="midnightblue" stroke="midnightblue" points="299.64,-232.68 310.08,-234.48 303.04,-226.56 299.64,-232.68"/>
</g>
<!-- Node11&#45;&gt;Node12 -->
<g id="edge19" class="edge">
<title>Node11&#45;&gt;Node12</title>
<path fill="none" stroke="midnightblue" d="M412.87,-229.49C431.39,-219.13 452.66,-207.25 470.1,-197.51"/>
<polygon fill="midnightblue" stroke="midnightblue" points="411.05,-226.49 404.02,-234.43 414.46,-232.61 411.05,-226.49"/>
</g>
<!-- Node14 -->
<g id="node14" class="node">
<title>Node14</title>
<g id="a_node14"><a xlink:href="Builtin_8cpp.html" target="_top" xlink:title=" ">
<polygon fill="none" stroke="black" points="28,-162 28,-192 216,-192 216,-162 28,-162"/>
<text text-anchor="start" x="36" y="-180" font-family="Helvetica,sans-Serif" font-size="10.00">/home/runner/work/open62541pp</text>
<text text-anchor="middle" x="122" y="-169" font-family="Helvetica,sans-Serif" font-size="10.00">/open62541pp/src/types/Builtin.cpp</text>
</a>
</g>
</g>
<!-- Node11&#45;&gt;Node14 -->
<g id="edge25" class="edge">
<title>Node11&#45;&gt;Node14</title>
<path fill="none" stroke="midnightblue" d="M295.61,-231.42C254.18,-218.67 203.67,-203.13 167.85,-192.11"/>
<polygon fill="midnightblue" stroke="midnightblue" points="294.8,-234.83 305.39,-234.43 296.86,-228.14 294.8,-234.83"/>
</g>
<!-- Node12&#45;&gt;Node2 -->
<g id="edge20" class="edge">
<title>Node12&#45;&gt;Node2</title>
<path fill="none" stroke="midnightblue" d="M607.9,-154.34C660.01,-143.37 722.76,-130.16 773.35,-119.51"/>
<polygon fill="midnightblue" stroke="midnightblue" points="607.03,-150.94 597.97,-156.43 608.47,-157.79 607.03,-150.94"/>
</g>
<!-- Node12&#45;&gt;Node3 -->
<g id="edge21" class="edge">
<title>Node12&#45;&gt;Node3</title>
<path fill="none" stroke="midnightblue" d="M510.69,-146.3C516.59,-123.93 528.15,-94.39 550,-78 572.28,-61.29 727.66,-42.47 832.42,-31.46"/>
<polygon fill="midnightblue" stroke="midnightblue" points="507.21,-145.78 508.29,-156.32 514.02,-147.41 507.21,-145.78"/>
</g>
<!-- Node12&#45;&gt;Node10 -->
<g id="edge23" class="edge">
<title>Node12&#45;&gt;Node10</title>
<path fill="none" stroke="midnightblue" d="M552.43,-151.81C576.71,-139.43 605.42,-124.78 626.11,-114.23"/>
<polygon fill="midnightblue" stroke="midnightblue" points="550.69,-148.77 543.37,-156.43 553.87,-155 550.69,-148.77"/>
</g>
<!-- Node13 -->
<g id="node13" class="node">
<title>Node13</title>
<g id="a_node13"><a xlink:href="NodeId_8cpp.html" target="_top" xlink:title=" ">
<polygon fill="none" stroke="black" points="310.5,-84 310.5,-114 501.5,-114 501.5,-84 310.5,-84"/>
<text text-anchor="start" x="318.5" y="-102" font-family="Helvetica,sans-Serif" font-size="10.00">/home/runner/work/open62541pp</text>
<text text-anchor="middle" x="406" y="-91" font-family="Helvetica,sans-Serif" font-size="10.00">/open62541pp/src/types/NodeId.cpp</text>
</a>
</g>
</g>
<!-- Node12&#45;&gt;Node13 -->
<g id="edge22" class="edge">
<title>Node12&#45;&gt;Node13</title>
<path fill="none" stroke="midnightblue" d="M471.55,-150.32C455.85,-138.27 437.73,-124.36 424.53,-114.23"/>
<polygon fill="midnightblue" stroke="midnightblue" points="469.44,-153.11 479.51,-156.43 473.7,-147.56 469.44,-153.11"/>
</g>
<!-- Node15&#45;&gt;Node6 -->
<g id="edge28" class="edge">
<title>Node15&#45;&gt;Node6</title>
<path fill="none" stroke="midnightblue" d="M971.45,-385.91C950.83,-375.46 926.99,-363.38 907.5,-353.51"/>
<polygon fill="midnightblue" stroke="midnightblue" points="969.87,-389.03 980.37,-390.43 973.03,-382.79 969.87,-389.03"/>
</g>
<!-- Node15&#45;&gt;Node8 -->
<g id="edge29" class="edge">
<title>Node15&#45;&gt;Node8</title>
<path fill="none" stroke="midnightblue" d="M1125.64,-399.28C1153.23,-391.1 1179.94,-377.25 1197,-354 1232.05,-306.22 1195.24,-232.42 1173.93,-197.54"/>
<polygon fill="midnightblue" stroke="midnightblue" points="1124.58,-395.94 1115.85,-401.94 1126.42,-402.69 1124.58,-395.94"/>
</g>
<!-- Node16 -->
<g id="node16" class="node">
<title>Node16</title>
<g id="a_node16"><a xlink:href="DateTime_8cpp.html" target="_top" xlink:title=" ">
<polygon fill="none" stroke="black" points="984,-318 984,-348 1188,-348 1188,-318 984,-318"/>
<text text-anchor="start" x="992" y="-336" font-family="Helvetica,sans-Serif" font-size="10.00">/home/runner/work/open62541pp</text>
<text text-anchor="middle" x="1086" y="-325" font-family="Helvetica,sans-Serif" font-size="10.00">/open62541pp/src/types/DateTime.cpp</text>
</a>
</g>
</g>
<!-- Node15&#45;&gt;Node16 -->
<g id="edge30" class="edge">
<title>Node15&#45;&gt;Node16</title>
<path fill="none" stroke="midnightblue" d="M1043.11,-382.65C1053.38,-371 1064.93,-357.9 1073.46,-348.23"/>
<polygon fill="midnightblue" stroke="midnightblue" points="1040.24,-380.61 1036.25,-390.43 1045.49,-385.24 1040.24,-380.61"/>
</g>
</g>
</svg>
