<?xml version="1.0" encoding="UTF-8" standalone="no"?>
<!DOCTYPE svg PUBLIC "-//W3C//DTD SVG 1.1//EN"
 "http://www.w3.org/Graphics/SVG/1.1/DTD/svg11.dtd">
<!-- Generated by graphviz version 2.43.0 (0)
 -->
<!-- Title: /home/runner/work/open62541pp/open62541pp/include/open62541pp/TypeWrapper.h Pages: 1 -->
<svg width="765pt" height="291pt"
 viewBox="0.00 0.00 765.08 291.00" xmlns="http://www.w3.org/2000/svg" xmlns:xlink="http://www.w3.org/1999/xlink">
<g id="graph0" class="graph" transform="scale(1 1) rotate(0) translate(4 287)">
<title>/home/runner/work/open62541pp/open62541pp/include/open62541pp/TypeWrapper.h</title>
<!-- Node1 -->
<g id="node1" class="node">
<title>Node1</title>
<g id="a_node1"><a xlink:title=" ">
<polygon fill="#999999" stroke="#666666" points="297.58,-283 104.58,-283 104.58,-242 297.58,-242 297.58,-283"/>
<text text-anchor="start" x="112.58" y="-271" font-family="Helvetica,sans-Serif" font-size="10.00">/home/runner/work/open62541pp</text>
<text text-anchor="start" x="112.58" y="-260" font-family="Helvetica,sans-Serif" font-size="10.00">/open62541pp/include/open62541pp</text>
<text text-anchor="middle" x="201.08" y="-249" font-family="Helvetica,sans-Serif" font-size="10.00">/TypeWrapper.h</text>
</a>
</g>
</g>
<!-- Node2 -->
<g id="node2" class="node">
<title>Node2</title>
<g id="a_node2"><a xlink:title=" ">
<polygon fill="#e0e0e0" stroke="#999999" points="112.08,-140 60.08,-140 60.08,-121 112.08,-121 112.08,-140"/>
<text text-anchor="middle" x="86.08" y="-128" font-family="Helvetica,sans-Serif" font-size="10.00">cassert</text>
</a>
</g>
</g>
<!-- Node1&#45;&gt;Node2 -->
<g id="edge1" class="edge">
<title>Node1&#45;&gt;Node2</title>
<path fill="none" stroke="#63b8ff" d="M162.35,-241.99C146.99,-232.75 130.15,-220.53 118.08,-206 104.33,-189.47 95.6,-166.14 90.79,-150.01"/>
<polygon fill="#63b8ff" stroke="#63b8ff" points="94.1,-148.88 88.07,-140.17 87.36,-150.74 94.1,-148.88"/>
</g>
<!-- Node3 -->
<g id="node3" class="node">
<title>Node3</title>
<g id="a_node3"><a xlink:title=" ">
<polygon fill="#e0e0e0" stroke="#999999" points="72.08,-79.5 22.08,-79.5 22.08,-60.5 72.08,-60.5 72.08,-79.5"/>
<text text-anchor="middle" x="47.08" y="-67.5" font-family="Helvetica,sans-Serif" font-size="10.00">cstdint</text>
</a>
</g>
</g>
<!-- Node1&#45;&gt;Node3 -->
<g id="edge2" class="edge">
<title>Node1&#45;&gt;Node3</title>
<path fill="none" stroke="#63b8ff" d="M153.3,-241.89C134.5,-232.73 113.53,-220.61 97.08,-206 70.34,-182.26 62.77,-173.79 51.08,-140 45.44,-123.72 44.87,-103.99 45.45,-89.8"/>
<polygon fill="#63b8ff" stroke="#63b8ff" points="48.95,-89.99 46.09,-79.79 41.96,-89.55 48.95,-89.99"/>
</g>
<!-- Node4 -->
<g id="node4" class="node">
<title>Node4</title>
<g id="a_node4"><a xlink:title=" ">
<polygon fill="#e0e0e0" stroke="#999999" points="110.58,-19 41.58,-19 41.58,0 110.58,0 110.58,-19"/>
<text text-anchor="middle" x="76.08" y="-7" font-family="Helvetica,sans-Serif" font-size="10.00">type_traits</text>
</a>
</g>
</g>
<!-- Node1&#45;&gt;Node4 -->
<g id="edge3" class="edge">
<title>Node1&#45;&gt;Node4</title>
<path fill="none" stroke="#63b8ff" d="M123.99,-241.9C102.88,-233.58 81.36,-221.99 65.08,-206 14.43,-156.27 -19.57,-118.03 13.08,-55 20.11,-41.41 33.42,-31.09 46,-23.82"/>
<polygon fill="#63b8ff" stroke="#63b8ff" points="47.74,-26.86 54.93,-19.07 44.45,-20.68 47.74,-26.86"/>
</g>
<!-- Node5 -->
<g id="node5" class="node">
<title>Node5</title>
<g id="a_node5"><a xlink:title=" ">
<polygon fill="#e0e0e0" stroke="#999999" points="172.58,-200.5 127.58,-200.5 127.58,-181.5 172.58,-181.5 172.58,-200.5"/>
<text text-anchor="middle" x="150.08" y="-188.5" font-family="Helvetica,sans-Serif" font-size="10.00">utility</text>
</a>
</g>
</g>
<!-- Node1&#45;&gt;Node5 -->
<g id="edge4" class="edge">
<title>Node1&#45;&gt;Node5</title>
<path fill="none" stroke="#63b8ff" d="M186.6,-241.77C179.02,-231.45 169.84,-218.93 162.58,-209.04"/>
<polygon fill="#63b8ff" stroke="#63b8ff" points="165.29,-206.81 156.55,-200.82 159.64,-210.95 165.29,-206.81"/>
</g>
<!-- Node6 -->
<g id="node6" class="node">
<title>Node6</title>
<g id="a_node6"><a xlink:href="Common_8h.html" target="_top" xlink:title=" ">
<polygon fill="white" stroke="#666666" points="269.58,-140 130.58,-140 130.58,-121 269.58,-121 269.58,-140"/>
<text text-anchor="middle" x="200.08" y="-128" font-family="Helvetica,sans-Serif" font-size="10.00">open62541pp/Common.h</text>
</a>
</g>
</g>
<!-- Node1&#45;&gt;Node6 -->
<g id="edge5" class="edge">
<title>Node1&#45;&gt;Node6</title>
<path fill="none" stroke="#63b8ff" d="M200.92,-241.76C200.73,-216.86 200.41,-174.38 200.22,-150.06"/>
<polygon fill="#63b8ff" stroke="#63b8ff" points="203.72,-149.99 200.14,-140.01 196.72,-150.04 203.72,-149.99"/>
</g>
<!-- Node10 -->
<g id="node10" class="node">
<title>Node10</title>
<g id="a_node10"><a xlink:href="open62541_8h.html" target="_top" xlink:title=" ">
<polygon fill="white" stroke="#666666" points="594.58,-79.5 445.58,-79.5 445.58,-60.5 594.58,-60.5 594.58,-79.5"/>
<text text-anchor="middle" x="520.08" y="-67.5" font-family="Helvetica,sans-Serif" font-size="10.00">open62541pp/open62541.h</text>
</a>
</g>
</g>
<!-- Node1&#45;&gt;Node10 -->
<g id="edge26" class="edge">
<title>Node1&#45;&gt;Node10</title>
<path fill="none" stroke="#63b8ff" d="M297.94,-258.92C385.79,-254.3 506,-241.46 536.08,-206 564.35,-172.65 543.33,-116.88 529.55,-88.59"/>
<polygon fill="#63b8ff" stroke="#63b8ff" points="532.57,-86.82 524.9,-79.51 526.34,-90.01 532.57,-86.82"/>
</g>
<!-- Node14 -->
<g id="node14" class="node">
<title>Node14</title>
<g id="a_node14"><a xlink:href="ErrorHandling_8h.html" target="_top" xlink:title=" ">
<polygon fill="white" stroke="#666666" points="527.58,-200.5 366.58,-200.5 366.58,-181.5 527.58,-181.5 527.58,-200.5"/>
<text text-anchor="middle" x="447.08" y="-188.5" font-family="Helvetica,sans-Serif" font-size="10.00">open62541pp/ErrorHandling.h</text>
</a>
</g>
</g>
<!-- Node1&#45;&gt;Node14 -->
<g id="edge16" class="edge">
<title>Node1&#45;&gt;Node14</title>
<path fill="none" stroke="#63b8ff" d="M270.26,-241.96C314.42,-229.48 370.12,-213.74 407.08,-203.3"/>
<polygon fill="#63b8ff" stroke="#63b8ff" points="408.31,-206.59 416.98,-200.5 406.4,-199.85 408.31,-206.59"/>
</g>
<!-- Node17 -->
<g id="node17" class="node">
<title>Node17</title>
<g id="a_node17"><a xlink:href="helper_8h.html" target="_top" xlink:title=" ">
<polygon fill="white" stroke="#666666" points="344.58,-206 231.58,-206 231.58,-176 344.58,-176 344.58,-206"/>
<text text-anchor="start" x="239.58" y="-194" font-family="Helvetica,sans-Serif" font-size="10.00">open62541pp/detail</text>
<text text-anchor="middle" x="288.08" y="-183" font-family="Helvetica,sans-Serif" font-size="10.00">/helper.h</text>
</a>
</g>
</g>
<!-- Node1&#45;&gt;Node17 -->
<g id="edge20" class="edge">
<title>Node1&#45;&gt;Node17</title>
<path fill="none" stroke="#63b8ff" d="M225.77,-241.77C237.25,-232.6 250.9,-221.7 262.49,-212.44"/>
<polygon fill="#63b8ff" stroke="#63b8ff" points="264.87,-215.01 270.5,-206.04 260.51,-209.55 264.87,-215.01"/>
</g>
<!-- Node18 -->
<g id="node18" class="node">
<title>Node18</title>
<g id="a_node18"><a xlink:href="comparison_8h.html" target="_top" xlink:title=" ">
<polygon fill="white" stroke="#666666" points="720.08,-206 586.08,-206 586.08,-176 720.08,-176 720.08,-206"/>
<text text-anchor="start" x="594.08" y="-194" font-family="Helvetica,sans-Serif" font-size="10.00">open62541pp/overloads</text>
<text text-anchor="middle" x="653.08" y="-183" font-family="Helvetica,sans-Serif" font-size="10.00">/comparison.h</text>
</a>
</g>
</g>
<!-- Node1&#45;&gt;Node18 -->
<g id="edge27" class="edge">
<title>Node1&#45;&gt;Node18</title>
<path fill="none" stroke="#63b8ff" d="M297.64,-247.67C372.57,-236.78 479.01,-221 572.08,-206 573.34,-205.8 574.62,-205.59 575.91,-205.38"/>
<polygon fill="#63b8ff" stroke="#63b8ff" points="576.61,-208.81 585.91,-203.73 575.48,-201.9 576.61,-208.81"/>
</g>
<!-- Node6&#45;&gt;Node3 -->
<g id="edge6" class="edge">
<title>Node6&#45;&gt;Node3</title>
<path fill="none" stroke="#63b8ff" d="M176.28,-120.86C152.2,-112.06 113.92,-97.9 81.08,-85 79.7,-84.46 78.3,-83.9 76.88,-83.34"/>
<polygon fill="#63b8ff" stroke="#63b8ff" points="78.11,-80.06 67.53,-79.55 75.48,-86.55 78.11,-80.06"/>
</g>
<!-- Node7 -->
<g id="node7" class="node">
<title>Node7</title>
<g id="a_node7"><a xlink:title=" ">
<polygon fill="#e0e0e0" stroke="#999999" points="334.58,-79.5 261.58,-79.5 261.58,-60.5 334.58,-60.5 334.58,-79.5"/>
<text text-anchor="middle" x="298.08" y="-67.5" font-family="Helvetica,sans-Serif" font-size="10.00">string_view</text>
</a>
</g>
</g>
<!-- Node6&#45;&gt;Node7 -->
<g id="edge7" class="edge">
<title>Node6&#45;&gt;Node7</title>
<path fill="none" stroke="#63b8ff" d="M214.54,-120.87C230.39,-111.41 256.05,-96.09 274.75,-84.92"/>
<polygon fill="#63b8ff" stroke="#63b8ff" points="276.76,-87.8 283.56,-79.67 273.18,-81.79 276.76,-87.8"/>
</g>
<!-- Node8 -->
<g id="node8" class="node">
<title>Node8</title>
<g id="a_node8"><a xlink:title=" ">
<polygon fill="#e0e0e0" stroke="#999999" points="209.58,-19 168.58,-19 168.58,0 209.58,0 209.58,-19"/>
<text text-anchor="middle" x="189.08" y="-7" font-family="Helvetica,sans-Serif" font-size="10.00">tuple</text>
</a>
</g>
</g>
<!-- Node6&#45;&gt;Node8 -->
<g id="edge8" class="edge">
<title>Node6&#45;&gt;Node8</title>
<path fill="none" stroke="#63b8ff" d="M203.74,-120.69C209.08,-106.66 217.77,-78.42 212.08,-55 209.77,-45.51 205.06,-35.78 200.5,-27.85"/>
<polygon fill="#63b8ff" stroke="#63b8ff" points="203.4,-25.89 195.18,-19.2 197.44,-29.55 203.4,-25.89"/>
</g>
<!-- Node9 -->
<g id="node9" class="node">
<title>Node9</title>
<g id="a_node9"><a xlink:href="traits_8h.html" target="_top" xlink:title=" ">
<polygon fill="white" stroke="#666666" points="203.58,-85 90.58,-85 90.58,-55 203.58,-55 203.58,-85"/>
<text text-anchor="start" x="98.58" y="-73" font-family="Helvetica,sans-Serif" font-size="10.00">open62541pp/detail</text>
<text text-anchor="middle" x="147.08" y="-62" font-family="Helvetica,sans-Serif" font-size="10.00">/traits.h</text>
</a>
</g>
</g>
<!-- Node6&#45;&gt;Node9 -->
<g id="edge9" class="edge">
<title>Node6&#45;&gt;Node9</title>
<path fill="none" stroke="#63b8ff" d="M192.26,-120.87C185.53,-113.44 175.54,-102.42 166.66,-92.62"/>
<polygon fill="#63b8ff" stroke="#63b8ff" points="169.17,-90.18 159.86,-85.11 163.98,-94.88 169.17,-90.18"/>
</g>
<!-- Node6&#45;&gt;Node10 -->
<g id="edge12" class="edge">
<title>Node6&#45;&gt;Node10</title>
<path fill="none" stroke="#63b8ff" d="M246.61,-120.99C304.08,-110.49 401.79,-92.62 463.53,-81.34"/>
<polygon fill="#63b8ff" stroke="#63b8ff" points="464.28,-84.76 473.49,-79.52 463.02,-77.87 464.28,-84.76"/>
</g>
<!-- Node9&#45;&gt;Node4 -->
<g id="edge11" class="edge">
<title>Node9&#45;&gt;Node4</title>
<path fill="none" stroke="#63b8ff" d="M129.89,-54.84C119.27,-46.09 105.63,-34.85 94.75,-25.88"/>
<polygon fill="#63b8ff" stroke="#63b8ff" points="96.66,-22.92 86.71,-19.27 92.21,-28.33 96.66,-22.92"/>
</g>
<!-- Node9&#45;&gt;Node8 -->
<g id="edge10" class="edge">
<title>Node9&#45;&gt;Node8</title>
<path fill="none" stroke="#63b8ff" d="M157.24,-54.84C163.15,-46.61 170.64,-36.18 176.87,-27.51"/>
<polygon fill="#63b8ff" stroke="#63b8ff" points="179.79,-29.43 182.78,-19.27 174.11,-25.35 179.79,-29.43"/>
</g>
<!-- Node11 -->
<g id="node11" class="node">
<title>Node11</title>
<g id="a_node11"><a target="_blank" xlink:href="open62541/nodeids_8h.html" xlink:title=" ">
<polygon fill="white" stroke="#666666" points="446.58,-19 325.58,-19 325.58,0 446.58,0 446.58,-19"/>
<text text-anchor="middle" x="386.08" y="-7" font-family="Helvetica,sans-Serif" font-size="10.00">open62541/nodeids.h</text>
</a>
</g>
</g>
<!-- Node10&#45;&gt;Node11 -->
<g id="edge13" class="edge">
<title>Node10&#45;&gt;Node11</title>
<path fill="none" stroke="#63b8ff" d="M500.59,-60.49C478.06,-50.66 440.77,-34.38 414.89,-23.08"/>
<polygon fill="#63b8ff" stroke="#63b8ff" points="416.15,-19.81 405.58,-19.02 413.35,-26.23 416.15,-19.81"/>
</g>
<!-- Node12 -->
<g id="node12" class="node">
<title>Node12</title>
<g id="a_node12"><a target="_blank" xlink:href="open62541/types_8h.html" xlink:title=" ">
<polygon fill="white" stroke="#666666" points="575.08,-19 465.08,-19 465.08,0 575.08,0 575.08,-19"/>
<text text-anchor="middle" x="520.08" y="-7" font-family="Helvetica,sans-Serif" font-size="10.00">open62541/types.h</text>
</a>
</g>
</g>
<!-- Node10&#45;&gt;Node12 -->
<g id="edge14" class="edge">
<title>Node10&#45;&gt;Node12</title>
<path fill="none" stroke="#63b8ff" d="M520.08,-60.37C520.08,-52.25 520.08,-39.81 520.08,-29.39"/>
<polygon fill="#63b8ff" stroke="#63b8ff" points="523.58,-29.17 520.08,-19.17 516.58,-29.17 523.58,-29.17"/>
</g>
<!-- Node13 -->
<g id="node13" class="node">
<title>Node13</title>
<g id="a_node13"><a target="_blank" xlink:href="open62541/types__generated_8h.html" xlink:title=" ">
<polygon fill="white" stroke="#666666" points="757.08,-19 593.08,-19 593.08,0 757.08,0 757.08,-19"/>
<text text-anchor="middle" x="675.08" y="-7" font-family="Helvetica,sans-Serif" font-size="10.00">open62541/types_generated.h</text>
</a>
</g>
</g>
<!-- Node10&#45;&gt;Node13 -->
<g id="edge15" class="edge">
<title>Node10&#45;&gt;Node13</title>
<path fill="none" stroke="#63b8ff" d="M542.61,-60.49C569.02,-50.53 612.95,-33.95 642.93,-22.63"/>
<polygon fill="#63b8ff" stroke="#63b8ff" points="644.39,-25.82 652.51,-19.02 641.92,-19.27 644.39,-25.82"/>
</g>
<!-- Node14&#45;&gt;Node10 -->
<g id="edge19" class="edge">
<title>Node14&#45;&gt;Node10</title>
<path fill="none" stroke="#63b8ff" d="M459.39,-181.47C471.46,-172.49 489.53,-157.27 500.08,-140 509.51,-124.55 514.68,-104.43 517.38,-89.91"/>
<polygon fill="#63b8ff" stroke="#63b8ff" points="520.9,-90.09 519.06,-79.66 513.99,-88.96 520.9,-90.09"/>
</g>
<!-- Node15 -->
<g id="node15" class="node">
<title>Node15</title>
<g id="a_node15"><a xlink:title=" ">
<polygon fill="#e0e0e0" stroke="#999999" points="491.58,-140 426.58,-140 426.58,-121 491.58,-121 491.58,-140"/>
<text text-anchor="middle" x="459.08" y="-128" font-family="Helvetica,sans-Serif" font-size="10.00">stdexcept</text>
</a>
</g>
</g>
<!-- Node14&#45;&gt;Node15 -->
<g id="edge17" class="edge">
<title>Node14&#45;&gt;Node15</title>
<path fill="none" stroke="#63b8ff" d="M448.85,-181.37C450.53,-173.16 453.12,-160.54 455.27,-150.05"/>
<polygon fill="#63b8ff" stroke="#63b8ff" points="458.72,-150.67 457.3,-140.17 451.86,-149.26 458.72,-150.67"/>
</g>
<!-- Node16 -->
<g id="node16" class="node">
<title>Node16</title>
<g id="a_node16"><a xlink:title=" ">
<polygon fill="#e0e0e0" stroke="#999999" points="408.08,-140 364.08,-140 364.08,-121 408.08,-121 408.08,-140"/>
<text text-anchor="middle" x="386.08" y="-128" font-family="Helvetica,sans-Serif" font-size="10.00">string</text>
</a>
</g>
</g>
<!-- Node14&#45;&gt;Node16 -->
<g id="edge18" class="edge">
<title>Node14&#45;&gt;Node16</title>
<path fill="none" stroke="#63b8ff" d="M438.08,-181.37C428.7,-172.38 413.83,-158.11 402.38,-147.14"/>
<polygon fill="#63b8ff" stroke="#63b8ff" points="404.75,-144.56 395.11,-140.17 399.91,-149.62 404.75,-144.56"/>
</g>
<!-- Node17&#45;&gt;Node2 -->
<g id="edge21" class="edge">
<title>Node17&#45;&gt;Node2</title>
<path fill="none" stroke="#63b8ff" d="M239.69,-175.99C203.41,-165.48 154.56,-151.33 121.78,-141.84"/>
<polygon fill="#63b8ff" stroke="#63b8ff" points="122.73,-138.47 112.15,-139.05 120.78,-145.2 122.73,-138.47"/>
</g>
<!-- Node17&#45;&gt;Node6 -->
<g id="edge24" class="edge">
<title>Node17&#45;&gt;Node6</title>
<path fill="none" stroke="#63b8ff" d="M266.77,-175.84C253,-166.68 235.15,-154.82 221.38,-145.66"/>
<polygon fill="#63b8ff" stroke="#63b8ff" points="223.27,-142.72 213,-140.09 219.39,-148.55 223.27,-142.72"/>
</g>
<!-- Node17&#45;&gt;Node7 -->
<g id="edge23" class="edge">
<title>Node17&#45;&gt;Node7</title>
<path fill="none" stroke="#63b8ff" d="M289.26,-175.88C291.06,-154.51 294.47,-113.89 296.48,-89.96"/>
<polygon fill="#63b8ff" stroke="#63b8ff" points="299.99,-89.97 297.34,-79.71 293.02,-89.38 299.99,-89.97"/>
</g>
<!-- Node17&#45;&gt;Node10 -->
<g id="edge25" class="edge">
<title>Node17&#45;&gt;Node10</title>
<path fill="none" stroke="#63b8ff" d="M298.32,-175.76C310.26,-160.15 331.41,-135.42 355.08,-121 386.81,-101.67 426.58,-89.32 459.11,-81.74"/>
<polygon fill="#63b8ff" stroke="#63b8ff" points="459.97,-85.14 468.96,-79.54 458.44,-78.3 459.97,-85.14"/>
</g>
<!-- Node17&#45;&gt;Node16 -->
<g id="edge22" class="edge">
<title>Node17&#45;&gt;Node16</title>
<path fill="none" stroke="#63b8ff" d="M311.8,-175.84C327.28,-166.6 347.4,-154.59 362.79,-145.4"/>
<polygon fill="#63b8ff" stroke="#63b8ff" points="364.89,-148.23 371.68,-140.09 361.3,-142.21 364.89,-148.23"/>
</g>
<!-- Node18&#45;&gt;Node10 -->
<g id="edge28" class="edge">
<title>Node18&#45;&gt;Node10</title>
<path fill="none" stroke="#63b8ff" d="M637.3,-175.88C612.21,-153.44 563.42,-109.78 537.4,-86.5"/>
<polygon fill="#63b8ff" stroke="#63b8ff" points="539.6,-83.77 529.81,-79.71 534.93,-88.99 539.6,-83.77"/>
</g>
</g>
</svg>
