<?xml version="1.0" encoding="UTF-8" standalone="no"?>
<!DOCTYPE svg PUBLIC "-//W3C//DTD SVG 1.1//EN"
 "http://www.w3.org/Graphics/SVG/1.1/DTD/svg11.dtd">
<!-- Generated by graphviz version 2.43.0 (0)
 -->
<!-- Title: /home/runner/work/open62541pp/open62541pp/src/TypeWrapper.cpp Pages: 1 -->
<svg width="872pt" height="319pt"
 viewBox="0.00 0.00 872.00 319.00" xmlns="http://www.w3.org/2000/svg" xmlns:xlink="http://www.w3.org/1999/xlink">
<g id="graph0" class="graph" transform="scale(1 1) rotate(0) translate(4 315)">
<title>/home/runner/work/open62541pp/open62541pp/src/TypeWrapper.cpp</title>
<!-- Node1 -->
<g id="node1" class="node">
<title>Node1</title>
<g id="a_node1"><a xlink:title=" ">
<polygon fill="#bfbfbf" stroke="black" points="279,-280.5 279,-310.5 468,-310.5 468,-280.5 279,-280.5"/>
<text text-anchor="start" x="287" y="-298.5" font-family="Helvetica,sans-Serif" font-size="10.00">/home/runner/work/open62541pp</text>
<text text-anchor="middle" x="373.5" y="-287.5" font-family="Helvetica,sans-Serif" font-size="10.00">/open62541pp/src/TypeWrapper.cpp</text>
</a>
</g>
</g>
<!-- Node2 -->
<g id="node2" class="node">
<title>Node2</title>
<g id="a_node2"><a xlink:href="TypeWrapper_8h.html" target="_top" xlink:title=" ">
<polygon fill="none" stroke="black" points="187.5,-224.5 187.5,-243.5 345.5,-243.5 345.5,-224.5 187.5,-224.5"/>
<text text-anchor="middle" x="266.5" y="-231.5" font-family="Helvetica,sans-Serif" font-size="10.00">open62541pp/TypeWrapper.h</text>
</a>
</g>
</g>
<!-- Node1&#45;&gt;Node2 -->
<g id="edge1" class="edge">
<title>Node1&#45;&gt;Node2</title>
<path fill="none" stroke="midnightblue" d="M348.14,-280.4C330.83,-270.77 308.02,-258.09 290.92,-248.58"/>
<polygon fill="midnightblue" stroke="midnightblue" points="292.51,-245.46 282.07,-243.66 289.11,-251.58 292.51,-245.46"/>
</g>
<!-- Node10 -->
<g id="node10" class="node">
<title>Node10</title>
<g id="a_node10"><a xlink:href="Comparison_8h.html" target="_top" xlink:title=" ">
<polygon fill="none" stroke="black" points="711,-168.5 711,-187.5 864,-187.5 864,-168.5 711,-168.5"/>
<text text-anchor="middle" x="787.5" y="-175.5" font-family="Helvetica,sans-Serif" font-size="10.00">open62541pp/Comparison.h</text>
</a>
</g>
</g>
<!-- Node1&#45;&gt;Node10 -->
<g id="edge33" class="edge">
<title>Node1&#45;&gt;Node10</title>
<path fill="none" stroke="midnightblue" d="M423.85,-280.45C506.96,-257.27 671.21,-211.44 747.2,-190.24"/>
<polygon fill="midnightblue" stroke="midnightblue" points="748.19,-193.6 756.88,-187.54 746.31,-186.86 748.19,-193.6"/>
</g>
<!-- Node17 -->
<g id="node17" class="node">
<title>Node17</title>
<g id="a_node17"><a xlink:href="Helper_8h.html" target="_top" xlink:title=" ">
<polygon fill="none" stroke="black" points="310.5,-168.5 310.5,-187.5 436.5,-187.5 436.5,-168.5 310.5,-168.5"/>
<text text-anchor="middle" x="373.5" y="-175.5" font-family="Helvetica,sans-Serif" font-size="10.00">open62541pp/Helper.h</text>
</a>
</g>
</g>
<!-- Node1&#45;&gt;Node17 -->
<g id="edge34" class="edge">
<title>Node1&#45;&gt;Node17</title>
<path fill="none" stroke="midnightblue" d="M373.5,-280.34C373.5,-259.62 373.5,-221.02 373.5,-197.9"/>
<polygon fill="midnightblue" stroke="midnightblue" points="377,-197.67 373.5,-187.67 370,-197.67 377,-197.67"/>
</g>
<!-- Node3 -->
<g id="node3" class="node">
<title>Node3</title>
<g id="a_node3"><a xlink:title=" ">
<polygon fill="none" stroke="#bfbfbf" points="80.5,-168.5 80.5,-187.5 122.5,-187.5 122.5,-168.5 80.5,-168.5"/>
<text text-anchor="middle" x="101.5" y="-175.5" font-family="Helvetica,sans-Serif" font-size="10.00">array</text>
</a>
</g>
</g>
<!-- Node2&#45;&gt;Node3 -->
<g id="edge2" class="edge">
<title>Node2&#45;&gt;Node3</title>
<path fill="none" stroke="midnightblue" d="M240.36,-224.44C211.05,-214.85 163.56,-199.31 132.43,-189.12"/>
<polygon fill="midnightblue" stroke="midnightblue" points="133.14,-185.67 122.55,-185.89 130.96,-192.33 133.14,-185.67"/>
</g>
<!-- Node4 -->
<g id="node4" class="node">
<title>Node4</title>
<g id="a_node4"><a xlink:title=" ">
<polygon fill="none" stroke="#bfbfbf" points="242.5,-168.5 242.5,-187.5 292.5,-187.5 292.5,-168.5 242.5,-168.5"/>
<text text-anchor="middle" x="267.5" y="-175.5" font-family="Helvetica,sans-Serif" font-size="10.00">chrono</text>
</a>
</g>
</g>
<!-- Node2&#45;&gt;Node4 -->
<g id="edge3" class="edge">
<title>Node2&#45;&gt;Node4</title>
<path fill="none" stroke="midnightblue" d="M266.67,-224.08C266.8,-217.01 266.98,-206.86 267.15,-197.99"/>
<polygon fill="midnightblue" stroke="midnightblue" points="270.65,-197.81 267.34,-187.75 263.65,-197.68 270.65,-197.81"/>
</g>
<!-- Node5 -->
<g id="node5" class="node">
<title>Node5</title>
<g id="a_node5"><a xlink:title=" ">
<polygon fill="none" stroke="#bfbfbf" points="62.5,-56.5 62.5,-75.5 112.5,-75.5 112.5,-56.5 62.5,-56.5"/>
<text text-anchor="middle" x="87.5" y="-63.5" font-family="Helvetica,sans-Serif" font-size="10.00">cstdint</text>
</a>
</g>
</g>
<!-- Node2&#45;&gt;Node5 -->
<g id="edge4" class="edge">
<title>Node2&#45;&gt;Node5</title>
<path fill="none" stroke="midnightblue" d="M187.24,-225.67C136.86,-219.19 78.26,-207.61 62.5,-188 38.2,-157.75 60.72,-109.84 76.03,-84.32"/>
<polygon fill="midnightblue" stroke="midnightblue" points="79.08,-86.06 81.43,-75.73 73.15,-82.33 79.08,-86.06"/>
</g>
<!-- Node6 -->
<g id="node6" class="node">
<title>Node6</title>
<g id="a_node6"><a xlink:title=" ">
<polygon fill="none" stroke="#bfbfbf" points="442.5,-112.5 442.5,-131.5 486.5,-131.5 486.5,-112.5 442.5,-112.5"/>
<text text-anchor="middle" x="464.5" y="-119.5" font-family="Helvetica,sans-Serif" font-size="10.00">string</text>
</a>
</g>
</g>
<!-- Node2&#45;&gt;Node6 -->
<g id="edge5" class="edge">
<title>Node2&#45;&gt;Node6</title>
<path fill="none" stroke="midnightblue" d="M326.53,-224.43C371.64,-216.83 428.47,-204.39 445.5,-188 457.93,-176.03 462.35,-156.42 463.86,-141.87"/>
<polygon fill="midnightblue" stroke="midnightblue" points="467.38,-141.73 464.55,-131.52 460.4,-141.27 467.38,-141.73"/>
</g>
<!-- Node7 -->
<g id="node7" class="node">
<title>Node7</title>
<g id="a_node7"><a xlink:title=" ">
<polygon fill="none" stroke="#bfbfbf" points="309,-56.5 309,-75.5 382,-75.5 382,-56.5 309,-56.5"/>
<text text-anchor="middle" x="345.5" y="-63.5" font-family="Helvetica,sans-Serif" font-size="10.00">string_view</text>
</a>
</g>
</g>
<!-- Node2&#45;&gt;Node7 -->
<g id="edge6" class="edge">
<title>Node2&#45;&gt;Node7</title>
<path fill="none" stroke="midnightblue" d="M230.78,-224.49C196.72,-214.53 153.03,-195.77 170.5,-168 190.19,-136.71 213.27,-150.11 245.5,-132 273.99,-115.99 305.36,-95.02 325.23,-81.28"/>
<polygon fill="midnightblue" stroke="midnightblue" points="327.29,-84.11 333.5,-75.53 323.29,-78.37 327.29,-84.11"/>
</g>
<!-- Node8 -->
<g id="node8" class="node">
<title>Node8</title>
<g id="a_node8"><a xlink:title=" ">
<polygon fill="none" stroke="#bfbfbf" points="0,-0.5 0,-19.5 69,-19.5 69,-0.5 0,-0.5"/>
<text text-anchor="middle" x="34.5" y="-7.5" font-family="Helvetica,sans-Serif" font-size="10.00">type_traits</text>
</a>
</g>
</g>
<!-- Node2&#45;&gt;Node8 -->
<g id="edge7" class="edge">
<title>Node2&#45;&gt;Node8</title>
<path fill="none" stroke="midnightblue" d="M187.48,-226.32C133.53,-220.01 68.66,-208.38 50.5,-188 10.87,-143.51 21.92,-65.43 29.75,-29.75"/>
<polygon fill="midnightblue" stroke="midnightblue" points="33.21,-30.28 32.1,-19.75 26.4,-28.68 33.21,-30.28"/>
</g>
<!-- Node9 -->
<g id="node9" class="node">
<title>Node9</title>
<g id="a_node9"><a xlink:title=" ">
<polygon fill="none" stroke="#bfbfbf" points="179,-168.5 179,-187.5 224,-187.5 224,-168.5 179,-168.5"/>
<text text-anchor="middle" x="201.5" y="-175.5" font-family="Helvetica,sans-Serif" font-size="10.00">utility</text>
</a>
</g>
</g>
<!-- Node2&#45;&gt;Node9 -->
<g id="edge8" class="edge">
<title>Node2&#45;&gt;Node9</title>
<path fill="none" stroke="midnightblue" d="M256.06,-224.32C246.35,-216.26 231.68,-204.08 220,-194.37"/>
<polygon fill="midnightblue" stroke="midnightblue" points="222.06,-191.53 212.13,-187.83 217.59,-196.92 222.06,-191.53"/>
</g>
<!-- Node2&#45;&gt;Node10 -->
<g id="edge9" class="edge">
<title>Node2&#45;&gt;Node10</title>
<path fill="none" stroke="midnightblue" d="M345.63,-224.8C441.27,-214.89 601.65,-198.26 700.63,-188"/>
<polygon fill="midnightblue" stroke="midnightblue" points="701.02,-191.48 710.6,-186.97 700.3,-184.52 701.02,-191.48"/>
</g>
<!-- Node11 -->
<g id="node11" class="node">
<title>Node11</title>
<g id="a_node11"><a xlink:href="open62541_8h.html" target="_top" xlink:title=" ">
<polygon fill="none" stroke="black" points="542,-56.5 542,-75.5 691,-75.5 691,-56.5 542,-56.5"/>
<text text-anchor="middle" x="616.5" y="-63.5" font-family="Helvetica,sans-Serif" font-size="10.00">open62541pp/open62541.h</text>
</a>
</g>
</g>
<!-- Node2&#45;&gt;Node11 -->
<g id="edge32" class="edge">
<title>Node2&#45;&gt;Node11</title>
<path fill="none" stroke="midnightblue" d="M345.65,-229.59C455.41,-224.04 642.74,-211.25 663.5,-188 691.01,-157.19 655.04,-108.48 632.38,-83.29"/>
<polygon fill="midnightblue" stroke="midnightblue" points="634.7,-80.64 625.32,-75.7 629.58,-85.41 634.7,-80.64"/>
</g>
<!-- Node15 -->
<g id="node15" class="node">
<title>Node15</title>
<g id="a_node15"><a xlink:href="ErrorHandling_8h.html" target="_top" xlink:title=" ">
<polygon fill="none" stroke="black" points="493,-168.5 493,-187.5 654,-187.5 654,-168.5 493,-168.5"/>
<text text-anchor="middle" x="573.5" y="-175.5" font-family="Helvetica,sans-Serif" font-size="10.00">open62541pp/ErrorHandling.h</text>
</a>
</g>
</g>
<!-- Node2&#45;&gt;Node15 -->
<g id="edge14" class="edge">
<title>Node2&#45;&gt;Node15</title>
<path fill="none" stroke="midnightblue" d="M315.15,-224.44C369.37,-214.9 457.05,-199.48 514.98,-189.29"/>
<polygon fill="midnightblue" stroke="midnightblue" points="515.84,-192.7 525.08,-187.52 514.63,-185.8 515.84,-192.7"/>
</g>
<!-- Node2&#45;&gt;Node17 -->
<g id="edge18" class="edge">
<title>Node2&#45;&gt;Node17</title>
<path fill="none" stroke="midnightblue" d="M283.69,-224.32C300.85,-215.66 327.45,-202.24 347.25,-192.25"/>
<polygon fill="midnightblue" stroke="midnightblue" points="349,-195.28 356.35,-187.65 345.85,-189.04 349,-195.28"/>
</g>
<!-- Node18 -->
<g id="node18" class="node">
<title>Node18</title>
<g id="a_node18"><a xlink:href="Types_8h.html" target="_top" xlink:title=" ">
<polygon fill="none" stroke="black" points="114.5,-112.5 114.5,-131.5 236.5,-131.5 236.5,-112.5 114.5,-112.5"/>
<text text-anchor="middle" x="175.5" y="-119.5" font-family="Helvetica,sans-Serif" font-size="10.00">open62541pp/Types.h</text>
</a>
</g>
</g>
<!-- Node2&#45;&gt;Node18 -->
<g id="edge31" class="edge">
<title>Node2&#45;&gt;Node18</title>
<path fill="none" stroke="midnightblue" d="M187.3,-224.72C139.93,-217.95 86.15,-206.42 71.5,-188 51.63,-163.02 90.69,-145.01 126.48,-134.37"/>
<polygon fill="midnightblue" stroke="midnightblue" points="127.76,-137.64 136.44,-131.56 125.86,-130.91 127.76,-137.64"/>
</g>
<!-- Node10&#45;&gt;Node11 -->
<g id="edge10" class="edge">
<title>Node10&#45;&gt;Node11</title>
<path fill="none" stroke="midnightblue" d="M776.28,-168.39C759.37,-155.54 726.15,-130.85 696.5,-112 678.79,-100.74 658.14,-89.16 642.25,-80.57"/>
<polygon fill="midnightblue" stroke="midnightblue" points="643.51,-77.27 633.04,-75.63 640.2,-83.44 643.51,-77.27"/>
</g>
<!-- Node12 -->
<g id="node12" class="node">
<title>Node12</title>
<g id="a_node12"><a xlink:href="open62541/nodeids_8h.html.html" xlink:title=" ">
<polygon fill="none" stroke="black" points="422,-0.5 422,-19.5 543,-19.5 543,-0.5 422,-0.5"/>
<text text-anchor="middle" x="482.5" y="-7.5" font-family="Helvetica,sans-Serif" font-size="10.00">open62541/nodeids.h</text>
</a>
</g>
</g>
<!-- Node11&#45;&gt;Node12 -->
<g id="edge11" class="edge">
<title>Node11&#45;&gt;Node12</title>
<path fill="none" stroke="midnightblue" d="M595.27,-56.44C573.12,-47.52 538.18,-33.44 513.06,-23.32"/>
<polygon fill="midnightblue" stroke="midnightblue" points="514.22,-20.01 503.63,-19.52 511.6,-26.5 514.22,-20.01"/>
</g>
<!-- Node13 -->
<g id="node13" class="node">
<title>Node13</title>
<g id="a_node13"><a xlink:href="open62541/types_8h.html.html" xlink:title=" ">
<polygon fill="none" stroke="black" points="561.5,-0.5 561.5,-19.5 671.5,-19.5 671.5,-0.5 561.5,-0.5"/>
<text text-anchor="middle" x="616.5" y="-7.5" font-family="Helvetica,sans-Serif" font-size="10.00">open62541/types.h</text>
</a>
</g>
</g>
<!-- Node11&#45;&gt;Node13 -->
<g id="edge12" class="edge">
<title>Node11&#45;&gt;Node13</title>
<path fill="none" stroke="midnightblue" d="M616.5,-56.08C616.5,-49.01 616.5,-38.86 616.5,-29.99"/>
<polygon fill="midnightblue" stroke="midnightblue" points="620,-29.75 616.5,-19.75 613,-29.75 620,-29.75"/>
</g>
<!-- Node14 -->
<g id="node14" class="node">
<title>Node14</title>
<g id="a_node14"><a xlink:href="open62541/types__generated_8h.html.html" xlink:title=" ">
<polygon fill="none" stroke="black" points="689.5,-0.5 689.5,-19.5 853.5,-19.5 853.5,-0.5 689.5,-0.5"/>
<text text-anchor="middle" x="771.5" y="-7.5" font-family="Helvetica,sans-Serif" font-size="10.00">open62541/types_generated.h</text>
</a>
</g>
</g>
<!-- Node11&#45;&gt;Node14 -->
<g id="edge13" class="edge">
<title>Node11&#45;&gt;Node14</title>
<path fill="none" stroke="midnightblue" d="M641.06,-56.44C667.02,-47.4 708.17,-33.06 737.3,-22.92"/>
<polygon fill="midnightblue" stroke="midnightblue" points="738.76,-26.11 747.05,-19.52 736.46,-19.5 738.76,-26.11"/>
</g>
<!-- Node15&#45;&gt;Node6 -->
<g id="edge16" class="edge">
<title>Node15&#45;&gt;Node6</title>
<path fill="none" stroke="midnightblue" d="M555.99,-168.32C538.43,-159.62 511.17,-146.12 490.97,-136.11"/>
<polygon fill="midnightblue" stroke="midnightblue" points="492.48,-132.96 481.97,-131.65 489.38,-139.23 492.48,-132.96"/>
</g>
<!-- Node15&#45;&gt;Node11 -->
<g id="edge17" class="edge">
<title>Node15&#45;&gt;Node11</title>
<path fill="none" stroke="midnightblue" d="M578.84,-168.3C584.11,-159.42 592.15,-145.12 597.5,-132 603.74,-116.69 608.86,-98.59 612.2,-85.38"/>
<polygon fill="midnightblue" stroke="midnightblue" points="615.62,-86.15 614.58,-75.6 608.82,-84.49 615.62,-86.15"/>
</g>
<!-- Node16 -->
<g id="node16" class="node">
<title>Node16</title>
<g id="a_node16"><a xlink:title=" ">
<polygon fill="none" stroke="#bfbfbf" points="523,-112.5 523,-131.5 588,-131.5 588,-112.5 523,-112.5"/>
<text text-anchor="middle" x="555.5" y="-119.5" font-family="Helvetica,sans-Serif" font-size="10.00">stdexcept</text>
</a>
</g>
</g>
<!-- Node15&#45;&gt;Node16 -->
<g id="edge15" class="edge">
<title>Node15&#45;&gt;Node16</title>
<path fill="none" stroke="midnightblue" d="M570.53,-168.08C568.12,-160.85 564.64,-150.41 561.63,-141.4"/>
<polygon fill="midnightblue" stroke="midnightblue" points="564.9,-140.13 558.42,-131.75 558.26,-142.34 564.9,-140.13"/>
</g>
<!-- Node17&#45;&gt;Node6 -->
<g id="edge19" class="edge">
<title>Node17&#45;&gt;Node6</title>
<path fill="none" stroke="midnightblue" d="M388.12,-168.32C402.45,-159.82 424.51,-146.73 441.25,-136.8"/>
<polygon fill="midnightblue" stroke="midnightblue" points="443.1,-139.77 449.92,-131.65 439.53,-133.75 443.1,-139.77"/>
</g>
<!-- Node17&#45;&gt;Node7 -->
<g id="edge20" class="edge">
<title>Node17&#45;&gt;Node7</title>
<path fill="none" stroke="midnightblue" d="M371.3,-168.37C366.78,-150.62 356.36,-109.67 350.23,-85.6"/>
<polygon fill="midnightblue" stroke="midnightblue" points="353.55,-84.42 347.69,-75.59 346.76,-86.15 353.55,-84.42"/>
</g>
<!-- Node17&#45;&gt;Node8 -->
<g id="edge21" class="edge">
<title>Node17&#45;&gt;Node8</title>
<path fill="none" stroke="midnightblue" d="M310.36,-168.58C236.87,-158.43 123.25,-141.57 105.5,-132 75.6,-115.88 70.27,-105.54 53.5,-76 45.34,-61.62 40.41,-43.43 37.62,-29.95"/>
<polygon fill="midnightblue" stroke="midnightblue" points="41.03,-29.11 35.77,-19.92 34.15,-30.39 41.03,-29.11"/>
</g>
<!-- Node17&#45;&gt;Node11 -->
<g id="edge30" class="edge">
<title>Node17&#45;&gt;Node11</title>
<path fill="none" stroke="midnightblue" d="M378.99,-168.33C388.37,-154.25 408.9,-126.52 433.5,-112 463.25,-94.44 499.58,-83.71 532.01,-77.16"/>
<polygon fill="midnightblue" stroke="midnightblue" points="532.78,-80.58 541.94,-75.26 531.46,-73.71 532.78,-80.58"/>
</g>
<!-- Node17&#45;&gt;Node18 -->
<g id="edge22" class="edge">
<title>Node17&#45;&gt;Node18</title>
<path fill="none" stroke="midnightblue" d="M342.13,-168.44C308.24,-159.2 254.1,-144.44 216.78,-134.26"/>
<polygon fill="midnightblue" stroke="midnightblue" points="217.3,-130.77 206.73,-131.52 215.45,-137.52 217.3,-130.77"/>
</g>
<!-- Node18&#45;&gt;Node5 -->
<g id="edge23" class="edge">
<title>Node18&#45;&gt;Node5</title>
<path fill="none" stroke="midnightblue" d="M161.36,-112.32C147.63,-103.9 126.56,-90.97 110.44,-81.07"/>
<polygon fill="midnightblue" stroke="midnightblue" points="111.96,-77.9 101.6,-75.65 108.3,-83.87 111.96,-77.9"/>
</g>
<!-- Node18&#45;&gt;Node7 -->
<g id="edge24" class="edge">
<title>Node18&#45;&gt;Node7</title>
<path fill="none" stroke="midnightblue" d="M202.44,-112.44C231.16,-103.32 276.83,-88.81 308.82,-78.65"/>
<polygon fill="midnightblue" stroke="midnightblue" points="310.22,-81.88 318.69,-75.52 308.1,-75.21 310.22,-81.88"/>
</g>
<!-- Node18&#45;&gt;Node11 -->
<g id="edge29" class="edge">
<title>Node18&#45;&gt;Node11</title>
<path fill="none" stroke="midnightblue" d="M236.82,-113.49C315.13,-103.9 450.81,-87.29 536.99,-76.74"/>
<polygon fill="midnightblue" stroke="midnightblue" points="537.49,-80.2 546.99,-75.51 536.64,-73.25 537.49,-80.2"/>
</g>
<!-- Node19 -->
<g id="node19" class="node">
<title>Node19</title>
<g id="a_node19"><a xlink:title=" ">
<polygon fill="none" stroke="#bfbfbf" points="215,-0.5 215,-19.5 256,-19.5 256,-0.5 215,-0.5"/>
<text text-anchor="middle" x="235.5" y="-7.5" font-family="Helvetica,sans-Serif" font-size="10.00">tuple</text>
</a>
</g>
</g>
<!-- Node18&#45;&gt;Node19 -->
<g id="edge25" class="edge">
<title>Node18&#45;&gt;Node19</title>
<path fill="none" stroke="midnightblue" d="M209.68,-112.49C228.49,-105.88 250.24,-94.6 261.5,-76 270.79,-60.65 260.72,-41.38 250.52,-27.82"/>
<polygon fill="midnightblue" stroke="midnightblue" points="253.04,-25.37 244.01,-19.84 247.62,-29.8 253.04,-25.37"/>
</g>
<!-- Node20 -->
<g id="node20" class="node">
<title>Node20</title>
<g id="a_node20"><a xlink:href="Traits_8h.html" target="_top" xlink:title=" ">
<polygon fill="none" stroke="black" points="131,-56.5 131,-75.5 252,-75.5 252,-56.5 131,-56.5"/>
<text text-anchor="middle" x="191.5" y="-63.5" font-family="Helvetica,sans-Serif" font-size="10.00">open62541pp/Traits.h</text>
</a>
</g>
</g>
<!-- Node18&#45;&gt;Node20 -->
<g id="edge26" class="edge">
<title>Node18&#45;&gt;Node20</title>
<path fill="none" stroke="midnightblue" d="M178.14,-112.08C180.29,-104.85 183.38,-94.41 186.05,-85.4"/>
<polygon fill="midnightblue" stroke="midnightblue" points="189.42,-86.33 188.91,-75.75 182.71,-84.34 189.42,-86.33"/>
</g>
<!-- Node20&#45;&gt;Node8 -->
<g id="edge28" class="edge">
<title>Node20&#45;&gt;Node8</title>
<path fill="none" stroke="midnightblue" d="M166.62,-56.44C140.21,-47.36 98.28,-32.94 68.76,-22.78"/>
<polygon fill="midnightblue" stroke="midnightblue" points="69.86,-19.46 59.26,-19.52 67.58,-26.08 69.86,-19.46"/>
</g>
<!-- Node20&#45;&gt;Node19 -->
<g id="edge27" class="edge">
<title>Node20&#45;&gt;Node19</title>
<path fill="none" stroke="midnightblue" d="M198.77,-56.08C205.04,-48.38 214.29,-37.03 221.93,-27.65"/>
<polygon fill="midnightblue" stroke="midnightblue" points="224.77,-29.71 228.37,-19.75 219.34,-25.29 224.77,-29.71"/>
</g>
</g>
</svg>
