<?xml version="1.0" encoding="UTF-8" standalone="no"?>
<!DOCTYPE svg PUBLIC "-//W3C//DTD SVG 1.1//EN"
 "http://www.w3.org/Graphics/SVG/1.1/DTD/svg11.dtd">
<!-- Generated by graphviz version 2.43.0 (0)
 -->
<!-- Title: /home/runner/work/open62541pp/open62541pp/include/open62541pp/TypeConverter.h Pages: 1 -->
<svg width="1744pt" height="511pt"
 viewBox="0.00 0.00 1743.50 511.00" xmlns="http://www.w3.org/2000/svg" xmlns:xlink="http://www.w3.org/1999/xlink">
<g id="graph0" class="graph" transform="scale(1 1) rotate(0) translate(4 507)">
<title>/home/runner/work/open62541pp/open62541pp/include/open62541pp/TypeConverter.h</title>
<!-- Node1 -->
<g id="Node000001" class="node">
<title>Node1</title>
<g id="a_Node000001"><a xlink:title=" ">
<polygon fill="#999999" stroke="#666666" points="662,-503 469,-503 469,-462 662,-462 662,-503"/>
<text text-anchor="start" x="477" y="-491" font-family="Helvetica,sans-Serif" font-size="10.00">/home/runner/work/open62541pp</text>
<text text-anchor="start" x="477" y="-480" font-family="Helvetica,sans-Serif" font-size="10.00">/open62541pp/include/open62541pp</text>
<text text-anchor="middle" x="565.5" y="-469" font-family="Helvetica,sans-Serif" font-size="10.00">/TypeConverter.h</text>
</a>
</g>
</g>
<!-- Node2 -->
<g id="Node000002" class="node">
<title>Node2</title>
<g id="a_Node000002"><a xlink:href="DataTypeBuilder_8h.html" target="_top" xlink:title=" ">
<polygon fill="white" stroke="#666666" points="193,-349 0,-349 0,-308 193,-308 193,-349"/>
<text text-anchor="start" x="8" y="-337" font-family="Helvetica,sans-Serif" font-size="10.00">/home/runner/work/open62541pp</text>
<text text-anchor="start" x="8" y="-326" font-family="Helvetica,sans-Serif" font-size="10.00">/open62541pp/include/open62541pp</text>
<text text-anchor="middle" x="96.5" y="-315" font-family="Helvetica,sans-Serif" font-size="10.00">/DataTypeBuilder.h</text>
</a>
</g>
</g>
<!-- Node1&#45;&gt;Node2 -->
<g id="edge1_Node000001_Node000002" class="edge">
<title>Node1&#45;&gt;Node2</title>
<g id="a_edge1_Node000001_Node000002"><a xlink:title=" ">
<path fill="none" stroke="#63b8ff" d="M458.77,-480.36C385.13,-475.96 286.64,-462.75 207.5,-426 168.36,-407.83 132.52,-371.59 112.68,-349.06"/>
<polygon fill="#63b8ff" stroke="#63b8ff" points="458.81,-483.87 468.99,-480.93 459.2,-476.88 458.81,-483.87"/>
</a>
</g>
</g>
<!-- Node3 -->
<g id="Node000003" class="node">
<title>Node3</title>
<g id="a_Node000003"><a xlink:href="open62541pp_8h.html" target="_top" xlink:title=" ">
<polygon fill="white" stroke="#666666" points="830,-41 637,-41 637,0 830,0 830,-41"/>
<text text-anchor="start" x="645" y="-29" font-family="Helvetica,sans-Serif" font-size="10.00">/home/runner/work/open62541pp</text>
<text text-anchor="start" x="645" y="-18" font-family="Helvetica,sans-Serif" font-size="10.00">/open62541pp/include/open62541pp</text>
<text text-anchor="middle" x="733.5" y="-7" font-family="Helvetica,sans-Serif" font-size="10.00">/open62541pp.h</text>
</a>
</g>
</g>
<!-- Node1&#45;&gt;Node3 -->
<g id="edge8_Node000001_Node000003" class="edge">
<title>Node1&#45;&gt;Node3</title>
<g id="a_edge8_Node000001_Node000003"><a xlink:title=" ">
<path fill="none" stroke="#63b8ff" d="M458.79,-477.69C357.79,-467.69 221.5,-434.71 221.5,-329.5 221.5,-329.5 221.5,-329.5 221.5,-173.5 221.5,-126.9 225.21,-104.95 262.5,-77 319.78,-34.07 516.53,-23.85 636.87,-21.72"/>
<polygon fill="#63b8ff" stroke="#63b8ff" points="458.48,-481.18 468.76,-478.62 459.13,-474.21 458.48,-481.18"/>
</a>
</g>
</g>
<!-- Node4 -->
<g id="Node000004" class="node">
<title>Node4</title>
<g id="a_Node000004"><a xlink:href="Node_8h.html" target="_top" xlink:title=" ">
<polygon fill="white" stroke="#666666" points="1481.5,-118 1285.5,-118 1285.5,-77 1481.5,-77 1481.5,-118"/>
<text text-anchor="start" x="1293.5" y="-106" font-family="Helvetica,sans-Serif" font-size="10.00">/home/runner/work/open62541pp</text>
<text text-anchor="start" x="1293.5" y="-95" font-family="Helvetica,sans-Serif" font-size="10.00">/open62541pp/include/open62541pp/</text>
<text text-anchor="middle" x="1383.5" y="-84" font-family="Helvetica,sans-Serif" font-size="10.00">Node.h</text>
</a>
</g>
</g>
<!-- Node1&#45;&gt;Node4 -->
<g id="edge3_Node000001_Node000004" class="edge">
<title>Node1&#45;&gt;Node4</title>
<g id="a_edge3_Node000001_Node000004"><a xlink:title=" ">
<path fill="none" stroke="#63b8ff" d="M672.56,-472.33C891.83,-452.1 1371.5,-399.81 1371.5,-329.5 1371.5,-329.5 1371.5,-329.5 1371.5,-250.5 1371.5,-202.85 1377.43,-147.06 1380.96,-118.14"/>
<polygon fill="#63b8ff" stroke="#63b8ff" points="671.96,-468.87 662.32,-473.27 672.6,-475.84 671.96,-468.87"/>
</a>
</g>
</g>
<!-- Node5 -->
<g id="Node000005" class="node">
<title>Node5</title>
<g id="a_Node000005"><a xlink:href="TypeConverterNative_8h.html" target="_top" xlink:title=" ">
<polygon fill="white" stroke="#666666" points="557,-426 364,-426 364,-385 557,-385 557,-426"/>
<text text-anchor="start" x="372" y="-414" font-family="Helvetica,sans-Serif" font-size="10.00">/home/runner/work/open62541pp</text>
<text text-anchor="start" x="372" y="-403" font-family="Helvetica,sans-Serif" font-size="10.00">/open62541pp/include/open62541pp</text>
<text text-anchor="middle" x="460.5" y="-392" font-family="Helvetica,sans-Serif" font-size="10.00">/TypeConverterNative.h</text>
</a>
</g>
</g>
<!-- Node1&#45;&gt;Node5 -->
<g id="edge5_Node000001_Node000005" class="edge">
<title>Node1&#45;&gt;Node5</title>
<g id="a_edge5_Node000001_Node000005"><a xlink:title=" ">
<path fill="none" stroke="#63b8ff" d="M523.9,-456.37C509.57,-446.53 494.14,-435.41 482.02,-426.17"/>
<polygon fill="#63b8ff" stroke="#63b8ff" points="521.94,-459.27 532.18,-461.99 525.87,-453.48 521.94,-459.27"/>
</a>
</g>
</g>
<!-- Node6 -->
<g id="Node000006" class="node">
<title>Node6</title>
<g id="a_Node000006"><a xlink:href="Composed_8h.html" target="_top" xlink:title=" ">
<polygon fill="white" stroke="#666666" points="1199,-272 1006,-272 1006,-231 1199,-231 1199,-272"/>
<text text-anchor="start" x="1014" y="-260" font-family="Helvetica,sans-Serif" font-size="10.00">/home/runner/work/open62541pp</text>
<text text-anchor="start" x="1014" y="-249" font-family="Helvetica,sans-Serif" font-size="10.00">/open62541pp/include/open62541pp</text>
<text text-anchor="middle" x="1102.5" y="-238" font-family="Helvetica,sans-Serif" font-size="10.00">/types/Composed.h</text>
</a>
</g>
</g>
<!-- Node1&#45;&gt;Node6 -->
<g id="edge9_Node000001_Node000006" class="edge">
<title>Node1&#45;&gt;Node6</title>
<g id="a_edge9_Node000001_Node000006"><a xlink:title=" ">
<path fill="none" stroke="#63b8ff" d="M669.11,-459.53C704.1,-450.76 743.01,-439.5 777.5,-426 890.96,-381.58 1015.53,-307.19 1071.84,-272.04"/>
<polygon fill="#63b8ff" stroke="#63b8ff" points="668.22,-456.15 659.35,-461.94 669.9,-462.94 668.22,-456.15"/>
</a>
</g>
</g>
<!-- Node12 -->
<g id="Node000012" class="node">
<title>Node12</title>
<g id="a_Node000012"><a xlink:href="ExtensionObject_8h.html" target="_top" xlink:title=" ">
<polygon fill="white" stroke="#666666" points="768,-426 575,-426 575,-385 768,-385 768,-426"/>
<text text-anchor="start" x="583" y="-414" font-family="Helvetica,sans-Serif" font-size="10.00">/home/runner/work/open62541pp</text>
<text text-anchor="start" x="583" y="-403" font-family="Helvetica,sans-Serif" font-size="10.00">/open62541pp/include/open62541pp</text>
<text text-anchor="middle" x="671.5" y="-392" font-family="Helvetica,sans-Serif" font-size="10.00">/types/ExtensionObject.h</text>
</a>
</g>
</g>
<!-- Node1&#45;&gt;Node12 -->
<g id="edge23_Node000001_Node000012" class="edge">
<title>Node1&#45;&gt;Node12</title>
<g id="a_edge23_Node000001_Node000012"><a xlink:title=" ">
<path fill="none" stroke="#63b8ff" d="M601.41,-456.09C615.22,-446.32 630.76,-435.32 643.7,-426.17"/>
<polygon fill="#63b8ff" stroke="#63b8ff" points="599.22,-453.36 593.07,-461.99 603.26,-459.07 599.22,-453.36"/>
</a>
</g>
</g>
<!-- Node18 -->
<g id="Node000018" class="node">
<title>Node18</title>
<g id="a_Node000018"><a xlink:href="Variant_8h.html" target="_top" xlink:title=" ">
<polygon fill="white" stroke="#666666" points="1631,-426 1438,-426 1438,-385 1631,-385 1631,-426"/>
<text text-anchor="start" x="1446" y="-414" font-family="Helvetica,sans-Serif" font-size="10.00">/home/runner/work/open62541pp</text>
<text text-anchor="start" x="1446" y="-403" font-family="Helvetica,sans-Serif" font-size="10.00">/open62541pp/include/open62541pp</text>
<text text-anchor="middle" x="1534.5" y="-392" font-family="Helvetica,sans-Serif" font-size="10.00">/types/Variant.h</text>
</a>
</g>
</g>
<!-- Node1&#45;&gt;Node18 -->
<g id="edge37_Node000001_Node000018" class="edge">
<title>Node1&#45;&gt;Node18</title>
<g id="a_edge37_Node000001_Node000018"><a xlink:title=" ">
<path fill="none" stroke="#63b8ff" d="M672.34,-476.41C829.02,-468.45 1130.2,-451.32 1385.5,-426 1402.37,-424.33 1420.29,-422.25 1437.62,-420.07"/>
<polygon fill="#63b8ff" stroke="#63b8ff" points="672.04,-472.92 662.23,-476.92 672.4,-479.91 672.04,-472.92"/>
</a>
</g>
</g>
<!-- Node2&#45;&gt;Node3 -->
<g id="edge2_Node000002_Node000003" class="edge">
<title>Node2&#45;&gt;Node3</title>
<g id="a_edge2_Node000002_Node000003"><a xlink:title=" ">
<path fill="none" stroke="#63b8ff" d="M100.1,-297.81C108.35,-243.9 133.96,-130.55 207.5,-77 241.39,-52.32 494.61,-34.61 636.99,-26.48"/>
<polygon fill="#63b8ff" stroke="#63b8ff" points="96.62,-297.37 98.67,-307.76 103.55,-298.36 96.62,-297.37"/>
</a>
</g>
</g>
<!-- Node4&#45;&gt;Node3 -->
<g id="edge4_Node000004_Node000003" class="edge">
<title>Node4&#45;&gt;Node3</title>
<g id="a_edge4_Node000004_Node000003"><a xlink:title=" ">
<path fill="none" stroke="#63b8ff" d="M1275.17,-76.87C1113.57,-54.23 936.99,-37.98 830.39,-29.1"/>
<polygon fill="#63b8ff" stroke="#63b8ff" points="1274.91,-80.36 1285.3,-78.3 1275.89,-73.43 1274.91,-80.36"/>
</a>
</g>
</g>
<!-- Node5&#45;&gt;Node1 -->
<g id="edge6_Node000005_Node000001" class="edge">
<title>Node5&#45;&gt;Node1</title>
<g id="a_edge6_Node000005_Node000001"><a xlink:title=" ">
<path fill="none" stroke="#63b8ff" d="M502.35,-431.81C516.69,-441.66 532.12,-452.77 544.19,-461.99"/>
<polygon fill="#63b8ff" stroke="#63b8ff" points="504.3,-428.9 494.06,-426.17 500.36,-434.69 504.3,-428.9"/>
</a>
</g>
</g>
<!-- Node5&#45;&gt;Node3 -->
<g id="edge7_Node000005_Node000003" class="edge">
<title>Node5&#45;&gt;Node3</title>
<g id="a_edge7_Node000005_Node000003"><a xlink:title=" ">
<path fill="none" stroke="#63b8ff" d="M384.73,-381.29C327.77,-358.59 259.5,-317.77 259.5,-252.5 259.5,-252.5 259.5,-252.5 259.5,-173.5 259.5,-126.72 264.09,-105.08 301.5,-77 352.82,-38.47 526.03,-26.63 636.91,-23.03"/>
<polygon fill="#63b8ff" stroke="#63b8ff" points="383.54,-384.58 394.13,-384.91 386.06,-378.05 383.54,-384.58"/>
</a>
</g>
</g>
<!-- Node6&#45;&gt;Node3 -->
<g id="edge13_Node000006_Node000003" class="edge">
<title>Node6&#45;&gt;Node3</title>
<g id="a_edge13_Node000006_Node000003"><a xlink:title=" ">
<path fill="none" stroke="#63b8ff" d="M995.61,-239.08C956.92,-231.16 914.43,-217.73 880.5,-195 826.37,-158.74 836.94,-125.56 793.5,-77 782.15,-64.31 768.25,-51.32 756.7,-41.1"/>
<polygon fill="#63b8ff" stroke="#63b8ff" points="995.4,-242.61 1005.89,-241.08 996.74,-235.74 995.4,-242.61"/>
</a>
</g>
</g>
<!-- Node6&#45;&gt;Node4 -->
<g id="edge12_Node000006_Node000004" class="edge">
<title>Node6&#45;&gt;Node4</title>
<g id="a_edge12_Node000006_Node000004"><a xlink:title=" ">
<path fill="none" stroke="#63b8ff" d="M1209.21,-237.52C1244.97,-229.43 1283.57,-216.3 1314.5,-195 1342.83,-175.49 1363.56,-140.37 1374.55,-118.31"/>
<polygon fill="#63b8ff" stroke="#63b8ff" points="1208.25,-234.14 1199.21,-239.67 1209.72,-240.99 1208.25,-234.14"/>
</a>
</g>
</g>
<!-- Node7 -->
<g id="Node000007" class="node">
<title>Node7</title>
<g id="a_Node000007"><a xlink:href="AccessControl_8h.html" target="_top" xlink:title=" ">
<polygon fill="white" stroke="#666666" points="1056,-118 863,-118 863,-77 1056,-77 1056,-118"/>
<text text-anchor="start" x="871" y="-106" font-family="Helvetica,sans-Serif" font-size="10.00">/home/runner/work/open62541pp</text>
<text text-anchor="start" x="871" y="-95" font-family="Helvetica,sans-Serif" font-size="10.00">/open62541pp/include/open62541pp</text>
<text text-anchor="middle" x="959.5" y="-84" font-family="Helvetica,sans-Serif" font-size="10.00">/AccessControl.h</text>
</a>
</g>
</g>
<!-- Node6&#45;&gt;Node7 -->
<g id="edge10_Node000006_Node000007" class="edge">
<title>Node6&#45;&gt;Node7</title>
<g id="a_edge10_Node000006_Node000007"><a xlink:title=" ">
<path fill="none" stroke="#63b8ff" d="M996.08,-234.68C951.1,-225.61 905.98,-212.5 892.5,-195 881.38,-180.56 884.75,-170.49 892.5,-154 899.38,-139.37 912.21,-127.28 924.82,-118.15"/>
<polygon fill="#63b8ff" stroke="#63b8ff" points="995.48,-238.13 1005.97,-236.61 996.82,-231.26 995.48,-238.13"/>
</a>
</g>
</g>
<!-- Node8 -->
<g id="Node000008" class="node">
<title>Node8</title>
<g id="a_Node000008"><a xlink:href="Attribute_8h.html" target="_top" xlink:title=" ">
<polygon fill="white" stroke="#666666" points="1593,-195 1400,-195 1400,-154 1593,-154 1593,-195"/>
<text text-anchor="start" x="1408" y="-183" font-family="Helvetica,sans-Serif" font-size="10.00">/home/runner/work/open62541pp</text>
<text text-anchor="start" x="1408" y="-172" font-family="Helvetica,sans-Serif" font-size="10.00">/open62541pp/include/open62541pp</text>
<text text-anchor="middle" x="1496.5" y="-161" font-family="Helvetica,sans-Serif" font-size="10.00">/services/Attribute.h</text>
</a>
</g>
</g>
<!-- Node6&#45;&gt;Node8 -->
<g id="edge14_Node000006_Node000008" class="edge">
<title>Node6&#45;&gt;Node8</title>
<g id="a_edge14_Node000006_Node000008"><a xlink:title=" ">
<path fill="none" stroke="#63b8ff" d="M1209.3,-230.17C1268.74,-218.86 1342.15,-204.88 1399.87,-193.89"/>
<polygon fill="#63b8ff" stroke="#63b8ff" points="1208.3,-226.8 1199.14,-232.1 1209.61,-233.67 1208.3,-226.8"/>
</a>
</g>
</g>
<!-- Node10 -->
<g id="Node000010" class="node">
<title>Node10</title>
<g id="a_Node000010"><a xlink:href="NodeManagement_8h.html" target="_top" xlink:title=" ">
<polygon fill="white" stroke="#666666" points="1305,-195 1112,-195 1112,-154 1305,-154 1305,-195"/>
<text text-anchor="start" x="1120" y="-183" font-family="Helvetica,sans-Serif" font-size="10.00">/home/runner/work/open62541pp</text>
<text text-anchor="start" x="1120" y="-172" font-family="Helvetica,sans-Serif" font-size="10.00">/open62541pp/include/open62541pp</text>
<text text-anchor="middle" x="1208.5" y="-161" font-family="Helvetica,sans-Serif" font-size="10.00">/services/NodeManagement.h</text>
</a>
</g>
</g>
<!-- Node6&#45;&gt;Node10 -->
<g id="edge18_Node000006_Node000010" class="edge">
<title>Node6&#45;&gt;Node10</title>
<g id="a_edge18_Node000006_Node000010"><a xlink:title=" ">
<path fill="none" stroke="#63b8ff" d="M1138.41,-225.09C1152.22,-215.32 1167.76,-204.32 1180.7,-195.17"/>
<polygon fill="#63b8ff" stroke="#63b8ff" points="1136.22,-222.36 1130.07,-230.99 1140.26,-228.07 1136.22,-222.36"/>
</a>
</g>
</g>
<!-- Node11 -->
<g id="Node000011" class="node">
<title>Node11</title>
<g id="a_Node000011"><a xlink:href="View_8h.html" target="_top" xlink:title=" ">
<polygon fill="white" stroke="#666666" points="1094,-195 901,-195 901,-154 1094,-154 1094,-195"/>
<text text-anchor="start" x="909" y="-183" font-family="Helvetica,sans-Serif" font-size="10.00">/home/runner/work/open62541pp</text>
<text text-anchor="start" x="909" y="-172" font-family="Helvetica,sans-Serif" font-size="10.00">/open62541pp/include/open62541pp</text>
<text text-anchor="middle" x="997.5" y="-161" font-family="Helvetica,sans-Serif" font-size="10.00">/services/View.h</text>
</a>
</g>
</g>
<!-- Node6&#45;&gt;Node11 -->
<g id="edge21_Node000006_Node000011" class="edge">
<title>Node6&#45;&gt;Node11</title>
<g id="a_edge21_Node000006_Node000011"><a xlink:title=" ">
<path fill="none" stroke="#63b8ff" d="M1066.93,-225.09C1053.25,-215.32 1037.85,-204.32 1025.04,-195.17"/>
<polygon fill="#63b8ff" stroke="#63b8ff" points="1065.01,-228.03 1075.19,-230.99 1069.08,-222.33 1065.01,-228.03"/>
</a>
</g>
</g>
<!-- Node7&#45;&gt;Node3 -->
<g id="edge11_Node000007_Node000003" class="edge">
<title>Node7&#45;&gt;Node3</title>
<g id="a_edge11_Node000007_Node000003"><a xlink:title=" ">
<path fill="none" stroke="#63b8ff" d="M891.13,-73.81C859.63,-63.36 822.63,-51.08 792.39,-41.04"/>
<polygon fill="#63b8ff" stroke="#63b8ff" points="890.12,-77.16 900.71,-76.99 892.32,-70.52 890.12,-77.16"/>
</a>
</g>
</g>
<!-- Node8&#45;&gt;Node4 -->
<g id="edge15_Node000008_Node000004" class="edge">
<title>Node8&#45;&gt;Node4</title>
<g id="a_edge15_Node000008_Node000004"><a xlink:title=" ">
<path fill="none" stroke="#63b8ff" d="M1458.64,-148.37C1443.81,-138.53 1427.06,-127.41 1413.14,-118.17"/>
<polygon fill="#63b8ff" stroke="#63b8ff" points="1456.84,-151.38 1467.11,-153.99 1460.71,-145.54 1456.84,-151.38"/>
</a>
</g>
</g>
<!-- Node9 -->
<g id="Node000009" class="node">
<title>Node9</title>
<g id="a_Node000009"><a xlink:href="services_8h.html" target="_top" xlink:title=" ">
<polygon fill="white" stroke="#666666" points="1267,-118 1074,-118 1074,-77 1267,-77 1267,-118"/>
<text text-anchor="start" x="1082" y="-106" font-family="Helvetica,sans-Serif" font-size="10.00">/home/runner/work/open62541pp</text>
<text text-anchor="start" x="1082" y="-95" font-family="Helvetica,sans-Serif" font-size="10.00">/open62541pp/include/open62541pp</text>
<text text-anchor="middle" x="1170.5" y="-84" font-family="Helvetica,sans-Serif" font-size="10.00">/services/services.h</text>
</a>
</g>
</g>
<!-- Node8&#45;&gt;Node9 -->
<g id="edge16_Node000008_Node000009" class="edge">
<title>Node8&#45;&gt;Node9</title>
<g id="a_edge16_Node000008_Node000009"><a xlink:title=" ">
<path fill="none" stroke="#63b8ff" d="M1401.67,-151.68C1355.44,-141.05 1300.28,-128.36 1255.44,-118.04"/>
<polygon fill="#63b8ff" stroke="#63b8ff" points="1401.17,-155.16 1411.7,-153.99 1402.74,-148.34 1401.17,-155.16"/>
</a>
</g>
</g>
<!-- Node9&#45;&gt;Node3 -->
<g id="edge17_Node000009_Node000003" class="edge">
<title>Node9&#45;&gt;Node3</title>
<g id="a_edge17_Node000009_Node000003"><a xlink:title=" ">
<path fill="none" stroke="#63b8ff" d="M1063.82,-76.72C979.55,-61.9 893.94,-47.65 830.19,-37.19"/>
<polygon fill="#63b8ff" stroke="#63b8ff" points="1063.37,-80.19 1073.82,-78.48 1064.58,-73.3 1063.37,-80.19"/>
</a>
</g>
</g>
<!-- Node10&#45;&gt;Node4 -->
<g id="edge19_Node000010_Node000004" class="edge">
<title>Node10&#45;&gt;Node4</title>
<g id="a_edge19_Node000010_Node000004"><a xlink:title=" ">
<path fill="none" stroke="#63b8ff" d="M1263.34,-150C1287.31,-139.72 1315.09,-127.82 1337.9,-118.04"/>
<polygon fill="#63b8ff" stroke="#63b8ff" points="1261.84,-146.83 1254.02,-153.99 1264.59,-153.27 1261.84,-146.83"/>
</a>
</g>
</g>
<!-- Node10&#45;&gt;Node9 -->
<g id="edge20_Node000010_Node000009" class="edge">
<title>Node10&#45;&gt;Node9</title>
<g id="a_edge20_Node000010_Node000009"><a xlink:title=" ">
<path fill="none" stroke="#63b8ff" d="M1193.97,-144.83C1189.44,-135.89 1184.55,-126.24 1180.42,-118.07"/>
<polygon fill="#63b8ff" stroke="#63b8ff" points="1190.87,-146.46 1198.52,-153.79 1197.12,-143.29 1190.87,-146.46"/>
</a>
</g>
</g>
<!-- Node11&#45;&gt;Node9 -->
<g id="edge22_Node000011_Node000009" class="edge">
<title>Node11&#45;&gt;Node9</title>
<g id="a_edge22_Node000011_Node000009"><a xlink:title=" ">
<path fill="none" stroke="#63b8ff" d="M1051.72,-150C1075.41,-139.72 1102.87,-127.82 1125.42,-118.04"/>
<polygon fill="#63b8ff" stroke="#63b8ff" points="1050.28,-146.8 1042.5,-153.99 1053.07,-153.22 1050.28,-146.8"/>
</a>
</g>
</g>
<!-- Node12&#45;&gt;Node3 -->
<g id="edge24_Node000012_Node000003" class="edge">
<title>Node12&#45;&gt;Node3</title>
<g id="a_edge24_Node000012_Node000003"><a xlink:title=" ">
<path fill="none" stroke="#63b8ff" d="M564.82,-382.8C454.28,-357.17 297.5,-310.58 297.5,-252.5 297.5,-252.5 297.5,-252.5 297.5,-173.5 297.5,-126.36 303.74,-105.22 341.5,-77 386.85,-43.1 536.18,-29.85 636.88,-24.71"/>
<polygon fill="#63b8ff" stroke="#63b8ff" points="564.17,-386.24 574.7,-385.07 565.73,-379.42 564.17,-386.24"/>
</a>
</g>
</g>
<!-- Node12&#45;&gt;Node6 -->
<g id="edge36_Node000012_Node000006" class="edge">
<title>Node12&#45;&gt;Node6</title>
<g id="a_edge36_Node000012_Node000006"><a xlink:title=" ">
<path fill="none" stroke="#63b8ff" d="M736.45,-381.59C820.98,-351.78 967.26,-300.19 1046.91,-272.11"/>
<polygon fill="#63b8ff" stroke="#63b8ff" points="735.23,-378.31 726.96,-384.94 737.56,-384.91 735.23,-378.31"/>
</a>
</g>
</g>
<!-- Node13 -->
<g id="Node000013" class="node">
<title>Node13</title>
<g id="a_Node000013"><a xlink:href="services_2MonitoredItem_8h.html" target="_top" xlink:title=" ">
<polygon fill="white" stroke="#666666" points="768,-349 575,-349 575,-308 768,-308 768,-349"/>
<text text-anchor="start" x="583" y="-337" font-family="Helvetica,sans-Serif" font-size="10.00">/home/runner/work/open62541pp</text>
<text text-anchor="start" x="583" y="-326" font-family="Helvetica,sans-Serif" font-size="10.00">/open62541pp/include/open62541pp</text>
<text text-anchor="middle" x="671.5" y="-315" font-family="Helvetica,sans-Serif" font-size="10.00">/services/MonitoredItem.h</text>
</a>
</g>
</g>
<!-- Node12&#45;&gt;Node13 -->
<g id="edge25_Node000012_Node000013" class="edge">
<title>Node12&#45;&gt;Node13</title>
<g id="a_edge25_Node000012_Node000013"><a xlink:title=" ">
<path fill="none" stroke="#63b8ff" d="M671.5,-374.69C671.5,-366.08 671.5,-356.9 671.5,-349.07"/>
<polygon fill="#63b8ff" stroke="#63b8ff" points="668,-374.79 671.5,-384.79 675,-374.79 668,-374.79"/>
</a>
</g>
</g>
<!-- Node13&#45;&gt;Node9 -->
<g id="edge35_Node000013_Node000009" class="edge">
<title>Node13&#45;&gt;Node9</title>
<g id="a_edge35_Node000013_Node000009"><a xlink:title=" ">
<path fill="none" stroke="#63b8ff" d="M725.81,-303.22C743.03,-294.45 761.69,-283.78 777.5,-272 836.22,-228.25 828.15,-188.96 892.5,-154 896.64,-151.75 995.13,-132.37 1073.71,-117.13"/>
<polygon fill="#63b8ff" stroke="#63b8ff" points="723.81,-300.31 716.41,-307.89 726.93,-306.58 723.81,-300.31"/>
</a>
</g>
</g>
<!-- Node14 -->
<g id="Node000014" class="node">
<title>Node14</title>
<g id="a_Node000014"><a xlink:href="MonitoredItem_8h.html" target="_top" xlink:title=" ">
<polygon fill="white" stroke="#666666" points="768,-272 575,-272 575,-231 768,-231 768,-272"/>
<text text-anchor="start" x="583" y="-260" font-family="Helvetica,sans-Serif" font-size="10.00">/home/runner/work/open62541pp</text>
<text text-anchor="start" x="583" y="-249" font-family="Helvetica,sans-Serif" font-size="10.00">/open62541pp/include/open62541pp</text>
<text text-anchor="middle" x="671.5" y="-238" font-family="Helvetica,sans-Serif" font-size="10.00">/MonitoredItem.h</text>
</a>
</g>
</g>
<!-- Node13&#45;&gt;Node14 -->
<g id="edge26_Node000013_Node000014" class="edge">
<title>Node13&#45;&gt;Node14</title>
<g id="a_edge26_Node000013_Node000014"><a xlink:title=" ">
<path fill="none" stroke="#63b8ff" d="M671.5,-297.69C671.5,-289.08 671.5,-279.9 671.5,-272.07"/>
<polygon fill="#63b8ff" stroke="#63b8ff" points="668,-297.79 671.5,-307.79 675,-297.79 668,-297.79"/>
</a>
</g>
</g>
<!-- Node15 -->
<g id="Node000015" class="node">
<title>Node15</title>
<g id="a_Node000015"><a xlink:href="Subscription_8h.html" target="_top" xlink:title=" ">
<polygon fill="white" stroke="#666666" points="643,-195 450,-195 450,-154 643,-154 643,-195"/>
<text text-anchor="start" x="458" y="-183" font-family="Helvetica,sans-Serif" font-size="10.00">/home/runner/work/open62541pp</text>
<text text-anchor="start" x="458" y="-172" font-family="Helvetica,sans-Serif" font-size="10.00">/open62541pp/include/open62541pp</text>
<text text-anchor="middle" x="546.5" y="-161" font-family="Helvetica,sans-Serif" font-size="10.00">/Subscription.h</text>
</a>
</g>
</g>
<!-- Node13&#45;&gt;Node15 -->
<g id="edge34_Node000013_Node000015" class="edge">
<title>Node13&#45;&gt;Node15</title>
<g id="a_edge34_Node000013_Node000015"><a xlink:title=" ">
<path fill="none" stroke="#63b8ff" d="M604.41,-303.29C590.06,-295.31 576.3,-285.04 566.5,-272 549.64,-249.57 546.18,-216.27 545.86,-195.24"/>
<polygon fill="#63b8ff" stroke="#63b8ff" points="602.9,-306.46 613.38,-307.97 606.13,-300.25 602.9,-306.46"/>
</a>
</g>
</g>
<!-- Node14&#45;&gt;Node3 -->
<g id="edge33_Node000014_Node000003" class="edge">
<title>Node14&#45;&gt;Node3</title>
<g id="a_edge33_Node000014_Node000003"><a xlink:title=" ">
<path fill="none" stroke="#63b8ff" d="M701.97,-224.02C727.68,-199.5 762.59,-160.51 777.5,-118 783.53,-100.8 783.49,-94.21 777.5,-77 772.81,-63.53 763.33,-50.87 754.38,-41.06"/>
<polygon fill="#63b8ff" stroke="#63b8ff" points="699.58,-221.47 694.66,-230.85 704.36,-226.58 699.58,-221.47"/>
</a>
</g>
</g>
<!-- Node14&#45;&gt;Node15 -->
<g id="edge27_Node000014_Node000015" class="edge">
<title>Node14&#45;&gt;Node15</title>
<g id="a_edge27_Node000014_Node000015"><a xlink:title=" ">
<path fill="none" stroke="#63b8ff" d="M630.07,-225.64C613.56,-215.74 594.83,-204.5 579.29,-195.17"/>
<polygon fill="#63b8ff" stroke="#63b8ff" points="628.61,-228.85 638.98,-230.99 632.21,-222.84 628.61,-228.85"/>
</a>
</g>
</g>
<!-- Node15&#45;&gt;Node3 -->
<g id="edge32_Node000015_Node000003" class="edge">
<title>Node15&#45;&gt;Node3</title>
<g id="a_edge32_Node000015_Node000003"><a xlink:title=" ">
<path fill="none" stroke="#63b8ff" d="M439.64,-155.34C379.36,-140.49 322.2,-115.55 355.5,-77 391.16,-35.72 537.07,-24.57 636.82,-21.88"/>
<polygon fill="#63b8ff" stroke="#63b8ff" points="439.18,-158.82 449.72,-157.72 440.8,-152.01 439.18,-158.82"/>
</a>
</g>
</g>
<!-- Node16 -->
<g id="Node000016" class="node">
<title>Node16</title>
<g id="a_Node000016"><a xlink:href="Client_8h.html" target="_top" xlink:title=" ">
<polygon fill="white" stroke="#666666" points="557,-118 364,-118 364,-77 557,-77 557,-118"/>
<text text-anchor="start" x="372" y="-106" font-family="Helvetica,sans-Serif" font-size="10.00">/home/runner/work/open62541pp</text>
<text text-anchor="start" x="372" y="-95" font-family="Helvetica,sans-Serif" font-size="10.00">/open62541pp/include/open62541pp</text>
<text text-anchor="middle" x="460.5" y="-84" font-family="Helvetica,sans-Serif" font-size="10.00">/Client.h</text>
</a>
</g>
</g>
<!-- Node15&#45;&gt;Node16 -->
<g id="edge28_Node000015_Node000016" class="edge">
<title>Node15&#45;&gt;Node16</title>
<g id="a_edge28_Node000015_Node000016"><a xlink:title=" ">
<path fill="none" stroke="#63b8ff" d="M516.19,-147.07C505.25,-137.52 493.1,-126.93 482.94,-118.07"/>
<polygon fill="#63b8ff" stroke="#63b8ff" points="514.07,-149.86 523.9,-153.79 518.67,-144.58 514.07,-149.86"/>
</a>
</g>
</g>
<!-- Node17 -->
<g id="Node000017" class="node">
<title>Node17</title>
<g id="a_Node000017"><a xlink:href="Server_8h.html" target="_top" xlink:title=" ">
<polygon fill="white" stroke="#666666" points="768,-118 575,-118 575,-77 768,-77 768,-118"/>
<text text-anchor="start" x="583" y="-106" font-family="Helvetica,sans-Serif" font-size="10.00">/home/runner/work/open62541pp</text>
<text text-anchor="start" x="583" y="-95" font-family="Helvetica,sans-Serif" font-size="10.00">/open62541pp/include/open62541pp</text>
<text text-anchor="middle" x="671.5" y="-84" font-family="Helvetica,sans-Serif" font-size="10.00">/Server.h</text>
</a>
</g>
</g>
<!-- Node15&#45;&gt;Node17 -->
<g id="edge30_Node000015_Node000017" class="edge">
<title>Node15&#45;&gt;Node17</title>
<g id="a_edge30_Node000015_Node000017"><a xlink:title=" ">
<path fill="none" stroke="#63b8ff" d="M587.93,-148.64C604.44,-138.74 623.17,-127.5 638.71,-118.17"/>
<polygon fill="#63b8ff" stroke="#63b8ff" points="585.79,-145.84 579.02,-153.99 589.39,-151.85 585.79,-145.84"/>
</a>
</g>
</g>
<!-- Node16&#45;&gt;Node3 -->
<g id="edge29_Node000016_Node000003" class="edge">
<title>Node16&#45;&gt;Node3</title>
<g id="a_edge29_Node000016_Node000003"><a xlink:title=" ">
<path fill="none" stroke="#63b8ff" d="M541.62,-74.21C579.98,-63.68 625.37,-51.21 662.37,-41.04"/>
<polygon fill="#63b8ff" stroke="#63b8ff" points="540.23,-70.97 531.51,-76.99 542.08,-77.72 540.23,-70.97"/>
</a>
</g>
</g>
<!-- Node17&#45;&gt;Node3 -->
<g id="edge31_Node000017_Node000003" class="edge">
<title>Node17&#45;&gt;Node3</title>
<g id="a_edge31_Node000017_Node000003"><a xlink:title=" ">
<path fill="none" stroke="#63b8ff" d="M694.27,-68.95C701.92,-59.7 710.28,-49.58 717.32,-41.07"/>
<polygon fill="#63b8ff" stroke="#63b8ff" points="691.46,-66.86 687.79,-76.79 696.86,-71.32 691.46,-66.86"/>
</a>
</g>
</g>
<!-- Node18&#45;&gt;Node3 -->
<g id="edge39_Node000018_Node000003" class="edge">
<title>Node18&#45;&gt;Node3</title>
<g id="a_edge39_Node000018_Node000003"><a xlink:title=" ">
<path fill="none" stroke="#63b8ff" d="M1640.96,-384.61C1662.74,-376.5 1684.01,-365.08 1700.5,-349 1733.17,-317.15 1735.5,-298.12 1735.5,-252.5 1735.5,-252.5 1735.5,-252.5 1735.5,-173.5 1735.5,-82.73 1642.74,-102.06 1555.5,-77 1421.89,-38.61 1017.29,-26.52 830.24,-22.93"/>
<polygon fill="#63b8ff" stroke="#63b8ff" points="1639.55,-381.4 1631.27,-388 1641.86,-388 1639.55,-381.4"/>
</a>
</g>
</g>
<!-- Node18&#45;&gt;Node4 -->
<g id="edge38_Node000018_Node000004" class="edge">
<title>Node18&#45;&gt;Node4</title>
<g id="a_edge38_Node000018_Node000004"><a xlink:title=" ">
<path fill="none" stroke="#63b8ff" d="M1640.68,-380.98C1655.58,-373.19 1669.02,-362.81 1678.5,-349 1716.54,-293.57 1695.76,-218.34 1623.5,-154 1602.26,-135.09 1538.31,-120.85 1481.76,-111.53"/>
<polygon fill="#63b8ff" stroke="#63b8ff" points="1638.75,-378.03 1631.24,-385.51 1641.77,-384.34 1638.75,-378.03"/>
</a>
</g>
</g>
<!-- Node18&#45;&gt;Node6 -->
<g id="edge41_Node000018_Node000006" class="edge">
<title>Node18&#45;&gt;Node6</title>
<g id="a_edge41_Node000018_Node000006"><a xlink:title=" ">
<path fill="none" stroke="#63b8ff" d="M1469.4,-381.59C1384.67,-351.78 1238.05,-300.19 1158.22,-272.11"/>
<polygon fill="#63b8ff" stroke="#63b8ff" points="1468.31,-384.92 1478.91,-384.94 1470.64,-378.32 1468.31,-384.92"/>
</a>
</g>
</g>
<!-- Node18&#45;&gt;Node8 -->
<g id="edge40_Node000018_Node000008" class="edge">
<title>Node18&#45;&gt;Node8</title>
<g id="a_edge40_Node000018_Node000008"><a xlink:title=" ">
<path fill="none" stroke="#63b8ff" d="M1491.87,-378.68C1482.06,-370.51 1472.93,-360.54 1467.5,-349 1443.2,-297.32 1469.88,-228.56 1486.02,-195.25"/>
<polygon fill="#63b8ff" stroke="#63b8ff" points="1489.77,-381.48 1499.82,-384.85 1494.06,-375.95 1489.77,-381.48"/>
</a>
</g>
</g>
<!-- Node19 -->
<g id="Node000019" class="node">
<title>Node19</title>
<g id="a_Node000019"><a xlink:href="DataValue_8h.html" target="_top" xlink:title=" ">
<polygon fill="white" stroke="#666666" points="1669,-349 1476,-349 1476,-308 1669,-308 1669,-349"/>
<text text-anchor="start" x="1484" y="-337" font-family="Helvetica,sans-Serif" font-size="10.00">/home/runner/work/open62541pp</text>
<text text-anchor="start" x="1484" y="-326" font-family="Helvetica,sans-Serif" font-size="10.00">/open62541pp/include/open62541pp</text>
<text text-anchor="middle" x="1572.5" y="-315" font-family="Helvetica,sans-Serif" font-size="10.00">/types/DataValue.h</text>
</a>
</g>
</g>
<!-- Node18&#45;&gt;Node19 -->
<g id="edge42_Node000018_Node000019" class="edge">
<title>Node18&#45;&gt;Node19</title>
<g id="a_edge42_Node000018_Node000019"><a xlink:title=" ">
<path fill="none" stroke="#63b8ff" d="M1549.03,-375.83C1553.56,-366.89 1558.45,-357.24 1562.58,-349.07"/>
<polygon fill="#63b8ff" stroke="#63b8ff" points="1545.88,-374.29 1544.48,-384.79 1552.13,-377.46 1545.88,-374.29"/>
</a>
</g>
</g>
<!-- Node19&#45;&gt;Node3 -->
<g id="edge44_Node000019_Node000003" class="edge">
<title>Node19&#45;&gt;Node3</title>
<g id="a_edge44_Node000019_Node000003"><a xlink:title=" ">
<path fill="none" stroke="#63b8ff" d="M1603.65,-300.69C1611.25,-292.34 1618.37,-282.54 1622.5,-272 1641.62,-223.16 1649.7,-199.44 1623.5,-154 1589.38,-94.83 1555.77,-97.12 1490.5,-77 1369.84,-39.81 1005.67,-27.2 830.14,-23.21"/>
<polygon fill="#63b8ff" stroke="#63b8ff" points="1601.08,-298.32 1596.61,-307.92 1606.09,-303.2 1601.08,-298.32"/>
</a>
</g>
</g>
<!-- Node19&#45;&gt;Node4 -->
<g id="edge43_Node000019_Node000004" class="edge">
<title>Node19&#45;&gt;Node4</title>
<g id="a_edge43_Node000019_Node000004"><a xlink:title=" ">
<path fill="none" stroke="#63b8ff" d="M1589.42,-299.16C1609.22,-261.91 1635.38,-196.26 1602.5,-154 1587.11,-134.23 1532.55,-120.37 1481.74,-111.44"/>
<polygon fill="#63b8ff" stroke="#63b8ff" points="1586.32,-297.54 1584.57,-307.99 1592.45,-300.92 1586.32,-297.54"/>
</a>
</g>
</g>
<!-- Node19&#45;&gt;Node6 -->
<g id="edge46_Node000019_Node000006" class="edge">
<title>Node19&#45;&gt;Node6</title>
<g id="a_edge46_Node000019_Node000006"><a xlink:title=" ">
<path fill="none" stroke="#63b8ff" d="M1465.85,-310.48C1385.74,-297.7 1276.93,-280.33 1199.31,-267.95"/>
<polygon fill="#63b8ff" stroke="#63b8ff" points="1465.54,-313.98 1475.97,-312.1 1466.65,-307.06 1465.54,-313.98"/>
</a>
</g>
</g>
<!-- Node19&#45;&gt;Node8 -->
<g id="edge45_Node000019_Node000008" class="edge">
<title>Node19&#45;&gt;Node8</title>
<g id="a_edge45_Node000019_Node000008"><a xlink:title=" ">
<path fill="none" stroke="#63b8ff" d="M1558.13,-298.76C1543.03,-268.57 1519.68,-221.87 1506.48,-195.47"/>
<polygon fill="#63b8ff" stroke="#63b8ff" points="1555.12,-300.56 1562.72,-307.94 1561.38,-297.43 1555.12,-300.56"/>
</a>
</g>
</g>
</g>
</svg>
