<?xml version="1.0" encoding="UTF-8" standalone="no"?>
<!DOCTYPE svg PUBLIC "-//W3C//DTD SVG 1.1//EN"
 "http://www.w3.org/Graphics/SVG/1.1/DTD/svg11.dtd">
<!-- Generated by graphviz version 2.43.0 (0)
 -->
<!-- Title: /home/runner/work/open62541pp/open62541pp/include/open62541pp/TypeConverter.h Pages: 1 -->
<svg width="1266pt" height="511pt"
 viewBox="0.00 0.00 1265.52 511.00" xmlns="http://www.w3.org/2000/svg" xmlns:xlink="http://www.w3.org/1999/xlink">
<g id="graph0" class="graph" transform="scale(1 1) rotate(0) translate(4 507)">
<title>/home/runner/work/open62541pp/open62541pp/include/open62541pp/TypeConverter.h</title>
<!-- Node1 -->
<g id="Node000001" class="node">
<title>Node1</title>
<g id="a_Node000001"><a xlink:title=" ">
<polygon fill="#999999" stroke="#666666" points="436.36,-503 243.36,-503 243.36,-462 436.36,-462 436.36,-503"/>
<text text-anchor="start" x="251.36" y="-491" font-family="Helvetica,sans-Serif" font-size="10.00">/home/runner/work/open62541pp</text>
<text text-anchor="start" x="251.36" y="-480" font-family="Helvetica,sans-Serif" font-size="10.00">/open62541pp/include/open62541pp</text>
<text text-anchor="middle" x="339.86" y="-469" font-family="Helvetica,sans-Serif" font-size="10.00">/TypeConverter.h</text>
</a>
</g>
</g>
<!-- Node2 -->
<g id="Node000002" class="node">
<title>Node2</title>
<g id="a_Node000002"><a xlink:href="Node_8h.html" target="_top" xlink:title=" ">
<polygon fill="white" stroke="#666666" points="1051.86,-118 855.86,-118 855.86,-77 1051.86,-77 1051.86,-118"/>
<text text-anchor="start" x="863.86" y="-106" font-family="Helvetica,sans-Serif" font-size="10.00">/home/runner/work/open62541pp</text>
<text text-anchor="start" x="863.86" y="-95" font-family="Helvetica,sans-Serif" font-size="10.00">/open62541pp/include/open62541pp/</text>
<text text-anchor="middle" x="953.86" y="-84" font-family="Helvetica,sans-Serif" font-size="10.00">Node.h</text>
</a>
</g>
</g>
<!-- Node1&#45;&gt;Node2 -->
<g id="edge1_Node000001_Node000002" class="edge">
<title>Node1&#45;&gt;Node2</title>
<g id="a_edge1_Node000001_Node000002"><a xlink:title=" ">
<path fill="none" stroke="#63b8ff" d="M446.71,-476.84C622.35,-466.22 952.86,-432.55 952.86,-329.5 952.86,-329.5 952.86,-329.5 952.86,-250.5 952.86,-203 953.36,-147.15 953.65,-118.18"/>
<polygon fill="#63b8ff" stroke="#63b8ff" points="446.43,-473.35 436.66,-477.43 446.84,-480.33 446.43,-473.35"/>
</a>
</g>
</g>
<!-- Node3 -->
<g id="Node000003" class="node">
<title>Node3</title>
<g id="a_Node000003"><a xlink:href="open62541pp_8h.html" target="_top" xlink:title=" ">
<polygon fill="white" stroke="#666666" points="481.36,-41 288.36,-41 288.36,0 481.36,0 481.36,-41"/>
<text text-anchor="start" x="296.36" y="-29" font-family="Helvetica,sans-Serif" font-size="10.00">/home/runner/work/open62541pp</text>
<text text-anchor="start" x="296.36" y="-18" font-family="Helvetica,sans-Serif" font-size="10.00">/open62541pp/include/open62541pp</text>
<text text-anchor="middle" x="384.86" y="-7" font-family="Helvetica,sans-Serif" font-size="10.00">/open62541pp.h</text>
</a>
</g>
</g>
<!-- Node1&#45;&gt;Node3 -->
<g id="edge6_Node000001_Node000003" class="edge">
<title>Node1&#45;&gt;Node3</title>
<g id="a_edge6_Node000001_Node000003"><a xlink:title=" ">
<path fill="none" stroke="#63b8ff" d="M233.15,-475.49C153.1,-468.73 52.44,-454.67 22.86,-426 -8.59,-395.51 2.86,-373.3 2.86,-329.5 2.86,-329.5 2.86,-329.5 2.86,-173.5 2.86,-126.18 10.16,-105.6 47.86,-77 84.77,-49.01 202.17,-34.51 288.05,-27.46"/>
<polygon fill="#63b8ff" stroke="#63b8ff" points="233.05,-478.99 243.3,-476.32 233.62,-472.02 233.05,-478.99"/>
</a>
</g>
</g>
<!-- Node4 -->
<g id="Node000004" class="node">
<title>Node4</title>
<g id="a_Node000004"><a xlink:href="TypeConverterNative_8h.html" target="_top" xlink:title=" ">
<polygon fill="white" stroke="#666666" points="225.36,-426 32.36,-426 32.36,-385 225.36,-385 225.36,-426"/>
<text text-anchor="start" x="40.36" y="-414" font-family="Helvetica,sans-Serif" font-size="10.00">/home/runner/work/open62541pp</text>
<text text-anchor="start" x="40.36" y="-403" font-family="Helvetica,sans-Serif" font-size="10.00">/open62541pp/include/open62541pp</text>
<text text-anchor="middle" x="128.86" y="-392" font-family="Helvetica,sans-Serif" font-size="10.00">/TypeConverterNative.h</text>
</a>
</g>
</g>
<!-- Node1&#45;&gt;Node4 -->
<g id="edge3_Node000001_Node000004" class="edge">
<title>Node1&#45;&gt;Node4</title>
<g id="a_edge3_Node000001_Node000004"><a xlink:title=" ">
<path fill="none" stroke="#63b8ff" d="M269.38,-458.67C239.34,-448.25 205.05,-436.03 177.83,-426.04"/>
<polygon fill="#63b8ff" stroke="#63b8ff" points="268.37,-462.03 278.97,-461.99 270.66,-455.41 268.37,-462.03"/>
</a>
</g>
</g>
<!-- Node5 -->
<g id="Node000005" class="node">
<title>Node5</title>
<g id="a_Node000005"><a xlink:href="Composed_8h.html" target="_top" xlink:title=" ">
<polygon fill="white" stroke="#666666" points="675.36,-272 482.36,-272 482.36,-231 675.36,-231 675.36,-272"/>
<text text-anchor="start" x="490.36" y="-260" font-family="Helvetica,sans-Serif" font-size="10.00">/home/runner/work/open62541pp</text>
<text text-anchor="start" x="490.36" y="-249" font-family="Helvetica,sans-Serif" font-size="10.00">/open62541pp/include/open62541pp</text>
<text text-anchor="middle" x="578.86" y="-238" font-family="Helvetica,sans-Serif" font-size="10.00">/types/Composed.h</text>
</a>
</g>
</g>
<!-- Node1&#45;&gt;Node5 -->
<g id="edge7_Node000001_Node000005" class="edge">
<title>Node1&#45;&gt;Node5</title>
<g id="a_edge7_Node000001_Node000005"><a xlink:title=" ">
<path fill="none" stroke="#63b8ff" d="M396.08,-457.38C412.72,-448.81 430.35,-438.21 444.86,-426 500.04,-379.55 546.95,-306.8 567.6,-272.14"/>
<polygon fill="#63b8ff" stroke="#63b8ff" points="394.34,-454.34 386.96,-461.93 397.47,-460.6 394.34,-454.34"/>
</a>
</g>
</g>
<!-- Node10 -->
<g id="Node000010" class="node">
<title>Node10</title>
<g id="a_Node000010"><a xlink:href="ExtensionObject_8h.html" target="_top" xlink:title=" ">
<polygon fill="white" stroke="#666666" points="436.36,-426 243.36,-426 243.36,-385 436.36,-385 436.36,-426"/>
<text text-anchor="start" x="251.36" y="-414" font-family="Helvetica,sans-Serif" font-size="10.00">/home/runner/work/open62541pp</text>
<text text-anchor="start" x="251.36" y="-403" font-family="Helvetica,sans-Serif" font-size="10.00">/open62541pp/include/open62541pp</text>
<text text-anchor="middle" x="339.86" y="-392" font-family="Helvetica,sans-Serif" font-size="10.00">/types/ExtensionObject.h</text>
</a>
</g>
</g>
<!-- Node1&#45;&gt;Node10 -->
<g id="edge18_Node000001_Node000010" class="edge">
<title>Node1&#45;&gt;Node10</title>
<g id="a_edge18_Node000001_Node000010"><a xlink:title=" ">
<path fill="none" stroke="#63b8ff" d="M339.86,-451.69C339.86,-443.08 339.86,-433.9 339.86,-426.07"/>
<polygon fill="#63b8ff" stroke="#63b8ff" points="336.36,-451.79 339.86,-461.79 343.36,-451.79 336.36,-451.79"/>
</a>
</g>
</g>
<!-- Node15 -->
<g id="Node000015" class="node">
<title>Node15</title>
<g id="a_Node000015"><a xlink:href="Variant_8h.html" target="_top" xlink:title=" ">
<polygon fill="white" stroke="#666666" points="1193.36,-349 1000.36,-349 1000.36,-308 1193.36,-308 1193.36,-349"/>
<text text-anchor="start" x="1008.36" y="-337" font-family="Helvetica,sans-Serif" font-size="10.00">/home/runner/work/open62541pp</text>
<text text-anchor="start" x="1008.36" y="-326" font-family="Helvetica,sans-Serif" font-size="10.00">/open62541pp/include/open62541pp</text>
<text text-anchor="middle" x="1096.86" y="-315" font-family="Helvetica,sans-Serif" font-size="10.00">/types/Variant.h</text>
</a>
</g>
</g>
<!-- Node1&#45;&gt;Node15 -->
<g id="edge30_Node000001_Node000015" class="edge">
<title>Node1&#45;&gt;Node15</title>
<g id="a_edge30_Node000001_Node000015"><a xlink:title=" ">
<path fill="none" stroke="#63b8ff" d="M446.99,-479.02C600.48,-474.28 874.63,-461.08 966.86,-426 1011.52,-409.01 1054.2,-372.03 1077.83,-349.1"/>
<polygon fill="#63b8ff" stroke="#63b8ff" points="446.5,-475.53 436.61,-479.33 446.71,-482.53 446.5,-475.53"/>
</a>
</g>
</g>
<!-- Node2&#45;&gt;Node3 -->
<g id="edge2_Node000002_Node000003" class="edge">
<title>Node2&#45;&gt;Node3</title>
<g id="a_edge2_Node000002_Node000003"><a xlink:title=" ">
<path fill="none" stroke="#63b8ff" d="M845.38,-76.82C713.68,-57.16 572.8,-41.12 481.54,-31.39"/>
<polygon fill="#63b8ff" stroke="#63b8ff" points="845.24,-80.34 855.65,-78.36 846.28,-73.42 845.24,-80.34"/>
</a>
</g>
</g>
<!-- Node4&#45;&gt;Node1 -->
<g id="edge4_Node000004_Node000001" class="edge">
<title>Node4&#45;&gt;Node1</title>
<g id="a_edge4_Node000004_Node000001"><a xlink:title=" ">
<path fill="none" stroke="#63b8ff" d="M199.44,-429.36C229.49,-439.79 263.78,-452 290.98,-461.99"/>
<polygon fill="#63b8ff" stroke="#63b8ff" points="200.44,-426 189.85,-426.04 198.16,-432.62 200.44,-426"/>
</a>
</g>
</g>
<!-- Node4&#45;&gt;Node3 -->
<g id="edge5_Node000004_Node000003" class="edge">
<title>Node4&#45;&gt;Node3</title>
<g id="a_edge5_Node000004_Node000003"><a xlink:title=" ">
<path fill="none" stroke="#63b8ff" d="M101.44,-377.45C75.61,-348.98 40.86,-301.55 40.86,-252.5 40.86,-252.5 40.86,-252.5 40.86,-173.5 40.86,-125.79 49.92,-105.91 87.86,-77 118.84,-53.39 213.82,-38.5 288.12,-30.15"/>
<polygon fill="#63b8ff" stroke="#63b8ff" points="99.07,-380.05 108.45,-384.97 104.19,-375.27 99.07,-380.05"/>
</a>
</g>
</g>
<!-- Node5&#45;&gt;Node2 -->
<g id="edge10_Node000005_Node000002" class="edge">
<title>Node5&#45;&gt;Node2</title>
<g id="a_edge10_Node000005_Node000002"><a xlink:title=" ">
<path fill="none" stroke="#63b8ff" d="M685.99,-241.3C764.25,-232.83 862.3,-218.03 895.86,-195 922.94,-176.42 939.45,-140.67 947.61,-118.28"/>
<polygon fill="#63b8ff" stroke="#63b8ff" points="685.15,-237.87 675.58,-242.4 685.89,-244.83 685.15,-237.87"/>
</a>
</g>
</g>
<!-- Node5&#45;&gt;Node3 -->
<g id="edge11_Node000005_Node000003" class="edge">
<title>Node5&#45;&gt;Node3</title>
<g id="a_edge11_Node000005_Node000003"><a xlink:title=" ">
<path fill="none" stroke="#63b8ff" d="M506.29,-226.12C492.98,-218.29 480.8,-208.12 472.86,-195 463.43,-179.41 461.92,-168.57 472.86,-154 507.32,-108.11 562.4,-163.89 596.86,-118 607.8,-103.43 608,-91.42 596.86,-77 582.16,-57.95 530.22,-44.18 481.44,-35.11"/>
<polygon fill="#63b8ff" stroke="#63b8ff" points="504.7,-229.24 515.16,-230.93 508.04,-223.09 504.7,-229.24"/>
</a>
</g>
</g>
<!-- Node6 -->
<g id="Node000006" class="node">
<title>Node6</title>
<g id="a_Node000006"><a xlink:href="Client_8h.html" target="_top" xlink:title=" ">
<polygon fill="white" stroke="#666666" points="587.36,-118 394.36,-118 394.36,-77 587.36,-77 587.36,-118"/>
<text text-anchor="start" x="402.36" y="-106" font-family="Helvetica,sans-Serif" font-size="10.00">/home/runner/work/open62541pp</text>
<text text-anchor="start" x="402.36" y="-95" font-family="Helvetica,sans-Serif" font-size="10.00">/open62541pp/include/open62541pp</text>
<text text-anchor="middle" x="490.86" y="-84" font-family="Helvetica,sans-Serif" font-size="10.00">/Client.h</text>
</a>
</g>
</g>
<!-- Node5&#45;&gt;Node6 -->
<g id="edge8_Node000005_Node000006" class="edge">
<title>Node5&#45;&gt;Node6</title>
<g id="a_edge8_Node000005_Node000006"><a xlink:title=" ">
<path fill="none" stroke="#63b8ff" d="M476.3,-226.36C461.93,-218.64 448.97,-208.45 439.86,-195 429.64,-179.91 433.25,-170.98 439.86,-154 445.23,-140.22 455.8,-127.79 465.93,-118.21"/>
<polygon fill="#63b8ff" stroke="#63b8ff" points="474.9,-229.57 485.41,-230.86 477.99,-223.29 474.9,-229.57"/>
</a>
</g>
</g>
<!-- Node7 -->
<g id="Node000007" class="node">
<title>Node7</title>
<g id="a_Node000007"><a xlink:href="NodeManagement_8h.html" target="_top" xlink:title=" ">
<polygon fill="white" stroke="#666666" points="886.36,-195 693.36,-195 693.36,-154 886.36,-154 886.36,-195"/>
<text text-anchor="start" x="701.36" y="-183" font-family="Helvetica,sans-Serif" font-size="10.00">/home/runner/work/open62541pp</text>
<text text-anchor="start" x="701.36" y="-172" font-family="Helvetica,sans-Serif" font-size="10.00">/open62541pp/include/open62541pp</text>
<text text-anchor="middle" x="789.86" y="-161" font-family="Helvetica,sans-Serif" font-size="10.00">/services/NodeManagement.h</text>
</a>
</g>
</g>
<!-- Node5&#45;&gt;Node7 -->
<g id="edge12_Node000005_Node000007" class="edge">
<title>Node5&#45;&gt;Node7</title>
<g id="a_edge12_Node000005_Node000007"><a xlink:title=" ">
<path fill="none" stroke="#63b8ff" d="M643.46,-227.54C672.7,-217.15 706.9,-204.99 734.88,-195.04"/>
<polygon fill="#63b8ff" stroke="#63b8ff" points="642,-224.34 633.75,-230.99 644.34,-230.94 642,-224.34"/>
</a>
</g>
</g>
<!-- Node9 -->
<g id="Node000009" class="node">
<title>Node9</title>
<g id="a_Node000009"><a xlink:href="View_8h.html" target="_top" xlink:title=" ">
<polygon fill="white" stroke="#666666" points="675.36,-195 482.36,-195 482.36,-154 675.36,-154 675.36,-195"/>
<text text-anchor="start" x="490.36" y="-183" font-family="Helvetica,sans-Serif" font-size="10.00">/home/runner/work/open62541pp</text>
<text text-anchor="start" x="490.36" y="-172" font-family="Helvetica,sans-Serif" font-size="10.00">/open62541pp/include/open62541pp</text>
<text text-anchor="middle" x="578.86" y="-161" font-family="Helvetica,sans-Serif" font-size="10.00">/services/View.h</text>
</a>
</g>
</g>
<!-- Node5&#45;&gt;Node9 -->
<g id="edge16_Node000005_Node000009" class="edge">
<title>Node5&#45;&gt;Node9</title>
<g id="a_edge16_Node000005_Node000009"><a xlink:title=" ">
<path fill="none" stroke="#63b8ff" d="M578.86,-220.69C578.86,-212.08 578.86,-202.9 578.86,-195.07"/>
<polygon fill="#63b8ff" stroke="#63b8ff" points="575.36,-220.79 578.86,-230.79 582.36,-220.79 575.36,-220.79"/>
</a>
</g>
</g>
<!-- Node6&#45;&gt;Node3 -->
<g id="edge9_Node000006_Node000003" class="edge">
<title>Node6&#45;&gt;Node3</title>
<g id="a_edge9_Node000006_Node000003"><a xlink:title=" ">
<path fill="none" stroke="#63b8ff" d="M454.95,-71.09C441.14,-61.32 425.6,-50.32 412.67,-41.17"/>
<polygon fill="#63b8ff" stroke="#63b8ff" points="453.1,-74.07 463.29,-76.99 457.15,-68.36 453.1,-74.07"/>
</a>
</g>
</g>
<!-- Node7&#45;&gt;Node2 -->
<g id="edge13_Node000007_Node000002" class="edge">
<title>Node7&#45;&gt;Node2</title>
<g id="a_edge13_Node000007_Node000002"><a xlink:title=" ">
<path fill="none" stroke="#63b8ff" d="M841.86,-149.72C864.18,-139.51 889.94,-127.73 911.13,-118.04"/>
<polygon fill="#63b8ff" stroke="#63b8ff" points="840.16,-146.65 832.52,-153.99 843.07,-153.01 840.16,-146.65"/>
</a>
</g>
</g>
<!-- Node8 -->
<g id="Node000008" class="node">
<title>Node8</title>
<g id="a_Node000008"><a xlink:href="services_8h.html" target="_top" xlink:title=" ">
<polygon fill="white" stroke="#666666" points="837.36,-118 644.36,-118 644.36,-77 837.36,-77 837.36,-118"/>
<text text-anchor="start" x="652.36" y="-106" font-family="Helvetica,sans-Serif" font-size="10.00">/home/runner/work/open62541pp</text>
<text text-anchor="start" x="652.36" y="-95" font-family="Helvetica,sans-Serif" font-size="10.00">/open62541pp/include/open62541pp</text>
<text text-anchor="middle" x="740.86" y="-84" font-family="Helvetica,sans-Serif" font-size="10.00">/services/services.h</text>
</a>
</g>
</g>
<!-- Node7&#45;&gt;Node8 -->
<g id="edge14_Node000007_Node000008" class="edge">
<title>Node7&#45;&gt;Node8</title>
<g id="a_edge14_Node000007_Node000008"><a xlink:title=" ">
<path fill="none" stroke="#63b8ff" d="M771.5,-145.39C765.56,-136.3 759.1,-126.41 753.65,-118.07"/>
<polygon fill="#63b8ff" stroke="#63b8ff" points="768.59,-147.34 776.99,-153.79 774.45,-143.51 768.59,-147.34"/>
</a>
</g>
</g>
<!-- Node8&#45;&gt;Node3 -->
<g id="edge15_Node000008_Node000003" class="edge">
<title>Node8&#45;&gt;Node3</title>
<g id="a_edge15_Node000008_Node000003"><a xlink:title=" ">
<path fill="none" stroke="#63b8ff" d="M638.26,-74.88C587.58,-64.21 526.9,-51.42 477.62,-41.04"/>
<polygon fill="#63b8ff" stroke="#63b8ff" points="637.75,-78.35 648.26,-76.99 639.19,-71.5 637.75,-78.35"/>
</a>
</g>
</g>
<!-- Node9&#45;&gt;Node8 -->
<g id="edge17_Node000009_Node000008" class="edge">
<title>Node9&#45;&gt;Node8</title>
<g id="a_edge17_Node000009_Node000008"><a xlink:title=" ">
<path fill="none" stroke="#63b8ff" d="M630.22,-149.72C652.27,-139.51 677.72,-127.73 698.65,-118.04"/>
<polygon fill="#63b8ff" stroke="#63b8ff" points="628.61,-146.61 621,-153.99 631.55,-152.97 628.61,-146.61"/>
</a>
</g>
</g>
<!-- Node10&#45;&gt;Node3 -->
<g id="edge19_Node000010_Node000003" class="edge">
<title>Node10&#45;&gt;Node3</title>
<g id="a_edge19_Node000010_Node000003"><a xlink:title=" ">
<path fill="none" stroke="#63b8ff" d="M275.47,-381.28C198.19,-351.39 78.86,-297.88 78.86,-252.5 78.86,-252.5 78.86,-252.5 78.86,-173.5 78.86,-124.35 93.4,-106.3 132.86,-77 177.37,-43.95 237.74,-29.88 288.22,-24.17"/>
<polygon fill="#63b8ff" stroke="#63b8ff" points="274.56,-384.68 285.15,-384.98 277.06,-378.14 274.56,-384.68"/>
</a>
</g>
</g>
<!-- Node11 -->
<g id="Node000011" class="node">
<title>Node11</title>
<g id="a_Node000011"><a xlink:href="services_2MonitoredItem_8h.html" target="_top" xlink:title=" ">
<polygon fill="white" stroke="#666666" points="436.36,-349 243.36,-349 243.36,-308 436.36,-308 436.36,-349"/>
<text text-anchor="start" x="251.36" y="-337" font-family="Helvetica,sans-Serif" font-size="10.00">/home/runner/work/open62541pp</text>
<text text-anchor="start" x="251.36" y="-326" font-family="Helvetica,sans-Serif" font-size="10.00">/open62541pp/include/open62541pp</text>
<text text-anchor="middle" x="339.86" y="-315" font-family="Helvetica,sans-Serif" font-size="10.00">/services/MonitoredItem.h</text>
</a>
</g>
</g>
<!-- Node10&#45;&gt;Node11 -->
<g id="edge20_Node000010_Node000011" class="edge">
<title>Node10&#45;&gt;Node11</title>
<g id="a_edge20_Node000010_Node000011"><a xlink:title=" ">
<path fill="none" stroke="#63b8ff" d="M339.86,-374.69C339.86,-366.08 339.86,-356.9 339.86,-349.07"/>
<polygon fill="#63b8ff" stroke="#63b8ff" points="336.36,-374.79 339.86,-384.79 343.36,-374.79 336.36,-374.79"/>
</a>
</g>
</g>
<!-- Node11&#45;&gt;Node8 -->
<g id="edge29_Node000011_Node000008" class="edge">
<title>Node11&#45;&gt;Node8</title>
<g id="a_edge29_Node000011_Node000008"><a xlink:title=" ">
<path fill="none" stroke="#63b8ff" d="M353.63,-298.64C373.95,-259.34 415.81,-189.8 472.86,-154 501.18,-136.22 579.38,-121.22 644.04,-111.31"/>
<polygon fill="#63b8ff" stroke="#63b8ff" points="350.31,-297.44 348.93,-307.94 356.56,-300.59 350.31,-297.44"/>
</a>
</g>
</g>
<!-- Node12 -->
<g id="Node000012" class="node">
<title>Node12</title>
<g id="a_Node000012"><a xlink:href="MonitoredItem_8h.html" target="_top" xlink:title=" ">
<polygon fill="white" stroke="#666666" points="311.36,-272 118.36,-272 118.36,-231 311.36,-231 311.36,-272"/>
<text text-anchor="start" x="126.36" y="-260" font-family="Helvetica,sans-Serif" font-size="10.00">/home/runner/work/open62541pp</text>
<text text-anchor="start" x="126.36" y="-249" font-family="Helvetica,sans-Serif" font-size="10.00">/open62541pp/include/open62541pp</text>
<text text-anchor="middle" x="214.86" y="-238" font-family="Helvetica,sans-Serif" font-size="10.00">/MonitoredItem.h</text>
</a>
</g>
</g>
<!-- Node11&#45;&gt;Node12 -->
<g id="edge21_Node000011_Node000012" class="edge">
<title>Node11&#45;&gt;Node12</title>
<g id="a_edge21_Node000011_Node000012"><a xlink:title=" ">
<path fill="none" stroke="#63b8ff" d="M298.44,-302.64C281.92,-292.74 263.19,-281.5 247.65,-272.17"/>
<polygon fill="#63b8ff" stroke="#63b8ff" points="296.97,-305.85 307.35,-307.99 300.57,-299.84 296.97,-305.85"/>
</a>
</g>
</g>
<!-- Node13 -->
<g id="Node000013" class="node">
<title>Node13</title>
<g id="a_Node000013"><a xlink:href="Subscription_8h.html" target="_top" xlink:title=" ">
<polygon fill="white" stroke="#666666" points="349.36,-195 156.36,-195 156.36,-154 349.36,-154 349.36,-195"/>
<text text-anchor="start" x="164.36" y="-183" font-family="Helvetica,sans-Serif" font-size="10.00">/home/runner/work/open62541pp</text>
<text text-anchor="start" x="164.36" y="-172" font-family="Helvetica,sans-Serif" font-size="10.00">/open62541pp/include/open62541pp</text>
<text text-anchor="middle" x="252.86" y="-161" font-family="Helvetica,sans-Serif" font-size="10.00">/Subscription.h</text>
</a>
</g>
</g>
<!-- Node11&#45;&gt;Node13 -->
<g id="edge28_Node000011_Node000013" class="edge">
<title>Node11&#45;&gt;Node13</title>
<g id="a_edge28_Node000011_Node000013"><a xlink:title=" ">
<path fill="none" stroke="#63b8ff" d="M338.76,-297.49C336.85,-277.43 331.98,-251.13 319.86,-231 311.3,-216.76 297.72,-204.51 285.02,-195.17"/>
<polygon fill="#63b8ff" stroke="#63b8ff" points="335.29,-297.92 339.53,-307.63 342.27,-297.39 335.29,-297.92"/>
</a>
</g>
</g>
<!-- Node12&#45;&gt;Node3 -->
<g id="edge27_Node000012_Node000003" class="edge">
<title>Node12&#45;&gt;Node3</title>
<g id="a_edge27_Node000012_Node000003"><a xlink:title=" ">
<path fill="none" stroke="#63b8ff" d="M171.61,-224.79C161.65,-216.62 152.38,-206.62 146.86,-195 124.17,-147.19 126.2,-115.17 162.86,-77 180.61,-58.52 236.85,-44.57 288.27,-35.28"/>
<polygon fill="#63b8ff" stroke="#63b8ff" points="169.6,-227.66 179.68,-230.95 173.85,-222.1 169.6,-227.66"/>
</a>
</g>
</g>
<!-- Node12&#45;&gt;Node13 -->
<g id="edge22_Node000012_Node000013" class="edge">
<title>Node12&#45;&gt;Node13</title>
<g id="a_edge22_Node000012_Node000013"><a xlink:title=" ">
<path fill="none" stroke="#63b8ff" d="M229.39,-221.83C233.92,-212.89 238.81,-203.24 242.94,-195.07"/>
<polygon fill="#63b8ff" stroke="#63b8ff" points="226.24,-220.29 224.85,-230.79 232.49,-223.46 226.24,-220.29"/>
</a>
</g>
</g>
<!-- Node13&#45;&gt;Node3 -->
<g id="edge26_Node000013_Node000003" class="edge">
<title>Node13&#45;&gt;Node3</title>
<g id="a_edge26_Node000013_Node000003"><a xlink:title=" ">
<path fill="none" stroke="#63b8ff" d="M201.47,-148.13C190.4,-140.1 180.14,-130.09 173.86,-118 165.46,-101.83 162.74,-91.43 173.86,-77 188.43,-58.1 239.77,-44.36 288.16,-35.28"/>
<polygon fill="#63b8ff" stroke="#63b8ff" points="199.8,-151.21 210.05,-153.88 203.7,-145.4 199.8,-151.21"/>
</a>
</g>
</g>
<!-- Node13&#45;&gt;Node6 -->
<g id="edge23_Node000013_Node000006" class="edge">
<title>Node13&#45;&gt;Node6</title>
<g id="a_edge23_Node000013_Node000006"><a xlink:title=" ">
<path fill="none" stroke="#63b8ff" d="M324.44,-150.94C357.7,-140.46 396.87,-128.12 428.85,-118.04"/>
<polygon fill="#63b8ff" stroke="#63b8ff" points="323.26,-147.65 314.77,-153.99 325.36,-154.32 323.26,-147.65"/>
</a>
</g>
</g>
<!-- Node14 -->
<g id="Node000014" class="node">
<title>Node14</title>
<g id="a_Node000014"><a xlink:href="Server_8h.html" target="_top" xlink:title=" ">
<polygon fill="white" stroke="#666666" points="376.36,-118 183.36,-118 183.36,-77 376.36,-77 376.36,-118"/>
<text text-anchor="start" x="191.36" y="-106" font-family="Helvetica,sans-Serif" font-size="10.00">/home/runner/work/open62541pp</text>
<text text-anchor="start" x="191.36" y="-95" font-family="Helvetica,sans-Serif" font-size="10.00">/open62541pp/include/open62541pp</text>
<text text-anchor="middle" x="279.86" y="-84" font-family="Helvetica,sans-Serif" font-size="10.00">/Server.h</text>
</a>
</g>
</g>
<!-- Node13&#45;&gt;Node14 -->
<g id="edge24_Node000013_Node000014" class="edge">
<title>Node13&#45;&gt;Node14</title>
<g id="a_edge24_Node000013_Node000014"><a xlink:title=" ">
<path fill="none" stroke="#63b8ff" d="M263.39,-144.26C266.55,-135.48 269.94,-126.07 272.82,-118.07"/>
<polygon fill="#63b8ff" stroke="#63b8ff" points="260.05,-143.2 259.96,-153.79 266.64,-145.57 260.05,-143.2"/>
</a>
</g>
</g>
<!-- Node14&#45;&gt;Node3 -->
<g id="edge25_Node000014_Node000003" class="edge">
<title>Node14&#45;&gt;Node3</title>
<g id="a_edge25_Node000014_Node000003"><a xlink:title=" ">
<path fill="none" stroke="#63b8ff" d="M315.43,-71.09C329.11,-61.32 344.51,-50.32 357.32,-41.17"/>
<polygon fill="#63b8ff" stroke="#63b8ff" points="313.28,-68.33 307.18,-76.99 317.35,-74.03 313.28,-68.33"/>
</a>
</g>
</g>
<!-- Node15&#45;&gt;Node2 -->
<g id="edge31_Node000015_Node000002" class="edge">
<title>Node15&#45;&gt;Node2</title>
<g id="a_edge31_Node000015_Node000002"><a xlink:title=" ">
<path fill="none" stroke="#63b8ff" d="M1186.17,-303.39C1200.31,-295.64 1213.13,-285.44 1221.86,-272 1239.69,-244.57 1202.78,-155.83 1200.86,-154 1179.3,-133.39 1111.15,-119.03 1051.88,-110.09"/>
<polygon fill="#63b8ff" stroke="#63b8ff" points="1184.57,-300.28 1177.22,-307.91 1187.72,-306.53 1184.57,-300.28"/>
</a>
</g>
</g>
<!-- Node15&#45;&gt;Node3 -->
<g id="edge32_Node000015_Node000003" class="edge">
<title>Node15&#45;&gt;Node3</title>
<g id="a_edge32_Node000015_Node000003"><a xlink:title=" ">
<path fill="none" stroke="#63b8ff" d="M1201.16,-303.46C1215.63,-295.72 1228.66,-285.5 1237.86,-272 1293.75,-189.94 1220.55,-115.1 1128.86,-77 1014.49,-29.47 655.77,-21.98 481.62,-21.23"/>
<polygon fill="#63b8ff" stroke="#63b8ff" points="1199.43,-300.41 1191.99,-307.96 1202.51,-306.69 1199.43,-300.41"/>
</a>
</g>
</g>
<!-- Node15&#45;&gt;Node5 -->
<g id="edge36_Node000015_Node000005" class="edge">
<title>Node15&#45;&gt;Node5</title>
<g id="a_edge36_Node000015_Node000005"><a xlink:title=" ">
<path fill="none" stroke="#63b8ff" d="M990.4,-312.09C897.97,-298.7 765.27,-279.49 675.77,-266.53"/>
<polygon fill="#63b8ff" stroke="#63b8ff" points="989.94,-315.56 1000.34,-313.52 990.95,-308.63 989.94,-315.56"/>
</a>
</g>
</g>
<!-- Node16 -->
<g id="Node000016" class="node">
<title>Node16</title>
<g id="a_Node000016"><a xlink:href="Attribute_8h.html" target="_top" xlink:title=" ">
<polygon fill="white" stroke="#666666" points="1174.36,-195 981.36,-195 981.36,-154 1174.36,-154 1174.36,-195"/>
<text text-anchor="start" x="989.36" y="-183" font-family="Helvetica,sans-Serif" font-size="10.00">/home/runner/work/open62541pp</text>
<text text-anchor="start" x="989.36" y="-172" font-family="Helvetica,sans-Serif" font-size="10.00">/open62541pp/include/open62541pp</text>
<text text-anchor="middle" x="1077.86" y="-161" font-family="Helvetica,sans-Serif" font-size="10.00">/services/Attribute.h</text>
</a>
</g>
</g>
<!-- Node15&#45;&gt;Node16 -->
<g id="edge33_Node000015_Node000016" class="edge">
<title>Node15&#45;&gt;Node16</title>
<g id="a_edge33_Node000015_Node000016"><a xlink:title=" ">
<path fill="none" stroke="#63b8ff" d="M1040.3,-302.47C1028.52,-294.5 1017.63,-284.43 1010.86,-272 1002.14,-256 1003.11,-247.49 1010.86,-231 1017.74,-216.37 1030.57,-204.28 1043.18,-195.15"/>
<polygon fill="#63b8ff" stroke="#63b8ff" points="1038.66,-305.57 1049,-307.91 1042.37,-299.64 1038.66,-305.57"/>
</a>
</g>
</g>
<!-- Node17 -->
<g id="Node000017" class="node">
<title>Node17</title>
<g id="a_Node000017"><a xlink:href="DataValue_8h.html" target="_top" xlink:title=" ">
<polygon fill="white" stroke="#666666" points="1212.36,-272 1019.36,-272 1019.36,-231 1212.36,-231 1212.36,-272"/>
<text text-anchor="start" x="1027.36" y="-260" font-family="Helvetica,sans-Serif" font-size="10.00">/home/runner/work/open62541pp</text>
<text text-anchor="start" x="1027.36" y="-249" font-family="Helvetica,sans-Serif" font-size="10.00">/open62541pp/include/open62541pp</text>
<text text-anchor="middle" x="1115.86" y="-238" font-family="Helvetica,sans-Serif" font-size="10.00">/types/DataValue.h</text>
</a>
</g>
</g>
<!-- Node15&#45;&gt;Node17 -->
<g id="edge37_Node000015_Node000017" class="edge">
<title>Node15&#45;&gt;Node17</title>
<g id="a_edge37_Node000015_Node000017"><a xlink:title=" ">
<path fill="none" stroke="#63b8ff" d="M1104.34,-297.98C1106.54,-289.28 1108.9,-279.98 1110.9,-272.07"/>
<polygon fill="#63b8ff" stroke="#63b8ff" points="1100.92,-297.24 1101.85,-307.79 1107.7,-298.96 1100.92,-297.24"/>
</a>
</g>
</g>
<!-- Node16&#45;&gt;Node2 -->
<g id="edge34_Node000016_Node000002" class="edge">
<title>Node16&#45;&gt;Node2</title>
<g id="a_edge34_Node000016_Node000002"><a xlink:title=" ">
<path fill="none" stroke="#63b8ff" d="M1036.77,-148.64C1020.39,-138.74 1001.8,-127.5 986.39,-118.17"/>
<polygon fill="#63b8ff" stroke="#63b8ff" points="1035.24,-151.81 1045.61,-153.99 1038.86,-145.82 1035.24,-151.81"/>
</a>
</g>
</g>
<!-- Node16&#45;&gt;Node8 -->
<g id="edge35_Node000016_Node000008" class="edge">
<title>Node16&#45;&gt;Node8</title>
<g id="a_edge35_Node000016_Node000008"><a xlink:title=" ">
<path fill="none" stroke="#63b8ff" d="M980.44,-151.82C932.52,-141.15 875.22,-128.4 828.67,-118.04"/>
<polygon fill="#63b8ff" stroke="#63b8ff" points="979.68,-155.23 990.2,-153.99 981.2,-148.4 979.68,-155.23"/>
</a>
</g>
</g>
<!-- Node17&#45;&gt;Node2 -->
<g id="edge38_Node000017_Node000002" class="edge">
<title>Node17&#45;&gt;Node2</title>
<g id="a_edge38_Node000017_Node000002"><a xlink:title=" ">
<path fill="none" stroke="#63b8ff" d="M1159.12,-224.79C1169.07,-216.62 1178.35,-206.62 1183.86,-195 1191.68,-178.54 1195.14,-168.32 1183.86,-154 1167.12,-132.74 1106.69,-118.66 1051.98,-110.01"/>
<polygon fill="#63b8ff" stroke="#63b8ff" points="1156.87,-222.1 1151.05,-230.95 1161.12,-227.66 1156.87,-222.1"/>
</a>
</g>
</g>
<!-- Node17&#45;&gt;Node3 -->
<g id="edge39_Node000017_Node000003" class="edge">
<title>Node17&#45;&gt;Node3</title>
<g id="a_edge39_Node000017_Node000003"><a xlink:title=" ">
<path fill="none" stroke="#63b8ff" d="M1171.78,-225.35C1183.42,-217.38 1194.18,-207.35 1200.86,-195 1209.54,-178.98 1210.14,-169.69 1200.86,-154 1164.72,-92.87 1128.86,-97.47 1060.86,-77 955.15,-45.18 641.66,-30.2 481.46,-24.46"/>
<polygon fill="#63b8ff" stroke="#63b8ff" points="1169.76,-222.49 1163.19,-230.79 1173.51,-228.4 1169.76,-222.49"/>
</a>
</g>
</g>
<!-- Node17&#45;&gt;Node16 -->
<g id="edge40_Node000017_Node000016" class="edge">
<title>Node17&#45;&gt;Node16</title>
<g id="a_edge40_Node000017_Node000016"><a xlink:title=" ">
<path fill="none" stroke="#63b8ff" d="M1101.33,-221.83C1096.81,-212.89 1091.92,-203.24 1087.78,-195.07"/>
<polygon fill="#63b8ff" stroke="#63b8ff" points="1098.24,-223.46 1105.88,-230.79 1104.48,-220.29 1098.24,-223.46"/>
</a>
</g>
</g>
</g>
</svg>
