<?xml version="1.0" encoding="UTF-8" standalone="no"?>
<!DOCTYPE svg PUBLIC "-//W3C//DTD SVG 1.1//EN"
 "http://www.w3.org/Graphics/SVG/1.1/DTD/svg11.dtd">
<!-- Generated by graphviz version 2.43.0 (0)
 -->
<!-- Title: /home/runner/work/open62541pp/open62541pp/include/open62541pp/TypeConverter.h Pages: 1 -->
<svg width="1412pt" height="742pt"
 viewBox="0.00 0.00 1411.50 742.00" xmlns="http://www.w3.org/2000/svg" xmlns:xlink="http://www.w3.org/1999/xlink">
<g id="graph0" class="graph" transform="scale(1 1) rotate(0) translate(4 738)">
<title>/home/runner/work/open62541pp/open62541pp/include/open62541pp/TypeConverter.h</title>
<!-- Node1 -->
<g id="Node000001" class="node">
<title>Node1</title>
<g id="a_Node000001"><a xlink:title=" ">
<polygon fill="#999999" stroke="#666666" points="397.5,-734 204.5,-734 204.5,-693 397.5,-693 397.5,-734"/>
<text text-anchor="start" x="212.5" y="-722" font-family="Helvetica,sans-Serif" font-size="10.00">/home/runner/work/open62541pp</text>
<text text-anchor="start" x="212.5" y="-711" font-family="Helvetica,sans-Serif" font-size="10.00">/open62541pp/include/open62541pp</text>
<text text-anchor="middle" x="301" y="-700" font-family="Helvetica,sans-Serif" font-size="10.00">/TypeConverter.h</text>
</a>
</g>
</g>
<!-- Node2 -->
<g id="Node000002" class="node">
<title>Node2</title>
<g id="a_Node000002"><a xlink:href="open62541pp_8h.html" target="_top" xlink:title=" ">
<polygon fill="white" stroke="#666666" points="321.5,-41 128.5,-41 128.5,0 321.5,0 321.5,-41"/>
<text text-anchor="start" x="136.5" y="-29" font-family="Helvetica,sans-Serif" font-size="10.00">/home/runner/work/open62541pp</text>
<text text-anchor="start" x="136.5" y="-18" font-family="Helvetica,sans-Serif" font-size="10.00">/open62541pp/include/open62541pp</text>
<text text-anchor="middle" x="225" y="-7" font-family="Helvetica,sans-Serif" font-size="10.00">/open62541pp.h</text>
</a>
</g>
</g>
<!-- Node1&#45;&gt;Node2 -->
<g id="edge1_Node000001_Node000002" class="edge">
<title>Node1&#45;&gt;Node2</title>
<g id="a_edge1_Node000001_Node000002"><a xlink:title=" ">
<path fill="none" stroke="#63b8ff" d="M194.2,-702.01C107.66,-686.92 0,-650.13 0,-560.5 0,-560.5 0,-560.5 0,-173.5 0,-124.35 16.01,-108.18 54,-77 75.23,-59.58 102.07,-47.57 128.16,-39.32"/>
<polygon fill="#63b8ff" stroke="#63b8ff" points="193.67,-705.47 204.1,-703.66 194.82,-698.56 193.67,-705.47"/>
</a>
</g>
</g>
<!-- Node3 -->
<g id="Node000003" class="node">
<title>Node3</title>
<g id="a_Node000003"><a xlink:href="Variant_8h.html" target="_top" xlink:title=" ">
<polygon fill="white" stroke="#666666" points="764.5,-657 571.5,-657 571.5,-616 764.5,-616 764.5,-657"/>
<text text-anchor="start" x="579.5" y="-645" font-family="Helvetica,sans-Serif" font-size="10.00">/home/runner/work/open62541pp</text>
<text text-anchor="start" x="579.5" y="-634" font-family="Helvetica,sans-Serif" font-size="10.00">/open62541pp/include/open62541pp</text>
<text text-anchor="middle" x="668" y="-623" font-family="Helvetica,sans-Serif" font-size="10.00">/types/Variant.h</text>
</a>
</g>
</g>
<!-- Node1&#45;&gt;Node3 -->
<g id="edge2_Node000001_Node000003" class="edge">
<title>Node1&#45;&gt;Node3</title>
<g id="a_edge2_Node000001_Node000003"><a xlink:title=" ">
<path fill="none" stroke="#63b8ff" d="M406.45,-690.95C458.76,-680.26 521.47,-667.44 572.37,-657.04"/>
<polygon fill="#63b8ff" stroke="#63b8ff" points="405.56,-687.56 396.47,-692.99 406.97,-694.42 405.56,-687.56"/>
</a>
</g>
</g>
<!-- Node3&#45;&gt;Node2 -->
<g id="edge5_Node000003_Node000002" class="edge">
<title>Node3&#45;&gt;Node2</title>
<g id="a_edge5_Node000003_Node000002"><a xlink:title=" ">
<path fill="none" stroke="#63b8ff" d="M561.12,-634.8C421.66,-632.2 186.62,-621.55 112,-580 64.78,-553.71 38,-537.55 38,-483.5 38,-483.5 38,-483.5 38,-173.5 38,-106.25 111.73,-63.52 166.6,-41.04"/>
<polygon fill="#63b8ff" stroke="#63b8ff" points="561.34,-638.3 571.4,-634.98 561.47,-631.3 561.34,-638.3"/>
</a>
</g>
</g>
<!-- Node4 -->
<g id="Node000004" class="node">
<title>Node4</title>
<g id="a_Node000004"><a xlink:href="Node_8h.html" target="_top" xlink:title=" ">
<polygon fill="white" stroke="#666666" points="1060,-118 864,-118 864,-77 1060,-77 1060,-118"/>
<text text-anchor="start" x="872" y="-106" font-family="Helvetica,sans-Serif" font-size="10.00">/home/runner/work/open62541pp</text>
<text text-anchor="start" x="872" y="-95" font-family="Helvetica,sans-Serif" font-size="10.00">/open62541pp/include/open62541pp/</text>
<text text-anchor="middle" x="962" y="-84" font-family="Helvetica,sans-Serif" font-size="10.00">Node.h</text>
</a>
</g>
</g>
<!-- Node3&#45;&gt;Node4 -->
<g id="edge3_Node000003_Node000004" class="edge">
<title>Node3&#45;&gt;Node4</title>
<g id="a_edge3_Node000003_Node000004"><a xlink:title=" ">
<path fill="none" stroke="#63b8ff" d="M774.78,-633.76C967.81,-627.69 1355,-600.88 1355,-483.5 1355,-483.5 1355,-483.5 1355,-250.5 1355,-190.32 1313.14,-182.25 1260,-154 1225.96,-135.9 1133.29,-120.34 1060.24,-110.34"/>
<polygon fill="#63b8ff" stroke="#63b8ff" points="774.5,-630.26 764.61,-634.06 774.71,-637.26 774.5,-630.26"/>
</a>
</g>
</g>
<!-- Node5 -->
<g id="Node000005" class="node">
<title>Node5</title>
<g id="a_Node000005"><a xlink:href="Attribute_8h.html" target="_top" xlink:title=" ">
<polygon fill="white" stroke="#666666" points="541.5,-195 348.5,-195 348.5,-154 541.5,-154 541.5,-195"/>
<text text-anchor="start" x="356.5" y="-183" font-family="Helvetica,sans-Serif" font-size="10.00">/home/runner/work/open62541pp</text>
<text text-anchor="start" x="356.5" y="-172" font-family="Helvetica,sans-Serif" font-size="10.00">/open62541pp/include/open62541pp</text>
<text text-anchor="middle" x="445" y="-161" font-family="Helvetica,sans-Serif" font-size="10.00">/services/Attribute.h</text>
</a>
</g>
</g>
<!-- Node3&#45;&gt;Node5 -->
<g id="edge6_Node000003_Node000005" class="edge">
<title>Node3&#45;&gt;Node5</title>
<g id="a_edge6_Node000003_Node000005"><a xlink:title=" ">
<path fill="none" stroke="#63b8ff" d="M561.22,-629.88C390.72,-617.96 76,-582.53 76,-483.5 76,-483.5 76,-483.5 76,-327.5 76,-268.26 240.64,-220.34 349.97,-195.05"/>
<polygon fill="#63b8ff" stroke="#63b8ff" points="561.02,-633.38 571.24,-630.57 561.5,-626.39 561.02,-633.38"/>
</a>
</g>
</g>
<!-- Node8 -->
<g id="Node000008" class="node">
<title>Node8</title>
<g id="a_Node000008"><a xlink:href="Method_8h.html" target="_top" xlink:title=" ">
<polygon fill="white" stroke="#666666" points="963.5,-195 770.5,-195 770.5,-154 963.5,-154 963.5,-195"/>
<text text-anchor="start" x="778.5" y="-183" font-family="Helvetica,sans-Serif" font-size="10.00">/home/runner/work/open62541pp</text>
<text text-anchor="start" x="778.5" y="-172" font-family="Helvetica,sans-Serif" font-size="10.00">/open62541pp/include/open62541pp</text>
<text text-anchor="middle" x="867" y="-161" font-family="Helvetica,sans-Serif" font-size="10.00">/services/Method.h</text>
</a>
</g>
</g>
<!-- Node3&#45;&gt;Node8 -->
<g id="edge12_Node000003_Node000008" class="edge">
<title>Node3&#45;&gt;Node8</title>
<g id="a_edge12_Node000003_Node000008"><a xlink:title=" ">
<path fill="none" stroke="#63b8ff" d="M774.79,-628.96C940.57,-615.83 1241,-578.89 1241,-483.5 1241,-483.5 1241,-483.5 1241,-404.5 1241,-307.34 1189.72,-283.56 1108,-231 1095.43,-222.91 1025.23,-207.2 963.81,-194.56"/>
<polygon fill="#63b8ff" stroke="#63b8ff" points="774.25,-625.49 764.55,-629.75 774.79,-632.47 774.25,-625.49"/>
</a>
</g>
</g>
<!-- Node9 -->
<g id="Node000009" class="node">
<title>Node9</title>
<g id="a_Node000009"><a xlink:href="NodeManagement_8h.html" target="_top" xlink:title=" ">
<polygon fill="white" stroke="#666666" points="1174.5,-195 981.5,-195 981.5,-154 1174.5,-154 1174.5,-195"/>
<text text-anchor="start" x="989.5" y="-183" font-family="Helvetica,sans-Serif" font-size="10.00">/home/runner/work/open62541pp</text>
<text text-anchor="start" x="989.5" y="-172" font-family="Helvetica,sans-Serif" font-size="10.00">/open62541pp/include/open62541pp</text>
<text text-anchor="middle" x="1078" y="-161" font-family="Helvetica,sans-Serif" font-size="10.00">/services/NodeManagement.h</text>
</a>
</g>
</g>
<!-- Node3&#45;&gt;Node9 -->
<g id="edge15_Node000003_Node000009" class="edge">
<title>Node3&#45;&gt;Node9</title>
<g id="a_edge15_Node000003_Node000009"><a xlink:title=" ">
<path fill="none" stroke="#63b8ff" d="M774.81,-630.67C898.44,-623.83 1093.71,-608.81 1161,-580 1210.02,-559.02 1229.81,-551.01 1253,-503 1290.84,-424.66 1282.02,-381.83 1236,-308 1204.85,-258.03 1148.49,-217.57 1112.19,-195.03"/>
<polygon fill="#63b8ff" stroke="#63b8ff" points="774.35,-627.19 764.55,-631.23 774.73,-634.18 774.35,-627.19"/>
</a>
</g>
</g>
<!-- Node12 -->
<g id="Node000012" class="node">
<title>Node12</title>
<g id="a_Node000012"><a xlink:href="AttributeHandler_8h.html" target="_top" xlink:title=" ">
<polygon fill="white" stroke="#666666" points="297.5,-503 104.5,-503 104.5,-462 297.5,-462 297.5,-503"/>
<text text-anchor="start" x="112.5" y="-491" font-family="Helvetica,sans-Serif" font-size="10.00">/home/runner/work/open62541pp</text>
<text text-anchor="start" x="112.5" y="-480" font-family="Helvetica,sans-Serif" font-size="10.00">/open62541pp/include/open62541pp</text>
<text text-anchor="middle" x="201" y="-469" font-family="Helvetica,sans-Serif" font-size="10.00">/services/detail/AttributeHandler.h</text>
</a>
</g>
</g>
<!-- Node3&#45;&gt;Node12 -->
<g id="edge20_Node000003_Node000012" class="edge">
<title>Node3&#45;&gt;Node12</title>
<g id="a_edge20_Node000003_Node000012"><a xlink:title=" ">
<path fill="none" stroke="#63b8ff" d="M561.23,-626.18C500.47,-618.47 423.8,-604.61 359,-580 308.52,-560.83 256.25,-525.26 226.28,-503.07"/>
<polygon fill="#63b8ff" stroke="#63b8ff" points="560.87,-629.66 571.22,-627.41 561.73,-622.71 560.87,-629.66"/>
</a>
</g>
</g>
<!-- Node13 -->
<g id="Node000013" class="node">
<title>Node13</title>
<g id="a_Node000013"><a xlink:href="MonitoredItemContext_8h.html" target="_top" xlink:title=" ">
<polygon fill="white" stroke="#666666" points="1203.5,-426 990.5,-426 990.5,-385 1203.5,-385 1203.5,-426"/>
<text text-anchor="start" x="998.5" y="-414" font-family="Helvetica,sans-Serif" font-size="10.00">/home/runner/work/open62541pp</text>
<text text-anchor="start" x="998.5" y="-403" font-family="Helvetica,sans-Serif" font-size="10.00">/open62541pp/include/open62541pp</text>
<text text-anchor="middle" x="1097" y="-392" font-family="Helvetica,sans-Serif" font-size="10.00">/services/detail/MonitoredItemContext.h</text>
</a>
</g>
</g>
<!-- Node3&#45;&gt;Node13 -->
<g id="edge22_Node000003_Node000013" class="edge">
<title>Node3&#45;&gt;Node13</title>
<g id="a_edge22_Node000003_Node000013"><a xlink:title=" ">
<path fill="none" stroke="#63b8ff" d="M774.81,-619.24C812.85,-610.82 855.12,-598.31 891,-580 970.75,-539.29 1046.46,-462.4 1079.55,-426.24"/>
<polygon fill="#63b8ff" stroke="#63b8ff" points="773.77,-615.89 764.72,-621.4 775.23,-622.73 773.77,-615.89"/>
</a>
</g>
</g>
<!-- Node17 -->
<g id="Node000017" class="node">
<title>Node17</title>
<g id="a_Node000017"><a xlink:href="RequestHandling_8h.html" target="_top" xlink:title=" ">
<polygon fill="white" stroke="#666666" points="848.5,-272 655.5,-272 655.5,-231 848.5,-231 848.5,-272"/>
<text text-anchor="start" x="663.5" y="-260" font-family="Helvetica,sans-Serif" font-size="10.00">/home/runner/work/open62541pp</text>
<text text-anchor="start" x="663.5" y="-249" font-family="Helvetica,sans-Serif" font-size="10.00">/open62541pp/include/open62541pp</text>
<text text-anchor="middle" x="752" y="-238" font-family="Helvetica,sans-Serif" font-size="10.00">/services/detail/RequestHandling.h</text>
</a>
</g>
</g>
<!-- Node3&#45;&gt;Node17 -->
<g id="edge32_Node000003_Node000017" class="edge">
<title>Node3&#45;&gt;Node17</title>
<g id="a_edge32_Node000003_Node000017"><a xlink:title=" ">
<path fill="none" stroke="#63b8ff" d="M748.76,-612.41C807.58,-590.08 877,-549.69 877,-483.5 877,-483.5 877,-483.5 877,-404.5 877,-345.91 820.9,-297.6 783.87,-272.1"/>
<polygon fill="#63b8ff" stroke="#63b8ff" points="747.23,-609.24 739.05,-615.98 749.64,-615.82 747.23,-609.24"/>
</a>
</g>
</g>
<!-- Node18 -->
<g id="Node000018" class="node">
<title>Node18</title>
<g id="a_Node000018"><a xlink:href="ResponseHandling_8h.html" target="_top" xlink:title=" ">
<polygon fill="white" stroke="#666666" points="599,-272 405,-272 405,-231 599,-231 599,-272"/>
<text text-anchor="start" x="413" y="-260" font-family="Helvetica,sans-Serif" font-size="10.00">/home/runner/work/open62541pp</text>
<text text-anchor="start" x="413" y="-249" font-family="Helvetica,sans-Serif" font-size="10.00">/open62541pp/include/open62541pp</text>
<text text-anchor="middle" x="502" y="-238" font-family="Helvetica,sans-Serif" font-size="10.00">/services/detail/ResponseHandling.h</text>
</a>
</g>
</g>
<!-- Node3&#45;&gt;Node18 -->
<g id="edge37_Node000003_Node000018" class="edge">
<title>Node3&#45;&gt;Node18</title>
<g id="a_edge37_Node000003_Node000018"><a xlink:title=" ">
<path fill="none" stroke="#63b8ff" d="M663.27,-605.71C650.71,-527.24 616.88,-320.06 608,-308 596.36,-292.19 578.87,-280.49 561.43,-272.02"/>
<polygon fill="#63b8ff" stroke="#63b8ff" points="659.86,-606.57 664.89,-615.89 666.77,-605.47 659.86,-606.57"/>
</a>
</g>
</g>
<!-- Node19 -->
<g id="Node000019" class="node">
<title>Node19</title>
<g id="a_Node000019"><a xlink:href="Composed_8h.html" target="_top" xlink:title=" ">
<polygon fill="white" stroke="#666666" points="848.5,-503 655.5,-503 655.5,-462 848.5,-462 848.5,-503"/>
<text text-anchor="start" x="663.5" y="-491" font-family="Helvetica,sans-Serif" font-size="10.00">/home/runner/work/open62541pp</text>
<text text-anchor="start" x="663.5" y="-480" font-family="Helvetica,sans-Serif" font-size="10.00">/open62541pp/include/open62541pp</text>
<text text-anchor="middle" x="752" y="-469" font-family="Helvetica,sans-Serif" font-size="10.00">/types/Composed.h</text>
</a>
</g>
</g>
<!-- Node3&#45;&gt;Node19 -->
<g id="edge42_Node000003_Node000019" class="edge">
<title>Node3&#45;&gt;Node19</title>
<g id="a_edge42_Node000003_Node000019"><a xlink:title=" ">
<path fill="none" stroke="#63b8ff" d="M683.66,-607.15C700.34,-576.97 726.31,-529.98 740.97,-503.47"/>
<polygon fill="#63b8ff" stroke="#63b8ff" points="680.58,-605.49 678.81,-615.94 686.71,-608.88 680.58,-605.49"/>
</a>
</g>
</g>
<!-- Node21 -->
<g id="Node000021" class="node">
<title>Node21</title>
<g id="a_Node000021"><a xlink:href="DataValue_8h.html" target="_top" xlink:title=" ">
<polygon fill="white" stroke="#666666" points="560.5,-580 367.5,-580 367.5,-539 560.5,-539 560.5,-580"/>
<text text-anchor="start" x="375.5" y="-568" font-family="Helvetica,sans-Serif" font-size="10.00">/home/runner/work/open62541pp</text>
<text text-anchor="start" x="375.5" y="-557" font-family="Helvetica,sans-Serif" font-size="10.00">/open62541pp/include/open62541pp</text>
<text text-anchor="middle" x="464" y="-546" font-family="Helvetica,sans-Serif" font-size="10.00">/types/DataValue.h</text>
</a>
</g>
</g>
<!-- Node3&#45;&gt;Node21 -->
<g id="edge53_Node000003_Node000021" class="edge">
<title>Node3&#45;&gt;Node21</title>
<g id="a_edge53_Node000003_Node000021"><a xlink:title=" ">
<path fill="none" stroke="#63b8ff" d="M605.55,-612.54C577.28,-602.15 544.21,-589.99 517.15,-580.04"/>
<polygon fill="#63b8ff" stroke="#63b8ff" points="604.34,-615.82 614.93,-615.99 606.76,-609.25 604.34,-615.82"/>
</a>
</g>
</g>
<!-- Node4&#45;&gt;Node2 -->
<g id="edge4_Node000004_Node000002" class="edge">
<title>Node4&#45;&gt;Node2</title>
<g id="a_edge4_Node000004_Node000002"><a xlink:title=" ">
<path fill="none" stroke="#63b8ff" d="M853.61,-85.47C710.07,-70.86 459.1,-45.32 321.69,-31.34"/>
<polygon fill="#63b8ff" stroke="#63b8ff" points="853.45,-88.97 863.75,-86.5 854.16,-82.01 853.45,-88.97"/>
</a>
</g>
</g>
<!-- Node5&#45;&gt;Node4 -->
<g id="edge7_Node000005_Node000004" class="edge">
<title>Node5&#45;&gt;Node4</title>
<g id="a_edge7_Node000005_Node000004"><a xlink:title=" ">
<path fill="none" stroke="#63b8ff" d="M551.94,-153.89C664.82,-136.06 782.87,-120.56 863.82,-110.42"/>
<polygon fill="#63b8ff" stroke="#63b8ff" points="551.06,-150.48 541.73,-155.51 552.16,-157.4 551.06,-150.48"/>
</a>
</g>
</g>
<!-- Node6 -->
<g id="Node000006" class="node">
<title>Node6</title>
<g id="a_Node000006"><a xlink:href="Attribute__highlevel_8h.html" target="_top" xlink:title=" ">
<polygon fill="white" stroke="#666666" points="541.5,-118 348.5,-118 348.5,-77 541.5,-77 541.5,-118"/>
<text text-anchor="start" x="356.5" y="-106" font-family="Helvetica,sans-Serif" font-size="10.00">/home/runner/work/open62541pp</text>
<text text-anchor="start" x="356.5" y="-95" font-family="Helvetica,sans-Serif" font-size="10.00">/open62541pp/include/open62541pp</text>
<text text-anchor="middle" x="445" y="-84" font-family="Helvetica,sans-Serif" font-size="10.00">/services/Attribute_highlevel.h</text>
</a>
</g>
</g>
<!-- Node5&#45;&gt;Node6 -->
<g id="edge8_Node000005_Node000006" class="edge">
<title>Node5&#45;&gt;Node6</title>
<g id="a_edge8_Node000005_Node000006"><a xlink:title=" ">
<path fill="none" stroke="#63b8ff" d="M438.38,-143.69C438.09,-135.08 438.29,-125.9 438.99,-118.07"/>
<polygon fill="#63b8ff" stroke="#63b8ff" points="434.89,-144.02 438.98,-153.79 441.88,-143.6 434.89,-144.02"/>
</a>
</g>
</g>
<!-- Node7 -->
<g id="Node000007" class="node">
<title>Node7</title>
<g id="a_Node000007"><a xlink:href="services_8h.html" target="_top" xlink:title=" ">
<polygon fill="white" stroke="#666666" points="752.5,-118 559.5,-118 559.5,-77 752.5,-77 752.5,-118"/>
<text text-anchor="start" x="567.5" y="-106" font-family="Helvetica,sans-Serif" font-size="10.00">/home/runner/work/open62541pp</text>
<text text-anchor="start" x="567.5" y="-95" font-family="Helvetica,sans-Serif" font-size="10.00">/open62541pp/include/open62541pp</text>
<text text-anchor="middle" x="656" y="-84" font-family="Helvetica,sans-Serif" font-size="10.00">/services/services.h</text>
</a>
</g>
</g>
<!-- Node5&#45;&gt;Node7 -->
<g id="edge10_Node000005_Node000007" class="edge">
<title>Node5&#45;&gt;Node7</title>
<g id="a_edge10_Node000005_Node000007"><a xlink:title=" ">
<path fill="none" stroke="#63b8ff" d="M509.6,-150.54C538.84,-140.15 573.03,-127.99 601.02,-118.04"/>
<polygon fill="#63b8ff" stroke="#63b8ff" points="508.14,-147.34 499.89,-153.99 510.48,-153.94 508.14,-147.34"/>
</a>
</g>
</g>
<!-- Node6&#45;&gt;Node5 -->
<g id="edge9_Node000006_Node000005" class="edge">
<title>Node6&#45;&gt;Node5</title>
<g id="a_edge9_Node000006_Node000005"><a xlink:title=" ">
<path fill="none" stroke="#63b8ff" d="M451.62,-128.16C451.91,-136.77 451.71,-145.96 451.02,-153.79"/>
<polygon fill="#63b8ff" stroke="#63b8ff" points="455.1,-127.85 451.01,-118.07 448.12,-128.27 455.1,-127.85"/>
</a>
</g>
</g>
<!-- Node7&#45;&gt;Node2 -->
<g id="edge11_Node000007_Node000002" class="edge">
<title>Node7&#45;&gt;Node2</title>
<g id="a_edge11_Node000007_Node000002"><a xlink:title=" ">
<path fill="none" stroke="#63b8ff" d="M549.31,-76.71C467.19,-62.14 384.07,-48.03 321.71,-37.57"/>
<polygon fill="#63b8ff" stroke="#63b8ff" points="548.86,-80.18 559.32,-78.49 550.09,-73.29 548.86,-80.18"/>
</a>
</g>
</g>
<!-- Node8&#45;&gt;Node4 -->
<g id="edge13_Node000008_Node000004" class="edge">
<title>Node8&#45;&gt;Node4</title>
<g id="a_edge13_Node000008_Node000004"><a xlink:title=" ">
<path fill="none" stroke="#63b8ff" d="M900.13,-147.35C912.31,-137.73 925.88,-127.01 937.21,-118.07"/>
<polygon fill="#63b8ff" stroke="#63b8ff" points="897.64,-144.85 891.96,-153.79 901.98,-150.35 897.64,-144.85"/>
</a>
</g>
</g>
<!-- Node8&#45;&gt;Node7 -->
<g id="edge14_Node000008_Node000007" class="edge">
<title>Node8&#45;&gt;Node7</title>
<g id="a_edge14_Node000008_Node000007"><a xlink:title=" ">
<path fill="none" stroke="#63b8ff" d="M802.4,-150.54C773.16,-140.15 738.97,-127.99 710.98,-118.04"/>
<polygon fill="#63b8ff" stroke="#63b8ff" points="801.52,-153.94 812.11,-153.99 803.86,-147.34 801.52,-153.94"/>
</a>
</g>
</g>
<!-- Node9&#45;&gt;Node4 -->
<g id="edge16_Node000009_Node000004" class="edge">
<title>Node9&#45;&gt;Node4</title>
<g id="a_edge16_Node000009_Node000004"><a xlink:title=" ">
<path fill="none" stroke="#63b8ff" d="M1039.13,-148.37C1023.91,-138.53 1006.71,-127.41 992.43,-118.17"/>
<polygon fill="#63b8ff" stroke="#63b8ff" points="1037.53,-151.5 1047.83,-153.99 1041.33,-145.62 1037.53,-151.5"/>
</a>
</g>
</g>
<!-- Node9&#45;&gt;Node7 -->
<g id="edge19_Node000009_Node000007" class="edge">
<title>Node9&#45;&gt;Node7</title>
<g id="a_edge19_Node000009_Node000007"><a xlink:title=" ">
<path fill="none" stroke="#63b8ff" d="M971.2,-153.68C892.36,-139.49 813.03,-125.62 752.81,-115.18"/>
<polygon fill="#63b8ff" stroke="#63b8ff" points="970.85,-157.18 981.32,-155.51 972.1,-150.29 970.85,-157.18"/>
</a>
</g>
</g>
<!-- Node10 -->
<g id="Node000010" class="node">
<title>Node10</title>
<g id="a_Node000010"><a xlink:href="NodeContext_8h.html" target="_top" xlink:title=" ">
<polygon fill="white" stroke="#666666" points="1317.5,-118 1124.5,-118 1124.5,-77 1317.5,-77 1317.5,-118"/>
<text text-anchor="start" x="1132.5" y="-106" font-family="Helvetica,sans-Serif" font-size="10.00">/home/runner/work/open62541pp</text>
<text text-anchor="start" x="1132.5" y="-95" font-family="Helvetica,sans-Serif" font-size="10.00">/open62541pp/include/open62541pp</text>
<text text-anchor="middle" x="1221" y="-84" font-family="Helvetica,sans-Serif" font-size="10.00">/detail/NodeContext.h</text>
</a>
</g>
</g>
<!-- Node9&#45;&gt;Node10 -->
<g id="edge17_Node000009_Node000010" class="edge">
<title>Node9&#45;&gt;Node10</title>
<g id="a_edge17_Node000009_Node000010"><a xlink:title=" ">
<path fill="none" stroke="#63b8ff" d="M1124.08,-149.33C1143.29,-139.26 1165.3,-127.71 1183.49,-118.17"/>
<polygon fill="#63b8ff" stroke="#63b8ff" points="1122.43,-146.25 1115.2,-153.99 1125.68,-152.45 1122.43,-146.25"/>
</a>
</g>
</g>
<!-- Node11 -->
<g id="Node000011" class="node">
<title>Node11</title>
<g id="a_Node000011"><a xlink:href="ServerContext_8h.html" target="_top" xlink:title=" ">
<polygon fill="white" stroke="#666666" points="1403.5,-41 1210.5,-41 1210.5,0 1403.5,0 1403.5,-41"/>
<text text-anchor="start" x="1218.5" y="-29" font-family="Helvetica,sans-Serif" font-size="10.00">/home/runner/work/open62541pp</text>
<text text-anchor="start" x="1218.5" y="-18" font-family="Helvetica,sans-Serif" font-size="10.00">/open62541pp/include/open62541pp</text>
<text text-anchor="middle" x="1307" y="-7" font-family="Helvetica,sans-Serif" font-size="10.00">/detail/ServerContext.h</text>
</a>
</g>
</g>
<!-- Node10&#45;&gt;Node11 -->
<g id="edge18_Node000010_Node000011" class="edge">
<title>Node10&#45;&gt;Node11</title>
<g id="a_edge18_Node000010_Node000011"><a xlink:title=" ">
<path fill="none" stroke="#63b8ff" d="M1251.31,-70.07C1262.25,-60.52 1274.4,-49.93 1284.56,-41.07"/>
<polygon fill="#63b8ff" stroke="#63b8ff" points="1248.83,-67.58 1243.6,-76.79 1253.43,-72.86 1248.83,-67.58"/>
</a>
</g>
</g>
<!-- Node12&#45;&gt;Node5 -->
<g id="edge21_Node000012_Node000005" class="edge">
<title>Node12&#45;&gt;Node5</title>
<g id="a_edge21_Node000012_Node000005"><a xlink:title=" ">
<path fill="none" stroke="#63b8ff" d="M208.54,-452.14C223.03,-401.01 259.3,-294.98 325,-231 341.03,-215.39 362.26,-203.61 382.4,-195.02"/>
<polygon fill="#63b8ff" stroke="#63b8ff" points="205.13,-451.32 205.85,-461.89 211.88,-453.18 205.13,-451.32"/>
</a>
</g>
</g>
<!-- Node13&#45;&gt;Node11 -->
<g id="edge31_Node000013_Node000011" class="edge">
<title>Node13&#45;&gt;Node11</title>
<g id="a_edge31_Node000013_Node000011"><a xlink:title=" ">
<path fill="none" stroke="#63b8ff" d="M1140.95,-379.49C1154.06,-370.83 1167.88,-360.41 1179,-349 1264.13,-261.7 1292.73,-235.02 1327,-118 1334.65,-91.89 1325.08,-60.99 1316.73,-41.32"/>
<polygon fill="#63b8ff" stroke="#63b8ff" points="1139.01,-376.57 1132.48,-384.91 1142.79,-382.47 1139.01,-376.57"/>
</a>
</g>
</g>
<!-- Node14 -->
<g id="Node000014" class="node">
<title>Node14</title>
<g id="a_Node000014"><a xlink:href="ClientContext_8h.html" target="_top" xlink:title=" ">
<polygon fill="white" stroke="#666666" points="1136.5,-349 943.5,-349 943.5,-308 1136.5,-308 1136.5,-349"/>
<text text-anchor="start" x="951.5" y="-337" font-family="Helvetica,sans-Serif" font-size="10.00">/home/runner/work/open62541pp</text>
<text text-anchor="start" x="951.5" y="-326" font-family="Helvetica,sans-Serif" font-size="10.00">/open62541pp/include/open62541pp</text>
<text text-anchor="middle" x="1040" y="-315" font-family="Helvetica,sans-Serif" font-size="10.00">/detail/ClientContext.h</text>
</a>
</g>
</g>
<!-- Node13&#45;&gt;Node14 -->
<g id="edge23_Node000013_Node000014" class="edge">
<title>Node13&#45;&gt;Node14</title>
<g id="a_edge23_Node000013_Node000014"><a xlink:title=" ">
<path fill="none" stroke="#63b8ff" d="M1075.85,-376.67C1068.88,-367.5 1061.28,-357.5 1054.88,-349.07"/>
<polygon fill="#63b8ff" stroke="#63b8ff" points="1073.19,-378.95 1082.02,-384.79 1078.76,-374.72 1073.19,-378.95"/>
</a>
</g>
</g>
<!-- Node15 -->
<g id="Node000015" class="node">
<title>Node15</title>
<g id="a_Node000015"><a xlink:href="ClientService_8h.html" target="_top" xlink:title=" ">
<polygon fill="white" stroke="#666666" points="1098.5,-272 905.5,-272 905.5,-231 1098.5,-231 1098.5,-272"/>
<text text-anchor="start" x="913.5" y="-260" font-family="Helvetica,sans-Serif" font-size="10.00">/home/runner/work/open62541pp</text>
<text text-anchor="start" x="913.5" y="-249" font-family="Helvetica,sans-Serif" font-size="10.00">/open62541pp/include/open62541pp</text>
<text text-anchor="middle" x="1002" y="-238" font-family="Helvetica,sans-Serif" font-size="10.00">/services/detail/ClientService.h</text>
</a>
</g>
</g>
<!-- Node14&#45;&gt;Node15 -->
<g id="edge24_Node000014_Node000015" class="edge">
<title>Node14&#45;&gt;Node15</title>
<g id="a_edge24_Node000014_Node000015"><a xlink:title=" ">
<path fill="none" stroke="#63b8ff" d="M1025.47,-298.83C1020.94,-289.89 1016.05,-280.24 1011.92,-272.07"/>
<polygon fill="#63b8ff" stroke="#63b8ff" points="1022.37,-300.46 1030.02,-307.79 1028.62,-297.29 1022.37,-300.46"/>
</a>
</g>
</g>
<!-- Node15&#45;&gt;Node5 -->
<g id="edge25_Node000015_Node000005" class="edge">
<title>Node15&#45;&gt;Node5</title>
<g id="a_edge25_Node000015_Node000005"><a xlink:title=" ">
<path fill="none" stroke="#63b8ff" d="M895.19,-235.82C882.65,-234.16 870.05,-232.52 858,-231 721.7,-213.78 686.85,-215.44 551,-195 547.95,-194.54 544.85,-194.06 541.72,-193.56"/>
<polygon fill="#63b8ff" stroke="#63b8ff" points="894.83,-239.3 905.21,-237.15 895.76,-232.36 894.83,-239.3"/>
</a>
</g>
</g>
<!-- Node15&#45;&gt;Node8 -->
<g id="edge26_Node000015_Node000008" class="edge">
<title>Node15&#45;&gt;Node8</title>
<g id="a_edge26_Node000015_Node000008"><a xlink:title=" ">
<path fill="none" stroke="#63b8ff" d="M957.75,-225.92C939.8,-215.95 919.35,-204.58 902.41,-195.17"/>
<polygon fill="#63b8ff" stroke="#63b8ff" points="956.44,-229.19 966.88,-230.99 959.84,-223.07 956.44,-229.19"/>
</a>
</g>
</g>
<!-- Node15&#45;&gt;Node9 -->
<g id="edge27_Node000015_Node000009" class="edge">
<title>Node15&#45;&gt;Node9</title>
<g id="a_edge27_Node000015_Node000009"><a xlink:title=" ">
<path fill="none" stroke="#63b8ff" d="M1029.35,-223.51C1038.87,-214.11 1049.37,-203.76 1058.17,-195.07"/>
<polygon fill="#63b8ff" stroke="#63b8ff" points="1026.63,-221.28 1021.97,-230.79 1031.54,-226.26 1026.63,-221.28"/>
</a>
</g>
</g>
<!-- Node16 -->
<g id="Node000016" class="node">
<title>Node16</title>
<g id="a_Node000016"><a xlink:href="View_8h.html" target="_top" xlink:title=" ">
<polygon fill="white" stroke="#666666" points="752.5,-195 559.5,-195 559.5,-154 752.5,-154 752.5,-195"/>
<text text-anchor="start" x="567.5" y="-183" font-family="Helvetica,sans-Serif" font-size="10.00">/home/runner/work/open62541pp</text>
<text text-anchor="start" x="567.5" y="-172" font-family="Helvetica,sans-Serif" font-size="10.00">/open62541pp/include/open62541pp</text>
<text text-anchor="middle" x="656" y="-161" font-family="Helvetica,sans-Serif" font-size="10.00">/services/View.h</text>
</a>
</g>
</g>
<!-- Node15&#45;&gt;Node16 -->
<g id="edge28_Node000015_Node000016" class="edge">
<title>Node15&#45;&gt;Node16</title>
<g id="a_edge28_Node000015_Node000016"><a xlink:title=" ">
<path fill="none" stroke="#63b8ff" d="M901.97,-228.82C852.78,-218.15 793.95,-205.4 746.15,-195.04"/>
<polygon fill="#63b8ff" stroke="#63b8ff" points="901.48,-232.29 912,-230.99 902.96,-225.45 901.48,-232.29"/>
</a>
</g>
</g>
<!-- Node16&#45;&gt;Node4 -->
<g id="edge29_Node000016_Node000004" class="edge">
<title>Node16&#45;&gt;Node4</title>
<g id="a_edge29_Node000016_Node000004"><a xlink:title=" ">
<path fill="none" stroke="#63b8ff" d="M745.56,-151.55C788.84,-140.94 840.36,-128.31 882.27,-118.04"/>
<polygon fill="#63b8ff" stroke="#63b8ff" points="744.48,-148.21 735.6,-153.99 746.14,-155.01 744.48,-148.21"/>
</a>
</g>
</g>
<!-- Node16&#45;&gt;Node7 -->
<g id="edge30_Node000016_Node000007" class="edge">
<title>Node16&#45;&gt;Node7</title>
<g id="a_edge30_Node000016_Node000007"><a xlink:title=" ">
<path fill="none" stroke="#63b8ff" d="M656,-143.69C656,-135.08 656,-125.9 656,-118.07"/>
<polygon fill="#63b8ff" stroke="#63b8ff" points="652.5,-143.79 656,-153.79 659.5,-143.79 652.5,-143.79"/>
</a>
</g>
</g>
<!-- Node17&#45;&gt;Node5 -->
<g id="edge33_Node000017_Node000005" class="edge">
<title>Node17&#45;&gt;Node5</title>
<g id="a_edge33_Node000017_Node000005"><a xlink:title=" ">
<path fill="none" stroke="#63b8ff" d="M662.43,-228.62C618.94,-217.99 567.13,-205.34 524.99,-195.04"/>
<polygon fill="#63b8ff" stroke="#63b8ff" points="661.6,-232.02 672.14,-230.99 663.26,-225.22 661.6,-232.02"/>
</a>
</g>
</g>
<!-- Node17&#45;&gt;Node8 -->
<g id="edge34_Node000017_Node000008" class="edge">
<title>Node17&#45;&gt;Node8</title>
<g id="a_edge34_Node000017_Node000008"><a xlink:title=" ">
<path fill="none" stroke="#63b8ff" d="M790.53,-225.37C805.62,-215.53 822.67,-204.41 836.84,-195.17"/>
<polygon fill="#63b8ff" stroke="#63b8ff" points="788.38,-222.6 781.91,-230.99 792.2,-228.46 788.38,-222.6"/>
</a>
</g>
</g>
<!-- Node17&#45;&gt;Node9 -->
<g id="edge35_Node000017_Node000009" class="edge">
<title>Node17&#45;&gt;Node9</title>
<g id="a_edge35_Node000017_Node000009"><a xlink:title=" ">
<path fill="none" stroke="#63b8ff" d="M846.83,-228.68C893.06,-218.05 948.22,-205.36 993.06,-195.04"/>
<polygon fill="#63b8ff" stroke="#63b8ff" points="845.76,-225.34 836.8,-230.99 847.33,-232.16 845.76,-225.34"/>
</a>
</g>
</g>
<!-- Node17&#45;&gt;Node16 -->
<g id="edge36_Node000017_Node000016" class="edge">
<title>Node17&#45;&gt;Node16</title>
<g id="a_edge36_Node000017_Node000016"><a xlink:title=" ">
<path fill="none" stroke="#63b8ff" d="M719.12,-224.82C706.71,-215.11 692.78,-204.24 681.18,-195.17"/>
<polygon fill="#63b8ff" stroke="#63b8ff" points="716.99,-227.59 727.03,-230.99 721.3,-222.08 716.99,-227.59"/>
</a>
</g>
</g>
<!-- Node18&#45;&gt;Node5 -->
<g id="edge38_Node000018_Node000005" class="edge">
<title>Node18&#45;&gt;Node5</title>
<g id="a_edge38_Node000018_Node000005"><a xlink:title=" ">
<path fill="none" stroke="#63b8ff" d="M480.85,-222.67C473.88,-213.5 466.28,-203.5 459.88,-195.07"/>
<polygon fill="#63b8ff" stroke="#63b8ff" points="478.19,-224.95 487.02,-230.79 483.76,-220.72 478.19,-224.95"/>
</a>
</g>
</g>
<!-- Node18&#45;&gt;Node8 -->
<g id="edge39_Node000018_Node000008" class="edge">
<title>Node18&#45;&gt;Node8</title>
<g id="a_edge39_Node000018_Node000008"><a xlink:title=" ">
<path fill="none" stroke="#63b8ff" d="M606.87,-228.95C658.9,-218.26 721.27,-205.44 771.9,-195.04"/>
<polygon fill="#63b8ff" stroke="#63b8ff" points="606.04,-225.55 596.95,-230.99 607.45,-232.41 606.04,-225.55"/>
</a>
</g>
</g>
<!-- Node18&#45;&gt;Node9 -->
<g id="edge40_Node000018_Node000009" class="edge">
<title>Node18&#45;&gt;Node9</title>
<g id="a_edge40_Node000018_Node000009"><a xlink:title=" ">
<path fill="none" stroke="#63b8ff" d="M609.24,-235.79C621.96,-234.13 634.77,-232.5 647,-231 791.69,-213.28 828.8,-216.32 973,-195 975.75,-194.59 978.54,-194.17 981.35,-193.73"/>
<polygon fill="#63b8ff" stroke="#63b8ff" points="608.52,-232.35 599.06,-237.12 609.44,-239.29 608.52,-232.35"/>
</a>
</g>
</g>
<!-- Node18&#45;&gt;Node16 -->
<g id="edge41_Node000018_Node000016" class="edge">
<title>Node18&#45;&gt;Node16</title>
<g id="a_edge41_Node000018_Node000016"><a xlink:title=" ">
<path fill="none" stroke="#63b8ff" d="M551.1,-226.59C572,-216.41 596.07,-204.69 615.87,-195.04"/>
<polygon fill="#63b8ff" stroke="#63b8ff" points="549.52,-223.47 542.06,-230.99 552.58,-229.76 549.52,-223.47"/>
</a>
</g>
</g>
<!-- Node19&#45;&gt;Node2 -->
<g id="edge46_Node000019_Node000002" class="edge">
<title>Node19&#45;&gt;Node2</title>
<g id="a_edge46_Node000019_Node000002"><a xlink:title=" ">
<path fill="none" stroke="#63b8ff" d="M652.77,-459.29C577.66,-439.13 474.54,-404 397,-349 295.55,-277.04 272.71,-237.73 239,-118 231.66,-91.93 228.02,-60.75 226.33,-41.03"/>
<polygon fill="#63b8ff" stroke="#63b8ff" points="652.15,-462.75 662.72,-461.92 653.94,-455.98 652.15,-462.75"/>
</a>
</g>
</g>
<!-- Node19&#45;&gt;Node4 -->
<g id="edge45_Node000019_Node000004" class="edge">
<title>Node19&#45;&gt;Node4</title>
<g id="a_edge45_Node000019_Node000004"><a xlink:title=" ">
<path fill="none" stroke="#63b8ff" d="M801.42,-457.68C847.35,-436.3 918.08,-405.24 982,-385 1053.14,-362.47 1092.56,-401.08 1146,-349 1177.62,-318.19 1211.17,-188.8 1184,-154 1168.23,-133.8 1111.98,-119.87 1060.06,-111.01"/>
<polygon fill="#63b8ff" stroke="#63b8ff" points="799.86,-454.55 792.29,-461.96 802.83,-460.89 799.86,-454.55"/>
</a>
</g>
</g>
<!-- Node19&#45;&gt;Node5 -->
<g id="edge47_Node000019_Node000005" class="edge">
<title>Node19&#45;&gt;Node5</title>
<g id="a_edge47_Node000019_Node000005"><a xlink:title=" ">
<path fill="none" stroke="#63b8ff" d="M732.47,-453.49C701.01,-409.2 639.47,-326.15 608,-308 525.21,-260.25 457.66,-345.02 396,-272 376.24,-248.6 401.51,-215.88 422.47,-195.19"/>
<polygon fill="#63b8ff" stroke="#63b8ff" points="729.71,-455.65 738.34,-461.8 735.43,-451.61 729.71,-455.65"/>
</a>
</g>
</g>
<!-- Node19&#45;&gt;Node8 -->
<g id="edge48_Node000019_Node000008" class="edge">
<title>Node19&#45;&gt;Node8</title>
<g id="a_edge48_Node000019_Node000008"><a xlink:title=" ">
<path fill="none" stroke="#63b8ff" d="M770.81,-453.04C795.53,-414.02 838.14,-340.89 858,-272 865.46,-246.13 867.11,-214.9 867.3,-195.12"/>
<polygon fill="#63b8ff" stroke="#63b8ff" points="767.67,-451.44 765.23,-461.74 773.57,-455.21 767.67,-451.44"/>
</a>
</g>
</g>
<!-- Node19&#45;&gt;Node9 -->
<g id="edge49_Node000019_Node000009" class="edge">
<title>Node19&#45;&gt;Node9</title>
<g id="a_edge49_Node000019_Node000009"><a xlink:title=" ">
<path fill="none" stroke="#63b8ff" d="M781.07,-454.8C790.93,-445.7 801.98,-435.44 812,-426 867.14,-374.06 867.98,-343.31 935,-308 1004.48,-271.39 1058.45,-332.93 1108,-272 1126.16,-249.68 1108.74,-216.35 1093.87,-195.28"/>
<polygon fill="#63b8ff" stroke="#63b8ff" points="778.45,-452.46 773.47,-461.82 783.19,-457.61 778.45,-452.46"/>
</a>
</g>
</g>
<!-- Node19&#45;&gt;Node13 -->
<g id="edge51_Node000019_Node000013" class="edge">
<title>Node19&#45;&gt;Node13</title>
<g id="a_edge51_Node000019_Node000013"><a xlink:title=" ">
<path fill="none" stroke="#63b8ff" d="M851.74,-459.82C900.79,-449.15 959.45,-436.4 1007.11,-426.04"/>
<polygon fill="#63b8ff" stroke="#63b8ff" points="850.77,-456.45 841.74,-461.99 852.26,-463.29 850.77,-456.45"/>
</a>
</g>
</g>
<!-- Node19&#45;&gt;Node16 -->
<g id="edge50_Node000019_Node000016" class="edge">
<title>Node19&#45;&gt;Node16</title>
<g id="a_edge50_Node000019_Node000016"><a xlink:title=" ">
<path fill="none" stroke="#63b8ff" d="M742.89,-451.95C731.15,-416.23 708.66,-355.05 679,-308 667.58,-289.89 654.61,-292.01 647,-272 637.37,-246.68 643.41,-215.04 649.22,-195.04"/>
<polygon fill="#63b8ff" stroke="#63b8ff" points="739.65,-453.31 746.05,-461.75 746.31,-451.16 739.65,-453.31"/>
</a>
</g>
</g>
<!-- Node19&#45;&gt;Node17 -->
<g id="edge52_Node000019_Node000017" class="edge">
<title>Node19&#45;&gt;Node17</title>
<g id="a_edge52_Node000019_Node000017"><a xlink:title=" ">
<path fill="none" stroke="#63b8ff" d="M752,-451.73C752,-404.23 752,-312.57 752,-272.3"/>
<polygon fill="#63b8ff" stroke="#63b8ff" points="748.5,-451.98 752,-461.98 755.5,-451.98 748.5,-451.98"/>
</a>
</g>
</g>
<!-- Node20 -->
<g id="Node000020" class="node">
<title>Node20</title>
<g id="a_Node000020"><a xlink:href="AccessControl_8h.html" target="_top" xlink:title=" ">
<polygon fill="white" stroke="#666666" points="598.5,-349 405.5,-349 405.5,-308 598.5,-308 598.5,-349"/>
<text text-anchor="start" x="413.5" y="-337" font-family="Helvetica,sans-Serif" font-size="10.00">/home/runner/work/open62541pp</text>
<text text-anchor="start" x="413.5" y="-326" font-family="Helvetica,sans-Serif" font-size="10.00">/open62541pp/include/open62541pp</text>
<text text-anchor="middle" x="502" y="-315" font-family="Helvetica,sans-Serif" font-size="10.00">/AccessControl.h</text>
</a>
</g>
</g>
<!-- Node19&#45;&gt;Node20 -->
<g id="edge43_Node000019_Node000020" class="edge">
<title>Node19&#45;&gt;Node20</title>
<g id="a_edge43_Node000019_Node000020"><a xlink:title=" ">
<path fill="none" stroke="#63b8ff" d="M680.87,-458.37C658.39,-449.7 633.96,-438.79 613,-426 577.03,-404.06 541.32,-370.31 520.47,-349.09"/>
<polygon fill="#63b8ff" stroke="#63b8ff" points="679.77,-461.7 690.37,-461.95 682.24,-455.15 679.77,-461.7"/>
</a>
</g>
</g>
<!-- Node20&#45;&gt;Node2 -->
<g id="edge44_Node000020_Node000002" class="edge">
<title>Node20&#45;&gt;Node2</title>
<g id="a_edge44_Node000020_Node000002"><a xlink:title=" ">
<path fill="none" stroke="#63b8ff" d="M416.96,-304.23C397.75,-296.21 378.48,-285.68 363,-272 287.65,-205.43 245.16,-87.44 230.69,-41.03"/>
<polygon fill="#63b8ff" stroke="#63b8ff" points="415.79,-307.53 426.37,-307.97 418.37,-301.03 415.79,-307.53"/>
</a>
</g>
</g>
<!-- Node21&#45;&gt;Node2 -->
<g id="edge55_Node000021_Node000002" class="edge">
<title>Node21&#45;&gt;Node2</title>
<g id="a_edge55_Node000021_Node000002"><a xlink:title=" ">
<path fill="none" stroke="#63b8ff" d="M415.11,-533.34C402.17,-524.99 389.03,-514.77 379,-503 282.16,-389.39 290.87,-337.06 245,-195 234.17,-161.46 230.43,-152.97 226,-118 222.65,-91.57 223.07,-60.75 223.88,-41.18"/>
<polygon fill="#63b8ff" stroke="#63b8ff" points="413.65,-536.55 424,-538.82 417.33,-530.6 413.65,-536.55"/>
</a>
</g>
</g>
<!-- Node21&#45;&gt;Node4 -->
<g id="edge54_Node000021_Node000004" class="edge">
<title>Node21&#45;&gt;Node4</title>
<g id="a_edge54_Node000021_Node000004"><a xlink:title=" ">
<path fill="none" stroke="#63b8ff" d="M570.62,-552.29C799.43,-536.04 1317,-482.38 1317,-329.5 1317,-329.5 1317,-329.5 1317,-250.5 1317,-183.78 1261.71,-183.78 1202,-154 1157.99,-132.05 1105.09,-118.62 1060.17,-110.48"/>
<polygon fill="#63b8ff" stroke="#63b8ff" points="570.34,-548.8 560.61,-552.99 570.83,-555.78 570.34,-548.8"/>
</a>
</g>
</g>
<!-- Node21&#45;&gt;Node5 -->
<g id="edge56_Node000021_Node000005" class="edge">
<title>Node21&#45;&gt;Node5</title>
<g id="a_edge56_Node000021_Node000005"><a xlink:title=" ">
<path fill="none" stroke="#63b8ff" d="M427.53,-532.46C417.78,-524 408.01,-513.95 401,-503 381.74,-472.92 383.17,-461.34 378,-426 365.46,-340.2 345.88,-308.88 384,-231 390.99,-216.73 403.38,-204.4 415.18,-195.01"/>
<polygon fill="#63b8ff" stroke="#63b8ff" points="425.36,-535.2 435.3,-538.88 429.83,-529.81 425.36,-535.2"/>
</a>
</g>
</g>
<!-- Node21&#45;&gt;Node12 -->
<g id="edge57_Node000021_Node000012" class="edge">
<title>Node21&#45;&gt;Node12</title>
<g id="a_edge57_Node000021_Node000012"><a xlink:title=" ">
<path fill="none" stroke="#63b8ff" d="M385.85,-536.21C348.9,-525.68 305.17,-513.21 269.53,-503.04"/>
<polygon fill="#63b8ff" stroke="#63b8ff" points="385.01,-539.61 395.59,-538.99 386.93,-532.88 385.01,-539.61"/>
</a>
</g>
</g>
<!-- Node21&#45;&gt;Node13 -->
<g id="edge58_Node000021_Node000013" class="edge">
<title>Node21&#45;&gt;Node13</title>
<g id="a_edge58_Node000021_Node000013"><a xlink:title=" ">
<path fill="none" stroke="#63b8ff" d="M570.95,-550.53C651,-542.87 762.66,-528.55 858,-503 930.4,-483.6 1010.37,-448.27 1057.02,-426.17"/>
<polygon fill="#63b8ff" stroke="#63b8ff" points="570.48,-547.06 560.85,-551.48 571.13,-554.03 570.48,-547.06"/>
</a>
</g>
</g>
<!-- Node21&#45;&gt;Node18 -->
<g id="edge59_Node000021_Node000018" class="edge">
<title>Node21&#45;&gt;Node18</title>
<g id="a_edge59_Node000021_Node000018"><a xlink:title=" ">
<path fill="none" stroke="#63b8ff" d="M443.23,-530.43C410.1,-481.91 353.26,-380.6 397,-308 406.63,-292.02 422.57,-280.4 439.16,-272.06"/>
<polygon fill="#63b8ff" stroke="#63b8ff" points="440.52,-532.66 449.11,-538.85 446.26,-528.65 440.52,-532.66"/>
</a>
</g>
</g>
<!-- Node21&#45;&gt;Node19 -->
<g id="edge60_Node000021_Node000019" class="edge">
<title>Node21&#45;&gt;Node19</title>
<g id="a_edge60_Node000021_Node000019"><a xlink:title=" ">
<path fill="none" stroke="#63b8ff" d="M548.8,-536.42C589.43,-525.84 637.68,-513.27 676.96,-503.04"/>
<polygon fill="#63b8ff" stroke="#63b8ff" points="547.71,-533.08 538.92,-538.99 549.48,-539.86 547.71,-533.08"/>
</a>
</g>
</g>
</g>
</svg>
