<?xml version="1.0" encoding="UTF-8" standalone="no"?>
<!DOCTYPE svg PUBLIC "-//W3C//DTD SVG 1.1//EN"
 "http://www.w3.org/Graphics/SVG/1.1/DTD/svg11.dtd">
<!-- Generated by graphviz version 2.43.0 (0)
 -->
<!-- Title: /home/runner/work/open62541pp/open62541pp/include/open62541pp/TypeWrapper.h Pages: 1 -->
<svg width="1179pt" height="291pt"
 viewBox="0.00 0.00 1178.50 291.00" xmlns="http://www.w3.org/2000/svg" xmlns:xlink="http://www.w3.org/1999/xlink">
<g id="graph0" class="graph" transform="scale(1 1) rotate(0) translate(4 287)">
<title>/home/runner/work/open62541pp/open62541pp/include/open62541pp/TypeWrapper.h</title>
<!-- Node1 -->
<g id="Node000001" class="node">
<title>Node1</title>
<g id="a_Node000001"><a xlink:title=" ">
<polygon fill="#999999" stroke="#666666" points="501.5,-283 308.5,-283 308.5,-242 501.5,-242 501.5,-283"/>
<text text-anchor="start" x="316.5" y="-271" font-family="Helvetica,sans-Serif" font-size="10.00">/home/runner/work/open62541pp</text>
<text text-anchor="start" x="316.5" y="-260" font-family="Helvetica,sans-Serif" font-size="10.00">/open62541pp/include/open62541pp</text>
<text text-anchor="middle" x="405" y="-249" font-family="Helvetica,sans-Serif" font-size="10.00">/TypeWrapper.h</text>
</a>
</g>
</g>
<!-- Node2 -->
<g id="Node000002" class="node">
<title>Node2</title>
<g id="a_Node000002"><a xlink:title=" ">
<polygon fill="#e0e0e0" stroke="#999999" points="480,-134.5 428,-134.5 428,-115.5 480,-115.5 480,-134.5"/>
<text text-anchor="middle" x="454" y="-122.5" font-family="Helvetica,sans-Serif" font-size="10.00">cassert</text>
</a>
</g>
</g>
<!-- Node1&#45;&gt;Node2 -->
<g id="edge1_Node000001_Node000002" class="edge">
<title>Node1&#45;&gt;Node2</title>
<g id="a_edge1_Node000001_Node000002"><a xlink:title=" ">
<path fill="none" stroke="#63b8ff" d="M412.13,-241.8C421.6,-215.59 438.22,-169.63 447.42,-144.21"/>
<polygon fill="#63b8ff" stroke="#63b8ff" points="450.75,-145.28 450.86,-134.69 444.17,-142.9 450.75,-145.28"/>
</a>
</g>
</g>
<!-- Node3 -->
<g id="Node000003" class="node">
<title>Node3</title>
<g id="a_Node000003"><a xlink:title=" ">
<polygon fill="#e0e0e0" stroke="#999999" points="191,-74 141,-74 141,-55 191,-55 191,-74"/>
<text text-anchor="middle" x="166" y="-62" font-family="Helvetica,sans-Serif" font-size="10.00">cstdint</text>
</a>
</g>
</g>
<!-- Node1&#45;&gt;Node3 -->
<g id="edge2_Node000001_Node000003" class="edge">
<title>Node1&#45;&gt;Node3</title>
<g id="a_edge2_Node000001_Node000003"><a xlink:title=" ">
<path fill="none" stroke="#63b8ff" d="M308.45,-254.94C237.9,-247.9 150.73,-233.74 128,-206 97.94,-169.32 132.38,-110.9 152.9,-82.34"/>
<polygon fill="#63b8ff" stroke="#63b8ff" points="155.82,-84.29 158.98,-74.18 150.2,-80.11 155.82,-84.29"/>
</a>
</g>
</g>
<!-- Node4 -->
<g id="Node000004" class="node">
<title>Node4</title>
<g id="a_Node000004"><a xlink:title=" ">
<polygon fill="#e0e0e0" stroke="#999999" points="881.5,-74 812.5,-74 812.5,-55 881.5,-55 881.5,-74"/>
<text text-anchor="middle" x="847" y="-62" font-family="Helvetica,sans-Serif" font-size="10.00">type_traits</text>
</a>
</g>
</g>
<!-- Node1&#45;&gt;Node4 -->
<g id="edge3_Node000001_Node000004" class="edge">
<title>Node1&#45;&gt;Node4</title>
<g id="a_edge3_Node000001_Node000004"><a xlink:title=" ">
<path fill="none" stroke="#63b8ff" d="M501.53,-252.47C633.52,-237.87 859.54,-204.02 908,-140 916.05,-129.37 914.04,-121.89 908,-110 901.23,-96.68 888.4,-86.41 876.25,-79.1"/>
<polygon fill="#63b8ff" stroke="#63b8ff" points="877.64,-75.87 867.2,-74.09 874.25,-81.99 877.64,-75.87"/>
</a>
</g>
</g>
<!-- Node5 -->
<g id="Node000005" class="node">
<title>Node5</title>
<g id="a_Node000005"><a xlink:title=" ">
<polygon fill="#e0e0e0" stroke="#999999" points="376.5,-200.5 331.5,-200.5 331.5,-181.5 376.5,-181.5 376.5,-200.5"/>
<text text-anchor="middle" x="354" y="-188.5" font-family="Helvetica,sans-Serif" font-size="10.00">utility</text>
</a>
</g>
</g>
<!-- Node1&#45;&gt;Node5 -->
<g id="edge4_Node000001_Node000005" class="edge">
<title>Node1&#45;&gt;Node5</title>
<g id="a_edge4_Node000001_Node000005"><a xlink:title=" ">
<path fill="none" stroke="#63b8ff" d="M390.52,-241.77C382.95,-231.45 373.76,-218.93 366.5,-209.04"/>
<polygon fill="#63b8ff" stroke="#63b8ff" points="369.21,-206.81 360.47,-200.82 363.57,-210.95 369.21,-206.81"/>
</a>
</g>
</g>
<!-- Node6 -->
<g id="Node000006" class="node">
<title>Node6</title>
<g id="a_Node000006"><a xlink:href="Common_8h.html" target="_top" xlink:title=" ">
<polygon fill="white" stroke="#666666" points="409.5,-134.5 270.5,-134.5 270.5,-115.5 409.5,-115.5 409.5,-134.5"/>
<text text-anchor="middle" x="340" y="-122.5" font-family="Helvetica,sans-Serif" font-size="10.00">open62541pp/Common.h</text>
</a>
</g>
</g>
<!-- Node1&#45;&gt;Node6 -->
<g id="edge5_Node000001_Node000006" class="edge">
<title>Node1&#45;&gt;Node6</title>
<g id="a_edge5_Node000001_Node000006"><a xlink:title=" ">
<path fill="none" stroke="#63b8ff" d="M403.23,-241.86C400.96,-223.87 395.94,-196.94 385,-176 378.24,-163.06 367.35,-150.84 357.98,-141.71"/>
<polygon fill="#63b8ff" stroke="#63b8ff" points="360.29,-139.08 350.59,-134.83 355.52,-144.21 360.29,-139.08"/>
</a>
</g>
</g>
<!-- Node7 -->
<g id="Node000007" class="node">
<title>Node7</title>
<g id="a_Node000007"><a xlink:href="open62541_8h.html" target="_top" xlink:title=" ">
<polygon fill="white" stroke="#666666" points="414.5,-74 265.5,-74 265.5,-55 414.5,-55 414.5,-74"/>
<text text-anchor="middle" x="340" y="-62" font-family="Helvetica,sans-Serif" font-size="10.00">open62541pp/open62541.h</text>
</a>
</g>
</g>
<!-- Node1&#45;&gt;Node7 -->
<g id="edge31_Node000001_Node000007" class="edge">
<title>Node1&#45;&gt;Node7</title>
<g id="a_edge31_Node000001_Node000007"><a xlink:title=" ">
<path fill="none" stroke="#63b8ff" d="M364.42,-241.93C328.68,-222.02 279.54,-187.37 261,-140 256.14,-127.58 254.27,-121.51 261,-110 269.68,-95.14 285.35,-84.86 300.46,-77.95"/>
<polygon fill="#63b8ff" stroke="#63b8ff" points="301.85,-81.17 309.73,-74.08 299.15,-74.71 301.85,-81.17"/>
</a>
</g>
</g>
<!-- Node13 -->
<g id="Node000013" class="node">
<title>Node13</title>
<g id="a_Node000013"><a xlink:href="ErrorHandling_8h.html" target="_top" xlink:title=" ">
<polygon fill="white" stroke="#666666" points="1154.5,-134.5 993.5,-134.5 993.5,-115.5 1154.5,-115.5 1154.5,-134.5"/>
<text text-anchor="middle" x="1074" y="-122.5" font-family="Helvetica,sans-Serif" font-size="10.00">open62541pp/ErrorHandling.h</text>
</a>
</g>
</g>
<!-- Node1&#45;&gt;Node13 -->
<g id="edge14_Node000001_Node000013" class="edge">
<title>Node1&#45;&gt;Node13</title>
<g id="a_edge14_Node000001_Node000013"><a xlink:title=" ">
<path fill="none" stroke="#63b8ff" d="M501.55,-259.07C642.08,-254.38 895.31,-241.2 979,-206 1012.76,-191.8 1043.55,-161.22 1060.44,-142.25"/>
<polygon fill="#63b8ff" stroke="#63b8ff" points="1063.09,-144.54 1066.99,-134.69 1057.8,-139.95 1063.09,-144.54"/>
</a>
</g>
</g>
<!-- Node17 -->
<g id="Node000017" class="node">
<title>Node17</title>
<g id="a_Node000017"><a xlink:href="helper_8h.html" target="_top" xlink:title=" ">
<polygon fill="white" stroke="#666666" points="664.5,-206 551.5,-206 551.5,-176 664.5,-176 664.5,-206"/>
<text text-anchor="start" x="559.5" y="-194" font-family="Helvetica,sans-Serif" font-size="10.00">open62541pp/detail</text>
<text text-anchor="middle" x="608" y="-183" font-family="Helvetica,sans-Serif" font-size="10.00">/helper.h</text>
</a>
</g>
</g>
<!-- Node1&#45;&gt;Node17 -->
<g id="edge20_Node000001_Node000017" class="edge">
<title>Node1&#45;&gt;Node17</title>
<g id="a_edge20_Node000001_Node000017"><a xlink:title=" ">
<path fill="none" stroke="#63b8ff" d="M462.09,-241.96C492.11,-231.68 528.6,-219.18 557.58,-209.26"/>
<polygon fill="#63b8ff" stroke="#63b8ff" points="558.77,-212.55 567.1,-206 556.5,-205.93 558.77,-212.55"/>
</a>
</g>
</g>
<!-- Node22 -->
<g id="Node000022" class="node">
<title>Node22</title>
<g id="a_Node000022"><a xlink:href="comparison_8h.html" target="_top" xlink:title=" ">
<polygon fill="white" stroke="#666666" points="271,-206 137,-206 137,-176 271,-176 271,-206"/>
<text text-anchor="start" x="145" y="-194" font-family="Helvetica,sans-Serif" font-size="10.00">open62541pp/overloads</text>
<text text-anchor="middle" x="204" y="-183" font-family="Helvetica,sans-Serif" font-size="10.00">/comparison.h</text>
</a>
</g>
</g>
<!-- Node1&#45;&gt;Node22 -->
<g id="edge32_Node000001_Node000022" class="edge">
<title>Node1&#45;&gt;Node22</title>
<g id="a_edge32_Node000001_Node000022"><a xlink:title=" ">
<path fill="none" stroke="#63b8ff" d="M348.48,-241.96C318.87,-231.72 282.93,-219.29 254.3,-209.39"/>
<polygon fill="#63b8ff" stroke="#63b8ff" points="255.1,-205.96 244.5,-206 252.81,-212.58 255.1,-205.96"/>
</a>
</g>
</g>
<!-- Node6&#45;&gt;Node3 -->
<g id="edge6_Node000006_Node000003" class="edge">
<title>Node6&#45;&gt;Node3</title>
<g id="a_edge6_Node000006_Node000003"><a xlink:title=" ">
<path fill="none" stroke="#63b8ff" d="M314.7,-115.49C284.72,-105.41 234.59,-88.56 200.93,-77.24"/>
<polygon fill="#63b8ff" stroke="#63b8ff" points="201.64,-73.79 191.05,-73.92 199.41,-80.43 201.64,-73.79"/>
</a>
</g>
</g>
<!-- Node6&#45;&gt;Node4 -->
<g id="edge7_Node000006_Node000004" class="edge">
<title>Node6&#45;&gt;Node4</title>
<g id="a_edge7_Node000006_Node000004"><a xlink:title=" ">
<path fill="none" stroke="#63b8ff" d="M385.03,-115.44C396.11,-113.5 407.97,-111.55 419,-110 558.3,-90.44 724.23,-75.58 802.26,-69.09"/>
<polygon fill="#63b8ff" stroke="#63b8ff" points="802.55,-72.58 812.22,-68.26 801.97,-65.6 802.55,-72.58"/>
</a>
</g>
</g>
<!-- Node6&#45;&gt;Node7 -->
<g id="edge8_Node000006_Node000007" class="edge">
<title>Node6&#45;&gt;Node7</title>
<g id="a_edge8_Node000006_Node000007"><a xlink:title=" ">
<path fill="none" stroke="#63b8ff" d="M340,-115.37C340,-107.25 340,-94.81 340,-84.39"/>
<polygon fill="#63b8ff" stroke="#63b8ff" points="343.5,-84.17 340,-74.17 336.5,-84.17 343.5,-84.17"/>
</a>
</g>
</g>
<!-- Node8 -->
<g id="Node000008" class="node">
<title>Node8</title>
<g id="a_Node000008"><a target="_blank" xlink:href="open62541/config_8h.html" xlink:title=" ">
<polygon fill="white" stroke="#666666" points="112,-19 0,-19 0,0 112,0 112,-19"/>
<text text-anchor="middle" x="56" y="-7" font-family="Helvetica,sans-Serif" font-size="10.00">open62541/config.h</text>
</a>
</g>
</g>
<!-- Node7&#45;&gt;Node8 -->
<g id="edge9_Node000007_Node000008" class="edge">
<title>Node7&#45;&gt;Node8</title>
<g id="a_edge9_Node000007_Node000008"><a xlink:title=" ">
<path fill="none" stroke="#63b8ff" d="M294.37,-54.98C244.73,-45.72 165.34,-30.9 111.97,-20.94"/>
<polygon fill="#63b8ff" stroke="#63b8ff" points="112.46,-17.48 101.99,-19.08 111.18,-24.36 112.46,-17.48"/>
</a>
</g>
</g>
<!-- Node9 -->
<g id="Node000009" class="node">
<title>Node9</title>
<g id="a_Node000009"><a target="_blank" xlink:href="open62541/nodeids_8h.html" xlink:title=" ">
<polygon fill="white" stroke="#666666" points="251.5,-19 130.5,-19 130.5,0 251.5,0 251.5,-19"/>
<text text-anchor="middle" x="191" y="-7" font-family="Helvetica,sans-Serif" font-size="10.00">open62541/nodeids.h</text>
</a>
</g>
</g>
<!-- Node7&#45;&gt;Node9 -->
<g id="edge10_Node000007_Node000009" class="edge">
<title>Node7&#45;&gt;Node9</title>
<g id="a_edge10_Node000007_Node000009"><a xlink:title=" ">
<path fill="none" stroke="#63b8ff" d="M316.06,-54.98C291.44,-46.23 252.88,-32.51 225.08,-22.62"/>
<polygon fill="#63b8ff" stroke="#63b8ff" points="225.97,-19.22 215.38,-19.17 223.62,-25.82 225.97,-19.22"/>
</a>
</g>
</g>
<!-- Node10 -->
<g id="Node000010" class="node">
<title>Node10</title>
<g id="a_Node000010"><a target="_blank" xlink:href="open62541/statuscodes_8h.html" xlink:title=" ">
<polygon fill="white" stroke="#666666" points="410.5,-19 269.5,-19 269.5,0 410.5,0 410.5,-19"/>
<text text-anchor="middle" x="340" y="-7" font-family="Helvetica,sans-Serif" font-size="10.00">open62541/statuscodes.h</text>
</a>
</g>
</g>
<!-- Node7&#45;&gt;Node10 -->
<g id="edge11_Node000007_Node000010" class="edge">
<title>Node7&#45;&gt;Node10</title>
<g id="a_edge11_Node000007_Node000010"><a xlink:title=" ">
<path fill="none" stroke="#63b8ff" d="M340,-54.75C340,-47.8 340,-37.85 340,-29.13"/>
<polygon fill="#63b8ff" stroke="#63b8ff" points="343.5,-29.09 340,-19.09 336.5,-29.09 343.5,-29.09"/>
</a>
</g>
</g>
<!-- Node11 -->
<g id="Node000011" class="node">
<title>Node11</title>
<g id="a_Node000011"><a target="_blank" xlink:href="open62541/types_8h.html" xlink:title=" ">
<polygon fill="white" stroke="#666666" points="539,-19 429,-19 429,0 539,0 539,-19"/>
<text text-anchor="middle" x="484" y="-7" font-family="Helvetica,sans-Serif" font-size="10.00">open62541/types.h</text>
</a>
</g>
</g>
<!-- Node7&#45;&gt;Node11 -->
<g id="edge12_Node000007_Node000011" class="edge">
<title>Node7&#45;&gt;Node11</title>
<g id="a_edge12_Node000007_Node000011"><a xlink:title=" ">
<path fill="none" stroke="#63b8ff" d="M363.14,-54.98C386.82,-46.27 423.87,-32.63 450.71,-22.75"/>
<polygon fill="#63b8ff" stroke="#63b8ff" points="452.27,-25.91 460.44,-19.17 449.85,-19.34 452.27,-25.91"/>
</a>
</g>
</g>
<!-- Node12 -->
<g id="Node000012" class="node">
<title>Node12</title>
<g id="a_Node000012"><a target="_blank" xlink:href="open62541/types__generated_8h.html" xlink:title=" ">
<polygon fill="white" stroke="#666666" points="721,-19 557,-19 557,0 721,0 721,-19"/>
<text text-anchor="middle" x="639" y="-7" font-family="Helvetica,sans-Serif" font-size="10.00">open62541/types_generated.h</text>
</a>
</g>
</g>
<!-- Node7&#45;&gt;Node12 -->
<g id="edge13_Node000007_Node000012" class="edge">
<title>Node7&#45;&gt;Node12</title>
<g id="a_edge13_Node000007_Node000012"><a xlink:title=" ">
<path fill="none" stroke="#63b8ff" d="M388.04,-54.98C440.41,-45.7 524.24,-30.84 580.43,-20.88"/>
<polygon fill="#63b8ff" stroke="#63b8ff" points="581.35,-24.27 590.58,-19.08 580.13,-17.38 581.35,-24.27"/>
</a>
</g>
</g>
<!-- Node13&#45;&gt;Node4 -->
<g id="edge18_Node000013_Node000004" class="edge">
<title>Node13&#45;&gt;Node4</title>
<g id="a_edge18_Node000013_Node000004"><a xlink:title=" ">
<path fill="none" stroke="#63b8ff" d="M1040.99,-115.49C1001.06,-105.2 933.76,-87.86 889.86,-76.54"/>
<polygon fill="#63b8ff" stroke="#63b8ff" points="890.6,-73.12 880.05,-74.02 888.86,-79.9 890.6,-73.12"/>
</a>
</g>
</g>
<!-- Node13&#45;&gt;Node7 -->
<g id="edge19_Node000013_Node000007" class="edge">
<title>Node13&#45;&gt;Node7</title>
<g id="a_edge19_Node000013_Node000007"><a xlink:title=" ">
<path fill="none" stroke="#63b8ff" d="M993.38,-117.1C966.25,-114.81 935.82,-112.26 908,-110 736.63,-96.06 536.11,-80.53 425.03,-72"/>
<polygon fill="#63b8ff" stroke="#63b8ff" points="425.13,-68.5 414.9,-71.23 424.6,-75.48 425.13,-68.5"/>
</a>
</g>
</g>
<!-- Node14 -->
<g id="Node000014" class="node">
<title>Node14</title>
<g id="a_Node000014"><a xlink:title=" ">
<polygon fill="#e0e0e0" stroke="#999999" points="1087.5,-74 1022.5,-74 1022.5,-55 1087.5,-55 1087.5,-74"/>
<text text-anchor="middle" x="1055" y="-62" font-family="Helvetica,sans-Serif" font-size="10.00">functional</text>
</a>
</g>
</g>
<!-- Node13&#45;&gt;Node14 -->
<g id="edge15_Node000013_Node000014" class="edge">
<title>Node13&#45;&gt;Node14</title>
<g id="a_edge15_Node000013_Node000014"><a xlink:title=" ">
<path fill="none" stroke="#63b8ff" d="M1071.2,-115.37C1068.5,-107.07 1064.35,-94.28 1060.92,-83.72"/>
<polygon fill="#63b8ff" stroke="#63b8ff" points="1064.23,-82.6 1057.82,-74.17 1057.58,-84.76 1064.23,-82.6"/>
</a>
</g>
</g>
<!-- Node15 -->
<g id="Node000015" class="node">
<title>Node15</title>
<g id="a_Node000015"><a xlink:title=" ">
<polygon fill="#e0e0e0" stroke="#999999" points="1170.5,-74 1105.5,-74 1105.5,-55 1170.5,-55 1170.5,-74"/>
<text text-anchor="middle" x="1138" y="-62" font-family="Helvetica,sans-Serif" font-size="10.00">stdexcept</text>
</a>
</g>
</g>
<!-- Node13&#45;&gt;Node15 -->
<g id="edge16_Node000013_Node000015" class="edge">
<title>Node13&#45;&gt;Node15</title>
<g id="a_edge16_Node000013_Node000015"><a xlink:title=" ">
<path fill="none" stroke="#63b8ff" d="M1083.44,-115.37C1093.27,-106.38 1108.89,-92.11 1120.89,-81.14"/>
<polygon fill="#63b8ff" stroke="#63b8ff" points="1123.5,-83.5 1128.52,-74.17 1118.78,-78.33 1123.5,-83.5"/>
</a>
</g>
</g>
<!-- Node16 -->
<g id="Node000016" class="node">
<title>Node16</title>
<g id="a_Node000016"><a xlink:title=" ">
<polygon fill="#e0e0e0" stroke="#999999" points="967,-74 923,-74 923,-55 967,-55 967,-74"/>
<text text-anchor="middle" x="945" y="-62" font-family="Helvetica,sans-Serif" font-size="10.00">string</text>
</a>
</g>
</g>
<!-- Node13&#45;&gt;Node16 -->
<g id="edge17_Node000013_Node000016" class="edge">
<title>Node13&#45;&gt;Node16</title>
<g id="a_edge17_Node000013_Node000016"><a xlink:title=" ">
<path fill="none" stroke="#63b8ff" d="M1055.24,-115.49C1033.65,-105.7 997.97,-89.52 973.07,-78.23"/>
<polygon fill="#63b8ff" stroke="#63b8ff" points="974.33,-74.96 963.78,-74.02 971.44,-81.33 974.33,-74.96"/>
</a>
</g>
</g>
<!-- Node17&#45;&gt;Node2 -->
<g id="edge22_Node000017_Node000002" class="edge">
<title>Node17&#45;&gt;Node2</title>
<g id="a_edge22_Node000017_Node000002"><a xlink:title=" ">
<path fill="none" stroke="#63b8ff" d="M574.2,-175.95C547.2,-164.73 509.7,-149.15 483.81,-138.39"/>
<polygon fill="#63b8ff" stroke="#63b8ff" points="485.07,-135.12 474.49,-134.52 482.39,-141.59 485.07,-135.12"/>
</a>
</g>
</g>
<!-- Node17&#45;&gt;Node6 -->
<g id="edge26_Node000017_Node000006" class="edge">
<title>Node17&#45;&gt;Node6</title>
<g id="a_edge26_Node000017_Node000006"><a xlink:title=" ">
<path fill="none" stroke="#63b8ff" d="M551.49,-176.51C502.23,-164.74 431.69,-147.9 385.87,-136.95"/>
<polygon fill="#63b8ff" stroke="#63b8ff" points="386.45,-133.49 375.91,-134.58 384.83,-140.3 386.45,-133.49"/>
</a>
</g>
</g>
<!-- Node17&#45;&gt;Node7 -->
<g id="edge30_Node000017_Node000007" class="edge">
<title>Node17&#45;&gt;Node7</title>
<g id="a_edge30_Node000017_Node000007"><a xlink:title=" ">
<path fill="none" stroke="#63b8ff" d="M583.43,-175.84C567.12,-166.19 545.41,-152.89 527,-140 509.37,-127.66 508.09,-119.92 489,-110 459.21,-94.52 423.21,-83.58 394.06,-76.42"/>
<polygon fill="#63b8ff" stroke="#63b8ff" points="394.59,-72.95 384.05,-74.05 392.98,-79.76 394.59,-72.95"/>
</a>
</g>
</g>
<!-- Node17&#45;&gt;Node13 -->
<g id="edge27_Node000017_Node000013" class="edge">
<title>Node17&#45;&gt;Node13</title>
<g id="a_edge27_Node000017_Node000013"><a xlink:title=" ">
<path fill="none" stroke="#63b8ff" d="M664.67,-182.22C749.31,-170.59 908.69,-148.7 1001.63,-135.94"/>
<polygon fill="#63b8ff" stroke="#63b8ff" points="1002.37,-139.37 1011.8,-134.54 1001.41,-132.44 1002.37,-139.37"/>
</a>
</g>
</g>
<!-- Node17&#45;&gt;Node16 -->
<g id="edge24_Node000017_Node000016" class="edge">
<title>Node17&#45;&gt;Node16</title>
<g id="a_edge24_Node000017_Node000016"><a xlink:title=" ">
<path fill="none" stroke="#63b8ff" d="M664.7,-186.65C740.68,-181.14 870.34,-167.89 908,-140 926.28,-126.46 936.07,-101.38 940.9,-84.09"/>
<polygon fill="#63b8ff" stroke="#63b8ff" points="944.38,-84.6 943.4,-74.05 937.59,-82.91 944.38,-84.6"/>
</a>
</g>
</g>
<!-- Node18 -->
<g id="Node000018" class="node">
<title>Node18</title>
<g id="a_Node000018"><a xlink:title=" ">
<polygon fill="#e0e0e0" stroke="#999999" points="600,-134.5 536,-134.5 536,-115.5 600,-115.5 600,-134.5"/>
<text text-anchor="middle" x="568" y="-122.5" font-family="Helvetica,sans-Serif" font-size="10.00">algorithm</text>
</a>
</g>
</g>
<!-- Node17&#45;&gt;Node18 -->
<g id="edge21_Node000017_Node000018" class="edge">
<title>Node17&#45;&gt;Node18</title>
<g id="a_edge21_Node000017_Node000018"><a xlink:title=" ">
<path fill="none" stroke="#63b8ff" d="M599.12,-175.8C593.19,-166.31 585.35,-153.76 579.02,-143.63"/>
<polygon fill="#63b8ff" stroke="#63b8ff" points="581.8,-141.47 573.53,-134.84 575.86,-145.18 581.8,-141.47"/>
</a>
</g>
</g>
<!-- Node19 -->
<g id="Node000019" class="node">
<title>Node19</title>
<g id="a_Node000019"><a xlink:title=" ">
<polygon fill="#e0e0e0" stroke="#999999" points="676,-134.5 618,-134.5 618,-115.5 676,-115.5 676,-134.5"/>
<text text-anchor="middle" x="647" y="-122.5" font-family="Helvetica,sans-Serif" font-size="10.00">memory</text>
</a>
</g>
</g>
<!-- Node17&#45;&gt;Node19 -->
<g id="edge23_Node000017_Node000019" class="edge">
<title>Node17&#45;&gt;Node19</title>
<g id="a_edge23_Node000017_Node000019"><a xlink:title=" ">
<path fill="none" stroke="#63b8ff" d="M616.66,-175.8C622.44,-166.31 630.08,-153.76 636.26,-143.63"/>
<polygon fill="#63b8ff" stroke="#63b8ff" points="639.4,-145.21 641.61,-134.84 633.42,-141.56 639.4,-145.21"/>
</a>
</g>
</g>
<!-- Node20 -->
<g id="Node000020" class="node">
<title>Node20</title>
<g id="a_Node000020"><a xlink:title=" ">
<polygon fill="#e0e0e0" stroke="#999999" points="767.5,-134.5 694.5,-134.5 694.5,-115.5 767.5,-115.5 767.5,-134.5"/>
<text text-anchor="middle" x="731" y="-122.5" font-family="Helvetica,sans-Serif" font-size="10.00">string_view</text>
</a>
</g>
</g>
<!-- Node17&#45;&gt;Node20 -->
<g id="edge25_Node000017_Node000020" class="edge">
<title>Node17&#45;&gt;Node20</title>
<g id="a_edge25_Node000017_Node000020"><a xlink:title=" ">
<path fill="none" stroke="#63b8ff" d="M634.99,-175.95C655.99,-165.03 684.93,-149.97 705.53,-139.25"/>
<polygon fill="#63b8ff" stroke="#63b8ff" points="707.38,-142.24 714.63,-134.52 704.14,-136.03 707.38,-142.24"/>
</a>
</g>
</g>
<!-- Node21 -->
<g id="Node000021" class="node">
<title>Node21</title>
<g id="a_Node000021"><a xlink:href="traits_8h.html" target="_top" xlink:title=" ">
<polygon fill="white" stroke="#666666" points="898.5,-140 785.5,-140 785.5,-110 898.5,-110 898.5,-140"/>
<text text-anchor="start" x="793.5" y="-128" font-family="Helvetica,sans-Serif" font-size="10.00">open62541pp/detail</text>
<text text-anchor="middle" x="842" y="-117" font-family="Helvetica,sans-Serif" font-size="10.00">/traits.h</text>
</a>
</g>
</g>
<!-- Node17&#45;&gt;Node21 -->
<g id="edge28_Node000017_Node000021" class="edge">
<title>Node17&#45;&gt;Node21</title>
<g id="a_edge28_Node000017_Node000021"><a xlink:title=" ">
<path fill="none" stroke="#63b8ff" d="M659.35,-175.95C695.17,-166.16 743.12,-153.05 780.9,-142.71"/>
<polygon fill="#63b8ff" stroke="#63b8ff" points="782.05,-146.03 790.77,-140.01 780.2,-139.27 782.05,-146.03"/>
</a>
</g>
</g>
<!-- Node21&#45;&gt;Node4 -->
<g id="edge29_Node000021_Node000004" class="edge">
<title>Node21&#45;&gt;Node4</title>
<g id="a_edge29_Node000021_Node000004"><a xlink:title=" ">
<path fill="none" stroke="#63b8ff" d="M843.21,-109.84C843.86,-102.21 844.67,-92.7 845.38,-84.45"/>
<polygon fill="#63b8ff" stroke="#63b8ff" points="848.89,-84.53 846.25,-74.27 841.91,-83.93 848.89,-84.53"/>
</a>
</g>
</g>
<!-- Node22&#45;&gt;Node7 -->
<g id="edge33_Node000022_Node000007" class="edge">
<title>Node22&#45;&gt;Node7</title>
<g id="a_edge33_Node000022_Node000007"><a xlink:title=" ">
<path fill="none" stroke="#63b8ff" d="M204.61,-175.75C206.11,-158.18 211.15,-128.38 228,-110 242.7,-93.96 263.94,-83.61 283.98,-76.97"/>
<polygon fill="#63b8ff" stroke="#63b8ff" points="285.15,-80.28 293.68,-74 283.1,-73.58 285.15,-80.28"/>
</a>
</g>
</g>
</g>
</svg>
