<?xml version="1.0" encoding="UTF-8" standalone="no"?>
<!DOCTYPE svg PUBLIC "-//W3C//DTD SVG 1.1//EN"
 "http://www.w3.org/Graphics/SVG/1.1/DTD/svg11.dtd">
<!-- Generated by graphviz version 2.43.0 (0)
 -->
<!-- Title: /home/runner/work/open62541pp/open62541pp/include/open62541pp/TypeRegistry.h Pages: 1 -->
<svg width="1539pt" height="489pt"
 viewBox="0.00 0.00 1539.21 489.00" xmlns="http://www.w3.org/2000/svg" xmlns:xlink="http://www.w3.org/1999/xlink">
<g id="graph0" class="graph" transform="scale(1 1) rotate(0) translate(4 485)">
<title>/home/runner/work/open62541pp/open62541pp/include/open62541pp/TypeRegistry.h</title>
<!-- Node1 -->
<g id="Node000001" class="node">
<title>Node1</title>
<g id="a_Node000001"><a xlink:title=" ">
<polygon fill="#999999" stroke="#666666" points="844.03,-481 651.03,-481 651.03,-440 844.03,-440 844.03,-481"/>
<text text-anchor="start" x="659.03" y="-469" font-family="Helvetica,sans-Serif" font-size="10.00">/home/runner/work/open62541pp</text>
<text text-anchor="start" x="659.03" y="-458" font-family="Helvetica,sans-Serif" font-size="10.00">/open62541pp/include/open62541pp</text>
<text text-anchor="middle" x="747.53" y="-447" font-family="Helvetica,sans-Serif" font-size="10.00">/TypeRegistry.h</text>
</a>
</g>
</g>
<!-- Node2 -->
<g id="Node000002" class="node">
<title>Node2</title>
<g id="a_Node000002"><a xlink:title=" ">
<polygon fill="#e0e0e0" stroke="#999999" points="129.03,-200.5 60.03,-200.5 60.03,-181.5 129.03,-181.5 129.03,-200.5"/>
<text text-anchor="middle" x="94.53" y="-188.5" font-family="Helvetica,sans-Serif" font-size="10.00">type_traits</text>
</a>
</g>
</g>
<!-- Node1&#45;&gt;Node2 -->
<g id="edge1_Node000001_Node000002" class="edge">
<title>Node1&#45;&gt;Node2</title>
<g id="a_edge1_Node000001_Node000002"><a xlink:title=" ">
<path fill="none" stroke="#63b8ff" d="M650.77,-453.25C481.32,-440.62 139.81,-407.18 44.53,-338 7.79,-311.32 -13.01,-281.42 9.53,-242 19.65,-224.32 38.72,-212.27 56.24,-204.44"/>
<polygon fill="#63b8ff" stroke="#63b8ff" points="57.84,-207.57 65.74,-200.52 55.16,-201.1 57.84,-207.57"/>
</a>
</g>
</g>
<!-- Node3 -->
<g id="Node000003" class="node">
<title>Node3</title>
<g id="a_Node000003"><a xlink:href="TypeWrapper_8h.html" target="_top" xlink:title=" ">
<polygon fill="white" stroke="#666666" points="675.53,-398.5 517.53,-398.5 517.53,-379.5 675.53,-379.5 675.53,-398.5"/>
<text text-anchor="middle" x="596.53" y="-386.5" font-family="Helvetica,sans-Serif" font-size="10.00">open62541pp/TypeWrapper.h</text>
</a>
</g>
</g>
<!-- Node1&#45;&gt;Node3 -->
<g id="edge2_Node000001_Node000003" class="edge">
<title>Node1&#45;&gt;Node3</title>
<g id="a_edge2_Node000001_Node000003"><a xlink:title=" ">
<path fill="none" stroke="#63b8ff" d="M705.07,-439.96C679.24,-428.06 646.97,-413.21 624.36,-402.81"/>
<polygon fill="#63b8ff" stroke="#63b8ff" points="625.56,-399.51 615.01,-398.5 622.63,-405.86 625.56,-399.51"/>
</a>
</g>
</g>
<!-- Node12 -->
<g id="Node000012" class="node">
<title>Node12</title>
<g id="a_Node000012"><a xlink:href="common_8h.html" target="_top" xlink:title=" ">
<polygon fill="white" stroke="#666666" points="937.53,-206 809.53,-206 809.53,-176 937.53,-176 937.53,-206"/>
<text text-anchor="start" x="817.53" y="-194" font-family="Helvetica,sans-Serif" font-size="10.00">open62541pp/detail</text>
<text text-anchor="middle" x="873.53" y="-183" font-family="Helvetica,sans-Serif" font-size="10.00">/open62541/common.h</text>
</a>
</g>
</g>
<!-- Node1&#45;&gt;Node12 -->
<g id="edge41_Node000001_Node000012" class="edge">
<title>Node1&#45;&gt;Node12</title>
<g id="a_edge41_Node000001_Node000012"><a xlink:title=" ">
<path fill="none" stroke="#63b8ff" d="M766.59,-439.99C796.3,-408.05 852.44,-341.22 873.53,-272 879.03,-253.97 878.7,-232.58 877.17,-216.46"/>
<polygon fill="#63b8ff" stroke="#63b8ff" points="880.62,-215.77 875.99,-206.24 873.67,-216.58 880.62,-215.77"/>
</a>
</g>
</g>
<!-- Node28 -->
<g id="Node000028" class="node">
<title>Node28</title>
<g id="a_Node000028"><a xlink:href="traits_8h.html" target="_top" xlink:title=" ">
<polygon fill="white" stroke="#666666" points="400.03,-272 287.03,-272 287.03,-242 400.03,-242 400.03,-272"/>
<text text-anchor="start" x="295.03" y="-260" font-family="Helvetica,sans-Serif" font-size="10.00">open62541pp/detail</text>
<text text-anchor="middle" x="343.53" y="-249" font-family="Helvetica,sans-Serif" font-size="10.00">/traits.h</text>
</a>
</g>
</g>
<!-- Node1&#45;&gt;Node28 -->
<g id="edge42_Node000001_Node000028" class="edge">
<title>Node1&#45;&gt;Node28</title>
<g id="a_edge42_Node000001_Node000028"><a xlink:title=" ">
<path fill="none" stroke="#63b8ff" d="M650.79,-451.95C568.36,-440.43 452.31,-411.36 381.53,-338 366.33,-322.24 356.28,-299.25 350.36,-281.96"/>
<polygon fill="#63b8ff" stroke="#63b8ff" points="353.57,-280.5 347.19,-272.04 346.9,-282.63 353.57,-280.5"/>
</a>
</g>
</g>
<!-- Node29 -->
<g id="Node000029" class="node">
<title>Node29</title>
<g id="a_Node000029"><a xlink:href="TypeRegistryNative_8h.html" target="_top" xlink:title=" ">
<polygon fill="white" stroke="#666666" points="1072.03,-404 923.03,-404 923.03,-374 1072.03,-374 1072.03,-404"/>
<text text-anchor="start" x="931.03" y="-392" font-family="Helvetica,sans-Serif" font-size="10.00">open62541pp/TypeRegistry</text>
<text text-anchor="middle" x="997.53" y="-381" font-family="Helvetica,sans-Serif" font-size="10.00">Native.h</text>
</a>
</g>
</g>
<!-- Node1&#45;&gt;Node29 -->
<g id="edge43_Node000001_Node000029" class="edge">
<title>Node1&#45;&gt;Node29</title>
<g id="a_edge43_Node000001_Node000029"><a xlink:title=" ">
<path fill="none" stroke="#63b8ff" d="M811.7,-439.96C848.58,-429.45 894.77,-416.64 931.9,-406.62"/>
<polygon fill="#63b8ff" stroke="#63b8ff" points="932.87,-409.98 941.62,-404 931.05,-403.22 932.87,-409.98"/>
</a>
</g>
</g>
<!-- Node3&#45;&gt;Node2 -->
<g id="edge5_Node000003_Node000002" class="edge">
<title>Node3&#45;&gt;Node2</title>
<g id="a_edge5_Node000003_Node000002"><a xlink:title=" ">
<path fill="none" stroke="#63b8ff" d="M517.27,-383.75C402.72,-376.9 196.9,-361.73 126.53,-338 72.87,-319.9 45.34,-321.34 17.53,-272 10.99,-260.38 11.17,-253.72 17.53,-242 26.75,-225.02 44.5,-212.91 60.64,-204.87"/>
<polygon fill="#63b8ff" stroke="#63b8ff" points="62.27,-207.97 69.88,-200.59 59.33,-201.62 62.27,-207.97"/>
</a>
</g>
</g>
<!-- Node4 -->
<g id="Node000004" class="node">
<title>Node4</title>
<g id="a_Node000004"><a xlink:title=" ">
<polygon fill="#e0e0e0" stroke="#999999" points="845.53,-266.5 793.53,-266.5 793.53,-247.5 845.53,-247.5 845.53,-266.5"/>
<text text-anchor="middle" x="819.53" y="-254.5" font-family="Helvetica,sans-Serif" font-size="10.00">cassert</text>
</a>
</g>
</g>
<!-- Node3&#45;&gt;Node4 -->
<g id="edge3_Node000003_Node000004" class="edge">
<title>Node3&#45;&gt;Node4</title>
<g id="a_edge3_Node000003_Node000004"><a xlink:title=" ">
<path fill="none" stroke="#63b8ff" d="M666.15,-379.43C699.67,-372.56 738.92,-360.19 768.53,-338 789.79,-322.07 804.5,-294.47 812.48,-276.22"/>
<polygon fill="#63b8ff" stroke="#63b8ff" points="815.73,-277.52 816.31,-266.94 809.26,-274.85 815.73,-277.52"/>
</a>
</g>
</g>
<!-- Node5 -->
<g id="Node000005" class="node">
<title>Node5</title>
<g id="a_Node000005"><a xlink:title=" ">
<polygon fill="#e0e0e0" stroke="#999999" points="230.53,-266.5 180.53,-266.5 180.53,-247.5 230.53,-247.5 230.53,-266.5"/>
<text text-anchor="middle" x="205.53" y="-254.5" font-family="Helvetica,sans-Serif" font-size="10.00">cstdint</text>
</a>
</g>
</g>
<!-- Node3&#45;&gt;Node5 -->
<g id="edge4_Node000003_Node000005" class="edge">
<title>Node3&#45;&gt;Node5</title>
<g id="a_edge4_Node000003_Node000005"><a xlink:title=" ">
<path fill="none" stroke="#63b8ff" d="M547.53,-379.45C503.45,-371.09 437.25,-356.87 381.53,-338 314.09,-315.16 300.25,-301.72 235.53,-272 234.71,-271.62 233.88,-271.24 233.03,-270.85"/>
<polygon fill="#63b8ff" stroke="#63b8ff" points="234.47,-267.66 223.92,-266.62 231.52,-274.01 234.47,-267.66"/>
</a>
</g>
</g>
<!-- Node6 -->
<g id="Node000006" class="node">
<title>Node6</title>
<g id="a_Node000006"><a xlink:title=" ">
<polygon fill="#e0e0e0" stroke="#999999" points="759.03,-332.5 714.03,-332.5 714.03,-313.5 759.03,-313.5 759.03,-332.5"/>
<text text-anchor="middle" x="736.53" y="-320.5" font-family="Helvetica,sans-Serif" font-size="10.00">utility</text>
</a>
</g>
</g>
<!-- Node3&#45;&gt;Node6 -->
<g id="edge6_Node000003_Node000006" class="edge">
<title>Node3&#45;&gt;Node6</title>
<g id="a_edge6_Node000003_Node000006"><a xlink:title=" ">
<path fill="none" stroke="#63b8ff" d="M615.42,-379.37C639.32,-368.44 680.7,-349.52 708.35,-336.88"/>
<polygon fill="#63b8ff" stroke="#63b8ff" points="709.87,-340.04 717.51,-332.7 706.96,-333.67 709.87,-340.04"/>
</a>
</g>
</g>
<!-- Node7 -->
<g id="Node000007" class="node">
<title>Node7</title>
<g id="a_Node000007"><a xlink:href="Common_8h.html" target="_top" xlink:title=" ">
<polygon fill="white" stroke="#666666" points="275.03,-332.5 136.03,-332.5 136.03,-313.5 275.03,-313.5 275.03,-332.5"/>
<text text-anchor="middle" x="205.53" y="-320.5" font-family="Helvetica,sans-Serif" font-size="10.00">open62541pp/Common.h</text>
</a>
</g>
</g>
<!-- Node3&#45;&gt;Node7 -->
<g id="edge7_Node000003_Node000007" class="edge">
<title>Node3&#45;&gt;Node7</title>
<g id="a_edge7_Node000003_Node000007"><a xlink:title=" ">
<path fill="none" stroke="#63b8ff" d="M544.21,-379.44C472.51,-367.7 343.95,-346.66 267.52,-334.15"/>
<polygon fill="#63b8ff" stroke="#63b8ff" points="267.98,-330.68 257.55,-332.51 266.85,-337.58 267.98,-330.68"/>
</a>
</g>
</g>
<!-- Node9 -->
<g id="Node000009" class="node">
<title>Node9</title>
<g id="a_Node000009"><a xlink:href="ErrorHandling_8h.html" target="_top" xlink:title=" ">
<polygon fill="white" stroke="#666666" points="579.03,-266.5 418.03,-266.5 418.03,-247.5 579.03,-247.5 579.03,-266.5"/>
<text text-anchor="middle" x="498.53" y="-254.5" font-family="Helvetica,sans-Serif" font-size="10.00">open62541pp/ErrorHandling.h</text>
</a>
</g>
</g>
<!-- Node3&#45;&gt;Node9 -->
<g id="edge11_Node000003_Node000009" class="edge">
<title>Node3&#45;&gt;Node9</title>
<g id="a_edge11_Node000003_Node000009"><a xlink:title=" ">
<path fill="none" stroke="#63b8ff" d="M590.1,-379.47C574.12,-358.27 532.35,-302.86 511.2,-274.8"/>
<polygon fill="#63b8ff" stroke="#63b8ff" points="513.93,-272.61 505.12,-266.73 508.34,-276.82 513.93,-272.61"/>
</a>
</g>
</g>
<!-- Node3&#45;&gt;Node12 -->
<g id="edge32_Node000003_Node000012" class="edge">
<title>Node3&#45;&gt;Node12</title>
<g id="a_edge32_Node000003_Node000012"><a xlink:title=" ">
<path fill="none" stroke="#63b8ff" d="M672.48,-379.44C711.11,-372.54 757.59,-360.15 794.53,-338 828.53,-317.61 836.04,-307.06 854.53,-272 863.77,-254.5 868.57,-232.49 871.04,-215.99"/>
<polygon fill="#63b8ff" stroke="#63b8ff" points="874.51,-216.42 872.34,-206.05 867.57,-215.51 874.51,-216.42"/>
</a>
</g>
</g>
<!-- Node24 -->
<g id="Node000024" class="node">
<title>Node24</title>
<g id="a_Node000024"><a xlink:href="Wrapper_8h.html" target="_top" xlink:title=" ">
<polygon fill="white" stroke="#666666" points="526.03,-332.5 391.03,-332.5 391.03,-313.5 526.03,-313.5 526.03,-332.5"/>
<text text-anchor="middle" x="458.53" y="-320.5" font-family="Helvetica,sans-Serif" font-size="10.00">open62541pp/Wrapper.h</text>
</a>
</g>
</g>
<!-- Node3&#45;&gt;Node24 -->
<g id="edge30_Node000003_Node000024" class="edge">
<title>Node3&#45;&gt;Node24</title>
<g id="a_edge30_Node000003_Node000024"><a xlink:title=" ">
<path fill="none" stroke="#63b8ff" d="M577.92,-379.37C554.47,-368.49 513.92,-349.69 486.67,-337.05"/>
<polygon fill="#63b8ff" stroke="#63b8ff" points="487.84,-333.73 477.29,-332.7 484.89,-340.08 487.84,-333.73"/>
</a>
</g>
</g>
<!-- Node25 -->
<g id="Node000025" class="node">
<title>Node25</title>
<g id="a_Node000025"><a xlink:href="types__handling_8h.html" target="_top" xlink:title=" ">
<polygon fill="white" stroke="#666666" points="696.03,-338 583.03,-338 583.03,-308 696.03,-308 696.03,-338"/>
<text text-anchor="start" x="591.03" y="-326" font-family="Helvetica,sans-Serif" font-size="10.00">open62541pp/detail</text>
<text text-anchor="middle" x="639.53" y="-315" font-family="Helvetica,sans-Serif" font-size="10.00">/types_handling.h</text>
</a>
</g>
</g>
<!-- Node3&#45;&gt;Node25 -->
<g id="edge33_Node000003_Node000025" class="edge">
<title>Node3&#45;&gt;Node25</title>
<g id="a_edge33_Node000003_Node000025"><a xlink:title=" ">
<path fill="none" stroke="#63b8ff" d="M602.33,-379.37C607.9,-371.08 616.57,-358.18 624.13,-346.92"/>
<polygon fill="#63b8ff" stroke="#63b8ff" points="627.21,-348.61 629.89,-338.36 621.4,-344.71 627.21,-348.61"/>
</a>
</g>
</g>
<!-- Node7&#45;&gt;Node5 -->
<g id="edge8_Node000007_Node000005" class="edge">
<title>Node7&#45;&gt;Node5</title>
<g id="a_edge8_Node000007_Node000005"><a xlink:title=" ">
<path fill="none" stroke="#63b8ff" d="M205.53,-313.37C205.53,-304.16 205.53,-289.29 205.53,-277.27"/>
<polygon fill="#63b8ff" stroke="#63b8ff" points="209.03,-276.91 205.53,-266.91 202.03,-276.91 209.03,-276.91"/>
</a>
</g>
</g>
<!-- Node8 -->
<g id="Node000008" class="node">
<title>Node8</title>
<g id="a_Node000008"><a xlink:href="Bitmask_8h.html" target="_top" xlink:title=" ">
<polygon fill="white" stroke="#666666" points="162.03,-266.5 27.03,-266.5 27.03,-247.5 162.03,-247.5 162.03,-266.5"/>
<text text-anchor="middle" x="94.53" y="-254.5" font-family="Helvetica,sans-Serif" font-size="10.00">open62541pp/Bitmask.h</text>
</a>
</g>
</g>
<!-- Node7&#45;&gt;Node8 -->
<g id="edge9_Node000007_Node000008" class="edge">
<title>Node7&#45;&gt;Node8</title>
<g id="a_edge9_Node000007_Node000008"><a xlink:title=" ">
<path fill="none" stroke="#63b8ff" d="M190.56,-313.37C172.03,-302.68 140.23,-284.35 118.33,-271.72"/>
<polygon fill="#63b8ff" stroke="#63b8ff" points="120.03,-268.66 109.62,-266.7 116.54,-274.73 120.03,-268.66"/>
</a>
</g>
</g>
<!-- Node8&#45;&gt;Node2 -->
<g id="edge10_Node000008_Node000002" class="edge">
<title>Node8&#45;&gt;Node2</title>
<g id="a_edge10_Node000008_Node000002"><a xlink:title=" ">
<path fill="none" stroke="#63b8ff" d="M94.53,-247.37C94.53,-238.16 94.53,-223.29 94.53,-211.27"/>
<polygon fill="#63b8ff" stroke="#63b8ff" points="98.03,-210.91 94.53,-200.91 91.03,-210.91 98.03,-210.91"/>
</a>
</g>
</g>
<!-- Node10 -->
<g id="Node000010" class="node">
<title>Node10</title>
<g id="a_Node000010"><a xlink:title=" ">
<polygon fill="#e0e0e0" stroke="#999999" points="551.03,-200.5 514.03,-200.5 514.03,-181.5 551.03,-181.5 551.03,-200.5"/>
<text text-anchor="middle" x="532.53" y="-188.5" font-family="Helvetica,sans-Serif" font-size="10.00">new</text>
</a>
</g>
</g>
<!-- Node9&#45;&gt;Node10 -->
<g id="edge12_Node000009_Node000010" class="edge">
<title>Node9&#45;&gt;Node10</title>
<g id="a_edge12_Node000009_Node000010"><a xlink:title=" ">
<path fill="none" stroke="#63b8ff" d="M503.12,-247.37C508.21,-237.78 516.57,-222.05 523.08,-209.8"/>
<polygon fill="#63b8ff" stroke="#63b8ff" points="526.2,-211.38 527.8,-200.91 520.02,-208.09 526.2,-211.38"/>
</a>
</g>
</g>
<!-- Node11 -->
<g id="Node000011" class="node">
<title>Node11</title>
<g id="a_Node000011"><a xlink:title=" ">
<polygon fill="#e0e0e0" stroke="#999999" points="496.03,-200.5 431.03,-200.5 431.03,-181.5 496.03,-181.5 496.03,-200.5"/>
<text text-anchor="middle" x="463.53" y="-188.5" font-family="Helvetica,sans-Serif" font-size="10.00">stdexcept</text>
</a>
</g>
</g>
<!-- Node9&#45;&gt;Node11 -->
<g id="edge13_Node000009_Node000011" class="edge">
<title>Node9&#45;&gt;Node11</title>
<g id="a_edge13_Node000009_Node000011"><a xlink:title=" ">
<path fill="none" stroke="#63b8ff" d="M493.81,-247.37C488.57,-237.78 479.97,-222.05 473.27,-209.8"/>
<polygon fill="#63b8ff" stroke="#63b8ff" points="476.27,-208 468.4,-200.91 470.13,-211.36 476.27,-208"/>
</a>
</g>
</g>
<!-- Node9&#45;&gt;Node12 -->
<g id="edge14_Node000009_Node000012" class="edge">
<title>Node9&#45;&gt;Node12</title>
<g id="a_edge14_Node000009_Node000012"><a xlink:title=" ">
<path fill="none" stroke="#63b8ff" d="M548.72,-247.44C612.96,-236.47 724.79,-217.39 798.99,-204.72"/>
<polygon fill="#63b8ff" stroke="#63b8ff" points="799.94,-208.11 809.21,-202.98 798.76,-201.21 799.94,-208.11"/>
</a>
</g>
</g>
<!-- Node13 -->
<g id="Node000013" class="node">
<title>Node13</title>
<g id="a_Node000013"><a xlink:href="push__options_8h.html" target="_top" xlink:title=" ">
<polygon fill="white" stroke="#666666" points="683.53,-30 533.53,-30 533.53,0 683.53,0 683.53,-30"/>
<text text-anchor="start" x="541.53" y="-18" font-family="Helvetica,sans-Serif" font-size="10.00">open62541pp/detail</text>
<text text-anchor="middle" x="608.53" y="-7" font-family="Helvetica,sans-Serif" font-size="10.00">/open62541/push_options.h</text>
</a>
</g>
</g>
<!-- Node12&#45;&gt;Node13 -->
<g id="edge15_Node000012_Node000013" class="edge">
<title>Node12&#45;&gt;Node13</title>
<g id="a_edge15_Node000012_Node000013"><a xlink:title=" ">
<path fill="none" stroke="#63b8ff" d="M809.36,-187.18C695.2,-181.51 466.49,-166.89 442.53,-140 402,-94.49 487.84,-54.9 550.52,-33.33"/>
<polygon fill="#63b8ff" stroke="#63b8ff" points="552,-36.53 560.36,-30.03 549.77,-29.9 552,-36.53"/>
</a>
</g>
</g>
<!-- Node14 -->
<g id="Node000014" class="node">
<title>Node14</title>
<g id="a_Node000014"><a target="_blank" xlink:href="open62541/nodeids_8h.html" xlink:title=" ">
<polygon fill="white" stroke="#666666" points="572.03,-140 451.03,-140 451.03,-121 572.03,-121 572.03,-140"/>
<text text-anchor="middle" x="511.53" y="-128" font-family="Helvetica,sans-Serif" font-size="10.00">open62541/nodeids.h</text>
</a>
</g>
</g>
<!-- Node12&#45;&gt;Node14 -->
<g id="edge16_Node000012_Node000014" class="edge">
<title>Node12&#45;&gt;Node14</title>
<g id="a_edge16_Node000012_Node000014"><a xlink:title=" ">
<path fill="none" stroke="#63b8ff" d="M809.23,-179.61C742.99,-168.9 640.38,-152.32 574.6,-141.69"/>
<polygon fill="#63b8ff" stroke="#63b8ff" points="574.8,-138.18 564.36,-140.04 573.68,-145.09 574.8,-138.18"/>
</a>
</g>
</g>
<!-- Node15 -->
<g id="Node000015" class="node">
<title>Node15</title>
<g id="a_Node000015"><a target="_blank" xlink:href="open62541/statuscodes_8h.html" xlink:title=" ">
<polygon fill="white" stroke="#666666" points="731.03,-140 590.03,-140 590.03,-121 731.03,-121 731.03,-140"/>
<text text-anchor="middle" x="660.53" y="-128" font-family="Helvetica,sans-Serif" font-size="10.00">open62541/statuscodes.h</text>
</a>
</g>
</g>
<!-- Node12&#45;&gt;Node15 -->
<g id="edge17_Node000012_Node000015" class="edge">
<title>Node12&#45;&gt;Node15</title>
<g id="a_edge17_Node000012_Node000015"><a xlink:title=" ">
<path fill="none" stroke="#63b8ff" d="M822.52,-175.99C785.44,-165.8 735.91,-152.2 701.43,-142.73"/>
<polygon fill="#63b8ff" stroke="#63b8ff" points="702.25,-139.33 691.68,-140.05 700.39,-146.08 702.25,-139.33"/>
</a>
</g>
</g>
<!-- Node16 -->
<g id="Node000016" class="node">
<title>Node16</title>
<g id="a_Node000016"><a target="_blank" xlink:href="open62541/types_8h.html" xlink:title=" ">
<polygon fill="white" stroke="#666666" points="859.53,-140 749.53,-140 749.53,-121 859.53,-121 859.53,-140"/>
<text text-anchor="middle" x="804.53" y="-128" font-family="Helvetica,sans-Serif" font-size="10.00">open62541/types.h</text>
</a>
</g>
</g>
<!-- Node12&#45;&gt;Node16 -->
<g id="edge18_Node000012_Node000016" class="edge">
<title>Node12&#45;&gt;Node16</title>
<g id="a_edge18_Node000012_Node000016"><a xlink:title=" ">
<path fill="none" stroke="#63b8ff" d="M850.95,-175.84C839.75,-167.26 826.75,-156.3 817.23,-147.42"/>
<polygon fill="#63b8ff" stroke="#63b8ff" points="819.49,-144.74 809.89,-140.27 814.61,-149.75 819.49,-144.74"/>
</a>
</g>
</g>
<!-- Node19 -->
<g id="Node000019" class="node">
<title>Node19</title>
<g id="a_Node000019"><a xlink:href="pop__options_8h.html" target="_top" xlink:title=" ">
<polygon fill="white" stroke="#666666" points="1316.03,-30 1171.03,-30 1171.03,0 1316.03,0 1316.03,-30"/>
<text text-anchor="start" x="1179.03" y="-18" font-family="Helvetica,sans-Serif" font-size="10.00">open62541pp/detail</text>
<text text-anchor="middle" x="1243.53" y="-7" font-family="Helvetica,sans-Serif" font-size="10.00">/open62541/pop_options.h</text>
</a>
</g>
</g>
<!-- Node12&#45;&gt;Node19 -->
<g id="edge29_Node000012_Node000019" class="edge">
<title>Node12&#45;&gt;Node19</title>
<g id="a_edge29_Node000012_Node000019"><a xlink:title=" ">
<path fill="none" stroke="#63b8ff" d="M937.55,-189.84C1092.47,-188.78 1477.75,-181.91 1516.53,-140 1578.55,-72.98 1427.41,-39.59 1326.1,-25.2"/>
<polygon fill="#63b8ff" stroke="#63b8ff" points="1326.54,-21.73 1316.16,-23.83 1325.59,-28.66 1326.54,-21.73"/>
</a>
</g>
</g>
<!-- Node20 -->
<g id="Node000020" class="node">
<title>Node20</title>
<g id="a_Node000020"><a target="_blank" xlink:href="open62541/types__generated_8h.html" xlink:title=" ">
<polygon fill="white" stroke="#666666" points="1191.53,-140 1027.53,-140 1027.53,-121 1191.53,-121 1191.53,-140"/>
<text text-anchor="middle" x="1109.53" y="-128" font-family="Helvetica,sans-Serif" font-size="10.00">open62541/types_generated.h</text>
</a>
</g>
</g>
<!-- Node12&#45;&gt;Node20 -->
<g id="edge24_Node000012_Node000020" class="edge">
<title>Node12&#45;&gt;Node20</title>
<g id="a_edge24_Node000012_Node000020"><a xlink:title=" ">
<path fill="none" stroke="#63b8ff" d="M930.06,-175.99C971.5,-165.72 1026.96,-151.97 1065.21,-142.49"/>
<polygon fill="#63b8ff" stroke="#63b8ff" points="1066.16,-145.86 1075.03,-140.05 1064.48,-139.06 1066.16,-145.86"/>
</a>
</g>
</g>
<!-- Node21 -->
<g id="Node000021" class="node">
<title>Node21</title>
<g id="a_Node000021"><a target="_blank" xlink:href="open62541/util_8h.html" xlink:title=" ">
<polygon fill="white" stroke="#666666" points="1307.53,-140 1209.53,-140 1209.53,-121 1307.53,-121 1307.53,-140"/>
<text text-anchor="middle" x="1258.53" y="-128" font-family="Helvetica,sans-Serif" font-size="10.00">open62541/util.h</text>
</a>
</g>
</g>
<!-- Node12&#45;&gt;Node21 -->
<g id="edge25_Node000012_Node000021" class="edge">
<title>Node12&#45;&gt;Node21</title>
<g id="a_edge25_Node000012_Node000021"><a xlink:title=" ">
<path fill="none" stroke="#63b8ff" d="M937.54,-180.27C1010.4,-169.2 1128.45,-151.27 1199.27,-140.5"/>
<polygon fill="#63b8ff" stroke="#63b8ff" points="1200.01,-143.93 1209.37,-138.97 1198.96,-137.01 1200.01,-143.93"/>
</a>
</g>
</g>
<!-- Node22 -->
<g id="Node000022" class="node">
<title>Node22</title>
<g id="a_Node000022"><a target="_blank" xlink:href="open62541/accesscontrol_8h.html" xlink:title=" ">
<polygon fill="white" stroke="#666666" points="1507.53,-140 1325.53,-140 1325.53,-121 1507.53,-121 1507.53,-140"/>
<text text-anchor="middle" x="1416.53" y="-128" font-family="Helvetica,sans-Serif" font-size="10.00">open62541/plugin/accesscontrol.h</text>
</a>
</g>
</g>
<!-- Node12&#45;&gt;Node22 -->
<g id="edge26_Node000012_Node000022" class="edge">
<title>Node12&#45;&gt;Node22</title>
<g id="a_edge26_Node000012_Node000022"><a xlink:title=" ">
<path fill="none" stroke="#63b8ff" d="M937.69,-183.09C1034.43,-172.67 1217.99,-152.89 1327.59,-141.08"/>
<polygon fill="#63b8ff" stroke="#63b8ff" points="1328.06,-144.55 1337.63,-140 1327.31,-137.59 1328.06,-144.55"/>
</a>
</g>
</g>
<!-- Node23 -->
<g id="Node000023" class="node">
<title>Node23</title>
<g id="a_Node000023"><a target="_blank" xlink:href="open62541/log_8h.html" xlink:title=" ">
<polygon fill="white" stroke="#666666" points="1009.03,-140 878.03,-140 878.03,-121 1009.03,-121 1009.03,-140"/>
<text text-anchor="middle" x="943.53" y="-128" font-family="Helvetica,sans-Serif" font-size="10.00">open62541/plugin/log.h</text>
</a>
</g>
</g>
<!-- Node12&#45;&gt;Node23 -->
<g id="edge27_Node000012_Node000023" class="edge">
<title>Node12&#45;&gt;Node23</title>
<g id="a_edge27_Node000012_Node000023"><a xlink:title=" ">
<path fill="none" stroke="#63b8ff" d="M890.48,-175.84C900.95,-167.09 914.39,-155.85 925.13,-146.88"/>
<polygon fill="#63b8ff" stroke="#63b8ff" points="927.62,-149.36 933.05,-140.27 923.13,-143.99 927.62,-149.36"/>
</a>
</g>
</g>
<!-- Node16&#45;&gt;Node12 -->
<g id="edge23_Node000016_Node000012" class="edge">
<title>Node16&#45;&gt;Node12</title>
<g id="a_edge23_Node000016_Node000012"><a xlink:title=" ">
<path fill="none" stroke="#63b8ff" d="M819.86,-140.27C830.4,-147.83 844.16,-159.07 855.22,-168.96"/>
<polygon fill="#63b8ff" stroke="#63b8ff" points="852.98,-171.65 862.71,-175.84 857.72,-166.49 852.98,-171.65"/>
</a>
</g>
</g>
<!-- Node17 -->
<g id="Node000017" class="node">
<title>Node17</title>
<g id="a_Node000017"><a xlink:href="config_8h.html" target="_top" xlink:title=" ">
<polygon fill="white" stroke="#666666" points="929.53,-85 817.53,-85 817.53,-66 929.53,-66 929.53,-85"/>
<text text-anchor="middle" x="873.53" y="-73" font-family="Helvetica,sans-Serif" font-size="10.00">open62541/config.h</text>
</a>
</g>
</g>
<!-- Node16&#45;&gt;Node17 -->
<g id="edge19_Node000016_Node000017" class="edge">
<title>Node16&#45;&gt;Node17</title>
<g id="a_edge19_Node000016_Node000017"><a xlink:title=" ">
<path fill="none" stroke="#63b8ff" d="M815.62,-120.98C826.02,-113 841.79,-100.88 854.26,-91.31"/>
<polygon fill="#63b8ff" stroke="#63b8ff" points="856.45,-94.04 862.25,-85.17 852.18,-88.49 856.45,-94.04"/>
</a>
</g>
</g>
<!-- Node17&#45;&gt;Node13 -->
<g id="edge20_Node000017_Node000013" class="edge">
<title>Node17&#45;&gt;Node13</title>
<g id="a_edge20_Node000017_Node000013"><a xlink:title=" ">
<path fill="none" stroke="#63b8ff" d="M835,-65.99C795.05,-57.17 731.61,-43.17 682.03,-32.22"/>
<polygon fill="#63b8ff" stroke="#63b8ff" points="682.51,-28.75 671.99,-30.01 681,-35.58 682.51,-28.75"/>
</a>
</g>
</g>
<!-- Node18 -->
<g id="Node000018" class="node">
<title>Node18</title>
<g id="a_Node000018"><a xlink:title=" ">
<polygon fill="#e0e0e0" stroke="#999999" points="929.53,-24.5 817.53,-24.5 817.53,-5.5 929.53,-5.5 929.53,-24.5"/>
<text text-anchor="middle" x="873.53" y="-12.5" font-family="Helvetica,sans-Serif" font-size="10.00">open62541/config.h</text>
</a>
</g>
</g>
<!-- Node17&#45;&gt;Node18 -->
<g id="edge21_Node000017_Node000018" class="edge">
<title>Node17&#45;&gt;Node18</title>
<g id="a_edge21_Node000017_Node000018"><a xlink:title=" ">
<path fill="none" stroke="#63b8ff" d="M873.53,-65.87C873.53,-57.75 873.53,-45.31 873.53,-34.89"/>
<polygon fill="#63b8ff" stroke="#63b8ff" points="877.03,-34.67 873.53,-24.67 870.03,-34.67 877.03,-34.67"/>
</a>
</g>
</g>
<!-- Node17&#45;&gt;Node19 -->
<g id="edge22_Node000017_Node000019" class="edge">
<title>Node17&#45;&gt;Node19</title>
<g id="a_edge22_Node000017_Node000019"><a xlink:title=" ">
<path fill="none" stroke="#63b8ff" d="M927.34,-65.99C988.56,-56.31 1089.29,-40.39 1160.58,-29.12"/>
<polygon fill="#63b8ff" stroke="#63b8ff" points="1161.55,-32.51 1170.88,-27.49 1160.46,-25.59 1161.55,-32.51"/>
</a>
</g>
</g>
<!-- Node23&#45;&gt;Node17 -->
<g id="edge28_Node000023_Node000017" class="edge">
<title>Node23&#45;&gt;Node17</title>
<g id="a_edge28_Node000023_Node000017"><a xlink:title=" ">
<path fill="none" stroke="#63b8ff" d="M932.29,-120.98C921.74,-113 905.73,-100.88 893.09,-91.31"/>
<polygon fill="#63b8ff" stroke="#63b8ff" points="895.07,-88.42 884.99,-85.17 890.85,-94 895.07,-88.42"/>
</a>
</g>
</g>
<!-- Node24&#45;&gt;Node2 -->
<g id="edge31_Node000024_Node000002" class="edge">
<title>Node24&#45;&gt;Node2</title>
<g id="a_edge31_Node000024_Node000002"><a xlink:title=" ">
<path fill="none" stroke="#63b8ff" d="M406.99,-313.45C369.64,-305.92 318.68,-292.85 277.53,-272 258.34,-262.28 258.42,-252.32 239.53,-242 207.76,-224.64 168.84,-211.61 139.32,-203.22"/>
<polygon fill="#63b8ff" stroke="#63b8ff" points="139.87,-199.74 129.3,-200.44 138,-206.48 139.87,-199.74"/>
</a>
</g>
</g>
<!-- Node25&#45;&gt;Node4 -->
<g id="edge35_Node000025_Node000004" class="edge">
<title>Node25&#45;&gt;Node4</title>
<g id="a_edge35_Node000025_Node000004"><a xlink:title=" ">
<path fill="none" stroke="#63b8ff" d="M679.04,-307.95C711.02,-296.58 755.59,-280.74 785.89,-269.96"/>
<polygon fill="#63b8ff" stroke="#63b8ff" points="787.33,-273.17 795.58,-266.52 784.98,-266.57 787.33,-273.17"/>
</a>
</g>
</g>
<!-- Node25&#45;&gt;Node9 -->
<g id="edge37_Node000025_Node000009" class="edge">
<title>Node25&#45;&gt;Node9</title>
<g id="a_edge37_Node000025_Node000009"><a xlink:title=" ">
<path fill="none" stroke="#63b8ff" d="M608.59,-307.95C584.08,-296.83 550.14,-281.42 526.45,-270.67"/>
<polygon fill="#63b8ff" stroke="#63b8ff" points="527.85,-267.46 517.3,-266.52 524.96,-273.84 527.85,-267.46"/>
</a>
</g>
</g>
<!-- Node25&#45;&gt;Node12 -->
<g id="edge38_Node000025_Node000012" class="edge">
<title>Node25&#45;&gt;Node12</title>
<g id="a_edge38_Node000025_Node000012"><a xlink:title=" ">
<path fill="none" stroke="#63b8ff" d="M674.8,-307.97C696.19,-298.86 723.67,-286.1 746.53,-272 764.85,-260.7 766.66,-253.97 784.53,-242 801.15,-230.87 820.41,-219.84 836.76,-210.98"/>
<polygon fill="#63b8ff" stroke="#63b8ff" points="838.84,-213.83 846,-206.03 835.54,-207.66 838.84,-213.83"/>
</a>
</g>
</g>
<!-- Node26 -->
<g id="Node000026" class="node">
<title>Node26</title>
<g id="a_Node000026"><a xlink:title=" ">
<polygon fill="#e0e0e0" stroke="#999999" points="661.53,-266.5 597.53,-266.5 597.53,-247.5 661.53,-247.5 661.53,-266.5"/>
<text text-anchor="middle" x="629.53" y="-254.5" font-family="Helvetica,sans-Serif" font-size="10.00">algorithm</text>
</a>
</g>
</g>
<!-- Node25&#45;&gt;Node26 -->
<g id="edge34_Node000025_Node000026" class="edge">
<title>Node25&#45;&gt;Node26</title>
<g id="a_edge34_Node000025_Node000026"><a xlink:title=" ">
<path fill="none" stroke="#63b8ff" d="M637.31,-307.8C635.89,-298.7 634.03,-286.79 632.49,-276.9"/>
<polygon fill="#63b8ff" stroke="#63b8ff" points="635.92,-276.18 630.92,-266.84 629,-277.26 635.92,-276.18"/>
</a>
</g>
</g>
<!-- Node27 -->
<g id="Node000027" class="node">
<title>Node27</title>
<g id="a_Node000027"><a xlink:title=" ">
<polygon fill="#e0e0e0" stroke="#999999" points="737.53,-266.5 679.53,-266.5 679.53,-247.5 737.53,-247.5 737.53,-266.5"/>
<text text-anchor="middle" x="708.53" y="-254.5" font-family="Helvetica,sans-Serif" font-size="10.00">memory</text>
</a>
</g>
</g>
<!-- Node25&#45;&gt;Node27 -->
<g id="edge36_Node000025_Node000027" class="edge">
<title>Node25&#45;&gt;Node27</title>
<g id="a_edge36_Node000025_Node000027"><a xlink:title=" ">
<path fill="none" stroke="#63b8ff" d="M654.85,-307.8C665.71,-297.72 680.29,-284.19 691.52,-273.78"/>
<polygon fill="#63b8ff" stroke="#63b8ff" points="694.05,-276.21 699,-266.84 689.29,-271.08 694.05,-276.21"/>
</a>
</g>
</g>
<!-- Node25&#45;&gt;Node28 -->
<g id="edge39_Node000025_Node000028" class="edge">
<title>Node25&#45;&gt;Node28</title>
<g id="a_edge39_Node000025_Node000028"><a xlink:title=" ">
<path fill="none" stroke="#63b8ff" d="M582.81,-309.74C533.45,-299.06 461.86,-283.59 409.86,-272.34"/>
<polygon fill="#63b8ff" stroke="#63b8ff" points="410.58,-268.92 400.06,-270.22 409.1,-275.76 410.58,-268.92"/>
</a>
</g>
</g>
<!-- Node28&#45;&gt;Node2 -->
<g id="edge40_Node000028_Node000002" class="edge">
<title>Node28&#45;&gt;Node2</title>
<g id="a_edge40_Node000028_Node000002"><a xlink:title=" ">
<path fill="none" stroke="#63b8ff" d="M288.89,-241.95C243.39,-230.26 179.5,-213.84 137.57,-203.06"/>
<polygon fill="#63b8ff" stroke="#63b8ff" points="138.23,-199.62 127.67,-200.52 136.49,-206.4 138.23,-199.62"/>
</a>
</g>
</g>
<!-- Node29&#45;&gt;Node1 -->
<g id="edge44_Node000029_Node000001" class="edge">
<title>Node29&#45;&gt;Node1</title>
<g id="a_edge44_Node000029_Node000001"><a xlink:title=" ">
<path fill="none" stroke="#63b8ff" d="M952.7,-404C919.66,-413.54 873.77,-426.37 833.75,-437.3"/>
<polygon fill="#63b8ff" stroke="#63b8ff" points="832.71,-433.95 823.98,-439.96 834.55,-440.71 832.71,-433.95"/>
</a>
</g>
</g>
<!-- Node29&#45;&gt;Node12 -->
<g id="edge45_Node000029_Node000012" class="edge">
<title>Node29&#45;&gt;Node12</title>
<g id="a_edge45_Node000029_Node000012"><a xlink:title=" ">
<path fill="none" stroke="#63b8ff" d="M992.45,-373.82C982.31,-346.65 957.74,-286.02 925.53,-242 917.79,-231.42 907.69,-221.13 898.45,-212.66"/>
<polygon fill="#63b8ff" stroke="#63b8ff" points="900.76,-210.04 890.96,-206.01 896.11,-215.27 900.76,-210.04"/>
</a>
</g>
</g>
</g>
</svg>
