<?xml version="1.0" encoding="UTF-8" standalone="no"?>
<!DOCTYPE svg PUBLIC "-//W3C//DTD SVG 1.1//EN"
 "http://www.w3.org/Graphics/SVG/1.1/DTD/svg11.dtd">
<!-- Generated by graphviz version 2.43.0 (0)
 -->
<!-- Title: /home/runner/work/open62541pp/open62541pp/include/open62541pp/TypeConverter.h Pages: 1 -->
<svg width="1247pt" height="401pt"
 viewBox="0.00 0.00 1246.50 401.00" xmlns="http://www.w3.org/2000/svg" xmlns:xlink="http://www.w3.org/1999/xlink">
<g id="graph0" class="graph" transform="scale(1 1) rotate(0) translate(4 397)">
<title>/home/runner/work/open62541pp/open62541pp/include/open62541pp/TypeConverter.h</title>
<!-- Node1 -->
<g id="node1" class="node">
<title>Node1</title>
<g id="a_node1"><a xlink:title=" ">
<polygon fill="#999999" stroke="#666666" points="746.5,-393 553.5,-393 553.5,-352 746.5,-352 746.5,-393"/>
<text text-anchor="start" x="561.5" y="-381" font-family="Helvetica,sans-Serif" font-size="10.00">/home/runner/work/open62541pp</text>
<text text-anchor="start" x="561.5" y="-370" font-family="Helvetica,sans-Serif" font-size="10.00">/open62541pp/include/open62541pp</text>
<text text-anchor="middle" x="650" y="-359" font-family="Helvetica,sans-Serif" font-size="10.00">/TypeConverter.h</text>
</a>
</g>
</g>
<!-- Node2 -->
<g id="node2" class="node">
<title>Node2</title>
<g id="a_node2"><a xlink:title=" ">
<polygon fill="#e0e0e0" stroke="#999999" points="42,-316 0,-316 0,-297 42,-297 42,-316"/>
<text text-anchor="middle" x="21" y="-304" font-family="Helvetica,sans-Serif" font-size="10.00">array</text>
</a>
</g>
</g>
<!-- Node1&#45;&gt;Node2 -->
<g id="edge1" class="edge">
<title>Node1&#45;&gt;Node2</title>
<path fill="none" stroke="#63b8ff" d="M553.25,-366.78C435.23,-360.03 229.92,-345.09 56,-316 54.75,-315.79 53.48,-315.56 52.2,-315.32"/>
<polygon fill="#63b8ff" stroke="#63b8ff" points="52.88,-311.88 42.37,-313.21 51.41,-318.73 52.88,-311.88"/>
</g>
<!-- Node3 -->
<g id="node3" class="node">
<title>Node3</title>
<g id="a_node3"><a xlink:title=" ">
<polygon fill="#e0e0e0" stroke="#999999" points="298,-261 248,-261 248,-242 298,-242 298,-261"/>
<text text-anchor="middle" x="273" y="-249" font-family="Helvetica,sans-Serif" font-size="10.00">chrono</text>
</a>
</g>
</g>
<!-- Node1&#45;&gt;Node3 -->
<g id="edge2" class="edge">
<title>Node1&#45;&gt;Node3</title>
<path fill="none" stroke="#63b8ff" d="M553.3,-368.21C490.03,-362.74 407.15,-349.14 341,-316 318.55,-304.75 298.28,-283.74 285.83,-268.98"/>
<polygon fill="#63b8ff" stroke="#63b8ff" points="288.47,-266.68 279.45,-261.13 283.04,-271.09 288.47,-266.68"/>
</g>
<!-- Node4 -->
<g id="node4" class="node">
<title>Node4</title>
<g id="a_node4"><a xlink:title=" ">
<polygon fill="#e0e0e0" stroke="#999999" points="1173.5,-316 1120.5,-316 1120.5,-297 1173.5,-297 1173.5,-316"/>
<text text-anchor="middle" x="1147" y="-304" font-family="Helvetica,sans-Serif" font-size="10.00">iterator</text>
</a>
</g>
</g>
<!-- Node1&#45;&gt;Node4 -->
<g id="edge3" class="edge">
<title>Node1&#45;&gt;Node4</title>
<path fill="none" stroke="#63b8ff" d="M746.85,-362.08C839.39,-352.52 982.64,-336.26 1106,-316 1107.29,-315.79 1108.6,-315.56 1109.93,-315.33"/>
<polygon fill="#63b8ff" stroke="#63b8ff" points="1110.98,-318.69 1120.15,-313.4 1109.68,-311.82 1110.98,-318.69"/>
</g>
<!-- Node5 -->
<g id="node5" class="node">
<title>Node5</title>
<g id="a_node5"><a xlink:title=" ">
<polygon fill="#e0e0e0" stroke="#999999" points="186,-140 142,-140 142,-121 186,-121 186,-140"/>
<text text-anchor="middle" x="164" y="-128" font-family="Helvetica,sans-Serif" font-size="10.00">string</text>
</a>
</g>
</g>
<!-- Node1&#45;&gt;Node5 -->
<g id="edge4" class="edge">
<title>Node1&#45;&gt;Node5</title>
<path fill="none" stroke="#63b8ff" d="M553.32,-364.5C455.98,-356.24 313.38,-340.44 264,-316 201.47,-285.05 178.99,-270.34 152,-206 144.34,-187.74 149.91,-165.08 155.75,-149.57"/>
<polygon fill="#63b8ff" stroke="#63b8ff" points="159.07,-150.7 159.68,-140.12 152.61,-148.01 159.07,-150.7"/>
</g>
<!-- Node6 -->
<g id="node6" class="node">
<title>Node6</title>
<g id="a_node6"><a xlink:title=" ">
<polygon fill="#e0e0e0" stroke="#999999" points="1050.5,-19 981.5,-19 981.5,0 1050.5,0 1050.5,-19"/>
<text text-anchor="middle" x="1016" y="-7" font-family="Helvetica,sans-Serif" font-size="10.00">type_traits</text>
</a>
</g>
</g>
<!-- Node1&#45;&gt;Node6 -->
<g id="edge5" class="edge">
<title>Node1&#45;&gt;Node6</title>
<path fill="none" stroke="#63b8ff" d="M746.73,-364.91C876.81,-353.34 1092,-323.48 1092,-252.5 1092,-252.5 1092,-252.5 1092,-129.5 1092,-86.71 1056.66,-46.94 1034.18,-25.97"/>
<polygon fill="#63b8ff" stroke="#63b8ff" points="1036.34,-23.21 1026.57,-19.13 1031.66,-28.42 1036.34,-23.21"/>
</g>
<!-- Node7 -->
<g id="node7" class="node">
<title>Node7</title>
<g id="a_node7"><a xlink:title=" ">
<polygon fill="#e0e0e0" stroke="#999999" points="1238.5,-316 1191.5,-316 1191.5,-297 1238.5,-297 1238.5,-316"/>
<text text-anchor="middle" x="1215" y="-304" font-family="Helvetica,sans-Serif" font-size="10.00">vector</text>
</a>
</g>
</g>
<!-- Node1&#45;&gt;Node7 -->
<g id="edge6" class="edge">
<title>Node1&#45;&gt;Node7</title>
<path fill="none" stroke="#63b8ff" d="M746.93,-365.96C851.94,-358.93 1024.41,-344.38 1181.03,-316.11"/>
<polygon fill="#63b8ff" stroke="#63b8ff" points="1182.12,-319.47 1191.33,-314.23 1180.86,-312.58 1182.12,-319.47"/>
</g>
<!-- Node8 -->
<g id="node8" class="node">
<title>Node8</title>
<g id="a_node8"><a xlink:href="Common_8h.html" target="_top" xlink:title=" ">
<polygon fill="white" stroke="#666666" points="829.5,-140 690.5,-140 690.5,-121 829.5,-121 829.5,-140"/>
<text text-anchor="middle" x="760" y="-128" font-family="Helvetica,sans-Serif" font-size="10.00">open62541pp/Common.h</text>
</a>
</g>
</g>
<!-- Node1&#45;&gt;Node8 -->
<g id="edge7" class="edge">
<title>Node1&#45;&gt;Node8</title>
<path fill="none" stroke="#63b8ff" d="M701.37,-351.99C757.68,-327.48 845.04,-279.52 883,-206 889.12,-194.15 890.66,-186.91 883,-176 871.78,-160.01 854.22,-149.74 835.84,-143.16"/>
<polygon fill="#63b8ff" stroke="#63b8ff" points="836.77,-139.78 826.18,-140.04 834.62,-146.44 836.77,-139.78"/>
</g>
<!-- Node12 -->
<g id="node12" class="node">
<title>Node12</title>
<g id="a_node12"><a xlink:href="traits_8h.html" target="_top" xlink:title=" ">
<polygon fill="white" stroke="#666666" points="987.5,-85 874.5,-85 874.5,-55 987.5,-55 987.5,-85"/>
<text text-anchor="start" x="882.5" y="-73" font-family="Helvetica,sans-Serif" font-size="10.00">open62541pp/detail</text>
<text text-anchor="middle" x="931" y="-62" font-family="Helvetica,sans-Serif" font-size="10.00">/traits.h</text>
</a>
</g>
</g>
<!-- Node1&#45;&gt;Node12 -->
<g id="edge39" class="edge">
<title>Node1&#45;&gt;Node12</title>
<path fill="none" stroke="#63b8ff" d="M746.51,-362.42C866.02,-348.46 1054,-316.34 1054,-252.5 1054,-252.5 1054,-252.5 1054,-190 1054,-143.5 1008.02,-109.37 972.29,-89.88"/>
<polygon fill="#63b8ff" stroke="#63b8ff" points="973.48,-86.55 963,-85 970.23,-92.75 973.48,-86.55"/>
</g>
<!-- Node13 -->
<g id="node13" class="node">
<title>Node13</title>
<g id="a_node13"><a xlink:href="open62541_8h.html" target="_top" xlink:title=" ">
<polygon fill="white" stroke="#666666" points="571.5,-79.5 422.5,-79.5 422.5,-60.5 571.5,-60.5 571.5,-79.5"/>
<text text-anchor="middle" x="497" y="-67.5" font-family="Helvetica,sans-Serif" font-size="10.00">open62541pp/open62541.h</text>
</a>
</g>
</g>
<!-- Node1&#45;&gt;Node13 -->
<g id="edge40" class="edge">
<title>Node1&#45;&gt;Node13</title>
<path fill="none" stroke="#63b8ff" d="M553.25,-371.3C388.23,-368.33 70,-349.96 70,-252.5 70,-252.5 70,-252.5 70,-190 70,-148.47 96.24,-140.31 133,-121 180.08,-96.27 320.27,-82.54 412.29,-75.98"/>
<polygon fill="#63b8ff" stroke="#63b8ff" points="412.69,-79.46 422.43,-75.27 412.21,-72.47 412.69,-79.46"/>
</g>
<!-- Node17 -->
<g id="node17" class="node">
<title>Node17</title>
<g id="a_node17"><a xlink:href="ErrorHandling_8h.html" target="_top" xlink:title=" ">
<polygon fill="white" stroke="#666666" points="335.5,-200.5 174.5,-200.5 174.5,-181.5 335.5,-181.5 335.5,-200.5"/>
<text text-anchor="middle" x="255" y="-188.5" font-family="Helvetica,sans-Serif" font-size="10.00">open62541pp/ErrorHandling.h</text>
</a>
</g>
</g>
<!-- Node1&#45;&gt;Node17 -->
<g id="edge18" class="edge">
<title>Node1&#45;&gt;Node17</title>
<path fill="none" stroke="#63b8ff" d="M553.39,-368.62C483.04,-363.52 386.85,-350.18 309,-316 272.77,-300.1 256.3,-296.59 239,-261 231.05,-244.65 237.62,-224.16 244.59,-209.78"/>
<polygon fill="#63b8ff" stroke="#63b8ff" points="247.7,-211.39 249.31,-200.92 241.52,-208.1 247.7,-211.39"/>
</g>
<!-- Node19 -->
<g id="node19" class="node">
<title>Node19</title>
<g id="a_node19"><a xlink:href="TypeWrapper_8h.html" target="_top" xlink:title=" ">
<polygon fill="white" stroke="#666666" points="729,-261 571,-261 571,-242 729,-242 729,-261"/>
<text text-anchor="middle" x="650" y="-249" font-family="Helvetica,sans-Serif" font-size="10.00">open62541pp/TypeWrapper.h</text>
</a>
</g>
</g>
<!-- Node1&#45;&gt;Node19 -->
<g id="edge22" class="edge">
<title>Node1&#45;&gt;Node19</title>
<path fill="none" stroke="#63b8ff" d="M650,-351.85C650,-329.48 650,-293.19 650,-271.21"/>
<polygon fill="#63b8ff" stroke="#63b8ff" points="653.5,-271.18 650,-261.18 646.5,-271.18 653.5,-271.18"/>
</g>
<!-- Node22 -->
<g id="node22" class="node">
<title>Node22</title>
<g id="a_node22"><a xlink:href="helper_8h.html" target="_top" xlink:title=" ">
<polygon fill="white" stroke="#666666" points="873.5,-206 760.5,-206 760.5,-176 873.5,-176 873.5,-206"/>
<text text-anchor="start" x="768.5" y="-194" font-family="Helvetica,sans-Serif" font-size="10.00">open62541pp/detail</text>
<text text-anchor="middle" x="817" y="-183" font-family="Helvetica,sans-Serif" font-size="10.00">/helper.h</text>
</a>
</g>
</g>
<!-- Node1&#45;&gt;Node22 -->
<g id="edge38" class="edge">
<title>Node1&#45;&gt;Node22</title>
<path fill="none" stroke="#63b8ff" d="M668.19,-351.95C699.63,-318.16 763.9,-249.07 796.73,-213.79"/>
<polygon fill="#63b8ff" stroke="#63b8ff" points="799.36,-216.1 803.61,-206.4 794.23,-211.33 799.36,-216.1"/>
</g>
<!-- Node24 -->
<g id="node24" class="node">
<title>Node24</title>
<g id="a_node24"><a xlink:href="DateTime_8h.html" target="_top" xlink:title=" ">
<polygon fill="white" stroke="#666666" points="522.5,-316 349.5,-316 349.5,-297 522.5,-297 522.5,-316"/>
<text text-anchor="middle" x="436" y="-304" font-family="Helvetica,sans-Serif" font-size="10.00">open62541pp/types/DateTime.h</text>
</a>
</g>
</g>
<!-- Node1&#45;&gt;Node24 -->
<g id="edge41" class="edge">
<title>Node1&#45;&gt;Node24</title>
<path fill="none" stroke="#63b8ff" d="M584.63,-351.95C548.52,-341.15 504.91,-328.11 474.3,-318.95"/>
<polygon fill="#63b8ff" stroke="#63b8ff" points="475.03,-315.52 464.45,-316.01 473.03,-322.23 475.03,-315.52"/>
</g>
<!-- Node9 -->
<g id="node9" class="node">
<title>Node9</title>
<g id="a_node9"><a xlink:title=" ">
<polygon fill="#e0e0e0" stroke="#999999" points="649,-79.5 599,-79.5 599,-60.5 649,-60.5 649,-79.5"/>
<text text-anchor="middle" x="624" y="-67.5" font-family="Helvetica,sans-Serif" font-size="10.00">cstdint</text>
</a>
</g>
</g>
<!-- Node8&#45;&gt;Node9 -->
<g id="edge8" class="edge">
<title>Node8&#45;&gt;Node9</title>
<path fill="none" stroke="#63b8ff" d="M740.22,-120.99C717.36,-111.16 679.51,-94.88 653.24,-83.58"/>
<polygon fill="#63b8ff" stroke="#63b8ff" points="654.37,-80.25 643.8,-79.52 651.6,-86.68 654.37,-80.25"/>
</g>
<!-- Node10 -->
<g id="node10" class="node">
<title>Node10</title>
<g id="a_node10"><a xlink:title=" ">
<polygon fill="#e0e0e0" stroke="#999999" points="856.5,-79.5 783.5,-79.5 783.5,-60.5 856.5,-60.5 856.5,-79.5"/>
<text text-anchor="middle" x="820" y="-67.5" font-family="Helvetica,sans-Serif" font-size="10.00">string_view</text>
</a>
</g>
</g>
<!-- Node8&#45;&gt;Node10 -->
<g id="edge9" class="edge">
<title>Node8&#45;&gt;Node10</title>
<path fill="none" stroke="#63b8ff" d="M768.85,-120.87C777.98,-111.97 792.42,-97.89 803.64,-86.95"/>
<polygon fill="#63b8ff" stroke="#63b8ff" points="806.39,-89.15 811.11,-79.67 801.51,-84.14 806.39,-89.15"/>
</g>
<!-- Node11 -->
<g id="node11" class="node">
<title>Node11</title>
<g id="a_node11"><a xlink:title=" ">
<polygon fill="#e0e0e0" stroke="#999999" points="863.5,-19 822.5,-19 822.5,0 863.5,0 863.5,-19"/>
<text text-anchor="middle" x="843" y="-7" font-family="Helvetica,sans-Serif" font-size="10.00">tuple</text>
</a>
</g>
</g>
<!-- Node8&#45;&gt;Node11 -->
<g id="edge10" class="edge">
<title>Node8&#45;&gt;Node11</title>
<path fill="none" stroke="#63b8ff" d="M759.67,-120.87C759.52,-106.09 761.1,-75.54 775,-55 784.32,-41.23 799.46,-30.71 813.09,-23.37"/>
<polygon fill="#63b8ff" stroke="#63b8ff" points="814.84,-26.41 822.2,-18.79 811.69,-20.15 814.84,-26.41"/>
</g>
<!-- Node8&#45;&gt;Node12 -->
<g id="edge11" class="edge">
<title>Node8&#45;&gt;Node12</title>
<path fill="none" stroke="#63b8ff" d="M784.86,-120.99C809.8,-112.46 848.9,-99.09 880.39,-88.32"/>
<polygon fill="#63b8ff" stroke="#63b8ff" points="881.56,-91.61 889.89,-85.06 879.29,-84.99 881.56,-91.61"/>
</g>
<!-- Node8&#45;&gt;Node13 -->
<g id="edge14" class="edge">
<title>Node8&#45;&gt;Node13</title>
<path fill="none" stroke="#63b8ff" d="M721.76,-120.99C675.01,-110.6 595.87,-92.99 545.06,-81.69"/>
<polygon fill="#63b8ff" stroke="#63b8ff" points="545.81,-78.27 535.29,-79.52 544.29,-85.1 545.81,-78.27"/>
</g>
<!-- Node12&#45;&gt;Node6 -->
<g id="edge13" class="edge">
<title>Node12&#45;&gt;Node6</title>
<path fill="none" stroke="#63b8ff" d="M951.58,-54.84C964.67,-45.83 981.59,-34.18 994.8,-25.09"/>
<polygon fill="#63b8ff" stroke="#63b8ff" points="997.01,-27.82 1003.26,-19.27 993.04,-22.05 997.01,-27.82"/>
</g>
<!-- Node12&#45;&gt;Node11 -->
<g id="edge12" class="edge">
<title>Node12&#45;&gt;Node11</title>
<path fill="none" stroke="#63b8ff" d="M909.7,-54.84C895.93,-45.68 878.07,-33.82 864.3,-24.66"/>
<polygon fill="#63b8ff" stroke="#63b8ff" points="866.19,-21.72 855.93,-19.09 862.32,-27.55 866.19,-21.72"/>
</g>
<!-- Node14 -->
<g id="node14" class="node">
<title>Node14</title>
<g id="a_node14"><a target="_blank" xlink:href="open62541/nodeids_8h.html" xlink:title=" ">
<polygon fill="white" stroke="#666666" points="557.5,-19 436.5,-19 436.5,0 557.5,0 557.5,-19"/>
<text text-anchor="middle" x="497" y="-7" font-family="Helvetica,sans-Serif" font-size="10.00">open62541/nodeids.h</text>
</a>
</g>
</g>
<!-- Node13&#45;&gt;Node14 -->
<g id="edge15" class="edge">
<title>Node13&#45;&gt;Node14</title>
<path fill="none" stroke="#63b8ff" d="M497,-60.37C497,-52.25 497,-39.81 497,-29.39"/>
<polygon fill="#63b8ff" stroke="#63b8ff" points="500.5,-29.17 497,-19.17 493.5,-29.17 500.5,-29.17"/>
</g>
<!-- Node15 -->
<g id="node15" class="node">
<title>Node15</title>
<g id="a_node15"><a target="_blank" xlink:href="open62541/types_8h.html" xlink:title=" ">
<polygon fill="white" stroke="#666666" points="686,-19 576,-19 576,0 686,0 686,-19"/>
<text text-anchor="middle" x="631" y="-7" font-family="Helvetica,sans-Serif" font-size="10.00">open62541/types.h</text>
</a>
</g>
</g>
<!-- Node13&#45;&gt;Node15 -->
<g id="edge16" class="edge">
<title>Node13&#45;&gt;Node15</title>
<path fill="none" stroke="#63b8ff" d="M516.48,-60.49C539.01,-50.66 576.31,-34.38 602.19,-23.08"/>
<polygon fill="#63b8ff" stroke="#63b8ff" points="603.73,-26.23 611.49,-19.02 600.93,-19.81 603.73,-26.23"/>
</g>
<!-- Node16 -->
<g id="node16" class="node">
<title>Node16</title>
<g id="a_node16"><a target="_blank" xlink:href="open62541/types__generated_8h.html" xlink:title=" ">
<polygon fill="white" stroke="#666666" points="418,-19 254,-19 254,0 418,0 418,-19"/>
<text text-anchor="middle" x="336" y="-7" font-family="Helvetica,sans-Serif" font-size="10.00">open62541/types_generated.h</text>
</a>
</g>
</g>
<!-- Node13&#45;&gt;Node16 -->
<g id="edge17" class="edge">
<title>Node13&#45;&gt;Node16</title>
<path fill="none" stroke="#63b8ff" d="M473.59,-60.49C446.05,-50.49 400.13,-33.8 368.99,-22.49"/>
<polygon fill="#63b8ff" stroke="#63b8ff" points="370.03,-19.14 359.44,-19.02 367.64,-25.72 370.03,-19.14"/>
</g>
<!-- Node17&#45;&gt;Node5 -->
<g id="edge20" class="edge">
<title>Node17&#45;&gt;Node5</title>
<path fill="none" stroke="#63b8ff" d="M241.57,-181.37C226.92,-171.95 203.24,-156.73 185.9,-145.58"/>
<polygon fill="#63b8ff" stroke="#63b8ff" points="187.79,-142.63 177.48,-140.17 184,-148.52 187.79,-142.63"/>
</g>
<!-- Node17&#45;&gt;Node13 -->
<g id="edge21" class="edge">
<title>Node17&#45;&gt;Node13</title>
<path fill="none" stroke="#63b8ff" d="M264.61,-181.49C281.06,-167.27 316.15,-138.54 350,-121 382.9,-103.95 422.85,-90.8 452.8,-82.27"/>
<polygon fill="#63b8ff" stroke="#63b8ff" points="453.85,-85.61 462.54,-79.55 451.97,-78.87 453.85,-85.61"/>
</g>
<!-- Node18 -->
<g id="node18" class="node">
<title>Node18</title>
<g id="a_node18"><a xlink:title=" ">
<polygon fill="#e0e0e0" stroke="#999999" points="287.5,-140 222.5,-140 222.5,-121 287.5,-121 287.5,-140"/>
<text text-anchor="middle" x="255" y="-128" font-family="Helvetica,sans-Serif" font-size="10.00">stdexcept</text>
</a>
</g>
</g>
<!-- Node17&#45;&gt;Node18 -->
<g id="edge19" class="edge">
<title>Node17&#45;&gt;Node18</title>
<path fill="none" stroke="#63b8ff" d="M255,-181.37C255,-173.25 255,-160.81 255,-150.39"/>
<polygon fill="#63b8ff" stroke="#63b8ff" points="258.5,-150.17 255,-140.17 251.5,-150.17 258.5,-150.17"/>
</g>
<!-- Node19&#45;&gt;Node6 -->
<g id="edge25" class="edge">
<title>Node19&#45;&gt;Node6</title>
<path fill="none" stroke="#63b8ff" d="M729.21,-243.15C793.1,-236.06 876.95,-223.77 906,-206 963.4,-170.88 967.9,-145.67 997,-85 1005.64,-66.99 1010.67,-44.57 1013.36,-29.06"/>
<polygon fill="#63b8ff" stroke="#63b8ff" points="1016.82,-29.57 1014.92,-19.14 1009.91,-28.48 1016.82,-29.57"/>
</g>
<!-- Node19&#45;&gt;Node8 -->
<g id="edge27" class="edge">
<title>Node19&#45;&gt;Node8</title>
<path fill="none" stroke="#63b8ff" d="M665.54,-241.9C679.15,-233.85 698.9,-220.86 713,-206 729.24,-188.89 742.97,-165.36 751.32,-149.35"/>
<polygon fill="#63b8ff" stroke="#63b8ff" points="754.63,-150.57 756,-140.06 748.38,-147.42 754.63,-150.57"/>
</g>
<!-- Node19&#45;&gt;Node9 -->
<g id="edge24" class="edge">
<title>Node19&#45;&gt;Node9</title>
<path fill="none" stroke="#63b8ff" d="M648.75,-241.84C644.76,-214.3 632.29,-128.26 626.73,-89.84"/>
<polygon fill="#63b8ff" stroke="#63b8ff" points="630.14,-88.97 625.24,-79.57 623.21,-89.97 630.14,-88.97"/>
</g>
<!-- Node19&#45;&gt;Node13 -->
<g id="edge35" class="edge">
<title>Node19&#45;&gt;Node13</title>
<path fill="none" stroke="#63b8ff" d="M642.62,-241.84C618.64,-213.7 542.62,-124.52 511,-87.43"/>
<polygon fill="#63b8ff" stroke="#63b8ff" points="513.46,-84.91 504.31,-79.57 508.13,-89.45 513.46,-84.91"/>
</g>
<!-- Node19&#45;&gt;Node17 -->
<g id="edge28" class="edge">
<title>Node19&#45;&gt;Node17</title>
<path fill="none" stroke="#63b8ff" d="M592.56,-241.99C520.89,-231.38 398.52,-213.26 322.46,-201.99"/>
<polygon fill="#63b8ff" stroke="#63b8ff" points="322.91,-198.52 312.51,-200.52 321.89,-205.44 322.91,-198.52"/>
</g>
<!-- Node20 -->
<g id="node20" class="node">
<title>Node20</title>
<g id="a_node20"><a xlink:title=" ">
<polygon fill="#e0e0e0" stroke="#999999" points="938,-140 886,-140 886,-121 938,-121 938,-140"/>
<text text-anchor="middle" x="912" y="-128" font-family="Helvetica,sans-Serif" font-size="10.00">cassert</text>
</a>
</g>
</g>
<!-- Node19&#45;&gt;Node20 -->
<g id="edge23" class="edge">
<title>Node19&#45;&gt;Node20</title>
<path fill="none" stroke="#63b8ff" d="M729.29,-243.57C787.36,-237 859.89,-225.23 883,-206 899.71,-192.09 906.83,-167.3 909.84,-150.16"/>
<polygon fill="#63b8ff" stroke="#63b8ff" points="913.31,-150.59 911.28,-140.19 906.39,-149.59 913.31,-150.59"/>
</g>
<!-- Node21 -->
<g id="node21" class="node">
<title>Node21</title>
<g id="a_node21"><a xlink:title=" ">
<polygon fill="#e0e0e0" stroke="#999999" points="703.5,-200.5 658.5,-200.5 658.5,-181.5 703.5,-181.5 703.5,-200.5"/>
<text text-anchor="middle" x="681" y="-188.5" font-family="Helvetica,sans-Serif" font-size="10.00">utility</text>
</a>
</g>
</g>
<!-- Node19&#45;&gt;Node21 -->
<g id="edge26" class="edge">
<title>Node19&#45;&gt;Node21</title>
<path fill="none" stroke="#63b8ff" d="M654.57,-241.87C659.06,-233.4 666.03,-220.24 671.69,-209.57"/>
<polygon fill="#63b8ff" stroke="#63b8ff" points="674.82,-211.14 676.41,-200.67 668.63,-207.86 674.82,-211.14"/>
</g>
<!-- Node19&#45;&gt;Node22 -->
<g id="edge29" class="edge">
<title>Node19&#45;&gt;Node22</title>
<path fill="none" stroke="#63b8ff" d="M674.28,-241.99C698.53,-233.5 736.49,-220.2 767.17,-209.45"/>
<polygon fill="#63b8ff" stroke="#63b8ff" points="768.57,-212.67 776.85,-206.06 766.26,-206.07 768.57,-212.67"/>
</g>
<!-- Node23 -->
<g id="node23" class="node">
<title>Node23</title>
<g id="a_node23"><a xlink:href="comparison_8h.html" target="_top" xlink:title=" ">
<polygon fill="white" stroke="#666666" points="564,-206 430,-206 430,-176 564,-176 564,-206"/>
<text text-anchor="start" x="438" y="-194" font-family="Helvetica,sans-Serif" font-size="10.00">open62541pp/overloads</text>
<text text-anchor="middle" x="497" y="-183" font-family="Helvetica,sans-Serif" font-size="10.00">/comparison.h</text>
</a>
</g>
</g>
<!-- Node19&#45;&gt;Node23 -->
<g id="edge36" class="edge">
<title>Node19&#45;&gt;Node23</title>
<path fill="none" stroke="#63b8ff" d="M627.75,-241.99C605.73,-233.57 571.36,-220.43 543.38,-209.73"/>
<polygon fill="#63b8ff" stroke="#63b8ff" points="544.37,-206.37 533.78,-206.06 541.87,-212.9 544.37,-206.37"/>
</g>
<!-- Node22&#45;&gt;Node5 -->
<g id="edge31" class="edge">
<title>Node22&#45;&gt;Node5</title>
<path fill="none" stroke="#63b8ff" d="M760.4,-181.73C745.04,-179.67 728.4,-177.59 713,-176 491.38,-153.13 434.15,-167.07 213,-140 207.67,-139.35 202.04,-138.51 196.57,-137.62"/>
<polygon fill="#63b8ff" stroke="#63b8ff" points="196.82,-134.11 186.37,-135.87 195.64,-141.01 196.82,-134.11"/>
</g>
<!-- Node22&#45;&gt;Node8 -->
<g id="edge33" class="edge">
<title>Node22&#45;&gt;Node8</title>
<path fill="none" stroke="#63b8ff" d="M803.2,-175.84C794.93,-167.35 784.38,-156.52 775.77,-147.69"/>
<polygon fill="#63b8ff" stroke="#63b8ff" points="778.03,-144.99 768.54,-140.27 773.01,-149.87 778.03,-144.99"/>
</g>
<!-- Node22&#45;&gt;Node10 -->
<g id="edge32" class="edge">
<title>Node22&#45;&gt;Node10</title>
<path fill="none" stroke="#63b8ff" d="M825.22,-175.66C830.3,-165.94 836.35,-152.62 839,-140 842.67,-122.56 836.26,-103 829.92,-89.17"/>
<polygon fill="#63b8ff" stroke="#63b8ff" points="832.85,-87.22 825.25,-79.85 826.59,-90.35 832.85,-87.22"/>
</g>
<!-- Node22&#45;&gt;Node13 -->
<g id="edge34" class="edge">
<title>Node22&#45;&gt;Node13</title>
<path fill="none" stroke="#63b8ff" d="M778.88,-175.91C751.83,-165.9 714.68,-152.15 682,-140 628.55,-120.13 566.44,-96.95 529.5,-83.15"/>
<polygon fill="#63b8ff" stroke="#63b8ff" points="530.37,-79.74 519.78,-79.51 527.92,-86.29 530.37,-79.74"/>
</g>
<!-- Node22&#45;&gt;Node20 -->
<g id="edge30" class="edge">
<title>Node22&#45;&gt;Node20</title>
<path fill="none" stroke="#63b8ff" d="M840,-175.84C855,-166.6 874.5,-154.59 889.43,-145.4"/>
<polygon fill="#63b8ff" stroke="#63b8ff" points="891.36,-148.32 898.04,-140.09 887.69,-142.36 891.36,-148.32"/>
</g>
<!-- Node23&#45;&gt;Node13 -->
<g id="edge37" class="edge">
<title>Node23&#45;&gt;Node13</title>
<path fill="none" stroke="#63b8ff" d="M497,-175.88C497,-154.51 497,-113.89 497,-89.96"/>
<polygon fill="#63b8ff" stroke="#63b8ff" points="500.5,-89.71 497,-79.71 493.5,-89.71 500.5,-89.71"/>
</g>
<!-- Node24&#45;&gt;Node3 -->
<g id="edge42" class="edge">
<title>Node24&#45;&gt;Node3</title>
<path fill="none" stroke="#63b8ff" d="M409.81,-296.98C382.16,-287.99 338.42,-273.77 307.87,-263.84"/>
<polygon fill="#63b8ff" stroke="#63b8ff" points="308.65,-260.41 298.05,-260.65 306.48,-267.07 308.65,-260.41"/>
</g>
<!-- Node24&#45;&gt;Node5 -->
<g id="edge45" class="edge">
<title>Node24&#45;&gt;Node5</title>
<path fill="none" stroke="#63b8ff" d="M419.6,-296.89C390.17,-281.53 329.37,-250.24 307,-242 245.9,-219.5 205.33,-257.12 165,-206 152.76,-190.49 154.77,-166.96 158.38,-150.51"/>
<polygon fill="#63b8ff" stroke="#63b8ff" points="161.87,-150.99 160.99,-140.44 155.1,-149.24 161.87,-150.99"/>
</g>
<!-- Node24&#45;&gt;Node9 -->
<g id="edge43" class="edge">
<title>Node24&#45;&gt;Node9</title>
<path fill="none" stroke="#63b8ff" d="M437.24,-296.99C438.48,-288.05 440.3,-273.57 441,-261 441.47,-252.57 443.12,-250.17 441,-242 436.41,-224.28 425.59,-223.72 421,-206 417.66,-193.09 414.07,-187.39 421,-176 440.19,-144.48 538.67,-103.33 591.08,-83.18"/>
<polygon fill="#63b8ff" stroke="#63b8ff" points="592.5,-86.39 600.61,-79.56 590.02,-79.84 592.5,-86.39"/>
</g>
<!-- Node24&#45;&gt;Node10 -->
<g id="edge46" class="edge">
<title>Node24&#45;&gt;Node10</title>
<path fill="none" stroke="#63b8ff" d="M517.61,-296.94C635.68,-283.14 846.55,-252.68 906,-206 938.99,-180.1 970.61,-155.67 947,-121 941.56,-113.01 891.47,-94.9 855.85,-82.81"/>
<polygon fill="#63b8ff" stroke="#63b8ff" points="856.83,-79.44 846.23,-79.57 854.59,-86.08 856.83,-79.44"/>
</g>
<!-- Node24&#45;&gt;Node13 -->
<g id="edge48" class="edge">
<title>Node24&#45;&gt;Node13</title>
<path fill="none" stroke="#63b8ff" d="M419.97,-296.95C407.59,-289.35 391.35,-276.97 384,-261 376.94,-245.66 369.26,-216.61 388,-176 406.61,-135.66 448.18,-102.81 474.27,-85.15"/>
<polygon fill="#63b8ff" stroke="#63b8ff" points="476.35,-87.96 482.79,-79.55 472.51,-82.12 476.35,-87.96"/>
</g>
<!-- Node24&#45;&gt;Node19 -->
<g id="edge47" class="edge">
<title>Node24&#45;&gt;Node19</title>
<path fill="none" stroke="#63b8ff" d="M470.38,-296.98C507.09,-287.89 565.38,-273.46 605.55,-263.51"/>
<polygon fill="#63b8ff" stroke="#63b8ff" points="606.48,-266.88 615.35,-261.08 604.8,-260.09 606.48,-266.88"/>
</g>
<!-- Node25 -->
<g id="node25" class="node">
<title>Node25</title>
<g id="a_node25"><a xlink:title=" ">
<polygon fill="#e0e0e0" stroke="#999999" points="431.5,-261 392.5,-261 392.5,-242 431.5,-242 431.5,-261"/>
<text text-anchor="middle" x="412" y="-249" font-family="Helvetica,sans-Serif" font-size="10.00">ratio</text>
</a>
</g>
</g>
<!-- Node24&#45;&gt;Node25 -->
<g id="edge44" class="edge">
<title>Node24&#45;&gt;Node25</title>
<path fill="none" stroke="#63b8ff" d="M432.04,-296.75C428.79,-289.57 424.08,-279.18 420.05,-270.27"/>
<polygon fill="#63b8ff" stroke="#63b8ff" points="423.2,-268.75 415.89,-261.09 416.83,-271.64 423.2,-268.75"/>
</g>
</g>
</svg>
