<?xml version="1.0" encoding="UTF-8" standalone="no"?>
<!DOCTYPE svg PUBLIC "-//W3C//DTD SVG 1.1//EN"
 "http://www.w3.org/Graphics/SVG/1.1/DTD/svg11.dtd">
<!-- Generated by graphviz version 2.43.0 (0)
 -->
<!-- Title: /home/runner/work/open62541pp/open62541pp/include/open62541pp/TypeWrapper.h Pages: 1 -->
<svg width="428pt" height="284pt"
 viewBox="0.00 0.00 427.78 284.00" xmlns="http://www.w3.org/2000/svg" xmlns:xlink="http://www.w3.org/1999/xlink">
<g id="graph0" class="graph" transform="scale(1 1) rotate(0) translate(4 280)">
<title>/home/runner/work/open62541pp/open62541pp/include/open62541pp/TypeWrapper.h</title>
<!-- Node1 -->
<g id="node1" class="node">
<title>Node1</title>
<g id="a_node1"><a xlink:title=" ">
<polygon fill="#bfbfbf" stroke="black" points="211,-234.5 211,-275.5 404,-275.5 404,-234.5 211,-234.5"/>
<text text-anchor="start" x="219" y="-263.5" font-family="Helvetica,sans-Serif" font-size="10.00">/home/runner/work/open62541pp</text>
<text text-anchor="start" x="219" y="-252.5" font-family="Helvetica,sans-Serif" font-size="10.00">/open62541pp/include/open62541pp</text>
<text text-anchor="middle" x="307.5" y="-241.5" font-family="Helvetica,sans-Serif" font-size="10.00">/TypeWrapper.h</text>
</a>
</g>
</g>
<!-- Node2 -->
<g id="node2" class="node">
<title>Node2</title>
<g id="a_node2"><a xlink:href="NodeId_8h.html" target="_top" xlink:title=" ">
<polygon fill="none" stroke="black" points="0,-156.5 0,-197.5 193,-197.5 193,-156.5 0,-156.5"/>
<text text-anchor="start" x="8" y="-185.5" font-family="Helvetica,sans-Serif" font-size="10.00">/home/runner/work/open62541pp</text>
<text text-anchor="start" x="8" y="-174.5" font-family="Helvetica,sans-Serif" font-size="10.00">/open62541pp/include/open62541pp</text>
<text text-anchor="middle" x="96.5" y="-163.5" font-family="Helvetica,sans-Serif" font-size="10.00">/NodeId.h</text>
</a>
</g>
</g>
<!-- Node1&#45;&gt;Node2 -->
<g id="edge1" class="edge">
<title>Node1&#45;&gt;Node2</title>
<path fill="none" stroke="midnightblue" d="M243.72,-231.03C214.01,-220.33 179.05,-207.73 150.65,-197.51"/>
<polygon fill="midnightblue" stroke="midnightblue" points="242.57,-234.33 253.16,-234.43 244.94,-227.75 242.57,-234.33"/>
</g>
<!-- Node4 -->
<g id="node4" class="node">
<title>Node4</title>
<g id="a_node4"><a xlink:href="open62541pp_8h.html" target="_top" xlink:title=" ">
<polygon fill="none" stroke="black" points="189,-0.5 189,-41.5 382,-41.5 382,-0.5 189,-0.5"/>
<text text-anchor="start" x="197" y="-29.5" font-family="Helvetica,sans-Serif" font-size="10.00">/home/runner/work/open62541pp</text>
<text text-anchor="start" x="197" y="-18.5" font-family="Helvetica,sans-Serif" font-size="10.00">/open62541pp/include/open62541pp</text>
<text text-anchor="middle" x="285.5" y="-7.5" font-family="Helvetica,sans-Serif" font-size="10.00">/open62541pp.h</text>
</a>
</g>
</g>
<!-- Node1&#45;&gt;Node4 -->
<g id="edge5" class="edge">
<title>Node1&#45;&gt;Node4</title>
<path fill="none" stroke="midnightblue" d="M379.64,-229.54C393.12,-221.61 405.48,-211.31 413.5,-198 423.14,-182.01 420.11,-173.46 413.5,-156 394.58,-106.06 346.38,-64.54 314.82,-41.52"/>
<polygon fill="midnightblue" stroke="midnightblue" points="377.78,-226.57 370.66,-234.41 381.12,-232.72 377.78,-226.57"/>
</g>
<!-- Node5 -->
<g id="node5" class="node">
<title>Node5</title>
<g id="a_node5"><a xlink:href="Variant_8h.html" target="_top" xlink:title=" ">
<polygon fill="none" stroke="black" points="211,-156.5 211,-197.5 404,-197.5 404,-156.5 211,-156.5"/>
<text text-anchor="start" x="219" y="-185.5" font-family="Helvetica,sans-Serif" font-size="10.00">/home/runner/work/open62541pp</text>
<text text-anchor="start" x="219" y="-174.5" font-family="Helvetica,sans-Serif" font-size="10.00">/open62541pp/include/open62541pp</text>
<text text-anchor="middle" x="307.5" y="-163.5" font-family="Helvetica,sans-Serif" font-size="10.00">/Variant.h</text>
</a>
</g>
</g>
<!-- Node1&#45;&gt;Node5 -->
<g id="edge6" class="edge">
<title>Node1&#45;&gt;Node5</title>
<path fill="none" stroke="midnightblue" d="M307.5,-224.3C307.5,-215.3 307.5,-205.65 307.5,-197.51"/>
<polygon fill="midnightblue" stroke="midnightblue" points="304,-224.43 307.5,-234.43 311,-224.43 304,-224.43"/>
</g>
<!-- Node3 -->
<g id="node3" class="node">
<title>Node3</title>
<g id="a_node3"><a xlink:href="Node_8h.html" target="_top" xlink:title=" ">
<polygon fill="none" stroke="black" points="124.5,-78.5 124.5,-119.5 320.5,-119.5 320.5,-78.5 124.5,-78.5"/>
<text text-anchor="start" x="132.5" y="-107.5" font-family="Helvetica,sans-Serif" font-size="10.00">/home/runner/work/open62541pp</text>
<text text-anchor="start" x="132.5" y="-96.5" font-family="Helvetica,sans-Serif" font-size="10.00">/open62541pp/include/open62541pp/</text>
<text text-anchor="middle" x="222.5" y="-85.5" font-family="Helvetica,sans-Serif" font-size="10.00">Node.h</text>
</a>
</g>
</g>
<!-- Node2&#45;&gt;Node3 -->
<g id="edge2" class="edge">
<title>Node2&#45;&gt;Node3</title>
<path fill="none" stroke="midnightblue" d="M137.61,-151.2C154.66,-140.92 174.16,-129.16 190.16,-119.51"/>
<polygon fill="midnightblue" stroke="midnightblue" points="135.7,-148.27 128.95,-156.43 139.32,-154.26 135.7,-148.27"/>
</g>
<!-- Node2&#45;&gt;Node4 -->
<g id="edge4" class="edge">
<title>Node2&#45;&gt;Node4</title>
<path fill="none" stroke="midnightblue" d="M94.77,-146C95.17,-124.6 99.23,-96.47 115.5,-78 134.39,-56.55 161.66,-43.28 188.85,-35.09"/>
<polygon fill="midnightblue" stroke="midnightblue" points="91.27,-146.21 94.84,-156.18 98.27,-146.16 91.27,-146.21"/>
</g>
<!-- Node3&#45;&gt;Node4 -->
<g id="edge3" class="edge">
<title>Node3&#45;&gt;Node4</title>
<path fill="none" stroke="midnightblue" d="M245.19,-70.63C253.18,-60.99 261.99,-50.36 269.33,-41.51"/>
<polygon fill="midnightblue" stroke="midnightblue" points="242.41,-68.5 238.72,-78.43 247.8,-72.96 242.41,-68.5"/>
</g>
<!-- Node5&#45;&gt;Node3 -->
<g id="edge7" class="edge">
<title>Node5&#45;&gt;Node3</title>
<path fill="none" stroke="midnightblue" d="M277.85,-149.49C266.82,-139.63 254.52,-128.63 244.32,-119.51"/>
<polygon fill="midnightblue" stroke="midnightblue" points="275.82,-152.37 285.61,-156.43 280.49,-147.15 275.82,-152.37"/>
</g>
<!-- Node5&#45;&gt;Node4 -->
<g id="edge8" class="edge">
<title>Node5&#45;&gt;Node4</title>
<path fill="none" stroke="midnightblue" d="M322.27,-147.11C330.39,-127.34 337.35,-100.7 329.5,-78 324.77,-64.33 315.17,-51.46 306.15,-41.51"/>
<polygon fill="midnightblue" stroke="midnightblue" points="318.97,-145.93 318.13,-156.49 325.37,-148.76 318.97,-145.93"/>
</g>
</g>
</svg>
