<?xml version="1.0" encoding="UTF-8" standalone="no"?>
<!DOCTYPE svg PUBLIC "-//W3C//DTD SVG 1.1//EN"
 "http://www.w3.org/Graphics/SVG/1.1/DTD/svg11.dtd">
<!-- Generated by graphviz version 2.43.0 (0)
 -->
<!-- Title: /home/runner/work/open62541pp/open62541pp/include/open62541pp/TypeWrapper.h Pages: 1 -->
<svg width="670pt" height="296pt"
 viewBox="0.00 0.00 670.46 296.00" xmlns="http://www.w3.org/2000/svg" xmlns:xlink="http://www.w3.org/1999/xlink">
<g id="graph0" class="graph" transform="scale(1 1) rotate(0) translate(4 292)">
<title>/home/runner/work/open62541pp/open62541pp/include/open62541pp/TypeWrapper.h</title>
<!-- Node1 -->
<g id="node1" class="node">
<title>Node1</title>
<g id="a_node1"><a xlink:title=" ">
<polygon fill="#bfbfbf" stroke="black" points="68.96,-246.5 68.96,-287.5 261.96,-287.5 261.96,-246.5 68.96,-246.5"/>
<text text-anchor="start" x="76.96" y="-275.5" font-family="Helvetica,sans-Serif" font-size="10.00">/home/runner/work/open62541pp</text>
<text text-anchor="start" x="76.96" y="-264.5" font-family="Helvetica,sans-Serif" font-size="10.00">/open62541pp/include/open62541pp</text>
<text text-anchor="middle" x="165.46" y="-253.5" font-family="Helvetica,sans-Serif" font-size="10.00">/TypeWrapper.h</text>
</a>
</g>
</g>
<!-- Node2 -->
<g id="node2" class="node">
<title>Node2</title>
<g id="a_node2"><a xlink:title=" ">
<polygon fill="none" stroke="#bfbfbf" points="53.46,-123.5 53.46,-142.5 105.46,-142.5 105.46,-123.5 53.46,-123.5"/>
<text text-anchor="middle" x="79.46" y="-130.5" font-family="Helvetica,sans-Serif" font-size="10.00">cassert</text>
</a>
</g>
</g>
<!-- Node1&#45;&gt;Node2 -->
<g id="edge1" class="edge">
<title>Node1&#45;&gt;Node2</title>
<path fill="none" stroke="midnightblue" d="M120.86,-246.4C106.02,-237.52 91.09,-225.49 82.46,-210 72.64,-192.38 73.47,-168.73 75.74,-152.52"/>
<polygon fill="midnightblue" stroke="midnightblue" points="79.19,-153.09 77.42,-142.65 72.29,-151.92 79.19,-153.09"/>
</g>
<!-- Node3 -->
<g id="node3" class="node">
<title>Node3</title>
<g id="a_node3"><a xlink:title=" ">
<polygon fill="none" stroke="#bfbfbf" points="21.46,-62 21.46,-81 71.46,-81 71.46,-62 21.46,-62"/>
<text text-anchor="middle" x="46.46" y="-69" font-family="Helvetica,sans-Serif" font-size="10.00">cstdint</text>
</a>
</g>
</g>
<!-- Node1&#45;&gt;Node3 -->
<g id="edge2" class="edge">
<title>Node1&#45;&gt;Node3</title>
<path fill="none" stroke="midnightblue" d="M119.47,-246.35C102.58,-237.29 84.44,-225.15 71.46,-210 45.12,-179.25 43.66,-163.48 44.46,-123 44.67,-112.52 45.12,-100.83 45.54,-91.34"/>
<polygon fill="midnightblue" stroke="midnightblue" points="49.05,-91.23 46.02,-81.07 42.05,-90.9 49.05,-91.23"/>
</g>
<!-- Node4 -->
<g id="node4" class="node">
<title>Node4</title>
<g id="a_node4"><a xlink:title=" ">
<polygon fill="none" stroke="#bfbfbf" points="18.96,-0.5 18.96,-19.5 87.96,-19.5 87.96,-0.5 18.96,-0.5"/>
<text text-anchor="middle" x="53.46" y="-7.5" font-family="Helvetica,sans-Serif" font-size="10.00">type_traits</text>
</a>
</g>
</g>
<!-- Node1&#45;&gt;Node4 -->
<g id="edge3" class="edge">
<title>Node1&#45;&gt;Node4</title>
<path fill="none" stroke="midnightblue" d="M99.44,-246.38C80.38,-237.89 61.09,-226.1 47.46,-210 2.11,-156.43 -12.89,-121.45 12.46,-56 16.91,-44.5 25.83,-34.13 34.21,-26.25"/>
<polygon fill="midnightblue" stroke="midnightblue" points="36.7,-28.73 41.92,-19.51 32.09,-23.46 36.7,-28.73"/>
</g>
<!-- Node5 -->
<g id="node5" class="node">
<title>Node5</title>
<g id="a_node5"><a xlink:title=" ">
<polygon fill="none" stroke="#bfbfbf" points="91.96,-185 91.96,-204 136.96,-204 136.96,-185 91.96,-185"/>
<text text-anchor="middle" x="114.46" y="-192" font-family="Helvetica,sans-Serif" font-size="10.00">utility</text>
</a>
</g>
</g>
<!-- Node1&#45;&gt;Node5 -->
<g id="edge4" class="edge">
<title>Node1&#45;&gt;Node5</title>
<path fill="none" stroke="midnightblue" d="M151.25,-246.36C143.5,-235.65 134.01,-222.52 126.6,-212.29"/>
<polygon fill="midnightblue" stroke="midnightblue" points="129.43,-210.22 120.73,-204.17 123.76,-214.33 129.43,-210.22"/>
</g>
<!-- Node6 -->
<g id="node6" class="node">
<title>Node6</title>
<g id="a_node6"><a xlink:href="Common_8h.html" target="_top" xlink:title=" ">
<polygon fill="none" stroke="black" points="161.96,-123.5 161.96,-142.5 300.96,-142.5 300.96,-123.5 161.96,-123.5"/>
<text text-anchor="middle" x="231.46" y="-130.5" font-family="Helvetica,sans-Serif" font-size="10.00">open62541pp/Common.h</text>
</a>
</g>
</g>
<!-- Node1&#45;&gt;Node6 -->
<g id="edge5" class="edge">
<title>Node1&#45;&gt;Node6</title>
<path fill="none" stroke="midnightblue" d="M166.49,-246.18C168.19,-227.74 172.66,-200.04 184.46,-179 191.04,-167.26 201.67,-156.71 211.16,-148.77"/>
<polygon fill="midnightblue" stroke="midnightblue" points="213.4,-151.46 219.07,-142.51 209.06,-145.97 213.4,-151.46"/>
</g>
<!-- Node10 -->
<g id="node10" class="node">
<title>Node10</title>
<g id="a_node10"><a xlink:href="open62541_8h.html" target="_top" xlink:title=" ">
<polygon fill="none" stroke="black" points="350.96,-62 350.96,-81 499.96,-81 499.96,-62 350.96,-62"/>
<text text-anchor="middle" x="425.46" y="-69" font-family="Helvetica,sans-Serif" font-size="10.00">open62541pp/open62541.h</text>
</a>
</g>
</g>
<!-- Node1&#45;&gt;Node10 -->
<g id="edge27" class="edge">
<title>Node1&#45;&gt;Node10</title>
<path fill="none" stroke="midnightblue" d="M262.05,-261.58C395.62,-254.46 623.25,-238.31 648.46,-210 704.95,-146.59 560.41,-102.53 478.04,-83.33"/>
<polygon fill="midnightblue" stroke="midnightblue" points="478.6,-79.87 468.07,-81.06 477.05,-86.69 478.6,-79.87"/>
</g>
<!-- Node14 -->
<g id="node14" class="node">
<title>Node14</title>
<g id="a_node14"><a xlink:href="ErrorHandling_8h.html" target="_top" xlink:title=" ">
<polygon fill="none" stroke="black" points="477.96,-185 477.96,-204 638.96,-204 638.96,-185 477.96,-185"/>
<text text-anchor="middle" x="558.46" y="-192" font-family="Helvetica,sans-Serif" font-size="10.00">open62541pp/ErrorHandling.h</text>
</a>
</g>
</g>
<!-- Node1&#45;&gt;Node14 -->
<g id="edge16" class="edge">
<title>Node1&#45;&gt;Node14</title>
<path fill="none" stroke="midnightblue" d="M262.1,-248.66C337.02,-235.22 438.32,-217.05 500.97,-205.81"/>
<polygon fill="midnightblue" stroke="midnightblue" points="501.84,-209.21 511.06,-204 500.6,-202.32 501.84,-209.21"/>
</g>
<!-- Node17 -->
<g id="node17" class="node">
<title>Node17</title>
<g id="a_node17"><a xlink:href="helper_8h.html" target="_top" xlink:title=" ">
<polygon fill="none" stroke="black" points="193.96,-179.5 193.96,-209.5 306.96,-209.5 306.96,-179.5 193.96,-179.5"/>
<text text-anchor="start" x="201.96" y="-197.5" font-family="Helvetica,sans-Serif" font-size="10.00">open62541pp/detail</text>
<text text-anchor="middle" x="250.46" y="-186.5" font-family="Helvetica,sans-Serif" font-size="10.00">/helper.h</text>
</a>
</g>
</g>
<!-- Node1&#45;&gt;Node17 -->
<g id="edge20" class="edge">
<title>Node1&#45;&gt;Node17</title>
<path fill="none" stroke="midnightblue" d="M189.14,-246.36C200.44,-236.99 213.97,-225.76 225.45,-216.25"/>
<polygon fill="midnightblue" stroke="midnightblue" points="227.91,-218.75 233.38,-209.67 223.44,-213.36 227.91,-218.75"/>
</g>
<!-- Node18 -->
<g id="node18" class="node">
<title>Node18</title>
<g id="a_node18"><a xlink:href="comparison_8h.html" target="_top" xlink:title=" ">
<polygon fill="none" stroke="black" points="325.46,-179.5 325.46,-209.5 459.46,-209.5 459.46,-179.5 325.46,-179.5"/>
<text text-anchor="start" x="333.46" y="-197.5" font-family="Helvetica,sans-Serif" font-size="10.00">open62541pp/overloads</text>
<text text-anchor="middle" x="392.46" y="-186.5" font-family="Helvetica,sans-Serif" font-size="10.00">/comparison.h</text>
</a>
</g>
</g>
<!-- Node1&#45;&gt;Node18 -->
<g id="edge28" class="edge">
<title>Node1&#45;&gt;Node18</title>
<path fill="none" stroke="midnightblue" d="M228.39,-246.46C262.52,-235.86 304.31,-222.88 337.18,-212.67"/>
<polygon fill="midnightblue" stroke="midnightblue" points="338.56,-215.91 347.07,-209.6 336.48,-209.22 338.56,-215.91"/>
</g>
<!-- Node6&#45;&gt;Node3 -->
<g id="edge6" class="edge">
<title>Node6&#45;&gt;Node3</title>
<path fill="none" stroke="midnightblue" d="M199.01,-123.48C168.19,-115.12 120.73,-101.53 80.46,-87 78.6,-86.33 76.7,-85.61 74.8,-84.87"/>
<polygon fill="midnightblue" stroke="midnightblue" points="75.95,-81.56 65.37,-81.01 73.3,-88.04 75.95,-81.56"/>
</g>
<!-- Node7 -->
<g id="node7" class="node">
<title>Node7</title>
<g id="a_node7"><a xlink:title=" ">
<polygon fill="none" stroke="#bfbfbf" points="259.96,-62 259.96,-81 332.96,-81 332.96,-62 259.96,-62"/>
<text text-anchor="middle" x="296.46" y="-69" font-family="Helvetica,sans-Serif" font-size="10.00">string_view</text>
</a>
</g>
</g>
<!-- Node6&#45;&gt;Node7 -->
<g id="edge7" class="edge">
<title>Node6&#45;&gt;Node7</title>
<path fill="none" stroke="midnightblue" d="M240.77,-123.48C250.91,-114.2 267.32,-99.17 279.71,-87.83"/>
<polygon fill="midnightblue" stroke="midnightblue" points="282.15,-90.34 287.16,-81.01 277.42,-85.18 282.15,-90.34"/>
</g>
<!-- Node8 -->
<g id="node8" class="node">
<title>Node8</title>
<g id="a_node8"><a xlink:title=" ">
<polygon fill="none" stroke="#bfbfbf" points="148.96,-0.5 148.96,-19.5 189.96,-19.5 189.96,-0.5 148.96,-0.5"/>
<text text-anchor="middle" x="169.46" y="-7.5" font-family="Helvetica,sans-Serif" font-size="10.00">tuple</text>
</a>
</g>
</g>
<!-- Node6&#45;&gt;Node8 -->
<g id="edge8" class="edge">
<title>Node6&#45;&gt;Node8</title>
<path fill="none" stroke="midnightblue" d="M230.54,-123.04C228.72,-108.27 223.72,-78.22 211.46,-56 205.36,-44.94 195.93,-34.5 187.56,-26.46"/>
<polygon fill="midnightblue" stroke="midnightblue" points="189.74,-23.71 179.99,-19.55 185.02,-28.88 189.74,-23.71"/>
</g>
<!-- Node9 -->
<g id="node9" class="node">
<title>Node9</title>
<g id="a_node9"><a xlink:href="traits_8h.html" target="_top" xlink:title=" ">
<polygon fill="none" stroke="black" points="89.96,-56.5 89.96,-86.5 202.96,-86.5 202.96,-56.5 89.96,-56.5"/>
<text text-anchor="start" x="97.96" y="-74.5" font-family="Helvetica,sans-Serif" font-size="10.00">open62541pp/detail</text>
<text text-anchor="middle" x="146.46" y="-63.5" font-family="Helvetica,sans-Serif" font-size="10.00">/traits.h</text>
</a>
</g>
</g>
<!-- Node6&#45;&gt;Node9 -->
<g id="edge9" class="edge">
<title>Node6&#45;&gt;Node9</title>
<path fill="none" stroke="midnightblue" d="M219.28,-123.48C207.77,-115.42 190.06,-103.02 174.99,-92.47"/>
<polygon fill="midnightblue" stroke="midnightblue" points="176.69,-89.39 166.49,-86.52 172.68,-95.12 176.69,-89.39"/>
</g>
<!-- Node6&#45;&gt;Node10 -->
<g id="edge12" class="edge">
<title>Node6&#45;&gt;Node10</title>
<path fill="none" stroke="midnightblue" d="M259.26,-123.48C293.11,-113.09 350.43,-95.51 388.11,-83.95"/>
<polygon fill="midnightblue" stroke="midnightblue" points="389.18,-87.29 397.72,-81.01 387.13,-80.6 389.18,-87.29"/>
</g>
<!-- Node9&#45;&gt;Node4 -->
<g id="edge11" class="edge">
<title>Node9&#45;&gt;Node4</title>
<path fill="none" stroke="midnightblue" d="M124.42,-56.4C109.65,-46.95 90.28,-34.56 75.51,-25.11"/>
<polygon fill="midnightblue" stroke="midnightblue" points="77.3,-22.1 66.99,-19.66 73.53,-28 77.3,-22.1"/>
</g>
<!-- Node9&#45;&gt;Node8 -->
<g id="edge10" class="edge">
<title>Node9&#45;&gt;Node8</title>
<path fill="none" stroke="midnightblue" d="M151.91,-56.4C155.08,-48.2 159.11,-37.78 162.5,-28.99"/>
<polygon fill="midnightblue" stroke="midnightblue" points="165.77,-30.25 166.11,-19.66 159.24,-27.72 165.77,-30.25"/>
</g>
<!-- Node11 -->
<g id="node11" class="node">
<title>Node11</title>
<g id="a_node11"><a target="_blank" xlink:href="open62541/nodeids_8h.html.html" xlink:title=" ">
<polygon fill="none" stroke="black" points="230.96,-0.5 230.96,-19.5 351.96,-19.5 351.96,-0.5 230.96,-0.5"/>
<text text-anchor="middle" x="291.46" y="-7.5" font-family="Helvetica,sans-Serif" font-size="10.00">open62541/nodeids.h</text>
</a>
</g>
</g>
<!-- Node10&#45;&gt;Node11 -->
<g id="edge13" class="edge">
<title>Node10&#45;&gt;Node11</title>
<path fill="none" stroke="midnightblue" d="M406.26,-61.98C383.67,-51.95 345.96,-35.2 319.96,-23.65"/>
<polygon fill="midnightblue" stroke="midnightblue" points="321.18,-20.37 310.62,-19.51 318.34,-26.77 321.18,-20.37"/>
</g>
<!-- Node12 -->
<g id="node12" class="node">
<title>Node12</title>
<g id="a_node12"><a target="_blank" xlink:href="open62541/types_8h.html.html" xlink:title=" ">
<polygon fill="none" stroke="black" points="370.46,-0.5 370.46,-19.5 480.46,-19.5 480.46,-0.5 370.46,-0.5"/>
<text text-anchor="middle" x="425.46" y="-7.5" font-family="Helvetica,sans-Serif" font-size="10.00">open62541/types.h</text>
</a>
</g>
</g>
<!-- Node10&#45;&gt;Node12 -->
<g id="edge14" class="edge">
<title>Node10&#45;&gt;Node12</title>
<path fill="none" stroke="midnightblue" d="M425.46,-61.98C425.46,-53.58 425.46,-40.48 425.46,-29.66"/>
<polygon fill="midnightblue" stroke="midnightblue" points="428.96,-29.51 425.46,-19.51 421.96,-29.51 428.96,-29.51"/>
</g>
<!-- Node13 -->
<g id="node13" class="node">
<title>Node13</title>
<g id="a_node13"><a target="_blank" xlink:href="open62541/types__generated_8h.html.html" xlink:title=" ">
<polygon fill="none" stroke="black" points="498.46,-0.5 498.46,-19.5 662.46,-19.5 662.46,-0.5 498.46,-0.5"/>
<text text-anchor="middle" x="580.46" y="-7.5" font-family="Helvetica,sans-Serif" font-size="10.00">open62541/types_generated.h</text>
</a>
</g>
</g>
<!-- Node10&#45;&gt;Node13 -->
<g id="edge15" class="edge">
<title>Node10&#45;&gt;Node13</title>
<path fill="none" stroke="midnightblue" d="M447.67,-61.98C474.14,-51.81 518.57,-34.76 548.68,-23.2"/>
<polygon fill="midnightblue" stroke="midnightblue" points="550.21,-26.36 558.29,-19.51 547.7,-19.83 550.21,-26.36"/>
</g>
<!-- Node14&#45;&gt;Node10 -->
<g id="edge19" class="edge">
<title>Node14&#45;&gt;Node10</title>
<path fill="none" stroke="midnightblue" d="M563.66,-184.79C571.44,-170.51 583.84,-141.82 570.46,-123 556.14,-102.85 533.17,-90.67 509.7,-83.34"/>
<polygon fill="midnightblue" stroke="midnightblue" points="510.56,-79.94 499.99,-80.57 508.65,-86.68 510.56,-79.94"/>
</g>
<!-- Node15 -->
<g id="node15" class="node">
<title>Node15</title>
<g id="a_node15"><a xlink:title=" ">
<polygon fill="none" stroke="#bfbfbf" points="495.96,-123.5 495.96,-142.5 560.96,-142.5 560.96,-123.5 495.96,-123.5"/>
<text text-anchor="middle" x="528.46" y="-130.5" font-family="Helvetica,sans-Serif" font-size="10.00">stdexcept</text>
</a>
</g>
</g>
<!-- Node14&#45;&gt;Node15 -->
<g id="edge17" class="edge">
<title>Node14&#45;&gt;Node15</title>
<path fill="none" stroke="midnightblue" d="M554.16,-184.98C549.8,-176.32 542.9,-162.65 537.36,-151.65"/>
<polygon fill="midnightblue" stroke="midnightblue" points="540.38,-149.86 532.75,-142.51 534.13,-153.01 540.38,-149.86"/>
</g>
<!-- Node16 -->
<g id="node16" class="node">
<title>Node16</title>
<g id="a_node16"><a xlink:title=" ">
<polygon fill="none" stroke="#bfbfbf" points="433.46,-123.5 433.46,-142.5 477.46,-142.5 477.46,-123.5 433.46,-123.5"/>
<text text-anchor="middle" x="455.46" y="-130.5" font-family="Helvetica,sans-Serif" font-size="10.00">string</text>
</a>
</g>
</g>
<!-- Node14&#45;&gt;Node16 -->
<g id="edge18" class="edge">
<title>Node14&#45;&gt;Node16</title>
<path fill="none" stroke="midnightblue" d="M543.7,-184.98C526.8,-175.21 498.88,-159.08 478.97,-147.58"/>
<polygon fill="midnightblue" stroke="midnightblue" points="480.6,-144.48 470.19,-142.51 477.1,-150.54 480.6,-144.48"/>
</g>
<!-- Node17&#45;&gt;Node2 -->
<g id="edge21" class="edge">
<title>Node17&#45;&gt;Node2</title>
<path fill="none" stroke="midnightblue" d="M209.94,-179.4C180.73,-169.24 141.74,-155.67 114.01,-146.02"/>
<polygon fill="midnightblue" stroke="midnightblue" points="114.94,-142.64 104.34,-142.66 112.64,-149.25 114.94,-142.64"/>
</g>
<!-- Node17&#45;&gt;Node3 -->
<g id="edge22" class="edge">
<title>Node17&#45;&gt;Node3</title>
<path fill="none" stroke="midnightblue" d="M220.84,-179.31C201.16,-169.62 174.9,-156.19 152.46,-143 121.92,-125.05 88.07,-101.94 67.03,-87.17"/>
<polygon fill="midnightblue" stroke="midnightblue" points="68.77,-84.11 58.58,-81.2 64.73,-89.83 68.77,-84.11"/>
</g>
<!-- Node17&#45;&gt;Node6 -->
<g id="edge25" class="edge">
<title>Node17&#45;&gt;Node6</title>
<path fill="none" stroke="midnightblue" d="M245.96,-179.4C243.37,-171.29 240.08,-161.01 237.3,-152.28"/>
<polygon fill="midnightblue" stroke="midnightblue" points="240.6,-151.12 234.22,-142.66 233.93,-153.25 240.6,-151.12"/>
</g>
<!-- Node17&#45;&gt;Node7 -->
<g id="edge24" class="edge">
<title>Node17&#45;&gt;Node7</title>
<path fill="none" stroke="midnightblue" d="M275.46,-179.39C288.18,-170.71 302.41,-158.31 309.46,-143 317.17,-126.26 311.61,-105.3 305.55,-90.6"/>
<polygon fill="midnightblue" stroke="midnightblue" points="308.58,-88.8 301.24,-81.16 302.21,-91.71 308.58,-88.8"/>
</g>
<!-- Node17&#45;&gt;Node10 -->
<g id="edge26" class="edge">
<title>Node17&#45;&gt;Node10</title>
<path fill="none" stroke="midnightblue" d="M271.56,-179.47C286.63,-169.4 307.36,-155.47 325.46,-143 353.22,-123.87 384.99,-101.37 405.13,-87.02"/>
<polygon fill="midnightblue" stroke="midnightblue" points="407.4,-89.7 413.51,-81.05 403.34,-84 407.4,-89.7"/>
</g>
<!-- Node17&#45;&gt;Node16 -->
<g id="edge23" class="edge">
<title>Node17&#45;&gt;Node16</title>
<path fill="none" stroke="midnightblue" d="M298.78,-179.47C337.29,-168.3 390.13,-152.96 423.53,-143.27"/>
<polygon fill="midnightblue" stroke="midnightblue" points="424.61,-146.6 433.23,-140.45 422.65,-139.88 424.61,-146.6"/>
</g>
<!-- Node18&#45;&gt;Node10 -->
<g id="edge29" class="edge">
<title>Node18&#45;&gt;Node10</title>
<path fill="none" stroke="midnightblue" d="M396.38,-179.14C402.39,-157.1 413.88,-114.95 420.48,-90.76"/>
<polygon fill="midnightblue" stroke="midnightblue" points="423.87,-91.62 423.13,-81.05 417.12,-89.78 423.87,-91.62"/>
</g>
</g>
</svg>
