<?xml version="1.0" encoding="UTF-8" standalone="no"?>
<!DOCTYPE svg PUBLIC "-//W3C//DTD SVG 1.1//EN"
 "http://www.w3.org/Graphics/SVG/1.1/DTD/svg11.dtd">
<!-- Generated by graphviz version 2.43.0 (0)
 -->
<!-- Title: /home/runner/work/open62541pp/open62541pp/include/open62541pp/TypeWrapper.h Pages: 1 -->
<svg width="804pt" height="274pt"
 viewBox="0.00 0.00 803.50 274.00" xmlns="http://www.w3.org/2000/svg" xmlns:xlink="http://www.w3.org/1999/xlink">
<g id="graph0" class="graph" transform="scale(1 1) rotate(0) translate(4 270)">
<title>/home/runner/work/open62541pp/open62541pp/include/open62541pp/TypeWrapper.h</title>
<!-- Node1 -->
<g id="node1" class="node">
<title>Node1</title>
<g id="a_node1"><a xlink:title=" ">
<polygon fill="#bfbfbf" stroke="black" points="274.5,-224.5 274.5,-265.5 467.5,-265.5 467.5,-224.5 274.5,-224.5"/>
<text text-anchor="start" x="282.5" y="-253.5" font-family="Helvetica,sans-Serif" font-size="10.00">/home/runner/work/open62541pp</text>
<text text-anchor="start" x="282.5" y="-242.5" font-family="Helvetica,sans-Serif" font-size="10.00">/open62541pp/include/open62541pp</text>
<text text-anchor="middle" x="371" y="-231.5" font-family="Helvetica,sans-Serif" font-size="10.00">/TypeWrapper.h</text>
</a>
</g>
</g>
<!-- Node2 -->
<g id="node2" class="node">
<title>Node2</title>
<g id="a_node2"><a xlink:title=" ">
<polygon fill="none" stroke="#bfbfbf" points="0,-168.5 0,-187.5 42,-187.5 42,-168.5 0,-168.5"/>
<text text-anchor="middle" x="21" y="-175.5" font-family="Helvetica,sans-Serif" font-size="10.00">array</text>
</a>
</g>
</g>
<!-- Node1&#45;&gt;Node2 -->
<g id="edge1" class="edge">
<title>Node1&#45;&gt;Node2</title>
<path fill="none" stroke="midnightblue" d="M274.47,-228.79C211.94,-218.45 128.87,-203.82 56,-188 54.72,-187.72 53.42,-187.43 52.11,-187.13"/>
<polygon fill="midnightblue" stroke="midnightblue" points="52.58,-183.64 42.04,-184.68 50.93,-190.44 52.58,-183.64"/>
</g>
<!-- Node3 -->
<g id="node3" class="node">
<title>Node3</title>
<g id="a_node3"><a xlink:title=" ">
<polygon fill="none" stroke="#bfbfbf" points="44,-56.5 44,-75.5 94,-75.5 94,-56.5 44,-56.5"/>
<text text-anchor="middle" x="69" y="-63.5" font-family="Helvetica,sans-Serif" font-size="10.00">cstdint</text>
</a>
</g>
</g>
<!-- Node1&#45;&gt;Node3 -->
<g id="edge2" class="edge">
<title>Node1&#45;&gt;Node3</title>
<path fill="none" stroke="midnightblue" d="M274.47,-224.88C216.94,-208.92 146.34,-180.66 100,-132 87.36,-118.72 79.03,-99.33 74.22,-85.19"/>
<polygon fill="midnightblue" stroke="midnightblue" points="77.54,-84.08 71.21,-75.58 70.86,-86.17 77.54,-84.08"/>
</g>
<!-- Node4 -->
<g id="node4" class="node">
<title>Node4</title>
<g id="a_node4"><a xlink:title=" ">
<polygon fill="none" stroke="#bfbfbf" points="395,-112.5 395,-131.5 439,-131.5 439,-112.5 395,-112.5"/>
<text text-anchor="middle" x="417" y="-119.5" font-family="Helvetica,sans-Serif" font-size="10.00">string</text>
</a>
</g>
</g>
<!-- Node1&#45;&gt;Node4 -->
<g id="edge3" class="edge">
<title>Node1&#45;&gt;Node4</title>
<path fill="none" stroke="midnightblue" d="M381.44,-224.39C386.82,-213.8 393.24,-200.39 398,-188 403.93,-172.57 409.08,-154.48 412.51,-141.3"/>
<polygon fill="midnightblue" stroke="midnightblue" points="415.92,-142.11 414.98,-131.56 409.13,-140.4 415.92,-142.11"/>
</g>
<!-- Node5 -->
<g id="node5" class="node">
<title>Node5</title>
<g id="a_node5"><a xlink:title=" ">
<polygon fill="none" stroke="#bfbfbf" points="290.5,-56.5 290.5,-75.5 363.5,-75.5 363.5,-56.5 290.5,-56.5"/>
<text text-anchor="middle" x="327" y="-63.5" font-family="Helvetica,sans-Serif" font-size="10.00">string_view</text>
</a>
</g>
</g>
<!-- Node1&#45;&gt;Node5 -->
<g id="edge4" class="edge">
<title>Node1&#45;&gt;Node5</title>
<path fill="none" stroke="midnightblue" d="M298.4,-224.39C280.91,-216.08 264.32,-204.39 254,-188 249.26,-180.48 251.26,-176.46 254,-168 265.08,-133.75 292.59,-101.36 310.5,-82.88"/>
<polygon fill="midnightblue" stroke="midnightblue" points="313.15,-85.18 317.73,-75.62 308.19,-80.23 313.15,-85.18"/>
</g>
<!-- Node6 -->
<g id="node6" class="node">
<title>Node6</title>
<g id="a_node6"><a xlink:title=" ">
<polygon fill="none" stroke="#bfbfbf" points="663.5,-168.5 663.5,-187.5 732.5,-187.5 732.5,-168.5 663.5,-168.5"/>
<text text-anchor="middle" x="698" y="-175.5" font-family="Helvetica,sans-Serif" font-size="10.00">type_traits</text>
</a>
</g>
</g>
<!-- Node1&#45;&gt;Node6 -->
<g id="edge5" class="edge">
<title>Node1&#45;&gt;Node6</title>
<path fill="none" stroke="midnightblue" d="M467.78,-224.76C529.19,-212.55 605.76,-197.34 653.27,-187.89"/>
<polygon fill="midnightblue" stroke="midnightblue" points="654.11,-191.29 663.24,-185.91 652.75,-184.43 654.11,-191.29"/>
</g>
<!-- Node7 -->
<g id="node7" class="node">
<title>Node7</title>
<g id="a_node7"><a xlink:title=" ">
<polygon fill="none" stroke="#bfbfbf" points="750.5,-168.5 750.5,-187.5 795.5,-187.5 795.5,-168.5 750.5,-168.5"/>
<text text-anchor="middle" x="773" y="-175.5" font-family="Helvetica,sans-Serif" font-size="10.00">utility</text>
</a>
</g>
</g>
<!-- Node1&#45;&gt;Node7 -->
<g id="edge6" class="edge">
<title>Node1&#45;&gt;Node7</title>
<path fill="none" stroke="midnightblue" d="M467.73,-232.97C540.48,-223.85 642.69,-209.27 740.36,-188.14"/>
<polygon fill="midnightblue" stroke="midnightblue" points="741.38,-191.5 750.4,-185.94 739.88,-184.66 741.38,-191.5"/>
</g>
<!-- Node8 -->
<g id="node8" class="node">
<title>Node8</title>
<g id="a_node8"><a xlink:href="ErrorHandling_8h.html" target="_top" xlink:title=" ">
<polygon fill="none" stroke="black" points="445.5,-168.5 445.5,-187.5 606.5,-187.5 606.5,-168.5 445.5,-168.5"/>
<text text-anchor="middle" x="526" y="-175.5" font-family="Helvetica,sans-Serif" font-size="10.00">open62541pp/ErrorHandling.h</text>
</a>
</g>
</g>
<!-- Node1&#45;&gt;Node8 -->
<g id="edge7" class="edge">
<title>Node1&#45;&gt;Node8</title>
<path fill="none" stroke="midnightblue" d="M417.51,-224.5C442.98,-213.81 473.81,-200.89 496.09,-191.54"/>
<polygon fill="midnightblue" stroke="midnightblue" points="497.5,-194.75 505.37,-187.65 494.79,-188.29 497.5,-194.75"/>
</g>
<!-- Node10 -->
<g id="node10" class="node">
<title>Node10</title>
<g id="a_node10"><a xlink:href="open62541_8h.html" target="_top" xlink:title=" ">
<polygon fill="none" stroke="black" points="386.5,-56.5 386.5,-75.5 535.5,-75.5 535.5,-56.5 386.5,-56.5"/>
<text text-anchor="middle" x="461" y="-63.5" font-family="Helvetica,sans-Serif" font-size="10.00">open62541pp/open62541.h</text>
</a>
</g>
</g>
<!-- Node1&#45;&gt;Node10 -->
<g id="edge27" class="edge">
<title>Node1&#45;&gt;Node10</title>
<path fill="none" stroke="midnightblue" d="M467.54,-234.23C527.76,-225.92 597.27,-211.5 616,-188 655.13,-138.92 558.1,-97.92 500.31,-78.72"/>
<polygon fill="midnightblue" stroke="midnightblue" points="501.3,-75.36 490.7,-75.61 499.14,-82.02 501.3,-75.36"/>
</g>
<!-- Node14 -->
<g id="node14" class="node">
<title>Node14</title>
<g id="a_node14"><a xlink:href="Helper_8h.html" target="_top" xlink:title=" ">
<polygon fill="none" stroke="black" points="263,-168.5 263,-187.5 389,-187.5 389,-168.5 263,-168.5"/>
<text text-anchor="middle" x="326" y="-175.5" font-family="Helvetica,sans-Serif" font-size="10.00">open62541pp/Helper.h</text>
</a>
</g>
</g>
<!-- Node1&#45;&gt;Node14 -->
<g id="edge14" class="edge">
<title>Node1&#45;&gt;Node14</title>
<path fill="none" stroke="midnightblue" d="M357.5,-224.5C351.2,-215.39 343.77,-204.66 337.71,-195.91"/>
<polygon fill="midnightblue" stroke="midnightblue" points="340.56,-193.88 331.99,-187.65 334.8,-197.87 340.56,-193.88"/>
</g>
<!-- Node15 -->
<g id="node15" class="node">
<title>Node15</title>
<g id="a_node15"><a xlink:href="Types_8h.html" target="_top" xlink:title=" ">
<polygon fill="none" stroke="black" points="136,-112.5 136,-131.5 258,-131.5 258,-112.5 136,-112.5"/>
<text text-anchor="middle" x="197" y="-119.5" font-family="Helvetica,sans-Serif" font-size="10.00">open62541pp/Types.h</text>
</a>
</g>
</g>
<!-- Node1&#45;&gt;Node15 -->
<g id="edge26" class="edge">
<title>Node1&#45;&gt;Node15</title>
<path fill="none" stroke="midnightblue" d="M280.78,-224.38C259.04,-216.12 237.38,-204.44 221,-188 208.67,-175.63 202.61,-156.38 199.67,-142.04"/>
<polygon fill="midnightblue" stroke="midnightblue" points="203.05,-141.08 197.92,-131.81 196.16,-142.26 203.05,-141.08"/>
</g>
<!-- Node8&#45;&gt;Node4 -->
<g id="edge9" class="edge">
<title>Node8&#45;&gt;Node4</title>
<path fill="none" stroke="midnightblue" d="M508.49,-168.32C490.93,-159.62 463.67,-146.12 443.47,-136.11"/>
<polygon fill="midnightblue" stroke="midnightblue" points="444.98,-132.96 434.47,-131.65 441.88,-139.23 444.98,-132.96"/>
</g>
<!-- Node9 -->
<g id="node9" class="node">
<title>Node9</title>
<g id="a_node9"><a xlink:title=" ">
<polygon fill="none" stroke="#bfbfbf" points="495.5,-112.5 495.5,-131.5 560.5,-131.5 560.5,-112.5 495.5,-112.5"/>
<text text-anchor="middle" x="528" y="-119.5" font-family="Helvetica,sans-Serif" font-size="10.00">stdexcept</text>
</a>
</g>
</g>
<!-- Node8&#45;&gt;Node9 -->
<g id="edge8" class="edge">
<title>Node8&#45;&gt;Node9</title>
<path fill="none" stroke="midnightblue" d="M526.33,-168.08C526.59,-161.01 526.97,-150.86 527.3,-141.99"/>
<polygon fill="midnightblue" stroke="midnightblue" points="530.8,-141.87 527.68,-131.75 523.81,-141.61 530.8,-141.87"/>
</g>
<!-- Node8&#45;&gt;Node10 -->
<g id="edge10" class="edge">
<title>Node8&#45;&gt;Node10</title>
<path fill="none" stroke="midnightblue" d="M516.97,-168.4C508.36,-159.82 495.5,-145.95 487,-132 478.02,-117.26 471,-98.87 466.53,-85.41"/>
<polygon fill="midnightblue" stroke="midnightblue" points="469.86,-84.32 463.5,-75.85 463.18,-86.44 469.86,-84.32"/>
</g>
<!-- Node11 -->
<g id="node11" class="node">
<title>Node11</title>
<g id="a_node11"><a xlink:href="open62541/nodeids_8h.html.html" xlink:title=" ">
<polygon fill="none" stroke="black" points="266.5,-0.5 266.5,-19.5 387.5,-19.5 387.5,-0.5 266.5,-0.5"/>
<text text-anchor="middle" x="327" y="-7.5" font-family="Helvetica,sans-Serif" font-size="10.00">open62541/nodeids.h</text>
</a>
</g>
</g>
<!-- Node10&#45;&gt;Node11 -->
<g id="edge11" class="edge">
<title>Node10&#45;&gt;Node11</title>
<path fill="none" stroke="midnightblue" d="M439.77,-56.44C417.62,-47.52 382.68,-33.44 357.56,-23.32"/>
<polygon fill="midnightblue" stroke="midnightblue" points="358.72,-20.01 348.13,-19.52 356.1,-26.5 358.72,-20.01"/>
</g>
<!-- Node12 -->
<g id="node12" class="node">
<title>Node12</title>
<g id="a_node12"><a xlink:href="open62541/types_8h.html.html" xlink:title=" ">
<polygon fill="none" stroke="black" points="406,-0.5 406,-19.5 516,-19.5 516,-0.5 406,-0.5"/>
<text text-anchor="middle" x="461" y="-7.5" font-family="Helvetica,sans-Serif" font-size="10.00">open62541/types.h</text>
</a>
</g>
</g>
<!-- Node10&#45;&gt;Node12 -->
<g id="edge12" class="edge">
<title>Node10&#45;&gt;Node12</title>
<path fill="none" stroke="midnightblue" d="M461,-56.08C461,-49.01 461,-38.86 461,-29.99"/>
<polygon fill="midnightblue" stroke="midnightblue" points="464.5,-29.75 461,-19.75 457.5,-29.75 464.5,-29.75"/>
</g>
<!-- Node13 -->
<g id="node13" class="node">
<title>Node13</title>
<g id="a_node13"><a xlink:href="open62541/types__generated_8h.html.html" xlink:title=" ">
<polygon fill="none" stroke="black" points="534,-0.5 534,-19.5 698,-19.5 698,-0.5 534,-0.5"/>
<text text-anchor="middle" x="616" y="-7.5" font-family="Helvetica,sans-Serif" font-size="10.00">open62541/types_generated.h</text>
</a>
</g>
</g>
<!-- Node10&#45;&gt;Node13 -->
<g id="edge13" class="edge">
<title>Node10&#45;&gt;Node13</title>
<path fill="none" stroke="midnightblue" d="M485.56,-56.44C511.52,-47.4 552.67,-33.06 581.8,-22.92"/>
<polygon fill="midnightblue" stroke="midnightblue" points="583.26,-26.11 591.55,-19.52 580.96,-19.5 583.26,-26.11"/>
</g>
<!-- Node14&#45;&gt;Node3 -->
<g id="edge15" class="edge">
<title>Node14&#45;&gt;Node3</title>
<path fill="none" stroke="midnightblue" d="M262.72,-172.67C221.68,-167.54 168.35,-156.36 127,-132 106.93,-120.18 90.01,-99.05 79.72,-84.09"/>
<polygon fill="midnightblue" stroke="midnightblue" points="82.63,-82.14 74.2,-75.72 76.78,-86 82.63,-82.14"/>
</g>
<!-- Node14&#45;&gt;Node4 -->
<g id="edge16" class="edge">
<title>Node14&#45;&gt;Node4</title>
<path fill="none" stroke="midnightblue" d="M340.62,-168.32C354.95,-159.82 377.01,-146.73 393.75,-136.8"/>
<polygon fill="midnightblue" stroke="midnightblue" points="395.6,-139.77 402.42,-131.65 392.03,-133.75 395.6,-139.77"/>
</g>
<!-- Node14&#45;&gt;Node5 -->
<g id="edge17" class="edge">
<title>Node14&#45;&gt;Node5</title>
<path fill="none" stroke="midnightblue" d="M326.08,-168.37C326.24,-150.62 326.61,-109.67 326.83,-85.6"/>
<polygon fill="midnightblue" stroke="midnightblue" points="330.33,-85.62 326.92,-75.59 323.33,-85.56 330.33,-85.62"/>
</g>
<!-- Node14&#45;&gt;Node10 -->
<g id="edge25" class="edge">
<title>Node14&#45;&gt;Node10</title>
<path fill="none" stroke="midnightblue" d="M332.71,-168.27C343.14,-155.05 364.32,-129.64 386,-112 400.98,-99.82 419.58,-88.63 434.51,-80.46"/>
<polygon fill="midnightblue" stroke="midnightblue" points="436.54,-83.35 443.72,-75.55 433.25,-77.17 436.54,-83.35"/>
</g>
<!-- Node14&#45;&gt;Node15 -->
<g id="edge18" class="edge">
<title>Node14&#45;&gt;Node15</title>
<path fill="none" stroke="midnightblue" d="M305.56,-168.44C284.33,-159.56 250.9,-145.56 226.75,-135.45"/>
<polygon fill="midnightblue" stroke="midnightblue" points="227.92,-132.15 217.34,-131.52 225.22,-138.61 227.92,-132.15"/>
</g>
<!-- Node15&#45;&gt;Node3 -->
<g id="edge19" class="edge">
<title>Node15&#45;&gt;Node3</title>
<path fill="none" stroke="midnightblue" d="M176.72,-112.44C155.65,-103.56 122.48,-89.56 98.51,-79.45"/>
<polygon fill="midnightblue" stroke="midnightblue" points="99.76,-76.18 89.19,-75.52 97.04,-82.63 99.76,-76.18"/>
</g>
<!-- Node15&#45;&gt;Node5 -->
<g id="edge20" class="edge">
<title>Node15&#45;&gt;Node5</title>
<path fill="none" stroke="midnightblue" d="M217.6,-112.44C238.99,-103.56 272.68,-89.56 297.02,-79.45"/>
<polygon fill="midnightblue" stroke="midnightblue" points="298.61,-82.58 306.5,-75.52 295.92,-76.12 298.61,-82.58"/>
</g>
<!-- Node15&#45;&gt;Node10 -->
<g id="edge24" class="edge">
<title>Node15&#45;&gt;Node10</title>
<path fill="none" stroke="midnightblue" d="M238.83,-112.44C285.08,-102.98 359.61,-87.74 409.44,-77.55"/>
<polygon fill="midnightblue" stroke="midnightblue" points="410.27,-80.95 419.36,-75.52 408.87,-74.09 410.27,-80.95"/>
</g>
<!-- Node16 -->
<g id="node16" class="node">
<title>Node16</title>
<g id="a_node16"><a xlink:title=" ">
<polygon fill="none" stroke="#bfbfbf" points="182.5,-0.5 182.5,-19.5 223.5,-19.5 223.5,-0.5 182.5,-0.5"/>
<text text-anchor="middle" x="203" y="-7.5" font-family="Helvetica,sans-Serif" font-size="10.00">tuple</text>
</a>
</g>
</g>
<!-- Node15&#45;&gt;Node16 -->
<g id="edge21" class="edge">
<title>Node15&#45;&gt;Node16</title>
<path fill="none" stroke="midnightblue" d="M210.79,-112.19C221.83,-104.24 236.5,-91.45 243,-76 250.56,-58.03 236.22,-39.25 222.65,-26.52"/>
<polygon fill="midnightblue" stroke="midnightblue" points="224.76,-23.72 214.93,-19.78 220.16,-28.99 224.76,-23.72"/>
</g>
<!-- Node17 -->
<g id="node17" class="node">
<title>Node17</title>
<g id="a_node17"><a xlink:href="Traits_8h.html" target="_top" xlink:title=" ">
<polygon fill="none" stroke="black" points="112.5,-56.5 112.5,-75.5 233.5,-75.5 233.5,-56.5 112.5,-56.5"/>
<text text-anchor="middle" x="173" y="-63.5" font-family="Helvetica,sans-Serif" font-size="10.00">open62541pp/Traits.h</text>
</a>
</g>
</g>
<!-- Node15&#45;&gt;Node17 -->
<g id="edge22" class="edge">
<title>Node15&#45;&gt;Node17</title>
<path fill="none" stroke="midnightblue" d="M193.04,-112.08C189.79,-104.77 185.08,-94.18 181.05,-85.1"/>
<polygon fill="midnightblue" stroke="midnightblue" points="184.15,-83.47 176.89,-75.75 177.75,-86.31 184.15,-83.47"/>
</g>
<!-- Node17&#45;&gt;Node16 -->
<g id="edge23" class="edge">
<title>Node17&#45;&gt;Node16</title>
<path fill="none" stroke="midnightblue" d="M177.95,-56.08C182.1,-48.61 188.15,-37.72 193.27,-28.52"/>
<polygon fill="midnightblue" stroke="midnightblue" points="196.34,-30.19 198.14,-19.75 190.22,-26.79 196.34,-30.19"/>
</g>
</g>
</svg>
