<?xml version="1.0" encoding="UTF-8" standalone="no"?>
<!DOCTYPE svg PUBLIC "-//W3C//DTD SVG 1.1//EN"
 "http://www.w3.org/Graphics/SVG/1.1/DTD/svg11.dtd">
<!-- Generated by graphviz version 2.43.0 (0)
 -->
<!-- Title: /home/runner/work/open62541pp/open62541pp/include/open62541pp/detail/types_handling.hpp Pages: 1 -->
<svg width="1295pt" height="357pt"
 viewBox="0.00 0.00 1295.00 357.00" xmlns="http://www.w3.org/2000/svg" xmlns:xlink="http://www.w3.org/1999/xlink">
<g id="graph0" class="graph" transform="scale(1 1) rotate(0) translate(4 353)">
<title>/home/runner/work/open62541pp/open62541pp/include/open62541pp/detail/types_handling.hpp</title>
<!-- Node1 -->
<g id="Node000001" class="node">
<title>Node1</title>
<g id="a_Node000001"><a xlink:title=" ">
<polygon fill="#999999" stroke="#666666" points="509.5,-349 316.5,-349 316.5,-308 509.5,-308 509.5,-349"/>
<text text-anchor="start" x="324.5" y="-337" font-family="Helvetica,sans-Serif" font-size="10.00">/home/runner/work/open62541pp</text>
<text text-anchor="start" x="324.5" y="-326" font-family="Helvetica,sans-Serif" font-size="10.00">/open62541pp/include/open62541pp</text>
<text text-anchor="middle" x="413" y="-315" font-family="Helvetica,sans-Serif" font-size="10.00">/detail/types_handling.hpp</text>
</a>
</g>
</g>
<!-- Node2 -->
<g id="Node000002" class="node">
<title>Node2</title>
<g id="a_Node000002"><a xlink:title=" ">
<polygon fill="#e0e0e0" stroke="#999999" points="200,-266.5 136,-266.5 136,-247.5 200,-247.5 200,-266.5"/>
<text text-anchor="middle" x="168" y="-254.5" font-family="Helvetica,sans-Serif" font-size="10.00">algorithm</text>
</a>
</g>
</g>
<!-- Node1&#45;&gt;Node2 -->
<g id="edge1_Node000001_Node000002" class="edge">
<title>Node1&#45;&gt;Node2</title>
<g id="a_edge1_Node000001_Node000002"><a xlink:title=" ">
<path fill="none" stroke="#63b8ff" d="M336.62,-307.95C298.17,-297.8 250.94,-284.85 209,-272 206.69,-271.29 204.32,-270.54 201.94,-269.77"/>
<polygon fill="#63b8ff" stroke="#63b8ff" points="202.79,-266.37 192.2,-266.55 200.59,-273.01 202.79,-266.37"/>
</a>
</g>
</g>
<!-- Node3 -->
<g id="Node000003" class="node">
<title>Node3</title>
<g id="a_Node000003"><a xlink:title=" ">
<polygon fill="#e0e0e0" stroke="#999999" points="270,-266.5 218,-266.5 218,-247.5 270,-247.5 270,-266.5"/>
<text text-anchor="middle" x="244" y="-254.5" font-family="Helvetica,sans-Serif" font-size="10.00">cassert</text>
</a>
</g>
</g>
<!-- Node1&#45;&gt;Node3 -->
<g id="edge2_Node000001_Node000003" class="edge">
<title>Node1&#45;&gt;Node3</title>
<g id="a_edge2_Node000001_Node000003"><a xlink:title=" ">
<path fill="none" stroke="#63b8ff" d="M365.47,-307.96C336.17,-295.9 299.48,-280.81 274.13,-270.39"/>
<polygon fill="#63b8ff" stroke="#63b8ff" points="275.26,-267.07 264.68,-266.5 272.6,-273.54 275.26,-267.07"/>
</a>
</g>
</g>
<!-- Node4 -->
<g id="Node000004" class="node">
<title>Node4</title>
<g id="a_Node000004"><a xlink:title=" ">
<polygon fill="#e0e0e0" stroke="#999999" points="338,-266.5 288,-266.5 288,-247.5 338,-247.5 338,-266.5"/>
<text text-anchor="middle" x="313" y="-254.5" font-family="Helvetica,sans-Serif" font-size="10.00">cstring</text>
</a>
</g>
</g>
<!-- Node1&#45;&gt;Node4 -->
<g id="edge3_Node000001_Node000004" class="edge">
<title>Node1&#45;&gt;Node4</title>
<g id="a_edge3_Node000001_Node000004"><a xlink:title=" ">
<path fill="none" stroke="#63b8ff" d="M384.88,-307.96C368.61,-296.65 348.5,-282.67 333.69,-272.38"/>
<polygon fill="#63b8ff" stroke="#63b8ff" points="335.44,-269.34 325.24,-266.5 331.45,-275.08 335.44,-269.34"/>
</a>
</g>
</g>
<!-- Node5 -->
<g id="Node000005" class="node">
<title>Node5</title>
<g id="a_Node000005"><a xlink:title=" ">
<polygon fill="#e0e0e0" stroke="#999999" points="414,-266.5 356,-266.5 356,-247.5 414,-247.5 414,-266.5"/>
<text text-anchor="middle" x="385" y="-254.5" font-family="Helvetica,sans-Serif" font-size="10.00">memory</text>
</a>
</g>
</g>
<!-- Node1&#45;&gt;Node5 -->
<g id="edge4_Node000001_Node000005" class="edge">
<title>Node1&#45;&gt;Node5</title>
<g id="a_edge4_Node000001_Node000005"><a xlink:title=" ">
<path fill="none" stroke="#63b8ff" d="M405.05,-307.77C401.06,-297.87 396.26,-285.95 392.36,-276.26"/>
<polygon fill="#63b8ff" stroke="#63b8ff" points="395.54,-274.79 388.55,-266.82 389.04,-277.4 395.54,-274.79"/>
</a>
</g>
</g>
<!-- Node6 -->
<g id="Node000006" class="node">
<title>Node6</title>
<g id="a_Node000006"><a xlink:title=" ">
<polygon fill="#e0e0e0" stroke="#999999" points="397.5,-200.5 360.5,-200.5 360.5,-181.5 397.5,-181.5 397.5,-200.5"/>
<text text-anchor="middle" x="379" y="-188.5" font-family="Helvetica,sans-Serif" font-size="10.00">new</text>
</a>
</g>
</g>
<!-- Node1&#45;&gt;Node6 -->
<g id="edge5_Node000001_Node000006" class="edge">
<title>Node1&#45;&gt;Node6</title>
<g id="a_edge5_Node000001_Node000006"><a xlink:title=" ">
<path fill="none" stroke="#63b8ff" d="M420.37,-307.85C425.86,-290.1 431.13,-263.53 423,-242 417.9,-228.48 407.29,-216.24 397.76,-207.26"/>
<polygon fill="#63b8ff" stroke="#63b8ff" points="399.97,-204.53 390.17,-200.52 395.33,-209.77 399.97,-204.53"/>
</a>
</g>
</g>
<!-- Node7 -->
<g id="Node000007" class="node">
<title>Node7</title>
<g id="a_Node000007"><a xlink:href="common_8h.html" target="_top" xlink:title=" ">
<polygon fill="white" stroke="#666666" points="544,-206 416,-206 416,-176 544,-176 544,-206"/>
<text text-anchor="start" x="424" y="-194" font-family="Helvetica,sans-Serif" font-size="10.00">open62541pp/detail</text>
<text text-anchor="middle" x="480" y="-183" font-family="Helvetica,sans-Serif" font-size="10.00">/open62541/common.h</text>
</a>
</g>
</g>
<!-- Node1&#45;&gt;Node7 -->
<g id="edge6_Node000001_Node000007" class="edge">
<title>Node1&#45;&gt;Node7</title>
<g id="a_edge6_Node000001_Node000007"><a xlink:title=" ">
<path fill="none" stroke="#63b8ff" d="M422.74,-307.8C434.84,-283.33 455.46,-241.62 468.38,-215.51"/>
<polygon fill="#63b8ff" stroke="#63b8ff" points="471.62,-216.84 472.92,-206.33 465.35,-213.74 471.62,-216.84"/>
</a>
</g>
</g>
<!-- Node20 -->
<g id="Node000020" class="node">
<title>Node20</title>
<g id="a_Node000020"><a xlink:href="traits_8hpp.html" target="_top" xlink:title=" ">
<polygon fill="white" stroke="#666666" points="807.5,-272 694.5,-272 694.5,-242 807.5,-242 807.5,-272"/>
<text text-anchor="start" x="702.5" y="-260" font-family="Helvetica,sans-Serif" font-size="10.00">open62541pp/detail</text>
<text text-anchor="middle" x="751" y="-249" font-family="Helvetica,sans-Serif" font-size="10.00">/traits.hpp</text>
</a>
</g>
</g>
<!-- Node1&#45;&gt;Node20 -->
<g id="edge23_Node000001_Node000020" class="edge">
<title>Node1&#45;&gt;Node20</title>
<g id="a_edge23_Node000001_Node000020"><a xlink:title=" ">
<path fill="none" stroke="#63b8ff" d="M508.05,-307.96C564.25,-296.4 634.04,-282.05 684.38,-271.7"/>
<polygon fill="#63b8ff" stroke="#63b8ff" points="685.08,-275.13 694.17,-269.68 683.67,-268.27 685.08,-275.13"/>
</a>
</g>
</g>
<!-- Node22 -->
<g id="Node000022" class="node">
<title>Node22</title>
<g id="a_Node000022"><a xlink:href="exception_8hpp.html" target="_top" xlink:title=" ">
<polygon fill="white" stroke="#666666" points="663.5,-266.5 508.5,-266.5 508.5,-247.5 663.5,-247.5 663.5,-266.5"/>
<text text-anchor="middle" x="586" y="-254.5" font-family="Helvetica,sans-Serif" font-size="10.00">open62541pp/exception.hpp</text>
</a>
</g>
</g>
<!-- Node1&#45;&gt;Node22 -->
<g id="edge25_Node000001_Node000022" class="edge">
<title>Node1&#45;&gt;Node22</title>
<g id="a_edge25_Node000001_Node000022"><a xlink:title=" ">
<path fill="none" stroke="#63b8ff" d="M461.65,-307.96C491.78,-295.85 529.54,-280.68 555.5,-270.25"/>
<polygon fill="#63b8ff" stroke="#63b8ff" points="556.86,-273.48 564.83,-266.5 554.25,-266.98 556.86,-273.48"/>
</a>
</g>
</g>
<!-- Node8 -->
<g id="Node000008" class="node">
<title>Node8</title>
<g id="a_Node000008"><a xlink:title=" ">
<polygon fill="#e0e0e0" stroke="#999999" points="136,-140 0,-140 0,-121 136,-121 136,-140"/>
<text text-anchor="middle" x="68" y="-128" font-family="Helvetica,sans-Serif" font-size="10.00">open62541pp/config.hpp</text>
</a>
</g>
</g>
<!-- Node7&#45;&gt;Node8 -->
<g id="edge7_Node000007_Node000008" class="edge">
<title>Node7&#45;&gt;Node8</title>
<g id="a_edge7_Node000007_Node000008"><a xlink:title=" ">
<path fill="none" stroke="#63b8ff" d="M415.86,-177.64C412.53,-177.07 409.23,-176.52 406,-176 317.34,-161.79 215.06,-148.79 146.43,-140.56"/>
<polygon fill="#63b8ff" stroke="#63b8ff" points="146.48,-137.04 136.14,-139.33 145.65,-143.99 146.48,-137.04"/>
</a>
</g>
</g>
<!-- Node9 -->
<g id="Node000009" class="node">
<title>Node9</title>
<g id="a_Node000009"><a xlink:href="push__options_8h.html" target="_top" xlink:title=" ">
<polygon fill="white" stroke="#666666" points="242,-30 92,-30 92,0 242,0 242,-30"/>
<text text-anchor="start" x="100" y="-18" font-family="Helvetica,sans-Serif" font-size="10.00">open62541pp/detail</text>
<text text-anchor="middle" x="167" y="-7" font-family="Helvetica,sans-Serif" font-size="10.00">/open62541/push_options.h</text>
</a>
</g>
</g>
<!-- Node7&#45;&gt;Node9 -->
<g id="edge8_Node000007_Node000009" class="edge">
<title>Node7&#45;&gt;Node9</title>
<g id="a_edge8_Node000007_Node000009"><a xlink:title=" ">
<path fill="none" stroke="#63b8ff" d="M415.84,-177.75C412.52,-177.15 409.22,-176.56 406,-176 356.56,-167.33 217.93,-176.05 183,-140 157.53,-113.71 158.67,-68.26 162.42,-40.29"/>
<polygon fill="#63b8ff" stroke="#63b8ff" points="165.92,-40.58 163.99,-30.16 159,-39.51 165.92,-40.58"/>
</a>
</g>
</g>
<!-- Node10 -->
<g id="Node000010" class="node">
<title>Node10</title>
<g id="a_Node000010"><a target="_blank" xlink:href="open62541/nodeids_8h.html" xlink:title=" ">
<polygon fill="white" stroke="#666666" points="629.5,-140 508.5,-140 508.5,-121 629.5,-121 629.5,-140"/>
<text text-anchor="middle" x="569" y="-128" font-family="Helvetica,sans-Serif" font-size="10.00">open62541/nodeids.h</text>
</a>
</g>
</g>
<!-- Node7&#45;&gt;Node10 -->
<g id="edge9_Node000007_Node000010" class="edge">
<title>Node7&#45;&gt;Node10</title>
<g id="a_edge9_Node000007_Node000010"><a xlink:title=" ">
<path fill="none" stroke="#63b8ff" d="M501.54,-175.84C515.47,-166.68 533.53,-154.82 547.45,-145.66"/>
<polygon fill="#63b8ff" stroke="#63b8ff" points="549.49,-148.51 555.92,-140.09 545.65,-142.66 549.49,-148.51"/>
</a>
</g>
</g>
<!-- Node11 -->
<g id="Node000011" class="node">
<title>Node11</title>
<g id="a_Node000011"><a target="_blank" xlink:href="open62541/statuscodes_8h.html" xlink:title=" ">
<polygon fill="white" stroke="#666666" points="788.5,-140 647.5,-140 647.5,-121 788.5,-121 788.5,-140"/>
<text text-anchor="middle" x="718" y="-128" font-family="Helvetica,sans-Serif" font-size="10.00">open62541/statuscodes.h</text>
</a>
</g>
</g>
<!-- Node7&#45;&gt;Node11 -->
<g id="edge10_Node000007_Node000011" class="edge">
<title>Node7&#45;&gt;Node11</title>
<g id="a_edge10_Node000007_Node000011"><a xlink:title=" ">
<path fill="none" stroke="#63b8ff" d="M537.01,-175.99C578.79,-165.72 634.73,-151.97 673.3,-142.49"/>
<polygon fill="#63b8ff" stroke="#63b8ff" points="674.33,-145.84 683.2,-140.05 672.65,-139.04 674.33,-145.84"/>
</a>
</g>
</g>
<!-- Node12 -->
<g id="Node000012" class="node">
<title>Node12</title>
<g id="a_Node000012"><a target="_blank" xlink:href="open62541/types_8h.html" xlink:title=" ">
<polygon fill="white" stroke="#666666" points="302,-140 192,-140 192,-121 302,-121 302,-140"/>
<text text-anchor="middle" x="247" y="-128" font-family="Helvetica,sans-Serif" font-size="10.00">open62541/types.h</text>
</a>
</g>
</g>
<!-- Node7&#45;&gt;Node12 -->
<g id="edge11_Node000007_Node000012" class="edge">
<title>Node7&#45;&gt;Node12</title>
<g id="a_edge11_Node000007_Node000012"><a xlink:title=" ">
<path fill="none" stroke="#63b8ff" d="M418.33,-175.99C376.28,-165.76 321.96,-152.09 285.82,-142.61"/>
<polygon fill="#63b8ff" stroke="#63b8ff" points="286.69,-139.22 276.13,-140.05 284.91,-145.99 286.69,-139.22"/>
</a>
</g>
</g>
<!-- Node15 -->
<g id="Node000015" class="node">
<title>Node15</title>
<g id="a_Node000015"><a xlink:href="pop__options_8h.html" target="_top" xlink:title=" ">
<polygon fill="white" stroke="#666666" points="550.5,-30 405.5,-30 405.5,0 550.5,0 550.5,-30"/>
<text text-anchor="start" x="413.5" y="-18" font-family="Helvetica,sans-Serif" font-size="10.00">open62541pp/detail</text>
<text text-anchor="middle" x="478" y="-7" font-family="Helvetica,sans-Serif" font-size="10.00">/open62541/pop_options.h</text>
</a>
</g>
</g>
<!-- Node7&#45;&gt;Node15 -->
<g id="edge22_Node000007_Node000015" class="edge">
<title>Node7&#45;&gt;Node15</title>
<g id="a_edge22_Node000007_Node000015"><a xlink:title=" ">
<path fill="none" stroke="#63b8ff" d="M479.84,-175.76C479.5,-146.19 478.71,-77.82 478.29,-40.83"/>
<polygon fill="#63b8ff" stroke="#63b8ff" points="481.78,-40.39 478.17,-30.44 474.78,-40.48 481.78,-40.39"/>
</a>
</g>
</g>
<!-- Node16 -->
<g id="Node000016" class="node">
<title>Node16</title>
<g id="a_Node000016"><a target="_blank" xlink:href="open62541/types__generated_8h.html" xlink:title=" ">
<polygon fill="white" stroke="#666666" points="971,-140 807,-140 807,-121 971,-121 971,-140"/>
<text text-anchor="middle" x="889" y="-128" font-family="Helvetica,sans-Serif" font-size="10.00">open62541/types_generated.h</text>
</a>
</g>
</g>
<!-- Node7&#45;&gt;Node16 -->
<g id="edge17_Node000007_Node000016" class="edge">
<title>Node7&#45;&gt;Node16</title>
<g id="a_edge17_Node000007_Node000016"><a xlink:title=" ">
<path fill="none" stroke="#63b8ff" d="M544.14,-177.64C547.47,-177.07 550.77,-176.52 554,-176 639.54,-162.24 737.86,-149.55 805.76,-141.27"/>
<polygon fill="#63b8ff" stroke="#63b8ff" points="806.46,-144.71 815.97,-140.03 805.62,-137.76 806.46,-144.71"/>
</a>
</g>
</g>
<!-- Node17 -->
<g id="Node000017" class="node">
<title>Node17</title>
<g id="a_Node000017"><a target="_blank" xlink:href="open62541/util_8h.html" xlink:title=" ">
<polygon fill="white" stroke="#666666" points="1087,-140 989,-140 989,-121 1087,-121 1087,-140"/>
<text text-anchor="middle" x="1038" y="-128" font-family="Helvetica,sans-Serif" font-size="10.00">open62541/util.h</text>
</a>
</g>
</g>
<!-- Node7&#45;&gt;Node17 -->
<g id="edge18_Node000007_Node000017" class="edge">
<title>Node7&#45;&gt;Node17</title>
<g id="a_edge18_Node000007_Node000017"><a xlink:title=" ">
<path fill="none" stroke="#63b8ff" d="M544.11,-177.45C547.45,-176.93 550.76,-176.44 554,-176 739.05,-150.74 789.53,-161.4 978.97,-140.04"/>
<polygon fill="#63b8ff" stroke="#63b8ff" points="979.44,-143.51 988.98,-138.9 978.65,-136.56 979.44,-143.51"/>
</a>
</g>
</g>
<!-- Node18 -->
<g id="Node000018" class="node">
<title>Node18</title>
<g id="a_Node000018"><a target="_blank" xlink:href="open62541/accesscontrol_8h.html" xlink:title=" ">
<polygon fill="white" stroke="#666666" points="1287,-140 1105,-140 1105,-121 1287,-121 1287,-140"/>
<text text-anchor="middle" x="1196" y="-128" font-family="Helvetica,sans-Serif" font-size="10.00">open62541/plugin/accesscontrol.h</text>
</a>
</g>
</g>
<!-- Node7&#45;&gt;Node18 -->
<g id="edge19_Node000007_Node000018" class="edge">
<title>Node7&#45;&gt;Node18</title>
<g id="a_edge19_Node000007_Node000018"><a xlink:title=" ">
<path fill="none" stroke="#63b8ff" d="M544.1,-177.38C547.44,-176.88 550.76,-176.41 554,-176 790.21,-145.92 853.55,-157.88 1094.85,-140.07"/>
<polygon fill="#63b8ff" stroke="#63b8ff" points="1095.28,-143.54 1104.99,-139.31 1094.75,-136.56 1095.28,-143.54"/>
</a>
</g>
</g>
<!-- Node19 -->
<g id="Node000019" class="node">
<title>Node19</title>
<g id="a_Node000019"><a target="_blank" xlink:href="open62541/log_8h.html" xlink:title=" ">
<polygon fill="white" stroke="#666666" points="451.5,-140 320.5,-140 320.5,-121 451.5,-121 451.5,-140"/>
<text text-anchor="middle" x="386" y="-128" font-family="Helvetica,sans-Serif" font-size="10.00">open62541/plugin/log.h</text>
</a>
</g>
</g>
<!-- Node7&#45;&gt;Node19 -->
<g id="edge20_Node000007_Node000019" class="edge">
<title>Node7&#45;&gt;Node19</title>
<g id="a_edge20_Node000007_Node000019"><a xlink:title=" ">
<path fill="none" stroke="#63b8ff" d="M457.25,-175.84C442.4,-166.6 423.1,-154.59 408.34,-145.4"/>
<polygon fill="#63b8ff" stroke="#63b8ff" points="410.15,-142.41 399.81,-140.09 406.45,-148.35 410.15,-142.41"/>
</a>
</g>
</g>
<!-- Node12&#45;&gt;Node7 -->
<g id="edge16_Node000012_Node000007" class="edge">
<title>Node12&#45;&gt;Node7</title>
<g id="a_edge16_Node000012_Node000007"><a xlink:title=" ">
<path fill="none" stroke="#63b8ff" d="M286.01,-140.05C322.68,-148.78 377.95,-162.56 420.16,-173.43"/>
<polygon fill="#63b8ff" stroke="#63b8ff" points="419.49,-176.87 430.05,-175.99 421.24,-170.1 419.49,-176.87"/>
</a>
</g>
</g>
<!-- Node13 -->
<g id="Node000013" class="node">
<title>Node13</title>
<g id="a_Node000013"><a xlink:href="config_8h.html" target="_top" xlink:title=" ">
<polygon fill="white" stroke="#666666" points="382,-85 270,-85 270,-66 382,-66 382,-85"/>
<text text-anchor="middle" x="326" y="-73" font-family="Helvetica,sans-Serif" font-size="10.00">open62541/config.h</text>
</a>
</g>
</g>
<!-- Node12&#45;&gt;Node13 -->
<g id="edge12_Node000012_Node000013" class="edge">
<title>Node12&#45;&gt;Node13</title>
<g id="a_edge12_Node000012_Node000013"><a xlink:title=" ">
<path fill="none" stroke="#63b8ff" d="M259.69,-120.98C271.83,-112.84 290.36,-100.41 304.75,-90.76"/>
<polygon fill="#63b8ff" stroke="#63b8ff" points="306.72,-93.65 313.08,-85.17 302.82,-87.84 306.72,-93.65"/>
</a>
</g>
</g>
<!-- Node13&#45;&gt;Node9 -->
<g id="edge13_Node000013_Node000009" class="edge">
<title>Node13&#45;&gt;Node9</title>
<g id="a_edge13_Node000013_Node000009"><a xlink:title=" ">
<path fill="none" stroke="#63b8ff" d="M302.88,-65.99C279.9,-57.54 243.96,-44.32 214.82,-33.59"/>
<polygon fill="#63b8ff" stroke="#63b8ff" points="215.82,-30.23 205.23,-30.06 213.4,-36.8 215.82,-30.23"/>
</a>
</g>
</g>
<!-- Node14 -->
<g id="Node000014" class="node">
<title>Node14</title>
<g id="a_Node000014"><a xlink:title=" ">
<polygon fill="#e0e0e0" stroke="#999999" points="382,-24.5 270,-24.5 270,-5.5 382,-5.5 382,-24.5"/>
<text text-anchor="middle" x="326" y="-12.5" font-family="Helvetica,sans-Serif" font-size="10.00">open62541/config.h</text>
</a>
</g>
</g>
<!-- Node13&#45;&gt;Node14 -->
<g id="edge14_Node000013_Node000014" class="edge">
<title>Node13&#45;&gt;Node14</title>
<g id="a_edge14_Node000013_Node000014"><a xlink:title=" ">
<path fill="none" stroke="#63b8ff" d="M326,-65.87C326,-57.75 326,-45.31 326,-34.89"/>
<polygon fill="#63b8ff" stroke="#63b8ff" points="329.5,-34.67 326,-24.67 322.5,-34.67 329.5,-34.67"/>
</a>
</g>
</g>
<!-- Node13&#45;&gt;Node15 -->
<g id="edge15_Node000013_Node000015" class="edge">
<title>Node13&#45;&gt;Node15</title>
<g id="a_edge15_Node000013_Node000015"><a xlink:title=" ">
<path fill="none" stroke="#63b8ff" d="M348.1,-65.99C369.98,-57.57 404.13,-44.43 431.92,-33.73"/>
<polygon fill="#63b8ff" stroke="#63b8ff" points="433.38,-36.92 441.46,-30.06 430.87,-30.39 433.38,-36.92"/>
</a>
</g>
</g>
<!-- Node19&#45;&gt;Node13 -->
<g id="edge21_Node000019_Node000013" class="edge">
<title>Node19&#45;&gt;Node13</title>
<g id="a_edge21_Node000019_Node000013"><a xlink:title=" ">
<path fill="none" stroke="#63b8ff" d="M376.36,-120.98C367.49,-113.15 354.13,-101.34 343.39,-91.86"/>
<polygon fill="#63b8ff" stroke="#63b8ff" points="345.63,-89.17 335.82,-85.17 340.99,-94.41 345.63,-89.17"/>
</a>
</g>
</g>
<!-- Node21 -->
<g id="Node000021" class="node">
<title>Node21</title>
<g id="a_Node000021"><a xlink:title=" ">
<polygon fill="#e0e0e0" stroke="#999999" points="797.5,-200.5 728.5,-200.5 728.5,-181.5 797.5,-181.5 797.5,-200.5"/>
<text text-anchor="middle" x="763" y="-188.5" font-family="Helvetica,sans-Serif" font-size="10.00">type_traits</text>
</a>
</g>
</g>
<!-- Node20&#45;&gt;Node21 -->
<g id="edge24_Node000020_Node000021" class="edge">
<title>Node20&#45;&gt;Node21</title>
<g id="a_edge24_Node000020_Node000021"><a xlink:title=" ">
<path fill="none" stroke="#63b8ff" d="M753.66,-241.8C755.37,-232.7 757.6,-220.79 759.46,-210.9"/>
<polygon fill="#63b8ff" stroke="#63b8ff" points="762.94,-211.32 761.34,-200.84 756.06,-210.03 762.94,-211.32"/>
</a>
</g>
</g>
<!-- Node22&#45;&gt;Node6 -->
<g id="edge27_Node000022_Node000006" class="edge">
<title>Node22&#45;&gt;Node6</title>
<g id="a_edge27_Node000022_Node000006"><a xlink:title=" ">
<path fill="none" stroke="#63b8ff" d="M547.25,-247.44C510.52,-238.81 454.12,-224.17 407,-206 405.99,-205.61 404.96,-205.19 403.93,-204.76"/>
<polygon fill="#63b8ff" stroke="#63b8ff" points="405.3,-201.54 394.75,-200.53 402.37,-207.9 405.3,-201.54"/>
</a>
</g>
</g>
<!-- Node22&#45;&gt;Node7 -->
<g id="edge29_Node000022_Node000007" class="edge">
<title>Node22&#45;&gt;Node7</title>
<g id="a_edge29_Node000022_Node000007"><a xlink:title=" ">
<path fill="none" stroke="#63b8ff" d="M571.7,-247.37C556.51,-238.2 531.99,-223.39 512.13,-211.4"/>
<polygon fill="#63b8ff" stroke="#63b8ff" points="513.75,-208.29 503.38,-206.12 510.13,-214.28 513.75,-208.29"/>
</a>
</g>
</g>
<!-- Node23 -->
<g id="Node000023" class="node">
<title>Node23</title>
<g id="a_Node000023"><a xlink:title=" ">
<polygon fill="#e0e0e0" stroke="#999999" points="710.5,-200.5 645.5,-200.5 645.5,-181.5 710.5,-181.5 710.5,-200.5"/>
<text text-anchor="middle" x="678" y="-188.5" font-family="Helvetica,sans-Serif" font-size="10.00">exception</text>
</a>
</g>
</g>
<!-- Node22&#45;&gt;Node23 -->
<g id="edge26_Node000022_Node000023" class="edge">
<title>Node22&#45;&gt;Node23</title>
<g id="a_edge26_Node000022_Node000023"><a xlink:title=" ">
<path fill="none" stroke="#63b8ff" d="M598.41,-247.37C613.36,-236.97 638.72,-219.32 656.8,-206.75"/>
<polygon fill="#63b8ff" stroke="#63b8ff" points="659.28,-209.28 665.5,-200.7 655.29,-203.54 659.28,-209.28"/>
</a>
</g>
</g>
<!-- Node24 -->
<g id="Node000024" class="node">
<title>Node24</title>
<g id="a_Node000024"><a xlink:title=" ">
<polygon fill="#e0e0e0" stroke="#999999" points="627.5,-200.5 562.5,-200.5 562.5,-181.5 627.5,-181.5 627.5,-200.5"/>
<text text-anchor="middle" x="595" y="-188.5" font-family="Helvetica,sans-Serif" font-size="10.00">stdexcept</text>
</a>
</g>
</g>
<!-- Node22&#45;&gt;Node24 -->
<g id="edge28_Node000022_Node000024" class="edge">
<title>Node22&#45;&gt;Node24</title>
<g id="a_edge28_Node000022_Node000024"><a xlink:title=" ">
<path fill="none" stroke="#63b8ff" d="M587.21,-247.37C588.52,-238.07 590.64,-222.98 592.34,-210.9"/>
<polygon fill="#63b8ff" stroke="#63b8ff" points="595.82,-211.3 593.75,-200.91 588.89,-210.32 595.82,-211.3"/>
</a>
</g>
</g>
</g>
</svg>
