<?xml version="1.0" encoding="UTF-8" standalone="no"?>
<!DOCTYPE svg PUBLIC "-//W3C//DTD SVG 1.1//EN"
 "http://www.w3.org/Graphics/SVG/1.1/DTD/svg11.dtd">
<!-- Generated by graphviz version 2.43.0 (0)
 -->
<!-- Title: /home/runner/work/open62541pp/open62541pp/include/open62541pp/TypeWrapper.h Pages: 1 -->
<svg width="707pt" height="218pt"
 viewBox="0.00 0.00 706.50 218.00" xmlns="http://www.w3.org/2000/svg" xmlns:xlink="http://www.w3.org/1999/xlink">
<g id="graph0" class="graph" transform="scale(1 1) rotate(0) translate(4 214)">
<title>/home/runner/work/open62541pp/open62541pp/include/open62541pp/TypeWrapper.h</title>
<!-- Node1 -->
<g id="node1" class="node">
<title>Node1</title>
<g id="a_node1"><a xlink:title=" ">
<polygon fill="#bfbfbf" stroke="black" points="259.5,-168.5 259.5,-209.5 452.5,-209.5 452.5,-168.5 259.5,-168.5"/>
<text text-anchor="start" x="267.5" y="-197.5" font-family="Helvetica,sans-Serif" font-size="10.00">/home/runner/work/open62541pp</text>
<text text-anchor="start" x="267.5" y="-186.5" font-family="Helvetica,sans-Serif" font-size="10.00">/open62541pp/include/open62541pp</text>
<text text-anchor="middle" x="356" y="-175.5" font-family="Helvetica,sans-Serif" font-size="10.00">/TypeWrapper.h</text>
</a>
</g>
</g>
<!-- Node2 -->
<g id="node2" class="node">
<title>Node2</title>
<g id="a_node2"><a xlink:title=" ">
<polygon fill="none" stroke="#bfbfbf" points="0,-112.5 0,-131.5 42,-131.5 42,-112.5 0,-112.5"/>
<text text-anchor="middle" x="21" y="-119.5" font-family="Helvetica,sans-Serif" font-size="10.00">array</text>
</a>
</g>
</g>
<!-- Node1&#45;&gt;Node2 -->
<g id="edge1" class="edge">
<title>Node1&#45;&gt;Node2</title>
<path fill="none" stroke="midnightblue" d="M259.27,-173.03C201.61,-163.45 126.83,-149.88 52.27,-132.1"/>
<polygon fill="midnightblue" stroke="midnightblue" points="52.77,-128.62 42.23,-129.68 51.13,-135.43 52.77,-128.62"/>
</g>
<!-- Node3 -->
<g id="node3" class="node">
<title>Node3</title>
<g id="a_node3"><a xlink:title=" ">
<polygon fill="none" stroke="#bfbfbf" points="60,-112.5 60,-131.5 110,-131.5 110,-112.5 60,-112.5"/>
<text text-anchor="middle" x="85" y="-119.5" font-family="Helvetica,sans-Serif" font-size="10.00">cstdint</text>
</a>
</g>
</g>
<!-- Node1&#45;&gt;Node3 -->
<g id="edge2" class="edge">
<title>Node1&#45;&gt;Node3</title>
<path fill="none" stroke="midnightblue" d="M274.69,-168.5C223.03,-156.11 158.77,-140.7 119.87,-131.36"/>
<polygon fill="midnightblue" stroke="midnightblue" points="120.62,-127.94 110.08,-129.02 118.99,-134.75 120.62,-127.94"/>
</g>
<!-- Node4 -->
<g id="node4" class="node">
<title>Node4</title>
<g id="a_node4"><a xlink:title=" ">
<polygon fill="none" stroke="#bfbfbf" points="134,-56.5 134,-75.5 178,-75.5 178,-56.5 134,-56.5"/>
<text text-anchor="middle" x="156" y="-63.5" font-family="Helvetica,sans-Serif" font-size="10.00">string</text>
</a>
</g>
</g>
<!-- Node1&#45;&gt;Node4 -->
<g id="edge3" class="edge">
<title>Node1&#45;&gt;Node4</title>
<path fill="none" stroke="midnightblue" d="M259.39,-172.06C215.42,-162.66 170.24,-149.21 157,-132 147.01,-119.01 148.03,-99.85 150.78,-85.69"/>
<polygon fill="midnightblue" stroke="midnightblue" points="154.27,-86.17 153.19,-75.63 147.46,-84.54 154.27,-86.17"/>
</g>
<!-- Node5 -->
<g id="node5" class="node">
<title>Node5</title>
<g id="a_node5"><a xlink:title=" ">
<polygon fill="none" stroke="#bfbfbf" points="562.5,-112.5 562.5,-131.5 635.5,-131.5 635.5,-112.5 562.5,-112.5"/>
<text text-anchor="middle" x="599" y="-119.5" font-family="Helvetica,sans-Serif" font-size="10.00">string_view</text>
</a>
</g>
</g>
<!-- Node1&#45;&gt;Node5 -->
<g id="edge4" class="edge">
<title>Node1&#45;&gt;Node5</title>
<path fill="none" stroke="midnightblue" d="M428.91,-168.5C470.77,-157.3 521.85,-143.64 557.04,-134.22"/>
<polygon fill="midnightblue" stroke="midnightblue" points="558.22,-137.53 566.97,-131.57 556.41,-130.77 558.22,-137.53"/>
</g>
<!-- Node6 -->
<g id="node6" class="node">
<title>Node6</title>
<g id="a_node6"><a xlink:title=" ">
<polygon fill="none" stroke="#bfbfbf" points="481.5,-56.5 481.5,-75.5 550.5,-75.5 550.5,-56.5 481.5,-56.5"/>
<text text-anchor="middle" x="516" y="-63.5" font-family="Helvetica,sans-Serif" font-size="10.00">type_traits</text>
</a>
</g>
</g>
<!-- Node1&#45;&gt;Node6 -->
<g id="edge5" class="edge">
<title>Node1&#45;&gt;Node6</title>
<path fill="none" stroke="midnightblue" d="M452.53,-174.17C476.73,-165.9 500.04,-152.79 515,-132 524.57,-118.7 523.61,-99.58 520.98,-85.52"/>
<polygon fill="midnightblue" stroke="midnightblue" points="524.34,-84.49 518.69,-75.53 517.51,-86.06 524.34,-84.49"/>
</g>
<!-- Node7 -->
<g id="node7" class="node">
<title>Node7</title>
<g id="a_node7"><a xlink:title=" ">
<polygon fill="none" stroke="#bfbfbf" points="653.5,-112.5 653.5,-131.5 698.5,-131.5 698.5,-112.5 653.5,-112.5"/>
<text text-anchor="middle" x="676" y="-119.5" font-family="Helvetica,sans-Serif" font-size="10.00">utility</text>
</a>
</g>
</g>
<!-- Node1&#45;&gt;Node7 -->
<g id="edge6" class="edge">
<title>Node1&#45;&gt;Node7</title>
<path fill="none" stroke="midnightblue" d="M452.81,-171.52C506.52,-161.83 574.67,-148.66 643.26,-132.27"/>
<polygon fill="midnightblue" stroke="midnightblue" points="644.48,-135.57 653.38,-129.83 642.83,-128.77 644.48,-135.57"/>
</g>
<!-- Node8 -->
<g id="node8" class="node">
<title>Node8</title>
<g id="a_node8"><a xlink:href="ErrorHandling_8h.html" target="_top" xlink:title=" ">
<polygon fill="none" stroke="black" points="166.5,-112.5 166.5,-131.5 327.5,-131.5 327.5,-112.5 166.5,-112.5"/>
<text text-anchor="middle" x="247" y="-119.5" font-family="Helvetica,sans-Serif" font-size="10.00">open62541pp/ErrorHandling.h</text>
</a>
</g>
</g>
<!-- Node1&#45;&gt;Node8 -->
<g id="edge7" class="edge">
<title>Node1&#45;&gt;Node8</title>
<path fill="none" stroke="midnightblue" d="M323.3,-168.5C306.26,-158.34 285.83,-146.16 270.4,-136.95"/>
<polygon fill="midnightblue" stroke="midnightblue" points="271.89,-133.77 261.51,-131.65 268.31,-139.78 271.89,-133.77"/>
</g>
<!-- Node10 -->
<g id="node10" class="node">
<title>Node10</title>
<g id="a_node10"><a xlink:href="open62541_8h.html" target="_top" xlink:title=" ">
<polygon fill="none" stroke="black" points="289.5,-56.5 289.5,-75.5 438.5,-75.5 438.5,-56.5 289.5,-56.5"/>
<text text-anchor="middle" x="364" y="-63.5" font-family="Helvetica,sans-Serif" font-size="10.00">open62541pp/open62541.h</text>
</a>
</g>
</g>
<!-- Node1&#45;&gt;Node10 -->
<g id="edge17" class="edge">
<title>Node1&#45;&gt;Node10</title>
<path fill="none" stroke="midnightblue" d="M357.3,-168.29C358.81,-145.48 361.28,-108.19 362.76,-85.78"/>
<polygon fill="midnightblue" stroke="midnightblue" points="366.27,-85.78 363.43,-75.57 359.28,-85.32 366.27,-85.78"/>
</g>
<!-- Node14 -->
<g id="node14" class="node">
<title>Node14</title>
<g id="a_node14"><a xlink:href="Types_8h.html" target="_top" xlink:title=" ">
<polygon fill="none" stroke="black" points="384,-112.5 384,-131.5 506,-131.5 506,-112.5 384,-112.5"/>
<text text-anchor="middle" x="445" y="-119.5" font-family="Helvetica,sans-Serif" font-size="10.00">open62541pp/Types.h</text>
</a>
</g>
</g>
<!-- Node1&#45;&gt;Node14 -->
<g id="edge14" class="edge">
<title>Node1&#45;&gt;Node14</title>
<path fill="none" stroke="midnightblue" d="M382.7,-168.5C396.22,-158.63 412.35,-146.84 424.82,-137.74"/>
<polygon fill="midnightblue" stroke="midnightblue" points="427.14,-140.38 433.15,-131.65 423.01,-134.72 427.14,-140.38"/>
</g>
<!-- Node8&#45;&gt;Node4 -->
<g id="edge9" class="edge">
<title>Node8&#45;&gt;Node4</title>
<path fill="none" stroke="midnightblue" d="M232.38,-112.32C218.05,-103.82 195.99,-90.73 179.25,-80.8"/>
<polygon fill="midnightblue" stroke="midnightblue" points="180.97,-77.75 170.58,-75.65 177.4,-83.77 180.97,-77.75"/>
</g>
<!-- Node9 -->
<g id="node9" class="node">
<title>Node9</title>
<g id="a_node9"><a xlink:title=" ">
<polygon fill="none" stroke="#bfbfbf" points="206.5,-56.5 206.5,-75.5 271.5,-75.5 271.5,-56.5 206.5,-56.5"/>
<text text-anchor="middle" x="239" y="-63.5" font-family="Helvetica,sans-Serif" font-size="10.00">stdexcept</text>
</a>
</g>
</g>
<!-- Node8&#45;&gt;Node9 -->
<g id="edge8" class="edge">
<title>Node8&#45;&gt;Node9</title>
<path fill="none" stroke="midnightblue" d="M245.68,-112.08C244.62,-104.93 243.09,-94.64 241.77,-85.69"/>
<polygon fill="midnightblue" stroke="midnightblue" points="245.22,-85.13 240.3,-75.75 238.3,-86.16 245.22,-85.13"/>
</g>
<!-- Node8&#45;&gt;Node10 -->
<g id="edge10" class="edge">
<title>Node8&#45;&gt;Node10</title>
<path fill="none" stroke="midnightblue" d="M265.54,-112.44C284.62,-103.64 314.57,-89.81 336.44,-79.72"/>
<polygon fill="midnightblue" stroke="midnightblue" points="337.93,-82.88 345.55,-75.52 335,-76.53 337.93,-82.88"/>
</g>
<!-- Node11 -->
<g id="node11" class="node">
<title>Node11</title>
<g id="a_node11"><a xlink:href="open62541/nodeids_8h.html.html" xlink:title=" ">
<polygon fill="none" stroke="black" points="169.5,-0.5 169.5,-19.5 290.5,-19.5 290.5,-0.5 169.5,-0.5"/>
<text text-anchor="middle" x="230" y="-7.5" font-family="Helvetica,sans-Serif" font-size="10.00">open62541/nodeids.h</text>
</a>
</g>
</g>
<!-- Node10&#45;&gt;Node11 -->
<g id="edge11" class="edge">
<title>Node10&#45;&gt;Node11</title>
<path fill="none" stroke="midnightblue" d="M342.77,-56.44C320.62,-47.52 285.68,-33.44 260.56,-23.32"/>
<polygon fill="midnightblue" stroke="midnightblue" points="261.72,-20.01 251.13,-19.52 259.1,-26.5 261.72,-20.01"/>
</g>
<!-- Node12 -->
<g id="node12" class="node">
<title>Node12</title>
<g id="a_node12"><a xlink:href="open62541/types_8h.html.html" xlink:title=" ">
<polygon fill="none" stroke="black" points="309,-0.5 309,-19.5 419,-19.5 419,-0.5 309,-0.5"/>
<text text-anchor="middle" x="364" y="-7.5" font-family="Helvetica,sans-Serif" font-size="10.00">open62541/types.h</text>
</a>
</g>
</g>
<!-- Node10&#45;&gt;Node12 -->
<g id="edge12" class="edge">
<title>Node10&#45;&gt;Node12</title>
<path fill="none" stroke="midnightblue" d="M364,-56.08C364,-49.01 364,-38.86 364,-29.99"/>
<polygon fill="midnightblue" stroke="midnightblue" points="367.5,-29.75 364,-19.75 360.5,-29.75 367.5,-29.75"/>
</g>
<!-- Node13 -->
<g id="node13" class="node">
<title>Node13</title>
<g id="a_node13"><a xlink:href="open62541/types__generated_8h.html.html" xlink:title=" ">
<polygon fill="none" stroke="black" points="437,-0.5 437,-19.5 601,-19.5 601,-0.5 437,-0.5"/>
<text text-anchor="middle" x="519" y="-7.5" font-family="Helvetica,sans-Serif" font-size="10.00">open62541/types_generated.h</text>
</a>
</g>
</g>
<!-- Node10&#45;&gt;Node13 -->
<g id="edge13" class="edge">
<title>Node10&#45;&gt;Node13</title>
<path fill="none" stroke="midnightblue" d="M388.56,-56.44C414.52,-47.4 455.67,-33.06 484.8,-22.92"/>
<polygon fill="midnightblue" stroke="midnightblue" points="486.26,-26.11 494.55,-19.52 483.96,-19.5 486.26,-26.11"/>
</g>
<!-- Node14&#45;&gt;Node6 -->
<g id="edge15" class="edge">
<title>Node14&#45;&gt;Node6</title>
<path fill="none" stroke="midnightblue" d="M456.41,-112.32C467.11,-104.18 483.34,-91.84 496.16,-82.09"/>
<polygon fill="midnightblue" stroke="midnightblue" points="498.54,-84.67 504.39,-75.83 494.31,-79.1 498.54,-84.67"/>
</g>
<!-- Node14&#45;&gt;Node10 -->
<g id="edge16" class="edge">
<title>Node14&#45;&gt;Node10</title>
<path fill="none" stroke="midnightblue" d="M431.99,-112.32C419.47,-103.98 400.32,-91.21 385.53,-81.35"/>
<polygon fill="midnightblue" stroke="midnightblue" points="387.24,-78.29 376.98,-75.65 383.36,-84.11 387.24,-78.29"/>
</g>
</g>
</svg>
