<?xml version="1.0" encoding="UTF-8" standalone="no"?>
<!DOCTYPE svg PUBLIC "-//W3C//DTD SVG 1.1//EN"
 "http://www.w3.org/Graphics/SVG/1.1/DTD/svg11.dtd">
<!-- Generated by graphviz version 2.43.0 (0)
 -->
<!-- Title: /home/runner/work/open62541pp/open62541pp/include/open62541pp/TypeConverter.h Pages: 1 -->
<svg width="1015pt" height="511pt"
 viewBox="0.00 0.00 1014.73 511.00" xmlns="http://www.w3.org/2000/svg" xmlns:xlink="http://www.w3.org/1999/xlink">
<g id="graph0" class="graph" transform="scale(1 1) rotate(0) translate(4 507)">
<title>/home/runner/work/open62541pp/open62541pp/include/open62541pp/TypeConverter.h</title>
<!-- Node1 -->
<g id="Node000001" class="node">
<title>Node1</title>
<g id="a_Node000001"><a xlink:title=" ">
<polygon fill="#999999" stroke="#666666" points="193,-503 0,-503 0,-462 193,-462 193,-503"/>
<text text-anchor="start" x="8" y="-491" font-family="Helvetica,sans-Serif" font-size="10.00">/home/runner/work/open62541pp</text>
<text text-anchor="start" x="8" y="-480" font-family="Helvetica,sans-Serif" font-size="10.00">/open62541pp/include/open62541pp</text>
<text text-anchor="middle" x="96.5" y="-469" font-family="Helvetica,sans-Serif" font-size="10.00">/TypeConverter.h</text>
</a>
</g>
</g>
<!-- Node2 -->
<g id="Node000002" class="node">
<title>Node2</title>
<g id="a_Node000002"><a xlink:href="open62541pp_8h.html" target="_top" xlink:title=" ">
<polygon fill="white" stroke="#666666" points="645,-41 452,-41 452,0 645,0 645,-41"/>
<text text-anchor="start" x="460" y="-29" font-family="Helvetica,sans-Serif" font-size="10.00">/home/runner/work/open62541pp</text>
<text text-anchor="start" x="460" y="-18" font-family="Helvetica,sans-Serif" font-size="10.00">/open62541pp/include/open62541pp</text>
<text text-anchor="middle" x="548.5" y="-7" font-family="Helvetica,sans-Serif" font-size="10.00">/open62541pp.h</text>
</a>
</g>
</g>
<!-- Node1&#45;&gt;Node2 -->
<g id="edge1_Node000001_Node000002" class="edge">
<title>Node1&#45;&gt;Node2</title>
<g id="a_edge1_Node000001_Node000002"><a xlink:title=" ">
<path fill="none" stroke="#63b8ff" d="M70.95,-453.69C47.21,-424.87 15.5,-377.4 15.5,-329.5 15.5,-329.5 15.5,-329.5 15.5,-173.5 15.5,-99.39 82.62,-104.35 151.5,-77 249.01,-38.28 369.34,-25.92 451.81,-22.3"/>
<polygon fill="#63b8ff" stroke="#63b8ff" points="68.58,-456.3 77.71,-461.66 73.92,-451.77 68.58,-456.3"/>
</a>
</g>
</g>
<!-- Node3 -->
<g id="Node000003" class="node">
<title>Node3</title>
<g id="a_Node000003"><a xlink:href="Variant_8h.html" target="_top" xlink:title=" ">
<polygon fill="white" stroke="#666666" points="337,-426 144,-426 144,-385 337,-385 337,-426"/>
<text text-anchor="start" x="152" y="-414" font-family="Helvetica,sans-Serif" font-size="10.00">/home/runner/work/open62541pp</text>
<text text-anchor="start" x="152" y="-403" font-family="Helvetica,sans-Serif" font-size="10.00">/open62541pp/include/open62541pp</text>
<text text-anchor="middle" x="240.5" y="-392" font-family="Helvetica,sans-Serif" font-size="10.00">/types/Variant.h</text>
</a>
</g>
</g>
<!-- Node1&#45;&gt;Node3 -->
<g id="edge2_Node000001_Node000003" class="edge">
<title>Node1&#45;&gt;Node3</title>
<g id="a_edge2_Node000001_Node000003"><a xlink:title=" ">
<path fill="none" stroke="#63b8ff" d="M142.94,-457.31C162.36,-447.2 184.63,-435.6 202.98,-426.04"/>
<polygon fill="#63b8ff" stroke="#63b8ff" points="141.21,-454.27 133.96,-461.99 144.44,-460.48 141.21,-454.27"/>
</a>
</g>
</g>
<!-- Node3&#45;&gt;Node2 -->
<g id="edge5_Node000003_Node000002" class="edge">
<title>Node3&#45;&gt;Node2</title>
<g id="a_edge5_Node000003_Node000002"><a xlink:title=" ">
<path fill="none" stroke="#63b8ff" d="M347.26,-405.17C557.19,-403.61 1003.5,-384.73 1003.5,-252.5 1003.5,-252.5 1003.5,-252.5 1003.5,-173.5 1003.5,-129.79 1016.44,-106.84 984.5,-77 936.83,-32.46 758.31,-22.66 645.01,-21.06"/>
<polygon fill="#63b8ff" stroke="#63b8ff" points="347.11,-401.67 337.13,-405.24 347.16,-408.67 347.11,-401.67"/>
</a>
</g>
</g>
<!-- Node4 -->
<g id="Node000004" class="node">
<title>Node4</title>
<g id="a_Node000004"><a xlink:href="Node_8h.html" target="_top" xlink:title=" ">
<polygon fill="white" stroke="#666666" points="433.5,-118 237.5,-118 237.5,-77 433.5,-77 433.5,-118"/>
<text text-anchor="start" x="245.5" y="-106" font-family="Helvetica,sans-Serif" font-size="10.00">/home/runner/work/open62541pp</text>
<text text-anchor="start" x="245.5" y="-95" font-family="Helvetica,sans-Serif" font-size="10.00">/open62541pp/include/open62541pp/</text>
<text text-anchor="middle" x="335.5" y="-84" font-family="Helvetica,sans-Serif" font-size="10.00">Node.h</text>
</a>
</g>
</g>
<!-- Node3&#45;&gt;Node4 -->
<g id="edge3_Node000003_Node000004" class="edge">
<title>Node3&#45;&gt;Node4</title>
<g id="a_edge3_Node000003_Node000004"><a xlink:title=" ">
<path fill="none" stroke="#63b8ff" d="M134.09,-390.89C110.09,-382.62 87.35,-369.55 72.5,-349 61.83,-334.23 69.24,-325.93 72.5,-308 85.6,-236.05 76.37,-203.18 130.5,-154 159.63,-127.53 200.12,-113.49 237.42,-106.11"/>
<polygon fill="#63b8ff" stroke="#63b8ff" points="133.11,-394.25 143.7,-393.94 135.23,-387.58 133.11,-394.25"/>
</a>
</g>
</g>
<!-- Node5 -->
<g id="Node000005" class="node">
<title>Node5</title>
<g id="a_Node000005"><a xlink:href="Attribute_8h.html" target="_top" xlink:title=" ">
<polygon fill="white" stroke="#666666" points="351,-195 158,-195 158,-154 351,-154 351,-195"/>
<text text-anchor="start" x="166" y="-183" font-family="Helvetica,sans-Serif" font-size="10.00">/home/runner/work/open62541pp</text>
<text text-anchor="start" x="166" y="-172" font-family="Helvetica,sans-Serif" font-size="10.00">/open62541pp/include/open62541pp</text>
<text text-anchor="middle" x="254.5" y="-161" font-family="Helvetica,sans-Serif" font-size="10.00">/services/Attribute.h</text>
</a>
</g>
</g>
<!-- Node3&#45;&gt;Node5 -->
<g id="edge6_Node000003_Node000005" class="edge">
<title>Node3&#45;&gt;Node5</title>
<g id="a_edge6_Node000003_Node000005"><a xlink:title=" ">
<path fill="none" stroke="#63b8ff" d="M267.49,-376.99C274,-368.66 280.07,-359.03 283.5,-349 301.93,-295.11 278.12,-227.66 263.83,-195"/>
<polygon fill="#63b8ff" stroke="#63b8ff" points="264.64,-374.95 260.91,-384.86 270.01,-379.44 264.64,-374.95"/>
</a>
</g>
</g>
<!-- Node7 -->
<g id="Node000007" class="node">
<title>Node7</title>
<g id="a_Node000007"><a xlink:href="Composed_8h.html" target="_top" xlink:title=" ">
<polygon fill="white" stroke="#666666" points="563,-272 370,-272 370,-231 563,-231 563,-272"/>
<text text-anchor="start" x="378" y="-260" font-family="Helvetica,sans-Serif" font-size="10.00">/home/runner/work/open62541pp</text>
<text text-anchor="start" x="378" y="-249" font-family="Helvetica,sans-Serif" font-size="10.00">/open62541pp/include/open62541pp</text>
<text text-anchor="middle" x="466.5" y="-238" font-family="Helvetica,sans-Serif" font-size="10.00">/types/Composed.h</text>
</a>
</g>
</g>
<!-- Node3&#45;&gt;Node7 -->
<g id="edge10_Node000003_Node000007" class="edge">
<title>Node3&#45;&gt;Node7</title>
<g id="a_edge10_Node000003_Node000007"><a xlink:title=" ">
<path fill="none" stroke="#63b8ff" d="M278.12,-379.2C322.82,-349.13 396.47,-299.6 437.17,-272.23"/>
<polygon fill="#63b8ff" stroke="#63b8ff" points="275.93,-376.45 269.58,-384.94 279.83,-382.26 275.93,-376.45"/>
</a>
</g>
</g>
<!-- Node11 -->
<g id="Node000011" class="node">
<title>Node11</title>
<g id="a_Node000011"><a xlink:href="DataValue_8h.html" target="_top" xlink:title=" ">
<polygon fill="white" stroke="#666666" points="275,-349 82,-349 82,-308 275,-308 275,-349"/>
<text text-anchor="start" x="90" y="-337" font-family="Helvetica,sans-Serif" font-size="10.00">/home/runner/work/open62541pp</text>
<text text-anchor="start" x="90" y="-326" font-family="Helvetica,sans-Serif" font-size="10.00">/open62541pp/include/open62541pp</text>
<text text-anchor="middle" x="178.5" y="-315" font-family="Helvetica,sans-Serif" font-size="10.00">/types/DataValue.h</text>
</a>
</g>
</g>
<!-- Node3&#45;&gt;Node11 -->
<g id="edge22_Node000003_Node000011" class="edge">
<title>Node3&#45;&gt;Node11</title>
<g id="a_edge22_Node000003_Node000011"><a xlink:title=" ">
<path fill="none" stroke="#63b8ff" d="M217.73,-376.95C210.08,-367.7 201.72,-357.58 194.68,-349.07"/>
<polygon fill="#63b8ff" stroke="#63b8ff" points="215.14,-379.32 224.21,-384.79 220.54,-374.86 215.14,-379.32"/>
</a>
</g>
</g>
<!-- Node4&#45;&gt;Node2 -->
<g id="edge4_Node000004_Node000002" class="edge">
<title>Node4&#45;&gt;Node2</title>
<g id="a_edge4_Node000004_Node000002"><a xlink:title=" ">
<path fill="none" stroke="#63b8ff" d="M400.71,-73.54C430.22,-63.15 464.75,-50.99 493,-41.04"/>
<polygon fill="#63b8ff" stroke="#63b8ff" points="399.18,-70.37 390.91,-76.99 401.5,-76.97 399.18,-70.37"/>
</a>
</g>
</g>
<!-- Node5&#45;&gt;Node4 -->
<g id="edge7_Node000005_Node000004" class="edge">
<title>Node5&#45;&gt;Node4</title>
<g id="a_edge7_Node000005_Node000004"><a xlink:title=" ">
<path fill="none" stroke="#63b8ff" d="M283.35,-146.79C293.58,-137.32 304.89,-126.84 314.36,-118.07"/>
<polygon fill="#63b8ff" stroke="#63b8ff" points="280.74,-144.43 275.78,-153.79 285.5,-149.57 280.74,-144.43"/>
</a>
</g>
</g>
<!-- Node6 -->
<g id="Node000006" class="node">
<title>Node6</title>
<g id="a_Node000006"><a xlink:href="services_8h.html" target="_top" xlink:title=" ">
<polygon fill="white" stroke="#666666" points="645,-118 452,-118 452,-77 645,-77 645,-118"/>
<text text-anchor="start" x="460" y="-106" font-family="Helvetica,sans-Serif" font-size="10.00">/home/runner/work/open62541pp</text>
<text text-anchor="start" x="460" y="-95" font-family="Helvetica,sans-Serif" font-size="10.00">/open62541pp/include/open62541pp</text>
<text text-anchor="middle" x="548.5" y="-84" font-family="Helvetica,sans-Serif" font-size="10.00">/services/services.h</text>
</a>
</g>
</g>
<!-- Node5&#45;&gt;Node6 -->
<g id="edge8_Node000005_Node000006" class="edge">
<title>Node5&#45;&gt;Node6</title>
<g id="a_edge8_Node000005_Node000006"><a xlink:title=" ">
<path fill="none" stroke="#63b8ff" d="M340.81,-151.48C382.34,-140.89 431.71,-128.29 471.9,-118.04"/>
<polygon fill="#63b8ff" stroke="#63b8ff" points="339.8,-148.13 330.98,-153.99 341.53,-154.91 339.8,-148.13"/>
</a>
</g>
</g>
<!-- Node6&#45;&gt;Node2 -->
<g id="edge9_Node000006_Node000002" class="edge">
<title>Node6&#45;&gt;Node2</title>
<g id="a_edge9_Node000006_Node000002"><a xlink:title=" ">
<path fill="none" stroke="#63b8ff" d="M548.5,-66.69C548.5,-58.08 548.5,-48.9 548.5,-41.07"/>
<polygon fill="#63b8ff" stroke="#63b8ff" points="545,-66.79 548.5,-76.79 552,-66.79 545,-66.79"/>
</a>
</g>
</g>
<!-- Node7&#45;&gt;Node2 -->
<g id="edge14_Node000007_Node000002" class="edge">
<title>Node7&#45;&gt;Node2</title>
<g id="a_edge14_Node000007_Node000002"><a xlink:title=" ">
<path fill="none" stroke="#63b8ff" d="M573.38,-248.58C666.01,-244.38 790,-231.81 821.5,-195 833.35,-181.16 831.17,-169.44 821.5,-154 808.48,-133.21 669.9,-72.54 595.36,-41.02"/>
<polygon fill="#63b8ff" stroke="#63b8ff" points="573.23,-245.08 563.39,-249.01 573.53,-252.08 573.23,-245.08"/>
</a>
</g>
</g>
<!-- Node7&#45;&gt;Node4 -->
<g id="edge13_Node000007_Node000004" class="edge">
<title>Node7&#45;&gt;Node4</title>
<g id="a_edge13_Node000007_Node000004"><a xlink:title=" ">
<path fill="none" stroke="#63b8ff" d="M431.11,-224.42C420.36,-215.68 408.92,-205.47 399.5,-195 377.73,-170.78 357.88,-138.57 346.24,-118.18"/>
<polygon fill="#63b8ff" stroke="#63b8ff" points="429.13,-227.33 439.14,-230.8 433.49,-221.84 429.13,-227.33"/>
</a>
</g>
</g>
<!-- Node7&#45;&gt;Node5 -->
<g id="edge15_Node000007_Node000005" class="edge">
<title>Node7&#45;&gt;Node5</title>
<g id="a_edge15_Node000007_Node000005"><a xlink:title=" ">
<path fill="none" stroke="#63b8ff" d="M401.6,-227.54C372.22,-217.15 337.86,-204.99 309.74,-195.04"/>
<polygon fill="#63b8ff" stroke="#63b8ff" points="400.76,-230.95 411.35,-230.99 403.09,-224.36 400.76,-230.95"/>
</a>
</g>
</g>
<!-- Node8 -->
<g id="Node000008" class="node">
<title>Node8</title>
<g id="a_Node000008"><a xlink:href="AccessControl_8h.html" target="_top" xlink:title=" ">
<polygon fill="white" stroke="#666666" points="975,-118 782,-118 782,-77 975,-77 975,-118"/>
<text text-anchor="start" x="790" y="-106" font-family="Helvetica,sans-Serif" font-size="10.00">/home/runner/work/open62541pp</text>
<text text-anchor="start" x="790" y="-95" font-family="Helvetica,sans-Serif" font-size="10.00">/open62541pp/include/open62541pp</text>
<text text-anchor="middle" x="878.5" y="-84" font-family="Helvetica,sans-Serif" font-size="10.00">/AccessControl.h</text>
</a>
</g>
</g>
<!-- Node7&#45;&gt;Node8 -->
<g id="edge11_Node000007_Node000008" class="edge">
<title>Node7&#45;&gt;Node8</title>
<g id="a_edge11_Node000007_Node000008"><a xlink:title=" ">
<path fill="none" stroke="#63b8ff" d="M573.58,-248.27C673.91,-243.93 814.28,-231.32 854.5,-195 875.9,-175.68 879.59,-140.5 879.57,-118.37"/>
<polygon fill="#63b8ff" stroke="#63b8ff" points="573.24,-244.79 563.39,-248.69 573.53,-251.78 573.24,-244.79"/>
</a>
</g>
</g>
<!-- Node9 -->
<g id="Node000009" class="node">
<title>Node9</title>
<g id="a_Node000009"><a xlink:href="NodeManagement_8h.html" target="_top" xlink:title=" ">
<polygon fill="white" stroke="#666666" points="601,-195 408,-195 408,-154 601,-154 601,-195"/>
<text text-anchor="start" x="416" y="-183" font-family="Helvetica,sans-Serif" font-size="10.00">/home/runner/work/open62541pp</text>
<text text-anchor="start" x="416" y="-172" font-family="Helvetica,sans-Serif" font-size="10.00">/open62541pp/include/open62541pp</text>
<text text-anchor="middle" x="504.5" y="-161" font-family="Helvetica,sans-Serif" font-size="10.00">/services/NodeManagement.h</text>
</a>
</g>
</g>
<!-- Node7&#45;&gt;Node9 -->
<g id="edge16_Node000007_Node000009" class="edge">
<title>Node7&#45;&gt;Node9</title>
<g id="a_edge16_Node000007_Node000009"><a xlink:title=" ">
<path fill="none" stroke="#63b8ff" d="M481.03,-221.83C485.56,-212.89 490.45,-203.24 494.58,-195.07"/>
<polygon fill="#63b8ff" stroke="#63b8ff" points="477.88,-220.29 476.48,-230.79 484.13,-223.46 477.88,-220.29"/>
</a>
</g>
</g>
<!-- Node10 -->
<g id="Node000010" class="node">
<title>Node10</title>
<g id="a_Node000010"><a xlink:href="View_8h.html" target="_top" xlink:title=" ">
<polygon fill="white" stroke="#666666" points="812,-195 619,-195 619,-154 812,-154 812,-195"/>
<text text-anchor="start" x="627" y="-183" font-family="Helvetica,sans-Serif" font-size="10.00">/home/runner/work/open62541pp</text>
<text text-anchor="start" x="627" y="-172" font-family="Helvetica,sans-Serif" font-size="10.00">/open62541pp/include/open62541pp</text>
<text text-anchor="middle" x="715.5" y="-161" font-family="Helvetica,sans-Serif" font-size="10.00">/services/View.h</text>
</a>
</g>
</g>
<!-- Node7&#45;&gt;Node10 -->
<g id="edge19_Node000007_Node000010" class="edge">
<title>Node7&#45;&gt;Node10</title>
<g id="a_edge19_Node000007_Node000010"><a xlink:title=" ">
<path fill="none" stroke="#63b8ff" d="M540.94,-228.08C575.83,-217.57 617.02,-205.16 650.62,-195.04"/>
<polygon fill="#63b8ff" stroke="#63b8ff" points="539.84,-224.76 531.27,-230.99 541.86,-231.46 539.84,-224.76"/>
</a>
</g>
</g>
<!-- Node8&#45;&gt;Node2 -->
<g id="edge12_Node000008_Node000002" class="edge">
<title>Node8&#45;&gt;Node2</title>
<g id="a_edge12_Node000008_Node000002"><a xlink:title=" ">
<path fill="none" stroke="#63b8ff" d="M782.8,-74.75C735.94,-64.1 679.97,-51.38 634.48,-41.04"/>
<polygon fill="#63b8ff" stroke="#63b8ff" points="782.13,-78.19 792.66,-76.99 783.68,-71.36 782.13,-78.19"/>
</a>
</g>
</g>
<!-- Node9&#45;&gt;Node4 -->
<g id="edge17_Node000009_Node000004" class="edge">
<title>Node9&#45;&gt;Node4</title>
<g id="a_edge17_Node000009_Node000004"><a xlink:title=" ">
<path fill="none" stroke="#63b8ff" d="M451.23,-149.86C428.15,-139.62 401.46,-127.77 379.53,-118.04"/>
<polygon fill="#63b8ff" stroke="#63b8ff" points="449.98,-153.13 460.54,-153.99 452.82,-146.73 449.98,-153.13"/>
</a>
</g>
</g>
<!-- Node9&#45;&gt;Node6 -->
<g id="edge18_Node000009_Node000006" class="edge">
<title>Node9&#45;&gt;Node6</title>
<g id="a_edge18_Node000009_Node000006"><a xlink:title=" ">
<path fill="none" stroke="#63b8ff" d="M521.16,-145.11C526.45,-136.09 532.18,-126.33 537.02,-118.07"/>
<polygon fill="#63b8ff" stroke="#63b8ff" points="518.1,-143.4 516.06,-153.79 524.14,-146.94 518.1,-143.4"/>
</a>
</g>
</g>
<!-- Node10&#45;&gt;Node4 -->
<g id="edge20_Node000010_Node000004" class="edge">
<title>Node10&#45;&gt;Node4</title>
<g id="a_edge20_Node000010_Node000004"><a xlink:title=" ">
<path fill="none" stroke="#63b8ff" d="M608.51,-152.38C553.57,-141.54 487.11,-128.42 433.52,-117.85"/>
<polygon fill="#63b8ff" stroke="#63b8ff" points="608.14,-155.88 618.63,-154.38 609.49,-149.01 608.14,-155.88"/>
</a>
</g>
</g>
<!-- Node10&#45;&gt;Node6 -->
<g id="edge21_Node000010_Node000006" class="edge">
<title>Node10&#45;&gt;Node6</title>
<g id="a_edge21_Node000010_Node000006"><a xlink:title=" ">
<path fill="none" stroke="#63b8ff" d="M662.86,-149.86C640.06,-139.62 613.68,-127.77 592.01,-118.04"/>
<polygon fill="#63b8ff" stroke="#63b8ff" points="661.5,-153.09 672.06,-153.99 664.37,-146.7 661.5,-153.09"/>
</a>
</g>
</g>
<!-- Node11&#45;&gt;Node2 -->
<g id="edge24_Node000011_Node000002" class="edge">
<title>Node11&#45;&gt;Node2</title>
<g id="a_edge24_Node000011_Node000002"><a xlink:title=" ">
<path fill="none" stroke="#63b8ff" d="M150.74,-300.34C143.85,-291.95 137.34,-282.21 133.5,-272 115.01,-222.9 107.57,-201.18 130.5,-154 154.71,-104.18 177.9,-99.53 228.5,-77 299.33,-45.47 386.39,-31.8 451.81,-25.9"/>
<polygon fill="#63b8ff" stroke="#63b8ff" points="148.18,-302.72 157.39,-307.94 153.45,-298.11 148.18,-302.72"/>
</a>
</g>
</g>
<!-- Node11&#45;&gt;Node4 -->
<g id="edge23_Node000011_Node000004" class="edge">
<title>Node11&#45;&gt;Node4</title>
<g id="a_edge23_Node000011_Node000004"><a xlink:title=" ">
<path fill="none" stroke="#63b8ff" d="M161.68,-299.07C142.18,-261.98 116.56,-196.8 148.5,-154 160.05,-138.53 198.39,-125.83 237.38,-116.51"/>
<polygon fill="#63b8ff" stroke="#63b8ff" points="158.61,-300.75 166.46,-307.86 164.76,-297.4 158.61,-300.75"/>
</a>
</g>
</g>
<!-- Node11&#45;&gt;Node5 -->
<g id="edge25_Node000011_Node000005" class="edge">
<title>Node11&#45;&gt;Node5</title>
<g id="a_edge25_Node000011_Node000005"><a xlink:title=" ">
<path fill="none" stroke="#63b8ff" d="M192.87,-298.76C207.97,-268.57 231.32,-221.87 244.52,-195.47"/>
<polygon fill="#63b8ff" stroke="#63b8ff" points="189.62,-297.43 188.28,-307.94 195.88,-300.56 189.62,-297.43"/>
</a>
</g>
</g>
<!-- Node11&#45;&gt;Node7 -->
<g id="edge26_Node000011_Node000007" class="edge">
<title>Node11&#45;&gt;Node7</title>
<g id="a_edge26_Node000011_Node000007"><a xlink:title=" ">
<path fill="none" stroke="#63b8ff" d="M263.3,-305.42C303.93,-294.84 352.18,-282.27 391.46,-272.04"/>
<polygon fill="#63b8ff" stroke="#63b8ff" points="262.21,-302.08 253.42,-307.99 263.98,-308.86 262.21,-302.08"/>
</a>
</g>
</g>
</g>
</svg>
