<?xml version="1.0" encoding="UTF-8" standalone="no"?>
<!DOCTYPE svg PUBLIC "-//W3C//DTD SVG 1.1//EN"
 "http://www.w3.org/Graphics/SVG/1.1/DTD/svg11.dtd">
<!-- Generated by graphviz version 2.43.0 (0)
 -->
<!-- Title: /home/runner/work/open62541pp/open62541pp/include/open62541pp/TypeRegistry.h Pages: 1 -->
<svg width="1700pt" height="511pt"
 viewBox="0.00 0.00 1699.66 511.00" xmlns="http://www.w3.org/2000/svg" xmlns:xlink="http://www.w3.org/1999/xlink">
<g id="graph0" class="graph" transform="scale(1 1) rotate(0) translate(4 507)">
<title>/home/runner/work/open62541pp/open62541pp/include/open62541pp/TypeRegistry.h</title>
<!-- Node1 -->
<g id="Node000001" class="node">
<title>Node1</title>
<g id="a_Node000001"><a xlink:title=" ">
<polygon fill="#999999" stroke="#666666" points="662,-503 469,-503 469,-462 662,-462 662,-503"/>
<text text-anchor="start" x="477" y="-491" font-family="Helvetica,sans-Serif" font-size="10.00">/home/runner/work/open62541pp</text>
<text text-anchor="start" x="477" y="-480" font-family="Helvetica,sans-Serif" font-size="10.00">/open62541pp/include/open62541pp</text>
<text text-anchor="middle" x="565.5" y="-469" font-family="Helvetica,sans-Serif" font-size="10.00">/TypeRegistry.h</text>
</a>
</g>
</g>
<!-- Node2 -->
<g id="Node000002" class="node">
<title>Node2</title>
<g id="a_Node000002"><a xlink:href="DataTypeBuilder_8h.html" target="_top" xlink:title=" ">
<polygon fill="white" stroke="#666666" points="193,-349 0,-349 0,-308 193,-308 193,-349"/>
<text text-anchor="start" x="8" y="-337" font-family="Helvetica,sans-Serif" font-size="10.00">/home/runner/work/open62541pp</text>
<text text-anchor="start" x="8" y="-326" font-family="Helvetica,sans-Serif" font-size="10.00">/open62541pp/include/open62541pp</text>
<text text-anchor="middle" x="96.5" y="-315" font-family="Helvetica,sans-Serif" font-size="10.00">/DataTypeBuilder.h</text>
</a>
</g>
</g>
<!-- Node1&#45;&gt;Node2 -->
<g id="edge1_Node000001_Node000002" class="edge">
<title>Node1&#45;&gt;Node2</title>
<g id="a_edge1_Node000001_Node000002"><a xlink:title=" ">
<path fill="none" stroke="#63b8ff" d="M458.77,-480.36C385.13,-475.96 286.64,-462.75 207.5,-426 168.36,-407.83 132.52,-371.59 112.68,-349.06"/>
<polygon fill="#63b8ff" stroke="#63b8ff" points="458.81,-483.87 468.99,-480.93 459.2,-476.88 458.81,-483.87"/>
</a>
</g>
</g>
<!-- Node3 -->
<g id="Node000003" class="node">
<title>Node3</title>
<g id="a_Node000003"><a xlink:href="open62541pp_8h.html" target="_top" xlink:title=" ">
<polygon fill="white" stroke="#666666" points="830,-41 637,-41 637,0 830,0 830,-41"/>
<text text-anchor="start" x="645" y="-29" font-family="Helvetica,sans-Serif" font-size="10.00">/home/runner/work/open62541pp</text>
<text text-anchor="start" x="645" y="-18" font-family="Helvetica,sans-Serif" font-size="10.00">/open62541pp/include/open62541pp</text>
<text text-anchor="middle" x="733.5" y="-7" font-family="Helvetica,sans-Serif" font-size="10.00">/open62541pp.h</text>
</a>
</g>
</g>
<!-- Node1&#45;&gt;Node3 -->
<g id="edge8_Node000001_Node000003" class="edge">
<title>Node1&#45;&gt;Node3</title>
<g id="a_edge8_Node000001_Node000003"><a xlink:title=" ">
<path fill="none" stroke="#63b8ff" d="M458.79,-477.69C357.79,-467.69 221.5,-434.71 221.5,-329.5 221.5,-329.5 221.5,-329.5 221.5,-173.5 221.5,-126.9 225.21,-104.95 262.5,-77 319.78,-34.07 516.53,-23.85 636.87,-21.72"/>
<polygon fill="#63b8ff" stroke="#63b8ff" points="458.48,-481.18 468.76,-478.62 459.13,-474.21 458.48,-481.18"/>
</a>
</g>
</g>
<!-- Node4 -->
<g id="Node000004" class="node">
<title>Node4</title>
<g id="a_Node000004"><a xlink:href="Node_8h.html" target="_top" xlink:title=" ">
<polygon fill="white" stroke="#666666" points="1519.5,-118 1323.5,-118 1323.5,-77 1519.5,-77 1519.5,-118"/>
<text text-anchor="start" x="1331.5" y="-106" font-family="Helvetica,sans-Serif" font-size="10.00">/home/runner/work/open62541pp</text>
<text text-anchor="start" x="1331.5" y="-95" font-family="Helvetica,sans-Serif" font-size="10.00">/open62541pp/include/open62541pp/</text>
<text text-anchor="middle" x="1421.5" y="-84" font-family="Helvetica,sans-Serif" font-size="10.00">Node.h</text>
</a>
</g>
</g>
<!-- Node1&#45;&gt;Node4 -->
<g id="edge3_Node000001_Node000004" class="edge">
<title>Node1&#45;&gt;Node4</title>
<g id="a_edge3_Node000001_Node000004"><a xlink:title=" ">
<path fill="none" stroke="#63b8ff" d="M672.72,-479.91C916.47,-475.68 1497.38,-461.92 1578.5,-426 1689.95,-376.65 1704.39,-235.21 1613.5,-154 1587.62,-130.88 1552.67,-117.36 1519.67,-109.46"/>
<polygon fill="#63b8ff" stroke="#63b8ff" points="672.37,-476.41 662.43,-480.08 672.49,-483.41 672.37,-476.41"/>
</a>
</g>
</g>
<!-- Node5 -->
<g id="Node000005" class="node">
<title>Node5</title>
<g id="a_Node000005"><a xlink:href="TypeRegistryNative_8h.html" target="_top" xlink:title=" ">
<polygon fill="white" stroke="#666666" points="557,-426 364,-426 364,-385 557,-385 557,-426"/>
<text text-anchor="start" x="372" y="-414" font-family="Helvetica,sans-Serif" font-size="10.00">/home/runner/work/open62541pp</text>
<text text-anchor="start" x="372" y="-403" font-family="Helvetica,sans-Serif" font-size="10.00">/open62541pp/include/open62541pp</text>
<text text-anchor="middle" x="460.5" y="-392" font-family="Helvetica,sans-Serif" font-size="10.00">/TypeRegistryNative.h</text>
</a>
</g>
</g>
<!-- Node1&#45;&gt;Node5 -->
<g id="edge5_Node000001_Node000005" class="edge">
<title>Node1&#45;&gt;Node5</title>
<g id="a_edge5_Node000001_Node000005"><a xlink:title=" ">
<path fill="none" stroke="#63b8ff" d="M523.9,-456.37C509.57,-446.53 494.14,-435.41 482.02,-426.17"/>
<polygon fill="#63b8ff" stroke="#63b8ff" points="521.94,-459.27 532.18,-461.99 525.87,-453.48 521.94,-459.27"/>
</a>
</g>
</g>
<!-- Node6 -->
<g id="Node000006" class="node">
<title>Node6</title>
<g id="a_Node000006"><a xlink:href="Composed_8h.html" target="_top" xlink:title=" ">
<polygon fill="white" stroke="#666666" points="1212,-272 1019,-272 1019,-231 1212,-231 1212,-272"/>
<text text-anchor="start" x="1027" y="-260" font-family="Helvetica,sans-Serif" font-size="10.00">/home/runner/work/open62541pp</text>
<text text-anchor="start" x="1027" y="-249" font-family="Helvetica,sans-Serif" font-size="10.00">/open62541pp/include/open62541pp</text>
<text text-anchor="middle" x="1115.5" y="-238" font-family="Helvetica,sans-Serif" font-size="10.00">/types/Composed.h</text>
</a>
</g>
</g>
<!-- Node1&#45;&gt;Node6 -->
<g id="edge9_Node000001_Node000006" class="edge">
<title>Node1&#45;&gt;Node6</title>
<g id="a_edge9_Node000001_Node000006"><a xlink:title=" ">
<path fill="none" stroke="#63b8ff" d="M667.76,-459.52C703.05,-450.68 742.5,-439.38 777.5,-426 894.56,-381.25 1024.04,-307.35 1083.03,-272.23"/>
<polygon fill="#63b8ff" stroke="#63b8ff" points="666.79,-456.15 657.92,-461.95 668.47,-462.95 666.79,-456.15"/>
</a>
</g>
</g>
<!-- Node12 -->
<g id="Node000012" class="node">
<title>Node12</title>
<g id="a_Node000012"><a xlink:href="ExtensionObject_8h.html" target="_top" xlink:title=" ">
<polygon fill="white" stroke="#666666" points="768,-426 575,-426 575,-385 768,-385 768,-426"/>
<text text-anchor="start" x="583" y="-414" font-family="Helvetica,sans-Serif" font-size="10.00">/home/runner/work/open62541pp</text>
<text text-anchor="start" x="583" y="-403" font-family="Helvetica,sans-Serif" font-size="10.00">/open62541pp/include/open62541pp</text>
<text text-anchor="middle" x="671.5" y="-392" font-family="Helvetica,sans-Serif" font-size="10.00">/types/ExtensionObject.h</text>
</a>
</g>
</g>
<!-- Node1&#45;&gt;Node12 -->
<g id="edge24_Node000001_Node000012" class="edge">
<title>Node1&#45;&gt;Node12</title>
<g id="a_edge24_Node000001_Node000012"><a xlink:title=" ">
<path fill="none" stroke="#63b8ff" d="M601.41,-456.09C615.22,-446.32 630.76,-435.32 643.7,-426.17"/>
<polygon fill="#63b8ff" stroke="#63b8ff" points="599.22,-453.36 593.07,-461.99 603.26,-459.07 599.22,-453.36"/>
</a>
</g>
</g>
<!-- Node18 -->
<g id="Node000018" class="node">
<title>Node18</title>
<g id="a_Node000018"><a xlink:href="Variant_8h.html" target="_top" xlink:title=" ">
<polygon fill="white" stroke="#666666" points="1569,-426 1376,-426 1376,-385 1569,-385 1569,-426"/>
<text text-anchor="start" x="1384" y="-414" font-family="Helvetica,sans-Serif" font-size="10.00">/home/runner/work/open62541pp</text>
<text text-anchor="start" x="1384" y="-403" font-family="Helvetica,sans-Serif" font-size="10.00">/open62541pp/include/open62541pp</text>
<text text-anchor="middle" x="1472.5" y="-392" font-family="Helvetica,sans-Serif" font-size="10.00">/types/Variant.h</text>
</a>
</g>
</g>
<!-- Node1&#45;&gt;Node18 -->
<g id="edge38_Node000001_Node000018" class="edge">
<title>Node1&#45;&gt;Node18</title>
<g id="a_edge38_Node000001_Node000018"><a xlink:title=" ">
<path fill="none" stroke="#63b8ff" d="M672.29,-472.67C850.22,-457.96 1204.62,-428.65 1375.68,-414.51"/>
<polygon fill="#63b8ff" stroke="#63b8ff" points="671.81,-469.2 662.14,-473.51 672.39,-476.17 671.81,-469.2"/>
</a>
</g>
</g>
<!-- Node2&#45;&gt;Node3 -->
<g id="edge2_Node000002_Node000003" class="edge">
<title>Node2&#45;&gt;Node3</title>
<g id="a_edge2_Node000002_Node000003"><a xlink:title=" ">
<path fill="none" stroke="#63b8ff" d="M100.1,-297.81C108.35,-243.9 133.96,-130.55 207.5,-77 241.39,-52.32 494.61,-34.61 636.99,-26.48"/>
<polygon fill="#63b8ff" stroke="#63b8ff" points="96.62,-297.37 98.67,-307.76 103.55,-298.36 96.62,-297.37"/>
</a>
</g>
</g>
<!-- Node4&#45;&gt;Node3 -->
<g id="edge4_Node000004_Node000003" class="edge">
<title>Node4&#45;&gt;Node3</title>
<g id="a_edge4_Node000004_Node000003"><a xlink:title=" ">
<path fill="none" stroke="#63b8ff" d="M1313.34,-81.57C1300.93,-79.97 1288.44,-78.41 1276.5,-77 1120.52,-58.55 938.89,-40.72 830.22,-30.45"/>
<polygon fill="#63b8ff" stroke="#63b8ff" points="1312.91,-85.04 1323.28,-82.86 1313.81,-78.1 1312.91,-85.04"/>
</a>
</g>
</g>
<!-- Node5&#45;&gt;Node1 -->
<g id="edge6_Node000005_Node000001" class="edge">
<title>Node5&#45;&gt;Node1</title>
<g id="a_edge6_Node000005_Node000001"><a xlink:title=" ">
<path fill="none" stroke="#63b8ff" d="M502.35,-431.81C516.69,-441.66 532.12,-452.77 544.19,-461.99"/>
<polygon fill="#63b8ff" stroke="#63b8ff" points="504.3,-428.9 494.06,-426.17 500.36,-434.69 504.3,-428.9"/>
</a>
</g>
</g>
<!-- Node5&#45;&gt;Node3 -->
<g id="edge7_Node000005_Node000003" class="edge">
<title>Node5&#45;&gt;Node3</title>
<g id="a_edge7_Node000005_Node000003"><a xlink:title=" ">
<path fill="none" stroke="#63b8ff" d="M384.73,-381.29C327.77,-358.59 259.5,-317.77 259.5,-252.5 259.5,-252.5 259.5,-252.5 259.5,-173.5 259.5,-126.72 264.09,-105.08 301.5,-77 352.82,-38.47 526.03,-26.63 636.91,-23.03"/>
<polygon fill="#63b8ff" stroke="#63b8ff" points="383.54,-384.58 394.13,-384.91 386.06,-378.05 383.54,-384.58"/>
</a>
</g>
</g>
<!-- Node6&#45;&gt;Node3 -->
<g id="edge13_Node000006_Node000003" class="edge">
<title>Node6&#45;&gt;Node3</title>
<g id="a_edge13_Node000006_Node000003"><a xlink:title=" ">
<path fill="none" stroke="#63b8ff" d="M1008.93,-241.38C966.28,-233.81 918.39,-220.02 880.5,-195 826.13,-159.09 836.94,-125.56 793.5,-77 782.15,-64.31 768.25,-51.32 756.7,-41.1"/>
<polygon fill="#63b8ff" stroke="#63b8ff" points="1008.36,-244.84 1018.8,-243.04 1009.52,-237.93 1008.36,-244.84"/>
</a>
</g>
</g>
<!-- Node6&#45;&gt;Node4 -->
<g id="edge12_Node000006_Node000004" class="edge">
<title>Node6&#45;&gt;Node4</title>
<g id="a_edge12_Node000006_Node000004"><a xlink:title=" ">
<path fill="none" stroke="#63b8ff" d="M1222.17,-231.98C1253.36,-223.66 1286.55,-211.8 1314.5,-195 1336.06,-182.04 1335.05,-171.1 1353.5,-154 1367.02,-141.47 1382.95,-128.38 1396,-118.07"/>
<polygon fill="#63b8ff" stroke="#63b8ff" points="1220.94,-228.69 1212.12,-234.56 1222.68,-235.47 1220.94,-228.69"/>
</a>
</g>
</g>
<!-- Node7 -->
<g id="Node000007" class="node">
<title>Node7</title>
<g id="a_Node000007"><a xlink:href="AccessControl_8h.html" target="_top" xlink:title=" ">
<polygon fill="white" stroke="#666666" points="1056,-118 863,-118 863,-77 1056,-77 1056,-118"/>
<text text-anchor="start" x="871" y="-106" font-family="Helvetica,sans-Serif" font-size="10.00">/home/runner/work/open62541pp</text>
<text text-anchor="start" x="871" y="-95" font-family="Helvetica,sans-Serif" font-size="10.00">/open62541pp/include/open62541pp</text>
<text text-anchor="middle" x="959.5" y="-84" font-family="Helvetica,sans-Serif" font-size="10.00">/AccessControl.h</text>
</a>
</g>
</g>
<!-- Node6&#45;&gt;Node7 -->
<g id="edge10_Node000006_Node000007" class="edge">
<title>Node6&#45;&gt;Node7</title>
<g id="a_edge10_Node000006_Node000007"><a xlink:title=" ">
<path fill="none" stroke="#63b8ff" d="M1008.9,-236.64C959.13,-227.75 907.53,-214.23 892.5,-195 881.28,-180.64 884.75,-170.49 892.5,-154 899.38,-139.37 912.21,-127.28 924.82,-118.15"/>
<polygon fill="#63b8ff" stroke="#63b8ff" points="1008.37,-240.1 1018.82,-238.35 1009.57,-233.2 1008.37,-240.1"/>
</a>
</g>
</g>
<!-- Node8 -->
<g id="Node000008" class="node">
<title>Node8</title>
<g id="a_Node000008"><a xlink:href="Attribute_8h.html" target="_top" xlink:title=" ">
<polygon fill="white" stroke="#666666" points="1555,-195 1362,-195 1362,-154 1555,-154 1555,-195"/>
<text text-anchor="start" x="1370" y="-183" font-family="Helvetica,sans-Serif" font-size="10.00">/home/runner/work/open62541pp</text>
<text text-anchor="start" x="1370" y="-172" font-family="Helvetica,sans-Serif" font-size="10.00">/open62541pp/include/open62541pp</text>
<text text-anchor="middle" x="1458.5" y="-161" font-family="Helvetica,sans-Serif" font-size="10.00">/services/Attribute.h</text>
</a>
</g>
</g>
<!-- Node6&#45;&gt;Node8 -->
<g id="edge14_Node000006_Node000008" class="edge">
<title>Node6&#45;&gt;Node8</title>
<g id="a_edge14_Node000006_Node000008"><a xlink:title=" ">
<path fill="none" stroke="#63b8ff" d="M1214.66,-228.82C1263.43,-218.15 1321.75,-205.4 1369.13,-195.04"/>
<polygon fill="#63b8ff" stroke="#63b8ff" points="1213.75,-225.44 1204.72,-230.99 1215.24,-232.27 1213.75,-225.44"/>
</a>
</g>
</g>
<!-- Node10 -->
<g id="Node000010" class="node">
<title>Node10</title>
<g id="a_Node000010"><a xlink:href="NodeManagement_8h.html" target="_top" xlink:title=" ">
<polygon fill="white" stroke="#666666" points="1305,-195 1112,-195 1112,-154 1305,-154 1305,-195"/>
<text text-anchor="start" x="1120" y="-183" font-family="Helvetica,sans-Serif" font-size="10.00">/home/runner/work/open62541pp</text>
<text text-anchor="start" x="1120" y="-172" font-family="Helvetica,sans-Serif" font-size="10.00">/open62541pp/include/open62541pp</text>
<text text-anchor="middle" x="1208.5" y="-161" font-family="Helvetica,sans-Serif" font-size="10.00">/services/NodeManagement.h</text>
</a>
</g>
</g>
<!-- Node6&#45;&gt;Node10 -->
<g id="edge18_Node000006_Node000010" class="edge">
<title>Node6&#45;&gt;Node10</title>
<g id="a_edge18_Node000006_Node000010"><a xlink:title=" ">
<path fill="none" stroke="#63b8ff" d="M1147.93,-224.35C1159.85,-214.73 1173.14,-204.01 1184.23,-195.07"/>
<polygon fill="#63b8ff" stroke="#63b8ff" points="1145.52,-221.79 1139.93,-230.79 1149.92,-227.24 1145.52,-221.79"/>
</a>
</g>
</g>
<!-- Node11 -->
<g id="Node000011" class="node">
<title>Node11</title>
<g id="a_Node000011"><a xlink:href="View_8h.html" target="_top" xlink:title=" ">
<polygon fill="white" stroke="#666666" points="1094,-195 901,-195 901,-154 1094,-154 1094,-195"/>
<text text-anchor="start" x="909" y="-183" font-family="Helvetica,sans-Serif" font-size="10.00">/home/runner/work/open62541pp</text>
<text text-anchor="start" x="909" y="-172" font-family="Helvetica,sans-Serif" font-size="10.00">/open62541pp/include/open62541pp</text>
<text text-anchor="middle" x="997.5" y="-161" font-family="Helvetica,sans-Serif" font-size="10.00">/services/View.h</text>
</a>
</g>
</g>
<!-- Node6&#45;&gt;Node11 -->
<g id="edge21_Node000006_Node000011" class="edge">
<title>Node6&#45;&gt;Node11</title>
<g id="a_edge21_Node000006_Node000011"><a xlink:title=" ">
<path fill="none" stroke="#63b8ff" d="M1075.96,-225.37C1060.48,-215.53 1042.99,-204.41 1028.45,-195.17"/>
<polygon fill="#63b8ff" stroke="#63b8ff" points="1074.49,-228.58 1084.8,-230.99 1078.24,-222.67 1074.49,-228.58"/>
</a>
</g>
</g>
<!-- Node7&#45;&gt;Node3 -->
<g id="edge11_Node000007_Node000003" class="edge">
<title>Node7&#45;&gt;Node3</title>
<g id="a_edge11_Node000007_Node000003"><a xlink:title=" ">
<path fill="none" stroke="#63b8ff" d="M891.13,-73.81C859.63,-63.36 822.63,-51.08 792.39,-41.04"/>
<polygon fill="#63b8ff" stroke="#63b8ff" points="890.12,-77.16 900.71,-76.99 892.32,-70.52 890.12,-77.16"/>
</a>
</g>
</g>
<!-- Node8&#45;&gt;Node4 -->
<g id="edge15_Node000008_Node000004" class="edge">
<title>Node8&#45;&gt;Node4</title>
<g id="a_edge15_Node000008_Node000004"><a xlink:title=" ">
<path fill="none" stroke="#63b8ff" d="M1444.22,-144.55C1439.84,-135.69 1435.14,-126.15 1431.16,-118.07"/>
<polygon fill="#63b8ff" stroke="#63b8ff" points="1441.22,-146.38 1448.78,-153.79 1447.49,-143.28 1441.22,-146.38"/>
</a>
</g>
</g>
<!-- Node9 -->
<g id="Node000009" class="node">
<title>Node9</title>
<g id="a_Node000009"><a xlink:href="services_8h.html" target="_top" xlink:title=" ">
<polygon fill="white" stroke="#666666" points="1267,-118 1074,-118 1074,-77 1267,-77 1267,-118"/>
<text text-anchor="start" x="1082" y="-106" font-family="Helvetica,sans-Serif" font-size="10.00">/home/runner/work/open62541pp</text>
<text text-anchor="start" x="1082" y="-95" font-family="Helvetica,sans-Serif" font-size="10.00">/open62541pp/include/open62541pp</text>
<text text-anchor="middle" x="1170.5" y="-84" font-family="Helvetica,sans-Serif" font-size="10.00">/services/services.h</text>
</a>
</g>
</g>
<!-- Node8&#45;&gt;Node9 -->
<g id="edge16_Node000008_Node000009" class="edge">
<title>Node8&#45;&gt;Node9</title>
<g id="a_edge16_Node000008_Node000009"><a xlink:title=" ">
<path fill="none" stroke="#63b8ff" d="M1373.7,-151.42C1333.07,-140.84 1284.82,-128.27 1245.54,-118.04"/>
<polygon fill="#63b8ff" stroke="#63b8ff" points="1373.02,-154.86 1383.58,-153.99 1374.79,-148.08 1373.02,-154.86"/>
</a>
</g>
</g>
<!-- Node9&#45;&gt;Node3 -->
<g id="edge17_Node000009_Node000003" class="edge">
<title>Node9&#45;&gt;Node3</title>
<g id="a_edge17_Node000009_Node000003"><a xlink:title=" ">
<path fill="none" stroke="#63b8ff" d="M1063.82,-76.72C979.55,-61.9 893.94,-47.65 830.19,-37.19"/>
<polygon fill="#63b8ff" stroke="#63b8ff" points="1063.37,-80.19 1073.82,-78.48 1064.58,-73.3 1063.37,-80.19"/>
</a>
</g>
</g>
<!-- Node10&#45;&gt;Node4 -->
<g id="edge19_Node000010_Node000004" class="edge">
<title>Node10&#45;&gt;Node4</title>
<g id="a_edge19_Node000010_Node000004"><a xlink:title=" ">
<path fill="none" stroke="#63b8ff" d="M1273.71,-150.54C1303.22,-140.15 1337.75,-127.99 1366,-118.04"/>
<polygon fill="#63b8ff" stroke="#63b8ff" points="1272.18,-147.37 1263.91,-153.99 1274.5,-153.97 1272.18,-147.37"/>
</a>
</g>
</g>
<!-- Node10&#45;&gt;Node9 -->
<g id="edge20_Node000010_Node000009" class="edge">
<title>Node10&#45;&gt;Node9</title>
<g id="a_edge20_Node000010_Node000009"><a xlink:title=" ">
<path fill="none" stroke="#63b8ff" d="M1193.97,-144.83C1189.44,-135.89 1184.55,-126.24 1180.42,-118.07"/>
<polygon fill="#63b8ff" stroke="#63b8ff" points="1190.87,-146.46 1198.52,-153.79 1197.12,-143.29 1190.87,-146.46"/>
</a>
</g>
</g>
<!-- Node11&#45;&gt;Node4 -->
<g id="edge22_Node000011_Node000004" class="edge">
<title>Node11&#45;&gt;Node4</title>
<g id="a_edge22_Node000011_Node000004"><a xlink:title=" ">
<path fill="none" stroke="#63b8ff" d="M1104.46,-153.84C1183.94,-139.61 1263.04,-125.83 1323.33,-115.4"/>
<polygon fill="#63b8ff" stroke="#63b8ff" points="1103.48,-150.45 1094.26,-155.66 1104.72,-157.34 1103.48,-150.45"/>
</a>
</g>
</g>
<!-- Node11&#45;&gt;Node9 -->
<g id="edge23_Node000011_Node000009" class="edge">
<title>Node11&#45;&gt;Node9</title>
<g id="a_edge23_Node000011_Node000009"><a xlink:title=" ">
<path fill="none" stroke="#63b8ff" d="M1051.72,-150C1075.41,-139.72 1102.87,-127.82 1125.42,-118.04"/>
<polygon fill="#63b8ff" stroke="#63b8ff" points="1050.28,-146.8 1042.5,-153.99 1053.07,-153.22 1050.28,-146.8"/>
</a>
</g>
</g>
<!-- Node12&#45;&gt;Node3 -->
<g id="edge25_Node000012_Node000003" class="edge">
<title>Node12&#45;&gt;Node3</title>
<g id="a_edge25_Node000012_Node000003"><a xlink:title=" ">
<path fill="none" stroke="#63b8ff" d="M564.82,-382.8C454.28,-357.17 297.5,-310.58 297.5,-252.5 297.5,-252.5 297.5,-252.5 297.5,-173.5 297.5,-126.36 303.74,-105.22 341.5,-77 386.85,-43.1 536.18,-29.85 636.88,-24.71"/>
<polygon fill="#63b8ff" stroke="#63b8ff" points="564.17,-386.24 574.7,-385.07 565.73,-379.42 564.17,-386.24"/>
</a>
</g>
</g>
<!-- Node12&#45;&gt;Node6 -->
<g id="edge37_Node000012_Node000006" class="edge">
<title>Node12&#45;&gt;Node6</title>
<g id="a_edge37_Node000012_Node000006"><a xlink:title=" ">
<path fill="none" stroke="#63b8ff" d="M738.15,-381.68C825.18,-351.89 976.1,-300.22 1058.23,-272.11"/>
<polygon fill="#63b8ff" stroke="#63b8ff" points="736.96,-378.39 728.64,-384.94 739.23,-385.01 736.96,-378.39"/>
</a>
</g>
</g>
<!-- Node13 -->
<g id="Node000013" class="node">
<title>Node13</title>
<g id="a_Node000013"><a xlink:href="services_2MonitoredItem_8h.html" target="_top" xlink:title=" ">
<polygon fill="white" stroke="#666666" points="768,-349 575,-349 575,-308 768,-308 768,-349"/>
<text text-anchor="start" x="583" y="-337" font-family="Helvetica,sans-Serif" font-size="10.00">/home/runner/work/open62541pp</text>
<text text-anchor="start" x="583" y="-326" font-family="Helvetica,sans-Serif" font-size="10.00">/open62541pp/include/open62541pp</text>
<text text-anchor="middle" x="671.5" y="-315" font-family="Helvetica,sans-Serif" font-size="10.00">/services/MonitoredItem.h</text>
</a>
</g>
</g>
<!-- Node12&#45;&gt;Node13 -->
<g id="edge26_Node000012_Node000013" class="edge">
<title>Node12&#45;&gt;Node13</title>
<g id="a_edge26_Node000012_Node000013"><a xlink:title=" ">
<path fill="none" stroke="#63b8ff" d="M671.5,-374.69C671.5,-366.08 671.5,-356.9 671.5,-349.07"/>
<polygon fill="#63b8ff" stroke="#63b8ff" points="668,-374.79 671.5,-384.79 675,-374.79 668,-374.79"/>
</a>
</g>
</g>
<!-- Node13&#45;&gt;Node9 -->
<g id="edge36_Node000013_Node000009" class="edge">
<title>Node13&#45;&gt;Node9</title>
<g id="a_edge36_Node000013_Node000009"><a xlink:title=" ">
<path fill="none" stroke="#63b8ff" d="M725.81,-303.22C743.03,-294.45 761.69,-283.78 777.5,-272 836.22,-228.25 828.15,-188.96 892.5,-154 896.64,-151.75 995.13,-132.37 1073.71,-117.13"/>
<polygon fill="#63b8ff" stroke="#63b8ff" points="723.81,-300.31 716.41,-307.89 726.93,-306.58 723.81,-300.31"/>
</a>
</g>
</g>
<!-- Node14 -->
<g id="Node000014" class="node">
<title>Node14</title>
<g id="a_Node000014"><a xlink:href="MonitoredItem_8h.html" target="_top" xlink:title=" ">
<polygon fill="white" stroke="#666666" points="768,-272 575,-272 575,-231 768,-231 768,-272"/>
<text text-anchor="start" x="583" y="-260" font-family="Helvetica,sans-Serif" font-size="10.00">/home/runner/work/open62541pp</text>
<text text-anchor="start" x="583" y="-249" font-family="Helvetica,sans-Serif" font-size="10.00">/open62541pp/include/open62541pp</text>
<text text-anchor="middle" x="671.5" y="-238" font-family="Helvetica,sans-Serif" font-size="10.00">/MonitoredItem.h</text>
</a>
</g>
</g>
<!-- Node13&#45;&gt;Node14 -->
<g id="edge27_Node000013_Node000014" class="edge">
<title>Node13&#45;&gt;Node14</title>
<g id="a_edge27_Node000013_Node000014"><a xlink:title=" ">
<path fill="none" stroke="#63b8ff" d="M671.5,-297.69C671.5,-289.08 671.5,-279.9 671.5,-272.07"/>
<polygon fill="#63b8ff" stroke="#63b8ff" points="668,-297.79 671.5,-307.79 675,-297.79 668,-297.79"/>
</a>
</g>
</g>
<!-- Node15 -->
<g id="Node000015" class="node">
<title>Node15</title>
<g id="a_Node000015"><a xlink:href="Subscription_8h.html" target="_top" xlink:title=" ">
<polygon fill="white" stroke="#666666" points="643,-195 450,-195 450,-154 643,-154 643,-195"/>
<text text-anchor="start" x="458" y="-183" font-family="Helvetica,sans-Serif" font-size="10.00">/home/runner/work/open62541pp</text>
<text text-anchor="start" x="458" y="-172" font-family="Helvetica,sans-Serif" font-size="10.00">/open62541pp/include/open62541pp</text>
<text text-anchor="middle" x="546.5" y="-161" font-family="Helvetica,sans-Serif" font-size="10.00">/Subscription.h</text>
</a>
</g>
</g>
<!-- Node13&#45;&gt;Node15 -->
<g id="edge35_Node000013_Node000015" class="edge">
<title>Node13&#45;&gt;Node15</title>
<g id="a_edge35_Node000013_Node000015"><a xlink:title=" ">
<path fill="none" stroke="#63b8ff" d="M604.41,-303.29C590.06,-295.31 576.3,-285.04 566.5,-272 549.64,-249.57 546.18,-216.27 545.86,-195.24"/>
<polygon fill="#63b8ff" stroke="#63b8ff" points="602.9,-306.46 613.38,-307.97 606.13,-300.25 602.9,-306.46"/>
</a>
</g>
</g>
<!-- Node14&#45;&gt;Node3 -->
<g id="edge34_Node000014_Node000003" class="edge">
<title>Node14&#45;&gt;Node3</title>
<g id="a_edge34_Node000014_Node000003"><a xlink:title=" ">
<path fill="none" stroke="#63b8ff" d="M701.97,-224.02C727.68,-199.5 762.59,-160.51 777.5,-118 783.53,-100.8 783.49,-94.21 777.5,-77 772.81,-63.53 763.33,-50.87 754.38,-41.06"/>
<polygon fill="#63b8ff" stroke="#63b8ff" points="699.58,-221.47 694.66,-230.85 704.36,-226.58 699.58,-221.47"/>
</a>
</g>
</g>
<!-- Node14&#45;&gt;Node15 -->
<g id="edge28_Node000014_Node000015" class="edge">
<title>Node14&#45;&gt;Node15</title>
<g id="a_edge28_Node000014_Node000015"><a xlink:title=" ">
<path fill="none" stroke="#63b8ff" d="M630.07,-225.64C613.56,-215.74 594.83,-204.5 579.29,-195.17"/>
<polygon fill="#63b8ff" stroke="#63b8ff" points="628.61,-228.85 638.98,-230.99 632.21,-222.84 628.61,-228.85"/>
</a>
</g>
</g>
<!-- Node15&#45;&gt;Node3 -->
<g id="edge33_Node000015_Node000003" class="edge">
<title>Node15&#45;&gt;Node3</title>
<g id="a_edge33_Node000015_Node000003"><a xlink:title=" ">
<path fill="none" stroke="#63b8ff" d="M439.64,-155.34C379.36,-140.49 322.2,-115.55 355.5,-77 391.16,-35.72 537.07,-24.57 636.82,-21.88"/>
<polygon fill="#63b8ff" stroke="#63b8ff" points="439.18,-158.82 449.72,-157.72 440.8,-152.01 439.18,-158.82"/>
</a>
</g>
</g>
<!-- Node16 -->
<g id="Node000016" class="node">
<title>Node16</title>
<g id="a_Node000016"><a xlink:href="Client_8h.html" target="_top" xlink:title=" ">
<polygon fill="white" stroke="#666666" points="557,-118 364,-118 364,-77 557,-77 557,-118"/>
<text text-anchor="start" x="372" y="-106" font-family="Helvetica,sans-Serif" font-size="10.00">/home/runner/work/open62541pp</text>
<text text-anchor="start" x="372" y="-95" font-family="Helvetica,sans-Serif" font-size="10.00">/open62541pp/include/open62541pp</text>
<text text-anchor="middle" x="460.5" y="-84" font-family="Helvetica,sans-Serif" font-size="10.00">/Client.h</text>
</a>
</g>
</g>
<!-- Node15&#45;&gt;Node16 -->
<g id="edge29_Node000015_Node000016" class="edge">
<title>Node15&#45;&gt;Node16</title>
<g id="a_edge29_Node000015_Node000016"><a xlink:title=" ">
<path fill="none" stroke="#63b8ff" d="M516.19,-147.07C505.25,-137.52 493.1,-126.93 482.94,-118.07"/>
<polygon fill="#63b8ff" stroke="#63b8ff" points="514.07,-149.86 523.9,-153.79 518.67,-144.58 514.07,-149.86"/>
</a>
</g>
</g>
<!-- Node17 -->
<g id="Node000017" class="node">
<title>Node17</title>
<g id="a_Node000017"><a xlink:href="Server_8h.html" target="_top" xlink:title=" ">
<polygon fill="white" stroke="#666666" points="768,-118 575,-118 575,-77 768,-77 768,-118"/>
<text text-anchor="start" x="583" y="-106" font-family="Helvetica,sans-Serif" font-size="10.00">/home/runner/work/open62541pp</text>
<text text-anchor="start" x="583" y="-95" font-family="Helvetica,sans-Serif" font-size="10.00">/open62541pp/include/open62541pp</text>
<text text-anchor="middle" x="671.5" y="-84" font-family="Helvetica,sans-Serif" font-size="10.00">/Server.h</text>
</a>
</g>
</g>
<!-- Node15&#45;&gt;Node17 -->
<g id="edge31_Node000015_Node000017" class="edge">
<title>Node15&#45;&gt;Node17</title>
<g id="a_edge31_Node000015_Node000017"><a xlink:title=" ">
<path fill="none" stroke="#63b8ff" d="M587.93,-148.64C604.44,-138.74 623.17,-127.5 638.71,-118.17"/>
<polygon fill="#63b8ff" stroke="#63b8ff" points="585.79,-145.84 579.02,-153.99 589.39,-151.85 585.79,-145.84"/>
</a>
</g>
</g>
<!-- Node16&#45;&gt;Node3 -->
<g id="edge30_Node000016_Node000003" class="edge">
<title>Node16&#45;&gt;Node3</title>
<g id="a_edge30_Node000016_Node000003"><a xlink:title=" ">
<path fill="none" stroke="#63b8ff" d="M541.62,-74.21C579.98,-63.68 625.37,-51.21 662.37,-41.04"/>
<polygon fill="#63b8ff" stroke="#63b8ff" points="540.23,-70.97 531.51,-76.99 542.08,-77.72 540.23,-70.97"/>
</a>
</g>
</g>
<!-- Node17&#45;&gt;Node3 -->
<g id="edge32_Node000017_Node000003" class="edge">
<title>Node17&#45;&gt;Node3</title>
<g id="a_edge32_Node000017_Node000003"><a xlink:title=" ">
<path fill="none" stroke="#63b8ff" d="M694.27,-68.95C701.92,-59.7 710.28,-49.58 717.32,-41.07"/>
<polygon fill="#63b8ff" stroke="#63b8ff" points="691.46,-66.86 687.79,-76.79 696.86,-71.32 691.46,-66.86"/>
</a>
</g>
</g>
<!-- Node18&#45;&gt;Node3 -->
<g id="edge40_Node000018_Node000003" class="edge">
<title>Node18&#45;&gt;Node3</title>
<g id="a_edge40_Node000018_Node000003"><a xlink:title=" ">
<path fill="none" stroke="#63b8ff" d="M1579.23,-395.83C1608.94,-387.9 1638.09,-373.79 1656.5,-349 1732.43,-246.78 1675.41,-142.97 1566.5,-77 1504.87,-39.66 1036.27,-26.84 830.22,-22.98"/>
<polygon fill="#63b8ff" stroke="#63b8ff" points="1578.04,-392.52 1569.15,-398.29 1579.69,-399.32 1578.04,-392.52"/>
</a>
</g>
</g>
<!-- Node18&#45;&gt;Node4 -->
<g id="edge39_Node000018_Node000004" class="edge">
<title>Node18&#45;&gt;Node4</title>
<g id="a_edge39_Node000018_Node000004"><a xlink:title=" ">
<path fill="none" stroke="#63b8ff" d="M1578.91,-390.89C1602.91,-382.62 1625.65,-369.55 1640.5,-349 1651.17,-334.23 1643.66,-325.95 1640.5,-308 1627.86,-236.28 1636.53,-204.97 1584.5,-154 1566.67,-136.53 1543.13,-124.55 1519.5,-116.34"/>
<polygon fill="#63b8ff" stroke="#63b8ff" points="1577.77,-387.58 1569.3,-393.94 1579.89,-394.25 1577.77,-387.58"/>
</a>
</g>
</g>
<!-- Node18&#45;&gt;Node6 -->
<g id="edge42_Node000018_Node000006" class="edge">
<title>Node18&#45;&gt;Node6</title>
<g id="a_edge42_Node000018_Node000006"><a xlink:title=" ">
<path fill="none" stroke="#63b8ff" d="M1416.98,-380.86C1346.72,-350.95 1226.98,-299.97 1161.55,-272.11"/>
<polygon fill="#63b8ff" stroke="#63b8ff" points="1415.99,-384.24 1426.56,-384.94 1418.73,-377.8 1415.99,-384.24"/>
</a>
</g>
</g>
<!-- Node18&#45;&gt;Node8 -->
<g id="edge41_Node000018_Node000008" class="edge">
<title>Node18&#45;&gt;Node8</title>
<g id="a_edge41_Node000018_Node000008"><a xlink:title=" ">
<path fill="none" stroke="#63b8ff" d="M1445.51,-376.99C1439,-368.66 1432.93,-359.03 1429.5,-349 1411.07,-295.11 1434.88,-227.66 1449.17,-195"/>
<polygon fill="#63b8ff" stroke="#63b8ff" points="1442.99,-379.44 1452.09,-384.86 1448.36,-374.95 1442.99,-379.44"/>
</a>
</g>
</g>
<!-- Node19 -->
<g id="Node000019" class="node">
<title>Node19</title>
<g id="a_Node000019"><a xlink:href="DataValue_8h.html" target="_top" xlink:title=" ">
<polygon fill="white" stroke="#666666" points="1631,-349 1438,-349 1438,-308 1631,-308 1631,-349"/>
<text text-anchor="start" x="1446" y="-337" font-family="Helvetica,sans-Serif" font-size="10.00">/home/runner/work/open62541pp</text>
<text text-anchor="start" x="1446" y="-326" font-family="Helvetica,sans-Serif" font-size="10.00">/open62541pp/include/open62541pp</text>
<text text-anchor="middle" x="1534.5" y="-315" font-family="Helvetica,sans-Serif" font-size="10.00">/types/DataValue.h</text>
</a>
</g>
</g>
<!-- Node18&#45;&gt;Node19 -->
<g id="edge43_Node000018_Node000019" class="edge">
<title>Node18&#45;&gt;Node19</title>
<g id="a_edge43_Node000018_Node000019"><a xlink:title=" ">
<path fill="none" stroke="#63b8ff" d="M1495.27,-376.95C1502.92,-367.7 1511.28,-357.58 1518.32,-349.07"/>
<polygon fill="#63b8ff" stroke="#63b8ff" points="1492.46,-374.86 1488.79,-384.79 1497.86,-379.32 1492.46,-374.86"/>
</a>
</g>
</g>
<!-- Node19&#45;&gt;Node3 -->
<g id="edge45_Node000019_Node000003" class="edge">
<title>Node19&#45;&gt;Node3</title>
<g id="a_edge45_Node000019_Node000003"><a xlink:title=" ">
<path fill="none" stroke="#63b8ff" d="M1565.04,-300.59C1572.48,-292.25 1579.46,-282.47 1583.5,-272 1615.91,-187.99 1607.27,-120.63 1528.5,-77 1468.78,-43.92 1028.57,-28.86 830.09,-23.69"/>
<polygon fill="#63b8ff" stroke="#63b8ff" points="1562.5,-298.18 1558.14,-307.83 1567.57,-303.01 1562.5,-298.18"/>
</a>
</g>
</g>
<!-- Node19&#45;&gt;Node4 -->
<g id="edge44_Node000019_Node000004" class="edge">
<title>Node19&#45;&gt;Node4</title>
<g id="a_edge44_Node000019_Node000004"><a xlink:title=" ">
<path fill="none" stroke="#63b8ff" d="M1551.17,-298.69C1570.03,-261.9 1594.46,-197.76 1564.5,-154 1553.37,-137.74 1536.72,-126.24 1518.68,-118.11"/>
<polygon fill="#63b8ff" stroke="#63b8ff" points="1547.9,-297.39 1546.3,-307.86 1554.08,-300.68 1547.9,-297.39"/>
</a>
</g>
</g>
<!-- Node19&#45;&gt;Node6 -->
<g id="edge47_Node000019_Node000006" class="edge">
<title>Node19&#45;&gt;Node6</title>
<g id="a_edge47_Node000019_Node000006"><a xlink:title=" ">
<path fill="none" stroke="#63b8ff" d="M1427.76,-308.39C1361.29,-296.5 1276.48,-281.32 1212.03,-269.78"/>
<polygon fill="#63b8ff" stroke="#63b8ff" points="1427.39,-311.88 1437.85,-310.2 1428.62,-304.99 1427.39,-311.88"/>
</a>
</g>
</g>
<!-- Node19&#45;&gt;Node8 -->
<g id="edge46_Node000019_Node000008" class="edge">
<title>Node19&#45;&gt;Node8</title>
<g id="a_edge46_Node000019_Node000008"><a xlink:title=" ">
<path fill="none" stroke="#63b8ff" d="M1520.13,-298.76C1505.03,-268.57 1481.68,-221.87 1468.48,-195.47"/>
<polygon fill="#63b8ff" stroke="#63b8ff" points="1517.12,-300.56 1524.72,-307.94 1523.38,-297.43 1517.12,-300.56"/>
</a>
</g>
</g>
</g>
</svg>
