<?xml version="1.0" encoding="UTF-8" standalone="no"?>
<!DOCTYPE svg PUBLIC "-//W3C//DTD SVG 1.1//EN"
 "http://www.w3.org/Graphics/SVG/1.1/DTD/svg11.dtd">
<!-- Generated by graphviz version 2.43.0 (0)
 -->
<!-- Title: /home/runner/work/open62541pp/open62541pp/include/open62541pp/TypeConverter.h Pages: 1 -->
<svg width="712pt" height="518pt"
 viewBox="0.00 0.00 712.00 518.00" xmlns="http://www.w3.org/2000/svg" xmlns:xlink="http://www.w3.org/1999/xlink">
<g id="graph0" class="graph" transform="scale(1 1) rotate(0) translate(4 514)">
<title>/home/runner/work/open62541pp/open62541pp/include/open62541pp/TypeConverter.h</title>
<!-- Node1 -->
<g id="node1" class="node">
<title>Node1</title>
<g id="a_node1"><a xlink:title=" ">
<polygon fill="#bfbfbf" stroke="black" points="275.5,-468.5 275.5,-509.5 468.5,-509.5 468.5,-468.5 275.5,-468.5"/>
<text text-anchor="start" x="283.5" y="-497.5" font-family="Helvetica,sans-Serif" font-size="10.00">/home/runner/work/open62541pp</text>
<text text-anchor="start" x="283.5" y="-486.5" font-family="Helvetica,sans-Serif" font-size="10.00">/open62541pp/include/open62541pp</text>
<text text-anchor="middle" x="372" y="-475.5" font-family="Helvetica,sans-Serif" font-size="10.00">/TypeConverter.h</text>
</a>
</g>
</g>
<!-- Node2 -->
<g id="node2" class="node">
<title>Node2</title>
<g id="a_node2"><a xlink:href="Node_8h.html" target="_top" xlink:title=" ">
<polygon fill="none" stroke="black" points="122,-78.5 122,-119.5 318,-119.5 318,-78.5 122,-78.5"/>
<text text-anchor="start" x="130" y="-107.5" font-family="Helvetica,sans-Serif" font-size="10.00">/home/runner/work/open62541pp</text>
<text text-anchor="start" x="130" y="-96.5" font-family="Helvetica,sans-Serif" font-size="10.00">/open62541pp/include/open62541pp/</text>
<text text-anchor="middle" x="220" y="-85.5" font-family="Helvetica,sans-Serif" font-size="10.00">Node.h</text>
</a>
</g>
</g>
<!-- Node1&#45;&gt;Node2 -->
<g id="edge1" class="edge">
<title>Node1&#45;&gt;Node2</title>
<path fill="none" stroke="midnightblue" d="M267.82,-466.13C157.77,-439.96 0,-392.27 0,-334 0,-334 0,-334 0,-254 0,-182.09 79.87,-140.92 143.36,-119.56"/>
<polygon fill="midnightblue" stroke="midnightblue" points="267.11,-469.56 277.65,-468.44 268.71,-462.75 267.11,-469.56"/>
</g>
<!-- Node3 -->
<g id="node3" class="node">
<title>Node3</title>
<g id="a_node3"><a xlink:href="open62541pp_8h.html" target="_top" xlink:title=" ">
<polygon fill="none" stroke="black" points="507.5,-0.5 507.5,-41.5 700.5,-41.5 700.5,-0.5 507.5,-0.5"/>
<text text-anchor="start" x="515.5" y="-29.5" font-family="Helvetica,sans-Serif" font-size="10.00">/home/runner/work/open62541pp</text>
<text text-anchor="start" x="515.5" y="-18.5" font-family="Helvetica,sans-Serif" font-size="10.00">/open62541pp/include/open62541pp</text>
<text text-anchor="middle" x="604" y="-7.5" font-family="Helvetica,sans-Serif" font-size="10.00">/open62541pp.h</text>
</a>
</g>
</g>
<!-- Node1&#45;&gt;Node3 -->
<g id="edge4" class="edge">
<title>Node1&#45;&gt;Node3</title>
<path fill="none" stroke="midnightblue" d="M479.1,-481.91C576.13,-469.91 704,-434.95 704,-334 704,-334 704,-334 704,-176 704,-120.05 657,-68.44 627.45,-41.51"/>
<polygon fill="midnightblue" stroke="midnightblue" points="478.45,-478.46 468.92,-483.1 479.26,-485.42 478.45,-478.46"/>
</g>
<!-- Node5 -->
<g id="node5" class="node">
<title>Node5</title>
<g id="a_node5"><a xlink:href="Variant_8h.html" target="_top" xlink:title=" ">
<polygon fill="none" stroke="black" points="275.5,-390.5 275.5,-431.5 468.5,-431.5 468.5,-390.5 275.5,-390.5"/>
<text text-anchor="start" x="283.5" y="-419.5" font-family="Helvetica,sans-Serif" font-size="10.00">/home/runner/work/open62541pp</text>
<text text-anchor="start" x="283.5" y="-408.5" font-family="Helvetica,sans-Serif" font-size="10.00">/open62541pp/include/open62541pp</text>
<text text-anchor="middle" x="372" y="-397.5" font-family="Helvetica,sans-Serif" font-size="10.00">/types/Variant.h</text>
</a>
</g>
</g>
<!-- Node1&#45;&gt;Node5 -->
<g id="edge5" class="edge">
<title>Node1&#45;&gt;Node5</title>
<path fill="none" stroke="midnightblue" d="M372,-458.3C372,-449.3 372,-439.65 372,-431.51"/>
<polygon fill="midnightblue" stroke="midnightblue" points="368.5,-458.43 372,-468.43 375.5,-458.43 368.5,-458.43"/>
</g>
<!-- Node2&#45;&gt;Node3 -->
<g id="edge2" class="edge">
<title>Node2&#45;&gt;Node3</title>
<path fill="none" stroke="midnightblue" d="M328.39,-76.55C384.62,-65.42 452.74,-51.94 507.19,-41.16"/>
<polygon fill="midnightblue" stroke="midnightblue" points="327.52,-73.15 318.39,-78.53 328.88,-80.02 327.52,-73.15"/>
</g>
<!-- Node4 -->
<g id="node4" class="node">
<title>Node4</title>
<g id="a_node4"><a xlink:href="Server_8cpp.html" target="_top" xlink:title=" ">
<polygon fill="none" stroke="black" points="131,-6 131,-36 309,-36 309,-6 131,-6"/>
<text text-anchor="start" x="139" y="-24" font-family="Helvetica,sans-Serif" font-size="10.00">/home/runner/work/open62541pp</text>
<text text-anchor="middle" x="220" y="-13" font-family="Helvetica,sans-Serif" font-size="10.00">/open62541pp/src/Server.cpp</text>
</a>
</g>
</g>
<!-- Node2&#45;&gt;Node4 -->
<g id="edge3" class="edge">
<title>Node2&#45;&gt;Node4</title>
<path fill="none" stroke="midnightblue" d="M220,-68.28C220,-57.25 220,-45.25 220,-36.23"/>
<polygon fill="midnightblue" stroke="midnightblue" points="216.5,-68.43 220,-78.43 223.5,-68.43 216.5,-68.43"/>
</g>
<!-- Node5&#45;&gt;Node2 -->
<g id="edge6" class="edge">
<title>Node5&#45;&gt;Node2</title>
<path fill="none" stroke="midnightblue" d="M265.08,-405.32C184.45,-399.29 83.38,-385.49 57,-354 22.75,-313.12 34.22,-282.22 57,-234 82.19,-180.67 140.17,-141.42 179.73,-119.63"/>
<polygon fill="midnightblue" stroke="midnightblue" points="265.09,-408.83 275.31,-406.05 265.59,-401.85 265.09,-408.83"/>
</g>
<!-- Node5&#45;&gt;Node3 -->
<g id="edge7" class="edge">
<title>Node5&#45;&gt;Node3</title>
<path fill="none" stroke="midnightblue" d="M478.57,-397.68C562.71,-381.32 666,-343.43 666,-256 666,-256 666,-256 666,-176 666,-124.7 636.03,-70.28 617.76,-41.89"/>
<polygon fill="midnightblue" stroke="midnightblue" points="477.86,-394.25 468.67,-399.53 479.15,-401.14 477.86,-394.25"/>
</g>
<!-- Node6 -->
<g id="node6" class="node">
<title>Node6</title>
<g id="a_node6"><a xlink:href="Attribute_8h.html" target="_top" xlink:title=" ">
<polygon fill="none" stroke="black" points="364.5,-234.5 364.5,-275.5 557.5,-275.5 557.5,-234.5 364.5,-234.5"/>
<text text-anchor="start" x="372.5" y="-263.5" font-family="Helvetica,sans-Serif" font-size="10.00">/home/runner/work/open62541pp</text>
<text text-anchor="start" x="372.5" y="-252.5" font-family="Helvetica,sans-Serif" font-size="10.00">/open62541pp/include/open62541pp</text>
<text text-anchor="middle" x="461" y="-241.5" font-family="Helvetica,sans-Serif" font-size="10.00">/services/Attribute.h</text>
</a>
</g>
</g>
<!-- Node5&#45;&gt;Node6 -->
<g id="edge8" class="edge">
<title>Node5&#45;&gt;Node6</title>
<path fill="none" stroke="midnightblue" d="M444.14,-385.54C457.62,-377.61 469.98,-367.31 478,-354 492.53,-329.89 481.66,-296.75 471.85,-275.86"/>
<polygon fill="midnightblue" stroke="midnightblue" points="442.28,-382.57 435.16,-390.41 445.62,-388.72 442.28,-382.57"/>
</g>
<!-- Node9 -->
<g id="node9" class="node">
<title>Node9</title>
<g id="a_node9"><a xlink:href="DataValue_8h.html" target="_top" xlink:title=" ">
<polygon fill="none" stroke="black" points="275.5,-312.5 275.5,-353.5 468.5,-353.5 468.5,-312.5 275.5,-312.5"/>
<text text-anchor="start" x="283.5" y="-341.5" font-family="Helvetica,sans-Serif" font-size="10.00">/home/runner/work/open62541pp</text>
<text text-anchor="start" x="283.5" y="-330.5" font-family="Helvetica,sans-Serif" font-size="10.00">/open62541pp/include/open62541pp</text>
<text text-anchor="middle" x="372" y="-319.5" font-family="Helvetica,sans-Serif" font-size="10.00">/types/DataValue.h</text>
</a>
</g>
</g>
<!-- Node5&#45;&gt;Node9 -->
<g id="edge13" class="edge">
<title>Node5&#45;&gt;Node9</title>
<path fill="none" stroke="midnightblue" d="M372,-380.3C372,-371.3 372,-361.65 372,-353.51"/>
<polygon fill="midnightblue" stroke="midnightblue" points="368.5,-380.43 372,-390.43 375.5,-380.43 368.5,-380.43"/>
</g>
<!-- Node11 -->
<g id="node11" class="node">
<title>Node11</title>
<g id="a_node11"><a xlink:href="Variant_8cpp.html" target="_top" xlink:title=" ">
<polygon fill="none" stroke="black" points="66.5,-318 66.5,-348 257.5,-348 257.5,-318 66.5,-318"/>
<text text-anchor="start" x="74.5" y="-336" font-family="Helvetica,sans-Serif" font-size="10.00">/home/runner/work/open62541pp</text>
<text text-anchor="middle" x="162" y="-325" font-family="Helvetica,sans-Serif" font-size="10.00">/open62541pp/src/types/Variant.cpp</text>
</a>
</g>
</g>
<!-- Node5&#45;&gt;Node11 -->
<g id="edge17" class="edge">
<title>Node5&#45;&gt;Node11</title>
<path fill="none" stroke="midnightblue" d="M308.26,-386.93C273.29,-374.28 231.05,-358.99 200.98,-348.11"/>
<polygon fill="midnightblue" stroke="midnightblue" points="307.33,-390.32 317.92,-390.43 309.71,-383.73 307.33,-390.32"/>
</g>
<!-- Node7 -->
<g id="node7" class="node">
<title>Node7</title>
<g id="a_node7"><a xlink:href="services_8h.html" target="_top" xlink:title=" ">
<polygon fill="none" stroke="black" points="444.5,-156.5 444.5,-197.5 637.5,-197.5 637.5,-156.5 444.5,-156.5"/>
<text text-anchor="start" x="452.5" y="-185.5" font-family="Helvetica,sans-Serif" font-size="10.00">/home/runner/work/open62541pp</text>
<text text-anchor="start" x="452.5" y="-174.5" font-family="Helvetica,sans-Serif" font-size="10.00">/open62541pp/include/open62541pp</text>
<text text-anchor="middle" x="541" y="-163.5" font-family="Helvetica,sans-Serif" font-size="10.00">/services/services.h</text>
</a>
</g>
</g>
<!-- Node6&#45;&gt;Node7 -->
<g id="edge9" class="edge">
<title>Node6&#45;&gt;Node7</title>
<path fill="none" stroke="midnightblue" d="M488.9,-227.49C499.28,-217.63 510.87,-206.63 520.47,-197.51"/>
<polygon fill="midnightblue" stroke="midnightblue" points="486.44,-225 481.6,-234.43 491.26,-230.08 486.44,-225"/>
</g>
<!-- Node8 -->
<g id="node8" class="node">
<title>Node8</title>
<g id="a_node8"><a xlink:href="Attribute_8cpp.html" target="_top" xlink:title=" ">
<polygon fill="none" stroke="black" points="248,-156.5 248,-197.5 426,-197.5 426,-156.5 248,-156.5"/>
<text text-anchor="start" x="256" y="-185.5" font-family="Helvetica,sans-Serif" font-size="10.00">/home/runner/work/open62541pp</text>
<text text-anchor="start" x="256" y="-174.5" font-family="Helvetica,sans-Serif" font-size="10.00">/open62541pp/src/services</text>
<text text-anchor="middle" x="337" y="-163.5" font-family="Helvetica,sans-Serif" font-size="10.00">/Attribute.cpp</text>
</a>
</g>
</g>
<!-- Node6&#45;&gt;Node8 -->
<g id="edge12" class="edge">
<title>Node6&#45;&gt;Node8</title>
<path fill="none" stroke="midnightblue" d="M420.08,-228.92C403.41,-218.7 384.43,-207.07 368.82,-197.51"/>
<polygon fill="midnightblue" stroke="midnightblue" points="418.71,-232.19 429.07,-234.43 422.37,-226.22 418.71,-232.19"/>
</g>
<!-- Node7&#45;&gt;Node2 -->
<g id="edge10" class="edge">
<title>Node7&#45;&gt;Node2</title>
<path fill="none" stroke="midnightblue" d="M448.34,-154.06C402.24,-143.15 346.99,-130.07 302.39,-119.51"/>
<polygon fill="midnightblue" stroke="midnightblue" points="447.8,-157.53 458.33,-156.43 449.41,-150.72 447.8,-157.53"/>
</g>
<!-- Node7&#45;&gt;Node3 -->
<g id="edge11" class="edge">
<title>Node7&#45;&gt;Node3</title>
<path fill="none" stroke="midnightblue" d="M552.8,-147.17C565.37,-116.43 584.94,-68.59 595.89,-41.83"/>
<polygon fill="midnightblue" stroke="midnightblue" points="549.53,-145.92 548.98,-156.5 556,-148.57 549.53,-145.92"/>
</g>
<!-- Node9&#45;&gt;Node2 -->
<g id="edge14" class="edge">
<title>Node9&#45;&gt;Node2</title>
<path fill="none" stroke="midnightblue" d="M348.13,-304.65C330.22,-284.55 304.79,-256.87 281,-234 263.27,-216.96 251.36,-219.25 239,-198 224.8,-173.58 220.98,-140.53 220.08,-119.74"/>
<polygon fill="midnightblue" stroke="midnightblue" points="345.59,-307.07 354.84,-312.23 350.83,-302.42 345.59,-307.07"/>
</g>
<!-- Node9&#45;&gt;Node6 -->
<g id="edge15" class="edge">
<title>Node9&#45;&gt;Node6</title>
<path fill="none" stroke="midnightblue" d="M402.71,-305.78C414.34,-295.84 427.37,-284.72 438.16,-275.51"/>
<polygon fill="midnightblue" stroke="midnightblue" points="400.25,-303.27 394.92,-312.43 404.8,-308.6 400.25,-303.27"/>
</g>
<!-- Node10 -->
<g id="node10" class="node">
<title>Node10</title>
<g id="a_node10"><a xlink:href="DataValue_8cpp.html" target="_top" xlink:title=" ">
<polygon fill="none" stroke="black" points="66,-240 66,-270 272,-270 272,-240 66,-240"/>
<text text-anchor="start" x="74" y="-258" font-family="Helvetica,sans-Serif" font-size="10.00">/home/runner/work/open62541pp</text>
<text text-anchor="middle" x="169" y="-247" font-family="Helvetica,sans-Serif" font-size="10.00">/open62541pp/src/types/DataValue.cpp</text>
</a>
</g>
</g>
<!-- Node9&#45;&gt;Node10 -->
<g id="edge16" class="edge">
<title>Node9&#45;&gt;Node10</title>
<path fill="none" stroke="midnightblue" d="M309.95,-308.77C276.23,-296.15 235.63,-280.94 206.68,-270.11"/>
<polygon fill="midnightblue" stroke="midnightblue" points="309.13,-312.2 319.72,-312.43 311.58,-305.64 309.13,-312.2"/>
</g>
</g>
</svg>
