<?xml version="1.0" encoding="UTF-8" standalone="no"?>
<!DOCTYPE svg PUBLIC "-//W3C//DTD SVG 1.1//EN"
 "http://www.w3.org/Graphics/SVG/1.1/DTD/svg11.dtd">
<!-- Generated by graphviz version 2.43.0 (0)
 -->
<!-- Title: /home/runner/work/open62541pp/open62541pp/include/open62541pp/TypeConverter.h Pages: 1 -->
<svg width="1459pt" height="412pt"
 viewBox="0.00 0.00 1458.50 412.00" xmlns="http://www.w3.org/2000/svg" xmlns:xlink="http://www.w3.org/1999/xlink">
<g id="graph0" class="graph" transform="scale(1 1) rotate(0) translate(4 408)">
<title>/home/runner/work/open62541pp/open62541pp/include/open62541pp/TypeConverter.h</title>
<!-- Node1 -->
<g id="Node000001" class="node">
<title>Node1</title>
<g id="a_Node000001"><a xlink:title=" ">
<polygon fill="#999999" stroke="#666666" points="743.5,-404 550.5,-404 550.5,-363 743.5,-363 743.5,-404"/>
<text text-anchor="start" x="558.5" y="-392" font-family="Helvetica,sans-Serif" font-size="10.00">/home/runner/work/open62541pp</text>
<text text-anchor="start" x="558.5" y="-381" font-family="Helvetica,sans-Serif" font-size="10.00">/open62541pp/include/open62541pp</text>
<text text-anchor="middle" x="647" y="-370" font-family="Helvetica,sans-Serif" font-size="10.00">/TypeConverter.h</text>
</a>
</g>
</g>
<!-- Node2 -->
<g id="Node000002" class="node">
<title>Node2</title>
<g id="a_Node000002"><a xlink:title=" ">
<polygon fill="#e0e0e0" stroke="#999999" points="42,-321.5 0,-321.5 0,-302.5 42,-302.5 42,-321.5"/>
<text text-anchor="middle" x="21" y="-309.5" font-family="Helvetica,sans-Serif" font-size="10.00">array</text>
</a>
</g>
</g>
<!-- Node1&#45;&gt;Node2 -->
<g id="edge1_Node000001_Node000002" class="edge">
<title>Node1&#45;&gt;Node2</title>
<g id="a_edge1_Node000001_Node000002"><a xlink:title=" ">
<path fill="none" stroke="#63b8ff" d="M550.46,-377.54C406.45,-369.45 142.52,-351.81 51,-327 49.51,-326.6 48,-326.12 46.49,-325.6"/>
<polygon fill="#63b8ff" stroke="#63b8ff" points="47.39,-322.18 36.81,-321.61 44.72,-328.65 47.39,-322.18"/>
</a>
</g>
</g>
<!-- Node3 -->
<g id="Node000003" class="node">
<title>Node3</title>
<g id="a_Node000003"><a xlink:title=" ">
<polygon fill="#e0e0e0" stroke="#999999" points="414,-261 364,-261 364,-242 414,-242 414,-261"/>
<text text-anchor="middle" x="389" y="-249" font-family="Helvetica,sans-Serif" font-size="10.00">chrono</text>
</a>
</g>
</g>
<!-- Node1&#45;&gt;Node3 -->
<g id="edge2_Node000001_Node000003" class="edge">
<title>Node1&#45;&gt;Node3</title>
<g id="a_edge2_Node000001_Node000003"><a xlink:title=" ">
<path fill="none" stroke="#63b8ff" d="M550.45,-363.4C520.75,-354.99 488.83,-343.21 462,-327 437.15,-311.99 414.8,-286.56 401.56,-269.65"/>
<polygon fill="#63b8ff" stroke="#63b8ff" points="404.02,-267.1 395.18,-261.25 398.44,-271.34 404.02,-267.1"/>
</a>
</g>
</g>
<!-- Node4 -->
<g id="Node000004" class="node">
<title>Node4</title>
<g id="a_Node000004"><a xlink:title=" ">
<polygon fill="#e0e0e0" stroke="#999999" points="1385.5,-321.5 1332.5,-321.5 1332.5,-302.5 1385.5,-302.5 1385.5,-321.5"/>
<text text-anchor="middle" x="1359" y="-309.5" font-family="Helvetica,sans-Serif" font-size="10.00">iterator</text>
</a>
</g>
</g>
<!-- Node1&#45;&gt;Node4 -->
<g id="edge3_Node000001_Node000004" class="edge">
<title>Node1&#45;&gt;Node4</title>
<g id="a_edge3_Node000001_Node000004"><a xlink:title=" ">
<path fill="none" stroke="#63b8ff" d="M743.63,-381.94C874.98,-379.51 1116.61,-369.04 1318,-327 1321.07,-326.36 1324.22,-325.56 1327.35,-324.66"/>
<polygon fill="#63b8ff" stroke="#63b8ff" points="1328.66,-327.92 1337.15,-321.57 1326.56,-321.24 1328.66,-327.92"/>
</a>
</g>
</g>
<!-- Node5 -->
<g id="Node000005" class="node">
<title>Node5</title>
<g id="a_Node000005"><a xlink:title=" ">
<polygon fill="#e0e0e0" stroke="#999999" points="365,-140 321,-140 321,-121 365,-121 365,-140"/>
<text text-anchor="middle" x="343" y="-128" font-family="Helvetica,sans-Serif" font-size="10.00">string</text>
</a>
</g>
</g>
<!-- Node1&#45;&gt;Node5 -->
<g id="edge4_Node000001_Node000005" class="edge">
<title>Node1&#45;&gt;Node5</title>
<g id="a_edge4_Node000001_Node000005"><a xlink:title=" ">
<path fill="none" stroke="#63b8ff" d="M550.22,-373.87C480.07,-365.73 392.99,-351.09 366,-327 314.46,-280.98 318.51,-244.3 329,-176 330.35,-167.19 333.13,-157.74 335.85,-149.82"/>
<polygon fill="#63b8ff" stroke="#63b8ff" points="339.23,-150.77 339.4,-140.18 332.66,-148.35 339.23,-150.77"/>
</a>
</g>
</g>
<!-- Node6 -->
<g id="Node000006" class="node">
<title>Node6</title>
<g id="a_Node000006"><a xlink:title=" ">
<polygon fill="#e0e0e0" stroke="#999999" points="1261.5,-79.5 1188.5,-79.5 1188.5,-60.5 1261.5,-60.5 1261.5,-79.5"/>
<text text-anchor="middle" x="1225" y="-67.5" font-family="Helvetica,sans-Serif" font-size="10.00">string_view</text>
</a>
</g>
</g>
<!-- Node1&#45;&gt;Node6 -->
<g id="edge5_Node000001_Node000006" class="edge">
<title>Node1&#45;&gt;Node6</title>
<g id="a_edge5_Node000001_Node000006"><a xlink:title=" ">
<path fill="none" stroke="#63b8ff" d="M743.72,-381.95C917.81,-378.33 1266,-357.92 1266,-252.5 1266,-252.5 1266,-252.5 1266,-190 1266,-152.12 1247.2,-110.98 1235.06,-88.36"/>
<polygon fill="#63b8ff" stroke="#63b8ff" points="1238.11,-86.64 1230.19,-79.6 1231.99,-90.04 1238.11,-86.64"/>
</a>
</g>
</g>
<!-- Node7 -->
<g id="Node000007" class="node">
<title>Node7</title>
<g id="a_Node000007"><a xlink:title=" ">
<polygon fill="#e0e0e0" stroke="#999999" points="1194.5,-19 1125.5,-19 1125.5,0 1194.5,0 1194.5,-19"/>
<text text-anchor="middle" x="1160" y="-7" font-family="Helvetica,sans-Serif" font-size="10.00">type_traits</text>
</a>
</g>
</g>
<!-- Node1&#45;&gt;Node7 -->
<g id="edge6_Node000001_Node000007" class="edge">
<title>Node1&#45;&gt;Node7</title>
<g id="a_edge6_Node000001_Node000007"><a xlink:title=" ">
<path fill="none" stroke="#63b8ff" d="M743.59,-383.17C926.21,-381.81 1304,-365.36 1304,-252.5 1304,-252.5 1304,-252.5 1304,-129.5 1304,-93.29 1297.06,-80.15 1271,-55 1252.8,-37.44 1226.78,-26.51 1204.51,-19.88"/>
<polygon fill="#63b8ff" stroke="#63b8ff" points="1205.15,-16.43 1194.58,-17.13 1203.28,-23.18 1205.15,-16.43"/>
</a>
</g>
</g>
<!-- Node8 -->
<g id="Node000008" class="node">
<title>Node8</title>
<g id="a_Node000008"><a xlink:title=" ">
<polygon fill="#e0e0e0" stroke="#999999" points="1450.5,-321.5 1403.5,-321.5 1403.5,-302.5 1450.5,-302.5 1450.5,-321.5"/>
<text text-anchor="middle" x="1427" y="-309.5" font-family="Helvetica,sans-Serif" font-size="10.00">vector</text>
</a>
</g>
</g>
<!-- Node1&#45;&gt;Node8 -->
<g id="edge7_Node000001_Node000008" class="edge">
<title>Node1&#45;&gt;Node8</title>
<g id="a_edge7_Node000001_Node000008"><a xlink:title=" ">
<path fill="none" stroke="#63b8ff" d="M743.84,-379.38C917.33,-373.1 1274.3,-356.95 1395,-327 1396.94,-326.52 1398.92,-325.93 1400.88,-325.26"/>
<polygon fill="#63b8ff" stroke="#63b8ff" points="1402.41,-328.43 1410.44,-321.51 1399.85,-321.91 1402.41,-328.43"/>
</a>
</g>
</g>
<!-- Node9 -->
<g id="Node000009" class="node">
<title>Node9</title>
<g id="a_Node000009"><a xlink:href="Common_8h.html" target="_top" xlink:title=" ">
<polygon fill="white" stroke="#666666" points="985.5,-140 846.5,-140 846.5,-121 985.5,-121 985.5,-140"/>
<text text-anchor="middle" x="916" y="-128" font-family="Helvetica,sans-Serif" font-size="10.00">open62541pp/Common.h</text>
</a>
</g>
</g>
<!-- Node1&#45;&gt;Node9 -->
<g id="edge8_Node000001_Node000009" class="edge">
<title>Node1&#45;&gt;Node9</title>
<g id="a_edge8_Node000001_Node000009"><a xlink:title=" ">
<path fill="none" stroke="#63b8ff" d="M743.62,-372.02C842.34,-355.51 990.33,-313.29 1057,-206 1078.17,-171.93 1030.23,-152.57 984.61,-142.17"/>
<polygon fill="#63b8ff" stroke="#63b8ff" points="985.15,-138.71 974.64,-140.02 983.68,-145.55 985.15,-138.71"/>
</a>
</g>
</g>
<!-- Node12 -->
<g id="Node000012" class="node">
<title>Node12</title>
<g id="a_Node000012"><a xlink:href="traits_8h.html" target="_top" xlink:title=" ">
<polygon fill="white" stroke="#666666" points="1113.5,-85 1000.5,-85 1000.5,-55 1113.5,-55 1113.5,-85"/>
<text text-anchor="start" x="1008.5" y="-73" font-family="Helvetica,sans-Serif" font-size="10.00">open62541pp/detail</text>
<text text-anchor="middle" x="1057" y="-62" font-family="Helvetica,sans-Serif" font-size="10.00">/traits.h</text>
</a>
</g>
</g>
<!-- Node1&#45;&gt;Node12 -->
<g id="edge41_Node000001_Node000012" class="edge">
<title>Node1&#45;&gt;Node12</title>
<g id="a_edge41_Node000001_Node000012"><a xlink:title=" ">
<path fill="none" stroke="#63b8ff" d="M743.53,-375.58C803.27,-368.63 880.42,-354.74 944,-327 1043.99,-283.37 1079.91,-246.62 1103,-140 1104.79,-131.75 1106.07,-128.87 1103,-121 1098.73,-110.06 1090.83,-100.07 1082.77,-91.94"/>
<polygon fill="#63b8ff" stroke="#63b8ff" points="1085.1,-89.33 1075.41,-85.03 1080.3,-94.43 1085.1,-89.33"/>
</a>
</g>
</g>
<!-- Node13 -->
<g id="Node000013" class="node">
<title>Node13</title>
<g id="a_Node000013"><a xlink:href="open62541_8h.html" target="_top" xlink:title=" ">
<polygon fill="white" stroke="#666666" points="670.5,-79.5 521.5,-79.5 521.5,-60.5 670.5,-60.5 670.5,-79.5"/>
<text text-anchor="middle" x="596" y="-67.5" font-family="Helvetica,sans-Serif" font-size="10.00">open62541pp/open62541.h</text>
</a>
</g>
</g>
<!-- Node1&#45;&gt;Node13 -->
<g id="edge42_Node000001_Node000013" class="edge">
<title>Node1&#45;&gt;Node13</title>
<g id="a_edge42_Node000001_Node000013"><a xlink:title=" ">
<path fill="none" stroke="#63b8ff" d="M550.42,-377.96C486.79,-371.97 402.98,-358.26 335,-327 287.51,-305.16 244,-304.77 244,-252.5 244,-252.5 244,-252.5 244,-190 244,-146.94 273.88,-141.02 312,-121 373.8,-88.55 452.53,-76.62 511.42,-72.48"/>
<polygon fill="#63b8ff" stroke="#63b8ff" points="511.68,-75.97 521.43,-71.83 511.23,-68.98 511.68,-75.97"/>
</a>
</g>
</g>
<!-- Node18 -->
<g id="Node000018" class="node">
<title>Node18</title>
<g id="a_Node000018"><a xlink:href="ErrorHandling_8h.html" target="_top" xlink:title=" ">
<polygon fill="white" stroke="#666666" points="509.5,-200.5 348.5,-200.5 348.5,-181.5 509.5,-181.5 509.5,-200.5"/>
<text text-anchor="middle" x="429" y="-188.5" font-family="Helvetica,sans-Serif" font-size="10.00">open62541pp/ErrorHandling.h</text>
</a>
</g>
</g>
<!-- Node1&#45;&gt;Node18 -->
<g id="edge20_Node000001_Node000018" class="edge">
<title>Node1&#45;&gt;Node18</title>
<g id="a_edge20_Node000001_Node000018"><a xlink:title=" ">
<path fill="none" stroke="#63b8ff" d="M550.29,-370.34C508.88,-362.24 461.15,-348.89 422,-327 380.02,-303.52 332.43,-284.48 355,-242 363.85,-225.33 381.02,-213.21 396.59,-205.08"/>
<polygon fill="#63b8ff" stroke="#63b8ff" points="398.52,-208.04 405.99,-200.53 395.47,-201.73 398.52,-208.04"/>
</a>
</g>
</g>
<!-- Node20 -->
<g id="Node000020" class="node">
<title>Node20</title>
<g id="a_Node000020"><a xlink:href="TypeWrapper_8h.html" target="_top" xlink:title=" ">
<polygon fill="white" stroke="#666666" points="883,-261 725,-261 725,-242 883,-242 883,-261"/>
<text text-anchor="middle" x="804" y="-249" font-family="Helvetica,sans-Serif" font-size="10.00">open62541pp/TypeWrapper.h</text>
</a>
</g>
</g>
<!-- Node1&#45;&gt;Node20 -->
<g id="edge24_Node000001_Node000020" class="edge">
<title>Node1&#45;&gt;Node20</title>
<g id="a_edge24_Node000001_Node000020"><a xlink:title=" ">
<path fill="none" stroke="#63b8ff" d="M670.84,-362.76C702.41,-336.62 757.37,-291.11 785.8,-267.57"/>
<polygon fill="#63b8ff" stroke="#63b8ff" points="788.25,-270.09 793.72,-261.01 783.79,-264.69 788.25,-270.09"/>
</a>
</g>
</g>
<!-- Node23 -->
<g id="Node000023" class="node">
<title>Node23</title>
<g id="a_Node000023"><a xlink:href="helper_8h.html" target="_top" xlink:title=" ">
<polygon fill="white" stroke="#666666" points="1047.5,-206 934.5,-206 934.5,-176 1047.5,-176 1047.5,-206"/>
<text text-anchor="start" x="942.5" y="-194" font-family="Helvetica,sans-Serif" font-size="10.00">open62541pp/detail</text>
<text text-anchor="middle" x="991" y="-183" font-family="Helvetica,sans-Serif" font-size="10.00">/helper.h</text>
</a>
</g>
</g>
<!-- Node1&#45;&gt;Node23 -->
<g id="edge40_Node000001_Node000023" class="edge">
<title>Node1&#45;&gt;Node23</title>
<g id="a_edge40_Node000001_Node000023"><a xlink:title=" ">
<path fill="none" stroke="#63b8ff" d="M691.41,-362.9C741.3,-340.32 824.18,-301.15 892,-261 917.44,-245.94 944.92,-226.52 964.45,-212.12"/>
<polygon fill="#63b8ff" stroke="#63b8ff" points="966.63,-214.86 972.57,-206.08 962.46,-209.24 966.63,-214.86"/>
</a>
</g>
</g>
<!-- Node25 -->
<g id="Node000025" class="node">
<title>Node25</title>
<g id="a_Node000025"><a xlink:href="DateTime_8h.html" target="_top" xlink:title=" ">
<polygon fill="white" stroke="#666666" points="643.5,-321.5 470.5,-321.5 470.5,-302.5 643.5,-302.5 643.5,-321.5"/>
<text text-anchor="middle" x="557" y="-309.5" font-family="Helvetica,sans-Serif" font-size="10.00">open62541pp/types/DateTime.h</text>
</a>
</g>
</g>
<!-- Node1&#45;&gt;Node25 -->
<g id="edge43_Node000001_Node000025" class="edge">
<title>Node1&#45;&gt;Node25</title>
<g id="a_edge43_Node000001_Node000025"><a xlink:title=" ">
<path fill="none" stroke="#63b8ff" d="M621.45,-362.77C607.13,-351.71 589.55,-338.13 576.37,-327.96"/>
<polygon fill="#63b8ff" stroke="#63b8ff" points="578.48,-325.16 568.42,-321.82 574.2,-330.7 578.48,-325.16"/>
</a>
</g>
</g>
<!-- Node27 -->
<g id="Node000027" class="node">
<title>Node27</title>
<g id="a_Node000027"><a xlink:href="TypeConverterNative_8h.html" target="_top" xlink:title=" ">
<polygon fill="white" stroke="#666666" points="216,-327 60,-327 60,-297 216,-297 216,-327"/>
<text text-anchor="start" x="68" y="-315" font-family="Helvetica,sans-Serif" font-size="10.00">open62541pp/TypeConverter</text>
<text text-anchor="middle" x="138" y="-304" font-family="Helvetica,sans-Serif" font-size="10.00">Native.h</text>
</a>
</g>
</g>
<!-- Node1&#45;&gt;Node27 -->
<g id="edge51_Node000001_Node000027" class="edge">
<title>Node1&#45;&gt;Node27</title>
<g id="a_edge51_Node000001_Node000027"><a xlink:title=" ">
<path fill="none" stroke="#63b8ff" d="M550.49,-371.07C466.42,-360.49 341.13,-344.05 226.18,-327.73"/>
<polygon fill="#63b8ff" stroke="#63b8ff" points="226.55,-324.25 216.16,-326.31 225.57,-331.18 226.55,-324.25"/>
</a>
</g>
</g>
<!-- Node9&#45;&gt;Node6 -->
<g id="edge10_Node000009_Node000006" class="edge">
<title>Node9&#45;&gt;Node6</title>
<g id="a_edge10_Node000009_Node000006"><a xlink:title=" ">
<path fill="none" stroke="#63b8ff" d="M960.93,-120.99C1018.88,-110.02 1119.2,-91.03 1178.1,-79.88"/>
<polygon fill="#63b8ff" stroke="#63b8ff" points="1179.06,-83.26 1188.24,-77.96 1177.76,-76.38 1179.06,-83.26"/>
</a>
</g>
</g>
<!-- Node10 -->
<g id="Node000010" class="node">
<title>Node10</title>
<g id="a_Node000010"><a xlink:title=" ">
<polygon fill="#e0e0e0" stroke="#999999" points="805,-79.5 755,-79.5 755,-60.5 805,-60.5 805,-79.5"/>
<text text-anchor="middle" x="780" y="-67.5" font-family="Helvetica,sans-Serif" font-size="10.00">cstdint</text>
</a>
</g>
</g>
<!-- Node9&#45;&gt;Node10 -->
<g id="edge9_Node000009_Node000010" class="edge">
<title>Node9&#45;&gt;Node10</title>
<g id="a_edge9_Node000009_Node000010"><a xlink:title=" ">
<path fill="none" stroke="#63b8ff" d="M896.22,-120.99C873.36,-111.16 835.51,-94.88 809.24,-83.58"/>
<polygon fill="#63b8ff" stroke="#63b8ff" points="810.37,-80.25 799.8,-79.52 807.6,-86.68 810.37,-80.25"/>
</a>
</g>
</g>
<!-- Node11 -->
<g id="Node000011" class="node">
<title>Node11</title>
<g id="a_Node000011"><a xlink:title=" ">
<polygon fill="#e0e0e0" stroke="#999999" points="997.5,-19 956.5,-19 956.5,0 997.5,0 997.5,-19"/>
<text text-anchor="middle" x="977" y="-7" font-family="Helvetica,sans-Serif" font-size="10.00">tuple</text>
</a>
</g>
</g>
<!-- Node9&#45;&gt;Node11 -->
<g id="edge11_Node000009_Node000011" class="edge">
<title>Node9&#45;&gt;Node11</title>
<g id="a_edge11_Node000009_Node000011"><a xlink:title=" ">
<path fill="none" stroke="#63b8ff" d="M920.39,-120.94C930.27,-101.65 954.48,-54.44 967.81,-28.43"/>
<polygon fill="#63b8ff" stroke="#63b8ff" points="971.04,-29.8 972.49,-19.3 964.81,-26.6 971.04,-29.8"/>
</a>
</g>
</g>
<!-- Node9&#45;&gt;Node12 -->
<g id="edge12_Node000009_Node000012" class="edge">
<title>Node9&#45;&gt;Node12</title>
<g id="a_edge12_Node000009_Node000012"><a xlink:title=" ">
<path fill="none" stroke="#63b8ff" d="M936.5,-120.99C956.62,-112.65 987.92,-99.66 1013.58,-89.02"/>
<polygon fill="#63b8ff" stroke="#63b8ff" points="1015.21,-92.13 1023.1,-85.06 1012.52,-85.66 1015.21,-92.13"/>
</a>
</g>
</g>
<!-- Node9&#45;&gt;Node13 -->
<g id="edge15_Node000009_Node000013" class="edge">
<title>Node9&#45;&gt;Node13</title>
<g id="a_edge15_Node000009_Node000013"><a xlink:title=" ">
<path fill="none" stroke="#63b8ff" d="M869.47,-120.99C812,-110.49 714.29,-92.62 652.55,-81.34"/>
<polygon fill="#63b8ff" stroke="#63b8ff" points="653.05,-77.87 642.59,-79.52 651.79,-84.76 653.05,-77.87"/>
</a>
</g>
</g>
<!-- Node12&#45;&gt;Node7 -->
<g id="edge14_Node000012_Node000007" class="edge">
<title>Node12&#45;&gt;Node7</title>
<g id="a_edge14_Node000012_Node000007"><a xlink:title=" ">
<path fill="none" stroke="#63b8ff" d="M1081.67,-54.99C1098.09,-45.66 1119.55,-33.47 1135.86,-24.21"/>
<polygon fill="#63b8ff" stroke="#63b8ff" points="1137.82,-27.12 1144.79,-19.14 1134.37,-21.03 1137.82,-27.12"/>
</a>
</g>
</g>
<!-- Node12&#45;&gt;Node11 -->
<g id="edge13_Node000012_Node000011" class="edge">
<title>Node12&#45;&gt;Node11</title>
<g id="a_edge13_Node000012_Node000011"><a xlink:title=" ">
<path fill="none" stroke="#63b8ff" d="M1037.63,-54.84C1025.43,-45.91 1009.69,-34.41 997.31,-25.35"/>
<polygon fill="#63b8ff" stroke="#63b8ff" points="999.13,-22.34 988.99,-19.27 994.99,-27.99 999.13,-22.34"/>
</a>
</g>
</g>
<!-- Node14 -->
<g id="Node000014" class="node">
<title>Node14</title>
<g id="a_Node000014"><a target="_blank" xlink:href="open62541/config_8h.html" xlink:title=" ">
<polygon fill="white" stroke="#666666" points="730,-19 618,-19 618,0 730,0 730,-19"/>
<text text-anchor="middle" x="674" y="-7" font-family="Helvetica,sans-Serif" font-size="10.00">open62541/config.h</text>
</a>
</g>
</g>
<!-- Node13&#45;&gt;Node14 -->
<g id="edge16_Node000013_Node000014" class="edge">
<title>Node13&#45;&gt;Node14</title>
<g id="a_edge16_Node000013_Node000014"><a xlink:title=" ">
<path fill="none" stroke="#63b8ff" d="M607.51,-60.37C619.84,-51.12 639.62,-36.28 654.41,-25.19"/>
<polygon fill="#63b8ff" stroke="#63b8ff" points="656.54,-27.97 662.44,-19.17 652.34,-22.37 656.54,-27.97"/>
</a>
</g>
</g>
<!-- Node15 -->
<g id="Node000015" class="node">
<title>Node15</title>
<g id="a_Node000015"><a target="_blank" xlink:href="open62541/nodeids_8h.html" xlink:title=" ">
<polygon fill="white" stroke="#666666" points="869.5,-19 748.5,-19 748.5,0 869.5,0 869.5,-19"/>
<text text-anchor="middle" x="809" y="-7" font-family="Helvetica,sans-Serif" font-size="10.00">open62541/nodeids.h</text>
</a>
</g>
</g>
<!-- Node13&#45;&gt;Node15 -->
<g id="edge17_Node000013_Node000015" class="edge">
<title>Node13&#45;&gt;Node15</title>
<g id="a_edge17_Node000013_Node000015"><a xlink:title=" ">
<path fill="none" stroke="#63b8ff" d="M626.97,-60.49C664.28,-50.25 727.06,-33 768.27,-21.69"/>
<polygon fill="#63b8ff" stroke="#63b8ff" points="769.27,-25.04 777.99,-19.02 767.42,-18.29 769.27,-25.04"/>
</a>
</g>
</g>
<!-- Node16 -->
<g id="Node000016" class="node">
<title>Node16</title>
<g id="a_Node000016"><a target="_blank" xlink:href="open62541/types_8h.html" xlink:title=" ">
<polygon fill="white" stroke="#666666" points="418,-19 308,-19 308,0 418,0 418,-19"/>
<text text-anchor="middle" x="363" y="-7" font-family="Helvetica,sans-Serif" font-size="10.00">open62541/types.h</text>
</a>
</g>
</g>
<!-- Node13&#45;&gt;Node16 -->
<g id="edge18_Node000013_Node000016" class="edge">
<title>Node13&#45;&gt;Node16</title>
<g id="a_edge18_Node000013_Node000016"><a xlink:title=" ">
<path fill="none" stroke="#63b8ff" d="M562.12,-60.49C521.05,-50.18 451.76,-32.78 406.7,-21.47"/>
<polygon fill="#63b8ff" stroke="#63b8ff" points="407.47,-18.06 396.92,-19.02 405.77,-24.85 407.47,-18.06"/>
</a>
</g>
</g>
<!-- Node17 -->
<g id="Node000017" class="node">
<title>Node17</title>
<g id="a_Node000017"><a target="_blank" xlink:href="open62541/types__generated_8h.html" xlink:title=" ">
<polygon fill="white" stroke="#666666" points="600,-19 436,-19 436,0 600,0 600,-19"/>
<text text-anchor="middle" x="518" y="-7" font-family="Helvetica,sans-Serif" font-size="10.00">open62541/types_generated.h</text>
</a>
</g>
</g>
<!-- Node13&#45;&gt;Node17 -->
<g id="edge19_Node000013_Node000017" class="edge">
<title>Node13&#45;&gt;Node17</title>
<g id="a_edge19_Node000013_Node000017"><a xlink:title=" ">
<path fill="none" stroke="#63b8ff" d="M584.49,-60.37C572.16,-51.12 552.38,-36.28 537.59,-25.19"/>
<polygon fill="#63b8ff" stroke="#63b8ff" points="539.66,-22.37 529.56,-19.17 535.46,-27.97 539.66,-22.37"/>
</a>
</g>
</g>
<!-- Node18&#45;&gt;Node5 -->
<g id="edge22_Node000018_Node000005" class="edge">
<title>Node18&#45;&gt;Node5</title>
<g id="a_edge22_Node000018_Node000005"><a xlink:title=" ">
<path fill="none" stroke="#63b8ff" d="M416.31,-181.37C402.59,-172.04 380.5,-157.01 364.15,-145.88"/>
<polygon fill="#63b8ff" stroke="#63b8ff" points="365.98,-142.9 355.74,-140.17 362.04,-148.69 365.98,-142.9"/>
</a>
</g>
</g>
<!-- Node18&#45;&gt;Node13 -->
<g id="edge23_Node000018_Node000013" class="edge">
<title>Node18&#45;&gt;Node13</title>
<g id="a_edge23_Node000018_Node000013"><a xlink:title=" ">
<path fill="none" stroke="#63b8ff" d="M427.11,-181.24C424.56,-166.91 421.84,-138.35 436,-121 454.6,-98.21 483.46,-85.62 511.57,-78.73"/>
<polygon fill="#63b8ff" stroke="#63b8ff" points="512.47,-82.12 521.47,-76.53 510.94,-75.29 512.47,-82.12"/>
</a>
</g>
</g>
<!-- Node19 -->
<g id="Node000019" class="node">
<title>Node19</title>
<g id="a_Node000019"><a xlink:title=" ">
<polygon fill="#e0e0e0" stroke="#999999" points="509.5,-140 444.5,-140 444.5,-121 509.5,-121 509.5,-140"/>
<text text-anchor="middle" x="477" y="-128" font-family="Helvetica,sans-Serif" font-size="10.00">stdexcept</text>
</a>
</g>
</g>
<!-- Node18&#45;&gt;Node19 -->
<g id="edge21_Node000018_Node000019" class="edge">
<title>Node18&#45;&gt;Node19</title>
<g id="a_edge21_Node000018_Node000019"><a xlink:title=" ">
<path fill="none" stroke="#63b8ff" d="M436.08,-181.37C443.24,-172.64 454.49,-158.93 463.39,-148.09"/>
<polygon fill="#63b8ff" stroke="#63b8ff" points="466.25,-150.12 469.89,-140.17 460.84,-145.68 466.25,-150.12"/>
</a>
</g>
</g>
<!-- Node20&#45;&gt;Node7 -->
<g id="edge27_Node000020_Node000007" class="edge">
<title>Node20&#45;&gt;Node7</title>
<g id="a_edge27_Node000020_Node000007"><a xlink:title=" ">
<path fill="none" stroke="#63b8ff" d="M883.27,-245.99C952.91,-240.55 1047.58,-229.09 1077,-206 1134.29,-161.04 1152.58,-69.09 1157.95,-29.41"/>
<polygon fill="#63b8ff" stroke="#63b8ff" points="1161.45,-29.64 1159.19,-19.29 1154.5,-28.79 1161.45,-29.64"/>
</a>
</g>
</g>
<!-- Node20&#45;&gt;Node9 -->
<g id="edge29_Node000020_Node000009" class="edge">
<title>Node20&#45;&gt;Node9</title>
<g id="a_edge29_Node000020_Node000009"><a xlink:title=" ">
<path fill="none" stroke="#63b8ff" d="M830.33,-241.92C848.42,-234.84 871.82,-223.13 887,-206 901.06,-190.13 908.66,-166.67 912.51,-150.34"/>
<polygon fill="#63b8ff" stroke="#63b8ff" points="915.98,-150.85 914.61,-140.34 909.13,-149.41 915.98,-150.85"/>
</a>
</g>
</g>
<!-- Node20&#45;&gt;Node10 -->
<g id="edge26_Node000020_Node000010" class="edge">
<title>Node20&#45;&gt;Node10</title>
<g id="a_edge26_Node000020_Node000010"><a xlink:title=" ">
<path fill="none" stroke="#63b8ff" d="M802.84,-241.84C799.16,-214.3 787.66,-128.26 782.52,-89.84"/>
<polygon fill="#63b8ff" stroke="#63b8ff" points="785.94,-89.02 781.15,-79.57 779,-89.95 785.94,-89.02"/>
</a>
</g>
</g>
<!-- Node20&#45;&gt;Node13 -->
<g id="edge37_Node000020_Node000013" class="edge">
<title>Node20&#45;&gt;Node13</title>
<g id="a_edge37_Node000020_Node000013"><a xlink:title=" ">
<path fill="none" stroke="#63b8ff" d="M798.46,-241.53C789.07,-226.77 768.9,-196.93 747,-176 707.04,-137.82 652.08,-103.27 620.68,-84.89"/>
<polygon fill="#63b8ff" stroke="#63b8ff" points="622.14,-81.69 611.73,-79.72 618.64,-87.75 622.14,-81.69"/>
</a>
</g>
</g>
<!-- Node20&#45;&gt;Node18 -->
<g id="edge30_Node000020_Node000018" class="edge">
<title>Node20&#45;&gt;Node18</title>
<g id="a_edge30_Node000020_Node000018"><a xlink:title=" ">
<path fill="none" stroke="#63b8ff" d="M749.47,-241.99C681.57,-231.4 565.73,-213.33 493.49,-202.06"/>
<polygon fill="#63b8ff" stroke="#63b8ff" points="494.01,-198.6 483.59,-200.52 492.94,-205.52 494.01,-198.6"/>
</a>
</g>
</g>
<!-- Node21 -->
<g id="Node000021" class="node">
<title>Node21</title>
<g id="a_Node000021"><a xlink:title=" ">
<polygon fill="#e0e0e0" stroke="#999999" points="1094,-140 1042,-140 1042,-121 1094,-121 1094,-140"/>
<text text-anchor="middle" x="1068" y="-128" font-family="Helvetica,sans-Serif" font-size="10.00">cassert</text>
</a>
</g>
</g>
<!-- Node20&#45;&gt;Node21 -->
<g id="edge25_Node000020_Node000021" class="edge">
<title>Node20&#45;&gt;Node21</title>
<g id="a_edge25_Node000020_Node000021"><a xlink:title=" ">
<path fill="none" stroke="#63b8ff" d="M883.32,-246.49C948.33,-241.46 1033.33,-230.33 1057,-206 1071.07,-191.53 1072.17,-167.42 1070.83,-150.56"/>
<polygon fill="#63b8ff" stroke="#63b8ff" points="1074.26,-149.78 1069.64,-140.25 1067.31,-150.59 1074.26,-149.78"/>
</a>
</g>
</g>
<!-- Node22 -->
<g id="Node000022" class="node">
<title>Node22</title>
<g id="a_Node000022"><a xlink:title=" ">
<polygon fill="#e0e0e0" stroke="#999999" points="877.5,-200.5 832.5,-200.5 832.5,-181.5 877.5,-181.5 877.5,-200.5"/>
<text text-anchor="middle" x="855" y="-188.5" font-family="Helvetica,sans-Serif" font-size="10.00">utility</text>
</a>
</g>
</g>
<!-- Node20&#45;&gt;Node22 -->
<g id="edge28_Node000020_Node000022" class="edge">
<title>Node20&#45;&gt;Node22</title>
<g id="a_edge28_Node000020_Node000022"><a xlink:title=" ">
<path fill="none" stroke="#63b8ff" d="M811.53,-241.87C819.21,-233.05 831.32,-219.16 840.81,-208.27"/>
<polygon fill="#63b8ff" stroke="#63b8ff" points="843.51,-210.51 847.44,-200.67 838.23,-205.91 843.51,-210.51"/>
</a>
</g>
</g>
<!-- Node20&#45;&gt;Node23 -->
<g id="edge31_Node000020_Node000023" class="edge">
<title>Node20&#45;&gt;Node23</title>
<g id="a_edge31_Node000020_Node000023"><a xlink:title=" ">
<path fill="none" stroke="#63b8ff" d="M831.19,-241.99C858.57,-233.43 901.59,-219.97 936.1,-209.18"/>
<polygon fill="#63b8ff" stroke="#63b8ff" points="937.54,-212.39 946.04,-206.06 935.45,-205.71 937.54,-212.39"/>
</a>
</g>
</g>
<!-- Node24 -->
<g id="Node000024" class="node">
<title>Node24</title>
<g id="a_Node000024"><a xlink:href="comparison_8h.html" target="_top" xlink:title=" ">
<polygon fill="white" stroke="#666666" points="738,-206 604,-206 604,-176 738,-176 738,-206"/>
<text text-anchor="start" x="612" y="-194" font-family="Helvetica,sans-Serif" font-size="10.00">open62541pp/overloads</text>
<text text-anchor="middle" x="671" y="-183" font-family="Helvetica,sans-Serif" font-size="10.00">/comparison.h</text>
</a>
</g>
</g>
<!-- Node20&#45;&gt;Node24 -->
<g id="edge38_Node000020_Node000024" class="edge">
<title>Node20&#45;&gt;Node24</title>
<g id="a_edge38_Node000020_Node000024"><a xlink:title=" ">
<path fill="none" stroke="#63b8ff" d="M784.66,-241.99C765.77,-233.68 736.42,-220.78 712.28,-210.16"/>
<polygon fill="#63b8ff" stroke="#63b8ff" points="713.54,-206.89 702.98,-206.06 710.72,-213.29 713.54,-206.89"/>
</a>
</g>
</g>
<!-- Node23&#45;&gt;Node5 -->
<g id="edge33_Node000023_Node000005" class="edge">
<title>Node23&#45;&gt;Node5</title>
<g id="a_edge33_Node000023_Node000005"><a xlink:title=" ">
<path fill="none" stroke="#63b8ff" d="M934.39,-181.81C919.04,-179.75 902.4,-177.65 887,-176 687.06,-154.58 636.35,-157.15 436,-140 415.84,-138.27 393.23,-136.21 375.36,-134.55"/>
<polygon fill="#63b8ff" stroke="#63b8ff" points="375.45,-131.04 365.17,-133.6 374.8,-138.01 375.45,-131.04"/>
</a>
</g>
</g>
<!-- Node23&#45;&gt;Node6 -->
<g id="edge34_Node000023_Node000006" class="edge">
<title>Node23&#45;&gt;Node6</title>
<g id="a_edge34_Node000023_Node000006"><a xlink:title=" ">
<path fill="none" stroke="#63b8ff" d="M995.88,-175.85C1002.06,-160.08 1014.21,-134.97 1033,-121 1055.84,-104.02 1129.19,-88.13 1178.33,-78.99"/>
<polygon fill="#63b8ff" stroke="#63b8ff" points="1179.21,-82.39 1188.42,-77.15 1177.95,-75.5 1179.21,-82.39"/>
</a>
</g>
</g>
<!-- Node23&#45;&gt;Node9 -->
<g id="edge35_Node000023_Node000009" class="edge">
<title>Node23&#45;&gt;Node9</title>
<g id="a_edge35_Node000023_Node000009"><a xlink:title=" ">
<path fill="none" stroke="#63b8ff" d="M972.84,-175.84C961.51,-167 946.94,-155.63 935.38,-146.62"/>
<polygon fill="#63b8ff" stroke="#63b8ff" points="937.28,-143.66 927.24,-140.27 932.97,-149.18 937.28,-143.66"/>
</a>
</g>
</g>
<!-- Node23&#45;&gt;Node13 -->
<g id="edge36_Node000023_Node000013" class="edge">
<title>Node23&#45;&gt;Node13</title>
<g id="a_edge36_Node000023_Node000013"><a xlink:title=" ">
<path fill="none" stroke="#63b8ff" d="M944.53,-176C865.64,-152.23 707.03,-104.45 634.17,-82.5"/>
<polygon fill="#63b8ff" stroke="#63b8ff" points="635.07,-79.11 624.48,-79.58 633.05,-85.82 635.07,-79.11"/>
</a>
</g>
</g>
<!-- Node23&#45;&gt;Node21 -->
<g id="edge32_Node000023_Node000021" class="edge">
<title>Node23&#45;&gt;Node21</title>
<g id="a_edge32_Node000023_Node000021"><a xlink:title=" ">
<path fill="none" stroke="#63b8ff" d="M1009.64,-175.84C1021.39,-166.91 1036.53,-155.41 1048.45,-146.35"/>
<polygon fill="#63b8ff" stroke="#63b8ff" points="1050.62,-149.1 1056.46,-140.27 1046.38,-143.53 1050.62,-149.1"/>
</a>
</g>
</g>
<!-- Node24&#45;&gt;Node13 -->
<g id="edge39_Node000024_Node000013" class="edge">
<title>Node24&#45;&gt;Node13</title>
<g id="a_edge39_Node000024_Node000013"><a xlink:title=" ">
<path fill="none" stroke="#63b8ff" d="M662.1,-175.88C648.32,-154.02 621.86,-112.04 606.94,-88.36"/>
<polygon fill="#63b8ff" stroke="#63b8ff" points="609.78,-86.3 601.49,-79.71 603.86,-90.04 609.78,-86.3"/>
</a>
</g>
</g>
<!-- Node25&#45;&gt;Node3 -->
<g id="edge44_Node000025_Node000003" class="edge">
<title>Node25&#45;&gt;Node3</title>
<g id="a_edge44_Node000025_Node000003"><a xlink:title=" ">
<path fill="none" stroke="#63b8ff" d="M532.57,-302.49C503.71,-292.44 455.5,-275.66 423,-264.34"/>
<polygon fill="#63b8ff" stroke="#63b8ff" points="424.05,-261 413.46,-261.02 421.75,-267.61 424.05,-261"/>
</a>
</g>
</g>
<!-- Node25&#45;&gt;Node5 -->
<g id="edge47_Node000025_Node000005" class="edge">
<title>Node25&#45;&gt;Node5</title>
<g id="a_edge47_Node000025_Node000005"><a xlink:title=" ">
<path fill="none" stroke="#63b8ff" d="M541.08,-302.37C516.15,-288.95 466.28,-262.5 423,-242 386.66,-224.79 362.06,-239.62 340,-206 329.15,-189.47 332.32,-166.14 336.64,-150.01"/>
<polygon fill="#63b8ff" stroke="#63b8ff" points="340.07,-150.76 339.65,-140.17 333.38,-148.71 340.07,-150.76"/>
</a>
</g>
</g>
<!-- Node25&#45;&gt;Node6 -->
<g id="edge48_Node000025_Node000006" class="edge">
<title>Node25&#45;&gt;Node6</title>
<g id="a_edge48_Node000025_Node000006"><a xlink:title=" ">
<path fill="none" stroke="#63b8ff" d="M638.39,-302.49C771.27,-287.43 1027.76,-253.19 1105,-206 1155.25,-175.3 1196.34,-117.01 1214.68,-88.11"/>
<polygon fill="#63b8ff" stroke="#63b8ff" points="1217.71,-89.87 1220.01,-79.53 1211.76,-86.18 1217.71,-89.87"/>
</a>
</g>
</g>
<!-- Node25&#45;&gt;Node10 -->
<g id="edge45_Node000025_Node000010" class="edge">
<title>Node25&#45;&gt;Node10</title>
<g id="a_edge45_Node000025_Node000010"><a xlink:title=" ">
<path fill="none" stroke="#63b8ff" d="M558.57,-302.21C563.47,-275.57 579.08,-196.32 595,-176 634,-126.21 703.62,-96.04 745.43,-81.53"/>
<polygon fill="#63b8ff" stroke="#63b8ff" points="746.56,-84.84 754.92,-78.34 744.33,-78.21 746.56,-84.84"/>
</a>
</g>
</g>
<!-- Node25&#45;&gt;Node13 -->
<g id="edge50_Node000025_Node000013" class="edge">
<title>Node25&#45;&gt;Node13</title>
<g id="a_edge50_Node000025_Node000013"><a xlink:title=" ">
<path fill="none" stroke="#63b8ff" d="M556.5,-302.38C555.44,-280.87 553.67,-223.11 562,-176 567.57,-144.51 580.33,-109.45 588.54,-88.86"/>
<polygon fill="#63b8ff" stroke="#63b8ff" points="591.82,-90.09 592.35,-79.51 585.33,-87.44 591.82,-90.09"/>
</a>
</g>
</g>
<!-- Node25&#45;&gt;Node20 -->
<g id="edge49_Node000025_Node000020" class="edge">
<title>Node25&#45;&gt;Node20</title>
<g id="a_edge49_Node000025_Node000020"><a xlink:title=" ">
<path fill="none" stroke="#63b8ff" d="M592.92,-302.49C636.64,-292.14 710.53,-274.64 758.27,-263.33"/>
<polygon fill="#63b8ff" stroke="#63b8ff" points="759.12,-266.73 768.04,-261.02 757.5,-259.92 759.12,-266.73"/>
</a>
</g>
</g>
<!-- Node26 -->
<g id="Node000026" class="node">
<title>Node26</title>
<g id="a_Node000026"><a xlink:title=" ">
<polygon fill="#e0e0e0" stroke="#999999" points="509.5,-261 470.5,-261 470.5,-242 509.5,-242 509.5,-261"/>
<text text-anchor="middle" x="490" y="-249" font-family="Helvetica,sans-Serif" font-size="10.00">ratio</text>
</a>
</g>
</g>
<!-- Node25&#45;&gt;Node26 -->
<g id="edge46_Node000025_Node000026" class="edge">
<title>Node25&#45;&gt;Node26</title>
<g id="a_edge46_Node000025_Node000026"><a xlink:title=" ">
<path fill="none" stroke="#63b8ff" d="M547.11,-302.37C536.72,-293.3 520.16,-278.84 507.55,-267.82"/>
<polygon fill="#63b8ff" stroke="#63b8ff" points="509.76,-265.11 499.93,-261.17 505.16,-270.38 509.76,-265.11"/>
</a>
</g>
</g>
<!-- Node27&#45;&gt;Node1 -->
<g id="edge52_Node000027_Node000001" class="edge">
<title>Node27&#45;&gt;Node1</title>
<g id="a_edge52_Node000027_Node000001"><a xlink:title=" ">
<path fill="none" stroke="#63b8ff" d="M216,-323.65C223.79,-324.8 231.56,-325.94 239,-327 341.2,-341.58 457.68,-356.98 539.99,-367.85"/>
<polygon fill="#63b8ff" stroke="#63b8ff" points="539.73,-371.34 550.11,-369.18 540.65,-364.4 539.73,-371.34"/>
</a>
</g>
</g>
<!-- Node27&#45;&gt;Node13 -->
<g id="edge53_Node000027_Node000013" class="edge">
<title>Node27&#45;&gt;Node13</title>
<g id="a_edge53_Node000027_Node000013"><a xlink:title=" ">
<path fill="none" stroke="#63b8ff" d="M140.21,-296.9C146.67,-260.89 169.05,-165.24 230,-121 273.57,-89.38 417.4,-77.73 511.25,-73.45"/>
<polygon fill="#63b8ff" stroke="#63b8ff" points="511.46,-76.95 521.3,-73.02 511.16,-69.96 511.46,-76.95"/>
</a>
</g>
</g>
</g>
</svg>
