<?xml version="1.0" encoding="UTF-8" standalone="no"?>
<!DOCTYPE svg PUBLIC "-//W3C//DTD SVG 1.1//EN"
 "http://www.w3.org/Graphics/SVG/1.1/DTD/svg11.dtd">
<!-- Generated by graphviz version 2.43.0 (0)
 -->
<!-- Title: /home/runner/work/open62541pp/open62541pp/include/open62541pp/TypeConverter.h Pages: 1 -->
<svg width="1432pt" height="412pt"
 viewBox="0.00 0.00 1431.50 412.00" xmlns="http://www.w3.org/2000/svg" xmlns:xlink="http://www.w3.org/1999/xlink">
<g id="graph0" class="graph" transform="scale(1 1) rotate(0) translate(4 408)">
<title>/home/runner/work/open62541pp/open62541pp/include/open62541pp/TypeConverter.h</title>
<!-- Node1 -->
<g id="Node000001" class="node">
<title>Node1</title>
<g id="a_Node000001"><a xlink:title=" ">
<polygon fill="#999999" stroke="#666666" points="722.5,-404 529.5,-404 529.5,-363 722.5,-363 722.5,-404"/>
<text text-anchor="start" x="537.5" y="-392" font-family="Helvetica,sans-Serif" font-size="10.00">/home/runner/work/open62541pp</text>
<text text-anchor="start" x="537.5" y="-381" font-family="Helvetica,sans-Serif" font-size="10.00">/open62541pp/include/open62541pp</text>
<text text-anchor="middle" x="626" y="-370" font-family="Helvetica,sans-Serif" font-size="10.00">/TypeConverter.h</text>
</a>
</g>
</g>
<!-- Node2 -->
<g id="Node000002" class="node">
<title>Node2</title>
<g id="a_Node000002"><a xlink:title=" ">
<polygon fill="#e0e0e0" stroke="#999999" points="42,-321.5 0,-321.5 0,-302.5 42,-302.5 42,-321.5"/>
<text text-anchor="middle" x="21" y="-309.5" font-family="Helvetica,sans-Serif" font-size="10.00">array</text>
</a>
</g>
</g>
<!-- Node1&#45;&gt;Node2 -->
<g id="edge1_Node000001_Node000002" class="edge">
<title>Node1&#45;&gt;Node2</title>
<g id="a_edge1_Node000001_Node000002"><a xlink:title=" ">
<path fill="none" stroke="#63b8ff" d="M529.31,-381.38C414.8,-378.17 219.02,-366.68 56,-327 53.69,-326.44 51.34,-325.75 48.99,-325"/>
<polygon fill="#63b8ff" stroke="#63b8ff" points="50.16,-321.7 39.57,-321.56 47.77,-328.27 50.16,-321.7"/>
</a>
</g>
</g>
<!-- Node3 -->
<g id="Node000003" class="node">
<title>Node3</title>
<g id="a_Node000003"><a xlink:title=" ">
<polygon fill="#e0e0e0" stroke="#999999" points="347,-261 297,-261 297,-242 347,-242 347,-261"/>
<text text-anchor="middle" x="322" y="-249" font-family="Helvetica,sans-Serif" font-size="10.00">chrono</text>
</a>
</g>
</g>
<!-- Node1&#45;&gt;Node3 -->
<g id="edge2_Node000001_Node000003" class="edge">
<title>Node1&#45;&gt;Node3</title>
<g id="a_edge2_Node000001_Node000003"><a xlink:title=" ">
<path fill="none" stroke="#63b8ff" d="M529.22,-379.72C477.39,-374.04 414.78,-360.03 368,-327 348.36,-313.13 335.43,-287.96 328.41,-270.75"/>
<polygon fill="#63b8ff" stroke="#63b8ff" points="331.62,-269.34 324.8,-261.23 325.08,-271.82 331.62,-269.34"/>
</a>
</g>
</g>
<!-- Node4 -->
<g id="Node000004" class="node">
<title>Node4</title>
<g id="a_Node000004"><a xlink:title=" ">
<polygon fill="#e0e0e0" stroke="#999999" points="1358.5,-321.5 1305.5,-321.5 1305.5,-302.5 1358.5,-302.5 1358.5,-321.5"/>
<text text-anchor="middle" x="1332" y="-309.5" font-family="Helvetica,sans-Serif" font-size="10.00">iterator</text>
</a>
</g>
</g>
<!-- Node1&#45;&gt;Node4 -->
<g id="edge3_Node000001_Node000004" class="edge">
<title>Node1&#45;&gt;Node4</title>
<g id="a_edge3_Node000001_Node000004"><a xlink:title=" ">
<path fill="none" stroke="#63b8ff" d="M722.75,-383.16C854.22,-382.1 1095.84,-373.19 1296,-327 1298.37,-326.45 1300.79,-325.78 1303.2,-325.03"/>
<polygon fill="#63b8ff" stroke="#63b8ff" points="1304.63,-328.24 1312.89,-321.61 1302.3,-321.64 1304.63,-328.24"/>
</a>
</g>
</g>
<!-- Node5 -->
<g id="Node000005" class="node">
<title>Node5</title>
<g id="a_Node000005"><a xlink:title=" ">
<polygon fill="#e0e0e0" stroke="#999999" points="180,-140 136,-140 136,-121 180,-121 180,-140"/>
<text text-anchor="middle" x="158" y="-128" font-family="Helvetica,sans-Serif" font-size="10.00">string</text>
</a>
</g>
</g>
<!-- Node1&#45;&gt;Node5 -->
<g id="edge4_Node000001_Node000005" class="edge">
<title>Node1&#45;&gt;Node5</title>
<g id="a_edge4_Node000001_Node000005"><a xlink:title=" ">
<path fill="none" stroke="#63b8ff" d="M529.4,-381.7C461.5,-377.53 370.39,-364.44 299,-327 232.48,-292.11 219.37,-270.58 181,-206 170.65,-188.58 164.54,-166.07 161.25,-150.37"/>
<polygon fill="#63b8ff" stroke="#63b8ff" points="164.64,-149.48 159.33,-140.31 157.77,-150.79 164.64,-149.48"/>
</a>
</g>
</g>
<!-- Node6 -->
<g id="Node000006" class="node">
<title>Node6</title>
<g id="a_Node000006"><a xlink:title=" ">
<polygon fill="#e0e0e0" stroke="#999999" points="455.5,-79.5 382.5,-79.5 382.5,-60.5 455.5,-60.5 455.5,-79.5"/>
<text text-anchor="middle" x="419" y="-67.5" font-family="Helvetica,sans-Serif" font-size="10.00">string_view</text>
</a>
</g>
</g>
<!-- Node1&#45;&gt;Node6 -->
<g id="edge5_Node000001_Node000006" class="edge">
<title>Node1&#45;&gt;Node6</title>
<g id="a_edge5_Node000001_Node000006"><a xlink:title=" ">
<path fill="none" stroke="#63b8ff" d="M529.48,-377.9C379.61,-368.08 108,-338.44 108,-252.5 108,-252.5 108,-252.5 108,-190 108,-158.19 103.42,-142.35 127,-121 162.25,-89.08 298.91,-77.19 372.1,-73.04"/>
<polygon fill="#63b8ff" stroke="#63b8ff" points="372.62,-76.52 382.42,-72.49 372.25,-69.53 372.62,-76.52"/>
</a>
</g>
</g>
<!-- Node7 -->
<g id="Node000007" class="node">
<title>Node7</title>
<g id="a_Node000007"><a xlink:title=" ">
<polygon fill="#e0e0e0" stroke="#999999" points="382.5,-19 313.5,-19 313.5,0 382.5,0 382.5,-19"/>
<text text-anchor="middle" x="348" y="-7" font-family="Helvetica,sans-Serif" font-size="10.00">type_traits</text>
</a>
</g>
</g>
<!-- Node1&#45;&gt;Node7 -->
<g id="edge6_Node000001_Node000007" class="edge">
<title>Node1&#45;&gt;Node7</title>
<g id="a_edge6_Node000001_Node000007"><a xlink:title=" ">
<path fill="none" stroke="#63b8ff" d="M529.47,-379.3C407.69,-373.93 206.18,-360.21 140,-327 99.39,-306.62 70,-297.93 70,-252.5 70,-252.5 70,-252.5 70,-129.5 70,-29.26 224.63,-12.35 303.25,-10.23"/>
<polygon fill="#63b8ff" stroke="#63b8ff" points="303.43,-13.73 313.35,-10.03 303.29,-6.73 303.43,-13.73"/>
</a>
</g>
</g>
<!-- Node8 -->
<g id="Node000008" class="node">
<title>Node8</title>
<g id="a_Node000008"><a xlink:title=" ">
<polygon fill="#e0e0e0" stroke="#999999" points="1423.5,-321.5 1376.5,-321.5 1376.5,-302.5 1423.5,-302.5 1423.5,-321.5"/>
<text text-anchor="middle" x="1400" y="-309.5" font-family="Helvetica,sans-Serif" font-size="10.00">vector</text>
</a>
</g>
</g>
<!-- Node1&#45;&gt;Node8 -->
<g id="edge7_Node000001_Node000008" class="edge">
<title>Node1&#45;&gt;Node8</title>
<g id="a_edge7_Node000001_Node000008"><a xlink:title=" ">
<path fill="none" stroke="#63b8ff" d="M722.74,-379.31C895.09,-372.96 1248.43,-356.71 1368,-327 1369.94,-326.52 1371.92,-325.93 1373.88,-325.26"/>
<polygon fill="#63b8ff" stroke="#63b8ff" points="1375.41,-328.42 1383.44,-321.51 1372.85,-321.91 1375.41,-328.42"/>
</a>
</g>
</g>
<!-- Node9 -->
<g id="Node000009" class="node">
<title>Node9</title>
<g id="a_Node000009"><a xlink:href="Common_8h.html" target="_top" xlink:title=" ">
<polygon fill="white" stroke="#666666" points="732.5,-140 593.5,-140 593.5,-121 732.5,-121 732.5,-140"/>
<text text-anchor="middle" x="663" y="-128" font-family="Helvetica,sans-Serif" font-size="10.00">open62541pp/Common.h</text>
</a>
</g>
</g>
<!-- Node1&#45;&gt;Node9 -->
<g id="edge8_Node000001_Node000009" class="edge">
<title>Node1&#45;&gt;Node9</title>
<g id="a_edge8_Node000001_Node000009"><a xlink:title=" ">
<path fill="none" stroke="#63b8ff" d="M670.32,-362.85C708.57,-343.19 761.29,-308.96 785,-261 793.89,-243.02 803.66,-207.68 780,-176 767.99,-159.91 749.4,-149.64 730.56,-143.08"/>
<polygon fill="#63b8ff" stroke="#63b8ff" points="731.61,-139.74 721.02,-140.07 729.5,-146.42 731.61,-139.74"/>
</a>
</g>
</g>
<!-- Node12 -->
<g id="Node000012" class="node">
<title>Node12</title>
<g id="a_Node000012"><a xlink:href="traits_8h.html" target="_top" xlink:title=" ">
<polygon fill="white" stroke="#666666" points="698.5,-85 585.5,-85 585.5,-55 698.5,-55 698.5,-85"/>
<text text-anchor="start" x="593.5" y="-73" font-family="Helvetica,sans-Serif" font-size="10.00">open62541pp/detail</text>
<text text-anchor="middle" x="642" y="-62" font-family="Helvetica,sans-Serif" font-size="10.00">/traits.h</text>
</a>
</g>
</g>
<!-- Node1&#45;&gt;Node12 -->
<g id="edge44_Node000001_Node000012" class="edge">
<title>Node1&#45;&gt;Node12</title>
<g id="a_edge44_Node000001_Node000012"><a xlink:title=" ">
<path fill="none" stroke="#63b8ff" d="M722.67,-372.26C872.17,-352.38 1133.55,-299.19 1046,-176 1007.15,-121.34 813.3,-90.83 708.88,-78.12"/>
<polygon fill="#63b8ff" stroke="#63b8ff" points="709.1,-74.62 698.76,-76.91 708.27,-81.58 709.1,-74.62"/>
</a>
</g>
</g>
<!-- Node13 -->
<g id="Node000013" class="node">
<title>Node13</title>
<g id="a_Node000013"><a xlink:href="open62541_8h.html" target="_top" xlink:title=" ">
<polygon fill="white" stroke="#666666" points="1057.5,-79.5 908.5,-79.5 908.5,-60.5 1057.5,-60.5 1057.5,-79.5"/>
<text text-anchor="middle" x="983" y="-67.5" font-family="Helvetica,sans-Serif" font-size="10.00">open62541pp/open62541.h</text>
</a>
</g>
</g>
<!-- Node1&#45;&gt;Node13 -->
<g id="edge45_Node000001_Node000013" class="edge">
<title>Node1&#45;&gt;Node13</title>
<g id="a_edge45_Node000001_Node000013"><a xlink:title=" ">
<path fill="none" stroke="#63b8ff" d="M722.64,-380.79C797.09,-376.39 901.12,-363.42 985,-327 1028.55,-308.09 1048.25,-303.7 1069,-261 1096.42,-204.58 1085.61,-173.32 1051,-121 1040.79,-105.56 1024.09,-93.18 1009.8,-84.61"/>
<polygon fill="#63b8ff" stroke="#63b8ff" points="1011.28,-81.42 1000.85,-79.52 1007.82,-87.51 1011.28,-81.42"/>
</a>
</g>
</g>
<!-- Node19 -->
<g id="Node000019" class="node">
<title>Node19</title>
<g id="a_Node000019"><a xlink:href="ErrorHandling_8h.html" target="_top" xlink:title=" ">
<polygon fill="white" stroke="#666666" points="384.5,-200.5 223.5,-200.5 223.5,-181.5 384.5,-181.5 384.5,-200.5"/>
<text text-anchor="middle" x="304" y="-188.5" font-family="Helvetica,sans-Serif" font-size="10.00">open62541pp/ErrorHandling.h</text>
</a>
</g>
</g>
<!-- Node1&#45;&gt;Node19 -->
<g id="edge21_Node000001_Node000019" class="edge">
<title>Node1&#45;&gt;Node19</title>
<g id="a_edge21_Node000001_Node000019"><a xlink:title=" ">
<path fill="none" stroke="#63b8ff" d="M529.27,-371.55C458.14,-362.1 368.58,-346.84 337,-327 306.06,-307.56 299.47,-295.69 288,-261 282.35,-243.9 288.4,-223.78 294.61,-209.7"/>
<polygon fill="#63b8ff" stroke="#63b8ff" points="297.79,-211.16 299,-200.64 291.49,-208.11 297.79,-211.16"/>
</a>
</g>
</g>
<!-- Node22 -->
<g id="Node000022" class="node">
<title>Node22</title>
<g id="a_Node000022"><a xlink:href="TypeWrapper_8h.html" target="_top" xlink:title=" ">
<polygon fill="white" stroke="#666666" points="776,-261 618,-261 618,-242 776,-242 776,-261"/>
<text text-anchor="middle" x="697" y="-249" font-family="Helvetica,sans-Serif" font-size="10.00">open62541pp/TypeWrapper.h</text>
</a>
</g>
</g>
<!-- Node1&#45;&gt;Node22 -->
<g id="edge27_Node000001_Node000022" class="edge">
<title>Node1&#45;&gt;Node22</title>
<g id="a_edge27_Node000001_Node000022"><a xlink:title=" ">
<path fill="none" stroke="#63b8ff" d="M636.78,-362.76C650.56,-337.52 674.21,-294.23 687.4,-270.08"/>
<polygon fill="#63b8ff" stroke="#63b8ff" points="690.63,-271.47 692.35,-261.01 684.49,-268.11 690.63,-271.47"/>
</a>
</g>
</g>
<!-- Node25 -->
<g id="Node000025" class="node">
<title>Node25</title>
<g id="a_Node000025"><a xlink:href="helper_8h.html" target="_top" xlink:title=" ">
<polygon fill="white" stroke="#666666" points="668.5,-206 555.5,-206 555.5,-176 668.5,-176 668.5,-206"/>
<text text-anchor="start" x="563.5" y="-194" font-family="Helvetica,sans-Serif" font-size="10.00">open62541pp/detail</text>
<text text-anchor="middle" x="612" y="-183" font-family="Helvetica,sans-Serif" font-size="10.00">/helper.h</text>
</a>
</g>
</g>
<!-- Node1&#45;&gt;Node25 -->
<g id="edge43_Node000001_Node000025" class="edge">
<title>Node1&#45;&gt;Node25</title>
<g id="a_edge43_Node000001_Node000025"><a xlink:title=" ">
<path fill="none" stroke="#63b8ff" d="M622.38,-362.81C618.19,-338.85 611.51,-297.12 609,-261 608.41,-252.58 608.75,-250.44 609,-242 609.25,-233.66 609.73,-224.55 610.24,-216.41"/>
<polygon fill="#63b8ff" stroke="#63b8ff" points="613.73,-216.64 610.9,-206.43 606.75,-216.18 613.73,-216.64"/>
</a>
</g>
</g>
<!-- Node27 -->
<g id="Node000027" class="node">
<title>Node27</title>
<g id="a_Node000027"><a xlink:href="DateTime_8h.html" target="_top" xlink:title=" ">
<polygon fill="white" stroke="#666666" points="549.5,-321.5 376.5,-321.5 376.5,-302.5 549.5,-302.5 549.5,-321.5"/>
<text text-anchor="middle" x="463" y="-309.5" font-family="Helvetica,sans-Serif" font-size="10.00">open62541pp/types/DateTime.h</text>
</a>
</g>
</g>
<!-- Node1&#45;&gt;Node27 -->
<g id="edge46_Node000001_Node000027" class="edge">
<title>Node1&#45;&gt;Node27</title>
<g id="a_edge46_Node000001_Node000027"><a xlink:title=" ">
<path fill="none" stroke="#63b8ff" d="M580.16,-362.96C552.02,-350.96 516.82,-335.95 492.38,-325.53"/>
<polygon fill="#63b8ff" stroke="#63b8ff" points="493.52,-322.21 482.94,-321.5 490.77,-328.65 493.52,-322.21"/>
</a>
</g>
</g>
<!-- Node29 -->
<g id="Node000029" class="node">
<title>Node29</title>
<g id="a_Node000029"><a xlink:href="TypeConverterNative_8h.html" target="_top" xlink:title=" ">
<polygon fill="white" stroke="#666666" points="1287,-327 1131,-327 1131,-297 1287,-297 1287,-327"/>
<text text-anchor="start" x="1139" y="-315" font-family="Helvetica,sans-Serif" font-size="10.00">open62541pp/TypeConverter</text>
<text text-anchor="middle" x="1209" y="-304" font-family="Helvetica,sans-Serif" font-size="10.00">Native.h</text>
</a>
</g>
</g>
<!-- Node1&#45;&gt;Node29 -->
<g id="edge54_Node000001_Node000029" class="edge">
<title>Node1&#45;&gt;Node29</title>
<g id="a_edge54_Node000001_Node000029"><a xlink:title=" ">
<path fill="none" stroke="#63b8ff" d="M722.67,-371.96C820.06,-361.56 974.48,-344.7 1108,-327 1112.14,-326.45 1116.39,-325.87 1120.69,-325.27"/>
<polygon fill="#63b8ff" stroke="#63b8ff" points="1121.36,-328.71 1130.77,-323.83 1120.38,-321.78 1121.36,-328.71"/>
</a>
</g>
</g>
<!-- Node9&#45;&gt;Node6 -->
<g id="edge10_Node000009_Node000006" class="edge">
<title>Node9&#45;&gt;Node6</title>
<g id="a_edge10_Node000009_Node000006"><a xlink:title=" ">
<path fill="none" stroke="#63b8ff" d="M627.52,-120.99C584.42,-110.66 511.64,-93.21 464.47,-81.9"/>
<polygon fill="#63b8ff" stroke="#63b8ff" points="465.06,-78.44 454.52,-79.52 463.43,-85.25 465.06,-78.44"/>
</a>
</g>
</g>
<!-- Node10 -->
<g id="Node000010" class="node">
<title>Node10</title>
<g id="a_Node000010"><a xlink:title=" ">
<polygon fill="#e0e0e0" stroke="#999999" points="567,-79.5 517,-79.5 517,-60.5 567,-60.5 567,-79.5"/>
<text text-anchor="middle" x="542" y="-67.5" font-family="Helvetica,sans-Serif" font-size="10.00">cstdint</text>
</a>
</g>
</g>
<!-- Node9&#45;&gt;Node10 -->
<g id="edge9_Node000009_Node000010" class="edge">
<title>Node9&#45;&gt;Node10</title>
<g id="a_edge9_Node000009_Node000010"><a xlink:title=" ">
<path fill="none" stroke="#63b8ff" d="M645.41,-120.99C625.24,-111.25 591.98,-95.16 568.64,-83.88"/>
<polygon fill="#63b8ff" stroke="#63b8ff" points="570.14,-80.72 559.62,-79.52 567.1,-87.02 570.14,-80.72"/>
</a>
</g>
</g>
<!-- Node11 -->
<g id="Node000011" class="node">
<title>Node11</title>
<g id="a_Node000011"><a xlink:title=" ">
<polygon fill="#e0e0e0" stroke="#999999" points="662.5,-19 621.5,-19 621.5,0 662.5,0 662.5,-19"/>
<text text-anchor="middle" x="642" y="-7" font-family="Helvetica,sans-Serif" font-size="10.00">tuple</text>
</a>
</g>
</g>
<!-- Node9&#45;&gt;Node11 -->
<g id="edge11_Node000009_Node000011" class="edge">
<title>Node9&#45;&gt;Node11</title>
<g id="a_edge11_Node000009_Node000011"><a xlink:title=" ">
<path fill="none" stroke="#63b8ff" d="M676.49,-120.75C687.29,-112.87 701.65,-100.21 708,-85 713.14,-72.7 714.26,-66.77 708,-55 700.25,-40.43 685.36,-29.77 671.69,-22.54"/>
<polygon fill="#63b8ff" stroke="#63b8ff" points="673.04,-19.3 662.52,-18.08 669.98,-25.6 673.04,-19.3"/>
</a>
</g>
</g>
<!-- Node9&#45;&gt;Node12 -->
<g id="edge12_Node000009_Node000012" class="edge">
<title>Node9&#45;&gt;Node12</title>
<g id="a_edge12_Node000009_Node000012"><a xlink:title=" ">
<path fill="none" stroke="#63b8ff" d="M659.9,-120.87C657.42,-113.96 653.82,-103.93 650.5,-94.67"/>
<polygon fill="#63b8ff" stroke="#63b8ff" points="653.74,-93.34 647.07,-85.11 647.15,-95.71 653.74,-93.34"/>
</a>
</g>
</g>
<!-- Node9&#45;&gt;Node13 -->
<g id="edge15_Node000009_Node000013" class="edge">
<title>Node9&#45;&gt;Node13</title>
<g id="a_edge15_Node000009_Node000013"><a xlink:title=" ">
<path fill="none" stroke="#63b8ff" d="M709.53,-120.99C767,-110.49 864.71,-92.62 926.45,-81.34"/>
<polygon fill="#63b8ff" stroke="#63b8ff" points="927.21,-84.76 936.41,-79.52 925.95,-77.87 927.21,-84.76"/>
</a>
</g>
</g>
<!-- Node12&#45;&gt;Node7 -->
<g id="edge14_Node000012_Node000007" class="edge">
<title>Node12&#45;&gt;Node7</title>
<g id="a_edge14_Node000012_Node000007"><a xlink:title=" ">
<path fill="none" stroke="#63b8ff" d="M585.49,-56.95C582.28,-56.28 579.1,-55.63 576,-55 512.44,-42.06 438.75,-27.81 392.75,-19.01"/>
<polygon fill="#63b8ff" stroke="#63b8ff" points="393.28,-15.55 382.8,-17.11 391.96,-22.42 393.28,-15.55"/>
</a>
</g>
</g>
<!-- Node12&#45;&gt;Node11 -->
<g id="edge13_Node000012_Node000011" class="edge">
<title>Node12&#45;&gt;Node11</title>
<g id="a_edge13_Node000012_Node000011"><a xlink:title=" ">
<path fill="none" stroke="#63b8ff" d="M642,-54.84C642,-47.21 642,-37.7 642,-29.45"/>
<polygon fill="#63b8ff" stroke="#63b8ff" points="645.5,-29.27 642,-19.27 638.5,-29.27 645.5,-29.27"/>
</a>
</g>
</g>
<!-- Node14 -->
<g id="Node000014" class="node">
<title>Node14</title>
<g id="a_Node000014"><a target="_blank" xlink:href="open62541/config_8h.html" xlink:title=" ">
<polygon fill="white" stroke="#666666" points="975,-19 863,-19 863,0 975,0 975,-19"/>
<text text-anchor="middle" x="919" y="-7" font-family="Helvetica,sans-Serif" font-size="10.00">open62541/config.h</text>
</a>
</g>
</g>
<!-- Node13&#45;&gt;Node14 -->
<g id="edge16_Node000013_Node000014" class="edge">
<title>Node13&#45;&gt;Node14</title>
<g id="a_edge16_Node000013_Node000014"><a xlink:title=" ">
<path fill="none" stroke="#63b8ff" d="M973.56,-60.37C963.73,-51.38 948.11,-37.11 936.11,-26.14"/>
<polygon fill="#63b8ff" stroke="#63b8ff" points="938.22,-23.33 928.48,-19.17 933.5,-28.5 938.22,-23.33"/>
</a>
</g>
</g>
<!-- Node15 -->
<g id="Node000015" class="node">
<title>Node15</title>
<g id="a_Node000015"><a target="_blank" xlink:href="open62541/nodeids_8h.html" xlink:title=" ">
<polygon fill="white" stroke="#666666" points="1114.5,-19 993.5,-19 993.5,0 1114.5,0 1114.5,-19"/>
<text text-anchor="middle" x="1054" y="-7" font-family="Helvetica,sans-Serif" font-size="10.00">open62541/nodeids.h</text>
</a>
</g>
</g>
<!-- Node13&#45;&gt;Node15 -->
<g id="edge17_Node000013_Node000015" class="edge">
<title>Node13&#45;&gt;Node15</title>
<g id="a_edge17_Node000013_Node000015"><a xlink:title=" ">
<path fill="none" stroke="#63b8ff" d="M993.48,-60.37C1004.49,-51.3 1022.04,-36.84 1035.41,-25.82"/>
<polygon fill="#63b8ff" stroke="#63b8ff" points="1037.99,-28.23 1043.48,-19.17 1033.54,-22.83 1037.99,-28.23"/>
</a>
</g>
</g>
<!-- Node16 -->
<g id="Node000016" class="node">
<title>Node16</title>
<g id="a_Node000016"><a target="_blank" xlink:href="open62541/statuscodes_8h.html" xlink:title=" ">
<polygon fill="white" stroke="#666666" points="1273.5,-19 1132.5,-19 1132.5,0 1273.5,0 1273.5,-19"/>
<text text-anchor="middle" x="1203" y="-7" font-family="Helvetica,sans-Serif" font-size="10.00">open62541/statuscodes.h</text>
</a>
</g>
</g>
<!-- Node13&#45;&gt;Node16 -->
<g id="edge18_Node000013_Node000016" class="edge">
<title>Node13&#45;&gt;Node16</title>
<g id="a_edge18_Node000013_Node000016"><a xlink:title=" ">
<path fill="none" stroke="#63b8ff" d="M1014.99,-60.49C1053.6,-50.23 1118.64,-32.93 1161.2,-21.62"/>
<polygon fill="#63b8ff" stroke="#63b8ff" points="1162.21,-24.97 1170.97,-19.02 1160.41,-18.2 1162.21,-24.97"/>
</a>
</g>
</g>
<!-- Node17 -->
<g id="Node000017" class="node">
<title>Node17</title>
<g id="a_Node000017"><a target="_blank" xlink:href="open62541/types_8h.html" xlink:title=" ">
<polygon fill="white" stroke="#666666" points="1402,-19 1292,-19 1292,0 1402,0 1402,-19"/>
<text text-anchor="middle" x="1347" y="-7" font-family="Helvetica,sans-Serif" font-size="10.00">open62541/types.h</text>
</a>
</g>
</g>
<!-- Node13&#45;&gt;Node17 -->
<g id="edge19_Node000013_Node000017" class="edge">
<title>Node13&#45;&gt;Node17</title>
<g id="a_edge19_Node000013_Node000017"><a xlink:title=" ">
<path fill="none" stroke="#63b8ff" d="M1035.93,-60.49C1101.71,-49.92 1213.82,-31.9 1283.97,-20.63"/>
<polygon fill="#63b8ff" stroke="#63b8ff" points="1284.69,-24.06 1294.01,-19.02 1283.58,-17.15 1284.69,-24.06"/>
</a>
</g>
</g>
<!-- Node18 -->
<g id="Node000018" class="node">
<title>Node18</title>
<g id="a_Node000018"><a target="_blank" xlink:href="open62541/types__generated_8h.html" xlink:title=" ">
<polygon fill="white" stroke="#666666" points="845,-19 681,-19 681,0 845,0 845,-19"/>
<text text-anchor="middle" x="763" y="-7" font-family="Helvetica,sans-Serif" font-size="10.00">open62541/types_generated.h</text>
</a>
</g>
</g>
<!-- Node13&#45;&gt;Node18 -->
<g id="edge20_Node000013_Node000018" class="edge">
<title>Node13&#45;&gt;Node18</title>
<g id="a_edge20_Node000013_Node000018"><a xlink:title=" ">
<path fill="none" stroke="#63b8ff" d="M951.01,-60.49C912.4,-50.23 847.36,-32.93 804.8,-21.62"/>
<polygon fill="#63b8ff" stroke="#63b8ff" points="805.59,-18.2 795.03,-19.02 803.79,-24.97 805.59,-18.2"/>
</a>
</g>
</g>
<!-- Node19&#45;&gt;Node5 -->
<g id="edge24_Node000019_Node000005" class="edge">
<title>Node19&#45;&gt;Node5</title>
<g id="a_edge24_Node000019_Node000005"><a xlink:title=" ">
<path fill="none" stroke="#63b8ff" d="M282.77,-181.49C258.01,-171.57 216.88,-155.09 188.65,-143.78"/>
<polygon fill="#63b8ff" stroke="#63b8ff" points="189.84,-140.49 179.26,-140.02 187.24,-146.99 189.84,-140.49"/>
</a>
</g>
</g>
<!-- Node19&#45;&gt;Node7 -->
<g id="edge25_Node000019_Node000007" class="edge">
<title>Node19&#45;&gt;Node7</title>
<g id="a_edge25_Node000019_Node000007"><a xlink:title=" ">
<path fill="none" stroke="#63b8ff" d="M279.6,-181.32C252.68,-170.19 214.69,-148.92 227,-121 246.58,-76.61 293.77,-42.32 323.1,-24.38"/>
<polygon fill="#63b8ff" stroke="#63b8ff" points="325.12,-27.25 331.93,-19.14 321.55,-21.23 325.12,-27.25"/>
</a>
</g>
</g>
<!-- Node19&#45;&gt;Node13 -->
<g id="edge26_Node000019_Node000013" class="edge">
<title>Node19&#45;&gt;Node13</title>
<g id="a_edge26_Node000019_Node000013"><a xlink:title=" ">
<path fill="none" stroke="#63b8ff" d="M384.55,-184.74C492.39,-177.02 677.57,-161.21 742,-140 758.08,-134.71 759.28,-127.26 775,-121 821.7,-102.39 877.15,-89.49 919.06,-81.45"/>
<polygon fill="#63b8ff" stroke="#63b8ff" points="919.95,-84.85 929.13,-79.56 918.66,-77.97 919.95,-84.85"/>
</a>
</g>
</g>
<!-- Node20 -->
<g id="Node000020" class="node">
<title>Node20</title>
<g id="a_Node000020"><a xlink:title=" ">
<polygon fill="#e0e0e0" stroke="#999999" points="301.5,-140 236.5,-140 236.5,-121 301.5,-121 301.5,-140"/>
<text text-anchor="middle" x="269" y="-128" font-family="Helvetica,sans-Serif" font-size="10.00">functional</text>
</a>
</g>
</g>
<!-- Node19&#45;&gt;Node20 -->
<g id="edge22_Node000019_Node000020" class="edge">
<title>Node19&#45;&gt;Node20</title>
<g id="a_edge22_Node000019_Node000020"><a xlink:title=" ">
<path fill="none" stroke="#63b8ff" d="M298.84,-181.37C293.77,-172.9 285.9,-159.74 279.51,-149.07"/>
<polygon fill="#63b8ff" stroke="#63b8ff" points="282.32,-146.95 274.19,-140.17 276.32,-150.55 282.32,-146.95"/>
</a>
</g>
</g>
<!-- Node21 -->
<g id="Node000021" class="node">
<title>Node21</title>
<g id="a_Node000021"><a xlink:title=" ">
<polygon fill="#e0e0e0" stroke="#999999" points="384.5,-140 319.5,-140 319.5,-121 384.5,-121 384.5,-140"/>
<text text-anchor="middle" x="352" y="-128" font-family="Helvetica,sans-Serif" font-size="10.00">stdexcept</text>
</a>
</g>
</g>
<!-- Node19&#45;&gt;Node21 -->
<g id="edge23_Node000019_Node000021" class="edge">
<title>Node19&#45;&gt;Node21</title>
<g id="a_edge23_Node000019_Node000021"><a xlink:title=" ">
<path fill="none" stroke="#63b8ff" d="M311.08,-181.37C318.24,-172.64 329.49,-158.93 338.39,-148.09"/>
<polygon fill="#63b8ff" stroke="#63b8ff" points="341.25,-150.12 344.89,-140.17 335.84,-145.68 341.25,-150.12"/>
</a>
</g>
</g>
<!-- Node22&#45;&gt;Node7 -->
<g id="edge30_Node000022_Node000007" class="edge">
<title>Node22&#45;&gt;Node7</title>
<g id="a_edge30_Node000022_Node000007"><a xlink:title=" ">
<path fill="none" stroke="#63b8ff" d="M617.63,-244.66C586.65,-238.8 552.71,-227.52 528,-206 473.16,-158.24 517.23,-105.59 465,-55 445.33,-35.95 416.68,-24.87 392.66,-18.53"/>
<polygon fill="#63b8ff" stroke="#63b8ff" points="393.23,-15.07 382.68,-16.1 391.57,-21.87 393.23,-15.07"/>
</a>
</g>
</g>
<!-- Node22&#45;&gt;Node9 -->
<g id="edge32_Node000022_Node000009" class="edge">
<title>Node22&#45;&gt;Node9</title>
<g id="a_edge32_Node000022_Node000009"><a xlink:title=" ">
<path fill="none" stroke="#63b8ff" d="M694.99,-241.72C691.73,-227.74 684.96,-199.55 678,-176 675.43,-167.3 672.26,-157.76 669.5,-149.75"/>
<polygon fill="#63b8ff" stroke="#63b8ff" points="672.8,-148.58 666.19,-140.3 666.19,-150.9 672.8,-148.58"/>
</a>
</g>
</g>
<!-- Node22&#45;&gt;Node10 -->
<g id="edge29_Node000022_Node000010" class="edge">
<title>Node22&#45;&gt;Node10</title>
<g id="a_edge29_Node000022_Node000010"><a xlink:title=" ">
<path fill="none" stroke="#63b8ff" d="M617.9,-245.33C591.24,-239.4 563.98,-227.89 547,-206 520.73,-172.13 529.42,-117.83 536.54,-89.52"/>
<polygon fill="#63b8ff" stroke="#63b8ff" points="539.96,-90.3 539.21,-79.73 533.2,-88.46 539.96,-90.3"/>
</a>
</g>
</g>
<!-- Node22&#45;&gt;Node13 -->
<g id="edge40_Node000022_Node000013" class="edge">
<title>Node22&#45;&gt;Node13</title>
<g id="a_edge40_Node000022_Node000013"><a xlink:title=" ">
<path fill="none" stroke="#63b8ff" d="M724.95,-242C748.46,-234.27 782.54,-221.68 810,-206 872.6,-170.25 937.17,-113.6 966.6,-86.47"/>
<polygon fill="#63b8ff" stroke="#63b8ff" points="969,-89.02 973.94,-79.65 964.23,-83.89 969,-89.02"/>
</a>
</g>
</g>
<!-- Node22&#45;&gt;Node19 -->
<g id="edge33_Node000022_Node000019" class="edge">
<title>Node22&#45;&gt;Node19</title>
<g id="a_edge33_Node000022_Node000019"><a xlink:title=" ">
<path fill="none" stroke="#63b8ff" d="M639.85,-241.99C568.55,-231.38 446.79,-213.26 371.12,-201.99"/>
<polygon fill="#63b8ff" stroke="#63b8ff" points="371.62,-198.53 361.21,-200.52 370.59,-205.45 371.62,-198.53"/>
</a>
</g>
</g>
<!-- Node23 -->
<g id="Node000023" class="node">
<title>Node23</title>
<g id="a_Node000023"><a xlink:title=" ">
<polygon fill="#e0e0e0" stroke="#999999" points="879,-140 827,-140 827,-121 879,-121 879,-140"/>
<text text-anchor="middle" x="853" y="-128" font-family="Helvetica,sans-Serif" font-size="10.00">cassert</text>
</a>
</g>
</g>
<!-- Node22&#45;&gt;Node23 -->
<g id="edge28_Node000022_Node000023" class="edge">
<title>Node22&#45;&gt;Node23</title>
<g id="a_edge28_Node000022_Node000023"><a xlink:title=" ">
<path fill="none" stroke="#63b8ff" d="M716.78,-241.98C734.25,-233.98 759.99,-221.02 780,-206 802.97,-188.76 825.5,-164.28 839.32,-148.15"/>
<polygon fill="#63b8ff" stroke="#63b8ff" points="842.29,-150.06 846.05,-140.15 836.93,-145.55 842.29,-150.06"/>
</a>
</g>
</g>
<!-- Node24 -->
<g id="Node000024" class="node">
<title>Node24</title>
<g id="a_Node000024"><a xlink:title=" ">
<polygon fill="#e0e0e0" stroke="#999999" points="770.5,-200.5 725.5,-200.5 725.5,-181.5 770.5,-181.5 770.5,-200.5"/>
<text text-anchor="middle" x="748" y="-188.5" font-family="Helvetica,sans-Serif" font-size="10.00">utility</text>
</a>
</g>
</g>
<!-- Node22&#45;&gt;Node24 -->
<g id="edge31_Node000022_Node000024" class="edge">
<title>Node22&#45;&gt;Node24</title>
<g id="a_edge31_Node000022_Node000024"><a xlink:title=" ">
<path fill="none" stroke="#63b8ff" d="M704.53,-241.87C712.21,-233.05 724.32,-219.16 733.81,-208.27"/>
<polygon fill="#63b8ff" stroke="#63b8ff" points="736.51,-210.51 740.44,-200.67 731.23,-205.91 736.51,-210.51"/>
</a>
</g>
</g>
<!-- Node22&#45;&gt;Node25 -->
<g id="edge34_Node000022_Node000025" class="edge">
<title>Node22&#45;&gt;Node25</title>
<g id="a_edge34_Node000022_Node000025"><a xlink:title=" ">
<path fill="none" stroke="#63b8ff" d="M684.46,-241.87C673.03,-234 655.73,-222.09 640.89,-211.89"/>
<polygon fill="#63b8ff" stroke="#63b8ff" points="642.73,-208.9 632.51,-206.11 638.76,-214.67 642.73,-208.9"/>
</a>
</g>
</g>
<!-- Node26 -->
<g id="Node000026" class="node">
<title>Node26</title>
<g id="a_Node000026"><a xlink:href="comparison_8h.html" target="_top" xlink:title=" ">
<polygon fill="white" stroke="#666666" points="1037,-206 903,-206 903,-176 1037,-176 1037,-206"/>
<text text-anchor="start" x="911" y="-194" font-family="Helvetica,sans-Serif" font-size="10.00">open62541pp/overloads</text>
<text text-anchor="middle" x="970" y="-183" font-family="Helvetica,sans-Serif" font-size="10.00">/comparison.h</text>
</a>
</g>
</g>
<!-- Node22&#45;&gt;Node26 -->
<g id="edge41_Node000022_Node000026" class="edge">
<title>Node22&#45;&gt;Node26</title>
<g id="a_edge41_Node000022_Node000026"><a xlink:title=" ">
<path fill="none" stroke="#63b8ff" d="M736.7,-241.99C777.94,-233.16 843.48,-219.11 894.61,-208.16"/>
<polygon fill="#63b8ff" stroke="#63b8ff" points="895.59,-211.53 904.63,-206.01 894.12,-204.68 895.59,-211.53"/>
</a>
</g>
</g>
<!-- Node25&#45;&gt;Node5 -->
<g id="edge36_Node000025_Node000005" class="edge">
<title>Node25&#45;&gt;Node5</title>
<g id="a_edge36_Node000025_Node000005"><a xlink:title=" ">
<path fill="none" stroke="#63b8ff" d="M555.42,-182.71C459.16,-170.31 266.56,-145.49 190.23,-135.65"/>
<polygon fill="#63b8ff" stroke="#63b8ff" points="190.62,-132.17 180.25,-134.37 189.72,-139.12 190.62,-132.17"/>
</a>
</g>
</g>
<!-- Node25&#45;&gt;Node6 -->
<g id="edge37_Node000025_Node000006" class="edge">
<title>Node25&#45;&gt;Node6</title>
<g id="a_edge37_Node000025_Node000006"><a xlink:title=" ">
<path fill="none" stroke="#63b8ff" d="M589.1,-175.88C551.91,-152.95 478.82,-107.88 441.74,-85.02"/>
<polygon fill="#63b8ff" stroke="#63b8ff" points="443.48,-81.98 433.13,-79.71 439.8,-87.94 443.48,-81.98"/>
</a>
</g>
</g>
<!-- Node25&#45;&gt;Node9 -->
<g id="edge38_Node000025_Node000009" class="edge">
<title>Node25&#45;&gt;Node9</title>
<g id="a_edge38_Node000025_Node000009"><a xlink:title=" ">
<path fill="none" stroke="#63b8ff" d="M624.35,-175.84C631.67,-167.43 641,-156.74 648.65,-147.96"/>
<polygon fill="#63b8ff" stroke="#63b8ff" points="651.42,-150.1 655.36,-140.27 646.15,-145.5 651.42,-150.1"/>
</a>
</g>
</g>
<!-- Node25&#45;&gt;Node13 -->
<g id="edge39_Node000025_Node000013" class="edge">
<title>Node25&#45;&gt;Node13</title>
<g id="a_edge39_Node000025_Node000013"><a xlink:title=" ">
<path fill="none" stroke="#63b8ff" d="M663.18,-175.99C695.56,-166.71 738.11,-153.75 775,-140 794.58,-132.7 798.41,-128.27 818,-121 859.07,-105.77 907.12,-91.61 940.73,-82.28"/>
<polygon fill="#63b8ff" stroke="#63b8ff" points="941.96,-85.57 950.68,-79.54 940.11,-78.82 941.96,-85.57"/>
</a>
</g>
</g>
<!-- Node25&#45;&gt;Node23 -->
<g id="edge35_Node000025_Node000023" class="edge">
<title>Node25&#45;&gt;Node23</title>
<g id="a_edge35_Node000025_Node000023"><a xlink:title=" ">
<path fill="none" stroke="#63b8ff" d="M668.5,-176.28C714.35,-165.16 777.61,-149.8 816.88,-140.27"/>
<polygon fill="#63b8ff" stroke="#63b8ff" points="817.91,-143.62 826.8,-137.86 816.26,-136.82 817.91,-143.62"/>
</a>
</g>
</g>
<!-- Node26&#45;&gt;Node13 -->
<g id="edge42_Node000026_Node000013" class="edge">
<title>Node26&#45;&gt;Node13</title>
<g id="a_edge42_Node000026_Node000013"><a xlink:title=" ">
<path fill="none" stroke="#63b8ff" d="M971.54,-175.88C973.88,-154.51 978.31,-113.89 980.93,-89.96"/>
<polygon fill="#63b8ff" stroke="#63b8ff" points="984.44,-90.03 982.05,-79.71 977.48,-89.27 984.44,-90.03"/>
</a>
</g>
</g>
<!-- Node27&#45;&gt;Node3 -->
<g id="edge47_Node000027_Node000003" class="edge">
<title>Node27&#45;&gt;Node3</title>
<g id="a_edge47_Node000027_Node000003"><a xlink:title=" ">
<path fill="none" stroke="#63b8ff" d="M442.5,-302.49C418.69,-292.62 379.21,-276.23 351.96,-264.93"/>
<polygon fill="#63b8ff" stroke="#63b8ff" points="353.11,-261.62 342.53,-261.02 350.42,-268.08 353.11,-261.62"/>
</a>
</g>
</g>
<!-- Node27&#45;&gt;Node5 -->
<g id="edge50_Node000027_Node000005" class="edge">
<title>Node27&#45;&gt;Node5</title>
<g id="a_edge50_Node000027_Node000005"><a xlink:title=" ">
<path fill="none" stroke="#63b8ff" d="M452.43,-302.49C433.95,-288.02 394.1,-258.58 356,-242 296.3,-216.02 268.2,-242.07 214,-206 192.49,-191.69 176.03,-166.25 166.69,-149.13"/>
<polygon fill="#63b8ff" stroke="#63b8ff" points="169.74,-147.42 162.02,-140.16 163.53,-150.64 169.74,-147.42"/>
</a>
</g>
</g>
<!-- Node27&#45;&gt;Node6 -->
<g id="edge51_Node000027_Node000006" class="edge">
<title>Node27&#45;&gt;Node6</title>
<g id="a_edge51_Node000027_Node000006"><a xlink:title=" ">
<path fill="none" stroke="#63b8ff" d="M457.1,-302.23C450.93,-292.58 441.54,-276.39 437,-261 419.05,-200.19 417.88,-124.12 418.43,-89.59"/>
<polygon fill="#63b8ff" stroke="#63b8ff" points="421.93,-89.63 418.66,-79.55 414.93,-89.47 421.93,-89.63"/>
</a>
</g>
</g>
<!-- Node27&#45;&gt;Node10 -->
<g id="edge48_Node000027_Node000010" class="edge">
<title>Node27&#45;&gt;Node10</title>
<g id="a_edge48_Node000027_Node000010"><a xlink:title=" ">
<path fill="none" stroke="#63b8ff" d="M463.23,-302.36C463.76,-289.15 465.47,-263.24 471,-242 486.2,-183.58 517.3,-118.86 532.8,-88.52"/>
<polygon fill="#63b8ff" stroke="#63b8ff" points="535.92,-90.09 537.41,-79.6 529.71,-86.87 535.92,-90.09"/>
</a>
</g>
</g>
<!-- Node27&#45;&gt;Node13 -->
<g id="edge53_Node000027_Node000013" class="edge">
<title>Node27&#45;&gt;Node13</title>
<g id="a_edge53_Node000027_Node000013"><a xlink:title=" ">
<path fill="none" stroke="#63b8ff" d="M549.61,-308.69C696.56,-302.71 984.81,-281.43 1046,-206 1076.55,-168.34 1028.56,-113.43 1000.68,-86.74"/>
<polygon fill="#63b8ff" stroke="#63b8ff" points="1002.82,-83.95 993.11,-79.7 998.06,-89.07 1002.82,-83.95"/>
</a>
</g>
</g>
<!-- Node27&#45;&gt;Node22 -->
<g id="edge52_Node000027_Node000022" class="edge">
<title>Node27&#45;&gt;Node22</title>
<g id="a_edge52_Node000027_Node000022"><a xlink:title=" ">
<path fill="none" stroke="#63b8ff" d="M497.03,-302.49C538.27,-292.18 607.86,-274.78 653.11,-263.47"/>
<polygon fill="#63b8ff" stroke="#63b8ff" points="654.08,-266.84 662.93,-261.02 652.38,-260.05 654.08,-266.84"/>
</a>
</g>
</g>
<!-- Node28 -->
<g id="Node000028" class="node">
<title>Node28</title>
<g id="a_Node000028"><a xlink:title=" ">
<polygon fill="#e0e0e0" stroke="#999999" points="518.5,-261 479.5,-261 479.5,-242 518.5,-242 518.5,-261"/>
<text text-anchor="middle" x="499" y="-249" font-family="Helvetica,sans-Serif" font-size="10.00">ratio</text>
</a>
</g>
</g>
<!-- Node27&#45;&gt;Node28 -->
<g id="edge49_Node000027_Node000028" class="edge">
<title>Node27&#45;&gt;Node28</title>
<g id="a_edge49_Node000027_Node000028"><a xlink:title=" ">
<path fill="none" stroke="#63b8ff" d="M468.31,-302.37C473.58,-293.81 481.79,-280.47 488.39,-269.74"/>
<polygon fill="#63b8ff" stroke="#63b8ff" points="491.41,-271.52 493.67,-261.17 485.44,-267.85 491.41,-271.52"/>
</a>
</g>
</g>
<!-- Node29&#45;&gt;Node1 -->
<g id="edge55_Node000029_Node000001" class="edge">
<title>Node29&#45;&gt;Node1</title>
<g id="a_edge55_Node000029_Node000001"><a xlink:title=" ">
<path fill="none" stroke="#63b8ff" d="M1130.85,-326.35C1129.22,-326.57 1127.6,-326.79 1126,-327 990.82,-344.92 834.21,-361.98 732.75,-372.35"/>
<polygon fill="#63b8ff" stroke="#63b8ff" points="732.39,-368.86 722.8,-373.36 733.1,-375.83 732.39,-368.86"/>
</a>
</g>
</g>
<!-- Node29&#45;&gt;Node13 -->
<g id="edge56_Node000029_Node000013" class="edge">
<title>Node29&#45;&gt;Node13</title>
<g id="a_edge56_Node000029_Node000013"><a xlink:title=" ">
<path fill="none" stroke="#63b8ff" d="M1209.33,-296.81C1209.33,-261.81 1204.32,-170.61 1155,-121 1131.95,-97.82 1098.83,-85.24 1067.79,-78.47"/>
<polygon fill="#63b8ff" stroke="#63b8ff" points="1068.3,-75 1057.81,-76.47 1066.92,-81.87 1068.3,-75"/>
</a>
</g>
</g>
</g>
</svg>
