<?xml version="1.0" encoding="UTF-8" standalone="no"?>
<!DOCTYPE svg PUBLIC "-//W3C//DTD SVG 1.1//EN"
 "http://www.w3.org/Graphics/SVG/1.1/DTD/svg11.dtd">
<!-- Generated by graphviz version 2.43.0 (0)
 -->
<!-- Title: /home/runner/work/open62541pp/open62541pp/include/open62541pp/typeregistry_generated.hpp Pages: 1 -->
<svg width="1559pt" height="533pt"
 viewBox="0.00 0.00 1558.78 533.00" xmlns="http://www.w3.org/2000/svg" xmlns:xlink="http://www.w3.org/1999/xlink">
<g id="graph0" class="graph" transform="scale(1 1) rotate(0) translate(4 529)">
<title>/home/runner/work/open62541pp/open62541pp/include/open62541pp/typeregistry_generated.hpp</title>
<!-- Node1 -->
<g id="Node000001" class="node">
<title>Node1</title>
<g id="a_Node000001"><a xlink:title=" ">
<polygon fill="#999999" stroke="#666666" points="1108.5,-525 915.5,-525 915.5,-484 1108.5,-484 1108.5,-525"/>
<text text-anchor="start" x="923.5" y="-513" font-family="Helvetica,sans-Serif" font-size="10.00">/home/runner/work/open62541pp</text>
<text text-anchor="start" x="923.5" y="-502" font-family="Helvetica,sans-Serif" font-size="10.00">/open62541pp/include/open62541pp</text>
<text text-anchor="middle" x="1012" y="-491" font-family="Helvetica,sans-Serif" font-size="10.00">/typeregistry_generated.hpp</text>
</a>
</g>
</g>
<!-- Node2 -->
<g id="Node000002" class="node">
<title>Node2</title>
<g id="a_Node000002"><a xlink:href="typeregistry_8hpp.html" target="_top" xlink:title=" ">
<polygon fill="white" stroke="#666666" points="1094,-448 930,-448 930,-429 1094,-429 1094,-448"/>
<text text-anchor="middle" x="1012" y="-436" font-family="Helvetica,sans-Serif" font-size="10.00">open62541pp/typeregistry.hpp</text>
</a>
</g>
</g>
<!-- Node1&#45;&gt;Node2 -->
<g id="edge1_Node000001_Node000002" class="edge">
<title>Node1&#45;&gt;Node2</title>
<g id="a_edge1_Node000001_Node000002"><a xlink:title=" ">
<path fill="none" stroke="#63b8ff" d="M1005.73,-483.95C1005.07,-475.76 1005.09,-466.28 1005.8,-458.19"/>
<polygon fill="#63b8ff" stroke="#63b8ff" points="1009.27,-458.65 1007.18,-448.26 1002.34,-457.68 1009.27,-458.65"/>
</a>
</g>
</g>
<!-- Node4 -->
<g id="Node000004" class="node">
<title>Node4</title>
<g id="a_Node000004"><a xlink:href="common_8h.html" target="_top" xlink:title=" ">
<polygon fill="white" stroke="#666666" points="496,-206 368,-206 368,-176 496,-176 496,-206"/>
<text text-anchor="start" x="376" y="-194" font-family="Helvetica,sans-Serif" font-size="10.00">open62541pp/detail</text>
<text text-anchor="middle" x="432" y="-183" font-family="Helvetica,sans-Serif" font-size="10.00">/open62541/common.h</text>
</a>
</g>
</g>
<!-- Node1&#45;&gt;Node4 -->
<g id="edge45_Node000001_Node000004" class="edge">
<title>Node1&#45;&gt;Node4</title>
<g id="a_edge45_Node000001_Node000004"><a xlink:title=" ">
<path fill="none" stroke="#63b8ff" d="M915.3,-495.35C736.66,-478.99 373,-438.98 373,-384.5 373,-384.5 373,-384.5 373,-322 373,-281.38 397.18,-239.5 414.58,-214.61"/>
<polygon fill="#63b8ff" stroke="#63b8ff" points="417.6,-216.4 420.62,-206.24 411.93,-212.3 417.6,-216.4"/>
</a>
</g>
</g>
<!-- Node2&#45;&gt;Node1 -->
<g id="edge44_Node000002_Node000001" class="edge">
<title>Node2&#45;&gt;Node1</title>
<g id="a_edge44_Node000002_Node000001"><a xlink:title=" ">
<path fill="none" stroke="#63b8ff" d="M1016.82,-448.26C1018.22,-454.9 1018.86,-464.45 1018.74,-473.74"/>
<polygon fill="#63b8ff" stroke="#63b8ff" points="1015.23,-473.8 1018.27,-483.95 1022.22,-474.12 1015.23,-473.8"/>
</a>
</g>
</g>
<!-- Node3 -->
<g id="Node000003" class="node">
<title>Node3</title>
<g id="a_Node000003"><a xlink:title=" ">
<polygon fill="#e0e0e0" stroke="#999999" points="1454.5,-200.5 1385.5,-200.5 1385.5,-181.5 1454.5,-181.5 1454.5,-200.5"/>
<text text-anchor="middle" x="1420" y="-188.5" font-family="Helvetica,sans-Serif" font-size="10.00">type_traits</text>
</a>
</g>
</g>
<!-- Node2&#45;&gt;Node3 -->
<g id="edge2_Node000002_Node000003" class="edge">
<title>Node2&#45;&gt;Node3</title>
<g id="a_edge2_Node000002_Node000003"><a xlink:title=" ">
<path fill="none" stroke="#63b8ff" d="M1094,-434.37C1227.94,-427.33 1484.33,-405.22 1540,-338 1580.33,-289.3 1491.93,-231.18 1445.76,-205.42"/>
<polygon fill="#63b8ff" stroke="#63b8ff" points="1447.33,-202.29 1436.88,-200.58 1443.98,-208.44 1447.33,-202.29"/>
</a>
</g>
</g>
<!-- Node2&#45;&gt;Node4 -->
<g id="edge3_Node000002_Node000004" class="edge">
<title>Node2&#45;&gt;Node4</title>
<g id="a_edge3_Node000002_Node000004"><a xlink:title=" ">
<path fill="none" stroke="#63b8ff" d="M929.81,-430.17C832.87,-419.31 668.44,-393.86 538,-338 490.4,-317.62 468.91,-316.24 442,-272 431.86,-255.32 429.8,-233.08 430.02,-216.28"/>
<polygon fill="#63b8ff" stroke="#63b8ff" points="433.53,-216.27 430.44,-206.14 426.53,-215.98 433.53,-216.27"/>
</a>
</g>
</g>
<!-- Node16 -->
<g id="Node000016" class="node">
<title>Node16</title>
<g id="a_Node000016"><a xlink:href="traits_8hpp.html" target="_top" xlink:title=" ">
<polygon fill="white" stroke="#666666" points="1068.5,-272 955.5,-272 955.5,-242 1068.5,-242 1068.5,-272"/>
<text text-anchor="start" x="963.5" y="-260" font-family="Helvetica,sans-Serif" font-size="10.00">open62541pp/detail</text>
<text text-anchor="middle" x="1012" y="-249" font-family="Helvetica,sans-Serif" font-size="10.00">/traits.hpp</text>
</a>
</g>
</g>
<!-- Node2&#45;&gt;Node16 -->
<g id="edge19_Node000002_Node000016" class="edge">
<title>Node2&#45;&gt;Node16</title>
<g id="a_edge19_Node000002_Node000016"><a xlink:title=" ">
<path fill="none" stroke="#63b8ff" d="M1012,-428.84C1012,-402.54 1012,-322.9 1012,-282.33"/>
<polygon fill="#63b8ff" stroke="#63b8ff" points="1015.5,-282.22 1012,-272.22 1008.5,-282.22 1015.5,-282.22"/>
</a>
</g>
</g>
<!-- Node17 -->
<g id="Node000017" class="node">
<title>Node17</title>
<g id="a_Node000017"><a xlink:href="typewrapper_8hpp.html" target="_top" xlink:title=" ">
<polygon fill="white" stroke="#666666" points="1240.5,-393 1073.5,-393 1073.5,-374 1240.5,-374 1240.5,-393"/>
<text text-anchor="middle" x="1157" y="-381" font-family="Helvetica,sans-Serif" font-size="10.00">open62541pp/typewrapper.hpp</text>
</a>
</g>
</g>
<!-- Node2&#45;&gt;Node17 -->
<g id="edge21_Node000002_Node000017" class="edge">
<title>Node2&#45;&gt;Node17</title>
<g id="a_edge21_Node000002_Node000017"><a xlink:title=" ">
<path fill="none" stroke="#63b8ff" d="M1035.3,-428.98C1059.25,-420.23 1096.78,-406.51 1123.83,-396.62"/>
<polygon fill="#63b8ff" stroke="#63b8ff" points="1125.09,-399.89 1133.28,-393.17 1122.69,-393.32 1125.09,-399.89"/>
</a>
</g>
</g>
<!-- Node5 -->
<g id="Node000005" class="node">
<title>Node5</title>
<g id="a_Node000005"><a xlink:href="push__options_8h.html" target="_top" xlink:title=" ">
<polygon fill="white" stroke="#666666" points="150,-30 0,-30 0,0 150,0 150,-30"/>
<text text-anchor="start" x="8" y="-18" font-family="Helvetica,sans-Serif" font-size="10.00">open62541pp/detail</text>
<text text-anchor="middle" x="75" y="-7" font-family="Helvetica,sans-Serif" font-size="10.00">/open62541/push_options.h</text>
</a>
</g>
</g>
<!-- Node4&#45;&gt;Node5 -->
<g id="edge4_Node000004_Node000005" class="edge">
<title>Node4&#45;&gt;Node5</title>
<g id="a_edge4_Node000004_Node000005"><a xlink:title=" ">
<path fill="none" stroke="#63b8ff" d="M367.83,-189.51C279.88,-187.39 128.49,-178.14 91,-140 65.34,-113.9 66.54,-68.38 70.35,-40.36"/>
<polygon fill="#63b8ff" stroke="#63b8ff" points="73.85,-40.63 71.95,-30.2 66.94,-39.54 73.85,-40.63"/>
</a>
</g>
</g>
<!-- Node6 -->
<g id="Node000006" class="node">
<title>Node6</title>
<g id="a_Node000006"><a target="_blank" xlink:href="open62541/nodeids_8h.html" xlink:title=" ">
<polygon fill="white" stroke="#666666" points="537.5,-140 416.5,-140 416.5,-121 537.5,-121 537.5,-140"/>
<text text-anchor="middle" x="477" y="-128" font-family="Helvetica,sans-Serif" font-size="10.00">open62541/nodeids.h</text>
</a>
</g>
</g>
<!-- Node4&#45;&gt;Node6 -->
<g id="edge5_Node000004_Node000006" class="edge">
<title>Node4&#45;&gt;Node6</title>
<g id="a_edge5_Node000004_Node000006"><a xlink:title=" ">
<path fill="none" stroke="#63b8ff" d="M442.89,-175.84C449.29,-167.52 457.42,-156.96 464.13,-148.23"/>
<polygon fill="#63b8ff" stroke="#63b8ff" points="466.93,-150.33 470.26,-140.27 461.39,-146.06 466.93,-150.33"/>
</a>
</g>
</g>
<!-- Node7 -->
<g id="Node000007" class="node">
<title>Node7</title>
<g id="a_Node000007"><a target="_blank" xlink:href="open62541/statuscodes_8h.html" xlink:title=" ">
<polygon fill="white" stroke="#666666" points="696.5,-140 555.5,-140 555.5,-121 696.5,-121 696.5,-140"/>
<text text-anchor="middle" x="626" y="-128" font-family="Helvetica,sans-Serif" font-size="10.00">open62541/statuscodes.h</text>
</a>
</g>
</g>
<!-- Node4&#45;&gt;Node7 -->
<g id="edge6_Node000004_Node000007" class="edge">
<title>Node4&#45;&gt;Node7</title>
<g id="a_edge6_Node000004_Node000007"><a xlink:title=" ">
<path fill="none" stroke="#63b8ff" d="M478.47,-175.99C511.95,-165.89 556.57,-152.44 587.94,-142.98"/>
<polygon fill="#63b8ff" stroke="#63b8ff" points="589.07,-146.29 597.63,-140.05 587.05,-139.59 589.07,-146.29"/>
</a>
</g>
</g>
<!-- Node8 -->
<g id="Node000008" class="node">
<title>Node8</title>
<g id="a_Node000008"><a target="_blank" xlink:href="open62541/types_8h.html" xlink:title=" ">
<polygon fill="white" stroke="#666666" points="360,-140 250,-140 250,-121 360,-121 360,-140"/>
<text text-anchor="middle" x="305" y="-128" font-family="Helvetica,sans-Serif" font-size="10.00">open62541/types.h</text>
</a>
</g>
</g>
<!-- Node4&#45;&gt;Node8 -->
<g id="edge7_Node000004_Node000008" class="edge">
<title>Node4&#45;&gt;Node8</title>
<g id="a_edge7_Node000004_Node000008"><a xlink:title=" ">
<path fill="none" stroke="#63b8ff" d="M395.72,-175.99C373.88,-166.49 346.83,-154.02 327.89,-144.69"/>
<polygon fill="#63b8ff" stroke="#63b8ff" points="329.31,-141.49 318.8,-140.14 326.17,-147.75 329.31,-141.49"/>
</a>
</g>
</g>
<!-- Node11 -->
<g id="Node000011" class="node">
<title>Node11</title>
<g id="a_Node000011"><a xlink:href="pop__options_8h.html" target="_top" xlink:title=" ">
<polygon fill="white" stroke="#666666" points="458.5,-30 313.5,-30 313.5,0 458.5,0 458.5,-30"/>
<text text-anchor="start" x="321.5" y="-18" font-family="Helvetica,sans-Serif" font-size="10.00">open62541pp/detail</text>
<text text-anchor="middle" x="386" y="-7" font-family="Helvetica,sans-Serif" font-size="10.00">/open62541/pop_options.h</text>
</a>
</g>
</g>
<!-- Node4&#45;&gt;Node11 -->
<g id="edge18_Node000004_Node000011" class="edge">
<title>Node4&#45;&gt;Node11</title>
<g id="a_edge18_Node000004_Node000011"><a xlink:title=" ">
<path fill="none" stroke="#63b8ff" d="M423.37,-175.61C417.9,-165.87 411.1,-152.55 407,-140 396.02,-106.37 390.52,-65.64 387.97,-40.27"/>
<polygon fill="#63b8ff" stroke="#63b8ff" points="391.44,-39.72 387.02,-30.08 384.47,-40.37 391.44,-39.72"/>
</a>
</g>
</g>
<!-- Node12 -->
<g id="Node000012" class="node">
<title>Node12</title>
<g id="a_Node000012"><a target="_blank" xlink:href="open62541/types__generated_8h.html" xlink:title=" ">
<polygon fill="white" stroke="#666666" points="879,-140 715,-140 715,-121 879,-121 879,-140"/>
<text text-anchor="middle" x="797" y="-128" font-family="Helvetica,sans-Serif" font-size="10.00">open62541/types_generated.h</text>
</a>
</g>
</g>
<!-- Node4&#45;&gt;Node12 -->
<g id="edge13_Node000004_Node000012" class="edge">
<title>Node4&#45;&gt;Node12</title>
<g id="a_edge13_Node000004_Node000012"><a xlink:title=" ">
<path fill="none" stroke="#63b8ff" d="M496.07,-177.57C499.09,-177.03 502.07,-176.5 505,-176 580.48,-163.02 667.28,-150.03 726.5,-141.47"/>
<polygon fill="#63b8ff" stroke="#63b8ff" points="727.09,-144.92 736.49,-140.03 726.1,-137.99 727.09,-144.92"/>
</a>
</g>
</g>
<!-- Node13 -->
<g id="Node000013" class="node">
<title>Node13</title>
<g id="a_Node000013"><a target="_blank" xlink:href="open62541/util_8h.html" xlink:title=" ">
<polygon fill="white" stroke="#666666" points="995,-140 897,-140 897,-121 995,-121 995,-140"/>
<text text-anchor="middle" x="946" y="-128" font-family="Helvetica,sans-Serif" font-size="10.00">open62541/util.h</text>
</a>
</g>
</g>
<!-- Node4&#45;&gt;Node13 -->
<g id="edge14_Node000004_Node000013" class="edge">
<title>Node4&#45;&gt;Node13</title>
<g id="a_edge14_Node000004_Node000013"><a xlink:title=" ">
<path fill="none" stroke="#63b8ff" d="M496.04,-177.36C499.06,-176.88 502.06,-176.42 505,-176 671.04,-152.33 716.53,-160.09 886.91,-140.06"/>
<polygon fill="#63b8ff" stroke="#63b8ff" points="887.46,-143.52 896.98,-138.87 886.63,-136.57 887.46,-143.52"/>
</a>
</g>
</g>
<!-- Node14 -->
<g id="Node000014" class="node">
<title>Node14</title>
<g id="a_Node000014"><a target="_blank" xlink:href="open62541/accesscontrol_8h.html" xlink:title=" ">
<polygon fill="white" stroke="#666666" points="1195,-140 1013,-140 1013,-121 1195,-121 1195,-140"/>
<text text-anchor="middle" x="1104" y="-128" font-family="Helvetica,sans-Serif" font-size="10.00">open62541/plugin/accesscontrol.h</text>
</a>
</g>
</g>
<!-- Node4&#45;&gt;Node14 -->
<g id="edge15_Node000004_Node000014" class="edge">
<title>Node4&#45;&gt;Node14</title>
<g id="a_edge15_Node000004_Node000014"><a xlink:title=" ">
<path fill="none" stroke="#63b8ff" d="M496.03,-177.28C499.05,-176.82 502.06,-176.39 505,-176 722.23,-147.43 780.63,-157.12 1002.96,-140.06"/>
<polygon fill="#63b8ff" stroke="#63b8ff" points="1003.29,-143.55 1012.99,-139.29 1002.74,-136.57 1003.29,-143.55"/>
</a>
</g>
</g>
<!-- Node15 -->
<g id="Node000015" class="node">
<title>Node15</title>
<g id="a_Node000015"><a target="_blank" xlink:href="open62541/log_8h.html" xlink:title=" ">
<polygon fill="white" stroke="#666666" points="231.5,-140 100.5,-140 100.5,-121 231.5,-121 231.5,-140"/>
<text text-anchor="middle" x="166" y="-128" font-family="Helvetica,sans-Serif" font-size="10.00">open62541/plugin/log.h</text>
</a>
</g>
</g>
<!-- Node4&#45;&gt;Node15 -->
<g id="edge16_Node000004_Node000015" class="edge">
<title>Node4&#45;&gt;Node15</title>
<g id="a_edge16_Node000004_Node000015"><a xlink:title=" ">
<path fill="none" stroke="#63b8ff" d="M368.29,-175.99C321.19,-165.63 258.01,-151.73 214.86,-142.25"/>
<polygon fill="#63b8ff" stroke="#63b8ff" points="215.41,-138.78 204.89,-140.05 213.91,-145.62 215.41,-138.78"/>
</a>
</g>
</g>
<!-- Node8&#45;&gt;Node4 -->
<g id="edge12_Node000008_Node000004" class="edge">
<title>Node8&#45;&gt;Node4</title>
<g id="a_edge12_Node000008_Node000004"><a xlink:title=" ">
<path fill="none" stroke="#63b8ff" d="M328.71,-140.14C348.33,-148.36 376.22,-161 398.15,-171.49"/>
<polygon fill="#63b8ff" stroke="#63b8ff" points="396.91,-174.78 407.44,-175.99 399.96,-168.48 396.91,-174.78"/>
</a>
</g>
</g>
<!-- Node9 -->
<g id="Node000009" class="node">
<title>Node9</title>
<g id="a_Node000009"><a xlink:href="config_8h.html" target="_top" xlink:title=" ">
<polygon fill="white" stroke="#666666" points="290,-85 178,-85 178,-66 290,-66 290,-85"/>
<text text-anchor="middle" x="234" y="-73" font-family="Helvetica,sans-Serif" font-size="10.00">open62541/config.h</text>
</a>
</g>
</g>
<!-- Node8&#45;&gt;Node9 -->
<g id="edge8_Node000008_Node000009" class="edge">
<title>Node8&#45;&gt;Node9</title>
<g id="a_edge8_Node000008_Node000009"><a xlink:title=" ">
<path fill="none" stroke="#63b8ff" d="M293.59,-120.98C282.89,-113 266.66,-100.88 253.84,-91.31"/>
<polygon fill="#63b8ff" stroke="#63b8ff" points="255.72,-88.35 245.61,-85.17 251.53,-93.96 255.72,-88.35"/>
</a>
</g>
</g>
<!-- Node9&#45;&gt;Node5 -->
<g id="edge9_Node000009_Node000005" class="edge">
<title>Node9&#45;&gt;Node5</title>
<g id="a_edge9_Node000009_Node000005"><a xlink:title=" ">
<path fill="none" stroke="#63b8ff" d="M210.88,-65.99C187.9,-57.54 151.96,-44.32 122.82,-33.59"/>
<polygon fill="#63b8ff" stroke="#63b8ff" points="123.82,-30.23 113.23,-30.06 121.4,-36.8 123.82,-30.23"/>
</a>
</g>
</g>
<!-- Node10 -->
<g id="Node000010" class="node">
<title>Node10</title>
<g id="a_Node000010"><a xlink:title=" ">
<polygon fill="#e0e0e0" stroke="#999999" points="290,-24.5 178,-24.5 178,-5.5 290,-5.5 290,-24.5"/>
<text text-anchor="middle" x="234" y="-12.5" font-family="Helvetica,sans-Serif" font-size="10.00">open62541/config.h</text>
</a>
</g>
</g>
<!-- Node9&#45;&gt;Node10 -->
<g id="edge10_Node000009_Node000010" class="edge">
<title>Node9&#45;&gt;Node10</title>
<g id="a_edge10_Node000009_Node000010"><a xlink:title=" ">
<path fill="none" stroke="#63b8ff" d="M234,-65.87C234,-57.75 234,-45.31 234,-34.89"/>
<polygon fill="#63b8ff" stroke="#63b8ff" points="237.5,-34.67 234,-24.67 230.5,-34.67 237.5,-34.67"/>
</a>
</g>
</g>
<!-- Node9&#45;&gt;Node11 -->
<g id="edge11_Node000009_Node000011" class="edge">
<title>Node9&#45;&gt;Node11</title>
<g id="a_edge11_Node000009_Node000011"><a xlink:title=" ">
<path fill="none" stroke="#63b8ff" d="M256.1,-65.99C277.98,-57.57 312.13,-44.43 339.92,-33.73"/>
<polygon fill="#63b8ff" stroke="#63b8ff" points="341.38,-36.92 349.46,-30.06 338.87,-30.39 341.38,-36.92"/>
</a>
</g>
</g>
<!-- Node15&#45;&gt;Node9 -->
<g id="edge17_Node000015_Node000009" class="edge">
<title>Node15&#45;&gt;Node9</title>
<g id="a_edge17_Node000015_Node000009"><a xlink:title=" ">
<path fill="none" stroke="#63b8ff" d="M176.93,-120.98C187.08,-113.07 202.42,-101.11 214.65,-91.58"/>
<polygon fill="#63b8ff" stroke="#63b8ff" points="217.14,-94.08 222.88,-85.17 212.84,-88.56 217.14,-94.08"/>
</a>
</g>
</g>
<!-- Node16&#45;&gt;Node3 -->
<g id="edge20_Node000016_Node000003" class="edge">
<title>Node16&#45;&gt;Node3</title>
<g id="a_edge20_Node000016_Node000003"><a xlink:title=" ">
<path fill="none" stroke="#63b8ff" d="M1068.84,-243.7C1071.93,-243.11 1075,-242.54 1078,-242 1184.25,-222.98 1310.04,-206.01 1375.45,-197.59"/>
<polygon fill="#63b8ff" stroke="#63b8ff" points="1375.94,-201.06 1385.42,-196.31 1375.05,-194.11 1375.94,-201.06"/>
</a>
</g>
</g>
<!-- Node17&#45;&gt;Node3 -->
<g id="edge22_Node000017_Node000003" class="edge">
<title>Node17&#45;&gt;Node3</title>
<g id="a_edge22_Node000017_Node000003"><a xlink:title=" ">
<path fill="none" stroke="#63b8ff" d="M1213.71,-373.95C1271.37,-361.98 1358.13,-334.23 1401,-272 1413.57,-253.76 1417.88,-228.23 1419.33,-210.96"/>
<polygon fill="#63b8ff" stroke="#63b8ff" points="1422.85,-210.7 1419.94,-200.51 1415.86,-210.29 1422.85,-210.7"/>
</a>
</g>
</g>
<!-- Node17&#45;&gt;Node4 -->
<g id="edge29_Node000017_Node000004" class="edge">
<title>Node17&#45;&gt;Node4</title>
<g id="a_edge29_Node000017_Node000004"><a xlink:title=" ">
<path fill="none" stroke="#63b8ff" d="M1073.34,-379.77C909.87,-372.76 556.1,-348.9 466,-272 449.3,-257.75 440.6,-233.87 436.2,-215.9"/>
<polygon fill="#63b8ff" stroke="#63b8ff" points="439.62,-215.15 434.08,-206.12 432.78,-216.63 439.62,-215.15"/>
</a>
</g>
</g>
<!-- Node18 -->
<g id="Node000018" class="node">
<title>Node18</title>
<g id="a_Node000018"><a xlink:title=" ">
<polygon fill="#e0e0e0" stroke="#999999" points="1294.5,-332.5 1249.5,-332.5 1249.5,-313.5 1294.5,-313.5 1294.5,-332.5"/>
<text text-anchor="middle" x="1272" y="-320.5" font-family="Helvetica,sans-Serif" font-size="10.00">utility</text>
</a>
</g>
</g>
<!-- Node17&#45;&gt;Node18 -->
<g id="edge23_Node000017_Node000018" class="edge">
<title>Node17&#45;&gt;Node18</title>
<g id="a_edge23_Node000017_Node000018"><a xlink:title=" ">
<path fill="none" stroke="#63b8ff" d="M1173.97,-373.87C1192.91,-364.23 1223.79,-348.53 1245.83,-337.31"/>
<polygon fill="#63b8ff" stroke="#63b8ff" points="1247.64,-340.32 1254.96,-332.67 1244.46,-334.08 1247.64,-340.32"/>
</a>
</g>
</g>
<!-- Node19 -->
<g id="Node000019" class="node">
<title>Node19</title>
<g id="a_Node000019"><a xlink:href="common_8hpp.html" target="_top" xlink:title=" ">
<polygon fill="white" stroke="#666666" points="1231.5,-332.5 1082.5,-332.5 1082.5,-313.5 1231.5,-313.5 1231.5,-332.5"/>
<text text-anchor="middle" x="1157" y="-320.5" font-family="Helvetica,sans-Serif" font-size="10.00">open62541pp/common.hpp</text>
</a>
</g>
</g>
<!-- Node17&#45;&gt;Node19 -->
<g id="edge24_Node000017_Node000019" class="edge">
<title>Node17&#45;&gt;Node19</title>
<g id="a_edge24_Node000017_Node000019"><a xlink:title=" ">
<path fill="none" stroke="#63b8ff" d="M1157,-373.87C1157,-365.75 1157,-353.31 1157,-342.89"/>
<polygon fill="#63b8ff" stroke="#63b8ff" points="1160.5,-342.67 1157,-332.67 1153.5,-342.67 1160.5,-342.67"/>
</a>
</g>
</g>
<!-- Node23 -->
<g id="Node000023" class="node">
<title>Node23</title>
<g id="a_Node000023"><a xlink:href="types__handling_8hpp.html" target="_top" xlink:title=" ">
<polygon fill="white" stroke="#666666" points="854.5,-338 739.5,-338 739.5,-308 854.5,-308 854.5,-338"/>
<text text-anchor="start" x="747.5" y="-326" font-family="Helvetica,sans-Serif" font-size="10.00">open62541pp/detail</text>
<text text-anchor="middle" x="797" y="-315" font-family="Helvetica,sans-Serif" font-size="10.00">/types_handling.hpp</text>
</a>
</g>
</g>
<!-- Node17&#45;&gt;Node23 -->
<g id="edge30_Node000017_Node000023" class="edge">
<title>Node17&#45;&gt;Node23</title>
<g id="a_edge30_Node000017_Node000023"><a xlink:title=" ">
<path fill="none" stroke="#63b8ff" d="M1104.65,-373.99C1041.27,-363.69 934.39,-346.33 864.77,-335.01"/>
<polygon fill="#63b8ff" stroke="#63b8ff" points="865.21,-331.54 854.78,-333.39 864.09,-338.45 865.21,-331.54"/>
</a>
</g>
</g>
<!-- Node31 -->
<g id="Node000031" class="node">
<title>Node31</title>
<g id="a_Node000031"><a xlink:href="wrapper_8hpp.html" target="_top" xlink:title=" ">
<polygon fill="white" stroke="#666666" points="1531,-332.5 1385,-332.5 1385,-313.5 1531,-313.5 1531,-332.5"/>
<text text-anchor="middle" x="1458" y="-320.5" font-family="Helvetica,sans-Serif" font-size="10.00">open62541pp/wrapper.hpp</text>
</a>
</g>
</g>
<!-- Node17&#45;&gt;Node31 -->
<g id="edge42_Node000017_Node000031" class="edge">
<title>Node17&#45;&gt;Node31</title>
<g id="a_edge42_Node000017_Node000031"><a xlink:title=" ">
<path fill="none" stroke="#63b8ff" d="M1200.77,-373.99C1254.6,-363.53 1345.98,-345.77 1404.09,-334.48"/>
<polygon fill="#63b8ff" stroke="#63b8ff" points="1405.03,-337.86 1414.18,-332.52 1403.7,-330.99 1405.03,-337.86"/>
</a>
</g>
</g>
<!-- Node20 -->
<g id="Node000020" class="node">
<title>Node20</title>
<g id="a_Node000020"><a xlink:title=" ">
<polygon fill="#e0e0e0" stroke="#999999" points="1228,-266.5 1178,-266.5 1178,-247.5 1228,-247.5 1228,-266.5"/>
<text text-anchor="middle" x="1203" y="-254.5" font-family="Helvetica,sans-Serif" font-size="10.00">cstdint</text>
</a>
</g>
</g>
<!-- Node19&#45;&gt;Node20 -->
<g id="edge25_Node000019_Node000020" class="edge">
<title>Node19&#45;&gt;Node20</title>
<g id="a_edge25_Node000019_Node000020"><a xlink:title=" ">
<path fill="none" stroke="#63b8ff" d="M1163.2,-313.37C1170.23,-303.59 1181.85,-287.42 1190.73,-275.08"/>
<polygon fill="#63b8ff" stroke="#63b8ff" points="1193.61,-277.07 1196.6,-266.91 1187.92,-272.98 1193.61,-277.07"/>
</a>
</g>
</g>
<!-- Node21 -->
<g id="Node000021" class="node">
<title>Node21</title>
<g id="a_Node000021"><a xlink:title=" ">
<polygon fill="#e0e0e0" stroke="#999999" points="1159.5,-266.5 1086.5,-266.5 1086.5,-247.5 1159.5,-247.5 1159.5,-266.5"/>
<text text-anchor="middle" x="1123" y="-254.5" font-family="Helvetica,sans-Serif" font-size="10.00">string_view</text>
</a>
</g>
</g>
<!-- Node19&#45;&gt;Node21 -->
<g id="edge26_Node000019_Node000021" class="edge">
<title>Node19&#45;&gt;Node21</title>
<g id="a_edge26_Node000019_Node000021"><a xlink:title=" ">
<path fill="none" stroke="#63b8ff" d="M1152.41,-313.37C1147.32,-303.78 1138.96,-288.05 1132.46,-275.8"/>
<polygon fill="#63b8ff" stroke="#63b8ff" points="1135.51,-274.09 1127.73,-266.91 1129.33,-277.38 1135.51,-274.09"/>
</a>
</g>
</g>
<!-- Node22 -->
<g id="Node000022" class="node">
<title>Node22</title>
<g id="a_Node000022"><a xlink:href="bitmask_8hpp.html" target="_top" xlink:title=" ">
<polygon fill="white" stroke="#666666" points="1392,-266.5 1246,-266.5 1246,-247.5 1392,-247.5 1392,-266.5"/>
<text text-anchor="middle" x="1319" y="-254.5" font-family="Helvetica,sans-Serif" font-size="10.00">open62541pp/bitmask.hpp</text>
</a>
</g>
</g>
<!-- Node19&#45;&gt;Node22 -->
<g id="edge27_Node000019_Node000022" class="edge">
<title>Node19&#45;&gt;Node22</title>
<g id="a_edge27_Node000019_Node000022"><a xlink:title=" ">
<path fill="none" stroke="#63b8ff" d="M1178.85,-313.37C1206.95,-302.27 1255.93,-282.92 1287.9,-270.28"/>
<polygon fill="#63b8ff" stroke="#63b8ff" points="1289.23,-273.53 1297.24,-266.6 1286.65,-267.02 1289.23,-273.53"/>
</a>
</g>
</g>
<!-- Node22&#45;&gt;Node3 -->
<g id="edge28_Node000022_Node000003" class="edge">
<title>Node22&#45;&gt;Node3</title>
<g id="a_edge28_Node000022_Node000003"><a xlink:title=" ">
<path fill="none" stroke="#63b8ff" d="M1332.62,-247.37C1349.34,-236.78 1377.91,-218.67 1397.81,-206.06"/>
<polygon fill="#63b8ff" stroke="#63b8ff" points="1399.7,-209.01 1406.27,-200.7 1395.95,-203.1 1399.7,-209.01"/>
</a>
</g>
</g>
<!-- Node23&#45;&gt;Node4 -->
<g id="edge35_Node000023_Node000004" class="edge">
<title>Node23&#45;&gt;Node4</title>
<g id="a_edge35_Node000023_Node000004"><a xlink:title=" ">
<path fill="none" stroke="#63b8ff" d="M739.25,-316.51C666.24,-308.82 545.31,-293.33 506,-272 480.99,-258.43 459.83,-233.19 446.62,-214.68"/>
<polygon fill="#63b8ff" stroke="#63b8ff" points="449.35,-212.47 440.8,-206.22 443.58,-216.44 449.35,-212.47"/>
</a>
</g>
</g>
<!-- Node23&#45;&gt;Node16 -->
<g id="edge36_Node000023_Node000016" class="edge">
<title>Node23&#45;&gt;Node16</title>
<g id="a_edge36_Node000023_Node000016"><a xlink:title=" ">
<path fill="none" stroke="#63b8ff" d="M844.18,-307.95C876.81,-298.24 920.4,-285.27 954.97,-274.98"/>
<polygon fill="#63b8ff" stroke="#63b8ff" points="956.34,-278.22 964.93,-272.01 954.34,-271.51 956.34,-278.22"/>
</a>
</g>
</g>
<!-- Node24 -->
<g id="Node000024" class="node">
<title>Node24</title>
<g id="a_Node000024"><a xlink:title=" ">
<polygon fill="#e0e0e0" stroke="#999999" points="791,-266.5 727,-266.5 727,-247.5 791,-247.5 791,-266.5"/>
<text text-anchor="middle" x="759" y="-254.5" font-family="Helvetica,sans-Serif" font-size="10.00">algorithm</text>
</a>
</g>
</g>
<!-- Node23&#45;&gt;Node24 -->
<g id="edge31_Node000023_Node000024" class="edge">
<title>Node23&#45;&gt;Node24</title>
<g id="a_edge31_Node000023_Node000024"><a xlink:title=" ">
<path fill="none" stroke="#63b8ff" d="M788.57,-307.8C782.93,-298.31 775.48,-285.76 769.47,-275.63"/>
<polygon fill="#63b8ff" stroke="#63b8ff" points="772.37,-273.66 764.25,-266.84 766.35,-277.23 772.37,-273.66"/>
</a>
</g>
</g>
<!-- Node25 -->
<g id="Node000025" class="node">
<title>Node25</title>
<g id="a_Node000025"><a xlink:title=" ">
<polygon fill="#e0e0e0" stroke="#999999" points="861,-266.5 809,-266.5 809,-247.5 861,-247.5 861,-266.5"/>
<text text-anchor="middle" x="835" y="-254.5" font-family="Helvetica,sans-Serif" font-size="10.00">cassert</text>
</a>
</g>
</g>
<!-- Node23&#45;&gt;Node25 -->
<g id="edge32_Node000023_Node000025" class="edge">
<title>Node23&#45;&gt;Node25</title>
<g id="a_edge32_Node000023_Node000025"><a xlink:title=" ">
<path fill="none" stroke="#63b8ff" d="M805.43,-307.8C811.07,-298.31 818.52,-285.76 824.53,-275.63"/>
<polygon fill="#63b8ff" stroke="#63b8ff" points="827.65,-277.23 829.75,-266.84 821.63,-273.66 827.65,-277.23"/>
</a>
</g>
</g>
<!-- Node26 -->
<g id="Node000026" class="node">
<title>Node26</title>
<g id="a_Node000026"><a xlink:title=" ">
<polygon fill="#e0e0e0" stroke="#999999" points="937,-266.5 879,-266.5 879,-247.5 937,-247.5 937,-266.5"/>
<text text-anchor="middle" x="908" y="-254.5" font-family="Helvetica,sans-Serif" font-size="10.00">memory</text>
</a>
</g>
</g>
<!-- Node23&#45;&gt;Node26 -->
<g id="edge33_Node000023_Node000026" class="edge">
<title>Node23&#45;&gt;Node26</title>
<g id="a_edge33_Node000023_Node000026"><a xlink:title=" ">
<path fill="none" stroke="#63b8ff" d="M821.36,-307.95C840.14,-297.13 865.95,-282.24 884.51,-271.54"/>
<polygon fill="#63b8ff" stroke="#63b8ff" points="886.31,-274.54 893.23,-266.52 882.82,-268.48 886.31,-274.54"/>
</a>
</g>
</g>
<!-- Node27 -->
<g id="Node000027" class="node">
<title>Node27</title>
<g id="a_Node000027"><a xlink:title=" ">
<polygon fill="#e0e0e0" stroke="#999999" points="717.5,-200.5 680.5,-200.5 680.5,-181.5 717.5,-181.5 717.5,-200.5"/>
<text text-anchor="middle" x="699" y="-188.5" font-family="Helvetica,sans-Serif" font-size="10.00">new</text>
</a>
</g>
</g>
<!-- Node23&#45;&gt;Node27 -->
<g id="edge34_Node000023_Node000027" class="edge">
<title>Node23&#45;&gt;Node27</title>
<g id="a_edge34_Node000023_Node000027"><a xlink:title=" ">
<path fill="none" stroke="#63b8ff" d="M762.98,-307.88C747.08,-299.63 729.22,-287.72 718,-272 705.01,-253.79 700.8,-227.91 699.49,-210.56"/>
<polygon fill="#63b8ff" stroke="#63b8ff" points="702.99,-210.37 698.99,-200.56 696,-210.72 702.99,-210.37"/>
</a>
</g>
</g>
<!-- Node28 -->
<g id="Node000028" class="node">
<title>Node28</title>
<g id="a_Node000028"><a xlink:href="exception_8hpp.html" target="_top" xlink:title=" ">
<polygon fill="white" stroke="#666666" points="670.5,-266.5 515.5,-266.5 515.5,-247.5 670.5,-247.5 670.5,-266.5"/>
<text text-anchor="middle" x="593" y="-254.5" font-family="Helvetica,sans-Serif" font-size="10.00">open62541pp/exception.hpp</text>
</a>
</g>
</g>
<!-- Node23&#45;&gt;Node28 -->
<g id="edge37_Node000023_Node000028" class="edge">
<title>Node23&#45;&gt;Node28</title>
<g id="a_edge37_Node000023_Node000028"><a xlink:title=" ">
<path fill="none" stroke="#63b8ff" d="M752.23,-307.95C715.51,-296.43 664.16,-280.32 629.8,-269.54"/>
<polygon fill="#63b8ff" stroke="#63b8ff" points="630.74,-266.17 620.15,-266.52 628.64,-272.85 630.74,-266.17"/>
</a>
</g>
</g>
<!-- Node28&#45;&gt;Node4 -->
<g id="edge41_Node000028_Node000004" class="edge">
<title>Node28&#45;&gt;Node4</title>
<g id="a_edge41_Node000028_Node000004"><a xlink:title=" ">
<path fill="none" stroke="#63b8ff" d="M571.29,-247.37C547.28,-237.82 507.93,-222.18 477.17,-209.95"/>
<polygon fill="#63b8ff" stroke="#63b8ff" points="478.1,-206.56 467.51,-206.12 475.51,-213.06 478.1,-206.56"/>
</a>
</g>
</g>
<!-- Node28&#45;&gt;Node27 -->
<g id="edge39_Node000028_Node000027" class="edge">
<title>Node28&#45;&gt;Node27</title>
<g id="a_edge39_Node000028_Node000027"><a xlink:title=" ">
<path fill="none" stroke="#63b8ff" d="M607.3,-247.37C624.92,-236.73 655.09,-218.51 675.99,-205.89"/>
<polygon fill="#63b8ff" stroke="#63b8ff" points="677.84,-208.86 684.59,-200.7 674.22,-202.87 677.84,-208.86"/>
</a>
</g>
</g>
<!-- Node29 -->
<g id="Node000029" class="node">
<title>Node29</title>
<g id="a_Node000029"><a xlink:title=" ">
<polygon fill="#e0e0e0" stroke="#999999" points="579.5,-200.5 514.5,-200.5 514.5,-181.5 579.5,-181.5 579.5,-200.5"/>
<text text-anchor="middle" x="547" y="-188.5" font-family="Helvetica,sans-Serif" font-size="10.00">exception</text>
</a>
</g>
</g>
<!-- Node28&#45;&gt;Node29 -->
<g id="edge38_Node000028_Node000029" class="edge">
<title>Node28&#45;&gt;Node29</title>
<g id="a_edge38_Node000028_Node000029"><a xlink:title=" ">
<path fill="none" stroke="#63b8ff" d="M586.8,-247.37C579.77,-237.59 568.15,-221.42 559.27,-209.08"/>
<polygon fill="#63b8ff" stroke="#63b8ff" points="562.08,-206.98 553.4,-200.91 556.39,-211.07 562.08,-206.98"/>
</a>
</g>
</g>
<!-- Node30 -->
<g id="Node000030" class="node">
<title>Node30</title>
<g id="a_Node000030"><a xlink:title=" ">
<polygon fill="#e0e0e0" stroke="#999999" points="662.5,-200.5 597.5,-200.5 597.5,-181.5 662.5,-181.5 662.5,-200.5"/>
<text text-anchor="middle" x="630" y="-188.5" font-family="Helvetica,sans-Serif" font-size="10.00">stdexcept</text>
</a>
</g>
</g>
<!-- Node28&#45;&gt;Node30 -->
<g id="edge40_Node000028_Node000030" class="edge">
<title>Node28&#45;&gt;Node30</title>
<g id="a_edge40_Node000028_Node000030"><a xlink:title=" ">
<path fill="none" stroke="#63b8ff" d="M597.99,-247.37C603.53,-237.78 612.63,-222.05 619.71,-209.8"/>
<polygon fill="#63b8ff" stroke="#63b8ff" points="622.88,-211.31 624.85,-200.91 616.82,-207.81 622.88,-211.31"/>
</a>
</g>
</g>
<!-- Node31&#45;&gt;Node3 -->
<g id="edge43_Node000031_Node000003" class="edge">
<title>Node31&#45;&gt;Node3</title>
<g id="a_edge43_Node000031_Node000003"><a xlink:title=" ">
<path fill="none" stroke="#63b8ff" d="M1455.51,-313.47C1449.44,-292.73 1433.81,-239.24 1425.46,-210.66"/>
<polygon fill="#63b8ff" stroke="#63b8ff" points="1428.72,-209.35 1422.55,-200.73 1422,-211.31 1428.72,-209.35"/>
</a>
</g>
</g>
</g>
</svg>
