<?xml version="1.0" encoding="UTF-8" standalone="no"?>
<!DOCTYPE svg PUBLIC "-//W3C//DTD SVG 1.1//EN"
 "http://www.w3.org/Graphics/SVG/1.1/DTD/svg11.dtd">
<!-- Generated by graphviz version 2.43.0 (0)
 -->
<!-- Title: /home/runner/work/open62541pp/open62541pp/include/open62541pp/ua/typeregistry.hpp Pages: 1 -->
<svg width="1453pt" height="346pt"
 viewBox="0.00 0.00 1453.00 346.00" xmlns="http://www.w3.org/2000/svg" xmlns:xlink="http://www.w3.org/1999/xlink">
<g id="graph0" class="graph" transform="scale(1 1) rotate(0) translate(4 342)">
<title>/home/runner/work/open62541pp/open62541pp/include/open62541pp/ua/typeregistry.hpp</title>
<!-- Node1 -->
<g id="Node000001" class="node">
<title>Node1</title>
<g id="a_Node000001"><a xlink:title=" ">
<polygon fill="#999999" stroke="#666666" points="1107,-338 914,-338 914,-297 1107,-297 1107,-338"/>
<text text-anchor="start" x="922" y="-326" font-family="Helvetica,sans-Serif" font-size="10.00">/home/runner/work/open62541pp</text>
<text text-anchor="start" x="922" y="-315" font-family="Helvetica,sans-Serif" font-size="10.00">/open62541pp/include/open62541pp</text>
<text text-anchor="middle" x="1010.5" y="-304" font-family="Helvetica,sans-Serif" font-size="10.00">/ua/typeregistry.hpp</text>
</a>
</g>
</g>
<!-- Node2 -->
<g id="Node000002" class="node">
<title>Node2</title>
<g id="a_Node000002"><a xlink:href="common_8h.html" target="_top" xlink:title=" ">
<polygon fill="white" stroke="#666666" points="759.5,-206 631.5,-206 631.5,-176 759.5,-176 759.5,-206"/>
<text text-anchor="start" x="639.5" y="-194" font-family="Helvetica,sans-Serif" font-size="10.00">open62541pp/detail</text>
<text text-anchor="middle" x="695.5" y="-183" font-family="Helvetica,sans-Serif" font-size="10.00">/open62541/common.h</text>
</a>
</g>
</g>
<!-- Node1&#45;&gt;Node2 -->
<g id="edge1_Node000001_Node000002" class="edge">
<title>Node1&#45;&gt;Node2</title>
<g id="a_edge1_Node000001_Node000002"><a xlink:title=" ">
<path fill="none" stroke="#63b8ff" d="M960.93,-296.91C900.37,-272.97 798.79,-232.82 740.42,-209.75"/>
<polygon fill="#63b8ff" stroke="#63b8ff" points="741.68,-206.49 731.09,-206.07 739.1,-213 741.68,-206.49"/>
</a>
</g>
</g>
<!-- Node15 -->
<g id="Node000015" class="node">
<title>Node15</title>
<g id="a_Node000015"><a xlink:href="typeregistry_8hpp.html" target="_top" xlink:title=" ">
<polygon fill="white" stroke="#666666" points="1277.5,-261 1113.5,-261 1113.5,-242 1277.5,-242 1277.5,-261"/>
<text text-anchor="middle" x="1195.5" y="-249" font-family="Helvetica,sans-Serif" font-size="10.00">open62541pp/typeregistry.hpp</text>
</a>
</g>
</g>
<!-- Node1&#45;&gt;Node15 -->
<g id="edge18_Node000001_Node000015" class="edge">
<title>Node1&#45;&gt;Node15</title>
<g id="a_edge18_Node000001_Node000015"><a xlink:title=" ">
<path fill="none" stroke="#63b8ff" d="M1067.01,-296.95C1097.73,-286.32 1134.72,-273.53 1161.11,-264.4"/>
<polygon fill="#63b8ff" stroke="#63b8ff" points="1162.36,-267.67 1170.66,-261.09 1160.07,-261.05 1162.36,-267.67"/>
</a>
</g>
</g>
<!-- Node3 -->
<g id="Node000003" class="node">
<title>Node3</title>
<g id="a_Node000003"><a xlink:title=" ">
<polygon fill="#e0e0e0" stroke="#999999" points="1248.5,-140 1112.5,-140 1112.5,-121 1248.5,-121 1248.5,-140"/>
<text text-anchor="middle" x="1180.5" y="-128" font-family="Helvetica,sans-Serif" font-size="10.00">open62541pp/config.hpp</text>
</a>
</g>
</g>
<!-- Node2&#45;&gt;Node3 -->
<g id="edge2_Node000002_Node000003" class="edge">
<title>Node2&#45;&gt;Node3</title>
<g id="a_edge2_Node000002_Node000003"><a xlink:title=" ">
<path fill="none" stroke="#63b8ff" d="M759.65,-182.26C847.96,-171.61 1006.82,-152.45 1102.08,-140.96"/>
<polygon fill="#63b8ff" stroke="#63b8ff" points="1102.72,-144.41 1112.23,-139.73 1101.88,-137.46 1102.72,-144.41"/>
</a>
</g>
</g>
<!-- Node4 -->
<g id="Node000004" class="node">
<title>Node4</title>
<g id="a_Node000004"><a xlink:href="push__options_8h.html" target="_top" xlink:title=" ">
<polygon fill="white" stroke="#666666" points="1159.5,-30 1009.5,-30 1009.5,0 1159.5,0 1159.5,-30"/>
<text text-anchor="start" x="1017.5" y="-18" font-family="Helvetica,sans-Serif" font-size="10.00">open62541pp/detail</text>
<text text-anchor="middle" x="1084.5" y="-7" font-family="Helvetica,sans-Serif" font-size="10.00">/open62541/push_options.h</text>
</a>
</g>
</g>
<!-- Node2&#45;&gt;Node4 -->
<g id="edge3_Node000002_Node000004" class="edge">
<title>Node2&#45;&gt;Node4</title>
<g id="a_edge3_Node000002_Node000004"><a xlink:title=" ">
<path fill="none" stroke="#63b8ff" d="M759.67,-189.06C900.02,-186.33 1224.44,-176.13 1257.5,-140 1299.73,-93.84 1210.43,-54.5 1145.11,-33.15"/>
<polygon fill="#63b8ff" stroke="#63b8ff" points="1145.85,-29.71 1135.26,-30 1143.72,-36.38 1145.85,-29.71"/>
</a>
</g>
</g>
<!-- Node5 -->
<g id="Node000005" class="node">
<title>Node5</title>
<g id="a_Node000005"><a target="_blank" xlink:href="open62541/nodeids_8h.html" xlink:title=" ">
<polygon fill="white" stroke="#666666" points="121,-140 0,-140 0,-121 121,-121 121,-140"/>
<text text-anchor="middle" x="60.5" y="-128" font-family="Helvetica,sans-Serif" font-size="10.00">open62541/nodeids.h</text>
</a>
</g>
</g>
<!-- Node2&#45;&gt;Node5 -->
<g id="edge4_Node000002_Node000005" class="edge">
<title>Node2&#45;&gt;Node5</title>
<g id="a_edge4_Node000002_Node000005"><a xlink:title=" ">
<path fill="none" stroke="#63b8ff" d="M631.34,-185.06C528.18,-176.95 318.76,-159.83 131.12,-140.14"/>
<polygon fill="#63b8ff" stroke="#63b8ff" points="131.38,-136.65 121.07,-139.08 130.65,-143.61 131.38,-136.65"/>
</a>
</g>
</g>
<!-- Node6 -->
<g id="Node000006" class="node">
<title>Node6</title>
<g id="a_Node000006"><a target="_blank" xlink:href="open62541/statuscodes_8h.html" xlink:title=" ">
<polygon fill="white" stroke="#666666" points="280,-140 139,-140 139,-121 280,-121 280,-140"/>
<text text-anchor="middle" x="209.5" y="-128" font-family="Helvetica,sans-Serif" font-size="10.00">open62541/statuscodes.h</text>
</a>
</g>
</g>
<!-- Node2&#45;&gt;Node6 -->
<g id="edge5_Node000002_Node000006" class="edge">
<title>Node2&#45;&gt;Node6</title>
<g id="a_edge5_Node000002_Node000006"><a xlink:title=" ">
<path fill="none" stroke="#63b8ff" d="M631.46,-182.29C543.71,-171.73 386.09,-152.76 290.31,-141.23"/>
<polygon fill="#63b8ff" stroke="#63b8ff" points="290.73,-137.75 280.38,-140.03 289.89,-144.7 290.73,-137.75"/>
</a>
</g>
</g>
<!-- Node7 -->
<g id="Node000007" class="node">
<title>Node7</title>
<g id="a_Node000007"><a target="_blank" xlink:href="open62541/types_8h.html" xlink:title=" ">
<polygon fill="white" stroke="#666666" points="446.5,-140 336.5,-140 336.5,-121 446.5,-121 446.5,-140"/>
<text text-anchor="middle" x="391.5" y="-128" font-family="Helvetica,sans-Serif" font-size="10.00">open62541/types.h</text>
</a>
</g>
</g>
<!-- Node2&#45;&gt;Node7 -->
<g id="edge6_Node000002_Node000007" class="edge">
<title>Node2&#45;&gt;Node7</title>
<g id="a_edge6_Node000002_Node000007"><a xlink:title=" ">
<path fill="none" stroke="#63b8ff" d="M631.43,-178.72C574.67,-168.14 493.08,-152.43 441.14,-142.08"/>
<polygon fill="#63b8ff" stroke="#63b8ff" points="441.66,-138.61 431.17,-140.08 440.29,-145.48 441.66,-138.61"/>
</a>
</g>
</g>
<!-- Node10 -->
<g id="Node000010" class="node">
<title>Node10</title>
<g id="a_Node000010"><a xlink:href="pop__options_8h.html" target="_top" xlink:title=" ">
<polygon fill="white" stroke="#666666" points="525,-30 380,-30 380,0 525,0 525,-30"/>
<text text-anchor="start" x="388" y="-18" font-family="Helvetica,sans-Serif" font-size="10.00">open62541pp/detail</text>
<text text-anchor="middle" x="452.5" y="-7" font-family="Helvetica,sans-Serif" font-size="10.00">/open62541/pop_options.h</text>
</a>
</g>
</g>
<!-- Node2&#45;&gt;Node10 -->
<g id="edge17_Node000002_Node000010" class="edge">
<title>Node2&#45;&gt;Node10</title>
<g id="a_edge17_Node000002_Node000010"><a xlink:title=" ">
<path fill="none" stroke="#63b8ff" d="M631.48,-190.96C536.74,-190.86 366.2,-184.31 327.5,-140 292.84,-100.31 361.54,-57.84 410.12,-34.34"/>
<polygon fill="#63b8ff" stroke="#63b8ff" points="411.68,-37.47 419.22,-30.04 408.69,-31.14 411.68,-37.47"/>
</a>
</g>
</g>
<!-- Node11 -->
<g id="Node000011" class="node">
<title>Node11</title>
<g id="a_Node000011"><a target="_blank" xlink:href="open62541/types__generated_8h.html" xlink:title=" ">
<polygon fill="white" stroke="#666666" points="628.5,-140 464.5,-140 464.5,-121 628.5,-121 628.5,-140"/>
<text text-anchor="middle" x="546.5" y="-128" font-family="Helvetica,sans-Serif" font-size="10.00">open62541/types_generated.h</text>
</a>
</g>
</g>
<!-- Node2&#45;&gt;Node11 -->
<g id="edge12_Node000002_Node000011" class="edge">
<title>Node2&#45;&gt;Node11</title>
<g id="a_edge12_Node000002_Node000011"><a xlink:title=" ">
<path fill="none" stroke="#63b8ff" d="M659.81,-175.99C634.84,-166.18 601.8,-153.21 577.84,-143.81"/>
<polygon fill="#63b8ff" stroke="#63b8ff" points="579.09,-140.54 568.5,-140.14 576.53,-147.05 579.09,-140.54"/>
</a>
</g>
</g>
<!-- Node12 -->
<g id="Node000012" class="node">
<title>Node12</title>
<g id="a_Node000012"><a target="_blank" xlink:href="open62541/util_8h.html" xlink:title=" ">
<polygon fill="white" stroke="#666666" points="744.5,-140 646.5,-140 646.5,-121 744.5,-121 744.5,-140"/>
<text text-anchor="middle" x="695.5" y="-128" font-family="Helvetica,sans-Serif" font-size="10.00">open62541/util.h</text>
</a>
</g>
</g>
<!-- Node2&#45;&gt;Node12 -->
<g id="edge13_Node000002_Node000012" class="edge">
<title>Node2&#45;&gt;Node12</title>
<g id="a_edge13_Node000002_Node000012"><a xlink:title=" ">
<path fill="none" stroke="#63b8ff" d="M695.5,-175.84C695.5,-168.21 695.5,-158.7 695.5,-150.45"/>
<polygon fill="#63b8ff" stroke="#63b8ff" points="699,-150.27 695.5,-140.27 692,-150.27 699,-150.27"/>
</a>
</g>
</g>
<!-- Node13 -->
<g id="Node000013" class="node">
<title>Node13</title>
<g id="a_Node000013"><a target="_blank" xlink:href="open62541/accesscontrol_8h.html" xlink:title=" ">
<polygon fill="white" stroke="#666666" points="944.5,-140 762.5,-140 762.5,-121 944.5,-121 944.5,-140"/>
<text text-anchor="middle" x="853.5" y="-128" font-family="Helvetica,sans-Serif" font-size="10.00">open62541/plugin/accesscontrol.h</text>
</a>
</g>
</g>
<!-- Node2&#45;&gt;Node13 -->
<g id="edge14_Node000002_Node000013" class="edge">
<title>Node2&#45;&gt;Node13</title>
<g id="a_edge14_Node000002_Node000013"><a xlink:title=" ">
<path fill="none" stroke="#63b8ff" d="M733.34,-175.99C759.94,-166.14 795.17,-153.1 820.6,-143.68"/>
<polygon fill="#63b8ff" stroke="#63b8ff" points="822,-146.89 830.17,-140.14 819.57,-140.33 822,-146.89"/>
</a>
</g>
</g>
<!-- Node14 -->
<g id="Node000014" class="node">
<title>Node14</title>
<g id="a_Node000014"><a target="_blank" xlink:href="open62541/log_8h.html" xlink:title=" ">
<polygon fill="white" stroke="#666666" points="1094,-140 963,-140 963,-121 1094,-121 1094,-140"/>
<text text-anchor="middle" x="1028.5" y="-128" font-family="Helvetica,sans-Serif" font-size="10.00">open62541/plugin/log.h</text>
</a>
</g>
</g>
<!-- Node2&#45;&gt;Node14 -->
<g id="edge15_Node000002_Node000014" class="edge">
<title>Node2&#45;&gt;Node14</title>
<g id="a_edge15_Node000002_Node000014"><a xlink:title=" ">
<path fill="none" stroke="#63b8ff" d="M759.71,-178.72C820.54,-168.03 911.12,-152.12 970,-141.78"/>
<polygon fill="#63b8ff" stroke="#63b8ff" points="970.65,-145.22 979.89,-140.04 969.43,-138.32 970.65,-145.22"/>
</a>
</g>
</g>
<!-- Node7&#45;&gt;Node2 -->
<g id="edge11_Node000007_Node000002" class="edge">
<title>Node7&#45;&gt;Node2</title>
<g id="a_edge11_Node000007_Node000002"><a xlink:title=" ">
<path fill="none" stroke="#63b8ff" d="M440.79,-140.04C489.7,-149.07 565.14,-163.51 621.27,-174.56"/>
<polygon fill="#63b8ff" stroke="#63b8ff" points="620.68,-178.01 631.17,-176.51 622.03,-171.14 620.68,-178.01"/>
</a>
</g>
</g>
<!-- Node8 -->
<g id="Node000008" class="node">
<title>Node8</title>
<g id="a_Node000008"><a xlink:href="config_8h.html" target="_top" xlink:title=" ">
<polygon fill="white" stroke="#666666" points="798.5,-85 686.5,-85 686.5,-66 798.5,-66 798.5,-85"/>
<text text-anchor="middle" x="742.5" y="-73" font-family="Helvetica,sans-Serif" font-size="10.00">open62541/config.h</text>
</a>
</g>
</g>
<!-- Node7&#45;&gt;Node8 -->
<g id="edge7_Node000007_Node000008" class="edge">
<title>Node7&#45;&gt;Node8</title>
<g id="a_edge7_Node000007_Node000008"><a xlink:title=" ">
<path fill="none" stroke="#63b8ff" d="M446.73,-121.16C508.98,-111.76 610.13,-96.49 676.5,-86.47"/>
<polygon fill="#63b8ff" stroke="#63b8ff" points="677.07,-89.92 686.43,-84.97 676.02,-83 677.07,-89.92"/>
</a>
</g>
</g>
<!-- Node8&#45;&gt;Node4 -->
<g id="edge8_Node000008_Node000004" class="edge">
<title>Node8&#45;&gt;Node4</title>
<g id="a_edge8_Node000008_Node000004"><a xlink:title=" ">
<path fill="none" stroke="#63b8ff" d="M792.23,-65.99C846.5,-56.71 934.36,-41.68 999.59,-30.52"/>
<polygon fill="#63b8ff" stroke="#63b8ff" points="1000.19,-33.97 1009.45,-28.84 999.01,-27.07 1000.19,-33.97"/>
</a>
</g>
</g>
<!-- Node9 -->
<g id="Node000009" class="node">
<title>Node9</title>
<g id="a_Node000009"><a xlink:title=" ">
<polygon fill="#e0e0e0" stroke="#999999" points="798.5,-24.5 686.5,-24.5 686.5,-5.5 798.5,-5.5 798.5,-24.5"/>
<text text-anchor="middle" x="742.5" y="-12.5" font-family="Helvetica,sans-Serif" font-size="10.00">open62541/config.h</text>
</a>
</g>
</g>
<!-- Node8&#45;&gt;Node9 -->
<g id="edge9_Node000008_Node000009" class="edge">
<title>Node8&#45;&gt;Node9</title>
<g id="a_edge9_Node000008_Node000009"><a xlink:title=" ">
<path fill="none" stroke="#63b8ff" d="M742.5,-65.87C742.5,-57.75 742.5,-45.31 742.5,-34.89"/>
<polygon fill="#63b8ff" stroke="#63b8ff" points="746,-34.67 742.5,-24.67 739,-34.67 746,-34.67"/>
</a>
</g>
</g>
<!-- Node8&#45;&gt;Node10 -->
<g id="edge10_Node000008_Node000010" class="edge">
<title>Node8&#45;&gt;Node10</title>
<g id="a_edge10_Node000008_Node000010"><a xlink:title=" ">
<path fill="none" stroke="#63b8ff" d="M700.33,-65.99C656.34,-57.12 586.32,-42.99 531.91,-32.02"/>
<polygon fill="#63b8ff" stroke="#63b8ff" points="532.43,-28.55 521.94,-30.01 531.05,-35.42 532.43,-28.55"/>
</a>
</g>
</g>
<!-- Node14&#45;&gt;Node8 -->
<g id="edge16_Node000014_Node000008" class="edge">
<title>Node14&#45;&gt;Node8</title>
<g id="a_edge16_Node000014_Node000008"><a xlink:title=" ">
<path fill="none" stroke="#63b8ff" d="M982.55,-120.98C932.56,-111.72 852.61,-96.9 798.86,-86.94"/>
<polygon fill="#63b8ff" stroke="#63b8ff" points="799.28,-83.46 788.81,-85.08 798.01,-90.35 799.28,-83.46"/>
</a>
</g>
</g>
<!-- Node15&#45;&gt;Node2 -->
<g id="edge20_Node000015_Node000002" class="edge">
<title>Node15&#45;&gt;Node2</title>
<g id="a_edge20_Node000015_Node000002"><a xlink:title=" ">
<path fill="none" stroke="#63b8ff" d="M1122.8,-241.99C1028.46,-230.96 864.72,-211.8 769.67,-200.68"/>
<polygon fill="#63b8ff" stroke="#63b8ff" points="769.9,-197.18 759.56,-199.5 769.09,-204.13 769.9,-197.18"/>
</a>
</g>
</g>
<!-- Node16 -->
<g id="Node000016" class="node">
<title>Node16</title>
<g id="a_Node000016"><a xlink:title=" ">
<polygon fill="#e0e0e0" stroke="#999999" points="1445,-140 1376,-140 1376,-121 1445,-121 1445,-140"/>
<text text-anchor="middle" x="1410.5" y="-128" font-family="Helvetica,sans-Serif" font-size="10.00">type_traits</text>
</a>
</g>
</g>
<!-- Node15&#45;&gt;Node16 -->
<g id="edge19_Node000015_Node000016" class="edge">
<title>Node15&#45;&gt;Node16</title>
<g id="a_edge19_Node000015_Node000016"><a xlink:title=" ">
<path fill="none" stroke="#63b8ff" d="M1268.21,-241.98C1316.41,-234.88 1373.91,-223.13 1391.5,-206 1406.26,-191.62 1410.13,-167.49 1410.87,-150.6"/>
<polygon fill="#63b8ff" stroke="#63b8ff" points="1414.38,-150.31 1410.99,-140.27 1407.38,-150.24 1414.38,-150.31"/>
</a>
</g>
</g>
<!-- Node17 -->
<g id="Node000017" class="node">
<title>Node17</title>
<g id="a_Node000017"><a xlink:href="traits_8hpp.html" target="_top" xlink:title=" ">
<polygon fill="white" stroke="#666666" points="1382,-206 1269,-206 1269,-176 1382,-176 1382,-206"/>
<text text-anchor="start" x="1277" y="-194" font-family="Helvetica,sans-Serif" font-size="10.00">open62541pp/detail</text>
<text text-anchor="middle" x="1325.5" y="-183" font-family="Helvetica,sans-Serif" font-size="10.00">/traits.hpp</text>
</a>
</g>
</g>
<!-- Node15&#45;&gt;Node17 -->
<g id="edge21_Node000015_Node000017" class="edge">
<title>Node15&#45;&gt;Node17</title>
<g id="a_edge21_Node000015_Node000017"><a xlink:title=" ">
<path fill="none" stroke="#63b8ff" d="M1214.4,-241.99C1232.79,-233.72 1261.3,-220.89 1284.84,-210.3"/>
<polygon fill="#63b8ff" stroke="#63b8ff" points="1286.56,-213.36 1294.25,-206.06 1283.69,-206.98 1286.56,-213.36"/>
</a>
</g>
</g>
<!-- Node17&#45;&gt;Node16 -->
<g id="edge23_Node000017_Node000016" class="edge">
<title>Node17&#45;&gt;Node16</title>
<g id="a_edge23_Node000017_Node000016"><a xlink:title=" ">
<path fill="none" stroke="#63b8ff" d="M1346.08,-175.84C1359.17,-166.83 1376.09,-155.18 1389.3,-146.09"/>
<polygon fill="#63b8ff" stroke="#63b8ff" points="1391.51,-148.82 1397.76,-140.27 1387.54,-143.05 1391.51,-148.82"/>
</a>
</g>
</g>
<!-- Node18 -->
<g id="Node000018" class="node">
<title>Node18</title>
<g id="a_Node000018"><a xlink:title=" ">
<polygon fill="#e0e0e0" stroke="#999999" points="1358,-140 1305,-140 1305,-121 1358,-121 1358,-140"/>
<text text-anchor="middle" x="1331.5" y="-128" font-family="Helvetica,sans-Serif" font-size="10.00">iterator</text>
</a>
</g>
</g>
<!-- Node17&#45;&gt;Node18 -->
<g id="edge22_Node000017_Node000018" class="edge">
<title>Node17&#45;&gt;Node18</title>
<g id="a_edge22_Node000017_Node000018"><a xlink:title=" ">
<path fill="none" stroke="#63b8ff" d="M1326.95,-175.84C1327.73,-168.21 1328.71,-158.7 1329.56,-150.45"/>
<polygon fill="#63b8ff" stroke="#63b8ff" points="1333.06,-150.57 1330.6,-140.27 1326.1,-149.86 1333.06,-150.57"/>
</a>
</g>
</g>
</g>
</svg>
