<?xml version="1.0" encoding="UTF-8" standalone="no"?>
<!DOCTYPE svg PUBLIC "-//W3C//DTD SVG 1.1//EN"
 "http://www.w3.org/Graphics/SVG/1.1/DTD/svg11.dtd">
<!-- Generated by graphviz version 2.43.0 (0)
 -->
<!-- Title: /home/runner/work/open62541pp/open62541pp/include/open62541pp/ua/typeregistry.hpp Pages: 1 -->
<svg width="1919pt" height="599pt"
 viewBox="0.00 0.00 1918.79 599.00" xmlns="http://www.w3.org/2000/svg" xmlns:xlink="http://www.w3.org/1999/xlink">
<g id="graph0" class="graph" transform="scale(1 1) rotate(0) translate(4 595)">
<title>/home/runner/work/open62541pp/open62541pp/include/open62541pp/ua/typeregistry.hpp</title>
<!-- Node1 -->
<g id="Node000001" class="node">
<title>Node1</title>
<g id="a_Node000001"><a xlink:title=" ">
<polygon fill="#999999" stroke="#666666" points="1055.79,-591 862.79,-591 862.79,-550 1055.79,-550 1055.79,-591"/>
<text text-anchor="start" x="870.79" y="-579" font-family="Helvetica,sans-Serif" font-size="10.00">/home/runner/work/open62541pp</text>
<text text-anchor="start" x="870.79" y="-568" font-family="Helvetica,sans-Serif" font-size="10.00">/open62541pp/include/open62541pp</text>
<text text-anchor="middle" x="959.29" y="-557" font-family="Helvetica,sans-Serif" font-size="10.00">/ua/typeregistry.hpp</text>
</a>
</g>
</g>
<!-- Node2 -->
<g id="Node000002" class="node">
<title>Node2</title>
<g id="a_Node000002"><a xlink:href="ua_2types_8hpp.html" target="_top" xlink:title=" ">
<polygon fill="white" stroke="#666666" points="993.79,-514 800.79,-514 800.79,-473 993.79,-473 993.79,-514"/>
<text text-anchor="start" x="808.79" y="-502" font-family="Helvetica,sans-Serif" font-size="10.00">/home/runner/work/open62541pp</text>
<text text-anchor="start" x="808.79" y="-491" font-family="Helvetica,sans-Serif" font-size="10.00">/open62541pp/include/open62541pp</text>
<text text-anchor="middle" x="897.29" y="-480" font-family="Helvetica,sans-Serif" font-size="10.00">/ua/types.hpp</text>
</a>
</g>
</g>
<!-- Node1&#45;&gt;Node2 -->
<g id="edge1_Node000001_Node000002" class="edge">
<title>Node1&#45;&gt;Node2</title>
<g id="a_edge1_Node000001_Node000002"><a xlink:title=" ">
<path fill="none" stroke="#63b8ff" d="M936.52,-541.95C928.87,-532.7 920.51,-522.58 913.47,-514.07"/>
<polygon fill="#63b8ff" stroke="#63b8ff" points="933.93,-544.32 943,-549.79 939.33,-539.86 933.93,-544.32"/>
</a>
</g>
</g>
<!-- Node24 -->
<g id="Node000024" class="node">
<title>Node24</title>
<g id="a_Node000024"><a xlink:href="ua_8hpp.html" target="_top" xlink:title=" ">
<polygon fill="white" stroke="#666666" points="1910.79,-431.5 1717.79,-431.5 1717.79,-390.5 1910.79,-390.5 1910.79,-431.5"/>
<text text-anchor="start" x="1725.79" y="-419.5" font-family="Helvetica,sans-Serif" font-size="10.00">/home/runner/work/open62541pp</text>
<text text-anchor="start" x="1725.79" y="-408.5" font-family="Helvetica,sans-Serif" font-size="10.00">/open62541pp/include/open62541pp</text>
<text text-anchor="middle" x="1814.29" y="-397.5" font-family="Helvetica,sans-Serif" font-size="10.00">/ua/ua.hpp</text>
</a>
</g>
</g>
<!-- Node1&#45;&gt;Node24 -->
<g id="edge60_Node000001_Node000024" class="edge">
<title>Node1&#45;&gt;Node24</title>
<g id="a_edge60_Node000001_Node000024"><a xlink:title=" ">
<path fill="none" stroke="#63b8ff" d="M1066.08,-552.05C1210.83,-528.03 1477.22,-482.57 1703.29,-437 1711.81,-435.28 1720.68,-433.42 1729.53,-431.51"/>
<polygon fill="#63b8ff" stroke="#63b8ff" points="1065.16,-548.65 1055.87,-553.74 1066.3,-555.56 1065.16,-548.65"/>
</a>
</g>
</g>
<!-- Node3 -->
<g id="Node000003" class="node">
<title>Node3</title>
<g id="a_Node000003"><a xlink:href="client_8hpp.html" target="_top" xlink:title=" ">
<polygon fill="white" stroke="#666666" points="496.79,-118 303.79,-118 303.79,-77 496.79,-77 496.79,-118"/>
<text text-anchor="start" x="311.79" y="-106" font-family="Helvetica,sans-Serif" font-size="10.00">/home/runner/work/open62541pp</text>
<text text-anchor="start" x="311.79" y="-95" font-family="Helvetica,sans-Serif" font-size="10.00">/open62541pp/include/open62541pp</text>
<text text-anchor="middle" x="400.29" y="-84" font-family="Helvetica,sans-Serif" font-size="10.00">/client.hpp</text>
</a>
</g>
</g>
<!-- Node2&#45;&gt;Node3 -->
<g id="edge2_Node000002_Node000003" class="edge">
<title>Node2&#45;&gt;Node3</title>
<g id="a_edge2_Node000002_Node000003"><a xlink:title=" ">
<path fill="none" stroke="#63b8ff" d="M790.33,-492.23C572.63,-490.74 93.63,-482.29 35.29,-437 -4.4,-406.19 0.29,-379.75 0.29,-329.5 0.29,-329.5 0.29,-329.5 0.29,-250.5 0.29,-185.82 185.35,-138.81 303.72,-115.35"/>
<polygon fill="#63b8ff" stroke="#63b8ff" points="790.47,-495.73 800.5,-492.3 790.52,-488.73 790.47,-495.73"/>
</a>
</g>
</g>
<!-- Node5 -->
<g id="Node000005" class="node">
<title>Node5</title>
<g id="a_Node000005"><a xlink:href="client__context_8hpp.html" target="_top" xlink:title=" ">
<polygon fill="white" stroke="#666666" points="508.79,-349 315.79,-349 315.79,-308 508.79,-308 508.79,-349"/>
<text text-anchor="start" x="323.79" y="-337" font-family="Helvetica,sans-Serif" font-size="10.00">/home/runner/work/open62541pp</text>
<text text-anchor="start" x="323.79" y="-326" font-family="Helvetica,sans-Serif" font-size="10.00">/open62541pp/include/open62541pp</text>
<text text-anchor="middle" x="412.29" y="-315" font-family="Helvetica,sans-Serif" font-size="10.00">/detail/client_context.hpp</text>
</a>
</g>
</g>
<!-- Node2&#45;&gt;Node5 -->
<g id="edge4_Node000002_Node000005" class="edge">
<title>Node2&#45;&gt;Node5</title>
<g id="a_edge4_Node000002_Node000005"><a xlink:title=" ">
<path fill="none" stroke="#63b8ff" d="M790.56,-473.8C746,-464.69 694.07,-452.35 648.29,-437 595.5,-419.29 584.97,-408.09 534.29,-385 508.04,-373.04 478.59,-359.64 455.21,-349.01"/>
<polygon fill="#63b8ff" stroke="#63b8ff" points="790.04,-477.27 800.53,-475.82 791.42,-470.41 790.04,-477.27"/>
</a>
</g>
</g>
<!-- Node6 -->
<g id="Node000006" class="node">
<title>Node6</title>
<g id="a_Node000006"><a xlink:href="server__context_8hpp.html" target="_top" xlink:title=" ">
<polygon fill="white" stroke="#666666" points="297.79,-349 104.79,-349 104.79,-308 297.79,-308 297.79,-349"/>
<text text-anchor="start" x="112.79" y="-337" font-family="Helvetica,sans-Serif" font-size="10.00">/home/runner/work/open62541pp</text>
<text text-anchor="start" x="112.79" y="-326" font-family="Helvetica,sans-Serif" font-size="10.00">/open62541pp/include/open62541pp</text>
<text text-anchor="middle" x="201.29" y="-315" font-family="Helvetica,sans-Serif" font-size="10.00">/detail/server_context.hpp</text>
</a>
</g>
</g>
<!-- Node2&#45;&gt;Node6 -->
<g id="edge5_Node000002_Node000006" class="edge">
<title>Node2&#45;&gt;Node6</title>
<g id="a_edge5_Node000002_Node000006"><a xlink:title=" ">
<path fill="none" stroke="#63b8ff" d="M790.56,-489.99C648.2,-485.31 404.63,-472.29 323.29,-437 277.97,-417.34 237.6,-374.32 216.59,-349.07"/>
<polygon fill="#63b8ff" stroke="#63b8ff" points="790.53,-493.49 800.64,-490.31 790.75,-486.5 790.53,-493.49"/>
</a>
</g>
</g>
<!-- Node7 -->
<g id="Node000007" class="node">
<title>Node7</title>
<g id="a_Node000007"><a xlink:href="monitoreditem_8hpp.html" target="_top" xlink:title=" ">
<polygon fill="white" stroke="#666666" points="221.79,-272 28.79,-272 28.79,-231 221.79,-231 221.79,-272"/>
<text text-anchor="start" x="36.79" y="-260" font-family="Helvetica,sans-Serif" font-size="10.00">/home/runner/work/open62541pp</text>
<text text-anchor="start" x="36.79" y="-249" font-family="Helvetica,sans-Serif" font-size="10.00">/open62541pp/include/open62541pp</text>
<text text-anchor="middle" x="125.29" y="-238" font-family="Helvetica,sans-Serif" font-size="10.00">/monitoreditem.hpp</text>
</a>
</g>
</g>
<!-- Node2&#45;&gt;Node7 -->
<g id="edge6_Node000002_Node000007" class="edge">
<title>Node2&#45;&gt;Node7</title>
<g id="a_edge6_Node000002_Node000007"><a xlink:title=" ">
<path fill="none" stroke="#63b8ff" d="M790.46,-493.35C576.37,-493.92 111.03,-489.08 62.29,-437 23.12,-395.14 38.69,-360.25 62.29,-308 68.83,-293.52 81.23,-281.31 93.3,-272.06"/>
<polygon fill="#63b8ff" stroke="#63b8ff" points="790.47,-496.85 800.46,-493.31 790.45,-489.85 790.47,-496.85"/>
</a>
</g>
</g>
<!-- Node8 -->
<g id="Node000008" class="node">
<title>Node8</title>
<g id="a_Node000008"><a xlink:href="subscription_8hpp.html" target="_top" xlink:title=" ">
<polygon fill="white" stroke="#666666" points="621.79,-195 428.79,-195 428.79,-154 621.79,-154 621.79,-195"/>
<text text-anchor="start" x="436.79" y="-183" font-family="Helvetica,sans-Serif" font-size="10.00">/home/runner/work/open62541pp</text>
<text text-anchor="start" x="436.79" y="-172" font-family="Helvetica,sans-Serif" font-size="10.00">/open62541pp/include/open62541pp</text>
<text text-anchor="middle" x="525.29" y="-161" font-family="Helvetica,sans-Serif" font-size="10.00">/subscription.hpp</text>
</a>
</g>
</g>
<!-- Node2&#45;&gt;Node8 -->
<g id="edge57_Node000002_Node000008" class="edge">
<title>Node2&#45;&gt;Node8</title>
<g id="a_edge57_Node000002_Node000008"><a xlink:title=" ">
<path fill="none" stroke="#63b8ff" d="M790.58,-488.98C633.1,-482.84 346.5,-467.77 248.29,-437 173.44,-413.55 134.57,-416.9 95.29,-349 86.17,-333.23 84.19,-322.45 95.29,-308 133.12,-258.76 170.76,-289.66 230.29,-272 313.85,-247.21 409.59,-215.22 468.76,-195.03"/>
<polygon fill="#63b8ff" stroke="#63b8ff" points="790.64,-492.49 800.77,-489.37 790.91,-485.49 790.64,-492.49"/>
</a>
</g>
</g>
<!-- Node10 -->
<g id="Node000010" class="node">
<title>Node10</title>
<g id="a_Node000010"><a xlink:href="node_8hpp.html" target="_top" xlink:title=" ">
<polygon fill="white" stroke="#666666" points="1426.79,-195 1233.79,-195 1233.79,-154 1426.79,-154 1426.79,-195"/>
<text text-anchor="start" x="1241.79" y="-183" font-family="Helvetica,sans-Serif" font-size="10.00">/home/runner/work/open62541pp</text>
<text text-anchor="start" x="1241.79" y="-172" font-family="Helvetica,sans-Serif" font-size="10.00">/open62541pp/include/open62541pp</text>
<text text-anchor="middle" x="1330.29" y="-161" font-family="Helvetica,sans-Serif" font-size="10.00">/node.hpp</text>
</a>
</g>
</g>
<!-- Node2&#45;&gt;Node10 -->
<g id="edge13_Node000002_Node000010" class="edge">
<title>Node2&#45;&gt;Node10</title>
<g id="a_edge13_Node000002_Node000010"><a xlink:title=" ">
<path fill="none" stroke="#63b8ff" d="M1004.38,-491.73C1106.01,-488.38 1262,-476.43 1391.29,-437 1472.29,-412.3 1485.34,-388.41 1560.29,-349 1624.88,-315.04 1667.7,-334.54 1705.29,-272 1714.68,-256.38 1717.2,-244.8 1705.29,-231 1670.04,-190.14 1526.05,-178.86 1427.12,-176.02"/>
<polygon fill="#63b8ff" stroke="#63b8ff" points="1003.99,-488.24 994.1,-492.04 1004.2,-495.23 1003.99,-488.24"/>
</a>
</g>
</g>
<!-- Node11 -->
<g id="Node000011" class="node">
<title>Node11</title>
<g id="a_Node000011"><a xlink:href="accesscontrol_8hpp.html" target="_top" xlink:title=" ">
<polygon fill="white" stroke="#666666" points="852.79,-195 659.79,-195 659.79,-154 852.79,-154 852.79,-195"/>
<text text-anchor="start" x="667.79" y="-183" font-family="Helvetica,sans-Serif" font-size="10.00">/home/runner/work/open62541pp</text>
<text text-anchor="start" x="667.79" y="-172" font-family="Helvetica,sans-Serif" font-size="10.00">/open62541pp/include/open62541pp</text>
<text text-anchor="middle" x="756.29" y="-161" font-family="Helvetica,sans-Serif" font-size="10.00">/plugin/accesscontrol.hpp</text>
</a>
</g>
</g>
<!-- Node2&#45;&gt;Node11 -->
<g id="edge15_Node000002_Node000011" class="edge">
<title>Node2&#45;&gt;Node11</title>
<g id="a_edge15_Node000002_Node000011"><a xlink:title=" ">
<path fill="none" stroke="#63b8ff" d="M790.88,-478.89C766.89,-470.62 744.15,-457.55 729.29,-437 715.19,-417.49 742.68,-252.49 752.78,-195.09"/>
<polygon fill="#63b8ff" stroke="#63b8ff" points="789.9,-482.25 800.49,-481.94 792.02,-475.58 789.9,-482.25"/>
</a>
</g>
</g>
<!-- Node13 -->
<g id="Node000013" class="node">
<title>Node13</title>
<g id="a_Node000013"><a xlink:href="attribute_8hpp.html" target="_top" xlink:title=" ">
<polygon fill="white" stroke="#666666" points="1551.79,-349 1358.79,-349 1358.79,-308 1551.79,-308 1551.79,-349"/>
<text text-anchor="start" x="1366.79" y="-337" font-family="Helvetica,sans-Serif" font-size="10.00">/home/runner/work/open62541pp</text>
<text text-anchor="start" x="1366.79" y="-326" font-family="Helvetica,sans-Serif" font-size="10.00">/open62541pp/include/open62541pp</text>
<text text-anchor="middle" x="1455.29" y="-315" font-family="Helvetica,sans-Serif" font-size="10.00">/services/attribute.hpp</text>
</a>
</g>
</g>
<!-- Node2&#45;&gt;Node13 -->
<g id="edge20_Node000002_Node000013" class="edge">
<title>Node2&#45;&gt;Node13</title>
<g id="a_edge20_Node000002_Node000013"><a xlink:title=" ">
<path fill="none" stroke="#63b8ff" d="M1003.99,-487.04C1116.69,-479.91 1286.01,-464.9 1344.29,-437 1386.4,-416.85 1422.54,-374.43 1441.38,-349.32"/>
<polygon fill="#63b8ff" stroke="#63b8ff" points="1003.71,-483.55 993.94,-487.66 1004.14,-490.54 1003.71,-483.55"/>
</a>
</g>
</g>
<!-- Node16 -->
<g id="Node000016" class="node">
<title>Node16</title>
<g id="a_Node000016"><a xlink:href="monitoreditem__context_8hpp.html" target="_top" xlink:title=" ">
<polygon fill="white" stroke="#666666" points="525.79,-437 332.79,-437 332.79,-385 525.79,-385 525.79,-437"/>
<text text-anchor="start" x="340.79" y="-425" font-family="Helvetica,sans-Serif" font-size="10.00">/home/runner/work/open62541pp</text>
<text text-anchor="start" x="340.79" y="-414" font-family="Helvetica,sans-Serif" font-size="10.00">/open62541pp/include/open62541pp</text>
<text text-anchor="start" x="340.79" y="-403" font-family="Helvetica,sans-Serif" font-size="10.00">/services/detail/monitoreditem</text>
<text text-anchor="middle" x="429.29" y="-392" font-family="Helvetica,sans-Serif" font-size="10.00">_context.hpp</text>
</a>
</g>
</g>
<!-- Node2&#45;&gt;Node16 -->
<g id="edge27_Node000002_Node000016" class="edge">
<title>Node2&#45;&gt;Node16</title>
<g id="a_edge27_Node000002_Node000016"><a xlink:title=" ">
<path fill="none" stroke="#63b8ff" d="M790.55,-474.14C710.89,-460.44 602.95,-441.87 525.85,-428.61"/>
<polygon fill="#63b8ff" stroke="#63b8ff" points="790.16,-477.62 800.61,-475.87 791.35,-470.72 790.16,-477.62"/>
</a>
</g>
</g>
<!-- Node17 -->
<g id="Node000017" class="node">
<title>Node17</title>
<g id="a_Node000017"><a xlink:href="services_2monitoreditem_8hpp.html" target="_top" xlink:title=" ">
<polygon fill="white" stroke="#666666" points="719.79,-349 526.79,-349 526.79,-308 719.79,-308 719.79,-349"/>
<text text-anchor="start" x="534.79" y="-337" font-family="Helvetica,sans-Serif" font-size="10.00">/home/runner/work/open62541pp</text>
<text text-anchor="start" x="534.79" y="-326" font-family="Helvetica,sans-Serif" font-size="10.00">/open62541pp/include/open62541pp</text>
<text text-anchor="middle" x="623.29" y="-315" font-family="Helvetica,sans-Serif" font-size="10.00">/services/monitoreditem.hpp</text>
</a>
</g>
</g>
<!-- Node2&#45;&gt;Node17 -->
<g id="edge53_Node000002_Node000017" class="edge">
<title>Node2&#45;&gt;Node17</title>
<g id="a_edge53_Node000002_Node000017"><a xlink:title=" ">
<path fill="none" stroke="#63b8ff" d="M790.71,-477.71C758.25,-469.52 723.89,-456.78 696.29,-437 664.75,-414.4 642.64,-373.64 631.53,-349.33"/>
<polygon fill="#63b8ff" stroke="#63b8ff" points="790.17,-481.18 800.71,-480.12 791.81,-474.38 790.17,-481.18"/>
</a>
</g>
</g>
<!-- Node18 -->
<g id="Node000018" class="node">
<title>Node18</title>
<g id="a_Node000018"><a xlink:href="request__handling_8hpp.html" target="_top" xlink:title=" ">
<polygon fill="white" stroke="#666666" points="1225.79,-431.5 1026.79,-431.5 1026.79,-390.5 1225.79,-390.5 1225.79,-431.5"/>
<text text-anchor="start" x="1034.79" y="-419.5" font-family="Helvetica,sans-Serif" font-size="10.00">/home/runner/work/open62541pp</text>
<text text-anchor="start" x="1034.79" y="-408.5" font-family="Helvetica,sans-Serif" font-size="10.00">/open62541pp/include/open62541pp</text>
<text text-anchor="middle" x="1126.29" y="-397.5" font-family="Helvetica,sans-Serif" font-size="10.00">/services/detail/request_handling.hpp</text>
</a>
</g>
</g>
<!-- Node2&#45;&gt;Node18 -->
<g id="edge34_Node000002_Node000018" class="edge">
<title>Node2&#45;&gt;Node18</title>
<g id="a_edge34_Node000002_Node000018"><a xlink:title=" ">
<path fill="none" stroke="#63b8ff" d="M962.45,-469.59C996.63,-457.58 1038.07,-443.01 1070.71,-431.54"/>
<polygon fill="#63b8ff" stroke="#63b8ff" points="961.29,-466.29 953.02,-472.91 963.61,-472.9 961.29,-466.29"/>
</a>
</g>
</g>
<!-- Node19 -->
<g id="Node000019" class="node">
<title>Node19</title>
<g id="a_Node000019"><a xlink:href="method_8hpp.html" target="_top" xlink:title=" ">
<polygon fill="white" stroke="#666666" points="1215.79,-272 1022.79,-272 1022.79,-231 1215.79,-231 1215.79,-272"/>
<text text-anchor="start" x="1030.79" y="-260" font-family="Helvetica,sans-Serif" font-size="10.00">/home/runner/work/open62541pp</text>
<text text-anchor="start" x="1030.79" y="-249" font-family="Helvetica,sans-Serif" font-size="10.00">/open62541pp/include/open62541pp</text>
<text text-anchor="middle" x="1119.29" y="-238" font-family="Helvetica,sans-Serif" font-size="10.00">/services/method.hpp</text>
</a>
</g>
</g>
<!-- Node2&#45;&gt;Node19 -->
<g id="edge52_Node000002_Node000019" class="edge">
<title>Node2&#45;&gt;Node19</title>
<g id="a_edge52_Node000002_Node000019"><a xlink:title=" ">
<path fill="none" stroke="#63b8ff" d="M1004.14,-489.5C1091.46,-484.52 1205.09,-471.41 1234.29,-437 1280.7,-382.33 1194.87,-307.18 1147.54,-272.06"/>
<polygon fill="#63b8ff" stroke="#63b8ff" points="1003.69,-486.01 993.89,-490.05 1004.07,-493 1003.69,-486.01"/>
</a>
</g>
</g>
<!-- Node20 -->
<g id="Node000020" class="node">
<title>Node20</title>
<g id="a_Node000020"><a xlink:href="nodemanagement_8hpp.html" target="_top" xlink:title=" ">
<polygon fill="white" stroke="#666666" points="1426.79,-272 1233.79,-272 1233.79,-231 1426.79,-231 1426.79,-272"/>
<text text-anchor="start" x="1241.79" y="-260" font-family="Helvetica,sans-Serif" font-size="10.00">/home/runner/work/open62541pp</text>
<text text-anchor="start" x="1241.79" y="-249" font-family="Helvetica,sans-Serif" font-size="10.00">/open62541pp/include/open62541pp</text>
<text text-anchor="middle" x="1330.29" y="-238" font-family="Helvetica,sans-Serif" font-size="10.00">/services/nodemanagement.hpp</text>
</a>
</g>
</g>
<!-- Node2&#45;&gt;Node20 -->
<g id="edge54_Node000002_Node000020" class="edge">
<title>Node2&#45;&gt;Node20</title>
<g id="a_edge54_Node000002_Node000020"><a xlink:title=" ">
<path fill="none" stroke="#63b8ff" d="M1004.03,-487.43C1095.13,-481.07 1217.26,-467.09 1255.29,-437 1308.04,-395.28 1323.93,-310.45 1328.52,-272.1"/>
<polygon fill="#63b8ff" stroke="#63b8ff" points="1003.66,-483.94 993.92,-488.11 1004.13,-490.93 1003.66,-483.94"/>
</a>
</g>
</g>
<!-- Node21 -->
<g id="Node000021" class="node">
<title>Node21</title>
<g id="a_Node000021"><a xlink:href="services_2subscription_8hpp.html" target="_top" xlink:title=" ">
<polygon fill="white" stroke="#666666" points="969.79,-349 776.79,-349 776.79,-308 969.79,-308 969.79,-349"/>
<text text-anchor="start" x="784.79" y="-337" font-family="Helvetica,sans-Serif" font-size="10.00">/home/runner/work/open62541pp</text>
<text text-anchor="start" x="784.79" y="-326" font-family="Helvetica,sans-Serif" font-size="10.00">/open62541pp/include/open62541pp</text>
<text text-anchor="middle" x="873.29" y="-315" font-family="Helvetica,sans-Serif" font-size="10.00">/services/subscription.hpp</text>
</a>
</g>
</g>
<!-- Node2&#45;&gt;Node21 -->
<g id="edge55_Node000002_Node000021" class="edge">
<title>Node2&#45;&gt;Node21</title>
<g id="a_edge55_Node000002_Node000021"><a xlink:title=" ">
<path fill="none" stroke="#63b8ff" d="M924.28,-464.99C930.8,-456.66 936.86,-447.03 940.29,-437 947.77,-415.13 950.13,-405.91 940.29,-385 933.42,-370.37 920.58,-358.28 907.97,-349.15"/>
<polygon fill="#63b8ff" stroke="#63b8ff" points="921.43,-462.95 917.7,-472.86 926.8,-467.44 921.43,-462.95"/>
</a>
</g>
</g>
<!-- Node22 -->
<g id="Node000022" class="node">
<title>Node22</title>
<g id="a_Node000022"><a xlink:href="view_8hpp.html" target="_top" xlink:title=" ">
<polygon fill="white" stroke="#666666" points="1004.79,-272 811.79,-272 811.79,-231 1004.79,-231 1004.79,-272"/>
<text text-anchor="start" x="819.79" y="-260" font-family="Helvetica,sans-Serif" font-size="10.00">/home/runner/work/open62541pp</text>
<text text-anchor="start" x="819.79" y="-249" font-family="Helvetica,sans-Serif" font-size="10.00">/open62541pp/include/open62541pp</text>
<text text-anchor="middle" x="908.29" y="-238" font-family="Helvetica,sans-Serif" font-size="10.00">/services/view.hpp</text>
</a>
</g>
</g>
<!-- Node2&#45;&gt;Node22 -->
<g id="edge56_Node000002_Node000022" class="edge">
<title>Node2&#45;&gt;Node22</title>
<g id="a_edge56_Node000002_Node000022"><a xlink:title=" ">
<path fill="none" stroke="#63b8ff" d="M933.33,-466.31C942.69,-457.91 951.92,-447.92 958.29,-437 978.5,-402.35 973.82,-388.86 978.29,-349 980.32,-330.89 986.22,-324.41 978.29,-308 971.14,-293.2 957.91,-281.14 944.86,-272.09"/>
<polygon fill="#63b8ff" stroke="#63b8ff" points="930.85,-463.83 925.5,-472.98 935.38,-469.16 930.85,-463.83"/>
</a>
</g>
</g>
<!-- Node23 -->
<g id="Node000023" class="node">
<title>Node23</title>
<g id="a_Node000023"><a xlink:href="subscription__context_8hpp.html" target="_top" xlink:title=" ">
<polygon fill="white" stroke="#666666" points="931.79,-437 738.79,-437 738.79,-385 931.79,-385 931.79,-437"/>
<text text-anchor="start" x="746.79" y="-425" font-family="Helvetica,sans-Serif" font-size="10.00">/home/runner/work/open62541pp</text>
<text text-anchor="start" x="746.79" y="-414" font-family="Helvetica,sans-Serif" font-size="10.00">/open62541pp/include/open62541pp</text>
<text text-anchor="start" x="746.79" y="-403" font-family="Helvetica,sans-Serif" font-size="10.00">/services/detail/subscription</text>
<text text-anchor="middle" x="835.29" y="-392" font-family="Helvetica,sans-Serif" font-size="10.00">_context.hpp</text>
</a>
</g>
</g>
<!-- Node2&#45;&gt;Node23 -->
<g id="edge49_Node000002_Node000023" class="edge">
<title>Node2&#45;&gt;Node23</title>
<g id="a_edge49_Node000002_Node000023"><a xlink:title=" ">
<path fill="none" stroke="#63b8ff" d="M875.67,-464.43C868.84,-455.55 861.33,-445.81 854.67,-437.16"/>
<polygon fill="#63b8ff" stroke="#63b8ff" points="873.09,-466.81 881.97,-472.6 878.64,-462.54 873.09,-466.81"/>
</a>
</g>
</g>
<!-- Node2&#45;&gt;Node24 -->
<g id="edge58_Node000002_Node000024" class="edge">
<title>Node2&#45;&gt;Node24</title>
<g id="a_edge58_Node000002_Node000024"><a xlink:title=" ">
<path fill="none" stroke="#63b8ff" d="M1004.41,-490.32C1159.35,-486 1454.68,-473.34 1703.29,-437 1713.36,-435.53 1723.87,-433.64 1734.23,-431.56"/>
<polygon fill="#63b8ff" stroke="#63b8ff" points="1003.85,-486.84 993.95,-490.61 1004.05,-493.83 1003.85,-486.84"/>
</a>
</g>
</g>
<!-- Node4 -->
<g id="Node000004" class="node">
<title>Node4</title>
<g id="a_Node000004"><a xlink:href="open62541pp_8hpp.html" target="_top" xlink:title=" ">
<polygon fill="white" stroke="#666666" points="871.79,-41 678.79,-41 678.79,0 871.79,0 871.79,-41"/>
<text text-anchor="start" x="686.79" y="-29" font-family="Helvetica,sans-Serif" font-size="10.00">/home/runner/work/open62541pp</text>
<text text-anchor="start" x="686.79" y="-18" font-family="Helvetica,sans-Serif" font-size="10.00">/open62541pp/include/open62541pp</text>
<text text-anchor="middle" x="775.29" y="-7" font-family="Helvetica,sans-Serif" font-size="10.00">/open62541pp.hpp</text>
</a>
</g>
</g>
<!-- Node3&#45;&gt;Node4 -->
<g id="edge3_Node000003_Node000004" class="edge">
<title>Node3&#45;&gt;Node4</title>
<g id="a_edge3_Node000003_Node000004"><a xlink:title=" ">
<path fill="none" stroke="#63b8ff" d="M506.83,-75.19C560.91,-64.38 626.12,-51.34 678.72,-40.81"/>
<polygon fill="#63b8ff" stroke="#63b8ff" points="505.98,-71.79 496.86,-77.19 507.36,-78.66 505.98,-71.79"/>
</a>
</g>
</g>
<!-- Node7&#45;&gt;Node4 -->
<g id="edge7_Node000007_Node000004" class="edge">
<title>Node7&#45;&gt;Node4</title>
<g id="a_edge7_Node000007_Node000004"><a xlink:title=" ">
<path fill="none" stroke="#63b8ff" d="M143.22,-222.46C170.47,-182.51 226.4,-110.36 294.29,-77 359.84,-44.8 557.98,-30.74 678.54,-25.03"/>
<polygon fill="#63b8ff" stroke="#63b8ff" points="140.2,-220.69 137.54,-230.94 146.01,-224.58 140.2,-220.69"/>
</a>
</g>
</g>
<!-- Node7&#45;&gt;Node8 -->
<g id="edge8_Node000007_Node000008" class="edge">
<title>Node7&#45;&gt;Node8</title>
<g id="a_edge8_Node000007_Node000008"><a xlink:title=" ">
<path fill="none" stroke="#63b8ff" d="M231.93,-230.51C293.05,-219.05 369.16,-204.77 428.54,-193.64"/>
<polygon fill="#63b8ff" stroke="#63b8ff" points="231.05,-227.11 221.87,-232.39 232.34,-233.99 231.05,-227.11"/>
</a>
</g>
</g>
<!-- Node8&#45;&gt;Node3 -->
<g id="edge9_Node000008_Node000003" class="edge">
<title>Node8&#45;&gt;Node3</title>
<g id="a_edge9_Node000008_Node000003"><a xlink:title=" ">
<path fill="none" stroke="#63b8ff" d="M483.87,-148.64C467.36,-138.74 448.62,-127.5 433.08,-118.17"/>
<polygon fill="#63b8ff" stroke="#63b8ff" points="482.4,-151.85 492.78,-153.99 486,-145.84 482.4,-151.85"/>
</a>
</g>
</g>
<!-- Node8&#45;&gt;Node4 -->
<g id="edge10_Node000008_Node000004" class="edge">
<title>Node8&#45;&gt;Node4</title>
<g id="a_edge10_Node000008_Node000004"><a xlink:title=" ">
<path fill="none" stroke="#63b8ff" d="M523.25,-143.55C523.5,-122.28 527.51,-94.5 544.29,-77 563.18,-57.32 624.2,-43.16 678.78,-34.07"/>
<polygon fill="#63b8ff" stroke="#63b8ff" points="519.76,-143.74 523.41,-153.69 526.76,-143.64 519.76,-143.74"/>
</a>
</g>
</g>
<!-- Node9 -->
<g id="Node000009" class="node">
<title>Node9</title>
<g id="a_Node000009"><a xlink:href="server_8hpp.html" target="_top" xlink:title=" ">
<polygon fill="white" stroke="#666666" points="746.79,-118 553.79,-118 553.79,-77 746.79,-77 746.79,-118"/>
<text text-anchor="start" x="561.79" y="-106" font-family="Helvetica,sans-Serif" font-size="10.00">/home/runner/work/open62541pp</text>
<text text-anchor="start" x="561.79" y="-95" font-family="Helvetica,sans-Serif" font-size="10.00">/open62541pp/include/open62541pp</text>
<text text-anchor="middle" x="650.29" y="-84" font-family="Helvetica,sans-Serif" font-size="10.00">/server.hpp</text>
</a>
</g>
</g>
<!-- Node8&#45;&gt;Node9 -->
<g id="edge11_Node000008_Node000009" class="edge">
<title>Node8&#45;&gt;Node9</title>
<g id="a_edge11_Node000008_Node000009"><a xlink:title=" ">
<path fill="none" stroke="#63b8ff" d="M566.72,-148.64C583.23,-138.74 601.97,-127.5 617.51,-118.17"/>
<polygon fill="#63b8ff" stroke="#63b8ff" points="564.58,-145.84 557.81,-153.99 568.18,-151.85 564.58,-145.84"/>
</a>
</g>
</g>
<!-- Node9&#45;&gt;Node4 -->
<g id="edge12_Node000009_Node000004" class="edge">
<title>Node9&#45;&gt;Node4</title>
<g id="a_edge12_Node000009_Node000004"><a xlink:title=" ">
<path fill="none" stroke="#63b8ff" d="M691.72,-71.64C708.23,-61.74 726.97,-50.5 742.51,-41.17"/>
<polygon fill="#63b8ff" stroke="#63b8ff" points="689.58,-68.84 682.81,-76.99 693.18,-74.85 689.58,-68.84"/>
</a>
</g>
</g>
<!-- Node10&#45;&gt;Node4 -->
<g id="edge14_Node000010_Node000004" class="edge">
<title>Node10&#45;&gt;Node4</title>
<g id="a_edge14_Node000010_Node000004"><a xlink:title=" ">
<path fill="none" stroke="#63b8ff" d="M1269.49,-150.36C1212.45,-129.24 1124.45,-98.19 1046.29,-77 989.05,-61.48 923.97,-48.02 871.93,-38.24"/>
<polygon fill="#63b8ff" stroke="#63b8ff" points="1268.48,-153.72 1279.07,-153.92 1270.92,-147.16 1268.48,-153.72"/>
</a>
</g>
</g>
<!-- Node11&#45;&gt;Node4 -->
<g id="edge16_Node000011_Node000004" class="edge">
<title>Node11&#45;&gt;Node4</title>
<g id="a_edge16_Node000011_Node000004"><a xlink:title=" ">
<path fill="none" stroke="#63b8ff" d="M759.98,-143.98C763.76,-113.76 769.53,-67.64 772.8,-41.47"/>
<polygon fill="#63b8ff" stroke="#63b8ff" points="756.51,-143.58 758.74,-153.94 763.45,-144.45 756.51,-143.58"/>
</a>
</g>
</g>
<!-- Node11&#45;&gt;Node9 -->
<g id="edge19_Node000011_Node000009" class="edge">
<title>Node11&#45;&gt;Node9</title>
<g id="a_edge19_Node000011_Node000009"><a xlink:title=" ">
<path fill="none" stroke="#63b8ff" d="M720.38,-148.09C706.57,-138.32 691.03,-127.32 678.1,-118.17"/>
<polygon fill="#63b8ff" stroke="#63b8ff" points="718.53,-151.07 728.72,-153.99 722.58,-145.36 718.53,-151.07"/>
</a>
</g>
</g>
<!-- Node12 -->
<g id="Node000012" class="node">
<title>Node12</title>
<g id="a_Node000012"><a xlink:href="accesscontrol__default_8hpp.html" target="_top" xlink:title=" ">
<polygon fill="white" stroke="#666666" points="996.79,-118 803.79,-118 803.79,-77 996.79,-77 996.79,-118"/>
<text text-anchor="start" x="811.79" y="-106" font-family="Helvetica,sans-Serif" font-size="10.00">/home/runner/work/open62541pp</text>
<text text-anchor="start" x="811.79" y="-95" font-family="Helvetica,sans-Serif" font-size="10.00">/open62541pp/include/open62541pp</text>
<text text-anchor="middle" x="900.29" y="-84" font-family="Helvetica,sans-Serif" font-size="10.00">/plugin/accesscontrol_default.hpp</text>
</a>
</g>
</g>
<!-- Node11&#45;&gt;Node12 -->
<g id="edge17_Node000011_Node000012" class="edge">
<title>Node11&#45;&gt;Node12</title>
<g id="a_edge17_Node000011_Node000012"><a xlink:title=" ">
<path fill="none" stroke="#63b8ff" d="M802.74,-149.31C822.15,-139.2 844.42,-127.6 862.77,-118.04"/>
<polygon fill="#63b8ff" stroke="#63b8ff" points="801,-146.27 793.75,-153.99 804.24,-152.48 801,-146.27"/>
</a>
</g>
</g>
<!-- Node12&#45;&gt;Node4 -->
<g id="edge18_Node000012_Node000004" class="edge">
<title>Node12&#45;&gt;Node4</title>
<g id="a_edge18_Node000012_Node000004"><a xlink:title=" ">
<path fill="none" stroke="#63b8ff" d="M858.87,-71.64C842.36,-61.74 823.62,-50.5 808.08,-41.17"/>
<polygon fill="#63b8ff" stroke="#63b8ff" points="857.4,-74.85 867.78,-76.99 861,-68.84 857.4,-74.85"/>
</a>
</g>
</g>
<!-- Node13&#45;&gt;Node10 -->
<g id="edge21_Node000013_Node000010" class="edge">
<title>Node13&#45;&gt;Node10</title>
<g id="a_edge21_Node000013_Node000010"><a xlink:title=" ">
<path fill="none" stroke="#63b8ff" d="M1562.15,-317.03C1640.93,-305.1 1727.62,-280.45 1685.29,-231 1652.64,-192.85 1520.65,-180.73 1427.18,-176.99"/>
<polygon fill="#63b8ff" stroke="#63b8ff" points="1561.49,-313.59 1552.1,-318.49 1562.5,-320.51 1561.49,-313.59"/>
</a>
</g>
</g>
<!-- Node14 -->
<g id="Node000014" class="node">
<title>Node14</title>
<g id="a_Node000014"><a xlink:href="attribute__highlevel_8hpp.html" target="_top" xlink:title=" ">
<polygon fill="white" stroke="#666666" points="1676.79,-272 1483.79,-272 1483.79,-231 1676.79,-231 1676.79,-272"/>
<text text-anchor="start" x="1491.79" y="-260" font-family="Helvetica,sans-Serif" font-size="10.00">/home/runner/work/open62541pp</text>
<text text-anchor="start" x="1491.79" y="-249" font-family="Helvetica,sans-Serif" font-size="10.00">/open62541pp/include/open62541pp</text>
<text text-anchor="middle" x="1580.29" y="-238" font-family="Helvetica,sans-Serif" font-size="10.00">/services/attribute_highlevel.hpp</text>
</a>
</g>
</g>
<!-- Node13&#45;&gt;Node14 -->
<g id="edge22_Node000013_Node000014" class="edge">
<title>Node13&#45;&gt;Node14</title>
<g id="a_edge22_Node000013_Node000014"><a xlink:title=" ">
<path fill="none" stroke="#63b8ff" d="M1496.72,-302.64C1513.23,-292.74 1531.97,-281.5 1547.51,-272.17"/>
<polygon fill="#63b8ff" stroke="#63b8ff" points="1494.58,-299.84 1487.81,-307.99 1498.18,-305.85 1494.58,-299.84"/>
</a>
</g>
</g>
<!-- Node15 -->
<g id="Node000015" class="node">
<title>Node15</title>
<g id="a_Node000015"><a xlink:href="services_8hpp.html" target="_top" xlink:title=" ">
<polygon fill="white" stroke="#666666" points="1204.79,-195 1011.79,-195 1011.79,-154 1204.79,-154 1204.79,-195"/>
<text text-anchor="start" x="1019.79" y="-183" font-family="Helvetica,sans-Serif" font-size="10.00">/home/runner/work/open62541pp</text>
<text text-anchor="start" x="1019.79" y="-172" font-family="Helvetica,sans-Serif" font-size="10.00">/open62541pp/include/open62541pp</text>
<text text-anchor="middle" x="1108.29" y="-161" font-family="Helvetica,sans-Serif" font-size="10.00">/services/services.hpp</text>
</a>
</g>
</g>
<!-- Node13&#45;&gt;Node15 -->
<g id="edge26_Node000013_Node000015" class="edge">
<title>Node13&#45;&gt;Node15</title>
<g id="a_edge26_Node000013_Node000015"><a xlink:title=" ">
<path fill="none" stroke="#63b8ff" d="M1457.34,-297.56C1457.07,-276.05 1452.89,-247.97 1435.29,-231 1434.76,-230.49 1301.12,-207.92 1204.87,-191.73"/>
<polygon fill="#63b8ff" stroke="#63b8ff" points="1453.83,-297.76 1457.18,-307.81 1460.83,-297.87 1453.83,-297.76"/>
</a>
</g>
</g>
<!-- Node14&#45;&gt;Node10 -->
<g id="edge23_Node000014_Node000010" class="edge">
<title>Node14&#45;&gt;Node10</title>
<g id="a_edge23_Node000014_Node000010"><a xlink:title=" ">
<path fill="none" stroke="#63b8ff" d="M1505.56,-228.08C1470.53,-217.57 1429.17,-205.16 1395.43,-195.04"/>
<polygon fill="#63b8ff" stroke="#63b8ff" points="1504.68,-231.47 1515.26,-230.99 1506.69,-224.76 1504.68,-231.47"/>
</a>
</g>
</g>
<!-- Node14&#45;&gt;Node15 -->
<g id="edge24_Node000014_Node000015" class="edge">
<title>Node14&#45;&gt;Node15</title>
<g id="a_edge24_Node000014_Node000015"><a xlink:title=" ">
<path fill="none" stroke="#63b8ff" d="M1473.76,-231.72C1472.26,-231.48 1470.77,-231.24 1469.29,-231 1360.64,-213.48 1333.01,-212.12 1224.29,-195 1217.94,-194 1211.39,-192.95 1204.8,-191.88"/>
<polygon fill="#63b8ff" stroke="#63b8ff" points="1473.32,-235.2 1483.76,-233.37 1474.46,-228.29 1473.32,-235.2"/>
</a>
</g>
</g>
<!-- Node15&#45;&gt;Node4 -->
<g id="edge25_Node000015_Node000004" class="edge">
<title>Node15&#45;&gt;Node4</title>
<g id="a_edge25_Node000015_Node000004"><a xlink:title=" ">
<path fill="none" stroke="#63b8ff" d="M1086.09,-145.99C1066.94,-124.08 1037.37,-94.31 1005.29,-77 964.35,-54.91 914.62,-41.5 871.89,-33.42"/>
<polygon fill="#63b8ff" stroke="#63b8ff" points="1083.5,-148.34 1092.66,-153.67 1088.82,-143.79 1083.5,-148.34"/>
</a>
</g>
</g>
<!-- Node16&#45;&gt;Node5 -->
<g id="edge28_Node000016_Node000005" class="edge">
<title>Node16&#45;&gt;Node5</title>
<g id="a_edge28_Node000016_Node000005"><a xlink:title=" ">
<path fill="none" stroke="#63b8ff" d="M421.94,-375.16C420.05,-366.25 418.1,-356.99 416.44,-349.15"/>
<polygon fill="#63b8ff" stroke="#63b8ff" points="418.52,-375.91 424.01,-384.97 425.37,-374.46 418.52,-375.91"/>
</a>
</g>
</g>
<!-- Node16&#45;&gt;Node6 -->
<g id="edge29_Node000016_Node000006" class="edge">
<title>Node16&#45;&gt;Node6</title>
<g id="a_edge29_Node000016_Node000006"><a xlink:title=" ">
<path fill="none" stroke="#63b8ff" d="M348.64,-381.52C318.17,-370.76 284.2,-358.77 256.57,-349.02"/>
<polygon fill="#63b8ff" stroke="#63b8ff" points="347.81,-384.94 358.4,-384.97 350.14,-378.34 347.81,-384.94"/>
</a>
</g>
</g>
<!-- Node16&#45;&gt;Node17 -->
<g id="edge30_Node000016_Node000017" class="edge">
<title>Node16&#45;&gt;Node17</title>
<g id="a_edge30_Node000016_Node000017"><a xlink:title=" ">
<path fill="none" stroke="#63b8ff" d="M498.93,-381.1C524.6,-370.45 553.05,-358.65 576.26,-349.02"/>
<polygon fill="#63b8ff" stroke="#63b8ff" points="497.51,-377.91 489.61,-384.97 500.19,-384.37 497.51,-377.91"/>
</a>
</g>
</g>
<!-- Node17&#45;&gt;Node7 -->
<g id="edge31_Node000017_Node000007" class="edge">
<title>Node17&#45;&gt;Node7</title>
<g id="a_edge31_Node000017_Node000007"><a xlink:title=" ">
<path fill="none" stroke="#63b8ff" d="M516.58,-307.92C409.94,-290.7 299.15,-275.35 222.12,-265.08"/>
<polygon fill="#63b8ff" stroke="#63b8ff" points="516.13,-311.39 526.56,-309.53 517.25,-304.48 516.13,-311.39"/>
</a>
</g>
</g>
<!-- Node17&#45;&gt;Node8 -->
<g id="edge33_Node000017_Node000008" class="edge">
<title>Node17&#45;&gt;Node8</title>
<g id="a_edge33_Node000017_Node000008"><a xlink:title=" ">
<path fill="none" stroke="#63b8ff" d="M605.02,-299.15C585.56,-268.97 555.26,-221.98 538.17,-195.47"/>
<polygon fill="#63b8ff" stroke="#63b8ff" points="602.32,-301.43 610.68,-307.94 608.2,-297.64 602.32,-301.43"/>
</a>
</g>
</g>
<!-- Node17&#45;&gt;Node15 -->
<g id="edge32_Node000017_Node000015" class="edge">
<title>Node17&#45;&gt;Node15</title>
<g id="a_edge32_Node000017_Node000015"><a xlink:title=" ">
<path fill="none" stroke="#63b8ff" d="M658.72,-302.24C691.54,-280.06 742.52,-248.66 791.29,-231 862.74,-205.13 947.74,-191.09 1011.73,-183.6"/>
<polygon fill="#63b8ff" stroke="#63b8ff" points="656.64,-299.42 650.36,-307.95 660.6,-305.2 656.64,-299.42"/>
</a>
</g>
</g>
<!-- Node18&#45;&gt;Node13 -->
<g id="edge35_Node000018_Node000013" class="edge">
<title>Node18&#45;&gt;Node13</title>
<g id="a_edge35_Node000018_Node000013"><a xlink:title=" ">
<path fill="none" stroke="#63b8ff" d="M1216.15,-388.01C1265.95,-375.83 1327.34,-360.81 1375.44,-349.04"/>
<polygon fill="#63b8ff" stroke="#63b8ff" points="1215.24,-384.63 1206.35,-390.41 1216.9,-391.43 1215.24,-384.63"/>
</a>
</g>
</g>
<!-- Node18&#45;&gt;Node17 -->
<g id="edge39_Node000018_Node000017" class="edge">
<title>Node18&#45;&gt;Node17</title>
<g id="a_edge39_Node000018_Node000017"><a xlink:title=" ">
<path fill="none" stroke="#63b8ff" d="M1016.55,-392.44C928.14,-378.29 805.02,-358.58 720.21,-345.01"/>
<polygon fill="#63b8ff" stroke="#63b8ff" points="1016.19,-395.92 1026.62,-394.05 1017.29,-389.01 1016.19,-395.92"/>
</a>
</g>
</g>
<!-- Node18&#45;&gt;Node19 -->
<g id="edge36_Node000018_Node000019" class="edge">
<title>Node18&#45;&gt;Node19</title>
<g id="a_edge36_Node000018_Node000019"><a xlink:title=" ">
<path fill="none" stroke="#63b8ff" d="M1124.96,-379.97C1123.55,-348.37 1121.38,-299.51 1120.18,-272.38"/>
<polygon fill="#63b8ff" stroke="#63b8ff" points="1121.48,-380.54 1125.42,-390.37 1128.47,-380.23 1121.48,-380.54"/>
</a>
</g>
</g>
<!-- Node18&#45;&gt;Node20 -->
<g id="edge40_Node000018_Node000020" class="edge">
<title>Node18&#45;&gt;Node20</title>
<g id="a_edge40_Node000018_Node000020"><a xlink:title=" ">
<path fill="none" stroke="#63b8ff" d="M1159.72,-384.19C1200.4,-352.78 1268.2,-300.44 1304.87,-272.13"/>
<polygon fill="#63b8ff" stroke="#63b8ff" points="1157.49,-381.49 1151.72,-390.37 1161.77,-387.03 1157.49,-381.49"/>
</a>
</g>
</g>
<!-- Node18&#45;&gt;Node21 -->
<g id="edge43_Node000018_Node000021" class="edge">
<title>Node18&#45;&gt;Node21</title>
<g id="a_edge43_Node000018_Node000021"><a xlink:title=" ">
<path fill="none" stroke="#63b8ff" d="M1054.79,-387.25C1016.93,-375.2 970.92,-360.56 934.7,-349.04"/>
<polygon fill="#63b8ff" stroke="#63b8ff" points="1054.14,-390.71 1064.73,-390.41 1056.26,-384.04 1054.14,-390.71"/>
</a>
</g>
</g>
<!-- Node18&#45;&gt;Node22 -->
<g id="edge46_Node000018_Node000022" class="edge">
<title>Node18&#45;&gt;Node22</title>
<g id="a_edge46_Node000018_Node000022"><a xlink:title=" ">
<path fill="none" stroke="#63b8ff" d="M1099.97,-383.1C1077.8,-361.29 1044.62,-330.59 1012.29,-308 992.92,-294.46 969.86,-281.84 950.38,-272.06"/>
<polygon fill="#63b8ff" stroke="#63b8ff" points="1097.77,-385.85 1107.33,-390.41 1102.7,-380.88 1097.77,-385.85"/>
</a>
</g>
</g>
<!-- Node19&#45;&gt;Node10 -->
<g id="edge37_Node000019_Node000010" class="edge">
<title>Node19&#45;&gt;Node10</title>
<g id="a_edge37_Node000019_Node000010"><a xlink:title=" ">
<path fill="none" stroke="#63b8ff" d="M1183.89,-227.54C1213.13,-217.15 1247.33,-204.99 1275.31,-195.04"/>
<polygon fill="#63b8ff" stroke="#63b8ff" points="1182.43,-224.34 1174.18,-230.99 1184.77,-230.94 1182.43,-224.34"/>
</a>
</g>
</g>
<!-- Node19&#45;&gt;Node15 -->
<g id="edge38_Node000019_Node000015" class="edge">
<title>Node19&#45;&gt;Node15</title>
<g id="a_edge38_Node000019_Node000015"><a xlink:title=" ">
<path fill="none" stroke="#63b8ff" d="M1114.92,-220.69C1113.66,-212.08 1112.31,-202.9 1111.16,-195.07"/>
<polygon fill="#63b8ff" stroke="#63b8ff" points="1111.49,-221.41 1116.4,-230.79 1118.41,-220.39 1111.49,-221.41"/>
</a>
</g>
</g>
<!-- Node20&#45;&gt;Node10 -->
<g id="edge41_Node000020_Node000010" class="edge">
<title>Node20&#45;&gt;Node10</title>
<g id="a_edge41_Node000020_Node000010"><a xlink:title=" ">
<path fill="none" stroke="#63b8ff" d="M1330.29,-220.69C1330.29,-212.08 1330.29,-202.9 1330.29,-195.07"/>
<polygon fill="#63b8ff" stroke="#63b8ff" points="1326.79,-220.79 1330.29,-230.79 1333.79,-220.79 1326.79,-220.79"/>
</a>
</g>
</g>
<!-- Node20&#45;&gt;Node15 -->
<g id="edge42_Node000020_Node000015" class="edge">
<title>Node20&#45;&gt;Node15</title>
<g id="a_edge42_Node000020_Node000015"><a xlink:title=" ">
<path fill="none" stroke="#63b8ff" d="M1262.73,-227.67C1231.88,-217.25 1195.71,-205.03 1166.14,-195.04"/>
<polygon fill="#63b8ff" stroke="#63b8ff" points="1261.95,-231.11 1272.54,-230.99 1264.19,-224.47 1261.95,-231.11"/>
</a>
</g>
</g>
<!-- Node21&#45;&gt;Node8 -->
<g id="edge45_Node000021_Node000008" class="edge">
<title>Node21&#45;&gt;Node8</title>
<g id="a_edge45_Node000021_Node000008"><a xlink:title=" ">
<path fill="none" stroke="#63b8ff" d="M819.18,-303.86C750.69,-273.95 633.97,-222.97 570.18,-195.11"/>
<polygon fill="#63b8ff" stroke="#63b8ff" points="817.95,-307.14 828.51,-307.94 820.75,-300.73 817.95,-307.14"/>
</a>
</g>
</g>
<!-- Node21&#45;&gt;Node15 -->
<g id="edge44_Node000021_Node000015" class="edge">
<title>Node21&#45;&gt;Node15</title>
<g id="a_edge44_Node000021_Node000015"><a xlink:title=" ">
<path fill="none" stroke="#63b8ff" d="M827.59,-301.67C817.41,-293.57 807.97,-283.65 802.29,-272 794.31,-255.62 790.61,-244.99 802.29,-231 828.68,-199.4 932.22,-185.75 1011.62,-179.88"/>
<polygon fill="#63b8ff" stroke="#63b8ff" points="825.72,-304.64 835.84,-307.76 829.88,-299.01 825.72,-304.64"/>
</a>
</g>
</g>
<!-- Node22&#45;&gt;Node10 -->
<g id="edge47_Node000022_Node000010" class="edge">
<title>Node22&#45;&gt;Node10</title>
<g id="a_edge47_Node000022_Node000010"><a xlink:title=" ">
<path fill="none" stroke="#63b8ff" d="M1015.09,-230.68C1093.93,-216.49 1173.26,-202.62 1233.48,-192.18"/>
<polygon fill="#63b8ff" stroke="#63b8ff" points="1014.2,-227.29 1004.98,-232.51 1015.44,-234.18 1014.2,-227.29"/>
</a>
</g>
</g>
<!-- Node22&#45;&gt;Node15 -->
<g id="edge48_Node000022_Node000015" class="edge">
<title>Node22&#45;&gt;Node15</title>
<g id="a_edge48_Node000022_Node000015"><a xlink:title=" ">
<path fill="none" stroke="#63b8ff" d="M969.88,-227.4C997.52,-217.04 1029.77,-204.95 1056.18,-195.04"/>
<polygon fill="#63b8ff" stroke="#63b8ff" points="968.45,-224.2 960.32,-230.99 970.91,-230.76 968.45,-224.2"/>
</a>
</g>
</g>
<!-- Node23&#45;&gt;Node5 -->
<g id="edge50_Node000023_Node000005" class="edge">
<title>Node23&#45;&gt;Node5</title>
<g id="a_edge50_Node000023_Node000005"><a xlink:title=" ">
<path fill="none" stroke="#63b8ff" d="M728.54,-389.69C661.08,-376.85 574.6,-360.39 509.12,-347.93"/>
<polygon fill="#63b8ff" stroke="#63b8ff" points="728.3,-393.2 738.78,-391.63 729.61,-386.32 728.3,-393.2"/>
</a>
</g>
</g>
<!-- Node23&#45;&gt;Node21 -->
<g id="edge51_Node000023_Node000021" class="edge">
<title>Node23&#45;&gt;Node21</title>
<g id="a_edge51_Node000023_Node000021"><a xlink:title=" ">
<path fill="none" stroke="#63b8ff" d="M851.47,-375.74C855.75,-366.65 860.24,-357.15 864.02,-349.15"/>
<polygon fill="#63b8ff" stroke="#63b8ff" points="848.21,-374.43 847.11,-384.97 854.54,-377.42 848.21,-374.43"/>
</a>
</g>
</g>
<!-- Node24&#45;&gt;Node4 -->
<g id="edge59_Node000024_Node000004" class="edge">
<title>Node24&#45;&gt;Node4</title>
<g id="a_edge59_Node000024_Node000004"><a xlink:title=" ">
<path fill="none" stroke="#63b8ff" d="M1810.93,-379.8C1807.69,-348.12 1803.29,-296.88 1803.29,-252.5 1803.29,-252.5 1803.29,-252.5 1803.29,-173.5 1803.29,-79.91 1127.91,-38.18 872,-25.72"/>
<polygon fill="#63b8ff" stroke="#63b8ff" points="1807.49,-380.56 1812.01,-390.14 1814.45,-379.83 1807.49,-380.56"/>
</a>
</g>
</g>
</g>
</svg>
