<?xml version="1.0" encoding="UTF-8" standalone="no"?>
<!DOCTYPE svg PUBLIC "-//W3C//DTD SVG 1.1//EN"
 "http://www.w3.org/Graphics/SVG/1.1/DTD/svg11.dtd">
<!-- Generated by graphviz version 2.43.0 (0)
 -->
<!-- Title: /home/runner/work/open62541pp/open62541pp/include/open62541pp/types/Variant.h Pages: 1 -->
<svg width="1406pt" height="665pt"
 viewBox="0.00 0.00 1406.26 665.00" xmlns="http://www.w3.org/2000/svg" xmlns:xlink="http://www.w3.org/1999/xlink">
<g id="graph0" class="graph" transform="scale(1 1) rotate(0) translate(4 661)">
<title>/home/runner/work/open62541pp/open62541pp/include/open62541pp/types/Variant.h</title>
<!-- Node1 -->
<g id="Node000001" class="node">
<title>Node1</title>
<g id="a_Node000001"><a xlink:title=" ">
<polygon fill="#999999" stroke="#666666" points="766.76,-657 573.76,-657 573.76,-616 766.76,-616 766.76,-657"/>
<text text-anchor="start" x="581.76" y="-645" font-family="Helvetica,sans-Serif" font-size="10.00">/home/runner/work/open62541pp</text>
<text text-anchor="start" x="581.76" y="-634" font-family="Helvetica,sans-Serif" font-size="10.00">/open62541pp/include/open62541pp</text>
<text text-anchor="middle" x="670.26" y="-623" font-family="Helvetica,sans-Serif" font-size="10.00">/types/Variant.h</text>
</a>
</g>
</g>
<!-- Node2 -->
<g id="Node000002" class="node">
<title>Node2</title>
<g id="a_Node000002"><a xlink:href="Node_8h.html" target="_top" xlink:title=" ">
<polygon fill="white" stroke="#666666" points="1052.26,-118 856.26,-118 856.26,-77 1052.26,-77 1052.26,-118"/>
<text text-anchor="start" x="864.26" y="-106" font-family="Helvetica,sans-Serif" font-size="10.00">/home/runner/work/open62541pp</text>
<text text-anchor="start" x="864.26" y="-95" font-family="Helvetica,sans-Serif" font-size="10.00">/open62541pp/include/open62541pp/</text>
<text text-anchor="middle" x="954.26" y="-84" font-family="Helvetica,sans-Serif" font-size="10.00">Node.h</text>
</a>
</g>
</g>
<!-- Node1&#45;&gt;Node2 -->
<g id="edge1_Node000001_Node000002" class="edge">
<title>Node1&#45;&gt;Node2</title>
<g id="a_edge1_Node000001_Node000002"><a xlink:title=" ">
<path fill="none" stroke="#63b8ff" d="M777.13,-633.86C970.88,-627.96 1360.26,-601.45 1360.26,-483.5 1360.26,-483.5 1360.26,-483.5 1360.26,-404.5 1360.26,-256.03 1269.58,-225.13 1139.26,-154 1110.71,-138.42 1077.23,-126.68 1046.66,-118.1"/>
<polygon fill="#63b8ff" stroke="#63b8ff" points="776.82,-630.37 766.93,-634.16 777.02,-637.36 776.82,-630.37"/>
</a>
</g>
</g>
<!-- Node3 -->
<g id="Node000003" class="node">
<title>Node3</title>
<g id="a_Node000003"><a xlink:href="open62541pp_8h.html" target="_top" xlink:title=" ">
<polygon fill="white" stroke="#666666" points="1258.76,-41 1065.76,-41 1065.76,0 1258.76,0 1258.76,-41"/>
<text text-anchor="start" x="1073.76" y="-29" font-family="Helvetica,sans-Serif" font-size="10.00">/home/runner/work/open62541pp</text>
<text text-anchor="start" x="1073.76" y="-18" font-family="Helvetica,sans-Serif" font-size="10.00">/open62541pp/include/open62541pp</text>
<text text-anchor="middle" x="1162.26" y="-7" font-family="Helvetica,sans-Serif" font-size="10.00">/open62541pp.h</text>
</a>
</g>
</g>
<!-- Node1&#45;&gt;Node3 -->
<g id="edge3_Node000001_Node000003" class="edge">
<title>Node1&#45;&gt;Node3</title>
<g id="a_edge3_Node000001_Node000003"><a xlink:title=" ">
<path fill="none" stroke="#63b8ff" d="M777.37,-634.5C931.52,-631.64 1207.25,-620.78 1297.26,-580 1353.81,-554.38 1398.26,-545.58 1398.26,-483.5 1398.26,-483.5 1398.26,-483.5 1398.26,-173.5 1398.26,-101.01 1318.58,-61.44 1251.82,-41.01"/>
<polygon fill="#63b8ff" stroke="#63b8ff" points="776.88,-631.01 766.94,-634.69 777.01,-638.01 776.88,-631.01"/>
</a>
</g>
</g>
<!-- Node4 -->
<g id="Node000004" class="node">
<title>Node4</title>
<g id="a_Node000004"><a xlink:href="Attribute_8h.html" target="_top" xlink:title=" ">
<polygon fill="white" stroke="#666666" points="376.76,-195 183.76,-195 183.76,-154 376.76,-154 376.76,-195"/>
<text text-anchor="start" x="191.76" y="-183" font-family="Helvetica,sans-Serif" font-size="10.00">/home/runner/work/open62541pp</text>
<text text-anchor="start" x="191.76" y="-172" font-family="Helvetica,sans-Serif" font-size="10.00">/open62541pp/include/open62541pp</text>
<text text-anchor="middle" x="280.26" y="-161" font-family="Helvetica,sans-Serif" font-size="10.00">/services/Attribute.h</text>
</a>
</g>
</g>
<!-- Node1&#45;&gt;Node4 -->
<g id="edge4_Node000001_Node000004" class="edge">
<title>Node1&#45;&gt;Node4</title>
<g id="a_edge4_Node000001_Node000004"><a xlink:title=" ">
<path fill="none" stroke="#63b8ff" d="M563.49,-630.78C398.64,-620.78 95.42,-590.64 41.26,-503 -10.47,-419.3 -43.36,-407.39 137.26,-231 153.74,-214.91 175.41,-203.35 196.88,-195.11"/>
<polygon fill="#63b8ff" stroke="#63b8ff" points="563.47,-634.29 573.66,-631.38 563.89,-627.3 563.47,-634.29"/>
</a>
</g>
</g>
<!-- Node7 -->
<g id="Node000007" class="node">
<title>Node7</title>
<g id="a_Node000007"><a xlink:href="Method_8h.html" target="_top" xlink:title=" ">
<polygon fill="white" stroke="#666666" points="1009.76,-195 816.76,-195 816.76,-154 1009.76,-154 1009.76,-195"/>
<text text-anchor="start" x="824.76" y="-183" font-family="Helvetica,sans-Serif" font-size="10.00">/home/runner/work/open62541pp</text>
<text text-anchor="start" x="824.76" y="-172" font-family="Helvetica,sans-Serif" font-size="10.00">/open62541pp/include/open62541pp</text>
<text text-anchor="middle" x="913.26" y="-161" font-family="Helvetica,sans-Serif" font-size="10.00">/services/Method.h</text>
</a>
</g>
</g>
<!-- Node1&#45;&gt;Node7 -->
<g id="edge10_Node000001_Node000007" class="edge">
<title>Node1&#45;&gt;Node7</title>
<g id="a_edge10_Node000001_Node000007"><a xlink:title=" ">
<path fill="none" stroke="#63b8ff" d="M776.97,-618.85C913.68,-590.86 1143.03,-519.64 1227.26,-349 1274.33,-253.64 1118.92,-208.3 1010.19,-188.68"/>
<polygon fill="#63b8ff" stroke="#63b8ff" points="776,-615.48 766.89,-620.87 777.38,-622.34 776,-615.48"/>
</a>
</g>
</g>
<!-- Node8 -->
<g id="Node000008" class="node">
<title>Node8</title>
<g id="a_Node000008"><a xlink:href="NodeManagement_8h.html" target="_top" xlink:title=" ">
<polygon fill="white" stroke="#666666" points="587.76,-195 394.76,-195 394.76,-154 587.76,-154 587.76,-195"/>
<text text-anchor="start" x="402.76" y="-183" font-family="Helvetica,sans-Serif" font-size="10.00">/home/runner/work/open62541pp</text>
<text text-anchor="start" x="402.76" y="-172" font-family="Helvetica,sans-Serif" font-size="10.00">/open62541pp/include/open62541pp</text>
<text text-anchor="middle" x="491.26" y="-161" font-family="Helvetica,sans-Serif" font-size="10.00">/services/NodeManagement.h</text>
</a>
</g>
</g>
<!-- Node1&#45;&gt;Node8 -->
<g id="edge13_Node000001_Node000008" class="edge">
<title>Node1&#45;&gt;Node8</title>
<g id="a_edge13_Node000001_Node000008"><a xlink:title=" ">
<path fill="none" stroke="#63b8ff" d="M572.61,-613.13C545.06,-604.78 515.68,-593.87 490.26,-580 396.94,-529.1 363.41,-516.26 307.26,-426 260.61,-351.03 214.92,-300.6 269.26,-231 277.49,-220.45 338.57,-205.63 394.57,-193.96"/>
<polygon fill="#63b8ff" stroke="#63b8ff" points="571.68,-616.5 582.26,-615.97 573.66,-609.79 571.68,-616.5"/>
</a>
</g>
</g>
<!-- Node11 -->
<g id="Node000011" class="node">
<title>Node11</title>
<g id="a_Node000011"><a xlink:href="AttributeHandler_8h.html" target="_top" xlink:title=" ">
<polygon fill="white" stroke="#666666" points="243.76,-503 50.76,-503 50.76,-462 243.76,-462 243.76,-503"/>
<text text-anchor="start" x="58.76" y="-491" font-family="Helvetica,sans-Serif" font-size="10.00">/home/runner/work/open62541pp</text>
<text text-anchor="start" x="58.76" y="-480" font-family="Helvetica,sans-Serif" font-size="10.00">/open62541pp/include/open62541pp</text>
<text text-anchor="middle" x="147.26" y="-469" font-family="Helvetica,sans-Serif" font-size="10.00">/services/detail/AttributeHandler.h</text>
</a>
</g>
</g>
<!-- Node1&#45;&gt;Node11 -->
<g id="edge18_Node000001_Node000011" class="edge">
<title>Node1&#45;&gt;Node11</title>
<g id="a_edge18_Node000001_Node000011"><a xlink:title=" ">
<path fill="none" stroke="#63b8ff" d="M563.35,-628.08C459.85,-619.65 311.08,-603.89 258.26,-580 218.94,-562.22 183.16,-525.86 163.38,-503.2"/>
<polygon fill="#63b8ff" stroke="#63b8ff" points="563.29,-631.59 573.53,-628.9 563.85,-624.61 563.29,-631.59"/>
</a>
</g>
</g>
<!-- Node12 -->
<g id="Node000012" class="node">
<title>Node12</title>
<g id="a_Node000012"><a xlink:href="MonitoredItemContext_8h.html" target="_top" xlink:title=" ">
<polygon fill="white" stroke="#666666" points="529.76,-426 316.76,-426 316.76,-385 529.76,-385 529.76,-426"/>
<text text-anchor="start" x="324.76" y="-414" font-family="Helvetica,sans-Serif" font-size="10.00">/home/runner/work/open62541pp</text>
<text text-anchor="start" x="324.76" y="-403" font-family="Helvetica,sans-Serif" font-size="10.00">/open62541pp/include/open62541pp</text>
<text text-anchor="middle" x="423.26" y="-392" font-family="Helvetica,sans-Serif" font-size="10.00">/services/detail/MonitoredItemContext.h</text>
</a>
</g>
</g>
<!-- Node1&#45;&gt;Node12 -->
<g id="edge20_Node000001_Node000012" class="edge">
<title>Node1&#45;&gt;Node12</title>
<g id="a_edge20_Node000001_Node000012"><a xlink:title=" ">
<path fill="none" stroke="#63b8ff" d="M587.24,-612.27C567.52,-604.18 547.51,-593.61 531.26,-580 479.43,-536.61 444.93,-461.72 430.67,-426.24"/>
<polygon fill="#63b8ff" stroke="#63b8ff" points="585.99,-615.53 596.58,-615.92 588.54,-609.02 585.99,-615.53"/>
</a>
</g>
</g>
<!-- Node16 -->
<g id="Node000016" class="node">
<title>Node16</title>
<g id="a_Node000016"><a xlink:href="RequestHandling_8h.html" target="_top" xlink:title=" ">
<polygon fill="white" stroke="#666666" points="933.76,-272 740.76,-272 740.76,-231 933.76,-231 933.76,-272"/>
<text text-anchor="start" x="748.76" y="-260" font-family="Helvetica,sans-Serif" font-size="10.00">/home/runner/work/open62541pp</text>
<text text-anchor="start" x="748.76" y="-249" font-family="Helvetica,sans-Serif" font-size="10.00">/open62541pp/include/open62541pp</text>
<text text-anchor="middle" x="837.26" y="-238" font-family="Helvetica,sans-Serif" font-size="10.00">/services/detail/RequestHandling.h</text>
</a>
</g>
</g>
<!-- Node1&#45;&gt;Node16 -->
<g id="edge30_Node000001_Node000016" class="edge">
<title>Node1&#45;&gt;Node16</title>
<g id="a_edge30_Node000001_Node000016"><a xlink:title=" ">
<path fill="none" stroke="#63b8ff" d="M738.53,-611.23C752.84,-603.27 766.53,-593.03 776.26,-580 802.41,-544.98 795.26,-527.21 795.26,-483.5 795.26,-483.5 795.26,-483.5 795.26,-404.5 795.26,-355.49 815.79,-300.71 828.14,-272.18"/>
<polygon fill="#63b8ff" stroke="#63b8ff" points="736.82,-608.17 729.57,-615.88 740.05,-614.38 736.82,-608.17"/>
</a>
</g>
</g>
<!-- Node17 -->
<g id="Node000017" class="node">
<title>Node17</title>
<g id="a_Node000017"><a xlink:href="ResponseHandling_8h.html" target="_top" xlink:title=" ">
<polygon fill="white" stroke="#666666" points="684.26,-272 490.26,-272 490.26,-231 684.26,-231 684.26,-272"/>
<text text-anchor="start" x="498.26" y="-260" font-family="Helvetica,sans-Serif" font-size="10.00">/home/runner/work/open62541pp</text>
<text text-anchor="start" x="498.26" y="-249" font-family="Helvetica,sans-Serif" font-size="10.00">/open62541pp/include/open62541pp</text>
<text text-anchor="middle" x="587.26" y="-238" font-family="Helvetica,sans-Serif" font-size="10.00">/services/detail/ResponseHandling.h</text>
</a>
</g>
</g>
<!-- Node1&#45;&gt;Node17 -->
<g id="edge35_Node000001_Node000017" class="edge">
<title>Node1&#45;&gt;Node17</title>
<g id="a_edge35_Node000001_Node000017"><a xlink:title=" ">
<path fill="none" stroke="#63b8ff" d="M597.68,-611.12C584.37,-603.29 572.2,-593.12 564.26,-580 532.75,-527.95 569.79,-334.93 582.96,-272.28"/>
<polygon fill="#63b8ff" stroke="#63b8ff" points="596.1,-614.24 606.56,-615.93 599.44,-608.09 596.1,-614.24"/>
</a>
</g>
</g>
<!-- Node18 -->
<g id="Node000018" class="node">
<title>Node18</title>
<g id="a_Node000018"><a xlink:href="Composed_8h.html" target="_top" xlink:title=" ">
<polygon fill="white" stroke="#666666" points="1016.76,-503 823.76,-503 823.76,-462 1016.76,-462 1016.76,-503"/>
<text text-anchor="start" x="831.76" y="-491" font-family="Helvetica,sans-Serif" font-size="10.00">/home/runner/work/open62541pp</text>
<text text-anchor="start" x="831.76" y="-480" font-family="Helvetica,sans-Serif" font-size="10.00">/open62541pp/include/open62541pp</text>
<text text-anchor="middle" x="920.26" y="-469" font-family="Helvetica,sans-Serif" font-size="10.00">/types/Composed.h</text>
</a>
</g>
</g>
<!-- Node1&#45;&gt;Node18 -->
<g id="edge40_Node000001_Node000018" class="edge">
<title>Node1&#45;&gt;Node18</title>
<g id="a_edge40_Node000001_Node000018"><a xlink:title=" ">
<path fill="none" stroke="#63b8ff" d="M741.39,-612.37C763.87,-603.7 788.29,-592.79 809.26,-580 845.23,-558.06 880.94,-524.31 901.79,-503.09"/>
<polygon fill="#63b8ff" stroke="#63b8ff" points="740.01,-609.15 731.89,-615.95 742.48,-615.7 740.01,-609.15"/>
</a>
</g>
</g>
<!-- Node20 -->
<g id="Node000020" class="node">
<title>Node20</title>
<g id="a_Node000020"><a xlink:href="DataValue_8h.html" target="_top" xlink:title=" ">
<polygon fill="white" stroke="#666666" points="766.76,-580 573.76,-580 573.76,-539 766.76,-539 766.76,-580"/>
<text text-anchor="start" x="581.76" y="-568" font-family="Helvetica,sans-Serif" font-size="10.00">/home/runner/work/open62541pp</text>
<text text-anchor="start" x="581.76" y="-557" font-family="Helvetica,sans-Serif" font-size="10.00">/open62541pp/include/open62541pp</text>
<text text-anchor="middle" x="670.26" y="-546" font-family="Helvetica,sans-Serif" font-size="10.00">/types/DataValue.h</text>
</a>
</g>
</g>
<!-- Node1&#45;&gt;Node20 -->
<g id="edge51_Node000001_Node000020" class="edge">
<title>Node1&#45;&gt;Node20</title>
<g id="a_edge51_Node000001_Node000020"><a xlink:title=" ">
<path fill="none" stroke="#63b8ff" d="M670.26,-605.69C670.26,-597.08 670.26,-587.9 670.26,-580.07"/>
<polygon fill="#63b8ff" stroke="#63b8ff" points="666.76,-605.79 670.26,-615.79 673.76,-605.79 666.76,-605.79"/>
</a>
</g>
</g>
<!-- Node2&#45;&gt;Node3 -->
<g id="edge2_Node000002_Node000003" class="edge">
<title>Node2&#45;&gt;Node3</title>
<g id="a_edge2_Node000002_Node000003"><a xlink:title=" ">
<path fill="none" stroke="#63b8ff" d="M1017.94,-73.54C1046.76,-63.15 1080.47,-50.99 1108.06,-41.04"/>
<polygon fill="#63b8ff" stroke="#63b8ff" points="1016.58,-70.31 1008.36,-76.99 1018.96,-76.89 1016.58,-70.31"/>
</a>
</g>
</g>
<!-- Node4&#45;&gt;Node2 -->
<g id="edge5_Node000004_Node000002" class="edge">
<title>Node4&#45;&gt;Node2</title>
<g id="a_edge5_Node000004_Node000002"><a xlink:title=" ">
<path fill="none" stroke="#63b8ff" d="M387.06,-153.82C573.99,-129.08 623.99,-138.13 808.26,-118 823.76,-116.31 840.17,-114.31 856.17,-112.26"/>
<polygon fill="#63b8ff" stroke="#63b8ff" points="386.34,-150.39 376.89,-155.18 387.27,-157.32 386.34,-150.39"/>
</a>
</g>
</g>
<!-- Node5 -->
<g id="Node000005" class="node">
<title>Node5</title>
<g id="a_Node000005"><a xlink:href="Attribute__highlevel_8h.html" target="_top" xlink:title=" ">
<polygon fill="white" stroke="#666666" points="376.76,-118 183.76,-118 183.76,-77 376.76,-77 376.76,-118"/>
<text text-anchor="start" x="191.76" y="-106" font-family="Helvetica,sans-Serif" font-size="10.00">/home/runner/work/open62541pp</text>
<text text-anchor="start" x="191.76" y="-95" font-family="Helvetica,sans-Serif" font-size="10.00">/open62541pp/include/open62541pp</text>
<text text-anchor="middle" x="280.26" y="-84" font-family="Helvetica,sans-Serif" font-size="10.00">/services/Attribute_highlevel.h</text>
</a>
</g>
</g>
<!-- Node4&#45;&gt;Node5 -->
<g id="edge6_Node000004_Node000005" class="edge">
<title>Node4&#45;&gt;Node5</title>
<g id="a_edge6_Node000004_Node000005"><a xlink:title=" ">
<path fill="none" stroke="#63b8ff" d="M273.64,-143.69C273.35,-135.08 273.55,-125.9 274.25,-118.07"/>
<polygon fill="#63b8ff" stroke="#63b8ff" points="270.15,-144.02 274.23,-153.79 277.14,-143.6 270.15,-144.02"/>
</a>
</g>
</g>
<!-- Node6 -->
<g id="Node000006" class="node">
<title>Node6</title>
<g id="a_Node000006"><a xlink:href="services_8h.html" target="_top" xlink:title=" ">
<polygon fill="white" stroke="#666666" points="798.76,-118 605.76,-118 605.76,-77 798.76,-77 798.76,-118"/>
<text text-anchor="start" x="613.76" y="-106" font-family="Helvetica,sans-Serif" font-size="10.00">/home/runner/work/open62541pp</text>
<text text-anchor="start" x="613.76" y="-95" font-family="Helvetica,sans-Serif" font-size="10.00">/open62541pp/include/open62541pp</text>
<text text-anchor="middle" x="702.26" y="-84" font-family="Helvetica,sans-Serif" font-size="10.00">/services/services.h</text>
</a>
</g>
</g>
<!-- Node4&#45;&gt;Node6 -->
<g id="edge8_Node000004_Node000006" class="edge">
<title>Node4&#45;&gt;Node6</title>
<g id="a_edge8_Node000004_Node000006"><a xlink:title=" ">
<path fill="none" stroke="#63b8ff" d="M386.88,-153.72C481.01,-137.09 506.29,-134.17 597.26,-118 600,-117.51 602.77,-117.02 605.58,-116.51"/>
<polygon fill="#63b8ff" stroke="#63b8ff" points="386.17,-150.3 376.94,-155.49 387.4,-157.19 386.17,-150.3"/>
</a>
</g>
</g>
<!-- Node5&#45;&gt;Node4 -->
<g id="edge7_Node000005_Node000004" class="edge">
<title>Node5&#45;&gt;Node4</title>
<g id="a_edge7_Node000005_Node000004"><a xlink:title=" ">
<path fill="none" stroke="#63b8ff" d="M286.87,-128.16C287.17,-136.77 286.97,-145.96 286.28,-153.79"/>
<polygon fill="#63b8ff" stroke="#63b8ff" points="290.36,-127.85 286.27,-118.07 283.37,-128.27 290.36,-127.85"/>
</a>
</g>
</g>
<!-- Node6&#45;&gt;Node3 -->
<g id="edge9_Node000006_Node000003" class="edge">
<title>Node6&#45;&gt;Node3</title>
<g id="a_edge9_Node000006_Node000003"><a xlink:title=" ">
<path fill="none" stroke="#63b8ff" d="M809.24,-79.06C886.76,-66.42 990.68,-49.47 1065.68,-37.25"/>
<polygon fill="#63b8ff" stroke="#63b8ff" points="808.28,-75.67 798.97,-80.73 809.4,-82.58 808.28,-75.67"/>
</a>
</g>
</g>
<!-- Node7&#45;&gt;Node2 -->
<g id="edge11_Node000007_Node000002" class="edge">
<title>Node7&#45;&gt;Node2</title>
<g id="a_edge11_Node000007_Node000002"><a xlink:title=" ">
<path fill="none" stroke="#63b8ff" d="M928.93,-144.83C933.82,-135.89 939.09,-126.24 943.56,-118.07"/>
<polygon fill="#63b8ff" stroke="#63b8ff" points="925.76,-143.34 924.03,-153.79 931.9,-146.7 925.76,-143.34"/>
</a>
</g>
</g>
<!-- Node7&#45;&gt;Node6 -->
<g id="edge12_Node000007_Node000006" class="edge">
<title>Node7&#45;&gt;Node6</title>
<g id="a_edge12_Node000007_Node000006"><a xlink:title=" ">
<path fill="none" stroke="#63b8ff" d="M848.66,-150.54C819.42,-140.15 785.22,-127.99 757.24,-118.04"/>
<polygon fill="#63b8ff" stroke="#63b8ff" points="847.78,-153.94 858.37,-153.99 850.12,-147.34 847.78,-153.94"/>
</a>
</g>
</g>
<!-- Node8&#45;&gt;Node2 -->
<g id="edge14_Node000008_Node000002" class="edge">
<title>Node8&#45;&gt;Node2</title>
<g id="a_edge14_Node000008_Node000002"><a xlink:title=" ">
<path fill="none" stroke="#63b8ff" d="M597.92,-153.91C691.38,-138.13 786.7,-123.45 856.03,-113.02"/>
<polygon fill="#63b8ff" stroke="#63b8ff" points="597.28,-150.47 588,-155.59 598.44,-157.37 597.28,-150.47"/>
</a>
</g>
</g>
<!-- Node8&#45;&gt;Node6 -->
<g id="edge17_Node000008_Node000006" class="edge">
<title>Node8&#45;&gt;Node6</title>
<g id="a_edge17_Node000008_Node000006"><a xlink:title=" ">
<path fill="none" stroke="#63b8ff" d="M555.85,-150.54C585.09,-140.15 619.29,-127.99 647.28,-118.04"/>
<polygon fill="#63b8ff" stroke="#63b8ff" points="554.39,-147.34 546.14,-153.99 556.74,-153.94 554.39,-147.34"/>
</a>
</g>
</g>
<!-- Node9 -->
<g id="Node000009" class="node">
<title>Node9</title>
<g id="a_Node000009"><a xlink:href="NodeContext_8h.html" target="_top" xlink:title=" ">
<polygon fill="white" stroke="#666666" points="587.76,-118 394.76,-118 394.76,-77 587.76,-77 587.76,-118"/>
<text text-anchor="start" x="402.76" y="-106" font-family="Helvetica,sans-Serif" font-size="10.00">/home/runner/work/open62541pp</text>
<text text-anchor="start" x="402.76" y="-95" font-family="Helvetica,sans-Serif" font-size="10.00">/open62541pp/include/open62541pp</text>
<text text-anchor="middle" x="491.26" y="-84" font-family="Helvetica,sans-Serif" font-size="10.00">/detail/NodeContext.h</text>
</a>
</g>
</g>
<!-- Node8&#45;&gt;Node9 -->
<g id="edge15_Node000008_Node000009" class="edge">
<title>Node8&#45;&gt;Node9</title>
<g id="a_edge15_Node000008_Node000009"><a xlink:title=" ">
<path fill="none" stroke="#63b8ff" d="M491.26,-143.69C491.26,-135.08 491.26,-125.9 491.26,-118.07"/>
<polygon fill="#63b8ff" stroke="#63b8ff" points="487.76,-143.79 491.26,-153.79 494.76,-143.79 487.76,-143.79"/>
</a>
</g>
</g>
<!-- Node10 -->
<g id="Node000010" class="node">
<title>Node10</title>
<g id="a_Node000010"><a xlink:href="ServerContext_8h.html" target="_top" xlink:title=" ">
<polygon fill="white" stroke="#666666" points="372.76,-41 179.76,-41 179.76,0 372.76,0 372.76,-41"/>
<text text-anchor="start" x="187.76" y="-29" font-family="Helvetica,sans-Serif" font-size="10.00">/home/runner/work/open62541pp</text>
<text text-anchor="start" x="187.76" y="-18" font-family="Helvetica,sans-Serif" font-size="10.00">/open62541pp/include/open62541pp</text>
<text text-anchor="middle" x="276.26" y="-7" font-family="Helvetica,sans-Serif" font-size="10.00">/detail/ServerContext.h</text>
</a>
</g>
</g>
<!-- Node9&#45;&gt;Node10 -->
<g id="edge16_Node000009_Node000010" class="edge">
<title>Node9&#45;&gt;Node10</title>
<g id="a_edge16_Node000009_Node000010"><a xlink:title=" ">
<path fill="none" stroke="#63b8ff" d="M425.82,-73.67C395.95,-63.25 360.92,-51.03 332.28,-41.04"/>
<polygon fill="#63b8ff" stroke="#63b8ff" points="424.74,-77 435.33,-76.99 427.04,-70.39 424.74,-77"/>
</a>
</g>
</g>
<!-- Node11&#45;&gt;Node4 -->
<g id="edge19_Node000011_Node000004" class="edge">
<title>Node11&#45;&gt;Node4</title>
<g id="a_edge19_Node000011_Node000004"><a xlink:title=" ">
<path fill="none" stroke="#63b8ff" d="M139.75,-451.94C128.82,-401.74 114.47,-298.69 160.26,-231 171.19,-214.84 188.09,-203.29 205.79,-195.08"/>
<polygon fill="#63b8ff" stroke="#63b8ff" points="136.37,-452.85 142.01,-461.82 143.19,-451.29 136.37,-452.85"/>
</a>
</g>
</g>
<!-- Node12&#45;&gt;Node10 -->
<g id="edge29_Node000012_Node000010" class="edge">
<title>Node12&#45;&gt;Node10</title>
<g id="a_edge29_Node000012_Node000010"><a xlink:title=" ">
<path fill="none" stroke="#63b8ff" d="M350.6,-381.13C330.86,-372.8 310.27,-362.15 293.26,-349 224.83,-296.09 202.2,-276.86 174.26,-195 157.32,-145.37 147.46,-122.08 174.26,-77 183.73,-61.06 199.57,-49.4 215.98,-41.02"/>
<polygon fill="#63b8ff" stroke="#63b8ff" points="349.31,-384.38 359.89,-384.9 351.95,-377.9 349.31,-384.38"/>
</a>
</g>
</g>
<!-- Node13 -->
<g id="Node000013" class="node">
<title>Node13</title>
<g id="a_Node000013"><a xlink:href="ClientContext_8h.html" target="_top" xlink:title=" ">
<polygon fill="white" stroke="#666666" points="495.76,-349 302.76,-349 302.76,-308 495.76,-308 495.76,-349"/>
<text text-anchor="start" x="310.76" y="-337" font-family="Helvetica,sans-Serif" font-size="10.00">/home/runner/work/open62541pp</text>
<text text-anchor="start" x="310.76" y="-326" font-family="Helvetica,sans-Serif" font-size="10.00">/open62541pp/include/open62541pp</text>
<text text-anchor="middle" x="399.26" y="-315" font-family="Helvetica,sans-Serif" font-size="10.00">/detail/ClientContext.h</text>
</a>
</g>
</g>
<!-- Node12&#45;&gt;Node13 -->
<g id="edge21_Node000012_Node000013" class="edge">
<title>Node12&#45;&gt;Node13</title>
<g id="a_edge21_Node000012_Node000013"><a xlink:title=" ">
<path fill="none" stroke="#63b8ff" d="M413.9,-375.26C411.09,-366.48 408.08,-357.07 405.52,-349.07"/>
<polygon fill="#63b8ff" stroke="#63b8ff" points="410.57,-376.34 416.95,-384.79 417.24,-374.2 410.57,-376.34"/>
</a>
</g>
</g>
<!-- Node14 -->
<g id="Node000014" class="node">
<title>Node14</title>
<g id="a_Node000014"><a xlink:href="ClientService_8h.html" target="_top" xlink:title=" ">
<polygon fill="white" stroke="#666666" points="471.76,-272 278.76,-272 278.76,-231 471.76,-231 471.76,-272"/>
<text text-anchor="start" x="286.76" y="-260" font-family="Helvetica,sans-Serif" font-size="10.00">/home/runner/work/open62541pp</text>
<text text-anchor="start" x="286.76" y="-249" font-family="Helvetica,sans-Serif" font-size="10.00">/open62541pp/include/open62541pp</text>
<text text-anchor="middle" x="375.26" y="-238" font-family="Helvetica,sans-Serif" font-size="10.00">/services/detail/ClientService.h</text>
</a>
</g>
</g>
<!-- Node13&#45;&gt;Node14 -->
<g id="edge22_Node000013_Node000014" class="edge">
<title>Node13&#45;&gt;Node14</title>
<g id="a_edge22_Node000013_Node000014"><a xlink:title=" ">
<path fill="none" stroke="#63b8ff" d="M389.9,-298.26C387.09,-289.48 384.08,-280.07 381.52,-272.07"/>
<polygon fill="#63b8ff" stroke="#63b8ff" points="386.57,-299.34 392.95,-307.79 393.24,-297.2 386.57,-299.34"/>
</a>
</g>
</g>
<!-- Node14&#45;&gt;Node4 -->
<g id="edge23_Node000014_Node000004" class="edge">
<title>Node14&#45;&gt;Node4</title>
<g id="a_edge23_Node000014_Node000004"><a xlink:title=" ">
<path fill="none" stroke="#63b8ff" d="M342.13,-224.35C329.95,-214.73 316.37,-204.01 305.05,-195.07"/>
<polygon fill="#63b8ff" stroke="#63b8ff" points="340.28,-227.35 350.3,-230.79 344.62,-221.85 340.28,-227.35"/>
</a>
</g>
</g>
<!-- Node14&#45;&gt;Node7 -->
<g id="edge24_Node000014_Node000007" class="edge">
<title>Node14&#45;&gt;Node7</title>
<g id="a_edge24_Node000014_Node000007"><a xlink:title=" ">
<path fill="none" stroke="#63b8ff" d="M482.17,-230.93C627.67,-210.04 666.86,-215.88 808.26,-195 811.01,-194.59 813.8,-194.17 816.61,-193.73"/>
<polygon fill="#63b8ff" stroke="#63b8ff" points="481.36,-227.51 471.97,-232.41 482.37,-234.44 481.36,-227.51"/>
</a>
</g>
</g>
<!-- Node14&#45;&gt;Node8 -->
<g id="edge25_Node000014_Node000008" class="edge">
<title>Node14&#45;&gt;Node8</title>
<g id="a_edge25_Node000014_Node000008"><a xlink:title=" ">
<path fill="none" stroke="#63b8ff" d="M414.13,-225.37C429.35,-215.53 446.54,-204.41 460.83,-195.17"/>
<polygon fill="#63b8ff" stroke="#63b8ff" points="411.93,-222.62 405.43,-230.99 415.73,-228.5 411.93,-222.62"/>
</a>
</g>
</g>
<!-- Node15 -->
<g id="Node000015" class="node">
<title>Node15</title>
<g id="a_Node000015"><a xlink:href="View_8h.html" target="_top" xlink:title=" ">
<polygon fill="white" stroke="#666666" points="798.76,-195 605.76,-195 605.76,-154 798.76,-154 798.76,-195"/>
<text text-anchor="start" x="613.76" y="-183" font-family="Helvetica,sans-Serif" font-size="10.00">/home/runner/work/open62541pp</text>
<text text-anchor="start" x="613.76" y="-172" font-family="Helvetica,sans-Serif" font-size="10.00">/open62541pp/include/open62541pp</text>
<text text-anchor="middle" x="702.26" y="-161" font-family="Helvetica,sans-Serif" font-size="10.00">/services/View.h</text>
</a>
</g>
</g>
<!-- Node14&#45;&gt;Node15 -->
<g id="edge26_Node000014_Node000015" class="edge">
<title>Node14&#45;&gt;Node15</title>
<g id="a_edge26_Node000014_Node000015"><a xlink:title=" ">
<path fill="none" stroke="#63b8ff" d="M470.08,-228.75C516.52,-218.1 571.98,-205.38 617.05,-195.04"/>
<polygon fill="#63b8ff" stroke="#63b8ff" points="469.28,-225.34 460.32,-230.99 470.85,-232.17 469.28,-225.34"/>
</a>
</g>
</g>
<!-- Node15&#45;&gt;Node2 -->
<g id="edge27_Node000015_Node000002" class="edge">
<title>Node15&#45;&gt;Node2</title>
<g id="a_edge27_Node000015_Node000002"><a xlink:title=" ">
<path fill="none" stroke="#63b8ff" d="M777.59,-151.08C812.9,-140.57 854.59,-128.16 888.6,-118.04"/>
<polygon fill="#63b8ff" stroke="#63b8ff" points="776.4,-147.78 767.81,-153.99 778.39,-154.49 776.4,-147.78"/>
</a>
</g>
</g>
<!-- Node15&#45;&gt;Node6 -->
<g id="edge28_Node000015_Node000006" class="edge">
<title>Node15&#45;&gt;Node6</title>
<g id="a_edge28_Node000015_Node000006"><a xlink:title=" ">
<path fill="none" stroke="#63b8ff" d="M702.26,-143.69C702.26,-135.08 702.26,-125.9 702.26,-118.07"/>
<polygon fill="#63b8ff" stroke="#63b8ff" points="698.76,-143.79 702.26,-153.79 705.76,-143.79 698.76,-143.79"/>
</a>
</g>
</g>
<!-- Node16&#45;&gt;Node4 -->
<g id="edge31_Node000016_Node000004" class="edge">
<title>Node16&#45;&gt;Node4</title>
<g id="a_edge31_Node000016_Node000004"><a xlink:title=" ">
<path fill="none" stroke="#63b8ff" d="M730.44,-235.81C717.91,-234.16 705.3,-232.52 693.26,-231 556.52,-213.75 521.53,-215.59 385.26,-195 382.51,-194.58 379.72,-194.15 376.91,-193.7"/>
<polygon fill="#63b8ff" stroke="#63b8ff" points="730.09,-239.3 740.47,-237.15 731.01,-232.36 730.09,-239.3"/>
</a>
</g>
</g>
<!-- Node16&#45;&gt;Node7 -->
<g id="edge32_Node000016_Node000007" class="edge">
<title>Node16&#45;&gt;Node7</title>
<g id="a_edge32_Node000016_Node000007"><a xlink:title=" ">
<path fill="none" stroke="#63b8ff" d="M864.6,-223.51C874.13,-214.11 884.63,-203.76 893.42,-195.07"/>
<polygon fill="#63b8ff" stroke="#63b8ff" points="861.88,-221.28 857.23,-230.79 866.8,-226.26 861.88,-221.28"/>
</a>
</g>
</g>
<!-- Node16&#45;&gt;Node8 -->
<g id="edge33_Node000016_Node000008" class="edge">
<title>Node16&#45;&gt;Node8</title>
<g id="a_edge33_Node000016_Node000008"><a xlink:title=" ">
<path fill="none" stroke="#63b8ff" d="M737.23,-228.82C688.04,-218.15 629.2,-205.4 581.41,-195.04"/>
<polygon fill="#63b8ff" stroke="#63b8ff" points="736.74,-232.29 747.25,-230.99 738.22,-225.45 736.74,-232.29"/>
</a>
</g>
</g>
<!-- Node16&#45;&gt;Node15 -->
<g id="edge34_Node000016_Node000015" class="edge">
<title>Node16&#45;&gt;Node15</title>
<g id="a_edge34_Node000016_Node000015"><a xlink:title=" ">
<path fill="none" stroke="#63b8ff" d="M793.01,-225.92C775.06,-215.95 754.61,-204.58 737.67,-195.17"/>
<polygon fill="#63b8ff" stroke="#63b8ff" points="791.7,-229.19 802.14,-230.99 795.1,-223.07 791.7,-229.19"/>
</a>
</g>
</g>
<!-- Node17&#45;&gt;Node4 -->
<g id="edge36_Node000017_Node000004" class="edge">
<title>Node17&#45;&gt;Node4</title>
<g id="a_edge36_Node000017_Node000004"><a xlink:title=" ">
<path fill="none" stroke="#63b8ff" d="M497.68,-228.62C454.2,-217.99 402.39,-205.34 360.25,-195.04"/>
<polygon fill="#63b8ff" stroke="#63b8ff" points="496.85,-232.02 507.4,-230.99 498.51,-225.22 496.85,-232.02"/>
</a>
</g>
</g>
<!-- Node17&#45;&gt;Node7 -->
<g id="edge37_Node000017_Node000007" class="edge">
<title>Node17&#45;&gt;Node7</title>
<g id="a_edge37_Node000017_Node000007"><a xlink:title=" ">
<path fill="none" stroke="#63b8ff" d="M682.08,-228.68C728.32,-218.05 783.47,-205.36 828.31,-195.04"/>
<polygon fill="#63b8ff" stroke="#63b8ff" points="681.02,-225.34 672.06,-230.99 682.59,-232.16 681.02,-225.34"/>
</a>
</g>
</g>
<!-- Node17&#45;&gt;Node8 -->
<g id="edge38_Node000017_Node000008" class="edge">
<title>Node17&#45;&gt;Node8</title>
<g id="a_edge38_Node000017_Node000008"><a xlink:title=" ">
<path fill="none" stroke="#63b8ff" d="M554.38,-224.82C541.96,-215.11 528.04,-204.24 516.44,-195.17"/>
<polygon fill="#63b8ff" stroke="#63b8ff" points="552.25,-227.59 562.29,-230.99 556.56,-222.08 552.25,-227.59"/>
</a>
</g>
</g>
<!-- Node17&#45;&gt;Node15 -->
<g id="edge39_Node000017_Node000015" class="edge">
<title>Node17&#45;&gt;Node15</title>
<g id="a_edge39_Node000017_Node000015"><a xlink:title=" ">
<path fill="none" stroke="#63b8ff" d="M625.79,-225.37C640.88,-215.53 657.93,-204.41 672.09,-195.17"/>
<polygon fill="#63b8ff" stroke="#63b8ff" points="623.64,-222.6 617.17,-230.99 627.46,-228.46 623.64,-222.6"/>
</a>
</g>
</g>
<!-- Node18&#45;&gt;Node2 -->
<g id="edge43_Node000018_Node000002" class="edge">
<title>Node18&#45;&gt;Node2</title>
<g id="a_edge43_Node000018_Node000002"><a xlink:title=" ">
<path fill="none" stroke="#63b8ff" d="M930.76,-451.95C955.79,-381.44 1017.04,-208.2 1019.26,-195 1022.27,-177.03 1026.89,-170.55 1019.26,-154 1012.55,-139.45 999.93,-127.3 987.58,-118.11"/>
<polygon fill="#63b8ff" stroke="#63b8ff" points="927.39,-450.98 927.34,-461.58 933.99,-453.33 927.39,-450.98"/>
</a>
</g>
</g>
<!-- Node18&#45;&gt;Node3 -->
<g id="edge44_Node000018_Node000003" class="edge">
<title>Node18&#45;&gt;Node3</title>
<g id="a_edge44_Node000018_Node000003"><a xlink:title=" ">
<path fill="none" stroke="#63b8ff" d="M941.89,-453.58C948.15,-444.95 954.77,-435.28 960.26,-426 989.79,-376.03 990.63,-360.09 1016.26,-308 1065.91,-207.06 1127.85,-87.53 1151.98,-41.2"/>
<polygon fill="#63b8ff" stroke="#63b8ff" points="938.94,-451.68 935.8,-461.8 944.56,-455.85 938.94,-451.68"/>
</a>
</g>
</g>
<!-- Node18&#45;&gt;Node4 -->
<g id="edge45_Node000018_Node000004" class="edge">
<title>Node18&#45;&gt;Node4</title>
<g id="a_edge45_Node000018_Node000004"><a xlink:title=" ">
<path fill="none" stroke="#63b8ff" d="M872.8,-457.21C796.95,-419.42 642.8,-346.88 504.26,-308 453.39,-293.73 303.67,-312.09 269.26,-272 251.02,-250.76 261.06,-216.49 270.37,-195.02"/>
<polygon fill="#63b8ff" stroke="#63b8ff" points="871.59,-460.51 882.1,-461.86 874.72,-454.25 871.59,-460.51"/>
</a>
</g>
</g>
<!-- Node18&#45;&gt;Node7 -->
<g id="edge46_Node000018_Node000007" class="edge">
<title>Node18&#45;&gt;Node7</title>
<g id="a_edge46_Node000018_Node000007"><a xlink:title=" ">
<path fill="none" stroke="#63b8ff" d="M919.23,-451.47C919.15,-415.67 922.68,-354.8 944.26,-308 953.22,-288.56 968.65,-292.01 976.26,-272 982.73,-254.97 983.76,-247.61 976.26,-231 969.72,-216.52 957.32,-204.31 945.25,-195.06"/>
<polygon fill="#63b8ff" stroke="#63b8ff" points="915.74,-451.78 919.36,-461.74 922.74,-451.69 915.74,-451.78"/>
</a>
</g>
</g>
<!-- Node18&#45;&gt;Node8 -->
<g id="edge47_Node000018_Node000008" class="edge">
<title>Node18&#45;&gt;Node8</title>
<g id="a_edge47_Node000018_Node000008"><a xlink:title=" ">
<path fill="none" stroke="#63b8ff" d="M883.86,-455.64C872.32,-446.78 859.82,-436.45 849.26,-426 829.53,-406.49 716.43,-246.25 693.26,-231 674.65,-218.75 627.6,-205.52 583.58,-195.05"/>
<polygon fill="#63b8ff" stroke="#63b8ff" points="881.96,-458.6 892.05,-461.82 886.17,-453.01 881.96,-458.6"/>
</a>
</g>
</g>
<!-- Node18&#45;&gt;Node12 -->
<g id="edge49_Node000018_Node000012" class="edge">
<title>Node18&#45;&gt;Node12</title>
<g id="a_edge49_Node000018_Node000012"><a xlink:title=" ">
<path fill="none" stroke="#63b8ff" d="M813.5,-465.39C729.77,-452.75 613.79,-435.25 530.05,-422.62"/>
<polygon fill="#63b8ff" stroke="#63b8ff" points="813.14,-468.87 823.55,-466.91 814.18,-461.95 813.14,-468.87"/>
</a>
</g>
</g>
<!-- Node18&#45;&gt;Node15 -->
<g id="edge48_Node000018_Node000015" class="edge">
<title>Node18&#45;&gt;Node15</title>
<g id="a_edge48_Node000018_Node000015"><a xlink:title=" ">
<path fill="none" stroke="#63b8ff" d="M917.08,-451.72C916.33,-443.4 915.63,-434.36 915.26,-426 912.89,-373.38 911.12,-358.45 926.26,-308 931.34,-291.05 939.39,-289.27 943.26,-272 947.24,-254.22 954.6,-245.26 943.26,-231 938.48,-225 863.84,-208.38 798.88,-194.88"/>
<polygon fill="#63b8ff" stroke="#63b8ff" points="913.6,-452.13 918.04,-461.75 920.57,-451.46 913.6,-452.13"/>
</a>
</g>
</g>
<!-- Node18&#45;&gt;Node16 -->
<g id="edge50_Node000018_Node000016" class="edge">
<title>Node18&#45;&gt;Node16</title>
<g id="a_edge50_Node000018_Node000016"><a xlink:title=" ">
<path fill="none" stroke="#63b8ff" d="M889.21,-454.6C881.25,-446.2 873.47,-436.39 868.26,-426 842.54,-374.72 837.86,-305.48 837.2,-272.1"/>
<polygon fill="#63b8ff" stroke="#63b8ff" points="886.96,-457.3 896.5,-461.89 891.91,-452.35 886.96,-457.3"/>
</a>
</g>
</g>
<!-- Node19 -->
<g id="Node000019" class="node">
<title>Node19</title>
<g id="a_Node000019"><a xlink:href="AccessControl_8h.html" target="_top" xlink:title=" ">
<polygon fill="white" stroke="#666666" points="1217.76,-349 1024.76,-349 1024.76,-308 1217.76,-308 1217.76,-349"/>
<text text-anchor="start" x="1032.76" y="-337" font-family="Helvetica,sans-Serif" font-size="10.00">/home/runner/work/open62541pp</text>
<text text-anchor="start" x="1032.76" y="-326" font-family="Helvetica,sans-Serif" font-size="10.00">/open62541pp/include/open62541pp</text>
<text text-anchor="middle" x="1121.26" y="-315" font-family="Helvetica,sans-Serif" font-size="10.00">/AccessControl.h</text>
</a>
</g>
</g>
<!-- Node18&#45;&gt;Node19 -->
<g id="edge41_Node000018_Node000019" class="edge">
<title>Node18&#45;&gt;Node19</title>
<g id="a_edge41_Node000018_Node000019"><a xlink:title=" ">
<path fill="none" stroke="#63b8ff" d="M963.55,-456.76C978.68,-447.61 995.55,-436.82 1010.26,-426 1043.58,-401.49 1079.18,-369.36 1100.83,-349.06"/>
<polygon fill="#63b8ff" stroke="#63b8ff" points="961.66,-453.81 954.88,-461.95 965.25,-459.82 961.66,-453.81"/>
</a>
</g>
</g>
<!-- Node19&#45;&gt;Node3 -->
<g id="edge42_Node000019_Node000003" class="edge">
<title>Node19&#45;&gt;Node3</title>
<g id="a_edge42_Node000019_Node000003"><a xlink:title=" ">
<path fill="none" stroke="#63b8ff" d="M1128.24,-297.79C1130.04,-289.47 1131.86,-280.41 1133.26,-272 1147.42,-186.48 1157.02,-83.4 1160.65,-41.08"/>
<polygon fill="#63b8ff" stroke="#63b8ff" points="1124.77,-297.29 1126,-307.81 1131.6,-298.81 1124.77,-297.29"/>
</a>
</g>
</g>
<!-- Node20&#45;&gt;Node2 -->
<g id="edge52_Node000020_Node000002" class="edge">
<title>Node20&#45;&gt;Node2</title>
<g id="a_edge52_Node000020_Node000002"><a xlink:title=" ">
<path fill="none" stroke="#63b8ff" d="M777.22,-555.61C849.97,-550.38 947.02,-536.89 1026.26,-503 1129.73,-458.74 1177.45,-449.92 1227.26,-349 1281.35,-239.41 1104.77,-154.5 1010.12,-118.01"/>
<polygon fill="#63b8ff" stroke="#63b8ff" points="776.86,-552.12 767.12,-556.29 777.33,-559.11 776.86,-552.12"/>
</a>
</g>
</g>
<!-- Node20&#45;&gt;Node3 -->
<g id="edge53_Node000020_Node000003" class="edge">
<title>Node20&#45;&gt;Node3</title>
<g id="a_edge53_Node000020_Node000003"><a xlink:title=" ">
<path fill="none" stroke="#63b8ff" d="M776.86,-557.46C863.08,-553.55 986.3,-540.9 1087.26,-503 1145.19,-481.25 1153.39,-462.64 1203.26,-426 1258.13,-385.68 1322.26,-397.59 1322.26,-329.5 1322.26,-329.5 1322.26,-329.5 1322.26,-173.5 1322.26,-109.9 1254.98,-64.87 1207.68,-41.07"/>
<polygon fill="#63b8ff" stroke="#63b8ff" points="776.64,-553.97 766.8,-557.88 776.94,-560.96 776.64,-553.97"/>
</a>
</g>
</g>
<!-- Node20&#45;&gt;Node4 -->
<g id="edge54_Node000020_Node000004" class="edge">
<title>Node20&#45;&gt;Node4</title>
<g id="a_edge54_Node000020_Node000004"><a xlink:title=" ">
<path fill="none" stroke="#63b8ff" d="M563.38,-544.85C482.87,-529.19 375.12,-495.96 307.26,-426 244.81,-361.62 236.42,-318.69 255.26,-231 257.94,-218.5 263.68,-205.42 268.97,-195.09"/>
<polygon fill="#63b8ff" stroke="#63b8ff" points="563.08,-548.35 573.55,-546.76 564.37,-541.47 563.08,-548.35"/>
</a>
</g>
</g>
<!-- Node20&#45;&gt;Node11 -->
<g id="edge55_Node000020_Node000011" class="edge">
<title>Node20&#45;&gt;Node11</title>
<g id="a_edge55_Node000020_Node000011"><a xlink:title=" ">
<path fill="none" stroke="#63b8ff" d="M563.65,-543.21C469.95,-529.78 334.78,-510.39 244.12,-497.39"/>
<polygon fill="#63b8ff" stroke="#63b8ff" points="563.33,-546.7 573.72,-544.66 564.32,-539.77 563.33,-546.7"/>
</a>
</g>
</g>
<!-- Node20&#45;&gt;Node12 -->
<g id="edge56_Node000020_Node000012" class="edge">
<title>Node20&#45;&gt;Node12</title>
<g id="a_edge56_Node000020_Node000012"><a xlink:title=" ">
<path fill="none" stroke="#63b8ff" d="M629.75,-533.57C580.96,-503.54 499.98,-453.72 455.31,-426.23"/>
<polygon fill="#63b8ff" stroke="#63b8ff" points="628.12,-536.68 638.47,-538.94 631.79,-530.72 628.12,-536.68"/>
</a>
</g>
</g>
<!-- Node20&#45;&gt;Node17 -->
<g id="edge57_Node000020_Node000017" class="edge">
<title>Node20&#45;&gt;Node17</title>
<g id="a_edge57_Node000020_Node000017"><a xlink:title=" ">
<path fill="none" stroke="#63b8ff" d="M662.25,-528.97C645.44,-466.99 606.85,-324.73 592.64,-272.34"/>
<polygon fill="#63b8ff" stroke="#63b8ff" points="658.94,-530.16 664.94,-538.89 665.7,-528.33 658.94,-530.16"/>
</a>
</g>
</g>
<!-- Node20&#45;&gt;Node18 -->
<g id="edge58_Node000020_Node000018" class="edge">
<title>Node20&#45;&gt;Node18</title>
<g id="a_edge58_Node000020_Node000018"><a xlink:title=" ">
<path fill="none" stroke="#63b8ff" d="M744.99,-536.08C780.02,-525.57 821.38,-513.16 855.12,-503.04"/>
<polygon fill="#63b8ff" stroke="#63b8ff" points="743.86,-532.76 735.29,-538.99 745.87,-539.47 743.86,-532.76"/>
</a>
</g>
</g>
</g>
</svg>
