<?xml version="1.0" encoding="UTF-8" standalone="no"?>
<!DOCTYPE svg PUBLIC "-//W3C//DTD SVG 1.1//EN"
 "http://www.w3.org/Graphics/SVG/1.1/DTD/svg11.dtd">
<!-- Generated by graphviz version 2.43.0 (0)
 -->
<!-- Title: /home/runner/work/open62541pp/open62541pp/src/types/Variant.cpp Pages: 1 -->
<svg width="1709pt" height="509pt"
 viewBox="0.00 0.00 1709.30 509.00" xmlns="http://www.w3.org/2000/svg" xmlns:xlink="http://www.w3.org/1999/xlink">
<g id="graph0" class="graph" transform="scale(1 1) rotate(0) translate(4 505)">
<title>/home/runner/work/open62541pp/open62541pp/src/types/Variant.cpp</title>
<!-- Node1 -->
<g id="node1" class="node">
<title>Node1</title>
<g id="a_node1"><a xlink:title=" ">
<polygon fill="#bfbfbf" stroke="black" points="618.57,-470.5 618.57,-500.5 809.57,-500.5 809.57,-470.5 618.57,-470.5"/>
<text text-anchor="start" x="626.57" y="-488.5" font-family="Helvetica,sans-Serif" font-size="10.00">/home/runner/work/open62541pp</text>
<text text-anchor="middle" x="714.07" y="-477.5" font-family="Helvetica,sans-Serif" font-size="10.00">/open62541pp/src/types/Variant.cpp</text>
</a>
</g>
</g>
<!-- Node2 -->
<g id="node2" class="node">
<title>Node2</title>
<g id="a_node2"><a xlink:href="Variant_8h.html" target="_top" xlink:title=" ">
<polygon fill="none" stroke="black" points="995.57,-414.5 995.57,-433.5 1154.57,-433.5 1154.57,-414.5 995.57,-414.5"/>
<text text-anchor="middle" x="1075.07" y="-421.5" font-family="Helvetica,sans-Serif" font-size="10.00">open62541pp/types/Variant.h</text>
</a>
</g>
</g>
<!-- Node1&#45;&gt;Node2 -->
<g id="edge1" class="edge">
<title>Node1&#45;&gt;Node2</title>
<path fill="none" stroke="midnightblue" d="M799.17,-470.47C864.99,-459.63 954.55,-444.87 1013.54,-435.14"/>
<polygon fill="midnightblue" stroke="midnightblue" points="1014.17,-438.59 1023.46,-433.51 1013.03,-431.68 1014.17,-438.59"/>
</g>
<!-- Node25 -->
<g id="node25" class="node">
<title>Node25</title>
<g id="a_node25"><a xlink:href="helper_8h.html" target="_top" xlink:title=" ">
<polygon fill="none" stroke="black" points="739.57,-179.5 739.57,-209.5 852.57,-209.5 852.57,-179.5 739.57,-179.5"/>
<text text-anchor="start" x="747.57" y="-197.5" font-family="Helvetica,sans-Serif" font-size="10.00">open62541pp/detail</text>
<text text-anchor="middle" x="796.07" y="-186.5" font-family="Helvetica,sans-Serif" font-size="10.00">/helper.h</text>
</a>
</g>
</g>
<!-- Node1&#45;&gt;Node25 -->
<g id="edge60" class="edge">
<title>Node1&#45;&gt;Node25</title>
<path fill="none" stroke="midnightblue" d="M718.14,-470.17C731.31,-423.74 772.91,-277.14 789.32,-219.3"/>
<polygon fill="midnightblue" stroke="midnightblue" points="792.72,-220.15 792.08,-209.58 785.98,-218.24 792.72,-220.15"/>
</g>
<!-- Node29 -->
<g id="node29" class="node">
<title>Node29</title>
<g id="a_node29"><a xlink:href="NodeId_8h.html" target="_top" xlink:title=" ">
<polygon fill="none" stroke="black" points="240.57,-358.5 240.57,-377.5 399.57,-377.5 399.57,-358.5 240.57,-358.5"/>
<text text-anchor="middle" x="320.07" y="-365.5" font-family="Helvetica,sans-Serif" font-size="10.00">open62541pp/types/NodeId.h</text>
</a>
</g>
</g>
<!-- Node1&#45;&gt;Node29 -->
<g id="edge61" class="edge">
<title>Node1&#45;&gt;Node29</title>
<path fill="none" stroke="midnightblue" d="M666.16,-470.45C587.22,-447.31 431.38,-401.63 358.88,-380.37"/>
<polygon fill="midnightblue" stroke="midnightblue" points="359.8,-377 349.21,-377.54 357.83,-383.71 359.8,-377"/>
</g>
<!-- Node3 -->
<g id="node3" class="node">
<title>Node3</title>
<g id="a_node3"><a xlink:title=" ">
<polygon fill="none" stroke="#bfbfbf" points="972.07,-123.5 972.07,-142.5 1024.07,-142.5 1024.07,-123.5 972.07,-123.5"/>
<text text-anchor="middle" x="998.07" y="-130.5" font-family="Helvetica,sans-Serif" font-size="10.00">cassert</text>
</a>
</g>
</g>
<!-- Node2&#45;&gt;Node3 -->
<g id="edge2" class="edge">
<title>Node2&#45;&gt;Node3</title>
<path fill="none" stroke="midnightblue" d="M1073.12,-414.44C1068.91,-394.14 1060.46,-341.84 1075.07,-302 1097.37,-241.23 1191.95,-230.76 1153.07,-179 1153.07,-179 1080.05,-157.8 1034.25,-144.5"/>
<polygon fill="midnightblue" stroke="midnightblue" points="1034.95,-141.06 1024.37,-141.63 1033,-147.78 1034.95,-141.06"/>
</g>
<!-- Node4 -->
<g id="node4" class="node">
<title>Node4</title>
<g id="a_node4"><a xlink:title=" ">
<polygon fill="none" stroke="#bfbfbf" points="425.07,-62 425.07,-81 475.07,-81 475.07,-62 425.07,-62"/>
<text text-anchor="middle" x="450.07" y="-69" font-family="Helvetica,sans-Serif" font-size="10.00">cstdint</text>
</a>
</g>
</g>
<!-- Node2&#45;&gt;Node4 -->
<g id="edge3" class="edge">
<title>Node2&#45;&gt;Node4</title>
<path fill="none" stroke="midnightblue" d="M995.43,-422.88C752.6,-421.48 38.07,-409.18 38.07,-313 38.07,-313 38.07,-313 38.07,-193.5 38.07,-154.35 315.49,-97.98 415.04,-79.01"/>
<polygon fill="midnightblue" stroke="midnightblue" points="415.75,-82.44 424.92,-77.14 414.45,-75.56 415.75,-82.44"/>
</g>
<!-- Node5 -->
<g id="node5" class="node">
<title>Node5</title>
<g id="a_node5"><a xlink:title=" ">
<polygon fill="none" stroke="#bfbfbf" points="1466.57,-302.5 1466.57,-321.5 1519.57,-321.5 1519.57,-302.5 1466.57,-302.5"/>
<text text-anchor="middle" x="1493.07" y="-309.5" font-family="Helvetica,sans-Serif" font-size="10.00">iterator</text>
</a>
</g>
</g>
<!-- Node2&#45;&gt;Node5 -->
<g id="edge4" class="edge">
<title>Node2&#45;&gt;Node5</title>
<path fill="none" stroke="midnightblue" d="M1154.77,-422.96C1310.73,-422.04 1644.13,-415.64 1679.07,-378 1685.12,-371.49 1684.57,-364.99 1679.07,-358 1669.82,-346.24 1581.54,-328.76 1530,-319.42"/>
<polygon fill="midnightblue" stroke="midnightblue" points="1530.37,-315.93 1519.9,-317.61 1529.13,-322.82 1530.37,-315.93"/>
</g>
<!-- Node6 -->
<g id="node6" class="node">
<title>Node6</title>
<g id="a_node6"><a xlink:title=" ">
<polygon fill="none" stroke="#bfbfbf" points="1614.07,-358.5 1614.07,-377.5 1670.07,-377.5 1670.07,-358.5 1614.07,-358.5"/>
<text text-anchor="middle" x="1642.07" y="-365.5" font-family="Helvetica,sans-Serif" font-size="10.00">optional</text>
</a>
</g>
</g>
<!-- Node2&#45;&gt;Node6 -->
<g id="edge5" class="edge">
<title>Node2&#45;&gt;Node6</title>
<path fill="none" stroke="midnightblue" d="M1154.6,-419.3C1257.75,-413.78 1443.1,-401.45 1600.07,-378 1601.32,-377.81 1602.58,-377.61 1603.86,-377.4"/>
<polygon fill="midnightblue" stroke="midnightblue" points="1604.5,-380.84 1613.7,-375.59 1603.23,-373.96 1604.5,-380.84"/>
</g>
<!-- Node7 -->
<g id="node7" class="node">
<title>Node7</title>
<g id="a_node7"><a xlink:title=" ">
<polygon fill="none" stroke="#bfbfbf" points="1576.57,-302.5 1576.57,-321.5 1623.57,-321.5 1623.57,-302.5 1576.57,-302.5"/>
<text text-anchor="middle" x="1600.07" y="-309.5" font-family="Helvetica,sans-Serif" font-size="10.00">vector</text>
</a>
</g>
</g>
<!-- Node2&#45;&gt;Node7 -->
<g id="edge6" class="edge">
<title>Node2&#45;&gt;Node7</title>
<path fill="none" stroke="midnightblue" d="M1154.74,-423.13C1313.88,-422.54 1659.01,-416.77 1695.07,-378 1718.09,-353.25 1669.25,-332.84 1633.44,-321.83"/>
<polygon fill="midnightblue" stroke="midnightblue" points="1634.34,-318.45 1623.75,-318.98 1632.36,-325.16 1634.34,-318.45"/>
</g>
<!-- Node8 -->
<g id="node8" class="node">
<title>Node8</title>
<g id="a_node8"><a xlink:href="Common_8h.html" target="_top" xlink:title=" ">
<polygon fill="none" stroke="black" points="1156.57,-123.5 1156.57,-142.5 1295.57,-142.5 1295.57,-123.5 1156.57,-123.5"/>
<text text-anchor="middle" x="1226.07" y="-130.5" font-family="Helvetica,sans-Serif" font-size="10.00">open62541pp/Common.h</text>
</a>
</g>
</g>
<!-- Node2&#45;&gt;Node8 -->
<g id="edge7" class="edge">
<title>Node2&#45;&gt;Node8</title>
<path fill="none" stroke="midnightblue" d="M1154.76,-417.25C1272.57,-406.88 1484.19,-380.43 1529.07,-322 1534.49,-314.95 1533.59,-309.66 1529.07,-302 1498.32,-249.78 1328.22,-175.67 1257.22,-146.49"/>
<polygon fill="midnightblue" stroke="midnightblue" points="1258.47,-143.22 1247.89,-142.68 1255.82,-149.7 1258.47,-143.22"/>
</g>
<!-- Node13 -->
<g id="node13" class="node">
<title>Node13</title>
<g id="a_node13"><a xlink:href="open62541_8h.html" target="_top" xlink:title=" ">
<polygon fill="none" stroke="black" points="932.57,-62 932.57,-81 1081.57,-81 1081.57,-62 932.57,-62"/>
<text text-anchor="middle" x="1007.07" y="-69" font-family="Helvetica,sans-Serif" font-size="10.00">open62541pp/open62541.h</text>
</a>
</g>
</g>
<!-- Node2&#45;&gt;Node13 -->
<g id="edge59" class="edge">
<title>Node2&#45;&gt;Node13</title>
<path fill="none" stroke="midnightblue" d="M1154.73,-420.42C1319.94,-413.33 1680.75,-387.92 1633.07,-302 1560.14,-170.55 1487.15,-174.94 1346.07,-123 1262.92,-92.38 1161.79,-80.3 1091.74,-75.54"/>
<polygon fill="midnightblue" stroke="midnightblue" points="1091.84,-72.04 1081.63,-74.9 1091.39,-79.03 1091.84,-72.04"/>
</g>
<!-- Node17 -->
<g id="node17" class="node">
<title>Node17</title>
<g id="a_node17"><a xlink:href="ErrorHandling_8h.html" target="_top" xlink:title=" ">
<polygon fill="none" stroke="black" points="560.57,-185 560.57,-204 721.57,-204 721.57,-185 560.57,-185"/>
<text text-anchor="middle" x="641.07" y="-192" font-family="Helvetica,sans-Serif" font-size="10.00">open62541pp/ErrorHandling.h</text>
</a>
</g>
</g>
<!-- Node2&#45;&gt;Node17 -->
<g id="edge18" class="edge">
<title>Node2&#45;&gt;Node17</title>
<path fill="none" stroke="midnightblue" d="M995.29,-422.99C885.92,-418.13 692.91,-391.09 604.07,-266 591.53,-248.34 608.21,-225.89 623.03,-211.13"/>
<polygon fill="midnightblue" stroke="midnightblue" points="625.54,-213.56 630.45,-204.17 620.76,-208.46 625.54,-213.56"/>
</g>
<!-- Node20 -->
<g id="node20" class="node">
<title>Node20</title>
<g id="a_node20"><a xlink:href="TypeConverter_8h.html" target="_top" xlink:title=" ">
<polygon fill="none" stroke="black" points="1146.07,-358.5 1146.07,-377.5 1310.07,-377.5 1310.07,-358.5 1146.07,-358.5"/>
<text text-anchor="middle" x="1228.07" y="-365.5" font-family="Helvetica,sans-Serif" font-size="10.00">open62541pp/TypeConverter.h</text>
</a>
</g>
</g>
<!-- Node2&#45;&gt;Node20 -->
<g id="edge22" class="edge">
<title>Node2&#45;&gt;Node20</title>
<path fill="none" stroke="midnightblue" d="M1099.32,-414.44C1124.95,-405.4 1165.56,-391.06 1194.31,-380.92"/>
<polygon fill="midnightblue" stroke="midnightblue" points="1195.68,-384.15 1203.94,-377.52 1193.35,-377.54 1195.68,-384.15"/>
</g>
<!-- Node23 -->
<g id="node23" class="node">
<title>Node23</title>
<g id="a_node23"><a xlink:href="TypeWrapper_8h.html" target="_top" xlink:title=" ">
<polygon fill="none" stroke="black" points="898.07,-246.5 898.07,-265.5 1056.07,-265.5 1056.07,-246.5 898.07,-246.5"/>
<text text-anchor="middle" x="977.07" y="-253.5" font-family="Helvetica,sans-Serif" font-size="10.00">open62541pp/TypeWrapper.h</text>
</a>
</g>
</g>
<!-- Node2&#45;&gt;Node23 -->
<g id="edge57" class="edge">
<title>Node2&#45;&gt;Node23</title>
<path fill="none" stroke="midnightblue" d="M1022.8,-414.48C1001.48,-408.15 978.88,-397.14 966.07,-378 945.14,-346.71 958.75,-300.22 968.9,-274.95"/>
<polygon fill="midnightblue" stroke="midnightblue" points="972.22,-276.09 972.94,-265.52 965.79,-273.34 972.22,-276.09"/>
</g>
<!-- Node2&#45;&gt;Node25 -->
<g id="edge58" class="edge">
<title>Node2&#45;&gt;Node25</title>
<path fill="none" stroke="midnightblue" d="M1038.45,-414.44C1013.23,-407.38 979.76,-395.63 954.07,-378 889.41,-333.62 834.86,-256.6 810.18,-218.38"/>
<polygon fill="midnightblue" stroke="midnightblue" points="812.89,-216.1 804.57,-209.54 806.98,-219.86 812.89,-216.1"/>
</g>
<!-- Node8&#45;&gt;Node4 -->
<g id="edge8" class="edge">
<title>Node8&#45;&gt;Node4</title>
<path fill="none" stroke="midnightblue" d="M1156.53,-126.67C996.19,-114.37 605.2,-84.39 485.49,-75.22"/>
<polygon fill="midnightblue" stroke="midnightblue" points="485.65,-71.72 475.41,-74.44 485.11,-78.7 485.65,-71.72"/>
</g>
<!-- Node9 -->
<g id="node9" class="node">
<title>Node9</title>
<g id="a_node9"><a xlink:title=" ">
<polygon fill="none" stroke="#bfbfbf" points="284.57,-62 284.57,-81 357.57,-81 357.57,-62 284.57,-62"/>
<text text-anchor="middle" x="321.07" y="-69" font-family="Helvetica,sans-Serif" font-size="10.00">string_view</text>
</a>
</g>
</g>
<!-- Node8&#45;&gt;Node9 -->
<g id="edge9" class="edge">
<title>Node8&#45;&gt;Node9</title>
<path fill="none" stroke="midnightblue" d="M1156.38,-128.51C973.42,-119.3 488.57,-94.53 416.07,-87 400.43,-85.38 383.43,-82.98 368.19,-80.61"/>
<polygon fill="midnightblue" stroke="midnightblue" points="368.39,-77.09 357.96,-78.97 367.29,-84.01 368.39,-77.09"/>
</g>
<!-- Node10 -->
<g id="node10" class="node">
<title>Node10</title>
<g id="a_node10"><a xlink:title=" ">
<polygon fill="none" stroke="#bfbfbf" points="1278.57,-0.5 1278.57,-19.5 1319.57,-19.5 1319.57,-0.5 1278.57,-0.5"/>
<text text-anchor="middle" x="1299.07" y="-7.5" font-family="Helvetica,sans-Serif" font-size="10.00">tuple</text>
</a>
</g>
</g>
<!-- Node8&#45;&gt;Node10 -->
<g id="edge10" class="edge">
<title>Node8&#45;&gt;Node10</title>
<path fill="none" stroke="midnightblue" d="M1231.32,-123.3C1243.27,-103.5 1272.66,-54.78 1288.52,-28.49"/>
<polygon fill="midnightblue" stroke="midnightblue" points="1291.7,-29.99 1293.87,-19.62 1285.71,-26.38 1291.7,-29.99"/>
</g>
<!-- Node11 -->
<g id="node11" class="node">
<title>Node11</title>
<g id="a_node11"><a xlink:href="traits_8h.html" target="_top" xlink:title=" ">
<polygon fill="none" stroke="black" points="1294.57,-56.5 1294.57,-86.5 1407.57,-86.5 1407.57,-56.5 1294.57,-56.5"/>
<text text-anchor="start" x="1302.57" y="-74.5" font-family="Helvetica,sans-Serif" font-size="10.00">open62541pp/detail</text>
<text text-anchor="middle" x="1351.07" y="-63.5" font-family="Helvetica,sans-Serif" font-size="10.00">/traits.h</text>
</a>
</g>
</g>
<!-- Node8&#45;&gt;Node11 -->
<g id="edge11" class="edge">
<title>Node8&#45;&gt;Node11</title>
<path fill="none" stroke="midnightblue" d="M1243.98,-123.48C1261.78,-115 1289.65,-101.74 1312.5,-90.86"/>
<polygon fill="midnightblue" stroke="midnightblue" points="1314.09,-93.98 1321.61,-86.52 1311.08,-87.66 1314.09,-93.98"/>
</g>
<!-- Node8&#45;&gt;Node13 -->
<g id="edge14" class="edge">
<title>Node8&#45;&gt;Node13</title>
<path fill="none" stroke="midnightblue" d="M1194.7,-123.48C1156.16,-113 1090.67,-95.21 1048.15,-83.66"/>
<polygon fill="midnightblue" stroke="midnightblue" points="1048.96,-80.25 1038.39,-81.01 1047.13,-87.01 1048.96,-80.25"/>
</g>
<!-- Node11&#45;&gt;Node10 -->
<g id="edge12" class="edge">
<title>Node11&#45;&gt;Node10</title>
<path fill="none" stroke="midnightblue" d="M1338.75,-56.4C1331.12,-47.66 1321.28,-36.41 1313.32,-27.3"/>
<polygon fill="midnightblue" stroke="midnightblue" points="1315.86,-24.88 1306.64,-19.66 1310.59,-29.49 1315.86,-24.88"/>
</g>
<!-- Node12 -->
<g id="node12" class="node">
<title>Node12</title>
<g id="a_node12"><a xlink:title=" ">
<polygon fill="none" stroke="#bfbfbf" points="1441.57,-0.5 1441.57,-19.5 1510.57,-19.5 1510.57,-0.5 1441.57,-0.5"/>
<text text-anchor="middle" x="1476.07" y="-7.5" font-family="Helvetica,sans-Serif" font-size="10.00">type_traits</text>
</a>
</g>
</g>
<!-- Node11&#45;&gt;Node12 -->
<g id="edge13" class="edge">
<title>Node11&#45;&gt;Node12</title>
<path fill="none" stroke="midnightblue" d="M1380.7,-56.4C1401.3,-46.59 1428.56,-33.62 1448.65,-24.05"/>
<polygon fill="midnightblue" stroke="midnightblue" points="1450.36,-27.12 1457.89,-19.66 1447.35,-20.8 1450.36,-27.12"/>
</g>
<!-- Node14 -->
<g id="node14" class="node">
<title>Node14</title>
<g id="a_node14"><a target="_blank" xlink:href="open62541/nodeids_8h.html.html" xlink:title=" ">
<polygon fill="none" stroke="black" points="946.57,-0.5 946.57,-19.5 1067.57,-19.5 1067.57,-0.5 946.57,-0.5"/>
<text text-anchor="middle" x="1007.07" y="-7.5" font-family="Helvetica,sans-Serif" font-size="10.00">open62541/nodeids.h</text>
</a>
</g>
</g>
<!-- Node13&#45;&gt;Node14 -->
<g id="edge15" class="edge">
<title>Node13&#45;&gt;Node14</title>
<path fill="none" stroke="midnightblue" d="M1007.07,-61.98C1007.07,-53.58 1007.07,-40.48 1007.07,-29.66"/>
<polygon fill="midnightblue" stroke="midnightblue" points="1010.57,-29.51 1007.07,-19.51 1003.57,-29.51 1010.57,-29.51"/>
</g>
<!-- Node15 -->
<g id="node15" class="node">
<title>Node15</title>
<g id="a_node15"><a target="_blank" xlink:href="open62541/types_8h.html.html" xlink:title=" ">
<polygon fill="none" stroke="black" points="1086.07,-0.5 1086.07,-19.5 1196.07,-19.5 1196.07,-0.5 1086.07,-0.5"/>
<text text-anchor="middle" x="1141.07" y="-7.5" font-family="Helvetica,sans-Serif" font-size="10.00">open62541/types.h</text>
</a>
</g>
</g>
<!-- Node13&#45;&gt;Node15 -->
<g id="edge16" class="edge">
<title>Node13&#45;&gt;Node15</title>
<path fill="none" stroke="midnightblue" d="M1026.27,-61.98C1048.86,-51.95 1086.57,-35.2 1112.58,-23.65"/>
<polygon fill="midnightblue" stroke="midnightblue" points="1114.19,-26.77 1121.91,-19.51 1111.35,-20.37 1114.19,-26.77"/>
</g>
<!-- Node16 -->
<g id="node16" class="node">
<title>Node16</title>
<g id="a_node16"><a target="_blank" xlink:href="open62541/types__generated_8h.html.html" xlink:title=" ">
<polygon fill="none" stroke="black" points="764.07,-0.5 764.07,-19.5 928.07,-19.5 928.07,-0.5 764.07,-0.5"/>
<text text-anchor="middle" x="846.07" y="-7.5" font-family="Helvetica,sans-Serif" font-size="10.00">open62541/types_generated.h</text>
</a>
</g>
</g>
<!-- Node13&#45;&gt;Node16 -->
<g id="edge17" class="edge">
<title>Node13&#45;&gt;Node16</title>
<path fill="none" stroke="midnightblue" d="M984.01,-61.98C956.39,-51.77 909.96,-34.61 878.68,-23.05"/>
<polygon fill="midnightblue" stroke="midnightblue" points="879.69,-19.69 869.1,-19.51 877.27,-26.26 879.69,-19.69"/>
</g>
<!-- Node17&#45;&gt;Node13 -->
<g id="edge21" class="edge">
<title>Node17&#45;&gt;Node13</title>
<path fill="none" stroke="midnightblue" d="M666.81,-184.99C730.84,-163.82 897.43,-108.75 971.12,-84.39"/>
<polygon fill="midnightblue" stroke="midnightblue" points="972.48,-87.62 980.88,-81.16 970.28,-80.98 972.48,-87.62"/>
</g>
<!-- Node18 -->
<g id="node18" class="node">
<title>Node18</title>
<g id="a_node18"><a xlink:title=" ">
<polygon fill="none" stroke="#bfbfbf" points="608.57,-123.5 608.57,-142.5 673.57,-142.5 673.57,-123.5 608.57,-123.5"/>
<text text-anchor="middle" x="641.07" y="-130.5" font-family="Helvetica,sans-Serif" font-size="10.00">stdexcept</text>
</a>
</g>
</g>
<!-- Node17&#45;&gt;Node18 -->
<g id="edge19" class="edge">
<title>Node17&#45;&gt;Node18</title>
<path fill="none" stroke="midnightblue" d="M641.07,-184.98C641.07,-176.58 641.07,-163.48 641.07,-152.66"/>
<polygon fill="midnightblue" stroke="midnightblue" points="644.57,-152.51 641.07,-142.51 637.57,-152.51 644.57,-152.51"/>
</g>
<!-- Node19 -->
<g id="node19" class="node">
<title>Node19</title>
<g id="a_node19"><a xlink:title=" ">
<polygon fill="none" stroke="#bfbfbf" points="516.07,-123.5 516.07,-142.5 560.07,-142.5 560.07,-123.5 516.07,-123.5"/>
<text text-anchor="middle" x="538.07" y="-130.5" font-family="Helvetica,sans-Serif" font-size="10.00">string</text>
</a>
</g>
</g>
<!-- Node17&#45;&gt;Node19 -->
<g id="edge20" class="edge">
<title>Node17&#45;&gt;Node19</title>
<path fill="none" stroke="midnightblue" d="M626.32,-184.98C609.41,-175.21 581.49,-159.08 561.58,-147.58"/>
<polygon fill="midnightblue" stroke="midnightblue" points="563.21,-144.48 552.8,-142.51 559.71,-150.54 563.21,-144.48"/>
</g>
<!-- Node20&#45;&gt;Node5 -->
<g id="edge25" class="edge">
<title>Node20&#45;&gt;Node5</title>
<path fill="none" stroke="midnightblue" d="M1271.9,-358.44C1317.09,-349.55 1389.58,-335.14 1452.07,-322 1453.36,-321.73 1454.66,-321.45 1455.98,-321.17"/>
<polygon fill="midnightblue" stroke="midnightblue" points="1457.15,-324.5 1466.18,-318.97 1455.67,-317.66 1457.15,-324.5"/>
</g>
<!-- Node20&#45;&gt;Node7 -->
<g id="edge28" class="edge">
<title>Node20&#45;&gt;Node7</title>
<path fill="none" stroke="midnightblue" d="M1287.02,-358.44C1365.84,-347 1502.98,-327.09 1566.28,-317.91"/>
<polygon fill="midnightblue" stroke="midnightblue" points="1567.1,-321.32 1576.5,-316.42 1566.1,-314.4 1567.1,-321.32"/>
</g>
<!-- Node20&#45;&gt;Node8 -->
<g id="edge29" class="edge">
<title>Node20&#45;&gt;Node8</title>
<path fill="none" stroke="midnightblue" d="M1242.46,-358.26C1254.71,-350.18 1272.03,-337.16 1283.07,-322 1303.78,-293.58 1315.71,-279.52 1305.07,-246 1292.74,-207.13 1261.52,-170.1 1242.22,-149.88"/>
<polygon fill="midnightblue" stroke="midnightblue" points="1244.5,-147.21 1235,-142.51 1239.5,-152.11 1244.5,-147.21"/>
</g>
<!-- Node20&#45;&gt;Node11 -->
<g id="edge49" class="edge">
<title>Node20&#45;&gt;Node11</title>
<path fill="none" stroke="midnightblue" d="M1310.09,-360.8C1335.3,-354.58 1360.48,-343.04 1376.07,-322 1428.74,-250.94 1396.22,-209.12 1376.07,-123 1373.87,-113.59 1369.65,-103.92 1365.29,-95.59"/>
<polygon fill="midnightblue" stroke="midnightblue" points="1368.34,-93.87 1360.41,-86.85 1362.22,-97.28 1368.34,-93.87"/>
</g>
<!-- Node20&#45;&gt;Node12 -->
<g id="edge27" class="edge">
<title>Node20&#45;&gt;Node12</title>
<path fill="none" stroke="midnightblue" d="M1282.38,-358.45C1316.35,-351.68 1360.3,-340.24 1396.07,-322 1475.6,-281.45 1552.07,-284.76 1552.07,-195.5 1552.07,-195.5 1552.07,-195.5 1552.07,-132 1552.07,-88.48 1516.38,-47.77 1493.91,-26.47"/>
<polygon fill="midnightblue" stroke="midnightblue" points="1496.07,-23.7 1486.32,-19.53 1491.34,-28.86 1496.07,-23.7"/>
</g>
<!-- Node20&#45;&gt;Node13 -->
<g id="edge50" class="edge">
<title>Node20&#45;&gt;Node13</title>
<path fill="none" stroke="midnightblue" d="M1255.19,-358.47C1294.35,-344.27 1362.07,-311.78 1362.07,-257 1362.07,-257 1362.07,-257 1362.07,-193.5 1362.07,-157.03 1350.24,-143.5 1320.07,-123 1283.83,-98.38 1171.63,-84.85 1091.96,-78.14"/>
<polygon fill="midnightblue" stroke="midnightblue" points="1092.17,-74.65 1081.92,-77.32 1091.6,-81.62 1092.17,-74.65"/>
</g>
<!-- Node20&#45;&gt;Node17 -->
<g id="edge30" class="edge">
<title>Node20&#45;&gt;Node17</title>
<path fill="none" stroke="midnightblue" d="M1153.14,-358.47C1100.44,-351.41 1028.63,-339.64 967.07,-322 944.46,-315.52 939.94,-310.67 918.07,-302 829.84,-267.03 725.15,-227.24 673.38,-207.68"/>
<polygon fill="midnightblue" stroke="midnightblue" points="674.35,-204.3 663.76,-204.04 671.87,-210.85 674.35,-204.3"/>
</g>
<!-- Node20&#45;&gt;Node19 -->
<g id="edge26" class="edge">
<title>Node20&#45;&gt;Node19</title>
<path fill="none" stroke="midnightblue" d="M1146.01,-359.34C1083.06,-352.44 994.31,-340.5 918.07,-322 891.58,-315.57 886.04,-310.34 860.07,-302 851.55,-299.26 557.02,-216.7 551.07,-210 537.36,-194.54 535.46,-170.09 536.11,-153.11"/>
<polygon fill="midnightblue" stroke="midnightblue" points="539.63,-152.98 536.86,-142.76 532.65,-152.48 539.63,-152.98"/>
</g>
<!-- Node21 -->
<g id="node21" class="node">
<title>Node21</title>
<g id="a_node21"><a xlink:title=" ">
<polygon fill="none" stroke="#bfbfbf" points="613.07,-246.5 613.07,-265.5 655.07,-265.5 655.07,-246.5 613.07,-246.5"/>
<text text-anchor="middle" x="634.07" y="-253.5" font-family="Helvetica,sans-Serif" font-size="10.00">array</text>
</a>
</g>
</g>
<!-- Node20&#45;&gt;Node21 -->
<g id="edge23" class="edge">
<title>Node20&#45;&gt;Node21</title>
<path fill="none" stroke="midnightblue" d="M1146.03,-358.77C1077.32,-351.23 976.83,-338.71 890.07,-322 790.58,-302.84 767.25,-291.06 669.07,-266 667.81,-265.68 666.52,-265.35 665.21,-265.01"/>
<polygon fill="midnightblue" stroke="midnightblue" points="665.73,-261.53 655.17,-262.44 663.99,-268.31 665.73,-261.53"/>
</g>
<!-- Node22 -->
<g id="node22" class="node">
<title>Node22</title>
<g id="a_node22"><a xlink:title=" ">
<polygon fill="none" stroke="#bfbfbf" points="1246.07,-246.5 1246.07,-265.5 1296.07,-265.5 1296.07,-246.5 1246.07,-246.5"/>
<text text-anchor="middle" x="1271.07" y="-253.5" font-family="Helvetica,sans-Serif" font-size="10.00">chrono</text>
</a>
</g>
</g>
<!-- Node20&#45;&gt;Node22 -->
<g id="edge24" class="edge">
<title>Node20&#45;&gt;Node22</title>
<path fill="none" stroke="midnightblue" d="M1238.85,-358.28C1248.16,-350.03 1261.05,-336.74 1267.07,-322 1273.03,-307.43 1273.69,-289.48 1273.05,-276.14"/>
<polygon fill="midnightblue" stroke="midnightblue" points="1276.51,-275.51 1272.26,-265.8 1269.53,-276.04 1276.51,-275.51"/>
</g>
<!-- Node20&#45;&gt;Node23 -->
<g id="edge31" class="edge">
<title>Node20&#45;&gt;Node23</title>
<path fill="none" stroke="midnightblue" d="M1186.93,-358.44C1155.41,-351.05 1111.34,-338.89 1075.07,-322 1045.52,-308.23 1014.7,-286.35 995.69,-271.83"/>
<polygon fill="midnightblue" stroke="midnightblue" points="997.65,-268.92 987.61,-265.55 993.36,-274.44 997.65,-268.92"/>
</g>
<!-- Node20&#45;&gt;Node25 -->
<g id="edge48" class="edge">
<title>Node20&#45;&gt;Node25</title>
<path fill="none" stroke="midnightblue" d="M1175.11,-358.49C1105.98,-345.8 982.77,-317.68 889.07,-266 863.69,-252 837.63,-231.62 819.58,-216.37"/>
<polygon fill="midnightblue" stroke="midnightblue" points="821.75,-213.62 811.88,-209.77 817.19,-218.94 821.75,-213.62"/>
</g>
<!-- Node27 -->
<g id="node27" class="node">
<title>Node27</title>
<g id="a_node27"><a xlink:href="DateTime_8h.html" target="_top" xlink:title=" ">
<polygon fill="none" stroke="black" points="1084.57,-302.5 1084.57,-321.5 1257.57,-321.5 1257.57,-302.5 1084.57,-302.5"/>
<text text-anchor="middle" x="1171.07" y="-309.5" font-family="Helvetica,sans-Serif" font-size="10.00">open62541pp/types/DateTime.h</text>
</a>
</g>
</g>
<!-- Node20&#45;&gt;Node27 -->
<g id="edge51" class="edge">
<title>Node20&#45;&gt;Node27</title>
<path fill="none" stroke="midnightblue" d="M1218.92,-358.32C1210.57,-350.42 1198.04,-338.55 1187.9,-328.94"/>
<polygon fill="midnightblue" stroke="midnightblue" points="1190.07,-326.17 1180.4,-321.83 1185.25,-331.25 1190.07,-326.17"/>
</g>
<!-- Node23&#45;&gt;Node3 -->
<g id="edge32" class="edge">
<title>Node23&#45;&gt;Node3</title>
<path fill="none" stroke="midnightblue" d="M978.59,-246.3C981.98,-226.76 990.25,-179.06 994.86,-152.55"/>
<polygon fill="midnightblue" stroke="midnightblue" points="998.32,-153.07 996.58,-142.62 991.42,-151.88 998.32,-153.07"/>
</g>
<!-- Node23&#45;&gt;Node4 -->
<g id="edge33" class="edge">
<title>Node23&#45;&gt;Node4</title>
<path fill="none" stroke="midnightblue" d="M898.07,-254.18C791.49,-251.82 608.39,-242.91 551.07,-210 502.82,-182.29 471,-121.21 457.48,-90.65"/>
<polygon fill="midnightblue" stroke="midnightblue" points="460.6,-89.05 453.46,-81.22 454.16,-91.79 460.6,-89.05"/>
</g>
<!-- Node23&#45;&gt;Node8 -->
<g id="edge36" class="edge">
<title>Node23&#45;&gt;Node8</title>
<path fill="none" stroke="midnightblue" d="M1046.06,-246.45C1080.01,-240.05 1120.52,-228.99 1153.07,-210 1178.91,-194.93 1201.53,-168.11 1214.49,-150.69"/>
<polygon fill="midnightblue" stroke="midnightblue" points="1217.35,-152.72 1220.36,-142.56 1211.67,-148.62 1217.35,-152.72"/>
</g>
<!-- Node23&#45;&gt;Node12 -->
<g id="edge34" class="edge">
<title>Node23&#45;&gt;Node12</title>
<path fill="none" stroke="midnightblue" d="M1037.78,-246.5C1080.17,-239.47 1137.62,-227.72 1186.07,-210 1295.31,-170.04 1328.11,-161.93 1417.07,-87 1437.15,-70.09 1454.81,-45.3 1465.46,-28.68"/>
<polygon fill="midnightblue" stroke="midnightblue" points="1468.57,-30.3 1470.88,-19.96 1462.63,-26.6 1468.57,-30.3"/>
</g>
<!-- Node23&#45;&gt;Node13 -->
<g id="edge45" class="edge">
<title>Node23&#45;&gt;Node13</title>
<path fill="none" stroke="midnightblue" d="M973.54,-246.32C965.27,-224.71 946.59,-167.03 963.07,-123 968.17,-109.39 978.78,-97.03 988.31,-87.94"/>
<polygon fill="midnightblue" stroke="midnightblue" points="990.8,-90.41 995.91,-81.13 986.12,-85.2 990.8,-90.41"/>
</g>
<!-- Node23&#45;&gt;Node17 -->
<g id="edge37" class="edge">
<title>Node23&#45;&gt;Node17</title>
<path fill="none" stroke="midnightblue" d="M928.93,-246.48C868.3,-235.74 764.22,-217.31 699.21,-205.79"/>
<polygon fill="midnightblue" stroke="midnightblue" points="699.58,-202.31 689.13,-204.01 698.36,-209.2 699.58,-202.31"/>
</g>
<!-- Node24 -->
<g id="node24" class="node">
<title>Node24</title>
<g id="a_node24"><a xlink:title=" ">
<polygon fill="none" stroke="#bfbfbf" points="870.57,-185 870.57,-204 915.57,-204 915.57,-185 870.57,-185"/>
<text text-anchor="middle" x="893.07" y="-192" font-family="Helvetica,sans-Serif" font-size="10.00">utility</text>
</a>
</g>
</g>
<!-- Node23&#45;&gt;Node24 -->
<g id="edge35" class="edge">
<title>Node23&#45;&gt;Node24</title>
<path fill="none" stroke="midnightblue" d="M965.04,-246.48C951.57,-236.93 929.51,-221.31 913.36,-209.87"/>
<polygon fill="midnightblue" stroke="midnightblue" points="915.27,-206.93 905.09,-204.01 911.22,-212.65 915.27,-206.93"/>
</g>
<!-- Node23&#45;&gt;Node25 -->
<g id="edge38" class="edge">
<title>Node23&#45;&gt;Node25</title>
<path fill="none" stroke="midnightblue" d="M951.14,-246.48C924.45,-237.7 882.13,-223.79 848.43,-212.71"/>
<polygon fill="midnightblue" stroke="midnightblue" points="849.33,-209.32 838.73,-209.52 847.14,-215.97 849.33,-209.32"/>
</g>
<!-- Node26 -->
<g id="node26" class="node">
<title>Node26</title>
<g id="a_node26"><a xlink:href="comparison_8h.html" target="_top" xlink:title=" ">
<polygon fill="none" stroke="black" points="1010.07,-179.5 1010.07,-209.5 1144.07,-209.5 1144.07,-179.5 1010.07,-179.5"/>
<text text-anchor="start" x="1018.07" y="-197.5" font-family="Helvetica,sans-Serif" font-size="10.00">open62541pp/overloads</text>
<text text-anchor="middle" x="1077.07" y="-186.5" font-family="Helvetica,sans-Serif" font-size="10.00">/comparison.h</text>
</a>
</g>
</g>
<!-- Node23&#45;&gt;Node26 -->
<g id="edge46" class="edge">
<title>Node23&#45;&gt;Node26</title>
<path fill="none" stroke="midnightblue" d="M991.4,-246.48C1005.2,-238.27 1026.56,-225.56 1044.5,-214.88"/>
<polygon fill="midnightblue" stroke="midnightblue" points="1046.7,-217.64 1053.51,-209.52 1043.12,-211.63 1046.7,-217.64"/>
</g>
<!-- Node25&#45;&gt;Node3 -->
<g id="edge39" class="edge">
<title>Node25&#45;&gt;Node3</title>
<path fill="none" stroke="midnightblue" d="M843.69,-179.47C879.95,-168.8 929.08,-154.32 962.1,-144.6"/>
<polygon fill="midnightblue" stroke="midnightblue" points="963.19,-147.92 971.79,-141.74 961.21,-141.21 963.19,-147.92"/>
</g>
<!-- Node25&#45;&gt;Node4 -->
<g id="edge40" class="edge">
<title>Node25&#45;&gt;Node4</title>
<path fill="none" stroke="midnightblue" d="M788.55,-179.28C779.08,-162.9 761.21,-136.49 738.07,-123 695.62,-98.24 552.61,-82.04 485.46,-75.62"/>
<polygon fill="midnightblue" stroke="midnightblue" points="485.64,-72.12 475.36,-74.68 484.99,-79.09 485.64,-72.12"/>
</g>
<!-- Node25&#45;&gt;Node8 -->
<g id="edge43" class="edge">
<title>Node25&#45;&gt;Node8</title>
<path fill="none" stroke="midnightblue" d="M852.73,-180.52C855.55,-179.98 858.34,-179.47 861.07,-179 958.72,-162.13 1072.12,-149.18 1146.29,-141.59"/>
<polygon fill="midnightblue" stroke="midnightblue" points="1146.89,-145.05 1156.49,-140.56 1146.18,-138.08 1146.89,-145.05"/>
</g>
<!-- Node25&#45;&gt;Node9 -->
<g id="edge42" class="edge">
<title>Node25&#45;&gt;Node9</title>
<path fill="none" stroke="midnightblue" d="M778.73,-179.5C757.37,-163.06 719.31,-136.35 682.07,-123 569.77,-82.74 534.16,-104 416.07,-87 400.38,-84.74 383.24,-82.16 367.89,-79.81"/>
<polygon fill="midnightblue" stroke="midnightblue" points="368.01,-76.28 357.59,-78.22 366.95,-83.2 368.01,-76.28"/>
</g>
<!-- Node25&#45;&gt;Node13 -->
<g id="edge44" class="edge">
<title>Node25&#45;&gt;Node13</title>
<path fill="none" stroke="midnightblue" d="M820.69,-179.38C861.55,-155.95 942.87,-109.32 983.22,-86.18"/>
<polygon fill="midnightblue" stroke="midnightblue" points="985.16,-89.1 992.09,-81.09 981.68,-83.03 985.16,-89.1"/>
</g>
<!-- Node25&#45;&gt;Node19 -->
<g id="edge41" class="edge">
<title>Node25&#45;&gt;Node19</title>
<path fill="none" stroke="midnightblue" d="M739.46,-180.44C687.49,-168.46 612.36,-151.13 570.09,-141.38"/>
<polygon fill="midnightblue" stroke="midnightblue" points="570.62,-137.91 560.09,-139.08 569.05,-144.73 570.62,-137.91"/>
</g>
<!-- Node26&#45;&gt;Node13 -->
<g id="edge47" class="edge">
<title>Node26&#45;&gt;Node13</title>
<path fill="none" stroke="midnightblue" d="M1068.77,-179.14C1055.85,-156.81 1030.97,-113.8 1017.08,-89.79"/>
<polygon fill="midnightblue" stroke="midnightblue" points="1020.06,-87.96 1012.02,-81.05 1014,-91.46 1020.06,-87.96"/>
</g>
<!-- Node27&#45;&gt;Node4 -->
<g id="edge53" class="edge">
<title>Node27&#45;&gt;Node4</title>
<path fill="none" stroke="midnightblue" d="M1161.75,-302.13C1149.74,-289.58 1131.49,-265.94 1141.07,-246 1152.17,-222.92 1174.98,-233.08 1186.07,-210 1192.04,-197.58 1193.97,-190.29 1186.07,-179 1144.59,-119.65 1103.76,-138.71 1033.07,-123 829.16,-77.69 576.72,-72.59 485.25,-72.33"/>
<polygon fill="midnightblue" stroke="midnightblue" points="485.15,-68.83 475.15,-72.32 485.15,-75.83 485.15,-68.83"/>
</g>
<!-- Node27&#45;&gt;Node13 -->
<g id="edge56" class="edge">
<title>Node27&#45;&gt;Node13</title>
<path fill="none" stroke="midnightblue" d="M1179.27,-302.37C1206.32,-273.62 1291.83,-180.86 1305.07,-143 1308.01,-134.61 1310.81,-129.79 1305.07,-123 1278.22,-91.21 1170.22,-79.43 1091.96,-75.06"/>
<polygon fill="midnightblue" stroke="midnightblue" points="1091.78,-71.55 1081.61,-74.52 1091.41,-78.54 1091.78,-71.55"/>
</g>
<!-- Node27&#45;&gt;Node22 -->
<g id="edge52" class="edge">
<title>Node27&#45;&gt;Node22</title>
<path fill="none" stroke="midnightblue" d="M1187.14,-302.32C1203.03,-293.74 1227.58,-280.49 1246.03,-270.52"/>
<polygon fill="midnightblue" stroke="midnightblue" points="1247.91,-273.49 1255.05,-265.65 1244.59,-267.33 1247.91,-273.49"/>
</g>
<!-- Node27&#45;&gt;Node23 -->
<g id="edge55" class="edge">
<title>Node27&#45;&gt;Node23</title>
<path fill="none" stroke="midnightblue" d="M1140.33,-302.44C1107.13,-293.2 1054.08,-278.44 1017.52,-268.26"/>
<polygon fill="midnightblue" stroke="midnightblue" points="1018.24,-264.83 1007.67,-265.52 1016.37,-271.57 1018.24,-264.83"/>
</g>
<!-- Node28 -->
<g id="node28" class="node">
<title>Node28</title>
<g id="a_node28"><a xlink:title=" ">
<polygon fill="none" stroke="#bfbfbf" points="1150.57,-246.5 1150.57,-265.5 1189.57,-265.5 1189.57,-246.5 1150.57,-246.5"/>
<text text-anchor="middle" x="1170.07" y="-253.5" font-family="Helvetica,sans-Serif" font-size="10.00">ratio</text>
</a>
</g>
</g>
<!-- Node27&#45;&gt;Node28 -->
<g id="edge54" class="edge">
<title>Node27&#45;&gt;Node28</title>
<path fill="none" stroke="midnightblue" d="M1170.91,-302.08C1170.78,-295.01 1170.59,-284.86 1170.43,-275.99"/>
<polygon fill="midnightblue" stroke="midnightblue" points="1173.92,-275.68 1170.24,-265.75 1166.92,-275.81 1173.92,-275.68"/>
</g>
<!-- Node29&#45;&gt;Node4 -->
<g id="edge62" class="edge">
<title>Node29&#45;&gt;Node4</title>
<path fill="none" stroke="midnightblue" d="M304.88,-358.27C278.75,-341.98 228.07,-304.3 228.07,-257 228.07,-257 228.07,-257 228.07,-193.5 228.07,-151.77 255.12,-145.78 290.07,-123 328.78,-97.78 380.93,-84.42 415.02,-77.91"/>
<polygon fill="midnightblue" stroke="midnightblue" points="415.77,-81.34 424.98,-76.11 414.52,-74.45 415.77,-81.34"/>
</g>
<!-- Node29&#45;&gt;Node9 -->
<g id="edge64" class="edge">
<title>Node29&#45;&gt;Node9</title>
<path fill="none" stroke="midnightblue" d="M240.34,-359.27C174.75,-351.83 87.8,-339.19 57.07,-322 23.54,-303.24 0.07,-295.42 0.07,-257 0.07,-257 0.07,-257 0.07,-193.5 0.07,-160.4 -1.12,-144.46 24.07,-123 60.93,-91.6 199.82,-79.21 273.88,-74.75"/>
<polygon fill="midnightblue" stroke="midnightblue" points="274.54,-78.22 284.32,-74.15 274.14,-71.23 274.54,-78.22"/>
</g>
<!-- Node29&#45;&gt;Node13 -->
<g id="edge68" class="edge">
<title>Node29&#45;&gt;Node13</title>
<path fill="none" stroke="midnightblue" d="M327.98,-358.25C335.51,-349.57 346.74,-335.62 354.07,-322 371.08,-290.44 363,-276.95 381.07,-246 417.62,-183.43 423.67,-156.2 488.07,-123 561.62,-85.09 794.76,-75.57 922.08,-73.23"/>
<polygon fill="midnightblue" stroke="midnightblue" points="922.25,-76.72 932.19,-73.05 922.13,-69.73 922.25,-76.72"/>
</g>
<!-- Node29&#45;&gt;Node19 -->
<g id="edge63" class="edge">
<title>Node29&#45;&gt;Node19</title>
<path fill="none" stroke="midnightblue" d="M309.3,-358.17C295.42,-345.68 274.29,-322.1 285.07,-302 332.56,-213.46 449.54,-163.65 506.24,-143.96"/>
<polygon fill="midnightblue" stroke="midnightblue" points="507.42,-147.26 515.77,-140.74 505.18,-140.63 507.42,-147.26"/>
</g>
<!-- Node29&#45;&gt;Node23 -->
<g id="edge67" class="edge">
<title>Node29&#45;&gt;Node23</title>
<path fill="none" stroke="midnightblue" d="M371.08,-358.46C490.41,-338.48 787.36,-288.76 916.02,-267.22"/>
<polygon fill="midnightblue" stroke="midnightblue" points="916.82,-270.64 926.1,-265.53 915.66,-263.73 916.82,-270.64"/>
</g>
<!-- Node30 -->
<g id="node30" class="node">
<title>Node30</title>
<g id="a_node30"><a xlink:title=" ">
<polygon fill="none" stroke="#bfbfbf" points="294.57,-302.5 294.57,-321.5 345.57,-321.5 345.57,-302.5 294.57,-302.5"/>
<text text-anchor="middle" x="320.07" y="-309.5" font-family="Helvetica,sans-Serif" font-size="10.00">variant</text>
</a>
</g>
</g>
<!-- Node29&#45;&gt;Node30 -->
<g id="edge65" class="edge">
<title>Node29&#45;&gt;Node30</title>
<path fill="none" stroke="midnightblue" d="M320.07,-358.08C320.07,-351.01 320.07,-340.86 320.07,-331.99"/>
<polygon fill="midnightblue" stroke="midnightblue" points="323.57,-331.75 320.07,-321.75 316.57,-331.75 323.57,-331.75"/>
</g>
<!-- Node31 -->
<g id="node31" class="node">
<title>Node31</title>
<g id="a_node31"><a xlink:href="NodeIds_8h.html" target="_top" xlink:title=" ">
<polygon fill="none" stroke="black" points="66.07,-302.5 66.07,-321.5 200.07,-321.5 200.07,-302.5 66.07,-302.5"/>
<text text-anchor="middle" x="133.07" y="-309.5" font-family="Helvetica,sans-Serif" font-size="10.00">open62541pp/NodeIds.h</text>
</a>
</g>
</g>
<!-- Node29&#45;&gt;Node31 -->
<g id="edge66" class="edge">
<title>Node29&#45;&gt;Node31</title>
<path fill="none" stroke="midnightblue" d="M290.44,-358.44C258.57,-349.24 207.74,-334.56 172.51,-324.39"/>
<polygon fill="midnightblue" stroke="midnightblue" points="173.15,-320.93 162.57,-321.52 171.2,-327.65 173.15,-320.93"/>
</g>
<!-- Node32 -->
<g id="node32" class="node">
<title>Node32</title>
<g id="a_node32"><a xlink:href="Builtin_8h.html" target="_top" xlink:title=" ">
<polygon fill="none" stroke="black" points="402.07,-302.5 402.07,-321.5 558.07,-321.5 558.07,-302.5 402.07,-302.5"/>
<text text-anchor="middle" x="480.07" y="-309.5" font-family="Helvetica,sans-Serif" font-size="10.00">open62541pp/types/Builtin.h</text>
</a>
</g>
</g>
<!-- Node29&#45;&gt;Node32 -->
<g id="edge69" class="edge">
<title>Node29&#45;&gt;Node32</title>
<path fill="none" stroke="midnightblue" d="M345.43,-358.44C372.34,-349.36 415.07,-334.94 445.16,-324.78"/>
<polygon fill="midnightblue" stroke="midnightblue" points="446.49,-328.03 454.84,-321.52 444.25,-321.4 446.49,-328.03"/>
</g>
<!-- Node32&#45;&gt;Node4 -->
<g id="edge71" class="edge">
<title>Node32&#45;&gt;Node4</title>
<path fill="none" stroke="midnightblue" d="M460.39,-302.35C444.04,-294.5 420.83,-281.76 404.07,-266 382.16,-245.4 374.91,-238.75 366.07,-210 350.97,-160.84 400.89,-111.37 430.22,-87.39"/>
<polygon fill="midnightblue" stroke="midnightblue" points="432.55,-90.01 438.22,-81.06 428.21,-84.52 432.55,-90.01"/>
</g>
<!-- Node32&#45;&gt;Node9 -->
<g id="edge73" class="edge">
<title>Node32&#45;&gt;Node9</title>
<path fill="none" stroke="midnightblue" d="M451.5,-302.36C430.49,-295.03 402.06,-282.98 381.07,-266 328.21,-223.23 311.37,-207.58 290.07,-143 283.83,-124.07 295.37,-103.28 306.1,-89.22"/>
<polygon fill="midnightblue" stroke="midnightblue" points="308.87,-91.36 312.51,-81.41 303.46,-86.92 308.87,-91.36"/>
</g>
<!-- Node32&#45;&gt;Node13 -->
<g id="edge75" class="edge">
<title>Node32&#45;&gt;Node13</title>
<path fill="none" stroke="midnightblue" d="M478.06,-302.26C471.71,-272.16 455.41,-172.02 507.07,-123 536.51,-95.07 787.19,-81.07 922.03,-75.5"/>
<polygon fill="midnightblue" stroke="midnightblue" points="922.48,-78.98 932.33,-75.08 922.19,-71.99 922.48,-78.98"/>
</g>
<!-- Node32&#45;&gt;Node19 -->
<g id="edge72" class="edge">
<title>Node32&#45;&gt;Node19</title>
<path fill="none" stroke="midnightblue" d="M482.16,-302.22C487.32,-280.84 501.51,-224.49 518.07,-179 521.37,-169.96 525.63,-160.18 529.37,-152.05"/>
<polygon fill="midnightblue" stroke="midnightblue" points="532.62,-153.35 533.72,-142.82 526.29,-150.37 532.62,-153.35"/>
</g>
<!-- Node32&#45;&gt;Node21 -->
<g id="edge70" class="edge">
<title>Node32&#45;&gt;Node21</title>
<path fill="none" stroke="midnightblue" d="M504.48,-302.44C531.18,-293.08 574.06,-278.05 603.11,-267.86"/>
<polygon fill="midnightblue" stroke="midnightblue" points="604.48,-271.08 612.76,-264.47 602.17,-264.48 604.48,-271.08"/>
</g>
<!-- Node32&#45;&gt;Node23 -->
<g id="edge74" class="edge">
<title>Node32&#45;&gt;Node23</title>
<path fill="none" stroke="midnightblue" d="M558.28,-302.5C647.95,-292.76 794.64,-276.82 888.47,-266.63"/>
<polygon fill="midnightblue" stroke="midnightblue" points="888.94,-270.1 898.51,-265.54 888.19,-263.14 888.94,-270.1"/>
</g>
</g>
</svg>
