<?xml version="1.0" encoding="UTF-8" standalone="no"?>
<!DOCTYPE svg PUBLIC "-//W3C//DTD SVG 1.1//EN"
 "http://www.w3.org/Graphics/SVG/1.1/DTD/svg11.dtd">
<!-- Generated by graphviz version 2.43.0 (0)
 -->
<!-- Title: /home/runner/work/open62541pp/open62541pp/include/open62541pp/types/Variant.h Pages: 1 -->
<svg width="656pt" height="284pt"
 viewBox="0.00 0.00 656.00 284.00" xmlns="http://www.w3.org/2000/svg" xmlns:xlink="http://www.w3.org/1999/xlink">
<g id="graph0" class="graph" transform="scale(1 1) rotate(0) translate(4 280)">
<title>/home/runner/work/open62541pp/open62541pp/include/open62541pp/types/Variant.h</title>
<!-- Node1 -->
<g id="node1" class="node">
<title>Node1</title>
<g id="a_node1"><a xlink:title=" ">
<polygon fill="#bfbfbf" stroke="black" points="183,-234.5 183,-275.5 376,-275.5 376,-234.5 183,-234.5"/>
<text text-anchor="start" x="191" y="-263.5" font-family="Helvetica,sans-Serif" font-size="10.00">/home/runner/work/open62541pp</text>
<text text-anchor="start" x="191" y="-252.5" font-family="Helvetica,sans-Serif" font-size="10.00">/open62541pp/include/open62541pp</text>
<text text-anchor="middle" x="279.5" y="-241.5" font-family="Helvetica,sans-Serif" font-size="10.00">/types/Variant.h</text>
</a>
</g>
</g>
<!-- Node2 -->
<g id="node2" class="node">
<title>Node2</title>
<g id="a_node2"><a xlink:href="Node_8h.html" target="_top" xlink:title=" ">
<polygon fill="none" stroke="black" points="182.5,-78.5 182.5,-119.5 378.5,-119.5 378.5,-78.5 182.5,-78.5"/>
<text text-anchor="start" x="190.5" y="-107.5" font-family="Helvetica,sans-Serif" font-size="10.00">/home/runner/work/open62541pp</text>
<text text-anchor="start" x="190.5" y="-96.5" font-family="Helvetica,sans-Serif" font-size="10.00">/open62541pp/include/open62541pp/</text>
<text text-anchor="middle" x="280.5" y="-85.5" font-family="Helvetica,sans-Serif" font-size="10.00">Node.h</text>
</a>
</g>
</g>
<!-- Node1&#45;&gt;Node2 -->
<g id="edge1" class="edge">
<title>Node1&#45;&gt;Node2</title>
<path fill="none" stroke="midnightblue" d="M252.88,-226.69C246.23,-218.17 240,-208.29 236.5,-198 230.5,-180.32 230.4,-173.64 236.5,-156 241.23,-142.33 250.83,-129.46 259.85,-119.51"/>
<polygon fill="midnightblue" stroke="midnightblue" points="250.22,-228.97 259.31,-234.41 255.6,-224.49 250.22,-228.97"/>
</g>
<!-- Node3 -->
<g id="node3" class="node">
<title>Node3</title>
<g id="a_node3"><a xlink:href="open62541pp_8h.html" target="_top" xlink:title=" ">
<polygon fill="none" stroke="black" points="0,-0.5 0,-41.5 193,-41.5 193,-0.5 0,-0.5"/>
<text text-anchor="start" x="8" y="-29.5" font-family="Helvetica,sans-Serif" font-size="10.00">/home/runner/work/open62541pp</text>
<text text-anchor="start" x="8" y="-18.5" font-family="Helvetica,sans-Serif" font-size="10.00">/open62541pp/include/open62541pp</text>
<text text-anchor="middle" x="96.5" y="-7.5" font-family="Helvetica,sans-Serif" font-size="10.00">/open62541pp.h</text>
</a>
</g>
</g>
<!-- Node1&#45;&gt;Node3 -->
<g id="edge5" class="edge">
<title>Node1&#45;&gt;Node3</title>
<path fill="none" stroke="midnightblue" d="M253.84,-226.87C245.56,-217.85 236.47,-207.64 228.5,-198 183.1,-143.11 133.79,-74.79 110.37,-41.74"/>
<polygon fill="midnightblue" stroke="midnightblue" points="251.49,-229.49 260.85,-234.45 256.63,-224.74 251.49,-229.49"/>
</g>
<!-- Node6 -->
<g id="node6" class="node">
<title>Node6</title>
<g id="a_node6"><a xlink:href="DataValue_8h.html" target="_top" xlink:title=" ">
<polygon fill="none" stroke="black" points="246,-156.5 246,-197.5 439,-197.5 439,-156.5 246,-156.5"/>
<text text-anchor="start" x="254" y="-185.5" font-family="Helvetica,sans-Serif" font-size="10.00">/home/runner/work/open62541pp</text>
<text text-anchor="start" x="254" y="-174.5" font-family="Helvetica,sans-Serif" font-size="10.00">/open62541pp/include/open62541pp</text>
<text text-anchor="middle" x="342.5" y="-163.5" font-family="Helvetica,sans-Serif" font-size="10.00">/types/DataValue.h</text>
</a>
</g>
</g>
<!-- Node1&#45;&gt;Node6 -->
<g id="edge6" class="edge">
<title>Node1&#45;&gt;Node6</title>
<path fill="none" stroke="midnightblue" d="M302.19,-226.63C310.18,-216.99 318.99,-206.36 326.33,-197.51"/>
<polygon fill="midnightblue" stroke="midnightblue" points="299.41,-224.5 295.72,-234.43 304.8,-228.96 299.41,-224.5"/>
</g>
<!-- Node8 -->
<g id="node8" class="node">
<title>Node8</title>
<g id="a_node8"><a xlink:href="Variant_8cpp.html" target="_top" xlink:title=" ">
<polygon fill="none" stroke="black" points="457,-162 457,-192 648,-192 648,-162 457,-162"/>
<text text-anchor="start" x="465" y="-180" font-family="Helvetica,sans-Serif" font-size="10.00">/home/runner/work/open62541pp</text>
<text text-anchor="middle" x="552.5" y="-169" font-family="Helvetica,sans-Serif" font-size="10.00">/open62541pp/src/types/Variant.cpp</text>
</a>
</g>
</g>
<!-- Node1&#45;&gt;Node8 -->
<g id="edge9" class="edge">
<title>Node1&#45;&gt;Node8</title>
<path fill="none" stroke="midnightblue" d="M359.46,-231.74C405.47,-218.93 461.89,-203.22 501.83,-192.11"/>
<polygon fill="midnightblue" stroke="midnightblue" points="358.5,-228.37 349.8,-234.43 360.38,-235.12 358.5,-228.37"/>
</g>
<!-- Node2&#45;&gt;Node3 -->
<g id="edge2" class="edge">
<title>Node2&#45;&gt;Node3</title>
<path fill="none" stroke="midnightblue" d="M223.87,-74.61C198.19,-64 168.17,-51.6 143.72,-41.51"/>
<polygon fill="midnightblue" stroke="midnightblue" points="222.54,-77.85 233.12,-78.43 225.21,-71.38 222.54,-77.85"/>
</g>
<!-- Node4 -->
<g id="node4" class="node">
<title>Node4</title>
<g id="a_node4"><a xlink:href="Node_8cpp.html" target="_top" xlink:title=" ">
<polygon fill="none" stroke="black" points="211.5,-6 211.5,-36 389.5,-36 389.5,-6 211.5,-6"/>
<text text-anchor="start" x="219.5" y="-24" font-family="Helvetica,sans-Serif" font-size="10.00">/home/runner/work/open62541pp</text>
<text text-anchor="middle" x="300.5" y="-13" font-family="Helvetica,sans-Serif" font-size="10.00">/open62541pp/src/Node.cpp</text>
</a>
</g>
</g>
<!-- Node2&#45;&gt;Node4 -->
<g id="edge3" class="edge">
<title>Node2&#45;&gt;Node4</title>
<path fill="none" stroke="midnightblue" d="M288.23,-68.62C291.16,-57.5 294.36,-45.34 296.76,-36.23"/>
<polygon fill="midnightblue" stroke="midnightblue" points="284.81,-67.87 285.65,-78.43 291.58,-69.65 284.81,-67.87"/>
</g>
<!-- Node5 -->
<g id="node5" class="node">
<title>Node5</title>
<g id="a_node5"><a xlink:href="Server_8cpp.html" target="_top" xlink:title=" ">
<polygon fill="none" stroke="black" points="407.5,-6 407.5,-36 585.5,-36 585.5,-6 407.5,-6"/>
<text text-anchor="start" x="415.5" y="-24" font-family="Helvetica,sans-Serif" font-size="10.00">/home/runner/work/open62541pp</text>
<text text-anchor="middle" x="496.5" y="-13" font-family="Helvetica,sans-Serif" font-size="10.00">/open62541pp/src/Server.cpp</text>
</a>
</g>
</g>
<!-- Node2&#45;&gt;Node5 -->
<g id="edge4" class="edge">
<title>Node2&#45;&gt;Node5</title>
<path fill="none" stroke="midnightblue" d="M345.6,-75.1C381.66,-62.41 425.34,-47.04 456.41,-36.11"/>
<polygon fill="midnightblue" stroke="midnightblue" points="344.4,-71.81 336.13,-78.43 346.72,-78.41 344.4,-71.81"/>
</g>
<!-- Node6&#45;&gt;Node2 -->
<g id="edge7" class="edge">
<title>Node6&#45;&gt;Node2</title>
<path fill="none" stroke="midnightblue" d="M320.17,-148.63C312.31,-138.99 303.64,-128.36 296.41,-119.51"/>
<polygon fill="midnightblue" stroke="midnightblue" points="317.5,-150.89 326.53,-156.43 322.92,-146.47 317.5,-150.89"/>
</g>
<!-- Node7 -->
<g id="node7" class="node">
<title>Node7</title>
<g id="a_node7"><a xlink:href="DataValue_8cpp.html" target="_top" xlink:title=" ">
<polygon fill="none" stroke="black" points="396.5,-84 396.5,-114 602.5,-114 602.5,-84 396.5,-84"/>
<text text-anchor="start" x="404.5" y="-102" font-family="Helvetica,sans-Serif" font-size="10.00">/home/runner/work/open62541pp</text>
<text text-anchor="middle" x="499.5" y="-91" font-family="Helvetica,sans-Serif" font-size="10.00">/open62541pp/src/types/DataValue.cpp</text>
</a>
</g>
</g>
<!-- Node6&#45;&gt;Node7 -->
<g id="edge8" class="edge">
<title>Node6&#45;&gt;Node7</title>
<path fill="none" stroke="midnightblue" d="M392.14,-151.97C417.79,-139.55 448.21,-124.83 470.11,-114.23"/>
<polygon fill="midnightblue" stroke="midnightblue" points="390.41,-148.92 382.93,-156.43 393.46,-155.22 390.41,-148.92"/>
</g>
</g>
</svg>
