<?xml version="1.0" encoding="UTF-8" standalone="no"?>
<!DOCTYPE svg PUBLIC "-//W3C//DTD SVG 1.1//EN"
 "http://www.w3.org/Graphics/SVG/1.1/DTD/svg11.dtd">
<!-- Generated by graphviz version 2.43.0 (0)
 -->
<!-- Title: /home/runner/work/open62541pp/open62541pp/include/open62541pp/Variant.h Pages: 1 -->
<svg width="1030pt" height="386pt"
 viewBox="0.00 0.00 1030.00 386.00" xmlns="http://www.w3.org/2000/svg" xmlns:xlink="http://www.w3.org/1999/xlink">
<g id="graph0" class="graph" transform="scale(1 1) rotate(0) translate(4 382)">
<title>/home/runner/work/open62541pp/open62541pp/include/open62541pp/Variant.h</title>
<!-- Node1 -->
<g id="node1" class="node">
<title>Node1</title>
<g id="a_node1"><a xlink:title=" ">
<polygon fill="#bfbfbf" stroke="black" points="199.5,-336.5 199.5,-377.5 392.5,-377.5 392.5,-336.5 199.5,-336.5"/>
<text text-anchor="start" x="207.5" y="-365.5" font-family="Helvetica,sans-Serif" font-size="10.00">/home/runner/work/open62541pp</text>
<text text-anchor="start" x="207.5" y="-354.5" font-family="Helvetica,sans-Serif" font-size="10.00">/open62541pp/include/open62541pp</text>
<text text-anchor="middle" x="296" y="-343.5" font-family="Helvetica,sans-Serif" font-size="10.00">/Variant.h</text>
</a>
</g>
</g>
<!-- Node2 -->
<g id="node2" class="node">
<title>Node2</title>
<g id="a_node2"><a xlink:title=" ">
<polygon fill="none" stroke="#bfbfbf" points="0,-280.5 0,-299.5 52,-299.5 52,-280.5 0,-280.5"/>
<text text-anchor="middle" x="26" y="-287.5" font-family="Helvetica,sans-Serif" font-size="10.00">cassert</text>
</a>
</g>
</g>
<!-- Node1&#45;&gt;Node2 -->
<g id="edge1" class="edge">
<title>Node1&#45;&gt;Node2</title>
<path fill="none" stroke="midnightblue" d="M214.99,-336.5C164.09,-324.24 100.92,-309.04 62.04,-299.68"/>
<polygon fill="midnightblue" stroke="midnightblue" points="62.77,-296.25 52.23,-297.31 61.13,-303.06 62.77,-296.25"/>
</g>
<!-- Node3 -->
<g id="node3" class="node">
<title>Node3</title>
<g id="a_node3"><a xlink:title=" ">
<polygon fill="none" stroke="#bfbfbf" points="959,-56.5 959,-75.5 1009,-75.5 1009,-56.5 959,-56.5"/>
<text text-anchor="middle" x="984" y="-63.5" font-family="Helvetica,sans-Serif" font-size="10.00">cstdint</text>
</a>
</g>
</g>
<!-- Node1&#45;&gt;Node3 -->
<g id="edge2" class="edge">
<title>Node1&#45;&gt;Node3</title>
<path fill="none" stroke="midnightblue" d="M392.78,-349.79C590.44,-335.8 1022,-298.05 1022,-235 1022,-235 1022,-235 1022,-177 1022,-142.81 1005.4,-105.76 994.14,-84.57"/>
<polygon fill="midnightblue" stroke="midnightblue" points="997.18,-82.83 989.28,-75.77 991.05,-86.22 997.18,-82.83"/>
</g>
<!-- Node4 -->
<g id="node4" class="node">
<title>Node4</title>
<g id="a_node4"><a xlink:title=" ">
<polygon fill="none" stroke="#bfbfbf" points="178.5,-224.5 178.5,-243.5 231.5,-243.5 231.5,-224.5 178.5,-224.5"/>
<text text-anchor="middle" x="205" y="-231.5" font-family="Helvetica,sans-Serif" font-size="10.00">iterator</text>
</a>
</g>
</g>
<!-- Node1&#45;&gt;Node4 -->
<g id="edge3" class="edge">
<title>Node1&#45;&gt;Node4</title>
<path fill="none" stroke="midnightblue" d="M199.26,-342.32C175.05,-334.05 151.8,-320.9 137,-300 122.44,-279.43 150.13,-260.05 174.43,-247.89"/>
<polygon fill="midnightblue" stroke="midnightblue" points="175.95,-251.04 183.48,-243.6 172.95,-244.72 175.95,-251.04"/>
</g>
<!-- Node5 -->
<g id="node5" class="node">
<title>Node5</title>
<g id="a_node5"><a xlink:title=" ">
<polygon fill="none" stroke="#bfbfbf" points="146,-280.5 146,-299.5 202,-299.5 202,-280.5 146,-280.5"/>
<text text-anchor="middle" x="174" y="-287.5" font-family="Helvetica,sans-Serif" font-size="10.00">optional</text>
</a>
</g>
</g>
<!-- Node1&#45;&gt;Node5 -->
<g id="edge4" class="edge">
<title>Node1&#45;&gt;Node5</title>
<path fill="none" stroke="midnightblue" d="M259.4,-336.5C239.97,-326.15 216.6,-313.69 199.22,-304.43"/>
<polygon fill="midnightblue" stroke="midnightblue" points="200.71,-301.27 190.24,-299.65 197.42,-307.44 200.71,-301.27"/>
</g>
<!-- Node6 -->
<g id="node6" class="node">
<title>Node6</title>
<g id="a_node6"><a xlink:title=" ">
<polygon fill="none" stroke="#bfbfbf" points="220.5,-280.5 220.5,-299.5 267.5,-299.5 267.5,-280.5 220.5,-280.5"/>
<text text-anchor="middle" x="244" y="-287.5" font-family="Helvetica,sans-Serif" font-size="10.00">vector</text>
</a>
</g>
</g>
<!-- Node1&#45;&gt;Node6 -->
<g id="edge5" class="edge">
<title>Node1&#45;&gt;Node6</title>
<path fill="none" stroke="midnightblue" d="M280.4,-336.5C273.04,-327.3 264.35,-316.44 257.31,-307.63"/>
<polygon fill="midnightblue" stroke="midnightblue" points="259.9,-305.27 250.92,-299.65 254.44,-309.65 259.9,-305.27"/>
</g>
<!-- Node7 -->
<g id="node7" class="node">
<title>Node7</title>
<g id="a_node7"><a xlink:href="ErrorHandling_8h.html" target="_top" xlink:title=" ">
<polygon fill="none" stroke="black" points="146.5,-168.5 146.5,-187.5 307.5,-187.5 307.5,-168.5 146.5,-168.5"/>
<text text-anchor="middle" x="227" y="-175.5" font-family="Helvetica,sans-Serif" font-size="10.00">open62541pp/ErrorHandling.h</text>
</a>
</g>
</g>
<!-- Node1&#45;&gt;Node7 -->
<g id="edge6" class="edge">
<title>Node1&#45;&gt;Node7</title>
<path fill="none" stroke="midnightblue" d="M295.82,-336.4C294.62,-319.42 290.26,-295.25 276,-280 241.73,-243.35 198.28,-284.75 169,-244 155.33,-224.98 179.43,-205.18 200.6,-192.51"/>
<polygon fill="midnightblue" stroke="midnightblue" points="202.4,-195.51 209.38,-187.54 198.95,-189.42 202.4,-195.51"/>
</g>
<!-- Node10 -->
<g id="node10" class="node">
<title>Node10</title>
<g id="a_node10"><a xlink:href="open62541_8h.html" target="_top" xlink:title=" ">
<polygon fill="none" stroke="black" points="290.5,-56.5 290.5,-75.5 439.5,-75.5 439.5,-56.5 290.5,-56.5"/>
<text text-anchor="middle" x="365" y="-63.5" font-family="Helvetica,sans-Serif" font-size="10.00">open62541pp/open62541.h</text>
</a>
</g>
</g>
<!-- Node1&#45;&gt;Node10 -->
<g id="edge47" class="edge">
<title>Node1&#45;&gt;Node10</title>
<path fill="none" stroke="midnightblue" d="M199.37,-340.04C141.86,-324.4 80,-293.89 80,-235 80,-235 80,-235 80,-177 80,-137.68 105.71,-131.24 140,-112 182.62,-88.08 236.07,-76.75 280.18,-71.44"/>
<polygon fill="midnightblue" stroke="midnightblue" points="280.76,-74.9 290.31,-70.31 279.98,-67.94 280.76,-74.9"/>
</g>
<!-- Node14 -->
<g id="node14" class="node">
<title>Node14</title>
<g id="a_node14"><a xlink:href="Helper_8h.html" target="_top" xlink:title=" ">
<polygon fill="none" stroke="black" points="478,-168.5 478,-187.5 604,-187.5 604,-168.5 478,-168.5"/>
<text text-anchor="middle" x="541" y="-175.5" font-family="Helvetica,sans-Serif" font-size="10.00">open62541pp/Helper.h</text>
</a>
</g>
</g>
<!-- Node1&#45;&gt;Node14 -->
<g id="edge13" class="edge">
<title>Node1&#45;&gt;Node14</title>
<path fill="none" stroke="midnightblue" d="M392.62,-347.83C429.15,-340.3 468.69,-326.21 497,-300 526.29,-272.88 536.13,-224.72 539.4,-198.07"/>
<polygon fill="midnightblue" stroke="midnightblue" points="542.91,-198.09 540.46,-187.79 535.95,-197.37 542.91,-198.09"/>
</g>
<!-- Node17 -->
<g id="node17" class="node">
<title>Node17</title>
<g id="a_node17"><a xlink:href="Types_8h.html" target="_top" xlink:title=" ">
<polygon fill="none" stroke="black" points="736,-112.5 736,-131.5 858,-131.5 858,-112.5 736,-112.5"/>
<text text-anchor="middle" x="797" y="-119.5" font-family="Helvetica,sans-Serif" font-size="10.00">open62541pp/Types.h</text>
</a>
</g>
</g>
<!-- Node1&#45;&gt;Node17 -->
<g id="edge46" class="edge">
<title>Node1&#45;&gt;Node17</title>
<path fill="none" stroke="midnightblue" d="M392.67,-347.69C531.68,-333.89 778.64,-301.85 845,-244 871.41,-220.97 882.69,-198.81 866,-168 858.25,-153.7 843.77,-143.22 830.06,-135.99"/>
<polygon fill="midnightblue" stroke="midnightblue" points="831.31,-132.71 820.79,-131.5 828.26,-139.01 831.31,-132.71"/>
</g>
<!-- Node20 -->
<g id="node20" class="node">
<title>Node20</title>
<g id="a_node20"><a xlink:href="TypeConverter_8h.html" target="_top" xlink:title=" ">
<polygon fill="none" stroke="black" points="324,-280.5 324,-299.5 488,-299.5 488,-280.5 324,-280.5"/>
<text text-anchor="middle" x="406" y="-287.5" font-family="Helvetica,sans-Serif" font-size="10.00">open62541pp/TypeConverter.h</text>
</a>
</g>
</g>
<!-- Node1&#45;&gt;Node20 -->
<g id="edge25" class="edge">
<title>Node1&#45;&gt;Node20</title>
<path fill="none" stroke="midnightblue" d="M329,-336.5C346.19,-326.34 366.81,-314.16 382.39,-304.95"/>
<polygon fill="midnightblue" stroke="midnightblue" points="384.53,-307.75 391.36,-299.65 380.97,-301.73 384.53,-307.75"/>
</g>
<!-- Node21 -->
<g id="node21" class="node">
<title>Node21</title>
<g id="a_node21"><a xlink:href="TypeWrapper_8h.html" target="_top" xlink:title=" ">
<polygon fill="none" stroke="black" points="678,-224.5 678,-243.5 836,-243.5 836,-224.5 678,-224.5"/>
<text text-anchor="middle" x="757" y="-231.5" font-family="Helvetica,sans-Serif" font-size="10.00">open62541pp/TypeWrapper.h</text>
</a>
</g>
</g>
<!-- Node1&#45;&gt;Node21 -->
<g id="edge45" class="edge">
<title>Node1&#45;&gt;Node21</title>
<path fill="none" stroke="midnightblue" d="M392.78,-336.45C439.85,-326.45 497.11,-313.54 548,-300 609.91,-283.52 680.93,-260.56 722.2,-246.79"/>
<polygon fill="midnightblue" stroke="midnightblue" points="723.41,-250.08 731.78,-243.59 721.19,-243.44 723.41,-250.08"/>
</g>
<!-- Node8 -->
<g id="node8" class="node">
<title>Node8</title>
<g id="a_node8"><a xlink:title=" ">
<polygon fill="none" stroke="#bfbfbf" points="194.5,-112.5 194.5,-131.5 259.5,-131.5 259.5,-112.5 194.5,-112.5"/>
<text text-anchor="middle" x="227" y="-119.5" font-family="Helvetica,sans-Serif" font-size="10.00">stdexcept</text>
</a>
</g>
</g>
<!-- Node7&#45;&gt;Node8 -->
<g id="edge7" class="edge">
<title>Node7&#45;&gt;Node8</title>
<path fill="none" stroke="midnightblue" d="M227,-168.08C227,-161.01 227,-150.86 227,-141.99"/>
<polygon fill="midnightblue" stroke="midnightblue" points="230.5,-141.75 227,-131.75 223.5,-141.75 230.5,-141.75"/>
</g>
<!-- Node9 -->
<g id="node9" class="node">
<title>Node9</title>
<g id="a_node9"><a xlink:title=" ">
<polygon fill="none" stroke="#bfbfbf" points="377,-112.5 377,-131.5 421,-131.5 421,-112.5 377,-112.5"/>
<text text-anchor="middle" x="399" y="-119.5" font-family="Helvetica,sans-Serif" font-size="10.00">string</text>
</a>
</g>
</g>
<!-- Node7&#45;&gt;Node9 -->
<g id="edge8" class="edge">
<title>Node7&#45;&gt;Node9</title>
<path fill="none" stroke="midnightblue" d="M254.25,-168.44C284.85,-158.84 334.46,-143.26 366.91,-133.07"/>
<polygon fill="midnightblue" stroke="midnightblue" points="368.3,-136.31 376.8,-129.97 366.21,-129.63 368.3,-136.31"/>
</g>
<!-- Node7&#45;&gt;Node10 -->
<g id="edge9" class="edge">
<title>Node7&#45;&gt;Node10</title>
<path fill="none" stroke="midnightblue" d="M237.83,-168.37C261.31,-149.65 317.14,-105.15 346.39,-81.83"/>
<polygon fill="midnightblue" stroke="midnightblue" points="348.58,-84.56 354.22,-75.59 344.22,-79.09 348.58,-84.56"/>
</g>
<!-- Node11 -->
<g id="node11" class="node">
<title>Node11</title>
<g id="a_node11"><a xlink:href="open62541/nodeids_8h.html.html" xlink:title=" ">
<polygon fill="none" stroke="black" points="170.5,-0.5 170.5,-19.5 291.5,-19.5 291.5,-0.5 170.5,-0.5"/>
<text text-anchor="middle" x="231" y="-7.5" font-family="Helvetica,sans-Serif" font-size="10.00">open62541/nodeids.h</text>
</a>
</g>
</g>
<!-- Node10&#45;&gt;Node11 -->
<g id="edge10" class="edge">
<title>Node10&#45;&gt;Node11</title>
<path fill="none" stroke="midnightblue" d="M343.77,-56.44C321.62,-47.52 286.68,-33.44 261.56,-23.32"/>
<polygon fill="midnightblue" stroke="midnightblue" points="262.72,-20.01 252.13,-19.52 260.1,-26.5 262.72,-20.01"/>
</g>
<!-- Node12 -->
<g id="node12" class="node">
<title>Node12</title>
<g id="a_node12"><a xlink:href="open62541/types_8h.html.html" xlink:title=" ">
<polygon fill="none" stroke="black" points="310,-0.5 310,-19.5 420,-19.5 420,-0.5 310,-0.5"/>
<text text-anchor="middle" x="365" y="-7.5" font-family="Helvetica,sans-Serif" font-size="10.00">open62541/types.h</text>
</a>
</g>
</g>
<!-- Node10&#45;&gt;Node12 -->
<g id="edge11" class="edge">
<title>Node10&#45;&gt;Node12</title>
<path fill="none" stroke="midnightblue" d="M365,-56.08C365,-49.01 365,-38.86 365,-29.99"/>
<polygon fill="midnightblue" stroke="midnightblue" points="368.5,-29.75 365,-19.75 361.5,-29.75 368.5,-29.75"/>
</g>
<!-- Node13 -->
<g id="node13" class="node">
<title>Node13</title>
<g id="a_node13"><a xlink:href="open62541/types__generated_8h.html.html" xlink:title=" ">
<polygon fill="none" stroke="black" points="438,-0.5 438,-19.5 602,-19.5 602,-0.5 438,-0.5"/>
<text text-anchor="middle" x="520" y="-7.5" font-family="Helvetica,sans-Serif" font-size="10.00">open62541/types_generated.h</text>
</a>
</g>
</g>
<!-- Node10&#45;&gt;Node13 -->
<g id="edge12" class="edge">
<title>Node10&#45;&gt;Node13</title>
<path fill="none" stroke="midnightblue" d="M389.56,-56.44C415.52,-47.4 456.67,-33.06 485.8,-22.92"/>
<polygon fill="midnightblue" stroke="midnightblue" points="487.26,-26.11 495.55,-19.52 484.96,-19.5 487.26,-26.11"/>
</g>
<!-- Node14&#45;&gt;Node9 -->
<g id="edge14" class="edge">
<title>Node14&#45;&gt;Node9</title>
<path fill="none" stroke="midnightblue" d="M518.5,-168.44C494.92,-159.48 457.68,-145.31 431.04,-135.18"/>
<polygon fill="midnightblue" stroke="midnightblue" points="431.99,-131.8 421.4,-131.52 429.5,-138.34 431.99,-131.8"/>
</g>
<!-- Node14&#45;&gt;Node10 -->
<g id="edge24" class="edge">
<title>Node14&#45;&gt;Node10</title>
<path fill="none" stroke="midnightblue" d="M527.19,-168.37C496.86,-149.41 424.2,-104 387.31,-80.94"/>
<polygon fill="midnightblue" stroke="midnightblue" points="389.08,-77.92 378.75,-75.59 385.37,-83.86 389.08,-77.92"/>
</g>
<!-- Node15 -->
<g id="node15" class="node">
<title>Node15</title>
<g id="a_node15"><a xlink:title=" ">
<polygon fill="none" stroke="#bfbfbf" points="792.5,-56.5 792.5,-75.5 865.5,-75.5 865.5,-56.5 792.5,-56.5"/>
<text text-anchor="middle" x="829" y="-63.5" font-family="Helvetica,sans-Serif" font-size="10.00">string_view</text>
</a>
</g>
</g>
<!-- Node14&#45;&gt;Node15 -->
<g id="edge15" class="edge">
<title>Node14&#45;&gt;Node15</title>
<path fill="none" stroke="midnightblue" d="M563.6,-168.37C614.49,-148.93 738.22,-101.67 796.99,-79.23"/>
<polygon fill="midnightblue" stroke="midnightblue" points="798.41,-82.43 806.51,-75.59 795.92,-75.89 798.41,-82.43"/>
</g>
<!-- Node16 -->
<g id="node16" class="node">
<title>Node16</title>
<g id="a_node16"><a xlink:title=" ">
<polygon fill="none" stroke="#bfbfbf" points="506.5,-112.5 506.5,-131.5 575.5,-131.5 575.5,-112.5 506.5,-112.5"/>
<text text-anchor="middle" x="541" y="-119.5" font-family="Helvetica,sans-Serif" font-size="10.00">type_traits</text>
</a>
</g>
</g>
<!-- Node14&#45;&gt;Node16 -->
<g id="edge16" class="edge">
<title>Node14&#45;&gt;Node16</title>
<path fill="none" stroke="midnightblue" d="M541,-168.08C541,-161.01 541,-150.86 541,-141.99"/>
<polygon fill="midnightblue" stroke="midnightblue" points="544.5,-141.75 541,-131.75 537.5,-141.75 544.5,-141.75"/>
</g>
<!-- Node14&#45;&gt;Node17 -->
<g id="edge17" class="edge">
<title>Node14&#45;&gt;Node17</title>
<path fill="none" stroke="midnightblue" d="M581.56,-168.44C626.32,-159 698.38,-143.8 746.7,-133.61"/>
<polygon fill="midnightblue" stroke="midnightblue" points="747.56,-137.01 756.63,-131.52 746.12,-130.16 747.56,-137.01"/>
</g>
<!-- Node17&#45;&gt;Node3 -->
<g id="edge18" class="edge">
<title>Node17&#45;&gt;Node3</title>
<path fill="none" stroke="midnightblue" d="M826.63,-112.44C859.91,-102.83 913.85,-87.26 949.13,-77.07"/>
<polygon fill="midnightblue" stroke="midnightblue" points="950.36,-80.36 959,-74.22 948.42,-73.63 950.36,-80.36"/>
</g>
<!-- Node17&#45;&gt;Node10 -->
<g id="edge23" class="edge">
<title>Node17&#45;&gt;Node10</title>
<path fill="none" stroke="midnightblue" d="M735.56,-113.32C658.78,-103.72 527.29,-87.29 443.35,-76.79"/>
<polygon fill="midnightblue" stroke="midnightblue" points="443.71,-73.31 433.35,-75.54 442.84,-80.26 443.71,-73.31"/>
</g>
<!-- Node17&#45;&gt;Node15 -->
<g id="edge19" class="edge">
<title>Node17&#45;&gt;Node15</title>
<path fill="none" stroke="midnightblue" d="M802.28,-112.08C806.71,-104.61 813.16,-93.72 818.62,-84.52"/>
<polygon fill="midnightblue" stroke="midnightblue" points="821.73,-86.14 823.81,-75.75 815.71,-82.57 821.73,-86.14"/>
</g>
<!-- Node18 -->
<g id="node18" class="node">
<title>Node18</title>
<g id="a_node18"><a xlink:title=" ">
<polygon fill="none" stroke="#bfbfbf" points="699.5,-0.5 699.5,-19.5 740.5,-19.5 740.5,-0.5 699.5,-0.5"/>
<text text-anchor="middle" x="720" y="-7.5" font-family="Helvetica,sans-Serif" font-size="10.00">tuple</text>
</a>
</g>
</g>
<!-- Node17&#45;&gt;Node18 -->
<g id="edge20" class="edge">
<title>Node17&#45;&gt;Node18</title>
<path fill="none" stroke="midnightblue" d="M790.96,-112.37C778.25,-94.22 748.56,-51.8 731.89,-27.99"/>
<polygon fill="midnightblue" stroke="midnightblue" points="734.62,-25.78 726.01,-19.59 728.88,-29.79 734.62,-25.78"/>
</g>
<!-- Node19 -->
<g id="node19" class="node">
<title>Node19</title>
<g id="a_node19"><a xlink:href="Traits_8h.html" target="_top" xlink:title=" ">
<polygon fill="none" stroke="black" points="614.5,-56.5 614.5,-75.5 735.5,-75.5 735.5,-56.5 614.5,-56.5"/>
<text text-anchor="middle" x="675" y="-63.5" font-family="Helvetica,sans-Serif" font-size="10.00">open62541pp/Traits.h</text>
</a>
</g>
</g>
<!-- Node17&#45;&gt;Node19 -->
<g id="edge21" class="edge">
<title>Node17&#45;&gt;Node19</title>
<path fill="none" stroke="midnightblue" d="M777.67,-112.44C757.68,-103.6 726.26,-89.69 703.44,-79.59"/>
<polygon fill="midnightblue" stroke="midnightblue" points="704.8,-76.36 694.24,-75.52 701.97,-82.76 704.8,-76.36"/>
</g>
<!-- Node19&#45;&gt;Node18 -->
<g id="edge22" class="edge">
<title>Node19&#45;&gt;Node18</title>
<path fill="none" stroke="midnightblue" d="M682.43,-56.08C688.85,-48.38 698.31,-37.03 706.12,-27.65"/>
<polygon fill="midnightblue" stroke="midnightblue" points="708.99,-29.67 712.71,-19.75 703.62,-25.19 708.99,-29.67"/>
</g>
<!-- Node20&#45;&gt;Node4 -->
<g id="edge26" class="edge">
<title>Node20&#45;&gt;Node4</title>
<path fill="none" stroke="midnightblue" d="M374.15,-280.44C338.13,-270.77 279.57,-255.03 241.67,-244.85"/>
<polygon fill="midnightblue" stroke="midnightblue" points="242.13,-241.35 231.56,-242.14 240.31,-248.11 242.13,-241.35"/>
</g>
<!-- Node20&#45;&gt;Node7 -->
<g id="edge29" class="edge">
<title>Node20&#45;&gt;Node7</title>
<path fill="none" stroke="midnightblue" d="M388.64,-280.4C371.44,-271.71 344.48,-257.66 322,-244 295.31,-227.79 265.81,-207.15 246.87,-193.53"/>
<polygon fill="midnightblue" stroke="midnightblue" points="248.88,-190.66 238.72,-187.63 244.77,-196.33 248.88,-190.66"/>
</g>
<!-- Node20&#45;&gt;Node9 -->
<g id="edge27" class="edge">
<title>Node20&#45;&gt;Node9</title>
<path fill="none" stroke="midnightblue" d="M405.62,-280.08C404.52,-253.95 401.29,-177.21 399.78,-141.58"/>
<polygon fill="midnightblue" stroke="midnightblue" points="403.28,-141.41 399.36,-131.57 396.29,-141.71 403.28,-141.41"/>
</g>
<!-- Node20&#45;&gt;Node10 -->
<g id="edge44" class="edge">
<title>Node20&#45;&gt;Node10</title>
<path fill="none" stroke="midnightblue" d="M383.08,-280.34C359.45,-271.38 321.57,-256.91 289,-244 267.13,-235.33 262,-232.33 240,-224 194.65,-206.83 165.07,-227.54 137,-188 92.38,-125.14 210.66,-92.13 293.07,-77.23"/>
<polygon fill="midnightblue" stroke="midnightblue" points="293.68,-80.68 302.93,-75.5 292.47,-73.78 293.68,-80.68"/>
</g>
<!-- Node20&#45;&gt;Node14 -->
<g id="edge30" class="edge">
<title>Node20&#45;&gt;Node14</title>
<path fill="none" stroke="midnightblue" d="M417.66,-280.17C429.46,-271.2 448.15,-256.83 464,-244 484.65,-227.28 507.9,-207.52 523.4,-194.22"/>
<polygon fill="midnightblue" stroke="midnightblue" points="525.85,-196.72 531.14,-187.55 521.28,-191.42 525.85,-196.72"/>
</g>
<!-- Node20&#45;&gt;Node16 -->
<g id="edge28" class="edge">
<title>Node20&#45;&gt;Node16</title>
<path fill="none" stroke="midnightblue" d="M408.68,-280.44C415.67,-259.25 436.2,-203.48 469,-168 481.23,-154.77 498.19,-143.91 512.58,-136.18"/>
<polygon fill="midnightblue" stroke="midnightblue" points="514.29,-139.24 521.59,-131.56 511.1,-133.01 514.29,-139.24"/>
</g>
<!-- Node20&#45;&gt;Node17 -->
<g id="edge43" class="edge">
<title>Node20&#45;&gt;Node17</title>
<path fill="none" stroke="midnightblue" d="M426.2,-280.42C490.55,-253.1 691,-168 767.2,-135.65"/>
<polygon fill="midnightblue" stroke="midnightblue" points="768.85,-138.75 776.69,-131.62 766.12,-132.31 768.85,-138.75"/>
</g>
<!-- Node20&#45;&gt;Node19 -->
<g id="edge31" class="edge">
<title>Node20&#45;&gt;Node19</title>
<path fill="none" stroke="midnightblue" d="M399.72,-280.38C380.12,-252.38 324.02,-162.89 368,-112 397.89,-77.41 523.11,-68.9 604.1,-67.1"/>
<polygon fill="midnightblue" stroke="midnightblue" points="604.31,-70.6 614.24,-66.91 604.18,-63.6 604.31,-70.6"/>
</g>
<!-- Node20&#45;&gt;Node21 -->
<g id="edge32" class="edge">
<title>Node20&#45;&gt;Node21</title>
<path fill="none" stroke="midnightblue" d="M461.62,-280.44C524.13,-270.83 625.52,-255.23 691.73,-245.04"/>
<polygon fill="midnightblue" stroke="midnightblue" points="692.29,-248.5 701.64,-243.52 691.23,-241.58 692.29,-248.5"/>
</g>
<!-- Node21&#45;&gt;Node3 -->
<g id="edge34" class="edge">
<title>Node21&#45;&gt;Node3</title>
<path fill="none" stroke="midnightblue" d="M798.9,-224.43C825.3,-217.6 859.16,-206.12 885,-188 925.4,-159.67 958.34,-110.57 974.05,-84.47"/>
<polygon fill="midnightblue" stroke="midnightblue" points="977.16,-86.09 979.2,-75.69 971.12,-82.54 977.16,-86.09"/>
</g>
<!-- Node21&#45;&gt;Node7 -->
<g id="edge39" class="edge">
<title>Node21&#45;&gt;Node7</title>
<path fill="none" stroke="midnightblue" d="M677.94,-224.94C581.69,-215.14 419.47,-198.61 318.08,-188.28"/>
<polygon fill="midnightblue" stroke="midnightblue" points="318.16,-184.77 307.85,-187.24 317.45,-191.73 318.16,-184.77"/>
</g>
<!-- Node21&#45;&gt;Node9 -->
<g id="edge35" class="edge">
<title>Node21&#45;&gt;Node9</title>
<path fill="none" stroke="midnightblue" d="M677.82,-232.98C617.78,-230.11 534.68,-219.86 469,-188 445.8,-176.74 424.96,-155.18 412.17,-139.99"/>
<polygon fill="midnightblue" stroke="midnightblue" points="414.63,-137.46 405.61,-131.9 409.19,-141.87 414.63,-137.46"/>
</g>
<!-- Node21&#45;&gt;Node10 -->
<g id="edge42" class="edge">
<title>Node21&#45;&gt;Node10</title>
<path fill="none" stroke="midnightblue" d="M747.72,-224.37C723.11,-202.01 653.35,-141.85 584,-112 541.59,-93.75 491.32,-82.74 449.64,-76.19"/>
<polygon fill="midnightblue" stroke="midnightblue" points="449.92,-72.69 439.51,-74.66 448.88,-79.61 449.92,-72.69"/>
</g>
<!-- Node21&#45;&gt;Node14 -->
<g id="edge40" class="edge">
<title>Node21&#45;&gt;Node14</title>
<path fill="none" stroke="midnightblue" d="M722.77,-224.44C685.49,-215.12 625.73,-200.18 584.99,-190"/>
<polygon fill="midnightblue" stroke="midnightblue" points="585.62,-186.55 575.07,-187.52 583.92,-193.34 585.62,-186.55"/>
</g>
<!-- Node21&#45;&gt;Node15 -->
<g id="edge36" class="edge">
<title>Node21&#45;&gt;Node15</title>
<path fill="none" stroke="midnightblue" d="M808.83,-224.45C830.2,-218.12 852.96,-207.11 866,-188 885.03,-160.09 878.6,-143.73 867,-112 862.94,-100.91 854.81,-90.67 847.11,-82.76"/>
<polygon fill="midnightblue" stroke="midnightblue" points="849.36,-80.07 839.71,-75.7 844.53,-85.14 849.36,-80.07"/>
</g>
<!-- Node21&#45;&gt;Node16 -->
<g id="edge37" class="edge">
<title>Node21&#45;&gt;Node16</title>
<path fill="none" stroke="midnightblue" d="M740.05,-224.37C702.43,-205.21 611.76,-159.04 566.95,-136.22"/>
<polygon fill="midnightblue" stroke="midnightblue" points="568.37,-133.01 557.87,-131.59 565.19,-139.25 568.37,-133.01"/>
</g>
<!-- Node21&#45;&gt;Node17 -->
<g id="edge41" class="edge">
<title>Node21&#45;&gt;Node17</title>
<path fill="none" stroke="midnightblue" d="M796.25,-224.48C816,-217.99 838.18,-206.84 850,-188 861.82,-169.15 840.65,-149.65 821.66,-136.98"/>
<polygon fill="midnightblue" stroke="midnightblue" points="823.27,-133.86 812.94,-131.51 819.55,-139.79 823.27,-133.86"/>
</g>
<!-- Node22 -->
<g id="node22" class="node">
<title>Node22</title>
<g id="a_node22"><a xlink:title=" ">
<polygon fill="none" stroke="#bfbfbf" points="736,-168.5 736,-187.5 778,-187.5 778,-168.5 736,-168.5"/>
<text text-anchor="middle" x="757" y="-175.5" font-family="Helvetica,sans-Serif" font-size="10.00">array</text>
</a>
</g>
</g>
<!-- Node21&#45;&gt;Node22 -->
<g id="edge33" class="edge">
<title>Node21&#45;&gt;Node22</title>
<path fill="none" stroke="midnightblue" d="M757,-224.08C757,-217.01 757,-206.86 757,-197.99"/>
<polygon fill="midnightblue" stroke="midnightblue" points="760.5,-197.75 757,-187.75 753.5,-197.75 760.5,-197.75"/>
</g>
<!-- Node23 -->
<g id="node23" class="node">
<title>Node23</title>
<g id="a_node23"><a xlink:title=" ">
<polygon fill="none" stroke="#bfbfbf" points="796.5,-168.5 796.5,-187.5 841.5,-187.5 841.5,-168.5 796.5,-168.5"/>
<text text-anchor="middle" x="819" y="-175.5" font-family="Helvetica,sans-Serif" font-size="10.00">utility</text>
</a>
</g>
</g>
<!-- Node21&#45;&gt;Node23 -->
<g id="edge38" class="edge">
<title>Node21&#45;&gt;Node23</title>
<path fill="none" stroke="midnightblue" d="M766.96,-224.32C776.13,-216.34 789.94,-204.31 801.03,-194.65"/>
<polygon fill="midnightblue" stroke="midnightblue" points="803.62,-197.04 808.86,-187.83 799.02,-191.76 803.62,-197.04"/>
</g>
</g>
</svg>
