<?xml version="1.0" encoding="UTF-8" standalone="no"?>
<!DOCTYPE svg PUBLIC "-//W3C//DTD SVG 1.1//EN"
 "http://www.w3.org/Graphics/SVG/1.1/DTD/svg11.dtd">
<!-- Generated by graphviz version 2.43.0 (0)
 -->
<!-- Title: /home/runner/work/open62541pp/open62541pp/include/open62541pp/Variant.h Pages: 1 -->
<svg width="1192pt" height="386pt"
 viewBox="0.00 0.00 1191.50 386.00" xmlns="http://www.w3.org/2000/svg" xmlns:xlink="http://www.w3.org/1999/xlink">
<g id="graph0" class="graph" transform="scale(1 1) rotate(0) translate(4 382)">
<title>/home/runner/work/open62541pp/open62541pp/include/open62541pp/Variant.h</title>
<!-- Node1 -->
<g id="node1" class="node">
<title>Node1</title>
<g id="a_node1"><a xlink:title=" ">
<polygon fill="#bfbfbf" stroke="black" points="643.5,-336.5 643.5,-377.5 836.5,-377.5 836.5,-336.5 643.5,-336.5"/>
<text text-anchor="start" x="651.5" y="-365.5" font-family="Helvetica,sans-Serif" font-size="10.00">/home/runner/work/open62541pp</text>
<text text-anchor="start" x="651.5" y="-354.5" font-family="Helvetica,sans-Serif" font-size="10.00">/open62541pp/include/open62541pp</text>
<text text-anchor="middle" x="740" y="-343.5" font-family="Helvetica,sans-Serif" font-size="10.00">/Variant.h</text>
</a>
</g>
</g>
<!-- Node2 -->
<g id="node2" class="node">
<title>Node2</title>
<g id="a_node2"><a xlink:title=" ">
<polygon fill="none" stroke="#bfbfbf" points="0,-280.5 0,-299.5 52,-299.5 52,-280.5 0,-280.5"/>
<text text-anchor="middle" x="26" y="-287.5" font-family="Helvetica,sans-Serif" font-size="10.00">cassert</text>
</a>
</g>
</g>
<!-- Node1&#45;&gt;Node2 -->
<g id="edge1" class="edge">
<title>Node1&#45;&gt;Node2</title>
<path fill="none" stroke="midnightblue" d="M643.24,-352.17C511.89,-346.02 270.12,-331.29 66,-300 64.73,-299.81 63.45,-299.59 62.15,-299.37"/>
<polygon fill="midnightblue" stroke="midnightblue" points="62.63,-295.9 52.15,-297.43 61.3,-302.77 62.63,-295.9"/>
</g>
<!-- Node3 -->
<g id="node3" class="node">
<title>Node3</title>
<g id="a_node3"><a xlink:title=" ">
<polygon fill="none" stroke="#bfbfbf" points="157,-56.5 157,-75.5 207,-75.5 207,-56.5 157,-56.5"/>
<text text-anchor="middle" x="182" y="-63.5" font-family="Helvetica,sans-Serif" font-size="10.00">cstdint</text>
</a>
</g>
</g>
<!-- Node1&#45;&gt;Node3 -->
<g id="edge2" class="edge">
<title>Node1&#45;&gt;Node3</title>
<path fill="none" stroke="midnightblue" d="M643.32,-348.15C460,-331.96 80,-291.57 80,-235 80,-235 80,-235 80,-177 80,-132.39 125.66,-98.23 155.88,-80.51"/>
<polygon fill="midnightblue" stroke="midnightblue" points="157.7,-83.5 164.7,-75.55 154.27,-77.4 157.7,-83.5"/>
</g>
<!-- Node4 -->
<g id="node4" class="node">
<title>Node4</title>
<g id="a_node4"><a xlink:title=" ">
<polygon fill="none" stroke="#bfbfbf" points="882.5,-224.5 882.5,-243.5 935.5,-243.5 935.5,-224.5 882.5,-224.5"/>
<text text-anchor="middle" x="909" y="-231.5" font-family="Helvetica,sans-Serif" font-size="10.00">iterator</text>
</a>
</g>
</g>
<!-- Node1&#45;&gt;Node4 -->
<g id="edge3" class="edge">
<title>Node1&#45;&gt;Node4</title>
<path fill="none" stroke="midnightblue" d="M774.46,-336.38C791.8,-326.11 812.92,-312.99 831,-300 852.74,-284.38 876.14,-264.41 891.57,-250.76"/>
<polygon fill="midnightblue" stroke="midnightblue" points="894.14,-253.16 899.27,-243.89 889.48,-247.94 894.14,-253.16"/>
</g>
<!-- Node5 -->
<g id="node5" class="node">
<title>Node5</title>
<g id="a_node5"><a xlink:title=" ">
<polygon fill="none" stroke="#bfbfbf" points="1062,-280.5 1062,-299.5 1118,-299.5 1118,-280.5 1062,-280.5"/>
<text text-anchor="middle" x="1090" y="-287.5" font-family="Helvetica,sans-Serif" font-size="10.00">optional</text>
</a>
</g>
</g>
<!-- Node1&#45;&gt;Node5 -->
<g id="edge4" class="edge">
<title>Node1&#45;&gt;Node5</title>
<path fill="none" stroke="midnightblue" d="M836.56,-339.24C897.33,-328.5 977.36,-313.99 1048,-300 1049.23,-299.76 1050.49,-299.5 1051.75,-299.25"/>
<polygon fill="midnightblue" stroke="midnightblue" points="1052.47,-302.67 1061.56,-297.22 1051.06,-295.82 1052.47,-302.67"/>
</g>
<!-- Node6 -->
<g id="node6" class="node">
<title>Node6</title>
<g id="a_node6"><a xlink:title=" ">
<polygon fill="none" stroke="#bfbfbf" points="1136.5,-280.5 1136.5,-299.5 1183.5,-299.5 1183.5,-280.5 1136.5,-280.5"/>
<text text-anchor="middle" x="1160" y="-287.5" font-family="Helvetica,sans-Serif" font-size="10.00">vector</text>
</a>
</g>
</g>
<!-- Node1&#45;&gt;Node6 -->
<g id="edge5" class="edge">
<title>Node1&#45;&gt;Node6</title>
<path fill="none" stroke="midnightblue" d="M836.79,-345.33C912.97,-336.16 1021.9,-321.34 1126.21,-299.93"/>
<polygon fill="midnightblue" stroke="midnightblue" points="1127.21,-303.3 1136.29,-297.84 1125.79,-296.45 1127.21,-303.3"/>
</g>
<!-- Node7 -->
<g id="node7" class="node">
<title>Node7</title>
<g id="a_node7"><a xlink:href="ErrorHandling_8h.html" target="_top" xlink:title=" ">
<polygon fill="none" stroke="black" points="806.5,-168.5 806.5,-187.5 967.5,-187.5 967.5,-168.5 806.5,-168.5"/>
<text text-anchor="middle" x="887" y="-175.5" font-family="Helvetica,sans-Serif" font-size="10.00">open62541pp/ErrorHandling.h</text>
</a>
</g>
</g>
<!-- Node1&#45;&gt;Node7 -->
<g id="edge6" class="edge">
<title>Node1&#45;&gt;Node7</title>
<path fill="none" stroke="midnightblue" d="M817.22,-336.48C863.7,-320.2 918.8,-291.73 945,-244 955.98,-224 933.87,-204.99 913.86,-192.76"/>
<polygon fill="midnightblue" stroke="midnightblue" points="915.35,-189.58 904.94,-187.63 911.87,-195.65 915.35,-189.58"/>
</g>
<!-- Node10 -->
<g id="node10" class="node">
<title>Node10</title>
<g id="a_node10"><a xlink:href="open62541_8h.html" target="_top" xlink:title=" ">
<polygon fill="none" stroke="black" points="709.5,-56.5 709.5,-75.5 858.5,-75.5 858.5,-56.5 709.5,-56.5"/>
<text text-anchor="middle" x="784" y="-63.5" font-family="Helvetica,sans-Serif" font-size="10.00">open62541pp/open62541.h</text>
</a>
</g>
</g>
<!-- Node1&#45;&gt;Node10 -->
<g id="edge47" class="edge">
<title>Node1&#45;&gt;Node10</title>
<path fill="none" stroke="midnightblue" d="M832.62,-336.44C918.8,-315.5 1034,-279.23 1034,-235 1034,-235 1034,-235 1034,-177 1034,-103.07 941.26,-78.39 868.76,-70.39"/>
<polygon fill="midnightblue" stroke="midnightblue" points="868.97,-66.9 858.67,-69.37 868.27,-73.86 868.97,-66.9"/>
</g>
<!-- Node14 -->
<g id="node14" class="node">
<title>Node14</title>
<g id="a_node14"><a xlink:href="Helper_8h.html" target="_top" xlink:title=" ">
<polygon fill="none" stroke="black" points="184,-168.5 184,-187.5 310,-187.5 310,-168.5 184,-168.5"/>
<text text-anchor="middle" x="247" y="-175.5" font-family="Helvetica,sans-Serif" font-size="10.00">open62541pp/Helper.h</text>
</a>
</g>
</g>
<!-- Node1&#45;&gt;Node14 -->
<g id="edge13" class="edge">
<title>Node1&#45;&gt;Node14</title>
<path fill="none" stroke="midnightblue" d="M652.71,-336.49C574.35,-317.53 457.06,-285.53 360,-244 326.5,-229.67 290.44,-207.65 268.29,-193.29"/>
<polygon fill="midnightblue" stroke="midnightblue" points="269.98,-190.21 259.7,-187.65 266.14,-196.06 269.98,-190.21"/>
</g>
<!-- Node16 -->
<g id="node16" class="node">
<title>Node16</title>
<g id="a_node16"><a xlink:href="Types_8h.html" target="_top" xlink:title=" ">
<polygon fill="none" stroke="black" points="439,-112.5 439,-131.5 561,-131.5 561,-112.5 439,-112.5"/>
<text text-anchor="middle" x="500" y="-119.5" font-family="Helvetica,sans-Serif" font-size="10.00">open62541pp/Types.h</text>
</a>
</g>
</g>
<!-- Node1&#45;&gt;Node16 -->
<g id="edge46" class="edge">
<title>Node1&#45;&gt;Node16</title>
<path fill="none" stroke="midnightblue" d="M643.31,-342.05C496.26,-318.53 227.84,-265.84 175,-188 170.01,-180.65 169.16,-174.7 175,-168 207.22,-131.01 343.22,-123.42 428.75,-122.42"/>
<polygon fill="midnightblue" stroke="midnightblue" points="428.95,-125.92 438.92,-122.33 428.89,-118.92 428.95,-125.92"/>
</g>
<!-- Node19 -->
<g id="node19" class="node">
<title>Node19</title>
<g id="a_node19"><a xlink:href="TypeConverter_8h.html" target="_top" xlink:title=" ">
<polygon fill="none" stroke="black" points="658,-280.5 658,-299.5 822,-299.5 822,-280.5 658,-280.5"/>
<text text-anchor="middle" x="740" y="-287.5" font-family="Helvetica,sans-Serif" font-size="10.00">open62541pp/TypeConverter.h</text>
</a>
</g>
</g>
<!-- Node1&#45;&gt;Node19 -->
<g id="edge25" class="edge">
<title>Node1&#45;&gt;Node19</title>
<path fill="none" stroke="midnightblue" d="M740,-336.5C740,-328.07 740,-318.24 740,-309.87"/>
<polygon fill="midnightblue" stroke="midnightblue" points="743.5,-309.65 740,-299.65 736.5,-309.65 743.5,-309.65"/>
</g>
<!-- Node21 -->
<g id="node21" class="node">
<title>Node21</title>
<g id="a_node21"><a xlink:href="TypeWrapper_8h.html" target="_top" xlink:title=" ">
<polygon fill="none" stroke="black" points="441,-224.5 441,-243.5 599,-243.5 599,-224.5 441,-224.5"/>
<text text-anchor="middle" x="520" y="-231.5" font-family="Helvetica,sans-Serif" font-size="10.00">open62541pp/TypeWrapper.h</text>
</a>
</g>
</g>
<!-- Node1&#45;&gt;Node21 -->
<g id="edge45" class="edge">
<title>Node1&#45;&gt;Node21</title>
<path fill="none" stroke="midnightblue" d="M704.16,-336.29C659.27,-311.6 583.51,-269.93 544.64,-248.55"/>
<polygon fill="midnightblue" stroke="midnightblue" points="546.04,-245.33 535.59,-243.57 542.67,-251.46 546.04,-245.33"/>
</g>
<!-- Node8 -->
<g id="node8" class="node">
<title>Node8</title>
<g id="a_node8"><a xlink:title=" ">
<polygon fill="none" stroke="#bfbfbf" points="806.5,-112.5 806.5,-131.5 871.5,-131.5 871.5,-112.5 806.5,-112.5"/>
<text text-anchor="middle" x="839" y="-119.5" font-family="Helvetica,sans-Serif" font-size="10.00">stdexcept</text>
</a>
</g>
</g>
<!-- Node7&#45;&gt;Node8 -->
<g id="edge7" class="edge">
<title>Node7&#45;&gt;Node8</title>
<path fill="none" stroke="midnightblue" d="M879.07,-168.08C872.15,-160.3 861.93,-148.8 853.55,-139.37"/>
<polygon fill="midnightblue" stroke="midnightblue" points="856.04,-136.9 846.78,-131.75 850.81,-141.55 856.04,-136.9"/>
</g>
<!-- Node9 -->
<g id="node9" class="node">
<title>Node9</title>
<g id="a_node9"><a xlink:title=" ">
<polygon fill="none" stroke="#bfbfbf" points="681,-112.5 681,-131.5 725,-131.5 725,-112.5 681,-112.5"/>
<text text-anchor="middle" x="703" y="-119.5" font-family="Helvetica,sans-Serif" font-size="10.00">string</text>
</a>
</g>
</g>
<!-- Node7&#45;&gt;Node9 -->
<g id="edge8" class="edge">
<title>Node7&#45;&gt;Node9</title>
<path fill="none" stroke="midnightblue" d="M857.84,-168.44C824.27,-158.59 769.32,-142.46 734.7,-132.3"/>
<polygon fill="midnightblue" stroke="midnightblue" points="735.67,-128.94 725.09,-129.48 733.7,-135.66 735.67,-128.94"/>
</g>
<!-- Node7&#45;&gt;Node10 -->
<g id="edge9" class="edge">
<title>Node7&#45;&gt;Node10</title>
<path fill="none" stroke="midnightblue" d="M888.77,-168.07C890.9,-154.6 892.89,-128.86 881,-112 869.81,-96.13 851.56,-85.71 833.9,-78.95"/>
<polygon fill="midnightblue" stroke="midnightblue" points="834.79,-75.55 824.19,-75.55 832.47,-82.16 834.79,-75.55"/>
</g>
<!-- Node11 -->
<g id="node11" class="node">
<title>Node11</title>
<g id="a_node11"><a xlink:href="open62541/nodeids_8h.html.html" xlink:title=" ">
<polygon fill="none" stroke="black" points="589.5,-0.5 589.5,-19.5 710.5,-19.5 710.5,-0.5 589.5,-0.5"/>
<text text-anchor="middle" x="650" y="-7.5" font-family="Helvetica,sans-Serif" font-size="10.00">open62541/nodeids.h</text>
</a>
</g>
</g>
<!-- Node10&#45;&gt;Node11 -->
<g id="edge10" class="edge">
<title>Node10&#45;&gt;Node11</title>
<path fill="none" stroke="midnightblue" d="M762.77,-56.44C740.62,-47.52 705.68,-33.44 680.56,-23.32"/>
<polygon fill="midnightblue" stroke="midnightblue" points="681.72,-20.01 671.13,-19.52 679.1,-26.5 681.72,-20.01"/>
</g>
<!-- Node12 -->
<g id="node12" class="node">
<title>Node12</title>
<g id="a_node12"><a xlink:href="open62541/types_8h.html.html" xlink:title=" ">
<polygon fill="none" stroke="black" points="729,-0.5 729,-19.5 839,-19.5 839,-0.5 729,-0.5"/>
<text text-anchor="middle" x="784" y="-7.5" font-family="Helvetica,sans-Serif" font-size="10.00">open62541/types.h</text>
</a>
</g>
</g>
<!-- Node10&#45;&gt;Node12 -->
<g id="edge11" class="edge">
<title>Node10&#45;&gt;Node12</title>
<path fill="none" stroke="midnightblue" d="M784,-56.08C784,-49.01 784,-38.86 784,-29.99"/>
<polygon fill="midnightblue" stroke="midnightblue" points="787.5,-29.75 784,-19.75 780.5,-29.75 787.5,-29.75"/>
</g>
<!-- Node13 -->
<g id="node13" class="node">
<title>Node13</title>
<g id="a_node13"><a xlink:href="open62541/types__generated_8h.html.html" xlink:title=" ">
<polygon fill="none" stroke="black" points="857,-0.5 857,-19.5 1021,-19.5 1021,-0.5 857,-0.5"/>
<text text-anchor="middle" x="939" y="-7.5" font-family="Helvetica,sans-Serif" font-size="10.00">open62541/types_generated.h</text>
</a>
</g>
</g>
<!-- Node10&#45;&gt;Node13 -->
<g id="edge12" class="edge">
<title>Node10&#45;&gt;Node13</title>
<path fill="none" stroke="midnightblue" d="M808.56,-56.44C834.52,-47.4 875.67,-33.06 904.8,-22.92"/>
<polygon fill="midnightblue" stroke="midnightblue" points="906.26,-26.11 914.55,-19.52 903.96,-19.5 906.26,-26.11"/>
</g>
<!-- Node14&#45;&gt;Node3 -->
<g id="edge14" class="edge">
<title>Node14&#45;&gt;Node3</title>
<path fill="none" stroke="midnightblue" d="M241.9,-168.37C231.22,-150.3 206.33,-108.18 192.23,-84.31"/>
<polygon fill="midnightblue" stroke="midnightblue" points="195.18,-82.42 187.08,-75.59 189.15,-85.98 195.18,-82.42"/>
</g>
<!-- Node14&#45;&gt;Node9 -->
<g id="edge15" class="edge">
<title>Node14&#45;&gt;Node9</title>
<path fill="none" stroke="midnightblue" d="M310.31,-169.17C313.58,-168.77 316.83,-168.38 320,-168 450.02,-152.35 604.96,-134.34 670.82,-126.72"/>
<polygon fill="midnightblue" stroke="midnightblue" points="671.44,-130.17 680.97,-125.54 670.64,-123.22 671.44,-130.17"/>
</g>
<!-- Node14&#45;&gt;Node10 -->
<g id="edge24" class="edge">
<title>Node14&#45;&gt;Node10</title>
<path fill="none" stroke="midnightblue" d="M310.13,-169.23C397.05,-158.37 545.67,-139.18 570,-132 590.22,-126.04 593.17,-119.15 613,-112 652.68,-97.68 699.04,-85.76 733.47,-77.8"/>
<polygon fill="midnightblue" stroke="midnightblue" points="734.33,-81.2 743.3,-75.56 732.77,-74.37 734.33,-81.2"/>
</g>
<!-- Node15 -->
<g id="node15" class="node">
<title>Node15</title>
<g id="a_node15"><a xlink:title=" ">
<polygon fill="none" stroke="#bfbfbf" points="374.5,-56.5 374.5,-75.5 447.5,-75.5 447.5,-56.5 374.5,-56.5"/>
<text text-anchor="middle" x="411" y="-63.5" font-family="Helvetica,sans-Serif" font-size="10.00">string_view</text>
</a>
</g>
</g>
<!-- Node14&#45;&gt;Node15 -->
<g id="edge16" class="edge">
<title>Node14&#45;&gt;Node15</title>
<path fill="none" stroke="midnightblue" d="M259.87,-168.37C288.01,-149.49 355.26,-104.38 389.77,-81.24"/>
<polygon fill="midnightblue" stroke="midnightblue" points="391.84,-84.07 398.19,-75.59 387.94,-78.26 391.84,-84.07"/>
</g>
<!-- Node14&#45;&gt;Node16 -->
<g id="edge17" class="edge">
<title>Node14&#45;&gt;Node16</title>
<path fill="none" stroke="midnightblue" d="M287.09,-168.44C331.32,-159 402.54,-143.8 450.28,-133.61"/>
<polygon fill="midnightblue" stroke="midnightblue" points="451.05,-137.03 460.1,-131.52 449.59,-130.18 451.05,-137.03"/>
</g>
<!-- Node16&#45;&gt;Node3 -->
<g id="edge18" class="edge">
<title>Node16&#45;&gt;Node3</title>
<path fill="none" stroke="midnightblue" d="M449.61,-112.44C384.65,-101.41 273.37,-82.51 216.96,-72.94"/>
<polygon fill="midnightblue" stroke="midnightblue" points="217.54,-69.49 207.1,-71.26 216.37,-76.39 217.54,-69.49"/>
</g>
<!-- Node16&#45;&gt;Node10 -->
<g id="edge23" class="edge">
<title>Node16&#45;&gt;Node10</title>
<path fill="none" stroke="midnightblue" d="M545,-112.44C594.96,-102.94 675.6,-87.61 729.2,-77.42"/>
<polygon fill="midnightblue" stroke="midnightblue" points="730.04,-80.82 739.21,-75.52 728.73,-73.95 730.04,-80.82"/>
</g>
<!-- Node16&#45;&gt;Node15 -->
<g id="edge19" class="edge">
<title>Node16&#45;&gt;Node15</title>
<path fill="none" stroke="midnightblue" d="M485.7,-112.32C471.82,-103.9 450.51,-90.97 434.2,-81.07"/>
<polygon fill="midnightblue" stroke="midnightblue" points="435.63,-77.85 425.26,-75.65 432,-83.83 435.63,-77.85"/>
</g>
<!-- Node17 -->
<g id="node17" class="node">
<title>Node17</title>
<g id="a_node17"><a xlink:title=" ">
<polygon fill="none" stroke="#bfbfbf" points="526.5,-0.5 526.5,-19.5 567.5,-19.5 567.5,-0.5 526.5,-0.5"/>
<text text-anchor="middle" x="547" y="-7.5" font-family="Helvetica,sans-Serif" font-size="10.00">tuple</text>
</a>
</g>
</g>
<!-- Node16&#45;&gt;Node17 -->
<g id="edge20" class="edge">
<title>Node16&#45;&gt;Node17</title>
<path fill="none" stroke="midnightblue" d="M501.95,-112.35C504.97,-99.66 511.34,-75.41 520,-56 524.27,-46.43 530.15,-36.38 535.33,-28.21"/>
<polygon fill="midnightblue" stroke="midnightblue" points="538.41,-29.9 540.96,-19.62 532.55,-26.07 538.41,-29.9"/>
</g>
<!-- Node18 -->
<g id="node18" class="node">
<title>Node18</title>
<g id="a_node18"><a xlink:href="Traits_8h.html" target="_top" xlink:title=" ">
<polygon fill="none" stroke="black" points="528.5,-56.5 528.5,-75.5 649.5,-75.5 649.5,-56.5 528.5,-56.5"/>
<text text-anchor="middle" x="589" y="-63.5" font-family="Helvetica,sans-Serif" font-size="10.00">open62541pp/Traits.h</text>
</a>
</g>
</g>
<!-- Node16&#45;&gt;Node18 -->
<g id="edge21" class="edge">
<title>Node16&#45;&gt;Node18</title>
<path fill="none" stroke="midnightblue" d="M514.3,-112.32C528.18,-103.9 549.49,-90.97 565.8,-81.07"/>
<polygon fill="midnightblue" stroke="midnightblue" points="568,-83.83 574.74,-75.65 564.37,-77.85 568,-83.83"/>
</g>
<!-- Node18&#45;&gt;Node17 -->
<g id="edge22" class="edge">
<title>Node18&#45;&gt;Node17</title>
<path fill="none" stroke="midnightblue" d="M582.06,-56.08C576.07,-48.38 567.25,-37.03 559.95,-27.65"/>
<polygon fill="midnightblue" stroke="midnightblue" points="562.71,-25.5 553.81,-19.75 557.18,-29.79 562.71,-25.5"/>
</g>
<!-- Node19&#45;&gt;Node4 -->
<g id="edge26" class="edge">
<title>Node19&#45;&gt;Node4</title>
<path fill="none" stroke="midnightblue" d="M766.78,-280.44C795.33,-271.32 840.73,-256.81 872.54,-246.65"/>
<polygon fill="midnightblue" stroke="midnightblue" points="873.89,-249.89 882.35,-243.52 871.76,-243.23 873.89,-249.89"/>
</g>
<!-- Node19&#45;&gt;Node7 -->
<g id="edge29" class="edge">
<title>Node19&#45;&gt;Node7</title>
<path fill="none" stroke="midnightblue" d="M751.53,-280.37C776.55,-261.65 836.02,-217.15 867.18,-193.83"/>
<polygon fill="midnightblue" stroke="midnightblue" points="869.61,-196.39 875.52,-187.59 865.42,-190.78 869.61,-196.39"/>
</g>
<!-- Node19&#45;&gt;Node9 -->
<g id="edge27" class="edge">
<title>Node19&#45;&gt;Node9</title>
<path fill="none" stroke="midnightblue" d="M738.56,-280.44C735.17,-260.57 726.17,-209.83 716,-168 713.84,-159.1 711.06,-149.32 708.63,-141.16"/>
<polygon fill="midnightblue" stroke="midnightblue" points="711.97,-140.12 705.71,-131.57 705.27,-142.15 711.97,-140.12"/>
</g>
<!-- Node19&#45;&gt;Node10 -->
<g id="edge44" class="edge">
<title>Node19&#45;&gt;Node10</title>
<path fill="none" stroke="midnightblue" d="M756.22,-280.37C781.15,-267.3 830.55,-242.06 874,-224 918.78,-205.39 948.93,-227.54 977,-188 1017.74,-130.6 908.53,-94.52 838.19,-77.87"/>
<polygon fill="midnightblue" stroke="midnightblue" points="838.64,-74.38 828.11,-75.55 837.07,-81.2 838.64,-74.38"/>
</g>
<!-- Node19&#45;&gt;Node14 -->
<g id="edge30" class="edge">
<title>Node19&#45;&gt;Node14</title>
<path fill="none" stroke="midnightblue" d="M657.79,-281.35C595.26,-274.48 507.43,-262.58 432,-244 375.8,-230.16 312.65,-206.03 276.57,-191.39"/>
<polygon fill="midnightblue" stroke="midnightblue" points="277.72,-188.08 267.14,-187.53 275.07,-194.55 277.72,-188.08"/>
</g>
<!-- Node19&#45;&gt;Node16 -->
<g id="edge43" class="edge">
<title>Node19&#45;&gt;Node16</title>
<path fill="none" stroke="midnightblue" d="M736.97,-280.18C728.14,-254.97 701.87,-183.44 683,-168 651.76,-142.43 608.11,-131.06 571.28,-126.13"/>
<polygon fill="midnightblue" stroke="midnightblue" points="571.44,-122.63 561.09,-124.91 570.6,-129.58 571.44,-122.63"/>
</g>
<!-- Node19&#45;&gt;Node18 -->
<g id="edge31" class="edge">
<title>Node19&#45;&gt;Node18</title>
<path fill="none" stroke="midnightblue" d="M742.89,-280.42C751.68,-252.54 775.12,-163.37 734,-112 716.03,-89.55 687.04,-78.06 659.69,-72.27"/>
<polygon fill="midnightblue" stroke="midnightblue" points="660.18,-68.8 649.71,-70.38 658.88,-75.68 660.18,-68.8"/>
</g>
<!-- Node20 -->
<g id="node20" class="node">
<title>Node20</title>
<g id="a_node20"><a xlink:title=" ">
<polygon fill="none" stroke="#bfbfbf" points="604.5,-168.5 604.5,-187.5 673.5,-187.5 673.5,-168.5 604.5,-168.5"/>
<text text-anchor="middle" x="639" y="-175.5" font-family="Helvetica,sans-Serif" font-size="10.00">type_traits</text>
</a>
</g>
</g>
<!-- Node19&#45;&gt;Node20 -->
<g id="edge28" class="edge">
<title>Node19&#45;&gt;Node20</title>
<path fill="none" stroke="midnightblue" d="M728.64,-280.32C717.67,-271.69 700.88,-257.78 688,-244 673.89,-228.9 659.91,-209.84 650.51,-196.27"/>
<polygon fill="midnightblue" stroke="midnightblue" points="653.32,-194.17 644.8,-187.87 647.53,-198.11 653.32,-194.17"/>
</g>
<!-- Node19&#45;&gt;Node21 -->
<g id="edge32" class="edge">
<title>Node19&#45;&gt;Node21</title>
<path fill="none" stroke="midnightblue" d="M705.14,-280.44C667.08,-271.1 606.04,-256.12 564.54,-245.93"/>
<polygon fill="midnightblue" stroke="midnightblue" points="565.24,-242.5 554.7,-243.52 563.57,-249.3 565.24,-242.5"/>
</g>
<!-- Node21&#45;&gt;Node3 -->
<g id="edge34" class="edge">
<title>Node21&#45;&gt;Node3</title>
<path fill="none" stroke="midnightblue" d="M440.99,-228.13C344.61,-221.36 192.29,-207.69 175,-188 149.99,-159.51 163.65,-111.19 173.94,-85.06"/>
<polygon fill="midnightblue" stroke="midnightblue" points="177.25,-86.21 177.89,-75.63 170.79,-83.5 177.25,-86.21"/>
</g>
<!-- Node21&#45;&gt;Node7 -->
<g id="edge39" class="edge">
<title>Node21&#45;&gt;Node7</title>
<path fill="none" stroke="midnightblue" d="M578.15,-224.44C643.65,-214.81 749.96,-199.16 819.19,-188.98"/>
<polygon fill="midnightblue" stroke="midnightblue" points="819.74,-192.43 829.12,-187.52 818.72,-185.51 819.74,-192.43"/>
</g>
<!-- Node21&#45;&gt;Node9 -->
<g id="edge35" class="edge">
<title>Node21&#45;&gt;Node9</title>
<path fill="none" stroke="midnightblue" d="M528.2,-224.45C541.45,-211.01 568.81,-184.77 596,-168 619.8,-153.32 649.23,-141.33 671.2,-133.43"/>
<polygon fill="midnightblue" stroke="midnightblue" points="672.44,-136.71 680.72,-130.1 670.13,-130.1 672.44,-136.71"/>
</g>
<!-- Node21&#45;&gt;Node10 -->
<g id="edge42" class="edge">
<title>Node21&#45;&gt;Node10</title>
<path fill="none" stroke="midnightblue" d="M524.19,-224.44C531.11,-210.99 546.08,-184.72 565,-168 617.29,-121.8 694.3,-92.95 741.69,-78.44"/>
<polygon fill="midnightblue" stroke="midnightblue" points="742.76,-81.77 751.34,-75.56 740.75,-75.07 742.76,-81.77"/>
</g>
<!-- Node21&#45;&gt;Node14 -->
<g id="edge40" class="edge">
<title>Node21&#45;&gt;Node14</title>
<path fill="none" stroke="midnightblue" d="M476.74,-224.44C428.82,-214.96 351.52,-199.67 300,-189.48"/>
<polygon fill="midnightblue" stroke="midnightblue" points="300.54,-186.02 290.06,-187.52 299.19,-192.89 300.54,-186.02"/>
</g>
<!-- Node21&#45;&gt;Node15 -->
<g id="edge36" class="edge">
<title>Node21&#45;&gt;Node15</title>
<path fill="none" stroke="midnightblue" d="M509.75,-224.36C491.14,-208.15 451.75,-171.23 430,-132 421.98,-117.54 417.04,-99.35 414.22,-85.9"/>
<polygon fill="midnightblue" stroke="midnightblue" points="417.62,-85.06 412.32,-75.89 410.74,-86.37 417.62,-85.06"/>
</g>
<!-- Node21&#45;&gt;Node16 -->
<g id="edge41" class="edge">
<title>Node21&#45;&gt;Node16</title>
<path fill="none" stroke="midnightblue" d="M518.43,-224.37C515.2,-206.62 507.76,-165.67 503.38,-141.6"/>
<polygon fill="midnightblue" stroke="midnightblue" points="506.79,-140.8 501.56,-131.59 499.91,-142.06 506.79,-140.8"/>
</g>
<!-- Node21&#45;&gt;Node20 -->
<g id="edge37" class="edge">
<title>Node21&#45;&gt;Node20</title>
<path fill="none" stroke="midnightblue" d="M538.86,-224.44C558.27,-215.64 588.73,-201.81 610.96,-191.72"/>
<polygon fill="midnightblue" stroke="midnightblue" points="612.57,-194.84 620.23,-187.52 609.68,-188.46 612.57,-194.84"/>
</g>
<!-- Node22 -->
<g id="node22" class="node">
<title>Node22</title>
<g id="a_node22"><a xlink:title=" ">
<polygon fill="none" stroke="#bfbfbf" points="392,-168.5 392,-187.5 434,-187.5 434,-168.5 392,-168.5"/>
<text text-anchor="middle" x="413" y="-175.5" font-family="Helvetica,sans-Serif" font-size="10.00">array</text>
</a>
</g>
</g>
<!-- Node21&#45;&gt;Node22 -->
<g id="edge33" class="edge">
<title>Node21&#45;&gt;Node22</title>
<path fill="none" stroke="midnightblue" d="M502.81,-224.32C485.65,-215.66 459.05,-202.24 439.25,-192.25"/>
<polygon fill="midnightblue" stroke="midnightblue" points="440.65,-189.04 430.15,-187.65 437.5,-195.28 440.65,-189.04"/>
</g>
<!-- Node23 -->
<g id="node23" class="node">
<title>Node23</title>
<g id="a_node23"><a xlink:title=" ">
<polygon fill="none" stroke="#bfbfbf" points="328.5,-168.5 328.5,-187.5 373.5,-187.5 373.5,-168.5 328.5,-168.5"/>
<text text-anchor="middle" x="351" y="-175.5" font-family="Helvetica,sans-Serif" font-size="10.00">utility</text>
</a>
</g>
</g>
<!-- Node21&#45;&gt;Node23 -->
<g id="edge38" class="edge">
<title>Node21&#45;&gt;Node23</title>
<path fill="none" stroke="midnightblue" d="M493.22,-224.44C463.41,-214.92 415.23,-199.52 383.34,-189.33"/>
<polygon fill="midnightblue" stroke="midnightblue" points="384.19,-185.93 373.6,-186.22 382.06,-192.6 384.19,-185.93"/>
</g>
</g>
</svg>
