<?xml version="1.0" encoding="UTF-8" standalone="no"?>
<!DOCTYPE svg PUBLIC "-//W3C//DTD SVG 1.1//EN"
 "http://www.w3.org/Graphics/SVG/1.1/DTD/svg11.dtd">
<!-- Generated by graphviz version 2.43.0 (0)
 -->
<!-- Title: /home/runner/work/open62541pp/open62541pp/include/open62541pp/types/Variant.h Pages: 1 -->
<svg width="949pt" height="434pt"
 viewBox="0.00 0.00 949.32 434.00" xmlns="http://www.w3.org/2000/svg" xmlns:xlink="http://www.w3.org/1999/xlink">
<g id="graph0" class="graph" transform="scale(1 1) rotate(0) translate(4 430)">
<title>/home/runner/work/open62541pp/open62541pp/include/open62541pp/types/Variant.h</title>
<!-- Node1 -->
<g id="Node000001" class="node">
<title>Node1</title>
<g id="a_Node000001"><a xlink:title=" ">
<polygon fill="#999999" stroke="#666666" points="780.57,-426 587.57,-426 587.57,-385 780.57,-385 780.57,-426"/>
<text text-anchor="start" x="595.57" y="-414" font-family="Helvetica,sans-Serif" font-size="10.00">/home/runner/work/open62541pp</text>
<text text-anchor="start" x="595.57" y="-403" font-family="Helvetica,sans-Serif" font-size="10.00">/open62541pp/include/open62541pp</text>
<text text-anchor="middle" x="684.07" y="-392" font-family="Helvetica,sans-Serif" font-size="10.00">/types/Variant.h</text>
</a>
</g>
</g>
<!-- Node2 -->
<g id="Node000002" class="node">
<title>Node2</title>
<g id="a_Node000002"><a xlink:href="Node_8h.html" target="_top" xlink:title=" ">
<polygon fill="white" stroke="#666666" points="801.07,-118 605.07,-118 605.07,-77 801.07,-77 801.07,-118"/>
<text text-anchor="start" x="613.07" y="-106" font-family="Helvetica,sans-Serif" font-size="10.00">/home/runner/work/open62541pp</text>
<text text-anchor="start" x="613.07" y="-95" font-family="Helvetica,sans-Serif" font-size="10.00">/open62541pp/include/open62541pp/</text>
<text text-anchor="middle" x="703.07" y="-84" font-family="Helvetica,sans-Serif" font-size="10.00">Node.h</text>
</a>
</g>
</g>
<!-- Node1&#45;&gt;Node2 -->
<g id="edge1_Node000001_Node000002" class="edge">
<title>Node1&#45;&gt;Node2</title>
<g id="a_edge1_Node000001_Node000002"><a xlink:title=" ">
<path fill="none" stroke="#63b8ff" d="M790.87,-391.72C843.5,-382.99 899.09,-369.28 915.07,-349 950.17,-304.47 960.05,-242.05 878.07,-154 857.98,-132.42 829.56,-119.19 801.46,-111.09"/>
<polygon fill="#63b8ff" stroke="#63b8ff" points="790.06,-388.3 780.74,-393.34 791.17,-395.21 790.06,-388.3"/>
</a>
</g>
</g>
<!-- Node3 -->
<g id="Node000003" class="node">
<title>Node3</title>
<g id="a_Node000003"><a xlink:href="open62541pp_8h.html" target="_top" xlink:title=" ">
<polygon fill="white" stroke="#666666" points="442.57,-41 249.57,-41 249.57,0 442.57,0 442.57,-41"/>
<text text-anchor="start" x="257.57" y="-29" font-family="Helvetica,sans-Serif" font-size="10.00">/home/runner/work/open62541pp</text>
<text text-anchor="start" x="257.57" y="-18" font-family="Helvetica,sans-Serif" font-size="10.00">/open62541pp/include/open62541pp</text>
<text text-anchor="middle" x="346.07" y="-7" font-family="Helvetica,sans-Serif" font-size="10.00">/open62541pp.h</text>
</a>
</g>
</g>
<!-- Node1&#45;&gt;Node3 -->
<g id="edge3_Node000001_Node000003" class="edge">
<title>Node1&#45;&gt;Node3</title>
<g id="a_edge3_Node000001_Node000003"><a xlink:title=" ">
<path fill="none" stroke="#63b8ff" d="M577.12,-402.54C385.41,-396.09 3.07,-368.68 3.07,-252.5 3.07,-252.5 3.07,-252.5 3.07,-173.5 3.07,-129.79 -9.22,-107.52 22.07,-77 53.73,-46.12 165.83,-32.28 249.35,-26.18"/>
<polygon fill="#63b8ff" stroke="#63b8ff" points="577.12,-406.04 587.22,-402.86 577.34,-399.04 577.12,-406.04"/>
</a>
</g>
</g>
<!-- Node4 -->
<g id="Node000004" class="node">
<title>Node4</title>
<g id="a_Node000004"><a xlink:href="Attribute_8h.html" target="_top" xlink:title=" ">
<polygon fill="white" stroke="#666666" points="848.57,-195 655.57,-195 655.57,-154 848.57,-154 848.57,-195"/>
<text text-anchor="start" x="663.57" y="-183" font-family="Helvetica,sans-Serif" font-size="10.00">/home/runner/work/open62541pp</text>
<text text-anchor="start" x="663.57" y="-172" font-family="Helvetica,sans-Serif" font-size="10.00">/open62541pp/include/open62541pp</text>
<text text-anchor="middle" x="752.07" y="-161" font-family="Helvetica,sans-Serif" font-size="10.00">/services/Attribute.h</text>
</a>
</g>
</g>
<!-- Node1&#45;&gt;Node4 -->
<g id="edge4_Node000001_Node000004" class="edge">
<title>Node1&#45;&gt;Node4</title>
<g id="a_edge4_Node000001_Node000004"><a xlink:title=" ">
<path fill="none" stroke="#63b8ff" d="M689.1,-374.74C692.63,-355.52 697.82,-330.09 704.07,-308 715.61,-267.27 733.47,-221.08 743.84,-195.41"/>
<polygon fill="#63b8ff" stroke="#63b8ff" points="685.63,-374.25 687.32,-384.71 692.52,-375.48 685.63,-374.25"/>
</a>
</g>
</g>
<!-- Node6 -->
<g id="Node000006" class="node">
<title>Node6</title>
<g id="a_Node000006"><a xlink:href="Composed_8h.html" target="_top" xlink:title=" ">
<polygon fill="white" stroke="#666666" points="636.57,-272 443.57,-272 443.57,-231 636.57,-231 636.57,-272"/>
<text text-anchor="start" x="451.57" y="-260" font-family="Helvetica,sans-Serif" font-size="10.00">/home/runner/work/open62541pp</text>
<text text-anchor="start" x="451.57" y="-249" font-family="Helvetica,sans-Serif" font-size="10.00">/open62541pp/include/open62541pp</text>
<text text-anchor="middle" x="540.07" y="-238" font-family="Helvetica,sans-Serif" font-size="10.00">/types/Composed.h</text>
</a>
</g>
</g>
<!-- Node1&#45;&gt;Node6 -->
<g id="edge8_Node000001_Node000006" class="edge">
<title>Node1&#45;&gt;Node6</title>
<g id="a_edge8_Node000001_Node000006"><a xlink:title=" ">
<path fill="none" stroke="#63b8ff" d="M658.32,-377.32C629.78,-347.19 584.43,-299.33 558.99,-272.47"/>
<polygon fill="#63b8ff" stroke="#63b8ff" points="656.12,-380.09 665.54,-384.94 661.21,-375.27 656.12,-380.09"/>
</a>
</g>
</g>
<!-- Node10 -->
<g id="Node000010" class="node">
<title>Node10</title>
<g id="a_Node000010"><a xlink:href="DataValue_8h.html" target="_top" xlink:title=" ">
<polygon fill="white" stroke="#666666" points="905.57,-349 712.57,-349 712.57,-308 905.57,-308 905.57,-349"/>
<text text-anchor="start" x="720.57" y="-337" font-family="Helvetica,sans-Serif" font-size="10.00">/home/runner/work/open62541pp</text>
<text text-anchor="start" x="720.57" y="-326" font-family="Helvetica,sans-Serif" font-size="10.00">/open62541pp/include/open62541pp</text>
<text text-anchor="middle" x="809.07" y="-315" font-family="Helvetica,sans-Serif" font-size="10.00">/types/DataValue.h</text>
</a>
</g>
</g>
<!-- Node1&#45;&gt;Node10 -->
<g id="edge19_Node000001_Node000010" class="edge">
<title>Node1&#45;&gt;Node10</title>
<g id="a_edge19_Node000001_Node000010"><a xlink:title=" ">
<path fill="none" stroke="#63b8ff" d="M725.5,-379.64C742.01,-369.74 760.74,-358.5 776.28,-349.17"/>
<polygon fill="#63b8ff" stroke="#63b8ff" points="723.36,-376.84 716.59,-384.99 726.96,-382.85 723.36,-376.84"/>
</a>
</g>
</g>
<!-- Node2&#45;&gt;Node3 -->
<g id="edge2_Node000002_Node000003" class="edge">
<title>Node2&#45;&gt;Node3</title>
<g id="a_edge2_Node000002_Node000003"><a xlink:title=" ">
<path fill="none" stroke="#63b8ff" d="M600.18,-74.88C549.36,-64.21 488.51,-51.42 439.09,-41.04"/>
<polygon fill="#63b8ff" stroke="#63b8ff" points="599.7,-78.36 610.21,-76.99 601.14,-71.51 599.7,-78.36"/>
</a>
</g>
</g>
<!-- Node4&#45;&gt;Node2 -->
<g id="edge5_Node000004_Node000002" class="edge">
<title>Node4&#45;&gt;Node2</title>
<g id="a_edge5_Node000004_Node000002"><a xlink:title=" ">
<path fill="none" stroke="#63b8ff" d="M733.71,-145.39C727.77,-136.3 721.31,-126.41 715.86,-118.07"/>
<polygon fill="#63b8ff" stroke="#63b8ff" points="730.8,-147.34 739.2,-153.79 736.66,-143.51 730.8,-147.34"/>
</a>
</g>
</g>
<!-- Node5 -->
<g id="Node000005" class="node">
<title>Node5</title>
<g id="a_Node000005"><a xlink:href="services_8h.html" target="_top" xlink:title=" ">
<polygon fill="white" stroke="#666666" points="536.57,-118 343.57,-118 343.57,-77 536.57,-77 536.57,-118"/>
<text text-anchor="start" x="351.57" y="-106" font-family="Helvetica,sans-Serif" font-size="10.00">/home/runner/work/open62541pp</text>
<text text-anchor="start" x="351.57" y="-95" font-family="Helvetica,sans-Serif" font-size="10.00">/open62541pp/include/open62541pp</text>
<text text-anchor="middle" x="440.07" y="-84" font-family="Helvetica,sans-Serif" font-size="10.00">/services/services.h</text>
</a>
</g>
</g>
<!-- Node4&#45;&gt;Node5 -->
<g id="edge6_Node000004_Node000005" class="edge">
<title>Node4&#45;&gt;Node5</title>
<g id="a_edge6_Node000004_Node000005"><a xlink:title=" ">
<path fill="none" stroke="#63b8ff" d="M661.04,-151.62C616.85,-140.99 564.19,-128.34 521.37,-118.04"/>
<polygon fill="#63b8ff" stroke="#63b8ff" points="660.37,-155.06 670.91,-153.99 662.01,-148.25 660.37,-155.06"/>
</a>
</g>
</g>
<!-- Node5&#45;&gt;Node3 -->
<g id="edge7_Node000005_Node000003" class="edge">
<title>Node5&#45;&gt;Node3</title>
<g id="a_edge7_Node000005_Node000003"><a xlink:title=" ">
<path fill="none" stroke="#63b8ff" d="M407.29,-70.35C395.24,-60.73 381.81,-50.01 370.6,-41.07"/>
<polygon fill="#63b8ff" stroke="#63b8ff" points="405.38,-73.29 415.37,-76.79 409.74,-67.82 405.38,-73.29"/>
</a>
</g>
</g>
<!-- Node6&#45;&gt;Node2 -->
<g id="edge11_Node000006_Node000002" class="edge">
<title>Node6&#45;&gt;Node2</title>
<g id="a_edge11_Node000006_Node000002"><a xlink:title=" ">
<path fill="none" stroke="#63b8ff" d="M573.51,-224.6C584.75,-215.53 597.19,-205.09 608.07,-195 626.52,-177.9 629.47,-171.96 647.07,-154 658.85,-141.97 672.24,-128.69 682.97,-118.14"/>
<polygon fill="#63b8ff" stroke="#63b8ff" points="571.21,-221.96 565.58,-230.93 575.57,-227.43 571.21,-221.96"/>
</a>
</g>
</g>
<!-- Node6&#45;&gt;Node3 -->
<g id="edge12_Node000006_Node000003" class="edge">
<title>Node6&#45;&gt;Node3</title>
<g id="a_edge12_Node000006_Node000003"><a xlink:title=" ">
<path fill="none" stroke="#63b8ff" d="M433.19,-248.58C340.56,-244.38 216.58,-231.81 185.07,-195 173.22,-181.16 176.92,-170.3 185.07,-154 197,-130.15 212.26,-134.67 233.07,-118 265.29,-92.2 301.38,-60.96 323.91,-41.15"/>
<polygon fill="#63b8ff" stroke="#63b8ff" points="433.04,-252.08 443.18,-249.01 433.34,-245.08 433.04,-252.08"/>
</a>
</g>
</g>
<!-- Node6&#45;&gt;Node4 -->
<g id="edge13_Node000006_Node000004" class="edge">
<title>Node6&#45;&gt;Node4</title>
<g id="a_edge13_Node000006_Node000004"><a xlink:title=" ">
<path fill="none" stroke="#63b8ff" d="M604.97,-227.54C634.35,-217.15 668.71,-204.99 696.83,-195.04"/>
<polygon fill="#63b8ff" stroke="#63b8ff" points="603.48,-224.36 595.22,-230.99 605.81,-230.95 603.48,-224.36"/>
</a>
</g>
</g>
<!-- Node7 -->
<g id="Node000007" class="node">
<title>Node7</title>
<g id="a_Node000007"><a xlink:href="AccessControl_8h.html" target="_top" xlink:title=" ">
<polygon fill="white" stroke="#666666" points="224.57,-118 31.57,-118 31.57,-77 224.57,-77 224.57,-118"/>
<text text-anchor="start" x="39.57" y="-106" font-family="Helvetica,sans-Serif" font-size="10.00">/home/runner/work/open62541pp</text>
<text text-anchor="start" x="39.57" y="-95" font-family="Helvetica,sans-Serif" font-size="10.00">/open62541pp/include/open62541pp</text>
<text text-anchor="middle" x="128.07" y="-84" font-family="Helvetica,sans-Serif" font-size="10.00">/AccessControl.h</text>
</a>
</g>
</g>
<!-- Node6&#45;&gt;Node7 -->
<g id="edge9_Node000006_Node000007" class="edge">
<title>Node6&#45;&gt;Node7</title>
<g id="a_edge9_Node000006_Node000007"><a xlink:title=" ">
<path fill="none" stroke="#63b8ff" d="M432.99,-248.27C332.66,-243.93 192.29,-231.32 152.07,-195 130.68,-175.68 126.98,-140.5 127,-118.37"/>
<polygon fill="#63b8ff" stroke="#63b8ff" points="433.05,-251.78 443.18,-248.69 433.33,-244.79 433.05,-251.78"/>
</a>
</g>
</g>
<!-- Node8 -->
<g id="Node000008" class="node">
<title>Node8</title>
<g id="a_Node000008"><a xlink:href="NodeManagement_8h.html" target="_top" xlink:title=" ">
<polygon fill="white" stroke="#666666" points="598.57,-195 405.57,-195 405.57,-154 598.57,-154 598.57,-195"/>
<text text-anchor="start" x="413.57" y="-183" font-family="Helvetica,sans-Serif" font-size="10.00">/home/runner/work/open62541pp</text>
<text text-anchor="start" x="413.57" y="-172" font-family="Helvetica,sans-Serif" font-size="10.00">/open62541pp/include/open62541pp</text>
<text text-anchor="middle" x="502.07" y="-161" font-family="Helvetica,sans-Serif" font-size="10.00">/services/NodeManagement.h</text>
</a>
</g>
</g>
<!-- Node6&#45;&gt;Node8 -->
<g id="edge14_Node000006_Node000008" class="edge">
<title>Node6&#45;&gt;Node8</title>
<g id="a_edge14_Node000006_Node000008"><a xlink:title=" ">
<path fill="none" stroke="#63b8ff" d="M525.55,-221.83C521.02,-212.89 516.13,-203.24 511.99,-195.07"/>
<polygon fill="#63b8ff" stroke="#63b8ff" points="522.45,-223.46 530.09,-230.79 528.69,-220.29 522.45,-223.46"/>
</a>
</g>
</g>
<!-- Node9 -->
<g id="Node000009" class="node">
<title>Node9</title>
<g id="a_Node000009"><a xlink:href="View_8h.html" target="_top" xlink:title=" ">
<polygon fill="white" stroke="#666666" points="387.57,-195 194.57,-195 194.57,-154 387.57,-154 387.57,-195"/>
<text text-anchor="start" x="202.57" y="-183" font-family="Helvetica,sans-Serif" font-size="10.00">/home/runner/work/open62541pp</text>
<text text-anchor="start" x="202.57" y="-172" font-family="Helvetica,sans-Serif" font-size="10.00">/open62541pp/include/open62541pp</text>
<text text-anchor="middle" x="291.07" y="-161" font-family="Helvetica,sans-Serif" font-size="10.00">/services/View.h</text>
</a>
</g>
</g>
<!-- Node6&#45;&gt;Node9 -->
<g id="edge17_Node000006_Node000009" class="edge">
<title>Node6&#45;&gt;Node9</title>
<g id="a_edge17_Node000006_Node000009"><a xlink:title=" ">
<path fill="none" stroke="#63b8ff" d="M465.64,-228.08C430.74,-217.57 389.56,-205.16 355.95,-195.04"/>
<polygon fill="#63b8ff" stroke="#63b8ff" points="464.72,-231.46 475.3,-230.99 466.73,-224.76 464.72,-231.46"/>
</a>
</g>
</g>
<!-- Node7&#45;&gt;Node3 -->
<g id="edge10_Node000007_Node000003" class="edge">
<title>Node7&#45;&gt;Node3</title>
<g id="a_edge10_Node000007_Node000003"><a xlink:title=" ">
<path fill="none" stroke="#63b8ff" d="M194.42,-73.67C224.71,-63.25 260.23,-51.03 289.27,-41.04"/>
<polygon fill="#63b8ff" stroke="#63b8ff" points="193.1,-70.43 184.78,-76.99 195.37,-77.05 193.1,-70.43"/>
</a>
</g>
</g>
<!-- Node8&#45;&gt;Node2 -->
<g id="edge15_Node000008_Node000002" class="edge">
<title>Node8&#45;&gt;Node2</title>
<g id="a_edge15_Node000008_Node000002"><a xlink:title=" ">
<path fill="none" stroke="#63b8ff" d="M563.97,-150.4C591.74,-140.04 624.15,-127.95 650.7,-118.04"/>
<polygon fill="#63b8ff" stroke="#63b8ff" points="562.5,-147.22 554.36,-153.99 564.95,-153.77 562.5,-147.22"/>
</a>
</g>
</g>
<!-- Node8&#45;&gt;Node5 -->
<g id="edge16_Node000008_Node000005" class="edge">
<title>Node8&#45;&gt;Node5</title>
<g id="a_edge16_Node000008_Node000005"><a xlink:title=" ">
<path fill="none" stroke="#63b8ff" d="M479.3,-145.95C471.65,-136.7 463.29,-126.58 456.25,-118.07"/>
<polygon fill="#63b8ff" stroke="#63b8ff" points="476.71,-148.32 485.78,-153.79 482.11,-143.86 476.71,-148.32"/>
</a>
</g>
</g>
<!-- Node9&#45;&gt;Node5 -->
<g id="edge18_Node000009_Node000005" class="edge">
<title>Node9&#45;&gt;Node5</title>
<g id="a_edge18_Node000009_Node000005"><a xlink:title=" ">
<path fill="none" stroke="#63b8ff" d="M338.85,-149.45C359.01,-139.3 382.17,-127.64 401.25,-118.04"/>
<polygon fill="#63b8ff" stroke="#63b8ff" points="337.19,-146.37 329.83,-153.99 340.34,-152.62 337.19,-146.37"/>
</a>
</g>
</g>
<!-- Node10&#45;&gt;Node2 -->
<g id="edge20_Node000010_Node000002" class="edge">
<title>Node10&#45;&gt;Node2</title>
<g id="a_edge20_Node000010_Node000002"><a xlink:title=" ">
<path fill="none" stroke="#63b8ff" d="M830.37,-299.53C855.32,-263.06 889.52,-198.66 858.07,-154 844.5,-134.72 823.57,-122.1 801.45,-113.85"/>
<polygon fill="#63b8ff" stroke="#63b8ff" points="827.48,-297.55 824.58,-307.74 833.2,-301.58 827.48,-297.55"/>
</a>
</g>
</g>
<!-- Node10&#45;&gt;Node3 -->
<g id="edge21_Node000010_Node000003" class="edge">
<title>Node10&#45;&gt;Node3</title>
<g id="a_edge21_Node000010_Node000003"><a xlink:title=" ">
<path fill="none" stroke="#63b8ff" d="M845.77,-301.18C854.81,-292.88 863.5,-282.97 869.07,-272 884.69,-241.29 876.07,-229.4 878.07,-195 879.13,-176.81 884.52,-171.04 878.07,-154 861.92,-111.3 850.5,-98.21 810.07,-77 748.2,-44.53 559.52,-30.63 442.69,-25.01"/>
<polygon fill="#63b8ff" stroke="#63b8ff" points="843.42,-298.58 838.14,-307.77 848,-303.88 843.42,-298.58"/>
</a>
</g>
</g>
<!-- Node10&#45;&gt;Node4 -->
<g id="edge22_Node000010_Node000004" class="edge">
<title>Node10&#45;&gt;Node4</title>
<g id="a_edge22_Node000010_Node000004"><a xlink:title=" ">
<path fill="none" stroke="#63b8ff" d="M798.15,-298.37C786.82,-268.16 769.42,-221.76 759.56,-195.47"/>
<polygon fill="#63b8ff" stroke="#63b8ff" points="794.95,-299.81 801.74,-307.94 801.5,-297.35 794.95,-299.81"/>
</a>
</g>
</g>
<!-- Node10&#45;&gt;Node6 -->
<g id="edge23_Node000010_Node000006" class="edge">
<title>Node10&#45;&gt;Node6</title>
<g id="a_edge23_Node000010_Node000006"><a xlink:title=" ">
<path fill="none" stroke="#63b8ff" d="M729.14,-305.21C691.34,-294.68 646.62,-282.21 610.16,-272.04"/>
<polygon fill="#63b8ff" stroke="#63b8ff" points="728.53,-308.68 739.1,-307.99 730.41,-301.93 728.53,-308.68"/>
</a>
</g>
</g>
</g>
</svg>
