<?xml version="1.0" encoding="UTF-8" standalone="no"?>
<!DOCTYPE svg PUBLIC "-//W3C//DTD SVG 1.1//EN"
 "http://www.w3.org/Graphics/SVG/1.1/DTD/svg11.dtd">
<!-- Generated by graphviz version 2.43.0 (0)
 -->
<!-- Title: /home/runner/work/open62541pp/open62541pp/include/open62541pp/types/Variant.h Pages: 1 -->
<svg width="936pt" height="440pt"
 viewBox="0.00 0.00 935.50 440.00" xmlns="http://www.w3.org/2000/svg" xmlns:xlink="http://www.w3.org/1999/xlink">
<g id="graph0" class="graph" transform="scale(1 1) rotate(0) translate(4 436)">
<title>/home/runner/work/open62541pp/open62541pp/include/open62541pp/types/Variant.h</title>
<!-- Node1 -->
<g id="node1" class="node">
<title>Node1</title>
<g id="a_node1"><a xlink:title=" ">
<polygon fill="#bfbfbf" stroke="black" points="349.5,-390.5 349.5,-431.5 542.5,-431.5 542.5,-390.5 349.5,-390.5"/>
<text text-anchor="start" x="357.5" y="-419.5" font-family="Helvetica,sans-Serif" font-size="10.00">/home/runner/work/open62541pp</text>
<text text-anchor="start" x="357.5" y="-408.5" font-family="Helvetica,sans-Serif" font-size="10.00">/open62541pp/include/open62541pp</text>
<text text-anchor="middle" x="446" y="-397.5" font-family="Helvetica,sans-Serif" font-size="10.00">/types/Variant.h</text>
</a>
</g>
</g>
<!-- Node2 -->
<g id="node2" class="node">
<title>Node2</title>
<g id="a_node2"><a xlink:href="Node_8h.html" target="_top" xlink:title=" ">
<polygon fill="none" stroke="black" points="289,-78.5 289,-119.5 485,-119.5 485,-78.5 289,-78.5"/>
<text text-anchor="start" x="297" y="-107.5" font-family="Helvetica,sans-Serif" font-size="10.00">/home/runner/work/open62541pp</text>
<text text-anchor="start" x="297" y="-96.5" font-family="Helvetica,sans-Serif" font-size="10.00">/open62541pp/include/open62541pp/</text>
<text text-anchor="middle" x="387" y="-85.5" font-family="Helvetica,sans-Serif" font-size="10.00">Node.h</text>
</a>
</g>
</g>
<!-- Node1&#45;&gt;Node2 -->
<g id="edge1" class="edge">
<title>Node1&#45;&gt;Node2</title>
<path fill="none" stroke="midnightblue" d="M530.9,-387.41C618.58,-359.6 736.42,-306.92 689,-234 644.2,-165.12 554.98,-131.37 485.07,-115"/>
<polygon fill="midnightblue" stroke="midnightblue" points="529.69,-384.12 521.18,-390.44 531.77,-390.81 529.69,-384.12"/>
</g>
<!-- Node3 -->
<g id="node3" class="node">
<title>Node3</title>
<g id="a_node3"><a xlink:href="open62541pp_8h.html" target="_top" xlink:title=" ">
<polygon fill="none" stroke="black" points="28.5,-0.5 28.5,-41.5 221.5,-41.5 221.5,-0.5 28.5,-0.5"/>
<text text-anchor="start" x="36.5" y="-29.5" font-family="Helvetica,sans-Serif" font-size="10.00">/home/runner/work/open62541pp</text>
<text text-anchor="start" x="36.5" y="-18.5" font-family="Helvetica,sans-Serif" font-size="10.00">/open62541pp/include/open62541pp</text>
<text text-anchor="middle" x="125" y="-7.5" font-family="Helvetica,sans-Serif" font-size="10.00">/open62541pp.h</text>
</a>
</g>
</g>
<!-- Node1&#45;&gt;Node3 -->
<g id="edge4" class="edge">
<title>Node1&#45;&gt;Node3</title>
<path fill="none" stroke="midnightblue" d="M339.35,-394.87C207.41,-373.1 0,-327.5 0,-256 0,-256 0,-256 0,-176 0,-116.6 56.76,-67.33 93.78,-41.5"/>
<polygon fill="midnightblue" stroke="midnightblue" points="339.07,-398.37 349.5,-396.53 340.19,-391.47 339.07,-398.37"/>
</g>
<!-- Node5 -->
<g id="node5" class="node">
<title>Node5</title>
<g id="a_node5"><a xlink:href="Attribute_8h.html" target="_top" xlink:title=" ">
<polygon fill="none" stroke="black" points="224.5,-234.5 224.5,-275.5 417.5,-275.5 417.5,-234.5 224.5,-234.5"/>
<text text-anchor="start" x="232.5" y="-263.5" font-family="Helvetica,sans-Serif" font-size="10.00">/home/runner/work/open62541pp</text>
<text text-anchor="start" x="232.5" y="-252.5" font-family="Helvetica,sans-Serif" font-size="10.00">/open62541pp/include/open62541pp</text>
<text text-anchor="middle" x="321" y="-241.5" font-family="Helvetica,sans-Serif" font-size="10.00">/services/Attribute.h</text>
</a>
</g>
</g>
<!-- Node1&#45;&gt;Node5 -->
<g id="edge5" class="edge">
<title>Node1&#45;&gt;Node5</title>
<path fill="none" stroke="midnightblue" d="M378.15,-385.67C363.67,-377.62 349.81,-367.22 340,-354 322.97,-331.03 320,-296.96 320.04,-275.64"/>
<polygon fill="midnightblue" stroke="midnightblue" points="376.72,-388.88 387.21,-390.39 379.96,-382.67 376.72,-388.88"/>
</g>
<!-- Node8 -->
<g id="node8" class="node">
<title>Node8</title>
<g id="a_node8"><a xlink:href="DataValue_8h.html" target="_top" xlink:title=" ">
<polygon fill="none" stroke="black" points="349.5,-312.5 349.5,-353.5 542.5,-353.5 542.5,-312.5 349.5,-312.5"/>
<text text-anchor="start" x="357.5" y="-341.5" font-family="Helvetica,sans-Serif" font-size="10.00">/home/runner/work/open62541pp</text>
<text text-anchor="start" x="357.5" y="-330.5" font-family="Helvetica,sans-Serif" font-size="10.00">/open62541pp/include/open62541pp</text>
<text text-anchor="middle" x="446" y="-319.5" font-family="Helvetica,sans-Serif" font-size="10.00">/types/DataValue.h</text>
</a>
</g>
</g>
<!-- Node1&#45;&gt;Node8 -->
<g id="edge10" class="edge">
<title>Node1&#45;&gt;Node8</title>
<path fill="none" stroke="midnightblue" d="M446,-380.3C446,-371.3 446,-361.65 446,-353.51"/>
<polygon fill="midnightblue" stroke="midnightblue" points="442.5,-380.43 446,-390.43 449.5,-380.43 442.5,-380.43"/>
</g>
<!-- Node10 -->
<g id="node10" class="node">
<title>Node10</title>
<g id="a_node10"><a xlink:href="Variant_8cpp.html" target="_top" xlink:title=" ">
<polygon fill="none" stroke="black" points="736.5,-318 736.5,-348 927.5,-348 927.5,-318 736.5,-318"/>
<text text-anchor="start" x="744.5" y="-336" font-family="Helvetica,sans-Serif" font-size="10.00">/home/runner/work/open62541pp</text>
<text text-anchor="middle" x="832" y="-325" font-family="Helvetica,sans-Serif" font-size="10.00">/open62541pp/src/types/Variant.cpp</text>
</a>
</g>
</g>
<!-- Node1&#45;&gt;Node10 -->
<g id="edge14" class="edge">
<title>Node1&#45;&gt;Node10</title>
<path fill="none" stroke="midnightblue" d="M552.96,-388.94C619.18,-375.9 702.39,-359.52 760.64,-348.05"/>
<polygon fill="midnightblue" stroke="midnightblue" points="552.04,-385.55 542.91,-390.92 553.39,-392.42 552.04,-385.55"/>
</g>
<!-- Node2&#45;&gt;Node3 -->
<g id="edge2" class="edge">
<title>Node2&#45;&gt;Node3</title>
<path fill="none" stroke="midnightblue" d="M309.71,-75.58C272.42,-64.76 228.12,-51.91 192.24,-41.51"/>
<polygon fill="midnightblue" stroke="midnightblue" points="308.95,-79 319.53,-78.43 310.9,-72.28 308.95,-79"/>
</g>
<!-- Node4 -->
<g id="node4" class="node">
<title>Node4</title>
<g id="a_node4"><a xlink:href="Server_8cpp.html" target="_top" xlink:title=" ">
<polygon fill="none" stroke="black" points="298,-6 298,-36 476,-36 476,-6 298,-6"/>
<text text-anchor="start" x="306" y="-24" font-family="Helvetica,sans-Serif" font-size="10.00">/home/runner/work/open62541pp</text>
<text text-anchor="middle" x="387" y="-13" font-family="Helvetica,sans-Serif" font-size="10.00">/open62541pp/src/Server.cpp</text>
</a>
</g>
</g>
<!-- Node2&#45;&gt;Node4 -->
<g id="edge3" class="edge">
<title>Node2&#45;&gt;Node4</title>
<path fill="none" stroke="midnightblue" d="M387,-68.28C387,-57.25 387,-45.25 387,-36.23"/>
<polygon fill="midnightblue" stroke="midnightblue" points="383.5,-68.43 387,-78.43 390.5,-68.43 383.5,-68.43"/>
</g>
<!-- Node6 -->
<g id="node6" class="node">
<title>Node6</title>
<g id="a_node6"><a xlink:href="services_8h.html" target="_top" xlink:title=" ">
<polygon fill="none" stroke="black" points="28.5,-156.5 28.5,-197.5 221.5,-197.5 221.5,-156.5 28.5,-156.5"/>
<text text-anchor="start" x="36.5" y="-185.5" font-family="Helvetica,sans-Serif" font-size="10.00">/home/runner/work/open62541pp</text>
<text text-anchor="start" x="36.5" y="-174.5" font-family="Helvetica,sans-Serif" font-size="10.00">/open62541pp/include/open62541pp</text>
<text text-anchor="middle" x="125" y="-163.5" font-family="Helvetica,sans-Serif" font-size="10.00">/services/services.h</text>
</a>
</g>
</g>
<!-- Node5&#45;&gt;Node6 -->
<g id="edge6" class="edge">
<title>Node5&#45;&gt;Node6</title>
<path fill="none" stroke="midnightblue" d="M261.03,-230.75C233.6,-220.11 201.45,-207.65 175.3,-197.51"/>
<polygon fill="midnightblue" stroke="midnightblue" points="259.94,-234.08 270.53,-234.43 262.47,-227.55 259.94,-234.08"/>
</g>
<!-- Node7 -->
<g id="node7" class="node">
<title>Node7</title>
<g id="a_node7"><a xlink:href="Attribute_8cpp.html" target="_top" xlink:title=" ">
<polygon fill="none" stroke="black" points="240,-156.5 240,-197.5 418,-197.5 418,-156.5 240,-156.5"/>
<text text-anchor="start" x="248" y="-185.5" font-family="Helvetica,sans-Serif" font-size="10.00">/home/runner/work/open62541pp</text>
<text text-anchor="start" x="248" y="-174.5" font-family="Helvetica,sans-Serif" font-size="10.00">/open62541pp/src/services</text>
<text text-anchor="middle" x="329" y="-163.5" font-family="Helvetica,sans-Serif" font-size="10.00">/Attribute.cpp</text>
</a>
</g>
</g>
<!-- Node5&#45;&gt;Node7 -->
<g id="edge9" class="edge">
<title>Node5&#45;&gt;Node7</title>
<path fill="none" stroke="midnightblue" d="M324.13,-224.3C325.07,-215.3 326.09,-205.65 326.95,-197.51"/>
<polygon fill="midnightblue" stroke="midnightblue" points="320.63,-224.12 323.06,-234.43 327.59,-224.85 320.63,-224.12"/>
</g>
<!-- Node6&#45;&gt;Node2 -->
<g id="edge7" class="edge">
<title>Node6&#45;&gt;Node2</title>
<path fill="none" stroke="midnightblue" d="M202.29,-153.58C239.58,-142.76 283.88,-129.91 319.76,-119.51"/>
<polygon fill="midnightblue" stroke="midnightblue" points="201.1,-150.28 192.47,-156.43 203.05,-157 201.1,-150.28"/>
</g>
<!-- Node6&#45;&gt;Node3 -->
<g id="edge8" class="edge">
<title>Node6&#45;&gt;Node3</title>
<path fill="none" stroke="midnightblue" d="M125,-146.36C125,-115.61 125,-68.36 125,-41.83"/>
<polygon fill="midnightblue" stroke="midnightblue" points="121.5,-146.5 125,-156.5 128.5,-146.5 121.5,-146.5"/>
</g>
<!-- Node8&#45;&gt;Node2 -->
<g id="edge11" class="edge">
<title>Node8&#45;&gt;Node2</title>
<path fill="none" stroke="midnightblue" d="M447.31,-301.95C447.86,-266.03 445.54,-204.67 427,-156 421.94,-142.71 412.94,-129.68 404.76,-119.53"/>
<polygon fill="midnightblue" stroke="midnightblue" points="443.8,-302.16 447.06,-312.24 450.8,-302.33 443.8,-302.16"/>
</g>
<!-- Node8&#45;&gt;Node5 -->
<g id="edge12" class="edge">
<title>Node8&#45;&gt;Node5</title>
<path fill="none" stroke="midnightblue" d="M405.22,-307.2C388.3,-296.92 368.96,-285.16 353.08,-275.51"/>
<polygon fill="midnightblue" stroke="midnightblue" points="403.45,-310.22 413.81,-312.43 407.08,-304.24 403.45,-310.22"/>
</g>
<!-- Node9 -->
<g id="node9" class="node">
<title>Node9</title>
<g id="a_node9"><a xlink:href="DataValue_8cpp.html" target="_top" xlink:title=" ">
<polygon fill="none" stroke="black" points="474,-240 474,-270 680,-270 680,-240 474,-240"/>
<text text-anchor="start" x="482" y="-258" font-family="Helvetica,sans-Serif" font-size="10.00">/home/runner/work/open62541pp</text>
<text text-anchor="middle" x="577" y="-247" font-family="Helvetica,sans-Serif" font-size="10.00">/open62541pp/src/types/DataValue.cpp</text>
</a>
</g>
</g>
<!-- Node8&#45;&gt;Node9 -->
<g id="edge13" class="edge">
<title>Node8&#45;&gt;Node9</title>
<path fill="none" stroke="midnightblue" d="M488.55,-307.31C509.71,-295.04 534.53,-280.64 552.48,-270.23"/>
<polygon fill="midnightblue" stroke="midnightblue" points="486.63,-304.38 479.74,-312.43 490.14,-310.44 486.63,-304.38"/>
</g>
</g>
</svg>
