<?xml version="1.0" encoding="UTF-8" standalone="no"?>
<!DOCTYPE svg PUBLIC "-//W3C//DTD SVG 1.1//EN"
 "http://www.w3.org/Graphics/SVG/1.1/DTD/svg11.dtd">
<!-- Generated by graphviz version 2.43.0 (0)
 -->
<!-- Title: /home/runner/work/open62541pp/open62541pp/include/open62541pp/types/Variant.h Pages: 1 -->
<svg width="1251pt" height="464pt"
 viewBox="0.00 0.00 1251.00 464.00" xmlns="http://www.w3.org/2000/svg" xmlns:xlink="http://www.w3.org/1999/xlink">
<g id="graph0" class="graph" transform="scale(1 1) rotate(0) translate(4 460)">
<title>/home/runner/work/open62541pp/open62541pp/include/open62541pp/types/Variant.h</title>
<!-- Node1 -->
<g id="node1" class="node">
<title>Node1</title>
<g id="a_node1"><a xlink:title=" ">
<polygon fill="#bfbfbf" stroke="black" points="684.5,-414.5 684.5,-455.5 877.5,-455.5 877.5,-414.5 684.5,-414.5"/>
<text text-anchor="start" x="692.5" y="-443.5" font-family="Helvetica,sans-Serif" font-size="10.00">/home/runner/work/open62541pp</text>
<text text-anchor="start" x="692.5" y="-432.5" font-family="Helvetica,sans-Serif" font-size="10.00">/open62541pp/include/open62541pp</text>
<text text-anchor="middle" x="781" y="-421.5" font-family="Helvetica,sans-Serif" font-size="10.00">/types/Variant.h</text>
</a>
</g>
</g>
<!-- Node2 -->
<g id="node2" class="node">
<title>Node2</title>
<g id="a_node2"><a xlink:title=" ">
<polygon fill="none" stroke="#bfbfbf" points="394,-123.5 394,-142.5 446,-142.5 446,-123.5 394,-123.5"/>
<text text-anchor="middle" x="420" y="-130.5" font-family="Helvetica,sans-Serif" font-size="10.00">cassert</text>
</a>
</g>
</g>
<!-- Node1&#45;&gt;Node2 -->
<g id="edge1" class="edge">
<title>Node1&#45;&gt;Node2</title>
<path fill="none" stroke="midnightblue" d="M684.5,-418.22C647.79,-409.68 606.53,-396.87 572,-378 507.12,-342.54 489.5,-327.86 449,-266 425.84,-230.62 420.91,-179.62 420.03,-152.54"/>
<polygon fill="midnightblue" stroke="midnightblue" points="423.53,-152.45 419.86,-142.51 416.53,-152.57 423.53,-152.45"/>
</g>
<!-- Node3 -->
<g id="node3" class="node">
<title>Node3</title>
<g id="a_node3"><a xlink:title=" ">
<polygon fill="none" stroke="#bfbfbf" points="308,-62 308,-81 358,-81 358,-62 308,-62"/>
<text text-anchor="middle" x="333" y="-69" font-family="Helvetica,sans-Serif" font-size="10.00">cstdint</text>
</a>
</g>
</g>
<!-- Node1&#45;&gt;Node3 -->
<g id="edge2" class="edge">
<title>Node1&#45;&gt;Node3</title>
<path fill="none" stroke="midnightblue" d="M684.45,-427.32C491.37,-412.65 76,-374.01 76,-313 76,-313 76,-313 76,-255 76,-194.07 68.21,-164.3 113,-123 174.58,-66.22 217.79,-111.15 298,-87 300.28,-86.31 302.63,-85.53 304.96,-84.69"/>
<polygon fill="midnightblue" stroke="midnightblue" points="306.31,-87.92 314.36,-81.03 303.77,-81.39 306.31,-87.92"/>
</g>
<!-- Node4 -->
<g id="node4" class="node">
<title>Node4</title>
<g id="a_node4"><a xlink:title=" ">
<polygon fill="none" stroke="#bfbfbf" points="974.5,-302.5 974.5,-321.5 1027.5,-321.5 1027.5,-302.5 974.5,-302.5"/>
<text text-anchor="middle" x="1001" y="-309.5" font-family="Helvetica,sans-Serif" font-size="10.00">iterator</text>
</a>
</g>
</g>
<!-- Node1&#45;&gt;Node4 -->
<g id="edge3" class="edge">
<title>Node1&#45;&gt;Node4</title>
<path fill="none" stroke="midnightblue" d="M816.84,-414.29C861.73,-389.6 937.49,-347.93 976.36,-326.55"/>
<polygon fill="midnightblue" stroke="midnightblue" points="978.33,-329.46 985.41,-321.57 974.96,-323.33 978.33,-329.46"/>
</g>
<!-- Node5 -->
<g id="node5" class="node">
<title>Node5</title>
<g id="a_node5"><a xlink:title=" ">
<polygon fill="none" stroke="#bfbfbf" points="1187,-358.5 1187,-377.5 1243,-377.5 1243,-358.5 1187,-358.5"/>
<text text-anchor="middle" x="1215" y="-365.5" font-family="Helvetica,sans-Serif" font-size="10.00">optional</text>
</a>
</g>
</g>
<!-- Node1&#45;&gt;Node5 -->
<g id="edge4" class="edge">
<title>Node1&#45;&gt;Node5</title>
<path fill="none" stroke="midnightblue" d="M877.55,-422.1C957.08,-411.84 1072.67,-395.89 1173,-378 1174.24,-377.78 1175.5,-377.55 1176.77,-377.31"/>
<polygon fill="midnightblue" stroke="midnightblue" points="1177.46,-380.74 1186.59,-375.37 1176.1,-373.87 1177.46,-380.74"/>
</g>
<!-- Node6 -->
<g id="node6" class="node">
<title>Node6</title>
<g id="a_node6"><a xlink:title=" ">
<polygon fill="none" stroke="#bfbfbf" points="1045.5,-302.5 1045.5,-321.5 1092.5,-321.5 1092.5,-302.5 1045.5,-302.5"/>
<text text-anchor="middle" x="1069" y="-309.5" font-family="Helvetica,sans-Serif" font-size="10.00">vector</text>
</a>
</g>
</g>
<!-- Node1&#45;&gt;Node6 -->
<g id="edge5" class="edge">
<title>Node1&#45;&gt;Node6</title>
<path fill="none" stroke="midnightblue" d="M827.59,-414.42C887.29,-389.34 989.04,-346.59 1039.22,-325.51"/>
<polygon fill="midnightblue" stroke="midnightblue" points="1040.68,-328.7 1048.54,-321.6 1037.97,-322.24 1040.68,-328.7"/>
</g>
<!-- Node7 -->
<g id="node7" class="node">
<title>Node7</title>
<g id="a_node7"><a xlink:href="Common_8h.html" target="_top" xlink:title=" ">
<polygon fill="none" stroke="black" points="122.5,-123.5 122.5,-142.5 261.5,-142.5 261.5,-123.5 122.5,-123.5"/>
<text text-anchor="middle" x="192" y="-130.5" font-family="Helvetica,sans-Serif" font-size="10.00">open62541pp/Common.h</text>
</a>
</g>
</g>
<!-- Node1&#45;&gt;Node7 -->
<g id="edge6" class="edge">
<title>Node1&#45;&gt;Node7</title>
<path fill="none" stroke="midnightblue" d="M684.15,-432.2C499.37,-427.93 110.5,-414.67 62,-378 37.44,-359.43 38,-343.8 38,-313 38,-313 38,-313 38,-255 38,-196.87 106.68,-162.42 152.31,-145.94"/>
<polygon fill="midnightblue" stroke="midnightblue" points="153.64,-149.19 161.94,-142.6 151.35,-142.57 153.64,-149.19"/>
</g>
<!-- Node12 -->
<g id="node12" class="node">
<title>Node12</title>
<g id="a_node12"><a xlink:href="open62541_8h.html" target="_top" xlink:title=" ">
<polygon fill="none" stroke="black" points="735.5,-62 735.5,-81 884.5,-81 884.5,-62 735.5,-62"/>
<text text-anchor="middle" x="810" y="-69" font-family="Helvetica,sans-Serif" font-size="10.00">open62541pp/open62541.h</text>
</a>
</g>
</g>
<!-- Node1&#45;&gt;Node12 -->
<g id="edge58" class="edge">
<title>Node1&#45;&gt;Node12</title>
<path fill="none" stroke="midnightblue" d="M877.85,-422.4C989.85,-406.21 1159,-372 1159,-313 1159,-313 1159,-313 1159,-193.5 1159,-144.76 1119.03,-143.9 1075,-123 1018.36,-96.11 948.49,-83.53 894.72,-77.65"/>
<polygon fill="midnightblue" stroke="midnightblue" points="894.84,-74.15 884.53,-76.6 894.11,-81.11 894.84,-74.15"/>
</g>
<!-- Node16 -->
<g id="node16" class="node">
<title>Node16</title>
<g id="a_node16"><a xlink:href="ErrorHandling_8h.html" target="_top" xlink:title=" ">
<polygon fill="none" stroke="black" points="938.5,-185 938.5,-204 1099.5,-204 1099.5,-185 938.5,-185"/>
<text text-anchor="middle" x="1019" y="-192" font-family="Helvetica,sans-Serif" font-size="10.00">open62541pp/ErrorHandling.h</text>
</a>
</g>
</g>
<!-- Node1&#45;&gt;Node16 -->
<g id="edge17" class="edge">
<title>Node1&#45;&gt;Node16</title>
<path fill="none" stroke="midnightblue" d="M877.55,-429.31C952.62,-419.94 1052.11,-393.71 1102,-322 1129.82,-282.02 1073.79,-233.59 1040.79,-209.92"/>
<polygon fill="midnightblue" stroke="midnightblue" points="1042.77,-207.04 1032.57,-204.2 1038.77,-212.79 1042.77,-207.04"/>
</g>
<!-- Node19 -->
<g id="node19" class="node">
<title>Node19</title>
<g id="a_node19"><a xlink:href="TypeConverter_8h.html" target="_top" xlink:title=" ">
<polygon fill="none" stroke="black" points="699,-358.5 699,-377.5 863,-377.5 863,-358.5 699,-358.5"/>
<text text-anchor="middle" x="781" y="-365.5" font-family="Helvetica,sans-Serif" font-size="10.00">open62541pp/TypeConverter.h</text>
</a>
</g>
</g>
<!-- Node1&#45;&gt;Node19 -->
<g id="edge21" class="edge">
<title>Node1&#45;&gt;Node19</title>
<path fill="none" stroke="midnightblue" d="M781,-414.5C781,-406.07 781,-396.24 781,-387.87"/>
<polygon fill="midnightblue" stroke="midnightblue" points="784.5,-387.65 781,-377.65 777.5,-387.65 784.5,-387.65"/>
</g>
<!-- Node22 -->
<g id="node22" class="node">
<title>Node22</title>
<g id="a_node22"><a xlink:href="TypeWrapper_8h.html" target="_top" xlink:title=" ">
<polygon fill="none" stroke="black" points="458,-246.5 458,-265.5 616,-265.5 616,-246.5 458,-246.5"/>
<text text-anchor="middle" x="537" y="-253.5" font-family="Helvetica,sans-Serif" font-size="10.00">open62541pp/TypeWrapper.h</text>
</a>
</g>
</g>
<!-- Node1&#45;&gt;Node22 -->
<g id="edge56" class="edge">
<title>Node1&#45;&gt;Node22</title>
<path fill="none" stroke="midnightblue" d="M687.41,-414.47C635.8,-398.58 575.54,-370.54 542,-322 532.76,-308.63 532.31,-289.8 533.7,-275.85"/>
<polygon fill="midnightblue" stroke="midnightblue" points="537.17,-276.29 535.08,-265.91 530.24,-275.33 537.17,-276.29"/>
</g>
<!-- Node24 -->
<g id="node24" class="node">
<title>Node24</title>
<g id="a_node24"><a xlink:href="helper_8h.html" target="_top" xlink:title=" ">
<polygon fill="none" stroke="black" points="248.5,-179.5 248.5,-209.5 361.5,-209.5 361.5,-179.5 248.5,-179.5"/>
<text text-anchor="start" x="256.5" y="-197.5" font-family="Helvetica,sans-Serif" font-size="10.00">open62541pp/detail</text>
<text text-anchor="middle" x="305" y="-186.5" font-family="Helvetica,sans-Serif" font-size="10.00">/helper.h</text>
</a>
</g>
</g>
<!-- Node1&#45;&gt;Node24 -->
<g id="edge57" class="edge">
<title>Node1&#45;&gt;Node24</title>
<path fill="none" stroke="midnightblue" d="M684.35,-434.53C569.77,-433.03 388.25,-423.29 340,-378 296.25,-336.93 297.6,-259.19 301.61,-219.75"/>
<polygon fill="midnightblue" stroke="midnightblue" points="305.1,-220.05 302.77,-209.71 298.14,-219.24 305.1,-220.05"/>
</g>
<!-- Node7&#45;&gt;Node3 -->
<g id="edge7" class="edge">
<title>Node7&#45;&gt;Node3</title>
<path fill="none" stroke="midnightblue" d="M212.2,-123.48C236.07,-113.4 276,-96.55 303.37,-85"/>
<polygon fill="midnightblue" stroke="midnightblue" points="304.98,-88.12 312.84,-81.01 302.26,-81.67 304.98,-88.12"/>
</g>
<!-- Node8 -->
<g id="node8" class="node">
<title>Node8</title>
<g id="a_node8"><a xlink:title=" ">
<polygon fill="none" stroke="#bfbfbf" points="216.5,-62 216.5,-81 289.5,-81 289.5,-62 216.5,-62"/>
<text text-anchor="middle" x="253" y="-69" font-family="Helvetica,sans-Serif" font-size="10.00">string_view</text>
</a>
</g>
</g>
<!-- Node7&#45;&gt;Node8 -->
<g id="edge8" class="edge">
<title>Node7&#45;&gt;Node8</title>
<path fill="none" stroke="midnightblue" d="M200.74,-123.48C210.16,-114.28 225.36,-99.46 236.95,-88.16"/>
<polygon fill="midnightblue" stroke="midnightblue" points="239.56,-90.5 244.28,-81.01 234.67,-85.49 239.56,-90.5"/>
</g>
<!-- Node9 -->
<g id="node9" class="node">
<title>Node9</title>
<g id="a_node9"><a xlink:title=" ">
<polygon fill="none" stroke="#bfbfbf" points="161.5,-0.5 161.5,-19.5 202.5,-19.5 202.5,-0.5 161.5,-0.5"/>
<text text-anchor="middle" x="182" y="-7.5" font-family="Helvetica,sans-Serif" font-size="10.00">tuple</text>
</a>
</g>
</g>
<!-- Node7&#45;&gt;Node9 -->
<g id="edge9" class="edge">
<title>Node7&#45;&gt;Node9</title>
<path fill="none" stroke="midnightblue" d="M191.28,-123.3C189.67,-103.85 185.76,-56.49 183.56,-29.9"/>
<polygon fill="midnightblue" stroke="midnightblue" points="187.02,-29.3 182.71,-19.62 180.05,-29.88 187.02,-29.3"/>
</g>
<!-- Node10 -->
<g id="node10" class="node">
<title>Node10</title>
<g id="a_node10"><a xlink:href="traits_8h.html" target="_top" xlink:title=" ">
<polygon fill="none" stroke="black" points="46.5,-56.5 46.5,-86.5 159.5,-86.5 159.5,-56.5 46.5,-56.5"/>
<text text-anchor="start" x="54.5" y="-74.5" font-family="Helvetica,sans-Serif" font-size="10.00">open62541pp/detail</text>
<text text-anchor="middle" x="103" y="-63.5" font-family="Helvetica,sans-Serif" font-size="10.00">/traits.h</text>
</a>
</g>
</g>
<!-- Node7&#45;&gt;Node10 -->
<g id="edge10" class="edge">
<title>Node7&#45;&gt;Node10</title>
<path fill="none" stroke="midnightblue" d="M179.25,-123.48C167.08,-115.34 148.31,-102.79 132.44,-92.18"/>
<polygon fill="midnightblue" stroke="midnightblue" points="134.23,-89.17 123.98,-86.52 130.34,-94.99 134.23,-89.17"/>
</g>
<!-- Node7&#45;&gt;Node12 -->
<g id="edge13" class="edge">
<title>Node7&#45;&gt;Node12</title>
<path fill="none" stroke="midnightblue" d="M261.69,-125.29C375.76,-114.31 601.92,-92.53 725.14,-80.67"/>
<polygon fill="midnightblue" stroke="midnightblue" points="725.67,-84.14 735.29,-79.69 725,-77.17 725.67,-84.14"/>
</g>
<!-- Node10&#45;&gt;Node9 -->
<g id="edge11" class="edge">
<title>Node10&#45;&gt;Node9</title>
<path fill="none" stroke="midnightblue" d="M121.72,-56.4C133.91,-47.22 149.79,-35.26 162.19,-25.92"/>
<polygon fill="midnightblue" stroke="midnightblue" points="164.62,-28.47 170.5,-19.66 160.41,-22.88 164.62,-28.47"/>
</g>
<!-- Node11 -->
<g id="node11" class="node">
<title>Node11</title>
<g id="a_node11"><a xlink:title=" ">
<polygon fill="none" stroke="#bfbfbf" points="68.5,-0.5 68.5,-19.5 137.5,-19.5 137.5,-0.5 68.5,-0.5"/>
<text text-anchor="middle" x="103" y="-7.5" font-family="Helvetica,sans-Serif" font-size="10.00">type_traits</text>
</a>
</g>
</g>
<!-- Node10&#45;&gt;Node11 -->
<g id="edge12" class="edge">
<title>Node10&#45;&gt;Node11</title>
<path fill="none" stroke="midnightblue" d="M103,-56.4C103,-48.47 103,-38.46 103,-29.86"/>
<polygon fill="midnightblue" stroke="midnightblue" points="106.5,-29.66 103,-19.66 99.5,-29.66 106.5,-29.66"/>
</g>
<!-- Node13 -->
<g id="node13" class="node">
<title>Node13</title>
<g id="a_node13"><a target="_blank" xlink:href="open62541/nodeids_8h.html.html" xlink:title=" ">
<polygon fill="none" stroke="black" points="615.5,-0.5 615.5,-19.5 736.5,-19.5 736.5,-0.5 615.5,-0.5"/>
<text text-anchor="middle" x="676" y="-7.5" font-family="Helvetica,sans-Serif" font-size="10.00">open62541/nodeids.h</text>
</a>
</g>
</g>
<!-- Node12&#45;&gt;Node13 -->
<g id="edge14" class="edge">
<title>Node12&#45;&gt;Node13</title>
<path fill="none" stroke="midnightblue" d="M790.8,-61.98C768.21,-51.95 730.5,-35.2 704.5,-23.65"/>
<polygon fill="midnightblue" stroke="midnightblue" points="705.72,-20.37 695.16,-19.51 702.88,-26.77 705.72,-20.37"/>
</g>
<!-- Node14 -->
<g id="node14" class="node">
<title>Node14</title>
<g id="a_node14"><a target="_blank" xlink:href="open62541/types_8h.html.html" xlink:title=" ">
<polygon fill="none" stroke="black" points="755,-0.5 755,-19.5 865,-19.5 865,-0.5 755,-0.5"/>
<text text-anchor="middle" x="810" y="-7.5" font-family="Helvetica,sans-Serif" font-size="10.00">open62541/types.h</text>
</a>
</g>
</g>
<!-- Node12&#45;&gt;Node14 -->
<g id="edge15" class="edge">
<title>Node12&#45;&gt;Node14</title>
<path fill="none" stroke="midnightblue" d="M810,-61.98C810,-53.58 810,-40.48 810,-29.66"/>
<polygon fill="midnightblue" stroke="midnightblue" points="813.5,-29.51 810,-19.51 806.5,-29.51 813.5,-29.51"/>
</g>
<!-- Node15 -->
<g id="node15" class="node">
<title>Node15</title>
<g id="a_node15"><a target="_blank" xlink:href="open62541/types__generated_8h.html.html" xlink:title=" ">
<polygon fill="none" stroke="black" points="883,-0.5 883,-19.5 1047,-19.5 1047,-0.5 883,-0.5"/>
<text text-anchor="middle" x="965" y="-7.5" font-family="Helvetica,sans-Serif" font-size="10.00">open62541/types_generated.h</text>
</a>
</g>
</g>
<!-- Node12&#45;&gt;Node15 -->
<g id="edge16" class="edge">
<title>Node12&#45;&gt;Node15</title>
<path fill="none" stroke="midnightblue" d="M832.21,-61.98C858.68,-51.81 903.11,-34.76 933.22,-23.2"/>
<polygon fill="midnightblue" stroke="midnightblue" points="934.75,-26.36 942.83,-19.51 932.24,-19.83 934.75,-26.36"/>
</g>
<!-- Node16&#45;&gt;Node12 -->
<g id="edge20" class="edge">
<title>Node16&#45;&gt;Node12</title>
<path fill="none" stroke="midnightblue" d="M1013.09,-184.87C1002.61,-170.18 979.38,-140.25 953,-123 924.51,-104.38 888.34,-91.69 859.5,-83.69"/>
<polygon fill="midnightblue" stroke="midnightblue" points="860.19,-80.25 849.63,-81.05 858.39,-87.01 860.19,-80.25"/>
</g>
<!-- Node17 -->
<g id="node17" class="node">
<title>Node17</title>
<g id="a_node17"><a xlink:title=" ">
<polygon fill="none" stroke="#bfbfbf" points="1000.5,-123.5 1000.5,-142.5 1065.5,-142.5 1065.5,-123.5 1000.5,-123.5"/>
<text text-anchor="middle" x="1033" y="-130.5" font-family="Helvetica,sans-Serif" font-size="10.00">stdexcept</text>
</a>
</g>
</g>
<!-- Node16&#45;&gt;Node17 -->
<g id="edge18" class="edge">
<title>Node16&#45;&gt;Node17</title>
<path fill="none" stroke="midnightblue" d="M1021.01,-184.98C1023,-176.49 1026.13,-163.2 1028.69,-152.32"/>
<polygon fill="midnightblue" stroke="midnightblue" points="1032.11,-153.04 1031,-142.51 1025.3,-151.44 1032.11,-153.04"/>
</g>
<!-- Node18 -->
<g id="node18" class="node">
<title>Node18</title>
<g id="a_node18"><a xlink:title=" ">
<polygon fill="none" stroke="#bfbfbf" points="900,-123.5 900,-142.5 944,-142.5 944,-123.5 900,-123.5"/>
<text text-anchor="middle" x="922" y="-130.5" font-family="Helvetica,sans-Serif" font-size="10.00">string</text>
</a>
</g>
</g>
<!-- Node16&#45;&gt;Node18 -->
<g id="edge19" class="edge">
<title>Node16&#45;&gt;Node18</title>
<path fill="none" stroke="midnightblue" d="M1005.1,-184.98C989.33,-175.3 963.36,-159.37 944.65,-147.89"/>
<polygon fill="midnightblue" stroke="midnightblue" points="946.23,-144.75 935.87,-142.51 942.57,-150.72 946.23,-144.75"/>
</g>
<!-- Node19&#45;&gt;Node4 -->
<g id="edge24" class="edge">
<title>Node19&#45;&gt;Node4</title>
<path fill="none" stroke="midnightblue" d="M815.86,-358.44C856.4,-348.49 923.04,-332.14 964.34,-322"/>
<polygon fill="midnightblue" stroke="midnightblue" points="965.38,-325.35 974.26,-319.56 963.72,-318.55 965.38,-325.35"/>
</g>
<!-- Node19&#45;&gt;Node6 -->
<g id="edge27" class="edge">
<title>Node19&#45;&gt;Node6</title>
<path fill="none" stroke="midnightblue" d="M839.03,-358.5C888.9,-350.81 962.88,-338.48 1035.53,-322.17"/>
<polygon fill="midnightblue" stroke="midnightblue" points="1036.33,-325.58 1045.3,-319.95 1034.78,-318.75 1036.33,-325.58"/>
</g>
<!-- Node19&#45;&gt;Node7 -->
<g id="edge28" class="edge">
<title>Node19&#45;&gt;Node7</title>
<path fill="none" stroke="midnightblue" d="M699,-359.04C640.82,-352.22 561.26,-340.5 493,-322 361.64,-286.39 295.88,-313.92 208,-210 194.56,-194.11 191.51,-169.74 191.21,-152.91"/>
<polygon fill="midnightblue" stroke="midnightblue" points="194.71,-152.69 191.34,-142.65 187.71,-152.6 194.71,-152.69"/>
</g>
<!-- Node19&#45;&gt;Node10 -->
<g id="edge48" class="edge">
<title>Node19&#45;&gt;Node10</title>
<path fill="none" stroke="midnightblue" d="M698.73,-363.39C618.89,-358.52 494.78,-347.31 390,-322 321.23,-305.39 300.85,-303.73 241,-266 174.26,-223.92 148.95,-213.23 113,-143 105.68,-128.71 103.22,-110.77 102.56,-96.56"/>
<polygon fill="midnightblue" stroke="midnightblue" points="106.06,-96.48 102.37,-86.55 99.06,-96.62 106.06,-96.48"/>
</g>
<!-- Node19&#45;&gt;Node11 -->
<g id="edge26" class="edge">
<title>Node19&#45;&gt;Node11</title>
<path fill="none" stroke="midnightblue" d="M698.9,-363.94C498.38,-355.36 0,-327 0,-257 0,-257 0,-257 0,-132 0,-94.43 12.43,-84.42 37,-56 48.13,-43.13 63.75,-32.26 77,-24.43"/>
<polygon fill="midnightblue" stroke="midnightblue" points="78.73,-27.47 85.71,-19.5 75.28,-21.38 78.73,-27.47"/>
</g>
<!-- Node19&#45;&gt;Node12 -->
<g id="edge49" class="edge">
<title>Node19&#45;&gt;Node12</title>
<path fill="none" stroke="midnightblue" d="M792.02,-358.31C802.14,-349.88 817.04,-336.3 827,-322 842.57,-299.63 846.32,-292.66 852,-266 860.07,-228.11 870.66,-220.72 839,-123 835.17,-111.17 828.32,-99.05 822.25,-89.65"/>
<polygon fill="midnightblue" stroke="midnightblue" points="825.07,-87.58 816.56,-81.27 819.28,-91.51 825.07,-87.58"/>
</g>
<!-- Node19&#45;&gt;Node16 -->
<g id="edge29" class="edge">
<title>Node19&#45;&gt;Node16</title>
<path fill="none" stroke="midnightblue" d="M832.33,-358.46C860.67,-351.9 895.41,-340.7 922,-322 963.56,-292.78 995.39,-240.43 1010.08,-213.14"/>
<polygon fill="midnightblue" stroke="midnightblue" points="1013.32,-214.49 1014.85,-204.01 1007.12,-211.25 1013.32,-214.49"/>
</g>
<!-- Node19&#45;&gt;Node18 -->
<g id="edge25" class="edge">
<title>Node19&#45;&gt;Node18</title>
<path fill="none" stroke="midnightblue" d="M822.79,-358.46C844.16,-351.97 868.8,-340.83 884,-322 924.58,-271.73 925.48,-189.69 923.53,-152.89"/>
<polygon fill="midnightblue" stroke="midnightblue" points="927.01,-152.38 922.85,-142.64 920.02,-152.85 927.01,-152.38"/>
</g>
<!-- Node20 -->
<g id="node20" class="node">
<title>Node20</title>
<g id="a_node20"><a xlink:title=" ">
<polygon fill="none" stroke="#bfbfbf" points="760,-302.5 760,-321.5 802,-321.5 802,-302.5 760,-302.5"/>
<text text-anchor="middle" x="781" y="-309.5" font-family="Helvetica,sans-Serif" font-size="10.00">array</text>
</a>
</g>
</g>
<!-- Node19&#45;&gt;Node20 -->
<g id="edge22" class="edge">
<title>Node19&#45;&gt;Node20</title>
<path fill="none" stroke="midnightblue" d="M781,-358.08C781,-351.01 781,-340.86 781,-331.99"/>
<polygon fill="midnightblue" stroke="midnightblue" points="784.5,-331.75 781,-321.75 777.5,-331.75 784.5,-331.75"/>
</g>
<!-- Node21 -->
<g id="node21" class="node">
<title>Node21</title>
<g id="a_node21"><a xlink:title=" ">
<polygon fill="none" stroke="#bfbfbf" points="793,-246.5 793,-265.5 843,-265.5 843,-246.5 793,-246.5"/>
<text text-anchor="middle" x="818" y="-253.5" font-family="Helvetica,sans-Serif" font-size="10.00">chrono</text>
</a>
</g>
</g>
<!-- Node19&#45;&gt;Node21 -->
<g id="edge23" class="edge">
<title>Node19&#45;&gt;Node21</title>
<path fill="none" stroke="midnightblue" d="M788.6,-358.4C795.7,-349.82 805.95,-335.95 811,-322 816.38,-307.14 817.98,-289.22 818.32,-275.96"/>
<polygon fill="midnightblue" stroke="midnightblue" points="821.82,-275.72 818.36,-265.71 814.82,-275.69 821.82,-275.72"/>
</g>
<!-- Node19&#45;&gt;Node22 -->
<g id="edge30" class="edge">
<title>Node19&#45;&gt;Node22</title>
<path fill="none" stroke="midnightblue" d="M698.73,-358.73C644.84,-351.76 580.68,-339.99 560,-322 546.61,-310.36 541.02,-290.41 538.68,-275.67"/>
<polygon fill="midnightblue" stroke="midnightblue" points="542.14,-275.15 537.45,-265.64 535.19,-276 542.14,-275.15"/>
</g>
<!-- Node19&#45;&gt;Node24 -->
<g id="edge47" class="edge">
<title>Node19&#45;&gt;Node24</title>
<path fill="none" stroke="midnightblue" d="M700.71,-358.47C653.49,-351.85 593.2,-340.57 542,-322 476.9,-298.4 467.2,-278.38 406,-246 385.39,-235.1 362.14,-223.43 343.14,-214.06"/>
<polygon fill="midnightblue" stroke="midnightblue" points="344.43,-210.79 333.91,-209.52 341.34,-217.07 344.43,-210.79"/>
</g>
<!-- Node26 -->
<g id="node26" class="node">
<title>Node26</title>
<g id="a_node26"><a xlink:href="DateTime_8h.html" target="_top" xlink:title=" ">
<polygon fill="none" stroke="black" points="568.5,-302.5 568.5,-321.5 741.5,-321.5 741.5,-302.5 568.5,-302.5"/>
<text text-anchor="middle" x="655" y="-309.5" font-family="Helvetica,sans-Serif" font-size="10.00">open62541pp/types/DateTime.h</text>
</a>
</g>
</g>
<!-- Node19&#45;&gt;Node26 -->
<g id="edge50" class="edge">
<title>Node19&#45;&gt;Node26</title>
<path fill="none" stroke="midnightblue" d="M761.03,-358.44C740.39,-349.6 707.94,-335.69 684.37,-325.59"/>
<polygon fill="midnightblue" stroke="midnightblue" points="685.44,-322.24 674.87,-321.52 682.68,-328.67 685.44,-322.24"/>
</g>
<!-- Node22&#45;&gt;Node2 -->
<g id="edge31" class="edge">
<title>Node22&#45;&gt;Node2</title>
<path fill="none" stroke="midnightblue" d="M510.58,-246.43C492.07,-239.25 467.9,-227.37 452,-210 437.08,-193.7 428.52,-169.42 424.07,-152.71"/>
<polygon fill="midnightblue" stroke="midnightblue" points="427.37,-151.45 421.62,-142.55 420.56,-153.09 427.37,-151.45"/>
</g>
<!-- Node22&#45;&gt;Node3 -->
<g id="edge32" class="edge">
<title>Node22&#45;&gt;Node3</title>
<path fill="none" stroke="midnightblue" d="M525.61,-246.45C515.17,-238.11 499.88,-224.6 490,-210 466.65,-175.48 484.32,-152.62 455,-123 431.4,-99.17 394.93,-86.08 368,-79.24"/>
<polygon fill="midnightblue" stroke="midnightblue" points="368.74,-75.82 358.2,-76.92 367.12,-82.63 368.74,-75.82"/>
</g>
<!-- Node22&#45;&gt;Node7 -->
<g id="edge35" class="edge">
<title>Node22&#45;&gt;Node7</title>
<path fill="none" stroke="midnightblue" d="M457.63,-246.49C375.6,-237.15 257.01,-221.89 239,-210 218.32,-196.35 205.14,-170.14 198.16,-152.36"/>
<polygon fill="midnightblue" stroke="midnightblue" points="201.39,-151 194.68,-142.8 194.81,-153.39 201.39,-151"/>
</g>
<!-- Node22&#45;&gt;Node11 -->
<g id="edge33" class="edge">
<title>Node22&#45;&gt;Node11</title>
<path fill="none" stroke="midnightblue" d="M534.88,-246.31C528.99,-223.66 510.54,-161.88 476,-123 438.24,-80.48 420.25,-75.95 367,-56 276.27,-22 247.43,-36.75 152,-20 150.54,-19.74 149.05,-19.48 147.54,-19.21"/>
<polygon fill="midnightblue" stroke="midnightblue" points="147.98,-15.74 137.52,-17.41 146.74,-22.63 147.98,-15.74"/>
</g>
<!-- Node22&#45;&gt;Node12 -->
<g id="edge44" class="edge">
<title>Node22&#45;&gt;Node12</title>
<path fill="none" stroke="midnightblue" d="M549.8,-246.44C593.15,-217.46 734.71,-122.83 788.76,-86.7"/>
<polygon fill="midnightblue" stroke="midnightblue" points="790.86,-89.51 797.23,-81.04 786.97,-83.69 790.86,-89.51"/>
</g>
<!-- Node22&#45;&gt;Node16 -->
<g id="edge36" class="edge">
<title>Node22&#45;&gt;Node16</title>
<path fill="none" stroke="midnightblue" d="M606.06,-246.48C694.38,-235.57 846.97,-216.74 939.88,-205.27"/>
<polygon fill="midnightblue" stroke="midnightblue" points="940.57,-208.71 950.07,-204.01 939.72,-201.76 940.57,-208.71"/>
</g>
<!-- Node23 -->
<g id="node23" class="node">
<title>Node23</title>
<g id="a_node23"><a xlink:title=" ">
<polygon fill="none" stroke="#bfbfbf" points="532.5,-185 532.5,-204 577.5,-204 577.5,-185 532.5,-185"/>
<text text-anchor="middle" x="555" y="-192" font-family="Helvetica,sans-Serif" font-size="10.00">utility</text>
</a>
</g>
</g>
<!-- Node22&#45;&gt;Node23 -->
<g id="edge34" class="edge">
<title>Node22&#45;&gt;Node23</title>
<path fill="none" stroke="midnightblue" d="M539.58,-246.48C542.15,-237.99 546.17,-224.7 549.46,-213.82"/>
<polygon fill="midnightblue" stroke="midnightblue" points="552.88,-214.59 552.43,-204.01 546.18,-212.57 552.88,-214.59"/>
</g>
<!-- Node22&#45;&gt;Node24 -->
<g id="edge37" class="edge">
<title>Node22&#45;&gt;Node24</title>
<path fill="none" stroke="midnightblue" d="M503.76,-246.48C468.89,-237.53 413.2,-223.25 369.62,-212.07"/>
<polygon fill="midnightblue" stroke="midnightblue" points="370.23,-208.62 359.68,-209.52 368.49,-215.4 370.23,-208.62"/>
</g>
<!-- Node25 -->
<g id="node25" class="node">
<title>Node25</title>
<g id="a_node25"><a xlink:href="comparison_8h.html" target="_top" xlink:title=" ">
<polygon fill="none" stroke="black" points="672,-179.5 672,-209.5 806,-209.5 806,-179.5 672,-179.5"/>
<text text-anchor="start" x="680" y="-197.5" font-family="Helvetica,sans-Serif" font-size="10.00">open62541pp/overloads</text>
<text text-anchor="middle" x="739" y="-186.5" font-family="Helvetica,sans-Serif" font-size="10.00">/comparison.h</text>
</a>
</g>
</g>
<!-- Node22&#45;&gt;Node25 -->
<g id="edge45" class="edge">
<title>Node22&#45;&gt;Node25</title>
<path fill="none" stroke="midnightblue" d="M565.94,-246.48C595.98,-237.63 643.78,-223.55 681.53,-212.43"/>
<polygon fill="midnightblue" stroke="midnightblue" points="682.79,-215.71 691.39,-209.52 680.81,-208.99 682.79,-215.71"/>
</g>
<!-- Node24&#45;&gt;Node2 -->
<g id="edge38" class="edge">
<title>Node24&#45;&gt;Node2</title>
<path fill="none" stroke="midnightblue" d="M332.25,-179.4C351.03,-169.68 375.83,-156.86 394.27,-147.31"/>
<polygon fill="midnightblue" stroke="midnightblue" points="395.99,-150.36 403.27,-142.66 392.78,-144.14 395.99,-150.36"/>
</g>
<!-- Node24&#45;&gt;Node3 -->
<g id="edge39" class="edge">
<title>Node24&#45;&gt;Node3</title>
<path fill="none" stroke="midnightblue" d="M308.32,-179.14C313.4,-157.2 323.09,-115.33 328.7,-91.09"/>
<polygon fill="midnightblue" stroke="midnightblue" points="332.18,-91.58 331.02,-81.05 325.36,-90.01 332.18,-91.58"/>
</g>
<!-- Node24&#45;&gt;Node7 -->
<g id="edge42" class="edge">
<title>Node24&#45;&gt;Node7</title>
<path fill="none" stroke="midnightblue" d="M278.22,-179.4C259.94,-169.77 235.85,-157.09 217.79,-147.58"/>
<polygon fill="midnightblue" stroke="midnightblue" points="218.92,-144.22 208.44,-142.66 215.66,-150.41 218.92,-144.22"/>
</g>
<!-- Node24&#45;&gt;Node8 -->
<g id="edge41" class="edge">
<title>Node24&#45;&gt;Node8</title>
<path fill="none" stroke="midnightblue" d="M298.83,-179.14C289.32,-157 271.08,-114.57 260.71,-90.44"/>
<polygon fill="midnightblue" stroke="midnightblue" points="263.84,-88.86 256.68,-81.05 257.41,-91.62 263.84,-88.86"/>
</g>
<!-- Node24&#45;&gt;Node12 -->
<g id="edge43" class="edge">
<title>Node24&#45;&gt;Node12</title>
<path fill="none" stroke="midnightblue" d="M316.29,-179.32C330.42,-162.72 356.27,-135.84 385,-123 443.98,-96.64 618.93,-82.79 725.08,-76.62"/>
<polygon fill="midnightblue" stroke="midnightblue" points="725.35,-80.11 735.14,-76.04 724.95,-73.12 725.35,-80.11"/>
</g>
<!-- Node24&#45;&gt;Node18 -->
<g id="edge40" class="edge">
<title>Node24&#45;&gt;Node18</title>
<path fill="none" stroke="midnightblue" d="M361.66,-188.04C488.28,-175.83 790.8,-146.65 889.94,-137.09"/>
<polygon fill="midnightblue" stroke="midnightblue" points="890.33,-140.57 899.95,-136.13 889.66,-133.6 890.33,-140.57"/>
</g>
<!-- Node25&#45;&gt;Node12 -->
<g id="edge46" class="edge">
<title>Node25&#45;&gt;Node12</title>
<path fill="none" stroke="midnightblue" d="M747.42,-179.14C760.53,-156.81 785.76,-113.8 799.85,-89.79"/>
<polygon fill="midnightblue" stroke="midnightblue" points="802.94,-91.45 804.98,-81.05 796.9,-87.91 802.94,-91.45"/>
</g>
<!-- Node26&#45;&gt;Node3 -->
<g id="edge52" class="edge">
<title>Node26&#45;&gt;Node3</title>
<path fill="none" stroke="midnightblue" d="M652.73,-302.39C646.25,-279.39 625.64,-215.8 587,-179 523.86,-118.87 421.8,-90.36 368.3,-78.94"/>
<polygon fill="midnightblue" stroke="midnightblue" points="368.77,-75.47 358.27,-76.88 367.36,-82.32 368.77,-75.47"/>
</g>
<!-- Node26&#45;&gt;Node12 -->
<g id="edge55" class="edge">
<title>Node26&#45;&gt;Node12</title>
<path fill="none" stroke="midnightblue" d="M672.92,-302.47C711.29,-283.78 799.22,-238.62 815,-210 835.97,-171.96 824.63,-118.58 816.29,-90.85"/>
<polygon fill="midnightblue" stroke="midnightblue" points="819.6,-89.71 813.22,-81.26 812.94,-91.85 819.6,-89.71"/>
</g>
<!-- Node26&#45;&gt;Node21 -->
<g id="edge51" class="edge">
<title>Node26&#45;&gt;Node21</title>
<path fill="none" stroke="midnightblue" d="M680.83,-302.44C708.41,-293.31 752.29,-278.77 782.97,-268.6"/>
<polygon fill="midnightblue" stroke="midnightblue" points="784.44,-271.81 792.83,-265.34 782.24,-265.16 784.44,-271.81"/>
</g>
<!-- Node26&#45;&gt;Node22 -->
<g id="edge54" class="edge">
<title>Node26&#45;&gt;Node22</title>
<path fill="none" stroke="midnightblue" d="M636.3,-302.44C617.06,-293.64 586.85,-279.81 564.8,-269.72"/>
<polygon fill="midnightblue" stroke="midnightblue" points="566.16,-266.5 555.61,-265.52 563.25,-272.86 566.16,-266.5"/>
</g>
<!-- Node27 -->
<g id="node27" class="node">
<title>Node27</title>
<g id="a_node27"><a xlink:title=" ">
<polygon fill="none" stroke="#bfbfbf" points="672.5,-246.5 672.5,-265.5 711.5,-265.5 711.5,-246.5 672.5,-246.5"/>
<text text-anchor="middle" x="692" y="-253.5" font-family="Helvetica,sans-Serif" font-size="10.00">ratio</text>
</a>
</g>
</g>
<!-- Node26&#45;&gt;Node27 -->
<g id="edge53" class="edge">
<title>Node26&#45;&gt;Node27</title>
<path fill="none" stroke="midnightblue" d="M661.11,-302.08C666.28,-294.53 673.85,-283.49 680.19,-274.23"/>
<polygon fill="midnightblue" stroke="midnightblue" points="683.24,-275.98 686,-265.75 677.46,-272.02 683.24,-275.98"/>
</g>
</g>
</svg>
