<?xml version="1.0" encoding="UTF-8" standalone="no"?>
<!DOCTYPE svg PUBLIC "-//W3C//DTD SVG 1.1//EN"
 "http://www.w3.org/Graphics/SVG/1.1/DTD/svg11.dtd">
<!-- Generated by graphviz version 2.43.0 (0)
 -->
<!-- Title: /home/runner/work/open62541pp/open62541pp/include/open62541pp/Variant.h Pages: 1 -->
<svg width="746pt" height="285pt"
 viewBox="0.00 0.00 745.50 285.00" xmlns="http://www.w3.org/2000/svg" xmlns:xlink="http://www.w3.org/1999/xlink">
<g id="graph0" class="graph" transform="scale(1 1) rotate(0) translate(4 281)">
<title>/home/runner/work/open62541pp/open62541pp/include/open62541pp/Variant.h</title>
<!-- Node1 -->
<g id="node1" class="node">
<title>Node1</title>
<g id="a_node1"><a xlink:title=" ">
<polygon fill="#bfbfbf" stroke="black" points="93,-235.5 93,-276.5 286,-276.5 286,-235.5 93,-235.5"/>
<text text-anchor="start" x="101" y="-264.5" font-family="Helvetica,sans-Serif" font-size="10.00">/home/runner/work/open62541pp</text>
<text text-anchor="start" x="101" y="-253.5" font-family="Helvetica,sans-Serif" font-size="10.00">/open62541pp/include/open62541pp</text>
<text text-anchor="middle" x="189.5" y="-242.5" font-family="Helvetica,sans-Serif" font-size="10.00">/Variant.h</text>
</a>
</g>
</g>
<!-- Node2 -->
<g id="node2" class="node">
<title>Node2</title>
<g id="a_node2"><a xlink:title=" ">
<polygon fill="none" stroke="#bfbfbf" points="76,-179.5 76,-198.5 123,-198.5 123,-179.5 76,-179.5"/>
<text text-anchor="middle" x="99.5" y="-186.5" font-family="Helvetica,sans-Serif" font-size="10.00">vector</text>
</a>
</g>
</g>
<!-- Node1&#45;&gt;Node2 -->
<g id="edge1" class="edge">
<title>Node1&#45;&gt;Node2</title>
<path fill="none" stroke="midnightblue" d="M162.5,-235.5C148.83,-225.63 132.51,-213.84 119.91,-204.74"/>
<polygon fill="midnightblue" stroke="midnightblue" points="121.64,-201.67 111.48,-198.65 117.54,-207.34 121.64,-201.67"/>
</g>
<!-- Node3 -->
<g id="node3" class="node">
<title>Node3</title>
<g id="a_node3"><a xlink:href="ErrorHandling_8h.html" target="_top" xlink:title=" ">
<polygon fill="none" stroke="black" points="0,-123.5 0,-142.5 161,-142.5 161,-123.5 0,-123.5"/>
<text text-anchor="middle" x="80.5" y="-130.5" font-family="Helvetica,sans-Serif" font-size="10.00">open62541pp/ErrorHandling.h</text>
</a>
</g>
</g>
<!-- Node1&#45;&gt;Node3 -->
<g id="edge2" class="edge">
<title>Node1&#45;&gt;Node3</title>
<path fill="none" stroke="midnightblue" d="M176.18,-235.43C165.01,-219.57 148.24,-196.98 131.5,-179 121.57,-168.33 109.36,-157.49 99.37,-149.12"/>
<polygon fill="midnightblue" stroke="midnightblue" points="101.55,-146.39 91.61,-142.73 97.11,-151.79 101.55,-146.39"/>
</g>
<!-- Node6 -->
<g id="node6" class="node">
<title>Node6</title>
<g id="a_node6"><a xlink:href="open62541_8h.html" target="_top" xlink:title=" ">
<polygon fill="none" stroke="black" points="291,-67.5 291,-86.5 440,-86.5 440,-67.5 291,-67.5"/>
<text text-anchor="middle" x="365.5" y="-74.5" font-family="Helvetica,sans-Serif" font-size="10.00">open62541pp/open62541.h</text>
</a>
</g>
</g>
<!-- Node1&#45;&gt;Node6 -->
<g id="edge22" class="edge">
<title>Node1&#45;&gt;Node6</title>
<path fill="none" stroke="midnightblue" d="M193,-235.21C199.03,-206.68 214,-154.03 246.5,-123 263.61,-106.66 287.23,-96.12 308.92,-89.38"/>
<polygon fill="midnightblue" stroke="midnightblue" points="310.09,-92.69 318.72,-86.55 308.14,-85.96 310.09,-92.69"/>
</g>
<!-- Node10 -->
<g id="node10" class="node">
<title>Node10</title>
<g id="a_node10"><a xlink:href="TypeWrapper_8h.html" target="_top" xlink:title=" ">
<polygon fill="none" stroke="black" points="313.5,-179.5 313.5,-198.5 471.5,-198.5 471.5,-179.5 313.5,-179.5"/>
<text text-anchor="middle" x="392.5" y="-186.5" font-family="Helvetica,sans-Serif" font-size="10.00">open62541pp/TypeWrapper.h</text>
</a>
</g>
</g>
<!-- Node1&#45;&gt;Node10 -->
<g id="edge9" class="edge">
<title>Node1&#45;&gt;Node10</title>
<path fill="none" stroke="midnightblue" d="M250.41,-235.5C284.78,-224.49 326.58,-211.11 355.92,-201.71"/>
<polygon fill="midnightblue" stroke="midnightblue" points="357.29,-204.95 365.74,-198.57 355.15,-198.28 357.29,-204.95"/>
</g>
<!-- Node16 -->
<g id="node16" class="node">
<title>Node16</title>
<g id="a_node16"><a xlink:href="Types_8h.html" target="_top" xlink:title=" ">
<polygon fill="none" stroke="black" points="615.5,-123.5 615.5,-142.5 737.5,-142.5 737.5,-123.5 615.5,-123.5"/>
<text text-anchor="middle" x="676.5" y="-130.5" font-family="Helvetica,sans-Serif" font-size="10.00">open62541pp/Types.h</text>
</a>
</g>
</g>
<!-- Node1&#45;&gt;Node16 -->
<g id="edge21" class="edge">
<title>Node1&#45;&gt;Node16</title>
<path fill="none" stroke="midnightblue" d="M286.21,-239.64C343.18,-229.79 416.41,-215.72 480.5,-199 539.09,-183.72 605.69,-160.3 644.22,-146.14"/>
<polygon fill="midnightblue" stroke="midnightblue" points="645.69,-149.33 653.86,-142.58 643.26,-142.77 645.69,-149.33"/>
</g>
<!-- Node4 -->
<g id="node4" class="node">
<title>Node4</title>
<g id="a_node4"><a xlink:title=" ">
<polygon fill="none" stroke="#bfbfbf" points="48,-67.5 48,-86.5 113,-86.5 113,-67.5 48,-67.5"/>
<text text-anchor="middle" x="80.5" y="-74.5" font-family="Helvetica,sans-Serif" font-size="10.00">stdexcept</text>
</a>
</g>
</g>
<!-- Node3&#45;&gt;Node4 -->
<g id="edge3" class="edge">
<title>Node3&#45;&gt;Node4</title>
<path fill="none" stroke="midnightblue" d="M80.5,-123.08C80.5,-116.01 80.5,-105.86 80.5,-96.99"/>
<polygon fill="midnightblue" stroke="midnightblue" points="84,-96.75 80.5,-86.75 77,-96.75 84,-96.75"/>
</g>
<!-- Node5 -->
<g id="node5" class="node">
<title>Node5</title>
<g id="a_node5"><a xlink:title=" ">
<polygon fill="none" stroke="#bfbfbf" points="168.5,-67.5 168.5,-86.5 212.5,-86.5 212.5,-67.5 168.5,-67.5"/>
<text text-anchor="middle" x="190.5" y="-74.5" font-family="Helvetica,sans-Serif" font-size="10.00">string</text>
</a>
</g>
</g>
<!-- Node3&#45;&gt;Node5 -->
<g id="edge4" class="edge">
<title>Node3&#45;&gt;Node5</title>
<path fill="none" stroke="midnightblue" d="M98.17,-123.32C115.89,-114.62 143.4,-101.12 163.79,-91.11"/>
<polygon fill="midnightblue" stroke="midnightblue" points="165.44,-94.2 172.87,-86.65 162.35,-87.92 165.44,-94.2"/>
</g>
<!-- Node3&#45;&gt;Node6 -->
<g id="edge5" class="edge">
<title>Node3&#45;&gt;Node6</title>
<path fill="none" stroke="midnightblue" d="M125.66,-123.44C175.79,-113.94 256.72,-98.61 310.51,-88.42"/>
<polygon fill="midnightblue" stroke="midnightblue" points="311.38,-91.82 320.55,-86.52 310.08,-84.94 311.38,-91.82"/>
</g>
<!-- Node7 -->
<g id="node7" class="node">
<title>Node7</title>
<g id="a_node7"><a xlink:href="open62541/nodeids_8h.html.html" xlink:title=" ">
<polygon fill="none" stroke="black" points="171,-6 171,-25 292,-25 292,-6 171,-6"/>
<text text-anchor="middle" x="231.5" y="-13" font-family="Helvetica,sans-Serif" font-size="10.00">open62541/nodeids.h</text>
</a>
</g>
</g>
<!-- Node6&#45;&gt;Node7 -->
<g id="edge6" class="edge">
<title>Node6&#45;&gt;Node7</title>
<path fill="none" stroke="midnightblue" d="M346.3,-67.48C323.71,-57.45 286,-40.7 260,-29.15"/>
<polygon fill="midnightblue" stroke="midnightblue" points="261.22,-25.87 250.66,-25.01 258.38,-32.27 261.22,-25.87"/>
</g>
<!-- Node8 -->
<g id="node8" class="node">
<title>Node8</title>
<g id="a_node8"><a xlink:href="open62541/types_8h.html.html" xlink:title=" ">
<polygon fill="none" stroke="black" points="310.5,-6 310.5,-25 420.5,-25 420.5,-6 310.5,-6"/>
<text text-anchor="middle" x="365.5" y="-13" font-family="Helvetica,sans-Serif" font-size="10.00">open62541/types.h</text>
</a>
</g>
</g>
<!-- Node6&#45;&gt;Node8 -->
<g id="edge7" class="edge">
<title>Node6&#45;&gt;Node8</title>
<path fill="none" stroke="midnightblue" d="M365.5,-67.48C365.5,-59.08 365.5,-45.98 365.5,-35.16"/>
<polygon fill="midnightblue" stroke="midnightblue" points="369,-35.01 365.5,-25.01 362,-35.01 369,-35.01"/>
</g>
<!-- Node9 -->
<g id="node9" class="node">
<title>Node9</title>
<g id="a_node9"><a xlink:href="open62541/types__generated__handling_8h.html.html" xlink:title=" ">
<polygon fill="none" stroke="black" points="439,-0.5 439,-30.5 594,-30.5 594,-0.5 439,-0.5"/>
<text text-anchor="start" x="447" y="-18.5" font-family="Helvetica,sans-Serif" font-size="10.00">open62541/types_generated</text>
<text text-anchor="middle" x="516.5" y="-7.5" font-family="Helvetica,sans-Serif" font-size="10.00">_handling.h</text>
</a>
</g>
</g>
<!-- Node6&#45;&gt;Node9 -->
<g id="edge8" class="edge">
<title>Node6&#45;&gt;Node9</title>
<path fill="none" stroke="midnightblue" d="M387.13,-67.48C409.02,-58.85 443.5,-45.26 471.36,-34.29"/>
<polygon fill="midnightblue" stroke="midnightblue" points="472.89,-37.45 480.91,-30.52 470.33,-30.93 472.89,-37.45"/>
</g>
<!-- Node10&#45;&gt;Node3 -->
<g id="edge16" class="edge">
<title>Node10&#45;&gt;Node3</title>
<path fill="none" stroke="midnightblue" d="M343.06,-179.44C287.84,-169.89 198.48,-154.42 139.61,-144.23"/>
<polygon fill="midnightblue" stroke="midnightblue" points="140.16,-140.77 129.71,-142.52 138.96,-147.67 140.16,-140.77"/>
</g>
<!-- Node10&#45;&gt;Node5 -->
<g id="edge12" class="edge">
<title>Node10&#45;&gt;Node5</title>
<path fill="none" stroke="midnightblue" d="M340.81,-179.44C311.41,-172.84 274.91,-161.59 246.5,-143 227.48,-130.56 211.24,-109.86 201.22,-95.16"/>
<polygon fill="midnightblue" stroke="midnightblue" points="203.97,-92.97 195.57,-86.52 198.11,-96.8 203.97,-92.97"/>
</g>
<!-- Node10&#45;&gt;Node6 -->
<g id="edge20" class="edge">
<title>Node10&#45;&gt;Node6</title>
<path fill="none" stroke="midnightblue" d="M397.2,-179.33C403.44,-166.63 412.86,-142.36 405.5,-123 401.16,-111.6 392.47,-101.24 384.29,-93.34"/>
<polygon fill="midnightblue" stroke="midnightblue" points="386.54,-90.66 376.77,-86.57 381.86,-95.86 386.54,-90.66"/>
</g>
<!-- Node11 -->
<g id="node11" class="node">
<title>Node11</title>
<g id="a_node11"><a xlink:title=" ">
<polygon fill="none" stroke="#bfbfbf" points="517.5,-123.5 517.5,-142.5 559.5,-142.5 559.5,-123.5 517.5,-123.5"/>
<text text-anchor="middle" x="538.5" y="-130.5" font-family="Helvetica,sans-Serif" font-size="10.00">array</text>
</a>
</g>
</g>
<!-- Node10&#45;&gt;Node11 -->
<g id="edge10" class="edge">
<title>Node10&#45;&gt;Node11</title>
<path fill="none" stroke="midnightblue" d="M415.63,-179.44C440.56,-170.23 480.33,-155.52 507.84,-145.34"/>
<polygon fill="midnightblue" stroke="midnightblue" points="509.21,-148.57 517.37,-141.82 506.78,-142 509.21,-148.57"/>
</g>
<!-- Node12 -->
<g id="node12" class="node">
<title>Node12</title>
<g id="a_node12"><a xlink:title=" ">
<polygon fill="none" stroke="#bfbfbf" points="255.5,-123.5 255.5,-142.5 305.5,-142.5 305.5,-123.5 255.5,-123.5"/>
<text text-anchor="middle" x="280.5" y="-130.5" font-family="Helvetica,sans-Serif" font-size="10.00">cstdint</text>
</a>
</g>
</g>
<!-- Node10&#45;&gt;Node12 -->
<g id="edge11" class="edge">
<title>Node10&#45;&gt;Node12</title>
<path fill="none" stroke="midnightblue" d="M374.51,-179.32C356.46,-170.62 328.45,-157.12 307.7,-147.11"/>
<polygon fill="midnightblue" stroke="midnightblue" points="308.98,-143.84 298.45,-142.65 305.94,-150.15 308.98,-143.84"/>
</g>
<!-- Node13 -->
<g id="node13" class="node">
<title>Node13</title>
<g id="a_node13"><a xlink:title=" ">
<polygon fill="none" stroke="#bfbfbf" points="324,-123.5 324,-142.5 397,-142.5 397,-123.5 324,-123.5"/>
<text text-anchor="middle" x="360.5" y="-130.5" font-family="Helvetica,sans-Serif" font-size="10.00">string_view</text>
</a>
</g>
</g>
<!-- Node10&#45;&gt;Node13 -->
<g id="edge13" class="edge">
<title>Node10&#45;&gt;Node13</title>
<path fill="none" stroke="midnightblue" d="M387.22,-179.08C382.79,-171.61 376.34,-160.72 370.88,-151.52"/>
<polygon fill="midnightblue" stroke="midnightblue" points="373.79,-149.57 365.69,-142.75 367.77,-153.14 373.79,-149.57"/>
</g>
<!-- Node14 -->
<g id="node14" class="node">
<title>Node14</title>
<g id="a_node14"><a xlink:title=" ">
<polygon fill="none" stroke="#bfbfbf" points="597,-67.5 597,-86.5 666,-86.5 666,-67.5 597,-67.5"/>
<text text-anchor="middle" x="631.5" y="-74.5" font-family="Helvetica,sans-Serif" font-size="10.00">type_traits</text>
</a>
</g>
</g>
<!-- Node10&#45;&gt;Node14 -->
<g id="edge14" class="edge">
<title>Node10&#45;&gt;Node14</title>
<path fill="none" stroke="midnightblue" d="M461.02,-179.47C495.05,-173.07 535.76,-161.99 568.5,-143 589.44,-130.85 607.99,-109.79 619.44,-94.94"/>
<polygon fill="midnightblue" stroke="midnightblue" points="622.46,-96.75 625.62,-86.63 616.84,-92.57 622.46,-96.75"/>
</g>
<!-- Node15 -->
<g id="node15" class="node">
<title>Node15</title>
<g id="a_node15"><a xlink:title=" ">
<polygon fill="none" stroke="#bfbfbf" points="454,-123.5 454,-142.5 499,-142.5 499,-123.5 454,-123.5"/>
<text text-anchor="middle" x="476.5" y="-130.5" font-family="Helvetica,sans-Serif" font-size="10.00">utility</text>
</a>
</g>
</g>
<!-- Node10&#45;&gt;Node15 -->
<g id="edge15" class="edge">
<title>Node10&#45;&gt;Node15</title>
<path fill="none" stroke="midnightblue" d="M406,-179.32C419.1,-170.9 439.21,-157.97 454.61,-148.07"/>
<polygon fill="midnightblue" stroke="midnightblue" points="456.52,-151.01 463.04,-142.65 452.73,-145.12 456.52,-151.01"/>
</g>
<!-- Node10&#45;&gt;Node16 -->
<g id="edge17" class="edge">
<title>Node10&#45;&gt;Node16</title>
<path fill="none" stroke="midnightblue" d="M437.5,-179.44C487.46,-169.94 568.1,-154.61 621.7,-144.42"/>
<polygon fill="midnightblue" stroke="midnightblue" points="622.54,-147.82 631.71,-142.52 621.23,-140.95 622.54,-147.82"/>
</g>
<!-- Node16&#45;&gt;Node6 -->
<g id="edge19" class="edge">
<title>Node16&#45;&gt;Node6</title>
<path fill="none" stroke="midnightblue" d="M627.22,-123.44C572.17,-113.89 483.1,-98.42 424.42,-88.23"/>
<polygon fill="midnightblue" stroke="midnightblue" points="425,-84.78 414.55,-86.52 423.8,-91.68 425,-84.78"/>
</g>
<!-- Node16&#45;&gt;Node14 -->
<g id="edge18" class="edge">
<title>Node16&#45;&gt;Node14</title>
<path fill="none" stroke="midnightblue" d="M669.07,-123.08C662.65,-115.38 653.19,-104.03 645.38,-94.65"/>
<polygon fill="midnightblue" stroke="midnightblue" points="647.88,-92.19 638.79,-86.75 642.51,-96.67 647.88,-92.19"/>
</g>
</g>
</svg>
