<?xml version="1.0" encoding="UTF-8" standalone="no"?>
<!DOCTYPE svg PUBLIC "-//W3C//DTD SVG 1.1//EN"
 "http://www.w3.org/Graphics/SVG/1.1/DTD/svg11.dtd">
<!-- Generated by graphviz version 2.43.0 (0)
 -->
<!-- Title: /home/runner/work/open62541pp/open62541pp/include/open62541pp/types/Variant.h Pages: 1 -->
<svg width="1332pt" height="467pt"
 viewBox="0.00 0.00 1331.50 467.00" xmlns="http://www.w3.org/2000/svg" xmlns:xlink="http://www.w3.org/1999/xlink">
<g id="graph0" class="graph" transform="scale(1 1) rotate(0) translate(4 463)">
<title>/home/runner/work/open62541pp/open62541pp/include/open62541pp/types/Variant.h</title>
<!-- Node1 -->
<g id="Node000001" class="node">
<title>Node1</title>
<g id="a_Node000001"><a xlink:title=" ">
<polygon fill="#999999" stroke="#666666" points="341.5,-459 148.5,-459 148.5,-418 341.5,-418 341.5,-459"/>
<text text-anchor="start" x="156.5" y="-447" font-family="Helvetica,sans-Serif" font-size="10.00">/home/runner/work/open62541pp</text>
<text text-anchor="start" x="156.5" y="-436" font-family="Helvetica,sans-Serif" font-size="10.00">/open62541pp/include/open62541pp</text>
<text text-anchor="middle" x="245" y="-425" font-family="Helvetica,sans-Serif" font-size="10.00">/types/Variant.h</text>
</a>
</g>
</g>
<!-- Node2 -->
<g id="Node000002" class="node">
<title>Node2</title>
<g id="a_Node000002"><a xlink:title=" ">
<polygon fill="#e0e0e0" stroke="#999999" points="943,-140 891,-140 891,-121 943,-121 943,-140"/>
<text text-anchor="middle" x="917" y="-128" font-family="Helvetica,sans-Serif" font-size="10.00">cassert</text>
</a>
</g>
</g>
<!-- Node1&#45;&gt;Node2 -->
<g id="edge1_Node000001_Node000002" class="edge">
<title>Node1&#45;&gt;Node2</title>
<g id="a_edge1_Node000001_Node000002"><a xlink:title=" ">
<path fill="none" stroke="#63b8ff" d="M341.59,-437.48C471.92,-435.64 710.62,-425.82 909,-382 978.34,-366.68 1018.34,-385.21 1059,-327 1080.4,-296.36 1111.7,-259.21 1045,-176 1022.98,-148.53 982.98,-137.97 953.53,-133.94"/>
<polygon fill="#63b8ff" stroke="#63b8ff" points="953.55,-130.42 943.21,-132.73 952.74,-137.37 953.55,-130.42"/>
</a>
</g>
</g>
<!-- Node3 -->
<g id="Node000003" class="node">
<title>Node3</title>
<g id="a_Node000003"><a xlink:title=" ">
<polygon fill="#e0e0e0" stroke="#999999" points="718,-79.5 668,-79.5 668,-60.5 718,-60.5 718,-79.5"/>
<text text-anchor="middle" x="693" y="-67.5" font-family="Helvetica,sans-Serif" font-size="10.00">cstdint</text>
</a>
</g>
</g>
<!-- Node1&#45;&gt;Node3 -->
<g id="edge2_Node000001_Node000003" class="edge">
<title>Node1&#45;&gt;Node3</title>
<g id="a_edge2_Node000001_Node000003"><a xlink:title=" ">
<path fill="none" stroke="#63b8ff" d="M240.26,-417.9C234.21,-387.61 227.93,-329.53 259,-297 358.76,-192.54 448.61,-282.71 571,-206 621.02,-174.65 663.02,-117.13 682.06,-88.36"/>
<polygon fill="#63b8ff" stroke="#63b8ff" points="685.12,-90.07 687.61,-79.78 679.24,-86.27 685.12,-90.07"/>
</a>
</g>
</g>
<!-- Node4 -->
<g id="Node000004" class="node">
<title>Node4</title>
<g id="a_Node000004"><a xlink:title=" ">
<polygon fill="#e0e0e0" stroke="#999999" points="139.5,-321.5 86.5,-321.5 86.5,-302.5 139.5,-302.5 139.5,-321.5"/>
<text text-anchor="middle" x="113" y="-309.5" font-family="Helvetica,sans-Serif" font-size="10.00">iterator</text>
</a>
</g>
</g>
<!-- Node1&#45;&gt;Node4 -->
<g id="edge3_Node000001_Node000004" class="edge">
<title>Node1&#45;&gt;Node4</title>
<g id="a_edge3_Node000001_Node000004"><a xlink:title=" ">
<path fill="none" stroke="#63b8ff" d="M148.18,-420.88C127.34,-412.64 107.77,-400.34 95,-382 84.32,-366.66 92.49,-345.43 101,-330.58"/>
<polygon fill="#63b8ff" stroke="#63b8ff" points="104.11,-332.2 106.44,-321.87 98.17,-328.49 104.11,-332.2"/>
</a>
</g>
</g>
<!-- Node5 -->
<g id="Node000005" class="node">
<title>Node5</title>
<g id="a_Node000005"><a xlink:title=" ">
<polygon fill="#e0e0e0" stroke="#999999" points="160,-382 104,-382 104,-363 160,-363 160,-382"/>
<text text-anchor="middle" x="132" y="-370" font-family="Helvetica,sans-Serif" font-size="10.00">optional</text>
</a>
</g>
</g>
<!-- Node1&#45;&gt;Node5 -->
<g id="edge4_Node000001_Node000005" class="edge">
<title>Node1&#45;&gt;Node5</title>
<g id="a_edge4_Node000001_Node000005"><a xlink:title=" ">
<path fill="none" stroke="#63b8ff" d="M210.48,-417.95C192.96,-408.03 172.1,-396.21 156.29,-387.25"/>
<polygon fill="#63b8ff" stroke="#63b8ff" points="157.6,-383.97 147.17,-382.09 154.15,-390.07 157.6,-383.97"/>
</a>
</g>
</g>
<!-- Node6 -->
<g id="Node000006" class="node">
<title>Node6</title>
<g id="a_Node000006"><a xlink:title=" ">
<polygon fill="#e0e0e0" stroke="#999999" points="153.5,-200.5 108.5,-200.5 108.5,-181.5 153.5,-181.5 153.5,-200.5"/>
<text text-anchor="middle" x="131" y="-188.5" font-family="Helvetica,sans-Serif" font-size="10.00">utility</text>
</a>
</g>
</g>
<!-- Node1&#45;&gt;Node6 -->
<g id="edge5_Node000001_Node000006" class="edge">
<title>Node1&#45;&gt;Node6</title>
<g id="a_edge5_Node000001_Node000006"><a xlink:title=" ">
<path fill="none" stroke="#63b8ff" d="M148.34,-421.77C124.88,-413.54 101.98,-401.03 86,-382 42.97,-330.77 93.04,-245.6 118.23,-209.27"/>
<polygon fill="#63b8ff" stroke="#63b8ff" points="121.34,-210.94 124.3,-200.76 115.64,-206.87 121.34,-210.94"/>
</a>
</g>
</g>
<!-- Node7 -->
<g id="Node000007" class="node">
<title>Node7</title>
<g id="a_Node000007"><a xlink:title=" ">
<polygon fill="#e0e0e0" stroke="#999999" points="339.5,-321.5 292.5,-321.5 292.5,-302.5 339.5,-302.5 339.5,-321.5"/>
<text text-anchor="middle" x="316" y="-309.5" font-family="Helvetica,sans-Serif" font-size="10.00">vector</text>
</a>
</g>
</g>
<!-- Node1&#45;&gt;Node7 -->
<g id="edge6_Node000001_Node000007" class="edge">
<title>Node1&#45;&gt;Node7</title>
<g id="a_edge6_Node000001_Node000007"><a xlink:title=" ">
<path fill="none" stroke="#63b8ff" d="M256.92,-417.81C263.26,-407.25 271.15,-393.97 278,-382 287.95,-364.62 298.95,-344.54 306.55,-330.54"/>
<polygon fill="#63b8ff" stroke="#63b8ff" points="309.73,-332.01 311.41,-321.55 303.57,-328.68 309.73,-332.01"/>
</a>
</g>
</g>
<!-- Node8 -->
<g id="Node000008" class="node">
<title>Node8</title>
<g id="a_Node000008"><a xlink:href="Common_8h.html" target="_top" xlink:title=" ">
<polygon fill="white" stroke="#666666" points="1176.5,-140 1037.5,-140 1037.5,-121 1176.5,-121 1176.5,-140"/>
<text text-anchor="middle" x="1107" y="-128" font-family="Helvetica,sans-Serif" font-size="10.00">open62541pp/Common.h</text>
</a>
</g>
</g>
<!-- Node1&#45;&gt;Node8 -->
<g id="edge7_Node000001_Node000008" class="edge">
<title>Node1&#45;&gt;Node8</title>
<g id="a_edge7_Node000001_Node000008"><a xlink:title=" ">
<path fill="none" stroke="#63b8ff" d="M341.59,-435.29C589.52,-428.35 1229,-401.84 1229,-313 1229,-313 1229,-313 1229,-250.5 1229,-199.03 1172.67,-162.56 1136.56,-144.47"/>
<polygon fill="#63b8ff" stroke="#63b8ff" points="1137.95,-141.26 1127.42,-140.07 1134.91,-147.56 1137.95,-141.26"/>
</a>
</g>
</g>
<!-- Node13 -->
<g id="Node000013" class="node">
<title>Node13</title>
<g id="a_Node000013"><a xlink:href="open62541_8h.html" target="_top" xlink:title=" ">
<polygon fill="white" stroke="#666666" points="345.5,-79.5 196.5,-79.5 196.5,-60.5 345.5,-60.5 345.5,-79.5"/>
<text text-anchor="middle" x="271" y="-67.5" font-family="Helvetica,sans-Serif" font-size="10.00">open62541pp/open62541.h</text>
</a>
</g>
</g>
<!-- Node1&#45;&gt;Node13 -->
<g id="edge67_Node000001_Node000013" class="edge">
<title>Node1&#45;&gt;Node13</title>
<g id="a_edge67_Node000001_Node000013"><a xlink:title=" ">
<path fill="none" stroke="#63b8ff" d="M148.17,-426.88C79.69,-413.36 0,-382.66 0,-313 0,-313 0,-313 0,-190 0,-107.46 106.69,-81.65 186.19,-73.88"/>
<polygon fill="#63b8ff" stroke="#63b8ff" points="186.58,-77.35 196.23,-72.97 185.96,-70.38 186.58,-77.35"/>
</a>
</g>
</g>
<!-- Node18 -->
<g id="Node000018" class="node">
<title>Node18</title>
<g id="a_Node000018"><a xlink:href="ErrorHandling_8h.html" target="_top" xlink:title=" ">
<polygon fill="white" stroke="#666666" points="561.5,-200.5 400.5,-200.5 400.5,-181.5 561.5,-181.5 561.5,-200.5"/>
<text text-anchor="middle" x="481" y="-188.5" font-family="Helvetica,sans-Serif" font-size="10.00">open62541pp/ErrorHandling.h</text>
</a>
</g>
</g>
<!-- Node1&#45;&gt;Node18 -->
<g id="edge19_Node000001_Node000018" class="edge">
<title>Node1&#45;&gt;Node18</title>
<g id="a_edge19_Node000001_Node000018"><a xlink:title=" ">
<path fill="none" stroke="#63b8ff" d="M229.8,-417.88C222.91,-407.76 215.54,-394.86 212,-382 201.99,-345.57 190.69,-328.19 212,-297 251.71,-238.87 328.8,-212.92 390.31,-201.33"/>
<polygon fill="#63b8ff" stroke="#63b8ff" points="391.2,-204.73 400.43,-199.53 389.97,-197.84 391.2,-204.73"/>
</a>
</g>
</g>
<!-- Node22 -->
<g id="Node000022" class="node">
<title>Node22</title>
<g id="a_Node000022"><a xlink:href="TypeConverter_8h.html" target="_top" xlink:title=" ">
<polygon fill="white" stroke="#666666" points="815,-382 651,-382 651,-363 815,-363 815,-382"/>
<text text-anchor="middle" x="733" y="-370" font-family="Helvetica,sans-Serif" font-size="10.00">open62541pp/TypeConverter.h</text>
</a>
</g>
</g>
<!-- Node1&#45;&gt;Node22 -->
<g id="edge25_Node000001_Node000022" class="edge">
<title>Node1&#45;&gt;Node22</title>
<g id="a_edge25_Node000001_Node000022"><a xlink:title=" ">
<path fill="none" stroke="#63b8ff" d="M341.7,-424.82C434.62,-412.63 573.09,-394.47 657.96,-383.34"/>
<polygon fill="#63b8ff" stroke="#63b8ff" points="658.58,-386.79 668.04,-382.02 657.67,-379.85 658.58,-386.79"/>
</a>
</g>
</g>
<!-- Node25 -->
<g id="Node000025" class="node">
<title>Node25</title>
<g id="a_Node000025"><a xlink:href="TypeWrapper_8h.html" target="_top" xlink:title=" ">
<polygon fill="white" stroke="#666666" points="619,-261 461,-261 461,-242 619,-242 619,-261"/>
<text text-anchor="middle" x="540" y="-249" font-family="Helvetica,sans-Serif" font-size="10.00">open62541pp/TypeWrapper.h</text>
</a>
</g>
</g>
<!-- Node1&#45;&gt;Node25 -->
<g id="edge65_Node000001_Node000025" class="edge">
<title>Node1&#45;&gt;Node25</title>
<g id="a_edge65_Node000001_Node000025"><a xlink:title=" ">
<path fill="none" stroke="#63b8ff" d="M244.33,-417.83C244.43,-387.17 249.48,-328.27 284,-297 308.2,-275.08 386.88,-263.72 450.7,-257.99"/>
<polygon fill="#63b8ff" stroke="#63b8ff" points="451.14,-261.46 460.8,-257.12 450.54,-254.49 451.14,-261.46"/>
</a>
</g>
</g>
<!-- Node26 -->
<g id="Node000026" class="node">
<title>Node26</title>
<g id="a_Node000026"><a xlink:href="helper_8h.html" target="_top" xlink:title=" ">
<polygon fill="white" stroke="#666666" points="1035.5,-206 922.5,-206 922.5,-176 1035.5,-176 1035.5,-206"/>
<text text-anchor="start" x="930.5" y="-194" font-family="Helvetica,sans-Serif" font-size="10.00">open62541pp/detail</text>
<text text-anchor="middle" x="979" y="-183" font-family="Helvetica,sans-Serif" font-size="10.00">/helper.h</text>
</a>
</g>
</g>
<!-- Node1&#45;&gt;Node26 -->
<g id="edge66_Node000001_Node000026" class="edge">
<title>Node1&#45;&gt;Node26</title>
<g id="a_edge66_Node000001_Node000026"><a xlink:title=" ">
<path fill="none" stroke="#63b8ff" d="M341.76,-431.5C544.47,-417.89 998.53,-381.57 1041,-327 1068.65,-291.46 1029.75,-241.61 1002.21,-213.49"/>
<polygon fill="#63b8ff" stroke="#63b8ff" points="1004.38,-210.72 994.81,-206.17 999.46,-215.69 1004.38,-210.72"/>
</a>
</g>
</g>
<!-- Node8&#45;&gt;Node3 -->
<g id="edge8_Node000008_Node000003" class="edge">
<title>Node8&#45;&gt;Node3</title>
<g id="a_edge8_Node000008_Node000003"><a xlink:title=" ">
<path fill="none" stroke="#63b8ff" d="M1046.8,-120.99C959.13,-108.61 799.08,-85.99 728.29,-75.99"/>
<polygon fill="#63b8ff" stroke="#63b8ff" points="728.5,-72.48 718.11,-74.55 727.52,-79.41 728.5,-72.48"/>
</a>
</g>
</g>
<!-- Node9 -->
<g id="Node000009" class="node">
<title>Node9</title>
<g id="a_Node000009"><a xlink:title=" ">
<polygon fill="#e0e0e0" stroke="#999999" points="972.5,-79.5 899.5,-79.5 899.5,-60.5 972.5,-60.5 972.5,-79.5"/>
<text text-anchor="middle" x="936" y="-67.5" font-family="Helvetica,sans-Serif" font-size="10.00">string_view</text>
</a>
</g>
</g>
<!-- Node8&#45;&gt;Node9 -->
<g id="edge9_Node000008_Node000009" class="edge">
<title>Node8&#45;&gt;Node9</title>
<g id="a_edge9_Node000008_Node000009"><a xlink:title=" ">
<path fill="none" stroke="#63b8ff" d="M1082.14,-120.99C1052.75,-110.94 1003.69,-94.16 970.61,-82.84"/>
<polygon fill="#63b8ff" stroke="#63b8ff" points="971.49,-79.44 960.89,-79.52 969.22,-86.07 971.49,-79.44"/>
</a>
</g>
</g>
<!-- Node10 -->
<g id="Node000010" class="node">
<title>Node10</title>
<g id="a_Node000010"><a xlink:title=" ">
<polygon fill="#e0e0e0" stroke="#999999" points="1245.5,-19 1204.5,-19 1204.5,0 1245.5,0 1245.5,-19"/>
<text text-anchor="middle" x="1225" y="-7" font-family="Helvetica,sans-Serif" font-size="10.00">tuple</text>
</a>
</g>
</g>
<!-- Node8&#45;&gt;Node10 -->
<g id="edge10_Node000008_Node000010" class="edge">
<title>Node8&#45;&gt;Node10</title>
<g id="a_edge10_Node000008_Node000010"><a xlink:title=" ">
<path fill="none" stroke="#63b8ff" d="M1115.49,-120.94C1135.04,-101.23 1183.51,-52.34 1208.91,-26.73"/>
<polygon fill="#63b8ff" stroke="#63b8ff" points="1211.72,-28.87 1216.27,-19.3 1206.75,-23.94 1211.72,-28.87"/>
</a>
</g>
</g>
<!-- Node11 -->
<g id="Node000011" class="node">
<title>Node11</title>
<g id="a_Node000011"><a xlink:href="traits_8h.html" target="_top" xlink:title=" ">
<polygon fill="white" stroke="#666666" points="1323.5,-85 1210.5,-85 1210.5,-55 1323.5,-55 1323.5,-85"/>
<text text-anchor="start" x="1218.5" y="-73" font-family="Helvetica,sans-Serif" font-size="10.00">open62541pp/detail</text>
<text text-anchor="middle" x="1267" y="-62" font-family="Helvetica,sans-Serif" font-size="10.00">/traits.h</text>
</a>
</g>
</g>
<!-- Node8&#45;&gt;Node11 -->
<g id="edge11_Node000008_Node000011" class="edge">
<title>Node8&#45;&gt;Node11</title>
<g id="a_edge11_Node000008_Node000011"><a xlink:title=" ">
<path fill="none" stroke="#63b8ff" d="M1130.27,-120.99C1153.39,-112.54 1189.55,-99.32 1218.88,-88.59"/>
<polygon fill="#63b8ff" stroke="#63b8ff" points="1220.34,-91.79 1228.53,-85.06 1217.94,-85.21 1220.34,-91.79"/>
</a>
</g>
</g>
<!-- Node8&#45;&gt;Node13 -->
<g id="edge14_Node000008_Node000013" class="edge">
<title>Node8&#45;&gt;Node13</title>
<g id="a_edge14_Node000008_Node000013"><a xlink:title=" ">
<path fill="none" stroke="#63b8ff" d="M1037.16,-124.61C884.47,-113.93 521.36,-88.52 355.84,-76.94"/>
<polygon fill="#63b8ff" stroke="#63b8ff" points="355.93,-73.43 345.71,-76.23 355.44,-80.42 355.93,-73.43"/>
</a>
</g>
</g>
<!-- Node11&#45;&gt;Node10 -->
<g id="edge12_Node000011_Node000010" class="edge">
<title>Node11&#45;&gt;Node10</title>
<g id="a_edge12_Node000011_Node000010"><a xlink:title=" ">
<path fill="none" stroke="#63b8ff" d="M1256.83,-54.84C1250.92,-46.61 1243.44,-36.18 1237.21,-27.51"/>
<polygon fill="#63b8ff" stroke="#63b8ff" points="1239.97,-25.35 1231.29,-19.27 1234.28,-29.43 1239.97,-25.35"/>
</a>
</g>
</g>
<!-- Node12 -->
<g id="Node000012" class="node">
<title>Node12</title>
<g id="a_Node000012"><a xlink:title=" ">
<polygon fill="#e0e0e0" stroke="#999999" points="880.5,-19 811.5,-19 811.5,0 880.5,0 880.5,-19"/>
<text text-anchor="middle" x="846" y="-7" font-family="Helvetica,sans-Serif" font-size="10.00">type_traits</text>
</a>
</g>
</g>
<!-- Node11&#45;&gt;Node12 -->
<g id="edge13_Node000011_Node000012" class="edge">
<title>Node11&#45;&gt;Node12</title>
<g id="a_edge13_Node000011_Node000012"><a xlink:title=" ">
<path fill="none" stroke="#63b8ff" d="M1210.22,-61.11C1125.66,-49.36 968.31,-27.5 891.1,-16.77"/>
<polygon fill="#63b8ff" stroke="#63b8ff" points="891.14,-13.24 880.75,-15.33 890.18,-20.17 891.14,-13.24"/>
</a>
</g>
</g>
<!-- Node14 -->
<g id="Node000014" class="node">
<title>Node14</title>
<g id="a_Node000014"><a target="_blank" xlink:href="open62541/config_8h.html" xlink:title=" ">
<polygon fill="white" stroke="#666666" points="125,-19 13,-19 13,0 125,0 125,-19"/>
<text text-anchor="middle" x="69" y="-7" font-family="Helvetica,sans-Serif" font-size="10.00">open62541/config.h</text>
</a>
</g>
</g>
<!-- Node13&#45;&gt;Node14 -->
<g id="edge15_Node000013_Node000014" class="edge">
<title>Node13&#45;&gt;Node14</title>
<g id="a_edge15_Node000013_Node000014"><a xlink:title=" ">
<path fill="none" stroke="#63b8ff" d="M241.63,-60.49C206.4,-50.29 147.21,-33.15 108.13,-21.83"/>
<polygon fill="#63b8ff" stroke="#63b8ff" points="108.99,-18.44 98.41,-19.02 107.04,-25.16 108.99,-18.44"/>
</a>
</g>
</g>
<!-- Node15 -->
<g id="Node000015" class="node">
<title>Node15</title>
<g id="a_Node000015"><a target="_blank" xlink:href="open62541/nodeids_8h.html" xlink:title=" ">
<polygon fill="white" stroke="#666666" points="264.5,-19 143.5,-19 143.5,0 264.5,0 264.5,-19"/>
<text text-anchor="middle" x="204" y="-7" font-family="Helvetica,sans-Serif" font-size="10.00">open62541/nodeids.h</text>
</a>
</g>
</g>
<!-- Node13&#45;&gt;Node15 -->
<g id="edge16_Node000013_Node000015" class="edge">
<title>Node13&#45;&gt;Node15</title>
<g id="a_edge16_Node000013_Node000015"><a xlink:title=" ">
<path fill="none" stroke="#63b8ff" d="M261.11,-60.37C250.72,-51.3 234.16,-36.84 221.55,-25.82"/>
<polygon fill="#63b8ff" stroke="#63b8ff" points="223.76,-23.11 213.93,-19.17 219.16,-28.38 223.76,-23.11"/>
</a>
</g>
</g>
<!-- Node16 -->
<g id="Node000016" class="node">
<title>Node16</title>
<g id="a_Node000016"><a target="_blank" xlink:href="open62541/types_8h.html" xlink:title=" ">
<polygon fill="white" stroke="#666666" points="393,-19 283,-19 283,0 393,0 393,-19"/>
<text text-anchor="middle" x="338" y="-7" font-family="Helvetica,sans-Serif" font-size="10.00">open62541/types.h</text>
</a>
</g>
</g>
<!-- Node13&#45;&gt;Node16 -->
<g id="edge17_Node000013_Node000016" class="edge">
<title>Node13&#45;&gt;Node16</title>
<g id="a_edge17_Node000013_Node000016"><a xlink:title=" ">
<path fill="none" stroke="#63b8ff" d="M280.89,-60.37C291.28,-51.3 307.84,-36.84 320.45,-25.82"/>
<polygon fill="#63b8ff" stroke="#63b8ff" points="322.84,-28.38 328.07,-19.17 318.24,-23.11 322.84,-28.38"/>
</a>
</g>
</g>
<!-- Node17 -->
<g id="Node000017" class="node">
<title>Node17</title>
<g id="a_Node000017"><a target="_blank" xlink:href="open62541/types__generated_8h.html" xlink:title=" ">
<polygon fill="white" stroke="#666666" points="575,-19 411,-19 411,0 575,0 575,-19"/>
<text text-anchor="middle" x="493" y="-7" font-family="Helvetica,sans-Serif" font-size="10.00">open62541/types_generated.h</text>
</a>
</g>
</g>
<!-- Node13&#45;&gt;Node17 -->
<g id="edge18_Node000013_Node000017" class="edge">
<title>Node13&#45;&gt;Node17</title>
<g id="a_edge18_Node000013_Node000017"><a xlink:title=" ">
<path fill="none" stroke="#63b8ff" d="M303.28,-60.49C342.25,-50.23 407.88,-32.93 450.82,-21.62"/>
<polygon fill="#63b8ff" stroke="#63b8ff" points="451.9,-24.95 460.68,-19.02 450.12,-18.18 451.9,-24.95"/>
</a>
</g>
</g>
<!-- Node18&#45;&gt;Node12 -->
<g id="edge23_Node000018_Node000012" class="edge">
<title>Node18&#45;&gt;Node12</title>
<g id="a_edge23_Node000018_Node000012"><a xlink:title=" ">
<path fill="none" stroke="#63b8ff" d="M490.32,-181.27C500.82,-171.38 518.33,-154.73 533,-140 569.82,-103.02 568.19,-80 614,-55 673.2,-22.7 752.07,-13.53 800.91,-11.11"/>
<polygon fill="#63b8ff" stroke="#63b8ff" points="801.31,-14.6 811.16,-10.68 801.02,-7.6 801.31,-14.6"/>
</a>
</g>
</g>
<!-- Node18&#45;&gt;Node13 -->
<g id="edge24_Node000018_Node000013" class="edge">
<title>Node18&#45;&gt;Node13</title>
<g id="a_edge24_Node000018_Node000013"><a xlink:title=" ">
<path fill="none" stroke="#63b8ff" d="M457.6,-181.41C434.06,-172.38 397.04,-157.13 367,-140 338.52,-123.76 308.22,-100.93 289.44,-86.05"/>
<polygon fill="#63b8ff" stroke="#63b8ff" points="291.44,-83.16 281.45,-79.64 287.06,-88.62 291.44,-83.16"/>
</a>
</g>
</g>
<!-- Node19 -->
<g id="Node000019" class="node">
<title>Node19</title>
<g id="a_Node000019"><a xlink:title=" ">
<polygon fill="#e0e0e0" stroke="#999999" points="440.5,-140 375.5,-140 375.5,-121 440.5,-121 440.5,-140"/>
<text text-anchor="middle" x="408" y="-128" font-family="Helvetica,sans-Serif" font-size="10.00">functional</text>
</a>
</g>
</g>
<!-- Node18&#45;&gt;Node19 -->
<g id="edge20_Node000018_Node000019" class="edge">
<title>Node18&#45;&gt;Node19</title>
<g id="a_edge20_Node000018_Node000019"><a xlink:title=" ">
<path fill="none" stroke="#63b8ff" d="M470.23,-181.37C458.8,-172.21 440.52,-157.56 426.72,-146.51"/>
<polygon fill="#63b8ff" stroke="#63b8ff" points="428.81,-143.69 418.82,-140.17 424.43,-149.15 428.81,-143.69"/>
</a>
</g>
</g>
<!-- Node20 -->
<g id="Node000020" class="node">
<title>Node20</title>
<g id="a_Node000020"><a xlink:title=" ">
<polygon fill="#e0e0e0" stroke="#999999" points="523.5,-140 458.5,-140 458.5,-121 523.5,-121 523.5,-140"/>
<text text-anchor="middle" x="491" y="-128" font-family="Helvetica,sans-Serif" font-size="10.00">stdexcept</text>
</a>
</g>
</g>
<!-- Node18&#45;&gt;Node20 -->
<g id="edge21_Node000018_Node000020" class="edge">
<title>Node18&#45;&gt;Node20</title>
<g id="a_edge21_Node000018_Node000020"><a xlink:title=" ">
<path fill="none" stroke="#63b8ff" d="M482.48,-181.37C483.88,-173.16 486.04,-160.54 487.83,-150.05"/>
<polygon fill="#63b8ff" stroke="#63b8ff" points="491.28,-150.61 489.52,-140.17 484.38,-149.43 491.28,-150.61"/>
</a>
</g>
</g>
<!-- Node21 -->
<g id="Node000021" class="node">
<title>Node21</title>
<g id="a_Node000021"><a xlink:title=" ">
<polygon fill="#e0e0e0" stroke="#999999" points="835,-140 791,-140 791,-121 835,-121 835,-140"/>
<text text-anchor="middle" x="813" y="-128" font-family="Helvetica,sans-Serif" font-size="10.00">string</text>
</a>
</g>
</g>
<!-- Node18&#45;&gt;Node21 -->
<g id="edge22_Node000018_Node000021" class="edge">
<title>Node18&#45;&gt;Node21</title>
<g id="a_edge22_Node000018_Node000021"><a xlink:title=" ">
<path fill="none" stroke="#63b8ff" d="M529.28,-181.49C598.01,-169.38 722.24,-147.49 780.8,-137.17"/>
<polygon fill="#63b8ff" stroke="#63b8ff" points="781.7,-140.57 790.94,-135.39 780.49,-133.68 781.7,-140.57"/>
</a>
</g>
</g>
<!-- Node22&#45;&gt;Node4 -->
<g id="edge28_Node000022_Node000004" class="edge">
<title>Node22&#45;&gt;Node4</title>
<g id="a_edge28_Node000022_Node000004"><a xlink:title=" ">
<path fill="none" stroke="#63b8ff" d="M650.99,-363.76C514.76,-350.91 247.19,-325.66 149.67,-316.46"/>
<polygon fill="#63b8ff" stroke="#63b8ff" points="149.98,-312.97 139.7,-315.52 149.33,-319.94 149.98,-312.97"/>
</a>
</g>
</g>
<!-- Node22&#45;&gt;Node7 -->
<g id="edge32_Node000022_Node000007" class="edge">
<title>Node22&#45;&gt;Node7</title>
<g id="a_edge32_Node000022_Node000007"><a xlink:title=" ">
<path fill="none" stroke="#63b8ff" d="M650.84,-368.76C572.22,-364.55 450.87,-353.91 349,-327 347.06,-326.49 345.08,-325.88 343.11,-325.21"/>
<polygon fill="#63b8ff" stroke="#63b8ff" points="344.07,-321.83 333.48,-321.51 341.56,-328.37 344.07,-321.83"/>
</a>
</g>
</g>
<!-- Node22&#45;&gt;Node8 -->
<g id="edge33_Node000022_Node000008" class="edge">
<title>Node22&#45;&gt;Node8</title>
<g id="a_edge33_Node000022_Node000008"><a xlink:title=" ">
<path fill="none" stroke="#63b8ff" d="M815.33,-369.14C894.72,-365.22 1007.63,-354.79 1041,-327 1068.98,-303.7 1094.15,-194.11 1103.32,-149.98"/>
<polygon fill="#63b8ff" stroke="#63b8ff" points="1106.78,-150.54 1105.34,-140.04 1099.92,-149.14 1106.78,-150.54"/>
</a>
</g>
</g>
<!-- Node22&#45;&gt;Node9 -->
<g id="edge30_Node000022_Node000009" class="edge">
<title>Node22&#45;&gt;Node9</title>
<g id="a_edge30_Node000022_Node000009"><a xlink:title=" ">
<path fill="none" stroke="#63b8ff" d="M807.39,-362.91C830.88,-356.57 854.88,-345.68 871,-327 890.43,-304.49 879.55,-290.64 882,-261 887.13,-198.99 857.09,-178.02 882,-121 888.36,-106.45 901.28,-94.24 912.88,-85.53"/>
<polygon fill="#63b8ff" stroke="#63b8ff" points="915.2,-88.18 921.37,-79.57 911.18,-82.45 915.2,-88.18"/>
</a>
</g>
</g>
<!-- Node22&#45;&gt;Node11 -->
<g id="edge52_Node000022_Node000011" class="edge">
<title>Node22&#45;&gt;Node11</title>
<g id="a_edge52_Node000022_Node000011"><a xlink:title=" ">
<path fill="none" stroke="#63b8ff" d="M815.27,-370.04C965.06,-365.14 1267,-343.92 1267,-252.5 1267,-252.5 1267,-252.5 1267,-190 1267,-157.21 1267,-119.35 1267,-95.3"/>
<polygon fill="#63b8ff" stroke="#63b8ff" points="1270.5,-95.29 1267,-85.29 1263.5,-95.29 1270.5,-95.29"/>
</a>
</g>
</g>
<!-- Node22&#45;&gt;Node12 -->
<g id="edge31_Node000022_Node000012" class="edge">
<title>Node22&#45;&gt;Node12</title>
<g id="a_edge31_Node000022_Node000012"><a xlink:title=" ">
<path fill="none" stroke="#63b8ff" d="M815.34,-364.03C906.48,-355.19 1043.35,-340.04 1064,-327 1147.91,-274.02 1157.72,-235.12 1186,-140 1188.41,-131.91 1190.96,-127.83 1186,-121 1117.45,-26.64 966.34,-11.27 890.81,-9.77"/>
<polygon fill="#63b8ff" stroke="#63b8ff" points="890.72,-6.27 880.67,-9.64 890.63,-13.27 890.72,-6.27"/>
</a>
</g>
</g>
<!-- Node22&#45;&gt;Node13 -->
<g id="edge53_Node000022_Node000013" class="edge">
<title>Node22&#45;&gt;Node13</title>
<g id="a_edge53_Node000022_Node000013"><a xlink:title=" ">
<path fill="none" stroke="#63b8ff" d="M667.55,-362.93C632.89,-356.49 590.49,-345.49 556,-327 538.53,-317.64 540.63,-306.06 523,-297 480.14,-274.98 129.29,-243.48 99,-206 54.04,-150.37 168.44,-103.5 231.97,-82.63"/>
<polygon fill="#63b8ff" stroke="#63b8ff" points="233.25,-85.89 241.7,-79.5 231.11,-79.23 233.25,-85.89"/>
</a>
</g>
</g>
<!-- Node22&#45;&gt;Node18 -->
<g id="edge34_Node000022_Node000018" class="edge">
<title>Node22&#45;&gt;Node18</title>
<g id="a_edge34_Node000022_Node000018"><a xlink:title=" ">
<path fill="none" stroke="#63b8ff" d="M693.75,-362.94C665.06,-355.75 625.76,-343.9 594,-327 575,-316.89 574.88,-307.33 556,-297 513.09,-273.52 480.37,-300.84 452,-261 440.41,-244.72 453.21,-223.09 465.29,-208.42"/>
<polygon fill="#63b8ff" stroke="#63b8ff" points="468.12,-210.5 472.12,-200.68 462.88,-205.86 468.12,-210.5"/>
</a>
</g>
</g>
<!-- Node22&#45;&gt;Node21 -->
<g id="edge29_Node000022_Node000021" class="edge">
<title>Node22&#45;&gt;Node21</title>
<g id="a_edge29_Node000022_Node000021"><a xlink:title=" ">
<path fill="none" stroke="#63b8ff" d="M780.97,-362.93C803.77,-356.57 829.76,-345.64 847,-327 873.35,-298.51 875.74,-279.81 867,-242 858.82,-206.64 837.7,-169.52 824.43,-148.57"/>
<polygon fill="#63b8ff" stroke="#63b8ff" points="827.34,-146.63 818.95,-140.15 821.47,-150.44 827.34,-146.63"/>
</a>
</g>
</g>
<!-- Node23 -->
<g id="Node000023" class="node">
<title>Node23</title>
<g id="a_Node000023"><a xlink:title=" ">
<polygon fill="#e0e0e0" stroke="#999999" points="1032,-321.5 990,-321.5 990,-302.5 1032,-302.5 1032,-321.5"/>
<text text-anchor="middle" x="1011" y="-309.5" font-family="Helvetica,sans-Serif" font-size="10.00">array</text>
</a>
</g>
</g>
<!-- Node22&#45;&gt;Node23 -->
<g id="edge26_Node000022_Node000023" class="edge">
<title>Node22&#45;&gt;Node23</title>
<g id="a_edge26_Node000022_Node000023"><a xlink:title=" ">
<path fill="none" stroke="#63b8ff" d="M799.57,-362.96C848.88,-355.77 917.38,-343.91 976,-327 977.93,-326.44 979.91,-325.82 981.88,-325.15"/>
<polygon fill="#63b8ff" stroke="#63b8ff" points="983.45,-328.3 991.62,-321.55 981.03,-321.73 983.45,-328.3"/>
</a>
</g>
</g>
<!-- Node24 -->
<g id="Node000024" class="node">
<title>Node24</title>
<g id="a_Node000024"><a xlink:title=" ">
<polygon fill="#e0e0e0" stroke="#999999" points="858,-261 808,-261 808,-242 858,-242 858,-261"/>
<text text-anchor="middle" x="833" y="-249" font-family="Helvetica,sans-Serif" font-size="10.00">chrono</text>
</a>
</g>
</g>
<!-- Node22&#45;&gt;Node24 -->
<g id="edge27_Node000022_Node000024" class="edge">
<title>Node22&#45;&gt;Node24</title>
<g id="a_edge27_Node000022_Node000024"><a xlink:title=" ">
<path fill="none" stroke="#63b8ff" d="M774.04,-362.94C794.04,-356.53 816.43,-345.56 829,-327 840.09,-310.62 839.37,-287.26 836.99,-271.09"/>
<polygon fill="#63b8ff" stroke="#63b8ff" points="840.42,-270.42 835.19,-261.21 833.54,-271.67 840.42,-270.42"/>
</a>
</g>
</g>
<!-- Node22&#45;&gt;Node25 -->
<g id="edge35_Node000022_Node000025" class="edge">
<title>Node22&#45;&gt;Node25</title>
<g id="a_edge35_Node000022_Node000025"><a xlink:title=" ">
<path fill="none" stroke="#63b8ff" d="M711.2,-362.85C691.5,-354.67 662,-341.52 638,-327 608.19,-308.97 576.6,-283.69 557.59,-267.7"/>
<polygon fill="#63b8ff" stroke="#63b8ff" points="559.68,-264.89 549.79,-261.07 555.15,-270.22 559.68,-264.89"/>
</a>
</g>
</g>
<!-- Node22&#45;&gt;Node26 -->
<g id="edge51_Node000022_Node000026" class="edge">
<title>Node22&#45;&gt;Node26</title>
<g id="a_edge51_Node000022_Node000026"><a xlink:title=" ">
<path fill="none" stroke="#63b8ff" d="M809.85,-362.98C859.92,-355.93 919.29,-344.25 938,-327 969.11,-298.31 976.91,-246.85 978.68,-216.43"/>
<polygon fill="#63b8ff" stroke="#63b8ff" points="982.19,-216.39 979.1,-206.25 975.19,-216.1 982.19,-216.39"/>
</a>
</g>
</g>
<!-- Node28 -->
<g id="Node000028" class="node">
<title>Node28</title>
<g id="a_Node000028"><a xlink:href="DateTime_8h.html" target="_top" xlink:title=" ">
<polygon fill="white" stroke="#666666" points="819.5,-321.5 646.5,-321.5 646.5,-302.5 819.5,-302.5 819.5,-321.5"/>
<text text-anchor="middle" x="733" y="-309.5" font-family="Helvetica,sans-Serif" font-size="10.00">open62541pp/types/DateTime.h</text>
</a>
</g>
</g>
<!-- Node22&#45;&gt;Node28 -->
<g id="edge54_Node000022_Node000028" class="edge">
<title>Node22&#45;&gt;Node28</title>
<g id="a_edge54_Node000022_Node000028"><a xlink:title=" ">
<path fill="none" stroke="#63b8ff" d="M733,-362.87C733,-354.75 733,-342.31 733,-331.89"/>
<polygon fill="#63b8ff" stroke="#63b8ff" points="736.5,-331.67 733,-321.67 729.5,-331.67 736.5,-331.67"/>
</a>
</g>
</g>
<!-- Node30 -->
<g id="Node000030" class="node">
<title>Node30</title>
<g id="a_Node000030"><a xlink:href="TypeConverterNative_8h.html" target="_top" xlink:title=" ">
<polygon fill="white" stroke="#666666" points="514,-327 358,-327 358,-297 514,-297 514,-327"/>
<text text-anchor="start" x="366" y="-315" font-family="Helvetica,sans-Serif" font-size="10.00">open62541pp/TypeConverter</text>
<text text-anchor="middle" x="436" y="-304" font-family="Helvetica,sans-Serif" font-size="10.00">Native.h</text>
</a>
</g>
</g>
<!-- Node22&#45;&gt;Node30 -->
<g id="edge62_Node000022_Node000030" class="edge">
<title>Node22&#45;&gt;Node30</title>
<g id="a_edge62_Node000022_Node000030"><a xlink:title=" ">
<path fill="none" stroke="#63b8ff" d="M684.89,-362.99C637.88,-354.12 565.79,-339.99 511.23,-329.02"/>
<polygon fill="#63b8ff" stroke="#63b8ff" points="511.75,-325.55 501.26,-327.01 510.37,-332.42 511.75,-325.55"/>
</a>
</g>
</g>
<!-- Node25&#45;&gt;Node2 -->
<g id="edge36_Node000025_Node000002" class="edge">
<title>Node25&#45;&gt;Node2</title>
<g id="a_edge36_Node000025_Node000002"><a xlink:title=" ">
<path fill="none" stroke="#63b8ff" d="M567.11,-241.94C633.71,-220.92 805.36,-166.74 880.67,-142.97"/>
<polygon fill="#63b8ff" stroke="#63b8ff" points="882.15,-146.17 890.64,-139.82 880.05,-139.49 882.15,-146.17"/>
</a>
</g>
</g>
<!-- Node25&#45;&gt;Node3 -->
<g id="edge37_Node000025_Node000003" class="edge">
<title>Node25&#45;&gt;Node3</title>
<g id="a_edge37_Node000025_Node000003"><a xlink:title=" ">
<path fill="none" stroke="#63b8ff" d="M577.23,-242C598.66,-235.39 624.69,-224.2 642,-206 673.41,-172.97 685.93,-118.7 690.55,-90.07"/>
<polygon fill="#63b8ff" stroke="#63b8ff" points="694.07,-90.21 692.04,-79.81 687.14,-89.21 694.07,-90.21"/>
</a>
</g>
</g>
<!-- Node25&#45;&gt;Node6 -->
<g id="edge39_Node000025_Node000006" class="edge">
<title>Node25&#45;&gt;Node6</title>
<g id="a_edge39_Node000025_Node000006"><a xlink:title=" ">
<path fill="none" stroke="#63b8ff" d="M463.71,-241.96C394.87,-233.91 290.89,-220.87 201,-206 188.71,-203.97 175.27,-201.37 163.49,-198.97"/>
<polygon fill="#63b8ff" stroke="#63b8ff" points="164.13,-195.53 153.63,-196.92 162.71,-202.38 164.13,-195.53"/>
</a>
</g>
</g>
<!-- Node25&#45;&gt;Node8 -->
<g id="edge40_Node000025_Node000008" class="edge">
<title>Node25&#45;&gt;Node8</title>
<g id="a_edge40_Node000025_Node000008"><a xlink:title=" ">
<path fill="none" stroke="#63b8ff" d="M619.15,-242.82C622.14,-242.54 625.1,-242.27 628,-242 720.62,-233.53 962.56,-249.07 1045,-206 1069.16,-193.38 1087.57,-166.9 1097.83,-149.15"/>
<polygon fill="#63b8ff" stroke="#63b8ff" points="1100.93,-150.78 1102.68,-140.34 1094.8,-147.41 1100.93,-150.78"/>
</a>
</g>
</g>
<!-- Node25&#45;&gt;Node12 -->
<g id="edge38_Node000025_Node000012" class="edge">
<title>Node25&#45;&gt;Node12</title>
<g id="a_edge38_Node000025_Node000012"><a xlink:title=" ">
<path fill="none" stroke="#63b8ff" d="M546.39,-241.78C552.81,-232.91 562.9,-218.7 571,-206 612.79,-140.52 596.62,-101.29 659,-55 700.54,-24.18 760.34,-14.36 801.05,-11.42"/>
<polygon fill="#63b8ff" stroke="#63b8ff" points="801.45,-14.9 811.22,-10.8 801.03,-7.92 801.45,-14.9"/>
</a>
</g>
</g>
<!-- Node25&#45;&gt;Node13 -->
<g id="edge48_Node000025_Node000013" class="edge">
<title>Node25&#45;&gt;Node13</title>
<g id="a_edge48_Node000025_Node000013"><a xlink:title=" ">
<path fill="none" stroke="#63b8ff" d="M487.39,-241.99C457.7,-235.46 420.87,-224.35 392,-206 342.36,-174.46 300.71,-117.03 281.84,-88.31"/>
<polygon fill="#63b8ff" stroke="#63b8ff" points="284.69,-86.27 276.34,-79.76 278.81,-90.06 284.69,-86.27"/>
</a>
</g>
</g>
<!-- Node25&#45;&gt;Node18 -->
<g id="edge41_Node000025_Node000018" class="edge">
<title>Node25&#45;&gt;Node18</title>
<g id="a_edge41_Node000025_Node000018"><a xlink:title=" ">
<path fill="none" stroke="#63b8ff" d="M531.29,-241.87C522.32,-232.97 508.12,-218.89 497.09,-207.95"/>
<polygon fill="#63b8ff" stroke="#63b8ff" points="499.31,-205.22 489.74,-200.67 494.38,-210.19 499.31,-205.22"/>
</a>
</g>
</g>
<!-- Node25&#45;&gt;Node26 -->
<g id="edge42_Node000025_Node000026" class="edge">
<title>Node25&#45;&gt;Node26</title>
<g id="a_edge42_Node000025_Node000026"><a xlink:title=" ">
<path fill="none" stroke="#63b8ff" d="M603.83,-241.99C686.13,-231.03 828.57,-212.05 912.26,-200.89"/>
<polygon fill="#63b8ff" stroke="#63b8ff" points="912.96,-204.33 922.41,-199.54 912.04,-197.39 912.96,-204.33"/>
</a>
</g>
</g>
<!-- Node27 -->
<g id="Node000027" class="node">
<title>Node27</title>
<g id="a_Node000027"><a xlink:href="comparison_8h.html" target="_top" xlink:title=" ">
<polygon fill="white" stroke="#666666" points="344,-206 210,-206 210,-176 344,-176 344,-206"/>
<text text-anchor="start" x="218" y="-194" font-family="Helvetica,sans-Serif" font-size="10.00">open62541pp/overloads</text>
<text text-anchor="middle" x="277" y="-183" font-family="Helvetica,sans-Serif" font-size="10.00">/comparison.h</text>
</a>
</g>
</g>
<!-- Node25&#45;&gt;Node27 -->
<g id="edge49_Node000025_Node000027" class="edge">
<title>Node25&#45;&gt;Node27</title>
<g id="a_edge49_Node000025_Node000027"><a xlink:title=" ">
<path fill="none" stroke="#63b8ff" d="M501.76,-241.99C462.11,-233.17 399.15,-219.17 349.94,-208.22"/>
<polygon fill="#63b8ff" stroke="#63b8ff" points="350.5,-204.76 339.97,-206.01 348.98,-211.6 350.5,-204.76"/>
</a>
</g>
</g>
<!-- Node26&#45;&gt;Node2 -->
<g id="edge43_Node000026_Node000002" class="edge">
<title>Node26&#45;&gt;Node2</title>
<g id="a_edge43_Node000026_Node000002"><a xlink:title=" ">
<path fill="none" stroke="#63b8ff" d="M963.99,-175.84C954.81,-167.17 943.05,-156.08 933.59,-147.15"/>
<polygon fill="#63b8ff" stroke="#63b8ff" points="935.97,-144.58 926.29,-140.27 931.16,-149.67 935.97,-144.58"/>
</a>
</g>
</g>
<!-- Node26&#45;&gt;Node8 -->
<g id="edge46_Node000026_Node000008" class="edge">
<title>Node26&#45;&gt;Node8</title>
<g id="a_edge46_Node000026_Node000008"><a xlink:title=" ">
<path fill="none" stroke="#63b8ff" d="M1009.66,-175.99C1030.73,-166.36 1058.49,-153.67 1078.97,-144.31"/>
<polygon fill="#63b8ff" stroke="#63b8ff" points="1080.46,-147.48 1088.1,-140.14 1077.55,-141.11 1080.46,-147.48"/>
</a>
</g>
</g>
<!-- Node26&#45;&gt;Node9 -->
<g id="edge45_Node000026_Node000009" class="edge">
<title>Node26&#45;&gt;Node9</title>
<g id="a_edge45_Node000026_Node000009"><a xlink:title=" ">
<path fill="none" stroke="#63b8ff" d="M983.89,-175.95C988.06,-161.59 992.32,-138.92 985,-121 979.27,-106.97 967.5,-94.75 956.93,-85.9"/>
<polygon fill="#63b8ff" stroke="#63b8ff" points="958.88,-82.98 948.85,-79.56 954.56,-88.48 958.88,-82.98"/>
</a>
</g>
</g>
<!-- Node26&#45;&gt;Node13 -->
<g id="edge47_Node000026_Node000013" class="edge">
<title>Node26&#45;&gt;Node13</title>
<g id="a_edge47_Node000026_Node000013"><a xlink:title=" ">
<path fill="none" stroke="#63b8ff" d="M977.83,-175.98C975.66,-159.84 969.49,-133.91 952,-121 928.36,-103.56 532.82,-83.14 355.65,-74.82"/>
<polygon fill="#63b8ff" stroke="#63b8ff" points="355.74,-71.32 345.59,-74.35 355.41,-78.31 355.74,-71.32"/>
</a>
</g>
</g>
<!-- Node26&#45;&gt;Node21 -->
<g id="edge44_Node000026_Node000021" class="edge">
<title>Node26&#45;&gt;Node21</title>
<g id="a_edge44_Node000026_Node000021"><a xlink:title=" ">
<path fill="none" stroke="#63b8ff" d="M939.24,-175.99C910.32,-165.8 871.69,-152.18 844.81,-142.71"/>
<polygon fill="#63b8ff" stroke="#63b8ff" points="845.72,-139.32 835.13,-139.3 843.39,-145.92 845.72,-139.32"/>
</a>
</g>
</g>
<!-- Node27&#45;&gt;Node13 -->
<g id="edge50_Node000027_Node000013" class="edge">
<title>Node27&#45;&gt;Node13</title>
<g id="a_edge50_Node000027_Node000013"><a xlink:title=" ">
<path fill="none" stroke="#63b8ff" d="M276.29,-175.88C275.21,-154.51 273.16,-113.89 271.96,-89.96"/>
<polygon fill="#63b8ff" stroke="#63b8ff" points="275.44,-89.52 271.44,-79.71 268.45,-89.87 275.44,-89.52"/>
</a>
</g>
</g>
<!-- Node28&#45;&gt;Node3 -->
<g id="edge56_Node000028_Node000003" class="edge">
<title>Node28&#45;&gt;Node3</title>
<g id="a_edge56_Node000028_Node000003"><a xlink:title=" ">
<path fill="none" stroke="#63b8ff" d="M731.58,-302.46C725.83,-267.98 704.26,-138.58 696.13,-89.78"/>
<polygon fill="#63b8ff" stroke="#63b8ff" points="699.54,-88.98 694.45,-79.69 692.64,-90.13 699.54,-88.98"/>
</a>
</g>
</g>
<!-- Node28&#45;&gt;Node9 -->
<g id="edge59_Node000028_Node000009" class="edge">
<title>Node28&#45;&gt;Node9</title>
<g id="a_edge59_Node000028_Node000009"><a xlink:title=" ">
<path fill="none" stroke="#63b8ff" d="M732.52,-302.46C731.36,-273.02 731.6,-174.61 782,-121 809.66,-91.58 854.76,-79.44 889.03,-74.44"/>
<polygon fill="#63b8ff" stroke="#63b8ff" points="889.82,-77.87 899.28,-73.11 888.91,-70.93 889.82,-77.87"/>
</a>
</g>
</g>
<!-- Node28&#45;&gt;Node13 -->
<g id="edge61_Node000028_Node000013" class="edge">
<title>Node28&#45;&gt;Node13</title>
<g id="a_edge61_Node000028_Node000013"><a xlink:title=" ">
<path fill="none" stroke="#63b8ff" d="M665.1,-302.49C528.3,-284.67 230.01,-242.06 201,-206 169.84,-167.27 222.39,-112.48 252.36,-86.21"/>
<polygon fill="#63b8ff" stroke="#63b8ff" points="254.79,-88.74 260.13,-79.59 250.25,-83.41 254.79,-88.74"/>
</a>
</g>
</g>
<!-- Node28&#45;&gt;Node21 -->
<g id="edge58_Node000028_Node000021" class="edge">
<title>Node28&#45;&gt;Node21</title>
<g id="a_edge58_Node000028_Node000021"><a xlink:title=" ">
<path fill="none" stroke="#63b8ff" d="M739.09,-302.44C751.19,-285.06 778.45,-244.05 794,-206 801.49,-187.69 806.67,-165.61 809.71,-150.26"/>
<polygon fill="#63b8ff" stroke="#63b8ff" points="813.23,-150.48 811.62,-140.01 806.35,-149.2 813.23,-150.48"/>
</a>
</g>
</g>
<!-- Node28&#45;&gt;Node24 -->
<g id="edge55_Node000028_Node000024" class="edge">
<title>Node28&#45;&gt;Node24</title>
<g id="a_edge55_Node000028_Node000024"><a xlink:title=" ">
<path fill="none" stroke="#63b8ff" d="M747.76,-302.37C764,-292.86 790.35,-277.45 809.46,-266.27"/>
<polygon fill="#63b8ff" stroke="#63b8ff" points="811.32,-269.24 818.18,-261.17 807.79,-263.2 811.32,-269.24"/>
</a>
</g>
</g>
<!-- Node28&#45;&gt;Node25 -->
<g id="edge60_Node000028_Node000025" class="edge">
<title>Node28&#45;&gt;Node25</title>
<g id="a_edge60_Node000028_Node000025"><a xlink:title=" ">
<path fill="none" stroke="#63b8ff" d="M704.94,-302.49C671.49,-292.36 615.44,-275.37 578.1,-264.05"/>
<polygon fill="#63b8ff" stroke="#63b8ff" points="578.68,-260.57 568.1,-261.02 576.65,-267.27 578.68,-260.57"/>
</a>
</g>
</g>
<!-- Node29 -->
<g id="Node000029" class="node">
<title>Node29</title>
<g id="a_Node000029"><a xlink:title=" ">
<polygon fill="#e0e0e0" stroke="#999999" points="675.5,-261 636.5,-261 636.5,-242 675.5,-242 675.5,-261"/>
<text text-anchor="middle" x="656" y="-249" font-family="Helvetica,sans-Serif" font-size="10.00">ratio</text>
</a>
</g>
</g>
<!-- Node28&#45;&gt;Node29 -->
<g id="edge57_Node000028_Node000029" class="edge">
<title>Node28&#45;&gt;Node29</title>
<g id="a_edge57_Node000028_Node000029"><a xlink:title=" ">
<path fill="none" stroke="#63b8ff" d="M721.64,-302.37C709.58,-293.21 690.3,-278.56 675.75,-267.51"/>
<polygon fill="#63b8ff" stroke="#63b8ff" points="677.49,-264.43 667.41,-261.17 673.25,-270 677.49,-264.43"/>
</a>
</g>
</g>
<!-- Node30&#45;&gt;Node13 -->
<g id="edge64_Node000030_Node000013" class="edge">
<title>Node30&#45;&gt;Node13</title>
<g id="a_edge64_Node000030_Node000013"><a xlink:title=" ">
<path fill="none" stroke="#63b8ff" d="M370.7,-296.94C269.55,-274.51 84.61,-230.65 66,-206 43.24,-175.85 42.67,-150.71 66,-121 81.19,-101.66 136.83,-88.85 186.31,-81.05"/>
<polygon fill="#63b8ff" stroke="#63b8ff" points="187.07,-84.47 196.43,-79.51 186.02,-77.55 187.07,-84.47"/>
</a>
</g>
</g>
<!-- Node30&#45;&gt;Node22 -->
<g id="edge63_Node000030_Node000022" class="edge">
<title>Node30&#45;&gt;Node22</title>
<g id="a_edge63_Node000030_Node000022"><a xlink:title=" ">
<path fill="none" stroke="#63b8ff" d="M512.97,-327.01C567.33,-337.45 638.42,-351.49 684.92,-360.98"/>
<polygon fill="#63b8ff" stroke="#63b8ff" points="684.24,-364.41 694.74,-362.99 685.65,-357.56 684.24,-364.41"/>
</a>
</g>
</g>
</g>
</svg>
