<?xml version="1.0" encoding="UTF-8" standalone="no"?>
<!DOCTYPE svg PUBLIC "-//W3C//DTD SVG 1.1//EN"
 "http://www.w3.org/Graphics/SVG/1.1/DTD/svg11.dtd">
<!-- Generated by graphviz version 2.43.0 (0)
 -->
<!-- Title: /home/runner/work/open62541pp/open62541pp/build/doc/open62541/include/open62541/plugin/accesscontrol.h Pages: 1 -->
<svg width="359pt" height="453pt"
 viewBox="0.00 0.00 358.50 453.00" xmlns="http://www.w3.org/2000/svg" xmlns:xlink="http://www.w3.org/1999/xlink">
<g id="graph0" class="graph" transform="scale(1 1) rotate(0) translate(4 449)">
<title>/home/runner/work/open62541pp/open62541pp/build/doc/open62541/include/open62541/plugin/accesscontrol.h</title>
<!-- Node1 -->
<g id="node1" class="node">
<title>Node1</title>
<g id="a_node1"><a xlink:title=" ">
<polygon fill="#bfbfbf" stroke="black" points="0,-403.5 0,-444.5 224,-444.5 224,-403.5 0,-403.5"/>
<text text-anchor="start" x="8" y="-432.5" font-family="Helvetica,sans-Serif" font-size="10.00">/home/runner/work/open62541pp</text>
<text text-anchor="start" x="8" y="-421.5" font-family="Helvetica,sans-Serif" font-size="10.00">/open62541pp/build/doc/open62541</text>
<text text-anchor="middle" x="112" y="-410.5" font-family="Helvetica,sans-Serif" font-size="10.00">/include/open62541/plugin/accesscontrol.h</text>
</a>
</g>
</g>
<!-- Node2 -->
<g id="node2" class="node">
<title>Node2</title>
<g id="a_node2"><a xlink:href="util_8h.html" target="_top" xlink:title=" ">
<polygon fill="none" stroke="black" points="63,-347.5 63,-366.5 161,-366.5 161,-347.5 63,-347.5"/>
<text text-anchor="middle" x="112" y="-354.5" font-family="Helvetica,sans-Serif" font-size="10.00">open62541/util.h</text>
</a>
</g>
</g>
<!-- Node1&#45;&gt;Node2 -->
<g id="edge1" class="edge">
<title>Node1&#45;&gt;Node2</title>
<path fill="none" stroke="midnightblue" d="M112,-403.5C112,-395.07 112,-385.24 112,-376.87"/>
<polygon fill="midnightblue" stroke="midnightblue" points="115.5,-376.65 112,-366.65 108.5,-376.65 115.5,-376.65"/>
</g>
<!-- Node3 -->
<g id="node3" class="node">
<title>Node3</title>
<g id="a_node3"><a xlink:href="types_8h.html" target="_top" xlink:title=" ">
<polygon fill="none" stroke="black" points="74,-168.5 74,-187.5 184,-187.5 184,-168.5 74,-168.5"/>
<text text-anchor="middle" x="129" y="-175.5" font-family="Helvetica,sans-Serif" font-size="10.00">open62541/types.h</text>
</a>
</g>
</g>
<!-- Node2&#45;&gt;Node3 -->
<g id="edge2" class="edge">
<title>Node2&#45;&gt;Node3</title>
<path fill="none" stroke="midnightblue" d="M108.03,-347.39C98.71,-325.93 77.37,-268.57 93,-224 96.79,-213.21 104.37,-203.08 111.6,-195.18"/>
<polygon fill="midnightblue" stroke="midnightblue" points="114.33,-197.4 118.84,-187.81 109.33,-192.49 114.33,-197.4"/>
</g>
<!-- Node8 -->
<g id="node8" class="node">
<title>Node8</title>
<g id="a_node8"><a xlink:href="types__generated_8h.html" target="_top" xlink:title=" ">
<polygon fill="none" stroke="black" points="102,-224.5 102,-243.5 266,-243.5 266,-224.5 102,-224.5"/>
<text text-anchor="middle" x="184" y="-231.5" font-family="Helvetica,sans-Serif" font-size="10.00">open62541/types_generated.h</text>
</a>
</g>
</g>
<!-- Node2&#45;&gt;Node8 -->
<g id="edge8" class="edge">
<title>Node2&#45;&gt;Node8</title>
<path fill="none" stroke="midnightblue" d="M112.61,-347.37C114.01,-332.55 118.43,-301.77 132,-280 139.5,-267.97 151.23,-257.42 161.65,-249.56"/>
<polygon fill="midnightblue" stroke="midnightblue" points="163.87,-252.28 169.98,-243.62 159.81,-246.58 163.87,-252.28"/>
</g>
<!-- Node9 -->
<g id="node9" class="node">
<title>Node9</title>
<g id="a_node9"><a xlink:href="types__generated__handling_8h.html" target="_top" xlink:title=" ">
<polygon fill="none" stroke="black" points="140.5,-280.5 140.5,-310.5 295.5,-310.5 295.5,-280.5 140.5,-280.5"/>
<text text-anchor="start" x="148.5" y="-298.5" font-family="Helvetica,sans-Serif" font-size="10.00">open62541/types_generated</text>
<text text-anchor="middle" x="218" y="-287.5" font-family="Helvetica,sans-Serif" font-size="10.00">_handling.h</text>
</a>
</g>
</g>
<!-- Node2&#45;&gt;Node9 -->
<g id="edge10" class="edge">
<title>Node2&#45;&gt;Node9</title>
<path fill="none" stroke="midnightblue" d="M127.19,-347.48C142.01,-339.15 165.08,-326.21 184.25,-315.45"/>
<polygon fill="midnightblue" stroke="midnightblue" points="186.01,-318.47 193.02,-310.52 182.58,-312.37 186.01,-318.47"/>
</g>
<!-- Node4 -->
<g id="node4" class="node">
<title>Node4</title>
<g id="a_node4"><a xlink:href="config_8h.html" target="_top" xlink:title=" ">
<polygon fill="none" stroke="black" points="27,-56.5 27,-75.5 139,-75.5 139,-56.5 27,-56.5"/>
<text text-anchor="middle" x="83" y="-63.5" font-family="Helvetica,sans-Serif" font-size="10.00">open62541/config.h</text>
</a>
</g>
</g>
<!-- Node3&#45;&gt;Node4 -->
<g id="edge3" class="edge">
<title>Node3&#45;&gt;Node4</title>
<path fill="none" stroke="midnightblue" d="M103.84,-168.38C87.58,-161.34 67.71,-149.65 58,-132 49.39,-116.36 59.03,-97.14 68.73,-83.67"/>
<polygon fill="midnightblue" stroke="midnightblue" points="71.53,-85.78 74.92,-75.74 66.01,-81.47 71.53,-85.78"/>
</g>
<!-- Node6 -->
<g id="node6" class="node">
<title>Node6</title>
<g id="a_node6"><a xlink:href="common_8h.html" target="_top" xlink:title=" ">
<polygon fill="none" stroke="black" points="66.5,-112.5 66.5,-131.5 191.5,-131.5 191.5,-112.5 66.5,-112.5"/>
<text text-anchor="middle" x="129" y="-119.5" font-family="Helvetica,sans-Serif" font-size="10.00">open62541/common.h</text>
</a>
</g>
</g>
<!-- Node3&#45;&gt;Node6 -->
<g id="edge5" class="edge">
<title>Node3&#45;&gt;Node6</title>
<path fill="none" stroke="midnightblue" d="M129,-168.08C129,-161.01 129,-150.86 129,-141.99"/>
<polygon fill="midnightblue" stroke="midnightblue" points="132.5,-141.75 129,-131.75 125.5,-141.75 132.5,-141.75"/>
</g>
<!-- Node7 -->
<g id="node7" class="node">
<title>Node7</title>
<g id="a_node7"><a xlink:href="statuscodes_8h.html" target="_top" xlink:title=" ">
<polygon fill="none" stroke="black" points="209.5,-112.5 209.5,-131.5 350.5,-131.5 350.5,-112.5 209.5,-112.5"/>
<text text-anchor="middle" x="280" y="-119.5" font-family="Helvetica,sans-Serif" font-size="10.00">open62541/statuscodes.h</text>
</a>
</g>
</g>
<!-- Node3&#45;&gt;Node7 -->
<g id="edge7" class="edge">
<title>Node3&#45;&gt;Node7</title>
<path fill="none" stroke="midnightblue" d="M152.93,-168.44C178.22,-159.4 218.3,-145.06 246.68,-134.92"/>
<polygon fill="midnightblue" stroke="midnightblue" points="247.95,-138.18 256.19,-131.52 245.59,-131.59 247.95,-138.18"/>
</g>
<!-- Node5 -->
<g id="node5" class="node">
<title>Node5</title>
<g id="a_node5"><a xlink:href="posix_2ua__architecture_8h.html" target="_top" xlink:title=" ">
<polygon fill="none" stroke="black" points="17.5,-0.5 17.5,-19.5 148.5,-19.5 148.5,-0.5 17.5,-0.5"/>
<text text-anchor="middle" x="83" y="-7.5" font-family="Helvetica,sans-Serif" font-size="10.00">posix/ua_architecture.h</text>
</a>
</g>
</g>
<!-- Node4&#45;&gt;Node5 -->
<g id="edge4" class="edge">
<title>Node4&#45;&gt;Node5</title>
<path fill="none" stroke="midnightblue" d="M83,-56.08C83,-49.01 83,-38.86 83,-29.99"/>
<polygon fill="midnightblue" stroke="midnightblue" points="86.5,-29.75 83,-19.75 79.5,-29.75 86.5,-29.75"/>
</g>
<!-- Node6&#45;&gt;Node4 -->
<g id="edge6" class="edge">
<title>Node6&#45;&gt;Node4</title>
<path fill="none" stroke="midnightblue" d="M121.4,-112.08C114.77,-104.3 104.98,-92.8 96.94,-83.37"/>
<polygon fill="midnightblue" stroke="midnightblue" points="99.6,-81.09 90.45,-75.75 94.27,-85.63 99.6,-81.09"/>
</g>
<!-- Node8&#45;&gt;Node3 -->
<g id="edge9" class="edge">
<title>Node8&#45;&gt;Node3</title>
<path fill="none" stroke="midnightblue" d="M174.92,-224.08C166.83,-216.14 154.8,-204.34 145.09,-194.8"/>
<polygon fill="midnightblue" stroke="midnightblue" points="147.5,-192.26 137.91,-187.75 142.6,-197.25 147.5,-192.26"/>
</g>
<!-- Node9&#45;&gt;Node8 -->
<g id="edge11" class="edge">
<title>Node9&#45;&gt;Node8</title>
<path fill="none" stroke="midnightblue" d="M209.94,-280.4C205.15,-272.02 199.04,-261.33 193.96,-252.42"/>
<polygon fill="midnightblue" stroke="midnightblue" points="196.95,-250.6 188.95,-243.66 190.87,-254.08 196.95,-250.6"/>
</g>
</g>
</svg>
