<?xml version="1.0" encoding="UTF-8" standalone="no"?>
<!DOCTYPE svg PUBLIC "-//W3C//DTD SVG 1.1//EN"
 "http://www.w3.org/Graphics/SVG/1.1/DTD/svg11.dtd">
<!-- Generated by graphviz version 2.43.0 (0)
 -->
<!-- Title: /home/runner/work/open62541pp/open62541pp/build/doc/open62541/include/open62541/client.h Pages: 1 -->
<svg width="1365pt" height="217pt"
 viewBox="0.00 0.00 1364.50 217.00" xmlns="http://www.w3.org/2000/svg" xmlns:xlink="http://www.w3.org/1999/xlink">
<g id="graph0" class="graph" transform="scale(1 1) rotate(0) translate(4 213)">
<title>/home/runner/work/open62541pp/open62541pp/build/doc/open62541/include/open62541/client.h</title>
<!-- Node1 -->
<g id="node1" class="node">
<title>Node1</title>
<g id="a_node1"><a xlink:title=" ">
<polygon fill="#bfbfbf" stroke="black" points="526.5,-167.5 526.5,-208.5 716.5,-208.5 716.5,-167.5 526.5,-167.5"/>
<text text-anchor="start" x="534.5" y="-196.5" font-family="Helvetica,sans-Serif" font-size="10.00">/home/runner/work/open62541pp</text>
<text text-anchor="start" x="534.5" y="-185.5" font-family="Helvetica,sans-Serif" font-size="10.00">/open62541pp/build/doc/open62541</text>
<text text-anchor="middle" x="621.5" y="-174.5" font-family="Helvetica,sans-Serif" font-size="10.00">/include/open62541/client.h</text>
</a>
</g>
</g>
<!-- Node2 -->
<g id="node2" class="node">
<title>Node2</title>
<g id="a_node2"><a xlink:href="client__highlevel_8h.html" target="_top" xlink:title=" ">
<polygon fill="none" stroke="black" points="0,-84 0,-125 201,-125 201,-84 0,-84"/>
<text text-anchor="start" x="8" y="-113" font-family="Helvetica,sans-Serif" font-size="10.00">/home/runner/work/open62541pp</text>
<text text-anchor="start" x="8" y="-102" font-family="Helvetica,sans-Serif" font-size="10.00">/open62541pp/build/doc/open62541</text>
<text text-anchor="middle" x="100.5" y="-91" font-family="Helvetica,sans-Serif" font-size="10.00">/include/open62541/client_highlevel.h</text>
</a>
</g>
</g>
<!-- Node1&#45;&gt;Node2 -->
<g id="edge1" class="edge">
<title>Node1&#45;&gt;Node2</title>
<path fill="none" stroke="midnightblue" d="M516.31,-174.87C434.13,-164.82 317.18,-149.26 215.5,-131 205.54,-129.21 195.13,-127.16 184.81,-125.02"/>
<polygon fill="midnightblue" stroke="midnightblue" points="516.06,-178.36 526.41,-176.1 516.9,-171.41 516.06,-178.36"/>
</g>
<!-- Node3 -->
<g id="node3" class="node">
<title>Node3</title>
<g id="a_node3"><a xlink:href="ua__client__internal_8h.html" target="_top" xlink:title=" ">
<polygon fill="none" stroke="black" points="134.5,-0.5 134.5,-41.5 324.5,-41.5 324.5,-0.5 134.5,-0.5"/>
<text text-anchor="start" x="142.5" y="-29.5" font-family="Helvetica,sans-Serif" font-size="10.00">/home/runner/work/open62541pp</text>
<text text-anchor="start" x="142.5" y="-18.5" font-family="Helvetica,sans-Serif" font-size="10.00">/open62541pp/build/doc/open62541</text>
<text text-anchor="middle" x="229.5" y="-7.5" font-family="Helvetica,sans-Serif" font-size="10.00">/src/client/ua_client_internal.h</text>
</a>
</g>
</g>
<!-- Node1&#45;&gt;Node3 -->
<g id="edge9" class="edge">
<title>Node1&#45;&gt;Node3</title>
<path fill="none" stroke="midnightblue" d="M516.27,-184.46C419.84,-179.84 286.6,-166.93 249.5,-131 225.59,-107.84 224.86,-66.21 226.9,-41.64"/>
<polygon fill="midnightblue" stroke="midnightblue" points="516.21,-187.96 526.36,-184.92 516.53,-180.97 516.21,-187.96"/>
</g>
<!-- Node4 -->
<g id="node4" class="node">
<title>Node4</title>
<g id="a_node4"><a xlink:href="client__highlevel__async_8h.html" target="_top" xlink:title=" ">
<polygon fill="none" stroke="black" points="258,-84 258,-125 493,-125 493,-84 258,-84"/>
<text text-anchor="start" x="266" y="-113" font-family="Helvetica,sans-Serif" font-size="10.00">/home/runner/work/open62541pp</text>
<text text-anchor="start" x="266" y="-102" font-family="Helvetica,sans-Serif" font-size="10.00">/open62541pp/build/doc/open62541</text>
<text text-anchor="middle" x="375.5" y="-91" font-family="Helvetica,sans-Serif" font-size="10.00">/include/open62541/client_highlevel_async.h</text>
</a>
</g>
</g>
<!-- Node1&#45;&gt;Node4 -->
<g id="edge3" class="edge">
<title>Node1&#45;&gt;Node4</title>
<path fill="none" stroke="midnightblue" d="M552.8,-164.24C515.55,-151.9 469.98,-136.8 434.37,-125"/>
<polygon fill="midnightblue" stroke="midnightblue" points="551.98,-167.66 562.58,-167.48 554.19,-161.01 551.98,-167.66"/>
</g>
<!-- Node5 -->
<g id="node5" class="node">
<title>Node5</title>
<g id="a_node5"><a xlink:href="client__subscriptions_8h.html" target="_top" xlink:title=" ">
<polygon fill="none" stroke="black" points="511,-84 511,-125 732,-125 732,-84 511,-84"/>
<text text-anchor="start" x="519" y="-113" font-family="Helvetica,sans-Serif" font-size="10.00">/home/runner/work/open62541pp</text>
<text text-anchor="start" x="519" y="-102" font-family="Helvetica,sans-Serif" font-size="10.00">/open62541pp/build/doc/open62541</text>
<text text-anchor="middle" x="621.5" y="-91" font-family="Helvetica,sans-Serif" font-size="10.00">/include/open62541/client_subscriptions.h</text>
</a>
</g>
</g>
<!-- Node1&#45;&gt;Node5 -->
<g id="edge4" class="edge">
<title>Node1&#45;&gt;Node5</title>
<path fill="none" stroke="midnightblue" d="M621.5,-157.06C621.5,-146.38 621.5,-134.63 621.5,-125.05"/>
<polygon fill="midnightblue" stroke="midnightblue" points="618,-157.27 621.5,-167.27 625,-157.27 618,-157.27"/>
</g>
<!-- Node6 -->
<g id="node6" class="node">
<title>Node6</title>
<g id="a_node6"><a xlink:href="network__tcp_8h.html" target="_top" xlink:title=" ">
<polygon fill="none" stroke="black" points="750.5,-84 750.5,-125 940.5,-125 940.5,-84 750.5,-84"/>
<text text-anchor="start" x="758.5" y="-113" font-family="Helvetica,sans-Serif" font-size="10.00">/home/runner/work/open62541pp</text>
<text text-anchor="start" x="758.5" y="-102" font-family="Helvetica,sans-Serif" font-size="10.00">/open62541pp/build/doc/open62541</text>
<text text-anchor="middle" x="845.5" y="-91" font-family="Helvetica,sans-Serif" font-size="10.00">/include/open62541/network_tcp.h</text>
</a>
</g>
</g>
<!-- Node1&#45;&gt;Node6 -->
<g id="edge6" class="edge">
<title>Node1&#45;&gt;Node6</title>
<path fill="none" stroke="midnightblue" d="M684.92,-163.92C718.68,-151.64 759.75,-136.7 791.9,-125"/>
<polygon fill="midnightblue" stroke="midnightblue" points="683.35,-160.77 675.15,-167.48 685.75,-167.35 683.35,-160.77"/>
</g>
<!-- Node7 -->
<g id="node7" class="node">
<title>Node7</title>
<g id="a_node7"><a xlink:href="network__ws_8h.html" target="_top" xlink:title=" ">
<polygon fill="none" stroke="black" points="958.5,-84 958.5,-125 1148.5,-125 1148.5,-84 958.5,-84"/>
<text text-anchor="start" x="966.5" y="-113" font-family="Helvetica,sans-Serif" font-size="10.00">/home/runner/work/open62541pp</text>
<text text-anchor="start" x="966.5" y="-102" font-family="Helvetica,sans-Serif" font-size="10.00">/open62541pp/build/doc/open62541</text>
<text text-anchor="middle" x="1053.5" y="-91" font-family="Helvetica,sans-Serif" font-size="10.00">/include/open62541/network_ws.h</text>
</a>
</g>
</g>
<!-- Node1&#45;&gt;Node7 -->
<g id="edge7" class="edge">
<title>Node1&#45;&gt;Node7</title>
<path fill="none" stroke="midnightblue" d="M726.75,-170.99C791.26,-160.69 875.41,-146.39 949.5,-131 958.24,-129.19 967.35,-127.15 976.4,-125.05"/>
<polygon fill="midnightblue" stroke="midnightblue" points="725.9,-167.58 716.57,-172.61 726.99,-174.49 725.9,-167.58"/>
</g>
<!-- Node8 -->
<g id="node8" class="node">
<title>Node8</title>
<g id="a_node8"><a xlink:href="client__config__default_8h.html" target="_top" xlink:title=" ">
<polygon fill="none" stroke="black" points="1166.5,-78.5 1166.5,-130.5 1356.5,-130.5 1356.5,-78.5 1166.5,-78.5"/>
<text text-anchor="start" x="1174.5" y="-118.5" font-family="Helvetica,sans-Serif" font-size="10.00">/home/runner/work/open62541pp</text>
<text text-anchor="start" x="1174.5" y="-107.5" font-family="Helvetica,sans-Serif" font-size="10.00">/open62541pp/build/doc/open62541</text>
<text text-anchor="start" x="1174.5" y="-96.5" font-family="Helvetica,sans-Serif" font-size="10.00">/plugins/include/open62541/client</text>
<text text-anchor="middle" x="1261.5" y="-85.5" font-family="Helvetica,sans-Serif" font-size="10.00">_config_default.h</text>
</a>
</g>
</g>
<!-- Node1&#45;&gt;Node8 -->
<g id="edge8" class="edge">
<title>Node1&#45;&gt;Node8</title>
<path fill="none" stroke="midnightblue" d="M727.22,-180.23C835.76,-172.28 1009.27,-156.79 1157.5,-131 1160.43,-130.49 1163.4,-129.94 1166.39,-129.37"/>
<polygon fill="midnightblue" stroke="midnightblue" points="726.65,-176.76 716.93,-180.97 727.15,-183.74 726.65,-176.76"/>
</g>
<!-- Node2&#45;&gt;Node3 -->
<g id="edge2" class="edge">
<title>Node2&#45;&gt;Node3</title>
<path fill="none" stroke="midnightblue" d="M140.03,-78.53C158.78,-66.68 180.87,-52.72 198.41,-41.64"/>
<polygon fill="midnightblue" stroke="midnightblue" points="137.98,-75.68 131.4,-83.98 141.72,-81.6 137.98,-75.68"/>
</g>
<!-- Node5&#45;&gt;Node3 -->
<g id="edge5" class="edge">
<title>Node5&#45;&gt;Node3</title>
<path fill="none" stroke="midnightblue" d="M521.01,-81.9C514.75,-80.58 508.54,-79.27 502.5,-78 443.43,-65.61 377.1,-52 324.61,-41.3"/>
<polygon fill="midnightblue" stroke="midnightblue" points="520.37,-85.34 530.88,-84 521.82,-78.5 520.37,-85.34"/>
</g>
</g>
</svg>
