<?xml version="1.0" encoding="UTF-8" standalone="no"?>
<!DOCTYPE svg PUBLIC "-//W3C//DTD SVG 1.1//EN"
 "http://www.w3.org/Graphics/SVG/1.1/DTD/svg11.dtd">
<!-- Generated by graphviz version 2.43.0 (0)
 -->
<!-- Title: /home/runner/work/open62541pp/open62541pp/build/doc/open62541/src/client Pages: 1 -->
<svg width="106pt" height="223pt"
 viewBox="0.00 0.00 106.00 223.00" xmlns="http://www.w3.org/2000/svg" xmlns:xlink="http://www.w3.org/1999/xlink">
<g id="graph0" class="graph" transform="scale(1 1) rotate(0) translate(4 219)">
<title>/home/runner/work/open62541pp/open62541pp/build/doc/open62541/src/client</title>
<g id="clust1" class="cluster">
<title>clusterdir_ec5caf414fe8575e5a0499b793e870bc</title>
<g id="a_clust1"><a xlink:href="dir_ec5caf414fe8575e5a0499b793e870bc.html" target="_top" xlink:title="src">
<polygon fill="#ddddee" stroke="black" points="20,-136 20,-207 90,-207 90,-136 20,-136"/>
<text text-anchor="middle" x="55" y="-195" font-family="Helvetica,sans-Serif" font-size="10.00">src</text>
</a>
</g>
</g>
<!-- dir_50a81dc285e6d6cca6ddf4bba04681f7 -->
<g id="node1" class="node">
<title>dir_50a81dc285e6d6cca6ddf4bba04681f7</title>
<g id="a_node1"><a xlink:href="dir_50a81dc285e6d6cca6ddf4bba04681f7.html" target="_top" xlink:title="client">
<polygon fill="#eeeeff" stroke="black" points="82,-180 28,-180 28,-144 82,-144 82,-180"/>
<text text-anchor="middle" x="55" y="-159.5" font-family="Helvetica,sans-Serif" font-size="10.00">client</text>
</a>
</g>
</g>
<!-- dir_6d20e812c1649046cb199ee3ad79bd4f -->
<g id="node2" class="node">
<title>dir_6d20e812c1649046cb199ee3ad79bd4f</title>
<g id="a_node2"><a xlink:href="dir_6d20e812c1649046cb199ee3ad79bd4f.html" target="_top" xlink:title="include">
<polygon fill="none" stroke="red" points="54,-108 0,-108 0,-72 54,-72 54,-108"/>
<text text-anchor="middle" x="27" y="-87.5" font-family="Helvetica,sans-Serif" font-size="10.00">include</text>
</a>
</g>
</g>
<!-- dir_50a81dc285e6d6cca6ddf4bba04681f7&#45;&gt;dir_6d20e812c1649046cb199ee3ad79bd4f -->
<g id="edge1" class="edge">
<title>dir_50a81dc285e6d6cca6ddf4bba04681f7&#45;&gt;dir_6d20e812c1649046cb199ee3ad79bd4f</title>
<path fill="none" stroke="black" d="M48.08,-143.7C44.93,-135.81 41.12,-126.3 37.62,-117.55"/>
<polygon fill="black" stroke="black" points="40.81,-116.09 33.84,-108.1 34.31,-118.69 40.81,-116.09"/>
<g id="a_edge1&#45;headlabel"><a xlink:href="dir_000026_000017.html" target="_top" xlink:title="3">
<text text-anchor="middle" x="44.78" y="-115.87" font-family="Helvetica,sans-Serif" font-size="10.00">3</text>
</a>
</g>
</g>
<!-- dir_ddaf05e5a8ba51602e2b36b8f2f6cf7c -->
<g id="node3" class="node">
<title>dir_ddaf05e5a8ba51602e2b36b8f2f6cf7c</title>
<g id="a_node3"><a xlink:href="dir_ddaf05e5a8ba51602e2b36b8f2f6cf7c.html" target="_top" xlink:title="deps">
<polygon fill="none" stroke="red" points="54,-36 0,-36 0,0 54,0 54,-36"/>
<text text-anchor="middle" x="27" y="-15.5" font-family="Helvetica,sans-Serif" font-size="10.00">deps</text>
</a>
</g>
</g>
<!-- dir_50a81dc285e6d6cca6ddf4bba04681f7&#45;&gt;dir_ddaf05e5a8ba51602e2b36b8f2f6cf7c -->
<g id="edge2" class="edge">
<title>dir_50a81dc285e6d6cca6ddf4bba04681f7&#45;&gt;dir_ddaf05e5a8ba51602e2b36b8f2f6cf7c</title>
<path fill="none" stroke="black" d="M60.34,-143.87C65.16,-125.64 70.43,-96.17 63,-72 59.99,-62.22 54.49,-52.62 48.68,-44.33"/>
<polygon fill="black" stroke="black" points="51.41,-42.13 42.61,-36.23 45.81,-46.33 51.41,-42.13"/>
<g id="a_edge2&#45;headlabel"><a xlink:href="dir_000026_000010.html" target="_top" xlink:title="1">
<text text-anchor="middle" x="55.83" y="-40.8" font-family="Helvetica,sans-Serif" font-size="10.00">1</text>
</a>
</g>
</g>
<!-- dir_6d20e812c1649046cb199ee3ad79bd4f&#45;&gt;dir_ddaf05e5a8ba51602e2b36b8f2f6cf7c -->
<g id="edge3" class="edge">
<title>dir_6d20e812c1649046cb199ee3ad79bd4f&#45;&gt;dir_ddaf05e5a8ba51602e2b36b8f2f6cf7c</title>
<path fill="none" stroke="black" d="M21.08,-71.7C20.29,-63.98 20.06,-54.71 20.4,-46.11"/>
<polygon fill="black" stroke="black" points="23.9,-46.32 21.1,-36.1 16.92,-45.84 23.9,-46.32"/>
<g id="a_edge3&#45;headlabel"><a xlink:href="dir_000017_000010.html" target="_top" xlink:title="1">
<text text-anchor="middle" x="26.48" y="-47.61" font-family="Helvetica,sans-Serif" font-size="10.00">1</text>
</a>
</g>
</g>
<!-- dir_ddaf05e5a8ba51602e2b36b8f2f6cf7c&#45;&gt;dir_6d20e812c1649046cb199ee3ad79bd4f -->
<g id="edge4" class="edge">
<title>dir_ddaf05e5a8ba51602e2b36b8f2f6cf7c&#45;&gt;dir_6d20e812c1649046cb199ee3ad79bd4f</title>
<path fill="none" stroke="black" d="M32.9,-36.1C33.7,-43.79 33.94,-53.05 33.6,-61.67"/>
<polygon fill="black" stroke="black" points="30.11,-61.48 32.92,-71.7 37.09,-61.96 30.11,-61.48"/>
<g id="a_edge4&#45;headlabel"><a xlink:href="dir_000010_000017.html" target="_top" xlink:title="3">
<text text-anchor="middle" x="27.52" y="-55.2" font-family="Helvetica,sans-Serif" font-size="10.00">3</text>
</a>
</g>
</g>
</g>
</svg>
