<?xml version="1.0" encoding="UTF-8" standalone="no"?>
<!DOCTYPE svg PUBLIC "-//W3C//DTD SVG 1.1//EN"
 "http://www.w3.org/Graphics/SVG/1.1/DTD/svg11.dtd">
<!-- Generated by graphviz version 2.43.0 (0)
 -->
<!-- Title: /home/runner/work/open62541pp/open62541pp/build/doc/open62541/src_generated Pages: 1 -->
<svg width="286pt" height="183pt"
 viewBox="0.00 0.00 286.00 182.61" xmlns="http://www.w3.org/2000/svg" xmlns:xlink="http://www.w3.org/1999/xlink">
<g id="graph0" class="graph" transform="scale(1 1) rotate(0) translate(4 178.61)">
<title>/home/runner/work/open62541pp/open62541pp/build/doc/open62541/src_generated</title>
<g id="clust1" class="cluster">
<title>clusterdir_97fdaa459f6c5810886fafd86f2db426</title>
<g id="a_clust1"><a xlink:href="dir_97fdaa459f6c5810886fafd86f2db426.html" target="_top" xlink:title="open62541">
<polygon fill="#ddddee" stroke="black" points="8,-56 8,-143 216,-143 216,-56 8,-56"/>
<text text-anchor="middle" x="112" y="-131" font-family="Helvetica,sans-Serif" font-size="10.00">open62541</text>
</a>
</g>
</g>
<g id="clust2" class="cluster">
<title>clusterdir_dff2b93c1c4fcd6811d5d5daa7d672be</title>
<g id="a_clust2"><a xlink:href="dir_dff2b93c1c4fcd6811d5d5daa7d672be.html" target="_top">
<polygon fill="#eeeeff" stroke="black" points="16,-64 16,-116 208,-116 208,-64 16,-64"/>
</a>
</g>
</g>
<!-- dir_dff2b93c1c4fcd6811d5d5daa7d672be -->
<g id="node1" class="node">
<title>dir_dff2b93c1c4fcd6811d5d5daa7d672be</title>
<text text-anchor="middle" x="157" y="-87.5" font-family="Helvetica,sans-Serif" font-size="10.00">src_generated</text>
</g>
<!-- dir_2aef5fc74f93f601cfce9708b10c21a7 -->
<g id="node2" class="node">
<title>dir_2aef5fc74f93f601cfce9708b10c21a7</title>
<g id="a_node2"><a xlink:href="dir_2aef5fc74f93f601cfce9708b10c21a7.html" target="_top" xlink:title="open62541">
<polygon fill="white" stroke="black" points="95.5,-108 24.5,-108 24.5,-72 95.5,-72 95.5,-108"/>
<text text-anchor="middle" x="60" y="-87.5" font-family="Helvetica,sans-Serif" font-size="10.00">open62541</text>
</a>
</g>
</g>
<!-- dir_6526469059420580afa013a6e6a8b0be -->
<g id="node3" class="node">
<title>dir_6526469059420580afa013a6e6a8b0be</title>
<g id="a_node3"><a xlink:href="dir_6526469059420580afa013a6e6a8b0be.html" target="_top" xlink:title="arch">
<polygon fill="none" stroke="red" points="87,-36 33,-36 33,0 87,0 87,-36"/>
<text text-anchor="middle" x="60" y="-15.5" font-family="Helvetica,sans-Serif" font-size="10.00">arch</text>
</a>
</g>
</g>
<!-- dir_2aef5fc74f93f601cfce9708b10c21a7&#45;&gt;dir_6526469059420580afa013a6e6a8b0be -->
<g id="edge1" class="edge">
<title>dir_2aef5fc74f93f601cfce9708b10c21a7&#45;&gt;dir_6526469059420580afa013a6e6a8b0be</title>
<path fill="none" stroke="black" d="M60,-71.7C60,-63.98 60,-54.71 60,-46.11"/>
<polygon fill="black" stroke="black" points="63.5,-46.1 60,-36.1 56.5,-46.1 63.5,-46.1"/>
<g id="a_edge1&#45;headlabel"><a xlink:href="dir_000030_000002.html" target="_top" xlink:title="1">
<text text-anchor="middle" x="66.34" y="-47.2" font-family="Helvetica,sans-Serif" font-size="10.00">1</text>
</a>
</g>
</g>
<!-- dir_ec5caf414fe8575e5a0499b793e870bc -->
<g id="node4" class="node">
<title>dir_ec5caf414fe8575e5a0499b793e870bc</title>
<g id="a_node4"><a xlink:href="dir_ec5caf414fe8575e5a0499b793e870bc.html" target="_top" xlink:title="src">
<polygon fill="none" stroke="red" points="278,-108 224,-108 224,-72 278,-72 278,-108"/>
<text text-anchor="middle" x="251" y="-87.5" font-family="Helvetica,sans-Serif" font-size="10.00">src</text>
</a>
</g>
</g>
<!-- dir_2aef5fc74f93f601cfce9708b10c21a7&#45;&gt;dir_ec5caf414fe8575e5a0499b793e870bc -->
<g id="edge2" class="edge">
<title>dir_2aef5fc74f93f601cfce9708b10c21a7&#45;&gt;dir_ec5caf414fe8575e5a0499b793e870bc</title>
<path fill="none" stroke="black" d="M67.88,-108.14C76.45,-125.32 91.94,-150.06 114,-161 149.44,-178.57 168.06,-179.55 203,-161 220.3,-151.81 232.51,-133.29 240.28,-117.47"/>
<polygon fill="black" stroke="black" points="243.59,-118.63 244.55,-108.08 237.22,-115.73 243.59,-118.63"/>
<g id="a_edge2&#45;headlabel"><a xlink:href="dir_000030_000025.html" target="_top" xlink:title="2">
<text text-anchor="middle" x="244.69" y="-120.58" font-family="Helvetica,sans-Serif" font-size="10.00">2</text>
</a>
</g>
</g>
<!-- dir_6d20e812c1649046cb199ee3ad79bd4f -->
<g id="node5" class="node">
<title>dir_6d20e812c1649046cb199ee3ad79bd4f</title>
<g id="a_node5"><a xlink:href="dir_6d20e812c1649046cb199ee3ad79bd4f.html" target="_top" xlink:title="include">
<polygon fill="none" stroke="red" points="218,-36 164,-36 164,0 218,0 218,-36"/>
<text text-anchor="middle" x="191" y="-15.5" font-family="Helvetica,sans-Serif" font-size="10.00">include</text>
</a>
</g>
</g>
<!-- dir_2aef5fc74f93f601cfce9708b10c21a7&#45;&gt;dir_6d20e812c1649046cb199ee3ad79bd4f -->
<g id="edge3" class="edge">
<title>dir_2aef5fc74f93f601cfce9708b10c21a7&#45;&gt;dir_6d20e812c1649046cb199ee3ad79bd4f</title>
<path fill="none" stroke="black" d="M72.78,-71.85C79.58,-66.41 87.93,-60.62 96,-56 114.3,-45.53 136.13,-36.18 154.39,-29.49"/>
<polygon fill="black" stroke="black" points="155.58,-32.78 163.84,-26.15 153.25,-26.18 155.58,-32.78"/>
<g id="a_edge3&#45;headlabel"><a xlink:href="dir_000030_000017.html" target="_top" xlink:title="3">
<text text-anchor="middle" x="153.13" y="-34.16" font-family="Helvetica,sans-Serif" font-size="10.00">3</text>
</a>
</g>
</g>
<!-- dir_ec5caf414fe8575e5a0499b793e870bc&#45;&gt;dir_2aef5fc74f93f601cfce9708b10c21a7 -->
<g id="edge4" class="edge">
<title>dir_ec5caf414fe8575e5a0499b793e870bc&#45;&gt;dir_2aef5fc74f93f601cfce9708b10c21a7</title>
<path fill="none" stroke="black" d="M244.55,-108.08C237.35,-125.2 223.89,-149.9 203,-161 168.06,-179.55 149.44,-178.57 114,-161 95.56,-151.86 81.71,-133.07 72.66,-117.12"/>
<polygon fill="black" stroke="black" points="75.67,-115.33 67.88,-108.14 69.49,-118.62 75.67,-115.33"/>
<g id="a_edge4&#45;headlabel"><a xlink:href="dir_000025_000030.html" target="_top" xlink:title="4">
<text text-anchor="middle" x="79.86" y="-114.67" font-family="Helvetica,sans-Serif" font-size="10.00">4</text>
</a>
</g>
</g>
<!-- dir_ec5caf414fe8575e5a0499b793e870bc&#45;&gt;dir_6d20e812c1649046cb199ee3ad79bd4f -->
<g id="edge5" class="edge">
<title>dir_ec5caf414fe8575e5a0499b793e870bc&#45;&gt;dir_6d20e812c1649046cb199ee3ad79bd4f</title>
<path fill="none" stroke="black" d="M236.17,-71.7C228.98,-63.3 220.2,-53.07 212.31,-43.86"/>
<polygon fill="black" stroke="black" points="214.83,-41.42 205.66,-36.1 209.51,-45.97 214.83,-41.42"/>
<g id="a_edge5&#45;headlabel"><a xlink:href="dir_000025_000017.html" target="_top" xlink:title="25">
<text text-anchor="middle" x="219.32" y="-39.8" font-family="Helvetica,sans-Serif" font-size="10.00">25</text>
</a>
</g>
</g>
<!-- dir_6d20e812c1649046cb199ee3ad79bd4f&#45;&gt;dir_2aef5fc74f93f601cfce9708b10c21a7 -->
<g id="edge6" class="edge">
<title>dir_6d20e812c1649046cb199ee3ad79bd4f&#45;&gt;dir_2aef5fc74f93f601cfce9708b10c21a7</title>
<path fill="none" stroke="black" d="M163.63,-32.2C148.57,-38.6 129.94,-46.88 114,-56 108.83,-58.96 103.54,-62.4 98.38,-65.92"/>
<polygon fill="black" stroke="black" points="96.05,-63.28 89.83,-71.85 100.04,-69.03 96.05,-63.28"/>
<g id="a_edge6&#45;headlabel"><a xlink:href="dir_000017_000030.html" target="_top" xlink:title="17">
<text text-anchor="middle" x="97.38" y="-56.39" font-family="Helvetica,sans-Serif" font-size="10.00">17</text>
</a>
</g>
</g>
</g>
</svg>
