<?xml version="1.0" encoding="UTF-8" standalone="no"?>
<!DOCTYPE svg PUBLIC "-//W3C//DTD SVG 1.1//EN"
 "http://www.w3.org/Graphics/SVG/1.1/DTD/svg11.dtd">
<!-- Generated by graphviz version 2.43.0 (0)
 -->
<!-- Title: /home/runner/work/open62541pp/open62541pp/build/doc/open62541/include/open62541/plugin/network.h Pages: 1 -->
<svg width="417pt" height="453pt"
 viewBox="0.00 0.00 417.26 453.00" xmlns="http://www.w3.org/2000/svg" xmlns:xlink="http://www.w3.org/1999/xlink">
<g id="graph0" class="graph" transform="scale(1 1) rotate(0) translate(4 449)">
<title>/home/runner/work/open62541pp/open62541pp/build/doc/open62541/include/open62541/plugin/network.h</title>
<!-- Node1 -->
<g id="node1" class="node">
<title>Node1</title>
<g id="a_node1"><a xlink:title=" ">
<polygon fill="#bfbfbf" stroke="black" points="120.76,-403.5 120.76,-444.5 317.76,-444.5 317.76,-403.5 120.76,-403.5"/>
<text text-anchor="start" x="128.76" y="-432.5" font-family="Helvetica,sans-Serif" font-size="10.00">/home/runner/work/open62541pp</text>
<text text-anchor="start" x="128.76" y="-421.5" font-family="Helvetica,sans-Serif" font-size="10.00">/open62541pp/build/doc/open62541</text>
<text text-anchor="middle" x="219.26" y="-410.5" font-family="Helvetica,sans-Serif" font-size="10.00">/include/open62541/plugin/network.h</text>
</a>
</g>
</g>
<!-- Node2 -->
<g id="node2" class="node">
<title>Node2</title>
<g id="a_node2"><a xlink:href="util_8h.html" target="_top" xlink:title=" ">
<polygon fill="none" stroke="black" points="104.26,-347.5 104.26,-366.5 202.26,-366.5 202.26,-347.5 104.26,-347.5"/>
<text text-anchor="middle" x="153.26" y="-354.5" font-family="Helvetica,sans-Serif" font-size="10.00">open62541/util.h</text>
</a>
</g>
</g>
<!-- Node1&#45;&gt;Node2 -->
<g id="edge1" class="edge">
<title>Node1&#45;&gt;Node2</title>
<path fill="none" stroke="midnightblue" d="M199.45,-403.5C189.82,-394.01 178.39,-382.76 169.31,-373.81"/>
<polygon fill="midnightblue" stroke="midnightblue" points="171.62,-371.18 162.04,-366.65 166.71,-376.16 171.62,-371.18"/>
</g>
<!-- Node10 -->
<g id="node10" class="node">
<title>Node10</title>
<g id="a_node10"><a xlink:href="log_8h.html" target="_top" xlink:title=" ">
<polygon fill="none" stroke="black" points="259.76,-347.5 259.76,-366.5 390.76,-366.5 390.76,-347.5 259.76,-347.5"/>
<text text-anchor="middle" x="325.26" y="-354.5" font-family="Helvetica,sans-Serif" font-size="10.00">open62541/plugin/log.h</text>
</a>
</g>
</g>
<!-- Node1&#45;&gt;Node10 -->
<g id="edge12" class="edge">
<title>Node1&#45;&gt;Node10</title>
<path fill="none" stroke="midnightblue" d="M251.06,-403.5C267.62,-393.34 287.49,-381.16 302.5,-371.95"/>
<polygon fill="midnightblue" stroke="midnightblue" points="304.45,-374.86 311.14,-366.65 300.79,-368.9 304.45,-374.86"/>
</g>
<!-- Node3 -->
<g id="node3" class="node">
<title>Node3</title>
<g id="a_node3"><a xlink:href="types_8h.html" target="_top" xlink:title=" ">
<polygon fill="none" stroke="black" points="20.26,-168.5 20.26,-187.5 130.26,-187.5 130.26,-168.5 20.26,-168.5"/>
<text text-anchor="middle" x="75.26" y="-175.5" font-family="Helvetica,sans-Serif" font-size="10.00">open62541/types.h</text>
</a>
</g>
</g>
<!-- Node2&#45;&gt;Node3 -->
<g id="edge2" class="edge">
<title>Node2&#45;&gt;Node3</title>
<path fill="none" stroke="midnightblue" d="M147.35,-347.23C141.44,-338.29 132.25,-323.96 125.26,-311 109.67,-282.13 105.78,-274.72 94.26,-244 88.45,-228.52 83.29,-210.43 79.82,-197.27"/>
<polygon fill="midnightblue" stroke="midnightblue" points="83.2,-196.36 77.32,-187.55 76.41,-198.1 83.2,-196.36"/>
</g>
<!-- Node8 -->
<g id="node8" class="node">
<title>Node8</title>
<g id="a_node8"><a xlink:href="types__generated_8h.html" target="_top" xlink:title=" ">
<polygon fill="none" stroke="black" points="103.26,-224.5 103.26,-243.5 267.26,-243.5 267.26,-224.5 103.26,-224.5"/>
<text text-anchor="middle" x="185.26" y="-231.5" font-family="Helvetica,sans-Serif" font-size="10.00">open62541/types_generated.h</text>
</a>
</g>
</g>
<!-- Node2&#45;&gt;Node8 -->
<g id="edge8" class="edge">
<title>Node2&#45;&gt;Node8</title>
<path fill="none" stroke="midnightblue" d="M147.22,-347.24C138.04,-332.74 122.71,-303.08 133.26,-280 139.03,-267.36 150.31,-256.91 160.89,-249.27"/>
<polygon fill="midnightblue" stroke="midnightblue" points="163.1,-252 169.47,-243.53 159.21,-246.18 163.1,-252"/>
</g>
<!-- Node9 -->
<g id="node9" class="node">
<title>Node9</title>
<g id="a_node9"><a xlink:href="types__generated__handling_8h.html" target="_top" xlink:title=" ">
<polygon fill="none" stroke="black" points="141.76,-280.5 141.76,-310.5 296.76,-310.5 296.76,-280.5 141.76,-280.5"/>
<text text-anchor="start" x="149.76" y="-298.5" font-family="Helvetica,sans-Serif" font-size="10.00">open62541/types_generated</text>
<text text-anchor="middle" x="219.26" y="-287.5" font-family="Helvetica,sans-Serif" font-size="10.00">_handling.h</text>
</a>
</g>
</g>
<!-- Node2&#45;&gt;Node9 -->
<g id="edge10" class="edge">
<title>Node2&#45;&gt;Node9</title>
<path fill="none" stroke="midnightblue" d="M162.71,-347.48C171.4,-339.64 184.63,-327.71 196.11,-317.37"/>
<polygon fill="midnightblue" stroke="midnightblue" points="198.62,-319.82 203.7,-310.52 193.93,-314.62 198.62,-319.82"/>
</g>
<!-- Node4 -->
<g id="node4" class="node">
<title>Node4</title>
<g id="a_node4"><a xlink:href="config_8h.html" target="_top" xlink:title=" ">
<polygon fill="none" stroke="black" points="19.26,-56.5 19.26,-75.5 131.26,-75.5 131.26,-56.5 19.26,-56.5"/>
<text text-anchor="middle" x="75.26" y="-63.5" font-family="Helvetica,sans-Serif" font-size="10.00">open62541/config.h</text>
</a>
</g>
</g>
<!-- Node3&#45;&gt;Node4 -->
<g id="edge3" class="edge">
<title>Node3&#45;&gt;Node4</title>
<path fill="none" stroke="midnightblue" d="M51.64,-168.4C25.68,-157.49 -10.62,-137.04 3.26,-112 11.34,-97.41 26.36,-86.92 40.59,-79.76"/>
<polygon fill="midnightblue" stroke="midnightblue" points="42.14,-82.9 49.75,-75.53 39.2,-76.55 42.14,-82.9"/>
</g>
<!-- Node6 -->
<g id="node6" class="node">
<title>Node6</title>
<g id="a_node6"><a xlink:href="common_8h.html" target="_top" xlink:title=" ">
<polygon fill="none" stroke="black" points="12.76,-112.5 12.76,-131.5 137.76,-131.5 137.76,-112.5 12.76,-112.5"/>
<text text-anchor="middle" x="75.26" y="-119.5" font-family="Helvetica,sans-Serif" font-size="10.00">open62541/common.h</text>
</a>
</g>
</g>
<!-- Node3&#45;&gt;Node6 -->
<g id="edge5" class="edge">
<title>Node3&#45;&gt;Node6</title>
<path fill="none" stroke="midnightblue" d="M75.26,-168.08C75.26,-161.01 75.26,-150.86 75.26,-141.99"/>
<polygon fill="midnightblue" stroke="midnightblue" points="78.76,-141.75 75.26,-131.75 71.76,-141.75 78.76,-141.75"/>
</g>
<!-- Node7 -->
<g id="node7" class="node">
<title>Node7</title>
<g id="a_node7"><a xlink:href="statuscodes_8h.html" target="_top" xlink:title=" ">
<polygon fill="none" stroke="black" points="155.76,-112.5 155.76,-131.5 296.76,-131.5 296.76,-112.5 155.76,-112.5"/>
<text text-anchor="middle" x="226.26" y="-119.5" font-family="Helvetica,sans-Serif" font-size="10.00">open62541/statuscodes.h</text>
</a>
</g>
</g>
<!-- Node3&#45;&gt;Node7 -->
<g id="edge7" class="edge">
<title>Node3&#45;&gt;Node7</title>
<path fill="none" stroke="midnightblue" d="M99.18,-168.44C124.47,-159.4 164.56,-145.06 192.93,-134.92"/>
<polygon fill="midnightblue" stroke="midnightblue" points="194.2,-138.18 202.44,-131.52 191.85,-131.59 194.2,-138.18"/>
</g>
<!-- Node5 -->
<g id="node5" class="node">
<title>Node5</title>
<g id="a_node5"><a xlink:href="posix_2ua__architecture_8h.html" target="_top" xlink:title=" ">
<polygon fill="none" stroke="black" points="9.76,-0.5 9.76,-19.5 140.76,-19.5 140.76,-0.5 9.76,-0.5"/>
<text text-anchor="middle" x="75.26" y="-7.5" font-family="Helvetica,sans-Serif" font-size="10.00">posix/ua_architecture.h</text>
</a>
</g>
</g>
<!-- Node4&#45;&gt;Node5 -->
<g id="edge4" class="edge">
<title>Node4&#45;&gt;Node5</title>
<path fill="none" stroke="midnightblue" d="M75.26,-56.08C75.26,-49.01 75.26,-38.86 75.26,-29.99"/>
<polygon fill="midnightblue" stroke="midnightblue" points="78.76,-29.75 75.26,-19.75 71.76,-29.75 78.76,-29.75"/>
</g>
<!-- Node6&#45;&gt;Node4 -->
<g id="edge6" class="edge">
<title>Node6&#45;&gt;Node4</title>
<path fill="none" stroke="midnightblue" d="M75.26,-112.08C75.26,-105.01 75.26,-94.86 75.26,-85.99"/>
<polygon fill="midnightblue" stroke="midnightblue" points="78.76,-85.75 75.26,-75.75 71.76,-85.75 78.76,-85.75"/>
</g>
<!-- Node8&#45;&gt;Node3 -->
<g id="edge9" class="edge">
<title>Node8&#45;&gt;Node3</title>
<path fill="none" stroke="midnightblue" d="M167.58,-224.32C149.86,-215.62 122.35,-202.12 101.97,-192.11"/>
<polygon fill="midnightblue" stroke="midnightblue" points="103.4,-188.92 92.88,-187.65 100.32,-195.2 103.4,-188.92"/>
</g>
<!-- Node9&#45;&gt;Node8 -->
<g id="edge11" class="edge">
<title>Node9&#45;&gt;Node8</title>
<path fill="none" stroke="midnightblue" d="M211.2,-280.4C206.41,-272.02 200.3,-261.33 195.21,-252.42"/>
<polygon fill="midnightblue" stroke="midnightblue" points="198.2,-250.6 190.2,-243.66 192.12,-254.08 198.2,-250.6"/>
</g>
<!-- Node10&#45;&gt;Node4 -->
<g id="edge13" class="edge">
<title>Node10&#45;&gt;Node4</title>
<path fill="none" stroke="midnightblue" d="M325.26,-347.49C325.26,-327.74 325.26,-277.22 325.26,-235 325.26,-235 325.26,-235 325.26,-177 325.26,-146.9 328.49,-132.28 306.26,-112 282.53,-90.37 200.88,-78.33 141.36,-72.27"/>
<polygon fill="midnightblue" stroke="midnightblue" points="141.57,-68.77 131.27,-71.28 140.88,-75.74 141.57,-68.77"/>
</g>
<!-- Node11 -->
<g id="node11" class="node">
<title>Node11</title>
<g id="a_node11"><a xlink:title=" ">
<polygon fill="none" stroke="#bfbfbf" points="353.26,-286 353.26,-305 409.26,-305 409.26,-286 353.26,-286"/>
<text text-anchor="middle" x="381.26" y="-293" font-family="Helvetica,sans-Serif" font-size="10.00">stdarg.h</text>
</a>
</g>
</g>
<!-- Node10&#45;&gt;Node11 -->
<g id="edge14" class="edge">
<title>Node10&#45;&gt;Node11</title>
<path fill="none" stroke="midnightblue" d="M333.28,-347.48C341.84,-338.37 355.62,-323.74 366.21,-312.48"/>
<polygon fill="midnightblue" stroke="midnightblue" points="368.94,-314.69 373.25,-305.01 363.84,-309.89 368.94,-314.69"/>
</g>
</g>
</svg>
