<?xml version="1.0" encoding="UTF-8" standalone="no"?>
<!DOCTYPE svg PUBLIC "-//W3C//DTD SVG 1.1//EN"
 "http://www.w3.org/Graphics/SVG/1.1/DTD/svg11.dtd">
<!-- Generated by graphviz version 2.43.0 (0)
 -->
<!-- Title: /home/runner/work/open62541pp/open62541pp/build/doc/open62541/include/open62541/plugin/securitypolicy.h Pages: 1 -->
<svg width="449pt" height="453pt"
 viewBox="0.00 0.00 449.00 453.00" xmlns="http://www.w3.org/2000/svg" xmlns:xlink="http://www.w3.org/1999/xlink">
<g id="graph0" class="graph" transform="scale(1 1) rotate(0) translate(4 449)">
<title>/home/runner/work/open62541pp/open62541pp/build/doc/open62541/include/open62541/plugin/securitypolicy.h</title>
<!-- Node1 -->
<g id="node1" class="node">
<title>Node1</title>
<g id="a_node1"><a xlink:title=" ">
<polygon fill="#bfbfbf" stroke="black" points="151,-403.5 151,-444.5 375,-444.5 375,-403.5 151,-403.5"/>
<text text-anchor="start" x="159" y="-432.5" font-family="Helvetica,sans-Serif" font-size="10.00">/home/runner/work/open62541pp</text>
<text text-anchor="start" x="159" y="-421.5" font-family="Helvetica,sans-Serif" font-size="10.00">/open62541pp/build/doc/open62541</text>
<text text-anchor="middle" x="263" y="-410.5" font-family="Helvetica,sans-Serif" font-size="10.00">/include/open62541/plugin/securitypolicy.h</text>
</a>
</g>
</g>
<!-- Node2 -->
<g id="node2" class="node">
<title>Node2</title>
<g id="a_node2"><a xlink:href="util_8h.html" target="_top" xlink:title=" ">
<polygon fill="none" stroke="black" points="0,-347.5 0,-366.5 98,-366.5 98,-347.5 0,-347.5"/>
<text text-anchor="middle" x="49" y="-354.5" font-family="Helvetica,sans-Serif" font-size="10.00">open62541/util.h</text>
</a>
</g>
</g>
<!-- Node1&#45;&gt;Node2 -->
<g id="edge1" class="edge">
<title>Node1&#45;&gt;Node2</title>
<path fill="none" stroke="midnightblue" d="M198.79,-403.5C162.4,-392.44 118.1,-378.99 87.16,-369.59"/>
<polygon fill="midnightblue" stroke="midnightblue" points="87.79,-366.12 77.21,-366.57 85.76,-372.82 87.79,-366.12"/>
</g>
<!-- Node10 -->
<g id="node10" class="node">
<title>Node10</title>
<g id="a_node10"><a xlink:href="log_8h.html" target="_top" xlink:title=" ">
<polygon fill="none" stroke="black" points="291.5,-347.5 291.5,-366.5 422.5,-366.5 422.5,-347.5 291.5,-347.5"/>
<text text-anchor="middle" x="357" y="-354.5" font-family="Helvetica,sans-Serif" font-size="10.00">open62541/plugin/log.h</text>
</a>
</g>
</g>
<!-- Node1&#45;&gt;Node10 -->
<g id="edge12" class="edge">
<title>Node1&#45;&gt;Node10</title>
<path fill="none" stroke="midnightblue" d="M291.2,-403.5C305.62,-393.53 322.85,-381.61 336.06,-372.48"/>
<polygon fill="midnightblue" stroke="midnightblue" points="338.25,-375.22 344.49,-366.65 334.27,-369.46 338.25,-375.22"/>
</g>
<!-- Node12 -->
<g id="node12" class="node">
<title>Node12</title>
<g id="a_node12"><a xlink:href="pki_8h.html" target="_top" xlink:title=" ">
<polygon fill="none" stroke="black" points="197.5,-286 197.5,-305 328.5,-305 328.5,-286 197.5,-286"/>
<text text-anchor="middle" x="263" y="-293" font-family="Helvetica,sans-Serif" font-size="10.00">open62541/plugin/pki.h</text>
</a>
</g>
</g>
<!-- Node1&#45;&gt;Node12 -->
<g id="edge15" class="edge">
<title>Node1&#45;&gt;Node12</title>
<path fill="none" stroke="midnightblue" d="M263,-403.23C263,-379.23 263,-339.02 263,-315.41"/>
<polygon fill="midnightblue" stroke="midnightblue" points="266.5,-315.29 263,-305.29 259.5,-315.29 266.5,-315.29"/>
</g>
<!-- Node3 -->
<g id="node3" class="node">
<title>Node3</title>
<g id="a_node3"><a xlink:href="types_8h.html" target="_top" xlink:title=" ">
<polygon fill="none" stroke="black" points="49,-168.5 49,-187.5 159,-187.5 159,-168.5 49,-168.5"/>
<text text-anchor="middle" x="104" y="-175.5" font-family="Helvetica,sans-Serif" font-size="10.00">open62541/types.h</text>
</a>
</g>
</g>
<!-- Node2&#45;&gt;Node3 -->
<g id="edge2" class="edge">
<title>Node2&#45;&gt;Node3</title>
<path fill="none" stroke="midnightblue" d="M36.79,-347.24C26.65,-339.14 12.96,-326.11 7,-311 1.01,-295.8 9.03,-228.32 12,-224 22.8,-208.3 40.67,-197.86 57.81,-191.03"/>
<polygon fill="midnightblue" stroke="midnightblue" points="59.02,-194.31 67.21,-187.59 56.61,-187.74 59.02,-194.31"/>
</g>
<!-- Node8 -->
<g id="node8" class="node">
<title>Node8</title>
<g id="a_node8"><a xlink:href="types__generated_8h.html" target="_top" xlink:title=" ">
<polygon fill="none" stroke="black" points="21,-224.5 21,-243.5 185,-243.5 185,-224.5 21,-224.5"/>
<text text-anchor="middle" x="103" y="-231.5" font-family="Helvetica,sans-Serif" font-size="10.00">open62541/types_generated.h</text>
</a>
</g>
</g>
<!-- Node2&#45;&gt;Node8 -->
<g id="edge8" class="edge">
<title>Node2&#45;&gt;Node8</title>
<path fill="none" stroke="midnightblue" d="M39.62,-347.2C25.28,-332.66 0.97,-302.93 15,-280 24.51,-264.46 41.26,-254.07 57.62,-247.23"/>
<polygon fill="midnightblue" stroke="midnightblue" points="59.05,-250.43 67.15,-243.6 56.56,-243.89 59.05,-250.43"/>
</g>
<!-- Node9 -->
<g id="node9" class="node">
<title>Node9</title>
<g id="a_node9"><a xlink:href="types__generated__handling_8h.html" target="_top" xlink:title=" ">
<polygon fill="none" stroke="black" points="24.5,-280.5 24.5,-310.5 179.5,-310.5 179.5,-280.5 24.5,-280.5"/>
<text text-anchor="start" x="32.5" y="-298.5" font-family="Helvetica,sans-Serif" font-size="10.00">open62541/types_generated</text>
<text text-anchor="middle" x="102" y="-287.5" font-family="Helvetica,sans-Serif" font-size="10.00">_handling.h</text>
</a>
</g>
</g>
<!-- Node2&#45;&gt;Node9 -->
<g id="edge10" class="edge">
<title>Node2&#45;&gt;Node9</title>
<path fill="none" stroke="midnightblue" d="M56.59,-347.48C63.37,-339.87 73.59,-328.4 82.61,-318.26"/>
<polygon fill="midnightblue" stroke="midnightblue" points="85.47,-320.32 89.51,-310.52 80.24,-315.66 85.47,-320.32"/>
</g>
<!-- Node4 -->
<g id="node4" class="node">
<title>Node4</title>
<g id="a_node4"><a xlink:href="config_8h.html" target="_top" xlink:title=" ">
<polygon fill="none" stroke="black" points="49,-56.5 49,-75.5 161,-75.5 161,-56.5 49,-56.5"/>
<text text-anchor="middle" x="105" y="-63.5" font-family="Helvetica,sans-Serif" font-size="10.00">open62541/config.h</text>
</a>
</g>
</g>
<!-- Node3&#45;&gt;Node4 -->
<g id="edge3" class="edge">
<title>Node3&#45;&gt;Node4</title>
<path fill="none" stroke="midnightblue" d="M80.68,-168.33C55.06,-157.36 19.23,-136.85 33,-112 41.09,-97.41 56.1,-86.92 70.34,-79.76"/>
<polygon fill="midnightblue" stroke="midnightblue" points="71.89,-82.9 79.5,-75.53 68.95,-76.55 71.89,-82.9"/>
</g>
<!-- Node6 -->
<g id="node6" class="node">
<title>Node6</title>
<g id="a_node6"><a xlink:href="common_8h.html" target="_top" xlink:title=" ">
<polygon fill="none" stroke="black" points="42.5,-112.5 42.5,-131.5 167.5,-131.5 167.5,-112.5 42.5,-112.5"/>
<text text-anchor="middle" x="105" y="-119.5" font-family="Helvetica,sans-Serif" font-size="10.00">open62541/common.h</text>
</a>
</g>
</g>
<!-- Node3&#45;&gt;Node6 -->
<g id="edge5" class="edge">
<title>Node3&#45;&gt;Node6</title>
<path fill="none" stroke="midnightblue" d="M104.17,-168.08C104.3,-161.01 104.48,-150.86 104.65,-141.99"/>
<polygon fill="midnightblue" stroke="midnightblue" points="108.15,-141.81 104.84,-131.75 101.15,-141.68 108.15,-141.81"/>
</g>
<!-- Node7 -->
<g id="node7" class="node">
<title>Node7</title>
<g id="a_node7"><a xlink:href="statuscodes_8h.html" target="_top" xlink:title=" ">
<polygon fill="none" stroke="black" points="185.5,-112.5 185.5,-131.5 326.5,-131.5 326.5,-112.5 185.5,-112.5"/>
<text text-anchor="middle" x="256" y="-119.5" font-family="Helvetica,sans-Serif" font-size="10.00">open62541/statuscodes.h</text>
</a>
</g>
</g>
<!-- Node3&#45;&gt;Node7 -->
<g id="edge7" class="edge">
<title>Node3&#45;&gt;Node7</title>
<path fill="none" stroke="midnightblue" d="M128.08,-168.44C153.54,-159.4 193.89,-145.06 222.46,-134.92"/>
<polygon fill="midnightblue" stroke="midnightblue" points="223.78,-138.16 232.03,-131.52 221.43,-131.57 223.78,-138.16"/>
</g>
<!-- Node5 -->
<g id="node5" class="node">
<title>Node5</title>
<g id="a_node5"><a xlink:href="posix_2ua__architecture_8h.html" target="_top" xlink:title=" ">
<polygon fill="none" stroke="black" points="39.5,-0.5 39.5,-19.5 170.5,-19.5 170.5,-0.5 39.5,-0.5"/>
<text text-anchor="middle" x="105" y="-7.5" font-family="Helvetica,sans-Serif" font-size="10.00">posix/ua_architecture.h</text>
</a>
</g>
</g>
<!-- Node4&#45;&gt;Node5 -->
<g id="edge4" class="edge">
<title>Node4&#45;&gt;Node5</title>
<path fill="none" stroke="midnightblue" d="M105,-56.08C105,-49.01 105,-38.86 105,-29.99"/>
<polygon fill="midnightblue" stroke="midnightblue" points="108.5,-29.75 105,-19.75 101.5,-29.75 108.5,-29.75"/>
</g>
<!-- Node6&#45;&gt;Node4 -->
<g id="edge6" class="edge">
<title>Node6&#45;&gt;Node4</title>
<path fill="none" stroke="midnightblue" d="M105,-112.08C105,-105.01 105,-94.86 105,-85.99"/>
<polygon fill="midnightblue" stroke="midnightblue" points="108.5,-85.75 105,-75.75 101.5,-85.75 108.5,-85.75"/>
</g>
<!-- Node8&#45;&gt;Node3 -->
<g id="edge9" class="edge">
<title>Node8&#45;&gt;Node3</title>
<path fill="none" stroke="midnightblue" d="M103.17,-224.08C103.3,-217.01 103.48,-206.86 103.65,-197.99"/>
<polygon fill="midnightblue" stroke="midnightblue" points="107.15,-197.81 103.84,-187.75 100.15,-197.68 107.15,-197.81"/>
</g>
<!-- Node9&#45;&gt;Node8 -->
<g id="edge11" class="edge">
<title>Node9&#45;&gt;Node8</title>
<path fill="none" stroke="midnightblue" d="M102.24,-280.4C102.37,-272.47 102.54,-262.46 102.68,-253.86"/>
<polygon fill="midnightblue" stroke="midnightblue" points="106.19,-253.72 102.85,-243.66 99.19,-253.6 106.19,-253.72"/>
</g>
<!-- Node10&#45;&gt;Node4 -->
<g id="edge13" class="edge">
<title>Node10&#45;&gt;Node4</title>
<path fill="none" stroke="midnightblue" d="M357,-347.49C357,-327.74 357,-277.22 357,-235 357,-235 357,-235 357,-177 357,-146.64 358.72,-132.14 336,-112 312.01,-90.73 230.64,-78.63 171.24,-72.45"/>
<polygon fill="midnightblue" stroke="midnightblue" points="171.47,-68.95 161.17,-71.43 170.77,-75.92 171.47,-68.95"/>
</g>
<!-- Node11 -->
<g id="node11" class="node">
<title>Node11</title>
<g id="a_node11"><a xlink:title=" ">
<polygon fill="none" stroke="#bfbfbf" points="385,-286 385,-305 441,-305 441,-286 385,-286"/>
<text text-anchor="middle" x="413" y="-293" font-family="Helvetica,sans-Serif" font-size="10.00">stdarg.h</text>
</a>
</g>
</g>
<!-- Node10&#45;&gt;Node11 -->
<g id="edge14" class="edge">
<title>Node10&#45;&gt;Node11</title>
<path fill="none" stroke="midnightblue" d="M365.02,-347.48C373.59,-338.37 387.36,-323.74 397.96,-312.48"/>
<polygon fill="midnightblue" stroke="midnightblue" points="400.69,-314.69 404.99,-305.01 395.59,-309.89 400.69,-314.69"/>
</g>
<!-- Node12&#45;&gt;Node3 -->
<g id="edge16" class="edge">
<title>Node12&#45;&gt;Node3</title>
<path fill="none" stroke="midnightblue" d="M256.12,-285.78C244.5,-271.48 219.74,-242.76 194,-224 175.9,-210.8 153.34,-199.53 135.34,-191.57"/>
<polygon fill="midnightblue" stroke="midnightblue" points="136.44,-188.24 125.87,-187.5 133.67,-194.67 136.44,-188.24"/>
</g>
<!-- Node12&#45;&gt;Node8 -->
<g id="edge17" class="edge">
<title>Node12&#45;&gt;Node8</title>
<path fill="none" stroke="midnightblue" d="M240.08,-285.98C212.63,-275.77 166.48,-258.61 135.4,-247.05"/>
<polygon fill="midnightblue" stroke="midnightblue" points="136.47,-243.71 125.88,-243.51 134.03,-250.28 136.47,-243.71"/>
</g>
</g>
</svg>
