<?xml version="1.0" encoding="UTF-8" standalone="no"?>
<!DOCTYPE svg PUBLIC "-//W3C//DTD SVG 1.1//EN"
 "http://www.w3.org/Graphics/SVG/1.1/DTD/svg11.dtd">
<!-- Generated by graphviz version 2.43.0 (0)
 -->
<!-- Title: /home/runner/work/open62541pp/open62541pp/build/doc/open62541/src_generated/open62541/transport_generated_handling.h Pages: 1 -->
<svg width="341pt" height="397pt"
 viewBox="0.00 0.00 341.00 397.00" xmlns="http://www.w3.org/2000/svg" xmlns:xlink="http://www.w3.org/1999/xlink">
<g id="graph0" class="graph" transform="scale(1 1) rotate(0) translate(4 393)">
<title>/home/runner/work/open62541pp/open62541pp/build/doc/open62541/src_generated/open62541/transport_generated_handling.h</title>
<!-- Node1 -->
<g id="node1" class="node">
<title>Node1</title>
<g id="a_node1"><a xlink:title=" ">
<polygon fill="#bfbfbf" stroke="black" points="15,-336.5 15,-388.5 208,-388.5 208,-336.5 15,-336.5"/>
<text text-anchor="start" x="23" y="-376.5" font-family="Helvetica,sans-Serif" font-size="10.00">/home/runner/work/open62541pp</text>
<text text-anchor="start" x="23" y="-365.5" font-family="Helvetica,sans-Serif" font-size="10.00">/open62541pp/build/doc/open62541</text>
<text text-anchor="start" x="23" y="-354.5" font-family="Helvetica,sans-Serif" font-size="10.00">/src_generated/open62541/transport</text>
<text text-anchor="middle" x="111.5" y="-343.5" font-family="Helvetica,sans-Serif" font-size="10.00">_generated_handling.h</text>
</a>
</g>
</g>
<!-- Node2 -->
<g id="node2" class="node">
<title>Node2</title>
<g id="a_node2"><a xlink:href="transport__generated_8h.html" target="_top" xlink:title=" ">
<polygon fill="none" stroke="black" points="49,-280.5 49,-299.5 174,-299.5 174,-280.5 49,-280.5"/>
<text text-anchor="middle" x="111.5" y="-287.5" font-family="Helvetica,sans-Serif" font-size="10.00">transport_generated.h</text>
</a>
</g>
</g>
<!-- Node1&#45;&gt;Node2 -->
<g id="edge1" class="edge">
<title>Node1&#45;&gt;Node2</title>
<path fill="none" stroke="midnightblue" d="M111.5,-336.45C111.5,-327.73 111.5,-318.1 111.5,-309.96"/>
<polygon fill="midnightblue" stroke="midnightblue" points="115,-309.7 111.5,-299.7 108,-309.7 115,-309.7"/>
</g>
<!-- Node3 -->
<g id="node3" class="node">
<title>Node3</title>
<g id="a_node3"><a xlink:href="types_8h.html" target="_top" xlink:title=" ">
<polygon fill="none" stroke="black" points="56.5,-168.5 56.5,-187.5 166.5,-187.5 166.5,-168.5 56.5,-168.5"/>
<text text-anchor="middle" x="111.5" y="-175.5" font-family="Helvetica,sans-Serif" font-size="10.00">open62541/types.h</text>
</a>
</g>
</g>
<!-- Node2&#45;&gt;Node3 -->
<g id="edge2" class="edge">
<title>Node2&#45;&gt;Node3</title>
<path fill="none" stroke="midnightblue" d="M101.34,-280.19C92.59,-271.87 80.6,-258.54 75.5,-244 69.28,-226.26 81.81,-207.65 93.76,-194.91"/>
<polygon fill="midnightblue" stroke="midnightblue" points="96.3,-197.32 100.95,-187.8 91.38,-192.34 96.3,-197.32"/>
</g>
<!-- Node8 -->
<g id="node8" class="node">
<title>Node8</title>
<g id="a_node8"><a xlink:href="types__generated_8h.html" target="_top" xlink:title=" ">
<polygon fill="none" stroke="black" points="84.5,-224.5 84.5,-243.5 248.5,-243.5 248.5,-224.5 84.5,-224.5"/>
<text text-anchor="middle" x="166.5" y="-231.5" font-family="Helvetica,sans-Serif" font-size="10.00">open62541/types_generated.h</text>
</a>
</g>
</g>
<!-- Node2&#45;&gt;Node8 -->
<g id="edge8" class="edge">
<title>Node2&#45;&gt;Node8</title>
<path fill="none" stroke="midnightblue" d="M120.58,-280.08C128.67,-272.14 140.7,-260.34 150.41,-250.8"/>
<polygon fill="midnightblue" stroke="midnightblue" points="152.9,-253.25 157.59,-243.75 148,-248.26 152.9,-253.25"/>
</g>
<!-- Node4 -->
<g id="node4" class="node">
<title>Node4</title>
<g id="a_node4"><a xlink:href="config_8h.html" target="_top" xlink:title=" ">
<polygon fill="none" stroke="black" points="9.5,-56.5 9.5,-75.5 121.5,-75.5 121.5,-56.5 9.5,-56.5"/>
<text text-anchor="middle" x="65.5" y="-63.5" font-family="Helvetica,sans-Serif" font-size="10.00">open62541/config.h</text>
</a>
</g>
</g>
<!-- Node3&#45;&gt;Node4 -->
<g id="edge3" class="edge">
<title>Node3&#45;&gt;Node4</title>
<path fill="none" stroke="midnightblue" d="M86,-168.47C69.51,-161.48 49.36,-149.79 39.5,-132 30.8,-116.3 40.79,-97.09 50.8,-83.64"/>
<polygon fill="midnightblue" stroke="midnightblue" points="53.63,-85.71 57.18,-75.73 48.18,-81.31 53.63,-85.71"/>
</g>
<!-- Node6 -->
<g id="node6" class="node">
<title>Node6</title>
<g id="a_node6"><a xlink:href="common_8h.html" target="_top" xlink:title=" ">
<polygon fill="none" stroke="black" points="49,-112.5 49,-131.5 174,-131.5 174,-112.5 49,-112.5"/>
<text text-anchor="middle" x="111.5" y="-119.5" font-family="Helvetica,sans-Serif" font-size="10.00">open62541/common.h</text>
</a>
</g>
</g>
<!-- Node3&#45;&gt;Node6 -->
<g id="edge5" class="edge">
<title>Node3&#45;&gt;Node6</title>
<path fill="none" stroke="midnightblue" d="M111.5,-168.08C111.5,-161.01 111.5,-150.86 111.5,-141.99"/>
<polygon fill="midnightblue" stroke="midnightblue" points="115,-141.75 111.5,-131.75 108,-141.75 115,-141.75"/>
</g>
<!-- Node7 -->
<g id="node7" class="node">
<title>Node7</title>
<g id="a_node7"><a xlink:href="statuscodes_8h.html" target="_top" xlink:title=" ">
<polygon fill="none" stroke="black" points="192,-112.5 192,-131.5 333,-131.5 333,-112.5 192,-112.5"/>
<text text-anchor="middle" x="262.5" y="-119.5" font-family="Helvetica,sans-Serif" font-size="10.00">open62541/statuscodes.h</text>
</a>
</g>
</g>
<!-- Node3&#45;&gt;Node7 -->
<g id="edge7" class="edge">
<title>Node3&#45;&gt;Node7</title>
<path fill="none" stroke="midnightblue" d="M135.43,-168.44C160.72,-159.4 200.8,-145.06 229.18,-134.92"/>
<polygon fill="midnightblue" stroke="midnightblue" points="230.45,-138.18 238.69,-131.52 228.09,-131.59 230.45,-138.18"/>
</g>
<!-- Node5 -->
<g id="node5" class="node">
<title>Node5</title>
<g id="a_node5"><a xlink:href="posix_2ua__architecture_8h.html" target="_top" xlink:title=" ">
<polygon fill="none" stroke="black" points="0,-0.5 0,-19.5 131,-19.5 131,-0.5 0,-0.5"/>
<text text-anchor="middle" x="65.5" y="-7.5" font-family="Helvetica,sans-Serif" font-size="10.00">posix/ua_architecture.h</text>
</a>
</g>
</g>
<!-- Node4&#45;&gt;Node5 -->
<g id="edge4" class="edge">
<title>Node4&#45;&gt;Node5</title>
<path fill="none" stroke="midnightblue" d="M65.5,-56.08C65.5,-49.01 65.5,-38.86 65.5,-29.99"/>
<polygon fill="midnightblue" stroke="midnightblue" points="69,-29.75 65.5,-19.75 62,-29.75 69,-29.75"/>
</g>
<!-- Node6&#45;&gt;Node4 -->
<g id="edge6" class="edge">
<title>Node6&#45;&gt;Node4</title>
<path fill="none" stroke="midnightblue" d="M103.9,-112.08C97.27,-104.3 87.48,-92.8 79.44,-83.37"/>
<polygon fill="midnightblue" stroke="midnightblue" points="82.1,-81.09 72.95,-75.75 76.77,-85.63 82.1,-81.09"/>
</g>
<!-- Node8&#45;&gt;Node3 -->
<g id="edge9" class="edge">
<title>Node8&#45;&gt;Node3</title>
<path fill="none" stroke="midnightblue" d="M157.42,-224.08C149.33,-216.14 137.3,-204.34 127.59,-194.8"/>
<polygon fill="midnightblue" stroke="midnightblue" points="130,-192.26 120.41,-187.75 125.1,-197.25 130,-192.26"/>
</g>
</g>
</svg>
