<?xml version="1.0" encoding="UTF-8" standalone="no"?>
<!DOCTYPE svg PUBLIC "-//W3C//DTD SVG 1.1//EN"
 "http://www.w3.org/Graphics/SVG/1.1/DTD/svg11.dtd">
<!-- Generated by graphviz version 2.43.0 (0)
 -->
<!-- Title: /home/runner/work/open62541pp/open62541pp/build/doc/open62541/src/pubsub/ua_pubsub_ns0.h Pages: 1 -->
<svg width="1831pt" height="744pt"
 viewBox="0.00 0.00 1831.24 744.00" xmlns="http://www.w3.org/2000/svg" xmlns:xlink="http://www.w3.org/1999/xlink">
<g id="graph0" class="graph" transform="scale(1 1) rotate(0) translate(4 740)">
<title>/home/runner/work/open62541pp/open62541pp/build/doc/open62541/src/pubsub/ua_pubsub_ns0.h</title>
<!-- Node1 -->
<g id="node1" class="node">
<title>Node1</title>
<g id="a_node1"><a xlink:title=" ">
<polygon fill="#bfbfbf" stroke="black" points="637.74,-694.5 637.74,-735.5 827.74,-735.5 827.74,-694.5 637.74,-694.5"/>
<text text-anchor="start" x="645.74" y="-723.5" font-family="Helvetica,sans-Serif" font-size="10.00">/home/runner/work/open62541pp</text>
<text text-anchor="start" x="645.74" y="-712.5" font-family="Helvetica,sans-Serif" font-size="10.00">/open62541pp/build/doc/open62541</text>
<text text-anchor="middle" x="732.74" y="-701.5" font-family="Helvetica,sans-Serif" font-size="10.00">/src/pubsub/ua_pubsub_ns0.h</text>
</a>
</g>
</g>
<!-- Node2 -->
<g id="node2" class="node">
<title>Node2</title>
<g id="a_node2"><a xlink:href="ua__server__internal_8h.html" target="_top" xlink:title=" ">
<polygon fill="none" stroke="black" points="920.74,-638.5 920.74,-657.5 1070.74,-657.5 1070.74,-638.5 920.74,-638.5"/>
<text text-anchor="middle" x="995.74" y="-645.5" font-family="Helvetica,sans-Serif" font-size="10.00">server/ua_server_internal.h</text>
</a>
</g>
</g>
<!-- Node1&#45;&gt;Node2 -->
<g id="edge1" class="edge">
<title>Node1&#45;&gt;Node2</title>
<path fill="none" stroke="midnightblue" d="M811.65,-694.5C857.35,-683.2 913.19,-669.4 951.3,-659.98"/>
<polygon fill="midnightblue" stroke="midnightblue" points="952.21,-663.36 961.08,-657.57 950.53,-656.57 952.21,-663.36"/>
</g>
<!-- Node30 -->
<g id="node30" class="node">
<title>Node30</title>
<g id="a_node30"><a xlink:href="ua__pubsub_8h.html" target="_top" xlink:title=" ">
<polygon fill="none" stroke="black" points="331.74,-582.5 331.74,-601.5 409.74,-601.5 409.74,-582.5 331.74,-582.5"/>
<text text-anchor="middle" x="370.74" y="-589.5" font-family="Helvetica,sans-Serif" font-size="10.00">ua_pubsub.h</text>
</a>
</g>
</g>
<!-- Node1&#45;&gt;Node30 -->
<g id="edge63" class="edge">
<title>Node1&#45;&gt;Node30</title>
<path fill="none" stroke="midnightblue" d="M674.18,-694.42C598.36,-669.08 468.58,-625.7 406.22,-604.86"/>
<polygon fill="midnightblue" stroke="midnightblue" points="407.05,-601.45 396.46,-601.6 404.83,-608.09 407.05,-601.45"/>
</g>
<!-- Node3 -->
<g id="node3" class="node">
<title>Node3</title>
<g id="a_node3"><a xlink:href="server_8h.html" target="_top" xlink:title=" ">
<polygon fill="none" stroke="black" points="514.24,-470.5 514.24,-489.5 627.24,-489.5 627.24,-470.5 514.24,-470.5"/>
<text text-anchor="middle" x="570.74" y="-477.5" font-family="Helvetica,sans-Serif" font-size="10.00">open62541/server.h</text>
</a>
</g>
</g>
<!-- Node2&#45;&gt;Node3 -->
<g id="edge2" class="edge">
<title>Node2&#45;&gt;Node3</title>
<path fill="none" stroke="midnightblue" d="M973.79,-638.42C903.54,-610.99 684.11,-525.28 602.09,-493.24"/>
<polygon fill="midnightblue" stroke="midnightblue" points="603.15,-489.9 592.57,-489.52 600.61,-496.42 603.15,-489.9"/>
</g>
<!-- Node18 -->
<g id="node18" class="node">
<title>Node18</title>
<g id="a_node18"><a xlink:href="nodestore_8h.html" target="_top" xlink:title=" ">
<polygon fill="none" stroke="black" points="584.74,-414.5 584.74,-433.5 748.74,-433.5 748.74,-414.5 584.74,-414.5"/>
<text text-anchor="middle" x="666.74" y="-421.5" font-family="Helvetica,sans-Serif" font-size="10.00">open62541/plugin/nodestore.h</text>
</a>
</g>
</g>
<!-- Node2&#45;&gt;Node18 -->
<g id="edge37" class="edge">
<title>Node2&#45;&gt;Node18</title>
<path fill="none" stroke="midnightblue" d="M992.78,-638.4C989.69,-629.37 984.74,-614.73 980.74,-602 962.4,-543.64 987.62,-510.47 941.74,-470 927.68,-457.6 829.79,-443.71 754.76,-434.69"/>
<polygon fill="midnightblue" stroke="midnightblue" points="755.15,-431.21 744.8,-433.5 754.32,-438.16 755.15,-431.21"/>
</g>
<!-- Node21 -->
<g id="node21" class="node">
<title>Node21</title>
<g id="a_node21"><a xlink:href="ua__connection__internal_8h.html" target="_top" xlink:title=" ">
<polygon fill="none" stroke="black" points="1411.24,-470.5 1411.24,-489.5 1550.24,-489.5 1550.24,-470.5 1411.24,-470.5"/>
<text text-anchor="middle" x="1480.74" y="-477.5" font-family="Helvetica,sans-Serif" font-size="10.00">ua_connection_internal.h</text>
</a>
</g>
</g>
<!-- Node2&#45;&gt;Node21 -->
<g id="edge38" class="edge">
<title>Node2&#45;&gt;Node21</title>
<path fill="none" stroke="midnightblue" d="M1032.19,-638.48C1096.24,-623.04 1232.73,-588.13 1343.74,-546 1383.86,-530.78 1428.42,-508.59 1455.51,-494.48"/>
<polygon fill="midnightblue" stroke="midnightblue" points="1457.44,-497.42 1464.66,-489.67 1454.18,-491.22 1457.44,-497.42"/>
</g>
<!-- Node23 -->
<g id="node23" class="node">
<title>Node23</title>
<g id="a_node23"><a xlink:href="ua__session_8h.html" target="_top" xlink:title=" ">
<polygon fill="none" stroke="black" points="989.74,-582.5 989.74,-601.5 1069.74,-601.5 1069.74,-582.5 989.74,-582.5"/>
<text text-anchor="middle" x="1029.74" y="-589.5" font-family="Helvetica,sans-Serif" font-size="10.00">ua_session.h</text>
</a>
</g>
</g>
<!-- Node2&#45;&gt;Node23 -->
<g id="edge43" class="edge">
<title>Node2&#45;&gt;Node23</title>
<path fill="none" stroke="midnightblue" d="M1001.36,-638.08C1006.11,-630.53 1013.06,-619.49 1018.89,-610.23"/>
<polygon fill="midnightblue" stroke="midnightblue" points="1021.87,-612.08 1024.23,-601.75 1015.94,-608.35 1021.87,-612.08"/>
</g>
<!-- Node26 -->
<g id="node26" class="node">
<title>Node26</title>
<g id="a_node26"><a xlink:href="ua__server__async_8h.html" target="_top" xlink:title=" ">
<polygon fill="none" stroke="black" points="824.24,-526.5 824.24,-545.5 931.24,-545.5 931.24,-526.5 824.24,-526.5"/>
<text text-anchor="middle" x="877.74" y="-533.5" font-family="Helvetica,sans-Serif" font-size="10.00">ua_server_async.h</text>
</a>
</g>
</g>
<!-- Node2&#45;&gt;Node26 -->
<g id="edge53" class="edge">
<title>Node2&#45;&gt;Node26</title>
<path fill="none" stroke="midnightblue" d="M986.48,-638.37C966.58,-619.81 919.49,-575.91 894.3,-552.44"/>
<polygon fill="midnightblue" stroke="midnightblue" points="896.66,-549.85 886.96,-545.59 891.89,-554.97 896.66,-549.85"/>
</g>
<!-- Node27 -->
<g id="node27" class="node">
<title>Node27</title>
<g id="a_node27"><a xlink:href="ua__util__internal_8h.html" target="_top" xlink:title=" ">
<polygon fill="none" stroke="black" points="1645.24,-470.5 1645.24,-489.5 1746.24,-489.5 1746.24,-470.5 1645.24,-470.5"/>
<text text-anchor="middle" x="1695.74" y="-477.5" font-family="Helvetica,sans-Serif" font-size="10.00">ua_util_internal.h</text>
</a>
</g>
</g>
<!-- Node2&#45;&gt;Node27 -->
<g id="edge62" class="edge">
<title>Node2&#45;&gt;Node27</title>
<path fill="none" stroke="midnightblue" d="M1042,-638.48C1087.59,-629.91 1159.17,-615.99 1220.74,-602 1382.26,-565.3 1572.74,-514.46 1654.79,-492.2"/>
<polygon fill="midnightblue" stroke="midnightblue" points="1655.74,-495.57 1664.48,-489.57 1653.91,-488.81 1655.74,-495.57"/>
</g>
<!-- Node28 -->
<g id="node28" class="node">
<title>Node28</title>
<g id="a_node28"><a xlink:href="ua__timer_8h.html" target="_top" xlink:title=" ">
<polygon fill="none" stroke="black" points="1661.74,-526.5 1661.74,-545.5 1729.74,-545.5 1729.74,-526.5 1661.74,-526.5"/>
<text text-anchor="middle" x="1695.74" y="-533.5" font-family="Helvetica,sans-Serif" font-size="10.00">ua_timer.h</text>
</a>
</g>
</g>
<!-- Node2&#45;&gt;Node28 -->
<g id="edge59" class="edge">
<title>Node2&#45;&gt;Node28</title>
<path fill="none" stroke="midnightblue" d="M1070.96,-645.55C1207.96,-642.21 1492.69,-631.8 1586.74,-602 1621.29,-591.05 1656.45,-567.33 1677.16,-551.78"/>
<polygon fill="midnightblue" stroke="midnightblue" points="1679.32,-554.54 1685.11,-545.67 1675.05,-548.99 1679.32,-554.54"/>
</g>
<!-- Node4 -->
<g id="node4" class="node">
<title>Node4</title>
<g id="a_node4"><a xlink:href="util_8h.html" target="_top" xlink:title=" ">
<polygon fill="none" stroke="black" points="838.74,-353 838.74,-372 936.74,-372 936.74,-353 838.74,-353"/>
<text text-anchor="middle" x="887.74" y="-360" font-family="Helvetica,sans-Serif" font-size="10.00">open62541/util.h</text>
</a>
</g>
</g>
<!-- Node3&#45;&gt;Node4 -->
<g id="edge3" class="edge">
<title>Node3&#45;&gt;Node4</title>
<path fill="none" stroke="midnightblue" d="M621.83,-470.44C660.04,-463.15 713.16,-451.11 757.74,-434 763.22,-431.9 827.07,-396.9 863.2,-377.02"/>
<polygon fill="midnightblue" stroke="midnightblue" points="865.09,-379.98 872.16,-372.09 861.72,-373.84 865.09,-379.98"/>
</g>
<!-- Node5 -->
<g id="node5" class="node">
<title>Node5</title>
<g id="a_node5"><a xlink:href="types_8h.html" target="_top" xlink:title=" ">
<polygon fill="none" stroke="black" points="718.74,-168.5 718.74,-187.5 828.74,-187.5 828.74,-168.5 718.74,-168.5"/>
<text text-anchor="middle" x="773.74" y="-175.5" font-family="Helvetica,sans-Serif" font-size="10.00">open62541/types.h</text>
</a>
</g>
</g>
<!-- Node3&#45;&gt;Node5 -->
<g id="edge14" class="edge">
<title>Node3&#45;&gt;Node5</title>
<path fill="none" stroke="midnightblue" d="M513.82,-473.4C463.43,-467.14 395.39,-454.99 378.74,-434 371.21,-424.5 363.34,-406.52 382.74,-347 424.91,-217.63 608.78,-187.45 708.64,-180.7"/>
<polygon fill="midnightblue" stroke="midnightblue" points="708.85,-184.19 718.62,-180.09 708.42,-177.21 708.85,-184.19"/>
</g>
<!-- Node8 -->
<g id="node8" class="node">
<title>Node8</title>
<g id="a_node8"><a xlink:href="common_8h.html" target="_top" xlink:title=" ">
<polygon fill="none" stroke="black" points="620.24,-112.5 620.24,-131.5 745.24,-131.5 745.24,-112.5 620.24,-112.5"/>
<text text-anchor="middle" x="682.74" y="-119.5" font-family="Helvetica,sans-Serif" font-size="10.00">open62541/common.h</text>
</a>
</g>
</g>
<!-- Node3&#45;&gt;Node8 -->
<g id="edge15" class="edge">
<title>Node3&#45;&gt;Node8</title>
<path fill="none" stroke="midnightblue" d="M514.02,-478.23C349.42,-474.05 -108.49,-447.43 23.74,-280 96.27,-188.16 454.27,-144.23 610.08,-129.22"/>
<polygon fill="midnightblue" stroke="midnightblue" points="610.42,-132.71 620.05,-128.28 609.76,-125.74 610.42,-132.71"/>
</g>
<!-- Node10 -->
<g id="node10" class="node">
<title>Node10</title>
<g id="a_node10"><a xlink:href="types__generated_8h.html" target="_top" xlink:title=" ">
<polygon fill="none" stroke="black" points="536.74,-224.5 536.74,-243.5 700.74,-243.5 700.74,-224.5 536.74,-224.5"/>
<text text-anchor="middle" x="618.74" y="-231.5" font-family="Helvetica,sans-Serif" font-size="10.00">open62541/types_generated.h</text>
</a>
</g>
</g>
<!-- Node3&#45;&gt;Node10 -->
<g id="edge17" class="edge">
<title>Node3&#45;&gt;Node10</title>
<path fill="none" stroke="midnightblue" d="M514.17,-472.96C465.49,-466.46 400.67,-454.23 384.74,-434 379.25,-427.01 383.89,-422.85 384.74,-414 387.65,-383.81 381.67,-372.72 397.74,-347 423.98,-305.01 442.99,-303.17 486.74,-280 514.54,-265.28 548.12,-253.91 574.45,-246.29"/>
<polygon fill="midnightblue" stroke="midnightblue" points="575.48,-249.63 584.16,-243.55 573.58,-242.89 575.48,-249.63"/>
</g>
<!-- Node11 -->
<g id="node11" class="node">
<title>Node11</title>
<g id="a_node11"><a xlink:href="types__generated__handling_8h.html" target="_top" xlink:title=" ">
<polygon fill="none" stroke="black" points="496.24,-280.5 496.24,-310.5 651.24,-310.5 651.24,-280.5 496.24,-280.5"/>
<text text-anchor="start" x="504.24" y="-298.5" font-family="Helvetica,sans-Serif" font-size="10.00">open62541/types_generated</text>
<text text-anchor="middle" x="573.74" y="-287.5" font-family="Helvetica,sans-Serif" font-size="10.00">_handling.h</text>
</a>
</g>
</g>
<!-- Node3&#45;&gt;Node11 -->
<g id="edge18" class="edge">
<title>Node3&#45;&gt;Node11</title>
<path fill="none" stroke="midnightblue" d="M514.09,-471.78C469.31,-464.78 412.03,-452.48 397.74,-434 356.71,-380.93 451.5,-336.8 517.29,-313.76"/>
<polygon fill="midnightblue" stroke="midnightblue" points="518.44,-317.06 526.77,-310.51 516.17,-310.44 518.44,-317.06"/>
</g>
<!-- Node12 -->
<g id="node12" class="node">
<title>Node12</title>
<g id="a_node12"><a xlink:href="nodeids_8h.html" target="_top" xlink:title=" ">
<polygon fill="none" stroke="black" points="407.24,-414.5 407.24,-433.5 528.24,-433.5 528.24,-414.5 407.24,-414.5"/>
<text text-anchor="middle" x="467.74" y="-421.5" font-family="Helvetica,sans-Serif" font-size="10.00">open62541/nodeids.h</text>
</a>
</g>
</g>
<!-- Node3&#45;&gt;Node12 -->
<g id="edge16" class="edge">
<title>Node3&#45;&gt;Node12</title>
<path fill="none" stroke="midnightblue" d="M554.19,-470.32C537.75,-461.7 512.31,-448.36 493.27,-438.39"/>
<polygon fill="midnightblue" stroke="midnightblue" points="494.73,-435.2 484.25,-433.65 491.48,-441.4 494.73,-435.2"/>
</g>
<!-- Node13 -->
<g id="node13" class="node">
<title>Node13</title>
<g id="a_node13"><a xlink:href="securitypolicy_8h.html" target="_top" xlink:title=" ">
<polygon fill="none" stroke="black" points="1080.74,-414.5 1080.74,-433.5 1262.74,-433.5 1262.74,-414.5 1080.74,-414.5"/>
<text text-anchor="middle" x="1171.74" y="-421.5" font-family="Helvetica,sans-Serif" font-size="10.00">open62541/plugin/securitypolicy.h</text>
</a>
</g>
</g>
<!-- Node3&#45;&gt;Node13 -->
<g id="edge19" class="edge">
<title>Node3&#45;&gt;Node13</title>
<path fill="none" stroke="midnightblue" d="M627.28,-473.92C728.78,-464.8 943.14,-445.54 1070.52,-434.09"/>
<polygon fill="midnightblue" stroke="midnightblue" points="1071.03,-437.56 1080.68,-433.18 1070.4,-430.59 1071.03,-437.56"/>
</g>
<!-- Node14 -->
<g id="node14" class="node">
<title>Node14</title>
<g id="a_node14"><a xlink:href="log_8h.html" target="_top" xlink:title=" ">
<polygon fill="none" stroke="black" points="1293.24,-353 1293.24,-372 1424.24,-372 1424.24,-353 1293.24,-353"/>
<text text-anchor="middle" x="1358.74" y="-360" font-family="Helvetica,sans-Serif" font-size="10.00">open62541/plugin/log.h</text>
</a>
</g>
</g>
<!-- Node3&#45;&gt;Node14 -->
<g id="edge35" class="edge">
<title>Node3&#45;&gt;Node14</title>
<path fill="none" stroke="midnightblue" d="M627.3,-476.61C819.89,-468.39 1438.67,-441.45 1445.74,-434 1467.49,-411.1 1426.6,-388.87 1393.81,-375.69"/>
<polygon fill="midnightblue" stroke="midnightblue" points="1395,-372.39 1384.41,-372.05 1392.47,-378.92 1395,-372.39"/>
</g>
<!-- Node16 -->
<g id="node16" class="node">
<title>Node16</title>
<g id="a_node16"><a xlink:href="pki_8h.html" target="_top" xlink:title=" ">
<polygon fill="none" stroke="black" points="708.24,-286 708.24,-305 839.24,-305 839.24,-286 708.24,-286"/>
<text text-anchor="middle" x="773.74" y="-293" font-family="Helvetica,sans-Serif" font-size="10.00">open62541/plugin/pki.h</text>
</a>
</g>
</g>
<!-- Node3&#45;&gt;Node16 -->
<g id="edge36" class="edge">
<title>Node3&#45;&gt;Node16</title>
<path fill="none" stroke="midnightblue" d="M569.89,-470.25C568.97,-457.44 568.5,-433.04 575.74,-414 589.06,-379.02 596.41,-368.91 626.74,-347 653.55,-327.64 688.38,-315.24 717.41,-307.58"/>
<polygon fill="midnightblue" stroke="midnightblue" points="718.57,-310.89 727.41,-305.06 716.86,-304.11 718.57,-310.89"/>
</g>
<!-- Node17 -->
<g id="node17" class="node">
<title>Node17</title>
<g id="a_node17"><a xlink:href="accesscontrol_8h.html" target="_top" xlink:title=" ">
<polygon fill="none" stroke="black" points="804.74,-414.5 804.74,-433.5 986.74,-433.5 986.74,-414.5 804.74,-414.5"/>
<text text-anchor="middle" x="895.74" y="-421.5" font-family="Helvetica,sans-Serif" font-size="10.00">open62541/plugin/accesscontrol.h</text>
</a>
</g>
</g>
<!-- Node3&#45;&gt;Node17 -->
<g id="edge27" class="edge">
<title>Node3&#45;&gt;Node17</title>
<path fill="none" stroke="midnightblue" d="M622.24,-470.44C679.89,-460.87 773.23,-445.36 834.55,-435.17"/>
<polygon fill="midnightblue" stroke="midnightblue" points="835.2,-438.61 844.49,-433.52 834.05,-431.7 835.2,-438.61"/>
</g>
<!-- Node3&#45;&gt;Node18 -->
<g id="edge29" class="edge">
<title>Node3&#45;&gt;Node18</title>
<path fill="none" stroke="midnightblue" d="M586.17,-470.32C601.28,-461.82 624.56,-448.73 642.21,-438.8"/>
<polygon fill="midnightblue" stroke="midnightblue" points="644.36,-441.61 651.36,-433.65 640.93,-435.51 644.36,-441.61"/>
</g>
<!-- Node20 -->
<g id="node20" class="node">
<title>Node20</title>
<g id="a_node20"><a xlink:href="network_8h.html" target="_top" xlink:title=" ">
<polygon fill="none" stroke="black" points="1281.24,-414.5 1281.24,-433.5 1436.24,-433.5 1436.24,-414.5 1281.24,-414.5"/>
<text text-anchor="middle" x="1358.74" y="-421.5" font-family="Helvetica,sans-Serif" font-size="10.00">open62541/plugin/network.h</text>
</a>
</g>
</g>
<!-- Node3&#45;&gt;Node20 -->
<g id="edge32" class="edge">
<title>Node3&#45;&gt;Node20</title>
<path fill="none" stroke="midnightblue" d="M627.59,-476.1C745.37,-469.94 1024.86,-454.46 1270.76,-434.05"/>
<polygon fill="midnightblue" stroke="midnightblue" points="1271.29,-437.52 1280.97,-433.2 1270.71,-430.54 1271.29,-437.52"/>
</g>
<!-- Node4&#45;&gt;Node5 -->
<g id="edge4" class="edge">
<title>Node4&#45;&gt;Node5</title>
<path fill="none" stroke="midnightblue" d="M884.02,-352.67C877.47,-337.42 863.09,-305.35 847.74,-280 828.81,-248.71 802.8,-214.93 787.19,-195.44"/>
<polygon fill="midnightblue" stroke="midnightblue" points="789.83,-193.13 780.82,-187.55 784.38,-197.53 789.83,-193.13"/>
</g>
<!-- Node4&#45;&gt;Node10 -->
<g id="edge10" class="edge">
<title>Node4&#45;&gt;Node10</title>
<path fill="none" stroke="midnightblue" d="M838.63,-355.23C798.92,-348.6 742.6,-335.56 698.74,-311 684.2,-302.86 652.46,-270.66 633.62,-250.88"/>
<polygon fill="midnightblue" stroke="midnightblue" points="636.07,-248.37 626.65,-243.51 630.98,-253.18 636.07,-248.37"/>
</g>
<!-- Node4&#45;&gt;Node11 -->
<g id="edge12" class="edge">
<title>Node4&#45;&gt;Node11</title>
<path fill="none" stroke="midnightblue" d="M846.37,-352.94C796.99,-342.71 713.38,-325.41 651.74,-312.65"/>
<polygon fill="midnightblue" stroke="midnightblue" points="652.16,-309.16 641.66,-310.56 650.74,-316.01 652.16,-309.16"/>
</g>
<!-- Node6 -->
<g id="node6" class="node">
<title>Node6</title>
<g id="a_node6"><a xlink:href="config_8h.html" target="_top" xlink:title=" ">
<polygon fill="none" stroke="black" points="717.74,-56.5 717.74,-75.5 829.74,-75.5 829.74,-56.5 717.74,-56.5"/>
<text text-anchor="middle" x="773.74" y="-63.5" font-family="Helvetica,sans-Serif" font-size="10.00">open62541/config.h</text>
</a>
</g>
</g>
<!-- Node5&#45;&gt;Node6 -->
<g id="edge5" class="edge">
<title>Node5&#45;&gt;Node6</title>
<path fill="none" stroke="midnightblue" d="M773.74,-168.37C773.74,-150.62 773.74,-109.67 773.74,-85.6"/>
<polygon fill="midnightblue" stroke="midnightblue" points="777.24,-85.59 773.74,-75.59 770.24,-85.59 777.24,-85.59"/>
</g>
<!-- Node5&#45;&gt;Node8 -->
<g id="edge7" class="edge">
<title>Node5&#45;&gt;Node8</title>
<path fill="none" stroke="midnightblue" d="M759.12,-168.32C744.79,-159.82 722.73,-146.73 705.99,-136.8"/>
<polygon fill="midnightblue" stroke="midnightblue" points="707.71,-133.75 697.33,-131.65 704.14,-139.77 707.71,-133.75"/>
</g>
<!-- Node9 -->
<g id="node9" class="node">
<title>Node9</title>
<g id="a_node9"><a xlink:href="statuscodes_8h.html" target="_top" xlink:title=" ">
<polygon fill="none" stroke="black" points="802.24,-112.5 802.24,-131.5 943.24,-131.5 943.24,-112.5 802.24,-112.5"/>
<text text-anchor="middle" x="872.74" y="-119.5" font-family="Helvetica,sans-Serif" font-size="10.00">open62541/statuscodes.h</text>
</a>
</g>
</g>
<!-- Node5&#45;&gt;Node9 -->
<g id="edge9" class="edge">
<title>Node5&#45;&gt;Node9</title>
<path fill="none" stroke="midnightblue" d="M789.65,-168.32C805.38,-159.74 829.69,-146.49 847.95,-136.52"/>
<polygon fill="midnightblue" stroke="midnightblue" points="849.77,-139.52 856.88,-131.65 846.42,-133.37 849.77,-139.52"/>
</g>
<!-- Node7 -->
<g id="node7" class="node">
<title>Node7</title>
<g id="a_node7"><a xlink:href="posix_2ua__architecture_8h.html" target="_top" xlink:title=" ">
<polygon fill="none" stroke="black" points="708.24,-0.5 708.24,-19.5 839.24,-19.5 839.24,-0.5 708.24,-0.5"/>
<text text-anchor="middle" x="773.74" y="-7.5" font-family="Helvetica,sans-Serif" font-size="10.00">posix/ua_architecture.h</text>
</a>
</g>
</g>
<!-- Node6&#45;&gt;Node7 -->
<g id="edge6" class="edge">
<title>Node6&#45;&gt;Node7</title>
<path fill="none" stroke="midnightblue" d="M773.74,-56.08C773.74,-49.01 773.74,-38.86 773.74,-29.99"/>
<polygon fill="midnightblue" stroke="midnightblue" points="777.24,-29.75 773.74,-19.75 770.24,-29.75 777.24,-29.75"/>
</g>
<!-- Node8&#45;&gt;Node6 -->
<g id="edge8" class="edge">
<title>Node8&#45;&gt;Node6</title>
<path fill="none" stroke="midnightblue" d="M697.36,-112.32C711.69,-103.82 733.76,-90.73 750.49,-80.8"/>
<polygon fill="midnightblue" stroke="midnightblue" points="752.34,-83.77 759.16,-75.65 748.77,-77.75 752.34,-83.77"/>
</g>
<!-- Node10&#45;&gt;Node5 -->
<g id="edge11" class="edge">
<title>Node10&#45;&gt;Node5</title>
<path fill="none" stroke="midnightblue" d="M643.3,-224.44C669.27,-215.4 710.41,-201.06 739.54,-190.92"/>
<polygon fill="midnightblue" stroke="midnightblue" points="741.01,-194.11 749.3,-187.52 738.7,-187.5 741.01,-194.11"/>
</g>
<!-- Node11&#45;&gt;Node10 -->
<g id="edge13" class="edge">
<title>Node11&#45;&gt;Node10</title>
<path fill="none" stroke="midnightblue" d="M584.41,-280.4C590.88,-271.84 599.18,-260.87 605.99,-251.86"/>
<polygon fill="midnightblue" stroke="midnightblue" points="608.95,-253.74 612.19,-243.66 603.37,-249.52 608.95,-253.74"/>
</g>
<!-- Node13&#45;&gt;Node4 -->
<g id="edge20" class="edge">
<title>Node13&#45;&gt;Node4</title>
<path fill="none" stroke="midnightblue" d="M1131.05,-414.48C1080.23,-403.83 993.27,-385.61 938.24,-374.08"/>
<polygon fill="midnightblue" stroke="midnightblue" points="938.86,-370.63 928.36,-372.01 937.43,-377.49 938.86,-370.63"/>
</g>
<!-- Node13&#45;&gt;Node14 -->
<g id="edge21" class="edge">
<title>Node13&#45;&gt;Node14</title>
<path fill="none" stroke="midnightblue" d="M1198.54,-414.48C1231.03,-404.14 1285.95,-386.66 1322.28,-375.1"/>
<polygon fill="midnightblue" stroke="midnightblue" points="1323.53,-378.38 1332,-372.01 1321.41,-371.71 1323.53,-378.38"/>
</g>
<!-- Node13&#45;&gt;Node16 -->
<g id="edge24" class="edge">
<title>Node13&#45;&gt;Node16</title>
<path fill="none" stroke="midnightblue" d="M1147.43,-414.48C1106.14,-400.08 1019.58,-370.24 945.74,-347 900.89,-332.88 849.07,-317.84 814.13,-307.88"/>
<polygon fill="midnightblue" stroke="midnightblue" points="814.88,-304.45 804.3,-305.08 812.96,-311.19 814.88,-304.45"/>
</g>
<!-- Node14&#45;&gt;Node6 -->
<g id="edge22" class="edge">
<title>Node14&#45;&gt;Node6</title>
<path fill="none" stroke="midnightblue" d="M1358.74,-352.91C1358.74,-332.48 1358.74,-279.36 1358.74,-235 1358.74,-235 1358.74,-235 1358.74,-177 1358.74,-124.72 993.24,-86.36 840.05,-72.58"/>
<polygon fill="midnightblue" stroke="midnightblue" points="840.11,-69.07 829.84,-71.67 839.48,-76.04 840.11,-69.07"/>
</g>
<!-- Node15 -->
<g id="node15" class="node">
<title>Node15</title>
<g id="a_node15"><a xlink:title=" ">
<polygon fill="none" stroke="#bfbfbf" points="1198.74,-286 1198.74,-305 1254.74,-305 1254.74,-286 1198.74,-286"/>
<text text-anchor="middle" x="1226.74" y="-293" font-family="Helvetica,sans-Serif" font-size="10.00">stdarg.h</text>
</a>
</g>
</g>
<!-- Node14&#45;&gt;Node15 -->
<g id="edge23" class="edge">
<title>Node14&#45;&gt;Node15</title>
<path fill="none" stroke="midnightblue" d="M1341.21,-352.87C1318.73,-341.8 1279.51,-322.49 1253.34,-309.6"/>
<polygon fill="midnightblue" stroke="midnightblue" points="1254.86,-306.44 1244.34,-305.17 1251.77,-312.72 1254.86,-306.44"/>
</g>
<!-- Node16&#45;&gt;Node5 -->
<g id="edge25" class="edge">
<title>Node16&#45;&gt;Node5</title>
<path fill="none" stroke="midnightblue" d="M773.74,-285.82C773.74,-267.26 773.74,-223.34 773.74,-197.97"/>
<polygon fill="midnightblue" stroke="midnightblue" points="777.24,-197.78 773.74,-187.78 770.24,-197.78 777.24,-197.78"/>
</g>
<!-- Node16&#45;&gt;Node10 -->
<g id="edge26" class="edge">
<title>Node16&#45;&gt;Node10</title>
<path fill="none" stroke="midnightblue" d="M751.54,-285.98C725.06,-275.81 680.63,-258.76 650.52,-247.2"/>
<polygon fill="midnightblue" stroke="midnightblue" points="651.5,-243.83 640.91,-243.51 648.99,-250.36 651.5,-243.83"/>
</g>
<!-- Node17&#45;&gt;Node4 -->
<g id="edge28" class="edge">
<title>Node17&#45;&gt;Node4</title>
<path fill="none" stroke="midnightblue" d="M894.6,-414.48C893.47,-406.08 891.71,-392.98 890.25,-382.16"/>
<polygon fill="midnightblue" stroke="midnightblue" points="893.69,-381.45 888.89,-372.01 886.75,-382.39 893.69,-381.45"/>
</g>
<!-- Node18&#45;&gt;Node4 -->
<g id="edge30" class="edge">
<title>Node18&#45;&gt;Node4</title>
<path fill="none" stroke="midnightblue" d="M698.41,-414.48C737.3,-404 803.38,-386.21 846.29,-374.66"/>
<polygon fill="midnightblue" stroke="midnightblue" points="847.39,-377.99 856.14,-372.01 845.57,-371.23 847.39,-377.99"/>
</g>
<!-- Node19 -->
<g id="node19" class="node">
<title>Node19</title>
<g id="a_node19"><a xlink:href="aa__tree_8h.html" target="_top" xlink:title=" ">
<polygon fill="none" stroke="black" points="635.74,-353 635.74,-372 697.74,-372 697.74,-353 635.74,-353"/>
<text text-anchor="middle" x="666.74" y="-360" font-family="Helvetica,sans-Serif" font-size="10.00">aa_tree.h</text>
</a>
</g>
</g>
<!-- Node18&#45;&gt;Node19 -->
<g id="edge31" class="edge">
<title>Node18&#45;&gt;Node19</title>
<path fill="none" stroke="midnightblue" d="M666.74,-414.48C666.74,-406.08 666.74,-392.98 666.74,-382.16"/>
<polygon fill="midnightblue" stroke="midnightblue" points="670.24,-382.01 666.74,-372.01 663.24,-382.01 670.24,-382.01"/>
</g>
<!-- Node20&#45;&gt;Node4 -->
<g id="edge33" class="edge">
<title>Node20&#45;&gt;Node4</title>
<path fill="none" stroke="midnightblue" d="M1291.26,-414.48C1198.89,-402.81 1034.58,-382.05 946.83,-370.96"/>
<polygon fill="midnightblue" stroke="midnightblue" points="947.13,-367.47 936.77,-369.69 946.25,-374.42 947.13,-367.47"/>
</g>
<!-- Node20&#45;&gt;Node14 -->
<g id="edge34" class="edge">
<title>Node20&#45;&gt;Node14</title>
<path fill="none" stroke="midnightblue" d="M1358.74,-414.48C1358.74,-406.08 1358.74,-392.98 1358.74,-382.16"/>
<polygon fill="midnightblue" stroke="midnightblue" points="1362.24,-382.01 1358.74,-372.01 1355.24,-382.01 1362.24,-382.01"/>
</g>
<!-- Node21&#45;&gt;Node20 -->
<g id="edge39" class="edge">
<title>Node21&#45;&gt;Node20</title>
<path fill="none" stroke="midnightblue" d="M1461.41,-470.44C1441.42,-461.6 1410,-447.69 1387.18,-437.59"/>
<polygon fill="midnightblue" stroke="midnightblue" points="1388.54,-434.36 1377.98,-433.52 1385.71,-440.76 1388.54,-434.36"/>
</g>
<!-- Node22 -->
<g id="node22" class="node">
<title>Node22</title>
<g id="a_node22"><a xlink:href="transport__generated_8h.html" target="_top" xlink:title=" ">
<polygon fill="none" stroke="black" points="1461.74,-347.5 1461.74,-377.5 1579.74,-377.5 1579.74,-347.5 1461.74,-347.5"/>
<text text-anchor="start" x="1469.74" y="-365.5" font-family="Helvetica,sans-Serif" font-size="10.00">open62541/transport</text>
<text text-anchor="middle" x="1520.74" y="-354.5" font-family="Helvetica,sans-Serif" font-size="10.00">_generated.h</text>
</a>
</g>
</g>
<!-- Node21&#45;&gt;Node22 -->
<g id="edge40" class="edge">
<title>Node21&#45;&gt;Node22</title>
<path fill="none" stroke="midnightblue" d="M1490.38,-470.44C1499.01,-462.1 1511.16,-448.58 1516.74,-434 1522.35,-419.37 1523.35,-401.77 1522.95,-387.82"/>
<polygon fill="midnightblue" stroke="midnightblue" points="1526.43,-387.33 1522.39,-377.53 1519.44,-387.71 1526.43,-387.33"/>
</g>
<!-- Node22&#45;&gt;Node5 -->
<g id="edge41" class="edge">
<title>Node22&#45;&gt;Node5</title>
<path fill="none" stroke="midnightblue" d="M1487.45,-347.35C1444.5,-329.55 1367.18,-299.01 1298.74,-280 1135.76,-234.73 938.77,-202.73 838.79,-188.05"/>
<polygon fill="midnightblue" stroke="midnightblue" points="839.23,-184.58 828.83,-186.6 838.22,-191.5 839.23,-184.58"/>
</g>
<!-- Node22&#45;&gt;Node10 -->
<g id="edge42" class="edge">
<title>Node22&#45;&gt;Node10</title>
<path fill="none" stroke="midnightblue" d="M1461.71,-350.27C1408.32,-339.62 1334,-323.44 1306.74,-311 1285.31,-301.22 1285.9,-288.02 1263.74,-280 1164.75,-244.18 864.57,-236.69 711.16,-235.25"/>
<polygon fill="midnightblue" stroke="midnightblue" points="710.85,-231.75 700.82,-235.16 710.79,-238.75 710.85,-231.75"/>
</g>
<!-- Node23&#45;&gt;Node4 -->
<g id="edge44" class="edge">
<title>Node23&#45;&gt;Node4</title>
<path fill="none" stroke="midnightblue" d="M1030.65,-582.15C1033.04,-554.2 1036.69,-466.59 995.74,-414 986.07,-401.58 949.78,-386.1 921.91,-375.57"/>
<polygon fill="midnightblue" stroke="midnightblue" points="923.05,-372.26 912.46,-372.07 920.62,-378.83 923.05,-372.26"/>
</g>
<!-- Node24 -->
<g id="node24" class="node">
<title>Node24</title>
<g id="a_node24"><a xlink:href="ua__securechannel_8h.html" target="_top" xlink:title=" ">
<polygon fill="none" stroke="black" points="1221.24,-526.5 1221.24,-545.5 1334.24,-545.5 1334.24,-526.5 1221.24,-526.5"/>
<text text-anchor="middle" x="1277.74" y="-533.5" font-family="Helvetica,sans-Serif" font-size="10.00">ua_securechannel.h</text>
</a>
</g>
</g>
<!-- Node23&#45;&gt;Node24 -->
<g id="edge45" class="edge">
<title>Node23&#45;&gt;Node24</title>
<path fill="none" stroke="midnightblue" d="M1069.04,-582.44C1112.3,-573.02 1181.92,-557.87 1228.72,-547.68"/>
<polygon fill="midnightblue" stroke="midnightblue" points="1229.6,-551.06 1238.63,-545.52 1228.11,-544.22 1229.6,-551.06"/>
</g>
<!-- Node24&#45;&gt;Node4 -->
<g id="edge46" class="edge">
<title>Node24&#45;&gt;Node4</title>
<path fill="none" stroke="midnightblue" d="M1260.29,-526.38C1207.58,-500.38 1052.22,-423.88 1028.74,-414 993.69,-399.26 952.67,-384.88 923.94,-375.26"/>
<polygon fill="midnightblue" stroke="midnightblue" points="924.91,-371.89 914.32,-372.06 922.7,-378.53 924.91,-371.89"/>
</g>
<!-- Node24&#45;&gt;Node5 -->
<g id="edge47" class="edge">
<title>Node24&#45;&gt;Node5</title>
<path fill="none" stroke="midnightblue" d="M1334.41,-532.18C1410.01,-527.46 1538.87,-515.83 1577.74,-490 1632.56,-453.58 1654.74,-429.32 1654.74,-363.5 1654.74,-363.5 1654.74,-363.5 1654.74,-294.5 1654.74,-212.24 1043.18,-186.88 839.12,-180.7"/>
<polygon fill="midnightblue" stroke="midnightblue" points="838.95,-177.2 828.85,-180.4 838.75,-184.19 838.95,-177.2"/>
</g>
<!-- Node24&#45;&gt;Node13 -->
<g id="edge49" class="edge">
<title>Node24&#45;&gt;Node13</title>
<path fill="none" stroke="midnightblue" d="M1269.43,-526.37C1251.7,-507.97 1209.97,-464.67 1187.21,-441.05"/>
<polygon fill="midnightblue" stroke="midnightblue" points="1189.48,-438.36 1180.02,-433.59 1184.44,-443.22 1189.48,-438.36"/>
</g>
<!-- Node24&#45;&gt;Node14 -->
<g id="edge48" class="edge">
<title>Node24&#45;&gt;Node14</title>
<path fill="none" stroke="midnightblue" d="M1294.63,-526.38C1339.37,-503.45 1457.9,-442.16 1462.74,-434 1479.58,-405.62 1440.2,-386.16 1405.17,-374.99"/>
<polygon fill="midnightblue" stroke="midnightblue" points="1406.04,-371.6 1395.45,-372.06 1404.01,-378.3 1406.04,-371.6"/>
</g>
<!-- Node24&#45;&gt;Node21 -->
<g id="edge52" class="edge">
<title>Node24&#45;&gt;Node21</title>
<path fill="none" stroke="midnightblue" d="M1309.91,-526.44C1344.8,-517.16 1400.64,-502.31 1438.91,-492.13"/>
<polygon fill="midnightblue" stroke="midnightblue" points="1439.96,-495.47 1448.73,-489.52 1438.16,-488.7 1439.96,-495.47"/>
</g>
<!-- Node24&#45;&gt;Node22 -->
<g id="edge50" class="edge">
<title>Node24&#45;&gt;Node22</title>
<path fill="none" stroke="midnightblue" d="M1334.54,-534.3C1408.41,-532.04 1531.39,-523.24 1559.74,-490 1585.31,-460.02 1559.14,-413.46 1539.07,-385.97"/>
<polygon fill="midnightblue" stroke="midnightblue" points="1541.67,-383.61 1532.83,-377.76 1536.09,-387.85 1541.67,-383.61"/>
</g>
<!-- Node25 -->
<g id="node25" class="node">
<title>Node25</title>
<g id="a_node25"><a xlink:href="open62541__queue_8h.html" target="_top" xlink:title=" ">
<polygon fill="none" stroke="black" points="818.24,-470.5 818.24,-489.5 933.24,-489.5 933.24,-470.5 818.24,-470.5"/>
<text text-anchor="middle" x="875.74" y="-477.5" font-family="Helvetica,sans-Serif" font-size="10.00">open62541_queue.h</text>
</a>
</g>
</g>
<!-- Node24&#45;&gt;Node25 -->
<g id="edge51" class="edge">
<title>Node24&#45;&gt;Node25</title>
<path fill="none" stroke="midnightblue" d="M1221,-527.38C1148.09,-517.58 1021.66,-500.6 943.7,-490.13"/>
<polygon fill="midnightblue" stroke="midnightblue" points="943.88,-486.62 933.5,-488.76 942.94,-493.56 943.88,-486.62"/>
</g>
<!-- Node26&#45;&gt;Node3 -->
<g id="edge54" class="edge">
<title>Node26&#45;&gt;Node3</title>
<path fill="none" stroke="midnightblue" d="M829.1,-526.44C774.87,-516.9 687.19,-501.48 629.26,-491.29"/>
<polygon fill="midnightblue" stroke="midnightblue" points="629.62,-487.8 619.16,-489.52 628.4,-494.7 629.62,-487.8"/>
</g>
<!-- Node26&#45;&gt;Node25 -->
<g id="edge55" class="edge">
<title>Node26&#45;&gt;Node25</title>
<path fill="none" stroke="midnightblue" d="M877.41,-526.08C877.15,-519.01 876.77,-508.86 876.45,-499.99"/>
<polygon fill="midnightblue" stroke="midnightblue" points="879.93,-499.61 876.07,-489.75 872.94,-499.87 879.93,-499.61"/>
</g>
<!-- Node26&#45;&gt;Node27 -->
<g id="edge56" class="edge">
<title>Node26&#45;&gt;Node27</title>
<path fill="none" stroke="midnightblue" d="M931.67,-531.45C1046.95,-523.85 1325.9,-505.45 1559.74,-490 1584.32,-488.38 1611.4,-486.58 1634.88,-485.03"/>
<polygon fill="midnightblue" stroke="midnightblue" points="1635.3,-488.51 1645.04,-484.36 1634.84,-481.53 1635.3,-488.51"/>
</g>
<!-- Node27&#45;&gt;Node4 -->
<g id="edge58" class="edge">
<title>Node27&#45;&gt;Node4</title>
<path fill="none" stroke="midnightblue" d="M1668.69,-470.4C1623.17,-456.28 1528.14,-428.34 1445.74,-414 1265.77,-382.68 1049.56,-370.13 947.13,-365.67"/>
<polygon fill="midnightblue" stroke="midnightblue" points="947.13,-362.17 936.99,-365.24 946.83,-369.16 947.13,-362.17"/>
</g>
<!-- Node27&#45;&gt;Node5 -->
<g id="edge57" class="edge">
<title>Node27&#45;&gt;Node5</title>
<path fill="none" stroke="midnightblue" d="M1695.49,-470.31C1694.95,-451.06 1693.74,-403.41 1693.74,-363.5 1693.74,-363.5 1693.74,-363.5 1693.74,-294.5 1693.74,-261.25 1695.41,-243.86 1668.74,-224 1635.57,-199.3 1039.81,-184.58 839.11,-180.31"/>
<polygon fill="midnightblue" stroke="midnightblue" points="839.08,-176.81 829.01,-180.09 838.93,-183.8 839.08,-176.81"/>
</g>
<!-- Node28&#45;&gt;Node27 -->
<g id="edge60" class="edge">
<title>Node28&#45;&gt;Node27</title>
<path fill="none" stroke="midnightblue" d="M1695.74,-526.08C1695.74,-519.01 1695.74,-508.86 1695.74,-499.99"/>
<polygon fill="midnightblue" stroke="midnightblue" points="1699.24,-499.75 1695.74,-489.75 1692.24,-499.75 1699.24,-499.75"/>
</g>
<!-- Node29 -->
<g id="node29" class="node">
<title>Node29</title>
<g id="a_node29"><a xlink:href="ziptree_8h.html" target="_top" xlink:title=" ">
<polygon fill="none" stroke="black" points="1764.24,-470.5 1764.24,-489.5 1823.24,-489.5 1823.24,-470.5 1764.24,-470.5"/>
<text text-anchor="middle" x="1793.74" y="-477.5" font-family="Helvetica,sans-Serif" font-size="10.00">ziptree.h</text>
</a>
</g>
</g>
<!-- Node28&#45;&gt;Node29 -->
<g id="edge61" class="edge">
<title>Node28&#45;&gt;Node29</title>
<path fill="none" stroke="midnightblue" d="M1711.49,-526.32C1727.06,-517.74 1751.12,-504.49 1769.2,-494.52"/>
<polygon fill="midnightblue" stroke="midnightblue" points="1770.97,-497.55 1778.04,-489.65 1767.59,-491.42 1770.97,-497.55"/>
</g>
<!-- Node30&#45;&gt;Node3 -->
<g id="edge67" class="edge">
<title>Node30&#45;&gt;Node3</title>
<path fill="none" stroke="midnightblue" d="M386.44,-582.37C421.12,-563.29 504.52,-517.42 546.19,-494.51"/>
<polygon fill="midnightblue" stroke="midnightblue" points="548.05,-497.48 555.12,-489.59 544.67,-491.34 548.05,-497.48"/>
</g>
<!-- Node30&#45;&gt;Node25 -->
<g id="edge72" class="edge">
<title>Node30&#45;&gt;Node25</title>
<path fill="none" stroke="midnightblue" d="M409.95,-582.46C501.02,-562.62 726.72,-513.46 826.71,-491.68"/>
<polygon fill="midnightblue" stroke="midnightblue" points="827.54,-495.08 836.56,-489.53 826.05,-488.24 827.54,-495.08"/>
</g>
<!-- Node31 -->
<g id="node31" class="node">
<title>Node31</title>
<g id="a_node31"><a xlink:href="pubsub_8h.html" target="_top" xlink:title=" ">
<polygon fill="none" stroke="black" points="218.24,-286 218.24,-305 369.24,-305 369.24,-286 218.24,-286"/>
<text text-anchor="middle" x="293.74" y="-293" font-family="Helvetica,sans-Serif" font-size="10.00">open62541/plugin/pubsub.h</text>
</a>
</g>
</g>
<!-- Node30&#45;&gt;Node31 -->
<g id="edge64" class="edge">
<title>Node30&#45;&gt;Node31</title>
<path fill="none" stroke="midnightblue" d="M331.66,-588.76C268.45,-582.8 150.74,-560.96 150.74,-481 150.74,-481 150.74,-481 150.74,-423 150.74,-364.88 217.83,-327.03 260.1,-308.95"/>
<polygon fill="midnightblue" stroke="midnightblue" points="261.57,-312.13 269.48,-305.09 258.91,-305.66 261.57,-312.13"/>
</g>
<!-- Node32 -->
<g id="node32" class="node">
<title>Node32</title>
<g id="a_node32"><a xlink:href="server__pubsub_8h.html" target="_top" xlink:title=" ">
<polygon fill="none" stroke="black" points="241.74,-526.5 241.74,-545.5 395.74,-545.5 395.74,-526.5 241.74,-526.5"/>
<text text-anchor="middle" x="318.74" y="-533.5" font-family="Helvetica,sans-Serif" font-size="10.00">open62541/server_pubsub.h</text>
</a>
</g>
</g>
<!-- Node30&#45;&gt;Node32 -->
<g id="edge68" class="edge">
<title>Node30&#45;&gt;Node32</title>
<path fill="none" stroke="midnightblue" d="M362.16,-582.08C354.58,-574.22 343.36,-562.57 334.23,-553.08"/>
<polygon fill="midnightblue" stroke="midnightblue" points="336.63,-550.53 327.17,-545.75 331.59,-555.38 336.63,-550.53"/>
</g>
<!-- Node33 -->
<g id="node33" class="node">
<title>Node33</title>
<g id="a_node33"><a xlink:href="ua__pubsub__networkmessage_8h.html" target="_top" xlink:title=" ">
<polygon fill="none" stroke="black" points="33.24,-286 33.24,-305 200.24,-305 200.24,-286 33.24,-286"/>
<text text-anchor="middle" x="116.74" y="-293" font-family="Helvetica,sans-Serif" font-size="10.00">ua_pubsub_networkmessage.h</text>
</a>
</g>
</g>
<!-- Node30&#45;&gt;Node33 -->
<g id="edge73" class="edge">
<title>Node30&#45;&gt;Node33</title>
<path fill="none" stroke="midnightblue" d="M331.56,-591.37C259.38,-589.78 112.74,-574.98 112.74,-481 112.74,-481 112.74,-481 112.74,-423 112.74,-384.68 114.6,-339.87 115.78,-315.19"/>
<polygon fill="midnightblue" stroke="midnightblue" points="119.28,-315.25 116.28,-305.09 112.29,-314.9 119.28,-315.25"/>
</g>
<!-- Node31&#45;&gt;Node5 -->
<g id="edge65" class="edge">
<title>Node31&#45;&gt;Node5</title>
<path fill="none" stroke="midnightblue" d="M301.65,-285.72C316.18,-270.22 348.86,-238.33 383.74,-224 441,-200.49 613.33,-187.69 708.62,-182.23"/>
<polygon fill="midnightblue" stroke="midnightblue" points="708.94,-185.72 718.72,-181.67 708.54,-178.73 708.94,-185.72"/>
</g>
<!-- Node31&#45;&gt;Node10 -->
<g id="edge66" class="edge">
<title>Node31&#45;&gt;Node10</title>
<path fill="none" stroke="midnightblue" d="M340.31,-285.98C398.83,-275.26 499.22,-256.88 562.12,-245.37"/>
<polygon fill="midnightblue" stroke="midnightblue" points="563.06,-248.75 572.26,-243.51 561.8,-241.87 563.06,-248.75"/>
</g>
<!-- Node32&#45;&gt;Node3 -->
<g id="edge70" class="edge">
<title>Node32&#45;&gt;Node3</title>
<path fill="none" stroke="midnightblue" d="M358.67,-526.44C402.63,-517.02 473.37,-501.87 520.93,-491.68"/>
<polygon fill="midnightblue" stroke="midnightblue" points="521.95,-495.03 531,-489.52 520.49,-488.19 521.95,-495.03"/>
</g>
<!-- Node32&#45;&gt;Node4 -->
<g id="edge69" class="edge">
<title>Node32&#45;&gt;Node4</title>
<path fill="none" stroke="midnightblue" d="M321.44,-526.37C329.12,-503.46 353.4,-441.04 397.74,-414 415.9,-402.93 701.66,-378.58 828.21,-368.26"/>
<polygon fill="midnightblue" stroke="midnightblue" points="828.81,-371.73 838.5,-367.43 828.25,-364.75 828.81,-371.73"/>
</g>
<!-- Node32&#45;&gt;Node31 -->
<g id="edge71" class="edge">
<title>Node32&#45;&gt;Node31</title>
<path fill="none" stroke="midnightblue" d="M316.46,-526.23C310.43,-502.54 294.16,-435.19 288.74,-378 287.44,-364.28 288.06,-360.76 288.74,-347 289.27,-336.37 290.41,-324.54 291.47,-315"/>
<polygon fill="midnightblue" stroke="midnightblue" points="294.95,-315.4 292.64,-305.06 287.99,-314.58 294.95,-315.4"/>
</g>
<!-- Node33&#45;&gt;Node5 -->
<g id="edge74" class="edge">
<title>Node33&#45;&gt;Node5</title>
<path fill="none" stroke="midnightblue" d="M139.64,-285.91C180.72,-270.86 269.88,-239.84 347.74,-224 473.84,-198.34 624.1,-186.81 708.25,-182.03"/>
<polygon fill="midnightblue" stroke="midnightblue" points="708.63,-185.52 718.42,-181.47 708.25,-178.53 708.63,-185.52"/>
</g>
<!-- Node33&#45;&gt;Node10 -->
<g id="edge75" class="edge">
<title>Node33&#45;&gt;Node10</title>
<path fill="none" stroke="midnightblue" d="M168.26,-285.94C181.44,-283.87 195.6,-281.76 208.74,-280 317.59,-265.46 443.16,-252.19 526.35,-243.89"/>
<polygon fill="midnightblue" stroke="midnightblue" points="526.93,-247.35 536.54,-242.88 526.24,-240.38 526.93,-247.35"/>
</g>
</g>
</svg>
