<?xml version="1.0" encoding="UTF-8" standalone="no"?>
<!DOCTYPE svg PUBLIC "-//W3C//DTD SVG 1.1//EN"
 "http://www.w3.org/Graphics/SVG/1.1/DTD/svg11.dtd">
<!-- Generated by graphviz version 2.43.0 (0)
 -->
<!-- Title: /home/runner/work/open62541pp/open62541pp/build/doc/open62541/src/server/ua_server_internal.h Pages: 1 -->
<svg width="1565pt" height="677pt"
 viewBox="0.00 0.00 1564.55 677.00" xmlns="http://www.w3.org/2000/svg" xmlns:xlink="http://www.w3.org/1999/xlink">
<g id="graph0" class="graph" transform="scale(1 1) rotate(0) translate(4 673)">
<title>/home/runner/work/open62541pp/open62541pp/build/doc/open62541/src/server/ua_server_internal.h</title>
<!-- Node1 -->
<g id="node1" class="node">
<title>Node1</title>
<g id="a_node1"><a xlink:title=" ">
<polygon fill="#bfbfbf" stroke="black" points="754.05,-627.5 754.05,-668.5 944.05,-668.5 944.05,-627.5 754.05,-627.5"/>
<text text-anchor="start" x="762.05" y="-656.5" font-family="Helvetica,sans-Serif" font-size="10.00">/home/runner/work/open62541pp</text>
<text text-anchor="start" x="762.05" y="-645.5" font-family="Helvetica,sans-Serif" font-size="10.00">/open62541pp/build/doc/open62541</text>
<text text-anchor="middle" x="849.05" y="-634.5" font-family="Helvetica,sans-Serif" font-size="10.00">/src/server/ua_server_internal.h</text>
</a>
</g>
</g>
<!-- Node2 -->
<g id="node2" class="node">
<title>Node2</title>
<g id="a_node2"><a xlink:href="server_8h.html" target="_top" xlink:title=" ">
<polygon fill="none" stroke="black" points="428.55,-459.5 428.55,-478.5 541.55,-478.5 541.55,-459.5 428.55,-459.5"/>
<text text-anchor="middle" x="485.05" y="-466.5" font-family="Helvetica,sans-Serif" font-size="10.00">open62541/server.h</text>
</a>
</g>
</g>
<!-- Node1&#45;&gt;Node2 -->
<g id="edge1" class="edge">
<title>Node1&#45;&gt;Node2</title>
<path fill="none" stroke="midnightblue" d="M784.72,-627.45C725.92,-608.2 637.62,-575.8 567.05,-535 542.4,-520.75 517.21,-499.6 501.37,-485.33"/>
<polygon fill="midnightblue" stroke="midnightblue" points="503.73,-482.74 493.99,-478.56 499,-487.9 503.73,-482.74"/>
</g>
<!-- Node17 -->
<g id="node17" class="node">
<title>Node17</title>
<g id="a_node17"><a xlink:href="nodestore_8h.html" target="_top" xlink:title=" ">
<polygon fill="none" stroke="black" points="29.05,-403.5 29.05,-422.5 193.05,-422.5 193.05,-403.5 29.05,-403.5"/>
<text text-anchor="middle" x="111.05" y="-410.5" font-family="Helvetica,sans-Serif" font-size="10.00">open62541/plugin/nodestore.h</text>
</a>
</g>
</g>
<!-- Node1&#45;&gt;Node17 -->
<g id="edge36" class="edge">
<title>Node1&#45;&gt;Node17</title>
<path fill="none" stroke="midnightblue" d="M770.17,-627.49C730.12,-617.25 680.8,-604.13 637.05,-591 449.01,-534.59 227.09,-455.85 144.34,-426.06"/>
<polygon fill="midnightblue" stroke="midnightblue" points="145.31,-422.69 134.72,-422.59 142.94,-429.28 145.31,-422.69"/>
</g>
<!-- Node20 -->
<g id="node20" class="node">
<title>Node20</title>
<g id="a_node20"><a xlink:href="ua__connection__internal_8h.html" target="_top" xlink:title=" ">
<polygon fill="none" stroke="black" points="1182.55,-459.5 1182.55,-478.5 1321.55,-478.5 1321.55,-459.5 1182.55,-459.5"/>
<text text-anchor="middle" x="1252.05" y="-466.5" font-family="Helvetica,sans-Serif" font-size="10.00">ua_connection_internal.h</text>
</a>
</g>
</g>
<!-- Node1&#45;&gt;Node20 -->
<g id="edge37" class="edge">
<title>Node1&#45;&gt;Node20</title>
<path fill="none" stroke="midnightblue" d="M893.71,-627.38C976.92,-590.84 1153.51,-513.28 1223.04,-482.74"/>
<polygon fill="midnightblue" stroke="midnightblue" points="1224.75,-485.81 1232.5,-478.58 1221.94,-479.4 1224.75,-485.81"/>
</g>
<!-- Node22 -->
<g id="node22" class="node">
<title>Node22</title>
<g id="a_node22"><a xlink:href="ua__session_8h.html" target="_top" xlink:title=" ">
<polygon fill="none" stroke="black" points="809.05,-571.5 809.05,-590.5 889.05,-590.5 889.05,-571.5 809.05,-571.5"/>
<text text-anchor="middle" x="849.05" y="-578.5" font-family="Helvetica,sans-Serif" font-size="10.00">ua_session.h</text>
</a>
</g>
</g>
<!-- Node1&#45;&gt;Node22 -->
<g id="edge42" class="edge">
<title>Node1&#45;&gt;Node22</title>
<path fill="none" stroke="midnightblue" d="M849.05,-627.5C849.05,-619.07 849.05,-609.24 849.05,-600.87"/>
<polygon fill="midnightblue" stroke="midnightblue" points="852.55,-600.65 849.05,-590.65 845.55,-600.65 852.55,-600.65"/>
</g>
<!-- Node25 -->
<g id="node25" class="node">
<title>Node25</title>
<g id="a_node25"><a xlink:href="ua__server__async_8h.html" target="_top" xlink:title=" ">
<polygon fill="none" stroke="black" points="575.55,-515.5 575.55,-534.5 682.55,-534.5 682.55,-515.5 575.55,-515.5"/>
<text text-anchor="middle" x="629.05" y="-522.5" font-family="Helvetica,sans-Serif" font-size="10.00">ua_server_async.h</text>
</a>
</g>
</g>
<!-- Node1&#45;&gt;Node25 -->
<g id="edge52" class="edge">
<title>Node1&#45;&gt;Node25</title>
<path fill="none" stroke="midnightblue" d="M813.21,-627.29C768.31,-602.6 692.56,-560.93 653.68,-539.55"/>
<polygon fill="midnightblue" stroke="midnightblue" points="655.09,-536.33 644.64,-534.57 651.71,-542.46 655.09,-536.33"/>
</g>
<!-- Node26 -->
<g id="node26" class="node">
<title>Node26</title>
<g id="a_node26"><a xlink:href="ua__util__internal_8h.html" target="_top" xlink:title=" ">
<polygon fill="none" stroke="black" points="1378.55,-459.5 1378.55,-478.5 1479.55,-478.5 1479.55,-459.5 1378.55,-459.5"/>
<text text-anchor="middle" x="1429.05" y="-466.5" font-family="Helvetica,sans-Serif" font-size="10.00">ua_util_internal.h</text>
</a>
</g>
</g>
<!-- Node1&#45;&gt;Node26 -->
<g id="edge61" class="edge">
<title>Node1&#45;&gt;Node26</title>
<path fill="none" stroke="midnightblue" d="M913.05,-627.47C1034.27,-590.48 1293.88,-511.25 1391.18,-481.56"/>
<polygon fill="midnightblue" stroke="midnightblue" points="1392.34,-484.86 1400.89,-478.59 1390.3,-478.17 1392.34,-484.86"/>
</g>
<!-- Node27 -->
<g id="node27" class="node">
<title>Node27</title>
<g id="a_node27"><a xlink:href="ua__timer_8h.html" target="_top" xlink:title=" ">
<polygon fill="none" stroke="black" points="1395.05,-515.5 1395.05,-534.5 1463.05,-534.5 1463.05,-515.5 1395.05,-515.5"/>
<text text-anchor="middle" x="1429.05" y="-522.5" font-family="Helvetica,sans-Serif" font-size="10.00">ua_timer.h</text>
</a>
</g>
</g>
<!-- Node1&#45;&gt;Node27 -->
<g id="edge58" class="edge">
<title>Node1&#45;&gt;Node27</title>
<path fill="none" stroke="midnightblue" d="M944.26,-642.13C1032.2,-635.87 1165.78,-621.85 1278.05,-591 1324.28,-578.3 1374.87,-554.27 1404.18,-539.26"/>
<polygon fill="midnightblue" stroke="midnightblue" points="1406,-542.25 1413.27,-534.54 1402.78,-536.04 1406,-542.25"/>
</g>
<!-- Node3 -->
<g id="node3" class="node">
<title>Node3</title>
<g id="a_node3"><a xlink:href="util_8h.html" target="_top" xlink:title=" ">
<polygon fill="none" stroke="black" points="663.05,-347.5 663.05,-366.5 761.05,-366.5 761.05,-347.5 663.05,-347.5"/>
<text text-anchor="middle" x="712.05" y="-354.5" font-family="Helvetica,sans-Serif" font-size="10.00">open62541/util.h</text>
</a>
</g>
</g>
<!-- Node2&#45;&gt;Node3 -->
<g id="edge2" class="edge">
<title>Node2&#45;&gt;Node3</title>
<path fill="none" stroke="midnightblue" d="M483.38,-459.1C481.34,-445.19 479.72,-418.3 494.05,-403 515.29,-380.31 595.89,-368.37 652.88,-362.63"/>
<polygon fill="midnightblue" stroke="midnightblue" points="653.26,-366.11 662.87,-361.66 652.58,-359.14 653.26,-366.11"/>
</g>
<!-- Node4 -->
<g id="node4" class="node">
<title>Node4</title>
<g id="a_node4"><a xlink:href="types_8h.html" target="_top" xlink:title=" ">
<polygon fill="none" stroke="black" points="829.05,-168.5 829.05,-187.5 939.05,-187.5 939.05,-168.5 829.05,-168.5"/>
<text text-anchor="middle" x="884.05" y="-175.5" font-family="Helvetica,sans-Serif" font-size="10.00">open62541/types.h</text>
</a>
</g>
</g>
<!-- Node2&#45;&gt;Node4 -->
<g id="edge13" class="edge">
<title>Node2&#45;&gt;Node4</title>
<path fill="none" stroke="midnightblue" d="M428.51,-464.4C364.97,-459.21 267.14,-447.44 240.05,-423 217.7,-402.84 221.05,-388.1 221.05,-358 221.05,-358 221.05,-358 221.05,-294.5 221.05,-234.24 651.63,-196.09 818.8,-183.55"/>
<polygon fill="midnightblue" stroke="midnightblue" points="819.23,-187.03 828.94,-182.8 818.71,-180.05 819.23,-187.03"/>
</g>
<!-- Node7 -->
<g id="node7" class="node">
<title>Node7</title>
<g id="a_node7"><a xlink:href="common_8h.html" target="_top" xlink:title=" ">
<polygon fill="none" stroke="black" points="730.55,-112.5 730.55,-131.5 855.55,-131.5 855.55,-112.5 730.55,-112.5"/>
<text text-anchor="middle" x="793.05" y="-119.5" font-family="Helvetica,sans-Serif" font-size="10.00">open62541/common.h</text>
</a>
</g>
</g>
<!-- Node2&#45;&gt;Node7 -->
<g id="edge14" class="edge">
<title>Node2&#45;&gt;Node7</title>
<path fill="none" stroke="midnightblue" d="M428.13,-466.02C310.91,-461.45 50.89,-448.54 20.05,-423 -3.14,-403.81 1.05,-388.1 1.05,-358 1.05,-358 1.05,-358 1.05,-233 1.05,-160.8 524.03,-133.31 720.04,-125.53"/>
<polygon fill="midnightblue" stroke="midnightblue" points="720.38,-129.02 730.24,-125.14 720.11,-122.03 720.38,-129.02"/>
</g>
<!-- Node9 -->
<g id="node9" class="node">
<title>Node9</title>
<g id="a_node9"><a xlink:href="types__generated_8h.html" target="_top" xlink:title=" ">
<polygon fill="none" stroke="black" points="598.05,-224.5 598.05,-243.5 762.05,-243.5 762.05,-224.5 598.05,-224.5"/>
<text text-anchor="middle" x="680.05" y="-231.5" font-family="Helvetica,sans-Serif" font-size="10.00">open62541/types_generated.h</text>
</a>
</g>
</g>
<!-- Node2&#45;&gt;Node9 -->
<g id="edge16" class="edge">
<title>Node2&#45;&gt;Node9</title>
<path fill="none" stroke="midnightblue" d="M480.62,-459.21C474.89,-446.75 466.09,-423.23 470.05,-403 481.37,-345.09 476.05,-319.33 520.05,-280 538.86,-263.18 563.49,-252.6 587.77,-245.96"/>
<polygon fill="midnightblue" stroke="midnightblue" points="588.93,-249.28 597.77,-243.44 587.22,-242.49 588.93,-249.28"/>
</g>
<!-- Node10 -->
<g id="node10" class="node">
<title>Node10</title>
<g id="a_node10"><a xlink:href="types__generated__handling_8h.html" target="_top" xlink:title=" ">
<polygon fill="none" stroke="black" points="528.55,-280.5 528.55,-310.5 683.55,-310.5 683.55,-280.5 528.55,-280.5"/>
<text text-anchor="start" x="536.55" y="-298.5" font-family="Helvetica,sans-Serif" font-size="10.00">open62541/types_generated</text>
<text text-anchor="middle" x="606.05" y="-287.5" font-family="Helvetica,sans-Serif" font-size="10.00">_handling.h</text>
</a>
</g>
</g>
<!-- Node2&#45;&gt;Node10 -->
<g id="edge17" class="edge">
<title>Node2&#45;&gt;Node10</title>
<path fill="none" stroke="midnightblue" d="M481.49,-459.1C476.89,-446.11 470.42,-421.49 479.05,-403 497.4,-363.65 538.24,-333.69 568.68,-315.72"/>
<polygon fill="midnightblue" stroke="midnightblue" points="570.81,-318.53 577.76,-310.53 567.34,-312.45 570.81,-318.53"/>
</g>
<!-- Node11 -->
<g id="node11" class="node">
<title>Node11</title>
<g id="a_node11"><a xlink:href="nodeids_8h.html" target="_top" xlink:title=" ">
<polygon fill="none" stroke="black" points="249.55,-403.5 249.55,-422.5 370.55,-422.5 370.55,-403.5 249.55,-403.5"/>
<text text-anchor="middle" x="310.05" y="-410.5" font-family="Helvetica,sans-Serif" font-size="10.00">open62541/nodeids.h</text>
</a>
</g>
</g>
<!-- Node2&#45;&gt;Node11 -->
<g id="edge15" class="edge">
<title>Node2&#45;&gt;Node11</title>
<path fill="none" stroke="midnightblue" d="M457.32,-459.44C427.62,-450.28 380.33,-435.69 347.38,-425.52"/>
<polygon fill="midnightblue" stroke="midnightblue" points="348.23,-422.12 337.65,-422.52 346.17,-428.81 348.23,-422.12"/>
</g>
<!-- Node12 -->
<g id="node12" class="node">
<title>Node12</title>
<g id="a_node12"><a xlink:href="securitypolicy_8h.html" target="_top" xlink:title=" ">
<polygon fill="none" stroke="black" points="817.05,-403.5 817.05,-422.5 999.05,-422.5 999.05,-403.5 817.05,-403.5"/>
<text text-anchor="middle" x="908.05" y="-410.5" font-family="Helvetica,sans-Serif" font-size="10.00">open62541/plugin/securitypolicy.h</text>
</a>
</g>
</g>
<!-- Node2&#45;&gt;Node12 -->
<g id="edge18" class="edge">
<title>Node2&#45;&gt;Node12</title>
<path fill="none" stroke="midnightblue" d="M541.66,-460.77C616.29,-451.25 747.89,-434.45 831.39,-423.79"/>
<polygon fill="midnightblue" stroke="midnightblue" points="831.85,-427.26 841.32,-422.52 830.96,-420.31 831.85,-427.26"/>
</g>
<!-- Node13 -->
<g id="node13" class="node">
<title>Node13</title>
<g id="a_node13"><a xlink:href="log_8h.html" target="_top" xlink:title=" ">
<polygon fill="none" stroke="black" points="1105.55,-347.5 1105.55,-366.5 1236.55,-366.5 1236.55,-347.5 1105.55,-347.5"/>
<text text-anchor="middle" x="1171.05" y="-354.5" font-family="Helvetica,sans-Serif" font-size="10.00">open62541/plugin/log.h</text>
</a>
</g>
</g>
<!-- Node2&#45;&gt;Node13 -->
<g id="edge34" class="edge">
<title>Node2&#45;&gt;Node13</title>
<path fill="none" stroke="midnightblue" d="M541.88,-461.03C548.34,-460.31 554.83,-459.62 561.05,-459 759.38,-439.28 813.98,-468.42 1008.05,-423 1058.37,-411.22 1113.57,-386.51 1145.09,-371.18"/>
<polygon fill="midnightblue" stroke="midnightblue" points="1147.04,-374.12 1154.46,-366.56 1143.94,-367.84 1147.04,-374.12"/>
</g>
<!-- Node15 -->
<g id="node15" class="node">
<title>Node15</title>
<g id="a_node15"><a xlink:href="pki_8h.html" target="_top" xlink:title=" ">
<polygon fill="none" stroke="black" points="818.55,-286 818.55,-305 949.55,-305 949.55,-286 818.55,-286"/>
<text text-anchor="middle" x="884.05" y="-293" font-family="Helvetica,sans-Serif" font-size="10.00">open62541/plugin/pki.h</text>
</a>
</g>
</g>
<!-- Node2&#45;&gt;Node15 -->
<g id="edge35" class="edge">
<title>Node2&#45;&gt;Node15</title>
<path fill="none" stroke="midnightblue" d="M541.78,-461.64C584.84,-455.44 644.81,-443.8 694.05,-423 763.12,-393.82 833.88,-338.67 866.1,-311.88"/>
<polygon fill="midnightblue" stroke="midnightblue" points="868.74,-314.24 874.13,-305.12 864.23,-308.88 868.74,-314.24"/>
</g>
<!-- Node16 -->
<g id="node16" class="node">
<title>Node16</title>
<g id="a_node16"><a xlink:href="accesscontrol_8h.html" target="_top" xlink:title=" ">
<polygon fill="none" stroke="black" points="503.05,-403.5 503.05,-422.5 685.05,-422.5 685.05,-403.5 503.05,-403.5"/>
<text text-anchor="middle" x="594.05" y="-410.5" font-family="Helvetica,sans-Serif" font-size="10.00">open62541/plugin/accesscontrol.h</text>
</a>
</g>
</g>
<!-- Node2&#45;&gt;Node16 -->
<g id="edge26" class="edge">
<title>Node2&#45;&gt;Node16</title>
<path fill="none" stroke="midnightblue" d="M502.56,-459.32C520.12,-450.62 547.38,-437.12 567.58,-427.11"/>
<polygon fill="midnightblue" stroke="midnightblue" points="569.17,-430.23 576.58,-422.65 566.06,-423.96 569.17,-430.23"/>
</g>
<!-- Node2&#45;&gt;Node17 -->
<g id="edge28" class="edge">
<title>Node2&#45;&gt;Node17</title>
<path fill="none" stroke="midnightblue" d="M428.24,-459.8C361.73,-450.2 251.59,-434.29 180.17,-423.98"/>
<polygon fill="midnightblue" stroke="midnightblue" points="180.33,-420.47 169.93,-422.5 179.33,-427.39 180.33,-420.47"/>
</g>
<!-- Node19 -->
<g id="node19" class="node">
<title>Node19</title>
<g id="a_node19"><a xlink:href="network_8h.html" target="_top" xlink:title=" ">
<polygon fill="none" stroke="black" points="1093.55,-403.5 1093.55,-422.5 1248.55,-422.5 1248.55,-403.5 1093.55,-403.5"/>
<text text-anchor="middle" x="1171.05" y="-410.5" font-family="Helvetica,sans-Serif" font-size="10.00">open62541/plugin/network.h</text>
</a>
</g>
</g>
<!-- Node2&#45;&gt;Node19 -->
<g id="edge31" class="edge">
<title>Node2&#45;&gt;Node19</title>
<path fill="none" stroke="midnightblue" d="M541.87,-460.97C548.33,-460.26 554.83,-459.58 561.05,-459 790.81,-437.42 849.07,-442.24 1079.05,-423 1080.35,-422.89 1081.67,-422.78 1082.99,-422.67"/>
<polygon fill="midnightblue" stroke="midnightblue" points="1083.6,-426.13 1093.26,-421.76 1082.99,-419.15 1083.6,-426.13"/>
</g>
<!-- Node3&#45;&gt;Node4 -->
<g id="edge3" class="edge">
<title>Node3&#45;&gt;Node4</title>
<path fill="none" stroke="midnightblue" d="M720.34,-347.46C747.29,-319.73 832.69,-231.85 868.26,-195.24"/>
<polygon fill="midnightblue" stroke="midnightblue" points="870.97,-197.48 875.43,-187.87 865.95,-192.6 870.97,-197.48"/>
</g>
<!-- Node3&#45;&gt;Node9 -->
<g id="edge9" class="edge">
<title>Node3&#45;&gt;Node9</title>
<path fill="none" stroke="midnightblue" d="M709.93,-347.08C706.52,-332.85 699.55,-304.16 693.05,-280 690.66,-271.16 687.86,-261.38 685.47,-253.21"/>
<polygon fill="midnightblue" stroke="midnightblue" points="688.82,-252.2 682.63,-243.6 682.11,-254.18 688.82,-252.2"/>
</g>
<!-- Node3&#45;&gt;Node10 -->
<g id="edge11" class="edge">
<title>Node3&#45;&gt;Node10</title>
<path fill="none" stroke="midnightblue" d="M696.86,-347.48C682.03,-339.15 658.97,-326.21 639.8,-315.45"/>
<polygon fill="midnightblue" stroke="midnightblue" points="641.46,-312.37 631.03,-310.52 638.04,-318.47 641.46,-312.37"/>
</g>
<!-- Node5 -->
<g id="node5" class="node">
<title>Node5</title>
<g id="a_node5"><a xlink:href="config_8h.html" target="_top" xlink:title=" ">
<polygon fill="none" stroke="black" points="828.05,-56.5 828.05,-75.5 940.05,-75.5 940.05,-56.5 828.05,-56.5"/>
<text text-anchor="middle" x="884.05" y="-63.5" font-family="Helvetica,sans-Serif" font-size="10.00">open62541/config.h</text>
</a>
</g>
</g>
<!-- Node4&#45;&gt;Node5 -->
<g id="edge4" class="edge">
<title>Node4&#45;&gt;Node5</title>
<path fill="none" stroke="midnightblue" d="M884.05,-168.37C884.05,-150.62 884.05,-109.67 884.05,-85.6"/>
<polygon fill="midnightblue" stroke="midnightblue" points="887.55,-85.59 884.05,-75.59 880.55,-85.59 887.55,-85.59"/>
</g>
<!-- Node4&#45;&gt;Node7 -->
<g id="edge6" class="edge">
<title>Node4&#45;&gt;Node7</title>
<path fill="none" stroke="midnightblue" d="M869.43,-168.32C855.1,-159.82 833.03,-146.73 816.3,-136.8"/>
<polygon fill="midnightblue" stroke="midnightblue" points="818.02,-133.75 807.63,-131.65 814.44,-139.77 818.02,-133.75"/>
</g>
<!-- Node8 -->
<g id="node8" class="node">
<title>Node8</title>
<g id="a_node8"><a xlink:href="statuscodes_8h.html" target="_top" xlink:title=" ">
<polygon fill="none" stroke="black" points="912.55,-112.5 912.55,-131.5 1053.55,-131.5 1053.55,-112.5 912.55,-112.5"/>
<text text-anchor="middle" x="983.05" y="-119.5" font-family="Helvetica,sans-Serif" font-size="10.00">open62541/statuscodes.h</text>
</a>
</g>
</g>
<!-- Node4&#45;&gt;Node8 -->
<g id="edge8" class="edge">
<title>Node4&#45;&gt;Node8</title>
<path fill="none" stroke="midnightblue" d="M899.95,-168.32C915.68,-159.74 939.99,-146.49 958.26,-136.52"/>
<polygon fill="midnightblue" stroke="midnightblue" points="960.08,-139.52 967.18,-131.65 956.72,-133.37 960.08,-139.52"/>
</g>
<!-- Node6 -->
<g id="node6" class="node">
<title>Node6</title>
<g id="a_node6"><a xlink:href="posix_2ua__architecture_8h.html" target="_top" xlink:title=" ">
<polygon fill="none" stroke="black" points="818.55,-0.5 818.55,-19.5 949.55,-19.5 949.55,-0.5 818.55,-0.5"/>
<text text-anchor="middle" x="884.05" y="-7.5" font-family="Helvetica,sans-Serif" font-size="10.00">posix/ua_architecture.h</text>
</a>
</g>
</g>
<!-- Node5&#45;&gt;Node6 -->
<g id="edge5" class="edge">
<title>Node5&#45;&gt;Node6</title>
<path fill="none" stroke="midnightblue" d="M884.05,-56.08C884.05,-49.01 884.05,-38.86 884.05,-29.99"/>
<polygon fill="midnightblue" stroke="midnightblue" points="887.55,-29.75 884.05,-19.75 880.55,-29.75 887.55,-29.75"/>
</g>
<!-- Node7&#45;&gt;Node5 -->
<g id="edge7" class="edge">
<title>Node7&#45;&gt;Node5</title>
<path fill="none" stroke="midnightblue" d="M807.67,-112.32C822,-103.82 844.06,-90.73 860.79,-80.8"/>
<polygon fill="midnightblue" stroke="midnightblue" points="862.65,-83.77 869.46,-75.65 859.08,-77.75 862.65,-83.77"/>
</g>
<!-- Node9&#45;&gt;Node4 -->
<g id="edge10" class="edge">
<title>Node9&#45;&gt;Node4</title>
<path fill="none" stroke="midnightblue" d="M712.37,-224.44C747.44,-215.16 803.54,-200.31 842.01,-190.13"/>
<polygon fill="midnightblue" stroke="midnightblue" points="843.1,-193.46 851.87,-187.52 841.31,-186.69 843.1,-193.46"/>
</g>
<!-- Node10&#45;&gt;Node9 -->
<g id="edge12" class="edge">
<title>Node10&#45;&gt;Node9</title>
<path fill="none" stroke="midnightblue" d="M623.58,-280.4C634.89,-271.31 649.59,-259.49 661.15,-250.19"/>
<polygon fill="midnightblue" stroke="midnightblue" points="663.68,-252.65 669.28,-243.66 659.29,-247.2 663.68,-252.65"/>
</g>
<!-- Node12&#45;&gt;Node3 -->
<g id="edge19" class="edge">
<title>Node12&#45;&gt;Node3</title>
<path fill="none" stroke="midnightblue" d="M876.99,-403.44C843.44,-394.2 789.85,-379.44 752.91,-369.26"/>
<polygon fill="midnightblue" stroke="midnightblue" points="753.53,-365.8 742.96,-366.52 751.67,-372.55 753.53,-365.8"/>
</g>
<!-- Node12&#45;&gt;Node13 -->
<g id="edge20" class="edge">
<title>Node12&#45;&gt;Node13</title>
<path fill="none" stroke="midnightblue" d="M949.72,-403.44C995.79,-393.98 1070.04,-378.74 1119.68,-368.55"/>
<polygon fill="midnightblue" stroke="midnightblue" points="1120.48,-371.96 1129.57,-366.52 1119.07,-365.1 1120.48,-371.96"/>
</g>
<!-- Node12&#45;&gt;Node15 -->
<g id="edge23" class="edge">
<title>Node12&#45;&gt;Node15</title>
<path fill="none" stroke="midnightblue" d="M906.24,-403.32C902.37,-384.67 893.18,-340.44 887.92,-315.13"/>
<polygon fill="midnightblue" stroke="midnightblue" points="891.33,-314.36 885.87,-305.28 884.48,-315.78 891.33,-314.36"/>
</g>
<!-- Node13&#45;&gt;Node5 -->
<g id="edge21" class="edge">
<title>Node13&#45;&gt;Node5</title>
<path fill="none" stroke="midnightblue" d="M1215.36,-347.49C1297.93,-330.36 1467.05,-288.71 1467.05,-235 1467.05,-235 1467.05,-235 1467.05,-177 1467.05,-124.93 1103.24,-86.48 950.41,-72.63"/>
<polygon fill="midnightblue" stroke="midnightblue" points="950.48,-69.12 940.21,-71.71 949.86,-76.09 950.48,-69.12"/>
</g>
<!-- Node14 -->
<g id="node14" class="node">
<title>Node14</title>
<g id="a_node14"><a xlink:title=" ">
<polygon fill="none" stroke="#bfbfbf" points="1143.05,-286 1143.05,-305 1199.05,-305 1199.05,-286 1143.05,-286"/>
<text text-anchor="middle" x="1171.05" y="-293" font-family="Helvetica,sans-Serif" font-size="10.00">stdarg.h</text>
</a>
</g>
</g>
<!-- Node13&#45;&gt;Node14 -->
<g id="edge22" class="edge">
<title>Node13&#45;&gt;Node14</title>
<path fill="none" stroke="midnightblue" d="M1171.05,-347.48C1171.05,-339.08 1171.05,-325.98 1171.05,-315.16"/>
<polygon fill="midnightblue" stroke="midnightblue" points="1174.55,-315.01 1171.05,-305.01 1167.55,-315.01 1174.55,-315.01"/>
</g>
<!-- Node15&#45;&gt;Node4 -->
<g id="edge24" class="edge">
<title>Node15&#45;&gt;Node4</title>
<path fill="none" stroke="midnightblue" d="M884.05,-285.82C884.05,-267.26 884.05,-223.34 884.05,-197.97"/>
<polygon fill="midnightblue" stroke="midnightblue" points="887.55,-197.78 884.05,-187.78 880.55,-197.78 887.55,-197.78"/>
</g>
<!-- Node15&#45;&gt;Node9 -->
<g id="edge25" class="edge">
<title>Node15&#45;&gt;Node9</title>
<path fill="none" stroke="midnightblue" d="M854.82,-285.98C819.14,-275.57 758.69,-257.94 719.06,-246.38"/>
<polygon fill="midnightblue" stroke="midnightblue" points="719.8,-242.95 709.22,-243.51 717.84,-249.67 719.8,-242.95"/>
</g>
<!-- Node16&#45;&gt;Node3 -->
<g id="edge27" class="edge">
<title>Node16&#45;&gt;Node3</title>
<path fill="none" stroke="midnightblue" d="M612.74,-403.44C631.99,-394.64 662.2,-380.81 684.25,-370.72"/>
<polygon fill="midnightblue" stroke="midnightblue" points="685.8,-373.86 693.44,-366.52 682.89,-367.5 685.8,-373.86"/>
</g>
<!-- Node17&#45;&gt;Node3 -->
<g id="edge29" class="edge">
<title>Node17&#45;&gt;Node3</title>
<path fill="none" stroke="midnightblue" d="M193.35,-404.6C316.21,-393.57 544.65,-373.04 652.61,-363.34"/>
<polygon fill="midnightblue" stroke="midnightblue" points="653.02,-366.82 662.67,-362.44 652.4,-359.85 653.02,-366.82"/>
</g>
<!-- Node18 -->
<g id="node18" class="node">
<title>Node18</title>
<g id="a_node18"><a xlink:href="aa__tree_8h.html" target="_top" xlink:title=" ">
<polygon fill="none" stroke="black" points="80.05,-347.5 80.05,-366.5 142.05,-366.5 142.05,-347.5 80.05,-347.5"/>
<text text-anchor="middle" x="111.05" y="-354.5" font-family="Helvetica,sans-Serif" font-size="10.00">aa_tree.h</text>
</a>
</g>
</g>
<!-- Node17&#45;&gt;Node18 -->
<g id="edge30" class="edge">
<title>Node17&#45;&gt;Node18</title>
<path fill="none" stroke="midnightblue" d="M111.05,-403.08C111.05,-396.01 111.05,-385.86 111.05,-376.99"/>
<polygon fill="midnightblue" stroke="midnightblue" points="114.55,-376.75 111.05,-366.75 107.55,-376.75 114.55,-376.75"/>
</g>
<!-- Node19&#45;&gt;Node3 -->
<g id="edge32" class="edge">
<title>Node19&#45;&gt;Node3</title>
<path fill="none" stroke="midnightblue" d="M1098.57,-403.47C1008.11,-392.83 855.13,-374.83 771.32,-364.97"/>
<polygon fill="midnightblue" stroke="midnightblue" points="771.55,-361.48 761.21,-363.78 770.73,-368.43 771.55,-361.48"/>
</g>
<!-- Node19&#45;&gt;Node13 -->
<g id="edge33" class="edge">
<title>Node19&#45;&gt;Node13</title>
<path fill="none" stroke="midnightblue" d="M1171.05,-403.08C1171.05,-396.01 1171.05,-385.86 1171.05,-376.99"/>
<polygon fill="midnightblue" stroke="midnightblue" points="1174.55,-376.75 1171.05,-366.75 1167.55,-376.75 1174.55,-376.75"/>
</g>
<!-- Node20&#45;&gt;Node19 -->
<g id="edge38" class="edge">
<title>Node20&#45;&gt;Node19</title>
<path fill="none" stroke="midnightblue" d="M1239.03,-459.32C1226.51,-450.98 1207.36,-438.21 1192.57,-428.35"/>
<polygon fill="midnightblue" stroke="midnightblue" points="1194.29,-425.29 1184.03,-422.65 1190.41,-431.11 1194.29,-425.29"/>
</g>
<!-- Node21 -->
<g id="node21" class="node">
<title>Node21</title>
<g id="a_node21"><a xlink:href="transport__generated_8h.html" target="_top" xlink:title=" ">
<polygon fill="none" stroke="black" points="968.05,-280.5 968.05,-310.5 1086.05,-310.5 1086.05,-280.5 968.05,-280.5"/>
<text text-anchor="start" x="976.05" y="-298.5" font-family="Helvetica,sans-Serif" font-size="10.00">open62541/transport</text>
<text text-anchor="middle" x="1027.05" y="-287.5" font-family="Helvetica,sans-Serif" font-size="10.00">_generated.h</text>
</a>
</g>
</g>
<!-- Node20&#45;&gt;Node21 -->
<g id="edge39" class="edge">
<title>Node20&#45;&gt;Node21</title>
<path fill="none" stroke="midnightblue" d="M1257.68,-459.48C1263.1,-450.74 1270.91,-436.56 1274.05,-423 1282.16,-387.93 1274.33,-369.27 1246.05,-347 1222.99,-328.85 1151.45,-314.6 1096.34,-305.93"/>
<polygon fill="midnightblue" stroke="midnightblue" points="1096.67,-302.44 1086.26,-304.37 1095.61,-309.36 1096.67,-302.44"/>
</g>
<!-- Node21&#45;&gt;Node4 -->
<g id="edge40" class="edge">
<title>Node21&#45;&gt;Node4</title>
<path fill="none" stroke="midnightblue" d="M1009.51,-280.34C982.34,-258.39 930.31,-216.37 902.56,-193.95"/>
<polygon fill="midnightblue" stroke="midnightblue" points="904.76,-191.23 894.78,-187.67 900.36,-196.68 904.76,-191.23"/>
</g>
<!-- Node21&#45;&gt;Node9 -->
<g id="edge41" class="edge">
<title>Node21&#45;&gt;Node9</title>
<path fill="none" stroke="midnightblue" d="M967.74,-281.67C964.81,-281.09 961.89,-280.53 959.05,-280 887.28,-266.57 804.67,-253.55 748.08,-245"/>
<polygon fill="midnightblue" stroke="midnightblue" points="748.58,-241.53 738.17,-243.51 747.54,-248.46 748.58,-241.53"/>
</g>
<!-- Node22&#45;&gt;Node3 -->
<g id="edge43" class="edge">
<title>Node22&#45;&gt;Node3</title>
<path fill="none" stroke="midnightblue" d="M843.68,-571.3C823.3,-538.29 750.56,-420.4 722.86,-375.52"/>
<polygon fill="midnightblue" stroke="midnightblue" points="725.76,-373.56 717.53,-366.88 719.8,-377.23 725.76,-373.56"/>
</g>
<!-- Node23 -->
<g id="node23" class="node">
<title>Node23</title>
<g id="a_node23"><a xlink:href="ua__securechannel_8h.html" target="_top" xlink:title=" ">
<polygon fill="none" stroke="black" points="929.55,-515.5 929.55,-534.5 1042.55,-534.5 1042.55,-515.5 929.55,-515.5"/>
<text text-anchor="middle" x="986.05" y="-522.5" font-family="Helvetica,sans-Serif" font-size="10.00">ua_securechannel.h</text>
</a>
</g>
</g>
<!-- Node22&#45;&gt;Node23 -->
<g id="edge44" class="edge">
<title>Node22&#45;&gt;Node23</title>
<path fill="none" stroke="midnightblue" d="M870.75,-571.44C893.4,-562.52 929.12,-548.44 954.8,-538.32"/>
<polygon fill="midnightblue" stroke="midnightblue" points="956.42,-541.44 964.44,-534.52 953.85,-534.93 956.42,-541.44"/>
</g>
<!-- Node23&#45;&gt;Node3 -->
<g id="edge45" class="edge">
<title>Node23&#45;&gt;Node3</title>
<path fill="none" stroke="midnightblue" d="M970.09,-515.5C938.63,-498.61 866.61,-459.36 808.05,-423 781.33,-406.41 751.46,-385.86 732.24,-372.36"/>
<polygon fill="midnightblue" stroke="midnightblue" points="734.16,-369.43 723.97,-366.52 730.12,-375.14 734.16,-369.43"/>
</g>
<!-- Node23&#45;&gt;Node4 -->
<g id="edge46" class="edge">
<title>Node23&#45;&gt;Node4</title>
<path fill="none" stroke="midnightblue" d="M1042.88,-522.95C1128.67,-520.34 1286.01,-511.16 1331.05,-479 1379.9,-444.12 1391.05,-418.03 1391.05,-358 1391.05,-358 1391.05,-358 1391.05,-294.5 1391.05,-204.98 1086.74,-184.84 949.64,-180.31"/>
<polygon fill="midnightblue" stroke="midnightblue" points="949.37,-176.8 939.27,-179.99 949.16,-183.8 949.37,-176.8"/>
</g>
<!-- Node23&#45;&gt;Node12 -->
<g id="edge48" class="edge">
<title>Node23&#45;&gt;Node12</title>
<path fill="none" stroke="midnightblue" d="M979.93,-515.37C967.05,-497.22 936.98,-454.8 920.09,-430.99"/>
<polygon fill="midnightblue" stroke="midnightblue" points="922.78,-428.72 914.14,-422.59 917.07,-432.77 922.78,-428.72"/>
</g>
<!-- Node23&#45;&gt;Node13 -->
<g id="edge47" class="edge">
<title>Node23&#45;&gt;Node13</title>
<path fill="none" stroke="midnightblue" d="M1011.31,-515.49C1077.36,-493.13 1250.6,-433.7 1258.05,-423 1274.36,-399.53 1240.85,-381.07 1210.8,-369.91"/>
<polygon fill="midnightblue" stroke="midnightblue" points="1211.82,-366.56 1201.23,-366.54 1209.5,-373.16 1211.82,-366.56"/>
</g>
<!-- Node23&#45;&gt;Node20 -->
<g id="edge51" class="edge">
<title>Node23&#45;&gt;Node20</title>
<path fill="none" stroke="midnightblue" d="M1028.19,-515.44C1074.79,-505.98 1149.89,-490.74 1200.09,-480.55"/>
<polygon fill="midnightblue" stroke="midnightblue" points="1200.99,-483.94 1210.09,-478.52 1199.6,-477.08 1200.99,-483.94"/>
</g>
<!-- Node23&#45;&gt;Node21 -->
<g id="edge49" class="edge">
<title>Node23&#45;&gt;Node21</title>
<path fill="none" stroke="midnightblue" d="M988.12,-515.39C992.27,-498 1001.72,-457.42 1008.05,-423 1014.55,-387.61 1020.43,-346.35 1023.87,-320.82"/>
<polygon fill="midnightblue" stroke="midnightblue" points="1027.39,-320.96 1025.24,-310.59 1020.45,-320.04 1027.39,-320.96"/>
</g>
<!-- Node24 -->
<g id="node24" class="node">
<title>Node24</title>
<g id="a_node24"><a xlink:href="open62541__queue_8h.html" target="_top" xlink:title=" ">
<polygon fill="none" stroke="black" points="569.55,-459.5 569.55,-478.5 684.55,-478.5 684.55,-459.5 569.55,-459.5"/>
<text text-anchor="middle" x="627.05" y="-466.5" font-family="Helvetica,sans-Serif" font-size="10.00">open62541_queue.h</text>
</a>
</g>
</g>
<!-- Node23&#45;&gt;Node24 -->
<g id="edge50" class="edge">
<title>Node23&#45;&gt;Node24</title>
<path fill="none" stroke="midnightblue" d="M929.16,-515.44C865.22,-505.83 761.52,-490.23 693.8,-480.04"/>
<polygon fill="midnightblue" stroke="midnightblue" points="694.07,-476.54 683.66,-478.52 693.03,-483.47 694.07,-476.54"/>
</g>
<!-- Node25&#45;&gt;Node2 -->
<g id="edge53" class="edge">
<title>Node25&#45;&gt;Node2</title>
<path fill="none" stroke="midnightblue" d="M606.23,-515.44C582.21,-506.44 544.22,-492.19 517.18,-482.05"/>
<polygon fill="midnightblue" stroke="midnightblue" points="518.35,-478.75 507.76,-478.52 515.89,-485.3 518.35,-478.75"/>
</g>
<!-- Node25&#45;&gt;Node24 -->
<g id="edge54" class="edge">
<title>Node25&#45;&gt;Node24</title>
<path fill="none" stroke="midnightblue" d="M628.72,-515.08C628.45,-508.01 628.08,-497.86 627.75,-488.99"/>
<polygon fill="midnightblue" stroke="midnightblue" points="631.24,-488.61 627.37,-478.75 624.24,-488.87 631.24,-488.61"/>
</g>
<!-- Node25&#45;&gt;Node26 -->
<g id="edge55" class="edge">
<title>Node25&#45;&gt;Node26</title>
<path fill="none" stroke="midnightblue" d="M682.8,-521.06C800.41,-514.52 1089.36,-497.84 1331.05,-479 1343.09,-478.06 1355.96,-476.95 1368.27,-475.84"/>
<polygon fill="midnightblue" stroke="midnightblue" points="1368.82,-479.31 1378.46,-474.91 1368.18,-472.34 1368.82,-479.31"/>
</g>
<!-- Node26&#45;&gt;Node3 -->
<g id="edge57" class="edge">
<title>Node26&#45;&gt;Node3</title>
<path fill="none" stroke="midnightblue" d="M1411.59,-459.47C1381.2,-445.06 1316.28,-416.19 1258.05,-403 1084.28,-363.64 872.48,-357.79 771.34,-357.48"/>
<polygon fill="midnightblue" stroke="midnightblue" points="771.32,-353.98 761.32,-357.47 771.31,-360.98 771.32,-353.98"/>
</g>
<!-- Node26&#45;&gt;Node4 -->
<g id="edge56" class="edge">
<title>Node26&#45;&gt;Node4</title>
<path fill="none" stroke="midnightblue" d="M1429.05,-459.44C1429.05,-440.94 1429.05,-395.81 1429.05,-358 1429.05,-358 1429.05,-358 1429.05,-294.5 1429.05,-261.4 1431.1,-244.41 1405.05,-224 1369.95,-196.51 1081.97,-184.71 949.85,-180.71"/>
<polygon fill="midnightblue" stroke="midnightblue" points="949.56,-177.2 939.46,-180.4 949.36,-184.2 949.56,-177.2"/>
</g>
<!-- Node27&#45;&gt;Node26 -->
<g id="edge59" class="edge">
<title>Node27&#45;&gt;Node26</title>
<path fill="none" stroke="midnightblue" d="M1429.05,-515.08C1429.05,-508.01 1429.05,-497.86 1429.05,-488.99"/>
<polygon fill="midnightblue" stroke="midnightblue" points="1432.55,-488.75 1429.05,-478.75 1425.55,-488.75 1432.55,-488.75"/>
</g>
<!-- Node28 -->
<g id="node28" class="node">
<title>Node28</title>
<g id="a_node28"><a xlink:href="ziptree_8h.html" target="_top" xlink:title=" ">
<polygon fill="none" stroke="black" points="1497.55,-459.5 1497.55,-478.5 1556.55,-478.5 1556.55,-459.5 1497.55,-459.5"/>
<text text-anchor="middle" x="1527.05" y="-466.5" font-family="Helvetica,sans-Serif" font-size="10.00">ziptree.h</text>
</a>
</g>
</g>
<!-- Node27&#45;&gt;Node28 -->
<g id="edge60" class="edge">
<title>Node27&#45;&gt;Node28</title>
<path fill="none" stroke="midnightblue" d="M1444.79,-515.32C1460.36,-506.74 1484.42,-493.49 1502.51,-483.52"/>
<polygon fill="midnightblue" stroke="midnightblue" points="1504.27,-486.55 1511.34,-478.65 1500.89,-480.42 1504.27,-486.55"/>
</g>
</g>
</svg>
