<?xml version="1.0" encoding="UTF-8" standalone="no"?>
<!DOCTYPE svg PUBLIC "-//W3C//DTD SVG 1.1//EN"
 "http://www.w3.org/Graphics/SVG/1.1/DTD/svg11.dtd">
<!-- Generated by graphviz version 2.43.0 (0)
 -->
<!-- Title: /home/runner/work/open62541pp/open62541pp/build/doc/open62541/src/ua_types_encoding_json.h Pages: 1 -->
<svg width="479pt" height="509pt"
 viewBox="0.00 0.00 478.50 509.00" xmlns="http://www.w3.org/2000/svg" xmlns:xlink="http://www.w3.org/1999/xlink">
<g id="graph0" class="graph" transform="scale(1 1) rotate(0) translate(4 505)">
<title>/home/runner/work/open62541pp/open62541pp/build/doc/open62541/src/ua_types_encoding_json.h</title>
<!-- Node1 -->
<g id="node1" class="node">
<title>Node1</title>
<g id="a_node1"><a xlink:title=" ">
<polygon fill="#bfbfbf" stroke="black" points="75,-459.5 75,-500.5 265,-500.5 265,-459.5 75,-459.5"/>
<text text-anchor="start" x="83" y="-488.5" font-family="Helvetica,sans-Serif" font-size="10.00">/home/runner/work/open62541pp</text>
<text text-anchor="start" x="83" y="-477.5" font-family="Helvetica,sans-Serif" font-size="10.00">/open62541pp/build/doc/open62541</text>
<text text-anchor="middle" x="170" y="-466.5" font-family="Helvetica,sans-Serif" font-size="10.00">/src/ua_types_encoding_json.h</text>
</a>
</g>
</g>
<!-- Node1&#45;&gt;Node1 -->
<g id="edge9" class="edge">
<title>Node1&#45;&gt;Node1</title>
<path fill="none" stroke="midnightblue" d="M265.22,-490.49C276.01,-488.52 283,-485.03 283,-480 283,-476.78 280.13,-474.19 275.23,-472.22"/>
<polygon fill="midnightblue" stroke="midnightblue" points="275.78,-468.75 265.22,-469.51 273.95,-475.5 275.78,-468.75"/>
</g>
<!-- Node2 -->
<g id="node2" class="node">
<title>Node2</title>
<g id="a_node2"><a xlink:href="types_8h.html" target="_top" xlink:title=" ">
<polygon fill="none" stroke="black" points="155,-168.5 155,-187.5 265,-187.5 265,-168.5 155,-168.5"/>
<text text-anchor="middle" x="210" y="-175.5" font-family="Helvetica,sans-Serif" font-size="10.00">open62541/types.h</text>
</a>
</g>
</g>
<!-- Node1&#45;&gt;Node2 -->
<g id="edge1" class="edge">
<title>Node1&#45;&gt;Node2</title>
<path fill="none" stroke="midnightblue" d="M99.87,-459.37C53.04,-441.49 0,-409.8 0,-358 0,-358 0,-358 0,-294.5 0,-227.5 83.1,-199.09 144.75,-187.23"/>
<polygon fill="midnightblue" stroke="midnightblue" points="145.61,-190.63 154.82,-185.4 144.36,-183.74 145.61,-190.63"/>
</g>
<!-- Node7 -->
<g id="node7" class="node">
<title>Node7</title>
<g id="a_node7"><a xlink:href="ua__types__encoding__binary_8h.html" target="_top" xlink:title=" ">
<polygon fill="none" stroke="black" points="28,-286 28,-305 182,-305 182,-286 28,-286"/>
<text text-anchor="middle" x="105" y="-293" font-family="Helvetica,sans-Serif" font-size="10.00">ua_types_encoding_binary.h</text>
</a>
</g>
</g>
<!-- Node1&#45;&gt;Node7 -->
<g id="edge7" class="edge">
<title>Node1&#45;&gt;Node7</title>
<path fill="none" stroke="midnightblue" d="M162.96,-459.31C159.12,-448.57 154.3,-435.06 150,-423 136.23,-384.36 120.13,-339.08 111.41,-314.53"/>
<polygon fill="midnightblue" stroke="midnightblue" points="114.7,-313.34 108.05,-305.09 108.1,-315.69 114.7,-313.34"/>
</g>
<!-- Node8 -->
<g id="node8" class="node">
<title>Node8</title>
<g id="a_node8"><a xlink:href="ua__util__internal_8h.html" target="_top" xlink:title=" ">
<polygon fill="none" stroke="black" points="159.5,-403.5 159.5,-422.5 260.5,-422.5 260.5,-403.5 159.5,-403.5"/>
<text text-anchor="middle" x="210" y="-410.5" font-family="Helvetica,sans-Serif" font-size="10.00">ua_util_internal.h</text>
</a>
</g>
</g>
<!-- Node1&#45;&gt;Node8 -->
<g id="edge10" class="edge">
<title>Node1&#45;&gt;Node8</title>
<path fill="none" stroke="midnightblue" d="M182,-459.5C187.54,-450.49 194.07,-439.89 199.42,-431.19"/>
<polygon fill="midnightblue" stroke="midnightblue" points="202.42,-433 204.68,-422.65 196.45,-429.33 202.42,-433"/>
</g>
<!-- Node12 -->
<g id="node12" class="node">
<title>Node12</title>
<g id="a_node12"><a xlink:href="jsmn_8h.html" target="_top" xlink:title=" ">
<polygon fill="none" stroke="black" points="302,-403.5 302,-422.5 414,-422.5 414,-403.5 302,-403.5"/>
<text text-anchor="middle" x="358" y="-410.5" font-family="Helvetica,sans-Serif" font-size="10.00">../deps/jsmn/jsmn.h</text>
</a>
</g>
</g>
<!-- Node1&#45;&gt;Node12 -->
<g id="edge18" class="edge">
<title>Node1&#45;&gt;Node12</title>
<path fill="none" stroke="midnightblue" d="M226.41,-459.5C258,-448.57 296.38,-435.3 323.52,-425.92"/>
<polygon fill="midnightblue" stroke="midnightblue" points="324.67,-429.23 332.97,-422.65 322.38,-422.61 324.67,-429.23"/>
</g>
<!-- Node3 -->
<g id="node3" class="node">
<title>Node3</title>
<g id="a_node3"><a xlink:href="config_8h.html" target="_top" xlink:title=" ">
<polygon fill="none" stroke="black" points="108,-56.5 108,-75.5 220,-75.5 220,-56.5 108,-56.5"/>
<text text-anchor="middle" x="164" y="-63.5" font-family="Helvetica,sans-Serif" font-size="10.00">open62541/config.h</text>
</a>
</g>
</g>
<!-- Node2&#45;&gt;Node3 -->
<g id="edge2" class="edge">
<title>Node2&#45;&gt;Node3</title>
<path fill="none" stroke="midnightblue" d="M184.5,-168.47C168.01,-161.48 147.86,-149.79 138,-132 129.3,-116.3 139.29,-97.09 149.3,-83.64"/>
<polygon fill="midnightblue" stroke="midnightblue" points="152.13,-85.71 155.68,-75.73 146.68,-81.31 152.13,-85.71"/>
</g>
<!-- Node5 -->
<g id="node5" class="node">
<title>Node5</title>
<g id="a_node5"><a xlink:href="common_8h.html" target="_top" xlink:title=" ">
<polygon fill="none" stroke="black" points="147.5,-112.5 147.5,-131.5 272.5,-131.5 272.5,-112.5 147.5,-112.5"/>
<text text-anchor="middle" x="210" y="-119.5" font-family="Helvetica,sans-Serif" font-size="10.00">open62541/common.h</text>
</a>
</g>
</g>
<!-- Node2&#45;&gt;Node5 -->
<g id="edge4" class="edge">
<title>Node2&#45;&gt;Node5</title>
<path fill="none" stroke="midnightblue" d="M210,-168.08C210,-161.01 210,-150.86 210,-141.99"/>
<polygon fill="midnightblue" stroke="midnightblue" points="213.5,-141.75 210,-131.75 206.5,-141.75 213.5,-141.75"/>
</g>
<!-- Node6 -->
<g id="node6" class="node">
<title>Node6</title>
<g id="a_node6"><a xlink:href="statuscodes_8h.html" target="_top" xlink:title=" ">
<polygon fill="none" stroke="black" points="290.5,-112.5 290.5,-131.5 431.5,-131.5 431.5,-112.5 290.5,-112.5"/>
<text text-anchor="middle" x="361" y="-119.5" font-family="Helvetica,sans-Serif" font-size="10.00">open62541/statuscodes.h</text>
</a>
</g>
</g>
<!-- Node2&#45;&gt;Node6 -->
<g id="edge6" class="edge">
<title>Node2&#45;&gt;Node6</title>
<path fill="none" stroke="midnightblue" d="M233.93,-168.44C259.22,-159.4 299.3,-145.06 327.68,-134.92"/>
<polygon fill="midnightblue" stroke="midnightblue" points="328.95,-138.18 337.19,-131.52 326.59,-131.59 328.95,-138.18"/>
</g>
<!-- Node4 -->
<g id="node4" class="node">
<title>Node4</title>
<g id="a_node4"><a xlink:href="posix_2ua__architecture_8h.html" target="_top" xlink:title=" ">
<polygon fill="none" stroke="black" points="98.5,-0.5 98.5,-19.5 229.5,-19.5 229.5,-0.5 98.5,-0.5"/>
<text text-anchor="middle" x="164" y="-7.5" font-family="Helvetica,sans-Serif" font-size="10.00">posix/ua_architecture.h</text>
</a>
</g>
</g>
<!-- Node3&#45;&gt;Node4 -->
<g id="edge3" class="edge">
<title>Node3&#45;&gt;Node4</title>
<path fill="none" stroke="midnightblue" d="M164,-56.08C164,-49.01 164,-38.86 164,-29.99"/>
<polygon fill="midnightblue" stroke="midnightblue" points="167.5,-29.75 164,-19.75 160.5,-29.75 167.5,-29.75"/>
</g>
<!-- Node5&#45;&gt;Node3 -->
<g id="edge5" class="edge">
<title>Node5&#45;&gt;Node3</title>
<path fill="none" stroke="midnightblue" d="M202.4,-112.08C195.77,-104.3 185.98,-92.8 177.94,-83.37"/>
<polygon fill="midnightblue" stroke="midnightblue" points="180.6,-81.09 171.45,-75.75 175.27,-85.63 180.6,-81.09"/>
</g>
<!-- Node7&#45;&gt;Node2 -->
<g id="edge8" class="edge">
<title>Node7&#45;&gt;Node2</title>
<path fill="none" stroke="midnightblue" d="M112.89,-285.82C130.37,-266.59 172.6,-220.14 195.18,-195.31"/>
<polygon fill="midnightblue" stroke="midnightblue" points="197.88,-197.54 202.02,-187.78 192.7,-192.83 197.88,-197.54"/>
</g>
<!-- Node8&#45;&gt;Node2 -->
<g id="edge11" class="edge">
<title>Node8&#45;&gt;Node2</title>
<path fill="none" stroke="midnightblue" d="M210,-403.43C210,-369.75 210,-245.99 210,-198.1"/>
<polygon fill="midnightblue" stroke="midnightblue" points="213.5,-197.9 210,-187.9 206.5,-197.9 213.5,-197.9"/>
</g>
<!-- Node9 -->
<g id="node9" class="node">
<title>Node9</title>
<g id="a_node9"><a xlink:href="util_8h.html" target="_top" xlink:title=" ">
<polygon fill="none" stroke="black" points="238,-347.5 238,-366.5 336,-366.5 336,-347.5 238,-347.5"/>
<text text-anchor="middle" x="287" y="-354.5" font-family="Helvetica,sans-Serif" font-size="10.00">open62541/util.h</text>
</a>
</g>
</g>
<!-- Node8&#45;&gt;Node9 -->
<g id="edge12" class="edge">
<title>Node8&#45;&gt;Node9</title>
<path fill="none" stroke="midnightblue" d="M222.37,-403.32C234.16,-395.06 252.13,-382.45 266.14,-372.63"/>
<polygon fill="midnightblue" stroke="midnightblue" points="268.48,-375.26 274.66,-366.65 264.46,-369.53 268.48,-375.26"/>
</g>
<!-- Node9&#45;&gt;Node2 -->
<g id="edge13" class="edge">
<title>Node9&#45;&gt;Node2</title>
<path fill="none" stroke="midnightblue" d="M283.29,-347.46C271.42,-320.19 234.27,-234.78 217.89,-197.13"/>
<polygon fill="midnightblue" stroke="midnightblue" points="221.06,-195.64 213.86,-187.87 214.64,-198.43 221.06,-195.64"/>
</g>
<!-- Node10 -->
<g id="node10" class="node">
<title>Node10</title>
<g id="a_node10"><a xlink:href="types__generated_8h.html" target="_top" xlink:title=" ">
<polygon fill="none" stroke="black" points="276,-224.5 276,-243.5 440,-243.5 440,-224.5 276,-224.5"/>
<text text-anchor="middle" x="358" y="-231.5" font-family="Helvetica,sans-Serif" font-size="10.00">open62541/types_generated.h</text>
</a>
</g>
</g>
<!-- Node9&#45;&gt;Node10 -->
<g id="edge14" class="edge">
<title>Node9&#45;&gt;Node10</title>
<path fill="none" stroke="midnightblue" d="M287.48,-347.37C288.64,-332.56 292.61,-301.78 306,-280 313.42,-267.92 325.15,-257.37 335.59,-249.52"/>
<polygon fill="midnightblue" stroke="midnightblue" points="337.81,-252.24 343.93,-243.59 333.75,-246.53 337.81,-252.24"/>
</g>
<!-- Node11 -->
<g id="node11" class="node">
<title>Node11</title>
<g id="a_node11"><a xlink:href="types__generated__handling_8h.html" target="_top" xlink:title=" ">
<polygon fill="none" stroke="black" points="315.5,-280.5 315.5,-310.5 470.5,-310.5 470.5,-280.5 315.5,-280.5"/>
<text text-anchor="start" x="323.5" y="-298.5" font-family="Helvetica,sans-Serif" font-size="10.00">open62541/types_generated</text>
<text text-anchor="middle" x="393" y="-287.5" font-family="Helvetica,sans-Serif" font-size="10.00">_handling.h</text>
</a>
</g>
</g>
<!-- Node9&#45;&gt;Node11 -->
<g id="edge16" class="edge">
<title>Node9&#45;&gt;Node11</title>
<path fill="none" stroke="midnightblue" d="M302.19,-347.48C317.01,-339.15 340.08,-326.21 359.25,-315.45"/>
<polygon fill="midnightblue" stroke="midnightblue" points="361.01,-318.47 368.02,-310.52 357.58,-312.37 361.01,-318.47"/>
</g>
<!-- Node10&#45;&gt;Node2 -->
<g id="edge15" class="edge">
<title>Node10&#45;&gt;Node2</title>
<path fill="none" stroke="midnightblue" d="M334.55,-224.44C309.87,-215.44 270.81,-201.19 243.02,-191.05"/>
<polygon fill="midnightblue" stroke="midnightblue" points="243.94,-187.66 233.34,-187.52 241.54,-194.23 243.94,-187.66"/>
</g>
<!-- Node11&#45;&gt;Node10 -->
<g id="edge17" class="edge">
<title>Node11&#45;&gt;Node10</title>
<path fill="none" stroke="midnightblue" d="M384.71,-280.4C379.78,-272.02 373.49,-261.33 368.25,-252.42"/>
<polygon fill="midnightblue" stroke="midnightblue" points="371.18,-250.5 363.09,-243.66 365.15,-254.05 371.18,-250.5"/>
</g>
<!-- Node13 -->
<g id="node13" class="node">
<title>Node13</title>
<g id="a_node13"><a xlink:title=" ">
<polygon fill="none" stroke="#bfbfbf" points="354,-347.5 354,-366.5 410,-366.5 410,-347.5 354,-347.5"/>
<text text-anchor="middle" x="382" y="-354.5" font-family="Helvetica,sans-Serif" font-size="10.00">stddef.h</text>
</a>
</g>
</g>
<!-- Node12&#45;&gt;Node13 -->
<g id="edge19" class="edge">
<title>Node12&#45;&gt;Node13</title>
<path fill="none" stroke="midnightblue" d="M361.96,-403.08C365.21,-395.77 369.92,-385.18 373.95,-376.1"/>
<polygon fill="midnightblue" stroke="midnightblue" points="377.25,-377.31 378.11,-366.75 370.85,-374.47 377.25,-377.31"/>
</g>
</g>
</svg>
