<?xml version="1.0" encoding="UTF-8" standalone="no"?>
<!DOCTYPE svg PUBLIC "-//W3C//DTD SVG 1.1//EN"
 "http://www.w3.org/Graphics/SVG/1.1/DTD/svg11.dtd">
<!-- Generated by graphviz version 2.43.0 (0)
 -->
<!-- Title: /home/runner/work/open62541pp/open62541pp/build/doc/open62541/src/client/ua_client_internal.h Pages: 1 -->
<svg width="1071pt" height="632pt"
 viewBox="0.00 0.00 1070.50 632.00" xmlns="http://www.w3.org/2000/svg" xmlns:xlink="http://www.w3.org/1999/xlink">
<g id="graph0" class="graph" transform="scale(1 1) rotate(0) translate(4 628)">
<title>/home/runner/work/open62541pp/open62541pp/build/doc/open62541/src/client/ua_client_internal.h</title>
<!-- Node1 -->
<g id="node1" class="node">
<title>Node1</title>
<g id="a_node1"><a xlink:title=" ">
<polygon fill="#bfbfbf" stroke="black" points="379,-582.5 379,-623.5 569,-623.5 569,-582.5 379,-582.5"/>
<text text-anchor="start" x="387" y="-611.5" font-family="Helvetica,sans-Serif" font-size="10.00">/home/runner/work/open62541pp</text>
<text text-anchor="start" x="387" y="-600.5" font-family="Helvetica,sans-Serif" font-size="10.00">/open62541pp/build/doc/open62541</text>
<text text-anchor="middle" x="474" y="-589.5" font-family="Helvetica,sans-Serif" font-size="10.00">/src/client/ua_client_internal.h</text>
</a>
</g>
</g>
<!-- Node2 -->
<g id="node2" class="node">
<title>Node2</title>
<g id="a_node2"><a xlink:href="client_8h.html" target="_top" xlink:title=" ">
<polygon fill="none" stroke="black" points="168,-470.5 168,-489.5 278,-489.5 278,-470.5 168,-470.5"/>
<text text-anchor="middle" x="223" y="-477.5" font-family="Helvetica,sans-Serif" font-size="10.00">open62541/client.h</text>
</a>
</g>
</g>
<!-- Node1&#45;&gt;Node2 -->
<g id="edge1" class="edge">
<title>Node1&#45;&gt;Node2</title>
<path fill="none" stroke="midnightblue" d="M378.93,-599.42C290.64,-594.79 168.39,-581.87 138,-546 119.36,-524 154.57,-504.78 185.18,-493.06"/>
<polygon fill="midnightblue" stroke="midnightblue" points="186.68,-496.24 194.88,-489.53 184.29,-489.66 186.68,-496.24"/>
</g>
<!-- Node17 -->
<g id="node17" class="node">
<title>Node17</title>
<g id="a_node17"><a xlink:href="client__highlevel_8h.html" target="_top" xlink:title=" ">
<polygon fill="none" stroke="black" points="147,-526.5 147,-545.5 307,-545.5 307,-526.5 147,-526.5"/>
<text text-anchor="middle" x="227" y="-533.5" font-family="Helvetica,sans-Serif" font-size="10.00">open62541/client_highlevel.h</text>
</a>
</g>
</g>
<!-- Node1&#45;&gt;Node17 -->
<g id="edge29" class="edge">
<title>Node1&#45;&gt;Node17</title>
<path fill="none" stroke="midnightblue" d="M399.89,-582.5C357.34,-571.3 305.42,-557.64 269.65,-548.22"/>
<polygon fill="midnightblue" stroke="midnightblue" points="270.12,-544.73 259.55,-545.57 268.33,-551.5 270.12,-544.73"/>
</g>
<!-- Node18 -->
<g id="node18" class="node">
<title>Node18</title>
<g id="a_node18"><a xlink:href="client__subscriptions_8h.html" target="_top" xlink:title=" ">
<polygon fill="none" stroke="black" points="325.5,-526.5 325.5,-545.5 504.5,-545.5 504.5,-526.5 325.5,-526.5"/>
<text text-anchor="middle" x="415" y="-533.5" font-family="Helvetica,sans-Serif" font-size="10.00">open62541/client_subscriptions.h</text>
</a>
</g>
</g>
<!-- Node1&#45;&gt;Node18 -->
<g id="edge31" class="edge">
<title>Node1&#45;&gt;Node18</title>
<path fill="none" stroke="midnightblue" d="M456.3,-582.5C447.77,-573.11 437.68,-561.98 429.6,-553.08"/>
<polygon fill="midnightblue" stroke="midnightblue" points="432.17,-550.7 422.85,-545.65 426.98,-555.41 432.17,-550.7"/>
</g>
<!-- Node19 -->
<g id="node19" class="node">
<title>Node19</title>
<g id="a_node19"><a xlink:href="open62541__queue_8h.html" target="_top" xlink:title=" ">
<polygon fill="none" stroke="black" points="296.5,-470.5 296.5,-489.5 411.5,-489.5 411.5,-470.5 296.5,-470.5"/>
<text text-anchor="middle" x="354" y="-477.5" font-family="Helvetica,sans-Serif" font-size="10.00">open62541_queue.h</text>
</a>
</g>
</g>
<!-- Node1&#45;&gt;Node19 -->
<g id="edge33" class="edge">
<title>Node1&#45;&gt;Node19</title>
<path fill="none" stroke="midnightblue" d="M496.04,-582.18C511.14,-566.17 526.24,-543.51 513,-526 501.4,-510.67 458.37,-499.05 419.99,-491.47"/>
<polygon fill="midnightblue" stroke="midnightblue" points="420.32,-487.97 409.84,-489.53 419.01,-494.85 420.32,-487.97"/>
</g>
<!-- Node20 -->
<g id="node20" class="node">
<title>Node20</title>
<g id="a_node20"><a xlink:href="ua__securechannel_8h.html" target="_top" xlink:title=" ">
<polygon fill="none" stroke="black" points="575.5,-526.5 575.5,-545.5 688.5,-545.5 688.5,-526.5 575.5,-526.5"/>
<text text-anchor="middle" x="632" y="-533.5" font-family="Helvetica,sans-Serif" font-size="10.00">ua_securechannel.h</text>
</a>
</g>
</g>
<!-- Node1&#45;&gt;Node20 -->
<g id="edge34" class="edge">
<title>Node1&#45;&gt;Node20</title>
<path fill="none" stroke="midnightblue" d="M521.41,-582.5C547.38,-571.81 578.8,-558.89 601.51,-549.54"/>
<polygon fill="midnightblue" stroke="midnightblue" points="603.05,-552.69 610.97,-545.65 600.39,-546.22 603.05,-552.69"/>
</g>
<!-- Node23 -->
<g id="node23" class="node">
<title>Node23</title>
<g id="a_node23"><a xlink:href="ua__timer_8h.html" target="_top" xlink:title=" ">
<polygon fill="none" stroke="black" points="901,-470.5 901,-489.5 969,-489.5 969,-470.5 901,-470.5"/>
<text text-anchor="middle" x="935" y="-477.5" font-family="Helvetica,sans-Serif" font-size="10.00">ua_timer.h</text>
</a>
</g>
</g>
<!-- Node1&#45;&gt;Node23 -->
<g id="edge46" class="edge">
<title>Node1&#45;&gt;Node23</title>
<path fill="none" stroke="midnightblue" d="M553.57,-582.44C596.17,-571.86 649.51,-558.45 697,-546 766.67,-527.74 847.51,-505.42 894.78,-492.26"/>
<polygon fill="midnightblue" stroke="midnightblue" points="895.93,-495.57 904.62,-489.51 894.05,-488.83 895.93,-495.57"/>
</g>
<!-- Node3 -->
<g id="node3" class="node">
<title>Node3</title>
<g id="a_node3"><a xlink:href="config_8h.html" target="_top" xlink:title=" ">
<polygon fill="none" stroke="black" points="129,-56.5 129,-75.5 241,-75.5 241,-56.5 129,-56.5"/>
<text text-anchor="middle" x="185" y="-63.5" font-family="Helvetica,sans-Serif" font-size="10.00">open62541/config.h</text>
</a>
</g>
</g>
<!-- Node2&#45;&gt;Node3 -->
<g id="edge2" class="edge">
<title>Node2&#45;&gt;Node3</title>
<path fill="none" stroke="midnightblue" d="M167.88,-474.24C101.84,-465.16 0,-438.93 0,-363.5 0,-363.5 0,-363.5 0,-177 0,-119.13 67.7,-91.02 121.19,-77.85"/>
<polygon fill="midnightblue" stroke="midnightblue" points="122.05,-81.24 130.99,-75.55 120.46,-74.42 122.05,-81.24"/>
</g>
<!-- Node5 -->
<g id="node5" class="node">
<title>Node5</title>
<g id="a_node5"><a xlink:href="nodeids_8h.html" target="_top" xlink:title=" ">
<polygon fill="none" stroke="black" points="66.5,-414.5 66.5,-433.5 187.5,-433.5 187.5,-414.5 66.5,-414.5"/>
<text text-anchor="middle" x="127" y="-421.5" font-family="Helvetica,sans-Serif" font-size="10.00">open62541/nodeids.h</text>
</a>
</g>
</g>
<!-- Node2&#45;&gt;Node5 -->
<g id="edge4" class="edge">
<title>Node2&#45;&gt;Node5</title>
<path fill="none" stroke="midnightblue" d="M207.58,-470.32C192.46,-461.82 169.18,-448.73 151.53,-438.8"/>
<polygon fill="midnightblue" stroke="midnightblue" points="152.82,-435.51 142.39,-433.65 149.39,-441.61 152.82,-435.51"/>
</g>
<!-- Node6 -->
<g id="node6" class="node">
<title>Node6</title>
<g id="a_node6"><a xlink:href="types_8h.html" target="_top" xlink:title=" ">
<polygon fill="none" stroke="black" points="490,-168.5 490,-187.5 600,-187.5 600,-168.5 490,-168.5"/>
<text text-anchor="middle" x="545" y="-175.5" font-family="Helvetica,sans-Serif" font-size="10.00">open62541/types.h</text>
</a>
</g>
</g>
<!-- Node2&#45;&gt;Node6 -->
<g id="edge5" class="edge">
<title>Node2&#45;&gt;Node6</title>
<path fill="none" stroke="midnightblue" d="M167.92,-477.86C111.72,-474.16 35.56,-460.69 57,-414 131.67,-251.42 364.89,-200.7 479.75,-185.37"/>
<polygon fill="midnightblue" stroke="midnightblue" points="480.35,-188.82 489.82,-184.07 479.46,-181.88 480.35,-188.82"/>
</g>
<!-- Node9 -->
<g id="node9" class="node">
<title>Node9</title>
<g id="a_node9"><a xlink:href="types__generated_8h.html" target="_top" xlink:title=" ">
<polygon fill="none" stroke="black" points="463,-224.5 463,-243.5 627,-243.5 627,-224.5 463,-224.5"/>
<text text-anchor="middle" x="545" y="-231.5" font-family="Helvetica,sans-Serif" font-size="10.00">open62541/types_generated.h</text>
</a>
</g>
</g>
<!-- Node2&#45;&gt;Node9 -->
<g id="edge10" class="edge">
<title>Node2&#45;&gt;Node9</title>
<path fill="none" stroke="midnightblue" d="M220.21,-470.4C210.89,-439.83 184.17,-335.29 235,-280 263.64,-248.85 371.98,-238.95 452.56,-235.96"/>
<polygon fill="midnightblue" stroke="midnightblue" points="452.87,-239.46 462.74,-235.62 452.63,-232.46 452.87,-239.46"/>
</g>
<!-- Node10 -->
<g id="node10" class="node">
<title>Node10</title>
<g id="a_node10"><a xlink:href="types__generated__handling_8h.html" target="_top" xlink:title=" ">
<polygon fill="none" stroke="black" points="467.5,-280.5 467.5,-310.5 622.5,-310.5 622.5,-280.5 467.5,-280.5"/>
<text text-anchor="start" x="475.5" y="-298.5" font-family="Helvetica,sans-Serif" font-size="10.00">open62541/types_generated</text>
<text text-anchor="middle" x="545" y="-287.5" font-family="Helvetica,sans-Serif" font-size="10.00">_handling.h</text>
</a>
</g>
</g>
<!-- Node2&#45;&gt;Node10 -->
<g id="edge12" class="edge">
<title>Node2&#45;&gt;Node10</title>
<path fill="none" stroke="midnightblue" d="M225.06,-470.5C231.66,-444 252.97,-363.74 273,-347 276.64,-343.96 379.39,-325.44 457.53,-311.7"/>
<polygon fill="midnightblue" stroke="midnightblue" points="458.16,-315.14 467.41,-309.97 456.95,-308.25 458.16,-315.14"/>
</g>
<!-- Node11 -->
<g id="node11" class="node">
<title>Node11</title>
<g id="a_node11"><a xlink:href="log_8h.html" target="_top" xlink:title=" ">
<polygon fill="none" stroke="black" points="282.5,-353 282.5,-372 413.5,-372 413.5,-353 282.5,-353"/>
<text text-anchor="middle" x="348" y="-360" font-family="Helvetica,sans-Serif" font-size="10.00">open62541/plugin/log.h</text>
</a>
</g>
</g>
<!-- Node2&#45;&gt;Node11 -->
<g id="edge14" class="edge">
<title>Node2&#45;&gt;Node11</title>
<path fill="none" stroke="midnightblue" d="M232.4,-470.32C253.39,-450.92 304.35,-403.83 331.05,-379.16"/>
<polygon fill="midnightblue" stroke="midnightblue" points="333.53,-381.64 338.5,-372.28 328.78,-376.5 333.53,-381.64"/>
</g>
<!-- Node13 -->
<g id="node13" class="node">
<title>Node13</title>
<g id="a_node13"><a xlink:href="network_8h.html" target="_top" xlink:title=" ">
<polygon fill="none" stroke="black" points="558.5,-414.5 558.5,-433.5 713.5,-433.5 713.5,-414.5 558.5,-414.5"/>
<text text-anchor="middle" x="636" y="-421.5" font-family="Helvetica,sans-Serif" font-size="10.00">open62541/plugin/network.h</text>
</a>
</g>
</g>
<!-- Node2&#45;&gt;Node13 -->
<g id="edge17" class="edge">
<title>Node2&#45;&gt;Node13</title>
<path fill="none" stroke="midnightblue" d="M278.15,-471.2C281.14,-470.79 284.11,-470.39 287,-470 380.05,-457.46 487.16,-443.76 557.92,-434.81"/>
<polygon fill="midnightblue" stroke="midnightblue" points="558.6,-438.25 568.09,-433.52 557.73,-431.3 558.6,-438.25"/>
</g>
<!-- Node15 -->
<g id="node15" class="node">
<title>Node15</title>
<g id="a_node15"><a xlink:href="securitypolicy_8h.html" target="_top" xlink:title=" ">
<polygon fill="none" stroke="black" points="358,-414.5 358,-433.5 540,-433.5 540,-414.5 358,-414.5"/>
<text text-anchor="middle" x="449" y="-421.5" font-family="Helvetica,sans-Serif" font-size="10.00">open62541/plugin/securitypolicy.h</text>
</a>
</g>
</g>
<!-- Node2&#45;&gt;Node15 -->
<g id="edge23" class="edge">
<title>Node2&#45;&gt;Node15</title>
<path fill="none" stroke="midnightblue" d="M258.81,-470.44C297.99,-461.08 360.88,-446.06 403.52,-435.87"/>
<polygon fill="midnightblue" stroke="midnightblue" points="404.44,-439.24 413.36,-433.52 402.82,-432.44 404.44,-439.24"/>
</g>
<!-- Node4 -->
<g id="node4" class="node">
<title>Node4</title>
<g id="a_node4"><a xlink:href="posix_2ua__architecture_8h.html" target="_top" xlink:title=" ">
<polygon fill="none" stroke="black" points="119.5,-0.5 119.5,-19.5 250.5,-19.5 250.5,-0.5 119.5,-0.5"/>
<text text-anchor="middle" x="185" y="-7.5" font-family="Helvetica,sans-Serif" font-size="10.00">posix/ua_architecture.h</text>
</a>
</g>
</g>
<!-- Node3&#45;&gt;Node4 -->
<g id="edge3" class="edge">
<title>Node3&#45;&gt;Node4</title>
<path fill="none" stroke="midnightblue" d="M185,-56.08C185,-49.01 185,-38.86 185,-29.99"/>
<polygon fill="midnightblue" stroke="midnightblue" points="188.5,-29.75 185,-19.75 181.5,-29.75 188.5,-29.75"/>
</g>
<!-- Node6&#45;&gt;Node3 -->
<g id="edge6" class="edge">
<title>Node6&#45;&gt;Node3</title>
<path fill="none" stroke="midnightblue" d="M489.76,-170.58C442.25,-164.04 372.38,-151.97 314,-132 274.86,-118.61 232.61,-95.5 207.5,-80.74"/>
<polygon fill="midnightblue" stroke="midnightblue" points="209.14,-77.65 198.76,-75.54 205.56,-83.66 209.14,-77.65"/>
</g>
<!-- Node7 -->
<g id="node7" class="node">
<title>Node7</title>
<g id="a_node7"><a xlink:href="common_8h.html" target="_top" xlink:title=" ">
<polygon fill="none" stroke="black" points="482.5,-112.5 482.5,-131.5 607.5,-131.5 607.5,-112.5 482.5,-112.5"/>
<text text-anchor="middle" x="545" y="-119.5" font-family="Helvetica,sans-Serif" font-size="10.00">open62541/common.h</text>
</a>
</g>
</g>
<!-- Node6&#45;&gt;Node7 -->
<g id="edge7" class="edge">
<title>Node6&#45;&gt;Node7</title>
<path fill="none" stroke="midnightblue" d="M545,-168.08C545,-161.01 545,-150.86 545,-141.99"/>
<polygon fill="midnightblue" stroke="midnightblue" points="548.5,-141.75 545,-131.75 541.5,-141.75 548.5,-141.75"/>
</g>
<!-- Node8 -->
<g id="node8" class="node">
<title>Node8</title>
<g id="a_node8"><a xlink:href="statuscodes_8h.html" target="_top" xlink:title=" ">
<polygon fill="none" stroke="black" points="323.5,-112.5 323.5,-131.5 464.5,-131.5 464.5,-112.5 323.5,-112.5"/>
<text text-anchor="middle" x="394" y="-119.5" font-family="Helvetica,sans-Serif" font-size="10.00">open62541/statuscodes.h</text>
</a>
</g>
</g>
<!-- Node6&#45;&gt;Node8 -->
<g id="edge9" class="edge">
<title>Node6&#45;&gt;Node8</title>
<path fill="none" stroke="midnightblue" d="M521.07,-168.44C495.78,-159.4 455.7,-145.06 427.32,-134.92"/>
<polygon fill="midnightblue" stroke="midnightblue" points="428.41,-131.59 417.81,-131.52 426.05,-138.18 428.41,-131.59"/>
</g>
<!-- Node7&#45;&gt;Node3 -->
<g id="edge8" class="edge">
<title>Node7&#45;&gt;Node3</title>
<path fill="none" stroke="midnightblue" d="M487.96,-112.44C423.65,-102.8 319.24,-87.14 251.34,-76.95"/>
<polygon fill="midnightblue" stroke="midnightblue" points="251.59,-73.45 241.18,-75.43 250.55,-80.37 251.59,-73.45"/>
</g>
<!-- Node9&#45;&gt;Node6 -->
<g id="edge11" class="edge">
<title>Node9&#45;&gt;Node6</title>
<path fill="none" stroke="midnightblue" d="M545,-224.08C545,-217.01 545,-206.86 545,-197.99"/>
<polygon fill="midnightblue" stroke="midnightblue" points="548.5,-197.75 545,-187.75 541.5,-197.75 548.5,-197.75"/>
</g>
<!-- Node10&#45;&gt;Node9 -->
<g id="edge13" class="edge">
<title>Node10&#45;&gt;Node9</title>
<path fill="none" stroke="midnightblue" d="M545,-280.4C545,-272.47 545,-262.46 545,-253.86"/>
<polygon fill="midnightblue" stroke="midnightblue" points="548.5,-253.66 545,-243.66 541.5,-253.66 548.5,-253.66"/>
</g>
<!-- Node11&#45;&gt;Node3 -->
<g id="edge15" class="edge">
<title>Node11&#45;&gt;Node3</title>
<path fill="none" stroke="midnightblue" d="M282.16,-358.77C201.66,-351.49 76,-325.62 76,-235 76,-235 76,-235 76,-177 76,-131.12 124.44,-97.53 156.73,-80.23"/>
<polygon fill="midnightblue" stroke="midnightblue" points="158.47,-83.27 165.76,-75.58 155.27,-77.04 158.47,-83.27"/>
</g>
<!-- Node12 -->
<g id="node12" class="node">
<title>Node12</title>
<g id="a_node12"><a xlink:title=" ">
<polygon fill="none" stroke="#bfbfbf" points="244,-286 244,-305 300,-305 300,-286 244,-286"/>
<text text-anchor="middle" x="272" y="-293" font-family="Helvetica,sans-Serif" font-size="10.00">stdarg.h</text>
</a>
</g>
</g>
<!-- Node11&#45;&gt;Node12 -->
<g id="edge16" class="edge">
<title>Node11&#45;&gt;Node12</title>
<path fill="none" stroke="midnightblue" d="M337.75,-352.73C325.56,-342.31 304.98,-324.71 290.09,-311.97"/>
<polygon fill="midnightblue" stroke="midnightblue" points="291.96,-308.97 282.09,-305.13 287.41,-314.29 291.96,-308.97"/>
</g>
<!-- Node13&#45;&gt;Node11 -->
<g id="edge22" class="edge">
<title>Node13&#45;&gt;Node11</title>
<path fill="none" stroke="midnightblue" d="M594.74,-414.48C543.2,-403.83 455.02,-385.61 399.21,-374.08"/>
<polygon fill="midnightblue" stroke="midnightblue" points="399.69,-370.6 389.19,-372.01 398.27,-377.46 399.69,-370.6"/>
</g>
<!-- Node14 -->
<g id="node14" class="node">
<title>Node14</title>
<g id="a_node14"><a xlink:href="util_8h.html" target="_top" xlink:title=" ">
<polygon fill="none" stroke="black" points="590,-353 590,-372 688,-372 688,-353 590,-353"/>
<text text-anchor="middle" x="639" y="-360" font-family="Helvetica,sans-Serif" font-size="10.00">open62541/util.h</text>
</a>
</g>
</g>
<!-- Node13&#45;&gt;Node14 -->
<g id="edge18" class="edge">
<title>Node13&#45;&gt;Node14</title>
<path fill="none" stroke="midnightblue" d="M636.43,-414.48C636.85,-406.08 637.51,-392.98 638.06,-382.16"/>
<polygon fill="midnightblue" stroke="midnightblue" points="641.56,-382.17 638.57,-372.01 634.57,-381.82 641.56,-382.17"/>
</g>
<!-- Node14&#45;&gt;Node6 -->
<g id="edge19" class="edge">
<title>Node14&#45;&gt;Node6</title>
<path fill="none" stroke="midnightblue" d="M642.04,-352.86C649.79,-329.18 667.48,-262.41 636,-224 623.46,-208.7 604.43,-198.17 587.01,-191.16"/>
<polygon fill="midnightblue" stroke="midnightblue" points="588.14,-187.85 577.54,-187.63 585.69,-194.41 588.14,-187.85"/>
</g>
<!-- Node14&#45;&gt;Node9 -->
<g id="edge20" class="edge">
<title>Node14&#45;&gt;Node9</title>
<path fill="none" stroke="midnightblue" d="M640.65,-352.76C643.16,-336.8 646.18,-302.51 631,-280 620.68,-264.7 603.46,-254.26 587.12,-247.31"/>
<polygon fill="midnightblue" stroke="midnightblue" points="588.25,-244 577.66,-243.62 585.7,-250.52 588.25,-244"/>
</g>
<!-- Node14&#45;&gt;Node10 -->
<g id="edge21" class="edge">
<title>Node14&#45;&gt;Node10</title>
<path fill="none" stroke="midnightblue" d="M626.32,-352.73C612.89,-343.44 591.22,-328.46 573.63,-316.3"/>
<polygon fill="midnightblue" stroke="midnightblue" points="575.59,-313.4 565.37,-310.59 571.61,-319.16 575.59,-313.4"/>
</g>
<!-- Node15&#45;&gt;Node11 -->
<g id="edge25" class="edge">
<title>Node15&#45;&gt;Node11</title>
<path fill="none" stroke="midnightblue" d="M434.53,-414.48C418.03,-404.75 390.82,-388.73 371.32,-377.24"/>
<polygon fill="midnightblue" stroke="midnightblue" points="372.84,-374.07 362.44,-372.01 369.28,-380.1 372.84,-374.07"/>
</g>
<!-- Node15&#45;&gt;Node14 -->
<g id="edge24" class="edge">
<title>Node15&#45;&gt;Node14</title>
<path fill="none" stroke="midnightblue" d="M476.22,-414.48C509.24,-404.14 565.04,-386.66 601.95,-375.1"/>
<polygon fill="midnightblue" stroke="midnightblue" points="603.33,-378.34 611.83,-372.01 601.24,-371.66 603.33,-378.34"/>
</g>
<!-- Node16 -->
<g id="node16" class="node">
<title>Node16</title>
<g id="a_node16"><a xlink:href="pki_8h.html" target="_top" xlink:title=" ">
<polygon fill="none" stroke="black" points="318.5,-286 318.5,-305 449.5,-305 449.5,-286 318.5,-286"/>
<text text-anchor="middle" x="384" y="-293" font-family="Helvetica,sans-Serif" font-size="10.00">open62541/plugin/pki.h</text>
</a>
</g>
</g>
<!-- Node15&#45;&gt;Node16 -->
<g id="edge26" class="edge">
<title>Node15&#45;&gt;Node16</title>
<path fill="none" stroke="midnightblue" d="M446.81,-414.21C443,-399.67 434.33,-369.94 422,-347 415.48,-334.87 406.21,-322.49 398.46,-313.02"/>
<polygon fill="midnightblue" stroke="midnightblue" points="401.02,-310.62 391.89,-305.24 395.67,-315.14 401.02,-310.62"/>
</g>
<!-- Node16&#45;&gt;Node6 -->
<g id="edge27" class="edge">
<title>Node16&#45;&gt;Node6</title>
<path fill="none" stroke="midnightblue" d="M391,-285.77C402.81,-271.47 427.97,-242.75 454,-224 472.31,-210.82 495.06,-199.57 513.23,-191.61"/>
<polygon fill="midnightblue" stroke="midnightblue" points="514.7,-194.79 522.53,-187.65 511.96,-188.35 514.7,-194.79"/>
</g>
<!-- Node16&#45;&gt;Node9 -->
<g id="edge28" class="edge">
<title>Node16&#45;&gt;Node9</title>
<path fill="none" stroke="midnightblue" d="M407.07,-285.98C434.68,-275.77 481.12,-258.61 512.4,-247.05"/>
<polygon fill="midnightblue" stroke="midnightblue" points="513.81,-250.26 521.98,-243.51 511.38,-243.69 513.81,-250.26"/>
</g>
<!-- Node17&#45;&gt;Node2 -->
<g id="edge30" class="edge">
<title>Node17&#45;&gt;Node2</title>
<path fill="none" stroke="midnightblue" d="M226.34,-526.08C225.82,-519.01 225.06,-508.86 224.41,-499.99"/>
<polygon fill="midnightblue" stroke="midnightblue" points="227.88,-499.47 223.65,-489.75 220.9,-499.98 227.88,-499.47"/>
</g>
<!-- Node18&#45;&gt;Node2 -->
<g id="edge32" class="edge">
<title>Node18&#45;&gt;Node2</title>
<path fill="none" stroke="midnightblue" d="M384.58,-526.44C351.72,-517.2 299.22,-502.44 263.03,-492.26"/>
<polygon fill="midnightblue" stroke="midnightblue" points="263.85,-488.85 253.28,-489.52 261.96,-495.59 263.85,-488.85"/>
</g>
<!-- Node20&#45;&gt;Node6 -->
<g id="edge36" class="edge">
<title>Node20&#45;&gt;Node6</title>
<path fill="none" stroke="midnightblue" d="M664.09,-526.43C726.03,-508.95 856,-467.24 856,-425 856,-425 856,-425 856,-294.5 856,-242.18 699.35,-205.95 608.4,-189.32"/>
<polygon fill="midnightblue" stroke="midnightblue" points="608.92,-185.86 598.46,-187.53 607.69,-192.75 608.92,-185.86"/>
</g>
<!-- Node20&#45;&gt;Node11 -->
<g id="edge37" class="edge">
<title>Node20&#45;&gt;Node11</title>
<path fill="none" stroke="midnightblue" d="M602.36,-526.5C532.91,-506.3 364.39,-455.5 349,-434 338.34,-419.1 339.8,-397.52 342.86,-382.17"/>
<polygon fill="midnightblue" stroke="midnightblue" points="346.3,-382.82 345.21,-372.28 339.49,-381.2 346.3,-382.82"/>
</g>
<!-- Node20&#45;&gt;Node14 -->
<g id="edge35" class="edge">
<title>Node20&#45;&gt;Node14</title>
<path fill="none" stroke="midnightblue" d="M661.28,-526.43C679.4,-519.55 701.52,-508.03 714,-490 728.31,-469.33 720.22,-459.08 722,-434 722.63,-425.13 726.36,-421.75 722,-414 712.03,-396.26 693.02,-384.02 675.71,-376.04"/>
<polygon fill="midnightblue" stroke="midnightblue" points="676.9,-372.75 666.33,-372.04 674.15,-379.19 676.9,-372.75"/>
</g>
<!-- Node20&#45;&gt;Node15 -->
<g id="edge38" class="edge">
<title>Node20&#45;&gt;Node15</title>
<path fill="none" stroke="midnightblue" d="M617.62,-526.38C602.52,-517.33 578.09,-502.67 557,-490 527.62,-472.35 493.76,-451.96 471.91,-438.8"/>
<polygon fill="midnightblue" stroke="midnightblue" points="473.69,-435.79 463.32,-433.63 470.08,-441.79 473.69,-435.79"/>
</g>
<!-- Node20&#45;&gt;Node19 -->
<g id="edge42" class="edge">
<title>Node20&#45;&gt;Node19</title>
<path fill="none" stroke="midnightblue" d="M587.95,-526.44C539.15,-516.96 460.44,-501.67 407.97,-491.48"/>
<polygon fill="midnightblue" stroke="midnightblue" points="408.33,-487.99 397.84,-489.52 406.99,-494.86 408.33,-487.99"/>
</g>
<!-- Node21 -->
<g id="node21" class="node">
<title>Node21</title>
<g id="a_node21"><a xlink:href="transport__generated_8h.html" target="_top" xlink:title=" ">
<polygon fill="none" stroke="black" points="706,-347.5 706,-377.5 824,-377.5 824,-347.5 706,-347.5"/>
<text text-anchor="start" x="714" y="-365.5" font-family="Helvetica,sans-Serif" font-size="10.00">open62541/transport</text>
<text text-anchor="middle" x="765" y="-354.5" font-family="Helvetica,sans-Serif" font-size="10.00">_generated.h</text>
</a>
</g>
</g>
<!-- Node20&#45;&gt;Node21 -->
<g id="edge39" class="edge">
<title>Node20&#45;&gt;Node21</title>
<path fill="none" stroke="midnightblue" d="M671.13,-526.44C692.32,-519.87 717.3,-508.65 733,-490 757.47,-460.93 763.61,-415.65 764.94,-387.88"/>
<polygon fill="midnightblue" stroke="midnightblue" points="768.44,-387.92 765.24,-377.82 761.44,-387.71 768.44,-387.92"/>
</g>
<!-- Node22 -->
<g id="node22" class="node">
<title>Node22</title>
<g id="a_node22"><a xlink:href="ua__connection__internal_8h.html" target="_top" xlink:title=" ">
<polygon fill="none" stroke="black" points="566.5,-470.5 566.5,-489.5 705.5,-489.5 705.5,-470.5 566.5,-470.5"/>
<text text-anchor="middle" x="636" y="-477.5" font-family="Helvetica,sans-Serif" font-size="10.00">ua_connection_internal.h</text>
</a>
</g>
</g>
<!-- Node20&#45;&gt;Node22 -->
<g id="edge43" class="edge">
<title>Node20&#45;&gt;Node22</title>
<path fill="none" stroke="midnightblue" d="M632.66,-526.08C633.18,-519.01 633.94,-508.86 634.59,-499.99"/>
<polygon fill="midnightblue" stroke="midnightblue" points="638.1,-499.98 635.35,-489.75 631.12,-499.47 638.1,-499.98"/>
</g>
<!-- Node21&#45;&gt;Node6 -->
<g id="edge40" class="edge">
<title>Node21&#45;&gt;Node6</title>
<path fill="none" stroke="midnightblue" d="M757.24,-347.45C741.51,-320.12 703.3,-259.43 656,-224 635.79,-208.87 609.79,-197.97 588.03,-190.69"/>
<polygon fill="midnightblue" stroke="midnightblue" points="588.96,-187.31 578.37,-187.6 586.82,-193.98 588.96,-187.31"/>
</g>
<!-- Node21&#45;&gt;Node9 -->
<g id="edge41" class="edge">
<title>Node21&#45;&gt;Node9</title>
<path fill="none" stroke="midnightblue" d="M747.64,-347.24C725.96,-329.88 687.29,-300.35 651,-280 627.82,-267 600.13,-255.37 578.86,-247.19"/>
<polygon fill="midnightblue" stroke="midnightblue" points="579.88,-243.83 569.28,-243.57 577.4,-250.38 579.88,-243.83"/>
</g>
<!-- Node22&#45;&gt;Node13 -->
<g id="edge44" class="edge">
<title>Node22&#45;&gt;Node13</title>
<path fill="none" stroke="midnightblue" d="M636,-470.08C636,-463.01 636,-452.86 636,-443.99"/>
<polygon fill="midnightblue" stroke="midnightblue" points="639.5,-443.75 636,-433.75 632.5,-443.75 639.5,-443.75"/>
</g>
<!-- Node22&#45;&gt;Node21 -->
<g id="edge45" class="edge">
<title>Node22&#45;&gt;Node21</title>
<path fill="none" stroke="midnightblue" d="M660.42,-470.38C678.94,-462.92 704.17,-450.7 722,-434 736.16,-420.74 747.37,-401.79 754.79,-386.88"/>
<polygon fill="midnightblue" stroke="midnightblue" points="757.99,-388.3 759.11,-377.76 751.66,-385.3 757.99,-388.3"/>
</g>
<!-- Node24 -->
<g id="node24" class="node">
<title>Node24</title>
<g id="a_node24"><a xlink:href="ua__util__internal_8h.html" target="_top" xlink:title=" ">
<polygon fill="none" stroke="black" points="884.5,-414.5 884.5,-433.5 985.5,-433.5 985.5,-414.5 884.5,-414.5"/>
<text text-anchor="middle" x="935" y="-421.5" font-family="Helvetica,sans-Serif" font-size="10.00">ua_util_internal.h</text>
</a>
</g>
</g>
<!-- Node23&#45;&gt;Node24 -->
<g id="edge47" class="edge">
<title>Node23&#45;&gt;Node24</title>
<path fill="none" stroke="midnightblue" d="M935,-470.08C935,-463.01 935,-452.86 935,-443.99"/>
<polygon fill="midnightblue" stroke="midnightblue" points="938.5,-443.75 935,-433.75 931.5,-443.75 938.5,-443.75"/>
</g>
<!-- Node25 -->
<g id="node25" class="node">
<title>Node25</title>
<g id="a_node25"><a xlink:href="ziptree_8h.html" target="_top" xlink:title=" ">
<polygon fill="none" stroke="black" points="1003.5,-414.5 1003.5,-433.5 1062.5,-433.5 1062.5,-414.5 1003.5,-414.5"/>
<text text-anchor="middle" x="1033" y="-421.5" font-family="Helvetica,sans-Serif" font-size="10.00">ziptree.h</text>
</a>
</g>
</g>
<!-- Node23&#45;&gt;Node25 -->
<g id="edge50" class="edge">
<title>Node23&#45;&gt;Node25</title>
<path fill="none" stroke="midnightblue" d="M950.75,-470.32C966.32,-461.74 990.38,-448.49 1008.46,-438.52"/>
<polygon fill="midnightblue" stroke="midnightblue" points="1010.22,-441.55 1017.29,-433.65 1006.85,-435.42 1010.22,-441.55"/>
</g>
<!-- Node24&#45;&gt;Node6 -->
<g id="edge48" class="edge">
<title>Node24&#45;&gt;Node6</title>
<path fill="none" stroke="midnightblue" d="M935.15,-414.07C935.14,-382.4 930.51,-274.59 870,-224 831.72,-192 693.63,-182.72 610.26,-180.05"/>
<polygon fill="midnightblue" stroke="midnightblue" points="610.23,-176.55 600.13,-179.75 610.02,-183.55 610.23,-176.55"/>
</g>
<!-- Node24&#45;&gt;Node14 -->
<g id="edge49" class="edge">
<title>Node24&#45;&gt;Node14</title>
<path fill="none" stroke="midnightblue" d="M885.14,-414.44C836.87,-405.95 761.69,-392.19 697,-378 692,-376.9 686.77,-375.69 681.58,-374.45"/>
<polygon fill="midnightblue" stroke="midnightblue" points="682.29,-371.01 671.74,-372.04 680.62,-377.81 682.29,-371.01"/>
</g>
</g>
</svg>
