<?xml version="1.0" encoding="UTF-8" standalone="no"?>
<!DOCTYPE svg PUBLIC "-//W3C//DTD SVG 1.1//EN"
 "http://www.w3.org/Graphics/SVG/1.1/DTD/svg11.dtd">
<!-- Generated by graphviz version 2.43.0 (0)
 -->
<!-- Title: /home/runner/work/open62541pp/open62541pp/build/doc/open62541/src/pubsub/ua_pubsub.h Pages: 1 -->
<svg width="1360pt" height="621pt"
 viewBox="0.00 0.00 1359.50 621.00" xmlns="http://www.w3.org/2000/svg" xmlns:xlink="http://www.w3.org/1999/xlink">
<g id="graph0" class="graph" transform="scale(1 1) rotate(0) translate(4 617)">
<title>/home/runner/work/open62541pp/open62541pp/build/doc/open62541/src/pubsub/ua_pubsub.h</title>
<!-- Node1 -->
<g id="node1" class="node">
<title>Node1</title>
<g id="a_node1"><a xlink:title=" ">
<polygon fill="#bfbfbf" stroke="black" points="584.5,-571.5 584.5,-612.5 774.5,-612.5 774.5,-571.5 584.5,-571.5"/>
<text text-anchor="start" x="592.5" y="-600.5" font-family="Helvetica,sans-Serif" font-size="10.00">/home/runner/work/open62541pp</text>
<text text-anchor="start" x="592.5" y="-589.5" font-family="Helvetica,sans-Serif" font-size="10.00">/open62541pp/build/doc/open62541</text>
<text text-anchor="middle" x="679.5" y="-578.5" font-family="Helvetica,sans-Serif" font-size="10.00">/src/pubsub/ua_pubsub.h</text>
</a>
</g>
</g>
<!-- Node2 -->
<g id="node2" class="node">
<title>Node2</title>
<g id="a_node2"><a xlink:href="pubsub_8h.html" target="_top" xlink:title=" ">
<polygon fill="none" stroke="black" points="0,-459.5 0,-478.5 151,-478.5 151,-459.5 0,-459.5"/>
<text text-anchor="middle" x="75.5" y="-466.5" font-family="Helvetica,sans-Serif" font-size="10.00">open62541/plugin/pubsub.h</text>
</a>
</g>
</g>
<!-- Node1&#45;&gt;Node2 -->
<g id="edge1" class="edge">
<title>Node1&#45;&gt;Node2</title>
<path fill="none" stroke="midnightblue" d="M584.44,-572.69C528.53,-561.86 456.47,-547.8 392.5,-535 298.57,-516.21 189.14,-493.61 126.52,-480.62"/>
<polygon fill="midnightblue" stroke="midnightblue" points="127.01,-477.15 116.51,-478.54 125.59,-484 127.01,-477.15"/>
</g>
<!-- Node9 -->
<g id="node9" class="node">
<title>Node9</title>
<g id="a_node9"><a xlink:href="server_8h.html" target="_top" xlink:title=" ">
<polygon fill="none" stroke="black" points="671,-459.5 671,-478.5 784,-478.5 784,-459.5 671,-459.5"/>
<text text-anchor="middle" x="727.5" y="-466.5" font-family="Helvetica,sans-Serif" font-size="10.00">open62541/server.h</text>
</a>
</g>
</g>
<!-- Node1&#45;&gt;Node9 -->
<g id="edge10" class="edge">
<title>Node1&#45;&gt;Node9</title>
<path fill="none" stroke="midnightblue" d="M682.58,-571.38C685.47,-555.68 690.55,-533.35 698.5,-515 702.74,-505.21 709.01,-495.15 714.63,-487.03"/>
<polygon fill="midnightblue" stroke="midnightblue" points="717.56,-488.97 720.57,-478.81 711.88,-484.87 717.56,-488.97"/>
</g>
<!-- Node21 -->
<g id="node21" class="node">
<title>Node21</title>
<g id="a_node21"><a xlink:href="server__pubsub_8h.html" target="_top" xlink:title=" ">
<polygon fill="none" stroke="black" points="401.5,-515.5 401.5,-534.5 555.5,-534.5 555.5,-515.5 401.5,-515.5"/>
<text text-anchor="middle" x="478.5" y="-522.5" font-family="Helvetica,sans-Serif" font-size="10.00">open62541/server_pubsub.h</text>
</a>
</g>
</g>
<!-- Node1&#45;&gt;Node21 -->
<g id="edge39" class="edge">
<title>Node1&#45;&gt;Node21</title>
<path fill="none" stroke="midnightblue" d="M619.19,-571.5C585.16,-560.49 543.77,-547.11 514.72,-537.71"/>
<polygon fill="midnightblue" stroke="midnightblue" points="515.58,-534.31 504.99,-534.57 513.43,-540.97 515.58,-534.31"/>
</g>
<!-- Node22 -->
<g id="node22" class="node">
<title>Node22</title>
<g id="a_node22"><a xlink:href="open62541__queue_8h.html" target="_top" xlink:title=" ">
<polygon fill="none" stroke="black" points="708,-515.5 708,-534.5 823,-534.5 823,-515.5 708,-515.5"/>
<text text-anchor="middle" x="765.5" y="-522.5" font-family="Helvetica,sans-Serif" font-size="10.00">open62541_queue.h</text>
</a>
</g>
</g>
<!-- Node1&#45;&gt;Node22 -->
<g id="edge43" class="edge">
<title>Node1&#45;&gt;Node22</title>
<path fill="none" stroke="midnightblue" d="M705.3,-571.5C718.36,-561.63 733.95,-549.84 746,-540.74"/>
<polygon fill="midnightblue" stroke="midnightblue" points="748.18,-543.47 754.05,-534.65 743.96,-537.89 748.18,-543.47"/>
</g>
<!-- Node23 -->
<g id="node23" class="node">
<title>Node23</title>
<g id="a_node23"><a xlink:href="ua__pubsub__networkmessage_8h.html" target="_top" xlink:title=" ">
<polygon fill="none" stroke="black" points="1119,-286 1119,-305 1286,-305 1286,-286 1119,-286"/>
<text text-anchor="middle" x="1202.5" y="-293" font-family="Helvetica,sans-Serif" font-size="10.00">ua_pubsub_networkmessage.h</text>
</a>
</g>
</g>
<!-- Node1&#45;&gt;Node23 -->
<g id="edge44" class="edge">
<title>Node1&#45;&gt;Node23</title>
<path fill="none" stroke="midnightblue" d="M774.76,-582.55C951.75,-565.54 1313.5,-524.17 1313.5,-470 1313.5,-470 1313.5,-470 1313.5,-412 1313.5,-363.91 1262.85,-328.08 1229.98,-309.9"/>
<polygon fill="midnightblue" stroke="midnightblue" points="1231.3,-306.64 1220.83,-305.04 1228.02,-312.82 1231.3,-306.64"/>
</g>
<!-- Node3 -->
<g id="node3" class="node">
<title>Node3</title>
<g id="a_node3"><a xlink:href="types_8h.html" target="_top" xlink:title=" ">
<polygon fill="none" stroke="black" points="864.5,-168.5 864.5,-187.5 974.5,-187.5 974.5,-168.5 864.5,-168.5"/>
<text text-anchor="middle" x="919.5" y="-175.5" font-family="Helvetica,sans-Serif" font-size="10.00">open62541/types.h</text>
</a>
</g>
</g>
<!-- Node2&#45;&gt;Node3 -->
<g id="edge2" class="edge">
<title>Node2&#45;&gt;Node3</title>
<path fill="none" stroke="midnightblue" d="M75.5,-459.44C75.5,-440.94 75.5,-395.81 75.5,-358 75.5,-358 75.5,-358 75.5,-294.5 75.5,-216 656.09,-188.26 854.19,-181.08"/>
<polygon fill="midnightblue" stroke="midnightblue" points="854.58,-184.57 864.45,-180.72 854.33,-177.58 854.58,-184.57"/>
</g>
<!-- Node8 -->
<g id="node8" class="node">
<title>Node8</title>
<g id="a_node8"><a xlink:href="types__generated_8h.html" target="_top" xlink:title=" ">
<polygon fill="none" stroke="black" points="705.5,-224.5 705.5,-243.5 869.5,-243.5 869.5,-224.5 705.5,-224.5"/>
<text text-anchor="middle" x="787.5" y="-231.5" font-family="Helvetica,sans-Serif" font-size="10.00">open62541/types_generated.h</text>
</a>
</g>
</g>
<!-- Node2&#45;&gt;Node8 -->
<g id="edge8" class="edge">
<title>Node2&#45;&gt;Node8</title>
<path fill="none" stroke="midnightblue" d="M83.03,-459.29C103.05,-436.75 160.28,-376.17 221.5,-347 377.08,-272.86 579.2,-247.78 695.03,-239.31"/>
<polygon fill="midnightblue" stroke="midnightblue" points="695.54,-242.79 705.27,-238.59 695.05,-235.8 695.54,-242.79"/>
</g>
<!-- Node4 -->
<g id="node4" class="node">
<title>Node4</title>
<g id="a_node4"><a xlink:href="config_8h.html" target="_top" xlink:title=" ">
<polygon fill="none" stroke="black" points="1148.5,-56.5 1148.5,-75.5 1260.5,-75.5 1260.5,-56.5 1148.5,-56.5"/>
<text text-anchor="middle" x="1204.5" y="-63.5" font-family="Helvetica,sans-Serif" font-size="10.00">open62541/config.h</text>
</a>
</g>
</g>
<!-- Node3&#45;&gt;Node4 -->
<g id="edge3" class="edge">
<title>Node3&#45;&gt;Node4</title>
<path fill="none" stroke="midnightblue" d="M919.47,-168.33C919.92,-154.23 922.99,-126.48 939.5,-112 968.32,-86.71 1069.32,-75.35 1137.96,-70.45"/>
<polygon fill="midnightblue" stroke="midnightblue" points="1138.53,-73.92 1148.27,-69.75 1138.05,-66.94 1138.53,-73.92"/>
</g>
<!-- Node6 -->
<g id="node6" class="node">
<title>Node6</title>
<g id="a_node6"><a xlink:href="common_8h.html" target="_top" xlink:title=" ">
<polygon fill="none" stroke="black" points="1142,-112.5 1142,-131.5 1267,-131.5 1267,-112.5 1142,-112.5"/>
<text text-anchor="middle" x="1204.5" y="-119.5" font-family="Helvetica,sans-Serif" font-size="10.00">open62541/common.h</text>
</a>
</g>
</g>
<!-- Node3&#45;&gt;Node6 -->
<g id="edge5" class="edge">
<title>Node3&#45;&gt;Node6</title>
<path fill="none" stroke="midnightblue" d="M964.66,-168.44C1014.79,-158.94 1095.72,-143.61 1149.51,-133.42"/>
<polygon fill="midnightblue" stroke="midnightblue" points="1150.38,-136.82 1159.55,-131.52 1149.08,-129.94 1150.38,-136.82"/>
</g>
<!-- Node7 -->
<g id="node7" class="node">
<title>Node7</title>
<g id="a_node7"><a xlink:href="statuscodes_8h.html" target="_top" xlink:title=" ">
<polygon fill="none" stroke="black" points="948,-112.5 948,-131.5 1089,-131.5 1089,-112.5 948,-112.5"/>
<text text-anchor="middle" x="1018.5" y="-119.5" font-family="Helvetica,sans-Serif" font-size="10.00">open62541/statuscodes.h</text>
</a>
</g>
</g>
<!-- Node3&#45;&gt;Node7 -->
<g id="edge7" class="edge">
<title>Node3&#45;&gt;Node7</title>
<path fill="none" stroke="midnightblue" d="M935.41,-168.32C951.14,-159.74 975.44,-146.49 993.71,-136.52"/>
<polygon fill="midnightblue" stroke="midnightblue" points="995.53,-139.52 1002.63,-131.65 992.18,-133.37 995.53,-139.52"/>
</g>
<!-- Node5 -->
<g id="node5" class="node">
<title>Node5</title>
<g id="a_node5"><a xlink:href="posix_2ua__architecture_8h.html" target="_top" xlink:title=" ">
<polygon fill="none" stroke="black" points="1139,-0.5 1139,-19.5 1270,-19.5 1270,-0.5 1139,-0.5"/>
<text text-anchor="middle" x="1204.5" y="-7.5" font-family="Helvetica,sans-Serif" font-size="10.00">posix/ua_architecture.h</text>
</a>
</g>
</g>
<!-- Node4&#45;&gt;Node5 -->
<g id="edge4" class="edge">
<title>Node4&#45;&gt;Node5</title>
<path fill="none" stroke="midnightblue" d="M1204.5,-56.08C1204.5,-49.01 1204.5,-38.86 1204.5,-29.99"/>
<polygon fill="midnightblue" stroke="midnightblue" points="1208,-29.75 1204.5,-19.75 1201,-29.75 1208,-29.75"/>
</g>
<!-- Node6&#45;&gt;Node4 -->
<g id="edge6" class="edge">
<title>Node6&#45;&gt;Node4</title>
<path fill="none" stroke="midnightblue" d="M1204.5,-112.08C1204.5,-105.01 1204.5,-94.86 1204.5,-85.99"/>
<polygon fill="midnightblue" stroke="midnightblue" points="1208,-85.75 1204.5,-75.75 1201,-85.75 1208,-85.75"/>
</g>
<!-- Node8&#45;&gt;Node3 -->
<g id="edge9" class="edge">
<title>Node8&#45;&gt;Node3</title>
<path fill="none" stroke="midnightblue" d="M808.42,-224.44C830.24,-215.52 864.65,-201.44 889.39,-191.32"/>
<polygon fill="midnightblue" stroke="midnightblue" points="890.75,-194.54 898.68,-187.52 888.1,-188.06 890.75,-194.54"/>
</g>
<!-- Node9&#45;&gt;Node3 -->
<g id="edge16" class="edge">
<title>Node9&#45;&gt;Node3</title>
<path fill="none" stroke="midnightblue" d="M784.01,-468.46C865.91,-467.79 1011.43,-461.09 1044.5,-423 1077.4,-385.1 971.28,-244.08 932.85,-195.54"/>
<polygon fill="midnightblue" stroke="midnightblue" points="935.48,-193.23 926.51,-187.6 930.01,-197.6 935.48,-193.23"/>
</g>
<!-- Node9&#45;&gt;Node6 -->
<g id="edge17" class="edge">
<title>Node9&#45;&gt;Node6</title>
<path fill="none" stroke="midnightblue" d="M784.42,-467.57C905.61,-465.97 1185.18,-458.43 1272.5,-423 1314.63,-405.91 1351.5,-403.47 1351.5,-358 1351.5,-358 1351.5,-358 1351.5,-294.5 1351.5,-220.31 1271.21,-162.11 1229.31,-136.79"/>
<polygon fill="midnightblue" stroke="midnightblue" points="1230.91,-133.66 1220.51,-131.61 1227.36,-139.7 1230.91,-133.66"/>
</g>
<!-- Node9&#45;&gt;Node8 -->
<g id="edge19" class="edge">
<title>Node9&#45;&gt;Node8</title>
<path fill="none" stroke="midnightblue" d="M738.68,-459.34C748.38,-451.13 761.87,-437.86 768.5,-423 794.09,-365.67 792.04,-289 789.37,-253.94"/>
<polygon fill="midnightblue" stroke="midnightblue" points="792.84,-253.39 788.48,-243.73 785.86,-254 792.84,-253.39"/>
</g>
<!-- Node10 -->
<g id="node10" class="node">
<title>Node10</title>
<g id="a_node10"><a xlink:href="util_8h.html" target="_top" xlink:title=" ">
<polygon fill="none" stroke="black" points="594.5,-347.5 594.5,-366.5 692.5,-366.5 692.5,-347.5 594.5,-347.5"/>
<text text-anchor="middle" x="643.5" y="-354.5" font-family="Helvetica,sans-Serif" font-size="10.00">open62541/util.h</text>
</a>
</g>
</g>
<!-- Node9&#45;&gt;Node10 -->
<g id="edge11" class="edge">
<title>Node9&#45;&gt;Node10</title>
<path fill="none" stroke="midnightblue" d="M671.66,-459.47C631.07,-451.99 581.13,-439.7 568.5,-423 552.42,-401.73 583.19,-382.42 610.04,-370.48"/>
<polygon fill="midnightblue" stroke="midnightblue" points="611.44,-373.69 619.29,-366.57 608.72,-367.24 611.44,-373.69"/>
</g>
<!-- Node11 -->
<g id="node11" class="node">
<title>Node11</title>
<g id="a_node11"><a xlink:href="types__generated__handling_8h.html" target="_top" xlink:title=" ">
<polygon fill="none" stroke="black" points="566,-280.5 566,-310.5 721,-310.5 721,-280.5 566,-280.5"/>
<text text-anchor="start" x="574" y="-298.5" font-family="Helvetica,sans-Serif" font-size="10.00">open62541/types_generated</text>
<text text-anchor="middle" x="643.5" y="-287.5" font-family="Helvetica,sans-Serif" font-size="10.00">_handling.h</text>
</a>
</g>
</g>
<!-- Node9&#45;&gt;Node11 -->
<g id="edge20" class="edge">
<title>Node9&#45;&gt;Node11</title>
<path fill="none" stroke="midnightblue" d="M670.66,-467.31C542.4,-465.16 239.25,-456.54 208.5,-423 178.07,-389.81 218.23,-368.56 259.5,-347 309.43,-320.91 458.53,-307.34 555.57,-301.08"/>
<polygon fill="midnightblue" stroke="midnightblue" points="555.91,-304.56 565.67,-300.44 555.47,-297.58 555.91,-304.56"/>
</g>
<!-- Node12 -->
<g id="node12" class="node">
<title>Node12</title>
<g id="a_node12"><a xlink:href="nodeids_8h.html" target="_top" xlink:title=" ">
<polygon fill="none" stroke="black" points="400,-403.5 400,-422.5 521,-422.5 521,-403.5 400,-403.5"/>
<text text-anchor="middle" x="460.5" y="-410.5" font-family="Helvetica,sans-Serif" font-size="10.00">open62541/nodeids.h</text>
</a>
</g>
</g>
<!-- Node9&#45;&gt;Node12 -->
<g id="edge18" class="edge">
<title>Node9&#45;&gt;Node12</title>
<path fill="none" stroke="midnightblue" d="M685.19,-459.44C638.42,-449.98 563.04,-434.74 512.65,-424.55"/>
<polygon fill="midnightblue" stroke="midnightblue" points="513.1,-421.07 502.61,-422.52 511.72,-427.93 513.1,-421.07"/>
</g>
<!-- Node13 -->
<g id="node13" class="node">
<title>Node13</title>
<g id="a_node13"><a xlink:href="securitypolicy_8h.html" target="_top" xlink:title=" ">
<polygon fill="none" stroke="black" points="853.5,-403.5 853.5,-422.5 1035.5,-422.5 1035.5,-403.5 853.5,-403.5"/>
<text text-anchor="middle" x="944.5" y="-410.5" font-family="Helvetica,sans-Serif" font-size="10.00">open62541/plugin/securitypolicy.h</text>
</a>
</g>
</g>
<!-- Node9&#45;&gt;Node13 -->
<g id="edge21" class="edge">
<title>Node9&#45;&gt;Node13</title>
<path fill="none" stroke="midnightblue" d="M761.88,-459.44C799.42,-450.1 859.63,-435.12 900.57,-424.93"/>
<polygon fill="midnightblue" stroke="midnightblue" points="901.42,-428.33 910.28,-422.52 899.73,-421.53 901.42,-428.33"/>
</g>
<!-- Node14 -->
<g id="node14" class="node">
<title>Node14</title>
<g id="a_node14"><a xlink:href="log_8h.html" target="_top" xlink:title=" ">
<polygon fill="none" stroke="black" points="1104,-347.5 1104,-366.5 1235,-366.5 1235,-347.5 1104,-347.5"/>
<text text-anchor="middle" x="1169.5" y="-354.5" font-family="Helvetica,sans-Serif" font-size="10.00">open62541/plugin/log.h</text>
</a>
</g>
</g>
<!-- Node9&#45;&gt;Node14 -->
<g id="edge37" class="edge">
<title>Node9&#45;&gt;Node14</title>
<path fill="none" stroke="midnightblue" d="M784.46,-467.41C914.62,-465.46 1225.05,-457.24 1256.5,-423 1276.44,-401.29 1239.58,-381.86 1207.86,-370.02"/>
<polygon fill="midnightblue" stroke="midnightblue" points="1208.85,-366.65 1198.25,-366.59 1206.5,-373.24 1208.85,-366.65"/>
</g>
<!-- Node16 -->
<g id="node16" class="node">
<title>Node16</title>
<g id="a_node16"><a xlink:href="pki_8h.html" target="_top" xlink:title=" ">
<polygon fill="none" stroke="black" points="836,-286 836,-305 967,-305 967,-286 836,-286"/>
<text text-anchor="middle" x="901.5" y="-293" font-family="Helvetica,sans-Serif" font-size="10.00">open62541/plugin/pki.h</text>
</a>
</g>
</g>
<!-- Node9&#45;&gt;Node16 -->
<g id="edge38" class="edge">
<title>Node9&#45;&gt;Node16</title>
<path fill="none" stroke="midnightblue" d="M745.43,-459.41C761.2,-451.34 784.27,-438.24 801.5,-423 839.62,-389.29 874.02,-339.67 890.77,-313.73"/>
<polygon fill="midnightblue" stroke="midnightblue" points="893.89,-315.35 896.29,-305.03 887.98,-311.6 893.89,-315.35"/>
</g>
<!-- Node17 -->
<g id="node17" class="node">
<title>Node17</title>
<g id="a_node17"><a xlink:href="accesscontrol_8h.html" target="_top" xlink:title=" ">
<polygon fill="none" stroke="black" points="577.5,-403.5 577.5,-422.5 759.5,-422.5 759.5,-403.5 577.5,-403.5"/>
<text text-anchor="middle" x="668.5" y="-410.5" font-family="Helvetica,sans-Serif" font-size="10.00">open62541/plugin/accesscontrol.h</text>
</a>
</g>
</g>
<!-- Node9&#45;&gt;Node17 -->
<g id="edge29" class="edge">
<title>Node9&#45;&gt;Node17</title>
<path fill="none" stroke="midnightblue" d="M718.02,-459.32C709.3,-451.34 696.16,-439.31 685.6,-429.65"/>
<polygon fill="midnightblue" stroke="midnightblue" points="687.89,-427 678.15,-422.83 683.17,-432.17 687.89,-427"/>
</g>
<!-- Node18 -->
<g id="node18" class="node">
<title>Node18</title>
<g id="a_node18"><a xlink:href="nodestore_8h.html" target="_top" xlink:title=" ">
<polygon fill="none" stroke="black" points="217.5,-403.5 217.5,-422.5 381.5,-422.5 381.5,-403.5 217.5,-403.5"/>
<text text-anchor="middle" x="299.5" y="-410.5" font-family="Helvetica,sans-Serif" font-size="10.00">open62541/plugin/nodestore.h</text>
</a>
</g>
</g>
<!-- Node9&#45;&gt;Node18 -->
<g id="edge31" class="edge">
<title>Node9&#45;&gt;Node18</title>
<path fill="none" stroke="midnightblue" d="M670.66,-460.83C595.28,-451.32 461.9,-434.49 377.24,-423.81"/>
<polygon fill="midnightblue" stroke="midnightblue" points="377.52,-420.32 367.16,-422.54 376.65,-427.26 377.52,-420.32"/>
</g>
<!-- Node20 -->
<g id="node20" class="node">
<title>Node20</title>
<g id="a_node20"><a xlink:href="network_8h.html" target="_top" xlink:title=" ">
<polygon fill="none" stroke="black" points="1092,-403.5 1092,-422.5 1247,-422.5 1247,-403.5 1092,-403.5"/>
<text text-anchor="middle" x="1169.5" y="-410.5" font-family="Helvetica,sans-Serif" font-size="10.00">open62541/plugin/network.h</text>
</a>
</g>
</g>
<!-- Node9&#45;&gt;Node20 -->
<g id="edge34" class="edge">
<title>Node9&#45;&gt;Node20</title>
<path fill="none" stroke="midnightblue" d="M784.38,-461.05C862.06,-451.56 1001.71,-434.5 1089.79,-423.74"/>
<polygon fill="midnightblue" stroke="midnightblue" points="1090.24,-427.21 1099.74,-422.52 1089.39,-420.26 1090.24,-427.21"/>
</g>
<!-- Node10&#45;&gt;Node3 -->
<g id="edge12" class="edge">
<title>Node10&#45;&gt;Node3</title>
<path fill="none" stroke="midnightblue" d="M608.49,-347.45C589.57,-340.84 567.82,-329.59 556.5,-311 549.34,-299.23 548.78,-291.41 556.5,-280 589.85,-230.74 759.03,-200.5 854.21,-187.11"/>
<polygon fill="midnightblue" stroke="midnightblue" points="854.88,-190.55 864.31,-185.71 853.92,-183.62 854.88,-190.55"/>
</g>
<!-- Node10&#45;&gt;Node8 -->
<g id="edge13" class="edge">
<title>Node10&#45;&gt;Node8</title>
<path fill="none" stroke="midnightblue" d="M665.95,-347.47C684.32,-339.77 710.3,-327.18 729.5,-311 749.44,-294.19 766.76,-269.37 777.16,-252.72"/>
<polygon fill="midnightblue" stroke="midnightblue" points="780.26,-254.35 782.45,-243.98 774.27,-250.72 780.26,-254.35"/>
</g>
<!-- Node10&#45;&gt;Node11 -->
<g id="edge14" class="edge">
<title>Node10&#45;&gt;Node11</title>
<path fill="none" stroke="midnightblue" d="M643.5,-347.48C643.5,-340.47 643.5,-330.19 643.5,-320.7"/>
<polygon fill="midnightblue" stroke="midnightblue" points="647,-320.52 643.5,-310.52 640,-320.52 647,-320.52"/>
</g>
<!-- Node11&#45;&gt;Node8 -->
<g id="edge15" class="edge">
<title>Node11&#45;&gt;Node8</title>
<path fill="none" stroke="midnightblue" d="M677.63,-280.4C701.79,-270.42 733.9,-257.15 757.17,-247.53"/>
<polygon fill="midnightblue" stroke="midnightblue" points="758.64,-250.71 766.55,-243.66 755.97,-244.24 758.64,-250.71"/>
</g>
<!-- Node13&#45;&gt;Node10 -->
<g id="edge22" class="edge">
<title>Node13&#45;&gt;Node10</title>
<path fill="none" stroke="midnightblue" d="M896.81,-403.44C843.64,-393.9 757.68,-378.48 700.87,-368.29"/>
<polygon fill="midnightblue" stroke="midnightblue" points="701.43,-364.84 690.97,-366.52 700.2,-371.73 701.43,-364.84"/>
</g>
<!-- Node13&#45;&gt;Node14 -->
<g id="edge23" class="edge">
<title>Node13&#45;&gt;Node14</title>
<path fill="none" stroke="midnightblue" d="M980.15,-403.44C1019.16,-394.08 1081.77,-379.06 1124.22,-368.87"/>
<polygon fill="midnightblue" stroke="midnightblue" points="1125.11,-372.25 1134.01,-366.52 1123.47,-365.45 1125.11,-372.25"/>
</g>
<!-- Node13&#45;&gt;Node16 -->
<g id="edge26" class="edge">
<title>Node13&#45;&gt;Node16</title>
<path fill="none" stroke="midnightblue" d="M941.27,-403.32C934.3,-384.59 917.71,-340.05 908.31,-314.79"/>
<polygon fill="midnightblue" stroke="midnightblue" points="911.54,-313.43 904.77,-305.28 904.98,-315.87 911.54,-313.43"/>
</g>
<!-- Node14&#45;&gt;Node4 -->
<g id="edge24" class="edge">
<title>Node14&#45;&gt;Node4</title>
<path fill="none" stroke="midnightblue" d="M1228.75,-347.45C1252.56,-341.12 1278.38,-330.12 1295.5,-311 1318.65,-285.14 1313.5,-269.71 1313.5,-235 1313.5,-235 1313.5,-235 1313.5,-177 1313.5,-131.12 1265.06,-97.53 1232.77,-80.23"/>
<polygon fill="midnightblue" stroke="midnightblue" points="1234.23,-77.04 1223.74,-75.58 1231.03,-83.27 1234.23,-77.04"/>
</g>
<!-- Node15 -->
<g id="node15" class="node">
<title>Node15</title>
<g id="a_node15"><a xlink:title=" ">
<polygon fill="none" stroke="#bfbfbf" points="1044.5,-286 1044.5,-305 1100.5,-305 1100.5,-286 1044.5,-286"/>
<text text-anchor="middle" x="1072.5" y="-293" font-family="Helvetica,sans-Serif" font-size="10.00">stdarg.h</text>
</a>
</g>
</g>
<!-- Node14&#45;&gt;Node15 -->
<g id="edge25" class="edge">
<title>Node14&#45;&gt;Node15</title>
<path fill="none" stroke="midnightblue" d="M1155.6,-347.48C1139.83,-337.8 1113.86,-321.87 1095.15,-310.39"/>
<polygon fill="midnightblue" stroke="midnightblue" points="1096.73,-307.25 1086.37,-305.01 1093.07,-313.22 1096.73,-307.25"/>
</g>
<!-- Node16&#45;&gt;Node3 -->
<g id="edge27" class="edge">
<title>Node16&#45;&gt;Node3</title>
<path fill="none" stroke="midnightblue" d="M902.85,-285.82C905.75,-267.26 912.59,-223.34 916.54,-197.97"/>
<polygon fill="midnightblue" stroke="midnightblue" points="920.05,-198.2 918.13,-187.78 913.13,-197.12 920.05,-198.2"/>
</g>
<!-- Node16&#45;&gt;Node8 -->
<g id="edge28" class="edge">
<title>Node16&#45;&gt;Node8</title>
<path fill="none" stroke="midnightblue" d="M885.17,-285.98C866.29,-276.12 834.99,-259.79 812.92,-248.27"/>
<polygon fill="midnightblue" stroke="midnightblue" points="814.29,-245.03 803.8,-243.51 811.05,-251.24 814.29,-245.03"/>
</g>
<!-- Node17&#45;&gt;Node10 -->
<g id="edge30" class="edge">
<title>Node17&#45;&gt;Node10</title>
<path fill="none" stroke="midnightblue" d="M664.37,-403.08C660.99,-395.77 656.08,-385.18 651.88,-376.1"/>
<polygon fill="midnightblue" stroke="midnightblue" points="654.93,-374.36 647.55,-366.75 648.58,-377.3 654.93,-374.36"/>
</g>
<!-- Node18&#45;&gt;Node10 -->
<g id="edge32" class="edge">
<title>Node18&#45;&gt;Node10</title>
<path fill="none" stroke="midnightblue" d="M354.01,-403.44C416.77,-393.59 519.51,-377.46 584.22,-367.31"/>
<polygon fill="midnightblue" stroke="midnightblue" points="584.93,-370.74 594.26,-365.73 583.84,-363.82 584.93,-370.74"/>
</g>
<!-- Node19 -->
<g id="node19" class="node">
<title>Node19</title>
<g id="a_node19"><a xlink:href="aa__tree_8h.html" target="_top" xlink:title=" ">
<polygon fill="none" stroke="black" points="268.5,-347.5 268.5,-366.5 330.5,-366.5 330.5,-347.5 268.5,-347.5"/>
<text text-anchor="middle" x="299.5" y="-354.5" font-family="Helvetica,sans-Serif" font-size="10.00">aa_tree.h</text>
</a>
</g>
</g>
<!-- Node18&#45;&gt;Node19 -->
<g id="edge33" class="edge">
<title>Node18&#45;&gt;Node19</title>
<path fill="none" stroke="midnightblue" d="M299.5,-403.08C299.5,-396.01 299.5,-385.86 299.5,-376.99"/>
<polygon fill="midnightblue" stroke="midnightblue" points="303,-376.75 299.5,-366.75 296,-376.75 303,-376.75"/>
</g>
<!-- Node20&#45;&gt;Node10 -->
<g id="edge35" class="edge">
<title>Node20&#45;&gt;Node10</title>
<path fill="none" stroke="midnightblue" d="M1091.89,-404.03C985.87,-393.15 798.08,-373.87 702.68,-364.08"/>
<polygon fill="midnightblue" stroke="midnightblue" points="702.93,-360.58 692.63,-363.04 702.22,-367.55 702.93,-360.58"/>
</g>
<!-- Node20&#45;&gt;Node14 -->
<g id="edge36" class="edge">
<title>Node20&#45;&gt;Node14</title>
<path fill="none" stroke="midnightblue" d="M1169.5,-403.08C1169.5,-396.01 1169.5,-385.86 1169.5,-376.99"/>
<polygon fill="midnightblue" stroke="midnightblue" points="1173,-376.75 1169.5,-366.75 1166,-376.75 1173,-376.75"/>
</g>
<!-- Node21&#45;&gt;Node2 -->
<g id="edge42" class="edge">
<title>Node21&#45;&gt;Node2</title>
<path fill="none" stroke="midnightblue" d="M414.64,-515.44C342.43,-505.77 225.02,-490.04 149.03,-479.85"/>
<polygon fill="midnightblue" stroke="midnightblue" points="149.43,-476.38 139.06,-478.52 148.5,-483.31 149.43,-476.38"/>
</g>
<!-- Node21&#45;&gt;Node9 -->
<g id="edge41" class="edge">
<title>Node21&#45;&gt;Node9</title>
<path fill="none" stroke="midnightblue" d="M517.95,-515.44C561.39,-506.02 631.29,-490.87 678.28,-480.68"/>
<polygon fill="midnightblue" stroke="midnightblue" points="679.2,-484.06 688.23,-478.52 677.72,-477.22 679.2,-484.06"/>
</g>
<!-- Node21&#45;&gt;Node10 -->
<g id="edge40" class="edge">
<title>Node21&#45;&gt;Node10</title>
<path fill="none" stroke="midnightblue" d="M401.1,-516C301.28,-502.78 147.35,-470.8 208.5,-403 233.19,-375.63 470.72,-363.89 583.98,-359.82"/>
<polygon fill="midnightblue" stroke="midnightblue" points="584.35,-363.31 594.22,-359.46 584.1,-356.31 584.35,-363.31"/>
</g>
<!-- Node23&#45;&gt;Node3 -->
<g id="edge45" class="edge">
<title>Node23&#45;&gt;Node3</title>
<path fill="none" stroke="midnightblue" d="M1181.59,-285.9C1149.23,-272.6 1085.04,-246.23 1030.5,-224 1003.33,-212.92 972.38,-200.38 950.08,-191.36"/>
<polygon fill="midnightblue" stroke="midnightblue" points="951.37,-188.11 940.79,-187.6 948.75,-194.6 951.37,-188.11"/>
</g>
<!-- Node23&#45;&gt;Node8 -->
<g id="edge46" class="edge">
<title>Node23&#45;&gt;Node8</title>
<path fill="none" stroke="midnightblue" d="M1148.92,-286C1136.02,-283.99 1122.27,-281.89 1109.5,-280 1024.16,-267.39 925.96,-253.8 860.67,-244.89"/>
<polygon fill="midnightblue" stroke="midnightblue" points="860.86,-241.38 850.48,-243.5 859.91,-248.32 860.86,-241.38"/>
</g>
</g>
</svg>
