<?xml version="1.0" encoding="UTF-8" standalone="no"?>
<!DOCTYPE svg PUBLIC "-//W3C//DTD SVG 1.1//EN"
 "http://www.w3.org/Graphics/SVG/1.1/DTD/svg11.dtd">
<!-- Generated by graphviz version 2.43.0 (0)
 -->
<!-- Title: /home/runner/work/open62541pp/open62541pp/build/doc/open62541/src/server/ua_session.h Pages: 1 -->
<svg width="642pt" height="632pt"
 viewBox="0.00 0.00 641.50 632.00" xmlns="http://www.w3.org/2000/svg" xmlns:xlink="http://www.w3.org/1999/xlink">
<g id="graph0" class="graph" transform="scale(1 1) rotate(0) translate(4 628)">
<title>/home/runner/work/open62541pp/open62541pp/build/doc/open62541/src/server/ua_session.h</title>
<!-- Node1 -->
<g id="node1" class="node">
<title>Node1</title>
<g id="a_node1"><a xlink:title=" ">
<polygon fill="#bfbfbf" stroke="black" points="20,-582.5 20,-623.5 210,-623.5 210,-582.5 20,-582.5"/>
<text text-anchor="start" x="28" y="-611.5" font-family="Helvetica,sans-Serif" font-size="10.00">/home/runner/work/open62541pp</text>
<text text-anchor="start" x="28" y="-600.5" font-family="Helvetica,sans-Serif" font-size="10.00">/open62541pp/build/doc/open62541</text>
<text text-anchor="middle" x="115" y="-589.5" font-family="Helvetica,sans-Serif" font-size="10.00">/src/server/ua_session.h</text>
</a>
</g>
</g>
<!-- Node2 -->
<g id="node2" class="node">
<title>Node2</title>
<g id="a_node2"><a xlink:href="util_8h.html" target="_top" xlink:title=" ">
<polygon fill="none" stroke="black" points="0,-353 0,-372 98,-372 98,-353 0,-353"/>
<text text-anchor="middle" x="49" y="-360" font-family="Helvetica,sans-Serif" font-size="10.00">open62541/util.h</text>
</a>
</g>
</g>
<!-- Node1&#45;&gt;Node2 -->
<g id="edge1" class="edge">
<title>Node1&#45;&gt;Node2</title>
<path fill="none" stroke="midnightblue" d="M105.83,-582.36C91.91,-551.52 65.81,-489.54 54,-434 50.33,-416.76 49.21,-396.68 48.93,-382.37"/>
<polygon fill="midnightblue" stroke="midnightblue" points="52.42,-382.26 48.85,-372.29 45.43,-382.32 52.42,-382.26"/>
</g>
<!-- Node10 -->
<g id="node10" class="node">
<title>Node10</title>
<g id="a_node10"><a xlink:href="ua__securechannel_8h.html" target="_top" xlink:title=" ">
<polygon fill="none" stroke="black" points="205.5,-526.5 205.5,-545.5 318.5,-545.5 318.5,-526.5 205.5,-526.5"/>
<text text-anchor="middle" x="262" y="-533.5" font-family="Helvetica,sans-Serif" font-size="10.00">ua_securechannel.h</text>
</a>
</g>
</g>
<!-- Node1&#45;&gt;Node10 -->
<g id="edge12" class="edge">
<title>Node1&#45;&gt;Node10</title>
<path fill="none" stroke="midnightblue" d="M159.1,-582.5C183.05,-571.91 211.98,-559.12 233.06,-549.8"/>
<polygon fill="midnightblue" stroke="midnightblue" points="234.7,-552.9 242.43,-545.65 231.87,-546.5 234.7,-552.9"/>
</g>
<!-- Node3 -->
<g id="node3" class="node">
<title>Node3</title>
<g id="a_node3"><a xlink:href="types_8h.html" target="_top" xlink:title=" ">
<polygon fill="none" stroke="black" points="396,-168.5 396,-187.5 506,-187.5 506,-168.5 396,-168.5"/>
<text text-anchor="middle" x="451" y="-175.5" font-family="Helvetica,sans-Serif" font-size="10.00">open62541/types.h</text>
</a>
</g>
</g>
<!-- Node2&#45;&gt;Node3 -->
<g id="edge2" class="edge">
<title>Node2&#45;&gt;Node3</title>
<path fill="none" stroke="midnightblue" d="M43.62,-352.96C34.33,-337.03 17.79,-302.37 34,-280 74.92,-223.54 279,-195.65 385.72,-184.73"/>
<polygon fill="midnightblue" stroke="midnightblue" points="386.13,-188.21 395.73,-183.73 385.43,-181.24 386.13,-188.21"/>
</g>
<!-- Node8 -->
<g id="node8" class="node">
<title>Node8</title>
<g id="a_node8"><a xlink:href="types__generated_8h.html" target="_top" xlink:title=" ">
<polygon fill="none" stroke="black" points="214,-224.5 214,-243.5 378,-243.5 378,-224.5 214,-224.5"/>
<text text-anchor="middle" x="296" y="-231.5" font-family="Helvetica,sans-Serif" font-size="10.00">open62541/types_generated.h</text>
</a>
</g>
</g>
<!-- Node2&#45;&gt;Node8 -->
<g id="edge8" class="edge">
<title>Node2&#45;&gt;Node8</title>
<path fill="none" stroke="midnightblue" d="M45.58,-352.68C39.86,-336.27 30.59,-300.86 48,-280 67.86,-256.22 141.64,-244.97 203.6,-239.68"/>
<polygon fill="midnightblue" stroke="midnightblue" points="204.15,-243.15 213.83,-238.85 203.58,-236.17 204.15,-243.15"/>
</g>
<!-- Node9 -->
<g id="node9" class="node">
<title>Node9</title>
<g id="a_node9"><a xlink:href="types__generated__handling_8h.html" target="_top" xlink:title=" ">
<polygon fill="none" stroke="black" points="57.5,-280.5 57.5,-310.5 212.5,-310.5 212.5,-280.5 57.5,-280.5"/>
<text text-anchor="start" x="65.5" y="-298.5" font-family="Helvetica,sans-Serif" font-size="10.00">open62541/types_generated</text>
<text text-anchor="middle" x="135" y="-287.5" font-family="Helvetica,sans-Serif" font-size="10.00">_handling.h</text>
</a>
</g>
</g>
<!-- Node2&#45;&gt;Node9 -->
<g id="edge10" class="edge">
<title>Node2&#45;&gt;Node9</title>
<path fill="none" stroke="midnightblue" d="M60.6,-352.73C72.78,-343.53 92.35,-328.73 108.37,-316.63"/>
<polygon fill="midnightblue" stroke="midnightblue" points="110.49,-319.41 116.36,-310.59 106.27,-313.83 110.49,-319.41"/>
</g>
<!-- Node4 -->
<g id="node4" class="node">
<title>Node4</title>
<g id="a_node4"><a xlink:href="config_8h.html" target="_top" xlink:title=" ">
<polygon fill="none" stroke="black" points="512,-56.5 512,-75.5 624,-75.5 624,-56.5 512,-56.5"/>
<text text-anchor="middle" x="568" y="-63.5" font-family="Helvetica,sans-Serif" font-size="10.00">open62541/config.h</text>
</a>
</g>
</g>
<!-- Node3&#45;&gt;Node4 -->
<g id="edge3" class="edge">
<title>Node3&#45;&gt;Node4</title>
<path fill="none" stroke="midnightblue" d="M487.29,-168.41C508.07,-161.74 533.09,-150.42 549,-132 560.16,-119.08 564.77,-99.91 566.67,-85.73"/>
<polygon fill="midnightblue" stroke="midnightblue" points="570.17,-85.95 567.69,-75.65 563.2,-85.25 570.17,-85.95"/>
</g>
<!-- Node6 -->
<g id="node6" class="node">
<title>Node6</title>
<g id="a_node6"><a xlink:href="common_8h.html" target="_top" xlink:title=" ">
<polygon fill="none" stroke="black" points="255.5,-112.5 255.5,-131.5 380.5,-131.5 380.5,-112.5 255.5,-112.5"/>
<text text-anchor="middle" x="318" y="-119.5" font-family="Helvetica,sans-Serif" font-size="10.00">open62541/common.h</text>
</a>
</g>
</g>
<!-- Node3&#45;&gt;Node6 -->
<g id="edge5" class="edge">
<title>Node3&#45;&gt;Node6</title>
<path fill="none" stroke="midnightblue" d="M429.93,-168.44C407.94,-159.52 373.27,-145.44 348.34,-135.32"/>
<polygon fill="midnightblue" stroke="midnightblue" points="349.56,-132.04 338.98,-131.52 346.92,-138.52 349.56,-132.04"/>
</g>
<!-- Node7 -->
<g id="node7" class="node">
<title>Node7</title>
<g id="a_node7"><a xlink:href="statuscodes_8h.html" target="_top" xlink:title=" ">
<polygon fill="none" stroke="black" points="398.5,-112.5 398.5,-131.5 539.5,-131.5 539.5,-112.5 398.5,-112.5"/>
<text text-anchor="middle" x="469" y="-119.5" font-family="Helvetica,sans-Serif" font-size="10.00">open62541/statuscodes.h</text>
</a>
</g>
</g>
<!-- Node3&#45;&gt;Node7 -->
<g id="edge7" class="edge">
<title>Node3&#45;&gt;Node7</title>
<path fill="none" stroke="midnightblue" d="M453.97,-168.08C456.38,-160.85 459.86,-150.41 462.87,-141.4"/>
<polygon fill="midnightblue" stroke="midnightblue" points="466.24,-142.34 466.08,-131.75 459.6,-140.13 466.24,-142.34"/>
</g>
<!-- Node5 -->
<g id="node5" class="node">
<title>Node5</title>
<g id="a_node5"><a xlink:href="posix_2ua__architecture_8h.html" target="_top" xlink:title=" ">
<polygon fill="none" stroke="black" points="502.5,-0.5 502.5,-19.5 633.5,-19.5 633.5,-0.5 502.5,-0.5"/>
<text text-anchor="middle" x="568" y="-7.5" font-family="Helvetica,sans-Serif" font-size="10.00">posix/ua_architecture.h</text>
</a>
</g>
</g>
<!-- Node4&#45;&gt;Node5 -->
<g id="edge4" class="edge">
<title>Node4&#45;&gt;Node5</title>
<path fill="none" stroke="midnightblue" d="M568,-56.08C568,-49.01 568,-38.86 568,-29.99"/>
<polygon fill="midnightblue" stroke="midnightblue" points="571.5,-29.75 568,-19.75 564.5,-29.75 571.5,-29.75"/>
</g>
<!-- Node6&#45;&gt;Node4 -->
<g id="edge6" class="edge">
<title>Node6&#45;&gt;Node4</title>
<path fill="none" stroke="midnightblue" d="M357.61,-112.44C401.23,-103.02 471.4,-87.87 518.58,-77.68"/>
<polygon fill="midnightblue" stroke="midnightblue" points="519.54,-81.05 528.57,-75.52 518.06,-74.21 519.54,-81.05"/>
</g>
<!-- Node8&#45;&gt;Node3 -->
<g id="edge9" class="edge">
<title>Node8&#45;&gt;Node3</title>
<path fill="none" stroke="midnightblue" d="M320.56,-224.44C346.52,-215.4 387.67,-201.06 416.8,-190.92"/>
<polygon fill="midnightblue" stroke="midnightblue" points="418.26,-194.11 426.55,-187.52 415.96,-187.5 418.26,-194.11"/>
</g>
<!-- Node9&#45;&gt;Node8 -->
<g id="edge11" class="edge">
<title>Node9&#45;&gt;Node8</title>
<path fill="none" stroke="midnightblue" d="M173.15,-280.4C200.53,-270.28 237.04,-256.79 263.13,-247.15"/>
<polygon fill="midnightblue" stroke="midnightblue" points="264.41,-250.41 272.57,-243.66 261.98,-243.84 264.41,-250.41"/>
</g>
<!-- Node10&#45;&gt;Node2 -->
<g id="edge13" class="edge">
<title>Node10&#45;&gt;Node2</title>
<path fill="none" stroke="midnightblue" d="M227.78,-526.4C184.14,-513.65 109.39,-485.5 68,-434 56.23,-419.36 51.72,-398.04 50.01,-382.68"/>
<polygon fill="midnightblue" stroke="midnightblue" points="53.46,-381.99 49.17,-372.31 46.49,-382.56 53.46,-381.99"/>
</g>
<!-- Node10&#45;&gt;Node3 -->
<g id="edge14" class="edge">
<title>Node10&#45;&gt;Node3</title>
<path fill="none" stroke="midnightblue" d="M318.56,-533.62C392.27,-530.58 515.47,-520.9 547,-490 592.83,-445.08 583.03,-409.14 567,-347 551.39,-286.52 537.36,-273.3 499,-224 490.54,-213.12 479.39,-202.5 469.97,-194.31"/>
<polygon fill="midnightblue" stroke="midnightblue" points="472.14,-191.57 462.24,-187.8 467.63,-196.92 472.14,-191.57"/>
</g>
<!-- Node11 -->
<g id="node11" class="node">
<title>Node11</title>
<g id="a_node11"><a xlink:href="log_8h.html" target="_top" xlink:title=" ">
<polygon fill="none" stroke="black" points="290.5,-353 290.5,-372 421.5,-372 421.5,-353 290.5,-353"/>
<text text-anchor="middle" x="356" y="-360" font-family="Helvetica,sans-Serif" font-size="10.00">open62541/plugin/log.h</text>
</a>
</g>
</g>
<!-- Node10&#45;&gt;Node11 -->
<g id="edge15" class="edge">
<title>Node10&#45;&gt;Node11</title>
<path fill="none" stroke="midnightblue" d="M254.21,-526.47C242.92,-513.07 224.85,-486.88 239,-470 297.86,-399.78 383.14,-504.22 442,-434 461.89,-410.27 423.09,-388.6 391.34,-375.72"/>
<polygon fill="midnightblue" stroke="midnightblue" points="392.38,-372.37 381.79,-372.02 389.84,-378.9 392.38,-372.37"/>
</g>
<!-- Node13 -->
<g id="node13" class="node">
<title>Node13</title>
<g id="a_node13"><a xlink:href="securitypolicy_8h.html" target="_top" xlink:title=" ">
<polygon fill="none" stroke="black" points="77,-414.5 77,-433.5 259,-433.5 259,-414.5 77,-414.5"/>
<text text-anchor="middle" x="168" y="-421.5" font-family="Helvetica,sans-Serif" font-size="10.00">open62541/plugin/securitypolicy.h</text>
</a>
</g>
</g>
<!-- Node10&#45;&gt;Node13 -->
<g id="edge18" class="edge">
<title>Node10&#45;&gt;Node13</title>
<path fill="none" stroke="midnightblue" d="M248.09,-526.27C235.71,-518.02 217.66,-504.72 205,-490 192.72,-475.72 182.48,-456.76 175.91,-443"/>
<polygon fill="midnightblue" stroke="midnightblue" points="178.98,-441.29 171.63,-433.66 172.61,-444.21 178.98,-441.29"/>
</g>
<!-- Node15 -->
<g id="node15" class="node">
<title>Node15</title>
<g id="a_node15"><a xlink:href="transport__generated_8h.html" target="_top" xlink:title=" ">
<polygon fill="none" stroke="black" points="440,-347.5 440,-377.5 558,-377.5 558,-347.5 440,-347.5"/>
<text text-anchor="start" x="448" y="-365.5" font-family="Helvetica,sans-Serif" font-size="10.00">open62541/transport</text>
<text text-anchor="middle" x="499" y="-354.5" font-family="Helvetica,sans-Serif" font-size="10.00">_generated.h</text>
</a>
</g>
</g>
<!-- Node10&#45;&gt;Node15 -->
<g id="edge24" class="edge">
<title>Node10&#45;&gt;Node15</title>
<path fill="none" stroke="midnightblue" d="M318.51,-533.72C388.74,-530.8 502.59,-521.23 529,-490 553.88,-460.58 532.24,-414.15 515.06,-386.47"/>
<polygon fill="midnightblue" stroke="midnightblue" points="517.85,-384.35 509.48,-377.86 511.98,-388.15 517.85,-384.35"/>
</g>
<!-- Node16 -->
<g id="node16" class="node">
<title>Node16</title>
<g id="a_node16"><a xlink:href="open62541__queue_8h.html" target="_top" xlink:title=" ">
<polygon fill="none" stroke="black" points="247.5,-470.5 247.5,-489.5 362.5,-489.5 362.5,-470.5 247.5,-470.5"/>
<text text-anchor="middle" x="305" y="-477.5" font-family="Helvetica,sans-Serif" font-size="10.00">open62541_queue.h</text>
</a>
</g>
</g>
<!-- Node10&#45;&gt;Node16 -->
<g id="edge27" class="edge">
<title>Node10&#45;&gt;Node16</title>
<path fill="none" stroke="midnightblue" d="M269.1,-526.08C275.24,-518.38 284.27,-507.03 291.74,-497.65"/>
<polygon fill="midnightblue" stroke="midnightblue" points="294.54,-499.75 298.03,-489.75 289.06,-495.39 294.54,-499.75"/>
</g>
<!-- Node17 -->
<g id="node17" class="node">
<title>Node17</title>
<g id="a_node17"><a xlink:href="ua__connection__internal_8h.html" target="_top" xlink:title=" ">
<polygon fill="none" stroke="black" points="380.5,-470.5 380.5,-489.5 519.5,-489.5 519.5,-470.5 380.5,-470.5"/>
<text text-anchor="middle" x="450" y="-477.5" font-family="Helvetica,sans-Serif" font-size="10.00">ua_connection_internal.h</text>
</a>
</g>
</g>
<!-- Node10&#45;&gt;Node17 -->
<g id="edge28" class="edge">
<title>Node10&#45;&gt;Node17</title>
<path fill="none" stroke="midnightblue" d="M291.79,-526.44C323.83,-517.24 374.93,-502.56 410.35,-492.39"/>
<polygon fill="midnightblue" stroke="midnightblue" points="411.71,-495.64 420.35,-489.52 409.77,-488.91 411.71,-495.64"/>
</g>
<!-- Node11&#45;&gt;Node4 -->
<g id="edge16" class="edge">
<title>Node11&#45;&gt;Node4</title>
<path fill="none" stroke="midnightblue" d="M360.55,-352.86C368.95,-337.37 387.94,-304.19 409,-280 472.39,-207.18 532.29,-221.69 568,-132 573.87,-117.26 573.29,-99.1 571.58,-85.72"/>
<polygon fill="midnightblue" stroke="midnightblue" points="575.02,-85.12 569.99,-75.8 568.11,-86.22 575.02,-85.12"/>
</g>
<!-- Node12 -->
<g id="node12" class="node">
<title>Node12</title>
<g id="a_node12"><a xlink:title=" ">
<polygon fill="none" stroke="#bfbfbf" points="418,-286 418,-305 474,-305 474,-286 418,-286"/>
<text text-anchor="middle" x="446" y="-293" font-family="Helvetica,sans-Serif" font-size="10.00">stdarg.h</text>
</a>
</g>
</g>
<!-- Node11&#45;&gt;Node12 -->
<g id="edge17" class="edge">
<title>Node11&#45;&gt;Node12</title>
<path fill="none" stroke="midnightblue" d="M368.14,-352.73C382.85,-342.11 407.86,-324.05 425.56,-311.26"/>
<polygon fill="midnightblue" stroke="midnightblue" points="428,-313.82 434.05,-305.13 423.9,-308.14 428,-313.82"/>
</g>
<!-- Node13&#45;&gt;Node2 -->
<g id="edge19" class="edge">
<title>Node13&#45;&gt;Node2</title>
<path fill="none" stroke="midnightblue" d="M150.95,-414.48C131.16,-404.58 98.28,-388.14 75.23,-376.62"/>
<polygon fill="midnightblue" stroke="midnightblue" points="76.53,-373.35 66.02,-372.01 73.4,-379.61 76.53,-373.35"/>
</g>
<!-- Node13&#45;&gt;Node11 -->
<g id="edge20" class="edge">
<title>Node13&#45;&gt;Node11</title>
<path fill="none" stroke="midnightblue" d="M194.94,-414.48C227.6,-404.14 282.82,-386.66 319.34,-375.1"/>
<polygon fill="midnightblue" stroke="midnightblue" points="320.64,-378.36 329.11,-372.01 318.52,-371.69 320.64,-378.36"/>
</g>
<!-- Node14 -->
<g id="node14" class="node">
<title>Node14</title>
<g id="a_node14"><a xlink:href="pki_8h.html" target="_top" xlink:title=" ">
<polygon fill="none" stroke="black" points="230.5,-286 230.5,-305 361.5,-305 361.5,-286 230.5,-286"/>
<text text-anchor="middle" x="296" y="-293" font-family="Helvetica,sans-Serif" font-size="10.00">open62541/plugin/pki.h</text>
</a>
</g>
</g>
<!-- Node13&#45;&gt;Node14 -->
<g id="edge21" class="edge">
<title>Node13&#45;&gt;Node14</title>
<path fill="none" stroke="midnightblue" d="M176.8,-414.31C198.08,-393.27 252.6,-339.39 279.91,-312.4"/>
<polygon fill="midnightblue" stroke="midnightblue" points="282.49,-314.77 287.14,-305.26 277.57,-309.8 282.49,-314.77"/>
</g>
<!-- Node14&#45;&gt;Node3 -->
<g id="edge22" class="edge">
<title>Node14&#45;&gt;Node3</title>
<path fill="none" stroke="midnightblue" d="M315.08,-285.9C334.19,-276.85 363.98,-261.49 387,-244 406,-229.56 424.81,-209.59 437.07,-195.61"/>
<polygon fill="midnightblue" stroke="midnightblue" points="439.94,-197.65 443.8,-187.78 434.63,-193.08 439.94,-197.65"/>
</g>
<!-- Node14&#45;&gt;Node8 -->
<g id="edge23" class="edge">
<title>Node14&#45;&gt;Node8</title>
<path fill="none" stroke="midnightblue" d="M296,-285.98C296,-277.58 296,-264.48 296,-253.66"/>
<polygon fill="midnightblue" stroke="midnightblue" points="299.5,-253.51 296,-243.51 292.5,-253.51 299.5,-253.51"/>
</g>
<!-- Node15&#45;&gt;Node3 -->
<g id="edge25" class="edge">
<title>Node15&#45;&gt;Node3</title>
<path fill="none" stroke="midnightblue" d="M502.39,-347.43C505.76,-331 509.7,-303.12 504,-280 496.14,-248.11 476.22,-215.15 463.16,-195.89"/>
<polygon fill="midnightblue" stroke="midnightblue" points="465.98,-193.8 457.39,-187.6 460.23,-197.8 465.98,-193.8"/>
</g>
<!-- Node15&#45;&gt;Node8 -->
<g id="edge26" class="edge">
<title>Node15&#45;&gt;Node8</title>
<path fill="none" stroke="midnightblue" d="M500.47,-347.35C501.51,-329.25 500.36,-298.11 483,-280 467.69,-264.03 418.15,-252.54 373.9,-245.17"/>
<polygon fill="midnightblue" stroke="midnightblue" points="374.4,-241.7 363.97,-243.56 373.29,-248.61 374.4,-241.7"/>
</g>
<!-- Node17&#45;&gt;Node15 -->
<g id="edge32" class="edge">
<title>Node17&#45;&gt;Node15</title>
<path fill="none" stroke="midnightblue" d="M455.46,-470.28C460.88,-461.38 469.2,-447.07 475,-434 481.73,-418.84 487.74,-401.17 492.06,-387.31"/>
<polygon fill="midnightblue" stroke="midnightblue" points="495.47,-388.14 495.03,-377.56 488.77,-386.11 495.47,-388.14"/>
</g>
<!-- Node18 -->
<g id="node18" class="node">
<title>Node18</title>
<g id="a_node18"><a xlink:href="network_8h.html" target="_top" xlink:title=" ">
<polygon fill="none" stroke="black" points="277.5,-414.5 277.5,-433.5 432.5,-433.5 432.5,-414.5 277.5,-414.5"/>
<text text-anchor="middle" x="355" y="-421.5" font-family="Helvetica,sans-Serif" font-size="10.00">open62541/plugin/network.h</text>
</a>
</g>
</g>
<!-- Node17&#45;&gt;Node18 -->
<g id="edge29" class="edge">
<title>Node17&#45;&gt;Node18</title>
<path fill="none" stroke="midnightblue" d="M434.74,-470.32C419.78,-461.82 396.75,-448.73 379.27,-438.8"/>
<polygon fill="midnightblue" stroke="midnightblue" points="380.65,-435.55 370.23,-433.65 377.19,-441.64 380.65,-435.55"/>
</g>
<!-- Node18&#45;&gt;Node2 -->
<g id="edge30" class="edge">
<title>Node18&#45;&gt;Node2</title>
<path fill="none" stroke="midnightblue" d="M311.16,-414.48C256.17,-403.78 161.93,-385.46 102.68,-373.94"/>
<polygon fill="midnightblue" stroke="midnightblue" points="103.25,-370.48 92.76,-372.01 101.91,-377.35 103.25,-370.48"/>
</g>
<!-- Node18&#45;&gt;Node11 -->
<g id="edge31" class="edge">
<title>Node18&#45;&gt;Node11</title>
<path fill="none" stroke="midnightblue" d="M355.14,-414.48C355.28,-406.08 355.5,-392.98 355.69,-382.16"/>
<polygon fill="midnightblue" stroke="midnightblue" points="359.19,-382.07 355.86,-372.01 352.19,-381.95 359.19,-382.07"/>
</g>
</g>
</svg>
