<?xml version="1.0" encoding="UTF-8" standalone="no"?>
<!DOCTYPE svg PUBLIC "-//W3C//DTD SVG 1.1//EN"
 "http://www.w3.org/Graphics/SVG/1.1/DTD/svg11.dtd">
<!-- Generated by graphviz version 2.43.0 (0)
 -->
<!-- Title: /home/runner/work/open62541pp/open62541pp/build/doc/open62541/src/ua_securechannel.h Pages: 1 -->
<svg width="739pt" height="576pt"
 viewBox="0.00 0.00 738.50 576.00" xmlns="http://www.w3.org/2000/svg" xmlns:xlink="http://www.w3.org/1999/xlink">
<g id="graph0" class="graph" transform="scale(1 1) rotate(0) translate(4 572)">
<title>/home/runner/work/open62541pp/open62541pp/build/doc/open62541/src/ua_securechannel.h</title>
<!-- Node1 -->
<g id="node1" class="node">
<title>Node1</title>
<g id="a_node1"><a xlink:title=" ">
<polygon fill="#bfbfbf" stroke="black" points="335,-526.5 335,-567.5 525,-567.5 525,-526.5 335,-526.5"/>
<text text-anchor="start" x="343" y="-555.5" font-family="Helvetica,sans-Serif" font-size="10.00">/home/runner/work/open62541pp</text>
<text text-anchor="start" x="343" y="-544.5" font-family="Helvetica,sans-Serif" font-size="10.00">/open62541pp/build/doc/open62541</text>
<text text-anchor="middle" x="430" y="-533.5" font-family="Helvetica,sans-Serif" font-size="10.00">/src/ua_securechannel.h</text>
</a>
</g>
</g>
<!-- Node2 -->
<g id="node2" class="node">
<title>Node2</title>
<g id="a_node2"><a xlink:href="util_8h.html" target="_top" xlink:title=" ">
<polygon fill="none" stroke="black" points="165,-353 165,-372 263,-372 263,-353 165,-353"/>
<text text-anchor="middle" x="214" y="-360" font-family="Helvetica,sans-Serif" font-size="10.00">open62541/util.h</text>
</a>
</g>
</g>
<!-- Node1&#45;&gt;Node2 -->
<g id="edge1" class="edge">
<title>Node1&#45;&gt;Node2</title>
<path fill="none" stroke="midnightblue" d="M378.1,-526.49C300.5,-497.09 162.57,-443.79 156,-434 142.02,-413.18 167.47,-391.17 188.95,-377.39"/>
<polygon fill="midnightblue" stroke="midnightblue" points="190.77,-380.38 197.49,-372.19 187.13,-374.4 190.77,-380.38"/>
</g>
<!-- Node3 -->
<g id="node3" class="node">
<title>Node3</title>
<g id="a_node3"><a xlink:href="types_8h.html" target="_top" xlink:title=" ">
<polygon fill="none" stroke="black" points="253,-168.5 253,-187.5 363,-187.5 363,-168.5 253,-168.5"/>
<text text-anchor="middle" x="308" y="-175.5" font-family="Helvetica,sans-Serif" font-size="10.00">open62541/types.h</text>
</a>
</g>
</g>
<!-- Node1&#45;&gt;Node3 -->
<g id="edge12" class="edge">
<title>Node1&#45;&gt;Node3</title>
<path fill="none" stroke="midnightblue" d="M491.15,-526.38C535.23,-507.97 587,-475.59 587,-425 587,-425 587,-425 587,-361.5 587,-324.31 592.38,-308.09 568,-280 518.42,-222.86 432.54,-197.85 373.12,-187.03"/>
<polygon fill="midnightblue" stroke="midnightblue" points="373.53,-183.55 363.08,-185.29 372.34,-190.45 373.53,-183.55"/>
</g>
<!-- Node10 -->
<g id="node10" class="node">
<title>Node10</title>
<g id="a_node10"><a xlink:href="log_8h.html" target="_top" xlink:title=" ">
<polygon fill="none" stroke="black" points="409.5,-353 409.5,-372 540.5,-372 540.5,-353 409.5,-353"/>
<text text-anchor="middle" x="475" y="-360" font-family="Helvetica,sans-Serif" font-size="10.00">open62541/plugin/log.h</text>
</a>
</g>
</g>
<!-- Node1&#45;&gt;Node10 -->
<g id="edge13" class="edge">
<title>Node1&#45;&gt;Node10</title>
<path fill="none" stroke="midnightblue" d="M456.29,-526.24C480.67,-506.13 515.32,-472.48 530,-434 538.45,-411.84 517.22,-391.02 498.73,-377.83"/>
<polygon fill="midnightblue" stroke="midnightblue" points="500.53,-374.82 490.28,-372.16 496.64,-380.64 500.53,-374.82"/>
</g>
<!-- Node12 -->
<g id="node12" class="node">
<title>Node12</title>
<g id="a_node12"><a xlink:href="securitypolicy_8h.html" target="_top" xlink:title=" ">
<polygon fill="none" stroke="black" points="339,-414.5 339,-433.5 521,-433.5 521,-414.5 339,-414.5"/>
<text text-anchor="middle" x="430" y="-421.5" font-family="Helvetica,sans-Serif" font-size="10.00">open62541/plugin/securitypolicy.h</text>
</a>
</g>
</g>
<!-- Node1&#45;&gt;Node12 -->
<g id="edge16" class="edge">
<title>Node1&#45;&gt;Node12</title>
<path fill="none" stroke="midnightblue" d="M430,-526.29C430,-503.48 430,-466.19 430,-443.78"/>
<polygon fill="midnightblue" stroke="midnightblue" points="433.5,-443.57 430,-433.57 426.5,-443.57 433.5,-443.57"/>
</g>
<!-- Node14 -->
<g id="node14" class="node">
<title>Node14</title>
<g id="a_node14"><a xlink:href="transport__generated_8h.html" target="_top" xlink:title=" ">
<polygon fill="none" stroke="black" points="0,-347.5 0,-377.5 118,-377.5 118,-347.5 0,-347.5"/>
<text text-anchor="start" x="8" y="-365.5" font-family="Helvetica,sans-Serif" font-size="10.00">open62541/transport</text>
<text text-anchor="middle" x="59" y="-354.5" font-family="Helvetica,sans-Serif" font-size="10.00">_generated.h</text>
</a>
</g>
</g>
<!-- Node1&#45;&gt;Node14 -->
<g id="edge22" class="edge">
<title>Node1&#45;&gt;Node14</title>
<path fill="none" stroke="midnightblue" d="M334.94,-543.96C240.9,-539.78 106.08,-527.26 71,-490 45.39,-462.8 48.41,-416.22 53.39,-387.81"/>
<polygon fill="midnightblue" stroke="midnightblue" points="56.85,-388.38 55.34,-377.89 49.98,-387.03 56.85,-388.38"/>
</g>
<!-- Node15 -->
<g id="node15" class="node">
<title>Node15</title>
<g id="a_node15"><a xlink:href="open62541__queue_8h.html" target="_top" xlink:title=" ">
<polygon fill="none" stroke="black" points="615.5,-470.5 615.5,-489.5 730.5,-489.5 730.5,-470.5 615.5,-470.5"/>
<text text-anchor="middle" x="673" y="-477.5" font-family="Helvetica,sans-Serif" font-size="10.00">open62541_queue.h</text>
</a>
</g>
</g>
<!-- Node1&#45;&gt;Node15 -->
<g id="edge25" class="edge">
<title>Node1&#45;&gt;Node15</title>
<path fill="none" stroke="midnightblue" d="M502.91,-526.5C544.77,-515.3 595.85,-501.64 631.04,-492.22"/>
<polygon fill="midnightblue" stroke="midnightblue" points="632.22,-495.53 640.97,-489.57 630.41,-488.77 632.22,-495.53"/>
</g>
<!-- Node16 -->
<g id="node16" class="node">
<title>Node16</title>
<g id="a_node16"><a xlink:href="ua__connection__internal_8h.html" target="_top" xlink:title=" ">
<polygon fill="none" stroke="black" points="80.5,-470.5 80.5,-489.5 219.5,-489.5 219.5,-470.5 80.5,-470.5"/>
<text text-anchor="middle" x="150" y="-477.5" font-family="Helvetica,sans-Serif" font-size="10.00">ua_connection_internal.h</text>
</a>
</g>
</g>
<!-- Node1&#45;&gt;Node16 -->
<g id="edge26" class="edge">
<title>Node1&#45;&gt;Node16</title>
<path fill="none" stroke="midnightblue" d="M345.99,-526.5C297.13,-515.16 237.39,-501.29 196.79,-491.86"/>
<polygon fill="midnightblue" stroke="midnightblue" points="197.44,-488.42 186.9,-489.57 195.85,-495.24 197.44,-488.42"/>
</g>
<!-- Node2&#45;&gt;Node3 -->
<g id="edge2" class="edge">
<title>Node2&#45;&gt;Node3</title>
<path fill="none" stroke="midnightblue" d="M164.78,-354.01C139.07,-347.33 109.76,-334.72 94,-311 86.38,-299.52 87.43,-292.11 94,-280 123.19,-226.16 190.94,-200.78 242.45,-188.97"/>
<polygon fill="midnightblue" stroke="midnightblue" points="243.49,-192.32 252.52,-186.78 242.01,-185.48 243.49,-192.32"/>
</g>
<!-- Node8 -->
<g id="node8" class="node">
<title>Node8</title>
<g id="a_node8"><a xlink:href="types__generated_8h.html" target="_top" xlink:title=" ">
<polygon fill="none" stroke="black" points="189,-224.5 189,-243.5 353,-243.5 353,-224.5 189,-224.5"/>
<text text-anchor="middle" x="271" y="-231.5" font-family="Helvetica,sans-Serif" font-size="10.00">open62541/types_generated.h</text>
</a>
</g>
</g>
<!-- Node2&#45;&gt;Node8 -->
<g id="edge8" class="edge">
<title>Node2&#45;&gt;Node8</title>
<path fill="none" stroke="midnightblue" d="M227.67,-352.99C240.39,-344.2 258.61,-329.24 267,-311 275.26,-293.03 275.23,-270.1 273.78,-254.14"/>
<polygon fill="midnightblue" stroke="midnightblue" points="277.22,-253.45 272.57,-243.93 270.27,-254.27 277.22,-253.45"/>
</g>
<!-- Node9 -->
<g id="node9" class="node">
<title>Node9</title>
<g id="a_node9"><a xlink:href="types__generated__handling_8h.html" target="_top" xlink:title=" ">
<polygon fill="none" stroke="black" points="103.5,-280.5 103.5,-310.5 258.5,-310.5 258.5,-280.5 103.5,-280.5"/>
<text text-anchor="start" x="111.5" y="-298.5" font-family="Helvetica,sans-Serif" font-size="10.00">open62541/types_generated</text>
<text text-anchor="middle" x="181" y="-287.5" font-family="Helvetica,sans-Serif" font-size="10.00">_handling.h</text>
</a>
</g>
</g>
<!-- Node2&#45;&gt;Node9 -->
<g id="edge10" class="edge">
<title>Node2&#45;&gt;Node9</title>
<path fill="none" stroke="midnightblue" d="M209.55,-352.73C205.26,-344.29 198.59,-331.14 192.77,-319.68"/>
<polygon fill="midnightblue" stroke="midnightblue" points="195.8,-317.92 188.15,-310.59 189.56,-321.09 195.8,-317.92"/>
</g>
<!-- Node4 -->
<g id="node4" class="node">
<title>Node4</title>
<g id="a_node4"><a xlink:href="config_8h.html" target="_top" xlink:title=" ">
<polygon fill="none" stroke="black" points="362,-56.5 362,-75.5 474,-75.5 474,-56.5 362,-56.5"/>
<text text-anchor="middle" x="418" y="-63.5" font-family="Helvetica,sans-Serif" font-size="10.00">open62541/config.h</text>
</a>
</g>
</g>
<!-- Node3&#45;&gt;Node4 -->
<g id="edge3" class="edge">
<title>Node3&#45;&gt;Node4</title>
<path fill="none" stroke="midnightblue" d="M339.1,-168.4C358.56,-161.52 382.76,-149.99 398,-132 409.08,-118.92 414.03,-99.77 416.23,-85.64"/>
<polygon fill="midnightblue" stroke="midnightblue" points="419.72,-85.95 417.48,-75.6 412.77,-85.09 419.72,-85.95"/>
</g>
<!-- Node6 -->
<g id="node6" class="node">
<title>Node6</title>
<g id="a_node6"><a xlink:href="common_8h.html" target="_top" xlink:title=" ">
<polygon fill="none" stroke="black" points="264.5,-112.5 264.5,-131.5 389.5,-131.5 389.5,-112.5 264.5,-112.5"/>
<text text-anchor="middle" x="327" y="-119.5" font-family="Helvetica,sans-Serif" font-size="10.00">open62541/common.h</text>
</a>
</g>
</g>
<!-- Node3&#45;&gt;Node6 -->
<g id="edge5" class="edge">
<title>Node3&#45;&gt;Node6</title>
<path fill="none" stroke="midnightblue" d="M311.14,-168.08C313.68,-160.85 317.36,-150.41 320.53,-141.4"/>
<polygon fill="midnightblue" stroke="midnightblue" points="323.9,-142.35 323.92,-131.75 317.3,-140.02 323.9,-142.35"/>
</g>
<!-- Node7 -->
<g id="node7" class="node">
<title>Node7</title>
<g id="a_node7"><a xlink:href="statuscodes_8h.html" target="_top" xlink:title=" ">
<polygon fill="none" stroke="black" points="105.5,-112.5 105.5,-131.5 246.5,-131.5 246.5,-112.5 105.5,-112.5"/>
<text text-anchor="middle" x="176" y="-119.5" font-family="Helvetica,sans-Serif" font-size="10.00">open62541/statuscodes.h</text>
</a>
</g>
</g>
<!-- Node3&#45;&gt;Node7 -->
<g id="edge7" class="edge">
<title>Node3&#45;&gt;Node7</title>
<path fill="none" stroke="midnightblue" d="M287.08,-168.44C265.26,-159.52 230.85,-145.44 206.11,-135.32"/>
<polygon fill="midnightblue" stroke="midnightblue" points="207.4,-132.06 196.82,-131.52 204.75,-138.54 207.4,-132.06"/>
</g>
<!-- Node5 -->
<g id="node5" class="node">
<title>Node5</title>
<g id="a_node5"><a xlink:href="posix_2ua__architecture_8h.html" target="_top" xlink:title=" ">
<polygon fill="none" stroke="black" points="352.5,-0.5 352.5,-19.5 483.5,-19.5 483.5,-0.5 352.5,-0.5"/>
<text text-anchor="middle" x="418" y="-7.5" font-family="Helvetica,sans-Serif" font-size="10.00">posix/ua_architecture.h</text>
</a>
</g>
</g>
<!-- Node4&#45;&gt;Node5 -->
<g id="edge4" class="edge">
<title>Node4&#45;&gt;Node5</title>
<path fill="none" stroke="midnightblue" d="M418,-56.08C418,-49.01 418,-38.86 418,-29.99"/>
<polygon fill="midnightblue" stroke="midnightblue" points="421.5,-29.75 418,-19.75 414.5,-29.75 421.5,-29.75"/>
</g>
<!-- Node6&#45;&gt;Node4 -->
<g id="edge6" class="edge">
<title>Node6&#45;&gt;Node4</title>
<path fill="none" stroke="midnightblue" d="M341.62,-112.32C355.95,-103.82 378.01,-90.73 394.75,-80.8"/>
<polygon fill="midnightblue" stroke="midnightblue" points="396.6,-83.77 403.42,-75.65 393.03,-77.75 396.6,-83.77"/>
</g>
<!-- Node8&#45;&gt;Node3 -->
<g id="edge9" class="edge">
<title>Node8&#45;&gt;Node3</title>
<path fill="none" stroke="midnightblue" d="M277.11,-224.08C282.28,-216.53 289.85,-205.49 296.19,-196.23"/>
<polygon fill="midnightblue" stroke="midnightblue" points="299.24,-197.98 302,-187.75 293.46,-194.02 299.24,-197.98"/>
</g>
<!-- Node9&#45;&gt;Node8 -->
<g id="edge11" class="edge">
<title>Node9&#45;&gt;Node8</title>
<path fill="none" stroke="midnightblue" d="M202.33,-280.4C216.49,-271.04 235.01,-258.79 249.25,-249.38"/>
<polygon fill="midnightblue" stroke="midnightblue" points="251.49,-252.09 257.9,-243.66 247.63,-246.25 251.49,-252.09"/>
</g>
<!-- Node10&#45;&gt;Node4 -->
<g id="edge14" class="edge">
<title>Node10&#45;&gt;Node4</title>
<path fill="none" stroke="midnightblue" d="M475,-352.91C475,-332.48 475,-279.36 475,-235 475,-235 475,-235 475,-177 475,-140.3 449.68,-103.66 432.79,-83.3"/>
<polygon fill="midnightblue" stroke="midnightblue" points="435.35,-80.9 426.17,-75.62 430.05,-85.48 435.35,-80.9"/>
</g>
<!-- Node11 -->
<g id="node11" class="node">
<title>Node11</title>
<g id="a_node11"><a xlink:title=" ">
<polygon fill="none" stroke="#bfbfbf" points="503,-286 503,-305 559,-305 559,-286 503,-286"/>
<text text-anchor="middle" x="531" y="-293" font-family="Helvetica,sans-Serif" font-size="10.00">stdarg.h</text>
</a>
</g>
</g>
<!-- Node10&#45;&gt;Node11 -->
<g id="edge15" class="edge">
<title>Node10&#45;&gt;Node11</title>
<path fill="none" stroke="midnightblue" d="M482.55,-352.73C491.28,-342.6 505.85,-325.69 516.74,-313.06"/>
<polygon fill="midnightblue" stroke="midnightblue" points="519.69,-314.99 523.57,-305.13 514.39,-310.42 519.69,-314.99"/>
</g>
<!-- Node12&#45;&gt;Node2 -->
<g id="edge17" class="edge">
<title>Node12&#45;&gt;Node2</title>
<path fill="none" stroke="midnightblue" d="M399.05,-414.48C361.12,-404.03 296.72,-386.29 254.78,-374.73"/>
<polygon fill="midnightblue" stroke="midnightblue" points="255.46,-371.29 244.89,-372.01 253.6,-378.04 255.46,-371.29"/>
</g>
<!-- Node12&#45;&gt;Node10 -->
<g id="edge18" class="edge">
<title>Node12&#45;&gt;Node10</title>
<path fill="none" stroke="midnightblue" d="M436.45,-414.48C443.2,-405.55 453.97,-391.31 462.41,-380.14"/>
<polygon fill="midnightblue" stroke="midnightblue" points="465.32,-382.1 468.56,-372.01 459.74,-377.87 465.32,-382.1"/>
</g>
<!-- Node13 -->
<g id="node13" class="node">
<title>Node13</title>
<g id="a_node13"><a xlink:href="pki_8h.html" target="_top" xlink:title=" ">
<polygon fill="none" stroke="black" points="315.5,-286 315.5,-305 446.5,-305 446.5,-286 315.5,-286"/>
<text text-anchor="middle" x="381" y="-293" font-family="Helvetica,sans-Serif" font-size="10.00">open62541/plugin/pki.h</text>
</a>
</g>
</g>
<!-- Node12&#45;&gt;Node13 -->
<g id="edge19" class="edge">
<title>Node12&#45;&gt;Node13</title>
<path fill="none" stroke="midnightblue" d="M422.77,-414.25C415.94,-405.57 405.89,-391.61 400,-378 391.18,-357.63 386.12,-332.56 383.48,-315.64"/>
<polygon fill="midnightblue" stroke="midnightblue" points="386.89,-314.8 382.01,-305.39 379.96,-315.78 386.89,-314.8"/>
</g>
<!-- Node13&#45;&gt;Node3 -->
<g id="edge20" class="edge">
<title>Node13&#45;&gt;Node3</title>
<path fill="none" stroke="midnightblue" d="M380.32,-285.57C378.89,-271.47 374.58,-243.64 362,-224 354.11,-211.67 341.76,-201.02 330.86,-193.18"/>
<polygon fill="midnightblue" stroke="midnightblue" points="332.78,-190.25 322.54,-187.51 328.84,-196.04 332.78,-190.25"/>
</g>
<!-- Node13&#45;&gt;Node8 -->
<g id="edge21" class="edge">
<title>Node13&#45;&gt;Node8</title>
<path fill="none" stroke="midnightblue" d="M365.24,-285.98C347.02,-276.12 316.83,-259.79 295.53,-248.27"/>
<polygon fill="midnightblue" stroke="midnightblue" points="297.19,-245.19 286.73,-243.51 293.86,-251.35 297.19,-245.19"/>
</g>
<!-- Node14&#45;&gt;Node3 -->
<g id="edge23" class="edge">
<title>Node14&#45;&gt;Node3</title>
<path fill="none" stroke="midnightblue" d="M60.73,-347.28C65.05,-318.54 79.16,-253.73 121,-224 156.48,-198.79 204.31,-187.58 242.72,-182.66"/>
<polygon fill="midnightblue" stroke="midnightblue" points="243.25,-186.12 252.77,-181.48 242.43,-179.17 243.25,-186.12"/>
</g>
<!-- Node14&#45;&gt;Node8 -->
<g id="edge24" class="edge">
<title>Node14&#45;&gt;Node8</title>
<path fill="none" stroke="midnightblue" d="M61.14,-347.44C64.68,-329.16 73.51,-297.51 94,-280 117.61,-259.83 149.05,-248.51 178.89,-242.21"/>
<polygon fill="midnightblue" stroke="midnightblue" points="179.78,-245.6 188.93,-240.27 178.45,-238.73 179.78,-245.6"/>
</g>
<!-- Node16&#45;&gt;Node14 -->
<g id="edge30" class="edge">
<title>Node16&#45;&gt;Node14</title>
<path fill="none" stroke="midnightblue" d="M143.16,-470.32C129.12,-452.5 96.68,-411.32 76.42,-385.61"/>
<polygon fill="midnightblue" stroke="midnightblue" points="79,-383.23 70.07,-377.55 73.51,-387.57 79,-383.23"/>
</g>
<!-- Node17 -->
<g id="node17" class="node">
<title>Node17</title>
<g id="a_node17"><a xlink:href="network_8h.html" target="_top" xlink:title=" ">
<polygon fill="none" stroke="black" points="165.5,-414.5 165.5,-433.5 320.5,-433.5 320.5,-414.5 165.5,-414.5"/>
<text text-anchor="middle" x="243" y="-421.5" font-family="Helvetica,sans-Serif" font-size="10.00">open62541/plugin/network.h</text>
</a>
</g>
</g>
<!-- Node16&#45;&gt;Node17 -->
<g id="edge27" class="edge">
<title>Node16&#45;&gt;Node17</title>
<path fill="none" stroke="midnightblue" d="M164.94,-470.32C179.59,-461.82 202.13,-448.73 219.24,-438.8"/>
<polygon fill="midnightblue" stroke="midnightblue" points="221.2,-441.7 228.1,-433.65 217.69,-435.65 221.2,-441.7"/>
</g>
<!-- Node17&#45;&gt;Node2 -->
<g id="edge28" class="edge">
<title>Node17&#45;&gt;Node2</title>
<path fill="none" stroke="midnightblue" d="M238.85,-414.48C234.62,-405.82 227.96,-392.15 222.6,-381.15"/>
<polygon fill="midnightblue" stroke="midnightblue" points="225.67,-379.46 218.15,-372.01 219.38,-382.53 225.67,-379.46"/>
</g>
<!-- Node17&#45;&gt;Node10 -->
<g id="edge29" class="edge">
<title>Node17&#45;&gt;Node10</title>
<path fill="none" stroke="midnightblue" d="M276.24,-414.48C317.24,-403.96 387.03,-386.06 432.05,-374.51"/>
<polygon fill="midnightblue" stroke="midnightblue" points="433,-377.88 441.82,-372.01 431.27,-371.1 433,-377.88"/>
</g>
</g>
</svg>
